<?xml version="1.0" encoding="utf-8"?>
<!-- Generator: Adobe Illustrator 16.0.0, SVG Export Plug-In . SVG Version: 6.00 Build 0)  -->
<!DOCTYPE svg PUBLIC "-//W3C//DTD SVG 1.1//EN" "http://www.w3.org/Graphics/SVG/1.1/DTD/svg11.dtd">
<svg version="1.1" id="图层_1" xmlns="http://www.w3.org/2000/svg" xmlns:xlink="http://www.w3.org/1999/xlink" x="0px" y="0px"
	width="100%" height="100%" viewBox="0 0 28 28" enable-background="new 0 0 28 28" xml:space="preserve">
<g enable-background="new    ">
	<path fill="#313239" d="M12.028,14.249c-0.234,0.21-0.473,0.407-0.713,0.594c-0.242,0.187-0.561,0.346-0.961,0.48
		c-0.4,0.135-0.952,0.193-1.655,0.179c-0.736-0.005-1.299-0.088-1.69-0.246c-0.388-0.158-0.735-0.387-1.035-0.686
		c-0.302-0.297-0.536-0.672-0.705-1.122c-0.168-0.451-0.255-0.938-0.266-1.46c-0.008-0.524,0.014-0.971,0.063-1.346
		c0.077-0.526,0.212-0.985,0.41-1.375C5.67,8.877,5.925,8.54,6.239,8.254s0.76-0.524,1.337-0.713
		c0.576-0.189,1.182-0.252,1.816-0.19c0.52,0.064,1.052,0.235,1.598,0.516c0.545,0.28,0.933,0.605,1.166,0.98
		s0.411,0.774,0.537,1.204c0.126,0.426,0.188,0.973,0.182,1.641l-0.038,3.415c-0.007,0.399-0.029,0.892-0.067,1.476
		c-0.038,0.584-0.101,1.054-0.19,1.414c-0.088,0.354-0.238,0.686-0.447,0.981c-0.211,0.299-0.495,0.579-0.858,0.838
		c-0.361,0.265-0.749,0.457-1.167,0.592c-0.413,0.132-0.826,0.205-1.232,0.216c-0.513,0.027-1.001-0.025-1.465-0.152
		c-0.461-0.128-0.846-0.298-1.15-0.521c-0.306-0.215-0.533-0.464-0.69-0.733c-0.155-0.274-0.29-0.557-0.404-0.849
		C5.054,18.077,5,17.843,5.005,17.66c0.006-0.181,0.079-0.31,0.219-0.383c0.14-0.073,0.306-0.015,0.495,0.176
		c0.07,0.078,0.143,0.239,0.218,0.491c0.076,0.25,0.2,0.512,0.373,0.783C6.482,19,6.693,19.215,6.948,19.37s0.571,0.269,0.951,0.342
		c0.381,0.073,0.742,0.096,1.083,0.073c0.401-0.021,0.794-0.108,1.184-0.268c0.39-0.158,0.718-0.374,0.985-0.647
		c0.266-0.272,0.442-0.532,0.528-0.781c0.085-0.246,0.152-0.645,0.204-1.193c0.049-0.548,0.079-0.858,0.085-0.928L12.028,14.249z
		 M11.991,11.167c0-0.564-0.118-1.094-0.353-1.589c-0.234-0.494-0.621-0.866-1.162-1.118c-0.539-0.25-1.144-0.353-1.816-0.308
		c-0.602,0.042-1.102,0.185-1.5,0.422C6.765,8.813,6.464,9.116,6.257,9.482c-0.206,0.367-0.333,0.748-0.38,1.142
		c-0.047,0.393-0.073,0.757-0.076,1.088c-0.003,0.335,0.025,0.65,0.082,0.946c0.089,0.49,0.258,0.887,0.508,1.189
		c0.249,0.306,0.605,0.525,1.065,0.656c0.46,0.133,0.946,0.188,1.46,0.161c0.494-0.019,0.953-0.103,1.373-0.252
		c0.42-0.149,0.787-0.375,1.09-0.675c0.305-0.302,0.46-0.528,0.466-0.681l0.142-0.951v-0.94H11.991L11.991,11.167z"/>
	<path fill="#313239" d="M15.54,13.84c0.235-0.337,0.455-0.612,0.661-0.828c0.206-0.218,0.52-0.428,0.941-0.639
		c0.423-0.211,0.948-0.337,1.574-0.38c0.533-0.032,1.033,0.015,1.505,0.143c0.467,0.126,0.885,0.328,1.24,0.6
		c0.359,0.271,0.658,0.579,0.899,0.922s0.408,0.723,0.508,1.146c0.099,0.422,0.144,0.881,0.128,1.375
		c-0.022,0.734-0.131,1.359-0.315,1.869c-0.188,0.512-0.422,0.943-0.711,1.293c-0.286,0.351-0.692,0.667-1.222,0.948
		c-0.529,0.28-1.178,0.404-1.946,0.38c-0.583-0.012-1.119-0.128-1.607-0.346c-0.49-0.219-0.89-0.514-1.204-0.881
		c-0.314-0.366-0.571-0.819-0.766-1.351c-0.197-0.531-0.337-1.077-0.419-1.632c-0.083-0.555-0.129-1.14-0.144-1.751
		c-0.013-0.611-0.002-1.222,0.029-1.83c0.05-0.907,0.164-1.667,0.34-2.278c0.173-0.612,0.403-1.128,0.689-1.546
		c0.285-0.418,0.623-0.764,1.013-1.036c0.391-0.274,0.797-0.46,1.217-0.558c0.422-0.097,0.889-0.122,1.394-0.071
		c0.452,0.05,0.883,0.167,1.295,0.346c0.413,0.182,0.77,0.441,1.072,0.775c0.299,0.337,0.513,0.629,0.631,0.876
		c0.121,0.248,0.172,0.456,0.15,0.623c-0.024,0.167-0.111,0.284-0.269,0.347c-0.156,0.063-0.303,0.021-0.451-0.133
		c-0.044-0.037-0.107-0.166-0.186-0.381c-0.08-0.217-0.214-0.45-0.396-0.705c-0.183-0.253-0.483-0.493-0.902-0.718
		c-0.419-0.224-0.979-0.294-1.674-0.213c-0.483,0.064-0.917,0.209-1.303,0.438c-0.387,0.227-0.697,0.526-0.927,0.895
		c-0.233,0.368-0.424,0.889-0.576,1.562c-0.154,0.671-0.231,1.291-0.234,1.854C15.569,13.519,15.558,13.815,15.54,13.84z
		 M21.722,14.307c-0.265-0.438-0.645-0.793-1.136-1.07c-0.492-0.277-1.029-0.419-1.612-0.423c-0.712-0.006-1.333,0.158-1.866,0.5
		c-0.531,0.34-0.912,0.784-1.141,1.331c-0.228,0.548-0.322,1.109-0.285,1.681c0.019,0.444,0.11,0.899,0.276,1.365
		c0.166,0.465,0.37,0.84,0.613,1.121c0.246,0.282,0.595,0.526,1.053,0.728c0.456,0.203,0.96,0.295,1.521,0.276
		c0.335-0.006,0.65-0.06,0.943-0.161c0.288-0.101,0.574-0.259,0.849-0.469c0.277-0.214,0.53-0.557,0.763-1.026
		c0.232-0.473,0.364-0.974,0.406-1.5c0.035-0.527,0.009-1.005-0.088-1.438C21.922,14.79,21.823,14.484,21.722,14.307z"/>
</g>
</svg>
