<?xml version="1.0" encoding="utf-8"?>
<!-- Generator: Adobe Illustrator 16.0.0, SVG Export Plug-In . SVG Version: 6.00 Build 0)  -->
<!DOCTYPE svg PUBLIC "-//W3C//DTD SVG 1.1//EN" "http://www.w3.org/Graphics/SVG/1.1/DTD/svg11.dtd">
<svg version="1.1" id="图层_1" xmlns="http://www.w3.org/2000/svg" xmlns:xlink="http://www.w3.org/1999/xlink" x="0px" y="0px"
	 width="40px" height="40px" viewBox="0 0 40 40" enable-background="new 0 0 40 40" xml:space="preserve">
<g>
	<path fill="#333333" d="M30.835,23.239c-2.56-6.632-10.04-9.95-16.671-7.394c-3.307,1.271-5.883,3.777-7.257,7.054L6,22.521
		c1.479-3.527,4.253-6.224,7.811-7.591c7.142-2.75,15.188,0.818,17.943,7.957L30.835,23.239z"/>
	<path fill="#333333" d="M31.997,20.074l1.373-1.424c0.396-0.406,0.681-0.277,0.622,0.309l-0.655,6.398
		c-0.058,0.58-0.517,0.813-1.022,0.508l-5.498-3.334c-0.498-0.305-0.445-0.611,0.135-0.684l1.959-0.238l1.736-0.264L31.997,20.074
		L31.997,20.074z"/>
</g>
</svg>
