<?xml version="1.0" encoding="utf-8"?>
<!-- Generator: Adobe Illustrator 16.0.0, SVG Export Plug-In . SVG Version: 6.00 Build 0)  -->
<!DOCTYPE svg PUBLIC "-//W3C//DTD SVG 1.1//EN" "http://www.w3.org/Graphics/SVG/1.1/DTD/svg11.dtd">
<svg version="1.1" id="图层_1" xmlns="http://www.w3.org/2000/svg" xmlns:xlink="http://www.w3.org/1999/xlink" x="0px" y="0px"
	 width="40px" height="40px" viewBox="0 0 40 40" enable-background="new 0 0 40 40" xml:space="preserve">
<g>
	<path fill="#333333" d="M18.785,26c-1.656,0-3.338-0.298-4.975-0.928C10.252,23.704,7.478,21.008,6,17.48L6.908,17.1
		c1.375,3.279,3.951,5.785,7.256,7.055c6.635,2.555,14.114-0.76,16.671-7.393l0.919,0.354C29.631,22.617,24.36,26,18.785,26z"/>
	<path fill="#333333" d="M31.998,19.926l-1.352-1.271l-1.737-0.264l-1.958-0.238c-0.579-0.072-0.633-0.379-0.135-0.684l5.496-3.334
		c0.507-0.307,0.968-0.072,1.023,0.508l0.656,6.4c0.059,0.586-0.229,0.715-0.622,0.307L31.998,19.926L31.998,19.926z"/>
</g>
</svg>
