<?xml version="1.0" encoding="utf-8"?>
<!-- Generator: Adobe Illustrator 16.0.0, SVG Export Plug-In . SVG Version: 6.00 Build 0)  -->
<!DOCTYPE svg PUBLIC "-//W3C//DTD SVG 1.1//EN" "http://www.w3.org/Graphics/SVG/1.1/DTD/svg11.dtd">
<svg version="1.1" id="图层_1" xmlns="http://www.w3.org/2000/svg" xmlns:xlink="http://www.w3.org/1999/xlink" x="0px" y="0px"
	 width="40px" height="40px" viewBox="0 0 40 40" enable-background="new 0 0 40 40" xml:space="preserve">
<g>
	<path fill="#333333" d="M31.061,22.762c-2.33-6.041-9.143-9.062-15.186-6.733c-3.011,1.155-5.356,3.438-6.61,6.425l-0.922-0.388
		c1.358-3.241,3.906-5.718,7.174-6.972c6.554-2.525,13.949,0.752,16.478,7.308L31.061,22.762z"/>
	<path fill="#333333" d="M32.17,20.336l1.254-1.302c0.361-0.373,0.623-0.255,0.57,0.28l-0.602,5.854
		c-0.053,0.53-0.475,0.744-0.936,0.465l-5.029-3.051c-0.457-0.276-0.408-0.56,0.123-0.625l1.789-0.218l1.59-0.241L32.17,20.336
		L32.17,20.336z"/>
	<path fill="#333333" d="M7.833,20.336L9.069,21.5l1.591,0.241l1.79,0.218c0.531,0.066,0.58,0.348,0.123,0.625l-5.029,3.051
		C7.082,25.914,6.66,25.7,6.608,25.17l-0.602-5.853c-0.053-0.536,0.208-0.654,0.57-0.281L7.833,20.336L7.833,20.336z"/>
</g>
</svg>
