<?xml version="1.0" encoding="utf-8"?>
<!-- Generator: Adobe Illustrator 16.0.0, SVG Export Plug-In . SVG Version: 6.00 Build 0)  -->
<!DOCTYPE svg PUBLIC "-//W3C//DTD SVG 1.1//EN" "http://www.w3.org/Graphics/SVG/1.1/DTD/svg11.dtd">
<svg version="1.1" id="图层_1" xmlns="http://www.w3.org/2000/svg" xmlns:xlink="http://www.w3.org/1999/xlink" x="0px" y="0px"
	 width="40px" height="40px" viewBox="0 0 40 40" enable-background="new 0 0 40 40" xml:space="preserve">
<g>
	<path fill="#323333" d="M31.839,24.729h-1c0-5.916-4.813-10.73-10.729-10.73c-5.918,0-10.731,4.814-10.731,10.73h-1
		c0-6.469,5.263-11.73,11.731-11.73C26.577,12.999,31.839,18.263,31.839,24.729z"/>
	<path fill="#323333" d="M32.354,22.806l1.226-0.686c0.353-0.196,0.521-0.047,0.36,0.335l-1.754,4.212
		c-0.156,0.378-0.518,0.446-0.797,0.135l-3.054-3.391c-0.276-0.307-0.178-0.501,0.229-0.438l1.377,0.237l1.233,0.179L32.354,22.806
		L32.354,22.806z"/>
	<path fill="#323333" d="M7.646,22.806l1.178,0.586l1.232-0.178l1.379-0.236c0.405-0.066,0.504,0.131,0.229,0.437l-3.053,3.39
		c-0.278,0.313-0.639,0.243-0.797-0.136l-1.754-4.212c-0.16-0.382,0.008-0.531,0.359-0.335L7.646,22.806L7.646,22.806z"/>
</g>
</svg>
