<?xml version="1.0" encoding="utf-8"?>
<!-- Generator: Adobe Illustrator 16.0.0, SVG Export Plug-In . SVG Version: 6.00 Build 0)  -->
<!DOCTYPE svg PUBLIC "-//W3C//DTD SVG 1.1//EN" "http://www.w3.org/Graphics/SVG/1.1/DTD/svg11.dtd">
<svg version="1.1" id="图层_1" xmlns="http://www.w3.org/2000/svg" xmlns:xlink="http://www.w3.org/1999/xlink" x="0px" y="0px"
	 width="40px" height="40px" viewBox="0 0 40 40" enable-background="new 0 0 40 40" xml:space="preserve">
<g>
	<path fill="#323333" d="M18.881,27c-7.104,0-12.882-5.738-12.882-12.792h0.985c0,6.511,5.338,11.808,11.896,11.808
		c6.559,0,11.895-5.297,11.895-11.808h0.986C31.763,21.262,25.983,27,18.881,27z"/>
	<path fill="#323333" d="M32.183,17.593l-1.301-0.641l-1.357,0.193l-1.521,0.26c-0.446,0.072-0.56-0.145-0.251-0.478l3.367-3.712
		c0.311-0.342,0.705-0.268,0.879,0.148l1.936,4.611c0.176,0.42-0.011,0.582-0.396,0.365L32.183,17.593L32.183,17.593z"/>
</g>
</svg>
