<?xml version="1.0" encoding="utf-8"?>
<!-- Generator: Adobe Illustrator 16.0.0, SVG Export Plug-In . SVG Version: 6.00 Build 0)  -->
<!DOCTYPE svg PUBLIC "-//W3C//DTD SVG 1.1//EN" "http://www.w3.org/Graphics/SVG/1.1/DTD/svg11.dtd">
<svg version="1.1" id="图层_1" xmlns="http://www.w3.org/2000/svg" xmlns:xlink="http://www.w3.org/1999/xlink" x="0px" y="0px"
	 width="40px" height="40px" viewBox="0 0 40 40" enable-background="new 0 0 40 40" xml:space="preserve">
<g>
	<path fill="#323333" d="M31.973,25.771h-1c0-6.627-5.434-12.021-12.111-12.021c-6.679,0-12.112,5.393-12.112,12.021h-1
		c0-7.179,5.883-13.021,13.112-13.021C26.092,12.75,31.973,18.591,31.973,25.771z"/>
	<path fill="#323333" d="M32.403,22.576l1.375-0.763c0.396-0.22,0.584-0.055,0.404,0.372l-1.97,4.693
		c-0.176,0.424-0.58,0.5-0.895,0.152l-3.428-3.779c-0.313-0.34-0.2-0.561,0.256-0.485l1.55,0.265l1.382,0.196L32.403,22.576
		L32.403,22.576z"/>
</g>
</svg>
