<?xml version="1.0" encoding="utf-8"?>
<!-- Generator: Adobe Illustrator 16.0.0, SVG Export Plug-In . SVG Version: 6.00 Build 0)  -->
<!DOCTYPE svg PUBLIC "-//W3C//DTD SVG 1.1//EN" "http://www.w3.org/Graphics/SVG/1.1/DTD/svg11.dtd">
<svg version="1.1" id="图层_1" xmlns="http://www.w3.org/2000/svg" xmlns:xlink="http://www.w3.org/1999/xlink" x="0px" y="0px"
	 width="40px" height="40px" viewBox="0 0 40 40" enable-background="new 0 0 40 40" xml:space="preserve">
<g>
	<g>
		<path fill="#323333" d="M28.131,18.053l2.378-0.921c0.686-0.267,0.951,0.034,0.566,0.688l-4.215,7.146
			c-0.385,0.645-1.045,0.676-1.476,0.047l-4.647-6.876c-0.419-0.617-0.188-0.953,0.521-0.721l2.432,0.774l2.176,0.627L28.131,18.053
			L28.131,18.053z"/>
	</g>
	<path fill="#323333" d="M17.611,34.5c-4.888,0-8.863-6.503-8.863-14.495c0-7.997,3.976-14.505,8.863-14.505
		c4.885,0,8.859,6.507,8.859,14.505h-1.01c0-7.442-3.521-13.497-7.849-13.497c-4.332,0-7.855,6.055-7.855,13.497
		c0,7.436,3.523,13.485,7.855,13.485V34.5L17.611,34.5z"/>
</g>
</svg>
