<?xml version="1.0" encoding="utf-8"?>
<!-- Generator: Adobe Illustrator 16.0.0, SVG Export Plug-In . SVG Version: 6.00 Build 0)  -->
<!DOCTYPE svg PUBLIC "-//W3C//DTD SVG 1.1//EN" "http://www.w3.org/Graphics/SVG/1.1/DTD/svg11.dtd">
<svg version="1.1" id="图层_1" xmlns="http://www.w3.org/2000/svg" xmlns:xlink="http://www.w3.org/1999/xlink" x="0px" y="0px"
	 width="40px" height="40px" viewBox="0 0 40 40" enable-background="new 0 0 40 40" xml:space="preserve">
<g>
	<path fill="#323333" d="M18.989,33C11.827,33,6,27.168,6,20c0-7.167,5.826-13,12.988-13v0.984C12.37,7.984,6.984,13.375,6.984,20
		s5.386,12.016,12.005,12.016c6.62,0,12.006-5.392,12.006-12.018h0.982C31.979,27.167,26.152,33,18.989,33z"/>
	<path fill="#323333" d="M32.471,21.777L31.38,21.25l-1.137,0.18l-1.274,0.238c-0.373,0.071-0.47-0.113-0.216-0.402l2.774-3.173
		c0.251-0.294,0.587-0.233,0.737,0.116l1.676,3.87c0.152,0.354,0,0.493-0.331,0.313L32.471,21.777L32.471,21.777z"/>
</g>
</svg>
