<?xml version="1.0" encoding="utf-8"?>
<!-- Generator: Adobe Illustrator 16.0.0, SVG Export Plug-In . SVG Version: 6.00 Build 0)  -->
<!DOCTYPE svg PUBLIC "-//W3C//DTD SVG 1.1//EN" "http://www.w3.org/Graphics/SVG/1.1/DTD/svg11.dtd">
<svg version="1.1" id="图层_1" xmlns="http://www.w3.org/2000/svg" xmlns:xlink="http://www.w3.org/1999/xlink" x="0px" y="0px"
	 width="40px" height="40px" viewBox="0 0 40 40" enable-background="new 0 0 40 40" xml:space="preserve">
<g>
	<path fill="#323333" d="M10.102,30.886C7.456,28.242,6,24.729,6,20.989c0-3.739,1.457-7.253,4.102-9.896
		c5.457-5.455,14.34-5.457,19.799,0c2.645,2.644,4.1,6.158,4.1,9.896c0,3.74-1.455,7.254-4.1,9.896l-0.684-0.683
		c2.463-2.46,3.816-5.731,3.816-9.215c0-3.481-1.354-6.753-3.816-9.214c-5.084-5.08-13.354-5.079-18.434,0
		c-2.463,2.461-3.818,5.732-3.818,9.214s1.355,6.755,3.818,9.215L10.102,30.886z"/>
	<path fill="#323333" d="M8.557,30.374l1.24-0.432l0.734-1.008l0.793-1.157c0.232-0.343,0.447-0.274,0.475,0.141l0.303,4.558
		c0.035,0.414-0.271,0.627-0.654,0.475L7.2,31.272c-0.39-0.155-0.377-0.379,0.013-0.494L8.557,30.374L8.557,30.374z"/>
	<path fill="#323333" d="M31.348,30.374l1.344,0.403c0.391,0.114,0.404,0.339,0.014,0.493l-4.246,1.679
		c-0.381,0.153-0.686-0.06-0.652-0.474l0.303-4.559c0.029-0.415,0.242-0.482,0.475-0.141l0.793,1.156l0.734,1.008L31.348,30.374
		L31.348,30.374z"/>
</g>
</svg>
