<?xml version="1.0" encoding="utf-8"?>
<!-- Generator: Adobe Illustrator 16.0.0, SVG Export Plug-In . SVG Version: 6.00 Build 0)  -->
<!DOCTYPE svg PUBLIC "-//W3C//DTD SVG 1.1//EN" "http://www.w3.org/Graphics/SVG/1.1/DTD/svg11.dtd">
<svg version="1.1" id="图层_1" xmlns="http://www.w3.org/2000/svg" xmlns:xlink="http://www.w3.org/1999/xlink" x="0px" y="0px"
	 width="40px" height="40px" viewBox="0 0 40 40" enable-background="new 0 0 40 40" xml:space="preserve">
<g>
	<g>
		<path fill="#323333" d="M28.107,21.817l-2.287-0.691l-2.153,0.691l-2.401,0.851c-0.708,0.251-0.949-0.074-0.547-0.709l4.433-7.009
			c0.409-0.644,1.07-0.634,1.472,0l4.434,7.009c0.406,0.644,0.146,0.955-0.548,0.709L28.107,21.817L28.107,21.817z"/>
	</g>
	<path fill="#323333" d="M17.628,34.5c-4.896,0-8.878-6.505-8.878-14.501c0-7.995,3.981-14.499,8.878-14.499v1.01
		C13.289,6.51,9.76,12.561,9.76,20s3.529,13.493,7.868,13.493s7.87-6.054,7.87-13.493h1.01C26.508,27.995,22.524,34.5,17.628,34.5z"
		/>
</g>
</svg>
