<?xml version="1.0" encoding="utf-8"?>
<!-- Generator: Adobe Illustrator 16.0.0, SVG Export Plug-In . SVG Version: 6.00 Build 0)  -->
<!DOCTYPE svg PUBLIC "-//W3C//DTD SVG 1.1//EN" "http://www.w3.org/Graphics/SVG/1.1/DTD/svg11.dtd">
<svg version="1.1" id="图层_1" xmlns="http://www.w3.org/2000/svg" xmlns:xlink="http://www.w3.org/1999/xlink" x="0px" y="0px"
	 width="40px" height="40px" viewBox="0 0 40 40" enable-background="new 0 0 40 40" xml:space="preserve">
<g>
	<path fill="#323333" d="M18.554,15.797c-4.545,0-9.088,1.726-12.555,5.179l0.697,0.698c6.562-6.537,17.219-6.518,23.755,0.043
		l0.7-0.696C27.684,17.541,23.119,15.797,18.554,15.797z"/>
	<path fill="#323333" d="M31.285,19.728l0.645-1.541c0.182-0.443,0.448-0.433,0.586,0.049l1.453,5.235
		c0.133,0.479-0.158,0.803-0.648,0.719l-5.354-0.932c-0.479-0.084-0.536-0.348-0.103-0.578l1.472-0.797l1.282-0.738L31.285,19.728
		L31.285,19.728z"/>
</g>
</svg>
