<?xml version="1.0" encoding="utf-8"?>
<!-- Generator: Adobe Illustrator 16.0.0, SVG Export Plug-In . SVG Version: 6.00 Build 0)  -->
<!DOCTYPE svg PUBLIC "-//W3C//DTD SVG 1.1//EN" "http://www.w3.org/Graphics/SVG/1.1/DTD/svg11.dtd">
<svg version="1.1" id="图层_1" xmlns="http://www.w3.org/2000/svg" xmlns:xlink="http://www.w3.org/1999/xlink" x="0px" y="0px"
	 width="40px" height="40px" viewBox="0 0 40 40" enable-background="new 0 0 40 40" xml:space="preserve">
<g>
	<path fill="#323333" d="M18.553,24.201c-4.544,0-9.087-1.727-12.553-5.178l0.697-0.698c6.561,6.534,17.219,6.517,23.755-0.043
		l0.7,0.696C27.684,22.459,23.119,24.201,18.553,24.201z"/>
	<path fill="#323333" d="M31.285,20.271l-0.669-1.416l-1.282-0.738l-1.473-0.797c-0.434-0.229-0.377-0.494,0.104-0.577l5.355-0.931
		c0.488-0.084,0.779,0.237,0.647,0.717l-1.454,5.234c-0.138,0.479-0.402,0.491-0.586,0.047L31.285,20.271L31.285,20.271z"/>
</g>
</svg>
