<?xml version="1.0" encoding="utf-8"?>
<!-- Generator: Adobe Illustrator 16.0.0, SVG Export Plug-In . SVG Version: 6.00 Build 0)  -->
<!DOCTYPE svg PUBLIC "-//W3C//DTD SVG 1.1//EN" "http://www.w3.org/Graphics/SVG/1.1/DTD/svg11.dtd">
<svg version="1.1" id="图层_1" xmlns="http://www.w3.org/2000/svg" xmlns:xlink="http://www.w3.org/1999/xlink" x="0px" y="0px"
	 width="40px" height="40px" viewBox="0 0 40 40" enable-background="new 0 0 40 40" xml:space="preserve">
<g>
	<path fill="#323333" d="M30.753,21.689c-5.898-6.181-15.52-6.199-21.439-0.039l-0.708-0.74c6.313-6.563,16.565-6.546,22.855,0.043
		L30.753,21.689z"/>
	<path fill="#323333" d="M31.545,19.771l0.58-1.457c0.166-0.42,0.407-0.41,0.53,0.045l1.316,4.95
		c0.119,0.455-0.146,0.758-0.588,0.678l-4.851-0.879c-0.437-0.078-0.483-0.33-0.093-0.545l1.332-0.756l1.164-0.697L31.545,19.771
		L31.545,19.771z"/>
	<path fill="#323333" d="M8.46,19.771l0.605,1.338l1.161,0.697l1.333,0.754c0.393,0.217,0.344,0.467-0.092,0.547l-4.852,0.879
		c-0.441,0.08-0.707-0.226-0.586-0.68l1.317-4.949c0.123-0.455,0.365-0.465,0.53-0.045L8.46,19.771L8.46,19.771z"/>
</g>
</svg>
