<?xml version="1.0" encoding="utf-8"?>
<!-- Generator: Adobe Illustrator 16.0.0, SVG Export Plug-In . SVG Version: 6.00 Build 0)  -->
<!DOCTYPE svg PUBLIC "-//W3C//DTD SVG 1.1//EN" "http://www.w3.org/Graphics/SVG/1.1/DTD/svg11.dtd">
<svg version="1.1" id="图层_1" xmlns="http://www.w3.org/2000/svg" xmlns:xlink="http://www.w3.org/1999/xlink" x="0px" y="0px"
	 width="40px" height="40px" viewBox="0 0 40 40" enable-background="new 0 0 40 40" xml:space="preserve">
<path display="none" fill="#6B6C6B" d="M878.457-66.628c2.071,2.085,2.071,5.414,0,7.471L287.543,531.786
	c-2.086,2.085-5.415,2.085-7.486,0L242.657,494.4c-2.071-2.086-2.071-5.415,0-7.443L833.6-104.014c2.086-2.086,5.415-2.086,7.458,0
	L878.457-66.628z"/>
<g>
	<g>
		<path fill="#323333" d="M17.475,21.822l-9,8.998c-0.076,0.076-0.113,0.163-0.082,0.198l0.588,0.588
			c0.032,0.033,0.122-0.004,0.203-0.081l8.997-8.998L17.475,21.822z"/>
		<path fill="#323333" d="M30.82,8.473l-8.997,9l0.7,0.706l9.002-9c0.077-0.074,0.112-0.165,0.083-0.198L31.02,8.392
			C30.984,8.36,30.896,8.397,30.82,8.473z"/>
	</g>
	<path fill="#323333" d="M21.143,19.445c0.031,0.033-0.002,0.12-0.083,0.2l-1.412,1.414c-0.079,0.074-0.167,0.114-0.201,0.082
		l-0.588-0.588c-0.031-0.032,0.006-0.123,0.083-0.199l1.414-1.417c0.078-0.078,0.168-0.115,0.198-0.082L21.143,19.445z"/>
</g>
</svg>
