<?xml version="1.0" encoding="utf-8"?>
<!-- Generator: Adobe Illustrator 16.0.0, SVG Export Plug-In . SVG Version: 6.00 Build 0)  -->
<!DOCTYPE svg PUBLIC "-//W3C//DTD SVG 1.1//EN" "http://www.w3.org/Graphics/SVG/1.1/DTD/svg11.dtd">
<svg version="1.1" id="图层_1" xmlns="http://www.w3.org/2000/svg" xmlns:xlink="http://www.w3.org/1999/xlink" x="0px" y="0px"
	 width="40px" height="40px" viewBox="280 180 40 40" enable-background="new 280 180 40 40" xml:space="preserve">
<g>
	<g transform="rotate(90 14 14)">
		<path fill="#323333" d="M185-271.999l7.501,12.99h15l7.499-12.99l-7.499-12.993h-15L185-271.999z M206.924-283.991l6.922,11.993
			l-6.922,11.99h-13.846l-6.923-11.99l6.923-11.993H206.924z"/>
		<g>
			<g>
				<g>
					
						<rect x="195.906" y="-263.826" transform="matrix(2.578893e-006 1 -1 2.578893e-006 -66.2908 -459.1016)" fill="#323333" width="1" height="2.259"/>
					
						<rect x="199.499" y="-263.826" transform="matrix(2.578893e-006 1 -1 2.578893e-006 -62.6978 -462.6946)" fill="#323333" width="1" height="2.26"/>
					
						<rect x="203.094" y="-263.827" transform="matrix(2.578893e-006 1 -1 2.578893e-006 -59.1026 -466.2899)" fill="#323333" width="1" height="2.261"/>
				</g>
				<g>
					
						<rect x="195.906" y="-282.432" transform="matrix(2.578893e-006 1 -1 2.578893e-006 -84.8972 -477.708)" fill="#323333" width="1" height="2.259"/>
					
						<rect x="199.499" y="-282.433" transform="matrix(2.578893e-006 1 -1 2.578893e-006 -81.3042 -481.301)" fill="#323333" width="1" height="2.26"/>
					
						<rect x="203.094" y="-282.433" transform="matrix(2.578893e-006 1 -1 2.578893e-006 -77.709 -484.8962)" fill="#323333" width="1" height="2.261"/>
				</g>
			</g>
			<g>
				<g>
					
						<rect x="189" y="-273.921" transform="matrix(0.4908 -0.8713 0.8713 0.4908 335.0406 26.425)" fill="#323333" width="2.256" height="0.983"/>
					
						<rect x="190.764" y="-277.054" transform="matrix(0.4911 -0.8711 0.8711 0.4911 338.5835 26.4103)" fill="#323333" width="2.261" height="0.984"/>
					
						<rect x="192.528" y="-280.186" transform="matrix(0.4904 -0.8715 0.8715 0.4904 342.447 26.2376)" fill="#323333" width="2.261" height="0.985"/>
				</g>
				<g>
					
						<rect x="189.001" y="-270.895" transform="matrix(0.5105 0.8599 -0.8599 0.5105 -139.4463 -295.8451)" fill="#323333" width="2.257" height="0.983"/>
					
						<rect x="190.836" y="-267.804" transform="matrix(0.5113 0.8594 -0.8594 0.5113 -135.9134 -295.6295)" fill="#323333" width="2.261" height="0.983"/>
					
						<rect x="192.671" y="-264.714" transform="matrix(0.5101 0.8601 -0.8601 0.5101 -132.3198 -296.1185)" fill="#323333" width="2.262" height="0.984"/>
				</g>
				<g>
					
						<rect x="204.948" y="-280.394" transform="matrix(0.4906 0.8714 -0.8714 0.4906 -138.9299 -322.1413)" fill="#323333" width="2.257" height="0.982"/>
					
						<rect x="206.711" y="-277.262" transform="matrix(0.4916 0.8708 -0.8708 0.4916 -135.3496 -321.7128)" fill="#323333" width="2.261" height="0.983"/>
					
						<rect x="208.475" y="-274.132" transform="matrix(0.4906 0.8714 -0.8714 0.4906 -131.669 -322.0587)" fill="#323333" width="2.262" height="0.985"/>
				</g>
				<g>
					
						<rect x="205" y="-264.921" transform="matrix(0.4908 -0.8713 0.8713 0.4908 335.3461 44.9478)" fill="#323333" width="2.256" height="0.982"/>
					
						<rect x="206.763" y="-268.054" transform="matrix(0.4911 -0.8711 0.8711 0.4911 338.8863 44.9286)" fill="#323333" width="2.261" height="0.983"/>
					
						<rect x="208.528" y="-271.186" transform="matrix(0.4902 -0.8716 0.8716 0.4902 342.8167 44.7432)" fill="#323333" width="2.261" height="0.985"/>
				</g>
			</g>
		</g>
	</g>
</g>
</svg>
