<?xml version="1.0" encoding="utf-8"?>
<!-- Generator: Adobe Illustrator 16.0.0, SVG Export Plug-In . SVG Version: 6.00 Build 0)  -->
<!DOCTYPE svg PUBLIC "-//W3C//DTD SVG 1.1//EN" "http://www.w3.org/Graphics/SVG/1.1/DTD/svg11.dtd">
<svg version="1.1" id="图层_1" xmlns="http://www.w3.org/2000/svg" xmlns:xlink="http://www.w3.org/1999/xlink" x="0px" y="0px"
	 width="40px" height="40px" viewBox="0 0 40 40" enable-background="new 0 0 40 40" xml:space="preserve">
<g>
	<path fill="#333333" d="M33.533,10.904c0.026,0.035-0.007,0.125-0.083,0.201L11.105,33.447c-0.081,0.077-0.172,0.117-0.201,0.083
		l-0.589-0.59c-0.034-0.03,0.004-0.118,0.083-0.198l22.343-22.343c0.078-0.078,0.171-0.115,0.199-0.083L33.533,10.904z"/>
	<path fill="#333333" d="M11.257,25.469c0.032,0.029-0.099,0.217-0.293,0.408L7.46,29.383c-0.195,0.195-0.378,0.325-0.411,0.291
		l-0.587-0.589c-0.031-0.033,0.097-0.214,0.292-0.408l3.508-3.506c0.194-0.194,0.375-0.322,0.41-0.292L11.257,25.469z"/>
	<path fill="#333333" d="M17.397,19.33c0.033,0.031-0.098,0.216-0.292,0.41l-3.505,3.506c-0.194,0.193-0.376,0.324-0.41,0.289
		l-0.588-0.586c-0.035-0.028,0.097-0.215,0.291-0.408l3.506-3.507c0.194-0.194,0.377-0.326,0.412-0.292L17.397,19.33L17.397,19.33z"
		/>
	<path fill="#333333" d="M23.538,13.191c0.028,0.032-0.102,0.218-0.295,0.409l-3.504,3.507c-0.195,0.194-0.377,0.322-0.41,0.291
		l-0.587-0.59c-0.033-0.033,0.098-0.213,0.293-0.41l3.507-3.509c0.195-0.193,0.378-0.324,0.408-0.291L23.538,13.191z"/>
	<path fill="#333333" d="M29.68,7.05c0.03,0.033-0.101,0.216-0.294,0.41l-3.505,3.506c-0.195,0.193-0.381,0.325-0.41,0.292
		l-0.588-0.588c-0.033-0.031,0.098-0.217,0.291-0.41l3.507-3.507c0.191-0.194,0.373-0.326,0.408-0.293L29.68,7.05z"/>
</g>
</svg>
