<?xml version="1.0" encoding="utf-8"?>
<!-- Generator: Adobe Illustrator 16.0.0, SVG Export Plug-In . SVG Version: 6.00 Build 0)  -->
<!DOCTYPE svg PUBLIC "-//W3C//DTD SVG 1.1//EN" "http://www.w3.org/Graphics/SVG/1.1/DTD/svg11.dtd">
<svg version="1.1" id="图层_1" xmlns="http://www.w3.org/2000/svg" xmlns:xlink="http://www.w3.org/1999/xlink" x="0px" y="0px"
	 width="40px" height="40px" viewBox="280 180 40 40" enable-background="new 280 180 40 40" xml:space="preserve">
<g>
	<path fill="#323333" d="M299.997,184.784L284,196.406l6.112,18.81h19.773l6.114-18.81L299.997,184.784z M309.159,214.216h-18.32
		l-5.663-17.428l14.821-10.768l14.827,10.768L309.159,214.216z"/>
	<g>
		<g>
			<rect x="293.584" y="210.775" fill="#323333" width="2.962" height="1"/>
			<rect x="298.728" y="210.775" fill="#323333" width="2.965" height="1"/>
			<rect x="303.872" y="210.775" fill="#323333" width="2.962" height="1"/>
		</g>
		<g>
			
				<rect x="288.102" y="196.93" transform="matrix(-0.8103 0.586 -0.586 -0.8103 639.9202 187.6745)" fill="#323333" width="2.961" height="0.971"/>
			
				<rect x="292.268" y="193.914" transform="matrix(-0.8103 0.5861 -0.5861 -0.8103 645.6984 179.762)" fill="#323333" width="2.966" height="0.972"/>
			
				<rect x="296.436" y="190.899" transform="matrix(-0.8102 0.5861 -0.5861 -0.8102 651.4694 171.8385)" fill="#323333" width="2.961" height="0.971"/>
		</g>
		<g>
			<polygon fill="#323333" points="311.659,198.521 309.265,196.779 309.823,196.004 312.218,197.746 			"/>
			<polygon fill="#323333" points="307.504,195.496 305.106,193.75 305.666,192.976 308.064,194.721 			"/>
			<polygon fill="#323333" points="303.343,192.466 300.947,190.723 301.506,189.95 303.901,191.693 			"/>
		</g>
		<g>
			
				<rect x="287.564" y="198.624" transform="matrix(-0.3098 -0.9508 0.9508 -0.3098 189.2639 535.6304)" fill="#323333" width="2.962" height="0.992"/>
			
				<rect x="289.159" y="203.512" transform="matrix(-0.3098 -0.9508 0.9508 -0.3098 186.711 543.5536)" fill="#323333" width="2.966" height="0.993"/>
			
				<rect x="290.757" y="208.407" transform="matrix(-0.3097 -0.9508 0.9508 -0.3097 184.1268 551.4754)" fill="#323333" width="2.962" height="0.992"/>
		</g>
		<g>
			
				<rect x="309.816" y="198.425" transform="matrix(0.3089 -0.9511 0.9511 0.3089 25.9548 433.5644)" fill="#323333" width="2.963" height="0.997"/>
			
				<rect x="308.224" y="203.319" transform="matrix(0.3085 -0.9512 0.9512 0.3085 20.2824 435.5366)" fill="#323333" width="2.966" height="0.998"/>
			
				<rect x="306.638" y="208.21" transform="matrix(0.3082 -0.9513 0.9513 0.3082 14.6078 437.5038)" fill="#323333" width="2.959" height="0.996"/>
		</g>
	</g>
</g>
</svg>
