<svg id="图层_38" data-name="图层 38" xmlns="http://www.w3.org/2000/svg" viewBox="0 0 270.34278 147.37891" width="270" height="160">
    <title>玻璃仪器</title> <g stroke="#000000" fill="#000000" stroke-width="0.5324" transform="translate(-30.3322 -611.31055)">
    <path d="M300.34814,744.62256l-6.39508-39.88617a11.48955,11.48955,0,0,0,3.28815-2.30573c2.23486-2.31006,3.25293-5.49072,3.11279-9.69092l.31494-9.09766-.01819-.00061a9.55994,9.55994,0,0,0-.31287-2.83728l-28.34766-55.708c-3.58936-8.1167-13.6001-13.78564-24.34424-13.78564H53.876c-6.84766,0-12.6748,2.25879-15.58789,6.042A9.01829,9.01829,0,0,0,36.646,625.347v11.74182l1.33594,5.03711L38.5,690.13037l12.93506,54.69922c2.02,7.64209,12.95264,13.85986,24.37012,13.85986H283.12451c6.84473,0,12.67188-2.26025,15.5874-6.04639A8.98528,8.98528,0,0,0,300.34814,744.62256ZM39.08008,617.96289c2.72559-3.53955,8.25635-5.65234,14.7959-5.65234h193.77c10.36084,0,19.99512,5.42383,23.44092,13.21484l28.29736,55.58545a8.0369,8.0369,0,0,1-1.46387,7.145c-2.73,3.54639-8.26074,5.66406-14.7959,5.66406H75.80518c-10.98877,0-21.48779-5.88379-23.40332-13.11621l-14.77246-55.6333A8.05611,8.05611,0,0,1,39.08008,617.96289ZM37.646,637.02344v-7.89319l13.78906,51.92981c2.02441,7.64258,12.95654,13.85986,24.37012,13.85986H283.12451c6.84326,0,12.67041-2.26318,15.58838-6.0542a10.02548,10.02548,0,0,0,.81946-1.26984l-.17737,5.14337c.13037,3.94873-.79639,6.89111-2.83252,8.99609-2.58789,2.6748-6.9707,3.9751-13.39795,3.9751H75.80518c-10.98926,0-21.48779-5.88379-23.40332-13.11621Zm14.75879,107.563L39.49951,690.064l-.475-44.00708,12.41058,46.7937c1.24585,4.70325,5.87109,8.86011,11.90009,11.367L54.302,748.43219A11.52738,11.52738,0,0,1,52.40479,744.58643Zm245.51465,7.44629c-2.72754,3.542-8.2583,5.65674-14.79492,5.65674H75.80518c-8.48187,0-16.65192-3.50922-20.82654-8.42572l.16687.03412,9.13477-44.71216a32.84385,32.84385,0,0,0,11.5249,2.12476H283.12451a26.80489,26.80489,0,0,0,9.88428-1.54785l6.3623,39.667A8.052,8.052,0,0,1,297.91943,752.03271Z"
         />
    <path d="M270.07275,729.84668c-.81152-5.66064-7.2085-5.67627-7.25537-5.66211-.22668.00024-3.84344.00305-9.83868.00793a15.4697,15.4697,0,0,0-29.14813.02454c-26.11719.02289-60.28345.05579-86.02008.09015a15.47656,15.47656,0,0,0-29.24713.04944c-.37738.00092-.75366.00183-1.10583.00275-2.353.00635-2.70166.01221-3.0459.01807-.14453.00244-.28809.00488-.57959.00732-10.20605.08545-11.54785,5.19336-11.59961,5.41016-.02393.09814-2.41992,9.90137-4.31982,16.29834a4.58423,4.58423,0,0,0,.48438,4.26221c1.80176,2.37109,6.05566,2.31689,6.23682,2.32178,1.62012.002,162.12256.2002,169.89844.2002,4.96924,0,7.59424-1.83545,7.80322-5.45508.00537-.09229.00977-.16895.01611-.22656.08643-.75781-1.01367-8.53711-2.14795-16.44043ZM228.02417,719.324l2.27661,2.28925.2832-.28223-2.27722-2.28986a14.441,14.441,0,0,1,9.60291-4.09351V721.916h1v-6.96832a14.44018,14.44018,0,0,1,9.60114,4.09222l-2.29108,2.29065.2832.2832,2.291-2.29059a14.441,14.441,0,0,1,4.09186,9.60114H245.918v1h6.96783a14.44107,14.44107,0,0,1-4.092,9.60138l-2.29083-2.29083-.2832.2832,2.29083,2.29083a14.43993,14.43993,0,0,1-9.60089,4.092v-6.96783h-1v6.96783a14.441,14.441,0,0,1-9.60272-4.09332l2.277-2.29-.2832-.28223-2.27643,2.28949a14.441,14.441,0,0,1-4.09131-9.60052h6.96783v-1H223.933A14.44081,14.44081,0,0,1,228.02417,719.324Zm-119.304,9.60028a14.44111,14.44111,0,0,1,4.091-9.60028l2.27625,2.28925.2832-.28223-2.27679-2.28986a14.44027,14.44027,0,0,1,9.60248-4.09351V721.916h1v-6.96832a14.44105,14.44105,0,0,1,9.60156,4.09229l-2.291,2.29059.2832.2832,2.291-2.29059a14.44111,14.44111,0,0,1,4.09186,9.60114h-6.983v1h6.983a14.441,14.441,0,0,1-4.0921,9.60132L131.29,737.23486l-.2832.2832,2.29077,2.29077a14.441,14.441,0,0,1-9.60132,4.0921v-6.96783h-1v6.96783a14.44035,14.44035,0,0,1-9.60229-4.09332l2.27661-2.29-.2832-.28223-2.276,2.28943a14.44109,14.44109,0,0,1-4.09125-9.60046H115.688v-1ZM271.936,747.39941c-.07227,1.25586-.293,5.07764-7.40381,5.07764-7.77588,0-168.27783-.19775-169.90186-.2002-.03857.01709-4.23535.04834-5.91553-2.16406a4.20943,4.20943,0,0,1-.41846-3.90527c1.90234-6.40674,4.30078-16.21924,4.32471-16.31787.01221-.05029,1.34668-5.02246,11.21387-5.10449.29346-.00244.438-.00537.5835-.00781.34375-.00586.69141-.01172,3.04-.01758.3092-.00079.64044-.00165.97089-.00244a15.50092,15.50092,0,1,0,29.5199-.05017c25.67291-.0343,59.68085-.067,85.73334-.0899a15.50122,15.50122,0,1,0,29.44653-.02466c5.9231-.00476,9.48444-.00745,9.69019-.00763h.002c.26025-.00732,6.09424.0083,6.856,5.31836l.13037.90869c.78076,5.44092,2.23438,15.56836,2.14648,16.33887C271.94678,747.21387,271.94189,747.29785,271.936,747.39941Z"
          /></g>
</svg>