<?xml version="1.0" encoding="utf-8"?>
<!-- Generator: Adobe Illustrator 21.0.0, SVG Export Plug-In . SVG Version: 6.00 Build 0)  -->
<svg version="1.1" id="图层_1" xmlns="http://www.w3.org/2000/svg" xmlns:xlink="http://www.w3.org/1999/xlink" x="0px" y="0px" width="160" height="192"
	 viewBox="0 0 160 192" style="enable-background:new 0 0 160 192;" xml:space="preserve">
<style type="text/css">
	.st0{display:none;}
	.st1{display:inline;}
	.st2{fill:url(#SVGID_1_);}
	.st3{fill:url(#SVGID_2_);}
	.st4{fill:none;stroke:#000000;stroke-width:0.2074;}
	.st5{fill:url(#SVGID_3_);}
	.st6{fill:url(#SVGID_4_);}
	.st7{opacity:0.6;}
	.st8{fill:none;stroke:#01192B;stroke-width:0.2105;stroke-linecap:round;stroke-miterlimit:1;}
	.st9{fill:url(#SVGID_5_);}
	.st10{fill:url(#SVGID_6_);}
	.st11{fill:none;stroke:#000000;stroke-width:0.2058;stroke-linecap:round;stroke-miterlimit:1;}
	.st12{fill:url(#SVGID_7_);}
	.st13{fill:url(#SVGID_8_);}
	.st14{fill:none;stroke:#000000;stroke-width:0.2219;stroke-linecap:round;stroke-miterlimit:1;}
	.st15{fill:url(#SVGID_9_);}
	.st16{fill:url(#SVGID_10_);}
	.st17{fill:none;stroke:#000000;stroke-width:0.2549;}
	.st18{fill:url(#SVGID_11_);}
	.st19{fill:url(#SVGID_12_);}
	.st20{fill:none;stroke:#000000;stroke-width:0.2035;}
	.st21{fill:url(#SVGID_13_);}
	.st22{fill:url(#SVGID_14_);}
	.st23{fill:none;}
	.st24{fill:none;stroke:#000000;stroke-width:0.2084;}
	.st25{fill:url(#SVGID_15_);}
	.st26{fill:url(#SVGID_16_);}
	.st27{fill:url(#SVGID_17_); stroke:none;}
	.st28{fill:url(#SVGID_18_); stroke:none;}
	.st29{fill:none;stroke:#000000;stroke-width:0.2319;}
	.st30{fill:url(#SVGID_19_);}
	.st31{fill:url(#SVGID_20_);}
</style>
<g id="图层_9">
	<g>
		
			<linearGradient id="SVGID_17_" gradientUnits="userSpaceOnUse" x1="-82.5949" y1="111.2575" x2="82.9402" y2="5.8763">
			<stop  offset="0.1828" style="stop-color:#99FFFF;stop-opacity:0.1"/>
			<stop  offset="0.5834" style="stop-color:#45C6FF;stop-opacity:0.2113"/>
			<stop  offset="0.9028" style="stop-color:#0097FF;stop-opacity:0.3"/>
		</linearGradient>
		<path class="st27" d="M24.5,108.5c-0.1,15,0,56.5-0.5,65.2c1.5,9.7,27.3,16.7,58.6,16.2c15.3-0.3,58.1-3.7,58.4-16.2
			c0.8-8.2,0.8-63.4,0.3-64.6c-3.6-8.5-34.5-13-58.2-13.1C62.3,96.1,27.2,100,24.5,108.5z"/>
		
			<radialGradient id="SVGID_18_" cx="97.4489" cy="-136.1302" r="44.9045" gradientTransform="matrix(0.9356 0 0 -0.5683 -8.4232 32.8372)" gradientUnits="userSpaceOnUse">
			<stop  offset="0.2849" style="stop-color:#99FFFF;stop-opacity:0.1"/>
			<stop  offset="1" style="stop-color:#0097FF;stop-opacity:0.1"/>
		</radialGradient>
		<path class="st28" d="M141.4,110.2c0,7.8-26.5,14.1-59.1,14.1s-58.2-6.4-58.2-14.2s25.5-14,58.2-14S141.4,102.4,141.4,110.2z"/>
	</g>
	<g id="Spline_295_">
		<line shape-rendering="auto" class="st29" x1="54.6" y1="182.1" x2="53.4" y2="183.3"/>
		<line shape-rendering="auto" class="st29" x1="51.6" y1="175.3" x2="53.3" y2="175.8"/>
		<line shape-rendering="auto" class="st29" x1="48.5" y1="170" x2="49.7" y2="169.4"/>
		<line shape-rendering="auto" class="st29" x1="41.8" y1="172.3" x2="40.9" y2="171.3"/>
		<line shape-rendering="auto" class="st29" x1="39.3" y1="173.3" x2="37.4" y2="172.8"/>
		<line shape-rendering="auto" class="st29" x1="38.8" y1="175.4" x2="37.4" y2="174.4"/>
		<line shape-rendering="auto" class="st29" x1="47.2" y1="174.6" x2="46.6" y2="173.3"/>
		<line shape-rendering="auto" class="st29" x1="51.5" y1="174" x2="50.8" y2="172.9"/>
		<line shape-rendering="auto" class="st29" x1="47.8" y1="176.9" x2="46.7" y2="176.2"/>
		<line shape-rendering="auto" class="st29" x1="50.1" y1="180.9" x2="48.4" y2="181.7"/>
		<line shape-rendering="auto" class="st29" x1="43.7" y1="176.6" x2="44.9" y2="176.6"/>
		<line shape-rendering="auto" class="st29" x1="37.9" y1="176.8" x2="37.9" y2="178"/>
		<line shape-rendering="auto" class="st29" x1="46.4" y1="180.9" x2="45.4" y2="180.2"/>
		<line shape-rendering="auto" class="st29" x1="65" y1="169.9" x2="65.6" y2="168.8"/>
		<line shape-rendering="auto" class="st29" x1="57.6" y1="171" x2="58.8" y2="170.3"/>
		<line shape-rendering="auto" class="st29" x1="57.8" y1="179" x2="58.6" y2="178"/>
		<line shape-rendering="auto" class="st29" x1="56.3" y1="181.1" x2="55.1" y2="180.4"/>
		<line shape-rendering="auto" class="st29" x1="56.1" y1="172.3" x2="55" y2="173.3"/>
		<line shape-rendering="auto" class="st29" x1="77.7" y1="178.8" x2="78.5" y2="179.9"/>
		<line shape-rendering="auto" class="st29" x1="77.1" y1="171.6" x2="78.4" y2="172.2"/>
		<line shape-rendering="auto" class="st29" x1="71.7" y1="170.8" x2="70.7" y2="169.9"/>
		<line shape-rendering="auto" class="st29" x1="62.5" y1="171.8" x2="63.7" y2="171.1"/>
		<line shape-rendering="auto" class="st29" x1="59.3" y1="174.7" x2="59.8" y2="173.6"/>
		<line shape-rendering="auto" class="st29" x1="63.6" y1="177" x2="62.7" y2="176.2"/>
		<line shape-rendering="auto" class="st29" x1="73.4" y1="171.9" x2="72.2" y2="172.8"/>
		<line shape-rendering="auto" class="st29" x1="72.9" y1="175.8" x2="74" y2="175.1"/>
		<line shape-rendering="auto" class="st29" x1="75.6" y1="177.7" x2="74.9" y2="179"/>
		<line shape-rendering="auto" class="st29" x1="76.6" y1="184.8" x2="75.7" y2="185.5"/>
		<line shape-rendering="auto" class="st29" x1="70.9" y1="179.3" x2="71.8" y2="178"/>
		<line shape-rendering="auto" class="st29" x1="62.7" y1="177.9" x2="63.5" y2="178.9"/>
		<line shape-rendering="auto" class="st29" x1="61" y1="181.5" x2="59.4" y2="182"/>
		<line shape-rendering="auto" class="st29" x1="67.3" y1="179.3" x2="66.4" y2="180.4"/>
		<line shape-rendering="auto" class="st29" x1="69.5" y1="183.3" x2="70.3" y2="182.2"/>
		<line shape-rendering="auto" class="st29" x1="66.7" y1="182.5" x2="67.5" y2="181.5"/>
		<line shape-rendering="auto" class="st29" x1="37.1" y1="170.1" x2="36.2" y2="169.1"/>
		<line shape-rendering="auto" class="st29" x1="60.3" y1="167.2" x2="60.9" y2="166"/>
		<line shape-rendering="auto" class="st29" x1="91.7" y1="170.1" x2="92.8" y2="169.4"/>
		<line shape-rendering="auto" class="st29" x1="85" y1="170.1" x2="84.1" y2="169.1"/>
		<line shape-rendering="auto" class="st29" x1="82.1" y1="174.8" x2="81.6" y2="173.5"/>
		<line shape-rendering="auto" class="st29" x1="80.2" y1="170.7" x2="79.4" y2="169.6"/>
		<line shape-rendering="auto" class="st29" x1="102.1" y1="177" x2="101" y2="177.7"/>
		<line shape-rendering="auto" class="st29" x1="99.1" y1="169.9" x2="100.6" y2="169.9"/>
		<line shape-rendering="auto" class="st29" x1="83.3" y1="174.7" x2="83.9" y2="173.6"/>
		<line shape-rendering="auto" class="st29" x1="103.5" y1="178.2" x2="104.1" y2="176.7"/>
		<line shape-rendering="auto" class="st29" x1="87.6" y1="177" x2="86.7" y2="176.2"/>
		<line shape-rendering="auto" class="st29" x1="97.4" y1="171.9" x2="96.2" y2="172.8"/>
		<line shape-rendering="auto" class="st29" x1="97" y1="175.8" x2="98" y2="175.1"/>
		<line shape-rendering="auto" class="st29" x1="101.2" y1="181.2" x2="99.8" y2="181.2"/>
		<line shape-rendering="auto" class="st29" x1="97.6" y1="177.7" x2="97.6" y2="179.2"/>
		<line shape-rendering="auto" class="st29" x1="89.9" y1="178.4" x2="90.8" y2="177.3"/>
		<line shape-rendering="auto" class="st29" x1="83" y1="181.7" x2="83" y2="180.3"/>
		<line shape-rendering="auto" class="st29" x1="89" y1="181.1" x2="87.9" y2="180.3"/>
		<line shape-rendering="auto" class="st29" x1="94.3" y1="180.9" x2="93.3" y2="180.2"/>
		<line shape-rendering="auto" class="st29" x1="92.1" y1="184.3" x2="92.8" y2="185.3"/>
		<line shape-rendering="auto" class="st29" x1="86" y1="184.2" x2="85.5" y2="183.2"/>
		<line shape-rendering="auto" class="st29" x1="84.4" y1="167.2" x2="84.9" y2="166"/>
		<line shape-rendering="auto" class="st29" x1="52.5" y1="168.7" x2="53.3" y2="168"/>
		<line shape-rendering="auto" class="st29" x1="42.8" y1="167.7" x2="43.9" y2="166.9"/>
		<line shape-rendering="auto" class="st29" x1="52.6" y1="165.6" x2="51.4" y2="164.7"/>
		<line shape-rendering="auto" class="st29" x1="48.1" y1="166.2" x2="46.9" y2="165.5"/>
		<line shape-rendering="auto" class="st29" x1="58.7" y1="167.4" x2="57.6" y2="166.3"/>
		<line shape-rendering="auto" class="st29" x1="73.1" y1="167.8" x2="74.1" y2="168.6"/>
		<line shape-rendering="auto" class="st29" x1="60.4" y1="164.8" x2="59.2" y2="164.8"/>
		<line shape-rendering="auto" class="st29" x1="77.8" y1="160.7" x2="78.3" y2="162.1"/>
		<line shape-rendering="auto" class="st29" x1="76.5" y1="165.6" x2="75.3" y2="164.7"/>
		<line shape-rendering="auto" class="st29" x1="72" y1="166.2" x2="70.8" y2="165.5"/>
		<line shape-rendering="auto" class="st29" x1="43.8" y1="170.1" x2="44.9" y2="169.4"/>
		<line shape-rendering="auto" class="st29" x1="80.4" y1="181.1" x2="79.2" y2="180.4"/>
		<line shape-rendering="auto" class="st29" x1="95.7" y1="170.8" x2="94.8" y2="169.9"/>
		<line shape-rendering="auto" class="st29" x1="86.5" y1="171.8" x2="87.7" y2="171.1"/>
		<line shape-rendering="auto" class="st29" x1="71" y1="163.2" x2="71" y2="161.9"/>
		<line shape-rendering="auto" class="st29" x1="62.7" y1="161.7" x2="61.5" y2="161.7"/>
		<line shape-rendering="auto" class="st29" x1="66.9" y1="163.2" x2="65.8" y2="163.2"/>
		<line shape-rendering="auto" class="st29" x1="82.2" y1="162.7" x2="81.1" y2="163.5"/>
		<line shape-rendering="auto" class="st29" x1="100.4" y1="168.7" x2="101.2" y2="168"/>
		<line shape-rendering="auto" class="st29" x1="90.8" y1="167.7" x2="91.8" y2="166.9"/>
		<line shape-rendering="auto" class="st29" x1="102.3" y1="164.7" x2="101.3" y2="165.3"/>
		<line shape-rendering="auto" class="st29" x1="100.5" y1="165.6" x2="99.3" y2="164.7"/>
		<line shape-rendering="auto" class="st29" x1="96" y1="166.2" x2="94.8" y2="165.5"/>
		<line shape-rendering="auto" class="st29" x1="92.2" y1="165.8" x2="93.3" y2="165.2"/>
		<line shape-rendering="auto" class="st29" x1="86.7" y1="161.7" x2="85.5" y2="161.7"/>
		<line shape-rendering="auto" class="st29" x1="90" y1="160.9" x2="89.2" y2="161.7"/>
		<line shape-rendering="auto" class="st29" x1="109.5" y1="168.2" x2="108" y2="167.7"/>
		<line shape-rendering="auto" class="st29" x1="110.2" y1="169.4" x2="111.4" y2="168.6"/>
		<line shape-rendering="auto" class="st29" x1="106" y1="168.1" x2="104.6" y2="168.1"/>
		<line shape-rendering="auto" class="st29" x1="105.9" y1="181.7" x2="104.5" y2="181.7"/>
		<line shape-rendering="auto" class="st29" x1="103.9" y1="170.5" x2="103.2" y2="169.4"/>
		<line shape-rendering="auto" class="st29" x1="123.3" y1="175" x2="125" y2="175.5"/>
		<line shape-rendering="auto" class="st29" x1="120.2" y1="169.7" x2="121.5" y2="169.1"/>
		<line shape-rendering="auto" class="st29" x1="113.5" y1="172.1" x2="112.6" y2="171.1"/>
		<line shape-rendering="auto" class="st29" x1="111" y1="173.1" x2="109.1" y2="172.6"/>
		<line shape-rendering="auto" class="st29" x1="110.5" y1="175.1" x2="109.1" y2="174.1"/>
		<line shape-rendering="auto" class="st29" x1="118.9" y1="174.4" x2="118.3" y2="173.1"/>
		<line shape-rendering="auto" class="st29" x1="123.2" y1="173.8" x2="122.5" y2="172.7"/>
		<line shape-rendering="auto" class="st29" x1="119.5" y1="176.7" x2="118.5" y2="175.9"/>
		<line shape-rendering="auto" class="st29" x1="121.3" y1="177.5" x2="121.3" y2="179"/>
		<line shape-rendering="auto" class="st29" x1="113.7" y1="178.1" x2="114.6" y2="177"/>
		<line shape-rendering="auto" class="st29" x1="106.8" y1="181.4" x2="106.8" y2="180"/>
		<line shape-rendering="auto" class="st29" x1="112.8" y1="180.9" x2="111.7" y2="180"/>
		<line shape-rendering="auto" class="st29" x1="118.1" y1="180.7" x2="117.1" y2="180"/>
		<line shape-rendering="auto" class="st29" x1="109.8" y1="184" x2="109.3" y2="183"/>
		<line shape-rendering="auto" class="st29" x1="129.4" y1="170.8" x2="130.6" y2="170.1"/>
		<line shape-rendering="auto" class="st29" x1="128" y1="170.5" x2="127.2" y2="169.4"/>
		<line shape-rendering="auto" class="st29" x1="106" y1="162.5" x2="104.9" y2="163.2"/>
		<line shape-rendering="auto" class="st29" x1="120.9" y1="167.6" x2="121.9" y2="168.4"/>
		<line shape-rendering="auto" class="st29" x1="108.2" y1="164.6" x2="107" y2="164.6"/>
		<line shape-rendering="auto" class="st29" x1="119.8" y1="165.9" x2="118.6" y2="165.2"/>
		<line shape-rendering="auto" class="st29" x1="131.8" y1="171.9" x2="130.2" y2="172.5"/>
		<line shape-rendering="auto" class="st29" x1="109.6" y1="164.9" x2="110.7" y2="164.2"/>
		<path stroke="#000000" fill="#000000" stroke-width="0.5324" d="M83.3,1.6c-25.9,0-49.2,4.3-59.5,10.9c-4.1,2.6-6.9,5.8-8.9,8.1c-0.6,0.7-1.1,1.3-1.6,1.8s-1.1,1-1.7,1.5
			c-1.6,1.2-3.5,2.6-3.5,5c0,2.6,1.4,4,3.9,4l0,0c0.8,0,1.7-0.2,2.7-0.5c2.9,2.9,9.3,10.1,9.3,17.1c0,7.9,0,124.2,0,124.2
			c0,9.2,26.7,16.7,59,16.7s59-7.5,59-16.7c0,0,0-130.1,0-135.4c0-3.2,1.1-7.8,2.4-11.5c2.6-2,4-4.2,4-6.6
			C148.4,9.8,119.8,1.6,83.3,1.6z M14.1,23c2.1-2.2,5.1-6.4,10.3-9.7C34.2,7,56.9,2.6,83.3,2.6c28.5,0,52.7,5.1,61,12.2
			c0.4,0.7,0.3,1.2,0.3,1.6c0,0.8-0.4,2-1.4,3.1c-6.3,6.7-30.4,11.8-57.4,12.7C64.3,33.1,46.4,30,36,25.8c-1.8-0.7-7.6-2.4-12.6-2.4
			c-1.8,0-3.3,0.3-4.6,0.8c-1.8,0.7-3.3,1.6-4.7,2.3c-1.7,0.9-3.1,1.7-4.1,1.7c-0.9,0-0.7-0.5-0.7-0.5C9.9,25.8,12.5,24.7,14.1,23z
			 M141,38.4v135.4c0,7.6-23.6,15.7-58,15.7s-58-8.1-58-15.7V49.5c0-5.1-3-10.9-9.3-17.5c1.6-0.6,3.1-1.4,3.8-1.9
			c0.8-0.3,1.9-0.4,3.1-0.4c1.7,0,4.4,0.3,7.8,1.7C42.5,36.1,62.3,39,83.3,39c27.1,0,49.8-4.5,59.7-11.1
			C141.8,31.4,141,35.5,141,38.4z M83.3,38c-21.7,0-40.9-3-52.5-7.5c-5-2-9.4-2.1-11.8-1.1c0,0.2-9.5,5.7-9.8-0.2
			c2.1,0.8,5.5-2.1,10.1-3.9c4.9-1.9,13.8,0.8,16.4,1.9c10.6,4.3,27.8,7.2,50.2,6.5c33.3-1,60.1-8.7,59.8-17.1c0-0.1,0-0.2,0-0.3
			c1.2,1.4,1.9,2.8,1.9,4.2C147.4,30.1,118.7,38,83.3,38z"/>
	</g>
</g>

</svg>
