<?xml version="1.0" encoding="utf-8"?>
<!-- Generator: Adobe Illustrator 17.0.0, SVG Export Plug-In . SVG Version: 6.00 Build 0)  -->
<!DOCTYPE svg PUBLIC "-//W3C//DTD SVG 1.1//EN" "http://www.w3.org/Graphics/SVG/1.1/DTD/svg11.dtd">
<svg version="1.1" xmlns="http://www.w3.org/2000/svg" xmlns:xlink="http://www.w3.org/1999/xlink" x="0px" y="0px" width="28px"
	 height="28px" viewBox="0 0 40 40" enable-background="new 0 0 40 40" xml:space="preserve">
<g id="15_x5F">
	<path fill="#000000" d="M25.6,19.1c1.5-1.1,2.5-2.9,2.5-4.8c0-3.3-2.7-6-6-6.1l-11.2,0v11v0.5v12.1h11.5c4,0,6.7-2.7,6.7-6.7
		C29.1,22.3,27.8,20.2,25.6,19.1z M11.9,9.2h10.2c2.8,0,5.1,2.3,5.1,5.1c0,1.8-1,3.5-2.7,4.4l-12.5,0V9.2z M22.4,30.8H11.9V19.7
		l12.6,0c2.3,0.7,3.7,2.7,3.7,5.4C28.1,28.6,25.9,30.8,22.4,30.8z"/>
</g>
</svg>
