<?xml version="1.0" encoding="utf-8"?>
<!-- Generator: Adobe Illustrator 16.0.0, SVG Export Plug-In . SVG Version: 6.00 Build 0)  -->
<!DOCTYPE svg PUBLIC "-//W3C//DTD SVG 1.1//EN" "http://www.w3.org/Graphics/SVG/1.1/DTD/svg11.dtd">
<svg version="1.1" id="图层_1" xmlns="http://www.w3.org/2000/svg" xmlns:xlink="http://www.w3.org/1999/xlink" x="0px" y="0px" width="22" height="22"   viewBox="0 0 28 28" enable-background="new 0 0 28 28" xml:space="preserve">
<g>
	<path fill="#333333" d="M14.017,14.271c0.321,0.299,0.626,0.726,0.912,1.287c0.286,0.563,0.43,1.267,0.43,2.12
		c-0.01,0.69-0.116,1.265-0.322,1.729c-0.209,0.46-0.488,0.873-0.841,1.234c-0.354,0.358-0.73,0.631-1.133,0.804
		c-0.403,0.176-0.865,0.308-1.392,0.394c-0.525,0.087-1.127,0.126-1.807,0.126H6.223c-0.338,0.013-0.596-0.049-0.776-0.18
		c-0.179-0.128-0.3-0.277-0.359-0.444C5.029,21.171,5,20.933,5,20.618V7.222c0-0.251,0.026-0.475,0.076-0.668
		c0.051-0.195,0.2-0.352,0.452-0.47c0.25-0.118,0.549-0.176,0.893-0.176h3.161c1.243,0,2.177,0.109,2.8,0.329
		c0.622,0.219,1.146,0.61,1.572,1.17c0.427,0.559,0.64,1.396,0.64,2.509c-0.008,0.72-0.12,1.354-0.34,1.903
		c-0.219,0.548-0.422,0.872-0.61,0.975l-0.785,0.528C13.309,13.656,13.698,13.972,14.017,14.271z M6.011,13.136h3.264
		c0.892,0,1.56-0.045,2.003-0.134c0.442-0.09,0.831-0.258,1.167-0.506c0.336-0.246,0.604-0.602,0.797-1.068
		c0.196-0.467,0.279-1.058,0.247-1.78c-0.031-0.634-0.162-1.146-0.387-1.531c-0.228-0.389-0.537-0.667-0.927-0.834
		c-0.391-0.168-0.81-0.279-1.256-0.334c-0.448-0.055-0.927-0.081-1.446-0.081H6.764c-0.243,0-0.409,0.03-0.5,0.087
		C6.173,7.013,6.108,7.11,6.071,7.242c-0.04,0.133-0.058,0.414-0.058,0.846L6.011,13.136L6.011,13.136z M6.011,14.052v5.93
		c0,0.327,0.026,0.557,0.081,0.682c0.057,0.125,0.128,0.217,0.219,0.27s0.334,0.083,0.735,0.083h2.57
		c0.931,0.008,1.688-0.061,2.273-0.207c0.582-0.144,1.05-0.383,1.396-0.72c0.349-0.336,0.594-0.673,0.74-1.013
		c0.146-0.34,0.217-0.812,0.217-1.411c-0.007-0.705-0.128-1.311-0.364-1.819c-0.236-0.508-0.565-0.888-0.986-1.143
		c-0.422-0.254-0.819-0.425-1.191-0.516c-0.372-0.09-1.114-0.136-2.225-0.136H6.011L6.011,14.052z"/>
	<path fill="#333333" d="M19.068,12.514c0.148-0.141,0.286-0.263,0.411-0.364c0.125-0.103,0.307-0.221,0.545-0.358
		s0.54-0.278,0.905-0.429c0.363-0.148,0.69-0.262,0.978-0.335c0.292-0.075,0.531-0.084,0.729-0.029
		c0.194,0.056,0.312,0.181,0.354,0.376c0.039,0.196-0.04,0.363-0.236,0.503c-0.086,0.065-0.248,0.117-0.48,0.161
		c-0.237,0.042-0.51,0.122-0.823,0.236c-0.315,0.113-0.646,0.263-1,0.447c-0.352,0.183-0.628,0.396-0.826,0.639
		c-0.201,0.243-0.347,0.559-0.436,0.951c-0.093,0.391-0.136,0.792-0.136,1.198v5.33c0,0.576-0.032,0.934-0.093,1.067
		s-0.228,0.193-0.496,0.187c-0.261,0-0.444-0.13-0.551-0.387l0.014-0.867v-9.006c0-0.148,0.01-0.301,0.03-0.458
		c0.02-0.157,0.19-0.239,0.514-0.242s0.519,0.112,0.581,0.346v0.353L19.068,12.514z"/>
</g>
</svg>
