<?xml version="1.0" encoding="UTF-8"?>
<svg width="4px" height="34px" viewBox="0 0 4 34" version="1.1" xmlns="http://www.w3.org/2000/svg" xmlns:xlink="http://www.w3.org/1999/xlink">
    <!-- Generator: Sketch 50 (54983) - http://www.bohemiancoding.com/sketch -->
    <title>大括号一半</title>
    <desc>Created with Sketch.</desc>
    <defs></defs>
    <g id="Page-1" stroke="none" stroke-width="1" fill="none" fill-rule="evenodd">
        <path d="M4,17.5 C3.43769552,17.5 2.91840372,17.3139821 2.50045939,17.0001889 C2.91841861,16.6861848 3.43772064,16.5 3.99999994,16.5 L4,17.5 C3.1726585,17.5 2.49948387,18.1731746 2.49948387,19.0005161 L2.49948387,31.0005161 C2.49948387,32.3808581 1.37994288,33.5 0,33.5 L0,32.5 C0.82773794,32.5 1.49948387,31.8284936 1.49948387,31.0005161 L1.49948387,19.0005161 C1.49948387,18.1831692 1.89290069,17.4566352 2.50045939,17.0001889 C1.8928813,16.5440184 1.49948387,15.8178164 1.49948387,15.0005161 L1.49948387,3.00051613 C1.49948387,2.17289819 0.827065127,1.5 0,1.5 L0,0.5 C1.3795095,0.5 2.49948387,1.62077293 2.49948387,3.00051613 L2.49948387,15.0005161 C2.49948387,15.8275813 3.17238206,16.5 4,16.5 L4,17.5 Z" id="大括号一半" fill="#000000" fill-rule="nonzero" transform="translate(2.000000, 17.000000) scale(-1, 1) translate(-2.000000, -17.000000) "></path>
    </g>
</svg>