<?xml version="1.0" encoding="UTF-8"?>
<svg width="22px" height="34px" viewBox="0 0 22 34" version="1.1" xmlns="http://www.w3.org/2000/svg" xmlns:xlink="http://www.w3.org/1999/xlink">
    <!-- Generator: Sketch 50 (54983) - http://www.bohemiancoding.com/sketch -->
    <title>大括号</title>
    <desc>Created with Sketch.</desc>
    <defs></defs>
    <g id="Page-1" stroke="none" stroke-width="1" fill="none" fill-rule="evenodd">
        <g id="大括号" fill="#000000" fill-rule="nonzero">
            <path d="M22,17.5 C21.4376955,17.5 20.9184037,17.3139821 20.5004594,17.0001889 C20.9184186,16.6861848 21.4377207,16.5 22,16.5 L22,17.5 C21.1726585,17.5 20.4994839,18.1731746 20.4994839,19.0005161 L20.4994839,31.0005161 C20.4994839,32.3808581 19.3799429,33.5 18,33.5 L18,32.5 C18.8277379,32.5 19.4994839,31.8284936 19.4994839,31.0005161 L19.4994839,19.0005161 C19.4994839,18.1831692 19.8929007,17.4566352 20.5004594,17.0001889 C19.8928813,16.5440184 19.4994839,15.8178164 19.4994839,15.0005161 L19.4994839,3.00051613 C19.4994839,2.17289819 18.8270651,1.5 18,1.5 L18,0.5 C19.3795095,0.5 20.4994839,1.62077293 20.4994839,3.00051613 L20.4994839,15.0005161 C20.4994839,15.8275813 21.1723821,16.5 22,16.5 L22,17.5 Z" id="Stroke-1-Copy-7"></path>
            <path d="M4,17.5 C3.43769552,17.5 2.91840372,17.3139821 2.50045939,17.0001889 C2.91841862,16.6861848 3.43772068,16.5 4,16.5 L4,17.5 C3.1726585,17.5 2.49948387,18.1731746 2.49948387,19.0005161 L2.49948387,31.0005161 C2.49948387,32.3808581 1.37994288,33.5 0,33.5 L0,32.5 C0.82773794,32.5 1.49948387,31.8284936 1.49948387,31.0005161 L1.49948387,19.0005161 C1.49948387,18.1831692 1.89290069,17.4566352 2.50045939,17.0001889 C1.8928813,16.5440184 1.49948387,15.8178164 1.49948387,15.0005161 L1.49948387,3.00051613 C1.49948387,2.17289819 0.827065127,1.5 0,1.5 L0,0.5 C1.3795095,0.5 2.49948387,1.62077293 2.49948387,3.00051613 L2.49948387,15.0005161 C2.49948387,15.8275813 3.17238206,16.5 4,16.5 L4,17.5 Z" id="Stroke-1-Copy-8" transform="translate(2.000000, 17.000000) scale(-1, 1) translate(-2.000000, -17.000000) "></path>
        </g>
    </g>
</svg>