<?xml version="1.0" encoding="UTF-8"?>
<svg width="24px" height="34px" viewBox="0 0 24 34" version="1.1" xmlns="http://www.w3.org/2000/svg" xmlns:xlink="http://www.w3.org/1999/xlink">
    <!-- Generator: Sketch 50 (54983) - http://www.bohemiancoding.com/sketch -->
    <title>小括号</title>
    <desc>Created with Sketch.</desc>
    <defs></defs>
    <g id="Page-1" stroke="none" stroke-width="1" fill="none" fill-rule="evenodd">
        <g id="小括号" fill="#000000" fill-rule="nonzero">
            <path d="M5.44019595,32.7628766 C5.57115561,33.0059901 5.48023695,33.3092363 5.23712344,33.440196 C4.99400993,33.5711556 4.69076371,33.4802369 4.55980405,33.2371234 C-0.853266493,23.1882993 -0.853266493,10.8126287 4.55979491,0.762893533 C4.69074519,0.519774974 4.99398791,0.428844622 5.23710647,0.559794908 C5.48022503,0.690745194 5.57115538,0.993987908 5.44020509,1.23710647 C0.186599826,10.9907999 0.186599826,23.0101007 5.44019595,32.7628766 Z" id="Stroke-1-Copy-10"></path>
            <path d="M23.440196,32.7628766 C23.5711556,33.0059901 23.4802369,33.3092363 23.2371234,33.440196 C22.9940099,33.5711556 22.6907637,33.4802369 22.559804,33.2371234 C17.1467335,23.1882993 17.1467335,10.8126287 22.5597949,0.762893533 C22.6907452,0.519774974 22.9939879,0.428844622 23.2371065,0.559794908 C23.480225,0.690745194 23.5711554,0.993987908 23.4402051,1.23710647 C18.1865998,10.9907999 18.1865998,23.0101007 23.440196,32.7628766 Z" id="Stroke-1-Copy-12" transform="translate(21.000048, 17.000000) scale(-1, 1) translate(-21.000048, -17.000000) "></path>
        </g>
    </g>
</svg>