<?xml version="1.0" encoding="UTF-8"?>
<svg width="27px" height="25px" viewBox="0 0 27 25" version="1.1" xmlns="http://www.w3.org/2000/svg" xmlns:xlink="http://www.w3.org/1999/xlink">
    <!-- Generator: Sketch 50 (54983) - http://www.bohemiancoding.com/sketch -->
    <title>连杆曲线</title>
    <desc>Created with Sketch.</desc>
    <defs></defs>
    <g id="Page-1" stroke="none" stroke-width="1" fill="none" fill-rule="evenodd">
        <path d="M18.6813793,12.9781798 L1.35184056,24.1914107 L0.808589282,23.3518406 L18.0923057,12.1682594 C17.8248651,11.3977082 18.1565998,10.5242468 18.8451578,9.97877159 C19.3852707,9.55053284 19.6172693,9.11312331 19.3975314,8.75564048 C19.1522369,8.35700203 18.6184297,8.229506 18.1779885,8.48417107 C17.2667316,9.01028547 16.1086109,8.73934846 15.5997772,7.85802261 C15.0904786,6.97589165 15.4344464,5.83899575 16.3470836,5.31130609 C16.7925116,5.05451844 16.9532945,4.52310759 16.7276259,4.13162087 C16.5024773,3.74165203 15.9609333,3.61525248 15.5152563,3.8721836 C14.6037259,4.39845587 13.4462385,4.12798418 12.937216,3.24633106 C12.4274283,2.36474507 12.7723405,1.22682838 13.6846696,0.700873924 L14.1841147,1.56721946 C13.7385446,1.82408902 13.5773902,2.35576158 13.8030704,2.74603514 C14.0286509,3.13675204 14.5699719,3.26324326 15.0155337,3.00599813 C15.9274875,2.48026003 17.0848794,2.75040213 17.5938218,3.6319165 C18.1027142,4.51473501 17.7586865,5.65179589 16.8470831,6.17733152 C16.4008362,6.43535308 16.2400068,6.96693287 16.4658026,7.35802261 C16.6910855,7.74822399 17.2330708,7.87501898 17.6777111,7.61830591 C18.5818382,7.09553532 19.717001,7.36666085 20.2493337,8.23177705 C20.8270179,9.17158843 20.3583709,10.0551741 19.4662786,10.7624864 C19.0458075,11.0955834 18.8868718,11.604652 19.0916866,11.9594016 C19.3172671,12.3501185 19.8585881,12.4766097 20.3038725,12.2195247 C21.2163776,11.6926896 22.3742198,11.9632442 22.8820837,12.8456731 C23.3909164,13.7269972 23.0466818,14.8647422 22.1354223,15.390858 C21.6897177,15.6481858 21.5285951,16.180251 21.7540873,16.5708152 C21.9795187,16.9618901 22.5204879,17.0882991 22.9661027,16.8306426 C23.8779627,16.30418 25.0344245,16.574412 25.5455246,17.4568808 C26.0533691,18.339275 25.708935,19.4756478 24.7974688,20.0026618 C24.3521204,20.2597838 24.1911533,20.7913203 24.416649,21.182507 C24.6419471,21.5727348 25.1831174,21.6991861 25.6280555,21.4419208 L26.1286102,22.3076257 C25.217273,22.8345652 24.0595867,22.564057 23.5504531,21.6822114 C23.0417236,20.7996754 23.3859824,19.6628832 24.2971914,19.1367966 C24.742936,18.879065 24.9041421,18.3472062 24.6795,17.9568804 C24.4529323,17.5656887 23.9119269,17.4392713 23.46638,17.6965078 C22.5545356,18.2237406 21.3966963,17.9531867 20.8878914,17.0705196 C20.3789567,16.1890189 20.7234717,15.0513476 21.6354223,14.5248326 C22.0803483,14.2679545 22.2413363,13.735866 22.0157172,13.3450814 C21.7908867,12.9544319 21.2499212,12.8280238 20.8038725,13.0855501 C20.1069237,13.4879336 19.2661882,13.42454 18.6813793,12.9781798 Z" id="连杆曲线" fill="#000000" fill-rule="nonzero"></path>
    </g>
</svg>