<svg id="图层_14" data-name="图层 14" xmlns="http://www.w3.org/2000/svg" viewBox="0 0 91.11035 195.43115" width="100" height="200">
    <title>玻璃仪器14</title> <g stroke="#000000" fill="#000000" stroke-width="0.5324"  transform="translate(3 0)">
    <path d="M1018.333,170.43617a1.5046,1.5046,0,0,0-.51489.10138c-.27307-.17712-.58417-.41541-.90991-.66632-1.18945-.91553-2.53613-1.95068-3.72363-1.36865a3.13393,3.13393,0,0,0-1.35187,2.36353c-1.277-1.74908-2.976-4.007-4.52216-3.50659-.78125.25464-1.30072,1.14941-1.59985,2.75623l-.12964-.14148c-2.26074-2.47607-3.63184-3.9707-4.83887-3.49951a1.43874,1.43874,0,0,0-.67273.57416c-1.00769,1.07324-3.87628,2.14832-11.62219,1.70563-2.19556-.12531-8.80548-.51947-8.97815-9.68347,1.22333-2.139,2.452-4.25378,3.62854-6.278,4.84369-8.33362,8.764-15.08423,9.52075-18.32764a.61308.61308,0,0,0,.14819-.46289V64.85414c0-.55469,0-1.39355-9.458-2.08447-5.81348-.4248-13.53711-.65869-21.749-.65869-8.2207,0-15.9502.23389-21.7666.65869-9.46.69092-9.46,1.52979-9.46,2.08447v69.14844a.61312.61312,0,0,0,.14948.46393c.82245,3.39728,5.23267,10.62427,10.27533,18.87982,1.56726,2.56586,3.1778,5.20605,4.74042,7.82471h-.0246l.002,41.3125a4.34923,4.34923,0,0,1-2.14551,3.85449s-.10118.07867-.22266.15625l4.958,46.12061c0,1.58453,4.40881,2.21271,7.96265,2.46222.00189.77893.003,1.22632.00317,1.27655h.00824a1.20568,1.20568,0,0,0,.34625.90088,1.1415,1.1415,0,0,0,.80566.2876c.02148,0,.043-.00049.06543-.00146,1.01965-.0401,2.55292-1.00494,4.10431-2.31006,2.89111-.05756,11.34265-.41193,11.41132-2.58936l4.057-46.19853c.00488-.03564-.18488-.12764-.18488-.12764-1.915-.96143-1.6543-3.644-1.64844-3.72461v-11.873c0-2.686.67383-3.63818,2.57422-3.63818h13.7168c2.626,0,6.20215.01318,8.71191,2.48584l.01868-.019a1.47526,1.47526,0,0,0,.72253.64789,1.256,1.256,0,0,0,.46.08691c1.10449,0,2.39551-1.4082,4.37207-3.56494l.13928-.15155c.29889,1.59924.81738,2.49048,1.597,2.74481a1.42854,1.42854,0,0,0,.44824.0708c1.41565,0,2.92017-1.99878,4.07605-3.5813a3.13993,3.13993,0,0,0,1.35071,2.364,1.64586,1.64586,0,0,0,.74023.17139,5.72336,5.72336,0,0,0,2.97266-1.52148,8.68177,8.68177,0,0,1,1.22949-.84717l-.0072-.01483a1.48467,1.48467,0,0,0,.21423.02655c2.02051,0,3.11035-4.00342,3.11035-7.77051S1020.35352,170.43617,1018.333,170.43617Zm-26.9137-36.41779c-.05817.01984-.14746.04022-.21637.0603-.11169.03247-.21179.06482-.35156.09772-.12549.02948-.28876.05933-.43658.08905-.11865.0238-.218.04755-.35089.07147-.15283.02747-.34155.05493-.51312.0824-.16406.02631-.31018.05261-.49127.0788-.16681.02417-.36664.04791-.54779.0719-.22034.02917-.42554.05859-.66687.08752-.29651.03552-.631.07025-.95886.1051-.1582.01678-.29767.03412-.46307.05072-.31561.03174-.66821.06232-1.00989.09332-.20959.019-.40039.03857-.61969.05725-.40839.03473-.85376.06805-1.29553.10138-.181.01367-.34454.02814-.53113.04156-1.17517.08453-2.47369.16284-3.86475.23486-.13031.00671-.248.01434-.38019.02094-1.21552.06085-2.53192.1142-3.90186.16266-.43463.01538-.86066.03143-1.31049.04541-2.33618.07251-4.88928.12354-7.62292.15106-1.39856.014-2.82861.02393-4.3269.02393q-3.37848,0-6.41876-.04767l-.02032-.00024q-1.50723-.02307-2.92786-.05627l-.03308-.00073q-2.85159-.06647-5.345-.16858l-.02-.00079q-1.24557-.05045-2.39844-.10828l-.00812-.00037q-1.14743-.0574-2.2005-.121l-.02319-.00134q-1.0556-.06372-2.01514-.13281l-.00775-.00049q-1.92581-.13843-3.45367-.293l-.00409-.00043c-1.52667-.15344-2.74689-.31512-3.64386-.4762l-.00055-.00006q-.44843-.08057-.78845-.16052l-.00024-.00006a3.45823,3.45823,0,0,1-.87457-.29376,2.93636,2.93636,0,0,1-.03723-.349l.08252-7.25427c.79694.445,2.954.9397,8.81116,1.376,5.7002.4248,13.27441.65869,21.32715.65869,8.0459,0,15.61719-.23389,21.31934-.65869,5.80859-.43268,7.98438-.92249,8.79956-1.36426l.08185,7.19305a2.92867,2.92867,0,0,1-.04114.40039c-.00635.00366-.01831.00745-.02509.01117A1.63872,1.63872,0,0,1,991.41931,134.01838ZM931.333,65.50605c.71454.45935,2.79395.97717,8.89941,1.43207,5.7002.4248,13.27441.65869,21.32715.65869,8.0459,0,15.61719-.23389,21.31934-.65869,6.05658-.45117,8.15454-.96405,8.8877-1.42023v59.16479c-1.07385-.39459-3.42865-.81592-8.63672-1.19525-5.833-.4248-13.49414-.65869-21.57031-.65869-8.085,0-15.752.23389-21.58789.65869-5.20947.37933-7.5647.80066-8.63867,1.19434ZM961.55957,63.111c1.06384,0,2.09833.00439,3.11212.0116,14.89246.11,24.20728.99774,26.20526,1.73157-2.13379.78369-12.61133,1.74268-29.31738,1.74268-16.708,0-27.18555-.959-29.31836-1.74268,1.99713-.73383,11.31226-1.62158,26.20691-1.73163C959.46173,63.11531,960.496,63.111,961.55957,63.111ZM990.877,125.57191c-2.13379.78369-12.61133,1.74268-29.31738,1.74268-16.708,0-27.18555-.959-29.31836-1.74268,1.86548-.68549,10.1153-1.50531,23.334-1.70007.07733-.0011.15912-.00165.23676-.00275.85474-.012,1.72632-.022,2.62177-.02863,1.01788-.00732,2.05737-.01172,3.12585-.01172,1.06873,0,2.10846.00439,3.12653.01172.86755.00641,1.71094.01624,2.54022.02777.106.00146.21735.00214.32275.00366C980.76294,124.06685,989.01086,124.88655,990.877,125.57191Zm-59.19421,9.46759A45.88071,45.88071,0,0,0,939.793,136.087c5.81738.4248,13.54688.65869,21.7666.65869,8.21094,0,15.93555-.23389,21.749-.65869a45.83471,45.83471,0,0,0,8.11017-1.048c-1.14117,3.40558-5.06146,10.15594-9.18634,17.25159-1.22626,2.10974-3.77625,6.49786-3.77606,6.53345-5.68945,9.95068-10.93781,19.87756-10.93781,24.85474V208.041c-2.15912.16937-4.6908.276-7.56348.276-1.06543,0-2.07062-.01727-3.0351-.04437-.02435-11.3985-.043-21.24017-.043-24.59381,0-5.86133-8.11035-19.13916-15.26562-30.85352C937.13837,145.50319,932.88824,138.53883,931.68274,135.0395Zm29.31024,119.197c-.192.00159-.37738.00537-.574.00537-.91528,0-1.777-.01843-2.58856-.05072a21.55719,21.55719,0,0,1,2.12872-3.02368c.15411-.0011.30481-.00568.45984-.00568,1.21521,0,2.40222.03888,3.53638.10492-.17389.1983-.35193.39862-.54028.60358A29.63058,29.63058,0,0,1,960.993,254.23646Zm-3.96851-.63531c-.00165-.67419-.0036-1.45825-.00574-2.34436q.81189-.045,1.65839-.06946A22.76151,22.76151,0,0,0,957.02448,253.60115Zm3.80127-3.43457c.10919-.12158.21393-.24121.32855-.36517,3.082-3.35352,5.5459-4.69678,6.2168-4.69678a.21809.21809,0,0,1,.14746.041c.28284.2691-.40906,2.25958-2.75958,5.16614C963.52063,250.22377,962.19513,250.175,960.82574,250.16658Zm6.69281-6.03021c-1.8396-.137-5.31622,3.046-7.09961,4.9873-.2851.30841-.599.66534-.92242,1.04968-.84692.01221-1.67773.03839-2.48016.0824-.02161-8.93964-.06232-26.14923-.09424-40.9931,1.66846.05194,2.85718.05438,3.033.05438.31293,0,3.82428-.00739,7.56348-.28888Zm-21.04492-41.70068V162.81459c5.09058,8.62671,9.40332,16.77716,9.40332,20.86426,0,3.35059.01862,13.17627.043,24.56061-6.18518-.23694-10.08826-.98468-11.36731-1.56317A5.2586,5.2586,0,0,0,946.47363,202.43568Zm2.58887,50.126-4.835-44.99854c2.35077,1.10315,7.85858,1.51209,11.69452,1.664.032,14.88812.07294,32.16412.09442,41.093a28.3228,28.3228,0,0,0-6.15613.98816l.31055.9502a27.05513,27.05513,0,0,1,5.848-.93842c.00256,1.07867.00494,2.01282.00677,2.7688C951.69684,253.77339,949.26306,253.03682,949.0625,252.56166Zm8.00391,3.96045a.26807.26807,0,0,1-.05774-.17084l.02258-.00006-.00073-.28912a4.41741,4.41741,0,0,1,.30786-.90607c.99683.04968,1.84979.07068,2.40662.07947C958.26477,256.3249,957.27081,256.69044,957.06641,256.52211Zm14.708-3.95117.00293.01367c-.23462.5332-3.49725,1.43994-9.26874,1.62238.57043-.53638,1.12708-1.09894,1.64276-1.66.32837-.3573.68292-.76361,1.0423-1.19476a27.53165,27.53165,0,0,1,5.23309.83295l.28711-.958a26.30906,26.30906,0,0,0-4.76416-.81494c1.48877-1.92767,2.824-4.13617,2.56573-5.397h.00311V208.94655a24.91634,24.91634,0,0,0,7.208-1.39661Zm44.51465-66.55273c-.90625.69385-2.03613,1.56055-2.66309,1.24756-.40234-.19873-1.07812-1.11035-1.07812-4.979h-1c0,.78406.03052,1.47546.08484,2.09912-.14642.19275-.30908.4151-.48816.65967-.85352,1.1709-2.64355,3.59863-3.52637,3.313-.36621-.11963-1.21875-.96191-1.21875-6.188h-1c0,1.20178.04529,2.228.13178,3.11212l-.69623.75751c-1.55176,1.69336-3.14355,3.44775-3.73242,3.22168-.43262-.16846-.94922-1.53516-.94922-7.09131h-1a35.25472,35.25472,0,0,0,.31909,5.68915c-2.66461-1.77783-5.94611-1.78595-8.26929-1.78046H977.57031c-3.14941,0-3.57422,2.34473-3.57422,4.63818l.00293,11.81836a5.21293,5.21293,0,0,0,1.39331,4.12848,24.94023,24.94023,0,0,1-6.87378,1.29041V183.67884c0-4.49219,4.84222-13.83429,10.0415-23.00867.59344,5.68524,3.88678,8.74438,9.83057,9.0824q1.83984.10547,3.415.105c3.54639,0,6.08258-.40851,7.69684-1.21625a33.63768,33.63768,0,0,0-.34918,5.872h1c0-4.63861.35846-6.35913.72876-6.903.04712-.05518.10645-.10492.14893-.16211a.34943.34943,0,0,1,.07251-.04089c.57227-.22363,2.18359,1.53809,3.73926,3.24121l.68781.752c-.08612.88458-.13117,1.91132-.13117,3.11279h1c0-5.23926.85352-6.0835,1.2207-6.20312.90332-.29932,2.67188,2.14014,3.52539,3.31006.1781.24451.34076.46637.48718.65863-.05432.62372-.08484,1.31506-.08484,2.09918h1c0-3.86963.67578-4.77979,1.07813-4.978.62988-.31152,1.76172.5625,2.67188,1.26318.22626.17444.44586.34229.65875.4953-1.14636,1.31989-1.75348,4.24774-1.75348,7.04816,0,2.923.663,5.97943,1.90875,7.20642C1016.84888,185.59266,1016.57428,185.80012,1016.28906,186.0182Zm2.04394-1.041c-.88965,0-2.12988-2.57568-2.12988-6.77051s1.24023-6.77051,2.12988-6.77051c.86035,0,2.11035,2.6377,2.11035,6.77051S1019.19336,184.97718,1018.333,184.97718Z"
          transform="translate(-930.33301 -62.11097)"/>
    <rect x="963.80589" y="231.44755" width="1.5601" height="0.19989"
          transform="translate(-895.83921 514.3552) rotate(-33.84534)"/>
    <rect x="952.17773" y="235.88626" width="0.2002" height="1.64815"
          transform="translate(-949.597 312.33582) rotate(-22.02836)"/>
    <rect x="957.1083" y="236.542" width="0.2004" height="2.01881"
          transform="translate(-732.82674 804.35322) rotate(-53.55693)"/>
    <polygon points="28.241 173.719 25.999 173.1 26.052 172.908 28.294 173.527 28.241 173.719"/>
    <rect x="967.43461" y="235.65752" width="0.20012" height="1.66082"
          transform="translate(-940.34354 365.30957) rotate(-24.78691)"/>
    <polygon points="42.571 174.472 41.701 173.195 41.867 173.083 42.737 174.359 42.571 174.472"/>
    <rect x="971.95021" y="241.55119" width="1.70798" height="0.19964"
          transform="translate(-660.46659 894.11803) rotate(-59.42077)"/>
    <polygon points="41.192 189.391 39.858 188.598 39.96 188.426 41.294 189.219 41.192 189.391"/>
    <rect x="967.24471" y="241.89918" width="1.85628" height="0.19946"
          transform="translate(-722.92573 825.76555) rotate(-54.36449)"/>
    <polygon points="28.559 180.28 27.61 179.12 27.765 178.993 28.713 180.153 28.559 180.28"/>
    <polygon points="23.831 183.928 23.771 183.737 25.743 183.119 25.804 183.309 23.831 183.928"/>
    <rect x="962.09122" y="243.31054" width="1.6447" height="0.2"
          transform="translate(-785.2057 744.92786) rotate(-48.76144)"/>
    <rect x="965.6664" y="246.69476" width="1.59006" height="0.19961"
          transform="translate(-738.73161 812.8135) rotate(-53.35435)"/>
    <polygon points="34.192 192.816 34.101 192.639 35.357 191.982 35.449 192.159 34.192 192.816"/>
    <polygon points="32.486 184.512 32.326 184.391 33.235 183.192 33.396 183.313 32.486 184.512"/>
    <rect x="23.64355" y="185.68896" width="0.19922" height="1.52783"/>
    <polygon points="26.656 192.041 26.555 191.868 27.85 191.114 27.951 191.287 26.656 192.041"/>
    <polygon points="31.518 192.404 30.126 191.457 30.239 191.292 31.631 192.239 31.518 192.404"/>
    <rect x="947.57345" y="228.15966" width="1.82868" height="0.20098"
          transform="translate(-693.41456 833.53276) rotate(-56.69602)"/>
    <rect x="947.69176" y="220.80131" width="0.19948" height="1.78779"
          transform="translate(-945.46447 301.84056) rotate(-21.56894)"/>
    <rect x="946.44161" y="212.41991" width="1.50155" height="0.19999"
          transform="translate(-899.98843 469.35757) rotate(-31.82745)"/>
    <rect x="944.07753" y="213.56121" width="1.72482" height="0.19914"
          transform="translate(-647.07638 859.17797) rotate(-59.66267)"/>
    <rect x="15.33203" y="161.1084" width="1.54688" height="0.2002"/>
    <polygon points="19.458 188.704 19.327 188.553 20.835 187.238 20.966 187.389 19.458 188.704"/>
    <rect x="18.88672" y="175.38232" width="0.19922" height="1.52783"/>
    <rect x="960.94718" y="233.18474" width="0.20037" height="1.55949"
          transform="translate(-831.75398 656.10529) rotate(-42.99534)"/>
    <rect x="964.65998" y="237.14622" width="0.19956" height="1.46808"
          transform="translate(-856.1195 616.53655) rotate(-40.18376)"/>
    <rect x="950.85356" y="219.23904" width="0.2001" height="1.85716"
          transform="translate(-745.35743 763.08904) rotate(-51.34019)"/>
    <polygon points="19.505 151.752 19.319 151.676 20.054 149.897 20.239 149.973 19.505 151.752"/>
    <polygon points="22.899 166.694 21.662 165.456 21.803 165.314 23.04 166.552 22.899 166.694"/>
    <polygon points="32.505 167.05 32.384 166.892 33.642 165.925 33.763 166.083 32.505 167.05"/>
    <rect x="974.15054" y="212.47777" width="1.50264" height="0.19999"
          transform="translate(-895.85255 483.97922) rotate(-31.82745)"/>
    <rect x="957.1083" y="208.56153" width="0.2004" height="2.01881"
          transform="translate(-710.31792 792.99382) rotate(-53.55693)"/>
    <polygon points="44.429 146.821 43.559 145.564 43.723 145.45 44.593 146.707 44.429 146.821"/>
    <polygon points="38.208 149.939 36.989 149.069 37.104 148.906 38.323 149.776 38.208 149.939"/>
    <rect x="970.93169" y="219.48774" width="1.55947" height="0.19959"
          transform="translate(-810.07098 674.6571) rotate(-44.00882)"/>
    <polygon points="41.115 165.69 40.945 165.583 41.777 164.268 41.947 164.375 41.115 165.69"/>
    <polygon points="41.192 161.411 39.858 160.618 39.96 160.446 41.294 161.239 41.192 161.411"/>
    <polygon points="37.381 152.719 37.217 152.604 38.299 151.076 38.463 151.191 37.381 152.719"/>
    <polygon points="28.559 152.28 27.61 151.12 27.765 150.993 28.713 152.153 28.559 152.28"/>
    <polygon points="23.831 155.947 23.771 155.757 25.743 155.138 25.804 155.329 23.831 155.947"/>
    <polygon points="32.114 153.985 31.964 153.852 33.047 152.634 33.197 152.767 32.114 153.985"/>
    <rect x="965.6664" y="218.71429" width="1.59006" height="0.19961"
          transform="translate(-716.2817 801.53358) rotate(-53.35435)"/>
    <polygon points="34.192 164.816 34.101 164.64 35.357 163.982 35.449 164.159 34.192 164.816"/>
    <polygon points="32.486 156.532 32.326 156.411 33.235 155.211 33.396 155.333 32.486 156.532"/>
    <rect x="23.64355" y="157.68945" width="0.19922" height="1.52734"/>
    <polygon points="26.657 164.06 26.554 163.888 27.849 163.114 27.952 163.286 26.657 164.06"/>
    <polygon points="31.519 164.405 30.127 163.477 30.238 163.311 31.63 164.239 31.519 164.405"/>
    <polygon points="25.581 169.898 24.537 168.68 24.689 168.55 25.733 169.768 25.581 169.898"/>
    <rect x="947.19039" y="240.29383" width="1.51277" height="0.2002"
          transform="translate(-911.30849 484.05375) rotate(-32.44976)"/>
    <rect x="954.71112" y="250.96441" width="0.19983" height="1.5607"
          transform="translate(-853.6778 641.16661) rotate(-41.98188)"/>
    <polygon points="19.89 170.624 19.02 169.348 19.186 169.235 20.056 170.511 19.89 170.624"/>
    <rect x="932.97687" y="133.48686" width="1.63025" height="0.19989"
          transform="translate(-846.49792 480.60439) rotate(-33.84534)"/>
    <rect x="957.66979" y="130.67175" width="0.19948" height="1.7886"
          transform="translate(-911.53877 299.58003) rotate(-21.59228)"/>
    <polygon points="26.713 67.284 26.574 67.14 27.986 65.768 28.125 65.911 26.713 67.284"/>
    <rect x="24.82617" y="64.71436" width="1.60449" height="0.2002"/>
    <rect x="25.30957" y="70.97949" width="1.54688" height="0.2002"/>
    <polygon points="22.899 71.282 21.546 70.489 21.647 70.316 23.001 71.109 22.899 71.282"/>
    <rect x="948.92855" y="124.0698" width="1.88411" height="0.20003"
          transform="translate(-637.57115 759.11006) rotate(-54.13715)"/>
    <rect x="938.01326" y="126.0807" width="2.05746" height="0.2002"
          transform="translate(-696.54365 696.79424) rotate(-49.55028)"/>
    <rect x="16.35352" y="61.25635" width="0.19922" height="1.31494"/>
    <polygon points="20.222 68.569 19.391 67.486 19.549 67.364 20.38 68.447 20.222 68.569"/>
    <polygon points="16.487 69.628 15.675 68.468 15.839 68.354 16.651 69.514 16.487 69.628"/>
    <polygon points="8.495 68.419 7.838 67.182 8.014 67.088 8.671 68.325 8.495 68.419"/>
    <rect x="940.30601" y="133.68993" width="1.31962" height="0.19999"
          transform="translate(-599.27091 800.60547) rotate(-58.17255)"/>
    <polygon points="31.868 62.301 31.706 62.185 32.615 60.908 32.777 61.024 31.868 62.301"/>
    <polygon points="29.28 70.576 29.151 70.423 30.679 69.127 30.808 69.28 29.28 70.576"/>
    <rect x="33.43066" y="73.41602" width="1.37305" height="0.2002"/>
    <polygon points="54.849 67.284 54.71 67.14 56.121 65.768 56.26 65.911 54.849 67.284"/>
    <rect x="980.7551" y="129.35859" width="1.55913" height="0.19959"
          transform="translate(-744.69398 656.17668) rotate(-44.00882)"/>
    <rect x="47.85645" y="72.95166" width="1.52734" height="0.2002"/>
    <polygon points="33.674 65.818 33.613 65.628 35.566 65.009 35.627 65.2 33.674 65.818"/>
    <rect x="966.14803" y="126.0807" width="2.05746" height="0.2002"
          transform="translate(-686.66217 718.20411) rotate(-49.55028)"/>
    <rect x="44.48828" y="61.25635" width="0.19922" height="1.31494"/>
    <polygon points="48.357 68.569 47.525 67.486 47.684 67.364 48.516 68.447 48.357 68.569"/>
    <polygon points="44.622 69.628 43.811 68.468 43.975 68.354 44.786 69.514 44.622 69.628"/>
    <polygon points="36.63 68.419 35.973 67.182 36.148 67.088 36.806 68.325 36.63 68.419"/>
    <rect x="968.44101" y="133.68993" width="1.32014" height="0.19999"
          transform="translate(-585.97315 824.51031) rotate(-58.17255)"/>
    <rect x="41.14648" y="71.46289" width="1.2959" height="0.2002"/>
    <rect x="988.96587" y="129.11013" width="0.2001" height="1.85716"
          transform="translate(-660.67484 759.02392) rotate(-51.34019)"/>
    <polygon points="59.264 72.013 59.15 71.848 60.484 70.939 60.598 71.104 59.264 72.013"/></g>
</svg>