<svg id="图层_37" data-name="图层 37" xmlns="http://www.w3.org/2000/svg" viewBox="0 0 101.77 688.96" width="105" height="695">
    <title>玻璃仪器37</title><g stroke="#000000" fill="#000000" stroke-width="0.5324" transform="translate(-1582.73 -73.13)">
    <g id="Spline">
        <path d="M1623.8,161.63a75.58,75.58,0,0,1-11.54-1.55l0-.2a75.45,75.45,0,0,0,11.5,1.55,64.43,64.43,0,0,0,12.17-1.08l0,.2A64.64,64.64,0,0,1,1623.8,161.63Z"
             />
    </g>
    <g id="Spline-2" data-name="Spline">
        <path d="M1623.8,167.48a75.67,75.67,0,0,1-11.54-1.55l0-.2a75.54,75.54,0,0,0,11.5,1.55A64.43,64.43,0,0,0,1636,166.2l0,.2A64.64,64.64,0,0,1,1623.8,167.48Z"
             />
    </g>
    <g id="Spline-3" data-name="Spline">
        <path d="M1623.8,173.33a75.67,75.67,0,0,1-11.54-1.55l0-.2a75.54,75.54,0,0,0,11.5,1.55A64.43,64.43,0,0,0,1636,172l0,.2A64.64,64.64,0,0,1,1623.8,173.33Z"
             />
    </g>
    <g id="Spline-4" data-name="Spline">
        <path d="M1623.8,179.17a75.58,75.58,0,0,1-11.54-1.55l0-.2a75.43,75.43,0,0,0,11.5,1.55,64.46,64.46,0,0,0,12.17-1.08l0,.2A64.67,64.67,0,0,1,1623.8,179.17Z"
             />
    </g>
    <g id="Spline-5" data-name="Spline">
        <path d="M1623.8,191.07a83.35,83.35,0,0,1-11.54-1.55l0-.2a83.17,83.17,0,0,0,11.5,1.55,67,67,0,0,0,12.17-1.08l0,.2A67.1,67.1,0,0,1,1623.8,191.07Z"
             />
    </g>
    <g id="Spline-6" data-name="Spline">
        <path d="M1623.8,196.92a83.46,83.46,0,0,1-11.54-1.55l0-.2a83.3,83.3,0,0,0,11.5,1.55,67,67,0,0,0,12.17-1.08l0,.2A67.1,67.1,0,0,1,1623.8,196.92Z"
             />
    </g>
    <g id="Spline-7" data-name="Spline">
        <path d="M1623.8,202.77a83.34,83.34,0,0,1-11.54-1.55l0-.2a83.26,83.26,0,0,0,11.5,1.55,66.89,66.89,0,0,0,12.17-1.08l0,.2A67.08,67.08,0,0,1,1623.8,202.77Z"
             />
    </g>
    <g id="Spline-8" data-name="Spline">
        <path d="M1623.8,208.61a83.34,83.34,0,0,1-11.54-1.55l0-.2a83.26,83.26,0,0,0,11.5,1.55,66.94,66.94,0,0,0,12.17-1.08l0,.2A67.13,67.13,0,0,1,1623.8,208.61Z"
             />
    </g>
    <g id="Spline-9" data-name="Spline">
        <path d="M1623.8,220.22a83.34,83.34,0,0,1-11.54-1.55l0-.2a83.26,83.26,0,0,0,11.5,1.55,66.94,66.94,0,0,0,12.17-1.08l0,.2A67.13,67.13,0,0,1,1623.8,220.22Z"
             />
    </g>
    <g id="Spline-10" data-name="Spline">
        <path d="M1623.8,226.07a83.35,83.35,0,0,1-11.54-1.55l0-.2a83.17,83.17,0,0,0,11.5,1.55,67,67,0,0,0,12.17-1.08l0,.2A67.1,67.1,0,0,1,1623.8,226.07Z"
             />
    </g>
    <g id="Spline-11" data-name="Spline">
        <path d="M1623.8,231.91a83.46,83.46,0,0,1-11.54-1.55l0-.2a83.3,83.3,0,0,0,11.5,1.55,67,67,0,0,0,12.17-1.08l0,.2A67.1,67.1,0,0,1,1623.8,231.91Z"
             />
    </g>
    <g id="Spline-12" data-name="Spline">
        <path d="M1623.8,237.76a83.46,83.46,0,0,1-11.54-1.55l0-.2a83.3,83.3,0,0,0,11.5,1.55,67,67,0,0,0,12.17-1.08l0,.2A67.1,67.1,0,0,1,1623.8,237.76Z"
             />
    </g>
    <g id="Spline-13" data-name="Spline">
        <path d="M1623.8,249.63a83.9,83.9,0,0,1-11.54-1.52l0-.2a83.82,83.82,0,0,0,11.5,1.52,67.08,67.08,0,0,0,12.17-1.05l0,.2A67.26,67.26,0,0,1,1623.8,249.63Z"
             />
    </g>
    <g id="Spline-14" data-name="Spline">
        <path d="M1623.8,255.48a83.9,83.9,0,0,1-11.54-1.52l0-.2a83.82,83.82,0,0,0,11.5,1.52,67.08,67.08,0,0,0,12.17-1.05l0,.2A67.26,67.26,0,0,1,1623.8,255.48Z"
             />
    </g>
    <g id="Spline-15" data-name="Spline">
        <path d="M1623.8,261.32a83.89,83.89,0,0,1-11.54-1.52l0-.2a83.76,83.76,0,0,0,11.5,1.52,67.1,67.1,0,0,0,12.17-1.05l0,.2A67.28,67.28,0,0,1,1623.8,261.32Z"
             />
    </g>
    <g id="Spline-16" data-name="Spline">
        <path d="M1623.8,267.17a84,84,0,0,1-11.54-1.52l0-.2a83.88,83.88,0,0,0,11.5,1.52,67.1,67.1,0,0,0,12.17-1.05l0,.2A67.28,67.28,0,0,1,1623.8,267.17Z"
             />
    </g>
    <g id="Spline-17" data-name="Spline">
        <path d="M1623.8,278.69a83.35,83.35,0,0,1-11.54-1.55l0-.2a83.17,83.17,0,0,0,11.5,1.55,67,67,0,0,0,12.17-1.08l0,.2A67.1,67.1,0,0,1,1623.8,278.69Z"
             />
    </g>
    <g id="Spline-18" data-name="Spline">
        <path d="M1623.8,284.54a83.46,83.46,0,0,1-11.54-1.55l0-.2a83.3,83.3,0,0,0,11.5,1.55,67,67,0,0,0,12.17-1.08l0,.2A67.1,67.1,0,0,1,1623.8,284.54Z"
             />
    </g>
    <g id="Spline-19" data-name="Spline">
        <path d="M1623.8,290.38a83.46,83.46,0,0,1-11.54-1.55l0-.2a83.3,83.3,0,0,0,11.5,1.55A67,67,0,0,0,1636,289.1l0,.2A67.1,67.1,0,0,1,1623.8,290.38Z"
             />
    </g>
    <g id="Spline-20" data-name="Spline">
        <path d="M1623.8,296.23a83.34,83.34,0,0,1-11.54-1.55l0-.2a83.26,83.26,0,0,0,11.5,1.55A66.94,66.94,0,0,0,1636,295l0,.2A67.13,67.13,0,0,1,1623.8,296.23Z"
             />
    </g>
    <g id="Spline-21" data-name="Spline">
        <path d="M1623.8,308.1a83.9,83.9,0,0,1-11.54-1.52l0-.2a83.82,83.82,0,0,0,11.5,1.52,67.08,67.08,0,0,0,12.17-1.05l0,.2A67.26,67.26,0,0,1,1623.8,308.1Z"
             />
    </g>
    <g id="Spline-22" data-name="Spline">
        <path d="M1623.8,313.95a83.89,83.89,0,0,1-11.54-1.52l0-.2a83.76,83.76,0,0,0,11.5,1.52A67.1,67.1,0,0,0,1636,312.7l0,.2A67.28,67.28,0,0,1,1623.8,313.95Z"
             />
    </g>
    <g id="Spline-23" data-name="Spline">
        <path d="M1623.8,319.8a84,84,0,0,1-11.54-1.52l0-.2a83.88,83.88,0,0,0,11.5,1.52,67.1,67.1,0,0,0,12.17-1.05l0,.2A67.28,67.28,0,0,1,1623.8,319.8Z"
             />
    </g>
    <g id="Spline-24" data-name="Spline">
        <path d="M1623.8,325.64a83.9,83.9,0,0,1-11.54-1.52l0-.2a83.82,83.82,0,0,0,11.5,1.52,67,67,0,0,0,12.17-1.05l0,.2A67.22,67.22,0,0,1,1623.8,325.64Z"
             />
    </g>
    <g id="Spline-25" data-name="Spline">
        <path d="M1623.8,337.25a83.9,83.9,0,0,1-11.54-1.52l0-.2a83.82,83.82,0,0,0,11.5,1.52A67.08,67.08,0,0,0,1636,336l0,.2A67.26,67.26,0,0,1,1623.8,337.25Z"
             />
    </g>
    <g id="Spline-26" data-name="Spline">
        <path d="M1623.8,343.1a83.89,83.89,0,0,1-11.54-1.52l0-.2a83.76,83.76,0,0,0,11.5,1.52,67.1,67.1,0,0,0,12.17-1.05l0,.2A67.28,67.28,0,0,1,1623.8,343.1Z"
             />
    </g>
    <g id="Spline-27" data-name="Spline">
        <path d="M1623.8,348.94a84,84,0,0,1-11.54-1.52l0-.2a83.88,83.88,0,0,0,11.5,1.52,67.1,67.1,0,0,0,12.17-1.05l0,.2A67.28,67.28,0,0,1,1623.8,348.94Z"
             />
    </g>
    <g id="Spline-28" data-name="Spline">
        <path d="M1623.8,354.79a84,84,0,0,1-11.54-1.52l0-.2a83.88,83.88,0,0,0,11.5,1.52,67.1,67.1,0,0,0,12.17-1.05l0,.2A67.28,67.28,0,0,1,1623.8,354.79Z"
             />
    </g>
    <g id="Spline-29" data-name="Spline">
        <path d="M1623.8,366.69a75.58,75.58,0,0,1-11.54-1.55l0-.2a75.43,75.43,0,0,0,11.5,1.55,64.46,64.46,0,0,0,12.17-1.08l0,.2A64.67,64.67,0,0,1,1623.8,366.69Z"
             />
    </g>
    <g id="Spline-30" data-name="Spline">
        <path d="M1623.8,372.54a75.58,75.58,0,0,1-11.54-1.55l0-.2a75.45,75.45,0,0,0,11.5,1.55,64.43,64.43,0,0,0,12.17-1.08l0,.2A64.64,64.64,0,0,1,1623.8,372.54Z"
             />
    </g>
    <g id="Spline-31" data-name="Spline">
        <path d="M1623.8,378.38a75.67,75.67,0,0,1-11.54-1.55l0-.2a75.54,75.54,0,0,0,11.5,1.55A64.43,64.43,0,0,0,1636,377.1l0,.2A64.64,64.64,0,0,1,1623.8,378.38Z"
             />
    </g>
    <g id="Spline-32" data-name="Spline">
        <path d="M1623.8,384.23a75.67,75.67,0,0,1-11.54-1.55l0-.2a75.54,75.54,0,0,0,11.5,1.55A64.43,64.43,0,0,0,1636,383l0,.2A64.64,64.64,0,0,1,1623.8,384.23Z"
             />
    </g>
    <g id="Spline-33" data-name="Spline">
        <path d="M1623.8,396.57a83.46,83.46,0,0,1-11.54-1.55l0-.2a83.3,83.3,0,0,0,11.5,1.55,67,67,0,0,0,12.17-1.08l0,.2A67.1,67.1,0,0,1,1623.8,396.57Z"
             />
    </g>
    <g id="Spline-34" data-name="Spline">
        <path d="M1623.8,402.41a83.34,83.34,0,0,1-11.54-1.55l0-.2a83.26,83.26,0,0,0,11.5,1.55,66.94,66.94,0,0,0,12.17-1.08l0,.2A67.13,67.13,0,0,1,1623.8,402.41Z"
             />
    </g>
    <g id="Spline-35" data-name="Spline">
        <path d="M1623.8,408.26a83.34,83.34,0,0,1-11.54-1.55l0-.2a83.26,83.26,0,0,0,11.5,1.55A66.94,66.94,0,0,0,1636,407l0,.2A67.13,67.13,0,0,1,1623.8,408.26Z"
             />
    </g>
    <g id="Spline-36" data-name="Spline">
        <path d="M1623.8,414.11a83.35,83.35,0,0,1-11.54-1.55l0-.2a83.17,83.17,0,0,0,11.5,1.55,67,67,0,0,0,12.17-1.08l0,.2A67.1,67.1,0,0,1,1623.8,414.11Z"
             />
    </g>
    <g id="Spline-37" data-name="Spline">
        <path d="M1623.8,426a84,84,0,0,1-11.54-1.52l0-.2a83.88,83.88,0,0,0,11.5,1.52,67,67,0,0,0,12.17-1.05l0,.2A67.22,67.22,0,0,1,1623.8,426Z"
             />
    </g>
    <g id="Spline-38" data-name="Spline">
        <path d="M1623.8,431.83a83.9,83.9,0,0,1-11.54-1.52l0-.2a83.82,83.82,0,0,0,11.5,1.52,67,67,0,0,0,12.17-1.05l0,.2A67.22,67.22,0,0,1,1623.8,431.83Z"
             />
    </g>
    <g id="Spline-39" data-name="Spline">
        <path d="M1623.8,437.67a83.9,83.9,0,0,1-11.54-1.52l0-.2a83.82,83.82,0,0,0,11.5,1.52,67.08,67.08,0,0,0,12.17-1.05l0,.2A67.26,67.26,0,0,1,1623.8,437.67Z"
             />
    </g>
    <g id="Spline-40" data-name="Spline">
        <path d="M1623.8,443.52a83.89,83.89,0,0,1-11.54-1.52l0-.2a83.76,83.76,0,0,0,11.5,1.52,67.1,67.1,0,0,0,12.17-1.05l0,.2A67.28,67.28,0,0,1,1623.8,443.52Z"
             />
    </g>
    <g id="Spline-41" data-name="Spline">
        <path d="M1623.8,455.13a84,84,0,0,1-11.54-1.52l0-.2a83.88,83.88,0,0,0,11.5,1.52,67.1,67.1,0,0,0,12.17-1.05l0,.2A67.28,67.28,0,0,1,1623.8,455.13Z"
             />
    </g>
    <g id="Spline-42" data-name="Spline">
        <path d="M1623.8,461a83.9,83.9,0,0,1-11.54-1.52l0-.2a83.82,83.82,0,0,0,11.5,1.52,67.1,67.1,0,0,0,12.17-1.05l0,.2A67.28,67.28,0,0,1,1623.8,461Z"
             />
    </g>
    <g id="Spline-43" data-name="Spline">
        <path d="M1623.8,466.82a83.9,83.9,0,0,1-11.54-1.52l0-.2a83.82,83.82,0,0,0,11.5,1.52,67.08,67.08,0,0,0,12.17-1.05l0,.2A67.26,67.26,0,0,1,1623.8,466.82Z"
             />
    </g>
    <g id="Spline-44" data-name="Spline">
        <path d="M1623.8,472.67a83.9,83.9,0,0,1-11.54-1.52l0-.2a83.82,83.82,0,0,0,11.5,1.52,67.08,67.08,0,0,0,12.17-1.05l0,.2A67.26,67.26,0,0,1,1623.8,472.67Z"
             />
    </g>
    <g id="Spline-45" data-name="Spline">
        <path d="M1623.8,484.57a84,84,0,0,1-11.54-1.52l0-.2a83.88,83.88,0,0,0,11.5,1.52,64.43,64.43,0,0,0,12.17-1.08l0,.2A64.64,64.64,0,0,1,1623.8,484.57Z"
             />
    </g>
    <g id="Spline-46" data-name="Spline">
        <path d="M1623.8,490.41a83.9,83.9,0,0,1-11.54-1.52l0-.2a83.82,83.82,0,0,0,11.5,1.52,64.43,64.43,0,0,0,12.17-1.08l0,.2A64.64,64.64,0,0,1,1623.8,490.41Z"
             />
    </g>
    <g id="Spline-47" data-name="Spline">
        <path d="M1623.8,496.26a83.9,83.9,0,0,1-11.54-1.52l0-.2a83.82,83.82,0,0,0,11.5,1.52A64.47,64.47,0,0,0,1636,495l0,.2A64.68,64.68,0,0,1,1623.8,496.26Z"
             />
    </g>
    <g id="Spline-48" data-name="Spline">
        <path d="M1623.8,502.11a83.9,83.9,0,0,1-11.54-1.52l0-.2a83.82,83.82,0,0,0,11.5,1.52,64.46,64.46,0,0,0,12.17-1.08l0,.2A64.67,64.67,0,0,1,1623.8,502.11Z"
             />
    </g>
    <g id="Spline-49" data-name="Spline">
        <path d="M1623.8,513.6a83.9,83.9,0,0,1-11.54-1.52l0-.2a83.82,83.82,0,0,0,11.5,1.52,67.1,67.1,0,0,0,12.17-1.05l0,.2A67.28,67.28,0,0,1,1623.8,513.6Z"
             />
    </g>
    <g id="Spline-50" data-name="Spline">
        <path d="M1623.8,519.44a83.9,83.9,0,0,1-11.54-1.52l0-.2a83.82,83.82,0,0,0,11.5,1.52,67.08,67.08,0,0,0,12.17-1.05l0,.2A67.26,67.26,0,0,1,1623.8,519.44Z"
             />
    </g>
    <g id="Spline-51" data-name="Spline">
        <path d="M1623.8,525.29a83.9,83.9,0,0,1-11.54-1.52l0-.2a83.82,83.82,0,0,0,11.5,1.52A67.08,67.08,0,0,0,1636,524l0,.2A67.26,67.26,0,0,1,1623.8,525.29Z"
             />
    </g>
    <g id="Spline-52" data-name="Spline">
        <path d="M1623.8,531.14a84,84,0,0,1-11.54-1.52l0-.2a83.88,83.88,0,0,0,11.5,1.52,67.1,67.1,0,0,0,12.17-1.05l0,.2A67.28,67.28,0,0,1,1623.8,531.14Z"
             />
    </g>
    <g id="Spline-53" data-name="Spline">
        <path d="M1623.8,543a83.9,83.9,0,0,1-11.54-1.52l0-.2a83.82,83.82,0,0,0,11.5,1.52,64.43,64.43,0,0,0,12.17-1.08l0,.2A64.64,64.64,0,0,1,1623.8,543Z"
             />
    </g>
    <g id="Spline-54" data-name="Spline">
        <path d="M1623.8,548.88a83.9,83.9,0,0,1-11.54-1.52l0-.2a83.82,83.82,0,0,0,11.5,1.52A64.46,64.46,0,0,0,1636,547.6l0,.2A64.67,64.67,0,0,1,1623.8,548.88Z"
             />
    </g>
    <g id="Spline-55" data-name="Spline">
        <path d="M1623.8,554.73a83.9,83.9,0,0,1-11.54-1.52l0-.2a83.82,83.82,0,0,0,11.5,1.52,64.46,64.46,0,0,0,12.17-1.08l0,.2A64.67,64.67,0,0,1,1623.8,554.73Z"
             />
    </g>
    <g id="Spline-56" data-name="Spline">
        <path d="M1623.8,560.58a83.89,83.89,0,0,1-11.54-1.52l0-.2a83.76,83.76,0,0,0,11.5,1.52A64.43,64.43,0,0,0,1636,559.3l0,.2A64.64,64.64,0,0,1,1623.8,560.58Z"
             />
    </g>
    <g id="Spline-57" data-name="Spline">
        <path d="M1625,86.61c-8.58,0-17.46-2.26-17.46-6.05s8.88-6.05,17.46-6.05,17.49,2.26,17.49,6.05S1633.57,86.61,1625,86.61Zm0-11.11c-9.7,0-16.46,2.66-16.46,5.05s6.76,5.05,16.46,5.05c9.86,0,16.49-2.61,16.49-5.05S1634.83,75.5,1625,75.5Z"
             />
    </g>
    <path d="M1673.53,572.4c-4.38,0-7.08,8.73-8.6,16.35a14.56,14.56,0,0,0-2.86-.3,17.15,17.15,0,0,0-12.18,5.45c-5.14.77-9.67,0-11.86-1.92a4.12,4.12,0,0,1-1.42-3.41V576.94c0-1.85.9-3.14,2.15-4.93,2.64-3.78,6.62-9.49,6.62-26.41V95.25a9,9,0,0,1,2.17-6.31c1.1-1.49,2.49-2.81,2.25-6.37-.36-5.28-10.9-9.44-24.81-9.44s-24.71,4.15-24.81,9.44c-.08,4.12,1,5.48,1.92,6.79a6.47,6.47,0,0,1,1.39,4.38V545.6c0,16.23,4.24,22.14,7,26.05,1.48,2.06,2.55,3.55,2.55,5.76V591a11.65,11.65,0,0,1-1.14,3.91,10.3,10.3,0,0,0-5.11-1.43c-4.72,0-8.91,3.49-11.48,8.82a3.2,3.2,0,0,0-1.77-.58c-2.15,0-4,2.43-5,6.12-.49-.82-1.23-1.68-2.17-1.68-2.09,0-3.66,3.63-3.66,8.45s1.57,8.42,3.66,8.42a2.7,2.7,0,0,0,2.19-1.59c1,3.64,2.86,6,5,6a3.14,3.14,0,0,0,1.56-.44l.27,0c2.58,5.26,6.73,8.69,11.41,8.69a10.12,10.12,0,0,0,4.66-1.19,7.33,7.33,0,0,1,1.13,3.21,13.6,13.6,0,0,1,0,2.78v.26c0,.13,4,12.53,4,15.57v79.49c0,14.27,5,22.55,6.54,24.74a3.13,3.13,0,0,0,2.56,1.43h.16a2.66,2.66,0,0,0,2.22-1.48l.15-.27c4.82-8.8,5.91-18.36,6-24.83.05-4.94,0-56.39,0-73.29v-5.79c0-3,4-15.45,4-15.58l0-.23a21.33,21.33,0,0,1,0-2.82c.17-3.4,4.27-6.68,5.06-7.27l2.15.15c3.66,6.94,9.71,11.48,16.56,11.48a16.7,16.7,0,0,0,2.75-.23c1.64,8.41,4.38,17.22,8.72,17.22,6.86,0,11-22.06,11-43.39S1680.4,572.4,1673.53,572.4Zm-87.15,49.67c-1.26,0-2.66-3-2.66-7.42s1.4-7.45,2.66-7.45c.47,0,1.23.76,1.81,2.19a28,28,0,0,0,0,10.57C1587.69,621.28,1587,622.07,1586.38,622.07Zm75.69-32.62a13.57,13.57,0,0,1,2.67.28c-.24,1.25-.44,2.45-.61,3.57a15.19,15.19,0,0,0-9.71,5.23v-.11l-7.18.51C1650.75,593.15,1656.1,589.45,1662.07,589.45Zm1.9,4.88c-.12.84-.23,1.61-.32,2.3a4.39,4.39,0,0,1-2.73,3.57c-1.67.64-3.67.19-5.58-1.21A14.18,14.18,0,0,1,1664,594.34Zm-19.59-61.28c-4.36,2.31-12.19,3.73-20.58,3.73-4.45,0-16.43-2.4-19.32-3.2V504.74c3,.84,14.78,3.22,19.32,3.22,8.49,0,16.12-1.38,20.58-3.71Zm0-29c-4.36,2.31-12.19,3.73-20.58,3.73-4.57,0-16.45-2.41-19.32-3.22V475.32c3,.82,14.89,3.19,19.32,3.19,8.49,0,16.12-1.38,20.58-3.71Zm0-29.44c-4.36,2.31-12.19,3.73-20.58,3.73-4.45,0-16.43-2.4-19.32-3.2v-29c3,.84,14.78,3.22,19.32,3.22,8.49,0,16.12-1.38,20.58-3.71Zm0-29.15c-4.36,2.31-12.19,3.73-20.58,3.73-4.57,0-16.45-2.41-19.32-3.22V416.73c3.05.83,14.92,3.22,19.32,3.22,8.33,0,16.14-1.43,20.58-3.74Zm0-29.44c-4.39,2.32-12.22,3.76-20.58,3.76-4.43,0-16.42-2.42-19.32-3.23v-29c3.05.83,14.92,3.22,19.32,3.22,8.33,0,16.14-1.43,20.58-3.74Zm0-29.24c-4.39,2.32-12.22,3.76-20.58,3.76-4.43,0-16.42-2.42-19.32-3.23V357.42c3,.84,14.78,3.22,19.32,3.22,8.49,0,16.12-1.38,20.58-3.71Zm0-30.05c-4.36,2.31-12.19,3.73-20.58,3.73-4.57,0-16.45-2.41-19.32-3.22V328.27c3,.84,14.78,3.22,19.32,3.22,8.49,0,16.12-1.38,20.58-3.71Zm0-29.15c-4.36,2.31-12.19,3.73-20.58,3.73-4.57,0-16.45-2.41-19.32-3.22V298.86c3.05.83,14.92,3.22,19.32,3.22,8.33,0,16.14-1.43,20.58-3.74Zm0-29.44c-4.39,2.32-12.22,3.76-20.58,3.76-4.43,0-16.42-2.42-19.32-3.23V269.8c3,.84,14.78,3.22,19.32,3.22,8.49,0,16.12-1.38,20.58-3.71Zm0-29c-4.36,2.31-12.19,3.73-20.58,3.73-4.57,0-16.45-2.41-19.32-3.22V240.39c3.05.83,14.92,3.22,19.32,3.22,8.33,0,16.14-1.43,20.58-3.74Zm0-29.44c-4.39,2.32-12.22,3.76-20.58,3.76-4.43,0-16.42-2.42-19.32-3.23V211.24c3.05.83,14.92,3.22,19.32,3.22,8.33,0,16.14-1.43,20.58-3.74Zm0-29.15c-4.39,2.32-12.22,3.76-20.58,3.76-4.43,0-16.42-2.42-19.32-3.23V181.8c3.05.83,14.92,3.22,19.32,3.22,8.33,0,16.14-1.43,20.58-3.74Zm0-29.44c-4.39,2.32-12.22,3.76-20.58,3.76-4.43,0-16.42-2.42-19.32-3.23v-29c3.05.83,14.92,3.22,19.32,3.22,8.33,0,16.14-1.43,20.58-3.74ZM1602.65,88.4a8.79,8.79,0,0,1-1.48-5.84c.14-4.57,10.91-8.44,23.81-8.44s23.38,3.88,23.81,8.44c.8,2.78-2.39,6.27-2.6,6.6-3.08,2.09-12.21,4.34-21.2,4.34C1615.16,93.5,1606.66,91.42,1602.65,88.4ZM1625,94.5c7.54,0,15.23-1.32,20.23-3.71a10.46,10.46,0,0,0-.85,4.46v56.57c-4.39,2.32-12.22,3.76-20.58,3.76-4.43,0-16.42-2.42-19.32-3.23V93.74a7.84,7.84,0,0,0-.64-3.36C1608.43,92.91,1616,94.5,1625,94.5Zm-10.93,496.56V577.4c0-2.52-1.21-4.21-2.74-6.34-2.89-4-6.85-9.56-6.85-25.47v-11.8c3,.82,14.89,3.19,19.32,3.19,8.49,0,16.12-1.38,20.58-3.71V545.6c0,16.61-3.88,22.16-6.44,25.84-1.3,1.86-2.33,3.33-2.33,5.5v11.61a5.07,5.07,0,0,0,1.75,4.17c1.79,1.61,4.95,2.48,8.69,2.48a26.5,26.5,0,0,0,2.8-.17,25.57,25.57,0,0,0-2.82,4l-40.62,2.86a11.3,11.3,0,0,1,2.52-1.65C1613.61,597.65,1614.05,591.35,1614.07,591.06Zm14,10.22v27.15l-4.61-.33V601.6Zm-5.61.4V628l-17.42-1.25a15.89,15.89,0,0,1-5.41-12.14,16.77,16.77,0,0,1,4.61-11.69Zm-15.67-7.16a9.33,9.33,0,0,1,4.63,1.3,8.9,8.9,0,0,1-3.93,3.51,13.23,13.23,0,0,0-3.69,2.67l-7.48.53C1598.75,597.66,1602.54,594.51,1606.82,594.51Zm-13.24,32c-1.85,0-3.5-2.68-4.33-6.49h0a25.74,25.74,0,0,1-.55-5.37c0-7.53,3-13.64,6.22-11.38a30,30,0,0,0,0,22.78A2.22,2.22,0,0,1,1593.58,626.52Zm.09-11.87a28.11,28.11,0,0,1,2.19-11.1l7-.49a17.8,17.8,0,0,0-4.19,11.59,16.66,16.66,0,0,0,4.86,12l-7.49-.54A27.9,27.9,0,0,1,1593.67,614.65Zm13.15,20.14c-4.16,0-7.87-3-10.28-7.61l8.11.58a26.08,26.08,0,0,0,2.76,2.16,21.91,21.91,0,0,1,3.53,3.84A9.11,9.11,0,0,1,1606.82,634.79Zm30.49,3a27,27,0,0,0,0,2.89c-.41,1.28-4,12.7-4,15.78v5.79c0,16.9,0,68.35,0,73.28-.06,6.35-1.13,15.73-5.85,24.36l-.15.28a1.66,1.66,0,0,1-1.4.95,2.1,2.1,0,0,1-1.84-1c-1.49-2.14-6.36-10.2-6.36-24.17V656.43c0-3.07-3.62-14.42-4.05-15.77a16.47,16.47,0,0,0,0-2.91c-.24-4.21-5.34-8.43-5.6-8.63-.59-.4-1.14-.82-1.67-1.24l35.56,2.54C1640.33,631.77,1637.47,634.63,1637.31,637.76Zm-8.21-9.25v-27.3l16.36-1.15a34.29,34.29,0,0,0-.46,29.59Zm13.77-13.18a32,32,0,0,1,3.76-15.35l7-.49a25.59,25.59,0,0,0-5.21,15.84,26,26,0,0,0,4.47,14.88l-6.76-.48A32.29,32.29,0,0,1,1642.87,615.32Zm19.2,25.84c-6.29,0-11.88-4.09-15.39-10.4l7,.5a15.54,15.54,0,0,0,10.31,6.06c.18,1.17.39,2.39.62,3.62A15.65,15.65,0,0,1,1662.07,641.16Zm-7.42-10.29a6.78,6.78,0,0,1,6-.58,4.29,4.29,0,0,1,2.84,3.48c.1.8.22,1.64.35,2.52A14.53,14.53,0,0,1,1654.65,630.88Zm18.88,27.27c-3.64,0-7-9.16-9-24.5a5.32,5.32,0,0,0-3.46-4.27,7.7,7.7,0,0,0-7,.71,24.81,24.81,0,0,1-4.62-14.76,24.48,24.48,0,0,1,5.26-15.59c2.21,1.66,4.59,2.18,6.61,1.4a5.39,5.39,0,0,0,3.36-4.37c1.83-14.19,5.31-23.36,8.89-23.36,4.81,0,10,17,10,42.36S1678.35,658.15,1673.53,658.15Z"
         /></g>
</svg>