<svg xmlns="http://www.w3.org/2000/svg" xmlns:xlink="http://www.w3.org/1999/xlink" version="1.1" x="0px" y="0px" width="22" height="22" viewBox="0 0 40 40" enable-background="new 0 0 40 40" xml:space="preserve">
<g id="图层_1" display="none">
	<rect x="14.4" y="22.6" display="inline" fill="#333333" width="11.3" height="1"/>
	<polygon display="inline" fill="#333333" points="29.3,32.2 20.4,7.8 19.6,7.8 10.7,32.2 11.8,32.1 20,9.6 28.2,32.1  "/>
</g>
<g id="图层_2" display="none">
	<text transform="matrix(1 0 0 1 8.0583 33.4719)" display="inline" opacity="0.5" font-family="'ArialMT'" font-size="36">A</text>
</g>
<g id="图层_3" display="none">
	<text transform="matrix(1 0 0 1 6.9168 32.25)" opacity="0.5" font-family="'ArialMT'" font-size="36">N</text>
	<g>
		<line display="inline" fill="none" stroke="#000000" stroke-miterlimit="10" x1="11.3" y1="6.5" x2="11.3" y2="32.1"/>
		<line display="inline" fill="none" stroke="#000000" stroke-miterlimit="10" x1="28.3" y1="6.5" x2="28.3" y2="32.1"/>
		<line display="inline" fill="none" stroke="#000000" stroke-miterlimit="10" x1="11.3" y1="6.5" x2="28.3" y2="32.1"/>
	</g>
	<g>
		<polyline display="inline" fill="none" stroke="#000000" stroke-miterlimit="10" points="28.3,6.5 28.3,32.1 11.3,6.5 11.3,32.1       "/>
	</g>
	<polygon display="inline" points="28.8,32.2 28.8,6.5 27.8,6.5 27.8,30.5 11.8,6.5 10.8,6.5 10.8,32.1 11.8,32.1 11.8,8.2    27.7,32.2  "/>
</g>
<g id="图层_4">
	<text transform="matrix(1 0 0 1 7 32)" display="none" opacity="0.5" font-family="'ArialMT'" font-size="36">C</text>
	<g id="图层_5" display="none">
		<path opacity="0.5" fill="none" stroke="#CC6666" stroke-miterlimit="10" d="M30.8,19.1c0,6.5-3.6,11.7-10.3,11.7    s-10.3-5.2-10.3-11.7S13.9,7.4,20.5,7.4S30.8,12.6,30.8,19.1z"/>
	</g>
	<g id="图层_5_x5F_复制" display="none">
		<path display="inline" fill="none" stroke="#000000" stroke-miterlimit="10" d="M30.2,23.4c-1.3,4.3-4.6,7.4-9.7,7.4    c-6.7,0-10.3-5.2-10.3-11.7S13.9,7.4,20.5,7.4c4.6,0,7.7,2.5,9.3,6.1"/>
	</g>
	<g id="图层_5_x5F_复制_2">
		<path d="M29.7,23.3c-1.3,4.5-4.7,7-9.2,7c-6,0-9.8-4.4-9.8-11.2c0-5.6,3-11.2,9.8-11.2c4.1,0,7.2,2.1,8.8,5.8l0.9-0.4    c-1.7-4.1-5.3-6.4-9.7-6.4C14,6.9,9.7,11.8,9.7,19.1c0,7.3,4.3,12.2,10.8,12.2c5,0,8.7-2.8,10.2-7.7L29.7,23.3z"/>
	</g>
</g>
</svg>