<?xml version="1.0" encoding="UTF-8"?>
<svg width="14px" height="14px" viewBox="0 0 14 14" version="1.1" xmlns="http://www.w3.org/2000/svg" xmlns:xlink="http://www.w3.org/1999/xlink">
    <!-- Generator: Sketch 50 (54983) - http://www.bohemiancoding.com/sketch -->
    <title>移动到中间</title>
    <desc>Created with Sketch.</desc>
    <defs></defs>
    <g id="01" stroke="none" stroke-width="1" fill="none" fill-rule="evenodd">
        <g id="实验操作-工具栏" transform="translate(-1879.000000, -247.000000)" fill="#515151">
            <g id="移动到中间" transform="translate(1879.000000, 247.000000)">
                <path d="M12,8 L10,8 L10,6 L12,6 L12,5 L14,7 L12,9 L12,8 Z" id="Combined-Shape" transform="translate(12.000000, 7.000000) rotate(-180.000000) translate(-12.000000, -7.000000) "></path>
                <path d="M7,3 L5,3 L5,1 L7,1 L7,0 L9,2 L7,4 L7,3 Z" id="Combined-Shape-Copy-9" transform="translate(7.000000, 2.000000) rotate(-270.000000) translate(-7.000000, -2.000000) "></path>
                <path d="M7,13 L5,13 L5,11 L7,11 L7,10 L9,12 L7,14 L7,13 Z" id="Combined-Shape-Copy-12" transform="translate(7.000000, 12.000000) rotate(-90.000000) translate(-7.000000, -12.000000) "></path>
                <path d="M2,8 L0,8 L0,6 L2,6 L2,5 L4,7 L2,9 L2,8 Z" id="Combined-Shape"></path>
                <circle id="Oval-18" cx="7" cy="7" r="2"></circle>
            </g>
        </g>
    </g>
</svg>