<?xml version="1.0" encoding="utf-8"?>
<!-- Generator: Adobe Illustrator 17.0.0, SVG Export Plug-In . SVG Version: 6.00 Build 0)  -->
<!DOCTYPE svg PUBLIC "-//W3C//DTD SVG 1.1//EN" "http://www.w3.org/Graphics/SVG/1.1/DTD/svg11.dtd">
<svg version="1.1" xmlns="http://www.w3.org/2000/svg" xmlns:xlink="http://www.w3.org/1999/xlink" x="0px" y="0px" width="42px"
	 height="42px" viewBox="0 0 40 40" enable-background="new 0 0 40 40" xml:space="preserve">
<g id="ch280_x25_">
	<path fill="#4c4c4c" d="M32.4,28.2c0.1-0.5,0.3-1,0.5-1.4c0.3-0.4,0.7-0.8,1.2-1.2l1.1-0.9c0.6-0.5,1.1-1,1.3-1.5c0.2-0.5,0.3-1,0.3-1.6
		c0-0.9-0.3-1.6-0.8-2.1c-0.5-0.4-1.1-0.6-1.8-0.6c-0.9,0-1.6,0.3-2.1,0.8c-0.5,0.6-0.7,1.3-0.7,2.4h0.9c0.1-1.6,0.7-2.5,1.9-2.5
		c0.5,0,1,0.2,1.3,0.5c0.3,0.4,0.5,0.9,0.5,1.5c0,0.5-0.1,0.9-0.3,1.3c-0.2,0.4-0.6,0.8-1.1,1.2l-1.1,0.9c-0.7,0.6-1.3,1.2-1.6,1.8
		c-0.4,0.6-0.5,1.4-0.5,2.2h5.6v-0.8H32.4z"/>
	<path fill="#4c4c4c" d="M8.2,24.4c-3.1,0-5.6-3.1-5.6-6.8c0-3.8,2.5-6.8,5.6-6.8c2.3,0,4.5,1.5,5.3,3.9l0.9-0.4c-1-2.7-3.6-4.5-6.3-4.5
		c-3.7,0-6.6,3.5-6.6,7.8s3,7.8,6.6,7.8c2.8,0,5.3-1.9,6.3-4.8l-0.9-0.3C12.7,22.7,10.5,24.4,8.2,24.4z"/>
	<polygon fill="#4c4c4c" points="26.4,16.5 18.3,16.5 18.3,9.8 17.3,9.8 17.3,25.3 18.3,25.3 18.3,17.5 26.4,17.5 26.4,25.3 27.4,25.3 27.4,9.8
		26.4,9.8 	"/>
</g>
</svg>
