<?xml version="1.0" encoding="utf-8"?>
<!-- Generator: Adobe Illustrator 16.0.0, SVG Export Plug-In . SVG Version: 6.00 Build 0)  -->
<!DOCTYPE svg PUBLIC "-//W3C//DTD SVG 1.1//EN" "http://www.w3.org/Graphics/SVG/1.1/DTD/svg11.dtd">
<svg version="1.1" id="图层_1" xmlns="http://www.w3.org/2000/svg" xmlns:xlink="http://www.w3.org/1999/xlink" x="0px" y="0px"
	 width="40px" height="40px" viewBox="0 0 40 40" enable-background="new 0 0 40 40" xml:space="preserve">
<g id="图层_2">
</g>
<g id="图层_1_1_">
	<path fill="#4C4C4C" d="M20,6C12.269,6,6,12.268,6,20c0,7.732,6.271,14,14,14c7.732,0,14-6.268,14-14C34,12.268,27.732,6,20,6z
		 M20,33c-7.167,0-13-5.832-13-13S12.832,7,20,7s13,5.832,13,13S27.168,33,20,33z"/>
	<path fill="#4C4C4C" d="M20.799,12.611c0,0.439-0.36,0.8-0.799,0.8l0,0c-0.439,0-0.8-0.36-0.8-0.8l0,0c0-0.44,0.36-0.801,0.8-0.801
		l0,0C20.439,11.811,20.799,12.171,20.799,12.611L20.799,12.611z"/>
	<rect x="19.5" y="15.5" fill="#4C4C4C" width="1" height="13"/>
</g>
</svg>
