<svg id="图层_13" data-name="图层 13" xmlns="http://www.w3.org/2000/svg" viewBox="0 0 33.09 260.04" width="35" height="262">
    <title>玻璃仪器26</title> <g fill="#000000" stroke-width="0.5324" transform="translate(-357.46 -11.07)">
    <path stroke="#000000" fill="#000000" stroke-width="0.5324" d="M386.87,215c-1,0-1.91,1.2-2.58,3.63a8,8,0,0,0-4.6,2.9c-2-.07-3.69-1-3.69-2v-4.07c0-2.13,7-2.2,7-11V46.33c0-2.45,1.27-2.61,1.27-4.26a7.13,7.13,0,0,0-1.77-3.68l1.21-22.55A1,1,0,0,1,384,15c.65-.41,1-.73,1-1.14,0-1.55-5.49-2.8-12.25-2.8s-12.25,1.25-12.25,2.8c0,.41.41.78,1.09,1.16a.73.73,0,0,1,.32.62l1.1,22.75A6.87,6.87,0,0,0,361,41.86c0,2.35,1,2.57,1,4.47V204.42c0,8.59,6,8.74,6,11.13v4.78a3.69,3.69,0,0,1-.87,2.33,3.15,3.15,0,0,0-2.16-1c-1.39,0-2.65,1.13-3.44,2.82a1,1,0,0,0-.62-.25,1.34,1.34,0,0,0-1,.74,1.21,1.21,0,0,0-.27,0c-1.17,0-2.12,1.57-2.12,3.5s1,3.5,2.12,3.5l.14,0c.33.61.74,1,1.19,1a1.06,1.06,0,0,0,.68-.3c.79,1.62,2,2.69,3.37,2.69a3.07,3.07,0,0,0,2-.86,4.07,4.07,0,0,1,1.21,2.23c0,.8-.28,1-.28,1a48.25,48.25,0,0,1,1.08,5.5c0,.94,0,27,0,27a1.13,1.13,0,0,0,.22.45,1.18,1.18,0,0,0,1,.47c1,0,2.62-1.11,3.26-1.59.88-.65,2.36-1.89,2.51-2.87a1.21,1.21,0,0,0,0-.27s0-22.1,0-23.19a45.34,45.34,0,0,1,1.16-5.5s-.16-.19-.12-1a4.59,4.59,0,0,1,1.51-2.59,8.55,8.55,0,0,0,5.62,4.62c.68,2.84,1.62,4.27,2.71,4.27,2,0,3.67-5.72,3.67-14S388.9,215,386.87,215ZM359.3,230.81a3.1,3.1,0,0,1-.84-2.38,2.88,2.88,0,0,1,.95-2.45,8.44,8.44,0,0,0-.39,2.6A8.76,8.76,0,0,0,359.3,230.81Zm1.83.94-.14.09a.3.3,0,0,1-.12.07,5.29,5.29,0,0,1-.85-3.34,5.1,5.1,0,0,1,.86-3.3l.24.25a10.06,10.06,0,0,0,.09,6.18ZM384,219.7l0,.16a9.6,9.6,0,0,0-3.13,3.86,3.18,3.18,0,0,1-.58-.4l-.68.05A7.6,7.6,0,0,1,384,219.7Zm-.3,1.64c0,.31-.09.63-.14,1A1.85,1.85,0,0,1,381.8,224,9,9,0,0,1,383.73,221.34ZM372.82,12.07a41.47,41.47,0,0,1,7.73.65,25.7,25.7,0,0,1-8.07,1,27.4,27.4,0,0,1-7.79-.9A40.32,40.32,0,0,1,372.82,12.07Zm-10.68,2.08a3.27,3.27,0,0,1-.47-.3,4.84,4.84,0,0,1,1.48-.66c1,.89,4.81,1.55,9.32,1.55,4.78,0,8.72-.74,9.47-1.7a6.17,6.17,0,0,1,2,.81c-.09.07-.23.17-.46.31a1.8,1.8,0,0,0-.78,1.28,37.9,37.9,0,0,1-9.87,1,37.81,37.81,0,0,1-9.9-1.05A1.63,1.63,0,0,0,362.14,14.15Zm.84,1.49a38.19,38.19,0,0,0,9.88,1,38.52,38.52,0,0,0,9.86-1c0,.07,0,.14,0,.21L381.52,38c-1.41-.57-4.75-1-8.66-1-4.07,0-7.52.43-8.81,1Zm1.1,22.9v-.15c.73-.36,3.63-1,8.79-1,4.84,0,7.69.56,8.63,1v.21c-1.14.8-4.75,1.53-8.68,1.53S365.22,39.35,364.08,38.53ZM369,220.3v-4.75c0-1.31-1-2.08-2-2.9-1.67-1.3-4-3.09-4-8.23V46.34a5.27,5.27,0,0,0-.56-2.38,4.39,4.39,0,0,1-.47-2.09,6.74,6.74,0,0,1,1.5-2.47l0,0c1.64,1.77,7.35,2,9.31,2h0c1.91,0,7.41-.24,9.2-1.9a4.1,4.1,0,0,1,.46.62,9.68,9.68,0,0,1,.8,2,2.06,2.06,0,0,1-.41,1.11,5.47,5.47,0,0,0-.87,3.1V204.42c0,5.32-2.74,7-4.75,8.3-1.16.73-2.25,1.41-2.25,2.67v4.07c0,1.52,1.7,2.73,4,3a10.51,10.51,0,0,0-.58,1l-12.11,1a2.46,2.46,0,0,1,.27-.16A4.37,4.37,0,0,0,369,220.3Zm4,4.63v7.48l-1-.08V225Zm-2,.16v7.16l-5.48-.45a4.58,4.58,0,0,1-1.27-3.21,5.21,5.21,0,0,1,.95-3Zm-6-2.41a2.11,2.11,0,0,1,1.35.61l-.15.09a4.45,4.45,0,0,0-1.49,1.2l-2.16.17C363.16,223.47,364.09,222.68,365,222.68Zm-2.75,8.85a8.7,8.7,0,0,1-.53-3,8.84,8.84,0,0,1,.41-2.69l1.88-.15a6.29,6.29,0,0,0-.72,2.94,5.54,5.54,0,0,0,.9,3.1ZM365,234.3a3,3,0,0,1-2.25-1.72l2.35.19a9.13,9.13,0,0,0,1.2,1A2.07,2.07,0,0,1,365,234.3Zm7.92,34.42a6.36,6.36,0,0,1-2.66,1.39A.22.22,0,0,1,370,270c0-.07-.06-.75,2.09-2.34a6.36,6.36,0,0,1,2.66-1.39.21.21,0,0,1,.18.06.18.18,0,0,1,0,.13C375,266.76,374.47,267.54,372.88,268.72ZM376,236.63a4.15,4.15,0,0,0,.08,1.11A37.66,37.66,0,0,0,375,243.2v22.14a1.27,1.27,0,0,0-.21,0c-1,0-2.62,1.11-3.26,1.59a12.63,12.63,0,0,0-1.55,1.33l0-25a38.63,38.63,0,0,0-1-5.31,2.62,2.62,0,0,0,.21-1.27c-.12-1.81-2-3.43-2.26-3.61l-.13-.1,10.64.87A5,5,0,0,0,376,236.63Zm-2-4.14v-7.65l4-.33a12.1,12.1,0,0,0,0,8.32Zm4.25-3.82a10.91,10.91,0,0,1,.85-4.25l.82-.07a3.71,3.71,0,0,0,.55.31,12.09,12.09,0,0,0,0,8,3,3,0,0,0-.7.28l-.68-.06A10.91,10.91,0,0,1,378.25,228.66Zm1.36,5.3.52,0a2,2,0,0,1,.75-.36,9.62,9.62,0,0,0,3,3.74l0,.21A7.64,7.64,0,0,1,379.61,234Zm2.29-.34a2,2,0,0,1,1.65,1.63c0,.25.07.48.1.72A8.58,8.58,0,0,1,381.9,233.62Zm5,8.34c-.38-.15-1.56-.87-2.34-6.84a3,3,0,0,0-3.1-2.56h0a11.16,11.16,0,0,1-.7-3.9,10.85,10.85,0,0,1,.66-3.72,2.75,2.75,0,0,0,3.17-2.52c.75-5.85,2-6.37,2.32-6.46.9.26,2.66,4.29,2.66,13S387.82,241.65,386.88,242Z"
           />
    <path d="M364.3,31.88a.06.06,0,0,1,0-.12l.82-.5a.06.06,0,0,1,.09,0,.06.06,0,0,1,0,.09l-.82.5Z"
           />
    <path d="M375,26.39a.06.06,0,0,1-.05,0,.06.06,0,0,1,0-.09l.84-.54a.06.06,0,0,1,.09,0,.06.06,0,0,1,0,.09l-.84.54Z"
           />
    <path d="M369.91,26.36l0,0-.68-.77a.06.06,0,0,1,.1-.08l.68.77a.06.06,0,0,1,0,.09Z"
           />
    <path d="M367.7,29.8a.06.06,0,0,1-.06,0l-.4-1a.06.06,0,0,1,0-.08.06.06,0,0,1,.08,0l.4,1a.06.06,0,0,1,0,.08Z"
           />
    <path d="M365.85,38.08l0,0a.06.06,0,0,1,0-.09l1-.81a.06.06,0,0,1,.09,0,.06.06,0,0,1,0,.09l-1,.81Z"
           />
    <path d="M365.59,30.78a.06.06,0,0,1-.06-.06v-1a.06.06,0,1,1,.13,0v1A.06.06,0,0,1,365.59,30.78Z"
           />
    <path d="M366.23,26.82a.06.06,0,0,1-.05,0l-.56-.79a.06.06,0,0,1,0-.09.06.06,0,0,1,.09,0l.56.79a.06.06,0,0,1,0,.09Z"
           />
    <path d="M369.48,39.08l0,0-.68-.72a.06.06,0,0,1,.09-.09l.68.72a.06.06,0,0,1,0,.09Z"
           />
    <path d="M373.52,28l0,0-.68-.7a.06.06,0,0,1,0-.09.06.06,0,0,1,.09,0l.68.7a.06.06,0,0,1,0,.09Z"
           />
    <path d="M371.6,28.72h0l-1.45-.38a.06.06,0,1,1,0-.12l1.45.38a.06.06,0,0,1,0,.12Z"
           />
    <path d="M371.22,30.23h0l-1.06-.75a.06.06,0,1,1,.07-.1l1.06.75a.06.06,0,0,1,0,.12Z"
           />
    <path d="M377.6,29.67a.06.06,0,0,1-.06,0l-.45-1a.06.06,0,0,1,.12-.05l.45,1a.06.06,0,0,1,0,.08Z"
           />
    <path d="M380.91,29.21a.06.06,0,0,1-.05,0l-.56-.79a.06.06,0,1,1,.1-.07l.56.79a.06.06,0,0,1,0,.09Z"
           />
    <path d="M375.89,30.41l0,0-.61-.7a.06.06,0,1,1,.1-.08l.61.7a.06.06,0,0,1,0,.09Z"
           />
    <path d="M380.51,32.88h0a.06.06,0,0,1,0-.09l.56-.93a.06.06,0,0,1,.09,0,.06.06,0,0,1,0,.09l-.56.93A.06.06,0,0,1,380.51,32.88Z"
           />
    <path d="M380,38.51h0l-.87-.5a.06.06,0,1,1,.06-.11l.87.5a.06.06,0,0,1,0,.12Z"
           />
    <path d="M377.43,33.11h0a.06.06,0,0,1,0-.09l.7-1a.06.06,0,1,1,.1.08l-.7,1A.06.06,0,0,1,377.43,33.11Z"
           />
    <path d="M371.83,32.84l0,0-.61-.72a.06.06,0,1,1,.1-.08l.61.72a.06.06,0,0,1,0,.09Z"
           />
    <path d="M368.71,35.1a.06.06,0,0,1,0-.12l1.27-.38a.06.06,0,0,1,0,.12l-1.27.38Z"
           />
    <path d="M374,33.9l0,0a.06.06,0,0,1,0-.09l.7-.77a.06.06,0,0,1,.09,0,.06.06,0,0,1,0,.09l-.7.77Z"
           />
    <path d="M376.38,36h0a.06.06,0,0,1,0-.09l.61-.79a.06.06,0,0,1,.1.08l-.61.79Z"
           />
    <path d="M375.39,40.64a.06.06,0,0,1,0-.12l.82-.41a.06.06,0,1,1,.06.11l-.82.41Z"
           />
    <path d="M374.27,35.48h0a.06.06,0,0,1,0-.09l.59-.75a.06.06,0,0,1,.09,0,.06.06,0,0,1,0,.09l-.59.75Z"
           />
    <path d="M368.66,37.2a.06.06,0,0,1-.06-.06v-1a.06.06,0,1,1,.13,0v1A.06.06,0,0,1,368.66,37.2Z"
           />
    <path d="M370.52,40.17a.06.06,0,0,1,0-.12l.84-.48a.06.06,0,1,1,.06.11l-.84.48Z"
           />
    <path d="M373.73,40.39h0l-.89-.59a.06.06,0,0,1,0-.09.06.06,0,0,1,.09,0l.89.59a.06.06,0,0,1,0,.12Z"
           />
    <path d="M364.72,24.53h0a.06.06,0,0,1,0-.09l.66-1a.06.06,0,0,1,.09,0,.06.06,0,0,1,0,.09l-.66,1A.06.06,0,0,1,364.72,24.53Z"
           />
    <path d="M364.82,20.48a.06.06,0,0,1-.06,0l-.42-1a.06.06,0,0,1,.12,0l.42,1a.06.06,0,0,1,0,.08Z"
           />
    <path d="M363.81,14.49a.06.06,0,0,1,0-.12l.82-.5a.06.06,0,1,1,.07.11l-.82.5Z"
           />
    <path d="M362.48,15.41h0a.06.06,0,0,1,0-.09l.56-.93a.06.06,0,0,1,.09,0,.06.06,0,0,1,0,.09l-.56.93A.06.06,0,0,1,362.48,15.41Z"
           />
    <path d="M364.23,21h-1a.06.06,0,0,1,0-.13h1a.06.06,0,0,1,0,.13Z"  />
    <path d="M367.12,19.37h0l-.94-.72a.06.06,0,0,1,0-.09.06.06,0,0,1,.09,0l.94.72a.06.06,0,0,1,0,.09Z"
           />
    <path d="M365.87,15.05h0a.06.06,0,0,1,0-.08l.47-1.11a.06.06,0,0,1,.08,0,.06.06,0,0,1,0,.08L365.93,15A.06.06,0,0,1,365.87,15.05Z"
           />
    <path d="M368.17,24.35l0,0-.8-.77a.06.06,0,1,1,.09-.09l.8.77a.06.06,0,0,1,0,.09Z"
           />
    <path d="M374.29,24.58a.06.06,0,0,1,0-.11l.82-.61a.06.06,0,0,1,.08.1l-.82.61Z"
           />
    <path d="M381.73,14.52a.06.06,0,0,1,0-.12l.82-.5a.06.06,0,1,1,.07.11l-.82.5Z"
           />
    <path d="M371.22,12.77h0L370.13,12a.06.06,0,0,1,0-.09.06.06,0,0,1,.09,0l1.06.75a.06.06,0,0,1,0,.12Z"
           />
    <path d="M378.07,13.9h0l-.8-.54a.06.06,0,1,1,.07-.1l.8.54a.06.06,0,0,1,0,.12Z"
           />
    <path d="M379.71,19l0,0a.06.06,0,0,1,0-.09l.73-.68a.06.06,0,0,1,.09.09l-.73.68Z"
           />
    <path d="M379.85,23.74h0a.06.06,0,0,1,0-.09l.54-.81a.06.06,0,1,1,.11.07l-.54.81A.06.06,0,0,1,379.85,23.74Z"
           />
    <path d="M380,21h0l-.87-.5a.06.06,0,1,1,.06-.11l.87.5a.06.06,0,0,1,0,.12Z"  />
    <path d="M377.43,15.64h0a.06.06,0,0,1,0-.09l.7-1a.06.06,0,0,1,.09,0,.06.06,0,0,1,0,.09l-.7,1A.06.06,0,0,1,377.43,15.64Z"
           />
    <path d="M371.83,15.37l0,0-.61-.72a.06.06,0,1,1,.1-.08l.61.72a.06.06,0,0,1,0,.09Z"
           />
    <path d="M368.71,17.63a.06.06,0,0,1,0-.12l1.27-.38a.06.06,0,0,1,.08,0,.06.06,0,0,1,0,.08l-1.27.38Z"
           />
    <path d="M374,16.43l0,0a.06.06,0,0,1,0-.09l.7-.77a.06.06,0,0,1,.09,0,.06.06,0,0,1,0,.09l-.7.77Z"
           />
    <path d="M376.38,18.56h0a.06.06,0,0,1,0-.09l.61-.79a.06.06,0,0,1,.09,0,.06.06,0,0,1,0,.09l-.61.79Z"
           />
    <path d="M375.39,23.17a.06.06,0,0,1,0-.12l.82-.41a.06.06,0,0,1,.09,0,.06.06,0,0,1,0,.08l-.82.41Z"
           />
    <path d="M374.27,18h0a.06.06,0,0,1,0-.09l.59-.75a.06.06,0,0,1,.1.08l-.59.75Z"
           />
    <path d="M368.66,19.73a.06.06,0,0,1-.06-.06v-1a.06.06,0,1,1,.13,0v1A.06.06,0,0,1,368.66,19.73Z"
           />
    <path d="M370.52,22.7a.06.06,0,0,1,0-.12l.84-.48a.06.06,0,1,1,.06.11l-.84.48Z"
           />
    <path d="M373.73,22.92h0l-.89-.59a.06.06,0,0,1,0-.09.06.06,0,0,1,.09,0l.89.59a.06.06,0,0,1,0,.12Z"
           /></g>
</svg>