<?xml version="1.0" encoding="utf-8"?>
<!-- Generator: Adobe Illustrator 16.0.0, SVG Export Plug-In . SVG Version: 6.00 Build 0)  -->
<!DOCTYPE svg PUBLIC "-//W3C//DTD SVG 1.1//EN" "http://www.w3.org/Graphics/SVG/1.1/DTD/svg11.dtd">
<svg version="1.1" id="图层_1" xmlns="http://www.w3.org/2000/svg" xmlns:xlink="http://www.w3.org/1999/xlink" x="0px" y="0px"
	 width="40px" height="40px" viewBox="0 0 40 40" enable-background="new 0 0 40 40" xml:space="preserve">
<g>
	<path fill="#333333" d="M17.026,22.787v-6.736c-0.155,0.155-0.421,0.332-0.791,0.527c-0.371,0.193-0.713,0.327-1.029,0.406v-0.977
		c0.417-0.114,0.861-0.301,1.335-0.55c0.475-0.255,0.838-0.491,1.093-0.715h0.376v8.049h-0.985L17.026,22.787L17.026,22.787z"/>
	<path fill="#333333" d="M20.175,21.721c0.435,0.254,0.903,0.377,1.402,0.377c0.706,0,1.249-0.279,1.639-0.834
		c0.39-0.556,0.583-1.346,0.583-2.37c-0.008,0.007-0.014,0.007-0.021,0c-0.344,0.657-0.928,0.989-1.741,0.989
		c-0.66,0-1.209-0.229-1.643-0.682c-0.433-0.454-0.653-1.046-0.653-1.77c0-0.772,0.238-1.408,0.712-1.904
		c0.475-0.497,1.091-0.745,1.846-0.745c0.783,0,1.396,0.308,1.837,0.923c0.439,0.615,0.66,1.509,0.66,2.689
		c0,1.452-0.285,2.572-0.855,3.355c-0.565,0.778-1.354,1.171-2.361,1.171c-0.551,0-1.02-0.087-1.402-0.27L20.175,21.721
		L20.175,21.721z M20.749,17.301c0,0.531,0.14,0.948,0.407,1.26c0.271,0.311,0.646,0.465,1.123,0.465
		c0.414,0,0.763-0.142,1.045-0.427c0.283-0.282,0.424-0.626,0.424-1.03c0-0.565-0.141-1.035-0.421-1.406
		c-0.279-0.37-0.649-0.555-1.106-0.555c-0.428,0-0.775,0.16-1.054,0.482C20.891,16.415,20.749,16.817,20.749,17.301z"/>
</g>
<path fill="#333333" d="M33,14.967l-4.346-2.505l-0.024,0.014l0.003-4.972L24.284,5l-4.343,2.502L15.595,5l-4.343,2.503v5.006
	l0.007,0.004L7,14.967v5.006l4.346,2.503v4.983l4.345,2.504l0.007-0.003L17.339,35h5.417l1.645-5.05l4.326-2.49v-5.009l-0.018-0.006
	L33,19.973V14.967z M32,19.395l-4.262,2.457l-0.012,1.308v3.724l-4.158,2.395L22.031,34h-3.966l-1.53-4.695l-0.778-0.457
	l-3.411-1.966v-4.983L8,19.395v-3.85l4.274-2.462l-0.022-1.155V8.081l3.344-1.927l4.346,2.502l4.343-2.502l3.349,1.928l-0.004,4.981
	L32,15.544V19.395z"/>
</svg>
