<?xml version="1.0" encoding="utf-8"?>
<!-- Generator: Adobe Illustrator 16.0.0, SVG Export Plug-In . SVG Version: 6.00 Build 0)  -->
<!DOCTYPE svg PUBLIC "-//W3C//DTD SVG 1.1//EN" "http://www.w3.org/Graphics/SVG/1.1/DTD/svg11.dtd">
<svg version="1.1" id="图层_1" xmlns="http://www.w3.org/2000/svg" xmlns:xlink="http://www.w3.org/1999/xlink" x="0px" y="0px"
	 width="40px" height="40px" viewBox="0 0 40 40" enable-background="new 0 0 40 40" xml:space="preserve">
<g>
	<path fill="#333333" d="M18.637,18.619c0-0.313-0.099-0.559-0.296-0.735c-0.198-0.18-0.467-0.27-0.807-0.27
		c-0.239,0-0.481,0.063-0.728,0.184c-0.245,0.123-0.474,0.299-0.686,0.525V17.61c0.188-0.197,0.404-0.349,0.646-0.453
		C17.009,17.054,17.292,17,17.616,17c0.524,0,0.947,0.142,1.268,0.422c0.319,0.281,0.479,0.661,0.479,1.142
		c0,0.429-0.099,0.798-0.295,1.108c-0.194,0.313-0.53,0.634-1.006,0.962c-0.485,0.334-0.81,0.572-0.973,0.719
		c-0.164,0.146-0.278,0.283-0.343,0.416c-0.065,0.134-0.099,0.293-0.099,0.481h2.886v0.652h-3.649v-0.288
		c0-0.335,0.046-0.619,0.137-0.854c0.092-0.232,0.242-0.461,0.451-0.684c0.21-0.222,0.538-0.484,0.982-0.796
		c0.454-0.319,0.766-0.602,0.932-0.843C18.554,19.201,18.637,18.928,18.637,18.619z"/>
	<path fill="#333333" d="M20.282,20.114c0-1.023,0.168-1.801,0.511-2.325C21.133,17.265,21.625,17,22.27,17
		c1.229,0,1.846,0.992,1.846,2.977c0,0.979-0.176,1.729-0.521,2.247S22.765,23,22.14,23c-0.591,0-1.048-0.246-1.369-0.737
		C20.444,21.77,20.282,21.055,20.282,20.114z M21.03,20.08c0,1.541,0.392,2.313,1.175,2.313c0.77,0,1.153-0.782,1.153-2.351
		c0-1.622-0.377-2.433-1.134-2.433C21.432,17.61,21.03,18.435,21.03,20.08z"/>
</g>
<path fill="#333333" d="M32.902,15.977H28.09v-4.634l-4.051-3.097l-3.957,3.097H19.86l-4.013-3.097l-3.995,3.097v4.636H7.094
	L4,19.854l3.095,4.234h4.756v4.568l4.087,3.098l3.922-3.098h0.222l4.183,3.098l3.823-3.098v-4.568h4.814L36,20.125L32.902,15.977z
	 M32.414,23.087h-5.328v5.093l-2.851,2.309l-3.825-2.832h-0.898l-3.588,2.832l-3.074-2.328v-5.072H7.603L5.257,19.88l2.318-2.9
	h5.276v-5.147l2.996-2.321l3.672,2.832h0.906l3.62-2.832l3.043,2.325v5.141H32.4l2.34,3.134L32.414,23.087z"/>
</svg>
