<svg xmlns="http://www.w3.org/2000/svg" xmlns:xlink="http://www.w3.org/1999/xlink" version="1.1" x="0px" y="0px" viewBox="0 0 40 40" width="20" height="20" enable-background="new 0 0 40 40" xml:space="preserve">







<g id="图层_11">
	
	
	
	
	<g>
		<path d="M16.5,31.2c-6,0-9.8-4.4-9.8-11.2c0-5.6,3-11.2,9.8-11.2c4.1,0,7.2,2.1,8.8,5.8l0.9-0.4c-1.7-4.1-5.3-6.4-9.7-6.4    C10.1,7.8,5.7,12.7,5.7,20c0,7.3,4.3,12.2,10.8,12.2c5,0,8.7-2.8,10.2-7.7l-1-0.3C24.4,28.7,21.1,31.2,16.5,31.2z"/>
		<rect x="33.3" y="8.3" width="1" height="23.4"/>
	</g>
</g>
</svg>