<svg id="图层_21" data-name="图层 21" xmlns="http://www.w3.org/2000/svg" viewBox="0 0 168.05 235.06" width="170" height ="238"> 
<title>玻璃仪器22</title><g fill="none" stroke="#000000" stroke-width="0.2073" stroke-linecap="round" stroke-miterlimit="1">
<path d="M517.53,78.08h0a.1.1,0,0,1,0-.14l.7-1.32a.1.1,0,0,1,.13,0,.1.1,0,0,1,0,.14l-.7,1.32A.1.1,0,0,1,517.53,78.08Z" transform="translate(-497.91 -29.18)"/>
<path d="M508.66,79.36a.1.1,0,0,1-.05-.19l1.44-.86a.1.1,0,0,1,.14,0,.1.1,0,0,1,0,.14l-1.44.86Z" transform="translate(-497.91 -29.18)"/>
<path d="M506.88,79a.1.1,0,0,1-.08,0l-.89-1.25a.1.1,0,0,1,0-.14.1.1,0,0,1,.14,0l.89,1.25a.1.1,0,0,1,0,.14Z" transform="translate(-497.91 -29.18)"/>
<path d="M526.44,78.15a.1.1,0,0,1,0-.19l1.48-.71a.1.1,0,1,1,.09.18l-1.48.71Z" transform="translate(-497.91 -29.18)"/>
<path d="M518.67,80.09a.1.1,0,0,1-.07,0L517.53,79a.1.1,0,0,1,.14-.14l1.07,1.11a.1.1,0,0,1,0,.14A.1.1,0,0,1,518.67,80.09Z" transform="translate(-497.91 -29.18)"/>
<path d="M535.45,78.72a.1.1,0,0,1-.08,0l-.89-1.25a.1.1,0,0,1,0-.14.1.1,0,0,1,.14,0l.89,1.25a.1.1,0,0,1,0,.14Z" transform="translate(-497.91 -29.18)"/>
<path d="M504.81,69.3a.1.1,0,0,1-.09-.06l-.67-1.64a.1.1,0,0,1,.19-.08l.67,1.64a.1.1,0,0,1-.06.13Z" transform="translate(-497.91 -29.18)"/>
<path d="M503.22,59.85a.1.1,0,0,1-.05-.19l1.29-.78a.1.1,0,1,1,.1.17l-1.29.78Z" transform="translate(-497.91 -29.18)"/>
<path d="M520.78,51.08a.1.1,0,0,1-.08,0,.1.1,0,0,1,0-.14l1.33-.86a.1.1,0,1,1,.11.17l-1.33.86Z" transform="translate(-497.91 -29.18)"/>
<path d="M512.69,51a.1.1,0,0,1-.08,0l-1.07-1.21a.1.1,0,0,1,0-.14.1.1,0,0,1,.14,0l1.07,1.21a.1.1,0,0,1,0,.14Z" transform="translate(-497.91 -29.18)"/>
<path d="M509.21,56.47a.1.1,0,0,1-.09-.06l-.63-1.5a.1.1,0,0,1,.05-.13.1.1,0,0,1,.13.05l.63,1.5a.1.1,0,0,1-.05.13Z" transform="translate(-497.91 -29.18)"/>
<path d="M508.29,67.56l-.06,0-1.48-1.14a.1.1,0,0,1,.12-.16l1.48,1.14a.1.1,0,0,1-.06.18Z" transform="translate(-497.91 -29.18)"/>
<path d="M506.33,60.75h0a.1.1,0,0,1-.05-.13l.74-1.75a.1.1,0,0,1,.13-.05.1.1,0,0,1,.05.13l-.74,1.75A.1.1,0,0,1,506.33,60.75Z" transform="translate(-497.91 -29.18)"/>
<path d="M506.88,51.76a.1.1,0,0,1-.08,0l-.89-1.25a.1.1,0,1,1,.16-.12L507,51.6a.1.1,0,0,1,0,.14Z" transform="translate(-497.91 -29.18)"/>
<path d="M533.35,75.69l-.06,0a.1.1,0,0,1,0-.14l1-1.5a.1.1,0,1,1,.16.11l-1,1.5A.1.1,0,0,1,533.35,75.69Z" transform="translate(-497.91 -29.18)"/>
<path d="M522.85,76.33a.1.1,0,0,1-.07,0,.1.1,0,0,1,0-.14l1-1.07a.1.1,0,0,1,.14.14l-1,1.07A.1.1,0,0,1,522.85,76.33Z" transform="translate(-497.91 -29.18)"/>
<path d="M512,71.09a.1.1,0,0,1-.07,0l-1.07-1.14a.1.1,0,0,1,.15-.14l1.07,1.14a.1.1,0,0,1-.07.17Z" transform="translate(-497.91 -29.18)"/>
<path d="M532.35,66.27a.1.1,0,0,1-.07,0,.1.1,0,0,1,0-.14l1.44-1.36a.1.1,0,1,1,.14.15l-1.44,1.36A.1.1,0,0,1,532.35,66.27Z" transform="translate(-497.91 -29.18)"/>
<path d="M532.13,57.61h0l-2-.61a.1.1,0,0,1,.06-.19l2,.61a.1.1,0,0,1,0,.2Z" transform="translate(-497.91 -29.18)"/>
<path d="M526.44,50.9a.1.1,0,0,1,0-.19l1.48-.71a.1.1,0,1,1,.09.18l-1.48.71Z" transform="translate(-497.91 -29.18)"/>
<path d="M518.38,53.58a.1.1,0,0,1-.07,0l-1.07-1.11a.1.1,0,1,1,.14-.14l1.07,1.11a.1.1,0,0,1,0,.14A.1.1,0,0,1,518.38,53.58Z" transform="translate(-497.91 -29.18)"/>
<path d="M515.35,54.75h0L513,54.15a.1.1,0,0,1,.05-.19l2.29.61a.1.1,0,0,1,0,.2Z" transform="translate(-497.91 -29.18)"/>
<path d="M514.76,57.14l-.06,0L513,55.95a.1.1,0,0,1,0-.14.1.1,0,0,1,.14,0L514.81,57a.1.1,0,0,1-.06.18Z" transform="translate(-497.91 -29.18)"/>
<path d="M524.81,56.25a.1.1,0,0,1-.09-.06l-.7-1.5a.1.1,0,0,1,.18-.08l.7,1.5a.1.1,0,0,1,0,.13Z" transform="translate(-497.91 -29.18)"/>
<path d="M530,55.54a.1.1,0,0,1-.08,0l-.89-1.25a.1.1,0,0,1,0-.14.1.1,0,0,1,.14,0l.89,1.25a.1.1,0,0,1,0,.14Z" transform="translate(-497.91 -29.18)"/>
<path d="M525.55,58.93l-.06,0-1.26-.86a.1.1,0,1,1,.11-.17l1.26.86a.1.1,0,0,1-.06.18Z" transform="translate(-497.91 -29.18)"/>
<path d="M528.14,67a.1.1,0,0,1-.07-.17l1.15-1.07a.1.1,0,0,1,.14.15l-1.15,1.07A.1.1,0,0,1,528.14,67Z" transform="translate(-497.91 -29.18)"/>
<path d="M531.31,73.3l-.06,0-1.44-1a.1.1,0,0,1,0-.14.1.1,0,0,1,.14,0l1.44,1a.1.1,0,0,1-.06.18Z" transform="translate(-497.91 -29.18)"/>
<path d="M525.92,74h0l-1.4-.78a.1.1,0,0,1,.1-.17l1.4.78a.1.1,0,0,1,0,.14A.1.1,0,0,1,525.92,74Z" transform="translate(-497.91 -29.18)"/>
<path d="M527.77,61.6a.1.1,0,0,1-.1-.1V59.75a.1.1,0,1,1,.2,0V61.5A.1.1,0,0,1,527.77,61.6Z" transform="translate(-497.91 -29.18)"/>
<path d="M518.64,60.6l-.06,0a.1.1,0,0,1,0-.14l1.07-1.28a.1.1,0,0,1,.15.13l-1.07,1.28A.1.1,0,0,1,518.64,60.6Z" transform="translate(-497.91 -29.18)"/>
<path d="M510.32,64.42a.1.1,0,0,1-.1-.1v-1.6a.1.1,0,1,1,.2,0v1.6A.1.1,0,0,1,510.32,64.42Z" transform="translate(-497.91 -29.18)"/>
<path d="M517.49,63.81l-.06,0-1.33-1a.1.1,0,1,1,.12-.16l1.33,1a.1.1,0,0,1-.06.18Z" transform="translate(-497.91 -29.18)"/>
<path d="M523.92,63.56l-.05,0-1.26-.82a.1.1,0,0,1,0-.14.1.1,0,0,1,.14,0l1.26.82a.1.1,0,0,1-.05.18Z" transform="translate(-497.91 -29.18)"/>
<path d="M524.7,70.59a.1.1,0,0,1-.1-.1V69a.1.1,0,1,1,.2,0v1.53A.1.1,0,0,1,524.7,70.59Z" transform="translate(-497.91 -29.18)"/>
<path d="M522.07,68.59a.1.1,0,0,1-.08,0l-.81-1.14a.1.1,0,1,1,.16-.12l.81,1.14a.1.1,0,0,1,0,.14Z" transform="translate(-497.91 -29.18)"/>
<path d="M513.94,67.41a.1.1,0,0,1-.09-.05l-.67-1.21a.1.1,0,1,1,.18-.1l.67,1.21a.1.1,0,0,1,0,.14Z" transform="translate(-497.91 -29.18)"/>
<path d="M515.68,71.23l-.05,0a.1.1,0,0,1,0-.14l.7-1.11a.1.1,0,1,1,.17.11l-.7,1.11A.1.1,0,0,1,515.68,71.23Z" transform="translate(-497.91 -29.18)"/>
<path d="M519.78,70.55h-1.33a.1.1,0,0,1,0-.2h1.33a.1.1,0,0,1,0,.2Z" transform="translate(-497.91 -29.18)"/>
<path d="M516.57,47.87a.1.1,0,0,1-.09-.06l-.7-1.6a.1.1,0,0,1,.18-.08l.7,1.6a.1.1,0,0,1-.05.13Z" transform="translate(-497.91 -29.18)"/>
<path d="M538,56.47a.1.1,0,0,1-.09-.06l-.63-1.5a.1.1,0,0,1,.05-.13.1.1,0,0,1,.13.05l.63,1.5a.1.1,0,0,1-.05.13Z" transform="translate(-497.91 -29.18)"/>
<path d="M538,64.74h-1.63a.1.1,0,0,1,0-.2H538a.1.1,0,0,1,0,.2Z" transform="translate(-497.91 -29.18)"/>
<path d="M536,63.81h0L534.48,63a.1.1,0,0,1,.1-.17l1.44.82a.1.1,0,0,1,0,.19Z" transform="translate(-497.91 -29.18)"/>
<path d="M535.71,51.76a.1.1,0,0,1-.08,0l-.89-1.25a.1.1,0,1,1,.16-.12l.89,1.25a.1.1,0,0,1,0,.14Z" transform="translate(-497.91 -29.18)"/>
<path d="M502.52,49.37a.1.1,0,0,1-.06-.18l.92-.75a.1.1,0,1,1,.13.16l-.92.75Z" transform="translate(-497.91 -29.18)"/>
<path d="M503.67,38.74a.1.1,0,0,1-.07,0,.1.1,0,0,1,0-.14L505,37.22a.1.1,0,1,1,.14.15l-1.44,1.35A.1.1,0,0,1,503.67,38.74Z" transform="translate(-497.91 -29.18)"/>
<path d="M505.07,34.82a.1.1,0,0,1-.08,0l-1-1.28a.1.1,0,0,1,0-.14.1.1,0,0,1,.14,0l1,1.28a.1.1,0,0,1,0,.14Z" transform="translate(-497.91 -29.18)"/>
<path d="M503.89,42.56H502.3a.1.1,0,0,1,0-.2h1.59a.1.1,0,0,1,0,.2Z" transform="translate(-497.91 -29.18)"/>
<path d="M508.29,40l-.06,0-1.48-1.14a.1.1,0,0,1,0-.14.1.1,0,0,1,.14,0l1.48,1.14a.1.1,0,0,1-.06.18Z" transform="translate(-497.91 -29.18)"/>
<path d="M506.33,33.22h0a.1.1,0,0,1-.05-.13l.74-1.75a.1.1,0,0,1,.13-.05.1.1,0,0,1,.05.13l-.74,1.75A.1.1,0,0,1,506.33,33.22Z" transform="translate(-497.91 -29.18)"/>
<path d="M533.35,48.16l-.06,0a.1.1,0,0,1,0-.14l1-1.5a.1.1,0,1,1,.16.11l-1,1.5A.1.1,0,0,1,533.35,48.16Z" transform="translate(-497.91 -29.18)"/>
<path d="M522.85,48.8a.1.1,0,0,1-.07,0,.1.1,0,0,1,0-.14l1-1.07a.1.1,0,0,1,.14.14l-1,1.07A.1.1,0,0,1,522.85,48.8Z" transform="translate(-497.91 -29.18)"/>
<path d="M512,43.56a.1.1,0,0,1-.07,0l-1.07-1.14a.1.1,0,0,1,.15-.14l1.07,1.14a.1.1,0,0,1-.07.17Z" transform="translate(-497.91 -29.18)"/>
<path d="M532.35,38.74a.1.1,0,0,1-.07,0,.1.1,0,0,1,0-.14l1.44-1.35a.1.1,0,1,1,.14.15l-1.44,1.35A.1.1,0,0,1,532.35,38.74Z" transform="translate(-497.91 -29.18)"/>
<path d="M515.83,31.43l-.06,0-1.11-.89a.1.1,0,1,1,.13-.16l1.11.89a.1.1,0,0,1,0,.14A.1.1,0,0,1,515.83,31.43Z" transform="translate(-497.91 -29.18)"/>
<path d="M532.13,36.39H530.5a.1.1,0,0,1,0-.2h1.63a.1.1,0,0,1,0,.2Z" transform="translate(-497.91 -29.18)"/>
<path d="M532.57,42.56H531a.1.1,0,0,1,0-.2h1.59a.1.1,0,0,1,0,.2Z" transform="translate(-497.91 -29.18)"/>
<path d="M526.84,44.48h-1.55a.1.1,0,0,1,0-.2h1.55a.1.1,0,0,1,0,.2Z" transform="translate(-497.91 -29.18)"/>
<path d="M526.29,37a.1.1,0,0,1,0-.19l2-1a.1.1,0,0,1,.13,0,.1.1,0,0,1,0,.13l-2,1Z" transform="translate(-497.91 -29.18)"/>
<path d="M522.07,31.08h-1.37a.1.1,0,0,1,0-.2h1.37a.1.1,0,0,1,0,.2Z" transform="translate(-497.91 -29.18)"/>
<path d="M510.32,36.89a.1.1,0,0,1-.1-.1v-1.6a.1.1,0,1,1,.2,0v1.6A.1.1,0,0,1,510.32,36.89Z" transform="translate(-497.91 -29.18)"/>
<path d="M517.49,36.28l-.06,0-1.33-1a.1.1,0,1,1,.12-.16l1.33,1a.1.1,0,0,1-.06.18Z" transform="translate(-497.91 -29.18)"/>
<path d="M522.89,38.74l-.06,0a.1.1,0,0,1,0-.14l1-1.25a.1.1,0,0,1,.14,0,.1.1,0,0,1,0,.14l-1,1.25A.1.1,0,0,1,522.89,38.74Z" transform="translate(-497.91 -29.18)"/>
<path d="M521.33,46a.1.1,0,0,1,0-.19l1.29-.64a.1.1,0,1,1,.09.18l-1.29.64Z" transform="translate(-497.91 -29.18)"/>
<path d="M519.56,37.89l-.06,0a.1.1,0,0,1,0-.14l.92-1.18a.1.1,0,0,1,.14,0,.1.1,0,0,1,0,.14l-.92,1.18A.1.1,0,0,1,519.56,37.89Z" transform="translate(-497.91 -29.18)"/>
<path d="M510.73,40.6a.1.1,0,0,1-.1-.1V39a.1.1,0,1,1,.2,0v1.5A.1.1,0,0,1,510.73,40.6Z" transform="translate(-497.91 -29.18)"/>
<path d="M513.65,45.27a.1.1,0,0,1,0-.19l1.33-.75a.1.1,0,0,1,.1.17l-1.33.75Z" transform="translate(-497.91 -29.18)"/>
<path d="M518.71,45.63l-.05,0-1.41-.93a.1.1,0,0,1,0-.14.1.1,0,0,1,.14,0l1.41.93a.1.1,0,0,1-.05.18Z" transform="translate(-497.91 -29.18)"/>
<path d="M537.12,40l-.06,0-1.48-1.14a.1.1,0,0,1,0-.14.1.1,0,0,1,.14,0l1.48,1.14a.1.1,0,0,1-.06.18Z" transform="translate(-497.91 -29.18)"/>
<path d="M534.8,33.75h0a.1.1,0,0,1-.05-.13l.74-1.75a.1.1,0,0,1,.13-.05.1.1,0,0,1,.05.13l-.74,1.75A.1.1,0,0,1,534.8,33.75Z" transform="translate(-497.91 -29.18)"/>
<path d="M539.21,36h0a.1.1,0,0,1,0-.14l.75-1.43a.1.1,0,0,1,.14,0,.1.1,0,0,1,0,.14l-.75,1.43A.1.1,0,0,1,539.21,36Z" transform="translate(-497.91 -29.18)"/>
<path d="M507.54,248.33a.1.1,0,0,1-.05-.19l1.29-.78a.1.1,0,0,1,.14,0,.1.1,0,0,1,0,.14l-1.29.78Z" transform="translate(-497.91 -29.18)"/>
<path d="M524.48,239.68a.1.1,0,0,1-.08,0,.1.1,0,0,1,0-.14l1.33-.86a.1.1,0,0,1,.14,0,.1.1,0,0,1,0,.14l-1.33.86Z" transform="translate(-497.91 -29.18)"/>
<path d="M516.38,239.64a.1.1,0,0,1-.08,0l-1.07-1.21a.1.1,0,0,1,.15-.13l1.07,1.21a.1.1,0,0,1,0,.14Z" transform="translate(-497.91 -29.18)"/>
<path d="M512.91,245.06a.1.1,0,0,1-.09-.06l-.63-1.5a.1.1,0,0,1,.05-.13.1.1,0,0,1,.13.05l.63,1.5a.1.1,0,0,1-.05.13Z" transform="translate(-497.91 -29.18)"/>
<path d="M510,258.11a.1.1,0,0,1-.06-.18l1.55-1.28a.1.1,0,0,1,.14,0,.1.1,0,0,1,0,.14l-1.55,1.28Z" transform="translate(-497.91 -29.18)"/>
<path d="M509.58,246.59a.1.1,0,0,1-.1-.1V245a.1.1,0,1,1,.2,0v1.5A.1.1,0,0,1,509.58,246.59Z" transform="translate(-497.91 -29.18)"/>
<path d="M510.58,240.35a.1.1,0,0,1-.08,0l-.89-1.25a.1.1,0,0,1,0-.14.1.1,0,0,1,.14,0l.89,1.25a.1.1,0,0,1,0,.14Z" transform="translate(-497.91 -29.18)"/>
<path d="M515.72,259.68a.1.1,0,0,1-.07,0l-1.07-1.14a.1.1,0,0,1,.15-.14l1.07,1.14a.1.1,0,0,1-.07.17Z" transform="translate(-497.91 -29.18)"/>
<path d="M522.07,242.17a.1.1,0,0,1-.07,0l-1.07-1.1a.1.1,0,0,1,0-.14.1.1,0,0,1,.14,0l1.07,1.1a.1.1,0,0,1,0,.14A.1.1,0,0,1,522.07,242.17Z" transform="translate(-497.91 -29.18)"/>
<path d="M519,243.35h0l-2.29-.61a.1.1,0,1,1,.05-.19l2.29.61a.1.1,0,0,1,0,.2Z" transform="translate(-497.91 -29.18)"/>
<path d="M518.45,245.74l-.06,0-1.66-1.18a.1.1,0,1,1,.12-.16l1.66,1.18a.1.1,0,0,1-.06.18Z" transform="translate(-497.91 -29.18)"/>
<path d="M528.5,244.85a.1.1,0,0,1-.09-.06l-.7-1.5a.1.1,0,0,1,.18-.08l.7,1.5a.1.1,0,0,1,0,.13Z" transform="translate(-497.91 -29.18)"/>
<path d="M533.72,244.13a.1.1,0,0,1-.08,0l-.89-1.25a.1.1,0,1,1,.16-.12l.89,1.25a.1.1,0,0,1,0,.14Z" transform="translate(-497.91 -29.18)"/>
<path d="M525.81,246a.1.1,0,0,1-.08,0l-1-1.11a.1.1,0,1,1,.15-.13l1,1.11a.1.1,0,0,1,0,.14Z" transform="translate(-497.91 -29.18)"/>
<path d="M533.09,249.91H533a.1.1,0,0,1,0-.14l.89-1.46a.1.1,0,0,1,.14,0,.1.1,0,0,1,0,.14l-.89,1.46A.1.1,0,0,1,533.09,249.91Z" transform="translate(-497.91 -29.18)"/>
<path d="M532.28,258.79h0l-1.37-.78a.1.1,0,1,1,.1-.17l1.37.78a.1.1,0,0,1,0,.19Z" transform="translate(-497.91 -29.18)"/>
<path d="M528.25,250.27l-.06,0a.1.1,0,0,1,0-.14l1.11-1.5a.1.1,0,1,1,.16.12l-1.11,1.5A.1.1,0,0,1,528.25,250.27Z" transform="translate(-497.91 -29.18)"/>
<path d="M519.41,249.84a.1.1,0,0,1-.08,0l-1-1.14a.1.1,0,1,1,.15-.13l1,1.14a.1.1,0,0,1,0,.14Z" transform="translate(-497.91 -29.18)"/>
<path d="M514.5,253.41a.1.1,0,0,1,0-.2l2-.61a.1.1,0,1,1,.06.19l-2,.61Z" transform="translate(-497.91 -29.18)"/>
<path d="M522.89,251.52l-.07,0a.1.1,0,0,1,0-.14l1.11-1.21a.1.1,0,0,1,.14,0,.1.1,0,0,1,0,.14L523,251.48A.1.1,0,0,1,522.89,251.52Z" transform="translate(-497.91 -29.18)"/>
<path d="M526.58,254.87l-.06,0a.1.1,0,0,1,0-.14l1-1.25a.1.1,0,0,1,.16.12l-1,1.25A.1.1,0,0,1,526.58,254.87Z" transform="translate(-497.91 -29.18)"/>
<path d="M525,262.14a.1.1,0,0,1,0-.19l1.29-.64a.1.1,0,1,1,.09.18l-1.29.64Z" transform="translate(-497.91 -29.18)"/>
<path d="M523.26,254l-.06,0a.1.1,0,0,1,0-.14l.92-1.18a.1.1,0,0,1,.14,0,.1.1,0,0,1,0,.14l-.92,1.18A.1.1,0,0,1,523.26,254Z" transform="translate(-497.91 -29.18)"/>
<path d="M514.42,256.72a.1.1,0,0,1-.1-.1v-1.5a.1.1,0,1,1,.2,0v1.5A.1.1,0,0,1,514.42,256.72Z" transform="translate(-497.91 -29.18)"/>
<path d="M517.34,261.39a.1.1,0,0,1,0-.19l1.33-.75a.1.1,0,0,1,.1.17l-1.33.75Z" transform="translate(-497.91 -29.18)"/>
<path d="M522.41,261.75l-.05,0-1.4-.93a.1.1,0,0,1,0-.14.1.1,0,0,1,.14,0l1.4.93a.1.1,0,0,1-.05.18Z" transform="translate(-497.91 -29.18)"/>
<path d="M508.21,236.75l-.06,0a.1.1,0,0,1,0-.14l1-1.5a.1.1,0,0,1,.14,0,.1.1,0,0,1,0,.14l-1,1.5A.1.1,0,0,1,508.21,236.75Z" transform="translate(-497.91 -29.18)"/>
<path d="M508.36,230.37a.1.1,0,0,1-.09-.06l-.67-1.64a.1.1,0,0,1,.19-.08l.67,1.64a.1.1,0,0,1-.06.13Z" transform="translate(-497.91 -29.18)"/>
<path d="M506.77,220.92a.1.1,0,0,1-.05-.19l1.29-.78a.1.1,0,1,1,.1.17l-1.29.78Z" transform="translate(-497.91 -29.18)"/>
<path d="M504.67,222.38h-.05a.1.1,0,0,1,0-.14l.89-1.46a.1.1,0,0,1,.14,0,.1.1,0,0,1,0,.14l-.89,1.46A.1.1,0,0,1,504.67,222.38Z" transform="translate(-497.91 -29.18)"/>
<path d="M507.44,231.15h-1.59a.1.1,0,0,1,0-.2h1.59a.1.1,0,0,1,0,.2Z" transform="translate(-497.91 -29.18)"/>
<path d="M512,228.62l-.06,0-1.48-1.14a.1.1,0,0,1,0-.14.1.1,0,0,1,.14,0l1.48,1.14a.1.1,0,0,1-.06.18Z" transform="translate(-497.91 -29.18)"/>
<path d="M510,221.81h0a.1.1,0,0,1-.05-.13l.74-1.75a.1.1,0,0,1,.13-.05.1.1,0,0,1,.05.13l-.74,1.75A.1.1,0,0,1,510,221.81Z" transform="translate(-497.91 -29.18)"/>
<path d="M513.65,236.47a.1.1,0,0,1-.07,0l-1.26-1.21a.1.1,0,1,1,.14-.14l1.26,1.21a.1.1,0,0,1-.07.17Z" transform="translate(-497.91 -29.18)"/>
<path d="M523.29,236.82a.1.1,0,0,1-.06-.18l1.29-1a.1.1,0,0,1,.12.16l-1.29,1Z" transform="translate(-497.91 -29.18)"/>
<path d="M535,221a.1.1,0,0,1-.05-.19l1.29-.78a.1.1,0,1,1,.1.17l-1.29.78Z" transform="translate(-497.91 -29.18)"/>
<path d="M518.45,218.21l-.06,0L516.73,217a.1.1,0,0,1,0-.14.1.1,0,0,1,.14,0l1.66,1.18a.1.1,0,0,1-.06.18Z" transform="translate(-497.91 -29.18)"/>
<path d="M535.61,216.95a.1.1,0,0,1-.08,0l-.89-1.25a.1.1,0,1,1,.16-.12l.89,1.25a.1.1,0,0,1,0,.14Z" transform="translate(-497.91 -29.18)"/>
<path d="M529.24,220l-.06,0-1.26-.86A.1.1,0,1,1,528,219l1.26.86a.1.1,0,0,1-.06.18Z" transform="translate(-497.91 -29.18)"/>
<path d="M531.83,228a.1.1,0,0,1-.07-.17l1.15-1.07a.1.1,0,1,1,.14.15L531.9,228A.1.1,0,0,1,531.83,228Z" transform="translate(-497.91 -29.18)"/>
<path d="M532.05,235.5l-.06,0a.1.1,0,0,1,0-.14l.85-1.28a.1.1,0,1,1,.17.11l-.85,1.28A.1.1,0,0,1,532.05,235.5Z" transform="translate(-497.91 -29.18)"/>
<path d="M532.28,231.26h0l-1.37-.78a.1.1,0,1,1,.1-.17l1.37.78a.1.1,0,0,1,0,.19Z" transform="translate(-497.91 -29.18)"/>
<path d="M528.25,222.74l-.06,0a.1.1,0,0,1,0-.14l1.11-1.5a.1.1,0,0,1,.14,0,.1.1,0,0,1,0,.14l-1.11,1.5A.1.1,0,0,1,528.25,222.74Z" transform="translate(-497.91 -29.18)"/>
<path d="M519.41,222.31a.1.1,0,0,1-.08,0l-1-1.14a.1.1,0,1,1,.15-.13l1,1.14a.1.1,0,0,1,0,.14Z" transform="translate(-497.91 -29.18)"/>
<path d="M514.5,225.88a.1.1,0,0,1,0-.2l2-.61a.1.1,0,0,1,.13.07.1.1,0,0,1-.07.13l-2,.61Z" transform="translate(-497.91 -29.18)"/>
<path d="M522.89,224l-.07,0a.1.1,0,0,1,0-.14l1.11-1.21a.1.1,0,0,1,.14,0,.1.1,0,0,1,0,.14L523,224A.1.1,0,0,1,522.89,224Z" transform="translate(-497.91 -29.18)"/>
<path d="M526.58,227.34l-.06,0a.1.1,0,0,1,0-.14l1-1.25a.1.1,0,0,1,.14,0,.1.1,0,0,1,0,.14l-1,1.25A.1.1,0,0,1,526.58,227.34Z" transform="translate(-497.91 -29.18)"/>
<path d="M525,234.61a.1.1,0,0,1,0-.19l1.29-.64a.1.1,0,0,1,.13,0,.1.1,0,0,1,0,.13l-1.29.64Z" transform="translate(-497.91 -29.18)"/>
<path d="M523.26,226.48l-.06,0a.1.1,0,0,1,0-.14l.92-1.18a.1.1,0,0,1,.16.12l-.92,1.18A.1.1,0,0,1,523.26,226.48Z" transform="translate(-497.91 -29.18)"/>
<path d="M514.42,229.19a.1.1,0,0,1-.1-.1v-1.5a.1.1,0,1,1,.2,0v1.5A.1.1,0,0,1,514.42,229.19Z" transform="translate(-497.91 -29.18)"/>
<path d="M517.34,233.86a.1.1,0,0,1,0-.19l1.33-.75a.1.1,0,1,1,.1.17l-1.33.75Z" transform="translate(-497.91 -29.18)"/>
<path d="M522.41,234.22l-.05,0-1.4-.93a.1.1,0,0,1,0-.14.1.1,0,0,1,.14,0l1.4.93a.1.1,0,0,1-.05.18Z" transform="translate(-497.91 -29.18)"/>
<path d="M640.53,78.08h0a.1.1,0,0,1,0-.14l.7-1.32a.1.1,0,0,1,.13,0,.1.1,0,0,1,0,.14l-.7,1.32A.1.1,0,0,1,640.53,78.08Z" transform="translate(-497.91 -29.18)"/>
<path d="M631.66,79.36a.1.1,0,0,1-.05-.19l1.44-.86a.1.1,0,0,1,.14,0,.1.1,0,0,1,0,.14l-1.44.86Z" transform="translate(-497.91 -29.18)"/>
<path d="M629.88,79a.1.1,0,0,1-.08,0l-.89-1.25a.1.1,0,0,1,0-.14.1.1,0,0,1,.14,0l.89,1.25a.1.1,0,0,1,0,.14Z" transform="translate(-497.91 -29.18)"/>
<path d="M649.44,78.15a.1.1,0,0,1,0-.19l1.48-.71a.1.1,0,1,1,.09.18l-1.48.71Z" transform="translate(-497.91 -29.18)"/>
<path d="M641.67,80.09a.1.1,0,0,1-.07,0L640.53,79a.1.1,0,0,1,.14-.14l1.07,1.11a.1.1,0,0,1,0,.14A.1.1,0,0,1,641.67,80.09Z" transform="translate(-497.91 -29.18)"/>
<path d="M658.45,78.72a.1.1,0,0,1-.08,0l-.89-1.25a.1.1,0,0,1,0-.14.1.1,0,0,1,.14,0l.89,1.25a.1.1,0,0,1,0,.14Z" transform="translate(-497.91 -29.18)"/>
<path d="M627.81,69.3a.1.1,0,0,1-.09-.06l-.67-1.64a.1.1,0,0,1,.06-.13.1.1,0,0,1,.13.06l.67,1.64a.1.1,0,0,1-.06.13Z" transform="translate(-497.91 -29.18)"/>
<path d="M626.22,59.85a.1.1,0,0,1-.05-.19l1.29-.78a.1.1,0,1,1,.1.17l-1.29.78Z" transform="translate(-497.91 -29.18)"/>
<path d="M643.78,51.08a.1.1,0,0,1-.08,0,.1.1,0,0,1,0-.14l1.33-.86a.1.1,0,0,1,.14,0,.1.1,0,0,1,0,.14l-1.33.86Z" transform="translate(-497.91 -29.18)"/>
<path d="M635.69,51a.1.1,0,0,1-.08,0l-1.07-1.21a.1.1,0,0,1,0-.14.1.1,0,0,1,.14,0l1.07,1.21a.1.1,0,0,1,0,.14Z" transform="translate(-497.91 -29.18)"/>
<path d="M632.21,56.47a.1.1,0,0,1-.09-.06l-.63-1.5a.1.1,0,0,1,.05-.13.1.1,0,0,1,.13.05l.63,1.5a.1.1,0,0,1-.05.13Z" transform="translate(-497.91 -29.18)"/>
<path d="M631.29,67.56l-.06,0-1.48-1.14a.1.1,0,0,1,.12-.16l1.48,1.14a.1.1,0,0,1-.06.18Z" transform="translate(-497.91 -29.18)"/>
<path d="M629.33,60.75h0a.1.1,0,0,1-.05-.13l.74-1.75a.1.1,0,0,1,.13-.05.1.1,0,0,1,.05.13l-.74,1.75A.1.1,0,0,1,629.33,60.75Z" transform="translate(-497.91 -29.18)"/>
<path d="M629.88,51.76a.1.1,0,0,1-.08,0l-.89-1.25a.1.1,0,1,1,.16-.12L630,51.6a.1.1,0,0,1,0,.14Z" transform="translate(-497.91 -29.18)"/>
<path d="M656.35,75.69l-.06,0a.1.1,0,0,1,0-.14l1-1.5a.1.1,0,1,1,.16.11l-1,1.5A.1.1,0,0,1,656.35,75.69Z" transform="translate(-497.91 -29.18)"/>
<path d="M645.85,76.33a.1.1,0,0,1-.07,0,.1.1,0,0,1,0-.14l1-1.07a.1.1,0,0,1,.14.14l-1,1.07A.1.1,0,0,1,645.85,76.33Z" transform="translate(-497.91 -29.18)"/>
<path d="M635,71.09a.1.1,0,0,1-.07,0l-1.07-1.14a.1.1,0,0,1,.15-.14l1.07,1.14a.1.1,0,0,1-.07.17Z" transform="translate(-497.91 -29.18)"/>
<path d="M655.35,66.27a.1.1,0,0,1-.07,0,.1.1,0,0,1,0-.14l1.44-1.36a.1.1,0,1,1,.14.15l-1.44,1.36A.1.1,0,0,1,655.35,66.27Z" transform="translate(-497.91 -29.18)"/>
<path d="M655.13,57.61h0l-2-.61a.1.1,0,0,1,.06-.19l2,.61a.1.1,0,0,1,0,.2Z" transform="translate(-497.91 -29.18)"/>
<path d="M649.44,50.9a.1.1,0,0,1,0-.19l1.48-.71a.1.1,0,0,1,.13,0,.1.1,0,0,1,0,.13l-1.48.71Z" transform="translate(-497.91 -29.18)"/>
<path d="M641.38,53.58a.1.1,0,0,1-.07,0l-1.07-1.11a.1.1,0,1,1,.14-.14l1.07,1.11a.1.1,0,0,1,0,.14A.1.1,0,0,1,641.38,53.58Z" transform="translate(-497.91 -29.18)"/>
<path d="M638.35,54.75h0L636,54.15a.1.1,0,0,1,.05-.19l2.29.61a.1.1,0,0,1,0,.2Z" transform="translate(-497.91 -29.18)"/>
<path d="M637.76,57.14l-.06,0L636,55.95a.1.1,0,0,1,0-.14.1.1,0,0,1,.14,0L637.81,57a.1.1,0,0,1-.06.18Z" transform="translate(-497.91 -29.18)"/>
<path d="M647.81,56.25a.1.1,0,0,1-.09-.06l-.7-1.5a.1.1,0,0,1,0-.13.1.1,0,0,1,.13,0l.7,1.5a.1.1,0,0,1,0,.13Z" transform="translate(-497.91 -29.18)"/>
<path d="M653,55.54a.1.1,0,0,1-.08,0l-.89-1.25a.1.1,0,0,1,0-.14.1.1,0,0,1,.14,0l.89,1.25a.1.1,0,0,1,0,.14Z" transform="translate(-497.91 -29.18)"/>
<path d="M648.55,58.93l-.06,0-1.26-.86a.1.1,0,1,1,.11-.17l1.26.86a.1.1,0,0,1-.06.18Z" transform="translate(-497.91 -29.18)"/>
<path d="M651.14,67a.1.1,0,0,1-.07-.17l1.15-1.07a.1.1,0,0,1,.14.15l-1.15,1.07A.1.1,0,0,1,651.14,67Z" transform="translate(-497.91 -29.18)"/>
<path d="M654.31,73.3l-.06,0-1.44-1a.1.1,0,0,1,0-.14.1.1,0,0,1,.14,0l1.44,1a.1.1,0,0,1-.06.18Z" transform="translate(-497.91 -29.18)"/>
<path d="M648.92,74h0l-1.4-.78a.1.1,0,0,1,.1-.17l1.4.78a.1.1,0,0,1,0,.14A.1.1,0,0,1,648.92,74Z" transform="translate(-497.91 -29.18)"/>
<path d="M650.77,61.6a.1.1,0,0,1-.1-.1V59.75a.1.1,0,1,1,.2,0V61.5A.1.1,0,0,1,650.77,61.6Z" transform="translate(-497.91 -29.18)"/>
<path d="M641.64,60.6l-.06,0a.1.1,0,0,1,0-.14l1.07-1.28a.1.1,0,0,1,.15.13l-1.07,1.28A.1.1,0,0,1,641.64,60.6Z" transform="translate(-497.91 -29.18)"/>
<path d="M633.32,64.42a.1.1,0,0,1-.1-.1v-1.6a.1.1,0,1,1,.2,0v1.6A.1.1,0,0,1,633.32,64.42Z" transform="translate(-497.91 -29.18)"/>
<path d="M640.49,63.81l-.06,0-1.33-1a.1.1,0,1,1,.12-.16l1.33,1a.1.1,0,0,1-.06.18Z" transform="translate(-497.91 -29.18)"/>
<path d="M646.92,63.56l-.05,0-1.26-.82a.1.1,0,0,1,0-.14.1.1,0,0,1,.14,0l1.26.82a.1.1,0,0,1-.05.18Z" transform="translate(-497.91 -29.18)"/>
<path d="M647.7,70.59a.1.1,0,0,1-.1-.1V69a.1.1,0,1,1,.2,0v1.53A.1.1,0,0,1,647.7,70.59Z" transform="translate(-497.91 -29.18)"/>
<path d="M645.07,68.59a.1.1,0,0,1-.08,0l-.81-1.14a.1.1,0,1,1,.16-.12l.81,1.14a.1.1,0,0,1,0,.14Z" transform="translate(-497.91 -29.18)"/>
<path d="M636.94,67.41a.1.1,0,0,1-.09-.05l-.67-1.21a.1.1,0,1,1,.18-.1l.67,1.21a.1.1,0,0,1,0,.14Z" transform="translate(-497.91 -29.18)"/>
<path d="M638.68,71.23l-.05,0a.1.1,0,0,1,0-.14l.7-1.11a.1.1,0,1,1,.17.11l-.7,1.11A.1.1,0,0,1,638.68,71.23Z" transform="translate(-497.91 -29.18)"/>
<path d="M642.78,70.55h-1.33a.1.1,0,0,1,0-.2h1.33a.1.1,0,0,1,0,.2Z" transform="translate(-497.91 -29.18)"/>
<path d="M639.57,47.87a.1.1,0,0,1-.09-.06l-.7-1.6a.1.1,0,0,1,.18-.08l.7,1.6a.1.1,0,0,1-.05.13Z" transform="translate(-497.91 -29.18)"/>
<path d="M661,56.47a.1.1,0,0,1-.09-.06l-.63-1.5a.1.1,0,0,1,.05-.13.1.1,0,0,1,.13.05l.63,1.5a.1.1,0,0,1-.05.13Z" transform="translate(-497.91 -29.18)"/>
<path d="M661,64.74h-1.63a.1.1,0,0,1,0-.2H661a.1.1,0,0,1,0,.2Z" transform="translate(-497.91 -29.18)"/>
<path d="M659,63.81h0L657.48,63a.1.1,0,0,1,.1-.17l1.44.82a.1.1,0,0,1,0,.19Z" transform="translate(-497.91 -29.18)"/>
<path d="M658.71,51.76a.1.1,0,0,1-.08,0l-.89-1.25a.1.1,0,1,1,.16-.12l.89,1.25a.1.1,0,0,1,0,.14Z" transform="translate(-497.91 -29.18)"/>
<path d="M625.52,49.37a.1.1,0,0,1-.06-.18l.92-.75a.1.1,0,1,1,.13.16l-.92.75Z" transform="translate(-497.91 -29.18)"/>
<path d="M626.67,38.74a.1.1,0,0,1-.07,0,.1.1,0,0,1,0-.14L628,37.22a.1.1,0,1,1,.14.15l-1.44,1.35A.1.1,0,0,1,626.67,38.74Z" transform="translate(-497.91 -29.18)"/>
<path d="M628.07,34.82a.1.1,0,0,1-.08,0l-1-1.28a.1.1,0,0,1,0-.14.1.1,0,0,1,.14,0l1,1.28a.1.1,0,0,1,0,.14Z" transform="translate(-497.91 -29.18)"/>
<path d="M626.89,42.56H625.3a.1.1,0,0,1,0-.2h1.59a.1.1,0,0,1,0,.2Z" transform="translate(-497.91 -29.18)"/>
<path d="M631.29,40l-.06,0-1.48-1.14a.1.1,0,0,1,0-.14.1.1,0,0,1,.14,0l1.48,1.14a.1.1,0,0,1-.06.18Z" transform="translate(-497.91 -29.18)"/>
<path d="M629.33,33.22h0a.1.1,0,0,1-.05-.13l.74-1.75a.1.1,0,0,1,.13-.05.1.1,0,0,1,.05.13l-.74,1.75A.1.1,0,0,1,629.33,33.22Z" transform="translate(-497.91 -29.18)"/>
<path d="M656.35,48.16l-.06,0a.1.1,0,0,1,0-.14l1-1.5a.1.1,0,1,1,.16.11l-1,1.5A.1.1,0,0,1,656.35,48.16Z" transform="translate(-497.91 -29.18)"/>
<path d="M645.85,48.8a.1.1,0,0,1-.07,0,.1.1,0,0,1,0-.14l1-1.07a.1.1,0,0,1,.14.14l-1,1.07A.1.1,0,0,1,645.85,48.8Z" transform="translate(-497.91 -29.18)"/>
<path d="M635,43.56a.1.1,0,0,1-.07,0l-1.07-1.14a.1.1,0,0,1,.15-.14l1.07,1.14a.1.1,0,0,1-.07.17Z" transform="translate(-497.91 -29.18)"/>
<path d="M655.35,38.74a.1.1,0,0,1-.07,0,.1.1,0,0,1,0-.14l1.44-1.35a.1.1,0,1,1,.14.15l-1.44,1.35A.1.1,0,0,1,655.35,38.74Z" transform="translate(-497.91 -29.18)"/>
<path d="M638.83,31.43l-.06,0-1.11-.89a.1.1,0,0,1,0-.14.1.1,0,0,1,.14,0l1.11.89a.1.1,0,0,1,0,.14A.1.1,0,0,1,638.83,31.43Z" transform="translate(-497.91 -29.18)"/>
<path d="M655.13,36.39H653.5a.1.1,0,0,1,0-.2h1.63a.1.1,0,0,1,0,.2Z" transform="translate(-497.91 -29.18)"/>
<path d="M655.57,42.56H654a.1.1,0,0,1,0-.2h1.59a.1.1,0,0,1,0,.2Z" transform="translate(-497.91 -29.18)"/>
<path d="M649.84,44.48h-1.55a.1.1,0,0,1,0-.2h1.55a.1.1,0,0,1,0,.2Z" transform="translate(-497.91 -29.18)"/>
<path d="M649.29,37a.1.1,0,0,1,0-.19l2-1a.1.1,0,0,1,.13,0,.1.1,0,0,1,0,.13l-2,1Z" transform="translate(-497.91 -29.18)"/>
<path d="M645.07,31.08h-1.37a.1.1,0,0,1,0-.2h1.37a.1.1,0,0,1,0,.2Z" transform="translate(-497.91 -29.18)"/>
<path d="M633.32,36.89a.1.1,0,0,1-.1-.1v-1.6a.1.1,0,1,1,.2,0v1.6A.1.1,0,0,1,633.32,36.89Z" transform="translate(-497.91 -29.18)"/>
<path d="M640.49,36.28l-.06,0-1.33-1a.1.1,0,1,1,.12-.16l1.33,1a.1.1,0,0,1-.06.18Z" transform="translate(-497.91 -29.18)"/>
<path d="M645.89,38.74l-.06,0a.1.1,0,0,1,0-.14l1-1.25a.1.1,0,0,1,.14,0,.1.1,0,0,1,0,.14l-1,1.25A.1.1,0,0,1,645.89,38.74Z" transform="translate(-497.91 -29.18)"/>
<path d="M644.33,46a.1.1,0,0,1,0-.19l1.29-.64a.1.1,0,1,1,.09.18l-1.29.64Z" transform="translate(-497.91 -29.18)"/>
<path d="M642.56,37.89l-.06,0a.1.1,0,0,1,0-.14l.92-1.18a.1.1,0,0,1,.14,0,.1.1,0,0,1,0,.14l-.92,1.18A.1.1,0,0,1,642.56,37.89Z" transform="translate(-497.91 -29.18)"/>
<path d="M633.73,40.6a.1.1,0,0,1-.1-.1V39a.1.1,0,1,1,.2,0v1.5A.1.1,0,0,1,633.73,40.6Z" transform="translate(-497.91 -29.18)"/>
<path d="M636.65,45.27a.1.1,0,0,1,0-.19l1.33-.75a.1.1,0,0,1,.1.17l-1.33.75Z" transform="translate(-497.91 -29.18)"/>
<path d="M641.71,45.63l-.05,0-1.41-.93a.1.1,0,0,1,0-.14.1.1,0,0,1,.14,0l1.41.93a.1.1,0,0,1-.05.18Z" transform="translate(-497.91 -29.18)"/>
<path d="M660.12,40l-.06,0-1.48-1.14a.1.1,0,0,1,0-.14.1.1,0,0,1,.14,0l1.48,1.14a.1.1,0,0,1-.06.18Z" transform="translate(-497.91 -29.18)"/>
<path d="M657.8,33.75h0a.1.1,0,0,1-.05-.13l.74-1.75a.1.1,0,0,1,.13-.05.1.1,0,0,1,.05.13l-.74,1.75A.1.1,0,0,1,657.8,33.75Z" transform="translate(-497.91 -29.18)"/>
<path d="M662.21,36h0a.1.1,0,0,1,0-.14l.75-1.43a.1.1,0,0,1,.14,0,.1.1,0,0,1,0,.14l-.75,1.43A.1.1,0,0,1,662.21,36Z" transform="translate(-497.91 -29.18)"/></g>

<path stroke="#000000" fill="#000000" stroke-width="0.5324" d="M663.26,38.18a.9.9,0,0,1,.31-.52c1-.6,2.39-1.43,2.39-2.76,0-4.52-14.62-5.71-22.37-5.71S621.2,30.38,621.2,34.9c0,1.33,1.25,2.19,2.36,2.79a1.78,1.78,0,0,1,.09.6l2.22,39c-2.13,2.19-3.13,6.53-3.13,7.48,0,4.29,2.15,6.84,3.89,8.71a4.38,4.38,0,0,1,1.47,3v17.28c-.53,10.67-15,14.12-15,14.12s-56.78,16.4-68.76,19.81c-6.15,1.75-9.1-1.8-10.14-4.3a12.32,12.32,0,0,1-.21-1.49V96.58c0-.91,1.24-1.88,2.33-3,1.8-1.86,4.51-4.42,4.51-8.72,0-.78-.89-5.13-3-7.38L540,38.39v-.11a.9.9,0,0,1,.31-.52c1-.6,2.39-1.43,2.39-2.76,0-4.52-14.62-5.71-22.37-5.71S497.91,30.48,497.91,35c0,1.33,1.25,2.19,2.36,2.79a1.78,1.78,0,0,1,.09.6l2.22,39c-2.13,2.19-3.13,6.53-3.13,7.48,0,4.29,2.15,6.84,3.89,8.71,1.09,1.17,1.64,2.1,1.64,3V212.19l-2.84,2.69,5.43,46.33c.17,2.73,9.28,3,13.21,3s13-.3,13-3l3.73-46.14L534,212.21v-25a4.46,4.46,0,0,1,.86-2.82,14.33,14.33,0,0,1,9.1-6.85s64.15-19,83.42-24.44,30.13-23.31,30.13-31.81c.24-4.16,0-24.14.17-25a7.14,7.14,0,0,1,1.94-2.77c1.8-1.86,4.51-4.42,4.51-8.72,0-.78-.89-5.13-3-7.38l2.15-39.08Zm-19.64-8a68.25,68.25,0,0,1,16.6,1.75c-.59,1.88-7.56,3.37-16.09,3.37-8.89,0-16.1-1.61-16.15-3.61A71.82,71.82,0,0,1,643.62,30.18Zm-123.29.1A68.25,68.25,0,0,1,536.93,32c-.59,1.88-7.56,3.37-16.09,3.37-8.89,0-16.1-1.61-16.15-3.61A71.82,71.82,0,0,1,520.33,30.29Zm-19.14,7.09-.14-.3-.29-.16c-1.25-.67-1.83-1.28-1.83-1.91,0-1.12,1.8-2.15,4.79-3,.51,3.43,10.91,4.36,17.13,4.36,6,0,16-.88,17.06-4.08,2.41.76,3.83,1.69,3.83,2.68,0,.77-1,1.39-1.83,1.89a2.13,2.13,0,0,0-.93,1.18c-3.95,1.62-10.69,2.69-18.69,2.69s-15-1.08-18.93-2.69A2.17,2.17,0,0,0,501.18,37.37Zm.18,1v0c4,1.62,10.78,2.67,18.79,2.67S535,39.91,539,38.29v.1L536.9,76.55c-2.13-1.94-10.66-2.68-16.71-2.68s-14.49.73-16.69,2.64ZM537,77.86c-1.23,1.55-8.22,2.74-16.67,2.74s-15.64-1.23-16.71-2.81l0-.74c1.14-1.57,8.16-2.78,16.69-2.78S536,75.5,537,77.09l0,.75Zm-4.21,183.28a.38.38,0,0,1-.14.33c-1.1,1.1-5.62,1.78-11.81,1.78-9.1,0-12.14-1.41-12.18-2.09l0-.19c1.94-.87,6.62-1.49,12.09-1.49s10.14.61,12.08,1.49Zm0-.58c-2.63-1.14-8.57-1.48-12.12-1.48s-9.51.35-12.14,1.49l-5.19-44.79c4.34,1.83,14.16,1.95,16.57,1.95s12.27-.12,16.6-2Zm.15-73.79c0,14.25,0,25.93,0,25.93l2.68,2.28c-2.81,1-8.76,1.75-15.85,1.75-7.27,0-13.55-.76-16.25-1.83l2.43-2.25V96.58c0-1.25-.69-2.38-1.91-3.7-1.58-1.7-3.68-4-3.68-8a14.7,14.7,0,0,1,2.5-6.34c2.7,3,15.76,3.07,17.4,3.07s14.46-.1,17.32-3a14.79,14.79,0,0,1,2.26,6.26c0,3.73-2.19,6-3.94,7.8l-.82.71c-1,1-2.13,2-2.13,3.21,0,38.73,0,34.2,0,45.39a5.74,5.74,0,0,0,.26,2,9.8,9.8,0,0,0,.64,1.39,7.87,7.87,0,0,0,7.21,3.84,13,13,0,0,0,3.53-.54c11.84-3.37,68.19-19.65,68.76-19.81s15.28-3.74,15.84-15c.25-5,0-17.57,0-17.57a5.67,5.67,0,0,0-1.84-3.46c-1.58-1.7-3.68-4-3.68-8a14.7,14.7,0,0,1,2.5-6.34c2.7,3,15.76,3.07,17.4,3.07s14.46-.1,17.32-3a14.79,14.79,0,0,1,2.26,6.26c0,3.73-2.19,6-3.94,7.8l-.82.71a6.86,6.86,0,0,0-1.8,3c-.05.07,0,22.34-.11,25,0,7.72-10.38,25.55-29.4,30.91-18.86,5.3-81.45,23.85-83.39,24.43-2.09.68-6.66,1.62-9.72,6.94a9.29,9.29,0,0,0-.8,1.66A8.77,8.77,0,0,0,532.95,186.76Zm127.31-109c-1.23,1.55-8.22,2.74-16.67,2.74s-15.64-1.23-16.71-2.81l0-.74c1.14-1.57,8.16-2.78,16.69-2.78S659.25,75.4,660.29,77l0,.75Zm2-39.47L660.2,76.45c-2.13-1.94-10.66-2.68-16.71-2.68s-14.49.73-16.69,2.64l-2.14-38.17v0c4,1.62,10.78,2.67,18.79,2.67s14.82-1.05,18.82-2.68Zm0-.4c-3.95,1.62-10.74,2.77-18.74,2.77s-15-1.08-18.93-2.69a2.17,2.17,0,0,0-.16-.7l-.14-.3-.29-.16c-1.25-.67-1.83-1.28-1.83-1.91,0-1.12,1.8-2.15,4.79-3,.51,3.43,10.91,4.36,17.13,4.36,6,0,16-.88,17.06-4.08C663.6,33,665,33.9,665,34.9c0,.77-1,1.39-1.83,1.89A1.89,1.89,0,0,0,662.31,37.89Z" transform="translate(-497.91 -29.18)"/>
</svg>