<?xml version="1.0" encoding="utf-8"?>
<!-- Generator: Adobe Illustrator 16.0.0, SVG Export Plug-In . SVG Version: 6.00 Build 0)  -->
<!DOCTYPE svg PUBLIC "-//W3C//DTD SVG 1.1//EN" "http://www.w3.org/Graphics/SVG/1.1/DTD/svg11.dtd">
<svg version="1.1" id="图层_1" xmlns="http://www.w3.org/2000/svg" xmlns:xlink="http://www.w3.org/1999/xlink" x="0px" y="0px"
	 width="100%" height="100%" viewBox="0 0 28 28" enable-background="new 0 0 28 28" xml:space="preserve">
<polygon fill-rule="evenodd" clip-rule="evenodd" fill="#333333" points="23.592,14.746 24.67,15.078 23.592,15.408 23.262,16.484 
	22.934,15.408 21.855,15.078 22.934,14.746 23.262,13.669 23.592,14.746 "/>
<polygon fill-rule="evenodd" clip-rule="evenodd" fill="#333333" points="21.4,8.283 23.557,8.943 21.4,9.602 20.74,11.756 
	20.082,9.602 17.928,8.941 20.082,8.282 20.742,6.126 21.4,8.283 "/>
<polygon fill-rule="evenodd" clip-rule="evenodd" fill="#333333" points="24.477,6.182 25.555,6.511 24.477,6.84 24.146,7.919 
	23.816,6.84 22.738,6.511 23.816,6.181 24.146,5.102 24.477,6.182 "/>
<polygon fill-rule="evenodd" clip-rule="evenodd" fill="#333333" points="18.664,4.458 19.744,4.79 18.664,5.119 18.338,6.195 
	18.006,5.119 16.928,4.79 18.006,4.458 18.338,3.381 18.664,4.458 "/>
<g>
	<circle fill-rule="evenodd" clip-rule="evenodd" fill="#333333" cx="7.696" cy="13.639" r="1"/>
	<circle fill-rule="evenodd" clip-rule="evenodd" fill="#333333" cx="15.196" cy="13.639" r="1"/>
</g>
<path fill-rule="evenodd" clip-rule="evenodd" fill="#333333" d="M14.57,17.806c0,0-1.399,3.125-3.125,3.125
	s-3.125-3.125-3.125-3.125H14.57z"/>
<path fill-rule="evenodd" clip-rule="evenodd" fill="#333333" d="M19.445,16.494v6.125c0,0.553-0.447,1-1,1h-14
	c-0.553,0-1-0.447-1-1v-14c0-0.552,0.447-1,1-1h12.218v-1H3.446c-0.553,0-1,0.448-1,1v16c0,0.553,0.447,1,1,1h16
	c0.553,0,1-0.447,1-1v-7.125H19.445z"/>
</svg>
