<?xml version="1.0" encoding="utf-8"?>
<!-- Generator: Adobe Illustrator 16.0.0, SVG Export Plug-In . SVG Version: 6.00 Build 0)  -->
<!DOCTYPE svg PUBLIC "-//W3C//DTD SVG 1.1//EN" "http://www.w3.org/Graphics/SVG/1.1/DTD/svg11.dtd">
<svg version="1.1" id="图层_1" xmlns="http://www.w3.org/2000/svg" xmlns:xlink="http://www.w3.org/1999/xlink" x="0px" y="0px"
	 width="40px" height="40px" viewBox="0 0 40 40" enable-background="new 0 0 40 40" xml:space="preserve">
<g>
	<rect x="6.5" y="10.5" fill="#4C4C4C" width="8" height="1"/>
	<rect x="25.5" y="10.5" fill="#4C4C4C" width="8" height="1"/>
	<rect x="16.5" y="7.5" fill="#4C4C4C" width="7" height="1"/>
	<polygon fill="#4C4C4C" points="10.5,32.5 10.5,12.5 11.5,12.5 11.5,31.5 28.5,31.5 28.5,12.5 29.5,12.5 29.5,32.5 	"/>
	<rect x="14.5" y="15.5" fill="#4C4C4C" width="1" height="12"/>
	<rect x="19.5" y="16.5" fill="#4C4C4C" width="1" height="10"/>
	<rect x="24.5" y="15.5" fill="#4C4C4C" width="1" height="12"/>
	<rect x="14.458" y="9.5" fill="#4C4C4C" width="1" height="1"/>
	<rect x="15.475" y="8.484" fill="#4C4C4C" width="1" height="1"/>
	<rect x="23.441" y="8.484" fill="#4C4C4C" width="1" height="1"/>
	<rect x="24.458" y="9.5" fill="#4C4C4C" width="1" height="1"/>
</g>
</svg>
