<svg id="Clipware3" xmlns="http://www.w3.org/2000/svg" viewBox="0 0 44.98537 209.41065" width="50" height="215">
    <title>Clipware3</title> <g transform="translate(-2.60773 -1.9956)" fill="#000000" stroke-width="0.2324">
    <path d="M43.679,146.64746c-1.56116,0-2.508,2.65234-3.06506,5.27905a5.38821,5.38821,0,0,0-.66541-.04565,5.86554,5.86554,0,0,0-4.07233,1.75964c-.72321.094-1.72278.07141-2.08783-.41-.248-.32617-.5127-1.20508.49609-3.43457l.04883-.10843c.06641-.1377.65625-1.11816,1.33887-2.252,4.95313-8.22852,8.251-13.95215,8.251-15.14355V40.56152c0-5.14209-4.60156-10.002-5.52344-10.92383a9.46505,9.46505,0,0,1-1.37891-2.7334l-.05609.019L38.08333,6.66357c-.00488-.09473.02441-.25049.084-.28857.4873-.312,1.15332-.73877,1.15332-1.41895,0-1.21234-1.9809-1.96014-4.429-2.4021a23.56543,23.56543,0,0,0-3.36792-.41882c-1.26562-.09863-2.4856-.13953-3.47943-.13953-.84338,0-1.85248.03137-2.91113.1004a22.90976,22.90976,0,0,0-4.5636.58173c-2.14856.45361-3.80164,1.17188-3.80164,2.27832,0,.69287.64941,1.14063,1.1748,1.4209a.8407.8407,0,0,1,.0625.34717l1.11909,20.20007-.05859-.0199a9.45428,9.45428,0,0,1-1.37939,2.7334A25.3904,25.3904,0,0,0,13.76691,34.916c-.8374,1.52637-2.66064,2.55908-4.59131,3.65234C6.097,40.312,2.60773,42.28807,2.60773,46.82518v116.751c0,8.8916,5.91309,15,16.6499,17.20215.20068.041.33789.06738.3833.08008.15039.06055.29492.10938.42773.15527.15869.05371.37549.127.40381.1416l.00244,3.4043a2.48006,2.48006,0,0,1-.84937,1.26428l-.95337.06091,2.57422,23.92188c0,1.44336,4.63574,1.59961,6.62891,1.59961s6.62891-.15625,6.627-1.55566L36.597,185.9668l.00488-.03809-.89551-.083c-.04535.014-.09662.02588-.14331.03949a2.58341,2.58341,0,0,1-.9104-1.31067l-.001-9.17316a6.11877,6.11877,0,0,0-2.48785-4.85321c.12622-.41962.25049-.82147.35992-1.16241l.03223-.12207-.01465-.11133a6.01228,6.01228,0,0,1,.00586-.84668A3.77108,3.77108,0,0,1,33.8058,166.263l.55823.03864a6.581,6.581,0,0,0,5.58453,3.75116,5.33587,5.33587,0,0,0,.62006-.0611c.603,2.96118,1.57111,5.58746,3.11041,5.58746,2.56934,0,3.91406-7.27734,3.91406-14.46582S46.24832,146.64746,43.679,146.64746ZM34.0345,160.9668a10.15961,10.15961,0,0,1,1.09869-4.67731l1.376-.09528a8.87649,8.87649,0,0,0-1.34283,4.77258,8.96754,8.96754,0,0,0,1.15649,4.46765l-1.34052-.09283A10.26687,10.26687,0,0,1,34.0345,160.9668Zm5.91406-8.08594a4.35861,4.35861,0,0,1,.46783.04974c-.0343.192-.06567.38043-.096.5672a5.27951,5.27951,0,0,0-2.98065,1.63617l-1.56329.10822A5.24793,5.24793,0,0,1,39.94856,152.88086Zm.21619,1.663c-.01312.09637-.0274.19641-.03943.28918a1.1933,1.1933,0,0,1-1.95312.85834,4.33436,4.33436,0,0,1,1.99255-1.14755ZM20.8188,3.639c.74536-.15765,1.62-.29883,2.62573-.40857,1.207-.11877,2.70721-.20215,4.53918-.20215,4.27148,0,6.8457.44043,7.71582.77295-.87012.332-3.44434.77246-7.71582.77246-4.27051,0-6.84424-.44043-7.71436-.77246A5.2415,5.2415,0,0,1,20.8188,3.639ZM17.7679,4.956c0-.23474.46045-.54767,1.33643-.85461.73889,1.3208,6.36365,1.47229,8.87939,1.47229,2.5387,0,8.24377-.15436,8.8988-1.50885.94574.31842,1.43811.64709,1.43811.89117,0,.04-.06738.17627-.69238.57666a1.13778,1.13778,0,0,0-.46558.618A29.418,29.418,0,0,1,28.04427,7.3168,29.72386,29.72386,0,0,1,18.925,6.15658a1.0148,1.0148,0,0,0-.45837-.6225c-.69092-.38174-.69873-.57021-.69873-.578Zm1.20557,1.43323A30.61228,30.61228,0,0,0,28.04427,7.517a30.3047,30.3047,0,0,0,9.058-1.13049,1.19019,1.19019,0,0,0-.017.28186L35.98213,26.60114c-1.49292-.69653-5.22815-.96735-7.93787-.96735-2.70917,0-6.44354.27075-7.937.967l-1.103-19.89813a2.37153,2.37153,0,0,0-.03081-.31338ZM35.95967,27.007l-.01013.18286c-.39551.36426-3.0791,1.02881-7.90527,1.02881-4.82324,0-7.50635-.66357-7.9043-1.02832l-.01019-.1839c.83813-.43378,3.5202-.97235,7.91449-.97235,4.39612,0,7.07849.539,7.91541.97295ZM20.39046,180.06641c-.11768-.04-.24463-.083-.37793-.13574a4.88183,4.88183,0,0,0-.55371-.13281c-10.22168-2.0957-15.85107-7.85645-15.85107-16.22168V46.8252c0-3.9541,3.08105-5.69922,6.061-7.38672,2.05713-1.16553,4.001-2.26611,4.9751-4.041a24.28328,24.28328,0,0,1,3.74951-5.05273,7.75967,7.75967,0,0,0,1.30878-2.29425c1.73792,1.09882,7.10059,1.16827,8.3421,1.16827,1.24249,0,6.613-.06946,8.3457-1.15472a7.73131,7.73131,0,0,0,1.30273,2.2807c.53516.53516,5.23047,5.36865,5.23047,10.2168V132.292c-.02441,1.19824-6.1084,11.30566-8.10742,14.627-1.06445,1.76855-1.34082,2.23242-1.39746,2.36621l-.04492.09863c-.93262,2.06055-1.06055,3.55859-.38086,4.45215a2.39483,2.39483,0,0,0,1.99.824q-.235.31945-.44531.668l-11.654.80646a3.6583,3.6583,0,0,0,1.71527-1.91174,1.80319,1.80319,0,0,0-.00342-1.37988c-.084-.16895-.16406-.31934-.2417-.46582-.13672-.25879-.2666-.50391-.40381-.82324-.05713-.13379-.36279-.64941-1.54395-2.627-2.27148-3.80273-9.18359-15.375-9.24219-16.63477l.01172-85.45508a2.57694,2.57694,0,1,0-5.15375-.03622q-.00009.01226-.00006.02451V163.6748c0,5.55566,3.87549,9.68945,10.9126,11.63867l.18213.05078c1.49561.44141,2.3374-.33008,2.51807-.91992a5.78449,5.78449,0,0,1,2.4541-3.21484,18.62649,18.62649,0,0,1,.73,3.124v12.23871a28.96,28.96,0,0,1-4.066-.50665,2.796,2.796,0,0,0,.72028-1.47522v-3.45508C21.47249,180.43359,20.847,180.22168,20.39046,180.06641ZM27.72,164.83875v-8.03625l.8291-.05737v8.151Zm-4.21729,3.47473a5.13332,5.13332,0,0,1,.01025.8125h.00049l-.02881.13086.041.12891c.084.26074.17578.55469.271.86621a6.67387,6.67387,0,0,0-3.11865,3.89941c-.05518.18066-.45605.49414-1.27979.25391l-.19727-.05566c-3.80176-1.05273-10.17969-3.84082-10.17969-10.6748V46.8252a1.577,1.577,0,0,1,3.15393-.021q.00011.01637-.00012.03272L12.16339,132.292c0,1.19336,3.751,7.71777,9.3833,17.14746.76123,1.27441,1.418,2.374,1.4834,2.50781.1499.34863.29053.61523.43945.89746.07422.13965.15039.2832.231.44531a.8749.8749,0,0,1-.04492.59961c-.00623.01764-.01678.04163-.025.06232a3.59534,3.59534,0,0,0-1.67719-.42853,4.63077,4.63077,0,0,0-3.89,2.7738,1.31138,1.31138,0,0,0-.426-.08435c-.72913,0-1.34863.63916-1.7558,1.6507a.991.991,0,0,0-.585-.20245c-1.0542,0-1.53418,1.59961-1.53418,3.08594s.48,3.08691,1.53418,3.08691a.99023.99023,0,0,0,.58539-.20178c.40723,1.01123,1.02649,1.65,1.75543,1.65a1.30356,1.30356,0,0,0,.42822-.08057,4.62909,4.62909,0,0,0,3.8877,2.77,3.55588,3.55588,0,0,0,1.36963-.2785A1.76716,1.76716,0,0,1,23.50276,168.31348Zm-2.93085-11.74573-1.59943.11078a3.59765,3.59765,0,0,1,2.981-2.15509,2.60051,2.60051,0,0,1,1.08148.27063,3.649,3.649,0,0,1-.997.65417A4.84456,4.84456,0,0,0,20.57191,156.56775Zm-5.03546,5.88013a2.352,2.352,0,0,1-.21875.389c-.15771-.06445-.55518-.78125-.55518-2.08984a3.23669,3.23669,0,0,1,.51318-2.08887.84588.84588,0,0,1,.26086.38751,9.27665,9.27665,0,0,0-.00012,3.40216Zm.84277-1.70081c0-2.15723.74512-3.53418,1.2583-3.53418l.00433.001a10.11865,10.11865,0,0,0,.00024,7.067l-.00458.00128C17.12433,164.28223,16.37923,162.90527,16.37923,160.74707Zm1.626,0a9.09384,9.09384,0,0,1,.504-3.03357l1.2951-.08972a6.10058,6.10058,0,0,0-.85132,3.12329,5.7245,5.7245,0,0,0,.979,3.27924l-1.36462-.09424a9.01492,9.01492,0,0,1-.56219-3.185Zm3.94824,6.22461a3.52,3.52,0,0,1-2.893-2.00275l1.77606.12268a8.40878,8.40878,0,0,0,1.092.8869,6.67363,6.67363,0,0,1,.82867.84656,2.53992,2.53992,0,0,1-.80376.14661Zm-.37927-2.55853a4.78022,4.78022,0,0,1-1.62122-3.66608,5.15315,5.15315,0,0,1,1.35529-3.50079l5.4118-.37457v7.89777Zm-1.79309,22.456a20.564,20.564,0,0,0,5.03711.71948v21.136a16.86143,16.86143,0,0,0-2.64294.39557ZM30.2318,204.93256a7.19978,7.19978,0,0,0-3.03564,1.51178,11.3128,11.3128,0,0,0-1.37793,1.22766V187.62909c.74377.02313,1.38794.02911,1.81885.02911.57642,0,1.5257-.00989,2.59473-.05859Zm-4.235,4.114c.09357-.00452.188-.0083.283-.01215a2.88349,2.88349,0,0,1-.355.119c.01625-.02951.05086-.07352.07191-.1069Zm1.14209-.43756c-.28192.00513-.55859.01355-.83148.02435a9.13741,9.13741,0,0,1,1.49377-1.39209,7.32,7.32,0,0,1,2.3418-1.28613,7.36788,7.36788,0,0,1-1.87207,1.90527,10.48386,10.48386,0,0,1-1.1321.74855Zm.73651,1.7973c-3.35645,0-5.26514-.4541-5.63965-.72461l-.01691-.15692a15.57429,15.57429,0,0,1,2.59943-.39929v.4859h.0647a.74444.74444,0,0,0,.10962.25.85779.85779,0,0,0,.72705.32031,5.82022,5.82022,0,0,0,2.66974-1.17523,23.97889,23.97889,0,0,1,5.14014.51031l-.01447.16492c-.37312.27046-2.2823.72456-5.63971.72456Zm5.68951-1.29334a23.00892,23.00892,0,0,0-4.63422-.49768c.51294-.39551,2.27582-1.83044,2.29907-2.87988h.00208v-.02673c-.00012-.01727.0011-.03479,0-.05182V187.543a17.808,17.808,0,0,0,4.2832-.68359Zm.08783-33.7467v9.24414l.002.03906a2.873,2.873,0,0,0,.77325,1.502,28.7269,28.7269,0,0,1-3.19611.38373V174.35352a16.113,16.113,0,0,1,.62421-2.75189,5.03556,5.03556,0,0,1,1.79657,3.76459Zm-2.10352-7.10742a8.78457,8.78457,0,0,0-.00879.91992,32.17021,32.17021,0,0,0-1.30859,5.1748v12.24066c-1.47467.07245-2.59473.064-2.59473.064-.64288.00757-1.24945.00018-1.81885-.01849V174.35352a32.14143,32.14143,0,0,0-1.30713-5.16992,6.76325,6.76325,0,0,0-.01025-.93164,4.745,4.745,0,0,0-1.60327-2.74432l9.62317.66632a3.75723,3.75723,0,0,0-.97163,2.08484Zm1.97058-3.01849-.03015-.03717-.03839.03247-3.902-.2702V156.6759l4.44666-.30774a11.54139,11.54139,0,0,0-.13672,8.89563Zm6.42883,3.81244a5.366,5.366,0,0,1-4.37714-2.66754l1.486.10291a5.4114,5.4114,0,0,0,3.22949,1.94263c.03094.19312.06421.386.098.5791a4.322,4.322,0,0,1-.43643.04286ZM37.97256,166.028a1.61079,1.61079,0,0,1,1.26807-.024,1.28136,1.28136,0,0,1,.8418,1.02051c.01538.11743.03278.23724.04913.35584a4.44456,4.44456,0,0,1-2.15907-1.35234Zm5.70654,8.55115c-.55371,0-1.81055-1.60547-2.60449-7.68457a2.28461,2.28461,0,0,0-1.46-1.81738,2.55125,2.55125,0,0,0-2.252.15771,7.90248,7.90248,0,0,1-1.19623-4.26807,7.81553,7.81553,0,0,1,1.35382-4.50653,2.28666,2.28666,0,0,0,2.18329.36591,2.31561,2.31561,0,0,0,1.41406-1.86426c.69434-5.36621,1.91211-7.31445,2.56152-7.31445,1.2168,0,2.91406,5.123,2.91406,13.46582S44.89583,174.5791,43.679,174.5791Z"
          />
    <path d="M23.45263,11.58751h0a.1.1,0,0,1,.1.1v1.6a.1.1,0,0,1-.1.1h0a.1.1,0,0,1-.1-.1v-1.6A.1.1,0,0,1,23.45263,11.58751Z"
          />
    <path d="M29.0851,14.10514h0a.1.1,0,0,1,.00327.14139l-1.105,1.15715a.1.1,0,0,1-.14139.00325h0a.1.1,0,0,1-.00327-.14139l1.105-1.15715A.1.1,0,0,1,29.0851,14.10514Z"
          />
    <path d="M27.6428,9.83h0a.1.1,0,0,1,.12832.05946l.55082,1.5022a.1.1,0,0,1-.05947.12831h0a.1.1,0,0,1-.12832-.05946l-.55082-1.5022A.1.1,0,0,1,27.6428,9.83Z"
          />
    <path d="M31.03731,11.52718h0a.1.1,0,0,1,.05566.13l-.59482,1.48533a.1.1,0,0,1-.13.05565h0a.1.1,0,0,1-.05566-.13l.59482-1.48533A.1.1,0,0,1,31.03731,11.52718Z"
          />
    <path d="M33.29395,14.08657h0a.1.1,0,0,1-.06513.12553l-1.52531.48314a.1.1,0,0,1-.12553-.06514h0a.1.1,0,0,1,.06513-.12553l1.52531-.48314A.1.1,0,0,1,33.29395,14.08657Z"
          />
    <path d="M24.20644,20.40325h0a.1.1,0,0,1-.06513.12553l-1.52531.48314a.1.1,0,0,1-.12553-.06514h0a.1.1,0,0,1,.06513-.12553l1.52531-.48314A.1.1,0,0,1,24.20644,20.40325Z"
          />
    <path d="M20.66222,14.777h0a.1.1,0,0,1,.05566.13l-.59482,1.48533a.1.1,0,0,1-.13.05565h0a.1.1,0,0,1-.05566-.13l.59482-1.48533A.1.1,0,0,1,20.66222,14.777Z"
          />
    <path d="M29.09846,6.60834h0a.1.1,0,0,1,.1.1v1.6a.1.1,0,0,1-.1.1h0a.1.1,0,0,1-.1-.1v-1.6A.1.1,0,0,1,29.09846,6.60834Z"
          />
    <path d="M32.5173,6.65446h0a.1.1,0,0,1,.14093.01178L33.6914,7.888a.1.1,0,0,1-.01179.14093h0a.1.1,0,0,1-.14093-.01178L32.50551,6.79539A.1.1,0,0,1,32.5173,6.65446Z"
          />
    <path d="M21.97794,8.43031v0a.1.1,0,0,1,.11134-.0872l1.5883.19316a.1.1,0,0,1,.08719.11135v0a.1.1,0,0,1-.11134.0872l-1.5883-.19316A.1.1,0,0,1,21.97794,8.43031Z"
          />
    <path d="M20.28506,10.69048h0a.1.1,0,0,1,.13959.02271l.93494,1.29842a.1.1,0,0,1-.02272.13959h0a.1.1,0,0,1-.13959-.02271l-.93494-1.29842A.1.1,0,0,1,20.28506,10.69048Z"
          />
    <path d="M29.183,24.00618h0a.1.1,0,0,1,.05566.13l-.59482,1.48533a.1.1,0,0,1-.13.05565h0a.1.1,0,0,1-.05566-.13l.59482-1.48533A.1.1,0,0,1,29.183,24.00618Z"
          />
    <path d="M21.02474,23.35526h0a.1.1,0,0,1,.01363.14077l-1.01709,1.23512a.1.1,0,0,1-.14077.01362h0a.1.1,0,0,1-.01363-.14077L20.884,23.36889A.1.1,0,0,1,21.02474,23.35526Z"
          />
    <path d="M21.45645,21.48657h0a.1.1,0,0,1-.06513.12553l-1.52531.48314a.1.1,0,0,1-.12553-.06514h0a.1.1,0,0,1,.06513-.12553l1.52531-.48314A.1.1,0,0,1,21.45645,21.48657Z"
          />
    <path d="M26.4173,21.48363h0a.1.1,0,0,1,.14093.01178l1.03317,1.22171a.1.1,0,0,1-.01179.14093h0a.1.1,0,0,1-.14093-.01178l-1.03317-1.22171A.1.1,0,0,1,26.4173,21.48363Z"
          />
    <path d="M32.29361,18.61465h0a.1.1,0,0,1,.00327.14139l-1.105,1.15715a.1.1,0,0,1-.14139.00325h0a.1.1,0,0,1-.00327-.14139l1.105-1.15715A.1.1,0,0,1,32.29361,18.61465Z"
          />
    <path d="M23.98,15.99969v0a.1.1,0,0,1,.11134-.0872l1.5883.19316a.1.1,0,0,1,.08719.11135v0a.1.1,0,0,1-.11134.0872l-1.5883-.19316A.1.1,0,0,1,23.98,15.99969Z"
          />
    <path d="M33.294,8.39906h0a.1.1,0,0,1-.06513.12553l-1.52531.48314a.1.1,0,0,1-.12553-.06514h0a.1.1,0,0,1,.06513-.12553l1.52531-.48314A.1.1,0,0,1,33.294,8.39906Z"
          />
    <path d="M25.57419,27.08662h0a.1.1,0,0,1,.00327.14139l-1.105,1.15715a.1.1,0,0,1-.14139.00326h0a.1.1,0,0,1-.00327-.14139l1.105-1.15715A.1.1,0,0,1,25.57419,27.08662Z"
          />
    <path d="M26.036,9.63855h0a.1.1,0,0,1,.03877.136l-.77793,1.39816a.1.1,0,0,1-.136.03876h0a.1.1,0,0,1-.03877-.136L25.9,9.67731A.1.1,0,0,1,26.036,9.63855Z"
          />
    <path d="M30.2553,28.35367h0a.1.1,0,0,1-.13913.02536l-1.31588-.9102a.1.1,0,0,1-.02535-.13913h0a.1.1,0,0,1,.13913-.02536l1.31588.9102A.1.1,0,0,1,30.2553,28.35367Z"
          />
    <path d="M22.97472,25.46451h0a.1.1,0,0,1,.05566.13l-.59482,1.48533a.1.1,0,0,1-.13.05565h0a.1.1,0,0,1-.05566-.13l.59482-1.48533A.1.1,0,0,1,22.97472,25.46451Z"
          />
    <path d="M32.06453,16.89208h0a.1.1,0,0,1-.11757.0786l-1.56932-.31181a.1.1,0,0,1-.07859-.11758h0a.1.1,0,0,1,.11757-.0786l1.56932.31181A.1.1,0,0,1,32.06453,16.89208Z"
          />
    <path d="M25.26513,23.71251h0a.1.1,0,0,1,.1.1v1.6a.1.1,0,0,1-.1.1h0a.1.1,0,0,1-.1-.1v-1.6A.1.1,0,0,1,25.26513,23.71251Z"
          />
    <path d="M19.45688,7.30105h0a.1.1,0,0,1,.03877.136l-.77793,1.39816a.1.1,0,0,1-.136.03876h0a.1.1,0,0,1-.03877-.136l.77793-1.39816A.1.1,0,0,1,19.45688,7.30105Z"
          />
    <path d="M22.5053,6.22855h0a.1.1,0,0,1-.05115.13185l-1.464.64559a.1.1,0,0,1-.13185-.05116h0a.1.1,0,0,1,.05115-.13185l1.464-.64559A.1.1,0,0,1,22.5053,6.22855Z"
          />
    <path d="M26.46094,7.5792h0a.1.1,0,0,1-.14074.01389l-1.237-1.01482a.1.1,0,0,1-.01388-.14074h0a.1.1,0,0,1,.14074-.01389l1.237,1.01482A.1.1,0,0,1,26.46094,7.5792Z"
          />
    <path d="M32.56908,22.82961h0a.1.1,0,0,1-.13428.04438l-1.42923-.71925a.1.1,0,0,1-.04437-.13428h0a.1.1,0,0,1,.13428-.04438l1.42923.71925A.1.1,0,0,1,32.56908,22.82961Z"
          />
    <path d="M22.86844,18.62453v0a.1.1,0,0,1-.09064.10856l-1.59358.14324a.1.1,0,0,1-.10855-.09065v0a.1.1,0,0,1,.09064-.10856l1.59358-.14324A.1.1,0,0,1,22.86844,18.62453Z"
          />
    <path d="M27.84031,18.27817h0a.1.1,0,0,1,.0913.108L27.798,19.98058a.1.1,0,0,1-.108.0913h0a.1.1,0,0,1-.0913-.108l.13364-1.59441A.1.1,0,0,1,27.84031,18.27817Z"
          />
    <path d="M26.16679,13.56869h0a.1.1,0,0,1-.0388.136l-1.39837.77754a.1.1,0,0,1-.136-.03881h0a.1.1,0,0,1,.0388-.136l1.39837-.77754A.1.1,0,0,1,26.16679,13.56869Z"
          />
    <path d="M33.69533,25.71385h0a.1.1,0,0,1-.06513.12553l-1.52531.48314a.1.1,0,0,1-.12553-.06514h0a.1.1,0,0,1,.06513-.12553l1.52531-.48314A.1.1,0,0,1,33.69533,25.71385Z"
          />
    <path d="M35.51907,17.95542h0a.1.1,0,0,1-.00054.14142l-1.13572,1.127a.1.1,0,0,1-.14142-.00055h0a.1.1,0,0,1,.00054-.14142l1.13572-1.127A.1.1,0,0,1,35.51907,17.95542Z"
          />
    <path d="M35.237,22.34645h0a.1.1,0,0,1,.05217.13145l-.63433,1.46889a.1.1,0,0,1-.13146.05216h0a.1.1,0,0,1-.05217-.13145l.63433-1.46889A.1.1,0,0,1,35.237,22.34645Z"
          />
    <path d="M34.96272,26.73665h0a.1.1,0,0,1,.01151.141l-1.03557,1.21967a.1.1,0,0,1-.141.0115h0a.1.1,0,0,1-.01151-.141l1.03557-1.21967A.1.1,0,0,1,34.96272,26.73665Z"
          />
    <path d="M34.29606,10.40331h0a.1.1,0,0,1,.01151.141L33.272,11.76393a.1.1,0,0,1-.141.0115h0a.1.1,0,0,1-.01151-.141l1.03557-1.21967A.1.1,0,0,1,34.29606,10.40331Z"
          />
    <path d="M37.00427,12.97056h0a.1.1,0,0,1-.121.07329l-1.5539-.38134a.1.1,0,0,1-.07328-.121h0a.1.1,0,0,1,.121-.07329l1.5539.38134A.1.1,0,0,1,37.00427,12.97056Z"
          />
    <path d="M37.601,6.37686h0a.1.1,0,0,1-.14.02034l-1.28227-.957a.1.1,0,0,1-.02033-.14h0a.1.1,0,0,1,.14-.02034l1.28227.957A.1.1,0,0,1,37.601,6.37686Z"
          />
    <path d="M36.14281,8.74669h0a.1.1,0,0,1,.12832.05946l.55082,1.5022a.1.1,0,0,1-.05947.12831h0a.1.1,0,0,1-.12832-.05946L36.08334,8.875A.1.1,0,0,1,36.14281,8.74669Z"
          />
    <path d="M23.70833,195.475h0a.1.1,0,0,1,.1.1v1.6a.1.1,0,0,1-.1.1h0a.1.1,0,0,1-.1-.1v-1.6A.1.1,0,0,1,23.70833,195.475Z"
          />
    <path d="M30.38624,196.14747h0a.1.1,0,0,1,.00326.14139l-1.105,1.15714a.1.1,0,0,1-.14139.00326h0a.1.1,0,0,1-.00326-.14139l1.105-1.15714A.1.1,0,0,1,30.38624,196.14747Z"
          />
    <path d="M28.94393,191.87236h0a.1.1,0,0,1,.12832.05946l.55082,1.50219a.1.1,0,0,1-.05946.12832h0a.1.1,0,0,1-.12832-.05946l-.55082-1.50219A.1.1,0,0,1,28.94393,191.87236Z"
          />
    <path d="M32.33836,193.56934h0a.1.1,0,0,1,.05566.13l-.59481,1.48532a.1.1,0,0,1-.13.05566h0a.1.1,0,0,1-.05566-.13l.59481-1.48532A.1.1,0,0,1,32.33836,193.56934Z"
          />
    <path d="M34.59509,196.1289h0a.1.1,0,0,1-.06514.12554l-1.5253.48314a.1.1,0,0,1-.12554-.06514h0a.1.1,0,0,1,.06514-.12554l1.5253-.48314A.1.1,0,0,1,34.59509,196.1289Z"
          />
    <path d="M25.50758,202.44556h0a.1.1,0,0,1-.06514.12554l-1.5253.48314a.1.1,0,0,1-.12554-.06514h0a.1.1,0,0,1,.06514-.12554l1.5253-.48314A.1.1,0,0,1,25.50758,202.44556Z"
          />
    <path d="M21.96336,196.81934h0a.1.1,0,0,1,.05566.13l-.59481,1.48532a.1.1,0,0,1-.13.05566h0a.1.1,0,0,1-.05566-.13l.59481-1.48532A.1.1,0,0,1,21.96336,196.81934Z"
          />
    <path d="M30.39959,188.65067h0a.1.1,0,0,1,.1.1v1.6a.1.1,0,0,1-.1.1h0a.1.1,0,0,1-.1-.1v-1.6A.1.1,0,0,1,30.39959,188.65067Z"
          />
    <path d="M33.81843,188.6968h0a.1.1,0,0,1,.14094.01178l1.03316,1.2217a.1.1,0,0,1-.01178.14094h0a.1.1,0,0,1-.14094-.01178l-1.03316-1.2217A.1.1,0,0,1,33.81843,188.6968Z"
          />
    <path d="M23.27907,190.47264v0a.1.1,0,0,1,.11135-.0872l1.58829.19316a.1.1,0,0,1,.0872.11135v0a.1.1,0,0,1-.11135.0872l-1.58829-.19316A.1.1,0,0,1,23.27907,190.47264Z"
          />
    <path d="M21.58618,192.73281h0a.1.1,0,0,1,.13959.02272l.93493,1.29841a.1.1,0,0,1-.02272.13959h0a.1.1,0,0,1-.13959-.02272l-.93493-1.29841A.1.1,0,0,1,21.58618,192.73281Z"
          />
    <path d="M32.41784,205.78983h0a.1.1,0,0,1,.05566.13l-.59481,1.48532a.1.1,0,0,1-.13.05566h0a.1.1,0,0,1-.05566-.13l.59481-1.48532A.1.1,0,0,1,32.41784,205.78983Z"
          />
    <path d="M22.32587,205.39759h0a.1.1,0,0,1,.01363.14077l-1.01709,1.23511a.1.1,0,0,1-.14077.01363h0a.1.1,0,0,1-.01363-.14077l1.01709-1.23511A.1.1,0,0,1,22.32587,205.39759Z"
          />
    <path d="M22.75758,203.52889h0a.1.1,0,0,1-.06514.12554l-1.5253.48314a.1.1,0,0,1-.12554-.06514h0a.1.1,0,0,1,.06514-.12554l1.5253-.48314A.1.1,0,0,1,22.75758,203.52889Z"
          />
    <path d="M27.71843,203.526h0a.1.1,0,0,1,.14094.01178l1.03316,1.2217a.1.1,0,0,1-.01178.14094h0a.1.1,0,0,1-.14094-.01178l-1.03316-1.2217A.1.1,0,0,1,27.71843,203.526Z"
          />
    <path d="M33.59475,200.657h0a.1.1,0,0,1,.00326.14139l-1.105,1.15714a.1.1,0,0,1-.14139.00326h0a.1.1,0,0,1-.00326-.14139l1.105-1.15714A.1.1,0,0,1,33.59475,200.657Z"
          />
    <path d="M25.28118,198.042v0a.1.1,0,0,1,.11135-.0872l1.58829.19316a.1.1,0,0,1,.0872.11135v0a.1.1,0,0,1-.11135.0872l-1.58829-.19316A.1.1,0,0,1,25.28118,198.042Z"
          />
    <path d="M34.5951,190.4414h0a.1.1,0,0,1-.06514.12554l-1.5253.48314a.1.1,0,0,1-.12554-.06514h0a.1.1,0,0,1,.06514-.12554l1.5253-.48314A.1.1,0,0,1,34.5951,190.4414Z"
          />
    <path d="M33.45489,186.8491h0a.1.1,0,0,1,.00326.14139l-1.105,1.15714a.1.1,0,0,1-.14139.00326h0a.1.1,0,0,1-.00326-.14139l1.105-1.15714A.1.1,0,0,1,33.45489,186.8491Z"
          />
    <path d="M27.33718,191.68088h0a.1.1,0,0,1,.03877.136L26.598,193.215a.1.1,0,0,1-.136.03877h0a.1.1,0,0,1-.03877-.136l.77792-1.39815A.1.1,0,0,1,27.33718,191.68088Z"
          />
    <path d="M31.55643,210.396h0a.1.1,0,0,1-.13914.02536l-1.31587-.91019a.1.1,0,0,1-.02536-.13914h0a.1.1,0,0,1,.13914-.02536l1.31587.91019A.1.1,0,0,1,31.55643,210.396Z"
          />
    <path d="M24.27586,207.50684h0a.1.1,0,0,1,.05566.13l-.59481,1.48532a.1.1,0,0,1-.13.05566h0a.1.1,0,0,1-.05566-.13l.59481-1.48532A.1.1,0,0,1,24.27586,207.50684Z"
          />
    <path d="M33.36566,198.93441h0a.1.1,0,0,1-.11758.0786l-1.56931-.31181a.1.1,0,0,1-.0786-.11758h0a.1.1,0,0,1,.11758-.0786l1.56931.31181A.1.1,0,0,1,33.36566,198.93441Z"
          />
    <path d="M26.56626,205.75484h0a.1.1,0,0,1,.1.1v1.6a.1.1,0,0,1-.1.1h0a.1.1,0,0,1-.1-.1v-1.6A.1.1,0,0,1,26.56626,205.75484Z"
          />
    <path d="M20.758,189.34338h0a.1.1,0,0,1,.03877.136l-.77792,1.39815a.1.1,0,0,1-.136.03877h0a.1.1,0,0,1-.03877-.136l.77792-1.39815A.1.1,0,0,1,20.758,189.34338Z"
          />
    <path d="M23.8064,188.27088h0a.1.1,0,0,1-.05115.13186l-1.464.64558a.1.1,0,0,1-.13186-.05115h0a.1.1,0,0,1,.05115-.13186l1.464-.64558A.1.1,0,0,1,23.8064,188.27088Z"
          />
    <path d="M27.76205,189.62157h0a.1.1,0,0,1-.14075.01389l-1.237-1.01481a.1.1,0,0,1-.01389-.14075h0a.1.1,0,0,1,.14075-.01389l1.237,1.01481A.1.1,0,0,1,27.76205,189.62157Z"
          />
    <path d="M33.87019,204.872h0a.1.1,0,0,1-.13429.04438l-1.42922-.71925a.1.1,0,0,1-.04438-.13429h0a.1.1,0,0,1,.13429-.04438l1.42922.71925A.1.1,0,0,1,33.87019,204.872Z"
          />
    <path d="M24.171,200.66694v0a.1.1,0,0,1-.09065.10856l-1.59356.14325a.1.1,0,0,1-.10856-.09065v0a.1.1,0,0,1,.09065-.10856l1.59356-.14325A.1.1,0,0,1,24.171,200.66694Z"
          />
    <path d="M29.14146,200.32048h0a.1.1,0,0,1,.0913.108l-.13364,1.5944a.1.1,0,0,1-.108.0913h0a.1.1,0,0,1-.0913-.108l.13364-1.5944A.1.1,0,0,1,29.14146,200.32048Z"
          />
    <path d="M27.46791,195.611h0a.1.1,0,0,1-.0388.136l-1.39836.77753a.1.1,0,0,1-.136-.0388h0a.1.1,0,0,1,.0388-.136l1.39836-.77753A.1.1,0,0,1,27.46791,195.611Z"
          />
    <path d="M34.19132,207.60323h0a.1.1,0,0,1-.06514.12554l-1.5253.48314a.1.1,0,0,1-.12554-.06514h0a.1.1,0,0,1,.06514-.12554l1.5253-.48314A.1.1,0,0,1,34.19132,207.60323Z"
          />
    <path d="M35.59719,192.44565h0a.1.1,0,0,1,.01151.141l-1.03556,1.21967a.1.1,0,0,1-.141.01151h0a.1.1,0,0,1-.01151-.141l1.03556-1.21967A.1.1,0,0,1,35.59719,192.44565Z"
          /></g>
</svg>