<?xml version="1.0" encoding="utf-8"?>
<!-- Generator: Adobe Illustrator 16.0.0, SVG Export Plug-In . SVG Version: 6.00 Build 0)  -->
<!DOCTYPE svg PUBLIC "-//W3C//DTD SVG 1.1//EN" "http://www.w3.org/Graphics/SVG/1.1/DTD/svg11.dtd">
<svg version="1.1" id="图层_1" xmlns="http://www.w3.org/2000/svg" xmlns:xlink="http://www.w3.org/1999/xlink" x="0px" y="0px"
	 width="40px" height="40px" viewBox="0 0 40 40" enable-background="new 0 0 40 40" xml:space="preserve">
<path display="none" fill="#6B6C6B" d="M878.457-66.628c2.071,2.085,2.071,5.414,0,7.471L287.543,531.786
	c-2.086,2.085-5.415,2.085-7.486,0L242.657,494.4c-2.071-2.086-2.071-5.415,0-7.443L833.6-104.014c2.086-2.086,5.415-2.086,7.458,0
	L878.457-66.628z"/>
<g>
	<path fill="#333333" d="M19.76,17.259c-0.067,0-0.122,0.056-0.122,0.126l1.269,1.235l-5.186,5.185l0.881,0.756l5.139-5.136
		l1.27,1.236c0.064,0,0.124-0.058,0.124-0.127l1.501-4.652l-0.126-0.126L19.76,17.259z"/>
	<path fill="#333333" d="M30.707,6.601C30.069,6.203,29.429,6,28.784,6c-0.638,0.005-1.275,0.21-1.912,0.611
		c-0.644,0.404-1.146,1-1.513,1.789c-0.366,0.791-0.549,1.613-0.549,2.458c0,0.873,0.176,1.685,0.535,2.439
		c0.356,0.75,0.844,1.344,1.463,1.771c0.621,0.429,1.278,0.644,1.978,0.644c0.695,0.003,1.354-0.21,1.98-0.64
		c0.627-0.432,1.119-1.025,1.476-1.782c0.353-0.745,0.524-1.549,0.522-2.414c-0.002-0.867-0.188-1.696-0.551-2.489
		C31.851,7.597,31.349,7,30.707,6.601z M31.662,12.999c-0.289,0.665-0.687,1.178-1.188,1.543c-0.502,0.367-1.043,0.546-1.622,0.546
		c-0.602,0.007-1.176-0.187-1.715-0.569c-0.546-0.385-0.953-0.894-1.236-1.533c-0.283-0.634-0.43-1.341-0.438-2.108
		c-0.017-0.815,0.129-1.561,0.433-2.237c0.302-0.675,0.734-1.188,1.299-1.541c0.566-0.356,1.121-0.533,1.658-0.533
		c0.534,0.006,1.06,0.182,1.573,0.529c0.516,0.348,0.932,0.891,1.244,1.631c0.293,0.707,0.436,1.425,0.434,2.167
		C32.101,11.635,31.952,12.338,31.662,12.999z"/>
	<path fill="#333333" d="M14.154,30.527c-0.068-0.226-0.193-0.46-0.369-0.702c-0.178-0.241-0.417-0.447-0.719-0.622
		c-0.299-0.172-0.671-0.328-1.123-0.475l-0.93-0.276c-0.488-0.144-0.91-0.287-1.275-0.429c-0.364-0.144-0.661-0.301-0.897-0.476
		c-0.235-0.169-0.422-0.378-0.551-0.622c-0.164-0.291-0.24-0.604-0.229-0.951c0.013-0.35,0.086-0.65,0.227-0.904
		c0.143-0.256,0.35-0.479,0.628-0.66c0.274-0.186,0.576-0.305,0.895-0.355c0.321-0.055,0.631-0.084,0.93-0.084
		c0.507,0.002,0.898,0.063,1.179,0.176c0.282,0.111,0.54,0.263,0.772,0.449c0.235,0.186,0.41,0.379,0.529,0.578
		c0.118,0.2,0.202,0.321,0.246,0.371c0.045,0.042,0.107,0.075,0.184,0.09c0.104,0.026,0.188,0.012,0.258-0.041
		c0.066-0.055,0.103-0.134,0.109-0.238c0.01-0.103-0.062-0.256-0.205-0.459c-0.144-0.2-0.318-0.404-0.518-0.608
		c-0.199-0.206-0.505-0.401-0.922-0.588c-0.417-0.187-0.908-0.295-1.481-0.319c-0.326-0.009-0.646,0.012-0.955,0.063
		c-0.313,0.05-0.603,0.133-0.886,0.243c-0.281,0.113-0.544,0.266-0.786,0.455c-0.243,0.198-0.434,0.433-0.571,0.715
		c-0.137,0.283-0.217,0.589-0.25,0.914c-0.039,0.422-0.002,0.802,0.115,1.134c0.12,0.339,0.313,0.639,0.577,0.892
		c0.267,0.256,0.597,0.465,0.988,0.629c0.388,0.163,0.905,0.34,1.545,0.532c0.641,0.191,1.134,0.348,1.486,0.467
		c0.355,0.113,0.641,0.271,0.857,0.471c0.219,0.194,0.375,0.428,0.473,0.687c0.082,0.242,0.11,0.509,0.086,0.802
		c-0.026,0.29-0.131,0.6-0.319,0.928c-0.188,0.322-0.498,0.586-0.94,0.781c-0.438,0.197-0.938,0.289-1.496,0.28
		c-0.254,0-0.512-0.026-0.779-0.071c-0.269-0.048-0.541-0.131-0.818-0.253c-0.277-0.124-0.527-0.286-0.749-0.487
		c-0.221-0.2-0.381-0.401-0.481-0.605c-0.094-0.2-0.168-0.327-0.211-0.373c-0.121-0.098-0.238-0.125-0.358-0.086
		c-0.123,0.04-0.183,0.141-0.183,0.292c0,0.036,0.049,0.154,0.146,0.354c0.099,0.201,0.249,0.422,0.455,0.664
		c0.202,0.244,0.45,0.455,0.739,0.633c0.287,0.177,0.634,0.315,1.033,0.416c0.403,0.102,0.856,0.146,1.355,0.144
		c0.416-0.002,0.811-0.06,1.191-0.162c0.38-0.1,0.723-0.263,1.026-0.481c0.304-0.224,0.552-0.508,0.763-0.859
		c0.205-0.355,0.311-0.777,0.314-1.266C14.26,30.985,14.227,30.753,14.154,30.527z"/>
</g>
</svg>
