<svg id="图层_22" data-name="图层 22" xmlns="http://www.w3.org/2000/svg" width = "180" height= "170" viewBox="0 0 182 172">
<title>玻璃仪器22</title>
<path stroke="#000000" fill="#000000" stroke-width="0.5324" d="M675.39,213.33c0-5-.09-40-.41-58.91-.34-20.4-10.66-32.89-10.72-33A51,51,0,0,0,635,101.24c-17.53-4.21-28.06-1.19-35,.82l-2.27.64c-6.78,1.81-46.62,12.66-47.67,12.95l-3.17-2L503.39,130.5c-2.61.84-.61,9.74.37,13.54s3.54,12.48,6.17,11.8l45.6-7.94,1.85-4,44.2-11.83c.2-.06,20.17-5.77,32.77,1.31,7.81,4.39,11.78,13.25,11.5,25.63,0,.21,0,.38,0,.49V213L643,215.61l5.43,46.33c.17,2.73,9.28,3,13.21,3s13-.3,13-3l3.73-46.14ZM509.95,154.85l-.18,0a.38.38,0,0,1-.35-.06c-1.34-.79-3.13-5-4.68-11-2.28-8.82-1.67-12.1-1-12.31l.18-.07c1.33,1.66,3.1,6,4.47,11.33S510.3,152.74,509.95,154.85Zm.4-.07c.44-2.83-.71-8.66-1.6-12.1s-2.72-9.13-4.48-11.38l42.07-16.23c-.68,4.66,1.66,14.2,2.26,16.53s3.19,11.85,6,15.58Zm136.49,58.56V159.56c0-.11,0-.27,0-.47.29-12.59-4-22-12-26.53-13-7.29-32.7-1.64-33.53-1.4L557.42,142.9l-.91.5-1.32,2.73c-1.7-2.46-3.89-8-5.66-14.91-1.82-7-2.66-13.31-2.29-16.2l2.55,1.63,1-.17c4.58-1.25,40.79-11.1,47.22-12.82l2.29-.64c6.86-2,17.23-5,34.51-.81a50,50,0,0,1,28.66,19.84c.1.12,10.2,12.33,10.53,32.39.31,19,.4,54.93.41,59.5l2.18,1.76c-2.81,1-8.76,1.75-15.85,1.75-7.27,0-13.55-.76-16.25-1.83Zm26.84,48.53a.38.38,0,0,1-.14.33c-1.1,1.1-5.62,1.78-11.81,1.78-9.1,0-12.14-1.41-12.18-2.09l0-.19c1.94-.87,6.62-1.49,12.09-1.49s10.14.61,12.08,1.49Zm0-.58c-2.63-1.14-8.57-1.48-12.12-1.48s-9.51.35-12.14,1.49l-5.19-44.79c4.34,1.83,14.16,1.95,16.57,1.95s12.27-.12,16.6-2Z" transform="translate(-502.11 -99.12)"/>
<g fill="none" stroke="#000000" stroke-width="0.2073" stroke-linecap="round" stroke-miterlimit="1">
<path d="M647.5,249.88a.1.1,0,0,1-.05-.18l1.28-.81a.1.1,0,1,1,.11.17l-1.28.81Z" transform="translate(-502.11 -99.12)"/>
<path d="M664.31,241a.1.1,0,0,1-.06-.18l1.32-.88a.1.1,0,0,1,.11.17l-1.32.88Z" transform="translate(-502.11 -99.12)"/>
<path d="M656.28,240.93a.1.1,0,0,1-.08,0l-1.06-1.25a.1.1,0,0,1,.15-.13l1.06,1.25a.1.1,0,0,1,0,.14Z" transform="translate(-502.11 -99.12)"/>
<path d="M652.83,246.51a.1.1,0,0,1-.09-.06l-.62-1.54a.1.1,0,0,1,.06-.13.1.1,0,0,1,.13.06l.62,1.54a.1.1,0,0,1-.06.13Z" transform="translate(-502.11 -99.12)"/>
<path d="M649.93,260a.1.1,0,0,1-.07-.18l1.54-1.32a.1.1,0,1,1,.13.15L650,259.93Z" transform="translate(-502.11 -99.12)"/>
<path d="M649.53,248.09a.1.1,0,0,1-.1-.1v-1.54a.1.1,0,1,1,.2,0V248A.1.1,0,0,1,649.53,248.09Z" transform="translate(-502.11 -99.12)"/>
<path d="M650.52,241.67a.1.1,0,0,1-.08,0l-.88-1.29a.1.1,0,1,1,.16-.11l.88,1.29a.1.1,0,0,1,0,.14Z" transform="translate(-502.11 -99.12)"/>
<path d="M655.62,261.57a.1.1,0,0,1-.07,0l-1.06-1.17a.1.1,0,1,1,.15-.13l1.06,1.17a.1.1,0,0,1,0,.14Z" transform="translate(-502.11 -99.12)"/>
<path d="M661.93,243.54a.1.1,0,0,1-.07,0l-1.06-1.14a.1.1,0,1,1,.15-.14l1.06,1.14a.1.1,0,0,1,0,.14A.1.1,0,0,1,661.93,243.54Z" transform="translate(-502.11 -99.12)"/>
<path d="M658.92,244.75h0l-2.28-.62a.1.1,0,0,1-.07-.12.1.1,0,0,1,.12-.07l2.28.62a.1.1,0,0,1,0,.2Z" transform="translate(-502.11 -99.12)"/>
<path d="M658.33,247.21l-.06,0L656.62,246a.1.1,0,0,1,0-.14.1.1,0,0,1,.14,0l1.65,1.21a.1.1,0,0,1,0,.14A.1.1,0,0,1,658.33,247.21Z" transform="translate(-502.11 -99.12)"/>
<path d="M668.31,246.29a.1.1,0,0,1-.09-.06l-.7-1.54a.1.1,0,1,1,.18-.08l.7,1.54a.1.1,0,0,1,0,.13Z" transform="translate(-502.11 -99.12)"/>
<path d="M673.48,245.56a.1.1,0,0,1-.08,0l-.88-1.29a.1.1,0,1,1,.16-.11l.88,1.29a.1.1,0,0,1,0,.14Z" transform="translate(-502.11 -99.12)"/>
<path d="M665.63,247.5a.1.1,0,0,1-.08,0l-1-1.14a.1.1,0,1,1,.15-.13l1,1.14a.1.1,0,0,1,0,.14Z" transform="translate(-502.11 -99.12)"/>
<path d="M672.86,251.51h-.05a.1.1,0,0,1,0-.14l.88-1.51a.1.1,0,1,1,.17.1l-.88,1.51A.1.1,0,0,1,672.86,251.51Z" transform="translate(-502.11 -99.12)"/>
<path d="M672.05,260.65H672l-1.36-.81a.1.1,0,1,1,.1-.17l1.36.81a.1.1,0,0,1-.05.19Z" transform="translate(-502.11 -99.12)"/>
<path d="M668.05,251.87l-.06,0a.1.1,0,0,1,0-.14l1.1-1.54a.1.1,0,0,1,.14,0,.1.1,0,0,1,0,.14l-1.1,1.54A.1.1,0,0,1,668.05,251.87Z" transform="translate(-502.11 -99.12)"/>
<path d="M659.29,251.43a.1.1,0,0,1-.08,0l-1-1.17a.1.1,0,0,1,.16-.13l1,1.17a.1.1,0,0,1,0,.14Z" transform="translate(-502.11 -99.12)"/>
<path d="M654.41,255.1a.1.1,0,0,1,0-.2l2-.62a.1.1,0,1,1,.06.19l-2,.62Z" transform="translate(-502.11 -99.12)"/>
<path d="M662.73,253.16l-.07,0a.1.1,0,0,1,0-.14l1.1-1.25a.1.1,0,0,1,.14,0,.1.1,0,0,1,0,.14l-1.1,1.25A.1.1,0,0,1,662.73,253.16Z" transform="translate(-502.11 -99.12)"/>
<path d="M666.4,256.61l-.06,0a.1.1,0,0,1,0-.14l1-1.29a.1.1,0,0,1,.14,0,.1.1,0,0,1,0,.14l-1,1.29A.1.1,0,0,1,666.4,256.61Z" transform="translate(-502.11 -99.12)"/>
<path d="M664.86,264.1a.1.1,0,0,1,0-.19l1.28-.66a.1.1,0,1,1,.09.18l-1.28.66Z" transform="translate(-502.11 -99.12)"/>
<path d="M663.1,255.73l-.06,0a.1.1,0,0,1,0-.14l.92-1.21a.1.1,0,0,1,.14,0,.1.1,0,0,1,0,.14l-.92,1.21A.1.1,0,0,1,663.1,255.73Z" transform="translate(-502.11 -99.12)"/>
<path d="M654.33,258.52a.1.1,0,0,1-.1-.1v-1.54a.1.1,0,1,1,.2,0v1.54A.1.1,0,0,1,654.33,258.52Z" transform="translate(-502.11 -99.12)"/>
<path d="M657.23,263.33a.1.1,0,0,1-.05-.19l1.32-.77a.1.1,0,0,1,.1.17l-1.32.77Z" transform="translate(-502.11 -99.12)"/>
<path d="M662.26,263.7l-.06,0-1.39-1a.1.1,0,0,1,0-.14.1.1,0,0,1,.14,0l1.39,1a.1.1,0,0,1,0,.14A.1.1,0,0,1,662.26,263.7Z" transform="translate(-502.11 -99.12)"/>
<path d="M648.17,238l-.06,0a.1.1,0,0,1,0-.14l1-1.54a.1.1,0,0,1,.17.11l-1,1.54A.1.1,0,0,1,648.17,238Z" transform="translate(-502.11 -99.12)"/>
<path d="M648.32,231.39a.1.1,0,0,1-.09-.06l-.66-1.69a.1.1,0,1,1,.19-.07l.66,1.69a.1.1,0,0,1-.06.13Z" transform="translate(-502.11 -99.12)"/>
<path d="M646.74,221.66a.1.1,0,0,1-.05-.18l1.28-.81a.1.1,0,1,1,.11.17l-1.28.81Z" transform="translate(-502.11 -99.12)"/>
<path d="M644.65,223.16h-.05a.1.1,0,0,1,0-.14l.88-1.51a.1.1,0,0,1,.14,0,.1.1,0,0,1,0,.14l-.88,1.51A.1.1,0,0,1,644.65,223.16Z" transform="translate(-502.11 -99.12)"/>
<path d="M647.4,232.19h-1.58a.1.1,0,0,1,0-.2h1.58a.1.1,0,0,1,0,.2Z" transform="translate(-502.11 -99.12)"/>
<path d="M651.91,229.59l-.06,0-1.47-1.17a.1.1,0,0,1,0-.14.1.1,0,0,1,.14,0l1.47,1.17a.1.1,0,0,1,0,.14A.1.1,0,0,1,651.91,229.59Z" transform="translate(-502.11 -99.12)"/>
<path d="M650,222.57h0a.1.1,0,0,1-.05-.13l.73-1.8a.1.1,0,1,1,.19.08l-.73,1.8A.1.1,0,0,1,650,222.57Z" transform="translate(-502.11 -99.12)"/>
<path d="M653.56,237.66a.1.1,0,0,1-.07,0l-1.25-1.25a.1.1,0,0,1,0-.14.1.1,0,0,1,.14,0l1.25,1.25a.1.1,0,0,1,0,.14A.1.1,0,0,1,653.56,237.66Z" transform="translate(-502.11 -99.12)"/>
<path d="M663.14,238a.1.1,0,0,1-.06-.18l1.28-1a.1.1,0,0,1,.12.16l-1.28,1Z" transform="translate(-502.11 -99.12)"/>
<path d="M674.77,221.71a.1.1,0,0,1-.05-.18l1.28-.81a.1.1,0,1,1,.11.17l-1.28.81Z" transform="translate(-502.11 -99.12)"/>
<path d="M669,220.7l-.06,0-1.25-.88a.1.1,0,0,1,0-.14.1.1,0,0,1,.14,0l1.25.88a.1.1,0,0,1-.06.18Z" transform="translate(-502.11 -99.12)"/>
<path d="M671.61,229a.1.1,0,0,1-.07,0,.1.1,0,0,1,0-.14l1.14-1.1a.1.1,0,1,1,.14.14l-1.14,1.1A.1.1,0,0,1,671.61,229Z" transform="translate(-502.11 -99.12)"/>
<path d="M671.83,236.67l-.05,0a.1.1,0,0,1,0-.14l.84-1.32a.1.1,0,1,1,.17.11l-.84,1.32A.1.1,0,0,1,671.83,236.67Z" transform="translate(-502.11 -99.12)"/>
<path d="M672.05,232.3H672l-1.36-.81a.1.1,0,1,1,.1-.17l1.36.81a.1.1,0,0,1-.05.19Z" transform="translate(-502.11 -99.12)"/>
<path d="M668.05,223.53l-.06,0a.1.1,0,0,1,0-.14l1.1-1.54a.1.1,0,1,1,.16.12l-1.1,1.54A.1.1,0,0,1,668.05,223.53Z" transform="translate(-502.11 -99.12)"/>
<path d="M659.29,223.09a.1.1,0,0,1-.08,0l-1-1.17a.1.1,0,0,1,.16-.13l1,1.17a.1.1,0,0,1,0,.14Z" transform="translate(-502.11 -99.12)"/>
<path d="M654.41,226.76a.1.1,0,0,1,0-.2l2-.62a.1.1,0,1,1,.06.19l-2,.62Z" transform="translate(-502.11 -99.12)"/>
<path d="M662.73,224.81l-.07,0a.1.1,0,0,1,0-.14l1.1-1.25a.1.1,0,0,1,.14,0,.1.1,0,0,1,0,.14l-1.1,1.25A.1.1,0,0,1,662.73,224.81Z" transform="translate(-502.11 -99.12)"/>
<path d="M666.4,228.26l-.06,0a.1.1,0,0,1,0-.14l1-1.29a.1.1,0,0,1,.14,0,.1.1,0,0,1,0,.14l-1,1.29A.1.1,0,0,1,666.4,228.26Z" transform="translate(-502.11 -99.12)"/>
<path d="M664.86,235.75a.1.1,0,0,1,0-.19l1.28-.66a.1.1,0,1,1,.09.18l-1.28.66Z" transform="translate(-502.11 -99.12)"/>
<path d="M663.1,227.38l-.06,0a.1.1,0,0,1,0-.14l.92-1.21a.1.1,0,0,1,.14,0,.1.1,0,0,1,0,.14l-.92,1.21A.1.1,0,0,1,663.1,227.38Z" transform="translate(-502.11 -99.12)"/>
<path d="M654.33,230.17a.1.1,0,0,1-.1-.1v-1.54a.1.1,0,1,1,.2,0v1.54A.1.1,0,0,1,654.33,230.17Z" transform="translate(-502.11 -99.12)"/>
<path d="M657.23,235a.1.1,0,0,1-.05-.19l1.32-.77a.1.1,0,0,1,.14,0,.1.1,0,0,1,0,.14l-1.32.77Z" transform="translate(-502.11 -99.12)"/>
<path d="M662.26,235.35l-.06,0-1.39-1a.1.1,0,0,1,.11-.17l1.39,1a.1.1,0,0,1,0,.14A.1.1,0,0,1,662.26,235.35Z" transform="translate(-502.11 -99.12)"/>
<path d="M516.21,128a.1.1,0,0,1-.07,0L515,127a.1.1,0,0,1,0-.14.1.1,0,0,1,.14,0l1.11,1a.1.1,0,0,1-.07.17Z" transform="translate(-502.11 -99.12)"/>
<path d="M529.25,142l-.07,0-1.19-1a.1.1,0,0,1,.13-.15l1.19,1a.1.1,0,0,1-.07.18Z" transform="translate(-502.11 -99.12)"/>
<path d="M526,133.17l-.06,0a.1.1,0,0,1,0-.14l.93-1.35a.1.1,0,0,1,.14,0,.1.1,0,0,1,0,.14l-.93,1.35A.1.1,0,0,1,526,133.17Z" transform="translate(-502.11 -99.12)"/>
<path d="M519.73,131.28a.1.1,0,0,1-.06-.18l1.33-1a.1.1,0,1,1,.12.16l-1.33,1Z" transform="translate(-502.11 -99.12)"/>
<path d="M507.69,133.11l-.06,0L506,131.94a.1.1,0,0,1,.11-.17l1.67,1.15a.1.1,0,0,1,0,.14A.1.1,0,0,1,507.69,133.11Z" transform="translate(-502.11 -99.12)"/>
<path d="M517.35,128.5a.1.1,0,0,1,0-.2l1.49-.4a.1.1,0,0,1,.12.07.1.1,0,0,1-.07.12l-1.49.4Z" transform="translate(-502.11 -99.12)"/>
<path d="M523.81,127.8l-.07,0a.1.1,0,0,1,0-.14l1-1.18a.1.1,0,0,1,.14,0,.1.1,0,0,1,0,.14l-1,1.18A.1.1,0,0,1,523.81,127.8Z" transform="translate(-502.11 -99.12)"/>
<path d="M505.92,137.88l-.05,0a.1.1,0,0,1,0-.14l.86-1.33a.1.1,0,1,1,.17.11l-.86,1.33A.1.1,0,0,1,505.92,137.88Z" transform="translate(-502.11 -99.12)"/>
<path d="M525,139.31l-.05,0a.1.1,0,0,1,0-.14l.82-1.32a.1.1,0,0,1,.17.11l-.82,1.32A.1.1,0,0,1,525,139.31Z" transform="translate(-502.11 -99.12)"/>
<path d="M523,136.71h0a.1.1,0,0,1-.1-.1v-2.36a.1.1,0,0,1,.1-.1h0a.1.1,0,0,1,.1.1v2.36A.1.1,0,0,1,523,136.71Z" transform="translate(-502.11 -99.12)"/>
<path d="M520.48,136.78h0a.1.1,0,0,1-.06-.13l.74-1.91a.1.1,0,0,1,.13-.06.1.1,0,0,1,.06.13l-.74,1.91A.1.1,0,0,1,520.48,136.78Z" transform="translate(-502.11 -99.12)"/>
<path d="M524,146.19a.1.1,0,0,1-.06-.18l1.31-1.07a.1.1,0,1,1,.13.15L524,146.17Z" transform="translate(-502.11 -99.12)"/>
<path d="M526,151l-.07,0a.1.1,0,0,1,0-.14l1-1.18a.1.1,0,0,1,.14,0,.1.1,0,0,1,0,.14l-1,1.18A.1.1,0,0,1,526,151Z" transform="translate(-502.11 -99.12)"/>
<path d="M522.09,143.92l-.06,0a.1.1,0,0,1,0-.14l.85-1.22a.1.1,0,1,1,.16.11l-.85,1.22A.1.1,0,0,1,522.09,143.92Z" transform="translate(-502.11 -99.12)"/>
<path d="M521.78,152.4h0l-1.68-.46a.1.1,0,0,1-.07-.12.1.1,0,0,1,.12-.07l1.68.46a.1.1,0,0,1,.07.12A.1.1,0,0,1,521.78,152.4Z" transform="translate(-502.11 -99.12)"/>
<path d="M511.06,153.53h0a.1.1,0,0,1-.07-.12l.43-1.52a.1.1,0,0,1,.12-.07.1.1,0,0,1,.07.12l-.43,1.52A.1.1,0,0,1,511.06,153.53Z" transform="translate(-502.11 -99.12)"/>
<path d="M520.27,148.05h0l-1.77-.66a.1.1,0,0,1,.07-.19l1.77.66a.1.1,0,0,1,.06.13A.1.1,0,0,1,520.27,148.05Z" transform="translate(-502.11 -99.12)"/>
<path d="M516.65,138.8l-.06,0a.1.1,0,0,1,0-.14l.89-1.23a.1.1,0,0,1,.16.12l-.89,1.23A.1.1,0,0,1,516.65,138.8Z" transform="translate(-502.11 -99.12)"/>
<path d="M513,136.79a.1.1,0,0,1-.08,0L511.76,135a.1.1,0,0,1,0-.14.1.1,0,0,1,.14,0l1.12,1.75a.1.1,0,0,1,0,.14Z" transform="translate(-502.11 -99.12)"/>
<path d="M517.37,143.32h0l-1.49-.74a.1.1,0,0,1,0-.13.1.1,0,0,1,.13,0l1.49.74a.1.1,0,0,1,0,.19Z" transform="translate(-502.11 -99.12)"/>
<path d="M515,147.61h0l-1.49-.59a.1.1,0,0,1-.06-.13.1.1,0,0,1,.13-.06l1.49.59a.1.1,0,0,1,0,.19Z" transform="translate(-502.11 -99.12)"/>
<path d="M506.84,148.54a.1.1,0,0,1-.07,0l-1-1.07a.1.1,0,1,1,.15-.13l1,1.07a.1.1,0,0,1,0,.14Z" transform="translate(-502.11 -99.12)"/>
<path d="M514.9,144.17h0l-1.41-.57a.1.1,0,0,1,.08-.19l1.41.57a.1.1,0,0,1,0,.19Z" transform="translate(-502.11 -99.12)"/>
<path d="M508.53,135.85a.1.1,0,0,1,0-.2l1.49-.4a.1.1,0,0,1,.12.07.1.1,0,0,1-.07.12l-1.49.4Z" transform="translate(-502.11 -99.12)"/>
<path d="M505.73,141a.1.1,0,0,1-.07,0l-1.09-1.08a.1.1,0,1,1,.14-.14l1.09,1.08a.1.1,0,0,1-.07.17Z" transform="translate(-502.11 -99.12)"/>
<path d="M505.59,144.85h0a.1.1,0,0,1-.06-.13l.56-1.59a.1.1,0,0,1,.19.07l-.56,1.59A.1.1,0,0,1,505.59,144.85Z" transform="translate(-502.11 -99.12)"/>
<path d="M528.54,125.16h0l-1.75-.59a.1.1,0,1,1,.06-.19l1.75.59a.1.1,0,0,1,0,.19Z" transform="translate(-502.11 -99.12)"/>
<path d="M533.16,123a.1.1,0,0,1-.06-.18l1.46-1.08a.1.1,0,0,1,.12.16L533.22,123Z" transform="translate(-502.11 -99.12)"/>
<path d="M543.26,120a.1.1,0,0,1-.07,0l-1.11-1a.1.1,0,0,1,.14-.15l1.11,1a.1.1,0,0,1-.07.17Z" transform="translate(-502.11 -99.12)"/>
<path d="M541.84,117.8h0l-1.68-.46a.1.1,0,1,1,.05-.19l1.68.46a.1.1,0,0,1,0,.2Z" transform="translate(-502.11 -99.12)"/>
<path d="M532.15,122.33a.1.1,0,0,1-.1-.07l-.41-1.52a.1.1,0,0,1,.07-.12.1.1,0,0,1,.12.07l.41,1.52a.1.1,0,0,1-.07.12Z" transform="translate(-502.11 -99.12)"/>
<path d="M535.83,126h0a.1.1,0,0,1-.05-.13l.75-1.72a.1.1,0,0,1,.13-.05.1.1,0,0,1,.05.13l-.75,1.72A.1.1,0,0,1,535.83,126Z" transform="translate(-502.11 -99.12)"/>
<path d="M544,122.57h0l-1.93-.24a.1.1,0,0,1-.09-.11.1.1,0,0,1,.11-.09l1.93.24a.1.1,0,0,1,0,.2Z" transform="translate(-502.11 -99.12)"/>
<path d="M528.46,129.7h0a.1.1,0,0,1,0-.14l.88-1.53a.1.1,0,0,1,.17.1l-.88,1.53A.1.1,0,0,1,528.46,129.7Z" transform="translate(-502.11 -99.12)"/>
<path d="M531.88,140l-.06,0-1.29-1a.1.1,0,0,1,.12-.16l1.29,1a.1.1,0,0,1-.06.18Z" transform="translate(-502.11 -99.12)"/>
<path d="M550.46,147.11a.1.1,0,0,1-.07,0l-1.11-1a.1.1,0,0,1,.14-.15l1.11,1a.1.1,0,0,1-.07.17Z" transform="translate(-502.11 -99.12)"/>
<path d="M548.84,140.28h0a.1.1,0,0,1-.06-.13l.53-1.43a.1.1,0,0,1,.19.07l-.53,1.43A.1.1,0,0,1,548.84,140.28Z" transform="translate(-502.11 -99.12)"/>
<path d="M542.89,145.71h-.05l-1.36-.81a.1.1,0,0,1,0-.14.1.1,0,0,1,.14,0l1.36.81a.1.1,0,0,1-.05.19Z" transform="translate(-502.11 -99.12)"/>
<path d="M535.64,147.58h0l-1.49-.47a.1.1,0,1,1,.06-.19l1.49.47a.1.1,0,0,1,.07.13A.1.1,0,0,1,535.64,147.58Z" transform="translate(-502.11 -99.12)"/>
<path d="M538.42,146.19h0a.1.1,0,0,1-.07-.12l.43-1.52a.1.1,0,0,1,.12-.07.1.1,0,0,1,.07.12l-.43,1.52A.1.1,0,0,1,538.42,146.19Z" transform="translate(-502.11 -99.12)"/>
<path d="M547.63,140.72h0l-1.77-.66a.1.1,0,1,1,.07-.19l1.77.66a.1.1,0,0,1,.06.13A.1.1,0,0,1,547.63,140.72Z" transform="translate(-502.11 -99.12)"/>
<path d="M544,131.46l-.06,0a.1.1,0,0,1,0-.14l.89-1.23a.1.1,0,0,1,.16.12l-.89,1.23A.1.1,0,0,1,544,131.46Z" transform="translate(-502.11 -99.12)"/>
<path d="M540.32,129.45a.1.1,0,0,1-.08,0l-1.12-1.75a.1.1,0,0,1,0-.14.1.1,0,0,1,.14,0l1.12,1.75a.1.1,0,0,1,0,.14Z" transform="translate(-502.11 -99.12)"/>
<path d="M544.73,136h0l-1.49-.74a.1.1,0,0,1,0-.13.1.1,0,0,1,.13,0l1.49.74a.1.1,0,0,1,0,.19Z" transform="translate(-502.11 -99.12)"/>
<path d="M542.34,140.27h0l-1.49-.59a.1.1,0,0,1-.06-.13.1.1,0,0,1,.13-.06l1.49.59a.1.1,0,0,1,0,.19Z" transform="translate(-502.11 -99.12)"/>
<path d="M534.2,141.2a.1.1,0,0,1-.07,0l-1-1.07a.1.1,0,1,1,.15-.13l1,1.07a.1.1,0,0,1,0,.14Z" transform="translate(-502.11 -99.12)"/>
<path d="M542.26,136.84h0l-1.41-.57a.1.1,0,0,1,.08-.19l1.41.57a.1.1,0,0,1,0,.19Z" transform="translate(-502.11 -99.12)"/>
<path d="M535.89,128.51a.1.1,0,0,1,0-.2l1.49-.4a.1.1,0,0,1,.12.07.1.1,0,0,1-.07.12l-1.49.4Z" transform="translate(-502.11 -99.12)"/>
<path d="M533.08,133.63a.1.1,0,0,1-.07,0l-1.09-1.08a.1.1,0,1,1,.14-.14l1.09,1.08a.1.1,0,0,1-.07.17Z" transform="translate(-502.11 -99.12)"/>
<path d="M532.95,137.51h0a.1.1,0,0,1-.06-.13l.56-1.59a.1.1,0,0,1,.19.07l-.56,1.59A.1.1,0,0,1,532.95,137.51Z" transform="translate(-502.11 -99.12)"/>
</g>
</svg>