<?xml version="1.0" encoding="utf-8"?>
<!-- Generator: Adobe Illustrator 18.0.0, SVG Export Plug-In . SVG Version: 6.00 Build 0)  -->
<!DOCTYPE svg PUBLIC "-//W3C//DTD SVG 1.1//EN" "http://www.w3.org/Graphics/SVG/1.1/DTD/svg11.dtd">
<svg version="1.1" xmlns="http://www.w3.org/2000/svg" xmlns:xlink="http://www.w3.org/1999/xlink" x="0px" y="0px" width="160" height="192"
	 viewBox="0 0 160 192" enable-background="new 0 0 160 192" xml:space="preserve">
<g id="图层_2">
	<g>
		<linearGradient id="SVGID_3_" gradientUnits="userSpaceOnUse" x1="87.8818" y1="94.548" x2="88.1859" y2="187.3486">
			<stop  offset="0.1828" style="stop-color:#99FFFF;stop-opacity:0.1"/>
			<stop  offset="0.5834" style="stop-color:#45C6FF;stop-opacity:0.2113"/>
			<stop  offset="0.9028" style="stop-color:#0097FF;stop-opacity:0.3"/>
		</linearGradient>
		<path fill="url(#SVGID_3_)" stroke= "none" d="M23.6,117.7c-1.5,41.1,28.8,71.2,64.2,71.2c34.6,0,64.9-28.9,64.5-71.1c0,0-0.2-1.9-1.6-3.3
			c-4.5-4.4-36-8.3-62.4-8.3C56.4,106.3,24.6,111,23.6,117.7z"/>
		
			<radialGradient id="SVGID_4_" cx="87.8906" cy="116.4193" r="45.6608" gradientTransform="matrix(1 0 0 0.4 0 69.8516)" gradientUnits="userSpaceOnUse">
			<stop  offset="0.2849" style="stop-color:#99FFFF;stop-opacity:0.1"/>
			<stop  offset="1" style="stop-color:#0097FF;stop-opacity:0.1"/>
		</radialGradient>
		<path fill="url(#SVGID_4_)" stroke= "none" d="M151.7,116.4c0,5.6-28.8,10.1-64.3,10.1s-63.3-4.6-63.3-10.2s27.8-10,63.3-10
			S151.7,110.8,151.7,116.4z"/>
	</g>
	<g>
		<g>
			<g>
				<g id="图层_5_2_">
					<g opacity="0.6">
						<g>
							
								<line fill="none" stroke="#01192B" stroke-width="0.2105" stroke-linecap="round" stroke-miterlimit="1" x1="78.1" y1="45.3" x2="79.2" y2="44.6"/>
							
								<line fill="none" stroke="#01192B" stroke-width="0.2105" stroke-linecap="round" stroke-miterlimit="1" x1="91.1" y1="44.4" x2="92.1" y2="43.8"/>
							
								<line fill="none" stroke="#01192B" stroke-width="0.2105" stroke-linecap="round" stroke-miterlimit="1" x1="85.5" y1="46.1" x2="84.6" y2="45.1"/>
							
								<line fill="none" stroke="#01192B" stroke-width="0.2105" stroke-linecap="round" stroke-miterlimit="1" x1="97.5" y1="44.9" x2="96.9" y2="43.8"/>
							
								<line fill="none" stroke="#01192B" stroke-width="0.2105" stroke-linecap="round" stroke-miterlimit="1" x1="75" y1="35.6" x2="75.4" y2="36.9"/>
							
								<line fill="none" stroke="#01192B" stroke-width="0.2105" stroke-linecap="round" stroke-miterlimit="1" x1="75.2" y1="28.3" x2="74.2" y2="28.9"/>
							
								<line fill="none" stroke="#01192B" stroke-width="0.2105" stroke-linecap="round" stroke-miterlimit="1" x1="86.9" y1="21.5" x2="87.9" y2="20.8"/>
							
								<line fill="none" stroke="#01192B" stroke-width="0.2105" stroke-linecap="round" stroke-miterlimit="1" x1="81.1" y1="21.5" x2="80.4" y2="20.4"/>
							
								<line fill="none" stroke="#01192B" stroke-width="0.2105" stroke-linecap="round" stroke-miterlimit="1" x1="78.6" y1="26" x2="78.1" y2="24.8"/>
							
								<line fill="none" stroke="#01192B" stroke-width="0.2105" stroke-linecap="round" stroke-miterlimit="1" x1="77.9" y1="35.4" x2="76.9" y2="34.5"/>
							
								<line fill="none" stroke="#01192B" stroke-width="0.2105" stroke-linecap="round" stroke-miterlimit="1" x1="76.4" y1="29.7" x2="77" y2="28.2"/>
							
								<line fill="none" stroke="#01192B" stroke-width="0.2105" stroke-linecap="round" stroke-miterlimit="1" x1="76.9" y1="22.1" x2="76.2" y2="21"/>
							
								<line fill="none" stroke="#01192B" stroke-width="0.2105" stroke-linecap="round" stroke-miterlimit="1" x1="96.1" y1="42.2" x2="96.8" y2="41.1"/>
							
								<line fill="none" stroke="#01192B" stroke-width="0.2105" stroke-linecap="round" stroke-miterlimit="1" x1="88.4" y1="42.8" x2="89.2" y2="41.9"/>
							
								<line fill="none" stroke="#01192B" stroke-width="0.2105" stroke-linecap="round" stroke-miterlimit="1" x1="80.6" y1="38.4" x2="79.8" y2="37.5"/>
							
								<line fill="none" stroke="#01192B" stroke-width="0.2105" stroke-linecap="round" stroke-miterlimit="1" x1="96.4" y1="33.2" x2="95.3" y2="34.4"/>
							
								<line fill="none" stroke="#01192B" stroke-width="0.2105" stroke-linecap="round" stroke-miterlimit="1" x1="93.7" y1="26.5" x2="95.2" y2="27"/>
							
								<line fill="none" stroke="#01192B" stroke-width="0.2105" stroke-linecap="round" stroke-miterlimit="1" x1="91.1" y1="21.4" x2="92.1" y2="20.8"/>
							
								<line fill="none" stroke="#01192B" stroke-width="0.2105" stroke-linecap="round" stroke-miterlimit="1" x1="85.2" y1="23.6" x2="84.4" y2="22.7"/>
							
								<line fill="none" stroke="#01192B" stroke-width="0.2105" stroke-linecap="round" stroke-miterlimit="1" x1="83" y1="24.6" x2="81.3" y2="24.1"/>
							
								<line fill="none" stroke="#01192B" stroke-width="0.2105" stroke-linecap="round" stroke-miterlimit="1" x1="82.6" y1="26.6" x2="81.4" y2="25.7"/>
							
								<line fill="none" stroke="#01192B" stroke-width="0.2105" stroke-linecap="round" stroke-miterlimit="1" x1="89.9" y1="25.9" x2="89.4" y2="24.6"/>
							
								<line fill="none" stroke="#01192B" stroke-width="0.2105" stroke-linecap="round" stroke-miterlimit="1" x1="93.6" y1="25.3" x2="93" y2="24.2"/>
							
								<line fill="none" stroke="#01192B" stroke-width="0.2105" stroke-linecap="round" stroke-miterlimit="1" x1="90.4" y1="28.2" x2="89.5" y2="27.5"/>
							
								<line fill="none" stroke="#01192B" stroke-width="0.2105" stroke-linecap="round" stroke-miterlimit="1" x1="92.2" y1="34.9" x2="93.1" y2="34"/>
							
								<line fill="none" stroke="#01192B" stroke-width="0.2105" stroke-linecap="round" stroke-miterlimit="1" x1="94.6" y1="40.2" x2="93.5" y2="39.4"/>
							
								<line fill="none" stroke="#01192B" stroke-width="0.2105" stroke-linecap="round" stroke-miterlimit="1" x1="90.6" y1="40.8" x2="89.7" y2="40.2"/>
							
								<line fill="none" stroke="#01192B" stroke-width="0.2105" stroke-linecap="round" stroke-miterlimit="1" x1="92" y1="28.9" x2="92" y2="30.4"/>
							
								<line fill="none" stroke="#01192B" stroke-width="0.2105" stroke-linecap="round" stroke-miterlimit="1" x1="85.3" y1="29.6" x2="86.2" y2="28.4"/>
							
								<line fill="none" stroke="#01192B" stroke-width="0.2105" stroke-linecap="round" stroke-miterlimit="1" x1="79.4" y1="32.8" x2="79.4" y2="31.4"/>
							
								<line fill="none" stroke="#01192B" stroke-width="0.2105" stroke-linecap="round" stroke-miterlimit="1" x1="84.6" y1="32.2" x2="83.7" y2="31.4"/>
							
								<line fill="none" stroke="#01192B" stroke-width="0.2105" stroke-linecap="round" stroke-miterlimit="1" x1="89.3" y1="32.1" x2="88.3" y2="31.4"/>
							
								<line fill="none" stroke="#01192B" stroke-width="0.2105" stroke-linecap="round" stroke-miterlimit="1" x1="89.8" y1="38" x2="89.8" y2="36.6"/>
							
								<line fill="none" stroke="#01192B" stroke-width="0.2105" stroke-linecap="round" stroke-miterlimit="1" x1="87.3" y1="35.3" x2="87.9" y2="36.3"/>
							
								<line fill="none" stroke="#01192B" stroke-width="0.2105" stroke-linecap="round" stroke-miterlimit="1" x1="82" y1="35.3" x2="81.5" y2="34.3"/>
							
								<line fill="none" stroke="#01192B" stroke-width="0.2105" stroke-linecap="round" stroke-miterlimit="1" x1="83.2" y1="38.5" x2="83.8" y2="37.6"/>
							
								<line fill="none" stroke="#01192B" stroke-width="0.2105" stroke-linecap="round" stroke-miterlimit="1" x1="86.2" y1="38" x2="85.2" y2="38"/>
							
								<line fill="none" stroke="#01192B" stroke-width="0.2105" stroke-linecap="round" stroke-miterlimit="1" x1="83.9" y1="18.8" x2="83.4" y2="17.4"/>
							
								<line fill="none" stroke="#01192B" stroke-width="0.2105" stroke-linecap="round" stroke-miterlimit="1" x1="99.4" y1="26" x2="99" y2="24.8"/>
							
								<line fill="none" stroke="#01192B" stroke-width="0.2105" stroke-linecap="round" stroke-miterlimit="1" x1="97.7" y1="22.1" x2="97.1" y2="21"/>
							
								<line fill="none" stroke="#01192B" stroke-width="0.2105" stroke-linecap="round" stroke-miterlimit="1" x1="73.7" y1="20.1" x2="74.4" y2="19.5"/>
							
								<line fill="none" stroke="#01192B" stroke-width="0.2105" stroke-linecap="round" stroke-miterlimit="1" x1="74.9" y1="6.7" x2="75.6" y2="7.8"/>
							
								<line fill="none" stroke="#01192B" stroke-width="0.2105" stroke-linecap="round" stroke-miterlimit="1" x1="74.7" y1="14.3" x2="73.6" y2="14.3"/>
							
								<line fill="none" stroke="#01192B" stroke-width="0.2105" stroke-linecap="round" stroke-miterlimit="1" x1="77.9" y1="12.2" x2="76.9" y2="11.2"/>
							
								<line fill="none" stroke="#01192B" stroke-width="0.2105" stroke-linecap="round" stroke-miterlimit="1" x1="76.4" y1="6.5" x2="77" y2="4.9"/>
							
								<line fill="none" stroke="#01192B" stroke-width="0.2105" stroke-linecap="round" stroke-miterlimit="1" x1="96.1" y1="19" x2="96.8" y2="17.8"/>
							
								<line fill="none" stroke="#01192B" stroke-width="0.2105" stroke-linecap="round" stroke-miterlimit="1" x1="88.4" y1="19.6" x2="89.2" y2="18.6"/>
							
								<line fill="none" stroke="#01192B" stroke-width="0.2105" stroke-linecap="round" stroke-miterlimit="1" x1="80.6" y1="15.2" x2="79.8" y2="14.2"/>
							
								<line fill="none" stroke="#01192B" stroke-width="0.2105" stroke-linecap="round" stroke-miterlimit="1" x1="96.4" y1="9.9" x2="95.3" y2="11.1"/>
							
								<line fill="none" stroke="#01192B" stroke-width="0.2105" stroke-linecap="round" stroke-miterlimit="1" x1="83.3" y1="4.9" x2="82.6" y2="4.2"/>
							
								<line fill="none" stroke="#01192B" stroke-width="0.2105" stroke-linecap="round" stroke-miterlimit="1" x1="95.2" y1="9.1" x2="93.9" y2="9.1"/>
							
								<line fill="none" stroke="#01192B" stroke-width="0.2105" stroke-linecap="round" stroke-miterlimit="1" x1="95.5" y1="14.3" x2="94.4" y2="14.3"/>
							
								<line fill="none" stroke="#01192B" stroke-width="0.2105" stroke-linecap="round" stroke-miterlimit="1" x1="90.2" y1="15.9" x2="91.3" y2="15.9"/>
							
								<line fill="none" stroke="#01192B" stroke-width="0.2105" stroke-linecap="round" stroke-miterlimit="1" x1="92.4" y1="8.7" x2="91" y2="9.6"/>
							
								<line fill="none" stroke="#01192B" stroke-width="0.2105" stroke-linecap="round" stroke-miterlimit="1" x1="86.9" y1="4.7" x2="87.9" y2="4.7"/>
							<path fill="none" stroke="#01192B" stroke-width="0.2105" stroke-linecap="round" stroke-miterlimit="1" d="M83.7,8.1"/>
							
								<line fill="none" stroke="#01192B" stroke-width="0.2105" stroke-linecap="round" stroke-miterlimit="1" x1="99.4" y1="33.1" x2="98.3" y2="33.1"/>
							
								<line fill="none" stroke="#01192B" stroke-width="0.2105" stroke-linecap="round" stroke-miterlimit="1" x1="98" y1="32.2" x2="96.9" y2="31.5"/>
							
								<line fill="none" stroke="#01192B" stroke-width="0.2105" stroke-linecap="round" stroke-miterlimit="1" x1="75.6" y1="9.9" x2="74.5" y2="11.1"/>
							
								<line fill="none" stroke="#01192B" stroke-width="0.2105" stroke-linecap="round" stroke-miterlimit="1" x1="79.4" y1="9.6" x2="79.4" y2="8.1"/>
							
								<line fill="none" stroke="#01192B" stroke-width="0.2105" stroke-linecap="round" stroke-miterlimit="1" x1="88.4" y1="11.1" x2="89.2" y2="10.1"/>
							
								<line fill="none" stroke="#01192B" stroke-width="0.2105" stroke-linecap="round" stroke-miterlimit="1" x1="87.4" y1="17.2" x2="88.3" y2="16.7"/>
							
								<line fill="none" stroke="#01192B" stroke-width="0.2105" stroke-linecap="round" stroke-miterlimit="1" x1="79.6" y1="12.7" x2="79.6" y2="11.4"/>
							
								<line fill="none" stroke="#01192B" stroke-width="0.2105" stroke-linecap="round" stroke-miterlimit="1" x1="81.7" y1="16.6" x2="82.7" y2="16"/>
							
								<line fill="none" stroke="#01192B" stroke-width="0.2105" stroke-linecap="round" stroke-miterlimit="1" x1="85.5" y1="17" x2="84.4" y2="16.1"/>
							
								<line fill="none" stroke="#01192B" stroke-width="0.2105" stroke-linecap="round" stroke-miterlimit="1" x1="98.8" y1="12.2" x2="97.6" y2="11.2"/>
							
								<line fill="none" stroke="#01192B" stroke-width="0.2105" stroke-linecap="round" stroke-miterlimit="1" x1="97.1" y1="6.8" x2="97.6" y2="5.4"/>
							
								<line fill="none" stroke="#01192B" stroke-width="0.2105" stroke-linecap="round" stroke-miterlimit="1" x1="100.3" y1="8.7" x2="100.8" y2="7.5"/>
							
								<line fill="none" stroke="#01192B" stroke-width="0.2105" stroke-linecap="round" stroke-miterlimit="1" x1="84.6" y1="44.3" x2="85.1" y2="43.2"/>
						</g>
					</g>
				</g>
			</g>
		</g>
		<g>
			<g>
				<g id="图层_5_1_">
					<g opacity="0.6">
						<g>
							
								<line fill="none" stroke="#01192B" stroke-width="0.2105" stroke-linecap="round" stroke-miterlimit="1" x1="28.9" y1="59.2" x2="29.6" y2="58.1"/>
							
								<line fill="none" stroke="#01192B" stroke-width="0.2105" stroke-linecap="round" stroke-miterlimit="1" x1="40.5" y1="53.5" x2="41.3" y2="52.5"/>
							
								<line fill="none" stroke="#01192B" stroke-width="0.2105" stroke-linecap="round" stroke-miterlimit="1" x1="35.9" y1="57.1" x2="34.8" y2="56.5"/>
							
								<line fill="none" stroke="#01192B" stroke-width="0.2105" stroke-linecap="round" stroke-miterlimit="1" x1="46.7" y1="51.5" x2="45.7" y2="50.7"/>
							
								<line fill="none" stroke="#01192B" stroke-width="0.2105" stroke-linecap="round" stroke-miterlimit="1" x1="22.3" y1="51.3" x2="23.1" y2="52.3"/>
							
								<line fill="none" stroke="#01192B" stroke-width="0.2105" stroke-linecap="round" stroke-miterlimit="1" x1="19.7" y1="44.5" x2="19.1" y2="45.4"/>
							
								<line fill="none" stroke="#01192B" stroke-width="0.2105" stroke-linecap="round" stroke-miterlimit="1" x1="28.1" y1="33.8" x2="28.7" y2="32.7"/>
							
								<line fill="none" stroke="#01192B" stroke-width="0.2105" stroke-linecap="round" stroke-miterlimit="1" x1="22.7" y1="35.9" x2="21.6" y2="35.2"/>
							
								<line fill="none" stroke="#01192B" stroke-width="0.2105" stroke-linecap="round" stroke-miterlimit="1" x1="22" y1="41.1" x2="21.2" y2="40.1"/>
							
								<line fill="none" stroke="#01192B" stroke-width="0.2105" stroke-linecap="round" stroke-miterlimit="1" x1="25" y1="50.1" x2="23.6" y2="49.6"/>
							
								<line fill="none" stroke="#01192B" stroke-width="0.2105" stroke-linecap="round" stroke-miterlimit="1" x1="21.4" y1="45.3" x2="21.4" y2="43.7"/>
							
								<line fill="none" stroke="#01192B" stroke-width="0.2105" stroke-linecap="round" stroke-miterlimit="1" x1="19" y1="38.1" x2="18" y2="37.3"/>
							
								<line fill="none" stroke="#01192B" stroke-width="0.2105" stroke-linecap="round" stroke-miterlimit="1" x1="44.3" y1="49.6" x2="44.6" y2="48.2"/>
							
								<line fill="none" stroke="#01192B" stroke-width="0.2105" stroke-linecap="round" stroke-miterlimit="1" x1="37.5" y1="53" x2="37.8" y2="51.8"/>
							
								<line fill="none" stroke="#01192B" stroke-width="0.2105" stroke-linecap="round" stroke-miterlimit="1" x1="28.5" y1="51.8" x2="27.5" y2="51.2"/>
							
								<line fill="none" stroke="#01192B" stroke-width="0.2105" stroke-linecap="round" stroke-miterlimit="1" x1="41.2" y1="41.1" x2="40.7" y2="42.6"/>
							
								<line fill="none" stroke="#01192B" stroke-width="0.2105" stroke-linecap="round" stroke-miterlimit="1" x1="36.3" y1="35.9" x2="37.8" y2="35.8"/>
							
								<line fill="none" stroke="#01192B" stroke-width="0.2105" stroke-linecap="round" stroke-miterlimit="1" x1="31.9" y1="32.1" x2="32.7" y2="31.2"/>
							
								<line fill="none" stroke="#01192B" stroke-width="0.2105" stroke-linecap="round" stroke-miterlimit="1" x1="27.3" y1="36.4" x2="26.2" y2="35.8"/>
							
								<line fill="none" stroke="#01192B" stroke-width="0.2105" stroke-linecap="round" stroke-miterlimit="1" x1="25.6" y1="38.1" x2="23.9" y2="38.3"/>
							
								<line fill="none" stroke="#01192B" stroke-width="0.2105" stroke-linecap="round" stroke-miterlimit="1" x1="26" y1="40.1" x2="24.6" y2="39.7"/>
							
								<line fill="none" stroke="#01192B" stroke-width="0.2105" stroke-linecap="round" stroke-miterlimit="1" x1="32.5" y1="36.8" x2="31.5" y2="35.7"/>
							
								<line fill="none" stroke="#01192B" stroke-width="0.2105" stroke-linecap="round" stroke-miterlimit="1" x1="35.7" y1="34.8" x2="34.7" y2="34.1"/>
							
								<line fill="none" stroke="#01192B" stroke-width="0.2105" stroke-linecap="round" stroke-miterlimit="1" x1="33.8" y1="38.7" x2="32.7" y2="38.3"/>
							
								<line fill="none" stroke="#01192B" stroke-width="0.2105" stroke-linecap="round" stroke-miterlimit="1" x1="38" y1="44.2" x2="38.5" y2="43.1"/>
							
								<line fill="none" stroke="#01192B" stroke-width="0.2105" stroke-linecap="round" stroke-miterlimit="1" x1="42.2" y1="48.3" x2="40.9" y2="47.9"/>
							
								<line fill="none" stroke="#01192B" stroke-width="0.2105" stroke-linecap="round" stroke-miterlimit="1" x1="38.8" y1="50.3" x2="37.7" y2="50.1"/>
							
								<line fill="none" stroke="#01192B" stroke-width="0.2105" stroke-linecap="round" stroke-miterlimit="1" x1="35.6" y1="38.7" x2="36.2" y2="40.2"/>
							
								<line fill="none" stroke="#01192B" stroke-width="0.2105" stroke-linecap="round" stroke-miterlimit="1" x1="29.7" y1="41.9" x2="30" y2="40.5"/>
							
								<line fill="none" stroke="#01192B" stroke-width="0.2105" stroke-linecap="round" stroke-miterlimit="1" x1="25.4" y1="47.1" x2="24.8" y2="45.8"/>
							
								<line fill="none" stroke="#01192B" stroke-width="0.2105" stroke-linecap="round" stroke-miterlimit="1" x1="30" y1="44.6" x2="28.8" y2="44.2"/>
							
								<line fill="none" stroke="#01192B" stroke-width="0.2105" stroke-linecap="round" stroke-miterlimit="1" x1="34.2" y1="42.7" x2="33.1" y2="42.4"/>
							
								<line fill="none" stroke="#01192B" stroke-width="0.2105" stroke-linecap="round" stroke-miterlimit="1" x1="36.9" y1="48" x2="36.4" y2="46.7"/>
							
								<line fill="none" stroke="#01192B" stroke-width="0.2105" stroke-linecap="round" stroke-miterlimit="1" x1="33.6" y1="46.5" x2="34.5" y2="47.1"/>
							
								<line fill="none" stroke="#01192B" stroke-width="0.2105" stroke-linecap="round" stroke-miterlimit="1" x1="28.7" y1="48.5" x2="27.9" y2="47.6"/>
							
								<line fill="none" stroke="#01192B" stroke-width="0.2105" stroke-linecap="round" stroke-miterlimit="1" x1="31" y1="51" x2="31.2" y2="49.9"/>
							
								<line fill="none" stroke="#01192B" stroke-width="0.2105" stroke-linecap="round" stroke-miterlimit="1" x1="33.6" y1="49.3" x2="32.7" y2="49.7"/>
							
								<line fill="none" stroke="#01192B" stroke-width="0.2105" stroke-linecap="round" stroke-miterlimit="1" x1="24.2" y1="32.4" x2="23.4" y2="31.3"/>
							
								<line fill="none" stroke="#01192B" stroke-width="0.2105" stroke-linecap="round" stroke-miterlimit="1" x1="41.4" y1="33.3" x2="40.6" y2="32.4"/>
							
								<line fill="none" stroke="#01192B" stroke-width="0.2105" stroke-linecap="round" stroke-miterlimit="1" x1="38.4" y1="30.3" x2="37.4" y2="29.5"/>
							
								<line fill="none" stroke="#01192B" stroke-width="0.2105" stroke-linecap="round" stroke-miterlimit="1" x1="15.3" y1="37.4" x2="15.8" y2="36.6"/>
							
								<line fill="none" stroke="#01192B" stroke-width="0.2105" stroke-linecap="round" stroke-miterlimit="1" x1="11.4" y1="24.6" x2="12.5" y2="25.3"/>
							
								<line fill="none" stroke="#01192B" stroke-width="0.2105" stroke-linecap="round" stroke-miterlimit="1" x1="14.1" y1="31.7" x2="13.1" y2="32.1"/>
							
								<line fill="none" stroke="#01192B" stroke-width="0.2105" stroke-linecap="round" stroke-miterlimit="1" x1="16.3" y1="28.5" x2="14.9" y2="28"/>
							
								<line fill="none" stroke="#01192B" stroke-width="0.2105" stroke-linecap="round" stroke-miterlimit="1" x1="12.8" y1="23.7" x2="12.7" y2="22.1"/>
							
								<line fill="none" stroke="#01192B" stroke-width="0.2105" stroke-linecap="round" stroke-miterlimit="1" x1="35.6" y1="28" x2="35.9" y2="26.7"/>
							
								<line fill="none" stroke="#01192B" stroke-width="0.2105" stroke-linecap="round" stroke-miterlimit="1" x1="28.8" y1="31.4" x2="29.1" y2="30.3"/>
							
								<line fill="none" stroke="#01192B" stroke-width="0.2105" stroke-linecap="round" stroke-miterlimit="1" x1="19.9" y1="30.3" x2="18.8" y2="29.7"/>
							
								<line fill="none" stroke="#01192B" stroke-width="0.2105" stroke-linecap="round" stroke-miterlimit="1" x1="32.5" y1="19.5" x2="32" y2="21"/>
							
								<line fill="none" stroke="#01192B" stroke-width="0.2105" stroke-linecap="round" stroke-miterlimit="1" x1="18.6" y1="19.7" x2="17.6" y2="19.3"/>
							
								<line fill="none" stroke="#01192B" stroke-width="0.2105" stroke-linecap="round" stroke-miterlimit="1" x1="31.2" y1="19.2" x2="30" y2="19.7"/>
							
								<line fill="none" stroke="#01192B" stroke-width="0.2105" stroke-linecap="round" stroke-miterlimit="1" x1="33.4" y1="23.9" x2="32.3" y2="24.4"/>
							
								<line fill="none" stroke="#01192B" stroke-width="0.2105" stroke-linecap="round" stroke-miterlimit="1" x1="29.1" y1="27.3" x2="30.1" y2="26.9"/>
							
								<line fill="none" stroke="#01192B" stroke-width="0.2105" stroke-linecap="round" stroke-miterlimit="1" x1="28.5" y1="19.9" x2="27.4" y2="21.2"/>
							
								<line fill="none" stroke="#01192B" stroke-width="0.2105" stroke-linecap="round" stroke-miterlimit="1" x1="21.8" y1="18.2" x2="22.7" y2="17.8"/>
							<path fill="none" stroke="#01192B" stroke-width="0.2105" stroke-linecap="round" stroke-miterlimit="1" d="M20.1,22.6"/>
							
								<line fill="none" stroke="#01192B" stroke-width="0.2105" stroke-linecap="round" stroke-miterlimit="1" x1="44" y1="39.8" x2="43" y2="40.3"/>
							
								<line fill="none" stroke="#01192B" stroke-width="0.2105" stroke-linecap="round" stroke-miterlimit="1" x1="42.3" y1="39.6" x2="41.1" y2="39.3"/>
							
								<line fill="none" stroke="#01192B" stroke-width="0.2105" stroke-linecap="round" stroke-miterlimit="1" x1="13.3" y1="27.3" x2="12.7" y2="28.8"/>
							
								<line fill="none" stroke="#01192B" stroke-width="0.2105" stroke-linecap="round" stroke-miterlimit="1" x1="16.7" y1="25.5" x2="16.1" y2="24.2"/>
							
								<line fill="none" stroke="#01192B" stroke-width="0.2105" stroke-linecap="round" stroke-miterlimit="1" x1="25.6" y1="23.6" x2="25.9" y2="22.3"/>
							
								<line fill="none" stroke="#01192B" stroke-width="0.2105" stroke-linecap="round" stroke-miterlimit="1" x1="26.9" y1="29.6" x2="27.6" y2="28.8"/>
							
								<line fill="none" stroke="#01192B" stroke-width="0.2105" stroke-linecap="round" stroke-miterlimit="1" x1="18" y1="28.3" x2="17.5" y2="27.1"/>
							
								<line fill="none" stroke="#01192B" stroke-width="0.2105" stroke-linecap="round" stroke-miterlimit="1" x1="21.5" y1="31.2" x2="22.1" y2="30.3"/>
							
								<line fill="none" stroke="#01192B" stroke-width="0.2105" stroke-linecap="round" stroke-miterlimit="1" x1="25" y1="30.1" x2="23.8" y2="29.7"/>
							
								<line fill="none" stroke="#01192B" stroke-width="0.2105" stroke-linecap="round" stroke-miterlimit="1" x1="35.7" y1="20.7" x2="34.2" y2="20.3"/>
							
								<line fill="none" stroke="#01192B" stroke-width="0.2105" stroke-linecap="round" stroke-miterlimit="1" x1="32.1" y1="16.4" x2="32" y2="14.8"/>
							
								<line fill="none" stroke="#01192B" stroke-width="0.2105" stroke-linecap="round" stroke-miterlimit="1" x1="35.7" y1="16.9" x2="35.8" y2="15.6"/>
							
								<line fill="none" stroke="#01192B" stroke-width="0.2105" stroke-linecap="round" stroke-miterlimit="1" x1="34.4" y1="55.8" x2="34.5" y2="54.6"/>
						</g>
					</g>
				</g>
			</g>
		</g>
	</g>
	<path stroke="#000000" fill="#000000" stroke-width="0.5324" d="M116.8,62L116.8,62c-1-1-2.1-2.3-2.5-3c-3.3-7.7-8.3-10.3-14.2-14l1.7-35.4c0,0-0.1-0.9,0.5-1.3c0.9-0.6,1.5-1.1,1.5-1.7
		c0-2.3-7.7-4.1-17.1-4.1c-9.4,0-17.1,1.8-17.1,4.1c0,0.6,0.6,1.1,1.5,1.7c0.5,0.3,0.4,1.2,0.4,1.2l1.8,35.7
		c-5.8,3.8-10.6,6.3-13.8,13.9c-0.4,0.9-1.1,1.9-1.7,2.2c-5.3,2.8-5.6-9.7-9.1-12.2c0,0,0,0,0,0l0,0c-0.1-0.1-0.3-0.2-0.4-0.3
		L37.7,16.7c0,0-0.4-0.8,0-1.3c0.6-0.9,1-1.6,0.8-2.1c-0.8-2.1-8.6-0.8-17.3,2.9C12.5,19.9,6,24.6,6.8,26.7c0.2,0.6,0.9,0.8,2,1
		c0.5,0.1,0.8,0.9,0.8,0.9l13.7,30.8c-0.7,1.3,0.4,3.4,0.7,4.2c1.5,3.8,1.8,5.1,3.2,11.3c1.7,7.8,1.6,17.8-0.8,25.6
		c-2.2,6.8-3.4,14.1-3.4,21.7c0,37.5,28.9,67.9,64.5,67.9c35.6,0,64.5-30.3,64.5-67.8C151.9,96,137.7,74,116.8,62z M86.7,3.5
		c6.3,0,10.8,0.8,13.5,1.6C98.6,6,93.3,6.7,87,6.7C80.3,6.7,74.7,6,73.6,5C76.2,4.2,80.6,3.5,86.7,3.5z M71.6,7.5
		c-1-0.6-1-0.8-1-0.8c0-0.3,0.7-0.8,2-1.3c1.5,2,9.4,2.4,14.4,2.4c4.8,0,12.4-0.3,14.2-2.2c1.1,0.4,1.6,0.8,1.6,1.1
		c0,0.1-0.2,0.3-1,0.8c-0.5,0.4-0.8,0.9-0.9,1.4c-2.8,1-7.9,1.8-14.3,1.8c-6.3,0-11.3-0.8-14.1-1.8C72.4,8.4,72.2,7.8,71.6,7.5z
		 M72.5,9.5c0-0.1,0-0.2,0-0.3c3.1,1,8.2,1.7,14.1,1.7c6,0,11.2-0.7,14.2-1.8c0,0.2,0,0.4,0,0.5c0,0-1.6,30.8-1.8,35
		c-1.6-1.1-6.6-2-12.4-2c-5.8,0-10.6,0.8-12.3,1.9L72.5,9.5z M99,44.8c0,0.1,0,0.2,0,0.2c-0.6,0.8-5,2.3-12.3,2.2
		C77.9,47.1,74.3,45,74.3,45l0-0.3c1.4-1,6.1-1.9,12.3-1.9C93,42.8,97.7,43.7,99,44.8z M21.6,17.1c4.6-1.9,9-3.3,12.2-3.7
		c-2,1.4-5.6,3.4-10.8,5.6c-5.5,2.4-9.9,3.7-12.3,4.1C12.9,21.4,16.5,19.2,21.6,17.1z M9,26.7c-1-0.1-1.2-0.3-1.2-0.4
		c-0.1-0.3,0.4-1.1,1.5-2.1c2.3,0,7.8-1.7,14.1-4.3c5.6-2.4,10.3-5,12.3-6.7c0,0,0.1,0,0.1,0c1.3,0,1.8,0.3,1.8,0.4
		c0,0.1-0.1,0.4-0.7,1.2c-0.4,0.6-0.4,1.2-0.3,1.6c-1.7,1.5-5.8,4-12.4,6.8c-6,2.6-11.7,4.3-14,4.3C10,27.2,9.6,26.8,9,26.7z
		 M10.6,28.2c0-0.1-0.1-0.3-0.2-0.5c2.4-0.1,7.8-1.7,14-4.3c5.7-2.5,10.4-5.1,12.4-6.8c0,0.2,0.1,0.3,0.1,0.4l10.4,32.3
		c-0.4-0.1-0.9-0.1-1.5-0.1c-2.7,0-6.8,1.2-11,3c-3.3,1.4-6.2,3.1-8.2,4.8c-1,0.8-1.7,1.6-2.2,2.3L10.6,28.2z M24.3,59.9L24.3,59.9
		c1-2.1,5.2-5.1,10.6-7.5c5.3-2.3,10.2-3.4,12.4-2.8c0,0,0.6,0.3,0.7,0.5c0,0,0.3,0.4,0.3,0.4c0.4,1-3,4.7-10.7,8
		c-4.1,1.7-8.1,2.8-10.9,2.8c-1.1,0-2-0.2-2.5-0.5C24.2,60.4,24.2,60.1,24.3,59.9z M87.5,189.1c-35,0-63.5-30-63.5-66.9
		c0-7.3,1.1-14.6,3.3-21.4c2.4-7.5,2.7-17.5,0.9-26.1c-1.4-6.2-1.7-7.5-3.2-11.4c0-0.1-0.1-0.3-0.2-0.4c-0.1-0.3-0.3-0.6-0.4-1
		c2.3,0.9,7.7,0,13.5-2.5c5.8-2.4,10.2-5.6,11.2-7.9c0.6,1.1,1.2,2.7,1.6,4.1c1.2,3.6,2.5,7.3,5.5,7.3c0,0,0,0,0,0
		c0.6,0,1.3-0.2,1.9-0.5c0.9-0.5,1.8-1.7,2.2-2.7c2.8-6.5,6.7-9.1,11.6-12.3c0.6-0.4,1.2-0.8,1.8-1.2L74,46
		c1.7,1.3,6.7,2.2,12.6,2.2c6.2,0,11.4-1,12.9-2.4c0.5,0.3,1.2,0.7,1.5,0.9c5.3,3.3,9.4,5.9,12.4,12.6c0.1,0.3,0.5,1.1,2.7,3.3
		l0.1,0.1l0.1,0.1c21.7,12.5,34.6,34.7,34.6,59.5C150.9,159.2,122.5,189.1,87.5,189.1z"/>
</g>
</svg>
