<?xml version="1.0" encoding="utf-8"?>
<!-- Generator: Adobe Illustrator 21.0.0, SVG Export Plug-In . SVG Version: 6.00 Build 0)  -->
<svg version="1.1" id="图层_1" xmlns="http://www.w3.org/2000/svg" xmlns:xlink="http://www.w3.org/1999/xlink" x="0px" y="0px" width="160" height ="192"
	 viewBox="0 0 160 192" style="enable-background:new 0 0 160 192;" xml:space="preserve">
<style type="text/css">
	.st0{display:none;}
	.st1{display:inline;}
	.st2{fill:url(#SVGID_1_);}
	.st3{fill:url(#SVGID_2_);}
	.st4{fill:none;stroke:#000000;stroke-width:0.2074;}
	.st5{fill:url(#SVGID_3_);}
	.st6{fill:url(#SVGID_4_);}
	.st7{opacity:0.6;}
	.st8{fill:none;stroke:#01192B;stroke-width:0.2105;stroke-linecap:round;stroke-miterlimit:1;}
	.st9{fill:url(#SVGID_5_);}
	.st10{fill:url(#SVGID_6_);}
	.st11{fill:none;stroke:#000000;stroke-width:0.2058;stroke-linecap:round;stroke-miterlimit:1;}
	.st12{fill:url(#SVGID_7_);}
	.st13{fill:url(#SVGID_8_);}
	.st14{fill:none;stroke:#000000;stroke-width:0.2219;stroke-linecap:round;stroke-miterlimit:1;}
	.st15{fill:url(#SVGID_9_);}
	.st16{fill:url(#SVGID_10_);}
	.st17{fill:none;stroke:#000000;stroke-width:0.2549;}
	.st18{fill:url(#SVGID_11_);}
	.st19{fill:url(#SVGID_12_);}
	.st20{fill:none;stroke:#000000;stroke-width:0.2035;}
	.st21{fill:url(#SVGID_13_);}
	.st22{fill:url(#SVGID_14_);}
	.st23{fill:none;}
	.st24{fill:none;stroke:#000000;stroke-width:0.2084;}
	.st25{fill:url(#SVGID_15_);}
	.st26{fill:url(#SVGID_16_);}
	.st27{fill:url(#SVGID_17_);}
	.st28{fill:url(#SVGID_18_);}
	.st29{fill:none;stroke:#000000;stroke-width:0.2319;}
	.st30{fill:#020202;}
	.st31{fill:url(#SVGID_19_);}
	.st32{fill:url(#SVGID_20_);}
	.st33{fill:url(#SVGID_21_);}
	.st34{fill:url(#SVGID_22_);}
	.st35{fill:none;stroke:#000000;stroke-width:0.1439;}
	.st36{fill:none;stroke:#000000;stroke-width:0.2117;}
	.st37{fill:url(#SVGID_23_);}
	.st38{fill:url(#SVGID_24_);}
	.st39{fill:none;stroke:#000000;stroke-width:0.1431;}
	.st40{fill:none;stroke:#000000;stroke-width:0.1447;}
	.st41{fill:none;stroke:#000000;stroke-width:0.1421;}
	.st42{fill:none;stroke:#000000;stroke-width:0.2324;stroke-linecap:round;stroke-miterlimit:1;}
	.st43{fill:none;stroke:#000000;stroke-width:0.2112;stroke-linecap:round;stroke-miterlimit:1;}
	.st44{fill:none;stroke:#000000;stroke-width:0.2377;stroke-linecap:round;stroke-miterlimit:1;}
</style>
<g id="图层_17">
	<g fill="#000000" stroke-width="0.2324">
		<path d="M144.5,110.4l-40.1-14.9l-0.4,0.3c-1.4,1-2.4,1.1-2.8,1.1c0,0,0,0-0.1,0L54.7,84.3c0,0-3.7-1.2-3.7-3.7V80V69.3
			c0-0.9,0.9-1.9,2-3c1.8-1.9,4.3-4.4,4.3-8.7c0-0.8-0.7-5.1-2.7-7.4L57,11.1V11c0-0.1-0.1-0.4,0-0.5c1-0.6,2.2-1.4,2.2-2.8
			C59.2,3.2,44.5,2,36.8,2S14.3,3.2,14.3,7.8c0,1.3,1.2,2.2,2.3,2.8c0,0.1,0.1,0.4,0.1,0.6l2.2,39c-2.1,2.2-3.1,6.5-3.1,7.5
			c0,4.3,2.5,6.8,4.2,8.7c1.1,1.2,2,2.1,2,3V138l-3.2,2.7l5.3,46.3c0.2,2.7,9.2,3,13.1,3s12.9-0.3,12.9-3l4-46.1L51,138v-21.3
			c0-4,2-4,2.7-4c0.8,0,1.5,0.2,2,0.4c0.1,0,0.2,0.1,0.2,0.1l38,10.2c0.2,0.1,1.1,0.6,2,2.4l0.2,0.4l42.5,6.8
			c2.4,0,4.7-7.4,5.5-10.6C145.1,119,146.9,111,144.5,110.4z M36.7,3c6.7,0,12.7,0.7,16.6,1.7c-0.6,1.9-7.6,3.4-16.1,3.4
			c-8.9,0-16.1-1.6-16.1-3.6C25,3.6,30.5,3,36.7,3z M17.6,10.1l-0.1-0.3l-0.3-0.2c-1.2-0.7-1.8-1.3-1.8-1.9c0-1.1,1.8-2.2,4.8-3
			c0.4,3.5,10.8,4.5,17,4.5c6,0,16-0.9,17.1-4.1c2.4,0.8,3.8,1.7,3.8,2.7c0,0.8-1,1.4-1.8,1.9c-0.5,0.3-0.6,0.9-0.7,1.2
			c-3.9,1.6-11,2.7-19,2.7s-15-1.1-18.9-2.7C17.7,10.6,17.7,10.3,17.6,10.1z M17.8,11.1L17.8,11.1c4,1.6,11.1,2.6,19.1,2.6
			S52,12.6,56,11v0.1l-2.4,38.2c-2.1-1.9-10.8-2.7-16.9-2.7c-6,0-14.6,0.7-16.8,2.6L17.8,11.1z M53.4,50.6
			c-1.2,1.5-8.2,2.7-16.7,2.7c-8.6,0-15.6-1.2-16.7-2.8v-0.7c1.1-1.6,8.2-2.8,16.7-2.8c8.6,0,15.7,1.2,16.7,2.8V50.6L53.4,50.6z
			 M49.1,186.9c0,0.1,0,0.2-0.1,0.3c-1.1,1.1-5.6,1.8-11.8,1.8c-9.1,0-12.1-1.4-12.2-2.1v-0.2c1.9-0.9,6.6-1.5,12.1-1.5
			s10.1,0.6,12.1,1.5L49.1,186.9z M49.2,186.3c-2.6-1.1-8.6-1.5-12.1-1.5c-3.6,0-9.5,0.3-12.1,1.5l-5.2-44.8
			c4.3,1.8,14.2,1.9,16.6,1.9s12.3-0.1,16.6-2L49.2,186.3z M96.6,125c-1.1-2.1-2.4-2.6-2.4-2.6s-37.2-10-38.1-10.2
			c-0.9-0.2-5.6-2.2-6.1,3.3v23l2.4,2.3c-2.8,1-8.9,1.8-16,1.8c-7.3,0-13.3-0.8-16-1.8l2.7-2.3V69.3c0-1.3-1-2.4-2.2-3.7
			c-1.6-1.7-3.8-4-3.8-8c0-0.7,0.8-4.3,2.4-6.3c2.7,3,15.7,3.1,17.4,3.1c1.6,0,14.4-0.1,17.3-3c1.6,2.1,2.2,5.7,2.2,6.3
			c0,3.7-2.2,6-3.9,7.8L52,66.2c-1,1-1.8,2-1.8,3.2v11.8c0.1,2.7,4.3,4.2,4.3,4.2c20.7,5.5,46.6,12.5,46.6,12.5s1.4,0.3,3.6-1.2
			l0.2,0.1c1,2.7,0.6,8.4-1.1,14.7C101.7,118.2,98.9,123.6,96.6,125z M138.5,132.1l-40.8-6.7c2.7-2.2,5.3-8.2,6.9-13.9
			c1.1-4.1,1.7-8.1,1.6-11.3c0-1.3-0.1-2.3-0.4-3.2l38.2,14.2c-1.6,2.7-3,6.5-4,10.2C139,125.4,138.5,129.1,138.5,132.1z
			 M143.2,122.2c-1.4,5.2-3.2,9.3-4.3,9.9c0-2.9,0.5-6.6,1.6-10.5c1.1-4,2.5-7.5,3.9-10C145,112.7,144.5,117.1,143.2,122.2z"/>
		<g>
			<g>
				<line class="st42" x1="34" y1="51.8" x2="34.7" y2="50.5"/>
				<line class="st42" x1="25.2" y1="53.1" x2="26.6" y2="52.2"/>
				<line class="st42" x1="23.4" y1="52.7" x2="22.5" y2="51.5"/>
				<line class="st42" x1="43" y1="51.8" x2="44.4" y2="51.1"/>
				<line class="st42" x1="35.2" y1="53.8" x2="34.1" y2="52.7"/>
				<line class="st42" x1="52" y1="52.4" x2="51.1" y2="51.2"/>
				<line class="st42" x1="20.7" y1="41.4" x2="21.3" y2="43"/>
				<line class="st42" x1="21" y1="32.8" x2="19.7" y2="33.5"/>
				<line class="st42" x1="37.3" y1="24.8" x2="38.6" y2="23.9"/>
				<line class="st42" x1="29.2" y1="24.7" x2="28.1" y2="23.5"/>
				<line class="st42" x1="25.7" y1="30.2" x2="25.1" y2="28.7"/>
				<line class="st42" x1="24.8" y1="41.3" x2="23.3" y2="40.1"/>
				<line class="st42" x1="22.8" y1="34.4" x2="23.6" y2="32.7"/>
				<line class="st42" x1="23.4" y1="25.5" x2="22.5" y2="24.2"/>
				<line class="st42" x1="49.9" y1="49.4" x2="50.9" y2="47.9"/>
				<line class="st42" x1="39.4" y1="50" x2="40.4" y2="49"/>
				<line class="st42" x1="28.5" y1="44.8" x2="27.5" y2="43.6"/>
				<line class="st42" x1="50.3" y1="38.6" x2="48.9" y2="40"/>
				<line class="st42" x1="46.6" y1="30.7" x2="48.6" y2="31.3"/>
				<line class="st42" x1="43" y1="24.6" x2="44.4" y2="23.9"/>
				<line class="st42" x1="34.9" y1="27.3" x2="33.8" y2="26.2"/>
				<line class="st42" x1="31.9" y1="28.4" x2="29.6" y2="27.8"/>
				<line class="st42" x1="31.3" y1="30.8" x2="29.6" y2="29.7"/>
				<line class="st42" x1="41.3" y1="29.9" x2="40.6" y2="28.4"/>
				<line class="st42" x1="46.5" y1="29.2" x2="45.7" y2="28"/>
				<line class="st42" x1="42.1" y1="32.6" x2="40.8" y2="31.8"/>
				<line class="st42" x1="44.7" y1="40.6" x2="45.8" y2="39.6"/>
				<line class="st42" x1="47.8" y1="47" x2="46.4" y2="46"/>
				<line class="st42" x1="42.4" y1="47.7" x2="41" y2="46.9"/>
				<line class="st42" x1="44.3" y1="33.5" x2="44.3" y2="35.3"/>
				<line class="st42" x1="35.2" y1="34.3" x2="36.2" y2="33"/>
				<line class="st42" x1="26.8" y1="38.1" x2="26.8" y2="36.5"/>
				<line class="st42" x1="34" y1="37.5" x2="32.7" y2="36.5"/>
				<line class="st42" x1="40.4" y1="37.3" x2="39.2" y2="36.4"/>
				<line class="st42" x1="41.2" y1="44.3" x2="41.2" y2="42.7"/>
				<line class="st42" x1="37.8" y1="41.1" x2="38.6" y2="42.3"/>
				<line class="st42" x1="30.5" y1="41.1" x2="29.8" y2="39.9"/>
				<line class="st42" x1="32.2" y1="44.9" x2="32.9" y2="43.8"/>
				<line class="st42" x1="36.3" y1="44.2" x2="35" y2="44.2"/>
				<line class="st42" x1="33.1" y1="21.6" x2="32.4" y2="20"/>
				<line class="st42" x1="54.6" y1="30.2" x2="53.9" y2="28.7"/>
				<line class="st42" x1="54.6" y1="38.4" x2="52.9" y2="38.4"/>
				<line class="st42" x1="52.5" y1="37.5" x2="51" y2="36.7"/>
				<line class="st42" x1="52.2" y1="25.5" x2="51.3" y2="24.2"/>
				<line class="st42" x1="19" y1="23.1" x2="20" y2="22.3"/>
				<line class="st42" x1="21.6" y1="11.1" x2="20.2" y2="12.4"/>
				<line class="st42" x1="20.6" y1="7.2" x2="21.6" y2="8.5"/>
				<line class="st42" x1="20.4" y1="16.3" x2="18.8" y2="16.3"/>
				<line class="st42" x1="24.8" y1="13.7" x2="23.3" y2="12.6"/>
				<line class="st42" x1="22.8" y1="6.9" x2="23.6" y2="5.2"/>
				<line class="st42" x1="49.9" y1="21.9" x2="50.9" y2="20.4"/>
				<line class="st42" x1="39.4" y1="22.5" x2="40.4" y2="21.4"/>
				<line class="st42" x1="28.5" y1="17.3" x2="27.5" y2="16.1"/>
				<line class="st42" x1="50.3" y1="11.1" x2="48.9" y2="12.4"/>
				<line class="st42" x1="32.3" y1="5.1" x2="31.2" y2="4.2"/>
				<line class="st42" x1="48.6" y1="10.1" x2="47" y2="10.1"/>
				<line class="st42" x1="49.1" y1="16.3" x2="47.5" y2="16.3"/>
				<line class="st42" x1="41.8" y1="18.2" x2="43.4" y2="18.2"/>
				<line class="st42" x1="44.8" y1="9.7" x2="42.8" y2="10.7"/>
				<line class="st42" x1="37.2" y1="4.8" x2="38.6" y2="4.8"/>
				<line class="st42" x1="26.8" y1="10.6" x2="26.8" y2="9"/>
				<line class="st42" x1="34" y1="10" x2="32.7" y2="9"/>
				<line class="st42" x1="39.4" y1="12.4" x2="40.4" y2="11.2"/>
				<line class="st42" x1="37.9" y1="19.7" x2="39.1" y2="19.1"/>
				<line class="st42" x1="36.1" y1="11.6" x2="37" y2="10.4"/>
				<line class="st42" x1="27.2" y1="14.3" x2="27.2" y2="12.8"/>
				<line class="st42" x1="30.2" y1="19" x2="31.5" y2="18.2"/>
				<line class="st42" x1="35.2" y1="19.3" x2="33.8" y2="18.4"/>
				<line class="st42" x1="53.6" y1="13.7" x2="52.2" y2="12.6"/>
				<line class="st42" x1="51.3" y1="7.5" x2="52.1" y2="5.7"/>
				<line class="st42" x1="55.7" y1="9.7" x2="56.5" y2="8.3"/>
				<line class="st42" x1="25.4" y1="174.2" x2="24.1" y2="175"/>
				<line class="st42" x1="41" y1="166.4" x2="42.3" y2="165.5"/>
				<line class="st42" x1="32.9" y1="166.3" x2="31.8" y2="165.1"/>
				<line class="st42" x1="29.4" y1="171.8" x2="28.8" y2="170.3"/>
				<line class="st42" x1="26.5" y1="184.8" x2="28.1" y2="183.5"/>
				<line class="st42" x1="26.1" y1="173.3" x2="26.1" y2="171.8"/>
				<line class="st42" x1="27.1" y1="167" x2="26.2" y2="165.8"/>
				<line class="st42" x1="32.2" y1="186.4" x2="31.2" y2="185.2"/>
				<line class="st42" x1="38.6" y1="168.9" x2="37.5" y2="167.8"/>
				<line class="st42" x1="35.6" y1="170" x2="33.3" y2="169.4"/>
				<line class="st42" x1="35" y1="172.4" x2="33.3" y2="171.3"/>
				<line class="st42" x1="45" y1="171.5" x2="44.3" y2="170"/>
				<line class="st42" x1="50.2" y1="170.8" x2="49.3" y2="169.6"/>
				<line class="st42" x1="41.4" y1="171.6" x2="42.3" y2="172.7"/>
				<line class="st42" x1="50.5" y1="175.1" x2="49.6" y2="176.6"/>
				<line class="st42" x1="48.8" y1="185.5" x2="47.4" y2="184.7"/>
				<line class="st42" x1="44.8" y1="177" x2="45.9" y2="175.5"/>
				<line class="st42" x1="35" y1="175.4" x2="35.9" y2="176.5"/>
				<line class="st42" x1="33" y1="179.5" x2="31" y2="180.1"/>
				<line class="st42" x1="40.5" y1="177" x2="39.4" y2="178.2"/>
				<line class="st42" x1="43.1" y1="181.6" x2="44.1" y2="180.3"/>
				<line class="st42" x1="41.5" y1="188.8" x2="42.8" y2="188.2"/>
				<line class="st42" x1="39.8" y1="180.7" x2="40.7" y2="179.5"/>
				<line class="st42" x1="30.9" y1="183.4" x2="30.9" y2="181.9"/>
				<line class="st42" x1="33.9" y1="188.1" x2="35.2" y2="187.3"/>
				<line class="st42" x1="38.9" y1="188.4" x2="37.5" y2="187.5"/>
				<line class="st42" x1="24.7" y1="163.4" x2="25.8" y2="161.9"/>
				<line class="st42" x1="24.2" y1="155.4" x2="24.9" y2="157.1"/>
				<line class="st42" x1="24.6" y1="146.8" x2="23.3" y2="147.6"/>
				<line class="st42" x1="22.1" y1="147.6" x2="21.2" y2="149.1"/>
				<line class="st42" x1="24" y1="157.8" x2="22.4" y2="157.8"/>
				<line class="st42" x1="28.5" y1="155.3" x2="27" y2="154.2"/>
				<line class="st42" x1="26.5" y1="148.5" x2="27.3" y2="146.8"/>
				<line class="st42" x1="30.2" y1="163.2" x2="28.9" y2="161.9"/>
				<line class="st42" x1="39.8" y1="163.5" x2="41.1" y2="162.6"/>
				<line class="st42" x1="52.8" y1="146.9" x2="51.5" y2="147.7"/>
				<line class="st42" x1="35" y1="144.9" x2="33.3" y2="143.7"/>
				<line class="st42" x1="52.1" y1="143.6" x2="51.2" y2="142.4"/>
				<line class="st42" x1="45.8" y1="146.7" x2="44.5" y2="145.8"/>
				<line class="st42" x1="48.3" y1="154.7" x2="49.5" y2="153.6"/>
				<line class="st42" x1="48.6" y1="162.2" x2="49.4" y2="160.9"/>
				<line class="st42" x1="48.8" y1="158" x2="47.4" y2="157.2"/>
				<line class="st42" x1="44.8" y1="149.4" x2="45.9" y2="147.9"/>
				<line class="st42" x1="35" y1="147.9" x2="35.9" y2="149"/>
				<line class="st42" x1="33" y1="152" x2="31" y2="152.6"/>
				<line class="st42" x1="40.5" y1="149.5" x2="39.4" y2="150.7"/>
				<line class="st42" x1="43.1" y1="154" x2="44.1" y2="152.8"/>
				<line class="st42" x1="41.5" y1="161.3" x2="42.8" y2="160.7"/>
				<line class="st42" x1="39.8" y1="153.2" x2="40.7" y2="152"/>
				<line class="st42" x1="30.9" y1="155.9" x2="30.9" y2="154.4"/>
				<line class="st42" x1="33.9" y1="160.6" x2="35.2" y2="159.8"/>
				<line class="st42" x1="38.9" y1="160.9" x2="37.5" y2="160"/>
			</g>
			<g>
				<line class="st42" x1="127.1" y1="129.1" x2="127.5" y2="130.5"/>
				<line class="st42" x1="123.7" y1="113.8" x2="123.2" y2="112.4"/>
				<line class="st42" x1="121.8" y1="120.7" x2="120.5" y2="121.4"/>
				<line class="st42" x1="125.8" y1="125" x2="124.4" y2="125.2"/>
				<line class="st42" x1="136.8" y1="130.7" x2="136" y2="129"/>
				<line class="st42" x1="126.4" y1="128.3" x2="125.1" y2="127.9"/>
				<line class="st42" x1="121.1" y1="125.9" x2="119.8" y2="126.4"/>
				<line class="st42" x1="139.5" y1="126.1" x2="138.3" y2="126.8"/>
				<line class="st42" x1="125.4" y1="116.4" x2="124.1" y2="117.1"/>
				<line class="st42" x1="125.7" y1="119.3" x2="124.7" y2="121.2"/>
				<line class="st42" x1="127.7" y1="120.4" x2="126.3" y2="121.6"/>
				<line class="st42" x1="129.3" y1="111.5" x2="127.8" y2="111.8"/>
				<line class="st42" x1="129.8" y1="106.9" x2="128.5" y2="107.3"/>
				<line class="st42" x1="128.5" y1="114.7" x2="129.7" y2="114.1"/>
				<line class="st42" x1="133.7" y1="107.7" x2="134.8" y2="108.8"/>
				<line class="st42" x1="142.6" y1="111.6" x2="141.6" y2="112.6"/>
				<line class="st42" x1="134" y1="113.1" x2="133" y2="111.7"/>
				<line class="st42" x1="130.4" y1="121.1" x2="131.6" y2="120.6"/>
				<line class="st42" x1="133.6" y1="123.8" x2="133.7" y2="125.7"/>
				<line class="st42" x1="133.1" y1="116.7" x2="133.9" y2="118"/>
				<line class="st42" x1="137.8" y1="115.6" x2="136.9" y2="114.5"/>
				<line class="st42" x1="143.9" y1="118.7" x2="143.6" y2="117.4"/>
				<line class="st42" x1="136.2" y1="118.3" x2="135.4" y2="117.2"/>
				<line class="st42" x1="136.6" y1="126.5" x2="135.3" y2="126.2"/>
				<line class="st42" x1="141.5" y1="125.1" x2="141.1" y2="123.8"/>
				<line class="st42" x1="142.9" y1="120.8" x2="141.8" y2="121.8"/>
				<line class="st42" x1="117.3" y1="127.1" x2="116.2" y2="125.8"/>
				<line class="st42" x1="110.1" y1="125.6" x2="111.7" y2="125.4"/>
				<line class="st42" x1="102.5" y1="123.2" x2="102.9" y2="124.5"/>
				<line class="st42" x1="102.6" y1="125.6" x2="103.7" y2="126.7"/>
				<line class="st42" x1="112.2" y1="126.4" x2="111.8" y2="127.8"/>
				<line class="st42" x1="110.9" y1="121.9" x2="109.6" y2="122.9"/>
				<line class="st42" x1="104.4" y1="122" x2="103" y2="120.9"/>
				<line class="st42" x1="118.3" y1="122.3" x2="117" y2="123.1"/>
				<line class="st42" x1="120.9" y1="114.1" x2="120.3" y2="112.8"/>
				<line class="st42" x1="109" y1="98.9" x2="109.4" y2="100.2"/>
				<line class="st42" x1="103.1" y1="113.8" x2="101.7" y2="115"/>
				<line class="st42" x1="106" y1="98.7" x2="104.7" y2="99.2"/>
				<line class="st42" x1="107.2" y1="104.9" x2="106.2" y2="105.8"/>
				<line class="st42" x1="115" y1="104.6" x2="114.3" y2="103.4"/>
				<line class="st42" x1="121.7" y1="106.2" x2="120.8" y2="105.2"/>
				<line class="st42" x1="118" y1="105" x2="117" y2="106"/>
				<line class="st42" x1="109.4" y1="106.5" x2="108.4" y2="105.1"/>
				<line class="st42" x1="105.8" y1="114.5" x2="107" y2="114"/>
				<line class="st42" x1="109" y1="117.2" x2="109.1" y2="119.1"/>
				<line class="st42" x1="108.5" y1="110.1" x2="109.3" y2="111.4"/>
				<line class="st42" x1="113.2" y1="109" x2="112.3" y2="107.9"/>
				<line class="st42" x1="119.3" y1="112.1" x2="119" y2="110.8"/>
				<line class="st42" x1="111.6" y1="111.7" x2="110.8" y2="110.6"/>
				<line class="st42" x1="112" y1="119.9" x2="110.7" y2="119.6"/>
				<line class="st42" x1="116.9" y1="118.5" x2="116.5" y2="117.2"/>
				<line class="st42" x1="118.4" y1="114.3" x2="117.2" y2="115.2"/>
			</g>
		</g>
	</g>
</g>

</svg>
