<svg id="图层_24" data-name="图层 24" xmlns="http://www.w3.org/2000/svg" viewBox="0 0 146.5 196.3" width="147" height ="198">
<title>玻璃仪器</title><g fill="none" stroke="#000000" stroke-width="0.2073" stroke-linecap="round" stroke-miterlimit="1">
<path d="M571.24,105.27a.1.1,0,0,1-.07,0l-1.09-1a.1.1,0,0,1,.14-.15l1.09,1a.1.1,0,0,1-.07.17Z" transform="translate(-520.5 -68.37)"/>
<path d="M573.59,96.68a.1.1,0,0,1-.1-.08L573.18,95a.1.1,0,0,1,.08-.12.1.1,0,0,1,.12.08l.31,1.61a.1.1,0,0,1-.08.12Z" transform="translate(-520.5 -68.37)"/>
<path d="M557.75,115.53a.1.1,0,0,1,0-.2l1.76-.22a.1.1,0,1,1,0,.2l-1.76.22Z" transform="translate(-520.5 -68.37)"/>
<path d="M550,114.43a.1.1,0,0,1-.1-.07l-.43-1.45a.1.1,0,0,1,.19-.06l.43,1.45a.1.1,0,0,1-.07.12Z" transform="translate(-520.5 -68.37)"/>
<path d="M546,95.21a.1.1,0,0,1-.09-.07l-.49-1.51a.1.1,0,0,1,.06-.13.1.1,0,0,1,.13.06l.49,1.51a.1.1,0,0,1-.06.13Z" transform="translate(-520.5 -68.37)"/>
<path d="M542.42,103.75a.1.1,0,0,1,0-.19l1.45-.73a.1.1,0,1,1,.09.18l-1.45.73Z" transform="translate(-520.5 -68.37)"/>
<path d="M546.61,108a.1.1,0,0,1,0-.2l1.61-.22a.1.1,0,0,1,0,.2l-1.61.22Z" transform="translate(-520.5 -68.37)"/>
<path d="M557.22,112.64a.1.1,0,0,1-.06-.18l1.48-1.14a.1.1,0,1,1,.12.16l-1.48,1.14Z" transform="translate(-520.5 -68.37)"/>
<path d="M551.62,111.65l-.06,0-1.5-1.16a.1.1,0,0,1,.12-.16l1.5,1.16a.1.1,0,0,1-.06.18Z" transform="translate(-520.5 -68.37)"/>
<path d="M541.64,109.36a.1.1,0,0,1-.09-.06.1.1,0,0,1,.06-.13l1.43-.54a.1.1,0,0,1,.13.06.1.1,0,0,1-.06.13l-1.43.54Z" transform="translate(-520.5 -68.37)"/>
<path d="M573,89.36a.1.1,0,0,1-.08,0l-1.18-1.38a.1.1,0,0,1,0-.14.1.1,0,0,1,.14,0l1.18,1.38a.1.1,0,0,1,0,.14Z" transform="translate(-520.5 -68.37)"/>
<path d="M570.92,99.68a.1.1,0,0,1-.09,0l-.77-1.27a.1.1,0,0,1,0-.14.1.1,0,0,1,.14,0l.77,1.27a.1.1,0,0,1,0,.14Z" transform="translate(-520.5 -68.37)"/>
<path d="M561.7,109.55a.1.1,0,0,1,0-.19l1.38-.74a.1.1,0,0,1,.1.18l-1.38.74Z" transform="translate(-520.5 -68.37)"/>
<path d="M563.63,87.92a.1.1,0,0,1-.09-.05l-.94-1.74a.1.1,0,1,1,.18-.09l.94,1.74a.1.1,0,0,1,0,.14Z" transform="translate(-520.5 -68.37)"/>
<path d="M554.1,87.69l-.05,0a.1.1,0,0,1,0-.14l1.1-1.77a.1.1,0,1,1,.17.11l-1.1,1.77A.1.1,0,0,1,554.1,87.69Z" transform="translate(-520.5 -68.37)"/>
<path d="M547.26,89.7a.1.1,0,0,1-.1-.08L546.85,88a.1.1,0,0,1,.08-.12A.1.1,0,0,1,547,88l.31,1.61a.1.1,0,0,1-.08.12Z" transform="translate(-520.5 -68.37)"/>
<path d="M546.43,98.92a.1.1,0,0,1-.09-.05.1.1,0,0,1,0-.14l1.34-.75a.1.1,0,0,1,.1.17l-1.34.75Z" transform="translate(-520.5 -68.37)"/>
<path d="M547,103.46h0a.1.1,0,0,1,0-.14l1.17-2.06a.1.1,0,1,1,.17.1l-1.17,2.06A.1.1,0,0,1,547,103.46Z" transform="translate(-520.5 -68.37)"/>
<path d="M548.73,103.89a.1.1,0,0,1-.08,0,.1.1,0,0,1,0-.14l1.56-1.31a.1.1,0,0,1,.14,0,.1.1,0,0,1,0,.14l-1.56,1.31Z" transform="translate(-520.5 -68.37)"/>
<path d="M550.38,92.94a.1.1,0,0,1,0-.2l1.63-.3a.1.1,0,0,1,.12.08.1.1,0,0,1-.08.12l-1.63.3Z" transform="translate(-520.5 -68.37)"/>
<path d="M551.22,88a.1.1,0,0,1-.09-.06.1.1,0,0,1,.06-.13l1.43-.54a.1.1,0,0,1,.07.19l-1.43.54Z" transform="translate(-520.5 -68.37)"/>
<path d="M553.63,93.61a.1.1,0,0,1-.08,0,.1.1,0,0,1,0-.14l1.15-1a.1.1,0,0,1,.13.15l-1.15,1Z" transform="translate(-520.5 -68.37)"/>
<path d="M563.2,92.16a.1.1,0,0,1-.09-.05l-.74-1.38a.1.1,0,0,1,0-.14.1.1,0,0,1,.13,0l.74,1.38a.1.1,0,0,1,0,.14Z" transform="translate(-520.5 -68.37)"/>
<path d="M568.82,91.86a.1.1,0,0,1-.06-.18l1.33-1.14a.1.1,0,1,1,.13.15l-1.33,1.14Z" transform="translate(-520.5 -68.37)"/>
<path d="M568.34,97.27a.1.1,0,0,1-.07,0,.1.1,0,0,1,0-.14l1.12-1.16a.1.1,0,0,1,.14.14l-1.12,1.16A.1.1,0,0,1,568.34,97.27Z" transform="translate(-520.5 -68.37)"/>
<path d="M557.94,91.15h0l-1.69-.45a.1.1,0,1,1,.05-.19L558,91a.1.1,0,0,1,0,.2Z" transform="translate(-520.5 -68.37)"/>
<path d="M554.63,99.72a.1.1,0,0,1-.08,0l-1-1.37a.1.1,0,0,1,.16-.12l1,1.37a.1.1,0,0,1,0,.14Z" transform="translate(-520.5 -68.37)"/>
<path d="M556.19,108.74h0l-1.55-.41a.1.1,0,1,1,.05-.19l1.55.41a.1.1,0,0,1,0,.2Z" transform="translate(-520.5 -68.37)"/>
<path d="M556.14,102.68a.1.1,0,0,1-.06-.18l1.31-1a.1.1,0,0,1,.12.16l-1.31,1Z" transform="translate(-520.5 -68.37)"/>
<path d="M557.73,96.37a.1.1,0,0,1-.07-.17l1.11-1a.1.1,0,0,1,.13.15l-1.11,1Z" transform="translate(-520.5 -68.37)"/>
<path d="M565.84,96.42h0L564.33,96a.1.1,0,0,1-.07-.12.1.1,0,0,1,.12-.07l1.48.39a.1.1,0,0,1,0,.2Z" transform="translate(-520.5 -68.37)"/>
<path d="M561.92,98.94a.1.1,0,0,1-.09-.06.1.1,0,0,1,.06-.13l1.31-.49a.1.1,0,1,1,.07.19l-1.31.49Z" transform="translate(-520.5 -68.37)"/>
<path d="M558.67,106.34a.1.1,0,0,1,0-.2l1.34-.33a.1.1,0,0,1,.12.07.1.1,0,0,1-.07.12l-1.34.33Z" transform="translate(-520.5 -68.37)"/>
<path d="M564.15,105.3a.1.1,0,0,1-.07,0l-.89-1a.1.1,0,1,1,.15-.14l.89,1a.1.1,0,0,1-.07.17Z" transform="translate(-520.5 -68.37)"/>
<path d="M564.2,102.45h0a.1.1,0,0,1-.07-.12l.34-1.29a.1.1,0,0,1,.12-.07.1.1,0,0,1,.07.12l-.34,1.29A.1.1,0,0,1,564.2,102.45Z" transform="translate(-520.5 -68.37)"/>
<path d="M540.07,98.73a.1.1,0,0,1,0-.2l1.73-.27a.09.09,0,0,1,.11.08.1.1,0,0,1-.08.11l-1.73.27Z" transform="translate(-520.5 -68.37)"/>
<path d="M554,80.13a.1.1,0,0,1,0-.2l1.61-.22a.1.1,0,0,1,.11.09.1.1,0,0,1-.08.11l-1.61.22Z" transform="translate(-520.5 -68.37)"/>
<path d="M563.19,83.6h0a.1.1,0,0,1-.07-.12l.42-1.57a.1.1,0,0,1,.19.05l-.42,1.57A.1.1,0,0,1,563.19,83.6Z" transform="translate(-520.5 -68.37)"/>
<path d="M561,85a.1.1,0,0,1-.07,0,.1.1,0,0,1,0-.14l1.16-1.18a.1.1,0,1,1,.14.14l-1.16,1.18A.1.1,0,0,1,561,85Z" transform="translate(-520.5 -68.37)"/>
<path d="M549,81.49a.1.1,0,0,1-.09-.06.1.1,0,0,1,.06-.13l1.43-.54a.1.1,0,1,1,.07.19l-1.43.54Z" transform="translate(-520.5 -68.37)"/>
<path d="M539.65,112.42a.1.1,0,0,1-.09-.06l-.49-1.08a.1.1,0,0,1,0-.13.1.1,0,0,1,.13.05l.49,1.08a.1.1,0,0,1,0,.13Z" transform="translate(-520.5 -68.37)"/>
<path d="M529.67,108.59a.1.1,0,0,1-.09-.05l-.94-1.74a.1.1,0,1,1,.18-.09l.94,1.74a.1.1,0,0,1,0,.14Z" transform="translate(-520.5 -68.37)"/>
<path d="M524.74,106.87a.1.1,0,0,1,0-.19l1.5-.64a.1.1,0,0,1,.13.05.1.1,0,0,1-.05.13l-1.5.64Z" transform="translate(-520.5 -68.37)"/>
<path d="M533,110.89h0a.1.1,0,0,1-.07-.12l.41-1.54a.1.1,0,0,1,.12-.07.1.1,0,0,1,.07.12l-.41,1.54A.1.1,0,0,1,533,110.89Z" transform="translate(-520.5 -68.37)"/>
<path d="M530.61,105.59a.1.1,0,0,1-.06-.18l1.48-1.14a.1.1,0,1,1,.12.16l-1.48,1.14Z" transform="translate(-520.5 -68.37)"/>
<path d="M525,104.6l-.06,0-1.5-1.16a.1.1,0,0,1,.12-.16l1.5,1.16a.1.1,0,0,1-.06.18Z" transform="translate(-520.5 -68.37)"/>
<path d="M546.37,82.31a.1.1,0,0,1-.08,0l-1.18-1.38a.1.1,0,0,1,0-.14.1.1,0,0,1,.14,0l1.18,1.38a.1.1,0,0,1,0,.14Z" transform="translate(-520.5 -68.37)"/>
<path d="M544.3,92.63a.1.1,0,0,1-.09,0l-.77-1.27a.1.1,0,0,1,.17-.1l.77,1.27a.1.1,0,0,1,0,.14Z" transform="translate(-520.5 -68.37)"/>
<path d="M535.08,102.49a.1.1,0,0,1,0-.19l1.38-.74a.1.1,0,0,1,.1.18l-1.38.74Z" transform="translate(-520.5 -68.37)"/>
<path d="M537,80.87a.1.1,0,0,1-.09-.05L536,79.07a.1.1,0,1,1,.18-.09l.94,1.74a.1.1,0,0,1,0,.14Z" transform="translate(-520.5 -68.37)"/>
<path d="M524.57,95.81a.1.1,0,0,1-.06-.18l1.15-.84a.1.1,0,0,1,.12.16l-1.15.84Z" transform="translate(-520.5 -68.37)"/>
<path d="M534.27,82.05h0a.1.1,0,0,1-.07-.12l.42-1.57a.1.1,0,1,1,.19.05L534.36,82A.1.1,0,0,1,534.27,82.05Z" transform="translate(-520.5 -68.37)"/>
<path d="M540.35,83.17h0a.1.1,0,0,1-.07-.12l.41-1.54a.1.1,0,0,1,.19.05l-.41,1.54A.1.1,0,0,1,540.35,83.17Z" transform="translate(-520.5 -68.37)"/>
<path d="M540.76,89.16h0a.1.1,0,0,1-.07-.12l.4-1.5a.1.1,0,0,1,.19.05l-.4,1.5A.1.1,0,0,1,540.76,89.16Z" transform="translate(-520.5 -68.37)"/>
<path d="M533.74,86.27a.1.1,0,0,1-.1-.08L533.2,84a.1.1,0,1,1,.2,0l.44,2.22a.1.1,0,0,1-.08.12Z" transform="translate(-520.5 -68.37)"/>
<path d="M526.62,90.16h0a.1.1,0,0,1-.07-.12l.35-1.32a.1.1,0,0,1,.12-.07.1.1,0,0,1,.07.12l-.35,1.32A.1.1,0,0,1,526.62,90.16Z" transform="translate(-520.5 -68.37)"/>
<path d="M529.58,101.69h0l-1.55-.41a.1.1,0,0,1-.07-.12.1.1,0,0,1,.12-.07l1.55.41a.1.1,0,0,1,0,.2Z" transform="translate(-520.5 -68.37)"/>
<path d="M529.53,95.63a.1.1,0,0,1-.06-.18l1.31-1a.1.1,0,0,1,.12.16l-1.31,1Z" transform="translate(-520.5 -68.37)"/>
<path d="M534.59,90a.1.1,0,0,1-.08,0l-1-1.25a.1.1,0,0,1,.16-.12l1,1.25a.1.1,0,0,1,0,.14Z" transform="translate(-520.5 -68.37)"/>
<path d="M541.23,93.38a.1.1,0,0,1-.1-.08l-.29-1.42a.1.1,0,0,1,.08-.12.11.11,0,0,1,.12.08l.29,1.42a.1.1,0,0,1-.08.12Z" transform="translate(-520.5 -68.37)"/>
<path d="M532.91,93a.1.1,0,0,1-.08,0l-.9-1.19a.1.1,0,0,1,.16-.12l.9,1.19a.1.1,0,0,1,0,.14Z" transform="translate(-520.5 -68.37)"/>
<path d="M533.27,102.24h0l-1.45-.38a.1.1,0,0,1-.07-.12.1.1,0,0,1,.12-.07l1.45.38a.1.1,0,0,1,0,.2Z" transform="translate(-520.5 -68.37)"/>
<path d="M538.53,100.62a.1.1,0,0,1-.1-.08l-.38-1.48a.1.1,0,0,1,.07-.12.09.09,0,0,1,.12.07l.38,1.48a.1.1,0,0,1-.07.12Z" transform="translate(-520.5 -68.37)"/>
<path d="M538.92,96.93a.1.1,0,0,1-.07,0,.1.1,0,0,1,0-.14l1.26-1.12a.1.1,0,0,1,.14,0,.1.1,0,0,1,0,.14L539,96.91Z" transform="translate(-520.5 -68.37)"/>
<path d="M538,77.72a.1.1,0,0,1-.06-.18l1.48-1.14a.1.1,0,1,1,.12.16l-1.48,1.14Z" transform="translate(-520.5 -68.37)"/>
<path d="M532.82,77.22l-.06,0L531.26,76a.1.1,0,0,1,.12-.16l1.5,1.16a.1.1,0,0,1,0,.14A.1.1,0,0,1,532.82,77.22Z" transform="translate(-520.5 -68.37)"/>
<path d="M536.12,73.53a.1.1,0,0,1-.07,0l-1.19-1.1a.1.1,0,0,1,.13-.15l1.19,1.1a.1.1,0,0,1,0,.14A.1.1,0,0,1,536.12,73.53Z" transform="translate(-520.5 -68.37)"/>
</g>
<path stroke="#000000" fill="#000000" stroke-width="0.5324" d="M666.92,150.39c.08-33.55-23.82-41.47-35.31-45.28-12.56-4.16-40.18-12.68-40.18-12.68a13.84,13.84,0,0,1-2.07-2.9c-1.34-2.22-3.13-5.43-7.29-6.53-.76-.2-5.17-.54-7.88.9L537,71.74l-.1,0c-.14,0-.42-.18-.46-.31-.33-1.1-.78-2.62-2.07-3-4.37-1.16-9.28,12.7-11.26,20.19s-4.58,22-.21,23.12c1.29.34,2.43-.64,3.3-1.56a1.8,1.8,0,0,1,.6.07L565,118.11c1.57,2.61,5.51,4.7,6.42,4.94,4.15,1.1,7.2-.45,9.44-1.64,1.84-.77,2.75-1.29,4-1s37.34,9.75,43.55,11.57c6.6,1.93,10.86,5.39,11.75,16.67.93,11.84,2.57,114.19,2.59,115.23h0a.76.76,0,0,0,.18.62c1.08,1,6.59-3.08,12.3-9.14,4.93-5.23,8.39-10.21,8.56-12.14h0S667.59,157.41,666.92,150.39ZM524.07,88.89A68.25,68.25,0,0,1,530,73.28c1.67,1.06,1.32,8.17-.87,16.42-2.28,8.59-5.68,15.15-7.62,14.69A71.82,71.82,0,0,1,524.07,88.89Zm2.67,20.34a2.17,2.17,0,0,0-.72,0l-.33.06-.23.24c-1,1-1.71,1.44-2.32,1.28-1.09-.29-1.62-2.29-1.64-5.39,3.45.39,7-9.43,8.6-15.44,1.55-5.84,3.26-15.73.42-17.54,1.35-2.13,2.61-3.27,3.58-3,.74.2,1.09,1.33,1.36,2.25a1.58,1.58,0,0,0,1,1c.56,4.23-.19,11.28-2.24,19S529.31,105.82,526.73,109.23Zm.26.05h0c2.58-3.44,5.37-9.85,7.42-17.6s2.81-14.72,2.26-19l.1,0,36.32,11.89c-2.43,1.56-5.34,9.68-6.89,15.53s-3,14.22-1.73,16.84Zm38.7,8-.72-.17c-1.23-1.5-.6-8.6,1.59-16.85s5.21-14.87,7-15.46l.71.23h0c1.18,1.59.54,8.64-1.62,16.82S567.5,116.61,565.69,117.24Zm75.47,31.36c-.92-11.82-5.65-15.57-12.46-17.56-5.84-1.71-39.08-10.39-43.41-11.53,0,0-1.54-.81-4.85,1-2,1.09-4.85,2.58-8.71,1.56a14.54,14.54,0,0,1-5.49-4c3.57-1.85,7-14.43,7.42-16s3.61-14,1.54-17.5a14.77,14.77,0,0,1,6.63-.58c3.6,1,5.23,3.65,6.53,5.81l.51.86a6,6,0,0,0,2.26,2.64c3.85,1.22,28.58,8.94,40.18,12.78,11.26,3.73,34.7,11.5,34.62,44.37.62,6.6-2.66,82.65-3.08,92-2,.38-6.66,4.09-11.52,9.25a55.63,55.63,0,0,0-7.62,9.75C643.46,245.71,642,159.44,641.17,148.6Zm13.35,106.09c-5,5.3-9.13,8.36-10.69,8.9.42-1.44,2.9-5.54,8.24-11.21,5-5.3,9.13-8.36,10.69-8.9C662.33,244.92,659.85,249,654.51,254.69Z" transform="translate(-520.5 -68.37)"/>
</svg>