<svg id="图层_32" data-name="图层 32" xmlns="http://www.w3.org/2000/svg" viewBox="0 0 173.86727 389.33625" width="175" height="395">
    <title>玻璃仪器</title> <g stroke="#000000" fill="#000000" stroke-width="0.5324" transform="translate(-547.0918 124.7951)">
    <path d="M565.72168,132.47621a.09661.09661,0,0,1-.0459-.01123.1.1,0,0,1-.043-.13477l.70508-1.373a.1.1,0,1,1,.17773.0918l-.70508,1.373A.10025.10025,0,0,1,565.72168,132.47621Z"
          />
    <path d="M574.6582,132.55043a.09994.09994,0,0,1-.04492-.18945l1.4834-.74219a.1.1,0,1,1,.08984.17871l-1.4834.74219A.10109.10109,0,0,1,574.6582,132.55043Z"
          />
    <path d="M552.96582,123.3473a.09916.09916,0,0,1-.09277-.06348l-.667-1.707a.09974.09974,0,1,1,.18555-.07324l.667,1.707a.09959.09959,0,0,1-.05664.12988A.10518.10518,0,0,1,552.96582,123.3473Z"
          />
    <path d="M551.37207,113.51332a.1.1,0,0,1-.05371-.18457l1.29785-.81592a.10146.10146,0,0,1,.13867.03125.09993.09993,0,0,1-.03223.1377l-1.29687.81592A.09805.09805,0,0,1,551.37207,113.51332Z"
          />
    <path d="M568.98535,104.3849a.10006.10006,0,0,1-.05566-.18311l1.335-.89062a.09994.09994,0,1,1,.11133.166l-1.335.89063A.09814.09814,0,0,1,568.98535,104.3849Z"
          />
    <path d="M560.86426,104.34779a.10026.10026,0,0,1-.07617-.03516l-1.0752-1.26172a.1001.1001,0,0,1,.15234-.12988l1.0752,1.26172a.1.1,0,0,1-.01172.14111A.09689.09689,0,0,1,560.86426,104.34779Z"
          />
    <path d="M557.37891,109.98793a.1002.1002,0,0,1-.09277-.0625l-.63086-1.55811a.1001.1001,0,0,1,.18555-.0752l.63086,1.55811a.10018.10018,0,0,1-.05566.13037A.09671.09671,0,0,1,557.37891,109.98793Z"
          />
    <path d="M556.45215,121.52943a.09961.09961,0,0,1-.0625-.022l-1.4834-1.188a.1.1,0,1,1,.125-.15625l1.4834,1.188a.10055.10055,0,0,1,.01563.14063A.09891.09891,0,0,1,556.45215,121.52943Z"
          />
    <path d="M554.48633,114.44105a.10543.10543,0,0,1-.03809-.00732.10072.10072,0,0,1-.05469-.13037l.74219-1.81787a.1001.1001,0,1,1,.18555.0752l-.74219,1.81787A.1002.1002,0,0,1,554.48633,114.44105Z"
          />
    <path d="M555.043,105.09a.09729.09729,0,0,1-.082-.04346l-.89062-1.29883a.09969.09969,0,1,1,.16406-.11328l.89063,1.29883a.09974.09974,0,0,1-.02539.13916A.10177.10177,0,0,1,555.043,105.09Z"
          />
    <path d="M581.59277,129.98988a.09814.09814,0,0,1-.05566-.01709.09927.09927,0,0,1-.02734-.13867l1.03809-1.55859a.09994.09994,0,0,1,.166.11133l-1.03809,1.55859A.1.1,0,0,1,581.59277,129.98988Z"
          />
    <path d="M571.06152,130.65785a.10011.10011,0,0,1-.06836-.02686.10115.10115,0,0,1-.00488-.1416l1.03809-1.11328a.09978.09978,0,0,1,.1416-.00488.10115.10115,0,0,1,.00488.1416l-1.03809,1.11328A.1007.1007,0,0,1,571.06152,130.65785Z"
          />
    <path d="M560.19727,125.20277a.1004.1004,0,0,1-.07422-.03271l-1.07617-1.1875a.10024.10024,0,1,1,.14844-.13477l1.07617,1.1875a.10031.10031,0,0,1-.00684.1416A.10139.10139,0,0,1,560.19727,125.20277Z"
          />
    <path d="M580.59082,120.193a.1001.1001,0,0,1-.06934-.17187l1.44629-1.40967a.0998.0998,0,0,1,.13867.14355l-1.44629,1.40967A.09832.09832,0,0,1,580.59082,120.193Z"
          />
    <path d="M580.36816,111.17592a.09351.09351,0,0,1-.03027-.00488l-2.002-.63135a.1.1,0,0,1-.06543-.12549.10154.10154,0,0,1,.126-.06494l2.002.63135a.09994.09994,0,0,1-.03027.19531Z"
          />
    <path d="M574.6582,104.19935a.09994.09994,0,0,1-.04492-.18945l1.4834-.74219a.1.1,0,1,1,.08984.17871l-1.4834.74219A.10109.10109,0,0,1,574.6582,104.19935Z"
          />
    <path d="M566.57422,106.98256a.1007.1007,0,0,1-.07324-.03174l-1.0752-1.15039a.10019.10019,0,1,1,.14648-.13672l1.0752,1.15039a.10117.10117,0,0,1-.00488.1416A.10011.10011,0,0,1,566.57422,106.98256Z"
          />
    <path d="M563.53418,108.20717a.09851.09851,0,0,1-.02637-.00391l-2.29883-.63086a.09929.09929,0,0,1-.07031-.12256.10076.10076,0,0,1,.123-.06982l2.29883.63086a.09929.09929,0,0,1,.07031.12256A.101.101,0,0,1,563.53418,108.20717Z"
          />
    <path d="M562.94043,110.69349a.10212.10212,0,0,1-.05957-.01953l-1.668-1.22461a.1002.1002,0,1,1,.11914-.16113L563,110.51283a.1008.1008,0,0,1,.02148.13965A.1022.1022,0,0,1,562.94043,110.69349Z"
          />
    <path d="M573.02637,109.76576a.09939.09939,0,0,1-.09082-.05908l-.7041-1.55859a.09965.09965,0,1,1,.18164-.082l.7041,1.55859a.09908.09908,0,0,1-.0498.13232A.1034.1034,0,0,1,573.02637,109.76576Z"
          />
    <path d="M578.25488,109.02357a.09729.09729,0,0,1-.082-.04346l-.88965-1.29883a.09969.09969,0,1,1,.16406-.11328l.88965,1.29883a.09967.09967,0,0,1-.02539.13916A.10177.10177,0,0,1,578.25488,109.02357Z"
          />
    <path d="M573.76855,112.54847a.0965.0965,0,0,1-.05762-.01855l-1.26074-.89062a.10057.10057,0,0,1-.02441-.13916.09938.09938,0,0,1,.13965-.02393l1.26074.89063a.09986.09986,0,0,1-.05762.18164Z"
          />
    <path d="M576.36426,120.89808a.10107.10107,0,0,1-.07227-.03076.09964.09964,0,0,1,.00293-.14111l1.14941-1.11328a.09852.09852,0,0,1,.1416.00244.09964.09964,0,0,1-.00293.14111l-1.14941,1.11328A.09792.09792,0,0,1,576.36426,120.89808Z"
          />
    <path d="M579.55273,127.50355a.0999.0999,0,0,1-.05859-.019l-1.44629-1.03906a.09944.09944,0,0,1-.02246-.13916.10049.10049,0,0,1,.13965-.02295l1.44629,1.03906a.10022.10022,0,0,1-.05859.18115Z"
          />
    <path d="M574.13867,128.24574a.09572.09572,0,0,1-.0498-.01367l-1.4082-.81641a.09975.09975,0,1,1,.09961-.17285l1.4082.81641a.09976.09976,0,0,1-.0498.18652Z"
          />
    <path d="M575.99316,115.33168a.09951.09951,0,0,1-.09961-.1001v-1.81836a.09961.09961,0,1,1,.19922,0v1.81836A.09951.09951,0,0,1,575.99316,115.33168Z"
          />
    <path d="M566.834,114.2931a.10011.10011,0,0,1-.07812-.1626l1.0752-1.33594a.1.1,0,1,1,.15625.125l-1.0752,1.33594A.09891.09891,0,0,1,566.834,114.2931Z"
          />
    <path d="M558.49121,118.26332a.09951.09951,0,0,1-.09961-.1001v-1.66943a.09961.09961,0,1,1,.19922,0v1.66943A.09951.09951,0,0,1,558.49121,118.26332Z"
          />
    <path d="M565.68457,117.63246a.10083.10083,0,0,1-.06152-.021l-1.335-1.03857a.10021.10021,0,1,1,.123-.1582l1.335,1.03857a.10011.10011,0,0,1-.06152.1792Z"
          />
    <path d="M572.13672,117.37269a.09964.09964,0,0,1-.05566-.01709l-1.26074-.853a.1001.1001,0,0,1-.02734-.13916.102.102,0,0,1,.13867-.02686l1.26074.853a.09995.09995,0,0,1-.05566.18311Z"
          />
    <path d="M572.915,124.68324a.09951.09951,0,0,1-.09961-.1001v-1.5957a.09961.09961,0,1,1,.19922,0v1.5957A.09951.09951,0,0,1,572.915,124.68324Z"
          />
    <path d="M570.2832,122.60511a.09854.09854,0,0,1-.082-.04346l-.81641-1.187a.09969.09969,0,1,1,.16406-.11328l.81641,1.187a.09974.09974,0,0,1-.02539.13916A.10177.10177,0,0,1,570.2832,122.60511Z"
          />
    <path d="M562.125,121.3805a.10137.10137,0,0,1-.08887-.05322l-.667-1.26172a.10047.10047,0,0,1,.17773-.09375l.667,1.26172a.10049.10049,0,0,1-.08887.147Z"
          />
    <path d="M563.86816,125.35121a.10007.10007,0,0,1-.085-.15234l.7041-1.15039a.10058.10058,0,0,1,.13672-.0332.09916.09916,0,0,1,.0332.1377l-.7041,1.15039A.09959.09959,0,0,1,563.86816,125.35121Z"
          />
    <path d="M567.9834,124.64613h-1.335a.1001.1001,0,0,1,0-.2002h1.335a.1001.1001,0,0,1,0,.2002Z"
          />
    <path d="M564.75781,101.04506a.099.099,0,0,1-.0918-.061l-.70508-1.66992a.09976.09976,0,1,1,.18359-.07812l.70508,1.66992a.10009.10009,0,0,1-.05273.13135A.10138.10138,0,0,1,564.75781,101.04506Z"
          />
    <path d="M586.30176,109.98793a.1002.1002,0,0,1-.09277-.0625l-.63086-1.55811a.1001.1001,0,0,1,.18555-.0752l.63086,1.55811a.10018.10018,0,0,1-.05566.13037A.09671.09671,0,0,1,586.30176,109.98793Z"
          />
    <path d="M584.22461,117.63246a.09513.09513,0,0,1-.05078-.01416l-1.44531-.853a.09982.09982,0,0,1,.10156-.17187l1.44531.853a.1.1,0,0,1-.05078.186Z"
          />
    <path d="M583.96582,105.09a.09729.09729,0,0,1-.082-.04346l-.89062-1.29883a.09969.09969,0,1,1,.16406-.11328l.89063,1.29883a.09974.09974,0,0,1-.02539.13916A.10177.10177,0,0,1,583.96582,105.09Z"
          />
    <path d="M550.667,102.60365a.10032.10032,0,0,1-.06445-.17676l.92676-.7793a.1011.1011,0,0,1,.14063.01221.09993.09993,0,0,1-.01172.14111l-.92676.7793A.10085.10085,0,0,1,550.667,102.60365Z"
          />
    <path d="M551.81641,91.54506a.1001.1001,0,0,1-.06934-.17187l1.44629-1.41016a.0998.0998,0,0,1,.13867.14355l-1.44629,1.41016A.09832.09832,0,0,1,551.81641,91.54506Z"
          />
    <path d="M552.03906,95.51576h-1.59473a.1001.1001,0,0,1,0-.2002h1.59473a.1001.1001,0,0,1,0,.2002Z"
          />
    <path d="M556.45215,92.881a.09961.09961,0,0,1-.0625-.022l-1.4834-1.1875a.1.1,0,1,1,.125-.15625l1.4834,1.1875a.10055.10055,0,0,1,.01563.14063A.09891.09891,0,0,1,556.45215,92.881Z"
          />
    <path d="M581.59277,101.34193a.09814.09814,0,0,1-.05566-.01709.09927.09927,0,0,1-.02734-.13867l1.03809-1.55859a.09994.09994,0,0,1,.166.11133l-1.03809,1.55859A.1.1,0,0,1,581.59277,101.34193Z"
          />
    <path d="M571.06152,102.0099a.10011.10011,0,0,1-.06836-.02686.10115.10115,0,0,1-.00488-.1416l1.03809-1.11328a.10019.10019,0,0,1,.14648.13672l-1.03809,1.11328A.1007.1007,0,0,1,571.06152,102.0099Z"
          />
    <path d="M560.19727,96.55482a.1004.1004,0,0,1-.07422-.03271l-1.07617-1.1875a.10024.10024,0,1,1,.14844-.13477l1.07617,1.1875a.10031.10031,0,0,1-.00684.1416A.10139.10139,0,0,1,560.19727,96.55482Z"
          />
    <path d="M580.59082,91.54506a.1001.1001,0,0,1-.06934-.17187l1.44629-1.41016a.0998.0998,0,0,1,.13867.14355l-1.44629,1.41016A.09832.09832,0,0,1,580.59082,91.54506Z"
          />
    <path d="M580.36816,89.09584H578.7373a.1001.1001,0,0,1,0-.2002h1.63086a.1001.1001,0,0,1,0,.2002Z"
          />
    <path d="M580.81348,95.51576h-1.59473a.1001.1001,0,0,1,0-.2002h1.59473a.1001.1001,0,0,1,0,.2002Z"
          />
    <path d="M575.06641,97.51967h-1.55762a.1001.1001,0,0,1,0-.2002h1.55762a.1001.1001,0,0,1,0,.2002Z"
          />
    <path d="M574.50977,89.68959a.09987.09987,0,0,1-.04492-.189l2.04-1.03906a.09958.09958,0,1,1,.08984.17773l-2.04,1.03906A.09026.09026,0,0,1,574.50977,89.68959Z"
          />
    <path d="M558.49121,89.61537a.09951.09951,0,0,1-.09961-.1001V87.84535a.09961.09961,0,1,1,.19922,0v1.66992A.09951.09951,0,0,1,558.49121,89.61537Z"
          />
    <path d="M565.68457,88.98451a.10083.10083,0,0,1-.06152-.021l-1.335-1.03906a.10021.10021,0,0,1,.123-.1582l1.335,1.03906a.10011.10011,0,0,1-.06152.1792Z"
          />
    <path d="M571.09863,91.54506a.09733.09733,0,0,1-.05957-.02.09973.09973,0,0,1-.02051-.13965l.96387-1.29883a.09763.09763,0,0,1,.13965-.02051.09973.09973,0,0,1,.02051.13965l-.96387,1.29883A.09991.09991,0,0,1,571.09863,91.54506Z"
          />
    <path d="M569.541,99.11537a.10007.10007,0,0,1-.0459-.189l1.29785-.668a.1.1,0,1,1,.0918.17773l-1.29785.668A.09661.09661,0,0,1,569.541,99.11537Z"
          />
    <path d="M567.76172,90.65443a.10041.10041,0,0,1-.08008-.16064l.92676-1.22461a.10039.10039,0,0,1,.16016.12109l-.92676,1.22461A.10032.10032,0,0,1,567.76172,90.65443Z"
          />
    <path d="M558.89941,93.47474a.09951.09951,0,0,1-.09961-.1001V91.81605a.09961.09961,0,1,1,.19922,0v1.55859A.09951.09951,0,0,1,558.89941,93.47474Z"
          />
    <path d="M561.82813,98.33607a.10039.10039,0,0,1-.05078-.18652l1.335-.7793a.10024.10024,0,0,1,.10156.17285l-1.335.7793A.10176.10176,0,0,1,561.82813,98.33607Z"
          />
    <path d="M566.9082,98.70717a.10177.10177,0,0,1-.05664-.01758l-1.40918-.96484a.10009.10009,0,0,1,.11328-.165l1.40918.96484a.09967.09967,0,0,1,.02539.13916A.09729.09729,0,0,1,566.9082,98.70717Z"
          />
    <path d="M585.375,92.881a.09961.09961,0,0,1-.0625-.022l-1.4834-1.1875a.1.1,0,1,1,.125-.15625l1.4834,1.1875a.10055.10055,0,0,1,.01563.14063A.09891.09891,0,0,1,585.375,92.881Z"
          />
    <path d="M587.47266,88.68519a.09026.09026,0,0,1-.04492-.01123.099.099,0,0,1-.04395-.13428l.75781-1.48779a.0998.0998,0,0,1,.17773.09082l-.75781,1.48779A.0998.0998,0,0,1,587.47266,88.68519Z"
          />
    <path d="M555.25781,249.87318a.1.1,0,0,1-.05371-.18457l1.29785-.81641a.1001.1001,0,1,1,.10742.16895l-1.29785.81641A.09805.09805,0,0,1,555.25781,249.87318Z"
          />
    <path d="M572.248,240.86293a.10006.10006,0,0,1-.05566-.18311l1.335-.89062a.09994.09994,0,0,1,.11133.166l-1.335.89063A.09814.09814,0,0,1,572.248,240.86293Z"
          />
    <path d="M564.127,240.82582a.10026.10026,0,0,1-.07617-.03516l-1.0752-1.26172a.1001.1001,0,0,1,.15234-.12988l1.0752,1.26172a.1.1,0,0,1-.01172.14111A.09689.09689,0,0,1,564.127,240.82582Z"
          />
    <path d="M560.6416,246.46644a.101.101,0,0,1-.09277-.0625l-.62988-1.55859a.1001.1001,0,0,1,.18555-.0752l.62988,1.55859a.1.1,0,0,1-.05566.13037A.09671.09671,0,0,1,560.6416,246.46644Z"
          />
    <path d="M557.71289,260.04847a.10006.10006,0,0,1-.06543-.17578l1.55664-1.33594a.1.1,0,1,1,.13086.15137l-1.55664,1.33594A.09921.09921,0,0,1,557.71289,260.04847Z"
          />
    <path d="M557.30469,248.06215a.09951.09951,0,0,1-.09961-.1001v-1.55859a.09961.09961,0,1,1,.19922,0V247.962A.09951.09951,0,0,1,557.30469,248.06215Z"
          />
    <path d="M558.30566,241.568a.09729.09729,0,0,1-.082-.04346l-.88965-1.29883a.09969.09969,0,1,1,.16406-.11328l.88965,1.29883a.09967.09967,0,0,1-.02539.13916A.10177.10177,0,0,1,558.30566,241.568Z"
          />
    <path d="M563.46,261.68129a.09912.09912,0,0,1-.07422-.0332l-1.0752-1.1875a.09992.09992,0,1,1,.14844-.13379l1.0752,1.1875a.09974.09974,0,0,1-.00684.14111A.10139.10139,0,0,1,563.46,261.68129Z"
          />
    <path d="M569.83789,243.46058a.1007.1007,0,0,1-.07324-.03174l-1.0752-1.15039a.10019.10019,0,0,1,.14648-.13672l1.0752,1.15039a.10117.10117,0,0,1-.00488.1416A.10011.10011,0,0,1,569.83789,243.46058Z"
          />
    <path d="M566.79688,244.68519a.09851.09851,0,0,1-.02637-.00391l-2.29883-.63086a.09974.09974,0,1,1,.05273-.19238l2.29883.63086a.09929.09929,0,0,1,.07031.12256A.101.101,0,0,1,566.79688,244.68519Z"
          />
    <path d="M566.2041,247.17152a.10212.10212,0,0,1-.05957-.01953l-1.66895-1.22461a.10079.10079,0,0,1-.02148-.13965.09964.09964,0,0,1,.14063-.02148l1.66895,1.22461a.1008.1008,0,0,1,.02148.13965A.1022.1022,0,0,1,566.2041,247.17152Z"
          />
    <path d="M576.29,246.24379a.09939.09939,0,0,1-.09082-.05908l-.70508-1.55859a.09908.09908,0,0,1,.0498-.13232.10049.10049,0,0,1,.13184.05029l.70508,1.55859a.09973.09973,0,0,1-.09082.14111Z"
          />
    <path d="M581.51855,245.5016a.09729.09729,0,0,1-.082-.04346l-.89062-1.29883a.09969.09969,0,1,1,.16406-.11328l.89063,1.29883a.09974.09974,0,0,1-.02539.13916A.10177.10177,0,0,1,581.51855,245.5016Z"
          />
    <path d="M573.583,247.4684a.09913.09913,0,0,1-.07617-.03564l-.96387-1.15039a.09993.09993,0,0,1,.01172-.14111.1011.1011,0,0,1,.14063.01221l.96387,1.15039a.09982.09982,0,0,1-.07617.16455Z"
          />
    <path d="M580.07227,260.75355a.09513.09513,0,0,1-.05078-.01416l-1.37207-.81641a.09989.09989,0,0,1-.03516-.13721.101.101,0,0,1,.13672-.03467l1.37207.81641a.09993.09993,0,0,1-.05078.186Z"
          />
    <path d="M576.03027,251.88441a.10009.10009,0,0,1-.08105-.1582l1.1123-1.55859a.09973.09973,0,1,1,.16211.11621l-1.1123,1.55859A.09916.09916,0,0,1,576.03027,251.88441Z"
          />
    <path d="M567.168,251.4391a.10136.10136,0,0,1-.07812-.03711l-.96387-1.1875a.10035.10035,0,0,1,.15625-.126l.96387,1.1875a.10133.10133,0,0,1-.01465.14063A.09994.09994,0,0,1,567.168,251.4391Z"
          />
    <path d="M562.23633,255.15a.09994.09994,0,0,1-.03027-.19531l2.002-.63086a.10111.10111,0,0,1,.126.06494.1.1,0,0,1-.06543.12549l-2.002.63086A.09351.09351,0,0,1,562.23633,255.15Z"
          />
    <path d="M570.65332,253.18324a.10224.10224,0,0,1-.06641-.0249.10072.10072,0,0,1-.00879-.14111l1.1123-1.26172a.1.1,0,1,1,.15039.13184l-1.1123,1.26172A.10044.10044,0,0,1,570.65332,253.18324Z"
          />
    <path d="M574.36133,256.67152a.09733.09733,0,0,1-.05957-.02.09973.09973,0,0,1-.02051-.13965l.96484-1.29883a.09845.09845,0,0,1,.13965-.02051.09973.09973,0,0,1,.02051.13965l-.96484,1.29883A.09991.09991,0,0,1,574.36133,256.67152Z"
          />
    <path d="M571.02441,255.7809a.10041.10041,0,0,1-.08008-.16064l.92676-1.22461a.10039.10039,0,0,1,.16016.12109l-.92676,1.22461A.10032.10032,0,0,1,571.02441,255.7809Z"
          />
    <path d="M562.16211,258.60121a.09951.09951,0,0,1-.09961-.1001v-1.55859a.09961.09961,0,1,1,.19922,0v1.55859A.09951.09951,0,0,1,562.16211,258.60121Z"
          />
    <path d="M565.0918,263.46254a.10039.10039,0,0,1-.05078-.18652l1.335-.7793a.10024.10024,0,0,1,.10156.17285l-1.335.7793A.10176.10176,0,0,1,565.0918,263.46254Z"
          />
    <path d="M570.17188,263.83363a.10177.10177,0,0,1-.05664-.01758l-1.40918-.96484a.10009.10009,0,0,1,.11328-.165l1.40918.96484a.09967.09967,0,0,1,.02539.13916A.09729.09729,0,0,1,570.17188,263.83363Z"
          />
    <path d="M555.93262,237.82a.09815.09815,0,0,1-.05566-.01709.09927.09927,0,0,1-.02734-.13867l1.03809-1.55859a.09994.09994,0,1,1,.166.11133l-1.03809,1.55859A.1.1,0,0,1,555.93262,237.82Z"
          />
    <path d="M556.08105,231.17738a.09916.09916,0,0,1-.09277-.06348l-.668-1.707a.09977.09977,0,0,1,.05664-.12988.10078.10078,0,0,1,.12891.05664l.668,1.707a.09977.09977,0,0,1-.05664.12988A.10518.10518,0,0,1,556.08105,231.17738Z"
          />
    <path d="M554.48633,221.3434a.101.101,0,0,1-.085-.04687.09993.09993,0,0,1,.03223-.1377l1.29688-.81592a.1001.1001,0,1,1,.10742.16895l-1.29785.81592A.09805.09805,0,0,1,554.48633,221.3434Z"
          />
    <path d="M552.37988,222.86537a.10176.10176,0,0,1-.05078-.01367.09922.09922,0,0,1-.03516-.13672l.89063-1.522a.09957.09957,0,1,1,.17188.10059l-.89062,1.522A.09874.09874,0,0,1,552.37988,222.86537Z"
          />
    <path d="M555.1543,231.99379h-1.59473a.1001.1001,0,0,1,0-.2002h1.59473a.1001.1001,0,0,1,0,.2002Z"
          />
    <path d="M559.71484,229.359a.09961.09961,0,0,1-.0625-.022l-1.4834-1.1875a.1.1,0,0,1,.125-.15625l1.4834,1.1875a.10055.10055,0,0,1,.01563.14063A.09891.09891,0,0,1,559.71484,229.359Z"
          />
    <path d="M557.749,222.27113a.10543.10543,0,0,1-.03809-.00732.10072.10072,0,0,1-.05469-.13037l.74219-1.81836a.1001.1001,0,1,1,.18555.0752l-.74219,1.81836A.1002.1002,0,0,1,557.749,222.27113Z"
          />
    <path d="M561.38379,237.52308a.09912.09912,0,0,1-.07031-.0293l-1.26074-1.26172a.1002.1002,0,0,1,0-.1416.099.099,0,0,1,.14063,0l1.26074,1.26172a.1002.1002,0,0,1,0,.1416A.09912.09912,0,0,1,561.38379,237.52308Z"
          />
    <path d="M571.06152,237.89418A.10027.10027,0,0,1,571,237.715l1.29785-1.002a.099.099,0,0,1,.14063.01807.10008.10008,0,0,1-.01758.14014l-1.29785,1.002A.10083.10083,0,0,1,571.06152,237.89418Z"
          />
    <path d="M582.81641,221.403a.1.1,0,0,1-.05371-.18457l1.29785-.81641a.1001.1001,0,1,1,.10742.16895l-1.29785.81641A.09806.09806,0,0,1,582.81641,221.403Z"
          />
    <path d="M566.2041,218.52357a.10212.10212,0,0,1-.05957-.01953l-1.66895-1.22461a.10079.10079,0,0,1-.02148-.13965.09881.09881,0,0,1,.14063-.02148l1.66895,1.22461a.1008.1008,0,0,1,.02148.13965A.1022.1022,0,0,1,566.2041,218.52357Z"
          />
    <path d="M583.499,217.05287a.09974.09974,0,0,1-.02539.13916.10177.10177,0,0,1-.05664.01758.09729.09729,0,0,1-.082-.04346l-.89062-1.29883a.09974.09974,0,0,1,.02539-.13916"
          />
    <path d="M577.03125,220.37855a.0965.0965,0,0,1-.05762-.01855l-1.26074-.89014a.09985.09985,0,1,1,.11523-.16309l1.26074.89014a.09986.09986,0,0,1-.05762.18164Z"
          />
    <path d="M579.627,228.72816a.10107.10107,0,0,1-.07227-.03076.09964.09964,0,0,1,.00293-.14111L580.707,227.443a.09852.09852,0,0,1,.1416.00244.09964.09964,0,0,1-.00293.14111l-1.14941,1.11328A.09792.09792,0,0,1,579.627,228.72816Z"
          />
    <path d="M579.84961,236.52113a.1023.1023,0,0,1-.05371-.01562.09932.09932,0,0,1-.03027-.13818l.85254-1.33594a.1013.1013,0,0,1,.1377-.03076.09932.09932,0,0,1,.03027.13818l-.85254,1.33594A.09875.09875,0,0,1,579.84961,236.52113Z"
          />
    <path d="M580.07227,232.10511a.09513.09513,0,0,1-.05078-.01416l-1.37207-.81641a.09989.09989,0,0,1-.03516-.13721.101.101,0,0,1,.13672-.03467l1.37207.81641a.09993.09993,0,0,1-.05078.186Z"
          />
    <path d="M576.03027,223.236a.10009.10009,0,0,1-.08105-.1582l1.1123-1.55859a.09973.09973,0,1,1,.16211.11621l-1.1123,1.55859A.09916.09916,0,0,1,576.03027,223.236Z"
          />
    <path d="M567.168,222.79115a.10136.10136,0,0,1-.07812-.03711l-.96387-1.188a.10035.10035,0,0,1,.15625-.126l.96387,1.188a.10133.10133,0,0,1-.01465.14063A.09994.09994,0,0,1,567.168,222.79115Z"
          />
    <path d="M562.23633,226.5016a.09994.09994,0,0,1-.03027-.19531l2.002-.63086a.10111.10111,0,0,1,.126.06494.1.1,0,0,1-.06543.12549l-2.002.63086A.09351.09351,0,0,1,562.23633,226.5016Z"
          />
    <path d="M570.65332,224.53529a.10224.10224,0,0,1-.06641-.0249.10072.10072,0,0,1-.00879-.14111l1.1123-1.26221a.1.1,0,1,1,.15039.13184l-1.1123,1.26221A.10044.10044,0,0,1,570.65332,224.53529Z"
          />
    <path d="M574.36133,228.02308a.09733.09733,0,0,1-.05957-.02.09973.09973,0,0,1-.02051-.13965l.96484-1.29883a.09763.09763,0,0,1,.13965-.02051.09973.09973,0,0,1,.02051.13965l-.96484,1.29883A.09991.09991,0,0,1,574.36133,228.02308Z"
          />
    <path d="M572.80469,235.5934a.10007.10007,0,0,1-.0459-.189l1.29688-.668a.1.1,0,0,1,.0918.17773l-1.29687.668A.09661.09661,0,0,1,572.80469,235.5934Z"
          />
    <path d="M571.02441,227.13246a.10041.10041,0,0,1-.08008-.16064l.92676-1.22461a.10039.10039,0,0,1,.16016.12109l-.92676,1.22461A.10032.10032,0,0,1,571.02441,227.13246Z"
          />
    <path d="M562.16211,229.95277a.09951.09951,0,0,1-.09961-.1001v-1.55859a.09961.09961,0,1,1,.19922,0v1.55859A.09951.09951,0,0,1,562.16211,229.95277Z"
          />
    <path d="M565.0918,234.8141a.10039.10039,0,0,1-.05078-.18652l1.335-.7793a.09847.09847,0,0,1,.13672.03613.10007.10007,0,0,1-.03516.13672l-1.335.7793A.10176.10176,0,0,1,565.0918,234.8141Z"
          />
    <path d="M570.17188,235.18519a.10177.10177,0,0,1-.05664-.01758l-1.40918-.96484a.10009.10009,0,0,1,.11328-.165l1.40918.96484a.09967.09967,0,0,1,.02539.13916A.09729.09729,0,0,1,570.17188,235.18519Z"
          />
    <path d="M627.26367-78.48912a.10057.10057,0,0,1-.042-.00928.1.1,0,0,1-.04883-.13281l.667-1.44727a.099.099,0,0,1,.13281-.04883.1.1,0,0,1,.04883.13281l-.667,1.44727A.09928.09928,0,0,1,627.26367-78.48912Z"
          />
    <path d="M618.91992-80.4193a.09854.09854,0,0,1-.082-.04346.09974.09974,0,0,1,.02539-.13916l1.18652-.81592a.09861.09861,0,0,1,.13867.02588.09974.09974,0,0,1-.02539.13916l-1.18652.81592A.10177.10177,0,0,1,618.91992-80.4193Z"
          />
    <path d="M620.36621-91.55162a.10081.10081,0,0,1-.08008-.04l-1.001-1.33594a.09951.09951,0,0,1,.02051-.14014.101.101,0,0,1,.13965.02l1.001,1.33594a.09951.09951,0,0,1-.02051.14014A.10052.10052,0,0,1,620.36621-91.55162Z"
          />
    <path d="M620.21777-100.829a.09671.09671,0,0,1-.03809-.00781l-1.52051-.63086a.10072.10072,0,0,1-.05469-.13037.09808.09808,0,0,1,.13086-.0542l1.52051.63086a.10072.10072,0,0,1,.05469.13037A.1015.1015,0,0,1,620.21777-100.829Z"
          />
    <path d="M617.43652-100.53209a.10172.10172,0,0,1-.0791-.03857l-1.0752-1.373a.10008.10008,0,0,1,.01758-.14014.09907.09907,0,0,1,.14063.01709l1.0752,1.373a.10008.10008,0,0,1-.01758.14014A.0984.0984,0,0,1,617.43652-100.53209Z"
          />
    <path d="M615.99121-92.6278a.10176.10176,0,0,1-.05078-.01367.09922.09922,0,0,1-.03516-.13672l.88965-1.52148a.101.101,0,0,1,.13672-.03613.09922.09922,0,0,1,.03516.13672l-.88965,1.52148A.09874.09874,0,0,1,615.99121-92.6278Z"
          />
    <path d="M616.918-84.79772a.09991.09991,0,0,1-.08008-.04053.09973.09973,0,0,1,.02051-.13965l1.14941-.85352a.09943.09943,0,0,1,.13965.02051.09973.09973,0,0,1-.02051.13965l-1.14941.85352A.09733.09733,0,0,1,616.918-84.79772Z"
          />
    <path d="M632.8623-103.538a.09661.09661,0,0,1-.0459-.01123.09959.09959,0,0,1-.043-.13428l.7041-1.373a.09881.09881,0,0,1,.13477-.04346.09959.09959,0,0,1,.043.13428l-.7041,1.373A.09981.09981,0,0,1,632.8623-103.538Z"
          />
    <path d="M623.96289-102.202a.09959.09959,0,0,1-.085-.04785.09926.09926,0,0,1,.03223-.13721l1.44629-.89062a.09966.09966,0,0,1,.1377.03271.09926.09926,0,0,1-.03223.13721l-1.44629.89063A.10093.10093,0,0,1,623.96289-102.202Z"
          />
    <path d="M624.22266-92.55358a.0999.0999,0,0,1-.05762-.01855.09928.09928,0,0,1-.02344-.13965l.92676-1.29883a.09913.09913,0,0,1,.13867-.02344.09928.09928,0,0,1,.02344.13965l-.92676,1.29883A.09916.09916,0,0,1,624.22266-92.55358Z"
          />
    <path d="M621.58984-84.09264a.1001.1001,0,0,1-.07617-.03516.09929.09929,0,0,1,.01074-.14062l1.55762-1.33594a.09836.09836,0,0,1,.1416.01074.09929.09929,0,0,1-.01074.14063l-1.55762,1.33594A.09921.09921,0,0,1,621.58984-84.09264Z"
          />
    <path d="M621.18164-96.079a.09951.09951,0,0,1-.09961-.1001v-1.55859a.09951.09951,0,0,1,.09961-.1001.09951.09951,0,0,1,.09961.1001v1.55859A.09951.09951,0,0,1,621.18164-96.079Z"
          />
    <path d="M623.333-82.64586a.10073.10073,0,0,1-.083-.04395.1001.1001,0,0,1,.02734-.13916l1.37207-.92725a.10227.10227,0,0,1,.13867.02686.1001.1001,0,0,1-.02734.13916l-1.37207.92725A.09964.09964,0,0,1,623.333-82.64586Z"
          />
    <path d="M627.33691-82.46032a.09912.09912,0,0,1-.07422-.0332l-1.0752-1.187a.09974.09974,0,0,1,.00684-.14111.09947.09947,0,0,1,.1416.00732l1.0752,1.187a.09974.09974,0,0,1-.00684.14111A.10139.10139,0,0,1,627.33691-82.46032Z"
          />
    <path d="M624.88965-100.161a.10114.10114,0,0,1-.09473-.06689.10125.10125,0,0,1,.06152-.12744l1.8916-.668a.102.102,0,0,1,.12793.061.10125.10125,0,0,1-.06152.12744l-1.8916.668A.0992.0992,0,0,1,624.88965-100.161Z"
          />
    <path d="M626.92969-95.03991a.1.1,0,0,1-.08105-.0415L625.47656-96.974a.10009.10009,0,0,1,.02246-.13965.1.1,0,0,1,.13965.02246l1.37207,1.89258a.10009.10009,0,0,1-.02246.13965A.0999.0999,0,0,1,626.92969-95.03991Z"
          />
    <path d="M634.3457-97.67467a.09814.09814,0,0,1-.05566-.01709l-1.22363-.81641a.09936.09936,0,0,1-.02734-.13867.09953.09953,0,0,1,.13867-.02734l1.22363.81641a.09936.09936,0,0,1,.02734.13867A.1.1,0,0,1,634.3457-97.67467Z"
          />
    <path d="M625.63184-89.39928a.09951.09951,0,0,1-.09961-.1001V-91.1693a.09951.09951,0,0,1,.09961-.1001.09951.09951,0,0,1,.09961.1001v1.66992A.09951.09951,0,0,1,625.63184-89.39928Z"
          />
    <path d="M632.8252-90.03014a.10083.10083,0,0,1-.06152-.021l-1.335-1.03906a.09985.09985,0,0,1-.01758-.14062.10067.10067,0,0,1,.14063-.01758l1.335,1.03906a.09985.09985,0,0,1,.01758.14063A.1003.1003,0,0,1,632.8252-90.03014Z"
          />
    <path d="M626.04-85.53991a.09951.09951,0,0,1-.09961-.1001V-87.1986a.09951.09951,0,0,1,.09961-.1001.09951.09951,0,0,1,.09961.1001V-85.64A.09951.09951,0,0,1,626.04-85.53991Z"
          />
    <path d="M628.96875-80.67858a.09977.09977,0,0,1-.08594-.0498.10007.10007,0,0,1,.03516-.13672l1.335-.7793a.09868.09868,0,0,1,.13672.03613.10007.10007,0,0,1-.03516.13672l-1.335.7793A.10176.10176,0,0,1,628.96875-80.67858Z"
          />
    <path d="M619.958-106.32116a.09814.09814,0,0,1-.05566-.01709.09927.09927,0,0,1-.02734-.13867l1.03906-1.55859a.09936.09936,0,0,1,.13867-.02734.09927.09927,0,0,1,.02734.13867l-1.03906,1.55859A.1.1,0,0,1,619.958-106.32116Z"
          />
    <path d="M618.91992-109.06725a.09854.09854,0,0,1-.082-.04346.09974.09974,0,0,1,.02539-.13916l1.18652-.81641a.09861.09861,0,0,1,.13867.02588.09974.09974,0,0,1-.02539.13916l-1.18652.81641A.10177.10177,0,0,1,618.91992-109.06725Z"
          />
    <path d="M618.957-116.118a.09871.09871,0,0,1-.07129-.03027.09934.09934,0,0,1,.002-.1416l1.44629-1.41016a.09949.09949,0,0,1,.14063.002.09934.09934,0,0,1-.002.1416l-1.44629,1.41016A.09832.09832,0,0,1,618.957-116.118Z"
          />
    <path d="M614.72949-115.413a.10107.10107,0,0,1-.07227-.03076.09963.09963,0,0,1,.00293-.14111l1.15039-1.11328a.09852.09852,0,0,1,.1416.00244.09963.09963,0,0,1-.00293.14111l-1.15039,1.11328A.09792.09792,0,0,1,614.72949-115.413Z"
          />
    <path d="M617.91895-108.80748a.0999.0999,0,0,1-.05859-.019l-1.44629-1.03906a.09944.09944,0,0,1-.02246-.13916.10049.10049,0,0,1,.13965-.02295l1.44629,1.03906a.09944.09944,0,0,1,.02246.13916A.09916.09916,0,0,1,617.91895-108.80748Z"
          />
    <path d="M624.22266-121.202a.09991.09991,0,0,1-.05762-.01855.09928.09928,0,0,1-.02344-.13965l.92676-1.29883a.1.1,0,0,1,.13867-.02344.09928.09928,0,0,1,.02344.13965l-.92676,1.29883A.09916.09916,0,0,1,624.22266-121.202Z"
          />
    <path d="M621.58984-112.74108a.1001.1001,0,0,1-.07617-.03516.09929.09929,0,0,1,.01074-.14062l1.55762-1.33594a.0992.0992,0,0,1,.1416.01074.09929.09929,0,0,1-.01074.14063l-1.55762,1.33594A.09921.09921,0,0,1,621.58984-112.74108Z"
          />
    <path d="M623.333-111.29381a.10073.10073,0,0,1-.083-.04395.1001.1001,0,0,1,.02734-.13916l1.37207-.92773a.1009.1009,0,0,1,.13867.02686.1001.1001,0,0,1-.02734.13916l-1.37207.92773A.09964.09964,0,0,1,623.333-111.29381Z"
          />
    <path d="M627.33691-111.10826a.09912.09912,0,0,1-.07422-.0332l-1.0752-1.1875a.09974.09974,0,0,1,.00684-.14111.0999.0999,0,0,1,.1416.00732l1.0752,1.1875a.09974.09974,0,0,1-.00684.14111A.10139.10139,0,0,1,627.33691-111.10826Z"
          />
    <path d="M625.63184-118.04772a.09951.09951,0,0,1-.09961-.1001v-1.66992a.09951.09951,0,0,1,.09961-.1001.09951.09951,0,0,1,.09961.1001v1.66992A.09951.09951,0,0,1,625.63184-118.04772Z"
          />
    <path d="M632.8252-118.67858a.10083.10083,0,0,1-.06152-.021l-1.335-1.03906a.09985.09985,0,0,1-.01758-.14062.10067.10067,0,0,1,.14063-.01758l1.335,1.03906a.09985.09985,0,0,1,.01758.14063A.1003.1003,0,0,1,632.8252-118.67858Z"
          />
    <path d="M633.085-116.0067a.09915.09915,0,0,1-.03516-.00635l-1.70605-.63086a.09938.09938,0,0,1-.05859-.12842.09886.09886,0,0,1,.12891-.05908l1.70605.63086a.09938.09938,0,0,1,.05859.12842A.09921.09921,0,0,1,633.085-116.0067Z"
          />
    <path d="M630.11816-113.409h-1.4834a.09951.09951,0,0,1-.09961-.1001.09951.09951,0,0,1,.09961-.1001h1.4834a.09951.09951,0,0,1,.09961.1001A.09951.09951,0,0,1,630.11816-113.409Z"
          />
    <path d="M633.12207-113.409a.09777.09777,0,0,1-.06738-.02637.09942.09942,0,0,1-.00586-.1416l.88965-.96484a.09959.09959,0,0,1,.14063-.00586.09942.09942,0,0,1,.00586.1416l-.88965.96484A.09782.09782,0,0,1,633.12207-113.409Z"
          />
    <path d="M711.2041-30.493a.09613.09613,0,0,1-.06055-.021.09925.09925,0,0,1-.01855-.14014l1.00293-1.30664a.09871.09871,0,0,1,.13965-.01807.09925.09925,0,0,1,.01855.14014l-1.00293,1.30664A.09941.09941,0,0,1,711.2041-30.493Z"
          />
    <path d="M707.20215-23.57555a.1.1,0,0,1-.083-.04443.09953.09953,0,0,1,.02734-.13867l1.26465-.85156a.09986.09986,0,0,1,.13867.02734.09953.09953,0,0,1-.02734.13867l-1.26465.85156A.09595.09595,0,0,1,707.20215-23.57555Z"
          />
    <path d="M711.06543-22.2318a.1.1,0,0,1-.09863-.084.10033.10033,0,0,1,.082-.11475l1.68652-.27783a.09565.09565,0,0,1,.11523.08252.10033.10033,0,0,1-.082.11475l-1.68652.27783Z"
          />
    <path d="M711.90527-27.2318a.10114.10114,0,0,1-.09473-.06689.10125.10125,0,0,1,.06152-.12744l1.4834-.52393a.10073.10073,0,0,1,.12793.061.10125.10125,0,0,1-.06152.12744l-1.4834.52393A.0992.0992,0,0,1,711.90527-27.2318Z"
          />
    <path d="M718.12891-20.79869a.099.099,0,0,1-.07715-.03662l-1.21582-1.479a.09951.09951,0,0,1,.01367-.14062.10062.10062,0,0,1,.14063.01367l1.21582,1.479a.09951.09951,0,0,1-.01367.14063A.09776.09776,0,0,1,718.12891-20.79869Z"
          />
    <path d="M709.0293-39.72057a.09833.09833,0,0,1-.05469-.0166.09866.09866,0,0,1-.02832-.13867l1.09863-1.66455a.10017.10017,0,0,1,.1377-.02832.09866.09866,0,0,1,.02832.13867l-1.09863,1.66455A.09921.09921,0,0,1,709.0293-39.72057Z"
          />
    <path d="M710.32617-39.25768a.09882.09882,0,0,1-.08984-.05713.09941.09941,0,0,1,.04688-.1333l1.49609-.71289a.10058.10058,0,0,1,.13281.04736.09941.09941,0,0,1-.04687.1333l-1.49609.71289A.10223.10223,0,0,1,710.32617-39.25768Z"
          />
    <path d="M714.69727-34.93541a.10091.10091,0,0,1-.09961-.08789.09993.09993,0,0,1,.08691-.11133l1.667-.20557a.09369.09369,0,0,1,.1123.08691.09993.09993,0,0,1-.08691.11133l-1.667.20557Z"
          />
    <path d="M713.73047-32.04381a.10077.10077,0,0,1-.08691-.05029l-.8916-1.54541a.09987.09987,0,0,1,.03711-.13623.10009.10009,0,0,1,.13672.03662l.8916,1.54541a.09987.09987,0,0,1-.03711.13623A.09828.09828,0,0,1,713.73047-32.04381Z"
          />
    <path d="M714.06055-36.14293a.1.1,0,0,1-.09961-.09229l-.15527-2.001a.10037.10037,0,0,1,.0918-.10742.09968.09968,0,0,1,.10742.0918l.15527,2.001a.10037.10037,0,0,1-.0918.10742Z"
          />
    <path d="M717.34961-35.9525a.1009.1009,0,0,1-.09375-.06445.10061.10061,0,0,1,.05762-.12891l2.18164-.83643a.10194.10194,0,0,1,.12988.05762.10061.10061,0,0,1-.05762.12891l-2.18164.83643A.10518.10518,0,0,1,717.34961-35.9525Z"
          />
    <path d="M708.22754-40.16588a.10282.10282,0,0,1-.06445-.02344l-1.22363-1.02a.10028.10028,0,0,1-.0127-.14062.10018.10018,0,0,1,.1416-.0127l1.22363,1.02a.10028.10028,0,0,1,.0127.14063A.10146.10146,0,0,1,708.22754-40.16588Z"
          />
    <path d="M705.80176-26.94762a.09942.09942,0,0,1-.08008-.04.10034.10034,0,0,1,.01953-.14014l1.20215-.90674a.10063.10063,0,0,1,.14063.02.09969.09969,0,0,1-.01953.13965l-1.20215.90723A.10338.10338,0,0,1,705.80176-26.94762Z"
          />
    <path d="M698.93164-34.5526a.10032.10032,0,0,1-.09961-.08887.10038.10038,0,0,1,.08887-.11084l1.82031-.20312.01074-.00049a.10032.10032,0,0,1,.09961.08887.10038.10038,0,0,1-.08887.11084l-1.82031.20313Z"
          />
    <path d="M690.84766-35.75963a.10063.10063,0,0,1-.0957-.0708l-.45215-1.46582a.10008.10008,0,0,1,.06641-.125.10209.10209,0,0,1,.125.06641l.45215,1.46582a.10008.10008,0,0,1-.06641.125A.1015.1015,0,0,1,690.84766-35.75963Z"
          />
    <path d="M681.165-36.01256a.08625.08625,0,0,1-.02539-.00342.09987.09987,0,0,1-.07129-.12256l.45117-1.68506a.10169.10169,0,0,1,.12207-.0708.09987.09987,0,0,1,.07129.12256l-.45117,1.68506A.10053.10053,0,0,1,681.165-36.01256Z"
          />
    <path d="M681.334-27.3236a.09833.09833,0,0,1-.05469-.0166.09866.09866,0,0,1-.02832-.13867l1.16309-1.7627a.09991.09991,0,0,1,.1377-.02832.09866.09866,0,0,1,.02832.13867l-1.16309,1.7627A.09921.09921,0,0,1,681.334-27.3236Z"
          />
    <path d="M682.80566-35.68785a.099.099,0,0,1-.0918-.061.09971.09971,0,0,1,.05273-.13086l1.60352-.68457a.0975.0975,0,0,1,.13086.05273.09971.09971,0,0,1-.05273.13086l-1.60352.68457A.09378.09378,0,0,1,682.80566-35.68785Z"
          />
    <path d="M694.56641-33.3026a.08625.08625,0,0,1-.02539-.00342.09987.09987,0,0,1-.07129-.12256l.42188-1.57715a.103.103,0,0,1,.12207-.0708.09987.09987,0,0,1,.07129.12256l-.42187,1.57715A.10053.10053,0,0,1,694.56641-33.3026Z"
          />
    <path d="M700.8877-32.10729a.08625.08625,0,0,1-.02539-.00342.09987.09987,0,0,1-.07129-.12256l.41211-1.541a.1022.1022,0,0,1,.12207-.0708.09987.09987,0,0,1,.07129.12256l-.41211,1.541A.10053.10053,0,0,1,700.8877-32.10729Z"
          />
    <path d="M701.34375-26.06823a.08625.08625,0,0,1-.02539-.00342.09987.09987,0,0,1-.07129-.12256l.40332-1.50586a.101.101,0,0,1,.12207-.0708.09987.09987,0,0,1,.07129.12256l-.40332,1.50586A.10053.10053,0,0,1,701.34375-26.06823Z"
          />
    <path d="M694.0459-29.06285a.10007.10007,0,0,1-.09766-.0791l-.47559-2.24023a.09924.09924,0,0,1,.07715-.11865.09985.09985,0,0,1,.11816.07666l.47559,2.24023a.09924.09924,0,0,1-.07715.11865Z"
          />
    <path d="M695.72461-27.306a.1015.1015,0,0,1-.09277-.062.10072.10072,0,0,1,.05469-.13037l1.2959-.53613a.09964.09964,0,0,1,.13086.0542.10072.10072,0,0,1-.05469.13037l-1.2959.53613A.09671.09671,0,0,1,695.72461-27.306Z"
          />
    <path d="M686.5957-55.14879a.09953.09953,0,0,1-.09473-.06787l-.51465-1.521a.10044.10044,0,0,1,.0625-.127.10044.10044,0,0,1,.127.0625l.51465,1.521a.10044.10044,0,0,1-.0625.127A.10615.10615,0,0,1,686.5957-55.14879Z"
          />
    <path d="M682.96191-46.59557a.09882.09882,0,0,1-.08984-.05713.09941.09941,0,0,1,.04688-.1333l1.49609-.71289a.101.101,0,0,1,.13281.04736.09941.09941,0,0,1-.04687.1333l-1.49609.71289A.10223.10223,0,0,1,682.96191-46.59557Z"
          />
    <path d="M687.333-42.27282a.10091.10091,0,0,1-.09961-.08789.09993.09993,0,0,1,.08691-.11133l1.667-.20605a.09451.09451,0,0,1,.1123.08691.09993.09993,0,0,1-.08691.11133l-1.667.20605Z"
          />
    <path d="M698.36914-37.46959a.099.099,0,0,1-.08008-.041.09973.09973,0,0,1,.02051-.13965l1.53027-1.12646a.09865.09865,0,0,1,.13965.02148.09973.09973,0,0,1-.02051.13965l-1.53027,1.12646A.10212.10212,0,0,1,698.36914-37.46959Z"
          />
    <path d="M692.5498-38.53063a.10065.10065,0,0,1-.06055-.02051l-1.56348-1.1875a.10028.10028,0,0,1-.01953-.14014.09991.09991,0,0,1,.14063-.019l1.56348,1.1875a.10028.10028,0,0,1,.01953.14014A.10171.10171,0,0,1,692.5498-38.53063Z"
          />
    <path d="M682.18359-40.96471a.10114.10114,0,0,1-.09473-.06689.10125.10125,0,0,1,.06152-.12744l1.48438-.52393a.102.102,0,0,1,.12793.061.10125.10125,0,0,1-.06152.12744l-1.48437.52393A.0992.0992,0,0,1,682.18359-40.96471Z"
          />
    <path d="M711.07422-47.35533a.10181.10181,0,0,1-.09277-.06152l-.63086-1.51367a.09934.09934,0,0,1,.05371-.13086.09932.09932,0,0,1,.12988.05371L711.166-47.494a.09934.09934,0,0,1-.05371.13086A.09334.09334,0,0,1,711.07422-47.35533Z"
          />
    <path d="M686.69629-43.48082a.1.1,0,0,1-.09961-.09229l-.15527-2.001a.10037.10037,0,0,1,.0918-.10742.09839.09839,0,0,1,.10742.0918l.15527,2.001a.10037.10037,0,0,1-.0918.10742Z"
          />
    <path d="M689.98535-43.29039a.1009.1009,0,0,1-.09375-.06445.10061.10061,0,0,1,.05762-.12891l2.18164-.83643a.10105.10105,0,0,1,.12988.05762.10061.10061,0,0,1-.05762.12891l-2.18164.83643A.10518.10518,0,0,1,689.98535-43.29039Z"
          />
    <path d="M690.43848-51.00621a.10044.10044,0,0,1-.0752-.03418.10069.10069,0,0,1,.00879-.14111l1.10449-.97168a.09956.09956,0,0,1,.1416.00928.10069.10069,0,0,1-.00879.14111l-1.10449.97168A.10224.10224,0,0,1,690.43848-51.00621Z"
          />
    <path d="M695.60254-50.50524a.10083.10083,0,0,1-.08105-.041l-1.01172-1.38525a.1.1,0,0,1,.02246-.13965.09991.09991,0,0,1,.13965.02148l1.01172,1.38525a.1.1,0,0,1-.02246.13965A.09715.09715,0,0,1,695.60254-50.50524Z"
          />
    <path d="M697.27539-41.41246a.09777.09777,0,0,1-.02637-.00342l-1.6123-.43213a.1.1,0,0,1-.07031-.12256.09861.09861,0,0,1,.123-.0708l1.6123.43213a.1.1,0,0,1,.07031.12256A.1.1,0,0,1,697.27539-41.41246Z"
          />
    <path d="M697.17969-47.50817a.10171.10171,0,0,1-.08008-.03955.10022.10022,0,0,1,.01953-.14014l1.34863-1.02148a.1009.1009,0,0,1,.14063.019.10022.10022,0,0,1-.01953.14014l-1.34863,1.02148A.10065.10065,0,0,1,697.17969-47.50817Z"
          />
    <path d="M700.124-46.60338a.0965.0965,0,0,1-.05762-.01855.10057.10057,0,0,1-.02441-.13916l1.0498-1.48584a.09981.09981,0,0,1,.13965-.02393.10057.10057,0,0,1,.02441.13916l-1.0498,1.48584A.10011.10011,0,0,1,700.124-46.60338Z"
          />
    <path d="M702.5293-43.11559a.09777.09777,0,0,1-.02637-.00342.10027.10027,0,0,1-.07031-.12256l.38477-1.43359a.09934.09934,0,0,1,.123-.0708.10027.10027,0,0,1,.07031.12256l-.38477,1.43359A.1.1,0,0,1,702.5293-43.11559Z"
          />
    <path d="M703.69141-47.4525a.101.101,0,0,1-.085-.04687l-.70117-1.10986a.09977.09977,0,0,1,.03125-.1377.10126.10126,0,0,1,.13867.03125l.70117,1.10986a.09976.09976,0,0,1-.03125.1377A.09805.09805,0,0,1,703.69141-47.4525Z"
          />
    <path d="M680.86328-47.50377a.10282.10282,0,0,1-.06445-.02344l-1.22363-1.02a.10028.10028,0,0,1-.0127-.14062.10018.10018,0,0,1,.1416-.0127l1.22363,1.02a.10028.10028,0,0,1,.0127.14063A.10146.10146,0,0,1,680.86328-47.50377Z"
          />
    <path d="M680.13574-37.90221a.10176.10176,0,0,1-.09082-.05762l-.5127-1.09814a.09991.09991,0,0,1,.04883-.1333.10086.10086,0,0,1,.13281.04834l.5127,1.09814a.09991.09991,0,0,1-.04883.1333A.09739.09739,0,0,1,680.13574-37.90221Z"
          />
    <path d="M676.55469-40.015a.10114.10114,0,0,1-.09473-.06689l-.48047-1.3584a.10125.10125,0,0,1,.06152-.12744.10237.10237,0,0,1,.12793.061l.48047,1.3584a.10125.10125,0,0,1-.06152.12744A.0992.0992,0,0,1,676.55469-40.015Z"
          />
    <path d="M669.75977-41.87584a.09841.09841,0,0,1-.08691-.05127l-.9873-1.7627a.10007.10007,0,0,1,.03809-.13623.0999.0999,0,0,1,.13574.03857l.9873,1.7627a.10007.10007,0,0,1-.03809.13623A.104.104,0,0,1,669.75977-41.87584Z"
          />
    <path d="M663.19727-43.17418a.10063.10063,0,0,1-.0957-.0708l-.45215-1.46631a.10008.10008,0,0,1,.06641-.125.10089.10089,0,0,1,.125.06641l.45215,1.46631a.10008.10008,0,0,1-.06641.125A.1015.1015,0,0,1,663.19727-43.17418Z"
          />
    <path d="M659.42969-36.27086a.10146.10146,0,0,1-.07715-.03613.10028.10028,0,0,1,.0127-.14062l1.18555-.98779a.10134.10134,0,0,1,.1416.0127.10028.10028,0,0,1-.0127.14063l-1.18555.98779A.10282.10282,0,0,1,659.42969-36.27086Z"
          />
    <path d="M669.3457-37.6068a.10055.10055,0,0,1-.08789-.05176l-.77637-1.39941a.10056.10056,0,0,1,.03906-.13574.09958.09958,0,0,1,.13672.03906l.77637,1.39941a.10056.10056,0,0,1-.03906.13574A.09855.09855,0,0,1,669.3457-37.6068Z"
          />
    <path d="M675.16992-37.85094a.099.099,0,0,1-.07715-.03662.09943.09943,0,0,1,.01367-.14062l1.377-1.12891a.0993.0993,0,0,1,.14063.01367.09943.09943,0,0,1-.01367.14063l-1.377,1.12891A.09776.09776,0,0,1,675.16992-37.85094Z"
          />
    <path d="M674.709-32.40367a.09912.09912,0,0,1-.07031-.0293.1002.1002,0,0,1,0-.1416l1.15234-1.15088a.099.099,0,0,1,.14063,0,.1002.1002,0,0,1,0,.1416L674.7793-32.433A.09912.09912,0,0,1,674.709-32.40367Z"
          />
    <path d="M663.877-38.68932a.09777.09777,0,0,1-.02637-.00342l-1.75488-.4707a.1.1,0,0,1-.07031-.12256.10091.10091,0,0,1,.123-.0708l1.75488.4707a.1.1,0,0,1,.07031.12256A.1.1,0,0,1,663.877-38.68932Z"
          />
    <path d="M662.47754-33.03258a.09777.09777,0,0,1-.02637-.00342l-1.28906-.34619a.10027.10027,0,0,1-.07031-.12256.09971.09971,0,0,1,.123-.0708l1.28906.34619a.10027.10027,0,0,1,.07031.12256A.1.1,0,0,1,662.47754-33.03258Z"
          />
    <path d="M668.07422-34.72106a.1015.1015,0,0,1-.09277-.062.10072.10072,0,0,1,.05469-.13037l1.29492-.53613a.0999.0999,0,0,1,.13086.0542.10072.10072,0,0,1-.05469.13037l-1.29492.53613A.09671.09671,0,0,1,668.07422-34.72106Z"
          />
    <path d="M671.2168-30.11315a.10122.10122,0,0,1-.0918-.05957.1.1,0,0,1,.05176-.13184l1.35059-.59863a.10048.10048,0,0,1,.13184.05078.1.1,0,0,1-.05176.13184l-1.35059.59863A.09553.09553,0,0,1,671.2168-30.11315Z"
          />
    <path d="M669.23633-46.08825a.09777.09777,0,0,1-.02637-.00342.1.1,0,0,1-.07031-.12256l.42285-1.57715a.10047.10047,0,0,1,.123-.0708.1.1,0,0,1,.07031.12256l-.42285,1.57715A.1.1,0,0,1,669.23633-46.08825Z"
          />
    <path d="M666.99219-44.73082a.10019.10019,0,0,1-.07129-.02979.1002.1002,0,0,1,.001-.1416l1.19824-1.17725a.10065.10065,0,0,1,.1416.001.1002.1002,0,0,1-.001.1416l-1.19824,1.17725A.10068.10068,0,0,1,666.99219-44.73082Z"
          />
    <path d="M679.01563-44.61852a.10077.10077,0,0,1-.08691-.05029.09987.09987,0,0,1,.03711-.13623l1.54492-.89209a.09925.09925,0,0,1,.13672.03662.09987.09987,0,0,1-.03711.13623l-1.54492.89209A.09828.09828,0,0,1,679.01563-44.61852Z"
          />
    <path d="M675.33887-47.94811a.10025.10025,0,0,1-.08887-.0542.10015.10015,0,0,1,.043-.13477l1.4248-.73193a.10055.10055,0,0,1,.13477.043.10015.10015,0,0,1-.043.13477l-1.4248.73193A.09661.09661,0,0,1,675.33887-47.94811Z"
          />
    <path d="M666.44238-54.29088a.09939.09939,0,0,1-.09082-.05908.09958.09958,0,0,1,.0498-.13232l1.39551-.62451a.1.1,0,0,1,.13184.05029.09958.09958,0,0,1-.0498.13232l-1.39551.62451A.1034.1034,0,0,1,666.44238-54.29088Z"
          />
    <path d="M669.95508-51.92711a.10073.10073,0,0,1-.083-.04395l-1.18457-1.73926a.10106.10106,0,0,1,.02637-.13867.10117.10117,0,0,1,.13965.02637l1.18457,1.73926a.10106.10106,0,0,1-.02637.13867A.10177.10177,0,0,1,669.95508-51.92711Z"
          />
    <path d="M669.92578-60.8485a.09777.09777,0,0,1-.02637-.00342l-1.29-.3457a.1.1,0,0,1-.07031-.12256.10085.10085,0,0,1,.123-.0708l1.29.3457a.1.1,0,0,1,.07031.12256A.10053.10053,0,0,1,669.92578-60.8485Z"
          />
    <path d="M681.65332-57.05016a.10007.10007,0,0,1-.09766-.0791l-.30859-1.42725a.09981.09981,0,0,1,.07617-.11865.0985.0985,0,0,1,.11914.07666l.30859,1.42725a.09981.09981,0,0,1-.07617.11865Z"
          />
    <path d="M673.02637-57.5194a.1003.1003,0,0,1-.0791-.03857l-.94141-1.21338a.10067.10067,0,0,1,.01758-.14062.10056.10056,0,0,1,.14063.01758l.94141,1.21338a.10067.10067,0,0,1-.01758.14063A.10083.10083,0,0,1,673.02637-57.5194Z"
          />
    <path d="M673.45508-48.22252a.09777.09777,0,0,1-.02637-.00342l-1.50488-.40332a.1.1,0,0,1-.07031-.12256.10047.10047,0,0,1,.123-.0708l1.50488.40332a.1.1,0,0,1,.07031.12256A.1.1,0,0,1,673.45508-48.22252Z"
          />
    <path d="M678.90527-49.79625a.101.101,0,0,1-.09668-.07373l-.40723-1.49219a.1.1,0,0,1,.07031-.123.1014.1014,0,0,1,.123.07031l.40723,1.49219a.1.1,0,0,1-.07031.123A.09777.09777,0,0,1,678.90527-49.79625Z"
          />
    <path d="M679.28223-53.4984a.1001.1001,0,0,1-.07617-.03516.09932.09932,0,0,1,.01074-.14062l1.2959-1.1123a.09926.09926,0,0,1,.1416.01074.09932.09932,0,0,1-.01074.14063l-1.2959,1.1123A.09921.09921,0,0,1,679.28223-53.4984Z"
          />
    <path d="M623.77441-20.77135a2.1293,2.1293,0,0,0-2.127,2.127,2.1293,2.1293,0,0,0,2.127,2.127,2.1291,2.1291,0,0,0,2.126-2.127A2.1291,2.1291,0,0,0,623.77441-20.77135Zm0,3.27441a1.1478,1.1478,0,0,1-1.14648-1.14746,1.1478,1.1478,0,0,1,1.14648-1.14746,1.14759,1.14759,0,0,1,1.14551,1.14746A1.14759,1.14759,0,0,1,623.77441-17.49694Z"
          />
    <path d="M623.77441-3.67174a2.12941,2.12941,0,0,0-2.127,2.12744,2.09929,2.09929,0,0,0,.11639.66321c.00677.17535.013.37378.01935.5824.10742,3.6377.34082,6.90332,1.99121,6.90332,1.7168,0,1.92871-3.439,1.999-6.96143.004-.19263.00787-.3681.01215-.52942a2.09808,2.09808,0,0,0,.11481-.65808A2.1292,2.1292,0,0,0,623.77441-3.67174Zm0,9.29688c-.24017,0-.80035-.54279-.98773-5.29712a2.0998,2.0998,0,0,0,.98773.25464,2.09734,2.09734,0,0,0,1.00079-.26208C624.63458,4.90748,624.0946,5.62513,623.77441,5.62513Zm1.03632-6.69495a1.14246,1.14246,0,0,1-1.03632.673,1.14315,1.14315,0,0,1-1.03711-.67273,1.04745,1.04745,0,0,1-.10461-.45129c-.00018-.0083-.00476-.01514-.00476-.02344a1.14821,1.14821,0,0,1,1.14648-1.14795,1.1412,1.1412,0,0,1,1.13275,1.08472A1.39035,1.39035,0,0,1,624.81073-1.06981Z"
          />
    <path d="M623.77441,12.59242a2.1272,2.1272,0,1,0,2.126,2.127A2.1293,2.1293,0,0,0,623.77441,12.59242Zm0,3.2749a1.14771,1.14771,0,1,1,1.14551-1.14795A1.14821,1.14821,0,0,1,623.77441,15.86732Z"
          />
    <path d="M623.77441,29.69252a2.1293,2.1293,0,0,0-2.127,2.127,2.09892,2.09892,0,0,0,.11639.66315c.00677.17548.013.3739.01935.58246.10742,3.63818.34082,6.90332,1.99121,6.90332,1.7168,0,1.92871-3.439,1.999-6.96143.004-.1925.00787-.368.01215-.52942a2.09808,2.09808,0,0,0,.11481-.65808A2.1291,2.1291,0,0,0,623.77441,29.69252Zm0,9.29639c-.24017,0-.80042-.54291-.98773-5.29712a2.04242,2.04242,0,0,0,1.98853-.00745C624.63458,38.27125,624.0946,38.9889,623.77441,38.9889Zm1.03632-6.69495a1.13514,1.13514,0,0,1-2.07349.00024,3.60507,3.60507,0,0,0-.10449-.45081c-.00018-.00842-.00482-.01544-.00482-.02393a1.14032,1.14032,0,0,1,2.27924-.06323A1.27389,1.27389,0,0,1,624.81073,32.294Z"
          />
    <path d="M623.77441,45.75795a2.127,2.127,0,1,0,2.126,2.127A2.1293,2.1293,0,0,0,623.77441,45.75795Zm0,3.27441a1.14746,1.14746,0,1,1,1.14551-1.14746A1.1478,1.1478,0,0,1,623.77441,49.03236Z"
          />
    <path d="M623.77441,62.858a2.1293,2.1293,0,0,0-2.127,2.127,2.09929,2.09929,0,0,0,.11639.66321c.00677.17535.013.37378.01935.5824.10742,3.6377.34082,6.90332,1.99121,6.90332,1.7168,0,1.92871-3.439,1.999-6.96143.004-.1925.00787-.368.01215-.52942a2.09808,2.09808,0,0,0,.11481-.65808A2.1291,2.1291,0,0,0,623.77441,62.858Zm0,9.29639c-.24017,0-.80035-.54279-.98773-5.29712a2.04242,2.04242,0,0,0,1.98853-.00745C624.63458,71.43678,624.0946,72.15443,623.77441,72.15443Zm1.03632-6.69495a1.1351,1.1351,0,0,1-2.07343.00024,1.06326,1.06326,0,0,1-.10937-.47473,1.14032,1.14032,0,0,1,2.27924-.06323A1.85359,1.85359,0,0,1,624.81073,65.45948Z"
          />
    <path d="M623.77441,79.42347a2.127,2.127,0,1,0,2.126,2.127A2.1293,2.1293,0,0,0,623.77441,79.42347Zm0,3.27441a1.14746,1.14746,0,1,1,1.14551-1.14746A1.1478,1.1478,0,0,1,623.77441,82.69789Z"
          />
    <path d="M623.77441,96.52308a2.1293,2.1293,0,0,0-2.127,2.127,2.10012,2.10012,0,0,0,.11639.66339c.00677.17548.013.374.01935.5827.10742,3.6377.34082,6.90332,1.99121,6.90332,1.7168,0,1.92871-3.439,1.999-6.96191.004-.19244.00787-.36786.01215-.52924a2.09891,2.09891,0,0,0,.11481-.65826A2.1291,2.1291,0,0,0,623.77441,96.52308Zm0,9.29687c-.24017,0-.80035-.54285-.98773-5.29718a2.042,2.042,0,0,0,1.98853-.00745C624.63464,105.10225,624.09454,105.82,623.77441,105.82Zm1.03632-6.69531a1.13489,1.13489,0,0,1-2.07349.00024,1.263,1.263,0,0,1-.10449-.45093c-.00018-.00842-.00482-.01544-.00482-.02393a1.14032,1.14032,0,0,1,2.27924-.06323A2.47279,2.47279,0,0,1,624.81073,99.12465Z"
          />
    <path d="M623.77441,115.31556a2.127,2.127,0,1,0,2.126,2.127A2.1293,2.1293,0,0,0,623.77441,115.31556Zm0,3.27441a1.14746,1.14746,0,1,1,1.14551-1.14746A1.1478,1.1478,0,0,1,623.77441,118.59Z"
          />
    <path d="M623.77441,132.41517a2.1293,2.1293,0,0,0-2.127,2.127,2.10012,2.10012,0,0,0,.11639.66339c.00677.17548.013.374.01935.5827.10742,3.6377.34082,6.90332,1.99121,6.90332,1.7168,0,1.92871-3.439,1.999-6.96191.004-.19244.00787-.36786.01215-.52924a2.09891,2.09891,0,0,0,.11481-.65826A2.1291,2.1291,0,0,0,623.77441,132.41517Zm0,9.29688c-.24017,0-.80035-.54285-.98773-5.29718a2.042,2.042,0,0,0,1.98853-.00745C624.63464,140.99434,624.09454,141.712,623.77441,141.712Zm1.03632-6.69531a1.13484,1.13484,0,0,1-2.07343.00024,2.194,2.194,0,0,1-.10455-.45093c-.00018-.00842-.00482-.01544-.00482-.02393a1.14032,1.14032,0,0,1,2.27924-.06323A1.81844,1.81844,0,0,1,624.81073,135.01674Z"
          />
    <path d="M720.43359-35.04235c-1.03613-6.894-4.23828-12.54785-5.90625-13.02686L664.42773-64.8319a.93648.93648,0,0,0-.1084-.03564s-.36523.88477-.373.874a1.1659,1.1659,0,0,1,.1225.49872c-.81079,1.51147-2.96912,1.65546-3.31781,1.66815-.83838-.30231-4.42255-1.378-20.66211-5.73279-.043-.0127-4.23828-1.31006-4.23828-4.16406,0-1.05646-.20386-4.3916-2.57715-5.87378a.62908.62908,0,0,0,.02344-.09106l3.03125-42.24658-.02051-.0459.01758-.00049a.72771.72771,0,0,1,.06543-.31445l.02637-.00928c.34766-.15723,1.40918-.63672,1.40234-1.50391-.00684-.99072-1.39453-1.73633-4.24414-2.27979-.38727-.07373-.7998-.14008-1.22357-.20282a29.43558,29.43558,0,0,0-3.0094-.33179c-.0993-.00757-.2016-.01361-.30188-.02075l-.082-.00525c-1.49292-.10352-3.08905-.15472-4.73767-.14447-1.02515.00659-2.25342.04773-3.54108.12915a31.51614,31.51614,0,0,0-5.45959.638c-2.582.48767-4.5658,1.246-4.5589,2.394.00586.72607.7793,1.18164,1.43555,1.48682a.709.709,0,0,1,.0791.355l2.52246,42.18457c.00012.02112.009.04.01068.06079-1.70764,1.36084-2.57416,5.27893-2.57416,11.68726.00293.78412.31641,205.59009.31934,207.69629,0,3.92139-5.53027,11.60889-11.833,12.97705-5.459,1.18506-12.48437,2.584-15.833,2.95654a1.36119,1.36119,0,0,1-1.09277-.40234c-1.93555-1.73242-2.82031-8.11816-2.84277-12.28369.0293-1.86963,1.5459-4.42139,2.88574-6.6748,1.51038-2.54089,2.83978-4.77734,2.15729-6.09631a.9338.9338,0,0,0,.10053-.40515l2.25391-40.731-.001-.06152c0-.00732-.03613-.74512.39551-1.02148,1.12207-.71924,2.05176-1.395,2.05176-2.3877,0-1.98413-3.65094-3.44672-8.74585-4.3385-.74762-.14209-1.55829-.26294-2.4-.36591a84.02852,84.02852,0,0,0-10.65692-.65546,86.9889,86.9889,0,0,0-8.72437.43134,36.92115,36.92115,0,0,0-6.05475.92535c-4.175.905-7.02264,2.25073-7.02264,4.00317,0,1.10889,1.14746,1.88574,2.14648,2.43848.19727.10889.30176.66064.2998,1.03223l2.207,40.40942c-1.54883,1.25537-.21973,4.59937,1.40332,7.927,1.041,2.13623,2.11816,4.3457,2.11816,5.626l.002,67.24951a5.00283,5.00283,0,0,1-1.86133,2.769l.06207.06989c-.90582-.24933-1.4314-.49359-1.52887-.69147l-.00586-.06006-.97754.05225a.79551.79551,0,0,0,.0127.13672l5.07813,47.208c0,2.63623,12.09668,2.6665,12.61133,2.6665.5127,0,12.53027-.03027,12.60938-2.64062l4.14063-47.25879a.70969.70969,0,0,0,.00879-.11182l-.97852-.043-.002.0249c-.11346.22992-1.72656.64746-1.72656.64746a5.02582,5.02582,0,0,1-1.8584-2.75665V195.66957c0-9.38525,6.41309-10.1709,6.7627-10.21387,2.69531-.72314,11.585-4.40137,16.89746-6.59912l2.29688-.94873c20.627-8.46094,29.041-23.52734,29.041-52.00439V-33.87389c0-3.27637,1.14648-5.32422,2.21973-6.14795a1.30387,1.30387,0,0,1,.98438-.37061c8.71387,2.33154,14.07617,3.74609,14.94727,3.94385.28467.12585,2.37311,1.11853,2.04852,2.90125a1.16418,1.16418,0,0,1-.35516.37073c.01172-.00586-.11426.94336-.11426.94336.03223.0083.06445.01611.09766.02148l63.4541,13.50537a.71231.71231,0,0,0,.18555.02441.76484.76484,0,0,0,.51074-.20312C721.21191-20.121,721.21484-29.86608,720.43359-35.04235ZM615.29437-123.05468c.91028-.17657,1.98322-.33643,3.21832-.464,1.53192-.143,3.41956-.24622,5.6416-.2605a60.58781,60.58781,0,0,1,6.80646.29584q.52258.05914,1.01569.12866a10.10254,10.10254,0,0,1,1.70325.35968c-1.08691.40479-4.50879.87549-9.51465.90771-5.02246.02393-8.43262-.39355-9.52441-.78418A5.84759,5.84759,0,0,1,615.29437-123.05468Zm-2.76508,2.03284c-.8623-.40479-.8877-.6167-.8877-.61768-.00183-.2652.61688-.62823,1.81555-.98169.676,1.33307,6.84369,1.51538,10.12976,1.51538.20605,0,.40234-.00049.584-.002a59.95541,59.95541,0,0,0,7.33008-.44238c2.47339-.33752,3.23694-.73859,3.394-1.22449,1.55841.44006,1.94385.86084,1.94385.97253.001.05957-.14941.29932-.77344.584l-.11035.041a1.35681,1.35681,0,0,0-.60937,1.21338l.002.00537-.00507.07062a40.52817,40.52817,0,0,1-11.09961,1.27948,40.58625,40.58625,0,0,1-11.08948-1.27594A1.308,1.308,0,0,0,612.5293-121.02184Zm.63519,1.36011a42.20112,42.20112,0,0,0,11.07867,1.25366,42.239,42.239,0,0,0,11.08313-1.25269l-2.95172,41.16229c-2.218-1.114-8.06927-1.1347-8.37457-1.1347s-6.158.02142-8.37372,1.13684Zm19.1792,41.5943-.01947.27118c-.37012.3877-3.17578,1.12061-8.31934,1.15381-5.13184.02686-7.94434-.65918-8.33008-1.043l-.02271-.37982c1.17255-.67737,4.45074-1.168,8.3479-1.168C627.89288-79.23326,631.16772-78.74364,632.34369-78.06743ZM554.65375,84.58009c1.53973-.31812,3.31018-.59125,5.284-.80084,2.40149-.23132,5.3493-.38654,8.83765-.38654,10.23535,0,15.9375,1.31934,16.25391,2.001-.31738.73828-6.01953,2.05762-16.25391,2.05762s-15.93652-1.31934-16.25293-2.001C552.629,85.20186,553.35962,84.88777,554.65375,84.58009Zm-4.94086,4.70862c-1.10449-.61084-1.64062-1.12793-1.64062-1.58105,0-.79163,1.25616-1.61688,3.4834-2.33563-.0011.017-.00879.03278-.00879.05,0,2.97461,16.52539,3.00879,17.22852,3.00879s17.22949-.03418,17.22949-3.00879a.77818.77818,0,0,0-.02191-.12476c2.37744.73615,3.73285,1.59076,3.73285,2.4104,0,.44727-.6123.92969-1.60059,1.563a1.77213,1.77213,0,0,0-.72052.98932c-3.46741,1.63507-10.48254,2.75677-18.5993,2.75677-7.94922,0-14.83313-1.07715-18.37189-2.65729A1.60461,1.60461,0,0,0,549.71289,89.28871Zm.80469,1.86914a3.42392,3.42392,0,0,0-.04431-.56134c3.60687,1.57642,10.37585,2.62042,18.32166,2.62042,8.10236,0,14.9859-1.08447,18.53558-2.71307a2.82126,2.82126,0,0,0-.06.64667l-2.19287,39.62927c-3.18793-1.28448-11.472-1.663-16.32959-1.663-4.71686,0-12.6665.35657-16.04315,1.5531Zm34.53851,40.01062-.03949.714c0,.80273-5.69043,2.36572-16.123,2.36572-10.43164,0-16.12207-1.563-16.123-2.39258l-.04456-.80524c2.54077-.89868,8.75629-1.53363,16.02209-1.53363C576.3252,129.51674,582.74213,130.20832,585.05609,131.16847Zm-.72406,84.5509-4.041,46.1123.002.019c-.24707.61426-4.34668,1.71094-11.63379,1.71094-7.28809,0-11.3877-1.09668-11.63379-1.73926l-4.95605-46.09033c3.71875,1.78223,15.52637,1.80664,16.11816,1.80664C568.78125,217.53871,580.64258,217.51478,584.332,215.71937ZM634.87012,118.5c-.05219-.00531-.09192-.00964-.14941-.01544-6.06934-.60889-6.541-1.46289-6.541-1.71,0-.165.31348-1.02295,6.501-1.70947.07306-.00806.12573-.01422.18945-.02136Zm0-35.89209c-.05219-.00531-.09192-.00964-.14941-.01544-6.06934-.60889-6.541-1.46289-6.541-1.71,0-.165.31348-1.02295,6.501-1.70947.07306-.00806.12573-.01422.18945-.02136Zm0-33.66547-.14551-.015c-6.07324-.6084-6.54492-1.46289-6.54492-1.71045,0-.165.31348-1.02246,6.501-1.70947.07324-.00806.12573-.01416.18945-.0213Zm0-33.16516-.14941-.01538c-6.06934-.60889-6.541-1.46289-6.541-1.71,0-.165.3125-1.02246,6.498-1.709.07428-.0083.12775-.01453.19238-.02185Zm0-33.3642c-.05219-.00531-.09192-.00964-.14941-.01544-6.06934-.60889-6.541-1.46289-6.541-1.71,0-.165.31348-1.02295,6.501-1.70947.07306-.00806.12573-.01422.18945-.02136ZM654.35059-37.3651l-.10059-.02979c-.082-.0166-1.20215-.26758-14.94141-3.94385a2.16572,2.16572,0,0,0-1.834.54c-.61133.46826-2.60449,2.353-2.60449,6.9248V-22.0288c-.08929.01019-.18292.02069-.29785.03333-3.8291.4248-7.373,1.04395-7.373,2.68311,0,1.70508,3.56836,2.29834,7.42383,2.68506.09509.00952.168.01709.24707.02515V11.33509c-.09.01019-.18481.02075-.30078.03369-3.82812.42529-7.37012,1.04443-7.37012,2.68311,0,1.70508,3.56836,2.29785,7.42383,2.68506.09509.00952.168.01709.24707.02515V44.50056c-.08911.01013-.1825.02063-.29687.03326-3.83008.4248-7.374,1.04395-7.374,2.68311,0,1.70605,3.57031,2.29883,7.42773,2.68555.09351.00928.1651.01672.24316.02466V78.166c-.08929.01019-.18292.02069-.29785.03333-3.8291.4248-7.373,1.04395-7.373,2.68311,0,1.70508,3.56836,2.29834,7.42383,2.68506.09509.00952.168.01709.24707.02515v30.46545c-.08929.01019-.18292.02069-.29785.03333-3.8291.4248-7.373,1.04395-7.373,2.68311,0,1.70508,3.56836,2.29834,7.42383,2.68506.09509.00952.168.01709.24707.02515v6.4187c0,28.01025-8.2373,42.81445-28.43164,51.09814l-2.30078.94971c-4.94238,2.04492-14.14258,5.85156-16.69824,6.54395-.0752.00732-7.56738.87549-7.56738,11.17432l.002,16.80225a5.48958,5.48958,0,0,0,1.80029,3.04187,87.35665,87.35665,0,0,1-27.19171-.03809,5.40566,5.40566,0,0,0,1.76447-3.04138V145.14076c0-1.50635-1.07812-3.71631-2.21875-6.05566-1.22516-2.51379-2.73792-5.62219-1.92181-6.47485,1.84747,2.04889,11.45642,2.61743,16.787,2.61743,4.89386,0,13.38892-.47974,16.17987-2.12769.06439,1.02106-1.10468,3.00659-2.17694,4.8103-1.37012,2.30469-2.917,4.90625-3.01855,7.01318l-.00586,1.07227h.01563c.12207,4.15723,1.00684,10.18115,3.1543,12.10352a2.36294,2.36294,0,0,0,1.60059.66016,2.32473,2.32473,0,0,0,.25293-.01416c3.38574-.37646,10.45117-1.78271,15.93262-2.97314,6.83691-1.48389,12.60645-9.61426,12.60645-13.93408h-.49023l.49023-.001-.03436-22.37146.05878-.006c3.85547-.38672,7.42383-.98,7.42383-2.68506,0-1.63916-3.54395-2.2583-7.373-2.68311l-.11786-.01318-.04681-30.49915.11389-.0116c3.85547-.38672,7.42383-.98,7.42383-2.68506,0-1.63916-3.54395-2.2583-7.373-2.68311-.06671-.00732-.11462-.01282-.173-.01935l-.0434-28.26117.16168-.01636c3.85742-.38672,7.42773-.97949,7.42773-2.68555,0-1.63916-3.54395-2.2583-7.374-2.68311-.08624-.00952-.15161-.017-.22369-.02509L613.24243,16.759c.07117-.00726.13324-.01367.21655-.022,3.85547-.38721,7.42383-.98,7.42383-2.68506,0-1.63867-3.542-2.25781-7.37012-2.68311-.10742-.012-.1933-.02161-.27856-.03125L613.19122-16.6c.08417-.00861.16473-.017.26776-.02728,3.85547-.38672,7.42383-.98,7.42383-2.68506,0-1.63916-3.54395-2.2583-7.373-2.68311-.1261-.01385-.23187-.02563-.3269-.03656l-.06372-41.49908c-.002-1.24268-.00391-1.938-.0459-2.32715h.042c0-7.66083,1.22369-10.14374,2.18726-10.91376a7.33493,7.33493,0,0,0,2.39282.69989,38.48369,38.48369,0,0,0,5.9707.41016c.11426,0,.22949,0,.34473-.001,1.26807-.008,6.66254-.10815,8.59265-1.16223,2.07379,1.17114,2.26672,4.16345,2.26672,5.10168,0,3.57373,4.73438,5.0415,4.9502,5.10645,18.9375,5.07813,20.87988,5.77148,20.87988,5.77148a5.89823,5.89823,0,0,0,3.34167-1.11621,85.02085,85.02085,0,0,1-2.75574,13.77A86.51122,86.51122,0,0,1,656.848-35.003,4.77223,4.77223,0,0,0,654.35059-37.3651Zm-41.1662,16.31885c.07135.00806.1333.01514.217.02441,6.1875.68652,6.501,1.54443,6.501,1.70947,0,.24707-.47168,1.10107-6.541,1.71-.066.00665-.11261.01166-.17163.0177Zm.05127,33.37c.05774.00653.10352.0119.16864.01917,6.18555.68652,6.498,1.54395,6.498,1.709,0,.24707-.47168,1.10107-6.541,1.71l-.12036.01239Zm.051,33.17078.11475.01294c6.1875.687,6.501,1.54443,6.501,1.70947,0,.24756-.47168,1.10205-6.54492,1.71045l-.06555.00677Zm.0517,33.67139.063.00708c6.1875.68652,6.501,1.54443,6.501,1.70947,0,.24707-.47168,1.10107-6.541,1.71l-.01776.00183Zm.05511,35.89825.00793.00092c6.1875.68652,6.501,1.54443,6.501,1.70947,0,.24652-.47174,1.09735-6.50366,1.70587ZM719.2334-19.6859,656.82422-32.96959a19.38591,19.38591,0,0,0,1.8623-3.855,108.57319,108.57319,0,0,0,3.54688-11.11377,108.611,108.611,0,0,0,2.48145-11.40039,19.51192,19.51192,0,0,0,.31445-4.25928l49.19922,16.46143.02832.00879c.874.23438,4.1123,4.94482,5.208,12.23145C720.35254-29.015,719.96582-20.78014,719.2334-19.6859Z"
          /> </g>
</svg>