<svg id="图层_25" data-name="图层 25" xmlns="http://www.w3.org/2000/svg" viewBox="0 0 149.72 166.63" width="150" height="170">
<title>玻璃仪器25</title><g fill="none" stroke="#000000" stroke-width="0.2073" stroke-linecap="round" stroke-miterlimit="1">
<path d="M565.24,136.56a.1.1,0,0,1-.08,0l-.91-1.06a.1.1,0,0,1,.15-.13l.91,1.06a.1.1,0,0,1,0,.14Z" transform="translate(-518.5 -98.28)"/>
<path d="M563.19,144.32a.1.1,0,0,1-.1-.08l-.23-1.5a.1.1,0,0,1,.08-.11.09.09,0,0,1,.11.08l.23,1.5a.1.1,0,0,1-.08.11Z" transform="translate(-518.5 -98.28)"/>
<path d="M560.83,145.91a.1.1,0,0,1,0-.2l1.41-.27a.1.1,0,1,1,0,.2l-1.41.27Z" transform="translate(-518.5 -98.28)"/>
<path d="M568.49,129.27a.1.1,0,0,1-.1-.09l-.1-1.48a.1.1,0,0,1,.09-.11h0a.1.1,0,0,1,.1.09l.1,1.48a.1.1,0,0,1-.09.11Z" transform="translate(-518.5 -98.28)"/>
<path d="M566.07,136.83a.1.1,0,0,1,0-.19l1.35-.47a.1.1,0,0,1,.13.06.1.1,0,0,1-.06.13l-1.35.47Z" transform="translate(-518.5 -98.28)"/>
<path d="M570.8,122.34a.1.1,0,0,1,0-.2l1.41-.27a.1.1,0,1,1,0,.2l-1.41.27Z" transform="translate(-518.5 -98.28)"/>
<path d="M553,143.78h0l-1.68-.06a.1.1,0,0,1,0-.2h0l1.68.06a.1.1,0,0,1,0,.2Z" transform="translate(-518.5 -98.28)"/>
<path d="M544.15,141.61a.1.1,0,0,1-.1-.08l-.23-1.35a.1.1,0,0,1,.08-.12.09.09,0,0,1,.12.08l.23,1.35a.1.1,0,0,1-.08.12Z" transform="translate(-518.5 -98.28)"/>
<path d="M542.74,124a.1.1,0,0,1-.1-.08l-.27-1.41a.1.1,0,0,1,.08-.12.1.1,0,0,1,.12.08l.27,1.41a.1.1,0,0,1-.08.12Z" transform="translate(-518.5 -98.28)"/>
<path d="M538.37,131a.1.1,0,0,1,0-.2l1.45-.44a.1.1,0,0,1,.12.07.1.1,0,0,1-.07.12l-1.45.44Z" transform="translate(-518.5 -98.28)"/>
<path d="M543.32,135.44h0l-1.54,0a.1.1,0,0,1,0-.2h0l1.54,0a.1.1,0,0,1,0,.2Z" transform="translate(-518.5 -98.28)"/>
<path d="M551.18,141.08a.1.1,0,0,1,0-.19l1.53-.79a.1.1,0,0,1,.09.18l-1.53.79Z" transform="translate(-518.5 -98.28)"/>
<path d="M546,139.39a.1.1,0,0,1-.07,0l-1.27-1.25a.1.1,0,1,1,.14-.14l1.27,1.25a.1.1,0,0,1,0,.14A.1.1,0,0,1,546,139.39Z" transform="translate(-518.5 -98.28)"/>
<path d="M537,135.9a.1.1,0,0,1,0-.2l1.41-.27a.1.1,0,1,1,0,.2l-1.41.27Z" transform="translate(-518.5 -98.28)"/>
<path d="M568.8,122.69a.1.1,0,0,1-.08,0l-.94-1.4a.1.1,0,0,1,.17-.11l.94,1.4a.1.1,0,0,1,0,.14Z" transform="translate(-518.5 -98.28)"/>
<path d="M565.61,131.55a.1.1,0,0,1-.09-.06l-.57-1.24a.1.1,0,1,1,.18-.08l.57,1.24a.1.1,0,0,1,0,.13Z" transform="translate(-518.5 -98.28)"/>
<path d="M555.76,139a.1.1,0,0,1,0-.19l1.38-.46a.1.1,0,0,1,.13.06.1.1,0,0,1-.06.13l-1.38.46Z" transform="translate(-518.5 -98.28)"/>
<path d="M560.19,120a.1.1,0,0,1-.09-.06l-.67-1.68a.1.1,0,0,1,.06-.13.1.1,0,0,1,.13.06l.67,1.68a.1.1,0,0,1-.06.13Z" transform="translate(-518.5 -98.28)"/>
<path d="M551.27,118.46l-.07,0a.1.1,0,0,1,0-.14l1.25-1.42a.1.1,0,0,1,.14,0,.1.1,0,0,1,0,.14l-1.25,1.42A.1.1,0,0,1,551.27,118.46Z" transform="translate(-518.5 -98.28)"/>
<path d="M544.61,119.25a.1.1,0,0,1-.1-.09l-.1-1.48a.1.1,0,0,1,.09-.11h0a.1.1,0,0,1,.1.09l.1,1.48a.1.1,0,0,1-.09.11Z" transform="translate(-518.5 -98.28)"/>
<path d="M542.72,127.33a.1.1,0,0,1,0-.19l1.35-.47a.1.1,0,1,1,.07.19l-1.35.47Z" transform="translate(-518.5 -98.28)"/>
<path d="M542.66,131.43l-.06,0a.1.1,0,0,1,0-.14l1.35-1.66a.1.1,0,0,1,.14,0,.1.1,0,0,1,0,.14l-1.35,1.66A.1.1,0,0,1,542.66,131.43Z" transform="translate(-518.5 -98.28)"/>
<path d="M544.27,132.07a.1.1,0,0,1,0-.19l1.63-.93a.1.1,0,0,1,.14,0,.1.1,0,0,1,0,.14l-1.63.93Z" transform="translate(-518.5 -98.28)"/>
<path d="M547.15,122.58a.1.1,0,0,1,0-.2l1.56,0a.1.1,0,0,1,.1.1.1.1,0,0,1-.1.1l-1.56,0Z" transform="translate(-518.5 -98.28)"/>
<path d="M548.54,118.28a.1.1,0,0,1,0-.2l1.41-.27a.1.1,0,0,1,.12.08.1.1,0,0,1-.08.12l-1.41.27Z" transform="translate(-518.5 -98.28)"/>
<path d="M550.12,123.65a.1.1,0,0,1-.05-.19l1.2-.72a.1.1,0,0,1,.1.17l-1.2.72Z" transform="translate(-518.5 -98.28)"/>
<path d="M559.28,123.76a.1.1,0,0,1-.09-.06l-.53-1.33a.1.1,0,1,1,.19-.07l.53,1.33a.1.1,0,0,1-.06.13Z" transform="translate(-518.5 -98.28)"/>
<path d="M564.59,124.3a.1.1,0,0,1-.05-.19l1.39-.82a.1.1,0,0,1,.1.17l-1.39.82Z" transform="translate(-518.5 -98.28)"/>
<path d="M563.49,129a.1.1,0,0,1-.08,0,.1.1,0,0,1,0-.14l1.19-.87a.1.1,0,1,1,.12.16l-1.19.87Z" transform="translate(-518.5 -98.28)"/>
<path d="M554.46,122.09h0l-1.53-.64a.1.1,0,0,1-.05-.13.1.1,0,0,1,.13-.05l1.53.64a.1.1,0,0,1,.05.13A.1.1,0,0,1,554.46,122.09Z" transform="translate(-518.5 -98.28)"/>
<path d="M550.32,129.22a.1.1,0,0,1-.09-.05l-.74-1.35a.1.1,0,0,1,.18-.1l.74,1.35a.1.1,0,0,1,0,.14Z" transform="translate(-518.5 -98.28)"/>
<path d="M550.69,137.46h0l-1.41-.59a.1.1,0,0,1-.05-.13.1.1,0,0,1,.13-.05l1.41.59a.1.1,0,0,1,.05.13A.1.1,0,0,1,550.69,137.46Z" transform="translate(-518.5 -98.28)"/>
<path d="M551.37,132.07a.1.1,0,0,1,0-.19l1.35-.73a.1.1,0,1,1,.09.18l-1.35.73Z" transform="translate(-518.5 -98.28)"/>
<path d="M553.64,126.7a.1.1,0,0,1-.05-.19l1.17-.73a.1.1,0,1,1,.11.17l-1.17.73Z" transform="translate(-518.5 -98.28)"/>
<path d="M561.24,127.92h0l-1.34-.56a.1.1,0,0,1-.05-.13.1.1,0,0,1,.13-.05l1.34.56a.1.1,0,0,1,.05.13A.1.1,0,0,1,561.24,127.92Z" transform="translate(-518.5 -98.28)"/>
<path d="M557.26,129.59a.1.1,0,0,1,0-.2l1.29-.25a.1.1,0,1,1,0,.2l-1.29.25Z" transform="translate(-518.5 -98.28)"/>
<path d="M553.31,135.68a.1.1,0,0,1,0-.2l1.3-.1s.1,0,.11.09a.1.1,0,0,1-.09.11l-1.3.1Z" transform="translate(-518.5 -98.28)"/>
<path d="M558.58,135.56a.1.1,0,0,1-.08,0l-.72-1a.1.1,0,0,1,.16-.12l.72,1a.1.1,0,0,1,0,.14Z" transform="translate(-518.5 -98.28)"/>
<path d="M559,133h0a.1.1,0,0,1-.05-.13l.48-1.09a.1.1,0,0,1,.13-.05.1.1,0,0,1,.05.13l-.48,1.09A.1.1,0,0,1,559,133Z" transform="translate(-518.5 -98.28)"/>
<path d="M538.42,126.24h-1.66a.1.1,0,0,1,0-.2h1.66a.1.1,0,0,1,0,.2Z" transform="translate(-518.5 -98.28)"/>
<path d="M553.63,111.76h0l-1.54,0a.1.1,0,0,1,0-.2h0l1.54,0a.1.1,0,0,1,0,.2Z" transform="translate(-518.5 -98.28)"/>
<path d="M560.3,116.14h0a.1.1,0,0,1-.05-.13l.58-1.34a.1.1,0,0,1,.13-.05.1.1,0,0,1,.05.13l-.58,1.34A.1.1,0,0,1,560.3,116.14Z" transform="translate(-518.5 -98.28)"/>
<path d="M558.1,117a.1.1,0,0,1-.06-.18l1.23-.88a.1.1,0,0,1,.14,0,.1.1,0,0,1,0,.14l-1.23.88Z" transform="translate(-518.5 -98.28)"/>
<path d="M547.26,112.21a.1.1,0,0,1,0-.2l1.41-.27a.1.1,0,1,1,0,.2l-1.41.27Z" transform="translate(-518.5 -98.28)"/>
<path d="M534.71,138.33a.1.1,0,0,1-.1-.07l-.33-1a.1.1,0,0,1,.07-.12.1.1,0,0,1,.13.07l.33,1a.1.1,0,0,1-.07.13Z" transform="translate(-518.5 -98.28)"/>
<path d="M525.8,133.48a.1.1,0,0,1-.09-.06l-.67-1.68a.1.1,0,0,1,.06-.13.1.1,0,0,1,.13.06l.67,1.68a.1.1,0,0,1-.06.13Z" transform="translate(-518.5 -98.28)"/>
<path d="M521.38,131.23a.1.1,0,0,1,0-.2l1.48-.35a.1.1,0,0,1,.12.07.1.1,0,0,1-.08.12l-1.48.35Z" transform="translate(-518.5 -98.28)"/>
<path d="M528.66,136h0a.1.1,0,0,1-.05-.13l.57-1.31a.1.1,0,0,1,.13-.05.1.1,0,0,1,.05.13l-.57,1.31A.1.1,0,0,1,528.66,136Z" transform="translate(-518.5 -98.28)"/>
<path d="M527.05,131a.1.1,0,0,1,0-.19l1.53-.79a.1.1,0,0,1,.09.18l-1.53.79Z" transform="translate(-518.5 -98.28)"/>
<path d="M521.91,129.26a.1.1,0,0,1-.07,0L520.57,128a.1.1,0,0,1,.14-.14l1.27,1.25a.1.1,0,0,1,0,.14A.1.1,0,0,1,521.91,129.26Z" transform="translate(-518.5 -98.28)"/>
<path d="M544.67,112.56a.1.1,0,0,1-.08,0l-.94-1.4a.1.1,0,1,1,.17-.11l.94,1.4a.1.1,0,0,1,0,.14Z" transform="translate(-518.5 -98.28)"/>
<path d="M541.48,121.42a.1.1,0,0,1-.09-.06l-.57-1.24A.1.1,0,1,1,541,120l.57,1.24a.1.1,0,0,1,0,.13Z" transform="translate(-518.5 -98.28)"/>
<path d="M531.63,128.85a.1.1,0,0,1,0-.19l1.38-.46a.1.1,0,1,1,.06.19l-1.38.46Z" transform="translate(-518.5 -98.28)"/>
<path d="M536.06,109.92a.1.1,0,0,1-.09-.06l-.67-1.68a.1.1,0,0,1,.06-.13.1.1,0,0,1,.13.06l.67,1.68a.1.1,0,0,1-.06.13Z" transform="translate(-518.5 -98.28)"/>
<path d="M522.57,121.39a.1.1,0,0,1,0-.19l1.18-.58a.1.1,0,1,1,.09.18l-1.18.58Z" transform="translate(-518.5 -98.28)"/>
<path d="M533.34,110.57h0a.1.1,0,0,1-.05-.13l.58-1.34A.1.1,0,0,1,534,109a.1.1,0,0,1,.05.13l-.58,1.34A.1.1,0,0,1,533.34,110.57Z" transform="translate(-518.5 -98.28)"/>
<path d="M538.92,112.45h0a.1.1,0,0,1-.05-.13l.57-1.31a.1.1,0,0,1,.18.08l-.57,1.31A.1.1,0,0,1,538.92,112.45Z" transform="translate(-518.5 -98.28)"/>
<path d="M538.57,117.83h0a.1.1,0,0,1-.05-.13l.56-1.28a.1.1,0,0,1,.13-.05.1.1,0,0,1,.05.13l-.56,1.28A.1.1,0,0,1,538.57,117.83Z" transform="translate(-518.5 -98.28)"/>
<path d="M532.33,114.24a.1.1,0,0,1-.1-.09l-.15-2a.1.1,0,0,1,.09-.11.09.09,0,0,1,.11.09l.15,2a.1.1,0,0,1-.09.11Z" transform="translate(-518.5 -98.28)"/>
<path d="M525.18,116.67h0a.1.1,0,0,1-.05-.13l.49-1.12a.1.1,0,0,1,.13-.05.1.1,0,0,1,.05.13l-.49,1.12A.1.1,0,0,1,525.18,116.67Z" transform="translate(-518.5 -98.28)"/>
<path d="M526.56,127.33h0l-1.41-.59a.1.1,0,0,1-.05-.13.1.1,0,0,1,.13-.05l1.41.59a.1.1,0,0,1,.05.13A.1.1,0,0,1,526.56,127.33Z" transform="translate(-518.5 -98.28)"/>
<path d="M527.24,121.95a.1.1,0,0,1,0-.19l1.35-.73a.1.1,0,0,1,.13,0,.1.1,0,0,1,0,.14l-1.35.73Z" transform="translate(-518.5 -98.28)"/>
<path d="M532.68,117.69a.1.1,0,0,1-.09,0l-.75-1.25a.1.1,0,1,1,.17-.1l.75,1.25a.1.1,0,0,1,0,.14Z" transform="translate(-518.5 -98.28)"/>
<path d="M538.5,121.64a.1.1,0,0,1-.1-.09l-.1-1.3a.1.1,0,0,1,.09-.11.09.09,0,0,1,.11.09l.1,1.3a.1.1,0,0,1-.09.11Z" transform="translate(-518.5 -98.28)"/>
<path d="M530.74,120.11a.1.1,0,0,1-.09,0l-.7-1.19a.1.1,0,1,1,.17-.1l.7,1.19a.1.1,0,0,1,0,.14Z" transform="translate(-518.5 -98.28)"/>
<path d="M530,128.36h0l-1.31-.55a.1.1,0,0,1-.05-.13.1.1,0,0,1,.13-.05l1.31.55a.1.1,0,0,1,.05.13A.1.1,0,0,1,530,128.36Z" transform="translate(-518.5 -98.28)"/>
<path d="M535.09,127.68a.1.1,0,0,1-.1-.09l-.18-1.37a.1.1,0,0,1,.09-.11.1.1,0,0,1,.11.09l.18,1.37a.1.1,0,0,1-.09.11Z" transform="translate(-518.5 -98.28)"/>
<path d="M535.9,124.47a.1.1,0,0,1-.05-.19l1.31-.81a.1.1,0,1,1,.11.17l-1.31.81Z" transform="translate(-518.5 -98.28)"/>
<path d="M537.36,107.27a.1.1,0,0,1-.09-.05.1.1,0,0,1,0-.14l1.53-.79a.1.1,0,1,1,.09.18l-1.53.79Z" transform="translate(-518.5 -98.28)"/>
<path d="M532.56,106.08a.1.1,0,0,1-.07,0l-1.27-1.25a.1.1,0,1,1,.14-.14l1.27,1.25a.1.1,0,0,1,0,.14A.1.1,0,0,1,532.56,106.08Z" transform="translate(-518.5 -98.28)"/>
<path d="M536.11,103.28a.1.1,0,0,1-.08,0l-1-1.15a.1.1,0,0,1,.15-.13l1,1.15a.1.1,0,0,1,0,.14Z" transform="translate(-518.5 -98.28)"/>
<path d="M597.47,251.08a.1.1,0,0,1-.05-.19l1.29-.78a.1.1,0,0,1,.14,0,.1.1,0,0,1,0,.14l-1.29.78Z" transform="translate(-518.5 -98.28)"/>
<path d="M614.41,242.43a.1.1,0,0,1-.08,0,.1.1,0,0,1,0-.14l1.33-.86a.1.1,0,0,1,.14,0,.1.1,0,0,1,0,.14l-1.33.86Z" transform="translate(-518.5 -98.28)"/>
<path d="M606.31,242.39a.1.1,0,0,1-.08,0l-1.07-1.21a.1.1,0,0,1,.15-.13l1.07,1.21a.1.1,0,0,1,0,.14Z" transform="translate(-518.5 -98.28)"/>
<path d="M602.84,247.81a.1.1,0,0,1-.09-.06l-.63-1.5a.1.1,0,0,1,.05-.13.1.1,0,0,1,.13.05l.63,1.5a.1.1,0,0,1-.05.13Z" transform="translate(-518.5 -98.28)"/>
<path d="M599.92,260.86a.1.1,0,0,1-.06-.18l1.55-1.28a.1.1,0,0,1,.14,0,.1.1,0,0,1,0,.14L600,260.84Z" transform="translate(-518.5 -98.28)"/>
<path d="M599.51,249.34a.1.1,0,0,1-.1-.1v-1.5a.1.1,0,1,1,.2,0v1.5A.1.1,0,0,1,599.51,249.34Z" transform="translate(-518.5 -98.28)"/>
<path d="M600.51,243.1a.1.1,0,0,1-.08,0l-.89-1.25a.1.1,0,0,1,0-.14.1.1,0,0,1,.14,0l.89,1.25a.1.1,0,0,1,0,.14Z" transform="translate(-518.5 -98.28)"/>
<path d="M605.65,262.43a.1.1,0,0,1-.07,0l-1.07-1.14a.1.1,0,0,1,.15-.14l1.07,1.14a.1.1,0,0,1-.07.17Z" transform="translate(-518.5 -98.28)"/>
<path d="M612,244.92a.1.1,0,0,1-.07,0l-1.07-1.11a.1.1,0,0,1,.14-.14l1.07,1.11a.1.1,0,0,1,0,.14A.1.1,0,0,1,612,244.92Z" transform="translate(-518.5 -98.28)"/>
<path d="M609,246.1h0l-2.29-.61a.1.1,0,1,1,.05-.19l2.29.61a.1.1,0,0,1,0,.2Z" transform="translate(-518.5 -98.28)"/>
<path d="M608.38,248.49l-.06,0-1.66-1.18a.1.1,0,0,1,0-.14.1.1,0,0,1,.14,0l1.66,1.18a.1.1,0,0,1-.06.18Z" transform="translate(-518.5 -98.28)"/>
<path d="M618.44,247.6a.1.1,0,0,1-.09-.06l-.7-1.5a.1.1,0,0,1,.18-.08l.7,1.5a.1.1,0,0,1,0,.13Z" transform="translate(-518.5 -98.28)"/>
<path d="M623.65,246.88a.1.1,0,0,1-.08,0l-.89-1.25a.1.1,0,0,1,0-.14.1.1,0,0,1,.14,0l.89,1.25a.1.1,0,0,1,0,.14Z" transform="translate(-518.5 -98.28)"/>
<path d="M615.74,248.77a.1.1,0,0,1-.08,0l-1-1.11a.1.1,0,1,1,.15-.13l1,1.11a.1.1,0,0,1,0,.14Z" transform="translate(-518.5 -98.28)"/>
<path d="M623,252.66H623a.1.1,0,0,1,0-.14l.89-1.46a.1.1,0,0,1,.17.1l-.89,1.46A.1.1,0,0,1,623,252.66Z" transform="translate(-518.5 -98.28)"/>
<path d="M622.21,261.54h0l-1.37-.78a.1.1,0,1,1,.1-.17l1.37.78a.1.1,0,0,1,0,.19Z" transform="translate(-518.5 -98.28)"/>
<path d="M618.18,253l-.06,0a.1.1,0,0,1,0-.14l1.11-1.5a.1.1,0,0,1,.14,0,.1.1,0,0,1,0,.14l-1.11,1.5A.1.1,0,0,1,618.18,253Z" transform="translate(-518.5 -98.28)"/>
<path d="M609.34,252.59a.1.1,0,0,1-.08,0l-1-1.14a.1.1,0,1,1,.15-.13l1,1.14a.1.1,0,0,1,0,.14Z" transform="translate(-518.5 -98.28)"/>
<path d="M604.43,256.15a.1.1,0,0,1,0-.2l2-.61a.1.1,0,0,1,.13.07.1.1,0,0,1-.07.13l-2,.61Z" transform="translate(-518.5 -98.28)"/>
<path d="M612.82,254.26l-.07,0a.1.1,0,0,1,0-.14l1.11-1.21a.1.1,0,0,1,.14,0,.1.1,0,0,1,0,.14l-1.11,1.21A.1.1,0,0,1,612.82,254.26Z" transform="translate(-518.5 -98.28)"/>
<path d="M616.51,257.62l-.06,0a.1.1,0,0,1,0-.14l1-1.25a.1.1,0,0,1,.14,0,.1.1,0,0,1,0,.14l-1,1.25A.1.1,0,0,1,616.51,257.62Z" transform="translate(-518.5 -98.28)"/>
<path d="M613.19,256.76l-.06,0a.1.1,0,0,1,0-.14l.92-1.18a.1.1,0,0,1,.16.12l-.92,1.18A.1.1,0,0,1,613.19,256.76Z" transform="translate(-518.5 -98.28)"/>
<path d="M604.35,259.47a.1.1,0,0,1-.1-.1v-1.5a.1.1,0,1,1,.2,0v1.5A.1.1,0,0,1,604.35,259.47Z" transform="translate(-518.5 -98.28)"/>
<path d="M607.27,264.14a.1.1,0,0,1,0-.19l1.33-.75a.1.1,0,1,1,.1.17l-1.33.75Z" transform="translate(-518.5 -98.28)"/>
<path d="M612.34,264.5l-.05,0-1.4-.93a.1.1,0,0,1,0-.14.1.1,0,0,1,.14,0l1.4.93a.1.1,0,0,1-.05.18Z" transform="translate(-518.5 -98.28)"/>
<path d="M598.15,239.5l-.06,0a.1.1,0,0,1,0-.14l1-1.5a.1.1,0,0,1,.14,0,.1.1,0,0,1,0,.14l-1,1.5A.1.1,0,0,1,598.15,239.5Z" transform="translate(-518.5 -98.28)"/>
<path d="M598.29,233.12a.1.1,0,0,1-.09-.06l-.67-1.64a.1.1,0,0,1,.19-.08l.67,1.64a.1.1,0,0,1-.06.13Z" transform="translate(-518.5 -98.28)"/>
<path d="M596.7,223.67a.1.1,0,0,1-.05-.19l1.29-.78a.1.1,0,1,1,.1.17l-1.29.78Z" transform="translate(-518.5 -98.28)"/>
<path d="M594.6,225.13h-.05a.1.1,0,0,1,0-.14l.89-1.46a.1.1,0,0,1,.17.1l-.89,1.46A.1.1,0,0,1,594.6,225.13Z" transform="translate(-518.5 -98.28)"/>
<path d="M597.37,233.9h-1.59a.1.1,0,0,1,0-.2h1.59a.1.1,0,0,1,0,.2Z" transform="translate(-518.5 -98.28)"/>
<path d="M601.92,231.37l-.06,0-1.48-1.14a.1.1,0,0,1,0-.14.1.1,0,0,1,.14,0l1.48,1.14a.1.1,0,0,1-.06.18Z" transform="translate(-518.5 -98.28)"/>
<path d="M600,224.56h0a.1.1,0,0,1-.05-.13l.74-1.75a.1.1,0,0,1,.13-.05.1.1,0,0,1,.05.13L600,224.5A.1.1,0,0,1,600,224.56Z" transform="translate(-518.5 -98.28)"/>
<path d="M603.58,239.22a.1.1,0,0,1-.07,0L602.25,238a.1.1,0,1,1,.14-.14l1.26,1.21a.1.1,0,0,1-.07.17Z" transform="translate(-518.5 -98.28)"/>
<path d="M613.22,239.57a.1.1,0,0,1-.06-.18l1.29-1a.1.1,0,0,1,.14,0,.1.1,0,0,1,0,.14l-1.29,1Z" transform="translate(-518.5 -98.28)"/>
<path d="M624.94,223.73a.1.1,0,0,1-.05-.19l1.29-.78a.1.1,0,0,1,.14,0,.1.1,0,0,1,0,.14l-1.29.78Z" transform="translate(-518.5 -98.28)"/>
<path d="M608.38,221l-.06,0-1.66-1.18a.1.1,0,1,1,.12-.16l1.66,1.18a.1.1,0,0,1-.06.18Z" transform="translate(-518.5 -98.28)"/>
<path d="M625.54,219.7a.1.1,0,0,1-.08,0l-.89-1.25a.1.1,0,0,1,0-.14.1.1,0,0,1,.14,0l.89,1.25a.1.1,0,0,1,0,.14Z" transform="translate(-518.5 -98.28)"/>
<path d="M619.18,222.74l-.06,0-1.26-.86a.1.1,0,1,1,.11-.17l1.26.86a.1.1,0,0,1-.06.18Z" transform="translate(-518.5 -98.28)"/>
<path d="M621.76,230.76a.1.1,0,0,1-.07-.17l1.15-1.07a.1.1,0,0,1,.14,0,.1.1,0,0,1,0,.14l-1.15,1.07A.1.1,0,0,1,621.76,230.76Z" transform="translate(-518.5 -98.28)"/>
<path d="M622,238.25l-.06,0a.1.1,0,0,1,0-.14l.85-1.28a.1.1,0,1,1,.17.11l-.85,1.28A.1.1,0,0,1,622,238.25Z" transform="translate(-518.5 -98.28)"/>
<path d="M622.21,234h0l-1.37-.78a.1.1,0,1,1,.1-.17l1.37.78a.1.1,0,0,1,0,.19Z" transform="translate(-518.5 -98.28)"/>
<path d="M618.18,225.49l-.06,0a.1.1,0,0,1,0-.14l1.11-1.5a.1.1,0,1,1,.16.12l-1.11,1.5A.1.1,0,0,1,618.18,225.49Z" transform="translate(-518.5 -98.28)"/>
<path d="M609.34,225.06a.1.1,0,0,1-.08,0l-1-1.14a.1.1,0,0,1,0-.14.1.1,0,0,1,.14,0l1,1.14a.1.1,0,0,1,0,.14Z" transform="translate(-518.5 -98.28)"/>
<path d="M604.43,228.63a.1.1,0,0,1,0-.2l2-.61a.1.1,0,0,1,.06.19l-2,.61Z" transform="translate(-518.5 -98.28)"/>
<path d="M612.82,226.73l-.07,0a.1.1,0,0,1,0-.14l1.11-1.21a.1.1,0,0,1,.14,0,.1.1,0,0,1,0,.14l-1.11,1.21A.1.1,0,0,1,612.82,226.73Z" transform="translate(-518.5 -98.28)"/>
<path d="M616.51,230.09l-.06,0a.1.1,0,0,1,0-.14l1-1.25a.1.1,0,0,1,.14,0,.1.1,0,0,1,0,.14l-1,1.25A.1.1,0,0,1,616.51,230.09Z" transform="translate(-518.5 -98.28)"/>
<path d="M615,237.36a.1.1,0,0,1,0-.19l1.29-.64a.1.1,0,1,1,.09.18l-1.29.64Z" transform="translate(-518.5 -98.28)"/>
<path d="M613.19,229.23l-.06,0a.1.1,0,0,1,0-.14l.92-1.18a.1.1,0,0,1,.16.12l-.92,1.18A.1.1,0,0,1,613.19,229.23Z" transform="translate(-518.5 -98.28)"/>
<path d="M604.35,231.94a.1.1,0,0,1-.1-.1v-1.5a.1.1,0,1,1,.2,0v1.5A.1.1,0,0,1,604.35,231.94Z" transform="translate(-518.5 -98.28)"/>
<path d="M607.27,236.61a.1.1,0,0,1,0-.19l1.33-.75a.1.1,0,0,1,.1.17l-1.33.75Z" transform="translate(-518.5 -98.28)"/>
<path d="M612.34,237l-.05,0-1.4-.93a.1.1,0,0,1,0-.14.1.1,0,0,1,.14,0l1.4.93a.1.1,0,0,1-.05.18Z" transform="translate(-518.5 -98.28)"/></g>
<path stroke="#000000" fill="#000000" stroke-width="0.5324" d="M665.36,181.6a1.65,1.65,0,0,0-.67.13,9.11,9.11,0,0,1-1.17-1,2.81,2.81,0,0,0-2.49-1.23c-1,.21-1.63,1.47-2.06,2.76a9.82,9.82,0,0,0-2.18-2.93c-.87-.83-1.62-1.14-2.29-1-.82.23-1.23,1.15-1.52,2.13a11.76,11.76,0,0,0-1.84-2.24c-1-1-1.87-1.39-2.58-1.18a1.7,1.7,0,0,0-1,.86,3.64,3.64,0,0,1-1.41,1.44c-1.31.66-5.21.67-6.28.7-3.72.1-7.94.21-9.75-1.4-.88-.78-1.34-2.39-1.53-4.15l0-.32h0l0-.5a21.87,21.87,0,0,1,0-3c.28-3.53-1.07-16.38-10.64-28.69-10-12.88-21-18.65-36.48-24.27l-1.92-.64c-2.52-.85-4.59-1.54-6.21-1.47l-36.92-13.84-.1,0c-.14,0-.41-.2-.44-.33-.29-1.11-.67-2.65-1.95-3-4.32-1.34-9.81,12.3-12.11,19.7s-5.51,21.75-1.2,23.09c1.27.4,2.46-.54,3.36-1.42a1.8,1.8,0,0,1,.6.1l37.76,9.43a3.84,3.84,0,0,0,.28.56c.56.87,1.76,2,4.31,2.35.5.07,1.11.14,1.82.22,5.54.63,17.07,1.93,21.88,9.4,2,3.86,2.45,7,2.48,12.37,0,0-.12,9-.23,13-.16,6.22-.14,14.26-.14,14.65,0,1.89,0,4,3.72,6.37,1.31.83,1.86,1.77,1.67,2.88-.42,2.39-4.09,4.7-4.6,4.81l-.61.28,5.37,45.73c.16,2.69,9.09,3,12.94,3s12.73-.3,12.72-3l4-46.43-.32-.12c-6.11-2.75-4.77-5.82-4-7.47a3.18,3.18,0,0,1,2-1.65,4.08,4.08,0,0,0,2.83-3.31c.1-.49.18-1,.25-1.38.47-2.7.71-4,3.58-4.51,3.61-.58,10-.46,11.46.06a16.74,16.74,0,0,1,3.68,2.27,2,2,0,0,0,.77.52,1.77,1.77,0,0,0,.6.1,4.19,4.19,0,0,0,2.57-1.43,7.87,7.87,0,0,0,1.29-1.69A2.55,2.55,0,0,0,654,198.5a1.87,1.87,0,0,0,.65.11,3.77,3.77,0,0,0,2.28-1.07,7.87,7.87,0,0,0,1.59-2.28,3.05,3.05,0,0,0,1.66,2.26,1.82,1.82,0,0,0,.61.1,4.41,4.41,0,0,0,2.65-1.4l.52-.5a1.69,1.69,0,0,0,1,.34c2.09.06,3.14-3.67,3.24-7.15S667.45,181.66,665.36,181.6ZM522.77,118.37a68.25,68.25,0,0,1,6.6-15.34c1.62,1.13,1,8.22-1.56,16.37-2.64,8.49-6.32,14.9-8.24,14.35A71.82,71.82,0,0,1,522.77,118.37Zm1.8,20.44a2.17,2.17,0,0,0-.72-.05l-.33,0-.24.23c-1,1-1.77,1.37-2.37,1.18-1.07-.33-1.52-2.36-1.41-5.45,3.43.54,7.41-9.13,9.25-15.06,1.79-5.77,3.93-15.58,1.17-17.5,1.44-2.07,2.75-3.16,3.7-2.86.73.23,1,1.38,1.27,2.31a1.58,1.58,0,0,0,.91,1c.38,4.25-.67,11.26-3,18.9S527.29,135.51,524.57,138.8Zm.25.06h0c2.73-3.33,5.78-9.61,8.16-17.27S536.39,107,536,102.71l.1,0,35.79,13.42c-2.49,1.46-5.74,9.45-7.54,15.22s-3.62,14.08-2.45,16.75Zm38.33,9.59-.71-.2c-1.16-1.55-.23-8.62,2.3-16.77s5.84-14.63,7.67-15.15l.7.26h0c1.11,1.64.17,8.66-2.34,16.73S565,147.91,563.16,148.46Zm28.34,12.83c-5.09-7.91-16.94-9.25-22.63-9.89l-1.79-.22a5,5,0,0,1-3.56-1.82l.15,0c3.64-1.7,7.61-14.12,8.09-15.69s3.92-12.92,2.47-17a27.15,27.15,0,0,1,5,1.38l1.92.64c15.33,5.55,26.13,11.24,36,23.94,9.38,12.05,10.71,24.56,10.44,28,0,.6-.06,1.36-.06,2.1-3.27-2-13.22-2.17-16.68-2.17s-13.66.19-16.8,2.24C594,168.47,593.5,165.08,591.5,161.29Zm24.93,37.16v19.3a69.82,69.82,0,0,1-9.85.12c0-8.77,0-16.2,0-19.42,0-9.77-5-15.43-10.75-22l-.15-.18c4.15,1.36,12.13,1.5,15.15,1.5s10.39-.13,14.65-1.35C616.08,187.71,616.41,198,616.43,198.45Zm-5.57-21.67c-11.55,0-16.74-1.54-16.74-2.62s5.19-2.62,16.74-2.62,16.74,1.54,16.74,2.63S622.41,176.78,610.86,176.78Zm-11.73,34.5c.18-1,0-2.57-2.12-3.89-3.23-2-3.24-3.74-3.25-5.54,0-.41,0-8.69.14-14.61.1-4,.21-8.18.22-10.84V176l1,1.13c5.65,6.41,10.53,11.94,10.5,21.33,0,3.22,0,10.62,0,19.36a69.78,69.78,0,0,1-10.7-1.47C596.42,215.4,598.76,213.4,599.13,211.28Zm-5,5.86a64.93,64.93,0,0,0,11.46,1.69c0,15.62,0,34.12,0,41.24a23.12,23.12,0,0,0-6.36,1.22Zm5.15,44.74,0-.19a22.47,22.47,0,0,1,6.32-1.23c0,1.61,0,2.55,0,2.62h0a1.73,1.73,0,0,0,.21.63C601.06,263.31,599.32,262.39,599.29,261.88Zm7.31-43a69.24,69.24,0,0,0,9.85-.12l0,33.27a1.8,1.8,0,0,0-.69-.13c-1.79,0-4.56,2.32-6.39,4.31a21.3,21.3,0,0,0-2.8,3.74C606.59,251.64,606.59,233.59,606.6,218.89Zm9.28,36.63a19.26,19.26,0,0,1-2.94,4l-.27.28-1.52,0c-1,0-2.15,0-3.38.09a21.64,21.64,0,0,1,2.35-3c2.13-2.31,4.5-4,5.65-4a.69.69,0,0,1,.49.16C616.79,253.58,616.17,255,615.88,255.53Zm-9.08,7.86c-.52-.49.09-1.87.39-2.44.1-.2.23-.41.36-.62,1.14-.06,2.35-.1,3.61-.1h1.15c-1.95,2-4,3.32-5,3.32A.69.69,0,0,1,606.79,263.39Zm16.2-1.53a.38.38,0,0,1-.14.32c-1.08,1.08-5.52,1.75-11.61,1.75l-2,0a19.26,19.26,0,0,0,4.39-3.63c4.26.15,7.76.69,9.37,1.41Zm0-.57c-2-.85-5.81-1.25-9.07-1.39a19.73,19.73,0,0,0,2.79-3.92,5.54,5.54,0,0,0,.7-2.22h0l0-35.09a40,40,0,0,0,9.44-2.1Zm39.76-65.8c-1,.9-1.75,1.27-2.26,1.09s-1.08-1.28-1.33-3c-.07-.48-.12-1-.15-1.55h-1c0,.49.07,1,.13,1.42a8.08,8.08,0,0,1-1.92,3.35c-.41.39-1.27,1-1.9.75s-1.09-1.31-1.27-3c-.08-.77-.14-1.61-.17-2.5h-1c0,.92.08,1.8.17,2.6,0,.3.07.57.12.84a8,8,0,0,1-1.65,2.45c-.33.32-1.34,1.31-2.08,1-.4-.14-1.12-.81-1.44-3.7-.11-1-.17-2.09-.19-3.24h-1c0,1.17.09,2.31.2,3.35a13,13,0,0,0,.43,2.25l-.07,0a10.29,10.29,0,0,0-2.38-1.4c-1.62-.58-8.07-.73-12-.1-3.58.58-3.93,2.57-4.41,5.33-.08.43-.15.88-.25,1.36a3.14,3.14,0,0,1-2.26,2.59,4.13,4.13,0,0,0-2.46,2.16c-.7,1.59-2.29,5.21,3.49,8.26a39.36,39.36,0,0,1-8.76,1.87V198.43c0-.12-.34-11.3,10.16-22.85l.17-.11a6.72,6.72,0,0,0,1.73,3.91c2.11,1.87,6.54,1.75,10.44,1.65,1.06,0,5.72-.07,6.89-.81l-.08.35,0,.11a33.91,33.91,0,0,0-.6,4.3h1a32.19,32.19,0,0,1,.56-4.07l0-.11c.29-1.25.63-2.66,1.14-2.81.14,0,.59,0,1.6.94a9.8,9.8,0,0,1,2.16,2.93,26.13,26.13,0,0,0-.45,3.13h1a21.32,21.32,0,0,1,.5-3.22l.08-.29c.23-.86.55-2,1-2.19h.11c.21,0,.58.13,1.22.73a8.35,8.35,0,0,1,2.43,4c-.06.31-.11.65-.16,1h1a15.14,15.14,0,0,1,.44-2.15c.47-1.5.94-2.3,1.4-2.4s.89.26,1.44.88a5.92,5.92,0,0,0,1.17,1c-1.09,1.26-1.65,3.88-1.72,6.39s.31,4.86,1.2,6.24Zm2.21-.42h0c-.69,0-1.15-1.19-1.32-1.69a14.17,14.17,0,0,1-.55-4.6c.1-3.7,1.21-6.18,2.19-6.18.71,0,1.17,1.19,1.34,1.69a14.17,14.17,0,0,1,.55,4.6C667.1,192.59,666,195.07,665,195.07Z" transform="translate(-518.5 -98.28)"/>
</svg>