<?xml version="1.0" encoding="utf-8"?>
<!-- Generator: Adobe Illustrator 21.0.0, SVG Export Plug-In . SVG Version: 6.00 Build 0)  -->
<svg version="1.1" id="图层_1" xmlns="http://www.w3.org/2000/svg" xmlns:xlink="http://www.w3.org/1999/xlink" width= "150" height="230"
	 viewBox="0 40 150 230" style="enable-background:new 0 0 160 268;" xml:space="preserve">
<style type="text/css">
	.st0{display:none;}
	.st1{display:inline;}
	.st2{fill:url(#SVGID_1_);}
	.st3{fill:url(#SVGID_2_);}
	.st4{fill:none;stroke:#000000;stroke-width:0.2074;}
	.st5{fill:url(#SVGID_3_);}
	.st6{fill:url(#SVGID_4_);}
	.st7{opacity:0.6;}
	.st8{fill:none;stroke:#01192B;stroke-width:0.2105;stroke-linecap:round;stroke-miterlimit:1;}
	.st9{fill:url(#SVGID_5_);}
	.st10{fill:url(#SVGID_6_);}
	.st11{fill:none;stroke:#000000;stroke-width:0.2058;stroke-linecap:round;stroke-miterlimit:1;}
	.st12{fill:url(#SVGID_7_);}
	.st13{fill:url(#SVGID_8_);}
	.st14{fill:none;stroke:#000000;stroke-width:0.2219;stroke-linecap:round;stroke-miterlimit:1;}
	.st15{fill:url(#SVGID_9_);}
	.st16{fill:url(#SVGID_10_);}
	.st17{fill:none;stroke:#000000;stroke-width:0.2549;}
	.st18{fill:url(#SVGID_11_);}
	.st19{fill:url(#SVGID_12_);}
	.st20{fill:none;stroke:#000000;stroke-width:0.2035;}
	.st21{fill:url(#SVGID_13_);}
	.st22{fill:url(#SVGID_14_);}
	.st23{fill:none;}
	.st24{fill:none;stroke:#000000;stroke-width:0.2084;}
	.st25{fill:url(#SVGID_15_);}
	.st26{fill:url(#SVGID_16_);}
	.st27{fill:url(#SVGID_17_);}
	.st28{fill:url(#SVGID_18_);}
	.st29{fill:none;stroke:#000000;stroke-width:0.2319;}
	.st30{fill:#020202;}
	.st31{fill:url(#SVGID_19_);}
	.st32{fill:url(#SVGID_20_);}
	.st33{fill:url(#SVGID_21_);}
	.st34{fill:url(#SVGID_22_);}
	.st35{fill:none;stroke:#000000;stroke-width:0.1439;}
	.st36{fill:none;stroke:#000000;stroke-width:0.2117;}
	.st37{fill:url(#SVGID_23_);}
	.st38{fill:url(#SVGID_24_);}
	.st39{fill:none;stroke:#000000;stroke-width:0.1431;}
	.st40{fill:none;stroke:#000000;stroke-width:0.1447;}
	.st41{fill:none;stroke:#000000;stroke-width:0.1421;}
	.st42{fill:none;stroke:#000000;stroke-width:0.2324;stroke-linecap:round;stroke-miterlimit:1;}
	.st43{fill:none;stroke:#000000;stroke-width:0.2112;stroke-linecap:round;stroke-miterlimit:1;}
	.st44{fill:none;stroke:#000000;stroke-width:0.2377;stroke-linecap:round;stroke-miterlimit:1;}
	.st45{fill:none;stroke:#000000;stroke-width:0.1844;stroke-linecap:round;stroke-miterlimit:1;}
</style>
<g id="图层_18">
	<g>
		<g>
			<line class="st45" x1="16.1" y1="250.7" x2="14.8" y2="251.5"/>
			<line class="st45" x1="31.9" y1="242.5" x2="33.2" y2="241.7"/>
			<line class="st45" x1="23.7" y1="242.5" x2="22.6" y2="241.3"/>
			<line class="st45" x1="20.2" y1="248.1" x2="19.6" y2="246.6"/>
			<line class="st45" x1="17.3" y1="261.7" x2="18.8" y2="260.3"/>
			<line class="st45" x1="16.8" y1="249.7" x2="16.8" y2="248.2"/>
			<line class="st45" x1="17.9" y1="243.3" x2="17" y2="242"/>
			<line class="st45" x1="23" y1="263.3" x2="22" y2="262.1"/>
			<line class="st45" x1="29.4" y1="245.1" x2="28.4" y2="244"/>
			<line class="st45" x1="26.4" y1="246.4" x2="24.1" y2="245.7"/>
			<line class="st45" x1="25.8" y1="248.8" x2="24.1" y2="247.6"/>
			<line class="st45" x1="35.9" y1="247.9" x2="35.2" y2="246.4"/>
			<line class="st45" x1="41.2" y1="247.2" x2="40.3" y2="245.9"/>
			<line class="st45" x1="32.2" y1="248" x2="33.2" y2="249.1"/>
			<line class="st45" x1="41.4" y1="251.7" x2="40.5" y2="253.2"/>
			<line class="st45" x1="39.7" y1="262.4" x2="38.3" y2="261.6"/>
			<line class="st45" x1="35.7" y1="253.5" x2="36.8" y2="252"/>
			<line class="st45" x1="25.8" y1="251.9" x2="26.8" y2="253.1"/>
			<line class="st45" x1="23.8" y1="256.2" x2="21.8" y2="256.8"/>
			<line class="st45" x1="31.4" y1="253.6" x2="30.3" y2="254.8"/>
			<line class="st45" x1="34" y1="258.3" x2="35" y2="257"/>
			<line class="st45" x1="32.4" y1="265.9" x2="33.7" y2="265.2"/>
			<line class="st45" x1="30.6" y1="257.4" x2="31.6" y2="256.2"/>
			<line class="st45" x1="21.7" y1="260.2" x2="21.7" y2="258.7"/>
			<line class="st45" x1="24.7" y1="265.1" x2="26" y2="264.3"/>
			<line class="st45" x1="29.8" y1="265.5" x2="28.4" y2="264.5"/>
			<line class="st45" x1="15.5" y1="239.5" x2="16.5" y2="238"/>
			<line class="st45" x1="14.9" y1="231.2" x2="15.6" y2="232.9"/>
			<line class="st45" x1="15.3" y1="222.3" x2="14" y2="223.1"/>
			<line class="st45" x1="12.8" y1="223.1" x2="11.9" y2="224.6"/>
			<line class="st45" x1="14.7" y1="233.7" x2="13.1" y2="233.7"/>
			<line class="st45" x1="19.3" y1="231.1" x2="17.8" y2="229.9"/>
			<line class="st45" x1="17.3" y1="224" x2="18" y2="222.2"/>
			<line class="st45" x1="20.9" y1="239.2" x2="19.7" y2="238"/>
			<line class="st45" x1="30.7" y1="239.6" x2="32" y2="238.6"/>
			<line class="st45" x1="43.8" y1="222.3" x2="42.5" y2="223.1"/>
			<line class="st45" x1="25.8" y1="220.3" x2="24.1" y2="219.1"/>
			<line class="st45" x1="43.1" y1="219" x2="42.2" y2="217.7"/>
			<line class="st45" x1="36.7" y1="222.1" x2="35.4" y2="221.2"/>
			<line class="st45" x1="39.3" y1="230.5" x2="40.4" y2="229.3"/>
			<line class="st45" x1="39.5" y1="238.2" x2="40.4" y2="236.9"/>
			<line class="st45" x1="39.7" y1="233.8" x2="38.3" y2="233"/>
			<line class="st45" x1="35.7" y1="225" x2="36.8" y2="223.4"/>
			<line class="st45" x1="25.8" y1="223.3" x2="26.8" y2="224.5"/>
			<line class="st45" x1="23.8" y1="227.6" x2="21.8" y2="228.2"/>
			<line class="st45" x1="31.4" y1="225" x2="30.3" y2="226.3"/>
			<line class="st45" x1="34" y1="229.7" x2="35" y2="228.5"/>
			<line class="st45" x1="32.4" y1="237.3" x2="33.7" y2="236.6"/>
			<line class="st45" x1="30.6" y1="228.9" x2="31.6" y2="227.6"/>
			<line class="st45" x1="21.7" y1="231.7" x2="21.7" y2="230.1"/>
			<line class="st45" x1="24.7" y1="236.5" x2="26" y2="235.7"/>
			<line class="st45" x1="29.8" y1="236.9" x2="28.4" y2="235.9"/>
		</g>
		<g>
			<line class="st45" x1="31" y1="92.5" x2="31.7" y2="91"/>
			<line class="st45" x1="23.8" y1="89.7" x2="22.6" y2="90.6"/>
			<line class="st45" x1="23.1" y1="78.1" x2="24.1" y2="79.5"/>
			<line class="st45" x1="22.4" y1="69.6" x2="23.9" y2="70.2"/>
			<line class="st45" x1="21.1" y1="70.5" x2="20.1" y2="69.1"/>
			<line class="st45" x1="20.6" y1="76.9" x2="19.7" y2="78.4"/>
			<line class="st45" x1="21.8" y1="85.3" x2="20.6" y2="86.2"/>
			<line class="st45" x1="18.6" y1="92" x2="19.5" y2="90.7"/>
			<line class="st45" x1="36.6" y1="67.5" x2="37.3" y2="66.1"/>
			<line class="st45" x1="27.7" y1="68.8" x2="29.1" y2="68"/>
			<line class="st45" x1="27.9" y1="78.5" x2="28.9" y2="77.2"/>
			<line class="st45" x1="25.3" y1="86.9" x2="26.9" y2="85.6"/>
			<line class="st45" x1="24.9" y1="75" x2="24.9" y2="73.4"/>
			<line class="st45" x1="28.4" y1="87.4" x2="27.1" y2="88.3"/>
			<line class="st45" x1="31.1" y1="88.5" x2="30" y2="87.3"/>
			<line class="st45" x1="30.5" y1="70.2" x2="28.6" y2="70.9"/>
			<line class="st45" x1="30.7" y1="76" x2="29.3" y2="74.1"/>
			<line class="st45" x1="38.1" y1="73.4" x2="36.9" y2="72.5"/>
			<line class="st45" x1="29.4" y1="81.6" x2="29.4" y2="79.9"/>
			<line class="st45" x1="36.6" y1="81" x2="35.3" y2="79.9"/>
			<line class="st45" x1="29.8" y1="85.5" x2="29.8" y2="83.9"/>
			<line class="st45" x1="32.7" y1="90.3" x2="34.1" y2="89.5"/>
			<line class="st45" x1="23.7" y1="64.7" x2="24.7" y2="63.2"/>
			<line class="st45" x1="23.8" y1="61.2" x2="22.6" y2="62"/>
			<line class="st45" x1="24.1" y1="53.6" x2="22.7" y2="55"/>
			<line class="st45" x1="23.5" y1="47.5" x2="22.2" y2="48.3"/>
			<line class="st45" x1="18.4" y1="55.7" x2="19.6" y2="54.6"/>
			<line class="st45" x1="21.6" y1="62.3" x2="20.2" y2="61.2"/>
			<line class="st45" x1="18.6" y1="52.1" x2="16.6" y2="53.1"/>
			<line class="st45" x1="27.9" y1="49.9" x2="28.9" y2="48.6"/>
			<line class="st45" x1="25.3" y1="58.3" x2="26.9" y2="57"/>
			<line class="st45" x1="28.4" y1="58.9" x2="27.1" y2="59.8"/>
			<line class="st45" x1="31.1" y1="60" x2="30" y2="58.8"/>
			<line class="st45" x1="29.4" y1="53" x2="29.4" y2="51.4"/>
			<line class="st45" x1="36.6" y1="52.4" x2="35.3" y2="51.4"/>
			<line class="st45" x1="35.1" y1="54.5" x2="36.9" y2="55.1"/>
			<line class="st45" x1="33.9" y1="57.7" x2="32.4" y2="57.7"/>
			<line class="st45" x1="37.8" y1="56.7" x2="36.9" y2="57.7"/>
		</g>
		<g>
			<line class="st45" x1="124.1" y1="187.1" x2="125" y2="186.3"/>
			<line class="st45" x1="114.4" y1="196.8" x2="113.5" y2="197.6"/>
			<line class="st45" x1="116.1" y1="190.9" x2="115.3" y2="189.9"/>
			<line class="st45" x1="121.2" y1="189.5" x2="120.1" y2="188.7"/>
			<line class="st45" x1="132.4" y1="190" x2="131" y2="190.9"/>
			<line class="st45" x1="123.2" y1="187.4" x2="121.9" y2="187.1"/>
			<line class="st45" x1="117.9" y1="186.9" x2="117.1" y2="186"/>
			<line class="st45" x1="132.5" y1="194.5" x2="131.8" y2="193.5"/>
			<line class="st45" x1="117" y1="195.6" x2="116.3" y2="194.6"/>
			<line class="st45" x1="118.5" y1="193.6" x2="118.5" y2="191.8"/>
			<line class="st45" x1="120.6" y1="193.7" x2="120" y2="192.2"/>
			<line class="st45" x1="117.8" y1="200.8" x2="116.7" y2="199.9"/>
			<line class="st45" x1="116.1" y1="204.4" x2="115.3" y2="203.5"/>
			<line class="st45" x1="118.6" y1="198.1" x2="119.3" y2="199"/>
			<line class="st45" x1="119.6" y1="205.4" x2="120.9" y2="205.1"/>
			<line class="st45" x1="128.3" y1="206.3" x2="127.9" y2="205.1"/>
			<line class="st45" x1="122.2" y1="201.7" x2="120.8" y2="202.2"/>
			<line class="st45" x1="123" y1="194.2" x2="123.7" y2="195.2"/>
			<line class="st45" x1="126.7" y1="193.7" x2="127.6" y2="192.3"/>
			<line class="st45" x1="123.1" y1="198.6" x2="124.4" y2="198"/>
			<line class="st45" x1="126.3" y1="201.4" x2="125.1" y2="201.8"/>
			<line class="st45" x1="132.5" y1="201.7" x2="131.7" y2="202.5"/>
			<line class="st45" x1="126.3" y1="198.8" x2="125.2" y2="199.2"/>
			<line class="st45" x1="130.4" y1="192.9" x2="129.1" y2="192.6"/>
			<line class="st45" x1="133.5" y1="196" x2="132.6" y2="196.8"/>
			<line class="st45" x1="132.8" y1="199.7" x2="132.3" y2="198.5"/>
			<line class="st45" x1="115.5" y1="184.4" x2="114" y2="184.9"/>
			<line class="st45" x1="109.1" y1="182.4" x2="110.3" y2="183.3"/>
			<line class="st45" x1="102" y1="181" x2="102.9" y2="180.2"/>
			<line class="st45" x1="103.2" y1="179.3" x2="104.6" y2="179"/>
			<line class="st45" x1="111.1" y1="182.7" x2="111.4" y2="181.6"/>
			<line class="st45" x1="108.1" y1="185.5" x2="107.5" y2="184.2"/>
			<line class="st45" x1="103" y1="182.7" x2="101.4" y2="182.9"/>
			<line class="st45" x1="114.1" y1="188.3" x2="113.4" y2="187.2"/>
			<line class="st45" x1="112.4" y1="195.4" x2="111.3" y2="196.1"/>
			<line class="st45" x1="96.2" y1="201.4" x2="97.1" y2="200.7"/>
			<line class="st45" x1="98.3" y1="188.1" x2="97.7" y2="186.7"/>
			<line class="st45" x1="93.7" y1="200.3" x2="92.9" y2="199.4"/>
			<line class="st45" x1="97.5" y1="196.3" x2="97.1" y2="195.2"/>
			<line class="st45" x1="103.4" y1="199.8" x2="102.3" y2="200.4"/>
			<line class="st45" x1="109.5" y1="201.4" x2="108.2" y2="201.8"/>
			<line class="st45" x1="106" y1="200.8" x2="105.6" y2="199.6"/>
			<line class="st45" x1="99.9" y1="196.1" x2="98.5" y2="196.6"/>
			<line class="st45" x1="100.7" y1="188.7" x2="101.4" y2="189.6"/>
			<line class="st45" x1="104.4" y1="188.1" x2="105.3" y2="186.8"/>
			<line class="st45" x1="100.8" y1="193" x2="102.1" y2="192.5"/>
			<line class="st45" x1="104" y1="195.8" x2="102.8" y2="196.3"/>
			<line class="st45" x1="110.2" y1="196.2" x2="109.4" y2="197"/>
			<line class="st45" x1="104" y1="193.3" x2="102.9" y2="193.7"/>
			<line class="st45" x1="108" y1="187.4" x2="106.8" y2="187.1"/>
			<line class="st45" x1="111.2" y1="190.5" x2="110.3" y2="191.3"/>
			<line class="st45" x1="110.4" y1="194.2" x2="110" y2="193"/>
		</g>
	</g>
	<g>
		<path class="st23" d="M16.2,263.6v0.2c0,0.7,3.1,2.1,12.2,2.1c6.2,0,10.8-0.6,11.9-1.7c0.1-0.1,0.2-0.5,0.2-0.5
			c-1.9-0.9-6.8-1.5-12.2-1.5C22.8,262.1,18.1,262.7,16.2,263.6z"/>
		<path class="st23" d="M18.9,92.8v0.7c0,0.8,4,1.5,8.9,1.5s8.8-0.7,8.8-1.6v-0.3C35,92.5,31.5,92,27.4,92
			C23.9,91.9,20.7,92.3,18.9,92.8z"/>
		<path class="st23" d="M27.5,91.5c0.3,0,6.4,0,9.2,1l3-40.9c-2.1,0.9-7,1.4-11.8,1.4c-4.5,0-9.3-0.4-11.5-1.3l2.4,40.6
			C21.9,91.6,27.2,91.5,27.5,91.5z"/>
		<path class="st23" d="M39.7,51.4v-0.2l0,0c0,0,0-0.6,0.3-0.8l0,0c0.7-0.3,1.1-0.7,1.1-1.1c0-0.5-0.7-1-2-1.3
			c-1.7,1.5-7.3,1.8-10.8,1.8c-3.6,0-9.3-0.3-10.9-1.8c-1.6,0.4-2.6,1-2.6,1.6c0,0.4,0.4,0.7,1.2,1.1c0.4,0.2,0.3,0.8,0.3,0.8v0.2
			c1.9,0.7,6.4,1.3,11.5,1.3C33.3,52.8,37.9,52.2,39.7,51.4z"/>
		<path class="st23" d="M38,47.7c-2.4-0.5-6-0.9-9.9-0.8c-3.6,0-6.9,0.3-9.3,0.8c1.5,0.6,5.3,1.1,9.6,1.1S36.4,48.4,38,47.7z"/>
		<path class="st23" d="M135.3,188.1L97,173.9c0.2,0.9,0.3,2,0.4,3.2c0,3.2-0.5,7.2-1.6,11.3c-1.5,5.7-4.1,11.7-6.9,13.9l40.8,6.7
			c0-3,0.6-6.8,1.6-10.6C132.3,194.6,133.7,190.9,135.3,188.1z"/>
		<path class="st23" d="M131.7,198.4c-1,3.9-1.6,7.6-1.6,10.5c1.1-0.6,2.9-4.7,4.3-9.9c1.4-5.1,1.8-9.6,1.2-10.7
			C134.1,190.9,132.7,194.4,131.7,198.4z"/>
		<path class="st23" d="M95.9,173.5l-0.2-0.1c-2.2,1.5-3.6,1.2-3.6,1.2s-25.9-6.9-46.6-12.5c0,0-4-1.1-4.3-4.3v-55l0,0
			c-0.1-3.3-1.5-6.4-3.8-8.8c-1.1,1.4-5.7,1.8-9.6,1.8h-0.3c-5.6,0-8.7-0.6-9.4-1.9c-2.3,2.4-3.8,5.5-3.9,8.9v112.4l-2.7,2.3
			c2.7,1.1,8.7,1.8,16,1.8c7.1,0,13.2-0.7,16-1.8l-2.4-2.2l0.1-21.6v-1.1c0.7-5.9,5.3-3.8,6.2-3.6c0.9,0.3,38.1,10.2,38.1,10.2
			s1.2,0.5,2.4,2.6c2.3-1.3,5.1-6.8,7-13.7C96.5,181.8,96.8,176.2,95.9,173.5z M40.1,188.5c-1.4-3.6-2.3-8.4-2.3-13.7
			c0-5.1,0.8-9.7,2.1-13.3l0.2,0.1c-1.3,3.5-2.1,8.1-2.1,13.2c0,5.2,0.8,10,2.2,13.6L40.1,188.5z"/>
		<path class="st23" d="M11,218.4l5.2,44.8c2.6-1.1,8.6-1.5,12.1-1.5c3.6,0,9.6,0.4,12.3,1.5l3.6-44.8c-4.3,1.8-14.2,2-16.6,2
			C25.1,220.3,15.3,220.2,11,218.4z"/>
		<path stroke="#000000" fill="#000000" stroke-width="0.5324" d="M135.7,187.2l-40.1-14.9l-0.4,0.3c-1.4,1-2.4,1.1-2.8,1.1c0,0,0,0-0.1,0L46,161.2c0,0-3.7-1.2-3.7-3.7v-0.6v-53.4l0,0
			c0-0.1,0-0.3,0-0.4V103l0,0c-0.1-3.9-1.9-7.4-4.5-9.9l3-41.6l0,0c1-0.5,1.5-1.2,1.5-1.9c0-3.2-10.5-3.5-13.7-3.5H28
			c-2.4,0-14.1,0.3-14.1,3.7c0,1,0.9,1.6,1.5,1.9L17.9,93c-2.8,2.5-4.6,6.1-4.7,10.1l0,0v0.1c0,0.1,0,0.3,0,0.4l0,0V215l-3.2,2.7
			l5.3,46.3c0.2,2.7,9.2,3,13.1,3s12.9-0.3,12.9-3l3.7-46.3l-2.9-2.6v-21.4c0.1-3.6,1.8-4,2.8-4c0.8,0,1.5,0.2,1.9,0.4
			c0.1,0,0.1,0.1,0.2,0.1l38,10.2c0.2,0.1,1.1,0.6,2,2.4l0.2,0.4l42.5,6.8c2.4,0,4.7-7.4,5.5-10.6
			C136.3,195.8,138.1,187.9,135.7,187.2z M28,46.9c4,0,7.5,0.3,9.9,0.8c-1.6,0.6-5.2,1.1-9.6,1.1s-8.1-0.5-9.6-1.1
			C21.2,47.3,24.4,46.9,28,46.9z M16.4,51.4c0,0,0-0.6-0.3-0.8c-0.7-0.3-1.2-0.7-1.2-1.1c0-0.6,1-1.1,2.6-1.6
			c1.6,1.5,7.3,1.8,10.9,1.8s9.1-0.3,10.8-1.8c1.2,0.4,2,0.8,2,1.3c0,0.4-0.4,0.7-1.1,1.1l0,0c-0.3,0.2-0.3,0.8-0.3,0.8l0,0v0.2
			c-1.8,0.8-6.4,1.4-11.8,1.4c-5.1,0-9.5-0.5-11.5-1.3L16.4,51.4z M16.5,51.8c2.2,0.8,6.9,1.3,11.5,1.3c4.7,0,9.7-0.5,11.8-1.4
			l-3,40.9c-2.8-1-8.9-1-9.2-1c-0.3,0-5.6,0-8.6,0.9L16.5,51.8z M36.7,93v0.3c0,0.8-4,1.5-8.8,1.6c-4.9,0-8.9-0.6-8.9-1.5v-0.7
			c1.8-0.5,5-0.9,8.6-0.9C31.6,91.9,35,92.4,36.7,93z M40.3,264.1c-1.1,1.1-5.7,1.7-11.9,1.7c-9.1,0-12.1-1.4-12.2-2.1v-0.2
			c1.9-0.9,6.6-1.5,12.1-1.5s10.3,0.6,12.2,1.5C40.5,263.6,40.5,264,40.3,264.1z M40.5,263.2c-2.6-1.1-8.7-1.5-12.3-1.5
			s-9.5,0.3-12.1,1.5L11,218.4c4.3,1.8,14.2,1.9,16.6,1.9s12.3-0.1,16.6-2L40.5,263.2z M87.8,201.8c-1.1-2.1-2.4-2.6-2.4-2.6
			s-37.2-10-38.1-10.2c-0.9-0.2-5.4-2.3-6.1,3.6v22.7l2.4,2.2c-2.8,1-8.9,1.8-16,1.8c-7.3,0-13.3-0.8-16-1.8l2.7-2.3V102.9
			c0.1-3.4,1.6-6.5,3.9-8.9c0.7,1.3,3.8,1.9,9.4,1.9h0.3c3.9,0,8.5-0.4,9.6-1.8c2.2,2.3,3.6,5.4,3.7,8.8l0,0v55
			c0.3,3.2,4.3,4.3,4.3,4.3c20.7,5.5,46.6,12.5,46.6,12.5s1.4,0.3,3.6-1.2l0.2,0.1c1,2.7,0.6,8.4-1.1,14.7
			C93,195.1,90.1,200.5,87.8,201.8z M129.7,209l-40.8-6.7c2.7-2.2,5.3-8.2,6.9-13.9c1.1-4.1,1.7-8.1,1.6-11.3c0-1.3-0.1-2.3-0.4-3.2
			l38.2,14.2c-1.6,2.7-3,6.5-4,10.2C130.2,202.2,129.7,206,129.7,209z M134.4,199.1c-1.4,5.2-3.2,9.3-4.3,9.9
			c0-2.9,0.5-6.6,1.6-10.5c1.1-4,2.5-7.5,3.9-10C136.2,189.5,135.8,193.9,134.4,199.1z"/>
	</g>
</g>
</svg>
