<svg id="图层23" xmlns="http://www.w3.org/2000/svg" viewBox="0 0 135 165" width = "135" height= "165" > 
<title>玻璃仪器23</title>
<g fill="none" stroke="#000000" stroke-width="0.2073" stroke-linecap="round" stroke-miterlimit="1">
<path d="M625.47,250.08a.1.1,0,0,1-.05-.19l1.29-.78a.1.1,0,0,1,.14,0,.1.1,0,0,1,0,.14l-1.29.78Z" transform="translate(-523.5 -101.37)"/>
<path d="M642.41,241.43a.1.1,0,0,1-.08,0,.1.1,0,0,1,0-.14l1.33-.86a.1.1,0,0,1,.14,0,.1.1,0,0,1,0,.14l-1.33.86Z" transform="translate(-523.5 -101.37)"/>
<path d="M634.31,241.39a.1.1,0,0,1-.08,0l-1.07-1.21a.1.1,0,0,1,.15-.13l1.07,1.21a.1.1,0,0,1,0,.14Z" transform="translate(-523.5 -101.37)"/>
<path d="M630.84,246.81a.1.1,0,0,1-.09-.06l-.63-1.5a.1.1,0,0,1,.05-.13.1.1,0,0,1,.13.05l.63,1.5a.1.1,0,0,1-.05.13Z" transform="translate(-523.5 -101.37)"/>
<path d="M627.92,259.86a.1.1,0,0,1-.06-.18l1.55-1.28a.1.1,0,0,1,.14,0,.1.1,0,0,1,0,.14L628,259.84Z" transform="translate(-523.5 -101.37)"/>
<path d="M627.51,248.34a.1.1,0,0,1-.1-.1v-1.5a.1.1,0,1,1,.2,0v1.5A.1.1,0,0,1,627.51,248.34Z" transform="translate(-523.5 -101.37)"/>
<path d="M628.51,242.1a.1.1,0,0,1-.08,0l-.89-1.25a.1.1,0,0,1,0-.14.1.1,0,0,1,.14,0l.89,1.25a.1.1,0,0,1,0,.14Z" transform="translate(-523.5 -101.37)"/>
<path d="M633.65,261.43a.1.1,0,0,1-.07,0l-1.07-1.14a.1.1,0,0,1,.15-.14l1.07,1.14a.1.1,0,0,1-.07.17Z" transform="translate(-523.5 -101.37)"/>
<path d="M640,243.92a.1.1,0,0,1-.07,0l-1.07-1.11a.1.1,0,0,1,.14-.14l1.07,1.11a.1.1,0,0,1,0,.14A.1.1,0,0,1,640,243.92Z" transform="translate(-523.5 -101.37)"/>
<path d="M637,245.1h0l-2.29-.61a.1.1,0,1,1,.05-.19l2.29.61a.1.1,0,0,1,0,.2Z" transform="translate(-523.5 -101.37)"/>
<path d="M636.38,247.49l-.06,0-1.66-1.18a.1.1,0,0,1,0-.14.1.1,0,0,1,.14,0l1.66,1.18a.1.1,0,0,1-.06.18Z" transform="translate(-523.5 -101.37)"/>
<path d="M646.44,246.6a.1.1,0,0,1-.09-.06l-.7-1.5a.1.1,0,0,1,.18-.08l.7,1.5a.1.1,0,0,1,0,.13Z" transform="translate(-523.5 -101.37)"/>
<path d="M651.65,245.88a.1.1,0,0,1-.08,0l-.89-1.25a.1.1,0,0,1,0-.14.1.1,0,0,1,.14,0l.89,1.25a.1.1,0,0,1,0,.14Z" transform="translate(-523.5 -101.37)"/>
<path d="M643.74,247.77a.1.1,0,0,1-.08,0l-1-1.11a.1.1,0,1,1,.15-.13l1,1.11a.1.1,0,0,1,0,.14Z" transform="translate(-523.5 -101.37)"/>
<path d="M651,251.66H651a.1.1,0,0,1,0-.14l.89-1.46a.1.1,0,0,1,.17.1l-.89,1.46A.1.1,0,0,1,651,251.66Z" transform="translate(-523.5 -101.37)"/>
<path d="M650.21,260.54h0l-1.37-.78a.1.1,0,1,1,.1-.17l1.37.78a.1.1,0,0,1,0,.19Z" transform="translate(-523.5 -101.37)"/>
<path d="M646.18,252l-.06,0a.1.1,0,0,1,0-.14l1.11-1.5a.1.1,0,0,1,.14,0,.1.1,0,0,1,0,.14l-1.11,1.5A.1.1,0,0,1,646.18,252Z" transform="translate(-523.5 -101.37)"/>
<path d="M637.34,251.59a.1.1,0,0,1-.08,0l-1-1.14a.1.1,0,1,1,.15-.13l1,1.14a.1.1,0,0,1,0,.14Z" transform="translate(-523.5 -101.37)"/>
<path d="M632.43,255.15a.1.1,0,0,1,0-.2l2-.61a.1.1,0,0,1,.13.07.1.1,0,0,1-.07.13l-2,.61Z" transform="translate(-523.5 -101.37)"/>
<path d="M640.82,253.26l-.07,0a.1.1,0,0,1,0-.14l1.11-1.21a.1.1,0,0,1,.14,0,.1.1,0,0,1,0,.14l-1.11,1.21A.1.1,0,0,1,640.82,253.26Z" transform="translate(-523.5 -101.37)"/>
<path d="M644.51,256.62l-.06,0a.1.1,0,0,1,0-.14l1-1.25a.1.1,0,0,1,.14,0,.1.1,0,0,1,0,.14l-1,1.25A.1.1,0,0,1,644.51,256.62Z" transform="translate(-523.5 -101.37)"/>
<path d="M641.19,255.76l-.06,0a.1.1,0,0,1,0-.14l.92-1.18a.1.1,0,0,1,.16.12l-.92,1.18A.1.1,0,0,1,641.19,255.76Z" transform="translate(-523.5 -101.37)"/>
<path d="M632.35,258.47a.1.1,0,0,1-.1-.1v-1.5a.1.1,0,1,1,.2,0v1.5A.1.1,0,0,1,632.35,258.47Z" transform="translate(-523.5 -101.37)"/>
<path d="M635.27,263.14a.1.1,0,0,1,0-.19l1.33-.75a.1.1,0,1,1,.1.17l-1.33.75Z" transform="translate(-523.5 -101.37)"/>
<path d="M640.34,263.5l-.05,0-1.4-.93a.1.1,0,0,1,0-.14.1.1,0,0,1,.14,0l1.4.93a.1.1,0,0,1-.05.18Z" transform="translate(-523.5 -101.37)"/>
<path d="M626.15,238.5l-.06,0a.1.1,0,0,1,0-.14l1-1.5a.1.1,0,0,1,.14,0,.1.1,0,0,1,0,.14l-1,1.5A.1.1,0,0,1,626.15,238.5Z" transform="translate(-523.5 -101.37)"/>
<path d="M626.29,232.12a.1.1,0,0,1-.09-.06l-.67-1.64a.1.1,0,0,1,.19-.08l.67,1.64a.1.1,0,0,1-.06.13Z" transform="translate(-523.5 -101.37)"/>
<path d="M624.7,222.67a.1.1,0,0,1-.05-.19l1.29-.78a.1.1,0,1,1,.1.17l-1.29.78Z" transform="translate(-523.5 -101.37)"/>
<path d="M622.6,224.13h-.05a.1.1,0,0,1,0-.14l.89-1.46a.1.1,0,0,1,.17.1l-.89,1.46A.1.1,0,0,1,622.6,224.13Z" transform="translate(-523.5 -101.37)"/>
<path d="M625.37,232.9h-1.59a.1.1,0,0,1,0-.2h1.59a.1.1,0,0,1,0,.2Z" transform="translate(-523.5 -101.37)"/>
<path d="M629.92,230.37l-.06,0-1.48-1.14a.1.1,0,0,1,0-.14.1.1,0,0,1,.14,0l1.48,1.14a.1.1,0,0,1-.06.18Z" transform="translate(-523.5 -101.37)"/>
<path d="M628,223.56h0a.1.1,0,0,1-.05-.13l.74-1.75a.1.1,0,0,1,.13-.05.1.1,0,0,1,.05.13L628,223.5A.1.1,0,0,1,628,223.56Z" transform="translate(-523.5 -101.37)"/>
<path d="M631.58,238.22a.1.1,0,0,1-.07,0L630.25,237a.1.1,0,1,1,.14-.14l1.26,1.21a.1.1,0,0,1-.07.17Z" transform="translate(-523.5 -101.37)"/>
<path d="M641.22,238.57a.1.1,0,0,1-.06-.18l1.29-1a.1.1,0,0,1,.14,0,.1.1,0,0,1,0,.14l-1.29,1Z" transform="translate(-523.5 -101.37)"/>
<path d="M652.94,222.73a.1.1,0,0,1-.05-.19l1.29-.78a.1.1,0,0,1,.14,0,.1.1,0,0,1,0,.14l-1.29.78Z" transform="translate(-523.5 -101.37)"/>
<path d="M636.38,220l-.06,0-1.66-1.18a.1.1,0,1,1,.12-.16l1.66,1.18a.1.1,0,0,1-.06.18Z" transform="translate(-523.5 -101.37)"/>
<path d="M653.54,218.7a.1.1,0,0,1-.08,0l-.89-1.25a.1.1,0,0,1,0-.14.1.1,0,0,1,.14,0l.89,1.25a.1.1,0,0,1,0,.14Z" transform="translate(-523.5 -101.37)"/>
<path d="M647.18,221.74l-.06,0-1.26-.86a.1.1,0,1,1,.11-.17l1.26.86a.1.1,0,0,1-.06.18Z" transform="translate(-523.5 -101.37)"/>
<path d="M649.76,229.76a.1.1,0,0,1-.07-.17l1.15-1.07a.1.1,0,0,1,.14,0,.1.1,0,0,1,0,.14l-1.15,1.07A.1.1,0,0,1,649.76,229.76Z" transform="translate(-523.5 -101.37)"/>
<path d="M650,237.25l-.06,0a.1.1,0,0,1,0-.14l.85-1.28a.1.1,0,1,1,.17.11l-.85,1.28A.1.1,0,0,1,650,237.25Z" transform="translate(-523.5 -101.37)"/>
<path d="M650.21,233h0l-1.37-.78a.1.1,0,1,1,.1-.17l1.37.78a.1.1,0,0,1,0,.19Z" transform="translate(-523.5 -101.37)"/>
<path d="M646.18,224.49l-.06,0a.1.1,0,0,1,0-.14l1.11-1.5a.1.1,0,1,1,.16.12l-1.11,1.5A.1.1,0,0,1,646.18,224.49Z" transform="translate(-523.5 -101.37)"/>
<path d="M637.34,224.06a.1.1,0,0,1-.08,0l-1-1.14a.1.1,0,0,1,0-.14.1.1,0,0,1,.14,0l1,1.14a.1.1,0,0,1,0,.14Z" transform="translate(-523.5 -101.37)"/>
<path d="M632.43,227.63a.1.1,0,0,1,0-.2l2-.61a.1.1,0,0,1,.06.19l-2,.61Z" transform="translate(-523.5 -101.37)"/>
<path d="M640.82,225.73l-.07,0a.1.1,0,0,1,0-.14l1.11-1.21a.1.1,0,0,1,.14,0,.1.1,0,0,1,0,.14l-1.11,1.21A.1.1,0,0,1,640.82,225.73Z" transform="translate(-523.5 -101.37)"/>
<path d="M644.51,229.09l-.06,0a.1.1,0,0,1,0-.14l1-1.25a.1.1,0,0,1,.14,0,.1.1,0,0,1,0,.14l-1,1.25A.1.1,0,0,1,644.51,229.09Z" transform="translate(-523.5 -101.37)"/>
<path d="M643,236.36a.1.1,0,0,1,0-.19l1.29-.64a.1.1,0,1,1,.09.18l-1.29.64Z" transform="translate(-523.5 -101.37)"/>
<path d="M641.19,228.23l-.06,0a.1.1,0,0,1,0-.14l.92-1.18a.1.1,0,0,1,.16.12l-.92,1.18A.1.1,0,0,1,641.19,228.23Z" transform="translate(-523.5 -101.37)"/>
<path d="M632.35,230.94a.1.1,0,0,1-.1-.1v-1.5a.1.1,0,1,1,.2,0v1.5A.1.1,0,0,1,632.35,230.94Z" transform="translate(-523.5 -101.37)"/>
<path d="M635.27,235.61a.1.1,0,0,1,0-.19l1.33-.75a.1.1,0,0,1,.1.17l-1.33.75Z" transform="translate(-523.5 -101.37)"/>
<path d="M640.34,236l-.05,0-1.4-.93a.1.1,0,0,1,0-.14.1.1,0,0,1,.14,0l1.4.93a.1.1,0,0,1-.05.18Z" transform="translate(-523.5 -101.37)"/>
<path d="M574.24,138.27a.1.1,0,0,1-.07,0l-1.09-1a.1.1,0,0,1,.14-.15l1.09,1a.1.1,0,0,1-.07.17Z" transform="translate(-523.5 -101.37)"/>
<path d="M576.59,129.68a.1.1,0,0,1-.1-.08l-.31-1.61a.1.1,0,0,1,.08-.12.1.1,0,0,1,.12.08l.31,1.61a.1.1,0,0,1-.08.12Z" transform="translate(-523.5 -101.37)"/>
<path d="M560.75,148.53a.1.1,0,0,1,0-.2l1.76-.22a.1.1,0,1,1,0,.2l-1.76.22Z" transform="translate(-523.5 -101.37)"/>
<path d="M553,147.43a.1.1,0,0,1-.1-.07l-.43-1.45a.1.1,0,0,1,.19-.06l.43,1.45a.1.1,0,0,1-.07.12Z" transform="translate(-523.5 -101.37)"/>
<path d="M549,128.21a.1.1,0,0,1-.09-.07l-.49-1.51a.1.1,0,0,1,.06-.13.1.1,0,0,1,.13.06l.49,1.51a.1.1,0,0,1-.06.13Z" transform="translate(-523.5 -101.37)"/>
<path d="M545.42,136.75a.1.1,0,0,1,0-.19l1.45-.73a.1.1,0,1,1,.09.18l-1.45.73Z" transform="translate(-523.5 -101.37)"/>
<path d="M549.61,141a.1.1,0,0,1,0-.2l1.61-.22a.1.1,0,0,1,0,.2l-1.61.22Z" transform="translate(-523.5 -101.37)"/>
<path d="M560.22,145.64a.1.1,0,0,1-.06-.18l1.48-1.14a.1.1,0,1,1,.12.16l-1.48,1.14Z" transform="translate(-523.5 -101.37)"/>
<path d="M554.62,144.65l-.06,0-1.5-1.16a.1.1,0,0,1,.12-.16l1.5,1.16a.1.1,0,0,1-.06.18Z" transform="translate(-523.5 -101.37)"/>
<path d="M544.64,142.36a.1.1,0,0,1-.09-.06.1.1,0,0,1,.06-.13l1.43-.54a.1.1,0,0,1,.13.06.1.1,0,0,1-.06.13l-1.43.54Z" transform="translate(-523.5 -101.37)"/>
<path d="M576,122.36a.1.1,0,0,1-.08,0l-1.18-1.38a.1.1,0,0,1,0-.14.1.1,0,0,1,.14,0l1.18,1.38a.1.1,0,0,1,0,.14Z" transform="translate(-523.5 -101.37)"/>
<path d="M573.92,132.68a.1.1,0,0,1-.09,0l-.77-1.27a.1.1,0,0,1,0-.14.1.1,0,0,1,.14,0l.77,1.27a.1.1,0,0,1,0,.14Z" transform="translate(-523.5 -101.37)"/>
<path d="M564.7,142.55a.1.1,0,0,1,0-.19l1.38-.74a.1.1,0,0,1,.1.18l-1.38.74Z" transform="translate(-523.5 -101.37)"/>
<path d="M566.63,120.92a.1.1,0,0,1-.09-.05l-.94-1.74a.1.1,0,1,1,.18-.09l.94,1.74a.1.1,0,0,1,0,.14Z" transform="translate(-523.5 -101.37)"/>
<path d="M557.1,120.69l-.05,0a.1.1,0,0,1,0-.14l1.1-1.77a.1.1,0,0,1,.17.11l-1.1,1.77A.1.1,0,0,1,557.1,120.69Z" transform="translate(-523.5 -101.37)"/>
<path d="M550.26,122.7a.1.1,0,0,1-.1-.08l-.31-1.61a.1.1,0,0,1,.08-.12.1.1,0,0,1,.12.08l.31,1.61a.1.1,0,0,1-.08.12Z" transform="translate(-523.5 -101.37)"/>
<path d="M549.43,131.92a.1.1,0,0,1-.09-.05.1.1,0,0,1,0-.14l1.34-.75a.1.1,0,0,1,.1.17l-1.34.75Z" transform="translate(-523.5 -101.37)"/>
<path d="M550,136.46h0a.1.1,0,0,1,0-.14l1.17-2.06a.1.1,0,1,1,.17.1l-1.17,2.06A.1.1,0,0,1,550,136.46Z" transform="translate(-523.5 -101.37)"/>
<path d="M551.73,136.89a.1.1,0,0,1-.08,0,.1.1,0,0,1,0-.14l1.56-1.31a.1.1,0,0,1,.14,0,.1.1,0,0,1,0,.14l-1.56,1.31Z" transform="translate(-523.5 -101.37)"/>
<path d="M553.38,125.94a.1.1,0,0,1,0-.2l1.63-.3a.1.1,0,0,1,.12.08.1.1,0,0,1-.08.12l-1.63.3Z" transform="translate(-523.5 -101.37)"/>
<path d="M554.22,121a.1.1,0,0,1-.09-.06.1.1,0,0,1,.06-.13l1.43-.54a.1.1,0,0,1,.07.19l-1.43.54Z" transform="translate(-523.5 -101.37)"/>
<path d="M556.63,126.61a.1.1,0,0,1-.08,0,.1.1,0,0,1,0-.14l1.15-1a.1.1,0,0,1,.13.15l-1.15,1Z" transform="translate(-523.5 -101.37)"/>
<path d="M566.2,125.16a.1.1,0,0,1-.09-.05l-.74-1.38a.1.1,0,0,1,0-.14.1.1,0,0,1,.13,0l.74,1.38a.1.1,0,0,1,0,.14Z" transform="translate(-523.5 -101.37)"/>
<path d="M571.82,124.86a.1.1,0,0,1-.06-.18l1.33-1.14a.1.1,0,1,1,.13.15l-1.33,1.14Z" transform="translate(-523.5 -101.37)"/>
<path d="M571.34,130.27a.1.1,0,0,1-.07,0,.1.1,0,0,1,0-.14l1.12-1.16a.1.1,0,0,1,.14.14l-1.12,1.16A.1.1,0,0,1,571.34,130.27Z" transform="translate(-523.5 -101.37)"/>
<path d="M560.94,124.15h0l-1.69-.45a.1.1,0,0,1,.05-.19L561,124a.1.1,0,0,1,0,.2Z" transform="translate(-523.5 -101.37)"/>
<path d="M557.63,132.72a.1.1,0,0,1-.08,0l-1-1.37a.1.1,0,0,1,.16-.12l1,1.37a.1.1,0,0,1,0,.14Z" transform="translate(-523.5 -101.37)"/>
<path d="M559.19,141.74h0l-1.55-.41a.1.1,0,1,1,.05-.19l1.55.41a.1.1,0,0,1,0,.2Z" transform="translate(-523.5 -101.37)"/>
<path d="M559.14,135.68a.1.1,0,0,1-.06-.18l1.31-1a.1.1,0,0,1,.12.16l-1.31,1Z" transform="translate(-523.5 -101.37)"/>
<path d="M560.73,129.37a.1.1,0,0,1-.07-.17l1.11-1a.1.1,0,0,1,.13.15l-1.11,1Z" transform="translate(-523.5 -101.37)"/>
<path d="M568.84,129.42h0l-1.48-.39a.1.1,0,0,1-.07-.12.1.1,0,0,1,.12-.07l1.48.39a.1.1,0,0,1,0,.2Z" transform="translate(-523.5 -101.37)"/>
<path d="M564.92,131.94a.1.1,0,0,1-.09-.06.1.1,0,0,1,.06-.13l1.31-.49a.1.1,0,1,1,.07.19l-1.31.49Z" transform="translate(-523.5 -101.37)"/>
<path d="M561.67,139.34a.1.1,0,0,1,0-.2l1.34-.33a.1.1,0,0,1,.12.07.1.1,0,0,1-.07.12l-1.34.33Z" transform="translate(-523.5 -101.37)"/>
<path d="M567.15,138.3a.1.1,0,0,1-.07,0l-.89-1a.1.1,0,1,1,.15-.14l.89,1a.1.1,0,0,1-.07.17Z" transform="translate(-523.5 -101.37)"/>
<path d="M567.2,135.45h0a.1.1,0,0,1-.07-.12l.34-1.29a.1.1,0,0,1,.12-.07.1.1,0,0,1,.07.12l-.34,1.29A.1.1,0,0,1,567.2,135.45Z" transform="translate(-523.5 -101.37)"/>
<path d="M543.07,131.73a.1.1,0,0,1,0-.2l1.73-.27a.09.09,0,0,1,.11.08.1.1,0,0,1-.08.11l-1.73.27Z" transform="translate(-523.5 -101.37)"/>
<path d="M557,113.13a.1.1,0,0,1,0-.2l1.61-.22a.1.1,0,0,1,.11.09.1.1,0,0,1-.08.11l-1.61.22Z" transform="translate(-523.5 -101.37)"/>
<path d="M566.19,116.6h0a.1.1,0,0,1-.07-.12l.42-1.57a.1.1,0,0,1,.19.05l-.42,1.57A.1.1,0,0,1,566.19,116.6Z" transform="translate(-523.5 -101.37)"/>
<path d="M564,118a.1.1,0,0,1-.07,0,.1.1,0,0,1,0-.14l1.16-1.18a.1.1,0,1,1,.14.14l-1.16,1.18A.1.1,0,0,1,564,118Z" transform="translate(-523.5 -101.37)"/>
<path d="M552,114.49a.1.1,0,0,1-.09-.06.1.1,0,0,1,.06-.13l1.43-.54a.1.1,0,1,1,.07.19l-1.43.54Z" transform="translate(-523.5 -101.37)"/>
<path d="M542.65,145.42a.1.1,0,0,1-.09-.06l-.49-1.08a.1.1,0,0,1,0-.13.1.1,0,0,1,.13.05l.49,1.08a.1.1,0,0,1,0,.13Z" transform="translate(-523.5 -101.37)"/>
<path d="M532.67,141.59a.1.1,0,0,1-.09-.05l-.94-1.74a.1.1,0,1,1,.18-.09l.94,1.74a.1.1,0,0,1,0,.14Z" transform="translate(-523.5 -101.37)"/>
<path d="M527.74,139.87a.1.1,0,0,1,0-.19l1.5-.64a.1.1,0,0,1,.13.05.1.1,0,0,1-.05.13l-1.5.64Z" transform="translate(-523.5 -101.37)"/>
<path d="M536,143.89h0a.1.1,0,0,1-.07-.12l.41-1.54a.1.1,0,0,1,.12-.07.1.1,0,0,1,.07.12l-.41,1.54A.1.1,0,0,1,536,143.89Z" transform="translate(-523.5 -101.37)"/>
<path d="M533.61,138.59a.1.1,0,0,1-.06-.18l1.48-1.14a.1.1,0,1,1,.12.16l-1.48,1.14Z" transform="translate(-523.5 -101.37)"/>
<path d="M528,137.6l-.06,0-1.5-1.16a.1.1,0,0,1,.12-.16l1.5,1.16a.1.1,0,0,1-.06.18Z" transform="translate(-523.5 -101.37)"/>
<path d="M549.37,115.31a.1.1,0,0,1-.08,0l-1.18-1.38a.1.1,0,0,1,0-.14.1.1,0,0,1,.14,0l1.18,1.38a.1.1,0,0,1,0,.14Z" transform="translate(-523.5 -101.37)"/>
<path d="M547.3,125.63a.1.1,0,0,1-.09,0l-.77-1.27a.1.1,0,0,1,.17-.1l.77,1.27a.1.1,0,0,1,0,.14Z" transform="translate(-523.5 -101.37)"/>
<path d="M538.08,135.49a.1.1,0,0,1,0-.19l1.38-.74a.1.1,0,0,1,.1.18l-1.38.74Z" transform="translate(-523.5 -101.37)"/>
<path d="M540,113.87a.1.1,0,0,1-.09-.05l-.94-1.74a.1.1,0,1,1,.18-.09l.94,1.74a.1.1,0,0,1,0,.14Z" transform="translate(-523.5 -101.37)"/>
<path d="M527.57,128.81a.1.1,0,0,1-.06-.18l1.15-.84a.1.1,0,0,1,.12.16l-1.15.84Z" transform="translate(-523.5 -101.37)"/>
<path d="M537.27,115.05h0a.1.1,0,0,1-.07-.12l.42-1.57a.1.1,0,1,1,.19.05l-.42,1.57A.1.1,0,0,1,537.27,115.05Z" transform="translate(-523.5 -101.37)"/>
<path d="M543.35,116.17h0a.1.1,0,0,1-.07-.12l.41-1.54a.1.1,0,0,1,.19.05l-.41,1.54A.1.1,0,0,1,543.35,116.17Z" transform="translate(-523.5 -101.37)"/>
<path d="M543.76,122.16h0a.1.1,0,0,1-.07-.12l.4-1.5a.1.1,0,1,1,.19.05l-.4,1.5A.1.1,0,0,1,543.76,122.16Z" transform="translate(-523.5 -101.37)"/>
<path d="M536.74,119.27a.1.1,0,0,1-.1-.08L536.2,117a.1.1,0,1,1,.2,0l.44,2.22a.1.1,0,0,1-.08.12Z" transform="translate(-523.5 -101.37)"/>
<path d="M529.62,123.16h0a.1.1,0,0,1-.07-.12l.35-1.32a.1.1,0,0,1,.12-.07.1.1,0,0,1,.07.12l-.35,1.32A.1.1,0,0,1,529.62,123.16Z" transform="translate(-523.5 -101.37)"/>
<path d="M532.58,134.69h0l-1.55-.41a.1.1,0,0,1-.07-.12.1.1,0,0,1,.12-.07l1.55.41a.1.1,0,0,1,0,.2Z" transform="translate(-523.5 -101.37)"/>
<path d="M532.53,128.63a.1.1,0,0,1-.06-.18l1.31-1a.1.1,0,0,1,.12.16l-1.31,1Z" transform="translate(-523.5 -101.37)"/>
<path d="M537.59,123a.1.1,0,0,1-.08,0l-1-1.25a.1.1,0,0,1,.16-.12l1,1.25a.1.1,0,0,1,0,.14Z" transform="translate(-523.5 -101.37)"/>
<path d="M544.23,126.38a.1.1,0,0,1-.1-.08l-.29-1.42a.1.1,0,0,1,.08-.12.11.11,0,0,1,.12.08l.29,1.42a.1.1,0,0,1-.08.12Z" transform="translate(-523.5 -101.37)"/>
<path d="M535.91,126a.1.1,0,0,1-.08,0l-.9-1.19a.1.1,0,0,1,.16-.12l.9,1.19a.1.1,0,0,1,0,.14Z" transform="translate(-523.5 -101.37)"/>
<path d="M536.27,135.24h0l-1.45-.38a.1.1,0,0,1-.07-.12.1.1,0,0,1,.12-.07l1.45.38a.1.1,0,0,1,0,.2Z" transform="translate(-523.5 -101.37)"/>
<path d="M541.53,133.62a.1.1,0,0,1-.1-.08l-.38-1.48a.1.1,0,0,1,.07-.12.09.09,0,0,1,.12.07l.38,1.48a.1.1,0,0,1-.07.12Z" transform="translate(-523.5 -101.37)"/>
<path d="M541.92,129.93a.1.1,0,0,1-.07,0,.1.1,0,0,1,0-.14l1.26-1.12a.1.1,0,0,1,.14,0,.1.1,0,0,1,0,.14L542,129.91Z" transform="translate(-523.5 -101.37)"/>
<path d="M541,110.72a.1.1,0,0,1-.06-.18l1.48-1.14a.1.1,0,1,1,.12.16l-1.48,1.14Z" transform="translate(-523.5 -101.37)"/>
<path d="M535.82,110.22l-.06,0-1.5-1.16a.1.1,0,0,1,.12-.16l1.5,1.16a.1.1,0,0,1,0,.14A.1.1,0,0,1,535.82,110.22Z" transform="translate(-523.5 -101.37)"/>
<path d="M539.12,106.53a.1.1,0,0,1-.07,0l-1.19-1.1a.1.1,0,0,1,.13-.15l1.19,1.1a.1.1,0,0,1,0,.14A.1.1,0,0,1,539.12,106.53Z" transform="translate(-523.5 -101.37)"/> </g>
<path stroke="#000000" fill="#000000" stroke-width="0.5324" d="M652.5,212.86c0-3.45.3-32.72-.34-40.79a44.87,44.87,0,0,0-11.48-26c-6.94-7.67-19.35-12.31-19.5-12.37l-26.47-8.29c-.88-.23-1.53-1.56-2.34-2.9-1.34-2.22-3.13-5.43-7.29-6.53-.76-.2-5.17-.54-7.88.9L540,104.74l-.1,0c-.14,0-.42-.18-.46-.31-.33-1.1-.78-2.62-2.07-3-4.37-1.16-9.28,12.7-11.26,20.19s-4.58,22-.21,23.12c1.29.34,2.43-.64,3.3-1.56a1.8,1.8,0,0,1,.6.07L568,151.11c1.57,2.61,5.51,4.7,6.42,4.94,4.15,1.1,7.2-.45,9.44-1.64a7.5,7.5,0,0,1,2.6-1c1.08.28,12.53,3.19,25.27,7,5.6,1.68,12.28,6.6,12.29,20.51,0,.25-.21,29.87-.23,31.94l-2.8,2.54,5.27,45.51c.16,2.69,9.09,3,12.94,3s12.73-.3,12.72-3l3.77-45.32Zm-125.44-91a68.25,68.25,0,0,1,5.94-15.6c1.67,1.06,1.32,8.17-.87,16.42-2.28,8.59-5.68,15.15-7.62,14.69A71.82,71.82,0,0,1,527.07,121.89Zm2.67,20.34a2.17,2.17,0,0,0-.72,0l-.33.06-.23.24c-1,1-1.71,1.44-2.32,1.28-1.09-.29-1.62-2.29-1.64-5.39,3.45.39,7-9.43,8.6-15.44,1.55-5.84,3.26-15.73.42-17.54,1.35-2.13,2.61-3.27,3.58-3,.74.2,1.09,1.33,1.36,2.25a1.58,1.58,0,0,0,1,1c.56,4.23-.19,11.28-2.24,19S532.31,138.82,529.73,142.23Zm.26.05h0c2.58-3.44,5.37-9.85,7.42-17.6s2.81-14.72,2.26-19l.1,0,36.32,11.89c-2.43,1.56-5.34,9.68-6.89,15.53s-3,14.22-1.73,16.84Zm38.7,8-.72-.17c-1.23-1.5-.6-8.6,1.59-16.85s5.21-14.87,7-15.46l.71.23h0c1.18,1.59.54,8.64-1.62,16.82S570.5,149.61,568.69,150.24ZM625,213.08s.09-31.9.09-32.13c0-14.52-7.07-19.69-13-21.47-10.94-3.28-24.63-6.91-25.25-7.06s-2.1.43-3.38,1.1c-2,1.09-4.85,2.58-8.71,1.56a14.54,14.54,0,0,1-5.49-4c3.57-1.85,7-14.43,7.42-16s3.61-14,1.54-17.5a14.77,14.77,0,0,1,6.63-.58c3.6,1,5.23,3.65,6.53,5.81l.51.86a6,6,0,0,0,2.26,2.64l26.74,8.4c.12,0,12.29,4.6,19.07,12.09a43.86,43.86,0,0,1,11.23,25.37c.6,7.67.34,41.15.34,41.15s2.59,2.21,2.59,2.21c-2.76,1-8.74,1.72-15.7,1.72-7.14,0-13.25-.74-15.91-1.8Zm26,47.78a.38.38,0,0,1-.14.32c-1.08,1.08-5.52,1.75-11.61,1.75-8.94,0-11.92-1.38-12-2.05l0-.19c1.91-.86,6.5-1.46,11.87-1.46s10,.6,11.87,1.46Zm0-.57c-2.58-1.12-8.41-1.46-11.9-1.46s-9.35.34-11.92,1.46l-5.1-44c4.26,1.79,13.91,1.91,16.28,1.91s12.05-.12,16.3-1.92Z" transform="translate(-523.5 -101.37)"/>
</svg>