<?xml version="1.0" encoding="utf-8"?>
<!-- Generator: Adobe Illustrator 21.0.0, SVG Export Plug-In . SVG Version: 6.00 Build 0)  -->
<svg version="1.1" id="图层_1" xmlns="http://www.w3.org/2000/svg" xmlns:xlink="http://www.w3.org/1999/xlink" x="0px" y="0px" width= "150" height="250"
	  viewBox="0 20 150 250" style="enable-background:new 0 0 160 268;" xml:space="preserve">
<style type="text/css">
	.st0{display:none;}
	.st1{display:inline;}
	.st2{fill:url(#SVGID_1_);}
	.st3{fill:url(#SVGID_2_);}
	.st4{fill:none;stroke:#000000;stroke-width:0.2074;}
	.st5{fill:url(#SVGID_3_);}
	.st6{fill:url(#SVGID_4_);}
	.st7{opacity:0.6;}
	.st8{fill:none;stroke:#01192B;stroke-width:0.2105;stroke-linecap:round;stroke-miterlimit:1;}
	.st9{fill:url(#SVGID_5_);}
	.st10{fill:url(#SVGID_6_);}
	.st11{fill:none;stroke:#000000;stroke-width:0.2058;stroke-linecap:round;stroke-miterlimit:1;}
	.st12{fill:url(#SVGID_7_);}
	.st13{fill:url(#SVGID_8_);}
	.st14{fill:none;stroke:#000000;stroke-width:0.2219;stroke-linecap:round;stroke-miterlimit:1;}
	.st15{fill:url(#SVGID_9_);}
	.st16{fill:url(#SVGID_10_);}
	.st17{fill:none;stroke:#000000;stroke-width:0.2549;}
	.st18{fill:url(#SVGID_11_);}
	.st19{fill:url(#SVGID_12_);}
	.st20{fill:none;stroke:#000000;stroke-width:0.2035;}
	.st21{fill:url(#SVGID_13_);}
	.st22{fill:url(#SVGID_14_);}
	.st23{fill:none;}
	.st24{fill:none;stroke:#000000;stroke-width:0.2084;}
	.st25{fill:url(#SVGID_15_);}
	.st26{fill:url(#SVGID_16_);}
	.st27{fill:url(#SVGID_17_);}
	.st28{fill:url(#SVGID_18_);}
	.st29{fill:none;stroke:#000000;stroke-width:0.2319;}
	.st30{fill:#020202;}
	.st31{fill:url(#SVGID_19_);}
	.st32{fill:url(#SVGID_20_);}
	.st33{fill:url(#SVGID_21_);}
	.st34{fill:url(#SVGID_22_);}
	.st35{fill:none;stroke:#000000;stroke-width:0.1439;}
	.st36{fill:none;stroke:#000000;stroke-width:0.2117;}
	.st37{fill:url(#SVGID_23_);}
	.st38{fill:url(#SVGID_24_);}
	.st39{fill:none;stroke:#000000;stroke-width:0.1431;}
	.st40{fill:none;stroke:#000000;stroke-width:0.1447;}
	.st41{fill:none;stroke:#000000;stroke-width:0.1421;}
	.st47{fill:none;stroke:#000000;stroke-width:0.2073;stroke-linecap:round;stroke-miterlimit:1;}
</style>

<g id="图层_19">
	<g>
		<g>
			<line class="st47" x1="32.6" y1="72.9" x2="33.3" y2="71.5"/>
			<line class="st47" x1="25.4" y1="70.2" x2="24.2" y2="71"/>
			<line class="st47" x1="24.7" y1="58.6" x2="25.7" y2="59.9"/>
			<line class="st47" x1="24" y1="50" x2="25.6" y2="50.7"/>
			<line class="st47" x1="22.8" y1="51" x2="21.7" y2="49.6"/>
			<line class="st47" x1="22.2" y1="57.3" x2="21.3" y2="58.8"/>
			<line class="st47" x1="23.4" y1="65.8" x2="22.2" y2="66.6"/>
			<line class="st47" x1="20.3" y1="72.5" x2="21.1" y2="71.1"/>
			<line class="st47" x1="38.3" y1="48" x2="39" y2="46.6"/>
			<line class="st47" x1="29.3" y1="49.3" x2="30.8" y2="48.4"/>
			<line class="st47" x1="29.6" y1="58.9" x2="30.5" y2="57.6"/>
			<line class="st47" x1="26.9" y1="67.4" x2="28.5" y2="66"/>
			<line class="st47" x1="26.5" y1="55.4" x2="26.5" y2="53.8"/>
			<line class="st47" x1="30.1" y1="67.9" x2="28.7" y2="68.8"/>
			<line class="st47" x1="32.7" y1="69" x2="31.6" y2="67.8"/>
			<line class="st47" x1="32.1" y1="50.7" x2="30.2" y2="51.3"/>
			<line class="st47" x1="32.3" y1="56.4" x2="30.9" y2="54.5"/>
			<line class="st47" x1="39.7" y1="53.8" x2="38.5" y2="53"/>
			<line class="st47" x1="31" y1="62.1" x2="31" y2="60.4"/>
			<line class="st47" x1="38.2" y1="61.4" x2="36.9" y2="60.4"/>
			<line class="st47" x1="31.4" y1="65.9" x2="31.4" y2="64.4"/>
			<line class="st47" x1="34.3" y1="70.8" x2="35.7" y2="70"/>
			<line class="st47" x1="25.3" y1="45.2" x2="26.3" y2="43.6"/>
			<line class="st47" x1="25.4" y1="41.6" x2="24.2" y2="42.5"/>
			<line class="st47" x1="25.7" y1="34" x2="24.3" y2="35.4"/>
			<line class="st47" x1="25.1" y1="27.9" x2="23.8" y2="28.8"/>
			<line class="st47" x1="20" y1="36.1" x2="21.2" y2="35"/>
			<line class="st47" x1="23.2" y1="42.7" x2="21.8" y2="41.7"/>
			<line class="st47" x1="20.2" y1="32.5" x2="18.2" y2="33.6"/>
			<line class="st47" x1="29.6" y1="30.4" x2="30.5" y2="29.1"/>
			<line class="st47" x1="26.9" y1="38.8" x2="28.5" y2="37.5"/>
			<line class="st47" x1="30.1" y1="39.3" x2="28.7" y2="40.2"/>
			<line class="st47" x1="32.7" y1="40.4" x2="31.6" y2="39.2"/>
			<line class="st47" x1="31" y1="33.5" x2="31" y2="31.8"/>
			<line class="st47" x1="38.2" y1="32.9" x2="36.9" y2="31.8"/>
			<line class="st47" x1="36.8" y1="34.9" x2="38.5" y2="35.5"/>
			<line class="st47" x1="35.5" y1="38.1" x2="34" y2="38.1"/>
			<line class="st47" x1="39.4" y1="37.2" x2="38.5" y2="38.1"/>
		</g>
	</g>
	<g>
		<line class="st47" x1="18.3" y1="231.2" x2="17.1" y2="232"/>
		<line class="st47" x1="33.6" y1="223.3" x2="34.9" y2="222.5"/>
		<line class="st47" x1="25.7" y1="223.3" x2="24.6" y2="222.1"/>
		<line class="st47" x1="22.3" y1="228.7" x2="21.7" y2="227.2"/>
		<line class="st47" x1="19.5" y1="241.8" x2="21" y2="240.5"/>
		<line class="st47" x1="19.1" y1="230.3" x2="19.1" y2="228.8"/>
		<line class="st47" x1="20" y1="224" x2="19.2" y2="222.8"/>
		<line class="st47" x1="25" y1="243.4" x2="24" y2="242.2"/>
		<line class="st47" x1="31.2" y1="225.8" x2="30.2" y2="224.7"/>
		<line class="st47" x1="28.3" y1="227" x2="26.1" y2="226.4"/>
		<line class="st47" x1="27.7" y1="229.4" x2="26.1" y2="228.2"/>
		<line class="st47" x1="37.5" y1="228.5" x2="36.8" y2="227"/>
		<line class="st47" x1="42.6" y1="227.8" x2="41.7" y2="226.5"/>
		<line class="st47" x1="33.9" y1="228.6" x2="34.9" y2="229.7"/>
		<line class="st47" x1="42.8" y1="232.1" x2="41.9" y2="233.6"/>
		<line class="st47" x1="41.2" y1="242.5" x2="39.8" y2="241.7"/>
		<line class="st47" x1="37.2" y1="233.9" x2="38.3" y2="232.4"/>
		<line class="st47" x1="27.7" y1="232.4" x2="28.6" y2="233.5"/>
		<line class="st47" x1="25.8" y1="236.5" x2="23.9" y2="237.1"/>
		<line class="st47" x1="33.1" y1="234" x2="32" y2="235.2"/>
		<line class="st47" x1="35.6" y1="238.5" x2="36.6" y2="237.3"/>
		<line class="st47" x1="34.1" y1="245.8" x2="35.4" y2="245.2"/>
		<line class="st47" x1="32.4" y1="237.7" x2="33.3" y2="236.5"/>
		<line class="st47" x1="23.8" y1="240.4" x2="23.8" y2="238.9"/>
		<line class="st47" x1="26.6" y1="245.1" x2="27.9" y2="244.3"/>
		<line class="st47" x1="31.6" y1="245.4" x2="30.2" y2="244.5"/>
		<line class="st47" x1="17.7" y1="220.4" x2="18.8" y2="218.9"/>
		<line class="st47" x1="17.2" y1="212.4" x2="17.9" y2="214"/>
		<line class="st47" x1="17.6" y1="203.8" x2="16.3" y2="204.5"/>
		<line class="st47" x1="15.2" y1="204.5" x2="14.3" y2="206"/>
		<line class="st47" x1="17" y1="214.8" x2="15.4" y2="214.8"/>
		<line class="st47" x1="21.4" y1="212.3" x2="20" y2="211.1"/>
		<line class="st47" x1="19.5" y1="205.4" x2="20.2" y2="203.7"/>
		<line class="st47" x1="23" y1="220.1" x2="21.8" y2="218.9"/>
		<line class="st47" x1="32.4" y1="220.5" x2="33.7" y2="219.5"/>
		<line class="st47" x1="45.1" y1="203.8" x2="43.8" y2="204.6"/>
		<line class="st47" x1="27.7" y1="201.8" x2="26.1" y2="200.6"/>
		<line class="st47" x1="44.4" y1="200.6" x2="43.5" y2="199.3"/>
		<line class="st47" x1="38.2" y1="203.6" x2="37" y2="202.8"/>
		<line class="st47" x1="40.7" y1="211.6" x2="41.8" y2="210.6"/>
		<line class="st47" x1="40.9" y1="219.1" x2="41.8" y2="217.9"/>
		<line class="st47" x1="41.2" y1="214.9" x2="39.8" y2="214.1"/>
		<line class="st47" x1="37.2" y1="206.4" x2="38.3" y2="204.9"/>
		<line class="st47" x1="27.7" y1="204.8" x2="28.6" y2="205.9"/>
		<line class="st47" x1="25.8" y1="208.9" x2="23.9" y2="209.5"/>
		<line class="st47" x1="33.1" y1="206.4" x2="32" y2="207.6"/>
		<line class="st47" x1="35.6" y1="211" x2="36.6" y2="209.7"/>
		<line class="st47" x1="34.1" y1="218.3" x2="35.4" y2="217.6"/>
		<line class="st47" x1="32.4" y1="210.1" x2="33.3" y2="208.9"/>
		<line class="st47" x1="23.8" y1="212.8" x2="23.8" y2="211.3"/>
		<line class="st47" x1="26.6" y1="217.5" x2="27.9" y2="216.8"/>
		<line class="st47" x1="31.6" y1="217.9" x2="30.2" y2="216.9"/>
	</g>
	<g>
		<line class="st47" x1="121.3" y1="250.7" x2="120.2" y2="251.4"/>
		<line class="st47" x1="135.2" y1="243.6" x2="136.3" y2="242.9"/>
		<line class="st47" x1="128" y1="243.6" x2="127.1" y2="242.5"/>
		<line class="st47" x1="124.9" y1="248.5" x2="124.4" y2="247.1"/>
		<line class="st47" x1="122.3" y1="260.2" x2="123.7" y2="259"/>
		<line class="st47" x1="122" y1="249.8" x2="122" y2="248.5"/>
		<line class="st47" x1="122.9" y1="244.2" x2="122.1" y2="243.1"/>
		<line class="st47" x1="127.4" y1="261.6" x2="126.5" y2="260.6"/>
		<line class="st47" x1="133" y1="245.9" x2="132.1" y2="244.9"/>
		<line class="st47" x1="130.4" y1="246.9" x2="128.3" y2="246.4"/>
		<line class="st47" x1="129.8" y1="249.1" x2="128.4" y2="248"/>
		<line class="st47" x1="138.7" y1="248.3" x2="138.1" y2="246.9"/>
		<line class="st47" x1="143.3" y1="247.6" x2="142.6" y2="246.5"/>
		<line class="st47" x1="135.5" y1="248.3" x2="136.3" y2="249.3"/>
		<line class="st47" x1="143.6" y1="251.5" x2="142.8" y2="252.8"/>
		<line class="st47" x1="142.1" y1="260.8" x2="140.9" y2="260.1"/>
		<line class="st47" x1="138.5" y1="253.1" x2="139.5" y2="251.8"/>
		<line class="st47" x1="129.8" y1="251.7" x2="130.7" y2="252.8"/>
		<line class="st47" x1="128.1" y1="255.4" x2="126.3" y2="256"/>
		<line class="st47" x1="134.7" y1="253.2" x2="133.8" y2="254.3"/>
		<line class="st47" x1="137" y1="257.3" x2="137.9" y2="256.2"/>
		<line class="st47" x1="135.7" y1="263.8" x2="136.8" y2="263.2"/>
		<line class="st47" x1="134.1" y1="256.5" x2="134.9" y2="255.5"/>
		<line class="st47" x1="126.3" y1="258.9" x2="126.3" y2="257.6"/>
		<line class="st47" x1="128.9" y1="263.1" x2="130" y2="262.5"/>
		<line class="st47" x1="133.3" y1="263.5" x2="132.1" y2="262.6"/>
		<line class="st47" x1="120.8" y1="241" x2="121.7" y2="239.7"/>
		<line class="st47" x1="120.3" y1="233.8" x2="120.9" y2="235.3"/>
		<line class="st47" x1="120.6" y1="226.1" x2="119.5" y2="226.8"/>
		<line class="st47" x1="118.4" y1="226.8" x2="117.6" y2="228.1"/>
		<line class="st47" x1="120.1" y1="236" x2="118.7" y2="236"/>
		<line class="st47" x1="124.1" y1="233.7" x2="122.8" y2="232.7"/>
		<line class="st47" x1="122.4" y1="227.6" x2="123" y2="226"/>
		<line class="st47" x1="125.6" y1="240.7" x2="124.5" y2="239.7"/>
		<line class="st47" x1="134.1" y1="241.1" x2="135.3" y2="240.2"/>
		<line class="st47" x1="145.6" y1="226.1" x2="144.5" y2="226.8"/>
		<line class="st47" x1="129.8" y1="224.3" x2="128.4" y2="223.3"/>
		<line class="st47" x1="145" y1="223.2" x2="144.2" y2="222.1"/>
		<line class="st47" x1="139.4" y1="225.9" x2="138.3" y2="225.2"/>
		<line class="st47" x1="141.7" y1="233.1" x2="142.7" y2="232.2"/>
		<line class="st47" x1="141.9" y1="239.9" x2="142.6" y2="238.7"/>
		<line class="st47" x1="142.1" y1="236.1" x2="140.9" y2="235.4"/>
		<line class="st47" x1="138.5" y1="228.4" x2="139.5" y2="227.1"/>
		<line class="st47" x1="129.8" y1="227" x2="130.7" y2="228"/>
		<line class="st47" x1="128.1" y1="230.7" x2="126.3" y2="231.2"/>
		<line class="st47" x1="134.7" y1="228.4" x2="133.8" y2="229.5"/>
		<line class="st47" x1="137" y1="232.5" x2="137.9" y2="231.4"/>
		<line class="st47" x1="135.7" y1="239.1" x2="136.8" y2="238.5"/>
		<line class="st47" x1="134.1" y1="231.8" x2="134.9" y2="230.7"/>
		<line class="st47" x1="126.3" y1="234.2" x2="126.3" y2="232.9"/>
		<line class="st47" x1="128.9" y1="238.4" x2="130" y2="237.7"/>
		<line class="st47" x1="133.3" y1="238.7" x2="132.1" y2="237.9"/>
	</g>
	<g>
		<path stroke="#000000" fill="#000000" stroke-width="0.5324" d="M145.2,216.6v-12.4c0-34.5-23.8-42.5-33.4-45.2c2,0.6-64.8-17.3-64.8-17.3s-3.8-1.4-3.8-3.9V82.7c0-3-1.6-7-4.2-9.5
			l3-41.5c1-0.5,1.5-1.4,1.5-2.1c0-3.2-10.5-3.7-13.7-3.7h-0.4c-2.4,0-14.1,0.5-14.1,3.9c0,1,0.9,1.7,1.5,2l2.5,41.1
			c-2.8,2.5-4.9,5.9-5.1,9.9v112.4l-3,2.7l5.4,46.3c0.2,2.7,9.2,3,13.2,3c3.9,0,13-0.3,13-3l3.5-46.3l-2.6-2.5V174
			c0-3.6,1.5-4.2,2.5-4.1c0.3,0,0.7,0.1,1,0.1c0.6,0.1,17,4.4,17,4.4s38.8,10,40.3,10.6c2.7,0.8,5.6,2.3,8.1,4.8
			c2.9,2.9,5,7.2,5,13.1c-0.1,7.2,0,13.5,0,13.5l-3.1,3.4l5.8,43.9c0,1.1,5.1,2,11.4,2c6.3,0,11.3-0.9,11.3-2l5.5-43.9L145.2,216.6z
			 M29.4,26.9h0.4c4,0,7.8,0.5,10.1,1.2c-1.7,1-5.7,1.6-10.3,1.6S21,29,19.3,28.1C22.4,27.2,26.9,26.9,29.4,26.9z M17.8,31.1
			l-0.5-0.3c-0.3-0.2-1-0.6-1-1.1c0-0.1,0-0.2,0.3-0.5s0.9-0.6,1.6-0.9c2.5,2.2,10.4,2.2,11.5,2.2s9-0.1,11.5-2.2
			c0.9,0.4,1.4,0.8,1.4,1.2c0,0.4-0.3,0.9-0.9,1.2L41.2,31v0.5c-2.5,1.1-6.8,1.8-11.8,1.8c-4.8,0-9-0.7-11.5-1.7L17.8,31.1z
			 M17.8,31.9c2.5,1,6.7,1.7,11.5,1.7c5,0,9.2-0.7,11.8-1.8l-3,40.8c-1.6-0.7-5.1-1.1-9.2-1.1c-3.7,0-7,0.4-8.7,1L17.8,31.9z
			 M20.3,72.8c1.4-0.5,4.4-1,8.7-1c4.8,0,8,0.6,9.1,1.1v0.3c-0.8,0.5-3.2,1.3-9.1,1.3c-5.3,0-7.7-0.6-8.8-1.1l0.1-0.1L20.3,72.8z
			 M41.6,244.6c-1.1,1.1-5.6,1.8-11.8,1.8c-9.1,0-12.1-1.4-12.2-2.1v-0.2c1.6-0.8,6.3-1.5,11.9-1.5c6,0,11,0.7,12.2,1.6l0,0
			C41.7,244.4,41.7,244.4,41.6,244.6z M41.8,243.8c-2.6-1.6-11.8-1.6-12.3-1.6c-0.4,0-9.1,0-12,1.4L12.4,199c4.7,1.5,12,2,16.6,2
			c4.5,0,11.5-0.5,16.2-1.9L41.8,243.8z M118.5,217v-0.4c0-0.1-0.1-6.4,0-13.5c0.1-6.3-2-10.7-5.1-13.7c-2.7-2.6-5.3-4.2-8.7-5.2
			c-0.2-0.1-38.9-10.2-40.3-10.6c-1.7-0.4-16.4-4.3-17.1-4.4c-0.5-0.1-0.9-0.2-1.2-0.2c-1.1,0-3.5,0.5-3.5,5.1v21.8l2.2,2.1
			c-3.7,1.1-9.4,1.9-15.9,1.9c-6.7,0-12.6-0.8-16.3-2l2.5-2.3V82.9c0.1-3.8,2.3-6.8,4.2-8.7c1.9,1.2,6.5,1.4,9.5,1.4
			s7.6-0.2,9.6-1.4c2.4,2.5,3.7,6.1,3.7,8.6v55c0,3.2,4.5,4.8,4.5,4.8c54.7,14.7,63.3,17,64.8,17.3l0,0c8.1,2.3,32.7,9.3,32.7,44.2
			V217l3.1,3.3c-3.7,1-9.2,1.7-15.3,1.7c-6.7,0-12.6-0.8-16.2-2L118.5,217z M131.5,265c-6.1,0-9.6-0.8-10.4-1.3v-0.3
			c1.6-0.7,5.6-1.1,10.3-1.1c4.9,0,9.1,0.5,10.5,1.2v0.2C141.1,264.2,137.6,265,131.5,265z M142,263.1c-2.6-1.2-10.2-1.2-10.6-1.2
			c-0.4,0-7.6,0-10.4,1.2l-5.5-42c4.7,1.5,11.8,2,16.4,2c4.2,0,10.6-0.4,15.3-1.6L142,263.1z"/>
	</g>
</g>
</svg>
