<svg id="图层_31" data-name="图层 31" xmlns="http://www.w3.org/2000/svg" viewBox="0 0 70.16022 180.0423" width="72" height="182">
    <title>玻璃仪器</title><g stroke="#000000" fill="#000000" stroke-width="0.5324" transform="translate(-841.36313 -80.86128)">
    <path d="M852.88077,107.57777a.09549.09549,0,0,1-.03125-.00537l-1.0459-.34863a.09945.09945,0,0,1-.06348-.12646.10126.10126,0,0,1,.126-.063l1.0459.34863a.09993.09993,0,0,1-.03125.19482Z"
          transform="translate(-841.36313 H-80.86128)"/>
    <path d="M853.29093,108.37806a.10006.10006,0,0,1-.05566-.18311l.7998-.53369a.09994.09994,0,0,1,.11133.166l-.7998.53369A.09815.09815,0,0,1,853.29093,108.37806Z"
           />
    <path d="M850.50284,107.53675h-.90234a.1001.1001,0,0,1,0-.2002h.90234a.1001.1001,0,0,1,0,.2002Z"
           />
    <path d="M859.50382,109.11683a.09791.09791,0,0,1-.06543-.0249l-.63574-.5542a.09968.09968,0,1,1,.13086-.15039l.63574.5542a.09987.09987,0,0,1-.06543.17529Z"
           />
    <path d="M853.39346,109.81459a.101.101,0,0,1-.085-.04687.09977.09977,0,0,1,.03125-.1377l.7793-.49268a.1001.1001,0,1,1,.10742.16895l-.7793.49268A.09805.09805,0,0,1,853.39346,109.81459Z"
           />
    <path d="M851.95792,106.73646a.10014.10014,0,0,1-.09082-.14209l.36914-.80029a.10006.10006,0,0,1,.18164.084l-.36914.80029A.09928.09928,0,0,1,851.95792,106.73646Z"
           />
    <path d="M847.91885,107.18763a.09815.09815,0,0,1-.05566-.01709.09927.09927,0,0,1-.02734-.13867l.57422-.86182a.09994.09994,0,0,1,.166.11133l-.57422.86182A.1.1,0,0,1,847.91885,107.18763Z"
           />
    <path d="M847.36514,101.77064a.1001.1001,0,0,1-.06934-.17187l.7998-.77979a.0998.0998,0,0,1,.13867.14355l-.7998.77979A.09832.09832,0,0,1,847.36514,101.77064Z"
           />
    <path d="M848.06241,94.38343a.09671.09671,0,0,1-.03809-.00781l-.84082-.34863a.10072.10072,0,0,1-.05469-.13037.09839.09839,0,0,1,.13086-.0542l.84082.34863a.09989.09989,0,0,1-.03809.19238Z"
           />
    <path d="M855.0546,92.88539a.09661.09661,0,0,1-.0459-.01123.09959.09959,0,0,1-.043-.13428l.38965-.75977a.1.1,0,1,1,.17773.0918l-.38965.75928A.10025.10025,0,0,1,855.0546,92.88539Z"
           />
    <path d="M850.1337,93.62416a.10007.10007,0,0,1-.05273-.18506l.79883-.49268a.1.1,0,1,1,.10547.16992l-.79883.49268A.10093.10093,0,0,1,850.1337,93.62416Z"
           />
    <path d="M850.27725,98.95912a.10009.10009,0,0,1-.08105-.1582l.51172-.71777a.09973.09973,0,1,1,.16211.11621l-.51172.71777A.09916.09916,0,0,1,850.27725,98.95912Z"
           />
    <path d="M848.8212,103.63783a.10006.10006,0,0,1-.06543-.17578l.86133-.73877a.1.1,0,1,1,.13086.15137l-.86133.73877A.09921.09921,0,0,1,848.8212,103.63783Z"
           />
    <path d="M848.59561,97.0099a.09951.09951,0,0,1-.09961-.1001V96.048a.09961.09961,0,1,1,.19922,0v.86182A.09951.09951,0,0,1,848.59561,97.0099Z"
           />
    <path d="M849.78507,104.43812a.09995.09995,0,0,1-.05566-.18311l.75781-.51318a.10245.10245,0,0,1,.13867.02686.101.101,0,0,1-.02734.13916l-.75781.51318A.09964.09964,0,0,1,849.78507,104.43812Z"
           />
    <path d="M862.64053,107.88539a.10032.10032,0,0,1-.06445-.17676l.5127-.43066a.1011.1011,0,0,1,.14063.01221.09993.09993,0,0,1-.01172.14111l-.5127.43066A.10085.10085,0,0,1,862.64053,107.88539Z"
           />
    <path d="M856.20206,107.22914a.10027.10027,0,0,1-.06152-.1792l.71777-.5542a.099.099,0,0,1,.14063.01807.10008.10008,0,0,1-.01758.14014l-.71777.5542A.10083.10083,0,0,1,856.20206,107.22914Z"
           />
    <path d="M863.25577,105.66957a.10028.10028,0,0,1-.05664-.18262l.65625-.45166a.09851.09851,0,0,1,.13867.02588.09974.09974,0,0,1-.02539.13916l-.65625.45166A.10177.10177,0,0,1,863.25577,105.66957Z"
           />
    <path d="M864.05557,99.51332a.09942.09942,0,0,1-.08008-.04l-.55371-.73877a.09951.09951,0,0,1,.02051-.14014.10079.10079,0,0,1,.13965.02l.55371.73877a.09951.09951,0,0,1-.02051.14014A.10052.10052,0,0,1,864.05557,99.51332Z"
           />
    <path d="M863.97354,94.38343a.09671.09671,0,0,1-.03809-.00781l-.84082-.34863a.10072.10072,0,0,1-.05469-.13037.09808.09808,0,0,1,.13086-.0542l.84082.34863a.09989.09989,0,0,1-.03809.19238Z"
           />
    <path d="M859.50382,93.43959a.09791.09791,0,0,1-.06543-.0249l-.63574-.5542a.09968.09968,0,1,1,.13086-.15039l.63574.5542a.09987.09987,0,0,1-.06543.17529Z"
           />
    <path d="M853.39346,94.13734a.101.101,0,0,1-.085-.04687.09977.09977,0,0,1,.03125-.1377l.7793-.49268a.1001.1001,0,1,1,.10742.16895l-.7793.49268A.09805.09805,0,0,1,853.39346,94.13734Z"
           />
    <path d="M851.24014,96.04554a.10049.10049,0,0,1-.08887-.147l.38965-.73877a.102.102,0,0,1,.13574-.0415.10049.10049,0,0,1,.042.13525l-.38965.73877A.10137.10137,0,0,1,851.24014,96.04554Z"
           />
    <path d="M854.11124,97.5641a.10282.10282,0,0,1-.06445-.02344l-.61523-.51318a.10015.10015,0,1,1,.12891-.15332l.61523.51318a.10028.10028,0,0,1,.0127.14063A.10146.10146,0,0,1,854.11124,97.5641Z"
           />
    <path d="M859.83194,94.79359a.10022.10022,0,0,1-.05859-.18115l.7998-.57422a.1.1,0,0,1,.11719.16211l-.7998.57422A.0999.0999,0,0,1,859.83194,94.79359Z"
           />
    <path d="M860.34464,96.78431a.10024.10024,0,0,1-.05469-.18408l.69727-.45166a.10022.10022,0,0,1,.10938.168l-.69727.45166A.10431.10431,0,0,1,860.34464,96.78431Z"
           />
    <path d="M861.63565,98.91859a.10176.10176,0,0,1-.05078-.01367.09922.09922,0,0,1-.03516-.13672l.49219-.8418a.09957.09957,0,1,1,.17188.10059l-.49219.8418A.09874.09874,0,0,1,861.63565,98.91859Z"
           />
    <path d="M862.14835,103.24818a.1.1,0,0,1-.05957-.18018l.63574-.47217a.09981.09981,0,0,1,.11914.16016l-.63574.47217A.09733.09733,0,0,1,862.14835,103.24818Z"
           />
    <path d="M861.06241,106.46986a.1023.1023,0,0,1-.05371-.01562.09932.09932,0,0,1-.03027-.13818l.4707-.73877a.09969.09969,0,1,1,.168.10742l-.4707.73877A.09875.09875,0,0,1,861.06241,106.46986Z"
           />
    <path d="M861.18546,104.028a.09513.09513,0,0,1-.05078-.01416l-.75879-.45166a.09982.09982,0,1,1,.10156-.17187l.75879.45166a.09993.09993,0,0,1-.05078.186Z"
           />
    <path d="M858.9501,99.12367a.10009.10009,0,0,1-.08105-.1582l.61523-.86182a.09973.09973,0,1,1,.16211.11621l-.61523.86182A.09916.09916,0,0,1,858.9501,99.12367Z"
           />
    <path d="M854.04971,98.87709a.098.098,0,0,1-.07715-.03711l-.5332-.65625a.0996.0996,0,1,1,.1543-.126l.5332.65625a.09956.09956,0,0,1-.07715.16309Z"
           />
    <path d="M851.32218,100.92933a.09994.09994,0,0,1-.03027-.19531l1.10742-.34912a.1011.1011,0,0,1,.126.06494.1.1,0,0,1-.06543.12549l-1.10742.34912A.0935.0935,0,0,1,851.32218,100.92933Z"
           />
    <path d="M855.97647,99.84193a.10224.10224,0,0,1-.06641-.0249.10072.10072,0,0,1-.00879-.14111l.61523-.69775a.1.1,0,1,1,.15039.13184l-.61523.69775A.10044.10044,0,0,1,855.97647,99.84193Z"
           />
    <path d="M858.02725,101.77064a.09733.09733,0,0,1-.05957-.02.09973.09973,0,0,1-.02051-.13965l.5332-.71826a.09723.09723,0,0,1,.13965-.02051.09973.09973,0,0,1,.02051.13965l-.5332.71826A.09991.09991,0,0,1,858.02725,101.77064Z"
           />
    <path d="M857.16593,105.95668a.10007.10007,0,0,1-.0459-.189l.71777-.36914a.1.1,0,0,1,.0918.17773l-.71777.36914A.09661.09661,0,0,1,857.16593,105.95668Z"
           />
    <path d="M856.18155,101.278a.10041.10041,0,0,1-.08008-.16064l.5127-.67725a.10039.10039,0,0,1,.16016.12109l-.5127.67725A.10032.10032,0,0,1,856.18155,101.278Z"
           />
    <path d="M851.28116,102.83754a.09951.09951,0,0,1-.09961-.1001v-.86182a.09961.09961,0,1,1,.19922,0v.86182A.09951.09951,0,0,1,851.28116,102.83754Z"
           />
    <path d="M852.90128,105.52552a.10039.10039,0,0,1-.05078-.18652l.73828-.43066a.09888.09888,0,0,1,.13672.03613.1.1,0,0,1-.03516.13672l-.73828.43066A.10176.10176,0,0,1,852.90128,105.52552Z"
           />
    <path d="M855.71085,105.73109a.10177.10177,0,0,1-.05664-.01758l-.7793-.53369a.10009.10009,0,0,1,.11328-.165l.7793.53369a.09967.09967,0,0,1,.02539.13916A.09729.09729,0,0,1,855.71085,105.73109Z"
           />
    <path d="M866.12686,93.62416a.10007.10007,0,0,1-.05273-.18506l.79883-.49268a.1.1,0,1,1,.10547.16992l-.79883.49268A.10093.10093,0,0,1,866.12686,93.62416Z"
           />
    <path d="M866.01456,98.97767a.10009.10009,0,0,1-.08105-.1582l.5127-.71826a.09973.09973,0,1,1,.16211.11621l-.5127.71826A.09916.09916,0,0,1,866.01456,98.97767Z"
           />
    <path d="M865.92178,102.50941a.09961.09961,0,0,1-.0625-.022l-.82031-.65674a.1.1,0,1,1,.125-.15625l.82031.65674a.10055.10055,0,0,1,.01563.14063A.09891.09891,0,0,1,865.92178,102.50941Z"
           />
    <path d="M864.83487,98.59a.10543.10543,0,0,1-.03809-.00732.10072.10072,0,0,1-.05469-.13037l.41016-1.00537a.09936.09936,0,0,1,.13086-.05518.10072.10072,0,0,1,.05469.13037l-.41016,1.00537A.1002.1002,0,0,1,864.83487,98.59Z"
           />
    <path d="M865.413,104.62074a.09995.09995,0,0,1-.05566-.18311l.75879-.51318a.10123.10123,0,0,1,.13867.02686.1001.1001,0,0,1-.02734.13916l-.75879.51318A.09964.09964,0,0,1,865.413,104.62074Z"
           />
    <path d="M847.34464,89.82777a.09854.09854,0,0,1-.082-.04346.09974.09974,0,0,1,.02539-.13916l.65625-.45117a.10009.10009,0,0,1,.11328.165l-.65625.45117A.10177.10177,0,0,1,847.34464,89.82777Z"
           />
    <path d="M847.2421,84.57484h-.90234a.1001.1001,0,0,1,0-.2002h.90234a.1001.1001,0,0,1,0,.2002Z"
           />
    <path d="M850.27725,83.11781a.10009.10009,0,0,1-.08105-.1582l.51172-.71777a.09973.09973,0,1,1,.16211.11621l-.51172.71777A.09916.09916,0,0,1,850.27725,83.11781Z"
           />
    <path d="M848.8212,87.79652a.10006.10006,0,0,1-.06543-.17578l.86133-.73877a.1.1,0,1,1,.13086.15137l-.86133.73877A.09921.09921,0,0,1,848.8212,87.79652Z"
           />
    <path d="M849.78507,88.59681a.09995.09995,0,0,1-.05566-.18311l.75781-.51318a.09994.09994,0,1,1,.11133.166l-.75781.51318A.09964.09964,0,0,1,849.78507,88.59681Z"
           />
    <path d="M862.64053,92.04408a.10032.10032,0,0,1-.06445-.17676l.5127-.43066a.10016.10016,0,0,1,.12891.15332l-.5127.43066A.10085.10085,0,0,1,862.64053,92.04408Z"
           />
    <path d="M856.20206,91.38734a.10027.10027,0,0,1-.06152-.1792l.71777-.55371a.10021.10021,0,0,1,.123.1582l-.71777.55371A.10083.10083,0,0,1,856.20206,91.38734Z"
           />
    <path d="M863.25577,89.82777a.09854.09854,0,0,1-.082-.04346.09974.09974,0,0,1,.02539-.13916l.65625-.45117a.10009.10009,0,0,1,.11328.165l-.65625.45117A.10177.10177,0,0,1,863.25577,89.82777Z"
           />
    <path d="M860.93936,86.319a.10256.10256,0,0,1-.07227-.03027.10022.10022,0,0,1,.00293-.1416l.63477-.61523a.0998.0998,0,1,1,.13867.14355l-.63477.61523A.09792.09792,0,0,1,860.93936,86.319Z"
           />
    <path d="M862.70206,89.97181a.0999.0999,0,0,1-.05859-.019l-.7998-.57471a.1.1,0,1,1,.11719-.16211l.7998.57471a.10008.10008,0,0,1-.05859.18115Z"
           />
    <path d="M859.70889,90.382a.09572.09572,0,0,1-.0498-.01367l-.7793-.45117a.10044.10044,0,0,1-.03711-.13672.10288.10288,0,0,1,.13672-.03613l.7793.45117a.09976.09976,0,0,1-.0498.18652Z"
           />
    <path d="M860.73428,83.24086a.09951.09951,0,0,1-.09961-.1001V82.13539a.09961.09961,0,1,1,.19922,0v1.00537A.09951.09951,0,0,1,860.73428,83.24086Z"
           />
    <path d="M855.66983,82.66664a.10011.10011,0,0,1-.07812-.1626l.59375-.73877a.1.1,0,1,1,.15625.125l-.59375.73877A.09891.09891,0,0,1,855.66983,82.66664Z"
           />
    <path d="M851.32218,85.088a.09994.09994,0,0,1-.03027-.19531l1.10742-.34912a.09991.09991,0,1,1,.06055.19043l-1.10742.34912A.09351.09351,0,0,1,851.32218,85.088Z"
           />
    <path d="M855.97647,84.00013a.10008.10008,0,0,1-.0752-.1665l.61523-.69678a.09993.09993,0,0,1,.1416-.00928.10129.10129,0,0,1,.00879.1416l-.61523.69678A.10044.10044,0,0,1,855.97647,84.00013Z"
           />
    <path d="M859.68839,86.6681a.09941.09941,0,0,1-.0791-.03906l-.47168-.61572a.09991.09991,0,1,1,.1582-.12207l.47168.61572a.09989.09989,0,0,1-.01855.14063A.09857.09857,0,0,1,859.68839,86.6681Z"
           />
    <path d="M857.71964,89.02748a.10136.10136,0,0,1-.07812-.03711l-.5127-.63574a.10036.10036,0,0,1,.15625-.126l.5127.63574a.10055.10055,0,0,1-.01562.14063A.09735.09735,0,0,1,857.71964,89.02748Z"
           />
    <path d="M855.17764,85.99086a.09916.09916,0,0,1-.03516-.00635l-.94336-.34912a.10013.10013,0,0,1,.07031-.1875l.94336.34912a.10015.10015,0,0,1-.03516.19385Z"
           />
    <path d="M853.537,87.42738h-.82031a.1001.1001,0,0,1,0-.2002h.82031a.1001.1001,0,0,1,0,.2002Z"
           />
    <path d="M855.19815,87.42738a.09777.09777,0,0,1-.06738-.02637.09942.09942,0,0,1-.00586-.1416l.49219-.53369a.09985.09985,0,1,1,.14648.13574l-.49219.53369A.09782.09782,0,0,1,855.19815,87.42738Z"
           />
    <path d="M864.81436,87.79652a.10006.10006,0,0,1-.06543-.17578l.86133-.73877a.1.1,0,1,1,.13086.15137l-.86133.73877A.09921.09921,0,0,1,864.81436,87.79652Z"
           />
    <path d="M865.77823,88.59681a.09995.09995,0,0,1-.05566-.18311l.75879-.51318a.10152.10152,0,0,1,.13867.02686.1001.1001,0,0,1-.02734.13916l-.75879.51318A.09964.09964,0,0,1,865.77823,88.59681Z"
           />
    <path d="M898.59171,249.08314a.09549.09549,0,0,1-.03125-.00537l-1.0459-.34863a.09945.09945,0,0,1-.06348-.12646.10168.10168,0,0,1,.126-.063l1.0459.34863a.09993.09993,0,0,1-.03125.19482Z"
           />
    <path d="M899.00089,249.88343a.10006.10006,0,0,1-.05566-.18311l.7998-.53369a.09994.09994,0,0,1,.11133.166l-.7998.53369A.09814.09814,0,0,1,899.00089,249.88343Z"
           />
    <path d="M905.21378,250.6222a.09791.09791,0,0,1-.06543-.0249l-.63574-.5542a.09968.09968,0,1,1,.13086-.15039l.63574.5542a.09987.09987,0,0,1-.06543.17529Z"
           />
    <path d="M899.5546,252.32533a.09851.09851,0,0,1-.02637-.00391l-1.27051-.34912a.09929.09929,0,0,1-.07031-.12256.10076.10076,0,0,1,.123-.06982l1.27051.34912a.09929.09929,0,0,1,.07031.12256A.101.101,0,0,1,899.5546,252.32533Z"
           />
    <path d="M899.22647,253.70033a.10212.10212,0,0,1-.05957-.01953l-.92187-.67725a.1002.1002,0,1,1,.11914-.16113l.92188.67725a.1008.1008,0,0,1,.02148.13965A.1022.1022,0,0,1,899.22647,253.70033Z"
           />
    <path d="M904.80362,253.18715a.09939.09939,0,0,1-.09082-.05908l-.38965-.86182a.09965.09965,0,1,1,.18164-.082l.38965.86182a.09908.09908,0,0,1-.0498.13232A.10339.10339,0,0,1,904.80362,253.18715Z"
           />
    <path d="M907.69522,252.777a.09729.09729,0,0,1-.082-.04346l-.49219-.71826a.09967.09967,0,0,1,.02539-.13916.09829.09829,0,0,1,.13867.02588l.49219.71826a.09967.09967,0,0,1-.02539.13916A.10177.10177,0,0,1,907.69522,252.777Z"
           />
    <path d="M905.21378,254.72621a.0965.0965,0,0,1-.05762-.01855l-.69727-.49268a.09985.09985,0,1,1,.11523-.16309l.69727.49268a.09986.09986,0,0,1-.05762.18164Z"
           />
    <path d="M903.287,254.54164h-.75879a.1001.1001,0,0,1,0-.2002h.75879a.1001.1001,0,0,1,0,.2002Z"
           />
    <path d="M898.63272,255.465a.09951.09951,0,0,1-.09961-.1001v-.80029a.09961.09961,0,1,1,.19922,0v.80029A.09951.09951,0,0,1,898.63272,255.465Z"
           />
    <path d="M903.2255,256.32679a.09951.09951,0,0,1-.09961-.1001v-.73877a.09961.09961,0,1,1,.19922,0v.73877A.09951.09951,0,0,1,903.2255,256.32679Z"
           />
    <path d="M900.23135,248.36488a.099.099,0,0,1-.0918-.061l-.38965-.92334a.09976.09976,0,1,1,.18359-.07812l.38965.92334a.10009.10009,0,0,1-.05273.13135A.10138.10138,0,0,1,900.23135,248.36488Z"
           />
    <path d="M898.59171,233.4059a.09549.09549,0,0,1-.03125-.00537l-1.0459-.34863a.09975.09975,0,1,1,.0625-.18945l1.0459.34863a.09993.09993,0,0,1-.03125.19482Z"
           />
    <path d="M899.00089,234.20619a.10006.10006,0,0,1-.05566-.18311l.7998-.53369a.09994.09994,0,0,1,.11133.166l-.7998.53369A.09814.09814,0,0,1,899.00089,234.20619Z"
           />
    <path d="M906.83389,249.34974a.0984.0984,0,0,1-.06152-.02148l-.65625-.5127a.09983.09983,0,1,1,.123-.15723l.65625.5127a.09921.09921,0,0,1,.01758.14014A.1003.1003,0,0,1,906.83389,249.34974Z"
           />
    <path d="M897.68936,246.84633h-.7793a.1001.1001,0,0,1,0-.2002h.7793a.1001.1001,0,0,1,0,.2002Z"
           />
    <path d="M909.623,245.02015a.09916.09916,0,0,1-.09277-.06348l-.36914-.94385a.09959.09959,0,0,1,.05664-.12988.10078.10078,0,0,1,.12891.05664l.36914.94385a.09959.09959,0,0,1-.05664.12988A.10518.10518,0,0,1,909.623,245.02015Z"
           />
    <path d="M908.74112,239.58265a.1.1,0,0,1-.05371-.18457l.71777-.45166a.1001.1001,0,1,1,.10742.16895l-.71777.45166A.09806.09806,0,0,1,908.74112,239.58265Z"
           />
    <path d="M908.454,234.37025h-.96387a.1001.1001,0,0,1,0-.2002h.96387a.1001.1001,0,0,1,0,.2002Z"
           />
    <path d="M903.41007,235.82728a.09549.09549,0,0,1-.03125-.00537l-1.10742-.36914a.09945.09945,0,0,1-.06348-.12646.10207.10207,0,0,1,.126-.063l1.10742.36914a.09993.09993,0,0,1-.03125.19482Z"
           />
    <path d="M896.35635,236.25843a.09993.09993,0,0,1-.0332-.19434l1.0459-.36963a.09993.09993,0,0,1,.12793.061.10125.10125,0,0,1-.06152.12744l-1.0459.36963A.0992.0992,0,0,1,896.35635,236.25843Z"
           />
    <path d="M897.48428,239.09a.1.1,0,0,1-.08105-.0415l-.75879-1.04639a.10009.10009,0,0,1,.02246-.13965.10144.10144,0,0,1,.13965.02246l.75879,1.04639a.10012.10012,0,0,1-.08105.15869Z"
           />
    <path d="M901.58487,237.63295a.09814.09814,0,0,1-.05566-.01709l-.67676-.45117a.09994.09994,0,1,1,.11133-.166l.67676.45117a.10006.10006,0,0,1-.05566.18311Z"
           />
    <path d="M908.14639,236.05287a.10172.10172,0,0,1-.0791-.03857l-.59473-.75928a.10021.10021,0,0,1,.1582-.123l.59473.75928a.10014.10014,0,0,1-.01758.14014A.0984.0984,0,0,1,908.14639,236.05287Z"
           />
    <path d="M903.30753,238.18715a.09913.09913,0,0,1-.07617-.03564l-.5332-.63623a.09993.09993,0,0,1,.01172-.14111.10148.10148,0,0,1,.14063.01221l.5332.63623a.09982.09982,0,0,1-.07617.16455Z"
           />
    <path d="M908.86417,241.92152h-.90234a.1001.1001,0,0,1,0-.2002h.90234a.1001.1001,0,0,1,0,.2002Z"
           />
    <path d="M909.11026,245.47181h-.88184a.1001.1001,0,0,1,0-.2002h.88184a.1001.1001,0,0,1,0,.2002Z"
           />
    <path d="M905.93155,246.57972h-.86133a.1001.1001,0,0,1,0-.2002h.86133a.1001.1001,0,0,1,0,.2002Z"
           />
    <path d="M905.62393,242.25013a.09987.09987,0,0,1-.04492-.189l1.12793-.57471a.09958.09958,0,1,1,.08984.17773l-1.12793.57471A.09026.09026,0,0,1,905.62393,242.25013Z"
           />
    <path d="M903.287,238.86439h-.75879a.1001.1001,0,0,1,0-.2002h.75879a.1001.1001,0,0,1,0,.2002Z"
           />
    <path d="M898.63272,239.78773a.09951.09951,0,0,1-.09961-.1001v-.80029a.09961.09961,0,1,1,.19922,0v.80029A.09951.09951,0,0,1,898.63272,239.78773Z"
           />
    <path d="M898.46866,241.942a.10014.10014,0,0,1-.07617-.165l.75781-.88232a.1001.1001,0,0,1,.15234.12988l-.75781.88232A.1001.1001,0,0,1,898.46866,241.942Z"
           />
    <path d="M903.2255,240.64955a.09951.09951,0,0,1-.09961-.1001v-.73877a.09961.09961,0,1,1,.19922,0v.73877A.09951.09951,0,0,1,903.2255,240.64955Z"
           />
    <path d="M905.39835,244.01478a.09941.09941,0,0,1-.0791-.03906l-.47168-.61572a.09991.09991,0,1,1,.1582-.12207l.47168.61572a.09989.09989,0,0,1-.01855.14063A.09857.09857,0,0,1,905.39835,244.01478Z"
           />
    <path d="M903.43057,246.37465a.09992.09992,0,0,1-.07812-.03711l-.5127-.63672a.1002.1002,0,0,1,.15625-.12549l.5127.63623a.1005.1005,0,0,1-.01562.14063A.09735.09735,0,0,1,903.43057,246.37465Z"
           />
    <path d="M900.8876,243.33754a.09916.09916,0,0,1-.03516-.00635l-.94238-.34863a.09908.09908,0,0,1-.05957-.12842.09776.09776,0,0,1,.12891-.05908l.94238.34863a.09995.09995,0,0,1-.03418.19385Z"
           />
    <path d="M899.247,244.77406h-.81934a.1001.1001,0,0,1,0-.2002h.81934a.1001.1001,0,0,1,0,.2002Z"
           />
    <path d="M900.90811,244.77406a.09777.09777,0,0,1-.06738-.02637.09942.09942,0,0,1-.00586-.1416l.49219-.53369a.09985.09985,0,1,1,.14648.13574l-.49219.53369A.09782.09782,0,0,1,900.90811,244.77406Z"
           />
    <path d="M897.66885,232.56459a.10014.10014,0,0,1-.09082-.14209l.36914-.80029a.09852.09852,0,0,1,.13281-.04883.1.1,0,0,1,.04883.13281l-.36914.80029A.09928.09928,0,0,1,897.66885,232.56459Z"
           />
    <path d="M895.98721,224.62318a.10523.10523,0,0,1-.05859-.01855.1.1,0,0,1-.02246-.13965l.5127-.71777a.09973.09973,0,1,1,.16211.11621l-.5127.71777A.09916.09916,0,0,1,895.98721,224.62318Z"
           />
    <path d="M896.56143,232.68763a.09912.09912,0,0,1-.07031-.0293l-.69727-.69775a.1002.1002,0,0,1,0-.1416.099.099,0,0,1,.14063,0l.69727.69775a.1002.1002,0,0,1,0,.1416A.09912.09912,0,0,1,896.56143,232.68763Z"
           />
    <path d="M906.83389,233.50843a.0984.0984,0,0,1-.06152-.02148l-.65625-.5127a.09983.09983,0,1,1,.123-.15723l.65625.5127a.09921.09921,0,0,1,.01758.14014A.1003.1003,0,0,1,906.83389,233.50843Z"
           />
    <path d="M897.68936,231.005h-.7793a.1001.1001,0,0,1,0-.2002h.7793a.1001.1001,0,0,1,0,.2002Z"
           />
    <path d="M909.623,229.17884a.09916.09916,0,0,1-.09277-.06348l-.36914-.94385a.09974.09974,0,1,1,.18555-.07324l.36914.94385a.09959.09959,0,0,1-.05664.12988A.10517.10517,0,0,1,909.623,229.17884Z"
           />
    <path d="M908.74112,223.74086a.101.101,0,0,1-.085-.04687.09993.09993,0,0,1,.03223-.1377l.71777-.45117a.09958.09958,0,1,1,.10547.16895l-.71777.45117A.09267.09267,0,0,1,908.74112,223.74086Z"
           />
    <path d="M897.48428,223.24867a.1.1,0,0,1-.08105-.0415l-.75879-1.04639a.1.1,0,1,1,.16211-.11719l.75879,1.04639a.10012.10012,0,0,1-.08105.15869Z"
           />
    <path d="M901.58487,221.79164a.09814.09814,0,0,1-.05566-.01709l-.67676-.45166a.09994.09994,0,0,1,.11133-.166l.67676.45166a.10006.10006,0,0,1-.05566.18311Z"
           />
    <path d="M905.21378,223.20765a.0965.0965,0,0,1-.05762-.01855l-.69727-.49268a.10057.10057,0,0,1-.02441-.13916.09868.09868,0,0,1,.13965-.02393l.69727.49268a.09986.09986,0,0,1-.05762.18164Z"
           />
    <path d="M906.64932,227.82435a.10107.10107,0,0,1-.07227-.03076.09963.09963,0,0,1,.00293-.14111l.63574-.61523a.09852.09852,0,0,1,.1416.00244.09963.09963,0,0,1-.00293.14111l-.63574.61523A.09792.09792,0,0,1,906.64932,227.82435Z"
           />
    <path d="M908.413,231.47718a.0999.0999,0,0,1-.05859-.019l-.7998-.57471a.1.1,0,1,1,.11719-.16211l.7998.57471a.10008.10008,0,0,1-.05859.18115Z"
           />
    <path d="M905.41885,231.88734a.09572.09572,0,0,1-.0498-.01367l-.7793-.45117a.09975.09975,0,1,1,.09961-.17285l.7793.45117a.09976.09976,0,0,1-.0498.18652Z"
           />
    <path d="M906.44425,224.74672a.09951.09951,0,0,1-.09961-.1001v-1.00586a.09961.09961,0,1,1,.19922,0v1.00586A.09951.09951,0,0,1,906.44425,224.74672Z"
           />
    <path d="M899.75968,224.54115a.098.098,0,0,1-.07715-.03711l-.5332-.65625a.0996.0996,0,1,1,.1543-.126l.5332.65625a.09956.09956,0,0,1-.07715.16309Z"
           />
    <path d="M898.63272,223.94642a.09951.09951,0,0,1-.09961-.1001V223.046a.09961.09961,0,1,1,.19922,0v.80029A.09951.09951,0,0,1,898.63272,223.94642Z"
           />
    <path d="M901.68741,225.5055a.10008.10008,0,0,1-.0752-.1665l.61523-.69678a.10024.10024,0,0,1,.1416-.00928.10129.10129,0,0,1,.00879.1416l-.61523.69678A.10044.10044,0,0,1,901.68741,225.5055Z"
           />
    <path d="M904.31241,225.87513a.09964.09964,0,0,1-.05566-.01709l-.69727-.47217a.09994.09994,0,1,1,.11133-.166l.69727.47217a.09995.09995,0,0,1-.05566.18311Z"
           />
    <path d="M904.7421,229.91761a.09951.09951,0,0,1-.09961-.1001v-.88232a.09961.09961,0,1,1,.19922,0v.88232A.09951.09951,0,0,1,904.7421,229.91761Z"
           />
    <path d="M903.287,228.7682a.09854.09854,0,0,1-.082-.04346l-.45117-.65625a.09969.09969,0,1,1,.16406-.11328l.45117.65625a.09974.09974,0,0,1-.02539.13916A.10177.10177,0,0,1,903.287,228.7682Z"
           />
    <path d="M898.77628,228.09144a.10137.10137,0,0,1-.08887-.05322l-.36914-.69775a.10047.10047,0,0,1,.17773-.09375l.36914.69775a.10049.10049,0,0,1-.08887.147Z"
           />
    <path d="M899.73917,230.28675a.10007.10007,0,0,1-.085-.15234l.38965-.63623a.09974.09974,0,1,1,.16992.10449l-.38965.63623A.09959.09959,0,0,1,899.73917,230.28675Z"
           />
    <path d="M902.01553,229.89711h-.73828a.1001.1001,0,0,1,0-.2002h.73828a.1001.1001,0,0,1,0,.2002Z"
           />
    <path d="M910.54483,224.254a.10543.10543,0,0,1-.03809-.00732.10072.10072,0,0,1-.05469-.13037l.41016-1.00537a.09936.09936,0,0,1,.13086-.05518.10072.10072,0,0,1,.05469.13037l-.41016,1.00537A.1002.1002,0,0,1,910.54483,224.254Z"
           />
    <path d="M911.52335,220.46547l-.10449-.14307a9.23792,9.23792,0,0,1-1.9834-5.625c.00781-.5166.75488-51.877.22559-68.46973-.541-16.99072-14.84668-19.40283-14.94141-19.415l-24.57617-6.38623a4.00473,4.00473,0,0,1-2.47363-2.63629c-.0058-2.37482-.01086-5.39417-.0127-5.92865a6.82631,6.82631,0,0,0-1.24841-3.40265.9533.9533,0,0,0-.00311-.27545l1.20685-22.54883a.95088.95088,0,0,1,.33069-.841c.64777-.40912,1.03522-.72736,1.03522-1.13647,0-1.54565-5.4892-2.79578-12.25134-2.79578s-12.25134,1.25012-12.25134,2.79578c0,.40912.40912.78418,1.09106,1.15918a.73186.73186,0,0,1,.31818.61981l1.098,22.61505a7.67107,7.67107,0,0,0-.86389,3.71368c-.00781,2.32764-.07812,22.76318.00293,23.55859l.02148.24658a6.6458,6.6458,0,0,0,1.04688,3.19873,6.81062,6.81062,0,0,0,.76855,1.03418c.68066.79443,1.26953,1.48047,1.09961,4.90723.02539,2.24707.02441,12.36572.02344,23.07813-.002,13.64209-.00391,27.749.04785,28.81543.07043,1.46722,1.89819,17.295,2.77472,24.83691.29169,1.60742.03162,5.01666-.87439,6.01538a3.152,3.152,0,0,0-2.161-.98889c-1.39075,0-2.64868,1.12512-3.43634,2.81793a.99027.99027,0,0,0-.62189-.25238,1.339,1.339,0,0,0-1.048.73718,1.21111,1.21111,0,0,0-.275-.0448c-1.17346,0-2.12476,1.567-2.12476,3.5s.95129,3.5,2.12476,3.5a1.02865,1.02865,0,0,0,.13538-.01947c.32617.61426.73682.99854,1.18762.99854a1.05627,1.05627,0,0,0,.68359-.30206c.791,1.62,2.01984,2.68762,3.37463,2.68762a3.07428,3.07428,0,0,0,2.01984-.85645,4.0712,4.0712,0,0,1,1.21442,2.23267c.04547.79553-.28082,1.02289-.28082,1.02289a48.24615,48.24615,0,0,1,1.082,5.50061c0,.94415.013,11.99335.013,11.99335a1.13226,1.13226,0,0,0,.21863.45374,1.18471,1.18471,0,0,0,.98584.46716c1.01257,0,2.61774-1.11133,3.26093-1.589.87512-.64984,2.36389-1.88666,2.508-2.86725a1.21071,1.21071,0,0,0-.01086-.26636s.02448-7.10065.02448-8.19165a45.34023,45.34023,0,0,1,1.16156-5.50061s-.1579-.19324-.12384-1.02289a4.586,4.586,0,0,1,1.505-2.59064,8.55078,8.55078,0,0,0,5.61688,4.62122c.68292,2.83838,1.61694,4.26508,2.7146,4.26508,2.02295,0,3.67084-5.716,3.67084-14.001s-1.64789-14.001-3.67084-14.001c-1.01013,0-1.91174,1.19891-2.57928,3.63318a8.02676,8.02676,0,0,0-4.60388,2.89709c-1.97766-.06421-3.62488-.95526-3.68066-1.98883.077-.4715.23163-1.36212.44086-2.54932,1.20911-6.862,4.2171-23.52222,4.29065-25.05414.05078-1.062.0459-49.63623.07129-51.92383-.16895-3.39648.41895-4.082,1.10059-4.87646a6.81106,6.81106,0,0,0,.76758-1.03418,6.65691,6.65691,0,0,0,1.04688-3.19873l.02148-.24609c.01111-.109.01941-.58838.02533-1.33679a2.001,2.001,0,0,1,.57721-.63831c1.41992-.94727,3.87891-.03027,3.95508-.00342.001,0,6.14941,1.63037,16.375,4.397,9.67188,2.6167,8.65039,11.49121,8.59766,11.93652.17676,17.748.52734,64.23486.0293,66.18408a8.30569,8.30569,0,0,1-2.52734,3.84473l-.19922.16162,2.17969,39.09766.13574.13525a2.51623,2.51623,0,0,0,1.82422.58691c2.9668,0,7.90625-2.58008,9.67188-4.1875,1.69824-1.54639,1.64941-2.83691,1.63867-2.91553Zm-68.32,15.13715a3.09885,3.09885,0,0,1-.84021-2.37762,2.87531,2.87531,0,0,1,.94879-2.45447,8.43641,8.43641,0,0,0-.38757,2.60352A8.76329,8.76329,0,0,0,843.20334,235.60261Zm1.83441.94452-.13611.09033a.297.297,0,0,1-.11584.07275,5.29349,5.29349,0,0,1-.851-3.33594,5.10083,5.10083,0,0,1,.8573-3.2998l.24072.24969a10.05823,10.05823,0,0,0,.08643,6.18488Zm11.689-154.686a41.47231,41.47231,0,0,1,7.73053.65155,25.69926,25.69926,0,0,1-8.074.97943,27.39679,27.39679,0,0,1-7.793-.897A40.3168,40.3168,0,0,1,856.72678,81.86116ZM846.049,83.94026a3.26842,3.26842,0,0,1-.46582-.29883,4.84079,4.84079,0,0,1,1.47882-.65613c1.03247.88727,4.80835,1.54852,9.32135,1.54852,4.78284,0,8.72168-.73944,9.46875-1.70374a6.17306,6.17306,0,0,1,2.01233.806c-.0918.07178-.2334.17236-.45508.3125a1.79636,1.79636,0,0,0-.7804,1.28394,47.17117,47.17117,0,0,1-19.76147-.00745A1.62888,1.62888,0,0,0,846.049,83.94026Zm.83655,1.48572a47.20307,47.20307,0,0,0,19.73425.01276c-.00269.07037-.01343.14478-.00928.21051l-1.183,22.09338c-1.40521-.5672-4.7486-.96661-8.6554-.96661-4.06616,0-7.52295.38-8.81714.98431Zm18.51947,22.737-.01141.2132c-1.14215.79993-4.74512,1.52545-8.67664,1.52594-3.94617.00049-7.58923-.76361-8.73-1.577l-.00726-.15112c.73181-.35931,3.63159-.99792,8.79291-.99792C861.6171,107.176,864.46677,107.73951,865.40506,108.163ZM848.86936,227.46705a2.11232,2.11232,0,0,1,1.35352.60919c-.05426.02881-.09412.0661-.152.09265a4.44534,4.44534,0,0,0-1.49493,1.19867l-2.157.17346C847.06546,228.25666,847.99649,227.46705,848.86936,227.46705Zm6.03516,2.40625v7.15948l-5.482-.44629a4.582,4.582,0,0,1-1.26508-3.21271,5.2139,5.2139,0,0,1,.94586-3.03723Zm-8.7851,6.44427a8.70119,8.70119,0,0,1-.53131-3.03949,8.842,8.842,0,0,1,.41052-2.6936l1.881-.15021a6.28761,6.28761,0,0,0-.72211,2.93976,5.54084,5.54084,0,0,0,.90271,3.10156Zm2.74994,2.772a2.95525,2.95525,0,0,1-2.25421-1.71777l2.34583.19171a9.12656,9.12656,0,0,0,1.19647.97845A2.0652,2.0652,0,0,1,848.86936,239.08961Zm7.917,19.42236a6.36186,6.36186,0,0,1-2.66406,1.3916.2171.2171,0,0,1-.18359-.06348c-.0459-.06641-.05762-.748,2.0918-2.34424a6.36472,6.36472,0,0,1,2.66406-1.39111.21175.21175,0,0,1,.18359.06445.18123.18123,0,0,1,.02344.1333C858.86447,256.55006,858.37619,257.3318,856.78635,258.512Zm3.15723-17.09375a4.15413,4.15413,0,0,0,.07715,1.11182,37.66029,37.66029,0,0,0-1.11621,5.45947v7.1427a1.26956,1.26956,0,0,0-.21039-.02759c-1.01251,0-2.6167,1.11084-3.25995,1.58844a12.62722,12.62722,0,0,0-1.54926,1.32721l.01959-10.03076a38.6319,38.6319,0,0,0-1.00781-5.314,2.62331,2.62331,0,0,0,.20508-1.26611c-.11523-1.8125-2.043-3.42773-2.26172-3.606-.04675-.03192-.08521-.06494-.13062-.097l10.63739.86951A4.9536,4.9536,0,0,0,859.94357,241.41822Zm-4.03906-4.30255v-7.32361l1-.07867v7.48254Zm2,.16309v-7.64655l3.98-.33289a12.102,12.102,0,0,0,.00055,8.31934Zm5.608,1.47424.51544.04211a1.96624,1.96624,0,0,1,.75378-.35681,9.62387,9.62387,0,0,0,3.00421,3.7403c.01318.07037.02643.14056.03986.20959A7.63589,7.63589,0,0,1,863.51254,238.753Zm2.29059-.33966a1.96788,1.96788,0,0,1,1.64563,1.6319c.03229.2475.06683.48383.1015.71948A8.57928,8.57928,0,0,1,865.80313,238.41334Zm2.66827-11.19727c.75488-5.84961,2.023-6.37146,2.31891-6.45886.90332.25781,2.65594,4.29382,2.65594,13.0033,0,8.65381-1.72388,12.681-2.66528,12.99695-.37988-.15381-1.56152-.868-2.34082-6.84167a3.02519,3.02519,0,0,0-3.10254-2.56494l-.00067.00006a11.16154,11.16154,0,0,1-.69525-3.89545,10.85082,10.85082,0,0,1,.65588-3.7207,2.74812,2.74812,0,0,0,3.17383-2.51868Zm-2.7655,1.54919a8.97531,8.97531,0,0,1,1.92462-2.63287c-.04785.30823-.09357.62579-.13629.95685A1.84939,1.84939,0,0,1,865.7059,228.76527Zm2.22546-4.2735c-.01123.05237-.02258.10437-.03369.15759a9.599,9.599,0,0,0-3.1322,3.86011,3.18305,3.18305,0,0,1-.57843-.3974l-.67993.05469A7.60451,7.60451,0,0,1,867.93137,224.49177Zm-4.11121,4.64569a3.70951,3.70951,0,0,0,.552.314,12.09008,12.09008,0,0,0,.00873,8.0368,2.975,2.975,0,0,0-.69788.28394l-.67664-.0578a11.06069,11.06069,0,0,1-.00415-8.50854Zm34.36237-12.93323c.63184-2.47363.02832-63.83008-.002-66.37109.0127-.10107,1.19531-10.11328-9.332-12.96143-10.17871-2.75439-16.31934-4.38281-16.33008-4.38281-.124-.04736-2.97461-1.28695-4.82227-.0555a2.75811,2.75811,0,0,0-.98545,1.28,15.59041,15.59041,0,0,0-.0751,1.86539,5.63523,5.63523,0,0,1-.91309,2.78027,5.83274,5.83274,0,0,1-.66406.88721c-.78613.9165-1.52832,1.78271-1.33984,5.54639-.02637,2.26318-.02148,50.81885-.07031,51.85645-.0722,1.493-4.74384,27.59875-4.74384,27.59875,0,1.51733,1.69818,2.73328,3.99786,2.99445a10.51278,10.51278,0,0,0-.57666,1.01953L850.212,229.236a2.46111,2.46111,0,0,1,.274-.15759c2.48926-1.14014,3.00183-4.56165,2.29773-8.73975-.16565-1.32709-.19623-1.69128-.30511-2.632h1.33765v-1h-1.45325c-.10937-.94653-.22321-1.9328-.33905-2.93994h1.32941v-1H851.909c-.10535-.91675-.21143-1.84344-.31689-2.76611h2.36975v-1h-2.48389c-.09894-.868-.19653-1.72662-.29126-2.56348h1.3855v-1h-1.49841c-.10712-.94989-.20953-1.86279-.30469-2.71875h1.141v-1H850.6583c-.09784-.887-.18494-1.68671-.25989-2.38916h2.28119v-1h-2.38666c-.07312-.706-.12439-1.23535-.14941-1.54932h1.86615v-1H850.1138c-.00317-.2995-.006-.66968-.00861-1.11475h1.90448v-1h-1.90936c-.00122-.288-.00238-.58844-.00342-.91211h2.89716v-1h-2.9q-.00137-.50079-.0025-1.04248h1.59979v-1h-1.60168c-.00061-.362-.00128-.73193-.00183-1.11475h1.60352v-1h-1.6048q-.00055-.4487-.001-.91211h2.58917v-1h-2.59015q-.00037-.51334-.00079-1.042h1.79016v-1h-1.79077q-.00027-.55133-.00055-1.11523h1.79132v-1h-1.79181q-.00018-.45273-.00024-.91211h2.77643v-1h-2.77667q-.00009-.51819-.00024-1.042h1.79254v-1h-1.79266q0-.55518-.00006-1.11523h1.79272v-1h-1.79272q0-.45493,0-.91162h2.7771v-1h-2.777q0-.52094.00006-1.04248h1.7926v-1h-1.79248q0-.55792.00012-1.11475h1.79236v-1H850.0817q0-.45731.00012-.91211h2.77649v-1h-2.77637q.00009-.52286.00012-1.04248h1.79187v-1h-1.79181q.00009-.56.00006-1.11475h1.79175v-1h-1.79169q0-.4584.00006-.91211h2.776v-1h-2.776q0-.52487-.00006-1.04248h1.79169v-1h-1.79175l-.00018-1.11475h1.79193v-1h-1.79218l-.00018-.91211h2.77673v-1h-2.77716c-.00018-.35272-.00031-.70135-.00049-1.04248h1.79327v-1h-1.79382c-.00024-.38287-.00055-.75006-.00085-1.11475h1.79468v-1h-1.79565c-.00037-.30963-.00067-.61914-.001-.91211h2.78107v-1h-2.78265c-.00372-2.19531-.0094-3.80487-.01813-4.53906.18945-3.79443-.55371-4.66064-1.33984-5.57715a5.78974,5.78974,0,0,1-.66406-.8877,5.63247,5.63247,0,0,1-.91309-2.77979l-.02441-.26074c-.05664-.60645-.0293-14.35937.00293-23.457a9.0278,9.0278,0,0,1,.3197-2.3587c1.68066,1.2558,7.49493,1.77533,9.27435,1.77533h.00391s6.88708-.25665,9.05365-1.82019a4.734,4.734,0,0,1,.88733,2.73669c.00488,1.38739.00958,2.87909.0141,4.41064a5.90064,5.90064,0,0,0,.39441,2.4328,5.24713,5.24713,0,0,0,2.75372,2.42645l24.69629,6.4209c.55664.0874,13.63086,2.32471,14.14453,18.46924.5293,16.56934-.21777,67.90625-.22363,68.38965a9.781,9.781,0,0,0,1.73914,5.62476,42.10691,42.10691,0,0,1-14.15924-.36A8.70337,8.70337,0,0,0,898.18253,216.20424Zm10.75684,36.48047a3.2439,3.2439,0,0,1-1.31445,2.17188c-2.214,2.016-8.26123,4.65948-9.90887,3.76953.341-1.5191,1.8916-3.20331,4.24481-4.564,2.54352-1.47125,5.34357-2.199,7.00269-1.86914Zm-7.47949.51172a11.81332,11.81332,0,0,0-3.92761,3.4209l-1.996-35.80225a39.47768,39.47768,0,0,0,8.59454.88965,38.59721,38.59721,0,0,0,6.354-.46918l-1.47131,29.9411C906.83975,250.82759,903.70261,251.89936,901.45987,253.19642Z"
           />
</g>
</svg>