<svg id="图层_39" data-name="图层 39" xmlns="http://www.w3.org/2000/svg" viewBox="0 0 205.05 55.35" width="210" height="60">

    <title>玻璃仪器</title><g stroke="#000000" fill="#000000" stroke-width="0.5324" transform="translate(-22.75 -600.66)">
    <path d="M54.92,638a.88.88,0,0,1-.61-.22.68.68,0,0,1-.19-.69,1.48,1.48,0,0,1,1.21-.9c.48-.11,1.3-.27,2.26-.45,2.3-.43,5.33-1.09,5.93-1.51.22-.16.23-.24.23-.24a2,2,0,0,0-1.13-.3l0-.4c.41,0,1.36.13,1.49.59s-.27.59-.38.67c-.62.44-2.88,1-6.09,1.58-1,.18-1.78.34-2.25.44s-.85.41-.91.61a.28.28,0,0,0,.08.29.73.73,0,0,0,.72,0l.13.38A1.57,1.57,0,0,1,54.92,638Z"
         />
    <path d="M54.78,639.26a.86.86,0,0,1-.6-.21.67.67,0,0,1-.19-.67,1.43,1.43,0,0,1,1.17-.87c.46-.11,1.27-.26,2.2-.43,2.22-.42,5.58-1.05,6.16-1.46.21-.15.22-.23.22-.23a2,2,0,0,0-1.09-.28l0-.4c.39,0,1.32.13,1.45.57.06.22-.06.44-.37.66-.6.42-3.21.94-6.31,1.53-.93.17-1.73.33-2.18.43s-.82.39-.87.59a.26.26,0,0,0,.07.27.7.7,0,0,0,.69,0l.13.38A1.52,1.52,0,0,1,54.78,639.26Z"
         />
    <path d="M54.78,635.13a.86.86,0,0,1-.6-.21.67.67,0,0,1-.19-.67,1.43,1.43,0,0,1,1.17-.87c.46-.11,1.27-.26,2.2-.43,2.22-.42,5.58-1.05,6.16-1.46.21-.15.22-.23.22-.23a2,2,0,0,0-1.09-.28l0-.4c.39,0,1.32.13,1.45.57.06.22-.06.44-.37.66-.6.42-3.21.94-6.31,1.53-.93.17-1.73.33-2.18.43s-.82.39-.87.59a.26.26,0,0,0,.07.27.7.7,0,0,0,.69,0l.13.38A1.52,1.52,0,0,1,54.78,635.13Z"
         />
    <path d="M54.8,636.52a.88.88,0,0,1-.61-.22.68.68,0,0,1-.19-.69,1.48,1.48,0,0,1,1.21-.9c.48-.11,1.3-.27,2.27-.45,2.3-.43,5.44-1.09,6-1.51.22-.16.23-.24.23-.24a2,2,0,0,0-1.13-.3l0-.4c.4,0,1.36.13,1.49.59s-.27.59-.38.67c-.62.44-3,1-6.2,1.58-1,.18-1.78.34-2.25.44s-.85.41-.91.61a.28.28,0,0,0,.08.29.73.73,0,0,0,.72,0l.13.38A1.57,1.57,0,0,1,54.8,636.52Z"
         />
    <path d="M54.78,632.24a.86.86,0,0,1-.6-.21.67.67,0,0,1-.19-.67,1.43,1.43,0,0,1,1.17-.88c.46-.11,1.26-.26,2.19-.43,2.22-.42,5.59-1.05,6.16-1.46.21-.15.22-.23.22-.23a2,2,0,0,0-1.09-.28l0-.4c.39,0,1.32.13,1.45.57.06.22-.06.44-.37.66-.6.43-3.22.94-6.32,1.53-.92.17-1.72.32-2.17.43s-.82.39-.87.59a.26.26,0,0,0,.07.27.7.7,0,0,0,.69,0l.13.38A1.52,1.52,0,0,1,54.78,632.24Z"
         />
    <path d="M54.78,630.9a.86.86,0,0,1-.6-.21A.67.67,0,0,1,54,630a1.43,1.43,0,0,1,1.17-.87c.46-.11,1.26-.26,2.19-.43,2.22-.42,5.59-1.05,6.16-1.46.21-.15.22-.23.22-.23a2,2,0,0,0-1.09-.28l0-.4c.39,0,1.32.13,1.45.57.06.22-.06.44-.37.66-.6.43-3.22.94-6.32,1.53-.92.17-1.72.32-2.17.43s-.82.39-.87.59a.26.26,0,0,0,.07.27.7.7,0,0,0,.69,0l.13.38A1.52,1.52,0,0,1,54.78,630.9Z"
         />
    <path d="M54.78,629.55a.86.86,0,0,1-.6-.21.67.67,0,0,1-.19-.67,1.43,1.43,0,0,1,1.17-.87l2.21-.47c2.23-.47,5.24-1.1,6.08-1.4a6.22,6.22,0,0,0-.74,0v-.4c1.29,0,1.34.24,1.36.35s-.24.37-.36.42c-.7.3-3.78.95-6.26,1.47l-2.2.47c-.56.13-.82.39-.87.59a.26.26,0,0,0,.07.27.7.7,0,0,0,.69,0l.13.38A1.52,1.52,0,0,1,54.78,629.55Z"
         />
    <path d="M54.78,633.77a.86.86,0,0,1-.6-.21.67.67,0,0,1-.19-.67,1.43,1.43,0,0,1,1.17-.87c.46-.11,1.26-.26,2.19-.43,2.22-.42,5.59-1.05,6.16-1.46.21-.15.22-.23.22-.23a2,2,0,0,0-1.09-.28l0-.4c.39,0,1.32.13,1.45.57.06.22-.06.44-.37.66-.6.43-3.22.94-6.32,1.53-.92.17-1.72.32-2.17.43s-.82.39-.87.59a.26.26,0,0,0,.07.27.7.7,0,0,0,.69,0l.13.38A1.52,1.52,0,0,1,54.78,633.77Z"
         />
    <path d="M44.06,622.73c-.11-.48-.27-1.3-.45-2.27-.43-2.3-1.09-5.78-1.51-6.37-.16-.22-.24-.23-.24-.23a2,2,0,0,0-.3,1.13l-.4,0c0-.41.13-1.36.59-1.49s.59.27.67.38c.44.62,1,3.32,1.58,6.53.18,1,.34,1.78.44,2.25Z"
         />
    <path d="M45.72,622c-.08-.42-.18-.94-.29-1.49-.43-2.3-1.09-5.78-1.51-6.37-.16-.22-.24-.23-.24-.23a2,2,0,0,0-.3,1.13l-.4,0c0-.41.13-1.36.59-1.49s.59.27.67.38c.44.62,1,3.32,1.58,6.53l.2,1.06C46.12,621.95,45.78,622.27,45.72,622Z"
         />
    <path d="M41.72,624l-.19,0a1.48,1.48,0,0,1-.9-1.21c-.11-.47-.27-1.3-.45-2.26-.43-2.3-1.09-5.78-1.51-6.37-.16-.22-.24-.23-.24-.23a2,2,0,0,0-.3,1.13l-.4,0c0-.41.13-1.36.59-1.49s.59.27.67.38c.44.62,1,3.32,1.58,6.53.18,1,.34,1.78.44,2.25s.41.85.61.91a.28.28,0,0,0,.29-.08.73.73,0,0,0,0-.72l.38-.13a1.09,1.09,0,0,1-.13,1.13A.67.67,0,0,1,41.72,624Z"
         />
    <path d="M43.43,624l-.19,0a1.48,1.48,0,0,1-.9-1.21c-.11-.48-.27-1.3-.45-2.27-.43-2.3-1.09-5.78-1.51-6.37-.16-.22-.24-.23-.24-.23a2,2,0,0,0-.3,1.13l-.4,0c0-.41.13-1.36.59-1.49s.59.27.67.38c.44.62,1,3.32,1.58,6.53.18,1,.34,1.78.44,2.25s.41.85.61.91a.28.28,0,0,0,.29-.08.73.73,0,0,0,0-.72l.38-.13a1.09,1.09,0,0,1-.13,1.13A.67.67,0,0,1,43.43,624Z"
         />
    <path d="M38.15,624l-.19,0a1.48,1.48,0,0,1-.9-1.21c-.11-.48-.27-1.3-.45-2.27-.43-2.3-1.09-5.78-1.51-6.37-.16-.22-.24-.23-.24-.23a2,2,0,0,0-.3,1.13l-.4,0c0-.41.13-1.36.59-1.49s.59.27.67.38c.44.62,1,3.32,1.58,6.53.18,1,.34,1.78.44,2.25s.41.85.61.91a.28.28,0,0,0,.29-.08.73.73,0,0,0,0-.72l.38-.13a1.09,1.09,0,0,1-.13,1.13A.67.67,0,0,1,38.15,624Z"
         />
    <path d="M36.48,624l-.19,0a1.48,1.48,0,0,1-.9-1.21c-.11-.48-.29-1.32-.49-2.3l-.34-1.64.39-.08.34,1.64c.2,1,.38,1.81.49,2.29s.41.85.61.91a.28.28,0,0,0,.29-.08.73.73,0,0,0,0-.72l.38-.13a1.09,1.09,0,0,1-.13,1.13A.67.67,0,0,1,36.48,624Z"
         />
    <path d="M40,624l-.19,0a1.48,1.48,0,0,1-.9-1.21c-.11-.47-.27-1.3-.45-2.26-.43-2.3-1.09-5.78-1.51-6.37-.16-.22-.24-.23-.24-.23a2,2,0,0,0-.3,1.13l-.4,0c0-.4.13-1.36.59-1.49s.59.27.67.38c.44.62,1,3.32,1.58,6.53.18,1,.34,1.78.44,2.25s.41.85.61.91a.28.28,0,0,0,.29-.08.73.73,0,0,0,0-.72l.38-.13a1.09,1.09,0,0,1-.13,1.13A.67.67,0,0,1,40,624Z"
         />
    <path class="cls-1" d="M73,622.86"/>
    <path d="M227.15,632.42l-.55-.42-18.19,1.91L194,628.49l-.64.29-.06.16-1.73-.71.14-1.26,2.26.24v.2l.44.53,14.3,1.72,18.16-.45.49-.49.08-4.86-.4-.5-17.77-3.63L195,617.93l-.56.47v.13L189.8,618l-.34.08-4.79,3.2-14.9-2.08,0-2.18,24.7-3.1v.34l.56.5,11.73-1.43,18.46,5.18.62-.35,1.06-4-.28-.58-19.28-8.85-.25,0L195,605.75l-.45.5v.66l-24.65,3,0-3.68-.55-.5-2.6.24-.14-1.26.12.68a9.8,9.8,0,0,0,2.31-.69c1.41-.67,1.65-1.42,1.61-1.93s-.48-1.32-2.26-1.79a14.38,14.38,0,0,0-8.1.57c-1.41.67-1.65,1.42-1.61,1.93s.48,1.32,2.27,1.8a11.11,11.11,0,0,0,2.28.33v.69l-1.46.14-.26.1-2.71,2.13-12.22,3.41-.37.48v1.59l-67.93,0A5.13,5.13,0,0,0,73.56,607H44.84a5.15,5.15,0,0,0-4.71,7.25H34.91c-.83-5.48-3.12-9.33-5.91-9.33-3.51,0-6.26,6.08-6.26,13.83,0,4.94,1.12,9.19,2.83,11.63v0h0a5.22,5.22,0,0,0,2.27,1.94v0H28a3.09,3.09,0,0,0,1,.19c2.76,0,5-3.8,5.89-9.22h9.92a5.08,5.08,0,0,0-.07.7,5.16,5.16,0,0,0,5.15,5.15h5.22v9.38c-7.22,1-12.42,4.38-12.42,8.57,0,5,7.31,8.86,16.65,8.86S76,652.13,76,647.16c0-4.23-5.29-7.66-12.6-8.6v-9.35h5.14a5,5,0,0,0,5.05-5.87l73.43-.05.54,1.48.28.29,7.92,3.26c-.07.52.16,1.28,1.37,2.22a17.7,17.7,0,0,0,9.05,3h.14c2.06,0,2.72-.66,2.92-1.21s.11-1.19-.9-2.12l.88-3.11,13.41,2.64,4.56,3.8,3.71,1.58-.32.83.31.65,16.9,5.59H208L227.43,637l.36-.56ZM195.42,619l13.64,1.72,17.32,3.54-.07,4-17.61.44L194.95,627Zm.08-11.19h0l0-.4v-.68l11.58-1.06,18.78,8.62L225,617.4,207,612.33l-.2,0-11.24,1.37,0-.24Zm-25.66,3.15,24.66-3v5L169.8,616ZM25.58,628.39a26.22,26.22,0,0,1,0-19.27Zm2.3,2.88a5.4,5.4,0,0,1-1.9-2.1V608.34a5.4,5.4,0,0,1,1.9-2.1Zm1.12.32a2.17,2.17,0,0,1-.72-.14V606.06a2.17,2.17,0,0,1,.72-.14,2.68,2.68,0,0,1,1.8.83l.38,23.6A3,3,0,0,1,29,631.58Zm2.58-1.73-.37-22.67c1.77,2.09,3,6.54,3,11.57C34.25,623.43,33.16,627.61,31.58,629.85ZM44.84,608H73.56a4.16,4.16,0,0,1,4.15,4.15,4.11,4.11,0,0,1-.56,2.07l-35.9,0A4.14,4.14,0,0,1,44.84,608Zm14.51,47c-5.71,0-10.7-1.55-13.43-3.84H72.75C70,653.47,65,655,59.35,655Zm13.86-4.25H45.47a5.15,5.15,0,0,1-1.75-3.41H75A5.16,5.16,0,0,1,73.21,650.77ZM75,647H43.72a5.15,5.15,0,0,1,1.75-3.41H73.21A5.16,5.16,0,0,1,75,647Zm-2.2-3.81H45.92c2.73-2.3,7.72-3.84,13.43-3.84S70,640.85,72.75,643.14Zm-16.64-4.68V624.74A4.52,4.52,0,0,1,59,624a6.3,6.3,0,0,1,3.34.76v13.65c-1-.09-2-.15-3-.15A32.21,32.21,0,0,0,56.12,638.46Zm12.39-10.26H63.37v-.9h7v-.5h-7v-2.26l-.16-.37c-.05,0-1.28-1.13-4.17-1.13s-3.74,1.09-3.83,1.22l-.09.28v2.26h-6.2c-.77,0-1.49-1.42-1.49-2.92,0-.58.15-2.48,2-2.48H70.52v-.5H49.46c-1.87,0-2.53,1.54-2.53,3,0,1.62.82,3.42,2,3.42h6.2v.9H49.89a4.15,4.15,0,1,1,0-8.31H68.51a4.15,4.15,0,0,1,0,8.31Zm4.81-5.87a5.12,5.12,0,0,0-4.81-3.43H49.89a5.14,5.14,0,0,0-4.84,3.45H35a30.86,30.86,0,0,0,.21-3.61,30.93,30.93,0,0,0-.2-3.51l111.15-.08,0,5.63-.05,0,.05.14v.13l.08.09.41,1.11Zm87.88-18c-1.17-.31-1.51-.73-1.53-.92s.24-.56,1-.93a13.4,13.4,0,0,1,7.42-.51c1.17.31,1.51.73,1.53.92s-.24.56-1,.93a8.9,8.9,0,0,1-2,.6l-.13-1.15-.12-.16a4.21,4.21,0,0,0-1.44-.25,3.29,3.29,0,0,0-1.56.45l-.09.17v1.14A10.22,10.22,0,0,1,161.19,604.33Zm5.15,1.7-2.72.25V603.6a2.86,2.86,0,0,1,1.26-.34,4,4,0,0,1,1.18.18Zm-.17,26.53a16.54,16.54,0,0,1-8.46-2.83c-.79-.62-1.06-1.12-1-1.35s.57-.54,2-.54h.12a16.53,16.53,0,0,1,8.45,2.83c.79.62,1.06,1.12,1,1.35S167.67,632.58,166.17,632.56Zm-4.07-5.24.55-1.23a3,3,0,0,1,1.66,0c.93.33,1,.78,1.05.88l-.44,1.22A20.27,20.27,0,0,0,162.1,627.32Zm5.36,2.25a13.92,13.92,0,0,0-2.18-1.17l.46-1.29v-.06s0-.82-1.32-1.3a3.37,3.37,0,0,0-2,0l-.12.11-.62,1.39a14.56,14.56,0,0,0-2.85-.39h0a4.16,4.16,0,0,0-2.59.59l-7.86-3.23-.93-2.54,11,1.05,3.17,1.21,7,1.61Zm1.27-5L161.93,623l-3.17-1.21-11.61-1.13.06-7.67,11.95-3.34,2.85-2.19,6.88-.64Zm19,8.21-4.6-3.83-.22-.11-13.45-2.65.24-.86-.11,0,.13-.1,0-5,15,2.08.35-.08,4.79-3.2,4.52.52-.39,6.68-2.71-.29-.55.44-.23,2.13.31.52,2.09.86-1.67,4.34Zm20.19,8.48-16.26-5.38,2.41-6.25,14.09,5.29.23,0L226.24,633l.5,3.1Z"
         /></g>
</svg>