<?xml version="1.0" encoding="utf-8"?>
<!-- Generator: Adobe Illustrator 16.0.0, SVG Export Plug-In . SVG Version: 6.00 Build 0)  -->
<!DOCTYPE svg PUBLIC "-//W3C//DTD SVG 1.1//EN" "http://www.w3.org/Graphics/SVG/1.1/DTD/svg11.dtd">
<svg version="1.1" id="图层_1" xmlns="http://www.w3.org/2000/svg" xmlns:xlink="http://www.w3.org/1999/xlink" x="0px" y="0px"
	 width="40px" height="40px" viewBox="0 0 40 40" enable-background="new 0 0 40 40" xml:space="preserve">
<path display="none" fill="#6B6C6B" d="M878.457-66.628c2.071,2.085,2.071,5.414,0,7.471L287.543,531.786
	c-2.086,2.085-5.415,2.085-7.486,0L242.657,494.4c-2.071-2.086-2.071-5.415,0-7.443L833.6-104.014c2.086-2.086,5.415-2.086,7.458,0
	L878.457-66.628z"/>
<g>
	<g>
		<g>
			<path fill="#323333" d="M15.462,19.811l-8.996,8.996c-0.079,0.08-0.115,0.167-0.083,0.201L6.977,29.6
				c0.035,0.031,0.123-0.003,0.203-0.083l8.996-8.993L15.462,19.811z"/>
			<path fill="#323333" d="M28.807,6.466l-8.997,8.997l0.716,0.711l8.996-8.996c0.079-0.082,0.112-0.17,0.083-0.203l-0.594-0.594
				C28.974,6.351,28.884,6.389,28.807,6.466z"/>
		</g>
		<path fill="#323333" d="M19.137,17.441c0.035,0.033-0.002,0.123-0.081,0.201l-1.411,1.413c-0.081,0.08-0.168,0.116-0.202,0.082
			l-0.594-0.594c-0.035-0.032,0.002-0.121,0.082-0.2l1.413-1.417c0.079-0.077,0.167-0.112,0.203-0.082L19.137,17.441z"/>
	</g>
	<g>
		<g>
			<path fill="#323333" d="M19.478,23.826l-8.996,9c-0.08,0.076-0.115,0.163-0.082,0.197l0.593,0.593
				c0.033,0.034,0.122,0,0.203-0.081l8.995-8.992L19.478,23.826z"/>
			<path fill="#323333" d="M32.824,10.485l-8.999,8.996l0.713,0.711l8.996-8.996c0.079-0.08,0.115-0.168,0.083-0.203l-0.59-0.594
				C32.99,10.37,32.902,10.407,32.824,10.485z"/>
		</g>
		<path fill="#323333" d="M23.154,21.46c0.035,0.028-0.003,0.123-0.084,0.199l-1.412,1.415c-0.08,0.08-0.167,0.113-0.198,0.08
			l-0.594-0.592c-0.035-0.033,0-0.123,0.082-0.201l1.408-1.412c0.083-0.079,0.167-0.112,0.202-0.081L23.154,21.46z"/>
	</g>
</g>
</svg>
