<?xml version="1.0" encoding="UTF-8"?>
<svg width="30px" height="29px" viewBox="0 0 30 29" version="1.1" xmlns="http://www.w3.org/2000/svg" xmlns:xlink="http://www.w3.org/1999/xlink">
    <!-- Generator: Sketch 50 (54983) - http://www.bohemiancoding.com/sketch -->
    <title>Group</title>
    <desc>Created with Sketch.</desc>
    <defs></defs>
    <g id="Page-1" stroke="none" stroke-width="1" fill="none" fill-rule="evenodd">
        <g id="连线" transform="translate(-5.000000, -5.000000)" fill="#4C4C4C" fill-rule="nonzero">
            <g id="Group" transform="translate(5.000000, 5.000000)">
                <rect id="Rectangle" transform="translate(25.921020, 3.537049) scale(-1, 1) rotate(-45.000000) translate(-25.921020, -3.537049) " x="21.9210197" y="3.03704874" width="8" height="1"></rect>
                <rect id="Rectangle-Copy" transform="translate(19.860104, 9.597964) scale(-1, 1) rotate(-45.000000) translate(-19.860104, -9.597964) " x="15.8601043" y="9.09796374" width="8" height="1"></rect>
                <rect id="Rectangle-Copy-2" transform="translate(14.556803, 14.901265) scale(-1, 1) rotate(-45.000000) translate(-14.556803, -14.901265) " x="10.5568029" y="14.4012648" width="8" height="1"></rect>
                <rect id="Rectangle-Copy-3" transform="translate(9.253503, 20.204566) scale(-1, 1) rotate(-45.000000) translate(-9.253503, -20.204566) " x="5.25350265" y="19.7045656" width="8" height="1"></rect>
                <rect id="Rectangle-Copy-4" transform="translate(3.950202, 25.507866) scale(-1, 1) rotate(-45.000000) translate(-3.950202, -25.507866) " x="-0.0497983875" y="25.0078658" width="8" height="1"></rect>
            </g>
        </g>
    </g>
</svg>