<svg id="Clipware2" xmlns="http://www.w3.org/2000/svg" viewBox="0 0 35.42976 209.71151" width="40" height="215">
    <title>Clipware2</title>   <g stroke="#000000" fill="#000000" stroke-width="0.5324"  transform="translate(-2.44901 -1.2583)">
    <path d="M26.13361,152.96875c-.72705.11133-1.67334.1416-2.05957-.36621-.24756-.3252-.51221-1.20312.49463-3.43164l.04932-.11133c.06592-.13574.64941-1.10449,1.32471-2.22656,4.96143-8.24219,8.26611-13.97559,8.26611-15.16895V39.9336c0-5.13867-4.60059-10.00146-5.52295-10.92383a9.45213,9.45213,0,0,1-1.37939-2.73291l-.07178-.25911,1.125-20.091c-.00488-.09473.02441-.25049.08447-.28857.60742-.38916,1.15283-.791,1.15283-1.41895,0-1.21356-1.98395-1.96167-4.43463-2.4035A23.52033,23.52033,0,0,0,21.823,1.39985c-1.2738-.09991-2.50256-.14154-3.50238-.14154-.85193,0-1.87286.032-2.9433.10254a22.89307,22.89307,0,0,0-4.51324.57574C8.7066,2.39,7.04425,3.10944,7.04425,4.21923c0,.69189.64941,1.13965,1.1748,1.42041a.8407.8407,0,0,1,.0625.34717L9.40671,26.01217l-.05536.26467A9.41545,9.41545,0,0,1,7.972,29.00975C7.04959,29.93211,2.449,34.79491,2.449,39.93358v91.7305c0,1.19434,3.75391,7.72363,9.39014,17.15918.75781,1.26855,1.41162,2.36328,1.47607,2.49512.1499.35059.2915.61816.44092.90137.07373.13867.1499.28223.23.44336a.87232.87232,0,0,1-.04492.59863c-.00623.01764-.01678.04163-.025.06232a3.60448,3.60448,0,0,0-1.67719-.42853,4.63085,4.63085,0,0,0-3.88977,2.77411,1.30506,1.30506,0,0,0-.42615-.08466c-.72919,0-1.34888.63928-1.75623,1.65125a.99119.99119,0,0,0-.58459-.202c-1.0542,0-1.53467,1.59961-1.53467,3.08594s.48047,3.08594,1.53467,3.08594a.99042.99042,0,0,0,.58508-.20154c.40735,1.011,1.02686,1.64978,1.75574,1.64978a1.30349,1.30349,0,0,0,.428-.08051,4.62914,4.62914,0,0,0,3.88794,2.77,3.55454,3.55454,0,0,0,1.36975-.27808,1.765,1.765,0,0,1,.17957.6189,5.25221,5.25221,0,0,1,.01025.81543l-.02832.13086.041.12793c.08508.26471.17969.5697.27637.88641a6.56685,6.56685,0,0,0-3.32959,5.09406l.00244,9.19238a2.51442,2.51442,0,0,1-.91846,1.33105l-.89355.18555,2.57422,23.92188c0,1.44336,4.63574,1.59961,6.62891,1.59961s6.62891-.15625,6.627-1.55566l2.09424-23.88379.00537-.03809-1.02393-.22949a2.5619,2.5619,0,0,1-.916-1.31812l-.00146-9.17017a6.11216,6.11216,0,0,0-2.4873-4.8537c.12634-.41943.25073-.82111.36035-1.16193l.03223-.123-.01514-.11133a5.98711,5.98711,0,0,1,.00635-.84668,3.76062,3.76062,0,0,1,1.259-2.04266l.55682.03857a6.5813,6.5813,0,0,0,5.58508,3.75214,5.38837,5.38837,0,0,0,.61975-.06116c.60284,2.96088,1.57141,5.58655,3.11072,5.58655,2.56982,0,3.91406-7.27734,3.91406-14.46582s-1.34424-14.46582-3.91406-14.46582c-1.56049,0-2.50763,2.65228-3.06512,5.27905a3.67516,3.67516,0,0,0-.66534-.04565A6.15245,6.15245,0,0,0,26.13361,152.96875ZM5.82172,161.8208a2.34371,2.34371,0,0,1-.21838.38818c-.1582-.06445-.55566-.78027-.55566-2.08887a3.23248,3.23248,0,0,1,.51367-2.08887.84585.84585,0,0,1,.26056.386,9.27728,9.27728,0,0,0-.00018,3.4035Zm24.41248-9.56787a4.363,4.363,0,0,1,.46765.04974c-.03436.192-.06567.38043-.09607.56726a5.27935,5.27935,0,0,0-2.9801,1.636l-1.56342.10828a5.24761,5.24761,0,0,1,4.17191-2.36128ZM30.45,153.916c-.01312.09631-.02747.19635-.03949.28906a1.19138,1.19138,0,0,1-1.95209.85791,4.33392,4.33392,0,0,1,1.99155-1.147ZM11.11371,2.898c.73511-.15485,1.59589-.29333,2.5827-.40186,1.211-.12018,2.71942-.20465,4.56415-.20465,4.271,0,6.84521.44043,7.71484.77295-.87012.332-3.44385.77246-7.71484.77246-4.27051,0-6.84424-.44043-7.71436-.77246a5.337,5.337,0,0,1,.56747-.16644ZM8.74347,4.79687c-.69141-.38232-.69922-.56982-.69922-.57764,0-.2348.46051-.54785,1.33673-.85486.73834,1.321,6.36371,1.47253,8.87958,1.47253,2.53876,0,8.24365-.15442,8.89832-1.509.94574.31854,1.43811.64722,1.43811.8913,0,.04-.06738.17627-.69189.57666a1.13835,1.13835,0,0,0-.46564.61761A29.41376,29.41376,0,0,1,18.32062,6.58,29.70849,29.70849,0,0,1,9.20135,5.41952a1.01672,1.01672,0,0,0-.45792-.62263Zm.53711,1.16846a2.36832,2.36832,0,0,0-.03076-.31317,30.59788,30.59788,0,0,0,9.0708,1.12811,30.29423,30.29423,0,0,0,9.05811-1.13074,1.1882,1.1882,0,0,0-.01709.28162L26.25848,25.86383c-1.49292-.69653-5.22815-.96735-7.93787-.96735-2.70923,0-6.44354.27075-7.937.967ZM26.236,26.26978l-.01013.18286c-.395.36426-3.07861,1.0293-7.90527,1.0293-4.82373,0-7.50684-.66406-7.9043-1.02832l-.01019-.18439c.83813-.43378,3.5202-.97235,7.91449-.97235,4.39609,0,7.07846.539,7.91537.97291Zm-11.35144,127.325a1.80282,1.80282,0,0,0-.00391-1.37891c-.084-.168-.16309-.31836-.24072-.46387-.13721-.25977-.26758-.50488-.40527-.82715-.05664-.13184-.36133-.64551-1.53662-2.61426-2.27344-3.80566-9.19043-15.38574-9.249-16.64648V39.9336c0-4.84521,4.69482-9.68115,5.23-10.2168a7.95161,7.95161,0,0,0,1.34106-2.37537c1.78308,1.07288,7.0694,1.1405,8.30054,1.1405,1.23572,0,6.55591-.06842,8.31854-1.137a7.94068,7.94068,0,0,0,1.33966,2.37183c.53516.53564,5.23,5.37158,5.23,10.2168v91.73051c-.0249,1.20117-6.12012,11.32617-8.123,14.65332-1.05225,1.748-1.32568,2.20605-1.3833,2.34082l-.04492.10059c-.93066,2.06055-1.05859,3.55762-.37939,4.44922a2.39834,2.39834,0,0,0,1.99573.8244c-.15741.214-.30994.43445-.451.66772l-11.6557.80731a3.65827,3.65827,0,0,0,1.71729-1.91273Zm3.9502,2.523v8.15041l-.8291-.05743v-8.03557Zm-7.44116.74072c.06671-.08246.132-.16449.2005-.2392l5.41156-.37482v7.89709l-5.147-.35638c-.05823-.0545-.12378-.10706-.17871-.16254l-.13458-.15118a4.72155,4.72155,0,0,1-1.30678-3.35129,5.14187,5.14187,0,0,1,1.10071-3.19122Zm.84546-2.963a2.6003,2.6003,0,0,1,1.08105.27106,3.64964,3.64964,0,0,1-.99658.65375,4.85812,4.85812,0,0,0-1.48627,1.1405L9.2464,156.071a3.60808,3.60808,0,0,1,2.99265-2.17552Zm-4.31158,9.75763-.00433.00116c-.51318,0-1.25879-1.377-1.25879-3.53418,0-2.1582.74561-3.53516,1.25879-3.53516l.00464.00116a10.12342,10.12342,0,0,0-.00031,7.067Zm.36334-3.533a9.10887,9.10887,0,0,1,.49634-3.0144l1.2915-.08948a6.10238,6.10238,0,0,0-.84007,3.10394,5.72641,5.72641,0,0,0,.96509,3.25824l-1.35858-.0943a9.022,9.022,0,0,1-.55431-3.16394Zm3.94824,6.22363a3.53046,3.53046,0,0,1-2.90472-2.02289l1.76471.12244a8.38879,8.38879,0,0,0,1.11511.90826,6.68215,6.68215,0,0,1,.82843.84595,2.53719,2.53719,0,0,1-.80356.14624Zm-.481,17.63867v-9.24316a5.64634,5.64634,0,0,1,2.61963-4.11957,18.51093,18.51093,0,0,1,.72607,3.1059v12.42194a25.518,25.518,0,0,1-4.21881-.507,2.89241,2.89241,0,0,0,.87312-1.65808Zm12.0332,25.2627c-.373.27051-2.28174.72461-5.63965.72461-3.35645,0-5.26514-.4541-5.63965-.72461l-2.45459-22.8125a20.625,20.625,0,0,0,5.04639.71906v21.1579a20.32762,20.32762,0,0,0-2.96243.43652l.125.38086a19.86118,19.86118,0,0,1,2.83743-.4165v-.00954l.054.28346a.74663.74663,0,0,0,.12085.252.85816.85816,0,0,0,.72559.31836,5.27972,5.27972,0,0,0,2.3927-.98834,26.15135,26.15135,0,0,1,5.515.52057l.11328-.38281a25.00533,25.00533,0,0,0-5.05893-.53143c.06519-.04755.13275-.09509.19513-.14239a9.989,9.989,0,0,0,1.80566-1.7207,2.10823,2.10823,0,0,0,.53516-1.20312h.01465V187.10492a17.775,17.775,0,0,0,4.27393-.683Zm-6.31006-3.42773a12.20519,12.20519,0,0,0-1.37744,1.22491v-19.8504c.73981.02283,1.38043.02881,1.80957.02881.57819,0,1.531-.00989,2.60352-.059v17.14386a7.209,7.209,0,0,0-3.03563,1.51184Zm2.94775-.48926a7.37148,7.37148,0,0,1-1.87207,1.90527,9.94961,9.94961,0,0,1-1.5.94952c-.21332.007-.42523.01459-.6319.02545a8.6883,8.6883,0,0,1,1.66119-1.59412,7.32162,7.32162,0,0,1,2.34279-1.28609Zm3.50928-30.58887.00146,9.28125a2.96055,2.96055,0,0,0,.89655,1.64441,23.94447,23.94447,0,0,1-3.3194.4328V173.72559a16.082,16.082,0,0,1,.62439-2.75116,5.03337,5.03337,0,0,1,1.797,3.76483Zm-2.104-7.1084a8.92766,8.92766,0,0,0-.0083.92188,32.17133,32.17133,0,0,0-1.30908,5.17285v12.42909c-.79059.03851-1.6402.066-2.60352.066-.64752,0-1.24164-.01294-1.80957-.03125V173.72559a32.17945,32.17945,0,0,0-1.30713-5.16895,6.87469,6.87469,0,0,0-.01025-.93359,4.74468,4.74468,0,0,0-1.60431-2.74341l9.62451.66644a3.75726,3.75726,0,0,0-.97234,2.08478Zm-1.99951-3.29346v-8.28893l4.44666-.308a11.54311,11.54311,0,0,0-.13708,8.89539Zm4.48535-3.99756a10.16206,10.16206,0,0,1,1.09888-4.67816l1.376-.09528a9.17974,9.17974,0,0,0-.187,9.24005l-1.34064-.09283a10.26824,10.26824,0,0,1-.94724-4.37376Zm5.91406,8.08594a5.36607,5.36607,0,0,1-4.37793-2.66858l1.48627.103a5.41253,5.41253,0,0,0,3.2298,1.94354c.03094.19318.06415.38617.0979.57922-.14558.01457-.29057.04282-.436.04282Zm-1.97638-3.02515a1.61568,1.61568,0,0,1,1.26935-.02368,1.28273,1.28273,0,0,1,.84082,1.02051c.01532.11737.03271.23718.049.35577a4.44381,4.44381,0,0,1-2.15915-1.3526Zm5.70683,8.55054c-.55371,0-1.811-1.60547-2.60547-7.68262a2.28415,2.28415,0,0,0-1.458-1.81836,2.55467,2.55467,0,0,0-2.25336.15717,7.903,7.903,0,0,1-1.19586-4.26752,7.81748,7.81748,0,0,1,1.35394-4.50757A2.19929,2.19929,0,0,0,31.4026,154.334c.69482-5.36621,1.9126-7.31445,2.562-7.31445,1.2168,0,2.91406,5.123,2.91406,13.46582S35.18143,173.95117,33.9646,173.95117Z"
         />
    <path d="M19.47567,13.3491h0a.1.1,0,0,1,.00327.14139l-1.105,1.15715a.1.1,0,0,1-.14139.00325h0a.1.1,0,0,1-.00327-.14139l1.105-1.15715A.1.1,0,0,1,19.47567,13.3491Z"
         />
    <path d="M18.03337,9.074h0a.1.1,0,0,1,.12832.05946l.55082,1.5022a.1.1,0,0,1-.05947.12831h0a.1.1,0,0,1-.12832-.05946L17.9739,9.2023A.1.1,0,0,1,18.03337,9.074Z"
         />
    <path d="M21.42779,10.771h0a.1.1,0,0,1,.05566.13l-.59482,1.48533a.1.1,0,0,1-.13.05565h0a.1.1,0,0,1-.05566-.13l.59482-1.48533A.1.1,0,0,1,21.42779,10.771Z"
         />
    <path d="M23.68451,13.33054h0a.1.1,0,0,1-.06513.12553l-1.52531.48314a.1.1,0,0,1-.12553-.06514h0a.1.1,0,0,1,.06513-.12553L23.559,13.2654A.1.1,0,0,1,23.68451,13.33054Z"
         />
    <path d="M14.597,19.64721h0a.1.1,0,0,1-.06513.12553l-1.52531.48314a.1.1,0,0,1-.12553-.06514h0a.1.1,0,0,1,.06513-.12553l1.52531-.48314A.1.1,0,0,1,14.597,19.64721Z"
         />
    <path d="M11.0528,14.021h0a.1.1,0,0,1,.05566.13l-.59482,1.48533a.1.1,0,0,1-.13.05565h0a.1.1,0,0,1-.05566-.13l.59482-1.48533A.1.1,0,0,1,11.0528,14.021Z"
         />
    <path d="M19.489,5.8523h0a.1.1,0,0,1,.1.1v1.6a.1.1,0,0,1-.1.1h0a.1.1,0,0,1-.1-.1v-1.6A.1.1,0,0,1,19.489,5.8523Z"
         />
    <path d="M22.90787,5.89841h0a.1.1,0,0,1,.14093.01178L24.082,7.13191a.1.1,0,0,1-.01179.14093h0a.1.1,0,0,1-.14093-.01178L22.89608,6.03935A.1.1,0,0,1,22.90787,5.89841Z"
         />
    <path d="M12.3685,7.67427v0a.1.1,0,0,1,.11134-.0872l1.5883.19316a.1.1,0,0,1,.08719.11135v0a.1.1,0,0,1-.11134.0872l-1.5883-.19316A.1.1,0,0,1,12.3685,7.67427Z"
         />
    <path d="M10.67563,9.93444h0a.1.1,0,0,1,.13959.02271l.93494,1.29842a.1.1,0,0,1-.02272.13959h0a.1.1,0,0,1-.13959-.02271L10.6529,10.074A.1.1,0,0,1,10.67563,9.93444Z"
         />
    <path d="M19.57362,23.25014h0a.1.1,0,0,1,.05566.13l-.59482,1.48533a.1.1,0,0,1-.13.05565h0a.1.1,0,0,1-.05566-.13l.59482-1.48533A.1.1,0,0,1,19.57362,23.25014Z"
         />
    <path d="M11.41531,22.59923h0a.1.1,0,0,1,.01363.14077l-1.01709,1.23513a.1.1,0,0,1-.14077.01362h0a.1.1,0,0,1-.01363-.14077l1.01709-1.23513A.1.1,0,0,1,11.41531,22.59923Z"
         />
    <path d="M11.847,20.73054h0a.1.1,0,0,1-.06513.12553l-1.52532.48314a.1.1,0,0,1-.12553-.06514h0a.1.1,0,0,1,.06513-.12553l1.52532-.48314A.1.1,0,0,1,11.847,20.73054Z"
         />
    <path d="M16.80787,20.72758h0a.1.1,0,0,1,.14093.01178L17.982,21.96108a.1.1,0,0,1-.01179.14093h0a.1.1,0,0,1-.14093-.01178l-1.03317-1.22171A.1.1,0,0,1,16.80787,20.72758Z"
         />
    <path d="M22.68419,17.85861h0A.1.1,0,0,1,22.68744,18l-1.105,1.15715a.1.1,0,0,1-.14139.00325h0a.1.1,0,0,1-.00327-.14139l1.105-1.15715A.1.1,0,0,1,22.68419,17.85861Z"
         />
    <path d="M14.37061,15.24365v0a.1.1,0,0,1,.11134-.0872l1.5883.19316a.1.1,0,0,1,.08719.11135v0a.1.1,0,0,1-.11134.0872L14.4578,15.355A.1.1,0,0,1,14.37061,15.24365Z"
         />
    <path d="M23.68451,7.643h0a.1.1,0,0,1-.06513.12553l-1.52531.48314a.1.1,0,0,1-.12553-.06514h0a.1.1,0,0,1,.06513-.12553L23.559,7.57789A.1.1,0,0,1,23.68451,7.643Z"
         />
    <path d="M15.96476,26.33058h0a.1.1,0,0,1,.00327.14139l-1.105,1.15715a.1.1,0,0,1-.14139.00325h0a.1.1,0,0,1-.00327-.14139l1.105-1.15715A.1.1,0,0,1,15.96476,26.33058Z"
         />
    <path d="M16.42662,8.88251h0a.1.1,0,0,1,.03877.136l-.77793,1.39816a.1.1,0,0,1-.136.03876h0a.1.1,0,0,1-.03877-.136l.77793-1.39816A.1.1,0,0,1,16.42662,8.88251Z"
         />
    <path d="M20.64586,27.59762h0a.1.1,0,0,1-.13913.02536l-1.31588-.9102a.1.1,0,0,1-.02535-.13913h0a.1.1,0,0,1,.13913-.02536l1.31588.9102A.1.1,0,0,1,20.64586,27.59762Z"
         />
    <path d="M13.3653,24.70848h0a.1.1,0,0,1,.05566.13l-.59482,1.48533a.1.1,0,0,1-.13.05565h0a.1.1,0,0,1-.05566-.13l.59482-1.48533A.1.1,0,0,1,13.3653,24.70848Z"
         />
    <path d="M22.45509,16.136h0a.1.1,0,0,1-.11757.0786l-1.56932-.31181a.1.1,0,0,1-.07859-.11758h0a.1.1,0,0,1,.11757-.0786l1.56932.31181A.1.1,0,0,1,22.45509,16.136Z"
         />
    <path d="M15.65569,22.95647h0a.1.1,0,0,1,.1.1v1.6a.1.1,0,0,1-.1.1h0a.1.1,0,0,1-.1-.1v-1.6A.1.1,0,0,1,15.65569,22.95647Z"
         />
    <path d="M9.84744,6.545h0a.1.1,0,0,1,.03877.136L9.10827,8.07916a.1.1,0,0,1-.136.03876h0a.1.1,0,0,1-.03877-.136l.77793-1.39816A.1.1,0,0,1,9.84744,6.545Z"
         />
    <path d="M12.89585,5.4725h0a.1.1,0,0,1-.05115.13185l-1.464.64558a.1.1,0,0,1-.13185-.05116h0A.1.1,0,0,1,11.3,6.06693l1.464-.64558A.1.1,0,0,1,12.89585,5.4725Z"
         />
    <path d="M16.85151,6.82317h0a.1.1,0,0,1-.14074.01389l-1.237-1.01482a.1.1,0,0,1-.01388-.14074h0a.1.1,0,0,1,.14074-.01389l1.237,1.01482A.1.1,0,0,1,16.85151,6.82317Z"
         />
    <path d="M22.95962,22.07357h0a.1.1,0,0,1-.13428.04438l-1.42923-.71925a.1.1,0,0,1-.04437-.13428h0A.1.1,0,0,1,21.486,21.22l1.42923.71925A.1.1,0,0,1,22.95962,22.07357Z"
         />
    <path d="M13.259,17.8685v0a.1.1,0,0,1-.09064.10856l-1.59358.14324a.1.1,0,0,1-.10855-.09065v0a.1.1,0,0,1,.09064-.10856l1.59358-.14324A.1.1,0,0,1,13.259,17.8685Z"
         />
    <path d="M18.23088,17.52212h0a.1.1,0,0,1,.0913.108l-.13364,1.59441a.1.1,0,0,1-.108.0913h0a.1.1,0,0,1-.0913-.108l.13364-1.59441A.1.1,0,0,1,18.23088,17.52212Z"
         />
    <path d="M16.55735,12.81263h0a.1.1,0,0,1-.0388.136l-1.39837.77754a.1.1,0,0,1-.136-.03881h0a.1.1,0,0,1,.0388-.136l1.39837-.77754A.1.1,0,0,1,16.55735,12.81263Z"
         />
    <path d="M24.08592,24.95782h0a.1.1,0,0,1-.06513.12553l-1.52532.48314a.1.1,0,0,1-.12553-.06514h0a.1.1,0,0,1,.06513-.12553l1.52532-.48314A.1.1,0,0,1,24.08592,24.95782Z"
         />
    <path d="M25.90961,17.19939h0a.1.1,0,0,1-.00054.14142l-1.13572,1.127a.1.1,0,0,1-.14142-.00055h0a.1.1,0,0,1,.00054-.14142l1.13572-1.127A.1.1,0,0,1,25.90961,17.19939Z"
         />
    <path d="M25.62758,21.59042h0a.1.1,0,0,1,.05217.13145l-.63433,1.46889a.1.1,0,0,1-.13146.05216h0a.1.1,0,0,1-.05217-.13145l.63433-1.46889A.1.1,0,0,1,25.62758,21.59042Z"
         />
    <path d="M25.35328,25.9806h0a.1.1,0,0,1,.01151.141l-1.03557,1.21968a.1.1,0,0,1-.141.0115h0a.1.1,0,0,1-.01151-.141l1.03557-1.21968A.1.1,0,0,1,25.35328,25.9806Z"
         />
    <path d="M24.68662,9.64728h0a.1.1,0,0,1,.01151.141L23.66255,11.0079a.1.1,0,0,1-.141.0115h0a.1.1,0,0,1-.01151-.141l1.03557-1.21967A.1.1,0,0,1,24.68662,9.64728Z"
         />
    <path d="M27.39484,12.2145h0a.1.1,0,0,1-.121.07329L25.72,11.90644a.1.1,0,0,1-.07328-.121h0a.1.1,0,0,1,.121-.07329l1.5539.38134A.1.1,0,0,1,27.39484,12.2145Z"
         />
    <path d="M27.992,5.62162h0a.1.1,0,0,1-.14.02034l-1.28228-.957a.1.1,0,0,1-.02033-.14h0a.1.1,0,0,1,.14-.02034l1.28228.957A.1.1,0,0,1,27.992,5.62162Z"
         />
    <path d="M26.53336,7.99065h0a.1.1,0,0,1,.12832.05946l.55082,1.5022a.1.1,0,0,1-.05947.12831h0a.1.1,0,0,1-.12832-.05946L26.47389,8.119A.1.1,0,0,1,26.53336,7.99065Z"
         />
    <path d="M13.84319,10.83147h0a.1.1,0,0,1,.1.1v1.6a.1.1,0,0,1-.1.1h0a.1.1,0,0,1-.1-.1v-1.6A.1.1,0,0,1,13.84319,10.83147Z"
         />
    <path d="M14.08328,195.6h0a.1.1,0,0,1,.1.1v1.6a.1.1,0,0,1-.1.1h0a.1.1,0,0,1-.1-.1v-1.6A.1.1,0,0,1,14.08328,195.6Z"
         />
    <path d="M20.53818,195.7866h0a.1.1,0,0,1,.00326.14139l-1.105,1.15715a.1.1,0,0,1-.14139.00326h0a.1.1,0,0,1-.00326-.14139l1.105-1.15715A.1.1,0,0,1,20.53818,195.7866Z"
         />
    <path d="M19.09586,191.51148h0a.1.1,0,0,1,.12832.05946l.55082,1.50219a.1.1,0,0,1-.05946.12832h0a.1.1,0,0,1-.12832-.05946l-.55082-1.50219A.1.1,0,0,1,19.09586,191.51148Z"
         />
    <path d="M22.49031,193.20847h0a.1.1,0,0,1,.05566.13l-.59482,1.48531a.1.1,0,0,1-.13.05566h0a.1.1,0,0,1-.05566-.13l.59482-1.48531A.1.1,0,0,1,22.49031,193.20847Z"
         />
    <path d="M24.747,195.768h0a.1.1,0,0,1-.06514.12554l-1.5253.48314a.1.1,0,0,1-.12554-.06514h0a.1.1,0,0,1,.06514-.12554l1.5253-.48314A.1.1,0,0,1,24.747,195.768Z"
         />
    <path d="M15.65951,202.08469h0a.1.1,0,0,1-.06514.12554l-1.5253.48314a.1.1,0,0,1-.12554-.06514h0a.1.1,0,0,1,.06514-.12554l1.5253-.48314A.1.1,0,0,1,15.65951,202.08469Z"
         />
    <path d="M12.11527,196.45848h0a.1.1,0,0,1,.05566.13l-.59482,1.48531a.1.1,0,0,1-.13.05566h0a.1.1,0,0,1-.05566-.13l.59482-1.48531A.1.1,0,0,1,12.11527,196.45848Z"
         />
    <path d="M19.59556,187.97127h0a.1.1,0,0,1,.12452.06706l.45966,1.53254a.1.1,0,0,1-.06706.12452h0a.1.1,0,0,1-.12452-.06706l-.45966-1.53254A.1.1,0,0,1,19.59556,187.97127Z"
         />
    <path d="M23.97037,188.33591h0a.1.1,0,0,1,.14094.01178l1.03317,1.22169a.1.1,0,0,1-.01178.14094h0a.1.1,0,0,1-.14094-.01178l-1.03317-1.22169A.1.1,0,0,1,23.97037,188.33591Z"
         />
    <path d="M13.431,190.11178v0a.1.1,0,0,1,.11135-.0872l1.58829.19316a.1.1,0,0,1,.0872.11135v0a.1.1,0,0,1-.11135.0872l-1.58829-.19316A.1.1,0,0,1,13.431,190.11178Z"
         />
    <path d="M11.73875,192.371h0a.1.1,0,0,1,.13959.02272l.93494,1.29841a.1.1,0,0,1-.02272.13959h0a.1.1,0,0,1-.13959-.02272l-.93494-1.29841A.1.1,0,0,1,11.73875,192.371Z"
         />
    <path d="M12.47808,205.03616h0a.1.1,0,0,1,.01363.14077L11.47461,206.412a.1.1,0,0,1-.14077.01363h0a.1.1,0,0,1-.01363-.14077l1.01708-1.23511A.1.1,0,0,1,12.47808,205.03616Z"
         />
    <path d="M12.9095,203.168h0a.1.1,0,0,1-.06514.12554l-1.5253.48314a.1.1,0,0,1-.12554-.06514h0a.1.1,0,0,1,.06514-.12554l1.5253-.48314A.1.1,0,0,1,12.9095,203.168Z"
         />
    <path d="M17.87038,203.16511h0a.1.1,0,0,1,.14094.01178l1.03317,1.22169a.1.1,0,0,1-.01178.14094h0a.1.1,0,0,1-.14094-.01178L17.85859,203.306A.1.1,0,0,1,17.87038,203.16511Z"
         />
    <path d="M23.74668,200.29611h0a.1.1,0,0,1,.00326.14139l-1.105,1.15715a.1.1,0,0,1-.14139.00326h0a.1.1,0,0,1-.00326-.14139l1.105-1.15715A.1.1,0,0,1,23.74668,200.29611Z"
         />
    <path d="M15.43312,197.68117v0a.1.1,0,0,1,.11135-.0872l1.58829.19316a.1.1,0,0,1,.0872.11135v0a.1.1,0,0,1-.11135.0872l-1.58829-.19316A.1.1,0,0,1,15.43312,197.68117Z"
         />
    <path d="M24.74645,190.07989h0a.1.1,0,0,1-.06514.12554l-1.5253.48313a.1.1,0,0,1-.12554-.06514h0a.1.1,0,0,1,.06514-.12554l1.5253-.48313A.1.1,0,0,1,24.74645,190.07989Z"
         />
    <path d="M17.02727,208.76807h0a.1.1,0,0,1,.00326.14139l-1.105,1.15715a.1.1,0,0,1-.14139.00326h0a.1.1,0,0,1-.00326-.14139l1.105-1.15715A.1.1,0,0,1,17.02727,208.76807Z"
         />
    <path d="M17.48911,191.32h0a.1.1,0,0,1,.03877.136L16.75,192.85417a.1.1,0,0,1-.136.03877h0a.1.1,0,0,1-.03877-.136l.77791-1.39815A.1.1,0,0,1,17.48911,191.32Z"
         />
    <path d="M21.70836,210.03509h0a.1.1,0,0,1-.13914.02536l-1.31588-.91019a.1.1,0,0,1-.02536-.13914h0a.1.1,0,0,1,.13914-.02536l1.31588.91019A.1.1,0,0,1,21.70836,210.03509Z"
         />
    <path d="M14.42781,207.146h0a.1.1,0,0,1,.05566.13l-.59482,1.48531a.1.1,0,0,1-.13.05566h0a.1.1,0,0,1-.05566-.13l.59482-1.48531A.1.1,0,0,1,14.42781,207.146Z"
         />
    <path d="M23.51761,198.57352v0a.1.1,0,0,1-.11758.0786l-1.56931-.31181a.1.1,0,0,1-.0786-.11758h0a.1.1,0,0,1,.11758-.0786l1.56931.31181A.1.1,0,0,1,23.51761,198.57352Z"
         />
    <path d="M16.71819,205.394h0a.1.1,0,0,1,.1.1v1.6a.1.1,0,0,1-.1.1h0a.1.1,0,0,1-.1-.1v-1.6A.1.1,0,0,1,16.71819,205.394Z"
         />
    <path d="M10.90993,188.98251h0a.1.1,0,0,1,.03877.136l-.77791,1.39815a.1.1,0,0,1-.136.03877h0a.1.1,0,0,1-.03877-.136l.77791-1.39815A.1.1,0,0,1,10.90993,188.98251Z"
         />
    <path d="M13.95833,187.91h0a.1.1,0,0,1-.05115.13186l-1.464.64558a.1.1,0,0,1-.13186-.05115h0a.1.1,0,0,1,.05115-.13186l1.464-.64558A.1.1,0,0,1,13.95833,187.91Z"
         />
    <path d="M17.914,189.26069h0a.1.1,0,0,1-.14075.01389l-1.237-1.01481a.1.1,0,0,1-.01389-.14075h0a.1.1,0,0,1,.14075-.01389l1.237,1.01481A.1.1,0,0,1,17.914,189.26069Z"
         />
    <path d="M24.02212,204.5111h0a.1.1,0,0,1-.13429.04438l-1.42922-.71925a.1.1,0,0,1-.04438-.13429h0a.1.1,0,0,1,.13429-.04438l1.42922.71925A.1.1,0,0,1,24.02212,204.5111Z"
         />
    <path d="M14.32149,200.306v0a.1.1,0,0,1-.09065.10856l-1.59357.14324a.1.1,0,0,1-.10856-.09065v0a.1.1,0,0,1,.09065-.10856l1.59357-.14324A.1.1,0,0,1,14.32149,200.306Z"
         />
    <path d="M19.2934,199.95959h0a.1.1,0,0,1,.0913.108L19.251,201.662a.1.1,0,0,1-.108.0913h0a.1.1,0,0,1-.0913-.108l.13365-1.5944A.1.1,0,0,1,19.2934,199.95959Z"
         />
    <path d="M17.61984,195.25012h0a.1.1,0,0,1-.0388.136l-1.39836.77754a.1.1,0,0,1-.136-.0388h0a.1.1,0,0,1,.0388-.136l1.39836-.77754A.1.1,0,0,1,17.61984,195.25012Z"
         />
    <path d="M24.3359,206.8953h0a.1.1,0,0,1-.06514.12554l-1.5253.48314a.1.1,0,0,1-.12554-.06514h0a.1.1,0,0,1,.06514-.12554l1.5253-.48314A.1.1,0,0,1,24.3359,206.8953Z"
         />
    <path d="M25.7491,192.08477h0a.1.1,0,0,1,.01151.141L24.725,193.4454a.1.1,0,0,1-.141.01151h0a.1.1,0,0,1-.01151-.141l1.03555-1.21968A.1.1,0,0,1,25.7491,192.08477Z"
         />
    <path d="M26.36705,188.35079h0a.1.1,0,0,1-.14.02033l-1.28227-.957a.1.1,0,0,1-.02033-.14h0a.1.1,0,0,1,.14-.02033l1.28227.957A.1.1,0,0,1,26.36705,188.35079Z"
         />
    <path d="M10.46092,186.34254h0a.1.1,0,0,1,.12832.05946L11.14,187.9042a.1.1,0,0,1-.05946.12832h0a.1.1,0,0,1-.12832-.05946l-.55082-1.50219A.1.1,0,0,1,10.46092,186.34254Z"
         /> </g>    
</svg>