<svg id="Clipware8" xmlns="http://www.w3.org/2000/svg" viewBox="0 0 96.95939 220.57471" width="100" height="225">
    <title>Clipware8</title><g fill="#000000" stroke-width="0.2324">
    <path d="M194.68476,73.78653a.77887.77887,0,0,1-.61719-.26807c-.30859-.36035-.22363-.89795-.10645-1.64209a8.36671,8.36671,0,0,0,0-3.31689c-.11719-.74463-.20215-1.28223.10645-1.64258a.77887.77887,0,0,1,.61719-.26807c1.17188,0,1.78516,1.79541,1.78516,3.56885S195.85664,73.78653,194.68476,73.78653Zm-.001-1,.001.5v-.5Zm.17773-5.01172c.01758.18311.05469.42139.08789.62891a9.34557,9.34557,0,0,1,0,3.62793c-.0332.208-.07031.44629-.08789.62891a5.20857,5.20857,0,0,0,0-4.88574Z"
          transform="translate(-99.51053 -41.01261)"/>
    <path d="M193.22871,74.67911a.66853.66853,0,0,1-.25488-.05225c-.49707-.20264-.64062-.82959-.64062-2.79395h1a13.6709,13.6709,0,0,0,.06738,1.59473l.00293-.00293a2.90657,2.90657,0,0,1,.88477-.69043l.38867.92188a2.2476,2.2476,0,0,0-.55859.46777A1.40408,1.40408,0,0,1,193.22871,74.67911Z"
          transform="translate(-99.51053 -41.01261)"/>
    <path d="M190.72383,75.12149a1.04046,1.04046,0,0,1-.36035-.06445c-.73145-.26953-1.05762-1.27979-1.05762-3.2749h1c0,2.12793.39941,2.335.4043,2.33643.10352.04346.44336-.08057,1.48926-1.30811l.26074-.30176.74609.667-.24609.28369C192.3498,74.1752,191.54218,75.12149,190.72383,75.12149Z"
          transform="translate(-99.51053 -41.01261)"/>
    <path d="M187.507,75.50284a.92363.92363,0,0,1-.37109-.07861c-.65918-.28516-.89355-1.23828-.89355-3.64209h1c0,2.2749.23828,2.66943.31152,2.73633a8.857,8.857,0,0,0,1.57227-1.32471l.38867-.36426.68164.73145-.38477.36133C188.80488,74.86905,188.13105,75.50284,187.507,75.50284Z"
          transform="translate(-99.51053 -41.01261)"/>
    <path d="M193.3332,68.49894h-1c0-1.96436.14355-2.59131.64063-2.79395.46582-.18994.82617.17725,1.14453.50293a2.2476,2.2476,0,0,0,.55859.46777l-.38867.92188a2.90657,2.90657,0,0,1-.88477-.69043l-.00293-.00293A13.6709,13.6709,0,0,0,193.3332,68.49894Z"
          transform="translate(-99.51053 -41.01261)"/>
    <path d="M190.30586,68.54923h-1c0-1.99512.32617-3.00488,1.05762-3.27441.93945-.34814,1.89648.77734,2.59766,1.59814l.24512.2832-.74609.667-.25977-.30127c-1.04785-1.22754-1.3877-1.34326-1.49023-1.30908C190.70527,66.21427,190.30586,66.4213,190.30586,68.54923Z"
          transform="translate(-99.51053 -41.01261)"/>
    <path d="M187.24238,68.54923h-1c0-2.40332.23438-3.35645.89355-3.6416.73633-.31836,1.4668.36523,2.67578,1.502l.38477.36133-.68164.73145-.38867-.36426a6.36451,6.36451,0,0,0-1.62793-1.3042A6.96844,6.96844,0,0,0,187.24238,68.54923Z"
          transform="translate(-99.51053 -41.01261)"/>
    <path d="M100.406,91.54532h0l-.18164-.02393c-.65723-.17578-.82959-1.09326-.59521-3.1665a42.98,42.98,0,0,1,1.20312-5.95068c.5166-1.9292,2.32178-8.22363,3.85059-8.22363l.18164.02393c.65674.17578.8291,1.09326.59521,3.1665a42.9658,42.9658,0,0,1-1.20312,5.95068C103.73945,85.25089,101.93427,91.54532,100.406,91.54532ZM104.54121,75.411c-.54639.75391-1.63818,3.12646-2.74316,7.252-1.10547,4.126-1.34668,6.72607-1.25049,7.65234.5459-.75391,1.6377-3.12646,2.74316-7.25244C104.39619,78.9379,104.63691,76.33731,104.54121,75.411Z"
          transform="translate(-99.51053 -41.01261)"/>
    <path d="M138.83955,196.45743c0,5.498,2.064,10.80762,5.39941,13.86914.75391.64844,1.49463,1.19238,2.21045,1.71777,2.20117,1.61621,3.791,2.7832,3.791,5.42773l.00293,9.18262a2.4449,2.4449,0,0,1-.7923,1.208.5362.5362,0,0,1-.05975-.03223.31677.31677,0,0,1,.041.05042c-.03674.03491-.0672.06818-.10736.10388l.05859.066-.88721.03558,1.71484,32.80859c0,.25879.13672.69238,1.0498.69238a25.9099,25.9099,0,0,0,7.44727-1.96191c3.23047-1.4082,5.73633-3.752,5.73535-4.79785l1.627-26.69727-.23437-.02148.23535.00781-.59082-.04.5918.00977-.95367-.04486.05035-.0567c-.02118-.0188-.03668-.03625-.05688-.05487a.31829.31829,0,0,1,.06567-.09943.55557.55557,0,0,1-.10876.05786,2.67756,2.67756,0,0,1-.81506-1.18579v-9.23047c0-2.76074,1.55859-3.96,3.7168-5.62012.60352-.46484,1.24609-.959,1.917-1.53613a19.31975,19.31975,0,0,0,5.957-13.8584V78.144a3.42794,3.42794,0,0,1,.89258-2.53613c1.15039-1.13818,3.14941-1.11963,4.22754-1.10693l.26172.002c.36035,0,.76074-.01465,1.18164-.03027,1.64063-.05957,3.67773-.13477,4.46191.68359l.72266-.69141c-1.09473-1.14355-3.28809-1.062-5.2207-.99121-.4082.01465-.79687.0293-1.14551.0293l-.251-.002c-1.13184-.00928-3.49316-.03711-4.94141,1.396a4.382,4.382,0,0,0-1.18945,3.24707v.7851c-3.40363.064-5.2832,2.08026-5.2832,5.71344V92.075l-9.72461-.16833-.001-32.82568c.03552-.71051.32544-2.65869,1.20844-3.30664a5.84677,5.84677,0,0,0,.91364.4541c5.32422,2.0708,7.06348,4.312,8.59863,6.28955,2.02344,2.60791,3.62207,4.66748,12.03223,4.66748l.376.00293a6.35507,6.35507,0,0,0,4.42285-1.21924l-.61523-.78809a5.40011,5.40011,0,0,1-3.79687,1.00732l-.38672-.00293c-7.91992,0-9.31348-1.79541-11.24219-4.28027-1.53418-1.97705-3.44434-4.438-9.02539-6.6084a4.40757,4.40757,0,0,1-2.91992-4.707c.35254-1.88086,2.18164-3.00391,4.8916-3.00391l20.7334.0083a3.87412,3.87412,0,0,0,1.37207-.31982,2.44249,2.44249,0,0,1,.69434-.19482,2.34811,2.34811,0,0,1,.7207.25732,3.06747,3.06747,0,0,0,1.24316.376,27.1522,27.1522,0,0,0,3.68164-.84229l.36426-.10254V41.95743l-.36426-.10254a27.1522,27.1522,0,0,0-3.68164-.84229,3.06747,3.06747,0,0,0-1.24316.376,2.34811,2.34811,0,0,1-.7207.25732,2.93239,2.93239,0,0,1-.75391-.20166,4.36738,4.36738,0,0,0-1.42676-.3208H163.02656c-5.083,0-10.22949,3.51367-10.22949,10.22949a3.88456,3.88456,0,0,1-2.873,4.124l-.19287.07471c-6.81982,2.728-10.8916,9.22314-10.8916,17.37451V78.246a3.11381,3.11381,0,0,1-.981,2.5249,2.35128,2.35128,0,0,1-2.07422.34619c-2.26367-.54883-4.23193-1.10059-5.13623-1.43945a4.47139,4.47139,0,0,0-3.49622.47827l-19.23474-6.30835c-.05518-.01025-.22705-.0791-.251-.1543-.21875-.6875-.46533-1.31836-1.07227-1.48145a1.09188,1.09188,0,0,0-.28223-.03711c-1.90527,0-4.18457,5.26855-5.49609,10.16309a36.39358,36.39358,0,0,0-1.29248,7.65771c-.09131,2.44482.3125,3.75391,1.23389,4.00049.62939.16992,1.27539-.34961,1.7627-.77588a1.13723,1.13723,0,0,1,.26465.03857l20.147,4.21924.05579.00732a2.6541,2.6541,0,0,0,1.98132,1.32227c.90723.22705,8.92725,2.32275,10.38135,2.80762,1.72559.57568,3.48975,1.42432,3.48975,3.35742Zm1-123.53125c0-7.72754,3.83643-13.87549,10.26318-16.4458l.17773-.06934a7.297,7.297,0,0,0,1.30676-.61871,3.81363,3.81363,0,0,1,1.788,3.0484v32.9541l-8.59375-.14868V84.64249c0-3.52924-1.78271-5.52112-5.00305-5.69214a5.70225,5.70225,0,0,0,.06116-.70435Zm33.94116,22.645-32.89105,1.50006,3.57568-2.84473,25.10223-1.14514Zm-3.6936,100.31689c0,6.3916-5.80273,11.59082-12.93457,11.59082-7.13281,0-12.93555-5.19922-12.93555-11.5918l-.00732-6.50684a1.28849,1.28849,0,0,1,.18518-.4502h8.98035v12.5697a.20615.20615,0,0,0,0,.17517v.00806h.00183c.1131.93024,1.76807,1.26953,3.2052,1.26953,1.46271,0,3.15778-.34882,3.21588-1.31738h.039V188.93009h12.16724l-1.95923,1.7998ZM139.83955,98.132l35.00537-1.59656v.584l-35.00537,1.60938Zm32.79382.09033-3.11609,1.54626-25.13556,1.1463-2.71112-1.26947Zm-27.85193,4.27075v-.5957l8.59375-.39191v.59564Zm9.59375-1.0332,4.46191-.20349v.59558l-4.46191.20355Zm5.46191-.24908,9.32422-.42523.01758.59473-9.3418.42609Zm-15.37122,2.29791,25.10077-1.14508,4.231,2.50079-32.92364,1.502Zm25.05139,5.55383-25.14105,1.14661-2.88629-1.27368,31.14575-1.42035ZM144.78144,111.787v-.5957l8.59375-.39191v.59564Zm9.59375-1.0332,4.46191-.20349v.59558l-4.46191.20355Zm5.46191-.24908,9.32422-.42523.01758.59473-9.3418.42609Zm-15.37122,2.29791,25.10168-1.14508,4.16016,2.45856-32.7926,1.49554Zm25.05139,5.50842-25.14105,1.14661-2.88629-1.27368,31.14575-1.42035Zm-24.73584,2.72449v-.5957l8.59375-.39191v.59564Zm9.59375-1.0332,4.46191-.20349v.59558l-4.46191.20355Zm5.46191-.24908,9.32422-.42523.01758.59473-9.3418.42609Zm-15.37122,2.29791,25.10168-1.14508,4.21387,2.49023-32.89191,1.50012Zm25.05139,5.5426-25.141,1.14661-2.88635-1.27417,31.14679-1.42041Zm-24.73584,2.724v-.59521l8.59375-.39191v.59534Zm9.59375-1.03271,4.46191-.20349v.5954l-4.46191.20343Zm5.46191-.24908,9.32422-.42523.01758.59473-9.3418.4259Zm-15.37122,2.29749,25.10168-1.14465,4.0697,2.40509-32.62659,1.4884Zm25.71918,7.25024-.03-.999,4.68988-2.32721v6.08008Zm-.66785-1.799-25.14093,1.147-2.88635-1.27411,31.14575-1.42035Zm-24.73578,2.72449V138.914l8.59375-.39209v.59552Zm9.59375-1.0329,4.46191-.20361v.5957l-4.46191.20343Zm5.46191-.24921,9.32422-.42542.01758.59521-9.3418.4259Zm-15.37122,2.29779,25.10168-1.14465,3.90857,2.30988L141.148,143.16446Zm25.05139,5.34869-25.14105,1.14661-2.88629-1.27368,31.14575-1.42035Zm-.33838,1.61169-24.39746,1.11279v-.5957l24.37988-1.11182Zm-24.713,2.12842,25.10168-1.14508,4.50073,2.65979-33.42224,1.52429Zm25.05035,5.72522L144.37531,156.485l-2.88538-1.27368,31.14575-1.42035Zm-.33734,1.61072-24.39746,1.11328v-.5957l24.37988-1.11133Zm-24.71234,2.12891,25.10028-1.14551,4.05432,2.396-32.59552,1.487Zm25.04968,5.44006-25.14093,1.14612-2.88538-1.27368,31.14636-1.42035Zm-24.7348,2.724v-.5957l8.59375-.39172v.59564Zm9.59375-1.033,4.46191-.20337v.59558l-4.46191.20343Zm5.46191-.249,9.32422-.425.01758.59473-9.3418.4259Zm-15.37061,2.29767,25.10181-1.14374,4.105,2.426L140.98011,171.032Zm25.04968,5.47424-25.14093,1.147-2.88531-1.27368,31.14618-1.42126Zm-24.73474,2.72491v-.5957l8.59375-.39209v.59564Zm9.59375-1.03339,4.46191-.20361v.59564l-4.46191.20361Zm5.46191-.24921,9.32422-.42541.01758.59473-9.3418.42627Zm-15.37054,2.29822,25.10028-1.14551,4.17859,2.46942-32.82526,1.49744Zm26.67218,9.03223H149.452l20.19-.92145Zm-1.97742-2.49609.01758.59473-9.3418.42627v-.59558Zm-10.32422,1.06665-4.46191.20361v-.59564l4.46191-.20361Zm-5.46191.24921-8.59375.39215v-.5957l8.59375-.39209Zm16.141-2.33276-25.14093,1.147-2.88531-1.27368,31.14618-1.42126Zm-10.67908,17.57166a6.75006,6.75006,0,0,0-2.25488-.34088,6.88921,6.88921,0,0,0-2.207.32007v-11.613h4.46191Zm-.1377,1.02338a6.31906,6.31906,0,0,1-4.23437,0,6.335,6.335,0,0,1,4.23438,0Zm14.39349-13.65723H144.78144v-.4248h27.98175l.4743.292Zm-2.90924-3.18658-.02863-.95074,4.68988-2.32684v6.14673Zm.00146-9.212-.03009-.99847,4.68988-2.32684v6.07916Zm-.00006-9.21387-.03-.99847,4.68988-2.32684v6.07916Zm0-9.18066-.03-.99762,4.68988-2.328v6.07947Zm0-9.46484-.03-.99854,4.68988-2.32721v6.07959Zm0-18.27979-.03-.99854,4.68988-2.32721v6.07959Zm0-9.28271-.03-.99854,4.68988-2.32721v6.07959Zm0-9.24854-.03-.99854,4.68988-2.32721v6.07959Zm0-9.29449-.03-.998,4.68988-2.32721v6.07941Zm-16.80988-8.74744-8.59375.39172V92.6464l8.59375.148ZM127.19795,81.22257c.24951.47559.19678,3.23975-1.05225,7.90234-1.24854,4.65967-2.58447,7.07959-3.03906,7.36865l-.16772-.0351a6.89022,6.89022,0,0,1-.02759-2.08551,36.71841,36.71841,0,0,1,1.124-5.81348c1.13928-4.25281,2.35876-6.69745,2.9928-7.39264ZM101.01582,93.03019c-.15527-.0415-.58008-.68164-.49365-2.99756a35.42293,35.42293,0,0,1,1.25928-7.436c1.68066-6.271,3.80908-9.41895,4.55225-9.41895h.001c.03906.01025.15332.11084.37842.81836a1.13975,1.13975,0,0,0,.47626.609,29.41493,29.41493,0,0,1-1.23358,9.11023,29.70747,29.70747,0,0,1-3.48193,8.50928,1.00942,1.00942,0,0,0-.71875.27979C101.2834,92.99356,101.08808,93.04776,101.01582,93.03019Zm1.6994-.79858a30.62245,30.62245,0,0,0,3.4339-8.4646,30.31478,30.31478,0,0,0,1.25256-9.04218,1.20379,1.20379,0,0,0,.26746.08954h.00049l18.96948,6.22479c-1.05933,1.26154-2.28864,4.79773-2.99048,7.41681a37.14443,37.14443,0,0,0-1.13525,5.88037,8.35079,8.35079,0,0,0-.00214,2.03259l-19.48859-4.08044A2.01612,2.01612,0,0,0,102.71522,92.2316Zm41.06622,9.506v1.03772l-3.94189,3.136v-.93884c0-2.91406-2.92432-3.88965-4.17334-4.30566-1.563-.52148-9.793-2.66357-10.45557-2.8291-.71527-.179-1.15613-.37213-1.30524-.76,1.4765-1.48816,2.89709-6.54071,3.20612-7.69409.3338-1.24542,1.75055-6.81281.972-8.57477a3.204,3.204,0,0,1,2.214-.19476c.95313.35742,2.9165.90869,5.25146,1.47461a4.09325,4.09325,0,0,0,.96582.11963,3.12508,3.12508,0,0,0,1.96191-.65137,3.426,3.426,0,0,0,1.08362-1.62482c2.83148.07928,4.22107,1.61426,4.22107,4.71027v8.851l-4.94189,3.93073v2.002Zm-3.94189,5.677,35.00537-1.59692v.59558l-35.00537,1.59656Zm3.94189,3.625v1.02966l-3.94189,3.136v-5.90509Zm-3.94189,5.62311,35.00537-1.59656v.59564l-35.00537,1.59656Zm3.94189,3.62543v1.02966l-3.94189,3.136V118.5488Zm-3.94189,5.65729,35.00537-1.59656v.59515l-35.00537,1.59656Zm3.94189,3.62543v1.02917l-3.94189,3.136v-5.90491Zm-3.94189,5.56592,35.00537-1.59692v.59558L139.83955,135.732Zm3.94189,3.62549v1.02917l-3.94189,3.136v-5.90491Zm-3.94189,5.463,35.00537-1.59656v.59564l-35.00537,1.59656Zm3.94189,3.62543v1.02966l-3.94189,3.136V146.1113Zm-3.94189,5.8399,35.00537-1.59656v.59515l-35.00537,1.59656Zm3.94189,3.62445v1.02966l-3.94189,3.136V155.576Zm-3.94189,5.55518,35.00537-1.59692v.59656l-35.00537,1.5957Zm3.94189,3.62451v1.02966l-3.94189,3.136v-5.90479Zm-3.94189,5.58936,35.00537-1.59692v.59656l-35.00537,1.59656Zm3.94189,3.62549v1.02966l-3.94189,3.136v-5.90479Zm-3.94189,5.63428,35.00537-1.59692v.59656L139.83955,181.94Zm23.606,73.43488c-.0752.42676-1.82422,2.48633-5.1377,3.93066a25.05054,25.05054,0,0,1-7.04687,1.87793c-.02441,0-.0459,0-.06543-.001l-1.65576-31.68164a33.21271,33.21271,0,0,0,7.74463.62891,33.37853,33.37853,0,0,0,7.7373-.625Zm5.77832-45.21c-.64355.55273-1.27246,1.03613-1.86328,1.49121-2.20312,1.69434-4.10645,3.1582-4.10645,6.41211l.002,9.27246a2.78965,2.78965,0,0,0,.68835,1.40057,46.993,46.993,0,0,1-6.66.38849,46.43308,46.43308,0,0,1-6.72614-.39862,2.75508,2.75508,0,0,0,.68219-1.4295v-9.2334c0-3.15039-1.9458-4.5791-4.19873-6.2334-.70117-.51465-1.42578-1.04687-2.13867-1.65918-2.44775-2.24707-5.06348-6.875-5.06348-13.12207V183.23026l3.94189,1.73907v1.79474l.00128-.00006.0036,1.19049a2.48942,2.48942,0,0,1-.16943.32129,2.34249,2.34249,0,0,0-.40723,1.10449l.00732,6.50781c0,6.94238,6.25146,12.59082,13.93555,12.59082,7.68359,0,13.93457-5.64844,13.93457-12.59473l-.03809-4.71875,3.7959-3.48688v8.77887A18.552,18.552,0,0,1,169.22383,209.56876ZM174.84492,79.928V95.03873l-4.2832-2.53125v-7.865C170.56172,81.52311,171.96949,79.98551,174.84492,79.928Zm17.25781-33.91827a24.16548,24.16548,0,0,1-3.0459.70313,2.39762,2.39762,0,0,1-.82129-.28271,2.83245,2.83245,0,0,0-1.14258-.35059,3.039,3.039,0,0,0-1.04395.25781,3.05921,3.05921,0,0,1-1.02246.25684l-20.7334-.0083c-3.23047,0-5.42578,1.42773-5.875,3.81982a5.16864,5.16864,0,0,0,1.79956,4.75568c-1.20569,1.1532-1.3653,3.57831-1.38062,3.89471V91.88938l-4.46191-.07721V58.84073a4.93247,4.93247,0,0,0-1.94812-3.70947,5.065,5.065,0,0,0,1.37-3.77832,8.93686,8.93686,0,0,1,9.22949-9.22949H184.9123a3.57632,3.57632,0,0,1,1.09668.26465,3.423,3.423,0,0,0,1.084.25781,2.83245,2.83245,0,0,0,1.14258-.35059,2.39762,2.39762,0,0,1,.82129-.28271,24.16548,24.16548,0,0,1,3.0459.70313Z"
          transform="translate(-99.51053 -41.01261)"/>
    <rect x="54.01448" y="196.4629" width="0.2" height="1.8" rx="0.1" ry="0.1"/>
    <rect x="159.58136" y="237.89888" width="0.2" height="1.8" rx="0.1" ry="0.1"
          transform="translate(109.60527 -85.19655) rotate(43.67912)"/>
    <rect x="159.07044" y="233.81785" width="0.2" height="1.8" rx="0.1" ry="0.1"
          transform="translate(-170.58556 28.13133) rotate(-20.13679)"/>
    <rect x="161.82044" y="235.50535" width="0.2" height="1.8" rx="0.1" ry="0.1"
          transform="translate(-0.01971 -84.26466) rotate(21.82415)"/>
    <rect x="163.55377" y="237.50118" width="0.2" height="1.8" rx="0.1" ry="0.1"
          transform="translate(241.99837 -30.61413) rotate(72.42445)"/>
    <rect x="154.96627" y="244.69285" width="0.2" height="1.8" rx="0.1" ry="0.1"
          transform="translate(126.81457 -76.99315) rotate(46.47001)"/>
    <rect x="151.44544" y="238.75535" width="0.2" height="1.8" rx="0.1" ry="0.1"
          transform="translate(0.44492 -80.17472) rotate(21.82415)"/>
    <rect x="60.70574" y="189.63857" width="0.2" height="1.8" rx="0.1" ry="0.1"/>
    <rect x="164.21627" y="230.48451" width="0.2" height="1.8" rx="0.1" ry="0.1"
          transform="translate(-210.07256 119.79892) rotate(-40.22051)"/>
    <rect x="153.98916" y="231.68181" width="0.2" height="1.8" rx="0.1" ry="0.1"
          transform="translate(-194.90465 316.45258) rotate(-83.06598)"/>
    <rect x="151.92877" y="234.56368" width="0.2" height="1.8" rx="0.1" ry="0.1"
          transform="translate(-208.44485 92.20551) rotate(-35.75612)"/>
    <rect x="160.96251" y="247.72551" width="0.2" height="1.8" rx="0.1" ry="0.1"
          transform="translate(4.46175 -83.06988) rotate(21.82415)"/>
    <rect x="151.57044" y="247.19285" width="0.2" height="1.8" rx="0.1" ry="0.1"
          transform="translate(92.78582 -80.84947) rotate(39.47057)"/>
    <rect x="151.71627" y="244.90118" width="0.2" height="1.8" rx="0.1" ry="0.1"
          transform="translate(240.78992 -14.16374) rotate(72.42445)"/>
    <rect x="158.11627" y="245.31368" width="0.2" height="1.8" rx="0.1" ry="0.1"
          transform="translate(-221.09047 119.36608) rotate(-40.22051)"/>
    <rect x="162.78987" y="242.40839" width="0.2" height="1.8" rx="0.1" ry="0.1"
          transform="translate(113.60606 -86.16454) rotate(43.6788)"/>
    <rect x="155.99127" y="239.25118" width="0.2" height="1.8" rx="0.1" ry="0.1"
          transform="translate(-200.65825 325.0956) rotate(-83.06598)"/>
    <rect x="163.55377" y="231.81368" width="0.2" height="1.8" rx="0.1" ry="0.1"
          transform="translate(236.57637 -34.58422) rotate(72.42445)"/>
    <rect x="162.65001" y="228.60051" width="0.2" height="1.8" rx="0.1" ry="0.1"
          transform="translate(104.03298 -89.88943) rotate(43.67912)"/>
    <rect x="156.71627" y="233.56785" width="0.2" height="1.8" rx="0.1" ry="0.1"
          transform="translate(34.27147 -87.67807) rotate(29.09132)"/>
    <rect x="160.63294" y="250.98451" width="0.2" height="1.8" rx="0.1" ry="0.1"
          transform="translate(359.81524 221.97179) rotate(124.67176)"/>
    <rect x="153.75794" y="249.44285" width="0.2" height="1.8" rx="0.1" ry="0.1"
          transform="translate(4.58382 -80.26843) rotate(21.82415)"/>
    <rect x="162.29961" y="239.85951" width="0.2" height="1.8" rx="0.1" ry="0.1"
          transform="matrix(-0.19488, 0.98083, -0.98083, -0.19488, 330.6812, 87.38075)"/>
    <rect x="56.87241" y="206.74274" width="0.2" height="1.8" rx="0.1" ry="0.1"/>
    <rect x="150.13711" y="231.23035" width="0.2" height="1.8" rx="0.1" ry="0.1"
          transform="translate(32.30498 -84.77414) rotate(29.09132)"/>
    <rect x="152.79961" y="229.73451" width="0.2" height="1.8" rx="0.1" ry="0.1"
          transform="matrix(0.40349, 0.91498, -0.91498, 0.40349, 202.72277, -43.33735)"/>
    <rect x="156.88294" y="230.15118" width="0.2" height="1.8" rx="0.1" ry="0.1"
          transform="translate(335.67058 215.21934) rotate(129.3653)"/>
    <rect x="162.88294" y="245.56785" width="0.2" height="1.8" rx="0.1" ry="0.1"
          transform="translate(356.89932 170.6632) rotate(116.71358)"/>
    <rect x="153.08986" y="241.84794" width="0.2" height="1.8" rx="0.1" ry="0.1"
          transform="translate(281.73789 27.42816) rotate(84.86361)"/>
    <rect x="158.88294" y="242.31785" width="0.2" height="1.8" rx="0.1" ry="0.1"
          transform="matrix(0.99651, 0.08352, -0.08352, 0.99651, -78.64069, -53.44152)"/>
    <rect x="156.49802" y="237.14888" width="0.2" height="1.8" rx="0.1" ry="0.1"
          transform="translate(189.03618 -55.51027) rotate(60.92435)"/>
    <rect x="162.58751" y="249.41301" width="0.2" height="1.8" rx="0.1" ry="0.1"
          transform="translate(252.67765 -21.37973) rotate(72.42395)"/>
    <rect x="150.21627" y="236.15118" width="0.2" height="1.8" rx="0.1" ry="0.1"
          transform="translate(89.64607 -81.95364) rotate(40.33287)"/>
    <rect x="152.38294" y="258.15118" width="0.2" height="1.8" rx="0.1" ry="0.1"
          transform="translate(150.54027 -66.28356) rotate(49.4221)"/>
    <rect x="158.06668" y="251.10051" width="0.2" height="1.8" rx="0.1" ry="0.1"
          transform="translate(5.50889 -81.75144) rotate(21.82415)"/>
    <rect x="153.44961" y="251.60535" width="0.2" height="1.8" rx="0.1" ry="0.1"
          transform="translate(-226.25655 117.84024) rotate(-40.22051)"/>
    <rect x="156.23335" y="253.10051" width="0.2" height="1.8" rx="0.1" ry="0.1"
          transform="translate(303.29629 380.93789) rotate(155.88264)"/>
    <rect x="156.38294" y="257.31785" width="0.2" height="1.8" rx="0.1" ry="0.1"
          transform="translate(358.90239 215.92039) rotate(120.97252)"/>
    <rect x="161.06668" y="253.51717" width="0.2" height="1.8" rx="0.1" ry="0.1"
          transform="translate(255.53064 -17.06339) rotate(72.42445)"/>
    <rect x="54.40615" y="213.97123" width="0.2" height="1.8" rx="0.1" ry="0.1"/>
    <rect x="158.78294" y="256.48035" width="0.2" height="1.8" rx="0.1" ry="0.1"
          transform="translate(-228.14351 122.43678) rotate(-40.22051)"/>
    <rect x="151.22634" y="255.44205" width="0.2" height="1.8" rx="0.1" ry="0.1"
          transform="translate(-11.2379 -75.59174) rotate(18.32558)"/>
    <rect x="110.04072" y="88.03713" width="0.2" height="1.8" rx="0.1" ry="0.1"
          transform="translate(-102.70031 132.75959) rotate(-75.73759)"/>
    <rect x="113.47384" y="83.73955" width="0.2" height="1.8" rx="0.1" ry="0.1"
          transform="translate(-127.11658 32.17663) rotate(-32.05809)"/>
    <rect x="109.39272" y="83.2293" width="0.2" height="1.8" rx="0.1" ry="0.1"
          transform="translate(-62.49982 160.64436) rotate(-95.87398)"/>
    <rect x="111.70571" y="80.9798" width="0.2" height="1.8" rx="0.1" ry="0.1"
          transform="translate(-119.72835 82.99328) rotate(-53.91366)"/>
    <rect x="114.06705" y="79.79159" width="0.2" height="1.8" rx="0.1" ry="0.1"
          transform="translate(-103.9832 -34.27956) rotate(-3.3132)"/>
    <rect x="117.95019" y="90.15519" width="0.2" height="1.8" rx="0.1" ry="0.1"
          transform="translate(-127.35022 19.33368) rotate(-25.75707)"/>
    <rect x="112.29951" y="91.8357" width="0.2" height="1.8" rx="0.1" ry="0.1"
          transform="translate(-128.25727 87.93488) rotate(-53.91366)"/>
    <rect x="106.60595" y="81.33863" width="0.2" height="1.8" rx="0.1" ry="0.1"
          transform="translate(-98.79592 124.38363) rotate(-75.73822)"/>
    <rect x="107.42987" y="77.42086" width="0.2" height="1.8" rx="0.1" ry="0.1"
          transform="translate(-15.33254 168.27206) rotate(-115.9582)"/>
    <rect x="104.31674" y="76.79717" width="0.2" height="1.8" rx="0.1" ry="0.1"
          transform="translate(24.55269 165.34583) rotate(-135.33513)"/>
    <rect x="102.31426" y="82.307" width="0.2" height="1.8" rx="0.1" ry="0.1"
          transform="translate(94.39566 137.28021) rotate(-172.98881)"/>
    <rect x="106.07068" y="87.62771" width="0.2" height="1.8" rx="0.1" ry="0.1"
          transform="translate(73.63927 168.44139) rotate(-158.80354)"/>
    <rect x="108.35612" y="90.33459" width="0.2" height="1.8" rx="0.1" ry="0.1"
          transform="translate(-36.20639 184.56399) rotate(-111.49359)"/>
    <rect x="123.34343" y="85.85123" width="0.2" height="1.8" rx="0.1" ry="0.1"
          transform="translate(-118.88211 94.39998) rotate(-53.91357)"/>
    <rect x="120.50774" y="93.79324" width="0.2" height="1.8" rx="0.1" ry="0.1"
          transform="translate(-130.17632 28.59368) rotate(-28.72052)"/>
    <rect x="118.32264" y="93.08732" width="0.2" height="1.8" rx="0.1" ry="0.1"
          transform="translate(-104.74371 -34.01251) rotate(-3.31268)"/>
    <rect x="120.29915" y="86.98621" width="0.2" height="1.8" rx="0.1" ry="0.1"
          transform="translate(-5.43113 193.59515) rotate(-115.95796)"/>
    <rect x="118.63481" y="81.74091" width="0.2" height="1.8" rx="0.1" ry="0.1"
          transform="translate(-125.26878 34.61183) rotate(-32.05834)"/>
    <rect x="113.89999" y="87.55213" width="0.2" height="1.8" rx="0.1" ry="0.1"
          transform="translate(88.79585 171.12597) rotate(-158.80369)"/>
    <rect x="108.55486" y="78.3904" width="0.2" height="1.8" rx="0.1" ry="0.1"
          transform="translate(-103.9111 -34.60098) rotate(-3.31294)"/>
    <rect x="125.19022" y="90.34041" width="0.2" height="1.8" rx="0.1" ry="0.1"
          transform="translate(-128.83359 39.40254) rotate(-32.05829)"/>
    <rect x="108.57044" y="85.44931" width="0.2" height="1.8" rx="0.1" ry="0.1"
          transform="translate(-128.22956 65.07506) rotate(-46.64616)"/>
    <rect x="126.41521" y="85.9442" width="0.2" height="1.8" rx="0.1" ry="0.1"
          transform="translate(9.36918 -106.60529) rotate(48.93378)"/>
    <rect x="123.22731" y="92.22749" width="0.2" height="1.8" rx="0.1" ry="0.1"
          transform="translate(-124.08277 96.92645) rotate(-53.91345)"/>
    <rect x="116.04371" y="81.58811" width="0.2" height="1.8" rx="0.1" ry="0.1"
          transform="translate(-52.68232 -82.97935) rotate(25.50094)"/>
    <rect x="122.23853" y="89.26766" width="0.2" height="1.8" rx="0.1" ry="0.1"
          transform="translate(-94.69976 145.50933) rotate(-75.73784)"/>
    <rect x="104.68412" y="91.24982" width="0.2" height="1.8" rx="0.1" ry="0.1"
          transform="translate(-133.66554 64.06851) rotate(-46.64651)"/>
    <rect x="103.89034" y="88.30086" width="0.2" height="1.8" rx="0.1" ry="0.1"
          transform="translate(-112.84861 -22.55655) rotate(-9.53388)"/>
    <rect x="105.30015" y="84.44604" width="0.2" height="1.8" rx="0.1" ry="0.1"
          transform="translate(12.10258 -91.14548) rotate(53.62745)"/>
    <rect x="121.71982" y="82.42908" width="0.2" height="1.8" rx="0.1" ry="0.1"
          transform="translate(-15.02074 -100.47804) rotate(40.97583)"/>
    <rect x="115.70191" y="91.00386" width="0.2" height="1.8" rx="0.1" ry="0.1"
          transform="translate(-83.46789 -58.21645) rotate(9.12616)"/>
    <rect x="117.58453" y="85.50511" width="0.2" height="1.8" rx="0.1" ry="0.1"
          transform="translate(-101.91527 128.42297) rotate(-70.94669)"/>
    <rect x="111.98733" y="86.54307" width="0.2" height="1.8" rx="0.1" ry="0.1"
          transform="translate(-118.14171 -9.44916) rotate(-14.81322)"/>
    <rect x="125.43484" y="82.2671" width="0.2" height="1.8" rx="0.1" ry="0.1"
          transform="translate(-104.10694 -33.61898) rotate(-3.31296)"/>
    <rect x="118.76985" y="78.46505" width="0.2" height="1.8" rx="0.1" ry="0.1"
          transform="translate(-117.40463 79.87926) rotate(-50.6199)"/>
    <rect x="123.16317" y="79.0342" width="0.2" height="1.8" rx="0.1" ry="0.1"
          transform="translate(-123.15961 39.19551) rotate(-33.06959)"/>
    <rect x="127.20773" y="81.12586" width="0.2" height="1.8" rx="0.1" ry="0.1"
          transform="translate(-123.49027 47.91247) rotate(-35.40523)"/>
    <rect x="111.21359" y="77.74803" width="0.2" height="1.8" rx="0.1" ry="0.1"
          transform="translate(-124.49104 38.0198) rotate(-35.4045)"/>
    <rect x="113.42427" y="75.81646" width="0.2" height="1.8" rx="0.1" ry="0.1"
          transform="translate(-50.09926 -85.38578) rotate(28.05054)"/>
    <rect x="106.90556" y="73.38556" width="0.2" height="1.8" rx="0.1" ry="0.1"
          transform="translate(-2.12515 -96.63465) rotate(50.99553)"/>
    <rect x="110.43687" y="74.72439" width="0.2" height="1.8" rx="0.1" ry="0.1"
          transform="translate(-52.88685 152.30865) rotate(-95.87481)"/>
    <rect x="101.87635" y="85.721" width="0.2" height="1.8" rx="0.1" ry="0.1"
          transform="translate(-127.63486 14.36439) rotate(-26.84132)"/>
    <rect x="102.01888" y="90.57232" width="0.2" height="1.8" rx="0.1" ry="0.1"
          transform="translate(-134.03362 61.61413) rotate(-46.51903)"/></g>
</svg>