<svg id="Clipware15" xmlns="http://www.w3.org/2000/svg" viewBox="0 0 96.60495 195.79993" width="100" height="200">
    <title>Clipware15</title> <g fill="#000000" stroke-width="0.2324">
    <path d="M154.15961,115.95018a9.17637,9.17637,0,0,0,1.37164-9.78839l-8.18408-20.25586a7.81391,7.81391,0,0,0-4.72363-4.65723,9.32217,9.32217,0,0,0-6.52051.31641c-1.68311.68018-6.08838,2.46924-6.08838,2.46924l-1.814.7417c-.70215.27979-1.5708-.68018-2.02783-1.27734a15.76589,15.76589,0,0,1-1.85425-3.35809l.00562-.00226c-.63037-1.561-1.05127-2.60254-1.34863-3.28955a.86919.86919,0,0,0-.02295-.09375l.00439-.00146-.03418-.08447-.00342-.00781c-.86133-2.13135-.44629-2.60205.03467-3.14746.03308-.03748.06671-.08459.10059-.12384a2.2948,2.2948,0,0,0,.76123.12286,26.09589,26.09589,0,0,0,7.688-2.11914,37.46651,37.46651,0,0,0,5.4248-2.65527,5.88037,5.88037,0,0,0,2.027-1.712c.17938.05774.35242.10583.51447.14807.80322.209,1.334.34717,1.999,1.99268l47.21729,116.8667.04883.0918c.09424.14063,2.26709,3.49609-.66406,8.49414l-.12646.21582,2.29,5.45313a2.513,2.513,0,0,0,1.01019,1.26825,37.111,37.111,0,0,1-5.89154,2.85675,35.09867,35.09867,0,0,1-6.25745,2.02625,2.4368,2.4368,0,0,0-.13708-1.52136l-2.1748-5.57422-.24023-.06738c-5.58105-1.55957-6.34814-5.48242-6.37842-5.64844L138.541,115.32633l-.92676.375,31.57764,78.15674c.11475.55762,1.13916,4.61523,6.84131,6.3125l2.02051,5.168a1.81171,1.81171,0,0,1-.16406,1.57422l-.10986.1748,14.73242,31.334a1.28387,1.28387,0,0,0,1.62939,1.115c1.47168-.21252,3.54565-1.90967,5.21094-3.93726a12.54906,12.54906,0,0,0,2.83246-5.30634l.0354-.45038a1.56492,1.56492,0,0,0-.35815-1.07758l-9.1889-27.64716-.25732-.07422a1.8183,1.8183,0,0,1-1.23682-1.07617l-2.12012-5.05957c2.92236-5.18164.84131-8.8125.53613-9.29395L142.396,68.79216c-.853-2.11133-1.77881-2.35254-2.67383-2.58545a5.14673,5.14673,0,0,1-.80591-.27814L132.373,46.74479c-.0376-.08984-.07373-.2583-.08594-.26855a1.88879,1.88879,0,0,0,.58252-1.80273c-.248-.61475-.96924-.91357-2.20361-.91357a12.686,12.686,0,0,0-2.02606.2002,19.87147,19.87147,0,0,0-3.2312.76068c-.10541.03082-.21265.06451-.31921.09668-.06323.02-.12476.03876-.18878.05933-1.15753.35577-2.37024.78113-3.59558,1.27618-1.385.55963-2.70123,1.16626-3.89209,1.788a21.17845,21.17845,0,0,0-2.16638,1.23871c-.29163.18384-.57361.36731-.83508.54944-2.00781,1.39844-2.81006,2.5083-2.45215,3.39307.23535.58252.8916.75049,1.60107.88379.06885.0127.15479.146.208.2915l8.61725,18.33508c-.058.07251-.11511.1441-.18219.22009a2.79874,2.79874,0,0,0-.60449,3.002l-.06787.04.1875.46338c.01416.03613.02832.07129.042.105l.26367.65186.00537.01318,1.36694,3.38348-.00562.00226a3.40619,3.40619,0,0,1,.123,2.67188c-.63525,1.47021-2.49561,2.19385-3.49512,2.583l-.27246.10742c-.334.13477-.7002.29883-1.085.4707-1.41394.63275-3.14532,1.39807-4.208,1.09149a.96557.96557,0,0,0-.52783-.17645c-.7392-.00366-1.17126.79022-1.79535,2.13141a1.443,1.443,0,0,0-1.06207-.58063c-.84973.02655-1.31409,1.04126-1.64459,1.97394a1.35819,1.35819,0,0,0-.808-.428c-.7959-.0835-1.33936.68652-1.769,1.30957a4.71319,4.71319,0,0,1-.37018.49292c-.01337.00476-.02875.00275-.04193.00806-.29932.12109-.80469.49414-.81885,1.63184a6.315,6.315,0,0,0,.50146,2.34912c.54639,1.35352,1.55957,2.71973,2.58984,2.71973a1.06529,1.06529,0,0,0,.40381-.07764,1.09881,1.09881,0,0,0,.1814-.09882c.1283.01917.26965.045.42456.07635a5.6877,5.6877,0,0,0,1.0957.14795,1.32984,1.32984,0,0,0,1.08594-.43457,1.38672,1.38672,0,0,0,.26776-.8772,4.36042,4.36042,0,0,0,1.77765.56616,1.13654,1.13654,0,0,0,.79248-.28076,1.3769,1.3769,0,0,0,.3739-1.15045,6.50462,6.50462,0,0,0,2.01331.56891.95607.95607,0,0,0,1.00812-.83289c.56842-.94391,2.32629-1.58954,3.76971-2.11145.39648-.14355.77344-.27979,1.10742-.415l.27-.11182c.98975-.41406,2.832-1.1875,4.30908-.56982a3.40558,3.40558,0,0,1,1.76758,2.00781l.00586-.00238,2.2868,5.66077-.00555.00226.00146.00354a3.40453,3.40453,0,0,1,.12158,2.66882c-.63477,1.46973-2.49512,2.19434-3.49463,2.5835l-.27246.10693c-.335.13525-.70166.29932-1.0874.47168-1.413.63226-3.1438,1.39709-4.20551,1.09058a.966.966,0,0,0-.52789-.17651c-.739.00916-1.16962.788-1.79071,2.12146a1.34277,1.34277,0,0,0-1.06671-.57019c-.84949.02612-1.31415,1.04083-1.64478,1.97327a1.3581,1.3581,0,0,0-.80786-.42786c-.8042-.08984-1.33936.686-1.769,1.30957a4.71318,4.71318,0,0,1-.37018.49292c-.01337.00476-.02875.00275-.04193.00806-.29932.12109-.80469.49414-.81885,1.63184a6.315,6.315,0,0,0,.50146,2.34912c.54639,1.35352,1.55957,2.71973,2.58936,2.71973h.00049a1.06711,1.06711,0,0,0,.40381-.07764,1.09349,1.09349,0,0,0,.18085-.09845c.1283.01929.26965.0451.42462.07648a5.68738,5.68738,0,0,0,1.0957.14746,1.33082,1.33082,0,0,0,1.08643-.43457,1.38672,1.38672,0,0,0,.26776-.8772,4.36042,4.36042,0,0,0,1.77765.56616,1.13735,1.13735,0,0,0,.79248-.28076,1.37682,1.37682,0,0,0,.37384-1.15027,6.49219,6.49219,0,0,0,2.01288.56873.95517.95517,0,0,0,1.00861-.83295c.56854-.94348,2.32538-1.589,3.76825-2.1109.397-.14355.77441-.28027,1.10889-.41553l.27-.11182c.98975-.41357,2.832-1.18652,4.30859-.56982a3.40621,3.40621,0,0,1,1.76807,2.00781l.92676-.375a13.28391,13.28391,0,0,1-.94336-3.55273c-.0918-1.12939.1416-1.81543.69434-2.03857l1.81641-.73389a3.10507,3.10507,0,0,1,2.19678.21582,3.54083,3.54083,0,0,1,1.91211,1.82715l2.06958,5.122-4.09058,3.17047a2.44724,2.44724,0,0,0,2.43353,4.15491l2.54352-.06573-2.53174,1.9621a2.44853,2.44853,0,0,0,2.44733,4.15118l2.65338-.02588-2.61536,2.027a2.44722,2.44722,0,0,0,2.42615,4.15729l2.489-.08594-2.49036,1.93011a2.44844,2.44844,0,0,0,2.44434,4.15192l2.54492-.03247-2.53174,1.9621a2.45062,2.45062,0,0,0,2.47589,4.1427l2.63861.06348-2.60083,2.0155a2.44793,2.44793,0,0,0,2.437,4.15466l2.40106-.049-2.42151,1.87671a2.45075,2.45075,0,0,0,2.473,4.14368l2.36823.06366-2.392,1.8537a2.44928,2.44928,0,0,0,2.44781,4.15179l2.52722-.02087-2.51752,1.95111a2.449,2.449,0,0,0,2.45471,4.149l2.50977.00256-2.50354,1.94025a2.45534,2.45534,0,0,0,2.52417,4.12915l2.78717-.11383a8.2121,8.2121,0,0,0-1.71368,5.62726,4.68934,4.68934,0,0,0,.41895,1.84668l.11572.27539a7.89393,7.89393,0,0,0,8.61859,4.8717,9.13077,9.13077,0,0,1,2.10992,1.39294l.71.60449.11084-.92578a10.22364,10.22364,0,0,1,.65149-2.60443,7.95212,7.95212,0,0,0-.82141-13.20026l1.56787-1.21387a2.45111,2.45111,0,0,0-2.31042-4.25006l-2.27686.093,2.21472-1.715a2.4564,2.4564,0,0,0-1.51074-4.39355,2.42681,2.42681,0,0,0-.789.14038l-2.54291.00568,2.38171-1.8443a2.46343,2.46343,0,0,0,.7666-2.85742,2.49009,2.49009,0,0,0-3.07019-1.39355l-2.50769-.00775,2.35376-1.82281a2.45668,2.45668,0,0,0-1.51074-4.394,2.43012,2.43012,0,0,0-.76038.13232l-.00037-.00879-2.50488.02881,2.32764-1.81982a2.4656,2.4656,0,0,0,.7666-2.85791,2.49074,2.49074,0,0,0-3.045-1.40076l-2.45038.06708,2.31183-1.79034a2.451,2.451,0,0,0-2.32526-4.24469l-2.65265-.06879,2.46423-1.9082a2.45072,2.45072,0,0,0-2.30707-4.25055l-2.49011-.01965,2.33966-1.81183a2.45668,2.45668,0,0,0-1.51074-4.394,2.43052,2.43052,0,0,0-.78552.13977l-2.39856.01068,2.27-1.75787a2.45122,2.45122,0,0,0-2.32874-4.2439l-2.50983-.08563,2.35321-1.82233a2.45065,2.45065,0,0,0-2.30707-4.25043ZM108.73584,97.8654a.07286.07286,0,0,1-.02881.00439c-.334,0-1.11816-.74609-1.66309-2.09473a5.38466,5.38466,0,0,1-.42822-1.96143c.00635-.48535.1333-.69287.22266-.72217.334,0,1.11816.74609,1.66309,2.09521a5.38439,5.38439,0,0,1,.42822,1.96094C108.92334,97.633,108.79639,97.84049,108.73584,97.8654Zm21.54639-2.96393c-.98389-2.43555-1.44238-5.10931-.24951-5.59125l1.81445-.74219s4.20459-1.708,6.08838-2.46924c2.2998-.93115,4.07959-.3335,4.87793,1.63965l8.18408,20.25586a4.7525,4.7525,0,0,1-.738,4.96637l-1.49878-3.70953c-2.02783-5.019-7.99414-5.79248-10.49121-4.78516l-1.81689.73438c-.69824.28271-1.56982-.6792-2.02783-1.27734a15.73026,15.73026,0,0,1-1.85431-3.35828l-.00061-.00189.00531-.00214-2.28711-5.66162Zm-13.29443,23.38776a.07091.07091,0,0,1-.02881.00439c-.334,0-1.11816-.74609-1.66309-2.09473a5.38467,5.38467,0,0,1-.42822-1.96143c.00635-.48535.1333-.69287.22266-.72217.334,0,1.11816.74609,1.66309,2.09521a5.38439,5.38439,0,0,1,.42822,1.96094C117.17529,118.0568,117.04834,118.26432,116.98779,118.28923Zm28.14941-7.62061a4.54173,4.54173,0,0,0-2.44043-2.36963,3.99241,3.99241,0,0,0-2.97021-.22559l-1.81592.73389c-.69092.27881-1.48,1.03369-1.31641,3.04639a9.51321,9.51321,0,0,0,.1911,1.22815,3.63363,3.63363,0,0,0-.56122-.31213c-1.86133-.77686-4.03613.1333-5.07959.57031l-.25879.10742c-.32373.13086-.68945.2627-1.07373.40186a12.448,12.448,0,0,0-3.577,1.7334,16.98762,16.98762,0,0,0-.65057-1.85156l-.92676.375a10.07317,10.07317,0,0,1,.77417,2.45056c-.02881.05768-.06952.1095-.09351.16956l.01233.00494a8.50494,8.50494,0,0,1-1.91125-.608l-.299-.11566c-.10052-.33972-.2301-.71124-.3988-1.12848l-.92676.375c.79785,1.97559.50439,2.31787.501,2.32031-.084.07617-.43945.09229-1.874-.65527l-.2359-.12085c-.07263-.23267-.14581-.46558-.25531-.73657l-.92676.375c.59717,1.47852.3833,1.7998.35693,1.83154-.13525.16309-.86377.01611-1.21484-.0542l-.05658-.01068a2.88837,2.88837,0,0,0,.0722-.6192,6.31477,6.31477,0,0,0-.501-2.34814,5.33274,5.33274,0,0,0-1.82458-2.4837c.022-.03186.04346-.06055.0658-.093.20264-.29395.60205-.90234.83643-.88281.041.00439.418.08691,1.01563,1.56592l.92676-.375c-.1084-.26837-.21637-.50153-.32465-.71771l.08246-.2403c.5127-1.53467.7793-1.76953.89258-1.77295.00586,0,.45459.04492,1.252,2.01758l.92676-.375c-.16766-.415-.33331-.7713-.49811-1.08569l.1358-.29321a9.56133,9.56133,0,0,1,.94867-1.80426l-.01166.02594c.043.01929.09058.02545.13446.04205a7.91988,7.91988,0,0,1,1.20636,2.34174l.92676-.375a16.813,16.813,0,0,0-.8288-1.80389,12.47382,12.47382,0,0,0,3.77655-1.242c.37354-.167.72852-.32617,1.05322-.45752l.26074-.10254c1.05469-.41064,3.249-1.26514,4.0498-3.11865a3.63917,3.63917,0,0,0,.18488-.608,12.197,12.197,0,0,0,.7619,1.13287c1.39648,1.82422,2.50879,1.87451,3.19727,1.59619l1.81641-.73437c1.92383-.77686,7.36914-.27246,9.18994,4.2334l1.64136,4.06244-2.37415,1.84015Zm3.39063,11.7002-2.30908.04785,1.97144-1.52344.53473,1.32379-.197.15271Zm4.65643-5.37836,2.33136-.02692-2.77423,2.14063-.52582-1.30176A10.64791,10.64791,0,0,0,153.18426,116.99046Zm-1.79877,1.42627.53473,1.32385-2.37421,1.84-.53473-1.32379ZM148.553,128.55955l2.083-1.6131.57459,1.42249-.21814.16907Zm5.279-4.088.57391,1.42084-2.37415,1.84009-.5744-1.42206ZM151.12152,134.647l1.99982-1.54864.5141,1.272-.23767.1842Zm5.1958-4.02356.51343,1.27039-2.37421,1.84015-.51392-1.27161Zm-.42181,9.98077-2.36426.04688,2.015-1.55133.54639,1.35266-.197.15271Zm2.84662-3.97937.54578,1.35114-2.37421,1.84-.5462-1.35223ZM155.90625,146.776l2.09723-1.59442.60291,1.49249-.2146.16626Zm5.29327-4.06921.60223,1.491-2.37421,1.84-.60272-1.49213Zm-2.6839,10.24109,2.00171-1.54407.5058,1.25226-.30646.23749Zm5.19763-4.0191.50525,1.25085-2.37421,1.84-.50568-1.25189Zm-2.76013,9.98785,1.98108-1.53143.53809,1.33215-.33514.25977Zm5.17676-4.006.53778,1.33051-2.37421,1.8399-.538-1.33179ZM163.375,164.99479l2.00812-1.54755.54651,1.35217-.25775.211Zm5.2041-4.02258.54572,1.351-2.37408,1.8399-.54633-1.35181Zm-2.71973,10.08508,1.98077-1.52875.55042,1.36267-.22235.1723Zm5.17664-4.00348.5498,1.36108-2.37408,1.8399-.55023-1.36224Zm-2.679,10.07227,1.94434-1.50574.47272,1.16956c-.08307.0766-.1687.15741-.25977.248Zm5.14008-3.98047.461,1.14124-2.37372,1.84-.46173-1.14246Zm5.62885,17.63922c-.19537-.146-.42017-.30017-.65247-.45062.10608-.03772.21307-.06842.31848-.1109.17657-.07135.34387-.15558.51245-.238C179.23382,190.26591,179.17145,190.54222,179.126,190.78483Zm-5.06348-11.58691c-.78418.63379-2.96875,2.46875-2.00244,5.16211a3.9355,3.9355,0,0,0,3.75146,2.53027,4.04044,4.04044,0,0,0,.3114-8.06934l2.82483-2.1875a6.95715,6.95715,0,0,1-1.86176,13.05042l-.13544.02008a6.96718,6.96718,0,0,1-7.59119-4.25311l-.123-.29395a3.71831,3.71831,0,0,1-.34131-1.52539,7.93867,7.93867,0,0,1,3.21582-6.64844l6.87646-5.3291a1.46848,1.46848,0,0,1,.33643-.19141,1.44319,1.44319,0,0,1,.54346-.10645,1.457,1.457,0,0,1,.89941,2.60449Zm1.74707.59961a3.04639,3.04639,0,1,1-2.82275,4.1875c-.53662-1.32812.00293-2.56055,1.75049-3.99023A3.01522,3.01522,0,0,1,175.80957,179.79753Zm1.65625-8.22974-2.68658,2.08258-.46082-1.14075,1.10864-.85852Zm.03076-6.08276a1.45618,1.45618,0,0,1,.89746,2.60352l-11.62891,9.00586a1.45981,1.45981,0,0,1-.29785.16309,1.47841,1.47841,0,0,1-1.89551-.80469,1.44986,1.44986,0,0,1,.36475-1.62012l11.6792-9.05078a1.41687,1.41687,0,0,1,.33594-.19043A1.43831,1.43831,0,0,1,177.49658,165.485Zm-4.69678.20313,2.35645-.03711-2.74933,2.12744-.54962-1.36066.9425-.72986Zm2.23535-6.29541a1.45677,1.45677,0,0,1,.89795,2.604l-11.62939,9.00586a1.45616,1.45616,0,0,1-.29736.16309,1.47948,1.47948,0,0,1-1.896-.80371,1.452,1.452,0,0,1,.36523-1.62109l11.67822-9.0498a1.45848,1.45848,0,0,1,.88135-.29834Zm-2.37891.1958-2.71027,2.09821-.54559-1.35065.92773-.73193Zm-.07812-6.27734a1.45646,1.45646,0,0,1,.89746,2.604l-11.62646,9.00439a1.49985,1.49985,0,0,1-.30029.16406,1.47464,1.47464,0,0,1-1.89551-.80469,1.44986,1.44986,0,0,1,.36475-1.62012l11.67822-9.0498a1.46644,1.46644,0,0,1,.88184-.29785Zm-2.37463.18976-2.71472,2.10382-.5376-1.33014.96033-.74359Zm-.07458-6.25177a1.45705,1.45705,0,0,1,.89795,2.60449l-11.62842,9.00488a1.45853,1.45853,0,0,1-.29883.16357,1.47768,1.47768,0,0,1-1.89551-.8042,1.45138,1.45138,0,0,1,.36475-1.62109l11.67871-9.0498a1.47171,1.47171,0,0,1,.33691-.19141A1.453,1.453,0,0,1,170.12891,147.24919Zm-2.34631.16827-2.74292,2.12579-.50513-1.25049,1.01312-.78461Zm-.07019-6.14972a1.45659,1.45659,0,0,1,.89746,2.604l-11.62793,9.00537a1.45748,1.45748,0,0,1-2.19482-.6416,1.45178,1.45178,0,0,1,.36523-1.62061l11.67871-9.0498a1.46408,1.46408,0,0,1,.88135-.29736Zm-2.25928.10205-2.8302,2.19159-.60211-1.4906.96338-.746Zm-.25488-6.32422a1.45705,1.45705,0,0,1,.89795,2.60449l-11.62842,9.00488a1.45672,1.45672,0,0,1-2.19434-.64062,1.45153,1.45153,0,0,1,.36523-1.62109l11.67822-9.0498a1.47957,1.47957,0,0,1,.33691-.19141A1.453,1.453,0,0,1,165.19824,135.04557Zm-2.38574.21484-2.70343,2.0791-.54559-1.35071.985-.76288Zm-.07129-6.29639a1.45646,1.45646,0,0,1,.89746,2.604l-11.62891,9.00586a1.4408,1.4408,0,0,1-.29785.1626,1.47586,1.47586,0,0,1-1.896-.80469,1.452,1.452,0,0,1,.36523-1.62061l11.67725-9.04932a1.47591,1.47591,0,0,1,.33838-.19141A1.453,1.453,0,0,1,162.74121,128.964Zm-2.36621.187-2.72314,2.10638-.51324-1.27,1.09576-.852Zm-.05859-6.189a1.45683,1.45683,0,0,1,.89746,2.60449l-11.62793,9.00488a1.44948,1.44948,0,0,1-.29932.16357,1.4798,1.4798,0,0,1-1.89551-.80518,1.45121,1.45121,0,0,1,.36523-1.62012l11.67725-9.04932a1.48568,1.48568,0,0,1,.33838-.19189A1.453,1.453,0,0,1,160.31641,122.96208Zm-2.28516.11084-2.8042,2.183-.57379-1.42047,1.08112-.8407Zm-.2002-6.2627a1.45705,1.45705,0,0,1,.89746,2.60449l-11.62793,9.00488a1.45748,1.45748,0,0,1-2.19482-.6416,1.451,1.451,0,0,1,.36523-1.62012l11.67822-9.0498a1.47957,1.47957,0,0,1,.33691-.19141A1.45545,1.45545,0,0,1,157.83105,116.81022ZM128.57519,85.70329l1.81494-.74219s4.40479-1.78906,6.08789-2.46924a8.32108,8.32108,0,0,1,5.81836-.29834,6.84438,6.84438,0,0,1,4.124,4.0874l8.18408,20.25586a8.52913,8.52913,0,0,1-3.30664,10.68652l-6.64258,5.14453a1.47767,1.47767,0,0,1-.29883.16357,1.4575,1.4575,0,0,1-1.53076-2.42529l7.64551-5.92529a5.898,5.898,0,0,0,1.45313-6.56152l-8.18408-20.25586c-1.00342-2.48535-3.37158-3.3252-6.17969-2.19141-1.88379.76123-6.08887,2.46924-6.08887,2.46924l-1.81348.7417c-1.51141.611-1.48785,2.5531-1.11792,4.27869a3.63147,3.63147,0,0,0-.56763-.3158c-1.86377-.77588-4.03662.1333-5.08057.57031l-.25781.10742c-.32373.13037-.689.26221-1.07275.40137a12.44716,12.44716,0,0,0-3.57837,1.73389,16.97235,16.97235,0,0,0-.65063-1.85156l-.92676.375a10.09048,10.09048,0,0,1,.77435,2.45038c-.02887.05774-.06964.10962-.09369.16974l.01172.0047a8.45269,8.45269,0,0,1-1.90918-.60724l-.30023-.11609c-.10052-.33978-.22992-.7113-.3985-1.12854l-.92676.375c.79785,1.9751.50391,2.31738.50049,2.32031-.08057.07813-.43652.09424-1.874-.65527l-.2359-.12085c-.07263-.23267-.14581-.46558-.25531-.73657l-.92676.375c.59717,1.47852.3833,1.79932.35693,1.83105-.13623.16211-.86475.01611-1.21436-.0542l-.05695-.01074a2.89227,2.89227,0,0,0,.07208-.61865,6.31477,6.31477,0,0,0-.501-2.34814,5.33274,5.33274,0,0,0-1.82458-2.4837c.022-.03186.04346-.06055.0658-.093.20264-.29395.62354-.9043.83643-.88281.041.00439.418.08691,1.01563,1.56592l.92676-.375c-.10834-.26819-.21625-.50122-.32446-.71729l.08228-.24023c.5127-1.53516.7793-1.77.89258-1.77393.00586,0,.45459.04541,1.252,2.01758l.92676-.375a11.65827,11.65827,0,0,0-.49915-1.08325l.13733-.29663a9.598,9.598,0,0,1,.94812-1.80273l-.0116.02588c.043.01935.0907.02545.1347.04211a7.921,7.921,0,0,1,1.20612,2.34167l.92676-.375a16.801,16.801,0,0,0-.8288-1.80389,12.47463,12.47463,0,0,0,3.7785-1.243c.373-.167.728-.32617,1.05176-.457l.26025-.10205c1.05469-.41064,3.24951-1.26465,4.05029-3.11865a3.63593,3.63593,0,0,0,.18481-.60822,12.19826,12.19826,0,0,0,.762,1.13263C126.77392,85.92887,127.88721,85.98014,128.57519,85.70329Zm.6084-40.78223a27.04619,27.04619,0,0,1-6.85693,3.6001,27.23872,27.23872,0,0,1-7.43555,2.167,9.08841,9.08841,0,0,1,1.34814-.94586c.03583-.02155.06866-.043.10492-.06458a40.3727,40.3727,0,0,1,5.40387-2.59015c1.36389-.55084,2.59369-.98926,3.6568-1.324l.02936-.00928c.07977-.025.1488-.04364.22668-.0675a27.3963,27.3963,0,0,1,3.06464-.72974A4.57458,4.57458,0,0,1,129.18359,44.92106Zm-15.439,8.10205c-.72949-.13721-.84326-.23877-.8584-.27588-.04584-.11365.09845-.56506,1.01184-1.36017a1.39607,1.39607,0,0,0,.94812.30157c1.40283,0,4.48633-.87939,7.85547-2.24072a42.8637,42.8637,0,0,0,5.47656-2.62061c1.49329-.88159,2.17-1.50549,2.213-2.05353.08936-.00311.19055-.01385.27484-.01385.95166,0,1.24414.208,1.27686.28857.00293.00732.06592.18408-.43262.79736a1.02576,1.02576,0,0,0-.19336.75116,29.741,29.741,0,0,1-8.01807,4.48956,29.48862,29.48862,0,0,1-8.89191,2.33728A1.12994,1.12994,0,0,0,113.74463,53.02311Zm.80322.59351a30.27543,30.27543,0,0,0,8.82617-2.34448,30.62947,30.62947,0,0,0,7.98181-4.43909,1.77755,1.77755,0,0,0,.08264.26624l6.4389,18.87933a8.32449,8.32449,0,0,0-2.01849.24762,42.14484,42.14484,0,0,0-11.07764,4.47559,8.35045,8.35045,0,0,0-1.62476,1.22223l-8.45874-17.99078A1.62164,1.62164,0,0,0,114.54785,53.61662ZM131.12891,70.467a25.6902,25.6902,0,0,1-7.313,2.0459,1.56052,1.56052,0,0,1-.33276-.028l-.07465-.02484-.06622-.14075a6.88807,6.88807,0,0,1,1.64941-1.27716,41.74577,41.74577,0,0,1,10.95215-4.4248,6.86356,6.86356,0,0,1,2.07416-.2265l.05475.16058C137.84326,67.03678,135.604,68.65837,131.12891,70.467Zm61.64795,166.1665-13.71191-29.16113a35.30825,35.30825,0,0,0,6.66357-2.13086,29.11875,29.11875,0,0,0,6.25781-3.12012l8.68555,26.13379c-1.34912.14258-3.44336,1.70215-5.30518,3.9707A15.01775,15.01775,0,0,0,192.77685,236.63346Zm5.80322-1.66895c-2.35217,2.86377-4.40936,3.828-4.90875,3.57184l-.18256-.38824c-.043-.93457.83643-2.97852,2.65088-5.1875,1.92725-2.34863,3.87451-3.61621,4.728-3.61621a.36934.36934,0,0,1,.23438.06055C201.5166,229.74479,201.002,232.01628,198.58008,234.96452Z"
          transform="translate(-105.61544 -43.75993)"/>
    <rect x="121.11081" y="57.12322" width="0.2" height="1.8" rx="0.1" ry="0.1"
          transform="translate(-118.69322 9.23037) rotate(-23.43394)"/>
    <rect x="126.6106" y="57.21183" width="0.2" height="1.8" rx="0.1" ry="0.1"
          transform="translate(-77.67765 -84.01727) rotate(20.24562)"/>
    <rect x="124.51883" y="53.6706" width="0.2" height="1.8" rx="0.1" ry="0.1"
          transform="translate(-108.89886 57.16601) rotate(-43.57055)"/>
    <rect x="127.71311" y="54.12525" width="0.2" height="1.8" rx="0.1" ry="0.1"
          transform="translate(-107.11113 -40.14678) rotate(-1.61017)"/>
    <rect x="130.0972" y="55.26713" width="0.2" height="1.8" rx="0.1" ry="0.1"
          transform="translate(-18.46828 -122.69555) rotate(48.99031)"/>
    <rect x="124.27136" y="64.67683" width="0.2" height="1.8" rx="0.1" ry="0.1"
          transform="translate(-63.19554 -92.4307) rotate(26.54641)"/>
    <rect x="119.48636" y="61.23326" width="0.2" height="1.8" rx="0.1" ry="0.1"
          transform="translate(-107.31439 -40.37455) rotate(-1.61044)"/>
    <rect x="124.31078" y="50.30943" width="0.2" height="1.8" rx="0.1" ry="0.1"
          transform="translate(-115.71946 9.94321) rotate(-23.43489)"/>
    <rect x="127.91457" y="48.56574" width="0.2" height="1.8" rx="0.1" ry="0.1"
          transform="translate(-78.73991 98.47155) rotate(-63.65424)"/>
    <rect x="126.50446" y="45.72106" width="0.2" height="1.8" rx="0.1" ry="0.1"
          transform="translate(-40.6471 122.87448) rotate(-83.03182)"/>
    <rect x="120.92028" y="47.50573" width="0.2" height="1.8" rx="0.1" ry="0.1"
          transform="translate(35.53604 133.42374) rotate(-120.68529)"/>
    <rect x="119.00717" y="53.73154" width="0.2" height="1.8" rx="0.1" ry="0.1"
          transform="translate(-5.06148 140.59016) rotate(-106.50014)"/>
    <rect x="118.26283" y="57.19511" width="0.2" height="1.8" rx="0.1" ry="0.1"
          transform="matrix(0.51219, -0.85887, 0.85887, 0.51219, -97.77304, 86.23815)"/>
    <rect x="130.97477" y="66.3125" width="0.2" height="1.8" rx="0.1" ry="0.1"
          transform="translate(-107.45202 -40.05089) rotate(-1.60992)"/>
    <rect x="122.9566" y="68.92511" width="0.2" height="1.8" rx="0.1" ry="0.1"
          transform="translate(-67.40305 -87.15996) rotate(23.58272)"/>
    <rect x="122.17902" y="66.76446" width="0.2" height="1.8" rx="0.1" ry="0.1"
          transform="translate(-12.5139 -112.76775) rotate(48.99067)"/>
    <rect x="128.21518" y="64.5977" width="0.2" height="1.8" rx="0.1" ry="0.1"
          transform="translate(-92.93965 107.65789) rotate(-63.65413)"/>
    <rect x="131.34788" y="60.07338" width="0.2" height="1.8" rx="0.1" ry="0.1"
          transform="translate(-76.39594 -85.47859) rotate(20.24495)"/>
    <rect x="123.85444" y="59.88034" width="0.2" height="1.8" rx="0.1" ry="0.1"
          transform="translate(-4.73293 153.13301) rotate(-106.50022)"/>
    <rect x="127.83532" y="50.04874" width="0.2" height="1.8" rx="0.1" ry="0.1"
          transform="translate(-23.18328 -122.78304) rotate(48.9905)"/>
    <rect x="128.55192" y="70.51883" width="0.2" height="1.8" rx="0.1" ry="0.1"
          transform="translate(-72.95375 -83.86617) rotate(20.24518)"/>
    <rect x="122.25941" y="54.37746" width="0.2" height="1.8" rx="0.1" ry="0.1"
          transform="translate(-99.57043 -55.55247) rotate(5.65721)"/>
    <rect x="132.77953" y="68.79993" width="0.2" height="1.8" rx="0.1" ry="0.1"
          transform="translate(121.52301 -90.80889) rotate(101.23761)"/>
    <rect x="125.85848" y="70.11957" width="0.2" height="1.8" rx="0.1" ry="0.1"
          transform="translate(-107.56131 -40.19254) rotate(-1.61018)"/>
    <rect x="129.88438" y="57.92972" width="0.2" height="1.8" rx="0.1" ry="0.1"
          transform="matrix(0.21125, 0.97743, -0.97743, 0.21125, 54.41205, -124.40883)"/>
    <rect x="127.59585" y="67.52731" width="0.2" height="1.8" rx="0.1" ry="0.1"
          transform="translate(-122.29604 12.66876) rotate(-23.43442)"/>
    <rect x="115.2933" y="54.84925" width="0.2" height="1.8" rx="0.1" ry="0.1"
          transform="translate(-99.55834 -54.86267) rotate(5.65678)"/>
    <rect x="117.14131" y="52.41794" width="0.2" height="1.8" rx="0.1" ry="0.1"
          transform="translate(-38.23394 -109.19521) rotate(42.76972)"/>
    <rect x="121.05354" y="51.17632" width="0.2" height="1.8" rx="0.1" ry="0.1"
          transform="translate(98.86809 -93.89044) rotate(105.93078)"/>
    <rect x="132.68977" y="62.93523" width="0.2" height="1.8" rx="0.1" ry="0.1"
          transform="translate(98.5005 -108.84574) rotate(93.27906)"/>
    <rect x="122.22506" y="63.4168" width="0.2" height="1.8" rx="0.1" ry="0.1"
          transform="translate(14.69501 -117.63145) rotate(61.43)"/>
    <rect x="127.72719" y="61.54407" width="0.2" height="1.8" rx="0.1" ry="0.1"
          transform="translate(-118.86971 0.37913) rotate(-18.64298)"/>
    <rect x="123.48332" y="57.74991" width="0.2" height="1.8" rx="0.1" ry="0.1"
          transform="translate(-44.39416 -106.86233) rotate(37.4903)"/>
    <rect x="135.08959" y="65.77573" width="0.2" height="1.8" rx="0.1" ry="0.1"
          transform="translate(-8.82243 -122.8497) rotate(48.99016)"/>
    <rect x="134.0225" y="58.17711" width="0.2" height="1.8" rx="0.1" ry="0.1"
          transform="translate(-103.82179 -47.6751) rotate(1.68366)"/>
    <rect x="136.25859" y="62.0014" width="0.2" height="1.8" rx="0.1" ry="0.1"
          transform="translate(-77.2833 -85.16834) rotate(19.23363)"/>
    <rect x="137.07671" y="66.4807" width="0.2" height="1.8" rx="0.1" ry="0.1"
          transform="translate(-80.10656 -80.72435) rotate(16.89835)"/>
    <rect x="129.96936" y="51.7597" width="0.2" height="1.8" rx="0.1" ry="0.1"
          transform="translate(-84.69216 -79.29442) rotate(16.89854)"/>
    <rect x="132.84952" y="52.32781" width="0.2" height="1.8" rx="0.1" ry="0.1"
          transform="translate(57.53248 -130.5208) rotate(80.35408)"/>
    <rect x="130.78694" y="45.68337" width="0.2" height="1.8" rx="0.1" ry="0.1"
          transform="translate(100.71496 -113.83712) rotate(103.29951)"/>
    <rect x="131.88689" y="49.29622" width="0.2" height="1.8" rx="0.1" ry="0.1"
          transform="translate(-103.85362 61.04061) rotate(-43.57108)"/>
    <rect x="117.95113" y="49.24681" width="0.2" height="1.8" rx="0.1" ry="0.1"
          transform="translate(-72.5901 -89.64117) rotate(25.46222)"/>
    <rect x="114.19964" y="52.32608" width="0.2" height="1.8" rx="0.1" ry="0.1"
          transform="translate(-99.66906 -55.00861) rotate(5.78438)"/>
    <rect x="185.54322" y="213.52243" width="0.2" height="1.8" rx="0.1" ry="0.1"
          transform="translate(-170.58953 37.87942) rotate(-21.19884)"/>
    <rect x="191.34282" y="211.72711" width="0.2" height="1.8" rx="0.1" ry="0.1"
          transform="translate(-9.76916 -100.80289) rotate(22.47975)"/>
    <rect x="189.39073" y="208.10699" width="0.2" height="1.8" rx="0.1" ry="0.1"
          transform="translate(-196.44725 133.4676) rotate(-41.33593)"/>
    <rect x="192.56486" y="208.68587" width="0.2" height="1.8" rx="0.1" ry="0.1"
          transform="translate(-103.31848 -45.84845) rotate(0.62482)"/>
    <rect x="194.90261" y="209.91985" width="0.2" height="1.8" rx="0.1" ry="0.1"
          transform="translate(131.62423 -116.99475) rotate(51.22552)"/>
    <rect x="189.49682" y="219.73018" width="0.2" height="1.8" rx="0.1" ry="0.1"
          transform="translate(6.71555 -103.58406) rotate(25.27085)"/>
    <rect x="184.06718" y="215.46765" width="0.2" height="1.8" rx="0.1" ry="0.1"
          transform="translate(-103.24502 -45.7554) rotate(0.62482)"/>
    <rect x="189.31393" y="204.74027" width="0.2" height="1.8" rx="0.1" ry="0.1"
          transform="translate(-167.15974 38.65078) rotate(-21.19932)"/>
    <rect x="195.73333" y="235.26667" width="0.2" height="1.8" rx="0.1" ry="0.1"
          transform="matrix(0.80801, -0.58917, 0.58917, 0.80801, -207.1598, 116.96206)"/>
    <rect x="183.8809" y="207.95295" width="0.2" height="1.8" rx="0.1" ry="0.1"
          transform="translate(-78.71312 394.86432) rotate(-104.26513)"/>
    <rect x="183.00205" y="211.38486" width="0.2" height="1.8" rx="0.1" ry="0.1"
          transform="translate(-200.30452 206.25176) rotate(-56.95527)"/>
    <rect x="196.18393" y="220.38932" width="0.2" height="1.8" rx="0.1" ry="0.1"
          transform="translate(-103.18856 -45.88902) rotate(0.62535)"/>
    <rect x="198.92592" y="226.50328" width="0.2" height="1.8" rx="0.1" ry="0.1"
          transform="translate(-103.12169 -45.91857) rotate(0.62534)"/>
    <rect x="198.56667" y="233.43333" width="0.2" height="1.8" rx="0.1" ry="0.1"
          transform="translate(-103.04608 -45.91424) rotate(0.62534)"/>
    <rect x="187.23481" y="223.28898" width="0.2" height="1.8" rx="0.1" ry="0.1"
          transform="translate(-25.88264 -91.18987) rotate(18.27148)"/>
    <rect x="186.54208" y="221.09966" width="0.2" height="1.8" rx="0.1" ry="0.1"
          transform="translate(137.2135 -106.29876) rotate(51.22512)"/>
    <rect x="192.65815" y="219.16993" width="0.2" height="1.8" rx="0.1" ry="0.1"
          transform="translate(-198.32477 240.30059) rotate(-61.41965)"/>
    <rect x="195.9649" y="214.77122" width="0.2" height="1.8" rx="0.1" ry="0.1"
          transform="translate(-8.25488 -102.33855) rotate(22.47957)"/>
    <rect x="188.48469" y="214.28611" width="0.2" height="1.8" rx="0.1" ry="0.1"
          transform="translate(-79.11278 407.21987) rotate(-104.26513)"/>
    <rect x="192.23333" y="205.6" width="0.2" height="1.8" rx="0.1" ry="0.1"
          transform="translate(127.25879 -116.52825) rotate(51.22552)"/>
    <rect x="190.54308" y="203.09033" width="0.2" height="1.8" rx="0.1" ry="0.1"
          transform="translate(-13.13227 -101.15336) rotate(22.47975)"/>
    <rect x="192.87909" y="233.61406" width="0.2" height="1.8" rx="0.1" ry="0.1"
          transform="translate(-1.28379 -99.7272) rotate(22.47975)"/>
    <rect x="187.10547" y="208.7252" width="0.2" height="1.8" rx="0.1" ry="0.1"
          transform="translate(-75.06014 -67.47855) rotate(7.89184)"/>
    <rect x="197.05515" y="223.54696" width="0.2" height="1.8" rx="0.1" ry="0.1"
          transform="translate(355.74376 41.24955) rotate(103.47271)"/>
    <rect x="200.23333" y="229.76667" width="0.2" height="1.8" rx="0.1" ry="0.1"
          transform="matrix(-0.78974, 0.61344, -0.61344, -0.78974, 394.4295, 246.18158)"/>
    <rect x="190.08791" y="224.59569" width="0.2" height="1.8" rx="0.1" ry="0.1"
          transform="translate(-103.14306 -45.8222) rotate(0.62534)"/>
    <rect x="194.58611" y="212.57211" width="0.2" height="1.8" rx="0.1" ry="0.1"
          transform="translate(265.64704 -58.96621) rotate(80.03864)"/>
    <rect x="191.92505" y="222.07316" width="0.2" height="1.8" rx="0.1" ry="0.1"
          transform="translate(-173.24922 40.76489) rotate(-21.19865)"/>
    <rect x="180.12626" y="208.92498" width="0.2" height="1.8" rx="0.1" ry="0.1"
          transform="translate(-75.09693 -66.5196) rotate(7.89231)"/>
    <rect x="182.06767" y="206.56759" width="0.2" height="1.8" rx="0.1" ry="0.1"
          transform="translate(94.46289 -111.80472) rotate(45.00435)"/>
    <rect x="186.02536" y="205.47948" width="0.2" height="1.8" rx="0.1" ry="0.1"
          transform="translate(334.63246 50.1168) rotate(108.16655)"/>
    <rect x="197.25925" y="231.00328" width="0.2" height="1.8" rx="0.1" ry="0.1"
          transform="translate(373.6204 72.92446) rotate(108.16655)"/>
    <rect x="197.19417" y="217.68322" width="0.2" height="1.8" rx="0.1" ry="0.1"
          transform="translate(328.20873 -0.55392) rotate(95.51414)"/>
    <rect x="186.71864" y="217.75633" width="0.2" height="1.8" rx="0.1" ry="0.1"
          transform="translate(194.28695 -89.53479) rotate(63.6643)"/>
    <rect x="192.28961" y="216.09959" width="0.2" height="1.8" rx="0.1" ry="0.1"
          transform="translate(-159.07745 19.423) rotate(-16.40804)"/>
    <rect x="188.19693" y="212.14283" width="0.2" height="1.8" rx="0.1" ry="0.1"
          transform="translate(74.01575 -114.91402) rotate(39.72519)"/>
    <rect x="190.60553" y="230.38288" width="0.2" height="1.8" rx="0.1" ry="0.1"
          transform="translate(-176.34381 40.8509) rotate(-21.19883)"/>
    <rect x="196.40514" y="228.58756" width="0.2" height="1.8" rx="0.1" ry="0.1"
          transform="translate(-2.93779 -101.45735) rotate(22.47975)"/>
    <rect x="193.547" y="231.14657" width="0.2" height="1.8" rx="0.1" ry="0.1"
          transform="translate(-89.14364 433.14112) rotate(-104.26513)"/>
    <rect x="193.25925" y="229.00328" width="0.2" height="1.8" rx="0.1" ry="0.1"
          transform="translate(85.96015 -114.25661) rotate(39.72519)"/>
    <rect x="198.30918" y="221.37501" width="0.2" height="1.8" rx="0.1" ry="0.1"
          transform="translate(141.82429 -115.36991) rotate(51.22479)"/>
    <rect x="181.97949" y="213.48419" width="0.2" height="1.8" rx="0.1" ry="0.1"
          transform="matrix(0.94476, 0.32778, -0.32778, 0.94476, -25.28659, -91.59765)"/>
    <rect x="194.7045" y="224.58309" width="0.2" height="1.8" rx="0.1" ry="0.1"
          transform="translate(-103.14497 -45.87086) rotate(0.62482)"/>
    <rect x="190.58242" y="226.72335" width="0.2" height="1.8" rx="0.1" ry="0.1"
          transform="translate(-206.04051 242.41773) rotate(-61.41965)"/>
    <rect x="192.88157" y="225.81289" width="0.2" height="1.8" rx="0.1" ry="0.1"
          transform="translate(384.26214 205.16504) rotate(134.68353)"/></g>
</svg>