<svg id="Clipware23" xmlns="http://www.w3.org/2000/svg" width="100" height="200" viewBox="0 0 96.58981 195.78402">
  <title>Clipware23</title><g stroke="#000000" fill="#000000" stroke-width="0.5324" transform="translate(0.00145 0.00002)">
  <path d="M96.4306,49.0825a1.18666,1.18666,0,0,0-.64453-.67334c-.013-.00525-.02832-.00323-.0415-.008a4.66462,4.66462,0,0,1-.37061-.49347c-.42969-.62256-.9541-1.39941-1.76953-1.30908a1.35621,1.35621,0,0,0-.80762.42761c-.33038-.93231-.79437-1.947-1.64453-1.97351a1.4338,1.4338,0,0,0-1.06543.573c-.6217-1.33832-1.05-2.13751-1.792-2.12378a.96452.96452,0,0,0-.528.17657c-1.06311.30719-2.79529-.45978-4.20831-1.0921-.38477-.17187-.75-.33545-1.084-.47021l-.27246-.10742c-.999-.38867-2.86035-1.11328-3.49512-2.5835a3.401,3.401,0,0,1,.123-2.67139l-.00537-.0022,1.81885-4.7146a2.77433,2.77433,0,0,0-.626-2.94434c-.06683-.07593-.124-.14746-.182-.21985l8.641-18.39734c.01563-.04834.10254-.21484.18359-.23047.71-.13281,1.36621-.30078,1.60156-.88281.35742-.88477-.44434-1.99463-2.45215-3.39355a36.41464,36.41464,0,0,0-6.89355-3.57617c-1.22937-.4967-2.44611-.92334-3.60712-1.27972-.05432-.0174-.10645-.03339-.16028-.05035-.11414-.03448-.229-.07056-.34186-.10352A19.82339,19.82339,0,0,0,73.5777.19951,12.68217,12.68217,0,0,0,71.55457,0c-1.23437,0-1.95508.29834-2.2041.91309a1.82142,1.82142,0,0,0,.55762,1.75732.82251.82251,0,0,1-.07227.34521L63.30536,22.16838a5.14077,5.14077,0,0,1-.8064.27838c-.89551.23291-1.82129.47412-2.67432,2.58545L12.62592,141.8535c-.30518.48145-2.38623,4.1123.53613,9.29395l-2.14014,5.11719a1.82211,1.82211,0,0,1-1.2168,1.01855l-.24316.03223L.35864,185.00432a1.56456,1.56456,0,0,0-.35809,1.07745,2.04919,2.04919,0,0,0,.03534.45,12.5497,12.5497,0,0,0,2.8327,5.308c1.66528,2.02667,3.73926,3.72375,5.21094,3.93628a1.92239,1.92239,0,0,0,1.25879-.3269,1.40451,1.40451,0,0,0,.37061-.78809l14.71631-31.29883-.09424-.21a1.80241,1.80241,0,0,1-.1377-1.62988l1.99463-5.1123c5.70117-1.69629,6.72656-5.75391,6.84131-6.3125L64.60632,71.94145l.00739-.001a3.40584,3.40584,0,0,1,1.76807-2.0083c1.48047-.61426,3.32129.15576,4.30859.57031l.26953.11133c.334.13525.71094.27148,1.10742.415,1.44409.52246,3.2019,1.16815,3.77045,2.11243a.9567.9567,0,0,0,1.00787.8324,6.49813,6.49813,0,0,0,2.013-.56873,1.37666,1.37666,0,0,0,.37372,1.14978,1.13545,1.13545,0,0,0,.792.28125A4.36864,4.36864,0,0,0,81.803,74.2697a1.38622,1.38622,0,0,0,.26819.87677,1.32994,1.32994,0,0,0,1.08594.43457,5.69211,5.69211,0,0,0,1.0957-.14746c.15442-.03131.29553-.05719.42352-.07648a1.00955,1.00955,0,0,0,.58624.17651c1.0293,0,2.042-1.36621,2.58984-2.71973a6.3234,6.3234,0,0,0,.501-2.34912c-.01465-1.13818-.51953-1.51123-.81934-1.63184-.01282-.00519-.02783-.00317-.04083-.00781a4.62711,4.62711,0,0,1-.37128-.49414c-.42969-.62207-.957-1.38965-1.76953-1.30859a1.35793,1.35793,0,0,0-.8075.4278c-.33038-.93274-.79443-1.94757-1.64465-1.97369a1.36283,1.36283,0,0,0-1.0708.56024c-.6167-1.33276-1.03052-2.13879-1.78662-2.111a.9636.9636,0,0,0-.52771.17633c-1.06573.3075-2.79327-.45795-4.20569-1.09039-.38574-.17285-.75293-.33691-1.08691-.47168l-.27246-.10742c-.999-.38867-2.86035-1.11328-3.49512-2.5835a3.4007,3.4007,0,0,1,.123-2.67139l-.00018-.00006.00018-.00043-.46387-.187-.46387-.1875-.00067.00208a15.653,15.653,0,0,1-1.85382,3.35779c-.457.59766-1.32715,1.56348-2.02734,1.27686L63.9516,60.706a8.46975,8.46975,0,0,0-5.34277.11816,8.05653,8.05653,0,0,0-5.14844,4.667l-1.49573,3.7019a4.77673,4.77673,0,0,1-.74109-4.95874L59.40717,43.9785a3.139,3.139,0,0,1,1.82275-1.88574,4.32738,4.32738,0,0,1,3.05566.24609c1.8833.76123,6.0874,2.46924,6.08838,2.46924l1.81348.7417c1.19305.48181.7356,3.15436-.24829,5.58984l-.00073.0014-.00586-.00238-2.28711,5.66162.92773.37451,2.28711-5.66107.00586.00238a3.40248,3.40248,0,0,1,1.76758-2.00781c1.47949-.61475,3.32129.15625,4.30859.57031l.26953.11133c.335.13525.71191.272,1.10938.41553,1.44275.52234,3.199,1.16742,3.768,2.11108a.95466.95466,0,0,0,1.00836.83276,6.49834,6.49834,0,0,0,2.013-.56885,1.37753,1.37753,0,0,0,.37372,1.15039,1.13466,1.13466,0,0,0,.792.28076,4.36374,4.36374,0,0,0,1.77777-.56561,1.38546,1.38546,0,0,0,.26813.87665,1.32994,1.32994,0,0,0,1.08594.43457,5.69211,5.69211,0,0,0,1.0957-.14746c.15515-.03131.29645-.05707.42462-.07629a1.09114,1.09114,0,0,0,.18182.09875,1.07435,1.07435,0,0,0,.4043.07764c1.0293,0,2.042-1.36621,2.58984-2.72021A4.762,4.762,0,0,0,96.4306,49.0825ZM73.49127,1.19627a27.38264,27.38264,0,0,1,3.07025.73065c.07727.02368.14587.04218.225.06708l.02869.00909c1.06311.33484,2.29309.77344,3.65735,1.32452a40.37607,40.37607,0,0,1,5.402,2.5885c.04.0238.07617.04742.11566.07123A9.07781,9.07781,0,0,1,87.33,6.92772a27.22046,27.22046,0,0,1-7.43555-2.1665A27.06084,27.06084,0,0,1,73.037,1.16063C73.165,1.16277,73.31934,1.17564,73.49127,1.19627Zm-3.213.0918C70.31049,1.208,70.60345,1,71.55463,1c.08447,0,.18579.01074.27527.01385.04327.54816.72,1.1723,2.213,2.05353A42.901,42.901,0,0,0,79.51947,5.688c3.36816,1.36084,6.45117,2.24023,7.85449,2.24023a1.39809,1.39809,0,0,0,.94873-.30139c.91327.795,1.05743,1.24658,1.01123,1.361-.01465.03711-.12793.1377-.8584.2749a1.13881,1.13881,0,0,0-.66418.40112,29.50342,29.50342,0,0,1-8.88953-2.33722,29.72976,29.72976,0,0,1-8.01923-4.49109,1.01767,1.01767,0,0,0-.19269-.75006C70.21185,1.47264,70.27533,1.29546,70.27826,1.28807Zm.49219,2.082a2.01325,2.01325,0,0,0,.09326-.2981A30.62424,30.62424,0,0,0,78.8476,7.51219a30.28959,30.28959,0,0,0,8.822,2.34436,1.20118,1.20118,0,0,0-.12183.25525L79.06506,28.1649a8.35112,8.35112,0,0,0-1.62567-1.223,37.085,37.085,0,0,0-5.37891-2.63232c-2.51312-1.015-6.07623-2.16223-7.72168-2.07611Zm-6.5625,19.24707c.93982-.08807,3.62817.4173,7.70215,2.06348a36.72179,36.72179,0,0,1,5.31934,2.60156,6.87024,6.87024,0,0,1,1.6499,1.27808l-.06512.13855-.084.02783a1.61187,1.61187,0,0,1-.325.02625,25.67264,25.67264,0,0,1-7.31348-2.04639c-4.47168-1.80713-6.71143-3.42773-6.94336-3.91455ZM8.5498,194.77592v.00006c-.49872.25348-2.55743-.709-4.90875-3.57086-2.42187-2.94922-2.937-5.2207-2.52246-5.56055l-.00006-.00012A.37142.37142,0,0,1,1.353,185.584c.853,0,2.80029,1.26758,4.729,3.61719,1.81445,2.208,2.69385,4.252,2.65039,5.18652C8.73236,194.38768,8.74573,194.68523,8.5498,194.77592Zm.917-1.82281a8.87026,8.87026,0,0,0-.43945-1.06836c-.2168-.44043-.47412-.90234-.76855-1.37988a19.02392,19.02392,0,0,0-1.4043-1.93848,15.8247,15.8247,0,0,0-3.43311-3.19531l-.05225-.0332-.05518-.02734a6.75646,6.75646,0,0,0-1.80029-.61133l8.7207-26.2373.42041.22656c1.31348.707,3.19092,1.70215,4.67627,2.43359.4585.19434.86621.35742,1.27637.51367.87744.37891,1.82227.74023,2.76855,1.05957l.0332.00977c1.42773.42676,2.74463.71191,3.59814.876l.19434.03711ZM63.78217,71.61235,32.17963,149.81444l-.02881.10059c-.03027.166-.79785,4.08984-6.37793,5.64844l-.24072.06738-2.14453,5.51074a2.48906,2.48906,0,0,0-.163,1.59924,36.13311,36.13311,0,0,1-6.26178-2.03967,37.12609,37.12609,0,0,1-5.8905-2.85669,2.47394,2.47394,0,0,0,.98718-1.20288H12.059l2.3125-5.51953-.12646-.21582c-2.93115-4.998-.7583-8.35352-.66406-8.49414l.02985-.04395L60.84662,25.45409c.665-1.64551,1.1958-1.78369,1.99951-1.99268.174-.04535.36-.09644.554-.16064.96387,1.69592,6.22125,3.89844,7.4118,4.37939a26.09831,26.09831,0,0,0,7.68848,2.11963,2.363,2.363,0,0,0,.76379-.11981c.03284.038.06543.08392.09753.1203.48047.54541.89551,1.0166.03418,3.14844l-.00586.01465-1.39844,3.46143.00537.00214c-1.05951,2.62054-2.79266,5.07593-3.88135,4.636l-1.81348-.7417s-4.40625-1.78906-6.08887-2.46924c-4.80566-1.94141-9.42822-.15527-11.24463,4.34082L46.7851,62.44865a9.18285,9.18285,0,0,0,1.36719,9.78809l-2.87067.004a2.49307,2.49307,0,0,0-3.07416,1.39246,2.46611,2.46611,0,0,0,.76807,2.85889L45.518,78.456l-2.70056-.05652a2.49081,2.49081,0,0,0-3.09534,1.38562,2.466,2.466,0,0,0,.76758,2.85889l2.26923,1.7572-2.3988-.00964a2.45039,2.45039,0,0,0-2.29523,4.25439l2.33832,1.81067-2.48932.02014a2.49218,2.49218,0,0,0-3.0741,1.39185,2.46611,2.46611,0,0,0,.76807,2.85889l2.46381,1.90778-2.65363.06812a2.49329,2.49329,0,0,0-3.09192,1.38739,2.46639,2.46639,0,0,0,.76758,2.85889l2.311,1.78937-2.45007-.06683a2.4919,2.4919,0,0,0-3.046,1.401,2.46648,2.46648,0,0,0,.76855,2.85791l2.44989,1.89709-2.62811-.10706-.00043.0105a2.4497,2.4497,0,0,0-2.27057,4.26147l2.35217,1.82135-2.50659.00854a2.49244,2.49244,0,0,0-3.07068,1.39276,2.46713,2.46713,0,0,0,.76807,2.85938l2.49707,1.91211-2.6593-.07428a2.45085,2.45085,0,0,0-2.29919,4.254l2.213,1.71344-2.27094-.09222a2.44025,2.44025,0,0,0-3.08215,1.39148,2.46709,2.46709,0,0,0,.76807,2.8584l1.56683,1.21289a7.95219,7.95219,0,0,0-.82227,13.19958,10.2577,10.2577,0,0,1,.65186,2.6051l.11133.92578.70947-.60449a9.10482,9.10482,0,0,1,2.11115-1.39252,7.897,7.897,0,0,0,8.61835-4.87213l.11621-.27832a4.67865,4.67865,0,0,0,.418-1.84375,8.21944,8.21944,0,0,0-1.71222-5.62653l2.78583.11316a2.45442,2.45442,0,0,0,.90149.17352H36.394A2.45626,2.45626,0,0,0,37.9917,130.328L35.39307,128.331l2.62927.0744a2.45212,2.45212,0,0,0,2.43079-4.16913l-2.59131-1.999,2.62494.08856a2.4388,2.4388,0,0,0,.82574.15167H41.313a2.45725,2.45725,0,0,0,1.59717-4.32324L40.37738,116.206l2.5329.05042a2.4527,2.4527,0,0,0,2.449-4.16321l-2.39581-1.85663,2.39978.04852a2.42592,2.42592,0,0,0,3.09271-1.3877,2.46718,2.46718,0,0,0-.67969-2.78564l-2.57617-1.99646,2.63739-.06421a2.43518,2.43518,0,0,0,3.13214-1.37585,2.46718,2.46718,0,0,0-.67969-2.78564l-2.50665-1.9425,2.54376.0321a2.42737,2.42737,0,0,0,3.1001-1.386,2.4672,2.4672,0,0,0-.68018-2.78516l-2.4657-1.91089,2.48877.086a2.42283,2.42283,0,0,0,3.08142-1.39142,2.4655,2.4655,0,0,0-.67969-2.78564l-2.49756-1.94385,2.55951-.038a2.428,2.428,0,0,0,3.10358-1.38434,2.46706,2.46706,0,0,0-.67969-2.78558l-2.50677-1.9425,2.54248.06555a2.45109,2.45109,0,0,0,2.40912-4.1748l-4.06628-3.15076,2.06921-5.1217a3.69127,3.69127,0,0,1,4.10889-2.04346l1.81689.73389C65.22449,66.503,64.766,69.1768,63.78217,71.61235Zm-6.856,10.7655a1.45869,1.45869,0,0,1,.38916,1.6402V84.018a1.47351,1.47351,0,0,1-1.897.80371,1.40654,1.40654,0,0,1-.28076-.1499l-11.644-9.0166a1.45654,1.45654,0,0,1,1.77393-2.31055Zm-6.62555-6.39771.53369-1.32056L53.20868,76.498l-.53394,1.3219Zm3.19525,2.476L54.03,77.13383l2.02905,1.571-2.36615-.09607ZM52.92517,90.9713a1.45856,1.45856,0,0,1-.27338-.14716l-11.644-9.01709a1.45671,1.45671,0,0,1,1.77441-2.31055l11.6582,9.03369a1.4571,1.4571,0,0,1,.38861,1.64026v-.00012A1.46051,1.46051,0,0,1,52.92517,90.9713Zm-2.42535,6.00122a1.46193,1.46193,0,0,1-.27283-.14691L38.583,87.809a1.45689,1.45689,0,0,1,1.77441-2.311l11.6582,9.03418a1.457,1.457,0,0,1,.38861,1.64014v-.00006A1.46065,1.46065,0,0,1,50.49982,96.97252Zm-2.4491,6.08459a1.40967,1.40967,0,0,1-.28076-.1499l-11.644-9.0166a1.4567,1.4567,0,0,1,1.77441-2.31055l11.6582,9.0332a1.45856,1.45856,0,0,1,.38916,1.6402v-.00006A1.47423,1.47423,0,0,1,48.05072,103.05711ZM19.57007,137.80992a6.95818,6.95818,0,0,1,3.70288-4.93689l2.826,2.18835a4.04037,4.04037,0,1,0,4.06219,5.53821c1.062-2.62891-1.32373-4.55762-2.10791-5.19141l-.10229-.06036-6.49548-5.14661a1.4567,1.4567,0,0,1,1.77441-2.31055l6.9043,5.34961a7.89445,7.89445,0,0,1,3.19189,6.63086,3.713,3.713,0,0,1-.34033,1.52246l-.124.29688a6.96673,6.96673,0,0,1-7.59082,4.25336l-.134-.01978A6.95813,6.95813,0,0,1,19.57007,137.80992Zm4.17755,8.7641c-.23242.15027-.4574.30444-.653.45044-.04547-.24268-.10785-.519-.17853-.79974.16876.08252.33624.16675.513.23822C23.53455,146.50554,23.64154,146.5363,23.74762,146.574Zm3.73621-10.3396c1.74658,1.42969,2.28662,2.66211,1.75049,3.99023a3.04742,3.04742,0,1,1-1.75049-3.99023Zm-2.72772-8.42651,2.03638.08264,1.1095.85907-.46033,1.13959Zm3.50671,2.71771.46051-1.14,2.37457,1.83856-.461,1.14136Zm3.18463,2.50256.4718-1.168,1.94489,1.50586-2.1546-.08746C31.61749,133.187,31.531,133.10521,31.44745,133.02818Zm-7.61987-8.69806a1.45668,1.45668,0,0,1,1.77441-2.31055l11.6582,9.0332a1.45647,1.45647,0,0,1,.38867,1.63959v.00006a1.48,1.48,0,0,1-1.89453.80566,1.54226,1.54226,0,0,1-.28223-.15137Zm3.20459-2.4679,2.388.06543.9433.73035-.54962,1.35986Zm3.60284,2.792.54974-1.36029,2.37427,1.83844-.54993,1.36151Zm3.19525,2.47614.55011-1.36188,2.11115,1.6347-2.437-.099Zm-7.5412-8.892a1.45669,1.45669,0,0,1,1.77441-2.31055l11.6582,9.0332a1.45739,1.45739,0,0,1,.3891,1.63959v.00006a1.462,1.462,0,0,1-2.17773.6543Zm3.22748-2.46985,2.26563-.01562,1.03833.82312-.54541,1.35016Zm3.57977,2.794.54553-1.35052,2.37451,1.83862-.546,1.35156Zm3.19531,2.47614.54608-1.352,2.08331,1.61316-2.41992-.09888ZM28.746,112.1563a1.45623,1.45623,0,0,1,1.44092-2.499,1.47749,1.47749,0,0,1,.3335.188l11.6582,9.03369a1.45649,1.45649,0,0,1,.38873,1.63953l-.00006.00006a1.47864,1.47864,0,0,1-1.89453.80566,1.41609,1.41609,0,0,1-.28223-.15137Zm3.16113-2.46594,2.40247.08038.96008.74347-.53717,1.33008Zm3.6463,2.79.53729-1.33044,2.37482,1.83893-.53784,1.33136Zm3.1955,2.47632.5379-1.33173,2.13593,1.65924-2.33826-.06744Zm-7.55365-8.86243a1.45666,1.45666,0,0,1,1.77435-2.31049l11.6582,9.03369A1.45739,1.45739,0,0,1,45.017,114.457v.00006a1.46,1.46,0,0,1-2.17773.6543Zm3.24371-2.43683,2.23444.09076,1.01312.78442-.50525,1.25Zm3.56348,2.76147.50537-1.25037,2.37427,1.83832-.50562,1.25183Zm3.19519,2.47626.5058-1.2522,2.043,1.58179-2.16742-.04993Zm-7.58594-8.78235a1.45657,1.45657,0,0,1,1.44141-2.499,1.47616,1.47616,0,0,1,.33295.188l11.65869,9.03369a1.4585,1.4585,0,0,1,.38922,1.64v.00006a1.47689,1.47689,0,0,1-1.897.8042,1.42289,1.42289,0,0,1-.28076-.15039ZM36.829,97.64348l2.40741-.07953.96405.7464-.60242,1.49042Zm3.59015,2.79364.60254-1.49078,2.37463,1.83868-.603,1.49207Zm3.19537,2.47638.60309-1.49249,2.127,1.64441-2.51532.01453ZM39.36029,91.456l2.31183.00995.98541.76306-.54559,1.34985ZM42.933,94.21519l.54578-1.35028,2.37457,1.83868-.5462,1.35144Zm3.39258,2.62909-.19733-.15289.54639-1.35181,1.99811,1.55389-2.34717-.04932Zm-4.481-11.46643,2.183.03271,1.0545.81659-.513,1.27008Zm3.54572,2.7558.51318-1.27051,2.37451,1.83875L47.7644,89.9735Zm3.19519,2.47626.51385-1.272,2.00012,1.54883-2.27631-.09271ZM44.18842,79.29979l2.40863.02344.971.75183-.57391,1.42072Zm3.62689,2.8324.5741-1.42114,2.37451,1.83856-.57477,1.42212ZM51.01025,84.608l.575-1.42255,2.08429,1.614-2.44086-.02222Zm-1.53076-9.26416-2.6817-2.09094,2.23413-.02258a10.44242,10.44242,0,0,0,.973.81342Zm37.6767-5.58368h.00293c.06055.02441.18848.23193.19434.71729a5.37736,5.37736,0,0,1-.42871,1.96149v-.00006c-.54492,1.34863-1.3291,2.09473-1.66211,2.09473l-.0293-.00488c-.06055-.02435-.18848-.23193-.19434-.71729a5.3763,5.3763,0,0,1,.42871-1.96094C86.01074,70.50529,86.79193,69.76018,87.15619,69.76018Zm-32.769-3.894a7.08522,7.08522,0,0,1,4.53174-4.09131,7.5472,7.5472,0,0,1,4.65771-.14209l1.81689.73389c.68652.27832,1.7998.22754,3.19727-1.59619a12.197,12.197,0,0,0,.76141-1.13226,3.63091,3.63091,0,0,0,.18488.60785c.80078,1.85352,2.99609,2.708,4.05078,3.11865l.25977.10205c.32422.13135.67969.29053,1.05273.45752a12.48708,12.48708,0,0,0,3.77716,1.24243,16.82359,16.82359,0,0,0-.82892,1.804l.92773.374a9.69721,9.69721,0,0,1,1.16541-2.32831c.04968-.01782.10272-.02606.15118-.04724a8.268,8.268,0,0,1,.96075,1.77008l.13312.288c-.16254.315-.32654.67346-.49542,1.09192l.92773.374c.7959-1.97168,1.24512-2.01709,1.251-2.01709.11328.00391.37988.23877.89258,1.77393l.08179.23944c-.1084.21613-.21649.44928-.325.71759l.92773.375c.59668-1.47852.97461-1.561,1.01563-1.56543.23145-.01611.63281.58838.83594.88232.02246.03253.044.06134.06616.09332a5.34127,5.34127,0,0,0-1.825,2.48334,6.31817,6.31817,0,0,0-.501,2.34863,2.89181,2.89181,0,0,0,.0722.61871l-.05658.01068c-.34961.07031-1.0791.21973-1.21387.05371-.02637-.03174-.24121-.35254.35645-1.83154l-.92773-.374c-.10944.27118-.1825.50415-.25507.73694l-.23615.121c-1.43848.74854-1.79.73-1.874.65479-.00293-.00293-.29687-.34521.502-2.32031l-.92773-.375c-.16858.4173-.298.78894-.3985,1.12872l-.29974.11591a8.79218,8.79218,0,0,1-1.9541.63818l-.00348-.012-.01752-.16272a8.568,8.568,0,0,1,.75928-2.48163l-.92773-.375A16.99126,16.99126,0,0,0,75.9859,71.823a12.44373,12.44373,0,0,0-3.57874-1.73468c-.38379-.13867-.749-.27106-1.07227-.40137l-.25781-.10693c-1.04395-.4375-3.21484-1.34912-5.08008-.5708a3.64309,3.64309,0,0,0-.56824.31622c.36981-1.72559.39331-3.66766-1.1178-4.27869l-1.81738-.73389c-1.64893-.668-4.53125.42041-5.41016,2.59521l-1.96362,4.86041-2.37421-1.8396ZM92.79187,51.05119a6.32334,6.32334,0,0,0-.501,2.34912,2.89136,2.89136,0,0,0,.0722.61871l-.05658.01068c-.35156.07031-1.08105.2168-1.21484.0542-.02637-.03174-.24023-.353.35742-1.83154l-.92773-.375c-.10968.27148-.183.50476-.25574.73773l-.23547.12067c-1.43848.74854-1.791.72705-1.874.65479-.00293-.00293-.29687-.34521.502-2.32031l-.92773-.375c-.16852.41711-.29791.78851-.39838,1.12817l-.29987.116a9.04374,9.04374,0,0,1-1.9541.63867l-.02148-.17566a8.55464,8.55464,0,0,1,.75879-2.48114l-.92773-.374a16.97377,16.97377,0,0,0-.65,1.85162,12.43709,12.43709,0,0,0-3.5766-1.73346c-.38477-.13916-.75-.27148-1.07422-.40234l-.25781-.10693c-1.04395-.43848-3.2207-1.34961-5.08008-.5708a3.638,3.638,0,0,0-.56854.31616c.36987-1.72571.39362-3.66809-1.118-4.27856l-1.8125-.7417s-4.20605-1.708-6.08936-2.46924a5.29579,5.29579,0,0,0-3.76709-.26123,4.1099,4.1099,0,0,0-2.41309,2.45264L50.29675,63.85936a5.89838,5.89838,0,0,0,1.4707,6.57568l7.60352,5.8916A1.45675,1.45675,0,0,1,57.5824,78.6201l-6.70508-5.188a8.5129,8.5129,0,0,1-3.26074-10.65527L55.80017,42.521c1.86279-4.61035,6.4585-5.1958,9.94287-3.78906,1.68262.68018,6.08691,2.46924,6.08789,2.46973l1.81445.74121c1.52808.619,2.97534-1.10333,3.95581-2.73779a3.63213,3.63213,0,0,0,.18774.61719c.80078,1.85352,2.99609,2.708,4.05078,3.11865l.25977.10205c.32324.13086.67773.28955,1.05078.45654A12.48165,12.48165,0,0,0,86.92938,44.743a16.83461,16.83461,0,0,0-.82892,1.80389l.92773.374a9.70169,9.70169,0,0,1,1.16541-2.32831c.04968-.01782.10272-.02606.15118-.04724a8.26821,8.26821,0,0,1,.96075,1.77008l.13464.29126c-.16394.31311-.3291.66992-.49792,1.08813l.92773.375c.79688-1.97217,1.24609-2.01758,1.251-2.01758.11426.00391.38086.23877.89355,1.77393l.08173.23932c-.10834.21619-.21643.44934-.32489.71771l.92773.375c.59766-1.479.97461-1.561,1.01563-1.56592.21.00977.63281.58887.83594.88281.02234.03259.04395.0614.066.09338A5.34084,5.34084,0,0,0,92.79187,51.05119Zm2.38483.96344v-.00006c-.54492,1.34912-1.3291,2.09521-1.66211,2.09521l-.0293-.00488c-.06055-.02441-.18848-.23193-.19434-.71729a5.37731,5.37731,0,0,1,.42871-1.96143c.543-1.34473,1.32422-2.08984,1.68848-2.08984H95.412c.02344.00928.06152.05029.09766.13721A3.91809,3.91809,0,0,1,95.1767,52.01463Z" />
  <path d="M73.10179,9.36846h0a.1.1,0,0,1,.05019.13222l-.65627,1.45922a.1.1,0,0,1-.13222.05018h0a.1.1,0,0,1-.05019-.13222l.65627-1.45922A.1.1,0,0,1,73.10179,9.36846Z" />
  <path d="M77.206,13.97485h0a.1.1,0,0,1-.055.13029l-1.4824.60209a.1.1,0,0,1-.13028-.055h0a.1.1,0,0,1,.055-.13029l1.4824-.60209A.1.1,0,0,1,77.206,13.97485Z" />
  <path d="M77.64415,9.4843h0a.1.1,0,0,1,.09264.10686l-.11383,1.59595a.1.1,0,0,1-.10687.09263h0a.1.1,0,0,1-.09264-.10686l.11383-1.59595A.1.1,0,0,1,77.64415,9.4843Z" />
  <path d="M80.04381,12.42427h0a.1.1,0,0,1-.00256.1414l-1.15171,1.11066a.1.1,0,0,1-.1414-.00257h0a.1.1,0,0,1,.00256-.1414l1.15171-1.11066A.1.1,0,0,1,80.04381,12.42427Z" />
  <path d="M81.05209,15.68425v0a.1.1,0,0,1-.11089.08777l-1.58927-.185a.1.1,0,0,1-.08776-.1109v0a.1.1,0,0,1,.11089-.08777l1.58927.185A.1.1,0,0,1,81.05209,15.68425Z" />
  <path d="M70.14531,17.36848h0a.1.1,0,0,1-.069.12346l-1.53952.43577a.1.1,0,0,1-.12346-.069h0a.1.1,0,0,1,.069-.12346l1.53952-.43577A.1.1,0,0,1,70.14531,17.36848Z" />
  <path d="M69.24867,11.13274h0a.1.1,0,0,1-.00256.1414l-1.15171,1.11066a.1.1,0,0,1-.1414-.00257h0a.1.1,0,0,1,.00256-.1414l1.15171-1.11066A.1.1,0,0,1,69.24867,11.13274Z" />
  <path d="M80.29315,7.14317h0a.1.1,0,0,1,.05019.13222L79.68707,8.7346a.1.1,0,0,1-.13222.05018h0a.1.1,0,0,1-.05019-.13222l.65626-1.45922A.1.1,0,0,1,80.29315,7.14317Z" />
  <path d="M83.39225,8.58756h0a.1.1,0,0,1,.1237.06855l.44114,1.538a.1.1,0,0,1-.06856.1237h0a.1.1,0,0,1-.1237-.06855l-.44114-1.538A.1.1,0,0,1,83.39225,8.58756Z" />
  <path d="M84.27165,5.7604h0a.1.1,0,0,1,.13944.02362l.92644,1.3045a.1.1,0,0,1-.02363.13944h0a.1.1,0,0,1-.13944-.02362L84.248,5.89984A.1.1,0,0,1,84.27165,5.7604Z" />
  <path d="M78.85116,3.30691h0a.1.1,0,0,1,.12483-.06648l1.53038.46685a.1.1,0,0,1,.06647.12483h0a.1.1,0,0,1-.12483.06648l-1.53038-.46685A.1.1,0,0,1,78.85116,3.30691Z" />
  <path d="M73.05184,5.88417h0a.1.1,0,0,1,.13731-.03386l1.36932.82763a.1.1,0,0,1,.03385.13731h0a.1.1,0,0,1-.13731.03386l-1.36932-.82763A.1.1,0,0,1,73.05184,5.88417Z" />
  <path d="M70.58088,7.2511h0a.1.1,0,0,1,.118.078l.3201,1.56766a.1.1,0,0,1-.078.118h0a.1.1,0,0,1-.118-.078l-.3201-1.56766A.1.1,0,0,1,70.58088,7.2511Z" />
  <path d="M73.23416,23.04483h0a.1.1,0,0,1-.00256.1414l-1.15171,1.11066a.1.1,0,0,1-.1414-.00257h0a.1.1,0,0,1,.00256-.1414l1.15171-1.11066A.1.1,0,0,1,73.23416,23.04483Z" />
  <path d="M66.1056,19.21344h0a.1.1,0,0,1-.06251.12686l-1.51493.51475a.1.1,0,0,1-.12686-.06252h0a.1.1,0,0,1,.06251-.12686l1.51493-.51475A.1.1,0,0,1,66.1056,19.21344Z" />
  <path d="M67.22092,17.5777v0a.1.1,0,0,1-.11089.08777l-1.58927-.185a.1.1,0,0,1-.08776-.1109v0a.1.1,0,0,1,.11089-.08777l1.58927.185A.1.1,0,0,1,67.22092,17.5777Z" />
  <path d="M71.7465,19.60979h0a.1.1,0,0,1,.1237.06855l.44113,1.538a.1.1,0,0,1-.06856.12369h0a.1.1,0,0,1-.1237-.06855l-.44113-1.538A.1.1,0,0,1,71.7465,19.60979Z" />
  <path d="M78.28251,19.40358h0a.1.1,0,0,1-.055.13029l-1.48239.60209a.1.1,0,0,1-.13028-.055h0a.1.1,0,0,1,.055-.13029l1.48239-.60209A.1.1,0,0,1,78.28251,19.40358Z" />
  <path d="M71.773,13.60872h0a.1.1,0,0,1,.13731-.03386l1.36932.82763a.1.1,0,0,1,.03385.13731h0a.1.1,0,0,1-.13731.03386L71.80689,13.746A.1.1,0,0,1,71.773,13.60872Z" />
  <path d="M83.385,10.49721v0a.1.1,0,0,1-.11089.08777L81.6848,10.4a.1.1,0,0,1-.08776-.1109v0a.1.1,0,0,1,.11089-.08777l1.58927.185A.1.1,0,0,1,83.385,10.49721Z" />
  <path d="M68.67935,24.374h0a.1.1,0,0,1-.055.13029l-1.48239.60211a.1.1,0,0,1-.13028-.055h0a.1.1,0,0,1,.055-.13029l1.48239-.60211A.1.1,0,0,1,68.67935,24.374Z" />
  <path d="M76.25731,8.65064h0a.1.1,0,0,1-.02043.13994l-1.283.956a.1.1,0,0,1-.13994-.02044h0a.1.1,0,0,1,.02043-.13994l1.283-.956A.1.1,0,0,1,76.25731,8.65064Z" />
  <path d="M72.42887,27.44959h0a.1.1,0,0,1-.13729-.03394l-.82676-1.36985a.1.1,0,0,1,.03395-.13729h0a.1.1,0,0,1,.13729.03394l.82676,1.36985A.1.1,0,0,1,72.42887,27.44959Z" />
  <path d="M66.97395,21.82834h0a.1.1,0,0,1-.00256.1414L65.81967,23.0804a.1.1,0,0,1-.1414-.00257h0a.1.1,0,0,1,.00256-.1414l1.15171-1.11067A.1.1,0,0,1,66.97395,21.82834Z" />
  <path d="M78.78013,17.73863h0a.1.1,0,0,1-.13947.02346L77.33735,16.834a.1.1,0,0,1-.02345-.13947h0a.1.1,0,0,1,.13947-.02346l1.30333.92809A.1.1,0,0,1,78.78013,17.73863Z" />
  <path d="M69.78146,21.17h0a.1.1,0,0,1,.05019.13222l-.65627,1.45922a.1.1,0,0,1-.13222.05018h0a.1.1,0,0,1-.05019-.13222l.65627-1.45922A.1.1,0,0,1,69.78146,21.17Z" />
  <path d="M71.21583,3.82022h0a.1.1,0,0,1-.02043.13994l-1.283.956a.1.1,0,0,1-.13994-.02044h0a.1.1,0,0,1,.02043-.13994l1.283-.956A.1.1,0,0,1,71.21583,3.82022Z" />
  <path d="M74.43592,4.09245v0a.1.1,0,0,1-.10073.09927l-1.6-.01172a.1.1,0,0,1-.09926-.10074v0A.1.1,0,0,1,72.73669,3.98l1.6.01172A.1.1,0,0,1,74.43592,4.09245Z" />
  <path d="M77.48948,6.94672h0a.1.1,0,0,1-.13405-.04506l-.7119-1.4329a.1.1,0,0,1,.04507-.13405h0a.1.1,0,0,1,.13405.04506l.7119,1.4329A.1.1,0,0,1,77.48948,6.94672Z" />
  <path d="M76.80485,23.36065h0a.1.1,0,0,1-.14067-.0146l-1.00846-1.24219a.1.1,0,0,1,.01461-.14067h0a.1.1,0,0,1,.14067.0146L76.81947,23.22A.1.1,0,0,1,76.80485,23.36065Z" />
  <path d="M69.6826,15.54667h0a.1.1,0,0,1-.1272.06182l-1.5121-.523a.1.1,0,0,1-.06181-.1272h0a.1.1,0,0,1,.1272-.06182l1.5121.523A.1.1,0,0,1,69.6826,15.54667Z" />
  <path d="M74.35907,17.27007h0a.1.1,0,0,1,.039.13595l-.77586,1.3993a.1.1,0,0,1-.136.039h0a.1.1,0,0,1-.039-.13595l.77586-1.3993A.1.1,0,0,1,74.35907,17.27007Z" />
  <path d="M74.76451,12.28855v0a.1.1,0,0,1-.09117.10812l-1.59425.13555A.1.1,0,0,1,72.971,12.441v0a.1.1,0,0,1,.09117-.10812l1.59425-.13555A.1.1,0,0,1,74.76451,12.28855Z" />
  <path d="M76.649,26.45307v0a.1.1,0,0,1-.11089.08777l-1.58927-.185a.1.1,0,0,1-.08776-.1109v0a.1.1,0,0,1,.11089-.08777l1.58927.185A.1.1,0,0,1,76.649,26.45307Z" />
  <path d="M81.33451,19.855h0a.1.1,0,0,1-.01068.141L80.1102,21.03867a.1.1,0,0,1-.141-.01069h0a.1.1,0,0,1,.01068-.141l1.21362-1.04267A.1.1,0,0,1,81.33451,19.855Z" />
  <path d="M80.15965,24.317h0a.1.1,0,0,1-.05271.13124l-1.47153.62818a.1.1,0,0,1-.13123-.05272h0a.1.1,0,0,1,.05271-.13124l1.47153-.62818A.1.1,0,0,1,80.15965,24.317Z" />
  <path d="M77.38532,27.90571h0a.1.1,0,0,1-.04732.13327l-1.44472.6876a.1.1,0,0,1-.13327-.04733h0a.1.1,0,0,1,.04732-.13327l1.44472-.6876A.1.1,0,0,1,77.38532,27.90571Z" />
  <path d="M83.47678,12.73611h0a.1.1,0,0,1-.04732.13327l-1.44472.68759a.1.1,0,0,1-.13327-.04733h0a.1.1,0,0,1,.04732-.13327l1.44472-.68759A.1.1,0,0,1,83.47678,12.73611Z" />
  <path d="M84.89369,16.18831h0a.1.1,0,0,1-.14037.01723l-1.26075-.98515a.1.1,0,0,1-.01722-.14037h0a.1.1,0,0,1,.14037-.01723l1.26075.98515A.1.1,0,0,1,84.89369,16.18831Z" />
  <path d="M88.14259,10.42049h0a.1.1,0,0,1-.136-.03886l-.77693-1.39871a.1.1,0,0,1,.03887-.136h0a.1.1,0,0,1,.136.03886l.77693,1.39871A.1.1,0,0,1,88.14259,10.42049Z" />
  <path d="M85.84054,11.98276h0a.1.1,0,0,1,.09264.10686l-.1138,1.596a.1.1,0,0,1-.10687.09263h0a.1.1,0,0,1-.09264-.10686l.1138-1.596A.1.1,0,0,1,85.84054,11.98276Z" />
  <path d="M77.28626,2.28664h0a.1.1,0,0,1-.06663.12474l-1.531.46481a.1.1,0,0,1-.12474-.06664h0a.1.1,0,0,1,.06663-.12474l1.531-.46481A.1.1,0,0,1,77.28626,2.28664Z" />
  <path d="M72.345,1.3138h0a.1.1,0,0,1-.02074.1399l-1.28508.9532a.1.1,0,0,1-.13989-.02075h0a.1.1,0,0,1,.02074-.1399l1.28508-.9532A.1.1,0,0,1,72.345,1.3138Z" />
  <path d="M13.47642,161.86277h0a.1.1,0,0,1,.043.13473l-.73366,1.42187a.1.1,0,0,1-.13472.043h0a.1.1,0,0,1-.043-.13473l.73366-1.42187A.1.1,0,0,1,13.47642,161.86277Z" />
  <path d="M19.10256,165.52244h0a.1.1,0,0,1-.06194.12714l-1.51256.52167a.1.1,0,0,1-.12715-.06193h0a.1.1,0,0,1,.06194-.12714l1.51256-.52167A.1.1,0,0,1,19.10256,165.52244Z" />
  <path d="M13.17332,166.56679h0a.1.1,0,0,1,.08676.11168l-.19932,1.58753a.1.1,0,0,1-.11168.08677h0a.1.1,0,0,1-.08676-.11168l.19932-1.58753A.1.1,0,0,1,13.17332,166.56679Z" />
  <path d="M22.01953,164.12644h0a.1.1,0,0,1-.01016.14106l-1.20966,1.04724a.1.1,0,0,1-.14106-.01015h0a.1.1,0,0,1,.01016-.14106l1.20966-1.04724A.1.1,0,0,1,22.01953,164.12644Z" />
  <path d="M21.96429,167.284h0a.1.1,0,0,1-.11545.08168l-1.577-.27a.1.1,0,0,1-.08169-.11544h0a.1.1,0,0,1,.11545-.08168l1.577.27A.1.1,0,0,1,21.96429,167.284Z" />
  <path d="M11.89924,169.48566h0a.1.1,0,0,1-.06806.124L10.295,170.057a.1.1,0,0,1-.124-.068h0a.1.1,0,0,1,.06806-.124l1.53617-.44738A.1.1,0,0,1,11.89924,169.48566Z" />
  <path d="M11.30928,162.25732h0a.1.1,0,0,1-.01016.14106l-1.20966,1.04723a.1.1,0,0,1-.14106-.01015h0a.1.1,0,0,1,.01016-.14106l1.20966-1.04723A.1.1,0,0,1,11.30928,162.25732Z" />
  <path d="M7.3112,165.83476h0a.1.1,0,0,1,.13893-.02643l1.3229.89994a.1.1,0,0,1,.02644.13893h0a.1.1,0,0,1-.13893.02643l-1.3229-.89994A.1.1,0,0,1,7.3112,165.83476Z" />
  <path d="M18.30373,162.81958h0a.1.1,0,0,1,.11363.0842l.23548,1.58257a.1.1,0,0,1-.08419.11363h0a.1.1,0,0,1-.11363-.0842l-.23548-1.58257A.1.1,0,0,1,18.30373,162.81958Z" />
  <path d="M15.65367,174.59281h0a.1.1,0,0,1-.01016.14106l-1.20967,1.04722a.1.1,0,0,1-.14106-.01015h0a.1.1,0,0,1,.01016-.14106l1.20967-1.04722A.1.1,0,0,1,15.65367,174.59281Z" />
  <path d="M12.89239,180.69806h0a.1.1,0,0,1-.01016.14106l-1.20968,1.04721a.1.1,0,0,1-.14106-.01015h0a.1.1,0,0,1,.01016-.14106l1.20968-1.04721A.1.1,0,0,1,12.89239,180.69806Z" />
  <path d="M13.40574,183.98536h0a.1.1,0,0,1-.0999.10011l-1.6.00177a.1.1,0,0,1-.10012-.09989h0a.1.1,0,0,1,.0999-.10011l1.6-.00177A.1.1,0,0,1,13.40574,183.98536Z" />
  <path d="M7.698,170.0468h0a.1.1,0,0,1-.05244.13134l-1.47021.63124a.1.1,0,0,1-.13135-.05243h0a.1.1,0,0,1,.05244-.13134l1.47021-.63124A.1.1,0,0,1,7.698,170.0468Z" />
  <path d="M8.93955,168.58453h0a.1.1,0,0,1-.11545.08168l-1.577-.27a.1.1,0,0,1-.08169-.11544h0a.1.1,0,0,1,.11545-.08168l1.577.27A.1.1,0,0,1,8.93955,168.58453Z" />
  <path d="M13.34846,170.85625h0a.1.1,0,0,1,.11984.0751l.358,1.55943a.1.1,0,0,1-.07509.11984h0a.1.1,0,0,1-.11984-.0751l-.358-1.55943A.1.1,0,0,1,13.34846,170.85625Z" />
  <path d="M19.88611,171.00115h0a.1.1,0,0,1-.06194.12714l-1.51256.52166a.1.1,0,0,1-.12714-.06193h0a.1.1,0,0,1,.06194-.12714l1.51256-.52166A.1.1,0,0,1,19.88611,171.00115Z" />
  <path d="M13.69712,164.86522h0a.1.1,0,0,1,.13893-.02643l1.32289.9a.1.1,0,0,1,.02644.13893h0a.1.1,0,0,1-.13893.02643l-1.32289-.9A.1.1,0,0,1,13.69712,164.86522Z" />
  <path d="M5.63941,181.15363h0a.1.1,0,0,1-.06194.12714l-1.51256.52165a.1.1,0,0,1-.12714-.06193h0a.1.1,0,0,1,.06194-.12714l1.51256-.52165A.1.1,0,0,1,5.63941,181.15363Z" />
  <path d="M10.22734,161.29485h0a.1.1,0,0,1-.02792.13864l-1.33242.88579a.1.1,0,0,1-.13864-.02791h0a.1.1,0,0,1,.02792-.13864l1.33242-.88579A.1.1,0,0,1,10.22734,161.29485Z" />
  <path d="M13.609,178.72137h0a.1.1,0,0,1-.13527-.04127l-.752-1.41224a.1.1,0,0,1,.04126-.13527h0a.1.1,0,0,1,.13527.04127l.752,1.41224A.1.1,0,0,1,13.609,178.72137Z" />
  <path d="M9.59531,184.413h0a.1.1,0,0,1-.07979-.11677l.2958-1.57241a.1.1,0,0,1,.11676-.0798h0a.1.1,0,0,1,.07979.11677l-.2958,1.57241A.1.1,0,0,1,9.59531,184.413Z" />
  <path d="M7.90655,172.1705h0a.1.1,0,0,1-.01016.14106l-1.20968,1.04721a.1.1,0,0,1-.14106-.01015h0a.1.1,0,0,1,.01016-.14106l1.20968-1.04721A.1.1,0,0,1,7.90655,172.1705Z" />
  <path d="M20.4724,169.36536h0a.1.1,0,0,1-.14052.01593l-1.25162-.9967a.1.1,0,0,1-.01594-.14052h0a.1.1,0,0,1,.14052-.01593l1.25162.9967A.1.1,0,0,1,20.4724,169.36536Z" />
  <path d="M11.30251,172.30868h0a.1.1,0,0,1,.043.13473l-.73367,1.42186a.1.1,0,0,1-.13472.043h0a.1.1,0,0,1-.043-.13473l.73367-1.42186A.1.1,0,0,1,11.30251,172.30868Z" />
  <path d="M5.43566,173.33652h0a.1.1,0,0,1-.02792.13864l-1.33242.88579a.1.1,0,0,1-.13864-.02791h0a.1.1,0,0,1,.02792-.13864l1.33242-.88579A.1.1,0,0,1,5.43566,173.33652Z" />
  <path d="M11.45952,179.01467h0a.1.1,0,0,1-.10592.09371l-1.597-.09757a.1.1,0,0,1-.09372-.10591h0a.1.1,0,0,1,.10592-.09371l1.597.09757A.1.1,0,0,1,11.45952,179.01467Z" />
  <path d="M14.79277,181.78613h0a.1.1,0,0,1-.13144-.0522l-.63394-1.469a.1.1,0,0,1,.05219-.13144h0a.1.1,0,0,1,.13144.0522l.63394,1.469A.1.1,0,0,1,14.79277,181.78613Z" />
  <path d="M8.0941,183.84762h0a.1.1,0,0,1-.13144-.0522l-.63394-1.469a.1.1,0,0,1,.05219-.13144h0a.1.1,0,0,1,.13144.0522l.63394,1.469A.1.1,0,0,1,8.0941,183.84762Z" />
  <path d="M4.53281,184.97553h0a.1.1,0,0,1-.07979-.11677l.2958-1.57241a.1.1,0,0,1,.11676-.0798h0a.1.1,0,0,1,.07979.11677l-.2958,1.57241A.1.1,0,0,1,4.53281,184.97553Z" />
  <path d="M3.02442,187.01323h0a.1.1,0,0,1,.06439-.12591l1.5224-.4922a.1.1,0,0,1,.12592.06438h0a.1.1,0,0,1-.06439.12591l-1.5224.4922A.1.1,0,0,1,3.02442,187.01323Z" />
  <path d="M.62662,187.21281h0a.1.1,0,0,1-.0076-.14122L1.68794,185.881a.1.1,0,0,1,.14122-.00761h0a.1.1,0,0,1,.0076.14122L.76784,187.2052A.1.1,0,0,1,.62662,187.21281Z" />
  <path d="M5.2046,191.42623h0a.1.1,0,0,1,.09917-.10083l1.59994-.01338a.1.1,0,0,1,.10084.09916h0a.1.1,0,0,1-.09917.10083l-1.59994.01338A.1.1,0,0,1,5.2046,191.42623Z" />
  <path d="M6.19591,194.23871h0a.1.1,0,0,1,.03738-.13639l1.39015-.79212a.1.1,0,0,1,.1364.03737h0a.1.1,0,0,1-.03738.13639l-1.39015.79212A.1.1,0,0,1,6.19591,194.23871Z" />
  <path d="M2.777,184.478h0a.1.1,0,0,1-.11069-.088L2.485,182.80028a.1.1,0,0,1,.088-.1107h0a.1.1,0,0,1,.11069.088l.18138,1.58968A.1.1,0,0,1,2.777,184.478Z" />
  <path d="M18.1982,174.8732h0a.1.1,0,0,1-.13968-.02214l-.94032-1.29451a.1.1,0,0,1,.02213-.13968h0a.1.1,0,0,1,.13968.02214l.94032,1.29451A.1.1,0,0,1,18.1982,174.8732Z" />
  <path d="M11.50567,166.68813h0a.1.1,0,0,1-.13033.0549l-1.48185-.60341a.1.1,0,0,1-.05491-.13033h0a.1.1,0,0,1,.13033-.0549l1.48185.60341A.1.1,0,0,1,11.50567,166.68813Z" />
  <path d="M16.08285,168.66012h0a.1.1,0,0,1,.03161.13785l-.84986,1.35562a.1.1,0,0,1-.13785.03162h0a.1.1,0,0,1-.03161-.13785l.84986-1.35562A.1.1,0,0,1,16.08285,168.66012Z" />
  <path d="M16.75512,163.70754h0a.1.1,0,0,1-.09685.10306l-1.59922.04978a.1.1,0,0,1-.10307-.09684h0a.1.1,0,0,1,.09685-.10306l1.59922-.04978A.1.1,0,0,1,16.75512,163.70754Z" />
  <path d="M4.20522,176.82761h0a.1.1,0,0,1,.043.13473l-.73366,1.42187a.1.1,0,0,1-.13472.043h0a.1.1,0,0,1-.043-.13473l.73366-1.42187A.1.1,0,0,1,4.20522,176.82761Z" />
  <path d="M9.83133,180.48728h0a.1.1,0,0,1-.06194.12714l-1.51256.52165a.1.1,0,0,1-.12714-.06193h0a.1.1,0,0,1,.06194-.12714l1.51256-.52165A.1.1,0,0,1,9.83133,180.48728Z" />
  <path d="M4.00279,179.21167h0a.1.1,0,0,1,.13893-.02643l1.32291.89994a.1.1,0,0,1,.02644.13893h0a.1.1,0,0,1-.13893.02643l-1.32291-.89994A.1.1,0,0,1,4.00279,179.21167Z" />
  <path d="M2.36011,179.56306h0a.1.1,0,0,1,.13657.03673l.79875,1.38635a.1.1,0,0,1-.03672.13657h0a.1.1,0,0,1-.13657-.03673l-.79875-1.38635A.1.1,0,0,1,2.36011,179.56306Z" />
  <path d="M7.48388,178.67238h0a.1.1,0,0,1-.09685.10306l-1.59922.04978a.1.1,0,0,1-.10307-.09684h0a.1.1,0,0,1,.09685-.10306l1.59922-.04978A.1.1,0,0,1,7.48388,178.67238Z" />
  <path d="M16.53065,177.57853h0a.1.1,0,0,1-.11545.08169l-1.577-.27a.1.1,0,0,1-.08169-.11544h0a.1.1,0,0,1,.11545-.08169l1.577.27A.1.1,0,0,1,16.53065,177.57853Z" />
  <path d="M11.56287,159.62592h0a.1.1,0,0,1-.05441.13054l-1.47954.609a.1.1,0,0,1-.13054-.0544h0a.1.1,0,0,1,.05441-.13054l1.47954-.609A.1.1,0,0,1,11.56287,159.62592Z" />
  <path d="M11.53266,176.26423h0a.1.1,0,0,1-.01016.14106l-1.20967,1.04722a.1.1,0,0,1-.14106-.01015h0a.1.1,0,0,1,.01016-.14106l1.20967-1.04722A.1.1,0,0,1,11.53266,176.26423Z" />
  <path d="M6.31634,174.30764h0a.1.1,0,0,1,.11984.0751l.35794,1.55944a.1.1,0,0,1-.07509.11984h0a.1.1,0,0,1-.11984-.0751l-.35794-1.55944A.1.1,0,0,1,6.31634,174.30764Z" />
  <path d="M8.67333,177.20182h0a.1.1,0,0,1-.09431-.10539l.08862-1.59753a.1.1,0,0,1,.10538-.09431h0a.1.1,0,0,1,.09431.10539l-.08862,1.59753A.1.1,0,0,1,8.67333,177.20182Z" />
  <path d="M12.05375,188.65576h0a.1.1,0,0,1-.13527-.04127l-.752-1.41224a.1.1,0,0,1,.04126-.13527h0a.1.1,0,0,1,.13527.04127l.752,1.41224A.1.1,0,0,1,12.05375,188.65576Z" />
  <path d="M9.27908,189.35375h0a.1.1,0,0,1-.10592.09371l-1.597-.09757a.1.1,0,0,1-.09372-.10591h0a.1.1,0,0,1,.10592-.09371l1.597.09757A.1.1,0,0,1,9.27908,189.35375Z" />
  <path d="M9.84986,190.37094h0a.1.1,0,0,1,.044.1344l-.72284,1.4274a.1.1,0,0,1-.13439.044h0a.1.1,0,0,1-.044-.1344l.72284-1.4274A.1.1,0,0,1,9.84986,190.37094Z" />
  <path d="M9.56117,186.14727h0a.1.1,0,0,1-.01016.14106l-1.20966,1.04723a.1.1,0,0,1-.14106-.01015h0a.1.1,0,0,1,.01016-.14106l1.20966-1.04723A.1.1,0,0,1,9.56117,186.14727Z" />
  <path d="M6.20589,188.385h0a.1.1,0,0,1-.09431-.10539l.08862-1.59753a.1.1,0,0,1,.10538-.09431h0a.1.1,0,0,1,.09431.10539l-.08862,1.59753A.1.1,0,0,1,6.20589,188.385Z" />
  <path d="M3.803,189.94173h0a.1.1,0,0,1-.09431-.10539l.08862-1.59753a.1.1,0,0,1,.10538-.09431h0a.1.1,0,0,1,.09431.10539l-.08862,1.59753A.1.1,0,0,1,3.803,189.94173Z" /> </g>
</svg>
