<svg id="Clipware7" xmlns="http://www.w3.org/2000/svg" viewBox="0 0 44.08789 206.68701" width="50" height="210">
    <title>Clipware7</title> <g fill="#000000" stroke-width="0.2324">
    <path d="M153.18652,87.65039c-.01471,0-.027.00757-.04156.00812a4.68,4.68,0,0,1-.52875-.31818c-.63086-.417-1.417-.93457-2.13086-.55127a1.35655,1.35655,0,0,0-.58868.69916c-.656-.74048-1.46686-1.507-2.26386-1.21381a1.37578,1.37578,0,0,0-.77765.926c-1.0733-1.00574-1.76123-1.59283-2.45282-1.29321a.96477.96477,0,0,0-.42322.3609c-.87067.68188-2.764.62067-4.31018.56488-.42139-.01562-.82227-.03027-1.18262-.03027l-.292.00244c-1.07324.019-3.06934.03955-4.2085-1.08545a3.40443,3.40443,0,0,1-.88721-2.52393h-.00635v-6.106h.00635a3.40443,3.40443,0,0,1,.88721-2.52393c1.13916-1.12549,3.13428-1.10254,4.2085-1.08545l.292.00244c.36035,0,.76172-.01465,1.18311-.03027,1.53149-.05524,3.40424-.11609,4.28546.54584a.98717.98717,0,0,0,.44745.4068.92137.92137,0,0,0,.37061.07861c.5766,0,1.19873-.54395,2.08228-1.37164a1.37479,1.37479,0,0,0,.7771.92535,1.02852,1.02852,0,0,0,.35986.06445c.67841,0,1.34711-.64813,1.90454-1.27771a1.35655,1.35655,0,0,0,.58862.6991,1.11743,1.11743,0,0,0,.53809.13477,3.19846,3.19846,0,0,0,1.59277-.686c.14148-.09314.27008-.174.38745-.24176a1.04092,1.04092,0,0,0,.18286.03571c1.17188,0,1.78516-1.79687,1.78516-3.57178s-.61328-3.57178-1.78516-3.57178c-.01471,0-.027.00757-.04156.00812a4.68,4.68,0,0,1-.52875-.31818c-.63086-.4165-1.417-.93555-2.13086-.55127a1.35655,1.35655,0,0,0-.58862.6991c-.656-.74078-1.46692-1.50818-2.26392-1.21375a1.376,1.376,0,0,0-.77771.926c-1.07489-1.00684-1.762-1.59387-2.45276-1.2937a.966.966,0,0,0-.4234.36151c-.87067.6817-2.76251.62048-4.309.56427-.42187-.01562-.82275-.03027-1.18359-.03027l-.29248.00244c-1.07422.01416-3.06836.03955-4.2085-1.08545a3.405,3.405,0,0,1-.88672-2.52344h-.00635l-.02734-4.55225c-.147-2.02539-.87549-2.56494-1.73584-2.99561-.09015-.0451-.16949-.0899-.25012-.13507l1.11975-20.29462c-.00439-.05615.01807-.24023.08447-.2832.60791-.38916,1.15332-.79053,1.15332-1.41895,0-1.21228-1.98059-1.96008-4.42841-2.402a23.57123,23.57123,0,0,0-3.36981-.419c-1.2652-.09851-2.48462-.1394-3.47815-.1394-.84375,0-1.85339.03143-2.91266.10052a22.9225,22.9225,0,0,0-4.55811.58075c-2.15045.45355-3.8056,1.17206-3.8056,2.27917,0,.69238.6499,1.14063,1.1748,1.4209a.829.829,0,0,1,.0625.34717l1.11938,20.20416a5.14979,5.14979,0,0,1-.64331.56c-.74268.55127-1.51074,1.12158-1.51074,3.39941V183.416c-.10254.56055-.67236,4.70605,3.97852,8.416l-.06738,5.5459a1.82509,1.82509,0,0,1-.74609,1.40039l-.21338.12109,1.83783,29.10614a1.56316,1.56316,0,0,0,.07257,1.14868l.19989.40637a5.69751,5.69751,0,0,0,.81207,1.06049,15.74275,15.74275,0,0,0,3.8042,2.7959,13.15279,13.15279,0,0,0,5.54883,1.79785,1.832,1.832,0,0,0,1.74121-.75879l.05762-.14648a1.6761,1.6761,0,0,0,.02588-.38574l1.9458-34.98535-.166-.16016a1.80266,1.80266,0,0,1-.73828-1.46l-.06592-5.48633c4.65039-3.709,4.08105-7.85449,3.97852-8.415V99.12109h-1v84.34375l.01123.10645c.00879.04.82031,4.06543-3.79785,7.623l-.19775.15234.07617,5.91211a2.49469,2.49469,0,0,0,.44965,1.54773,36.5594,36.5594,0,0,1-6.5722.45129,37.20483,37.20483,0,0,1-6.53082-.44165,2.4757,2.4757,0,0,0,.46393-1.486l.07617-5.98254-.19775-.15332c-4.59033-3.53613-3.832-7.46-3.79736-7.625l.01074-.05273V57.41992c0-1.7749.44043-2.10156,1.10693-2.59668.14429-.10712.29761-.22412.45343-.3562,1.52911,1.21136,7.22919,1.28394,8.51337,1.28394,1.30072,0,7.14081-.07178,8.57867-1.31.04779.0246.09625.05.14252.07318.6499.32568,1.21094.60645,1.21094,2.90576v3.74951h.00635c-.00024,2.82764-.697,5.75244-1.86328,5.75244l-1.9585-.00879s-4.75537-.0083-6.57129-.0083c-5.18066,0-8.79932,3.38721-8.79932,8.2373V96.98877a9.16545,9.16545,0,0,0,4.94293,8.56006l-2.6684,1.08179a2.45082,2.45082,0,0,0-.54553,4.80591l2.98975.81348-2.42181,1.01361a2.45154,2.45154,0,0,0-.56793,4.80817l2.76239.77905-2.22821.88879a2.45081,2.45081,0,0,0-.53418,4.8053l2.84595.80261-2.30042.95056a2.45082,2.45082,0,0,0-.54553,4.80591l2.9986.8457-2.43439,1.05743a2.45142,2.45142,0,0,0-.56421,4.8078l2.81281.79327-2.29712.855a2.45,2.45,0,0,0-.51569,4.80292l2.9823.84106-2.47742.8855.00317.00891a2.44985,2.44985,0,0,0-.50806,4.80212l2.8642.8078-2.32239.94672a2.45043,2.45043,0,0,0-.54181,4.80505l3.11475.793-2.577.97174a2.45087,2.45087,0,0,0-.53778,4.8056l2.69476.76-2.142.76587a2.45133,2.45133,0,0,0-.55273,4.80713l1.90723.53809a7.95072,7.95072,0,0,0,4.18158,12.54511,10.27173,10.27173,0,0,1,1.58112,2.17169l.44971.81641.43164-.82617a9.08905,9.08905,0,0,1,1.43506-2.08118,7.96678,7.96678,0,0,0,6.16553-7.74695l.00391-.2998a4.67465,4.67465,0,0,0-.30273-1.86719,8.21868,8.21868,0,0,0-3.69641-4.57654l2.62238-.93762a2.4552,2.4552,0,0,0,.76788-4.78271l-3.0191-.85278,2.32684-.94244a2.45161,2.45161,0,0,0,.69226-4.77509l-3.03589-.85754,2.351-.92767a2.45134,2.45134,0,0,0,.68488-4.77435l-2.88324-.81445,2.17224-.94617a2.45239,2.45239,0,0,0,.711-4.777l-2.9176-.82416,2.2439-.85431a2.45062,2.45062,0,0,0,.67371-4.77271L127.125,136.25l2.34222-1.083a2.45225,2.45225,0,0,0,.7149-4.77686l-2.93213-.85889,2.25079-.9267a2.45091,2.45091,0,0,0,.68134-4.7735L127.28125,123l2.24365-.85547-.00537-.015a2.45026,2.45026,0,0,0,.6626-4.77161L127.15625,116.5l2.34082-1.00348a2.451,2.451,0,0,0,.68506-4.77386l-2.96338-.84766,2.29321-.90686a2.45049,2.45049,0,0,0,.67017-4.77234l-4.95068-1.39825V97.27344a3.69028,3.69028,0,0,1,3.04443-3.43359h1.95947c1.28711,0,1.86328,2.65088,1.86328,5.27783h1a3.405,3.405,0,0,1,.88672-2.52344c1.13965-1.12549,3.1377-1.10547,4.2085-1.08545l.29248.00244c.36084,0,.76172-.01465,1.18359-.03027,1.53436-.05524,3.40472-.11646,4.28534.546a.987.987,0,0,0,.44708.40613.92137.92137,0,0,0,.37061.07861c.5766,0,1.19873-.54395,2.08228-1.37164a1.37479,1.37479,0,0,0,.7771.92535,1.02852,1.02852,0,0,0,.35986.06445c.67841,0,1.34711-.64813,1.90454-1.27771a1.35655,1.35655,0,0,0,.58862.6991,1.11743,1.11743,0,0,0,.53809.13477A3.19846,3.19846,0,0,0,152.61621,95c.14148-.09314.27008-.174.38745-.24176a1.04092,1.04092,0,0,0,.18286.03571c1.17188,0,1.78516-1.79687,1.78516-3.57178S154.3584,87.65039,153.18652,87.65039Zm-26.05487,146.362c-.36609.42169-2.63635.29987-5.88849-1.4743a14.73367,14.73367,0,0,1-3.55615-2.60352c-.87354-.9248-.94824-1.45508-.86572-1.60645.064-.11719.32275-.24219.85791-.24219a12.23322,12.23322,0,0,1,5.07617,1.68164c2.77393,1.51074,4.2959,3.22852,4.38086,4.16016Zm-5.07013-33.75458a28.99523,28.99523,0,0,0,6.978-.55078l-1.7959,32.29395a13.62133,13.62133,0,0,0-4.00928-3.11133,13.02706,13.02706,0,0,0-5.55518-1.80371,3.01994,3.01994,0,0,0-.85254.1084L115.09033,199.71A29.11941,29.11941,0,0,0,122.06152,200.25781Zm-7.12494-170.087c.74457-.15741,1.6181-.29828,2.62238-.408,1.20728-.1189,2.70813-.20233,4.54114-.20233,4.27148,0,6.84521.44043,7.71533.77295-.87012.33252-3.44434.77295-7.71533.77295-4.27051,0-6.84473-.44043-7.71484-.77295A5.2549,5.2549,0,0,1,114.93658,30.17084ZM112.583,32.06641c-.69141-.38232-.69922-.57031-.69922-.57812,0-.2348.46057-.54779,1.33679-.85474.73846,1.32135,6.36365,1.4729,8.87952,1.4729,2.5387,0,8.24347-.15436,8.89832-1.50934.94574.31842,1.43811.64709,1.43811.89117,0,.04-.06738.17676-.69238.57715a1.13927,1.13927,0,0,0-.46509.61761,29.41045,29.41045,0,0,1-9.1189,1.16608,29.71294,29.71294,0,0,1-9.11908-1.16022A1.01375,1.01375,0,0,0,112.583,32.06641Zm17.48334,21.63971-.05823.0495c-.50867.36969-3.1568.99536-7.848.99536-4.82324,0-7.50684-.66357-7.9043-1.02783l-.01019-.18439c.83813-.43378,3.5202-.97235,7.91449-.97235,4.39612,0,7.07849.539,7.91541.9729Zm.03168-.57275c-1.49292-.69653-5.22815-.96735-7.93787-.96735-2.70923,0-6.44354.27075-7.937.967l-1.103-19.89764a2.3774,2.3774,0,0,0-.0307-.3139,30.60356,30.60356,0,0,0,9.07074,1.12787,30.30824,30.30824,0,0,0,9.05823-1.13031,1.18979,1.18979,0,0,0-.01721.28168Zm23.0885,13.4892c.20215,0,.78516.88428.78516,2.57178s-.583,2.57178-.78516,2.57178-.78613-.88428-.78613-2.57178S152.98438,66.62256,153.18652,66.62256Zm-34.04669,39.52679a10.73747,10.73747,0,0,0,1.20148.3913v1.40222l-3.24756-.91162Zm.01917,6.563,1.18231.33344v1.53217l-3.24756-.98419Zm-.10077,6.60681,1.28308.36188V121.051l-3.24756-.926Zm.08325,6.49664,1.19983.33838v1.45618l-3.21631-.92285Zm.02747,6.56683,1.17236.33063v1.60785l-3.27881-.97736Zm-.0603,6.69391,1.23267.34766v1.34827l-3.21631-.92871Zm.17261,6.51721,1.06006.28162v1.43469l-3.30457-.93341Zm-.12152,6.486,1.18158.33319v1.45685l-3.24756-.96356Zm.03363,6.569,1.14795.32373v1.46759l-3.1568-.97174Zm-.20312,6.513,1.35107.381v1.22931l-3.27087-.92389ZM122.73,184.28809c-.1333-.20795-.29486-.4411-.4657-.67511.1875.01331.37451.02863.56531.02863.11389,0,.22473-.01233.33746-.01709C123.00769,183.85138,122.85663,184.079,122.73,184.28809Zm6.80615-10.46484a3.71108,3.71108,0,0,1,.25537,1.53906l-.00439.32129a6.9664,6.9664,0,0,1-5.444,6.78729l-.13293.03217a6.9578,6.9578,0,0,1-6.61591-11.40247l3.44788.973a4.03831,4.03831,0,1,0,5.83289,3.61c0-2.83594-2.93506-3.72949-3.8999-4.02344l-.11646-.01721-7.95-2.33826a1.45672,1.45672,0,0,1,.3999-2.85742,1.41678,1.41678,0,0,1,.3789.0498l8.40479,2.373A7.93123,7.93123,0,0,1,129.53613,173.82324Zm-6.77881-1.18359c2.15527.6709,3.11768,1.61133,3.11768,3.04395a3.04541,3.04541,0,1,1-3.11768-3.04395Zm-1.416-5.585v-1.22974l2.89014.81512v1.231Zm4.22693,1.26111c-.11969-.05048-.23041-.09387-.33679-.134v-1.2597l2.36737.66766Zm4.31311-4.14288a1.45655,1.45655,0,0,1-.48145,2.83105,1.4887,1.4887,0,0,1-.31787-.03418l-14.17383-3.998a1.4568,1.4568,0,0,1,.40039-2.85742,1.44136,1.44136,0,0,1,.3789.05078Zm-8.54-3.45032v-1.468l2.89014.81512v1.46918Zm4.16254,1.17578-.2724-.077v-1.4696l2.57043.72491Zm4.3775-4.29578a1.45655,1.45655,0,0,1-.48145,2.83105,1.4887,1.4887,0,0,1-.31787-.03418l-14.17383-3.998a1.45624,1.45624,0,0,1,.40039-2.85645,1.41678,1.41678,0,0,1,.3789.0498Zm-8.54-3.45032V152.695l2.89014.81512v1.45844Zm4.14575,1.171-.25562-.0722v-1.45886l2.45605.70782Zm4.39429-4.28027a1.45655,1.45655,0,0,1-.48145,2.83105,1.4887,1.4887,0,0,1-.31787-.03418l-14.17383-3.99854a1.45672,1.45672,0,0,1,.77929-2.80713Zm-8.54-3.45044v-1.43512l2.89014.81506v1.43646Zm4.29846,1.21423-.40833-.11536v-1.43689L127.625,148Zm4.24158-4.30188a1.45683,1.45683,0,0,1-.48145,2.83154,1.42712,1.42712,0,0,1-.31787-.03467l-14.17383-3.998a1.45672,1.45672,0,0,1,.77929-2.80713Zm-8.54-3.45v-1.34869l2.89014.81506v1.35Zm4.2641,1.20453-.374-.10565v-1.35046L127.625,141.5Zm4.27594-4.20526a1.45626,1.45626,0,0,1-.48145,2.83057,1.4378,1.4378,0,0,1-.31787-.03418l-14.17383-3.998a1.45672,1.45672,0,0,1,.77929-2.80713Zm-8.54-3.45062V132.9953l2.89014.81506V135.42Zm4.151,1.17267-.26086-.07373v-1.61011l2.4873.72009Zm4.389-4.43347a1.45655,1.45655,0,0,1-.48145,2.83105,1.4378,1.4378,0,0,1-.31787-.03418l-14.17383-3.998a1.45672,1.45672,0,0,1,.77929-2.80713Zm-8.54-3.45v-1.4566l2.89014.81506v1.45795Zm4.12982,1.16656-.23969-.06769v-1.45837l2.39355.68542Zm4.41022-4.27521a1.45626,1.45626,0,0,1-.48145,2.83057,1.4378,1.4378,0,0,1-.31787-.03418l-14.17383-3.998a1.457,1.457,0,0,1,.77929-2.80762Zm-8.54-3.45074v-1.37036l2.89014.81506V122.15Zm4.17969,1.18079-.28955-.08179v-1.37225l2.43542.68683Zm4.36035-4.20319a1.45626,1.45626,0,0,1-.48145,2.83057,1.4378,1.4378,0,0,1-.31787-.03418l-14.17383-3.998a1.45672,1.45672,0,0,1,.77929-2.80713Zm-8.54-3.45062v-1.53259l2.89014.81506v1.534Zm4.15527,1.17389-.26514-.075v-1.53442l2.53693.71545Zm4.38477-4.359a1.45655,1.45655,0,0,1-.48145,2.83105,1.4378,1.4378,0,0,1-.31787-.03418l-14.17383-3.998a1.45672,1.45672,0,0,1,.77929-2.80713Zm-8.54-3.45v-1.42407l2.89014.81494v1.42554Zm4.12939,1.16626.00006.00024-.23932-.06763v-1.426l2.46936.69635Zm4.41064-4.24316a1.45655,1.45655,0,0,1-.48145,2.83105,1.4378,1.4378,0,0,1-.31787-.03418l-8.16162-2.29883a8.48718,8.48718,0,0,1-7.01416-8.65771V75.14209c0-4.97266,4.043-7.2373,7.79932-7.2373,1.81494,0,6.56934.0083,6.57031.0083l1.95947.00879c1.65271,0,2.34894-2.13647,2.64453-4.01813a3.63929,3.63929,0,0,0,.40332.49957c1.43652,1.41895,3.78906,1.39258,4.92383,1.37354l.2793-.00244c.34912,0,.73828.01465,1.14648.02979.481.01758.97754.03564,1.46924.03564a8.50009,8.50009,0,0,0,2.49884-.29633,16.8423,16.8423,0,0,0-.09259,1.9809h1a9.83235,9.83235,0,0,1,.2063-2.58771c.0415-.03674.087-.069.12579-.10864a8.27049,8.27049,0,0,1,1.5517,1.28082l.23486.22015c-.03406.3526-.05322.74548-.05322,1.19537h1c0-2.13086.40088-2.33789.40479-2.33936.10645-.041.44092.07764,1.49268,1.31006l.16553.19159c-.01941.241-.03223.49756-.03223.78693h1c0-1.59473.31885-1.8125.355-1.832.189-.105.80908.30908,1.106.50537.03528.02325.06812.04321.10284.06592a5.27376,5.27376,0,0,0-.76788,2.98145,5.45728,5.45728,0,0,0,.7099,2.91461l-.04486.02875c-.29687.19629-.918.60449-1.106.50537-.03613-.01953-.355-.2373-.355-1.832h-1c0,.28937.01282.546.03223.78693l-.166.19208c-1.05127,1.23193-1.38477,1.34912-1.49219,1.30957-.00391-.00146-.40479-.209-.40479-2.33936h-1c0,.44989.01916.84271.05322,1.19531l-.23437.21973a8.86221,8.86221,0,0,1-1.57275,1.32422l-.008-.01.04657-.04468c-.03717-.03876-.08508-.06543-.12469-.10144a8.5815,8.5815,0,0,1-.2254-2.58313h-1a16.98878,16.98878,0,0,0,.09039,1.9599,12.40693,12.40693,0,0,0-3.96637-.26654c-.4082.01465-.79687.0293-1.146.0293l-.2793-.00244c-1.12939-.01416-3.48682-.04541-4.92383,1.374a3.63793,3.63793,0,0,0-.40826.50574c-.30341-1.73859-1.00916-3.54822-2.63959-3.54822l-1.9585-.0083s-4.53906-.00879-6.57129-.00879c-3.02783,0-4.90869,1.66553-4.90869,4.34717V96.98877a5.89877,5.89877,0,0,0,3.82715,5.5459Zm2.21729-21.95264c0,2.82813-.69678,5.75391-1.86328,5.75391h-1.95947c-2.69287,0-7.93457,2.95313-7.93457,8.36719V101.309a4.77715,4.77715,0,0,1-2.54443-4.32025V75.14209c0-2.127,1.4248-3.34717,3.90869-3.34717,2.03125,0,6.56934.00879,6.57031.00879l1.95947.0083c1.28711,0,1.86328,2.65088,1.86328,5.27783h-.00635v6.106Zm20.01166,10.941-.04486.02875c-.29687.19629-.918.60449-1.106.50537-.03613-.01953-.355-.2373-.355-1.832h-1c0,.28937.01282.546.03223.78693l-.166.19208c-1.05127,1.23242-1.38477,1.3501-1.49219,1.30957-.00391-.00146-.40479-.209-.40479-2.33936h-1c0,.44989.01916.84271.05322,1.19531l-.23437.21973a8.86221,8.86221,0,0,1-1.57275,1.32422l-.00775-.00977-.07819-.14563a8.57516,8.57516,0,0,1-.22559-2.58386h-1a16.981,16.981,0,0,0,.09052,1.96051,12.42629,12.42629,0,0,0-3.966-.26715c-.4082.01514-.79736.02979-1.14648.02979l-.2793-.00244c-1.13379-.01562-3.48682-.04443-4.92383,1.37354a3.63793,3.63793,0,0,0-.40826.50574c-.30341-1.73859-1.00916-3.54822-2.63959-3.54822h-1.95947c-1.78271,0-4.04443,2.0874-4.04443,4.43359v5.24164l-2.89014-.81628v-4.3819c0-4.86084,4.86084-7.36719,6.93457-7.36719h1.95947c1.65271,0,2.34894-2.13647,2.64453-4.01813a3.63929,3.63929,0,0,0,.40332.49957c1.437,1.41895,3.79785,1.38721,4.92383,1.374l.2793-.00244c.34912,0,.73779.01465,1.146.0293.48047.01807.97656.03613,1.46777.03613a8.50334,8.50334,0,0,0,2.50079-.29687,16.84345,16.84345,0,0,0-.09259,1.981h1a9.80258,9.80258,0,0,1,.20673-2.58813c.04126-.03656.08649-.06854.12512-.108a8.24806,8.24806,0,0,1,1.55243,1.28113l.23431.21973c-.03406.3526-.05316.74542-.05316,1.19531h1c0-2.13086.40088-2.33789.40479-2.33936.10645-.04.44092.07715,1.49268,1.31006l.16553.19159c-.01941.241-.03223.49756-.03223.78693h1c0-1.59473.31885-1.812.355-1.83154.189-.10547.80908.30908,1.106.50488.03528.02325.06812.04321.10284.06592a5.27376,5.27376,0,0,0-.76788,2.98145A5.45728,5.45728,0,0,0,152.11029,94.13678Zm1.07623-.34283c-.20215,0-.78613-.88428-.78613-2.57178s.584-2.57178.78613-2.57178.78516.88428.78516,2.57178S153.38867,93.79395,153.18652,93.79395Z"
          transform="translate(-110.88379 -28.52783)"/>
    <rect x="7.55412" y="179.06316" width="0.2" height="1.8" rx="0.1" ry="0.1"/>
    <rect x="124.49425" y="208.01437" width="0.2" height="1.8" rx="0.1" ry="0.1"
          transform="translate(67.88175 -56.75142) rotate(43.67912)"/>
    <rect x="123.98333" y="203.93333" width="0.2" height="1.8" rx="0.1" ry="0.1"
          transform="translate(-173.81547 26.7102) rotate(-20.13679)"/>
    <rect x="126.73333" y="205.62083" width="0.2" height="1.8" rx="0.1" ry="0.1"
          transform="translate(-25.01753 -60.87777) rotate(21.82415)"/>
    <rect x="128.46667" y="207.61667" width="0.2" height="1.8" rx="0.1" ry="0.1"
          transform="translate(177.64352 -5.54063) rotate(72.42445)"/>
    <rect x="119.87917" y="214.80833" width="0.2" height="1.8" rx="0.1" ry="0.1"
          transform="translate(82.85397 -48.37152) rotate(46.4702)"/>
    <rect x="116.35833" y="208.87083" width="0.2" height="1.8" rx="0.1" ry="0.1"
          transform="matrix(0.92833, 0.37176, -0.37176, 0.92833, -24.55292, -56.78784)"/>
    <rect x="14.24538" y="172.23883" width="0.2" height="1.8" rx="0.1" ry="0.1"/>
    <rect x="129.12917" y="200.6" width="0.2" height="1.8" rx="0.1" ry="0.1"
          transform="translate(-210.44429 102.56111) rotate(-40.22051)"/>
    <rect x="118.90206" y="201.7973" width="0.2" height="1.8" rx="0.1" ry="0.1"
          transform="translate(-207.46314 267.83022) rotate(-83.06598)"/>
    <rect x="116.84167" y="204.67917" width="0.2" height="1.8" rx="0.1" ry="0.1"
          transform="translate(-208.96901 78.55472) rotate(-35.75612)"/>
    <rect x="125.87541" y="217.84099" width="0.2" height="1.8" rx="0.1" ry="0.1"
          transform="translate(-20.53606 -59.683) rotate(21.82415)"/>
    <rect x="116.48333" y="217.30833" width="0.2" height="1.8" rx="0.1" ry="0.1"
          transform="translate(54.41395 -52.87559) rotate(39.47057)"/>
    <rect x="116.62917" y="215.01667" width="0.2" height="1.8" rx="0.1" ry="0.1"
          transform="translate(176.43507 10.90977) rotate(72.42445)"/>
    <rect x="123.02917" y="215.42917" width="0.2" height="1.8" rx="0.1" ry="0.1"
          transform="translate(-221.46219 102.12828) rotate(-40.2205)"/>
    <rect x="127.70276" y="212.52388" width="0.2" height="1.8" rx="0.1" ry="0.1"
          transform="translate(71.88348 -57.71929) rotate(43.67896)"/>
    <rect x="120.90417" y="209.36667" width="0.2" height="1.8" rx="0.1" ry="0.1"
          transform="translate(-213.21675 276.47324) rotate(-83.06598)"/>
    <rect x="128.46667" y="201.92917" width="0.2" height="1.8" rx="0.1" ry="0.1"
          transform="translate(172.22151 -9.51071) rotate(72.42445)"/>
    <rect x="127.56291" y="198.71599" width="0.2" height="1.8" rx="0.1" ry="0.1"
          transform="translate(62.30947 -61.44431) rotate(43.67912)"/>
    <rect x="121.62917" y="203.68333" width="0.2" height="1.8" rx="0.1" ry="0.1"
          transform="translate(3.94092 -61.90386) rotate(29.09109)"/>
    <rect x="125.54583" y="221.1" width="0.2" height="1.8" rx="0.1" ry="0.1"
          transform="translate(268.81689 216.42887) rotate(124.67195)"/>
    <rect x="118.67083" y="219.55833" width="0.2" height="1.8" rx="0.1" ry="0.1"
          transform="translate(-20.41399 -56.88155) rotate(21.82415)"/>
    <rect x="127.2125" y="209.975" width="0.2" height="1.8" rx="0.1" ry="0.1"
          transform="translate(248.07146 98.57144) rotate(101.23784)"/>
    <rect x="10.41204" y="189.343" width="0.2" height="1.8" rx="0.1" ry="0.1"/>
    <rect x="115.05" y="201.34583" width="0.2" height="1.8" rx="0.1" ry="0.1"
          transform="translate(1.97539 -58.99996) rotate(29.09132)"/>
    <rect x="117.7125" y="199.85" width="0.2" height="1.8" rx="0.1" ry="0.1"
          transform="translate(143.07581 -16.57485) rotate(66.20353)"/>
    <rect x="121.79583" y="200.26667" width="0.2" height="1.8" rx="0.1" ry="0.1"
          transform="translate(243.85153 205.99146) rotate(129.3653)"/>
    <rect x="127.79583" y="215.68333" width="0.2" height="1.8" rx="0.1" ry="0.1"
          transform="translate(267.97143 171.17152) rotate(116.71358)"/>
    <rect x="118.00275" y="211.96343" width="0.2" height="1.8" rx="0.1" ry="0.1"
          transform="translate(208.65425 47.6501) rotate(84.86361)"/>
    <rect x="123.79583" y="212.43333" width="0.2" height="1.8" rx="0.1" ry="0.1"
          transform="translate(-92.6326 -38.13058) rotate(4.79111)"/>
    <rect x="121.41092" y="207.26437" width="0.2" height="1.8" rx="0.1" ry="0.1"
          transform="translate(133.50845 -27.72182) rotate(60.92435)"/>
    <rect x="127.50041" y="219.52849" width="0.2" height="1.8" rx="0.1" ry="0.1"
          transform="translate(188.324 3.69469) rotate(72.4242)"/>
    <rect x="125.86925" y="227.7227" width="0.2" height="1.8" rx="0.1" ry="0.1"
          transform="translate(67.0303 -55.71429) rotate(40.33287)"/>
    <rect x="125.31667" y="232.01667" width="0.2" height="1.8" rx="0.1" ry="0.1"
          transform="matrix(0.26044, 0.96549, -0.96549, 0.26044, 206.74884, 22.64028)"/>
    <rect x="118.82032" y="229.6549" width="0.2" height="1.8" rx="0.1" ry="0.1"
          transform="translate(105.79186 -38.26754) rotate(49.42191)"/>
    <rect x="122.97957" y="221.21599" width="0.2" height="1.8" rx="0.1" ry="0.1"
          transform="translate(-19.48936 -58.36451) rotate(21.82405)"/>
    <rect x="118.3625" y="221.72083" width="0.2" height="1.8" rx="0.1" ry="0.1"
          transform="translate(-226.62828 100.60244) rotate(-40.22051)"/>
    <rect x="121.14624" y="223.21599" width="0.2" height="1.8" rx="0.1" ry="0.1"
          transform="translate(212.60078 350.59876) rotate(155.88254)"/>
    <rect x="123.02124" y="230.82016" width="0.2" height="1.8" rx="0.1" ry="0.1"
          transform="translate(-47.18343 -52.38981) rotate(14.895)"/>
    <rect x="121.14624" y="229.04933" width="0.2" height="1.8" rx="0.1" ry="0.1"
          transform="translate(254.87059 289.7001) rotate(137.6534)"/>
    <rect x="125.97957" y="223.63266" width="0.2" height="1.8" rx="0.1" ry="0.1"
          transform="translate(191.1758 8.01013) rotate(72.42445)"/>
    <rect x="7.94578" y="196.5715" width="0.2" height="1.8" rx="0.1" ry="0.1"/>
    <rect x="123.69583" y="226.59583" width="0.2" height="1.8" rx="0.1" ry="0.1"
          transform="translate(-228.51551 105.19968) rotate(-40.22068)"/>
    <rect x="117.16606" y="228.36363" width="0.2" height="1.8" rx="0.1" ry="0.1"
          transform="translate(-32.85276 -53.77109) rotate(18.32551)"/>
    <rect x="6.61621" y="9.72217" width="0.2" height="1.8" rx="0.1" ry="0.1"/>
    <rect x="122.51092" y="40.51853" width="0.2" height="1.8" rx="0.1" ry="0.1"
          transform="translate(-48.34298 -101.74138) rotate(43.67912)"/>
    <rect x="122" y="36.4375" width="0.2" height="1.8" rx="0.1" ry="0.1"
          transform="translate(-116.27414 15.78895) rotate(-20.13679)"/>
    <rect x="124.75" y="38.125" width="0.2" height="1.8" rx="0.1" ry="0.1"
          transform="translate(-87.42793 -72.14484) rotate(21.82405)"/>
    <rect x="126.48333" y="40.12083" width="0.2" height="1.8" rx="0.1" ry="0.1"
          transform="translate(16.58202 -120.56815) rotate(72.42445)"/>
    <rect x="117.39583" y="46.4375" width="0.2" height="1.8" rx="0.1" ry="0.1"
          transform="translate(-32.69197 -101.61169) rotate(49.98012)"/>
    <rect x="114.375" y="41.375" width="0.2" height="1.8" rx="0.1" ry="0.1"
          transform="translate(-86.9633 -68.05493) rotate(21.82405)"/>
    <rect x="12.26204" y="4.743" width="0.2" height="1.8" rx="0.1" ry="0.1"/>
    <rect x="127.14583" y="33.10417" width="0.2" height="1.8" rx="0.1" ry="0.1"
          transform="translate(-102.75596 61.67853) rotate(-40.22051)"/>
    <rect x="126.98333" y="29.93333" width="0.2" height="1.8" rx="0.1" ry="0.1"
          transform="translate(-74.70743 96.3097) rotate(-59.59735)"/>
    <rect x="121.15" y="29.35" width="0.2" height="1.8" rx="0.1" ry="0.1"
          transform="translate(-4.33664 125.82072) rotate(-97.2517)"/>
    <rect x="116.91872" y="34.30146" width="0.2" height="1.8" rx="0.1" ry="0.1"
          transform="translate(-42.93629 118.58672) rotate(-83.06598)"/>
    <rect x="114.85833" y="37.18333" width="0.2" height="1.8" rx="0.1" ry="0.1"
          transform="matrix(0.81151, -0.58434, 0.58434, 0.81151, -111.46895, 45.82477)"/>
    <rect x="122.89583" y="50.60417" width="0.2" height="1.8" rx="0.1" ry="0.1"
          transform="translate(-82.92144 -70.56131) rotate(21.82415)"/>
    <rect x="114.5" y="49.8125" width="0.2" height="1.8" rx="0.1" ry="0.1"
          transform="translate(-37.31752 -96.22627) rotate(47.0167)"/>
    <rect x="114.64583" y="47.52083" width="0.2" height="1.8" rx="0.1" ry="0.1"
          transform="translate(15.37411 -104.11771) rotate(72.4247)"/>
    <rect x="121.04583" y="47.93333" width="0.2" height="1.8" rx="0.1" ry="0.1"
          transform="translate(-113.77387 61.2457) rotate(-40.22051)"/>
    <rect x="125.71943" y="45.02804" width="0.2" height="1.8" rx="0.1" ry="0.1"
          transform="translate(-44.34023 -102.70926) rotate(43.67928)"/>
    <rect x="118.92083" y="41.87083" width="0.2" height="1.8" rx="0.1" ry="0.1"
          transform="translate(-48.6899 127.22973) rotate(-83.06598)"/>
    <rect x="126.48333" y="34.43333" width="0.2" height="1.8" rx="0.1" ry="0.1"
          transform="translate(11.16001 -124.53824) rotate(72.42445)"/>
    <rect x="119" y="53.5" width="0.2" height="1.8" rx="0.1" ry="0.1"
          transform="translate(-40.34949 -95.72365) rotate(43.67912)"/>
    <rect x="119.64583" y="36.1875" width="0.2" height="1.8" rx="0.1" ry="0.1"
          transform="translate(-77.7453 -82.06988) rotate(29.09132)"/>
    <rect x="123.5625" y="53.60417" width="0.2" height="1.8" rx="0.1" ry="0.1"
          transform="translate(127.95268 -44.72073) rotate(124.67175)"/>
    <rect x="116.6875" y="52.0625" width="0.2" height="1.8" rx="0.1" ry="0.1"
          transform="translate(-82.8244 -68.14864) rotate(21.82405)"/>
    <rect x="125.22917" y="42.47917" width="0.2" height="1.8" rx="0.1" ry="0.1"
          transform="translate(81.41723 -99.62103) rotate(101.23784)"/>
    <rect x="8.42871" y="21.84717" width="0.2" height="1.8" rx="0.1" ry="0.1"/>
    <rect x="113.06667" y="33.85" width="0.2" height="1.8" rx="0.1" ry="0.1"
          transform="translate(-79.71179 -79.16595) rotate(29.09132)"/>
    <rect x="115.72917" y="32.35417" width="0.2" height="1.8" rx="0.1" ry="0.1"
          transform="translate(-11.36336 -114.67325) rotate(66.20353)"/>
    <rect x="119.8125" y="32.77083" width="0.2" height="1.8" rx="0.1" ry="0.1"
          transform="translate(111.11623 -66.20734) rotate(129.3653)"/>
    <rect x="125.8125" y="48.1875" width="0.2" height="1.8" rx="0.1" ry="0.1"
          transform="translate(115.47839 -69.8472) rotate(116.71358)"/>
    <rect x="116.01942" y="44.4676" width="0.2" height="1.8" rx="0.1" ry="0.1"
          transform="translate(40.02574 -102.87484) rotate(84.86385)"/>
    <rect x="121.8125" y="44.9375" width="0.2" height="1.8" rx="0.1" ry="0.1"
          transform="translate(-106.62931 -38.55018) rotate(4.79111)"/>
    <rect x="119.42759" y="39.76853" width="0.2" height="1.8" rx="0.1" ry="0.1"
          transform="translate(-13.89887 -112.08732) rotate(60.92435)"/>
    <rect x="126.88473" y="51.74811" width="0.2" height="1.8" rx="0.1" ry="0.1"
          transform="translate(27.94672 -112.83454) rotate(72.42445)"/>
    <rect x="128.92758" y="44.35186" width="0.2" height="1.8" rx="0.1" ry="0.1"
          transform="translate(-79.47381 -79.0186) rotate(25.11792)"/>
    <rect x="129.45833" y="48.75" width="0.2" height="1.8" rx="0.1" ry="0.1"
          transform="translate(-42.93975 -103.19261) rotate(42.66746)"/>
    <rect x="128.42758" y="53.1852" width="0.2" height="1.8" rx="0.1" ry="0.1"
          transform="translate(-45.32657 -98.85839) rotate(40.33307)"/>
    <rect x="127.76092" y="36.85186" width="0.2" height="1.8" rx="0.1" ry="0.1"
          transform="translate(-56.05646 -102.30942) rotate(40.33307)"/>
    <rect x="130.17758" y="38.51853" width="0.2" height="1.8" rx="0.1" ry="0.1"
          transform="translate(88.72606 -106.23788) rotate(103.78827)"/>
    <rect x="130.92758" y="31.60186" width="0.2" height="1.8" rx="0.1" ry="0.1"
          transform="translate(124.55869 -81.5954) rotate(126.73368)"/>
    <rect x="130.5" y="35.35417" width="0.2" height="1.8" rx="0.1" ry="0.1"
          transform="translate(-115.38161 18.64897) rotate(-20.13679)"/>
    <rect x="117.73333" y="29.76667" width="0.2" height="1.8" rx="0.1" ry="0.1"
          transform="translate(-47.40789 -106.81257) rotate(48.89685)"/>
    <rect x="113.06667" y="31.1" width="0.2" height="1.8" rx="0.1" ry="0.1"
          transform="translate(-80.86479 -79.6973) rotate(29.21826)"/></g>
</svg>