<?xml version="1.0" encoding="utf-8"?>
<!-- Generator: Adobe Illustrator 18.0.0, SVG Export Plug-In . SVG Version: 6.00 Build 0)  -->
<!DOCTYPE svg PUBLIC "-//W3C//DTD SVG 1.1//EN" "http://www.w3.org/Graphics/SVG/1.1/DTD/svg11.dtd">
<svg version="1.1" xmlns="http://www.w3.org/2000/svg" xmlns:xlink="http://www.w3.org/1999/xlink" x="0px" y="0px" width ="160" height="192"
	 viewBox="0 0 160 192" enable-background="new 0 0 160 192" xml:space="preserve">
<g id="图层_12">
	<g id="Spline_20_">
		<line shape-rendering="auto" fill="none" stroke="#000000" stroke-width="0.2117" x1="78.6" y1="43.1" x2="77.7" y2="42.1"/>
		<line shape-rendering="auto" fill="none" stroke="#000000" stroke-width="0.2117" x1="92.5" y1="42.9" x2="93.9" y2="42.9"/>
		<line shape-rendering="auto" fill="none" stroke="#000000" stroke-width="0.2117" x1="86.5" y1="44.8" x2="84.8" y2="44.3"/>
		<line shape-rendering="auto" fill="none" stroke="#000000" stroke-width="0.2117" x1="98.7" y1="40.8" x2="97.4" y2="40.8"/>
		<line shape-rendering="auto" fill="none" stroke="#000000" stroke-width="0.2117" x1="72.1" y1="37.9" x2="71.1" y2="38.6"/>
		<line shape-rendering="auto" fill="none" stroke="#000000" stroke-width="0.2117" x1="71.5" y1="28.4" x2="72.3" y2="29.4"/>
		<line shape-rendering="auto" fill="none" stroke="#000000" stroke-width="0.2117" x1="79.3" y1="18.1" x2="77.8" y2="17.6"/>
		<line shape-rendering="auto" fill="none" stroke="#000000" stroke-width="0.2117" x1="79.9" y1="19.3" x2="81.1" y2="18.5"/>
		<line shape-rendering="auto" fill="none" stroke="#000000" stroke-width="0.2117" x1="75.8" y1="18.1" x2="74.5" y2="18.1"/>
		<line shape-rendering="auto" fill="none" stroke="#000000" stroke-width="0.2117" x1="75.7" y1="31.5" x2="74.4" y2="31.5"/>
		<line shape-rendering="auto" fill="none" stroke="#000000" stroke-width="0.2117" x1="74" y1="30.7" x2="72.8" y2="30"/>
		<line shape-rendering="auto" fill="none" stroke="#000000" stroke-width="0.2117" x1="73.7" y1="21.9" x2="72.7" y2="23"/>
		<line shape-rendering="auto" fill="none" stroke="#000000" stroke-width="0.2117" x1="76.3" y1="40.6" x2="75.3" y2="39.6"/>
		<line shape-rendering="auto" fill="none" stroke="#000000" stroke-width="0.2117" x1="90.6" y1="41.1" x2="91.5" y2="41.9"/>
		<line shape-rendering="auto" fill="none" stroke="#000000" stroke-width="0.2117" x1="78" y1="38.1" x2="76.8" y2="38.1"/>
		<line shape-rendering="auto" fill="none" stroke="#000000" stroke-width="0.2117" x1="95.1" y1="34" x2="95.7" y2="35.4"/>
		<line shape-rendering="auto" fill="none" stroke="#000000" stroke-width="0.2117" x1="95.4" y1="26.6" x2="94.3" y2="27.3"/>
		<line shape-rendering="auto" fill="none" stroke="#000000" stroke-width="0.2117" x1="92.5" y1="19.6" x2="93.9" y2="19.6"/>
		<line shape-rendering="auto" fill="none" stroke="#000000" stroke-width="0.2117" x1="86.5" y1="21.7" x2="84.8" y2="21.2"/>
		<line shape-rendering="auto" fill="none" stroke="#000000" stroke-width="0.2117" x1="77.6" y1="21.8" x2="76" y2="22.4"/>
		<line shape-rendering="auto" fill="none" stroke="#000000" stroke-width="0.2117" x1="77.7" y1="26.6" x2="76.6" y2="25"/>
		<line shape-rendering="auto" fill="none" stroke="#000000" stroke-width="0.2117" x1="83.8" y1="24.4" x2="82.8" y2="23.7"/>
		<line shape-rendering="auto" fill="none" stroke="#000000" stroke-width="0.2117" x1="93.5" y1="22.1" x2="92.6" y2="20.9"/>
		<line shape-rendering="auto" fill="none" stroke="#000000" stroke-width="0.2117" x1="85.5" y1="24.3" x2="86.3" y2="25.2"/>
		<line shape-rendering="auto" fill="none" stroke="#000000" stroke-width="0.2117" x1="94.5" y1="30.8" x2="93.2" y2="30.8"/>
		<line shape-rendering="auto" fill="none" stroke="#000000" stroke-width="0.2117" x1="94.9" y1="36.1" x2="93.6" y2="36.1"/>
		<line shape-rendering="auto" fill="none" stroke="#000000" stroke-width="0.2117" x1="88.9" y1="37.7" x2="90.2" y2="37.7"/>
		<line shape-rendering="auto" fill="none" stroke="#000000" stroke-width="0.2117" x1="91.4" y1="30.4" x2="89.7" y2="31.3"/>
		<line shape-rendering="auto" fill="none" stroke="#000000" stroke-width="0.2117" x1="85.2" y1="26.2" x2="86.3" y2="26.2"/>
		<line shape-rendering="auto" fill="none" stroke="#000000" stroke-width="0.2117" x1="79.4" y1="26.4" x2="79.4" y2="27.6"/>
		<line shape-rendering="auto" fill="none" stroke="#000000" stroke-width="0.2117" x1="80.3" y1="29.5" x2="79.1" y2="30.8"/>
		<line shape-rendering="auto" fill="none" stroke="#000000" stroke-width="0.2117" x1="86.2" y1="28.9" x2="86.2" y2="27.8"/>
		<line shape-rendering="auto" fill="none" stroke="#000000" stroke-width="0.2117" x1="89.4" y1="33.9" x2="88.7" y2="33"/>
		<line shape-rendering="auto" fill="none" stroke="#000000" stroke-width="0.2117" x1="85.7" y1="36.5" x2="86.5" y2="37.4"/>
		<line shape-rendering="auto" fill="none" stroke="#000000" stroke-width="0.2117" x1="85.2" y1="43.1" x2="86.3" y2="42.4"/>
		<line shape-rendering="auto" fill="none" stroke="#000000" stroke-width="0.2117" x1="81.3" y1="32.4" x2="82.7" y2="32.9"/>
		<line shape-rendering="auto" fill="none" stroke="#000000" stroke-width="0.2117" x1="80.3" y1="35" x2="79.1" y2="35"/>
		<line shape-rendering="auto" fill="none" stroke="#000000" stroke-width="0.2117" x1="83.5" y1="34.3" x2="82.8" y2="35"/>
		<line shape-rendering="auto" fill="none" stroke="#000000" stroke-width="0.2117" x1="78" y1="16.9" x2="78.5" y2="15.7"/>
		<line shape-rendering="auto" fill="none" stroke="#000000" stroke-width="0.2117" x1="99.5" y1="18.1" x2="98.1" y2="18.1"/>
		<line shape-rendering="auto" fill="none" stroke="#000000" stroke-width="0.2117" x1="97.4" y1="21.9" x2="96.4" y2="23"/>
		<line shape-rendering="auto" fill="none" stroke="#000000" stroke-width="0.2117" x1="72" y1="17.3" x2="72.8" y2="16"/>
		<line shape-rendering="auto" fill="none" stroke="#000000" stroke-width="0.2117" x1="71.6" y1="10.4" x2="72.1" y2="11.8"/>
		<line shape-rendering="auto" fill="none" stroke="#000000" stroke-width="0.2117" x1="70.9" y1="10.6" x2="70" y2="11.3"/>
		<line shape-rendering="auto" fill="none" stroke="#000000" stroke-width="0.2117" x1="75.7" y1="7.9" x2="74.4" y2="7.9"/>
		<line shape-rendering="auto" fill="none" stroke="#000000" stroke-width="0.2117" x1="74" y1="7.1" x2="72.8" y2="6.4"/>
		<line shape-rendering="auto" fill="none" stroke="#000000" stroke-width="0.2117" x1="76.3" y1="17" x2="75.3" y2="16"/>
		<line shape-rendering="auto" fill="none" stroke="#000000" stroke-width="0.2117" x1="90.6" y1="17.5" x2="91.5" y2="18.3"/>
		<line shape-rendering="auto" fill="none" stroke="#000000" stroke-width="0.2117" x1="78" y1="14.5" x2="76.8" y2="14.5"/>
		<line shape-rendering="auto" fill="none" stroke="#000000" stroke-width="0.2117" x1="95.1" y1="10.4" x2="95.7" y2="11.8"/>
		<line shape-rendering="auto" fill="none" stroke="#000000" stroke-width="0.2117" x1="95.4" y1="3" x2="94.3" y2="3.7"/>
		<line shape-rendering="auto" fill="none" stroke="#000000" stroke-width="0.2117" x1="93" y1="3.7" x2="92.3" y2="5"/>
		<line shape-rendering="auto" fill="none" stroke="#000000" stroke-width="0.2117" x1="94" y1="10.7" x2="93" y2="11.4"/>
		<line shape-rendering="auto" fill="none" stroke="#000000" stroke-width="0.2117" x1="91.4" y1="16.2" x2="92.1" y2="15.1"/>
		<line shape-rendering="auto" fill="none" stroke="#000000" stroke-width="0.2117" x1="91.6" y1="12.6" x2="90.5" y2="11.9"/>
		<line shape-rendering="auto" fill="none" stroke="#000000" stroke-width="0.2117" x1="88.3" y1="5.3" x2="89.2" y2="4"/>
		<line shape-rendering="auto" fill="none" stroke="#000000" stroke-width="0.2117" x1="80.3" y1="5.9" x2="79.1" y2="7.2"/>
		<line shape-rendering="auto" fill="none" stroke="#000000" stroke-width="0.2117" x1="86.2" y1="5.3" x2="86.2" y2="4.2"/>
		<line shape-rendering="auto" fill="none" stroke="#000000" stroke-width="0.2117" x1="81.8" y1="40.4" x2="81.2" y2="39"/>
		<line shape-rendering="auto" fill="none" stroke="#000000" stroke-width="0.2117" x1="97" y1="35.6" x2="98.3" y2="34.5"/>
		<line shape-rendering="auto" fill="none" stroke="#000000" stroke-width="0.2117" x1="96.7" y1="25.7" x2="96.7" y2="24.4"/>
		<line shape-rendering="auto" fill="none" stroke="#000000" stroke-width="0.2117" x1="80.3" y1="3.9" x2="81.1" y2="4.9"/>
		<line shape-rendering="auto" fill="none" stroke="#000000" stroke-width="0.2117" x1="87.8" y1="6.9" x2="86.8" y2="6.2"/>
		<line shape-rendering="auto" fill="none" stroke="#000000" stroke-width="0.2117" x1="88.4" y1="12.9" x2="88.4" y2="11.6"/>
		<line shape-rendering="auto" fill="none" stroke="#000000" stroke-width="0.2117" x1="85.6" y1="10.2" x2="86.3" y2="11.2"/>
		<line shape-rendering="auto" fill="none" stroke="#000000" stroke-width="0.2117" x1="79.6" y1="10.2" x2="79.1" y2="9.2"/>
		<line shape-rendering="auto" fill="none" stroke="#000000" stroke-width="0.2117" x1="81" y1="13.5" x2="81.6" y2="12.5"/>
		<line shape-rendering="auto" fill="none" stroke="#000000" stroke-width="0.2117" x1="84.4" y1="12.9" x2="83.3" y2="12.9"/>
		<line shape-rendering="auto" fill="none" stroke="#000000" stroke-width="0.2117" x1="99.4" y1="7.9" x2="98" y2="7.9"/>
		<line shape-rendering="auto" fill="none" stroke="#000000" stroke-width="0.2117" x1="97.7" y1="7.1" x2="96.5" y2="6.4"/>
		<line shape-rendering="auto" fill="none" stroke="#000000" stroke-width="0.2117" x1="100" y1="17" x2="99" y2="16"/>
	</g>
	<path stroke="#000000" fill="#000000" stroke-width="0.5324" d="M99.4,46.1c0,0,0-0.1-0.1-0.1l2.1-36.5c0,0-0.1-0.9,0.6-1.3c1-0.6,1.6-1.1,1.6-1.8C103.5,4,95.1,2,84.7,2
		C74.3,2,65.8,4,65.8,6.4c0,0.6,0.6,1.2,1.7,1.8C68,8.4,68,9.4,68,9.4L69.9,46c-14.3,24-31.7,86.5-31.7,96.7c0,26,20.9,47,46.7,47
		c25.8,0,46.7-21,46.7-47C131.7,133.8,115.3,70.2,99.4,46.1z M98.5,46.6c0,0,0,0.1,0.1,0.1c-0.8,1.1-6.7,2-14,2
		c-7.1,0-13-0.8-13.9-1.9c0-0.1,0.1-0.1,0.1-0.2l0.2-0.3l0-0.5c1.8-0.7,6.2-1.2,13.6-1.2c7.6,0,12,0.6,13.8,1.2l0,0.5L98.5,46.6z
		 M84.7,3c6.8,0,11.7,0.8,14.6,1.6c-1.6,1-7.4,1.7-14.3,1.7c-7.2,0-13.2-0.8-14.5-1.8C73.5,3.7,78.2,3,84.7,3z M68,7.3
		c-1.1-0.6-1.1-0.9-1.1-0.9c0-0.4,0.9-1,2.7-1.5C71.2,7.1,80.7,7.3,85,7.3c4.2,0,13.4-0.3,15.4-2.3c1.4,0.5,2.2,1,2.2,1.4
		c0,0.1-0.3,0.3-1.2,0.9c-0.5,0.3-0.8,0.8-0.9,1.2c-3.3,1.4-9.2,2.3-15.9,2.3c-6.6,0-12.3-0.9-15.7-2.2C68.8,8.1,68.5,7.6,68,7.3z
		 M69,9.4c0-0.1,0-0.3,0-0.6C72.3,10.2,78,11,84.6,11c6.7,0,12.5-0.9,15.9-2.3c-0.1,0.3-0.1,0.6-0.1,0.7l-2,36
		c-2.9-1.1-10.2-1.3-13.8-1.3c-3.5,0-10.7,0.1-13.7,1.2L69,9.4z M84.9,188.8c-25.2,0-45.7-20.7-45.7-46c0-9.8,17-70.8,31-95.2
		c2.4,1.9,10.5,2.1,14.4,2.1c3.9,0,12.3-0.2,14.5-2.2c15.9,24.9,31.6,87.1,31.6,95.3C130.7,168.1,110.1,188.8,84.9,188.8z"/>
	<g>
		<linearGradient id="SVGID_23_" gradientUnits="userSpaceOnUse" x1="84.8228" y1="119.7397" x2="85.0451" y2="187.5901">
			<stop  offset="0.1828" style="stop-color:#99FFFF;stop-opacity:0.1"/>
			<stop  offset="0.5834" style="stop-color:#45C6FF;stop-opacity:0.2113"/>
			<stop  offset="0.9028" style="stop-color:#0097FF;stop-opacity:0.3"/>
		</linearGradient>
		<path fill="url(#SVGID_23_)" stroke="none" d="M39.4,137.1c-2.8,33.3,20.5,51.6,45.6,51.6c24.5,0,48.6-17.1,45.5-51.5c0,0-0.1-1.5-1.1-2.5
			c-3.2-3.4-25.5-6.4-44.2-6.4C62.6,128.3,39.8,131.2,39.4,137.1z"/>
		
			<radialGradient id="SVGID_24_" cx="59.1214" cy="136.4001" r="35.1882" gradientTransform="matrix(0.9181 0 0 0.4 30.533 81.84)" gradientUnits="userSpaceOnUse">
			<stop  offset="0.2849" style="stop-color:#99FFFF;stop-opacity:0.1"/>
			<stop  offset="1" style="stop-color:#0097FF;stop-opacity:0.1"/>
		</radialGradient>
		<path fill="url(#SVGID_24_)" stroke="none" d="M129.9,136.4c0,4.3-20.4,7.8-45.5,7.8s-44.8-3.5-44.8-7.8c0-4.3,19.6-7.7,44.8-7.7
			S129.9,132.1,129.9,136.4z"/>
	</g>
</g>
</svg>
