<?xml version="1.0" encoding="utf-8"?>
<!-- Generator: Adobe Illustrator 16.0.0, SVG Export Plug-In . SVG Version: 6.00 Build 0)  -->
<!DOCTYPE svg PUBLIC "-//W3C//DTD SVG 1.1//EN" "http://www.w3.org/Graphics/SVG/1.1/DTD/svg11.dtd">
<svg version="1.1" id="图层_1" xmlns="http://www.w3.org/2000/svg" xmlns:xlink="http://www.w3.org/1999/xlink" x="0px" y="0px"
	 width="40px" height="40px" viewBox="0 0 40 40" enable-background="new 0 0 40 40" xml:space="preserve">
<g>
	<path fill="#4C4C4C" d="M13.826,29.16"/>
	<rect x="31.486" y="9.502" fill="#4C4C4C" width="1" height="9.958"/>
	<path fill="#4C4C4C" d="M5.509,22.5C5.507,22.502,5.5,22.511,5.5,22.511v7.511c0,0,0.154,2.479,3.2,2.479c3.047,0,10.8,0,10.8,0
		v-10L5.509,22.5L5.509,22.5z M18.5,31.5H8.7c-1.91,0-2.169-1.189-2.203-1.557L6.5,23.5h12V31.5z"/>
	<polygon fill="#4C4C4C" points="32.5,18.015 18.643,31.956 19.164,32.5 19.535,32.5 32.5,19.451 	"/>
	<polygon fill="#4C4C4C" points="32.453,9.516 31.748,9.516 18.463,22.8 19.17,23.507 32.453,10.225 	"/>
	<rect x="20.377" y="9.481" fill="#4C4C4C" width="12.092" height="1"/>
	<polygon fill="#4C4C4C" points="20.385,9.484 5.505,22.508 6.163,23.262 21.903,9.484 	"/>
</g>
</svg>
