<?xml version="1.0" encoding="utf-8"?>
<!-- Generator: Adobe Illustrator 21.0.0, SVG Export Plug-In . SVG Version: 6.00 Build 0)  -->
<svg version="1.1" id="图层_1" xmlns="http://www.w3.org/2000/svg" xmlns:xlink="http://www.w3.org/1999/xlink" x="0px" y="0px" width="160" height="192"
	 viewBox="0 0 160 192" style="enable-background:new 0 0 160 192;" xml:space="preserve">
<style type="text/css">
	.st0{display:none;}
	.st1{display:inline;}
	.st2{fill:url(#SVGID_1_);}
	.st3{fill:url(#SVGID_2_);}
	.st4{fill:none;stroke:#000000;stroke-width:0.2074;}
	.st5{fill:url(#SVGID_3_);}
	.st6{fill:url(#SVGID_4_);}
	.st7{opacity:0.6;}
	.st8{fill:none;stroke:#01192B;stroke-width:0.2105;stroke-linecap:round;stroke-miterlimit:1;}
	.st9{fill:url(#SVGID_5_);}
	.st10{fill:url(#SVGID_6_);}
	.st11{fill:none;stroke:#000000;stroke-width:0.2058;stroke-linecap:round;stroke-miterlimit:1;}
	.st12{fill:url(#SVGID_7_);}
	.st13{fill:url(#SVGID_8_);}
	.st14{fill:none;stroke:#000000;stroke-width:0.2219;stroke-linecap:round;stroke-miterlimit:1;}
	.st15{fill:url(#SVGID_9_);}
	.st16{fill:url(#SVGID_10_);}
	.st17{fill:none;stroke:#000000;stroke-width:0.2549;}
	.st18{fill:url(#SVGID_11_);}
	.st19{fill:url(#SVGID_12_);}
	.st20{fill:none;stroke:#000000;stroke-width:0.2035;}
	.st21{fill:url(#SVGID_13_);}
	.st22{fill:url(#SVGID_14_);}
	.st23{fill:none;}
	.st24{fill:none;stroke:#000000;stroke-width:0.2084;}
	.st25{fill:url(#SVGID_15_); stroke:none}
	.st26{fill:url(#SVGID_16_); stroke:none}
	.st27{fill:url(#SVGID_17_);}
	.st28{fill:url(#SVGID_18_);}
	.st29{fill:none;stroke:#000000;stroke-width:0.2319;}
	.st30{fill:#020202;}
	.st31{fill:url(#SVGID_19_);}
	.st32{fill:url(#SVGID_20_);}
</style>
    <g id="图层_8">
	<g>
        <linearGradient id="SVGID_15_" gradientUnits="userSpaceOnUse" x1="-82.0245" y1="94.2208" x2="82.3149" y2="5.5863">
			<stop  offset="0.1828" style="stop-color:#99FFFF;stop-opacity:0.1"/>
			<stop  offset="0.5834" style="stop-color:#45C6FF;stop-opacity:0.2113"/>
			<stop  offset="0.9028" style="stop-color:#0097FF;stop-opacity:0.3"/>
		</linearGradient>
		<path class="st25" d="M41.1,120.5c-4.4,15.5-16.9,42.1-15.9,50.2c1.6,13.3,26,19.8,57.4,19.2c15.3-0.3,52.4-0.5,56.6-18.2
			c1.8-7.7-11.7-43.8-14.2-50.2c0,0-0.1-1.4-1-2.3c-2.9-3.1-17-8.1-40.7-8.2C62.5,111,42.9,115.4,41.1,120.5z"/>
			<radialGradient id="SVGID_16_" cx="97.5024" cy="-143.8726" r="32.4363" gradientTransform="matrix(0.9356 0 0 -0.5683 -8.4232 39.4372)" gradientUnits="userSpaceOnUse">
			<stop  offset="0.2849" style="stop-color:#99FFFF;stop-opacity:0.1"/>
			<stop  offset="1" style="stop-color:#0097FF;stop-opacity:0.1"/>
		</radialGradient>
		<path class="st26" d="M125.2,121.2c0,5.6-19.1,10.2-42.7,10.2s-42.1-4.6-42.1-10.3c0-5.6,18.5-10.1,42.1-10.1
			S125.2,115.6,125.2,121.2z"/>
	</g>
	<g>
		<!--<path class="st23" d="M82.8,42c7,0,12.6-1.1,12.9-2.5c0-0.1-0.1-0.2-0.1-0.3L95.5,39v-0.6c-2.2-1.2-7.6-1.6-12.7-1.6-->
			<!--c-2.5,0-10.3,0.1-12.9,1.8V39c0,0,0,0.2,0,0.4C70,40.8,75.7,42,82.8,42z"/>-->
		<!--<path class="st23" d="M82.6,5.9c6.9,0,12.5-0.8,12.5-1.9V3.9C92.2,3,87.7,2.5,82.6,2.5c-5,0-9.5,0.5-12.4,1.4V4-->
			<!--C70.1,5.1,75.7,5.9,82.6,5.9z"/>-->
		<!--<path class="st23" d="M82.8,36.6c2.6,0,9.9,0.1,12.7,1.6L96.6,8L97,7.7c0.7-0.5,1.4-0.9,1.4-1.5c0-0.7-0.9-1.3-2.4-1.9-->
			<!--c-0.5,2.2-7.5,2.6-13.5,2.6S69.4,6.4,69,4.2c-1.6,0.6-2.5,1.2-2.5,2c0,0.5,0.4,0.9,1.3,1.4l0.5,0.3l1.5,30.5-->
			<!--C72.6,36.8,80.1,36.6,82.8,36.6z"/>-->
		<!--<path class="st23" d="M60.3,66.2c-1.5,4.4-3.1,9-4.9,13.9C43,115.7,26,164.5,26,169v0.2c0,1.2-0.1,5,3.7,8.9-->
			<!--c7.6,7.8,25.4,11.7,52.9,11.7s45.3-3.9,52.9-11.7c3.8-3.9,3.7-7.6,3.7-8.9v-0.1v-0.2c-0.3-6.9-31.4-95.4-43.1-128.2-->
			<!--c-0.1,0-0.1,0.1-0.2,0.1c-2.5,2-10.4,2.2-13.1,2.2c-2.4,0-8.6-0.2-11.9-1.5c-0.4-0.2-0.8-0.3-1.1-0.5c-0.2,1.2-0.5,2.7-1,3.5-->
			 <!--M120,167.4L120,167.4L120,167.4h-0.2c-9-1.5-22.1-2.4-37.9-2.4c-14.7,0-26.9,0.8-35.9,2.1l0,0c0,0-0.5,0.1-0.6-0.5-->
			<!--c0-0.3,0.2-0.6,0.5-0.6H46l0,0c10-1.4,22.1-1.9,35.9-1.9c14.9,0,29,0.7,38,2.3l0,0c0.3,0,0.6,0.3,0.6,0.6-->
			<!--C120.5,167.4,120,167.4,120,167.4z"/>-->
		<g id="Spline_1_">
			<line shape-rendering="auto" class="st24" x1="73.5" y1="40.5" x2="74.6" y2="39.8"/>
			<line shape-rendering="auto" class="st24" x1="86.8" y1="39.6" x2="87.9" y2="39"/>
			<line shape-rendering="auto" class="st24" x1="81" y1="41.1" x2="80.2" y2="40.2"/>
			<line shape-rendering="auto" class="st24" x1="93.6" y1="40" x2="92.9" y2="39"/>
			<line shape-rendering="auto" class="st24" x1="70.1" y1="31.4" x2="70.6" y2="32.7"/>
			<line shape-rendering="auto" class="st24" x1="70.4" y1="24.8" x2="69.4" y2="25.4"/>
			<line shape-rendering="auto" class="st24" x1="82.6" y1="18.6" x2="83.6" y2="17.9"/>
			<line shape-rendering="auto" class="st24" x1="76.5" y1="18.5" x2="75.7" y2="17.6"/>
			<line shape-rendering="auto" class="st24" x1="73.9" y1="22.7" x2="73.4" y2="21.6"/>
			<line shape-rendering="auto" class="st24" x1="73.2" y1="31.3" x2="72.1" y2="30.5"/>
			<line shape-rendering="auto" class="st24" x1="71.8" y1="26.1" x2="72.3" y2="24.7"/>
			<line shape-rendering="auto" class="st24" x1="72.2" y1="19.1" x2="71.5" y2="18.1"/>
			<line shape-rendering="auto" class="st24" x1="92" y1="37.7" x2="92.8" y2="36.5"/>
			<line shape-rendering="auto" class="st24" x1="84.1" y1="38.2" x2="84.9" y2="37.3"/>
			<line shape-rendering="auto" class="st24" x1="76" y1="34.1" x2="75.2" y2="33.2"/>
			<line shape-rendering="auto" class="st24" x1="92.3" y1="29.3" x2="91.2" y2="30.4"/>
			<line shape-rendering="auto" class="st24" x1="89.6" y1="23.1" x2="91.1" y2="23.6"/>
			<line shape-rendering="auto" class="st24" x1="86.8" y1="18.4" x2="87.9" y2="17.9"/>
			<line shape-rendering="auto" class="st24" x1="80.8" y1="20.5" x2="80" y2="19.6"/>
			<line shape-rendering="auto" class="st24" x1="78.5" y1="21.4" x2="76.8" y2="20.9"/>
			<line shape-rendering="auto" class="st24" x1="78.1" y1="23.3" x2="76.8" y2="22.3"/>
			<line shape-rendering="auto" class="st24" x1="85.6" y1="22.6" x2="85.1" y2="21.4"/>
			<line shape-rendering="auto" class="st24" x1="89.5" y1="22" x2="88.8" y2="21.1"/>
			<line shape-rendering="auto" class="st24" x1="86.2" y1="24.7" x2="85.2" y2="24"/>
			<line shape-rendering="auto" class="st24" x1="88.1" y1="30.9" x2="88.9" y2="30"/>
			<line shape-rendering="auto" class="st24" x1="90.5" y1="35.8" x2="89.4" y2="35"/>
			<line shape-rendering="auto" class="st24" x1="86.4" y1="36.4" x2="85.4" y2="35.8"/>
			<line shape-rendering="auto" class="st24" x1="87.8" y1="25.4" x2="87.8" y2="26.7"/>
			<line shape-rendering="auto" class="st24" x1="81" y1="26" x2="81.8" y2="24.9"/>
			<line shape-rendering="auto" class="st24" x1="74.7" y1="28.9" x2="74.7" y2="27.7"/>
			<line shape-rendering="auto" class="st24" x1="80.1" y1="28.4" x2="79.1" y2="27.7"/>
			<line shape-rendering="auto" class="st24" x1="84.9" y1="28.2" x2="84" y2="27.6"/>
			<line shape-rendering="auto" class="st24" x1="85.5" y1="33.7" x2="85.5" y2="32.5"/>
			<line shape-rendering="auto" class="st24" x1="82.9" y1="31.3" x2="83.5" y2="32.2"/>
			<line shape-rendering="auto" class="st24" x1="80.1" y1="39.5" x2="80.7" y2="38.5"/>
			<line shape-rendering="auto" class="st24" x1="77.5" y1="31.2" x2="77" y2="30.3"/>
			<line shape-rendering="auto" class="st24" x1="78.8" y1="34.2" x2="79.3" y2="33.3"/>
			<line shape-rendering="auto" class="st24" x1="81.8" y1="33.7" x2="80.8" y2="33.7"/>
			<line shape-rendering="auto" class="st24" x1="79.4" y1="16.1" x2="78.9" y2="14.8"/>
			<line shape-rendering="auto" class="st24" x1="95.5" y1="22.7" x2="95" y2="21.6"/>
			<line shape-rendering="auto" class="st24" x1="93.8" y1="19.1" x2="93.1" y2="18.1"/>
			<line shape-rendering="auto" class="st24" x1="68.9" y1="17.2" x2="69.6" y2="16.7"/>
			<line shape-rendering="auto" class="st24" x1="70.1" y1="4.9" x2="70.8" y2="5.9"/>
			<line shape-rendering="auto" class="st24" x1="69.9" y1="11.9" x2="68.7" y2="11.9"/>
			<line shape-rendering="auto" class="st24" x1="73.2" y1="10" x2="72.1" y2="9.1"/>
			<line shape-rendering="auto" class="st24" x1="71.8" y1="4.7" x2="72.3" y2="3.3"/>
			<line shape-rendering="auto" class="st24" x1="92" y1="16.3" x2="92.8" y2="15.1"/>
			<line shape-rendering="auto" class="st24" x1="84.1" y1="16.8" x2="84.9" y2="16"/>
			<line shape-rendering="auto" class="st24" x1="76" y1="12.7" x2="75.2" y2="11.8"/>
			<line shape-rendering="auto" class="st24" x1="92.3" y1="7.9" x2="91.2" y2="9"/>
			<line shape-rendering="auto" class="st24" x1="78.9" y1="3.3" x2="78" y2="2.6"/>
			<line shape-rendering="auto" class="st24" x1="91.1" y1="7.2" x2="89.9" y2="7.2"/>
			<line shape-rendering="auto" class="st24" x1="91.4" y1="11.9" x2="90.2" y2="11.9"/>
			<line shape-rendering="auto" class="st24" x1="86" y1="13.4" x2="87.1" y2="13.4"/>
			<line shape-rendering="auto" class="st24" x1="88.2" y1="6.8" x2="86.7" y2="7.6"/>
			<line shape-rendering="auto" class="st24" x1="82.5" y1="3" x2="83.5" y2="3"/>
			<line shape-rendering="auto" class="st24" x1="80.1" y1="7.1" x2="79.1" y2="6.3"/>
			<line shape-rendering="auto" class="st24" x1="72.2" y1="40.2" x2="71.5" y2="39.3"/>
			<line shape-rendering="auto" class="st24" x1="95.5" y1="29.2" x2="94.3" y2="29.2"/>
			<line shape-rendering="auto" class="st24" x1="93.9" y1="28.4" x2="92.9" y2="27.8"/>
			<line shape-rendering="auto" class="st24" x1="70.8" y1="7.9" x2="69.8" y2="9"/>
			<line shape-rendering="auto" class="st24" x1="74.7" y1="7.5" x2="74.7" y2="6.3"/>
			<line shape-rendering="auto" class="st24" x1="84.2" y1="9" x2="84.9" y2="8"/>
			<line shape-rendering="auto" class="st24" x1="83" y1="14.6" x2="84" y2="14.1"/>
			<line shape-rendering="auto" class="st24" x1="81.7" y1="8.3" x2="82.4" y2="7.4"/>
			<line shape-rendering="auto" class="st24" x1="75" y1="10.4" x2="75" y2="9.3"/>
			<line shape-rendering="auto" class="st24" x1="77.2" y1="14.1" x2="78.2" y2="13.5"/>
			<line shape-rendering="auto" class="st24" x1="81" y1="14.3" x2="80" y2="13.6"/>
			<line shape-rendering="auto" class="st24" x1="94.8" y1="10" x2="93.7" y2="9.1"/>
			<line shape-rendering="auto" class="st24" x1="93.1" y1="5.1" x2="93.6" y2="3.7"/>
			<line shape-rendering="auto" class="st24" x1="96.4" y1="6.8" x2="96.9" y2="5.7"/>
		</g>
		<path stroke="#000000" fill="#000000" stroke-width="0.5324"  d="M54.5,79.9c-16.1,46.2-29.4,84.9-29.4,89.2v0.2c0,1.3-0.1,5.4,4,9.6c7.8,8,25.8,12,53.6,12c27.7,0,45.8-4,53.6-12
			c4.1-4.2,4-8.2,4-9.6v-0.2c0-7.4-41.2-123-43.7-130.2l1.1-30.4c0.8-0.5,1.8-1.2,1.8-2.3c0-3.7-10.6-4.6-16.9-4.6s-16.9,1-16.9,4.6
			c0,1.2,1.2,2,1.8,2.3c0,0.1,0,0.2,0,0.3L68.9,39c0,0.1,0,0.3,0,0.4l0,0l0,0C68.8,41,56.2,75,54.5,79.9z M70.1,3.9
			c2.9-0.8,7.4-1.4,12.4-1.4c5.1,0,9.6,0.6,12.5,1.4V4c0,1-5.6,1.9-12.5,1.9S70,5.1,70.1,3.9C70.1,4,70.1,4,70.1,3.9z M66.6,6.2
			c0-0.7,0.9-1.4,2.5-2c0.4,2.2,7.5,2.7,13.5,2.7c5.9,0,13-0.5,13.5-2.6c1.5,0.6,2.4,1.2,2.4,1.9c0,0.5-0.6,1-1.4,1.5L96.6,8v0.6
			c-1.9,0.7-6.8,1.4-14,1.4c-7.4,0-12.5-0.8-14.2-1.5V7.9l-0.5-0.3C67,7.1,66.6,6.7,66.6,6.2z M68.4,8.7c2,0.9,7.6,1.5,14.2,1.5
			c6.4,0,11.8-0.6,14-1.4l-1.1,29.5c-2.9-1.5-10.1-1.6-12.7-1.6c-2.7,0-10.2,0.2-12.9,1.7L68.4,8.7z M69.9,38.6
			c2.5-1.6,10.4-1.8,12.9-1.8c5.1,0,10.5,0.5,12.7,1.6V39l0.1,0.2c0,0.1,0.1,0.2,0.1,0.3c-0.2,1.3-5.9,2.5-12.9,2.5
			c-7.1,0-12.8-1.2-12.9-2.6c0-0.2,0-0.3,0-0.4L69.9,38.6z M69.8,40.9c0.3,0.2,0.7,0.4,1.1,0.5c3.2,1.3,9.5,1.5,11.9,1.5
			c2.7,0,10.6-0.2,13.1-2.1c0.1,0,0.1-0.1,0.2-0.1c11.7,32.8,42.8,121.3,43.1,128.2v0.2v0.1c0,1.2,0.1,4.9-3.7,8.9
			c-7.6,7.8-25.4,11.7-52.9,11.7s-45.3-3.9-52.9-11.7c-3.8-3.9-3.7-7.6-3.7-8.9V169c0-4.5,17-53.3,29.4-88.9
			C57.1,75.3,69.6,42.1,69.8,40.9z"/>
	</g>
</g>
</svg>
