<?xml version="1.0" encoding="utf-8"?>
<!-- Generator: Adobe Illustrator 16.0.0, SVG Export Plug-In . SVG Version: 6.00 Build 0)  -->
<!DOCTYPE svg PUBLIC "-//W3C//DTD SVG 1.1//EN" "http://www.w3.org/Graphics/SVG/1.1/DTD/svg11.dtd">
<svg version="1.1" id="图层_1" xmlns="http://www.w3.org/2000/svg" xmlns:xlink="http://www.w3.org/1999/xlink" x="0px" y="0px"
	 width="40px" height="40px" viewBox="0 0 40 40" enable-background="new 0 0 40 40" xml:space="preserve">
<g>
	<g>
		<g>
			
				<radialGradient id="SVGID_1_" cx="671.8506" cy="-1919.0195" r="11.2696" fx="667.991" fy="-1922.4934" gradientTransform="matrix(1.5555 0 0 -1.0064 -1025.0352 -1911.2781)" gradientUnits="userSpaceOnUse">
				<stop  offset="0.0198" style="stop-color:#FFFFFF"/>
				<stop  offset="1" style="stop-color:#171716"/>
			</radialGradient>
			<path fill="url(#SVGID_1_)" d="M6,24.025c0,3.09,2.503,5.596,5.595,5.596h16.812c3.09,0,5.594-2.502,5.594-5.596v-8.05
				c0-3.092-2.502-5.596-5.594-5.596H11.594C8.502,10.378,6,12.883,6,15.975V24.025z"/>
		</g>
	</g>
	<defs>
		<filter id="Adobe_OpacityMaskFilter" filterUnits="userSpaceOnUse" x="6" y="10.379" width="28" height="19.242">
			<feColorMatrix  type="matrix" values="1 0 0 0 0  0 1 0 0 0  0 0 1 0 0  0 0 0 1 0"/>
		</filter>
	</defs>
	<mask maskUnits="userSpaceOnUse" x="6" y="10.379" width="28" height="19.242" id="SVGID_2_">
		<g filter="url(#Adobe_OpacityMaskFilter)">
			
				<image overflow="visible" enable-background="new    " width="29" height="22" xlink:href="3DCE4DB.jpg"  transform="matrix(1.1666 0 0 1.1666 3.0825 7.0464)">
			</image>
		</g>
	</mask>
	<g opacity="0.46" mask="url(#SVGID_2_)">
		<g>
			
				<linearGradient id="SVGID_3_" gradientUnits="userSpaceOnUse" x1="140.9424" y1="-74.979" x2="141.1602" y2="-96.5916" gradientTransform="matrix(1 0 0 -1 -120.96 -56.6602)">
				<stop  offset="0" style="stop-color:#FFFFFF"/>
				<stop  offset="1" style="stop-color:#000000"/>
			</linearGradient>
			<path fill="url(#SVGID_3_)" d="M6,24.025c0,3.09,2.503,5.596,5.595,5.596h16.812c3.09,0,5.594-2.502,5.594-5.596v-8.05
				c0-3.092-2.502-5.596-5.594-5.596H11.594C8.502,10.378,6,12.883,6,15.975V24.025z"/>
		</g>
	</g>
</g>
</svg>
