<?xml version="1.0" encoding="utf-8"?>
<!-- Generator: Adobe Illustrator 16.0.0, SVG Export Plug-In . SVG Version: 6.00 Build 0)  -->
<!DOCTYPE svg PUBLIC "-//W3C//DTD SVG 1.1//EN" "http://www.w3.org/Graphics/SVG/1.1/DTD/svg11.dtd">
<svg version="1.1" id="图层_1" xmlns="http://www.w3.org/2000/svg" xmlns:xlink="http://www.w3.org/1999/xlink" x="0px" y="0px"
	 width="40px" height="40px" viewBox="0 0 40 40" enable-background="new 0 0 40 40" xml:space="preserve">
<g>
	<path fill="#323333" d="M20.363,20.345l-0.725-0.689c0.164-0.174,1.559-1.748,0.012-3.293s-3.125-0.156-3.301,0.008
		c-0.849,0.777-2.914,1.763-4.693-0.016c-1.779-1.779-0.79-3.845-0.02-4.688c0.174-0.182,1.576-1.739,0.012-3.305
		C10.083,6.795,8.521,8.197,8.35,8.361l-0.695-0.72c0.824-0.797,2.867-1.819,4.701,0.015c1.834,1.836,0.809,3.875,0.01,4.697
		c-0.149,0.166-1.52,1.777-0.002,3.295c1.558,1.557,3.234,0.053,3.306-0.011c0.824-0.782,2.874-1.792,4.688,0.019
		C22.173,17.469,21.154,19.516,20.363,20.345z"/>
	<path fill="#323333" d="M29.919,33.372c-0.726,0-1.513-0.269-2.261-1.017c-1.813-1.812-0.803-3.861-0.016-4.69
		c0.153-0.171,1.523-1.781,0.006-3.302c-1.559-1.558-3.234-0.054-3.306,0.012c-0.812,0.787-2.853,1.816-4.688-0.02
		c-1.834-1.837-0.81-3.879-0.012-4.702l0.719,0.693c-0.164,0.174-1.564,1.734,0,3.301c1.565,1.563,3.123,0.161,3.298-0.004
		c0.851-0.779,2.915-1.77,4.696,0.012c1.779,1.783,0.791,3.848,0.02,4.689c-0.169,0.18-1.557,1.758-0.01,3.303
		c1.582,1.584,3.222,0.058,3.291-0.008l0.689,0.723C31.859,32.828,30.952,33.372,29.919,33.372z"/>
</g>
</svg>
