<?xml version="1.0" encoding="utf-8"?>
<!-- Generator: Adobe Illustrator 16.0.0, SVG Export Plug-In . SVG Version: 6.00 Build 0)  -->
<!DOCTYPE svg PUBLIC "-//W3C//DTD SVG 1.1//EN" "http://www.w3.org/Graphics/SVG/1.1/DTD/svg11.dtd">
<svg version="1.1" id="图层_1" xmlns="http://www.w3.org/2000/svg" xmlns:xlink="http://www.w3.org/1999/xlink" x="0px" y="0px"
	 width="40px" height="40px" viewBox="0 0 40 40" enable-background="new 0 0 40 40" xml:space="preserve">
<text transform="matrix(1 0 0 1 12.3101 33.0703)" fill="#323333" font-family="'MicrosoftYaHei'" font-size="7.5547">270</text>
<path fill="#323333" d="M20,7C12.269,7,6,13.268,6,21c0,3.479,1.27,6.658,3.369,9.105c0.443-0.324,0.777-0.65,0.777-0.65
	C8.191,27.18,7,24.229,7,21c0-7.168,5.832-13,13-13c7.169,0,13,5.832,13,13c0,3.229-1.189,6.18-3.146,8.456
	c0,0,0.553,0.388,0.824,0.595C32.75,27.61,34,24.452,34,21C34.001,13.268,27.732,7,20,7z"/>
</svg>
