<?xml version="1.0" encoding="utf-8"?>
<!-- Generator: Adobe Illustrator 16.0.0, SVG Export Plug-In . SVG Version: 6.00 Build 0)  -->
<!DOCTYPE svg PUBLIC "-//W3C//DTD SVG 1.1//EN" "http://www.w3.org/Graphics/SVG/1.1/DTD/svg11.dtd">
<svg version="1.1" id="图层_1" xmlns="http://www.w3.org/2000/svg" xmlns:xlink="http://www.w3.org/1999/xlink" x="0px" y="0px"
	 width="40px" height="40px" viewBox="0 0 40 40" enable-background="new 0 0 40 40" xml:space="preserve">
<path fill="#333333" d="M20.002,34.5c-0.35,0-0.693-0.012-1.034-0.036l0.071-0.998C19.355,33.488,19.678,33.5,20,33.5L20.002,34.5z
	 M21.035,34.464l-0.07-0.998c0.323-0.022,0.643-0.057,0.959-0.102l0.141,0.989C21.725,34.402,21.382,34.439,21.035,34.464z
	 M17.939,34.354c-0.344-0.049-0.686-0.108-1.021-0.183l0.212-0.978c0.313,0.067,0.628,0.125,0.948,0.17L17.939,34.354z
	 M23.084,34.171l-0.211-0.979c0.314-0.066,0.627-0.146,0.934-0.235l0.282,0.959C23.758,34.014,23.423,34.098,23.084,34.171z
	 M15.917,33.917c-0.333-0.097-0.661-0.206-0.983-0.326l0.352-0.938c0.299,0.113,0.604,0.215,0.913,0.306L15.917,33.917z
	 M25.07,33.589l-0.352-0.937c0.303-0.112,0.6-0.236,0.891-0.369l0.416,0.91C25.713,33.336,25.395,33.468,25.07,33.589z
	 M13.977,33.193c-0.314-0.145-0.625-0.299-0.927-0.465l0.481-0.877c0.281,0.153,0.568,0.297,0.861,0.432L13.977,33.193z
	 M26.951,32.729l-0.482-0.877c0.283-0.154,0.561-0.318,0.829-0.492l0.541,0.842C27.55,32.387,27.254,32.563,26.951,32.729z
	 M12.16,32.2c-0.291-0.188-0.575-0.386-0.852-0.593l0.603-0.799c0.256,0.191,0.521,0.375,0.791,0.549L12.16,32.2z M28.688,31.607
	l-0.6-0.799c0.257-0.192,0.508-0.396,0.751-0.604l0.654,0.756C29.232,31.186,28.965,31.4,28.688,31.607z M10.503,30.958
	c-0.261-0.228-0.515-0.462-0.757-0.706l0.707-0.707c0.227,0.227,0.462,0.446,0.706,0.657L10.503,30.958z M30.252,30.255
	l-0.707-0.707c0.227-0.228,0.446-0.463,0.657-0.706l0.756,0.656C30.73,29.759,30.496,30.012,30.252,30.255z M9.041,29.494
	c-0.227-0.262-0.441-0.529-0.648-0.805l0.799-0.602c0.192,0.258,0.395,0.508,0.605,0.751L9.041,29.494z M31.607,28.691l-0.801-0.601
	c0.192-0.258,0.377-0.521,0.551-0.792l0.841,0.541C32.012,28.131,31.814,28.414,31.607,28.691z M7.801,27.841
	c-0.188-0.29-0.363-0.587-0.529-0.891l0.879-0.479c0.154,0.282,0.317,0.559,0.49,0.826L7.801,27.841z M32.729,26.951l-0.877-0.48
	c0.154-0.281,0.299-0.568,0.433-0.861l0.909,0.416C33.05,26.339,32.895,26.646,32.729,26.951z M6.809,26.025
	c-0.144-0.313-0.275-0.631-0.396-0.955l0.938-0.35c0.112,0.301,0.234,0.598,0.368,0.889L6.809,26.025z M33.59,25.066l-0.938-0.35
	c0.111-0.3,0.214-0.604,0.304-0.912l0.961,0.278C33.818,24.418,33.71,24.746,33.59,25.066z M6.084,24.088
	c-0.098-0.33-0.182-0.665-0.255-1.004l0.978-0.211c0.068,0.314,0.148,0.627,0.238,0.934L6.084,24.088z M34.172,23.081l-0.977-0.213
	c0.066-0.312,0.123-0.627,0.169-0.947l0.989,0.142C34.307,22.404,34.245,22.746,34.172,23.081z M5.646,22.064
	c-0.049-0.34-0.086-0.683-0.109-1.028l0.998-0.07c0.021,0.323,0.057,0.644,0.102,0.959L5.646,22.064z M34.464,21.033l-0.998-0.07
	C33.488,20.645,33.5,20.324,33.5,20l1-0.001C34.5,20.348,34.488,20.691,34.464,21.033z M5.5,20.003V20
	c0-0.348,0.012-0.689,0.036-1.031l0.998,0.069C6.512,19.355,6.5,19.676,6.5,19.999L5.5,20.003z M33.466,19.035
	c-0.022-0.323-0.057-0.643-0.102-0.958l0.989-0.142c0.049,0.338,0.086,0.683,0.109,1.028L33.466,19.035z M6.635,18.081l-0.99-0.142
	c0.049-0.344,0.11-0.684,0.184-1.02l0.979,0.211C6.738,17.443,6.682,17.761,6.635,18.081z M33.193,17.128
	c-0.067-0.315-0.146-0.626-0.236-0.933l0.959-0.282c0.098,0.33,0.184,0.665,0.256,1.005L33.193,17.128z M7.042,16.199l-0.96-0.281
	c0.098-0.333,0.207-0.661,0.327-0.982l0.938,0.351C7.234,15.584,7.133,15.889,7.042,16.199z M32.652,15.281
	c-0.112-0.303-0.236-0.6-0.369-0.891l0.91-0.414c0.143,0.312,0.273,0.631,0.396,0.955L32.652,15.281z M7.716,14.393l-0.909-0.416
	c0.145-0.314,0.299-0.623,0.465-0.926l0.877,0.48C7.994,13.813,7.85,14.1,7.716,14.393z M31.854,13.532
	c-0.155-0.283-0.319-0.56-0.494-0.83l0.843-0.54c0.187,0.289,0.36,0.585,0.526,0.888L31.854,13.532z M8.641,12.702L7.8,12.161
	c0.187-0.291,0.384-0.575,0.591-0.851l0.801,0.601C8.999,12.167,8.814,12.432,8.641,12.702z M30.811,11.912
	c-0.192-0.258-0.396-0.508-0.604-0.75l0.756-0.654c0.226,0.26,0.44,0.529,0.649,0.805L30.811,11.912z M9.797,11.159l-0.756-0.654
	c0.227-0.261,0.461-0.514,0.706-0.758l0.706,0.708C10.227,10.682,10.008,10.917,9.797,11.159z M29.548,10.456
	c-0.228-0.228-0.463-0.446-0.705-0.657l0.654-0.756c0.262,0.227,0.515,0.462,0.758,0.707L29.548,10.456z M11.16,9.797l-0.655-0.755
	c0.261-0.228,0.529-0.442,0.806-0.649l0.6,0.801C11.652,9.385,11.402,9.587,11.16,9.797z M28.093,9.193
	C27.835,9,27.572,8.816,27.301,8.643l0.541-0.842c0.29,0.188,0.573,0.385,0.852,0.592L28.093,9.193z M12.701,8.641l-0.542-0.84
	c0.29-0.187,0.586-0.363,0.89-0.529l0.479,0.877C13.246,8.305,12.971,8.468,12.701,8.641z M26.473,8.15
	c-0.283-0.155-0.57-0.299-0.863-0.434l0.416-0.908c0.314,0.144,0.623,0.299,0.928,0.463L26.473,8.15z M14.389,7.717l-0.416-0.908
	c0.313-0.144,0.631-0.275,0.955-0.396l0.35,0.938C14.977,7.461,14.68,7.584,14.389,7.717z M24.718,7.348
	c-0.299-0.111-0.604-0.213-0.913-0.304l0.28-0.96c0.333,0.098,0.66,0.207,0.981,0.327L24.718,7.348z M16.191,7.044l-0.28-0.96
	c0.33-0.098,0.664-0.182,1.003-0.255l0.212,0.978C16.811,6.875,16.499,6.955,16.191,7.044z M22.87,6.807
	c-0.312-0.067-0.628-0.125-0.948-0.171l0.141-0.989c0.345,0.049,0.685,0.109,1.02,0.183L22.87,6.807z M18.075,6.636l-0.142-0.989
	c0.338-0.049,0.683-0.086,1.028-0.109l0.07,0.997C18.71,6.557,18.391,6.591,18.075,6.636z M20.964,6.534
	C20.646,6.512,20.324,6.5,20,6.5l-0.003-1H20c0.348,0,0.691,0.012,1.034,0.037L20.964,6.534z"/>
</svg>
