<?xml version="1.0" encoding="utf-8"?>
<!-- Generator: Adobe Illustrator 16.0.0, SVG Export Plug-In . SVG Version: 6.00 Build 0)  -->
<!DOCTYPE svg PUBLIC "-//W3C//DTD SVG 1.1//EN" "http://www.w3.org/Graphics/SVG/1.1/DTD/svg11.dtd">
<svg version="1.1" id="图层_1" xmlns="http://www.w3.org/2000/svg" xmlns:xlink="http://www.w3.org/1999/xlink" x="0px" y="0px"
	 width="40px" height="40px" viewBox="0 0 40 40" enable-background="new 0 0 40 40" xml:space="preserve">
<path fill="#323333" d="M19.991,29.992l-0.02-0.984c0.336,0,0.649-0.008,0.96-0.023l0.049,0.984
	C20.652,29.984,20.324,29.992,19.991,29.992z M18.963,29.967c-0.34-0.018-0.677-0.045-1.009-0.078l0.104-0.98
	c0.314,0.033,0.633,0.059,0.955,0.074L18.963,29.967z M21.987,29.893l-0.101-0.98c0.32-0.033,0.64-0.074,0.951-0.121l0.15,0.973
	C22.659,29.814,22.325,29.857,21.987,29.893z M16.953,29.756c-0.336-0.053-0.667-0.113-0.995-0.184l0.207-0.963
	c0.311,0.064,0.624,0.123,0.942,0.174L16.953,29.756z M23.984,29.58l-0.203-0.963c0.314-0.066,0.625-0.143,0.93-0.225l0.258,0.949
	C24.646,29.432,24.317,29.51,23.984,29.58z M14.975,29.332c-0.33-0.09-0.651-0.188-0.969-0.295l0.313-0.934
	c0.299,0.102,0.604,0.193,0.916,0.279L14.975,29.332z M25.938,29.051l-0.313-0.934c0.305-0.104,0.604-0.213,0.895-0.33l0.371,0.912
	C26.581,28.824,26.262,28.941,25.938,29.051z M13.053,28.686c-0.316-0.129-0.627-0.27-0.929-0.414l0.431-0.887
	c0.283,0.139,0.572,0.268,0.871,0.389L13.053,28.686z M27.82,28.287L27.393,27.4c0.289-0.141,0.57-0.287,0.843-0.441l0.485,0.855
	C28.432,27.98,28.131,28.139,27.82,28.287z M11.225,27.797c-0.299-0.172-0.59-0.354-0.867-0.541l0.553-0.814
	c0.258,0.176,0.525,0.342,0.805,0.5L11.225,27.797z M29.592,27.277l-0.55-0.818c0.267-0.178,0.521-0.363,0.763-0.557l0.612,0.77
	C30.153,26.883,29.879,27.084,29.592,27.277z M9.534,26.648c-0.271-0.217-0.529-0.443-0.773-0.678l0.683-0.711
	c0.223,0.215,0.459,0.422,0.707,0.619L9.534,26.648z M31.192,25.998l-0.681-0.713c0.229-0.219,0.445-0.443,0.647-0.678l0.744,0.645
	C31.682,25.51,31.445,25.758,31.192,25.998z M8.051,25.223c-0.229-0.268-0.438-0.541-0.631-0.82l0.811-0.561
	c0.174,0.254,0.363,0.5,0.568,0.738L8.051,25.223z M32.539,24.434l-0.809-0.563c0.178-0.256,0.339-0.52,0.48-0.789l0.87,0.459
	C32.922,23.848,32.74,24.145,32.539,24.434z M6.881,23.508c-0.164-0.313-0.308-0.637-0.426-0.959l0.926-0.338
	c0.104,0.285,0.229,0.566,0.371,0.84L6.881,23.508z M33.512,22.588l-0.922-0.344c0.106-0.291,0.194-0.584,0.26-0.877l0.961,0.211
	C33.735,21.916,33.635,22.256,33.512,22.588z M6.163,21.539c-0.074-0.344-0.124-0.695-0.146-1.042l0.981-0.067
	c0.021,0.301,0.063,0.604,0.128,0.903L6.163,21.539z M33.963,20.537l-0.981-0.075c0.012-0.152,0.018-0.309,0.018-0.463
	c0.001-0.15-0.005-0.299-0.016-0.445l0.981-0.072c0.014,0.172,0.02,0.346,0.019,0.521C33.982,20.181,33.977,20.359,33.963,20.537z
	 M7.001,19.519L6.02,19.443c0.027-0.35,0.08-0.699,0.156-1.041l0.961,0.215C7.071,18.913,7.025,19.216,7.001,19.519z M32.852,18.648
	c-0.063-0.291-0.149-0.586-0.258-0.875l0.924-0.342c0.123,0.332,0.224,0.672,0.297,1.01L32.852,18.648z M7.399,17.74l-0.922-0.346
	c0.121-0.324,0.266-0.645,0.432-0.955l0.869,0.463C7.631,17.175,7.506,17.456,7.399,17.74z M32.221,16.933
	c-0.144-0.27-0.304-0.533-0.479-0.791l0.812-0.56c0.199,0.29,0.379,0.587,0.539,0.892L32.221,16.933z M8.26,16.113l-0.81-0.563
	c0.194-0.281,0.408-0.554,0.638-0.818l0.743,0.646C8.625,15.617,8.434,15.861,8.26,16.113z M31.172,15.406
	c-0.199-0.233-0.416-0.459-0.646-0.678l0.68-0.713c0.253,0.24,0.49,0.49,0.712,0.748L31.172,15.406z M9.481,14.703l-0.678-0.715
	c0.246-0.232,0.504-0.458,0.776-0.674l0.611,0.771C9.942,14.285,9.705,14.49,9.481,14.703z M29.817,14.109
	c-0.242-0.194-0.496-0.381-0.763-0.56l0.552-0.815c0.286,0.192,0.563,0.396,0.825,0.605L29.817,14.109z M10.955,13.529l-0.548-0.817
	c0.279-0.187,0.568-0.364,0.869-0.536l0.486,0.856C11.483,13.189,11.213,13.355,10.955,13.529z M28.25,13.048
	c-0.271-0.154-0.551-0.302-0.84-0.441l0.428-0.887c0.312,0.148,0.612,0.307,0.902,0.475L28.25,13.048z M12.604,12.591l-0.426-0.888
	c0.302-0.146,0.611-0.281,0.929-0.41l0.368,0.913C13.178,12.328,12.887,12.456,12.604,12.591z M26.541,12.22
	c-0.293-0.117-0.592-0.229-0.896-0.332l0.313-0.934c0.323,0.109,0.64,0.227,0.95,0.352L26.541,12.22z M14.372,11.877l-0.311-0.935
	c0.316-0.105,0.64-0.203,0.97-0.293l0.257,0.951C14.977,11.687,14.67,11.779,14.372,11.877z M24.729,11.611
	c-0.305-0.082-0.614-0.157-0.93-0.225l0.205-0.963c0.332,0.071,0.66,0.15,0.983,0.238L24.729,11.611z M16.217,11.378l-0.201-0.964
	c0.326-0.069,0.658-0.129,0.994-0.181l0.149,0.974C16.842,11.256,16.528,11.314,16.217,11.378z M22.856,11.212
	c-0.314-0.049-0.63-0.09-0.95-0.123l0.1-0.979c0.338,0.035,0.674,0.078,1.004,0.13L22.856,11.212z M18.112,11.085l-0.1-0.979
	c0.332-0.034,0.668-0.06,1.008-0.075l0.048,0.983C18.746,11.031,18.426,11.054,18.112,11.085z M20.949,11.017
	c-0.316-0.017-0.635-0.024-0.958-0.024v-0.984c0.339,0,0.675,0.009,1.009,0.025L20.949,11.017z"/>
</svg>
