<?xml version="1.0" encoding="utf-8"?>
<!-- Generator: Adobe Illustrator 16.0.0, SVG Export Plug-In . SVG Version: 6.00 Build 0)  -->
<!DOCTYPE svg PUBLIC "-//W3C//DTD SVG 1.1//EN" "http://www.w3.org/Graphics/SVG/1.1/DTD/svg11.dtd">
<svg version="1.1" id="图层_1" xmlns="http://www.w3.org/2000/svg" xmlns:xlink="http://www.w3.org/1999/xlink" x="0px" y="0px"
	 width="40px" height="40px" viewBox="0 0 40 40" enable-background="new 0 0 40 40" xml:space="preserve">
<g>
	<path fill="#333333" d="M28.105,30h-0.791v-1h0.791c0.369,0,0.733-0.042,1.086-0.124l0.227,0.976
		C28.992,29.949,28.551,30,28.105,30z M25.314,30h-2v-1h2V30z M21.314,30h-2v-1h2V30z M17.316,30h-2v-1h2V30z M13.316,30h-1.422
		c-0.213,0-0.424-0.012-0.631-0.034l0.107-0.993C11.543,28.991,11.717,29,11.895,29h1.422V30z M9.184,29.326
		c-0.643-0.342-1.215-0.797-1.699-1.354l0.756-0.656c0.402,0.465,0.878,0.843,1.412,1.125L9.184,29.326z M31.406,28.969
		l-0.568-0.822c0.498-0.345,0.928-0.774,1.273-1.281l0.824,0.566C32.521,28.037,32.006,28.555,31.406,28.969z M6.38,26.107
		C6.128,25.426,6,24.71,6,23.977h1c0,0.613,0.107,1.215,0.316,1.783L6.38,26.107z M33.822,25.451l-0.971-0.238
		c0.099-0.402,0.147-0.816,0.147-1.236v-0.631h1v0.631C34,24.477,33.939,24.973,33.822,25.451z M7,23.333H6v-2h1V23.333z M34,21.346
		h-1v-2h1V21.346z M7,19.333H6v-2h1V19.333z M34,17.346h-1v-1.32c0-0.209-0.014-0.416-0.036-0.619l0.992-0.118
		C33.984,15.529,34,15.775,34,16.025V17.346z M7.038,15.395l-0.993-0.119c0.088-0.728,0.303-1.424,0.639-2.071l0.889,0.461
		C7.292,14.206,7.111,14.788,7.038,15.395z M32.434,13.674c-0.281-0.543-0.652-1.025-1.104-1.432l0.668-0.744
		c0.543,0.488,0.989,1.066,1.325,1.718L32.434,13.674z M8.68,12.234L8.012,11.49c0.551-0.492,1.176-0.871,1.859-1.126l0.35,0.937
		C9.654,11.514,9.136,11.827,8.68,12.234z M29.789,11.305C29.252,11.102,28.686,11,28.105,11h-0.101v-1h0.101
		c0.701,0,1.386,0.124,2.035,0.369L29.789,11.305z M26.006,11h-2v-1h2V11z M22.006,11h-2v-1h2V11z M18.006,11h-2v-1h2V11z
		 M14.006,11h-2v-1h2V11z"/>
</g>
</svg>
