<?xml version="1.0" encoding="utf-8"?>
<!-- Generator: Adobe Illustrator 16.0.0, SVG Export Plug-In . SVG Version: 6.00 Build 0)  -->
<!DOCTYPE svg PUBLIC "-//W3C//DTD SVG 1.1//EN" "http://www.w3.org/Graphics/SVG/1.1/DTD/svg11.dtd">
<svg version="1.1" id="图层_1" xmlns="http://www.w3.org/2000/svg" xmlns:xlink="http://www.w3.org/1999/xlink" x="0px" y="0px"
	 width="40px" height="40px" viewBox="0 0 40 40" enable-background="new 0 0 40 40" xml:space="preserve">
<g>
	<g>
		
			<rect x="8.685" y="9.274" transform="matrix(-0.7069 -0.7073 0.7073 -0.7069 9.7809 23.602)" fill="#323333" width="2.192" height="1"/>
		<path fill="#323333" d="M27.741,28.458l-2.121-2.121l0.707-0.707l2.121,2.121L27.741,28.458z M23.499,24.216l-2.121-2.121
			l0.707-0.707l2.121,2.121L23.499,24.216z M19.256,19.973l-2.12-2.12l0.707-0.707l2.12,2.12L19.256,19.973z M15.015,15.731
			l-2.121-2.121l0.707-0.707l2.121,2.121L15.015,15.731z"/>
		
			<rect x="29.122" y="29.726" transform="matrix(-0.7071 -0.7071 0.7071 -0.7071 30.2139 72.9662)" fill="#323333" width="2.193" height="1"/>
	</g>
</g>
</svg>
