<?xml version="1.0" encoding="utf-8"?>
<!-- Generator: Adobe Illustrator 16.0.0, SVG Export Plug-In . SVG Version: 6.00 Build 0)  -->
<!DOCTYPE svg PUBLIC "-//W3C//DTD SVG 1.1//EN" "http://www.w3.org/Graphics/SVG/1.1/DTD/svg11.dtd">
<svg version="1.1" id="图层_1" xmlns="http://www.w3.org/2000/svg" xmlns:xlink="http://www.w3.org/1999/xlink" x="0px" y="0px"
	 width="40px" height="40px" viewBox="0 0 40 40" enable-background="new 0 0 40 40" xml:space="preserve">
<g>
	<text transform="matrix(1.0036 0 0 1 13.0942 28.0576)" fill="#323333" font-family="'MicrosoftYaHei'" font-size="7.6046">120</text>
	<g>
		<path fill="#323333" d="M6,20.004l1.023,0.27c0.567-1.641,1.426-3.109,2.5-4.371l-0.758-0.747C7.568,16.549,6.619,18.178,6,20.004
			z"/>
		<path fill="#323333" d="M24.777,10.792l-0.269,1.021c1.646,0.568,3.12,1.427,4.388,2.5l0.748-0.754
			C28.248,12.362,26.609,11.412,24.777,10.792z"/>
		<path fill="#323333" d="M17.409,11.307c1.632-0.313,3.335-0.34,5.052-0.029l0.266-1.021c-1.901-0.357-3.795-0.332-5.6,0.026
			L17.409,11.307z"/>
		<path fill="#323333" d="M11.005,14.395c1.284-1.104,2.763-1.967,4.359-2.541l-0.284-1.029c-1.775,0.626-3.419,1.584-4.837,2.818
			L11.005,14.395z"/>
		<path fill="#323333" d="M30.412,15.792c1.107,1.282,1.979,2.759,2.556,4.349L34,19.861c-0.631-1.772-1.596-3.412-2.838-4.828
			L30.412,15.792z"/>
	</g>
</g>
</svg>
