<?xml version="1.0" encoding="utf-8"?>
<!-- Generator: Adobe Illustrator 16.0.0, SVG Export Plug-In . SVG Version: 6.00 Build 0)  -->
<!DOCTYPE svg PUBLIC "-//W3C//DTD SVG 1.1//EN" "http://www.w3.org/Graphics/SVG/1.1/DTD/svg11.dtd">
<svg version="1.1" id="图层_1" xmlns="http://www.w3.org/2000/svg" xmlns:xlink="http://www.w3.org/1999/xlink" x="0px" y="0px"
	 width="40px" height="40px" viewBox="0 0 40 40" enable-background="new 0 0 40 40" xml:space="preserve">
<g>
	<g>
		<polygon fill="#323333" points="33.988,29.988 31.121,29.988 31.121,29.012 33.012,29.012 33.012,27.066 33.988,27.066 		"/>
		<path fill="#323333" d="M26.674,29.988h-4.879v-0.978h4.879V29.988z M16.916,29.988h-4.879v-0.978h4.879V29.988z"/>
		<polygon fill="#323333" points="8.877,29.988 6.012,29.988 6.012,27.066 6.988,27.066 6.988,29.012 8.877,29.012 		"/>
		<rect x="6.012" y="17.477" fill="#323333" width="0.977" height="4.879"/>
		<polygon fill="#323333" points="6.988,12.936 6.012,12.936 6.012,10.012 8.877,10.012 8.877,10.988 6.988,10.988 		"/>
		<path fill="#323333" d="M27.963,10.988h-4.879v-0.977h4.879V10.988z M18.205,10.988h-4.879v-0.977h4.879V10.988z"/>
		<polygon fill="#323333" points="33.988,12.936 33.012,12.936 33.012,10.988 31.121,10.988 31.121,10.012 33.988,10.012 		"/>
		<rect x="33.012" y="17.646" fill="#323333" width="0.977" height="4.879"/>
	</g>
</g>
</svg>
