<?xml version="1.0" encoding="utf-8"?>
<!-- Generator: Adobe Illustrator 16.0.0, SVG Export Plug-In . SVG Version: 6.00 Build 0)  -->
<!DOCTYPE svg PUBLIC "-//W3C//DTD SVG 1.1//EN" "http://www.w3.org/Graphics/SVG/1.1/DTD/svg11.dtd">
<svg version="1.1" id="图层_1" xmlns="http://www.w3.org/2000/svg" xmlns:xlink="http://www.w3.org/1999/xlink" x="0px" y="0px"
	 width="40px" height="40px" viewBox="0 0 40 40" enable-background="new 0 0 40 40" xml:space="preserve">
<g>
	<text transform="matrix(1.0036 0 0 1 12.5942 32.0576)" fill="#323333" font-family="'MicrosoftYaHei'" font-size="7.6046">270</text>
	<g>
		<path fill="#323333" d="M6,18.949h1.003c0.126-1.641,0.562-3.191,1.243-4.606L7.371,13.84C6.609,15.404,6.129,17.126,6,18.949z"/>
		<path fill="#323333" d="M8.247,25.557C7.564,24.141,7.13,22.59,7.004,20.95H6c0.129,1.823,0.609,3.545,1.372,5.108L8.247,25.557z"
			/>
		<path fill="#323333" d="M21.004,6v1c1.646,0.126,3.203,0.559,4.623,1.238l0.505-0.871C24.563,6.605,22.834,6.129,21.004,6z"/>
		<path fill="#323333" d="M14.373,8.238c1.42-0.68,2.977-1.112,4.624-1.238V6c-1.83,0.129-3.56,0.605-5.128,1.367L14.373,8.238z"/>
		<path fill="#323333" d="M10.167,28.464c-0.327-0.375-0.641-0.762-0.924-1.172l-0.879,0.506c0.326,0.478,0.682,0.934,1.063,1.366
			C9.844,28.781,10.167,28.464,10.167,28.464z"/>
		<path fill="#323333" d="M30.757,27.292c-0.294,0.427-0.622,0.827-0.964,1.215c0,0,0.488,0.399,0.776,0.658
			c0.383-0.433,0.74-0.888,1.067-1.367L30.757,27.292z"/>
		<path fill="#323333" d="M9.243,12.605c0.911-1.32,2.062-2.465,3.387-3.373l-0.508-0.877c-1.478,1-2.755,2.271-3.758,3.744
			L9.243,12.605z"/>
		<path fill="#323333" d="M34,20.949h-1.004c-0.126,1.641-0.561,3.191-1.242,4.605l0.874,0.504
			C33.393,24.494,33.871,22.771,34,20.949z"/>
		<path fill="#323333" d="M31.754,14.343c0.682,1.415,1.116,2.968,1.242,4.606H34c-0.129-1.823-0.607-3.545-1.372-5.109
			L31.754,14.343z"/>
		<path fill="#323333" d="M27.369,9.232c1.326,0.908,2.477,2.053,3.388,3.373l0.88-0.506c-1.005-1.473-2.281-2.744-3.76-3.744
			L27.369,9.232z"/>
	</g>
</g>
</svg>
