<?xml version="1.0" encoding="utf-8"?>
<!-- Generator: Adobe Illustrator 16.0.0, SVG Export Plug-In . SVG Version: 6.00 Build 0)  -->
<!DOCTYPE svg PUBLIC "-//W3C//DTD SVG 1.1//EN" "http://www.w3.org/Graphics/SVG/1.1/DTD/svg11.dtd">
<svg version="1.1" id="图层_1" xmlns="http://www.w3.org/2000/svg" xmlns:xlink="http://www.w3.org/1999/xlink" x="0px" y="0px"
	 width="40px" height="40px" viewBox="0 0 40 40" enable-background="new 0 0 40 40" xml:space="preserve">
<g>
	<g>
		<text transform="matrix(1 0 0 1 15.3877 26.1592)" fill="#323333" font-family="'MicrosoftYaHei'" font-size="6.91">90</text>
	</g>
	<g>
		<path fill="#323333" d="M13.13,13.184l0.47,0.949c1.612-0.652,3.28-0.971,4.938-0.99l0.064-1.063
			C16.767,12.094,14.914,12.45,13.13,13.184z"/>
		<path fill="#323333" d="M21.992,12.076l0.02,1.054c1.739,0.099,3.392,0.522,4.902,1.21l0.515-0.93
			C25.76,12.641,23.924,12.172,21.992,12.076z"/>
		<path fill="#323333" d="M6.778,18.463c1.107-1.239,2.445-2.292,4-3.086l-0.409-0.975C8.642,15.271,7.15,16.44,5.935,17.82
			L6.778,18.463z"/>
		<path fill="#323333" d="M29.237,15.461c1.503,0.779,2.853,1.832,3.978,3.101l0.851-0.645c-1.239-1.415-2.739-2.585-4.412-3.444
			L29.237,15.461z"/>
	</g>
</g>
</svg>
