<?xml version="1.0" encoding="utf-8"?>
<!-- Generator: Adobe Illustrator 16.0.0, SVG Export Plug-In . SVG Version: 6.00 Build 0)  -->
<!DOCTYPE svg PUBLIC "-//W3C//DTD SVG 1.1//EN" "http://www.w3.org/Graphics/SVG/1.1/DTD/svg11.dtd">
<svg version="1.1" id="图层_1" xmlns="http://www.w3.org/2000/svg" xmlns:xlink="http://www.w3.org/1999/xlink" x="0px" y="0px"
	 width="40px" height="40px" viewBox="0 0 40 40" enable-background="new 0 0 40 40" xml:space="preserve">
<g>
	<text transform="matrix(1 0 0 1 11.4824 29.0811)" fill="#323333" font-family="'MicrosoftYaHei'" font-size="7.5135">180</text>
	<g>
		<g>
			<path fill="#323333" d="M6,21.949h1.003c0.126-1.64,0.562-3.191,1.243-4.607L7.371,16.84C6.609,18.403,6.129,20.125,6,21.949z"/>
			<path fill="#323333" d="M21.004,9v1c1.646,0.125,3.203,0.559,4.623,1.237l0.505-0.871C24.563,9.606,22.834,9.129,21.004,9z"/>
			<path fill="#323333" d="M14.373,11.237c1.42-0.68,2.977-1.112,4.623-1.237V9c-1.83,0.129-3.559,0.605-5.128,1.366L14.373,11.237z
				"/>
			<path fill="#323333" d="M9.243,15.606c0.911-1.321,2.062-2.466,3.387-3.374l-0.508-0.877c-1.478,1-2.755,2.271-3.758,3.745
				L9.243,15.606z"/>
			<path fill="#323333" d="M31.754,17.342c0.682,1.416,1.116,2.968,1.242,4.607H34c-0.129-1.824-0.607-3.545-1.372-5.109
				L31.754,17.342z"/>
			<path fill="#323333" d="M27.369,12.232c1.326,0.908,2.477,2.053,3.388,3.374l0.879-0.506c-1.004-1.474-2.28-2.745-3.759-3.745
				L27.369,12.232z"/>
		</g>
	</g>
</g>
</svg>
