<?xml version="1.0" encoding="utf-8"?>
<!-- Generator: Adobe Illustrator 16.0.0, SVG Export Plug-In . SVG Version: 6.00 Build 0)  -->
<!DOCTYPE svg PUBLIC "-//W3C//DTD SVG 1.1//EN" "http://www.w3.org/Graphics/SVG/1.1/DTD/svg11.dtd">
<svg version="1.1" id="图层_1" xmlns="http://www.w3.org/2000/svg" xmlns:xlink="http://www.w3.org/1999/xlink" x="0px" y="0px"
	 width="40px" height="40px" viewBox="0 0 40 40" enable-background="new 0 0 40 40" xml:space="preserve">
<g>
	<g>
		<path fill="#EFEFEF" d="M6.5,23.977c0,3.051,2.415,5.523,5.395,5.523h16.211c2.979,0,5.395-2.469,5.395-5.523v-7.953
			c0-3.049-2.413-5.522-5.395-5.522H11.895c-2.98,0-5.395,2.474-5.395,5.522V23.977z"/>
		<path fill="#333333" d="M28.105,29.988H11.895c-3.244,0-5.883-2.697-5.883-6.014v-7.951c0-3.314,2.639-6.012,5.883-6.012h16.211
			c3.244,0,5.883,2.697,5.883,6.012v7.951C33.988,27.291,31.35,29.988,28.105,29.988z M11.895,10.988
			c-2.705,0-4.906,2.259-4.906,5.035v7.953c0,2.776,2.201,5.035,4.906,5.035h16.211c2.705,0,4.906-2.259,4.906-5.035v-7.953
			c0-2.775-2.201-5.035-4.906-5.035H11.895z"/>
	</g>
</g>
</svg>
