<?xml version="1.0" encoding="utf-8"?>
<!-- Generator: Adobe Illustrator 16.0.0, SVG Export Plug-In . SVG Version: 6.00 Build 0)  -->
<!DOCTYPE svg PUBLIC "-//W3C//DTD SVG 1.1//EN" "http://www.w3.org/Graphics/SVG/1.1/DTD/svg11.dtd">
<svg version="1.1" id="图层_1" xmlns="http://www.w3.org/2000/svg" xmlns:xlink="http://www.w3.org/1999/xlink" x="0px" y="0px"
	 width="40px" height="40px" viewBox="0 0 40 40" enable-background="new 0 0 40 40" xml:space="preserve">
<g>
	<path fill="#666666" d="M7.5,24.769c0,3.211,2.503,5.814,5.594,5.814h16.81c3.094,0,5.596-2.604,5.596-5.814v-8.369
		c0-3.213-2.502-5.816-5.596-5.816h-16.81c-3.091,0-5.594,2.604-5.594,5.816V24.769z"/>
</g>
<path fill="#EAE9E9" d="M6.083,23.436c0,3.211,2.503,5.814,5.594,5.814h16.81c3.094,0,5.596-2.604,5.596-5.814v-8.37
	c0-3.213-2.502-5.816-5.596-5.816h-16.81c-3.091,0-5.594,2.603-5.594,5.816V23.436z"/>
<g>
	<path fill="none" stroke="#333333" stroke-miterlimit="10" d="M6.083,23.436c0,3.211,2.503,5.814,5.594,5.814h16.81
		c3.094,0,5.596-2.604,5.596-5.814v-8.37c0-3.213-2.502-5.816-5.596-5.816h-16.81c-3.091,0-5.594,2.603-5.594,5.816V23.436z"/>
</g>
</svg>
