<?xml version="1.0" encoding="UTF-8"?>
<svg width="28px" height="28px" viewBox="0 0 28 28" version="1.1" xmlns="http://www.w3.org/2000/svg" xmlns:xlink="http://www.w3.org/1999/xlink">
    <!-- Generator: Sketch 50 (54983) - http://www.bohemiancoding.com/sketch -->
    <title>Artboard Copy</title>
    <desc>Created with Sketch.</desc>
    <defs></defs>
    <g id="Artboard-Copy" stroke="none" stroke-width="1" fill="none" fill-rule="evenodd">
        <g id="Group-13" fill="#333333">
            <path d="M15.4474837,18.2599365 L25.2177234,18.2599365 L25.2177234,17.0066714 L15.4474837,17.0066714 L15.4474837,18.2599365 Z M25.2177234,25.6632356 L24.3086325,25.6632356 L24.3086325,22.8436127 L23.3136076,22.8436127 L23.3136076,25.6632356 L18.5962851,25.6632356 C18.6270405,25.5836206 18.6568912,25.501322 18.6831237,25.4100778 C18.8748921,24.7481105 18.8694647,24.1863329 18.8694647,24.1630746 L17.9648966,24.1747037 C17.9648966,24.1791765 17.9676103,24.6345026 17.8138338,25.1631819 C17.7459912,25.3975541 17.6636755,25.5523114 17.59131,25.6632356 L16.8016221,25.6632356 C16.9354982,25.4145506 17.0639468,25.1148762 17.1697813,24.747216 C17.4863801,23.6576536 17.4773344,22.7371612 17.4773344,22.6986956 L16.4832141,22.7103247 C16.4832141,22.7192702 16.487737,23.531522 16.2145574,24.4770618 C16.0318347,25.1095089 15.7758419,25.47538 15.6084968,25.6632356 L13.7894104,25.6632356 C14.5691481,23.9904264 15.0576149,22.2129547 15.2412422,20.3782318 L15.3525041,19.2663057 L25.2177234,19.2663057 L25.2177234,25.6632356 Z M20.3321513,4.51069687 C20.5827166,4.51069687 20.7844353,4.71107616 20.7844353,4.95797207 C20.7844353,5.20486798 20.5827166,5.40524727 20.3321513,5.40524727 C20.0824905,5.40524727 19.8798672,5.20486798 19.8798672,4.95797207 C19.8798672,4.71107616 20.0824905,4.51069687 20.3321513,4.51069687 Z M25.2095823,15.4698338 L23.5922146,14.5779671 C22.2371716,13.831912 21.4700979,12.3711112 21.5940237,10.8423246 C21.6555344,10.077484 21.6890034,9.24286848 21.6890034,8.36889274 C21.6890034,4.66366499 21.0820382,1.65976475 20.3321513,1.65976475 C19.5831689,1.65976475 18.9752992,4.66366499 18.9752992,8.36889274 C18.9752992,9.24286848 19.0105773,10.077484 19.0711834,10.8423246 C19.1951092,12.3711112 18.4280355,13.831912 17.0729925,14.5779671 L15.4556248,15.4698338 C14.8359957,15.8115521 14.4524588,16.4574174 14.4524588,17.158745 L14.4524588,18.2599365 L14.2516447,20.2807259 C14.0725402,22.0778776 13.5768369,23.8294073 12.7880536,25.457489 L12.2118437,26.6454519 L15.9531372,26.6454519 L15.9612784,26.6597647 C15.9648966,26.6579756 15.976656,26.6499247 15.9820834,26.6454519 L26.2118437,26.6454519 L26.2118437,19.2663057 L26.2118437,18.2599365 L26.2118437,17.158745 C26.2118437,16.4574174 25.8292114,15.8115521 25.2095823,15.4698338 Z" id="Fill-1-Copy" transform="translate(19.211844, 14.159765) rotate(38.000000) translate(-19.211844, -14.159765) "></path>
            <path d="M6.02688045,7 L4.23485027,7 L3.08889413,5.17882505 C2.8530995,4.80223612 2.65975081,4.55971649 2.50884225,4.45125888 C2.35793369,4.34280127 2.19759576,4.28857327 2.02782363,4.28857327 L1.55623674,4.28857327 L1.55623674,7 L0,7 L0,0 L2.56071681,0 C4.29930917,0 5.16859231,0.63265991 5.16859231,1.89799871 C5.16859231,2.37400711 5.02318781,2.78222339 4.73237444,3.12265978 C4.44156107,3.46309617 4.04150219,3.70260314 3.53218581,3.84118786 L3.53218581,3.85926404 C3.86858614,3.96772165 4.24113605,4.32321627 4.64984673,4.92575855 L6.02688045,7 Z M1.55623674,1.13428018 L1.55623674,3.14977405 L2.3202075,3.14977405 C2.68490318,3.14977405 2.9780701,3.04809656 3.19971705,2.84473854 C3.42136399,2.64138052 3.53218581,2.38756339 3.53218581,2.08327954 C3.53218581,1.45061014 3.13762872,1.13428018 2.34850271,1.13428018 L1.55623674,1.13428018 Z M12.6102334,7 L10.7616128,7 L9.45060127,4.6772111 C9.40344235,4.59285518 9.35471219,4.44071554 9.30440934,4.2207876 L9.28554586,4.2207876 C9.26039444,4.32924522 9.20380457,4.48590386 9.11577458,4.69076824 L7.80004716,7 L5.93727894,7 L8.28106579,3.49774048 L6.14006131,0 L8.0358406,0 L9.12520632,2.14202711 C9.21323631,2.31676438 9.28868946,2.50957502 9.35156803,2.72046482 L9.3704315,2.72046482 C9.436454,2.530664 9.51662297,2.33032169 9.61094082,2.11943189 L10.8134874,0 L12.553643,0 L10.3466164,3.47062621 L12.6102334,7 Z M20,7 L18.4060363,7 L15.3124263,2.47191737 C15.152086,2.23692587 15.0357624,2.0471279 14.963452,1.90251775 L14.9398727,1.90251775 C14.968168,2.14353467 14.9823155,2.51559895 14.9823155,3.01872176 L14.9823155,7 L13.5062485,7 L13.5062485,0 L15.2039613,0 L18.1843905,4.40154939 C18.382458,4.6937824 18.5034974,4.87906137 18.5475124,4.95739187 L18.5710917,4.95739187 C18.5396524,4.78868003 18.523933,4.46632474 18.523933,3.99031633 L18.523933,0 L20,0 L20,7 Z" id="RXN"></path>
        </g>
    </g>
</svg>