<?xml version="1.0" encoding="UTF-8"?>
<svg width="28px" height="28px" viewBox="0 0 28 28" version="1.1" xmlns="http://www.w3.org/2000/svg" xmlns:xlink="http://www.w3.org/1999/xlink">
    <!-- Generator: Sketch 50 (54983) - http://www.bohemiancoding.com/sketch -->
    <title>Artboard</title>
    <desc>Created with Sketch.</desc>
    <defs></defs>
    <g id="Artboard" stroke="none" stroke-width="1" fill="none" fill-rule="evenodd">
        <g id="Group-12" fill="#333333">
            <path d="M15.4474837,18.2599365 L25.2177234,18.2599365 L25.2177234,17.0066714 L15.4474837,17.0066714 L15.4474837,18.2599365 Z M25.2177234,25.6632356 L24.3086325,25.6632356 L24.3086325,22.8436127 L23.3136076,22.8436127 L23.3136076,25.6632356 L18.5962851,25.6632356 C18.6270405,25.5836206 18.6568912,25.501322 18.6831237,25.4100778 C18.8748921,24.7481105 18.8694647,24.1863329 18.8694647,24.1630746 L17.9648966,24.1747037 C17.9648966,24.1791765 17.9676103,24.6345026 17.8138338,25.1631819 C17.7459912,25.3975541 17.6636755,25.5523114 17.59131,25.6632356 L16.8016221,25.6632356 C16.9354982,25.4145506 17.0639468,25.1148762 17.1697813,24.747216 C17.4863801,23.6576536 17.4773344,22.7371612 17.4773344,22.6986956 L16.4832141,22.7103247 C16.4832141,22.7192702 16.487737,23.531522 16.2145574,24.4770618 C16.0318347,25.1095089 15.7758419,25.47538 15.6084968,25.6632356 L13.7894104,25.6632356 C14.5691481,23.9904264 15.0576149,22.2129547 15.2412422,20.3782318 L15.3525041,19.2663057 L25.2177234,19.2663057 L25.2177234,25.6632356 Z M20.3321513,4.51069687 C20.5827166,4.51069687 20.7844353,4.71107616 20.7844353,4.95797207 C20.7844353,5.20486798 20.5827166,5.40524727 20.3321513,5.40524727 C20.0824905,5.40524727 19.8798672,5.20486798 19.8798672,4.95797207 C19.8798672,4.71107616 20.0824905,4.51069687 20.3321513,4.51069687 Z M25.2095823,15.4698338 L23.5922146,14.5779671 C22.2371716,13.831912 21.4700979,12.3711112 21.5940237,10.8423246 C21.6555344,10.077484 21.6890034,9.24286848 21.6890034,8.36889274 C21.6890034,4.66366499 21.0820382,1.65976475 20.3321513,1.65976475 C19.5831689,1.65976475 18.9752992,4.66366499 18.9752992,8.36889274 C18.9752992,9.24286848 19.0105773,10.077484 19.0711834,10.8423246 C19.1951092,12.3711112 18.4280355,13.831912 17.0729925,14.5779671 L15.4556248,15.4698338 C14.8359957,15.8115521 14.4524588,16.4574174 14.4524588,17.158745 L14.4524588,18.2599365 L14.2516447,20.2807259 C14.0725402,22.0778776 13.5768369,23.8294073 12.7880536,25.457489 L12.2118437,26.6454519 L15.9531372,26.6454519 L15.9612784,26.6597647 C15.9648966,26.6579756 15.976656,26.6499247 15.9820834,26.6454519 L26.2118437,26.6454519 L26.2118437,19.2663057 L26.2118437,18.2599365 L26.2118437,17.158745 C26.2118437,16.4574174 25.8292114,15.8115521 25.2095823,15.4698338 Z" id="Fill-1" transform="translate(19.211844, 14.159765) rotate(38.000000) translate(-19.211844, -14.159765) "></path>
            <g id="Group-5" fill-rule="nonzero">
                <path d="M0.978926147,4.07104025 L0.978926147,9.92895975 L6,12.8579195 L11.0210739,9.92895975 L11.0210739,4.07104025 L6,1.1420805 L0.978926147,4.07104025 Z M12,3.5 L12,10.5 L6,14 L0,10.5 L0,3.5 L6,0 L12,3.5 Z" id="Polygon-2"></path>
                <path d="M9.21410162,8.5669873 L9.71410162,9.4330127 L6.25,11.4330127 L5.75,10.5669873 L9.21410162,8.5669873 Z M3.03589838,9 L2.03589838,9 L2.03589838,5 L3.03589838,5 L3.03589838,9 Z M5.75,3.4330127 L6.25,2.5669873 L9.71410162,4.5669873 L9.21410162,5.4330127 L5.75,3.4330127 Z" id="Polygon"></path>
            </g>
        </g>
    </g>
</svg>