<?xml version="1.0" standalone="no"?><!DOCTYPE svg PUBLIC "-//W3C//DTD SVG 1.1//EN" "http://www.w3.org/Graphics/SVG/1.1/DTD/svg11.dtd"><svg t="1522653806632" class="icon" style="" viewBox="0 0 1024 1024" version="1.1" xmlns="http://www.w3.org/2000/svg" p-id="1063" xmlns:xlink="http://www.w3.org/1999/xlink" width="26" height="26"><defs><style type="text/css"></style></defs><path d="M548.224 884.096l0-444.8L475.2 439.296l0 444.8L373.056 782.08l-51.712 51.712L511.68 1024l190.272-190.272-51.648-51.712L548.224 884.096zM801.6 257.344c-17.6-144.512-140.608-256.576-289.92-256.576-149.376 0-272.32 112.064-289.92 256.576C97.984 265.6 0 368.32 0 494.144c0 131.2 106.432 237.504 237.568 237.504L365.44 731.648 365.44 658.56 237.568 658.56c-90.688 0-164.48-73.728-164.48-164.416 0-86.208 67.328-158.144 153.408-163.84l60.352-4.032 7.424-60.096c13.376-109.632 106.816-192.32 217.408-192.32 110.528 0 204.032 82.688 217.408 192.32l7.296 60.096 60.352 4.032c86.08 5.632 153.344 77.632 153.344 163.84 0 90.688-73.728 164.416-164.352 164.416l-127.936 0 0 73.152 127.936 0c131.2 0 237.504-106.304 237.504-237.504C1023.296 368.32 925.312 265.6 801.6 257.344L801.6 257.344zM801.6 257.344" p-id="1064" fill="#757575"></path></svg>