<?xml version="1.0" encoding="utf-8"?>
<!-- Generator: Adobe Illustrator 16.0.0, SVG Export Plug-In . SVG Version: 6.00 Build 0)  -->
<!DOCTYPE svg PUBLIC "-//W3C//DTD SVG 1.1//EN" "http://www.w3.org/Graphics/SVG/1.1/DTD/svg11.dtd">
<svg version="1.1" id="图层_1" xmlns="http://www.w3.org/2000/svg" xmlns:xlink="http://www.w3.org/1999/xlink" x="0px" y="0px"
	 width="40px" height="40px" viewBox="0 0 40 40" enable-background="new 0 0 40 40" xml:space="preserve">
<g>
	<g>
		<polygon fill="#4D4B4C" points="24.645,24 30.482,29.826 29.838,30.469 24,24.642 		"/>
		<polygon fill="#4D4B4C" points="30.416,24 24.916,24 24,24 24,24.916 24,30.416 25.916,25.916 		"/>
	</g>
	<g>
		<polygon fill="#4D4B4C" points="15.354,16 9.518,10.174 10.161,9.531 16,15.359 		"/>
		<polygon fill="#4D4B4C" points="9.583,16 15.083,16 16,16 16,15.084 16,9.584 14.083,14.084 		"/>
	</g>
	<g>
		<polygon fill="#4D4B4C" points="24,15.359 29.839,9.531 30.482,10.174 24.646,16 		"/>
		<polygon fill="#4D4B4C" points="30.417,16 24.917,16 24,16 24,15.084 24,9.584 25.917,14.084 		"/>
	</g>
	<g>
		<polygon fill="#4D4B4C" points="16,24.641 10.161,30.469 9.518,29.826 15.354,24 		"/>
		<polygon fill="#4D4B4C" points="9.583,24 15.083,24 16,24 16,24.916 16,30.416 14.083,25.916 		"/>
	</g>
</g>
</svg>
