<svg id="Clipware29" xmlns="http://www.w3.org/2000/svg" viewBox="0 0 72.09766 208.63184" width="78" height="215">
    <title>Clipware29</title> <g stroke="#000000" fill="#000000" stroke-width="0.5324" transform="translate(-107.78418 -47.93066)">
    <path d="M179.88184,52.6626c0-4.67773-35.688-4.73193-36.04834-4.73193s-36.04932.0542-36.04932,4.73193c0,.75305.93372,1.38489,2.48712,1.91742,2.12585,4.11194,28.758,55.62079,29.5368,56.98395.127.22217.23926.40967.33789.57471a3.29141,3.29141,0,0,1,.59375,2.36914V249.84375h.00317c-.19226,1.24988,1.85553,3.557,2.32349,4.06445,1.12939,1.22461,2.79541,2.6543,3.7749,2.6543a.833.833,0,0,0,.582-.21289.87556.87556,0,0,0,.22382-.44629h.11505V114.50781a3.291,3.291,0,0,1,.59424-2.37012c.09863-.16455.21045-.35205.3374-.57373.79395-1.38965,28.37842-54.89844,29.55225-57.17578l-.1507-.07764C179.21759,53.83691,179.88184,53.293,179.88184,52.6626Zm-4.917-.748c-1.0332,1.11523-12.374,2.67432-30.95215,2.67432-18.57764,0-29.91846-1.55908-30.95166-2.67432,1.0332-1.11523,12.374-2.67383,30.95166-2.67383C162.59082,49.24072,173.93164,50.79932,174.96484,51.91455ZM143.80176,253.23047a9.08881,9.08881,0,0,1-2.05518-3.04,12.23087,12.23087,0,0,1,4.91992,5.33594A9.28317,9.28317,0,0,1,143.80176,253.23047Zm3.03955,2.832v-.15918h.00122Zm.98438-144.99463c-.123.21533-.23145.39648-.32715.55664a4.2044,4.2044,0,0,0-.73633,2.8833V253.58264a15.84519,15.84519,0,0,0-1.416-1.776c-1.06805-1.15961-2.61115-2.48871-3.60645-2.62817V114.50781a4.20239,4.20239,0,0,0-.73584-2.88232c-.0957-.16016-.2041-.3418-.32764-.55762-.72375-1.26672-25.12286-48.45007-29.077-56.09717,9.20386,2.38708,31.94678,2.42432,32.23419,2.42432.29706,0,24.58948-.03943,33.11621-2.67383C173.45044,61.50891,148.5575,109.78674,147.82568,111.06787ZM143.8335,56.395c-23.01172,0-35.04932-2.42969-35.04932-3.73242,0-.42072,1.2641-.95911,3.74109-1.49524a.998.998,0,0,0-.49841.74719c0,3.63232,30.67969,3.67432,31.98584,3.67432s31.98633-.042,31.98633-3.67432a.86341.86341,0,0,0-.33679-.63007c2.13129.49677,3.2196.988,3.2196,1.37811C178.88184,53.96533,166.84473,56.395,143.8335,56.395Z"
          /></g>
</svg>