<svg id="Clipware30" xmlns="http://www.w3.org/2000/svg" viewBox="0 0 80.1958 146.89111" width="85" height="150">
    <title>Clipware30</title><g stroke="#000000" fill="#000000" stroke-width="0.5324" transform="translate(-113.40186 -79.19025)">
    <path d="M193.59766,85.347c0-3.999-20.65918-6.15674-40.09766-6.15674S113.40186,81.348,113.40186,85.347c0,.87262.98456,1.65753,2.72473,2.35156,1.50171,2.55188,32.56531,55.342,33.33923,56.69629.127.22266.23926.41016.33838.5752a3.30128,3.30128,0,0,1,.5957,2.377v72h.00311c-.1925,1.25153,1.86,3.5639,2.32843,4.07227,1.13086,1.22754,2.80078,2.66211,3.78418,2.66211a.83325.83325,0,0,0,.583-.21387.78743.78743,0,0,0,.23975-.44531h.09912V147.347a3.3,3.3,0,0,1,.59571-2.376c.09863-.165.21094-.35352.33887-.57617.78906-1.38086,33.07031-56.24023,33.39648-56.79443l-.2832-.16663C192.8396,86.80658,193.59766,86.1106,193.59766,85.347Zm-5.3252-1c0,1.30615-11.874,3.74268-34.57227,3.74268-22.69873,0-34.57275-2.43652-34.57275-3.74268s11.874-3.74219,34.57275-3.74219C176.39844,80.6048,188.27246,83.04083,188.27246,84.347ZM153.46777,222.74152a9.0935,9.0935,0,0,1-2.0625-3.05176,9.24945,9.24945,0,0,1,2.875,2.30273,9.10179,9.10179,0,0,1,2.06055,3.0498A9.09128,9.09128,0,0,1,153.46777,222.74152Zm3.04785,2.83984v-.15918h.00122Zm.9873-81.68262c-.123.2168-.23242.39844-.32812.55957a4.21052,4.21052,0,0,0-.73731,2.88867v75.73883a16.8452,16.8452,0,0,0-1.42187-1.77106c-1.07184-1.16248-2.61914-2.49438-3.61523-2.634V147.347a4.21173,4.21173,0,0,0-.73828-2.88965c-.0957-.16016-.20459-.34277-.32812-.55859-.72906-1.27563-28.14343-47.86694-32.75006-55.6958,7.015,2.15948,21.78406,3.30127,35.91608,3.30127,14.88129,0,30.46661-1.2663,36.96173-3.65363C186.55292,94.493,158.24487,142.60223,157.50293,143.89874ZM153.5,90.50421c-24.22412,0-39.09814-3.00391-39.09814-5.15723,0-.72925,1.71106-1.55579,4.9082-2.33032-.75427.40234-1.18262.84393-1.18262,1.33032,0,3.47949,21.27344,4.74268,35.57275,4.74268,14.29883,0,35.57227-1.26318,35.57227-4.74268,0-.4151-.31067-.79773-.86816-1.15131,2.7392.72168,4.19336,1.478,4.19336,2.15131C192.59766,87.50031,177.72363,90.50421,153.5,90.50421Z"
         /></g>
</svg>