<svg id="Clipware28" xmlns="http://www.w3.org/2000/svg" viewBox="0 0 109.04639 120.76221" width="120" height="130">
    <title>Clipware28</title> <g stroke="#000000" fill="#000000" stroke-width="0.5324" transform="translate(-95.97705 -93.02686)">
    <path d="M205.02344,102.29492c0-2.69189-5.46484-4.94434-16.24316-6.69336A251.65541,251.65541,0,0,0,150.5,93.02686a251.65316,251.65316,0,0,0-38.27979,2.57471c-10.77832,1.749-16.24316,4.00146-16.24316,6.69336,0,1.24738,1.18872,2.399,3.52057,3.45135,3.06921,5.34076,36.03442,62.70746,37.17377,64.60529l.2793.458c1.29,2.09863,3.44922,5.61133,3.44922,13.085v25.40039h.09894a1.794,1.794,0,0,0-.11554.59961c0,2.5293,5.2124,3.89453,10.1167,3.89453s10.11621-1.36523,10.11621-3.89453a1.794,1.794,0,0,0-.11554-.59961h.09894V183.89453c0-7.47363,2.16016-10.98633,3.4502-13.085l.2793-.458c1.13794-1.89777,34.10254-59.26221,37.173-64.605C203.83441,104.69421,205.02344,103.54242,205.02344,102.29492Zm-54.32324-7.9707c30.82031,0,47.86621,3.88525,47.86621,6.5708s-17.0459,6.5708-47.86621,6.5708c-30.8208,0-47.86621-3.88525-47.86621-6.5708S119.87939,94.32422,150.7002,94.32422ZM150.5,212.78906c-5.37256,0-9.1167-1.52539-9.1167-2.89453,0-1.36816,3.74414-2.89355,9.1167-2.89355,5.37207,0,9.11621,1.52539,9.11621,2.89355C159.61621,211.26367,155.87207,212.78906,150.5,212.78906Zm12.97168-42.95117-.27344.44727c-1.25781,2.0459-3.59863,5.85254-3.59863,13.60938v24.231c-1.751-1.38831-5.50372-2.12451-9.09961-2.12451s-7.349.73627-9.1001,2.12457v-24.231c0-7.75586-2.34033-11.56348-3.59717-13.6084l-.27393-.44824c-1.08051-1.801-31.02-53.89771-36.52679-63.48077a64.73394,64.73394,0,0,0,11.2182,2.63116A251.65316,251.65316,0,0,0,150.5,111.563a251.65541,251.65541,0,0,0,38.28027-2.57471,64.737,64.737,0,0,0,11.21747-2.63086C194.49005,115.94128,164.55078,168.037,163.47168,169.83789Zm-63.52087-64.8866c-1.89935-.82068-2.97375-1.71027-2.97375-2.65637,0-1.61261,3.10242-3.062,8.15436-4.28143-2.10535.851-3.29742,1.81262-3.29742,2.88153,0,4.91748,25.17725,7.5708,48.86621,7.5708,23.68945,0,48.86621-2.65332,48.86621-7.5708,0-.97571-1.00439-1.86072-2.77844-2.65509,4.51093,1.171,7.23547,2.5415,7.23547,4.055,0,.94617-1.07446,1.83575-2.97406,2.65649l-.31927.13159c-8.14667,3.33069-30.09534,5.48-50.2301,5.48-20.13531,0-42.08435-2.14941-50.23035-5.48029Z"
         /></g>
</svg>