<svg id="图层_34" data-name="图层 34" xmlns="http://www.w3.org/2000/svg" viewBox="0 0 128.62109 325.57471" width="130" height="330">
    <defs>
        <style>.cls-1{fill:#231815;}</style>
    </defs>
    <title>玻璃仪器123</title><g fill="#000000" stroke-width="0.2324">
    <polygon class="cls-1" points="37.887 127.682 37.618 127.548 38.381 126.044 38.649 126.179 37.887 127.682"/>
    <polygon class="cls-1" points="29.149 129.012 28.991 128.757 30.563 127.788 30.721 128.042 29.149 129.012"/>
    <polygon class="cls-1" points="27.359 128.635 26.383 127.202 26.63 127.032 27.606 128.465 27.359 128.635"/>
    <polygon class="cls-1" points="46.438 127.782 46.302 127.515 47.921 126.694 48.057 126.961 46.438 127.782"/>
    <polygon class="cls-1" points="38.871 129.737 37.678 128.478 37.896 128.272 39.089 129.532 38.871 129.737"/>
    <polygon class="cls-1" points="55.188 128.347 54.211 126.914 54.458 126.744 55.436 128.177 55.188 128.347"/>
    <rect class="cls-1" x="1253.99042" y="140.00046" width="0.30139" height="1.97629"
          transform="translate(-1193.06125 447.80266) rotate(-21.57008)"/>
    <rect class="cls-1" x="1252.69986" y="131.72558" width="1.69207" height="0.29999"
          transform="translate(-1110.12094 657.76017) rotate(-31.82745)"/>
    <polygon class="cls-1" points="40.969 100.453 40.799 100.205 42.251 99.229 42.421 99.478 40.969 100.453"/>
    <polygon class="cls-1" points="33.023 100.408 31.857 99.026 32.086 98.833 33.252 100.214 33.023 100.408"/>
    <rect class="cls-1" x="1258.29326" y="127.17384" width="0.29922" height="1.83657"
          transform="translate(-1185.30587 457.95352) rotate(-22.01639)"/>
    <rect class="cls-1" x="1256.97737" y="138.4489" width="0.30015" height="2.04475"
          transform="translate(-866.16023 1010.85369) rotate(-51.34019)"/>
    <polygon class="cls-1" points="26.969 110.18 26.692 110.065 27.5 108.113 27.776 108.228 26.969 110.18"/>
    <polygon class="cls-1" points="27.36 101.113 26.382 99.7 26.629 99.53 27.607 100.942 27.36 101.113"/>
    <polygon class="cls-1" points="53.268 125.274 53.021 125.104 54.15 123.44 54.397 123.61 53.268 125.274"/>
    <polygon class="cls-1" points="43.026 125.935 42.805 125.73 43.938 124.508 44.16 124.712 43.026 125.935"/>
    <polygon class="cls-1" points="32.376 120.653 31.205 119.352 31.427 119.15 32.598 120.451 32.376 120.653"/>
    <polygon class="cls-1" points="52.251 115.778 52.046 115.56 53.612 114.058 53.817 114.275 52.251 115.778"/>
    <polygon class="cls-1" points="52.062 107.035 49.931 106.359 50.019 106.072 52.149 106.748 52.062 107.035"/>
    <polygon class="cls-1" points="46.437 100.26 46.302 99.991 47.922 99.192 48.057 99.461 46.437 100.26"/>
    <polygon class="cls-1" points="38.583 102.964 37.39 101.706 37.607 101.5 38.801 102.759 38.583 102.964"/>
    <polygon class="cls-1" points="35.722 104.151 33.3 103.483 33.382 103.194 35.804 103.862 35.722 104.151"/>
    <polygon class="cls-1" points="35.083 106.561 33.308 105.272 33.483 105.029 35.259 106.318 35.083 106.561"/>
    <polygon class="cls-1" points="44.789 105.649 44.015 103.95 44.289 103.828 45.063 105.527 44.789 105.649"/>
    <polygon class="cls-1" points="49.888 104.936 48.911 103.502 49.158 103.332 50.135 104.765 49.888 104.936"/>
    <polygon class="cls-1" points="45.588 108.366 44.216 107.385 44.392 107.142 45.764 108.123 45.588 108.366"/>
    <polygon class="cls-1" points="48.163 116.468 47.953 116.252 49.211 115.038 49.421 115.254 48.163 116.468"/>
    <polygon class="cls-1" points="51.216 122.886 49.651 121.75 49.827 121.507 51.392 122.643 51.216 122.886"/>
    <polygon class="cls-1" points="45.971 123.596 44.435 122.708 44.586 122.449 46.122 123.336 45.971 123.596"/>
    <rect class="cls-1" x="47.61621" y="109.02686" width="0.29883" height="1.96729"/>
    <polygon class="cls-1" points="38.928 110.047 38.693 109.86 39.855 108.418 40.09 108.605 38.928 110.047"/>
    <rect class="cls-1" x="30.61914" y="112.02295" width="0.29883" height="1.81348"/>
    <polygon class="cls-1" points="37.747 113.302 36.282 112.181 36.465 111.943 37.93 113.064 37.747 113.302"/>
    <polygon class="cls-1" points="44.019 113.052 42.623 112.115 42.793 111.867 44.188 112.804 44.019 113.052"/>
    <rect class="cls-1" x="44.62012" y="118.32227" width="0.29883" height="1.73682"/>
    <polygon class="cls-1" points="42.147 118.11 41.248 116.792 41.495 116.623 42.395 117.94 42.147 118.11"/>
    <polygon class="cls-1" points="34.218 116.912 33.47 115.526 33.733 115.382 34.481 116.768 34.218 116.912"/>
    <polygon class="cls-1" points="36.069 120.775 35.812 120.62 36.587 119.335 36.845 119.49 36.069 120.775"/>
    <rect class="cls-1" x="38.58105" y="119.77051" width="1.50586" height="0.2998"/>
    <polygon class="cls-1" points="36.758 97.178 35.987 95.381 36.264 95.264 37.034 97.061 36.758 97.178"/>
    <rect class="cls-1" x="1286.37233" y="127.17348" width="0.29831" height="1.8373"
          transform="translate(-1182.89942 469.70198) rotate(-22.07286)"/>
    <rect class="cls-1" x="56.09668" y="113.91309" width="1.77441" height="0.2998"/>
    <polygon class="cls-1" points="55.765 113.302 54.19 112.374 54.343 112.116 55.917 113.044 55.765 113.302"/>
    <polygon class="cls-1" points="55.438 101.113 54.46 99.7 54.707 99.53 55.686 100.942 55.438 101.113"/>
    <polygon class="cls-1" points="23.184 98.724 22.99 98.495 24.045 97.597 24.238 97.826 23.184 98.724"/>
    <polygon class="cls-1" points="24.307 87.987 24.102 87.77 25.668 86.267 25.873 86.485 24.307 87.987"/>
    <polygon class="cls-1" points="25.599 84.022 24.499 82.556 24.74 82.377 25.84 83.843 25.599 84.022"/>
    <rect class="cls-1" x="22.85156" y="91.51904" width="1.75488" height="0.2998"/>
    <rect class="cls-1" x="1256.97737" y="110.63933" width="0.30015" height="2.04475"
          transform="translate(-844.44461 1000.41663) rotate(-51.34019)"/>
    <polygon class="cls-1" points="26.969 82.37 26.692 82.255 27.5 80.303 27.776 80.418 26.969 82.37"/>
    <polygon class="cls-1" points="53.27 97.481 53.02 97.315 54.148 95.632 54.398 95.798 53.27 97.481"/>
    <polygon class="cls-1" points="43.027 98.144 42.805 97.942 43.938 96.699 44.16 96.901 43.027 98.144"/>
    <polygon class="cls-1" points="32.376 92.843 31.205 91.542 31.427 91.34 32.598 92.642 32.376 92.843"/>
    <polygon class="cls-1" points="52.251 87.987 52.046 87.77 53.612 86.267 53.817 86.485 52.251 87.987"/>
    <polygon class="cls-1" points="36.106 80.613 34.877 79.582 35.071 79.353 36.301 80.384 36.106 80.613"/>
    <rect class="cls-1" x="50.33496" y="85.27734" width="1.77441" height="0.2998"/>
    <rect class="cls-1" x="50.7959" y="91.51904" width="1.75488" height="0.2998"/>
    <rect class="cls-1" x="45.24609" y="93.45898" width="1.71582" height="0.2998"/>
    <polygon class="cls-1" points="46.304 86.182 46.168 85.915 48.324 84.826 48.46 85.093 46.304 86.182"/>
    <rect class="cls-1" x="40.79004" y="79.91895" width="1.52441" height="0.2998"/>
    <rect class="cls-1" x="30.61914" y="84.21338" width="0.29883" height="1.81348"/>
    <polygon class="cls-1" points="37.747 85.512 36.283 84.371 36.465 84.133 37.929 85.274 37.747 85.512"/>
    <polygon class="cls-1" points="43.063 87.979 42.822 87.8 43.883 86.372 44.123 86.551 43.063 87.979"/>
    <rect class="cls-1" x="1270.3856" y="117.82099" width="1.60087" height="0.2996"
          transform="translate(-1144.55053 565.59831) rotate(-26.94089)"/>
    <polygon class="cls-1" points="39.835 87.115 39.595 86.934 40.619 85.583 40.859 85.765 39.835 87.115"/>
    <rect class="cls-1" x="31.02246" y="88.07373" width="0.29883" height="1.69824"/>
    <polygon class="cls-1" points="34.003 94.577 33.852 94.317 35.312 93.467 35.463 93.727 34.003 94.577"/>
    <rect class="cls-1" x="1267.16635" y="116.49685" width="0.30012" height="1.8722"
          transform="translate(-771.77079 1075.99004) rotate(-55.767)"/>
    <rect class="cls-1" x="1285.05598" y="110.63971" width="0.30015" height="2.04399"
          transform="translate(-834.18523 1022.07665) rotate(-51.32309)"/>
    <polygon class="cls-1" points="54.724 82.925 54.445 82.814 55.229 80.862 55.508 80.973 54.724 82.925"/>
    <polygon class="cls-1" points="58.991 85.182 58.726 85.043 59.566 83.425 59.832 83.564 58.991 85.182"/>
    <polygon class="cls-1" points="28.305 116.26 28.146 116.007 29.582 115.093 29.741 115.346 28.305 116.26"/>
    <polygon class="cls-1" points="44.807 107.502 44.642 107.252 46.114 106.277 46.279 106.527 44.807 107.502"/>
    <polygon class="cls-1" points="36.864 107.476 35.698 106.094 35.927 105.9 37.093 107.282 36.864 107.476"/>
    <rect class="cls-1" x="1262.13502" y="134.24088" width="0.29831" height="1.83775"
          transform="translate(-1187.36661 460.9901) rotate(-22.06714)"/>
    <polygon class="cls-1" points="30.713 126.131 30.519 125.902 32.188 124.465 32.382 124.694 30.713 126.131"/>
    <rect class="cls-1" x="30.13867" y="112.69531" width="0.29883" height="1.71729"/>
    <polygon class="cls-1" points="31.2 108.181 30.224 106.748 30.471 106.578 31.447 108.011 31.2 108.181"/>
    <polygon class="cls-1"
             points="36.236 127.701 36.17 127.627 35.045 126.401 35.268 126.199 35.334 126.272 36.459 127.499 36.236 127.701"/>
    <polygon class="cls-1" points="42.424 110.033 41.251 108.773 41.469 108.567 42.642 109.827 42.424 110.033"/>
    <polygon class="cls-1" points="39.563 111.219 37.142 110.551 37.224 110.262 39.645 110.93 39.563 111.219"/>
    <polygon class="cls-1" points="38.923 113.628 37.148 112.319 37.325 112.078 39.1 113.387 38.923 113.628"/>
    <polygon class="cls-1" points="48.629 112.698 47.876 111.018 48.15 110.896 48.903 112.576 48.629 112.698"/>
    <polygon class="cls-1" points="53.748 112.003 52.771 110.57 53.018 110.399 53.995 111.833 53.748 112.003"/>
    <polygon class="cls-1" points="46.063 113.91 44.994 112.643 45.223 112.449 46.292 113.716 46.063 113.91"/>
    <polygon class="cls-1" points="53.278 117.836 53.021 117.684 53.986 116.032 54.244 116.185 53.278 117.836"/>
    <polygon class="cls-1" points="52.423 126.803 50.906 125.915 51.059 125.656 52.575 126.545 52.423 126.803"/>
    <polygon class="cls-1" points="48.537 118.188 48.296 118.011 49.509 116.353 49.75 116.529 48.537 118.188"/>
    <polygon class="cls-1" points="39.818 117.769 38.751 116.462 38.984 116.272 40.052 117.579 39.818 117.769"/>
    <polygon class="cls-1" points="35.038 121.362 34.95 121.075 37.081 120.4 37.169 120.687 35.038 121.362"/>
    <polygon class="cls-1" points="43.297 119.461 43.074 119.261 44.302 117.883 44.524 118.083 43.297 119.461"/>
    <polygon class="cls-1" points="46.922 122.837 46.683 122.656 47.744 121.248 47.983 121.429 46.922 122.837"/>
    <polygon class="cls-1" points="45.324 130.203 45.189 129.935 46.635 129.19 46.77 129.458 45.324 130.203"/>
    <polygon class="cls-1" points="43.677 121.973 43.437 121.792 44.46 120.441 44.7 120.623 43.677 121.973"/>
    <rect class="cls-1" x="34.86328" y="122.93164" width="0.29883" height="1.71777"/>
    <polygon class="cls-1" points="37.842 129.435 37.695 129.173 39.175 128.325 39.321 128.586 37.842 129.435"/>
    <polygon class="cls-1" points="42.788 129.8 41.261 128.745 41.431 128.498 42.958 129.553 42.788 129.8"/>
    <polygon class="cls-1" points="29.032 104.549 28.782 104.383 29.911 102.7 30.161 102.866 29.032 104.549"/>
    <rect class="cls-1" x="1257.69696" y="119.25846" width="0.30139" height="1.97593"
          transform="matrix(0.93014, -0.36721, 0.36721, 0.93014, -1185.33705, 447.15473)"/>
    <rect class="cls-1" x="1256.40592" y="110.98339" width="1.69207" height="0.29999"
          transform="translate(-1098.62504 656.59581) rotate(-31.82745)"/>
    <polygon class="cls-1" points="25.584 90.026 25.326 89.874 26.292 88.222 26.55 88.375 25.584 90.026"/>
    <rect class="cls-1" x="26.55859" y="98.56787" width="1.75488" height="0.2998"/>
    <rect class="cls-1" x="1260.81819" y="117.70671" width="0.30015" height="2.04475"
          transform="translate(-848.52183 1006.06823) rotate(-51.34019)"/>
    <polygon class="cls-1" points="30.832 89.436 30.554 89.325 31.338 87.373 31.616 87.484 30.832 89.436"/>
    <rect class="cls-1" x="1262.5567" y="125.65355" width="0.29969" height="1.93867"
          transform="translate(-948.61225 906.98812) rotate(-45.0102)"/>
    <polygon class="cls-1" points="43.666 104.621 43.485 104.381 44.912 103.3 45.093 103.54 43.666 104.621"/>
    <rect class="cls-1" x="1283.90885" y="111.04101" width="1.69207" height="0.29999"
          transform="translate(-1094.52009 671.1085) rotate(-31.82745)"/>
    <polygon class="cls-1" points="38.923 85.838 37.148 84.529 37.325 84.287 39.1 85.596 38.923 85.838"/>
    <polygon class="cls-1" points="55.592 84.539 54.613 83.125 54.86 82.955 55.839 84.368 55.592 84.539"/>
    <polygon class="cls-1" points="49.452 87.625 48.06 86.646 48.229 86.399 49.622 87.378 49.452 87.625"/>
    <polygon class="cls-1" points="52.004 95.726 51.794 95.51 53.052 94.296 53.262 94.512 52.004 95.726"/>
    <polygon class="cls-1" points="52.254 103.281 52.002 103.117 52.956 101.664 53.208 101.828 52.254 103.281"/>
    <polygon class="cls-1" points="52.423 99.013 50.906 98.124 51.059 97.866 52.575 98.754 52.423 99.013"/>
    <polygon class="cls-1" points="48.539 90.397 48.295 90.222 49.507 88.543 49.751 88.718 48.539 90.397"/>
    <polygon class="cls-1" points="39.818 89.959 38.751 88.652 38.984 88.462 40.052 89.77 39.818 89.959"/>
    <polygon class="cls-1" points="35.038 93.571 34.95 93.284 37.081 92.609 37.169 92.896 35.038 93.571"/>
    <polygon class="cls-1" points="43.296 91.652 43.073 91.45 44.303 90.092 44.525 90.294 43.296 91.652"/>
    <polygon class="cls-1" points="46.923 95.046 46.683 94.867 47.743 93.439 47.983 93.618 46.923 95.046"/>
    <polygon class="cls-1" points="45.324 102.393 45.189 102.125 46.635 101.38 46.77 101.648 45.324 102.393"/>
    <polygon class="cls-1" points="43.677 94.183 43.437 94.001 44.46 92.651 44.7 92.832 43.677 94.183"/>
    <rect class="cls-1" x="34.86328" y="95.12207" width="0.29883" height="1.71729"/>
    <polygon class="cls-1" points="37.846 101.644 37.693 101.386 39.171 100.516 39.323 100.774 37.846 101.644"/>
    <polygon class="cls-1" points="42.788 102.009 41.261 100.954 41.431 100.708 42.958 101.763 42.788 102.009"/>
    <path d="M1357.31445,24.65926a51.55785,51.55785,0,0,0-6.58887-1.51709,5.20638,5.20638,0,0,0-2.08887.64551,4.29846,4.29846,0,0,1-1.4834.50684,5.43248,5.43248,0,0,1-1.50586-.38525,7.73071,7.73071,0,0,0-2.46973-.55566h-22.29687c-9.04785,0-18.208,6.25439-18.208,18.20752,0,.96191-1.09473,1.94385-1.541,2.26025a11.92947,11.92947,0,0,0-.63965,18.10156A5.2754,5.2754,0,0,1,1302.5,65.68319c0,2.21143-.88477,7.35547-9.09961,7.356-.04883-.00293-4.72949.11914-5.75586-2.688a14.36608,14.36608,0,0,0-7.81634-8.28149l.01166-.0481c-1.23633-1.33643-2.97754-3.54443-2.97754-4.27V42.80965c0-11.95361-9.16016-18.208-18.208-18.208h-15.0957a7.611,7.611,0,0,0-2.47266.56738,5.341,5.341,0,0,1-1.50293.39307,4.29848,4.29848,0,0,1-1.4834-.50684,5.20638,5.20638,0,0,0-2.08887-.64551,51.55785,51.55785,0,0,0-6.58887,1.51709l-.36426.481v7.375l.36426.481a51.55785,51.55785,0,0,0,6.58887,1.51709,5.20638,5.20638,0,0,0,2.08887-.64551,4.29848,4.29848,0,0,1,1.4834-.50684,4.67058,4.67058,0,0,1,1.4043.37354,6.82247,6.82247,0,0,0,2.36035.54834h13.002c8.19922,0,9.084,5.14355,9.084,7.355V57.75155c0,.63916-1.53613,2.52441-2.959,3.90479l.0025.01514a18.84476,18.84476,0,0,0-10.46832,16.82227c0,6.56641,3.17676,12.52979,8.29,15.563,1.36914.81836,1.10742,3.21436,1.10156,3.29688,0,2.01953-3.166,3.939-5.47656,5.34033-.61011.36963-1.16064.7074-1.63531,1.02673-3.35754.86938-5.5639,2.077-5.5639,3.60071,0,1.062,1.06055,1.80615,2.10254,2.397.17871.09863.28223.6123.2793.97266l2.14417,38.69684a25.35869,25.35869,0,0,0-8.4635,19.29535c0,7.45313.3584,58.24316.64551,99.05371.21,29.78076.3916,55.5.3916,58.24023,0,3.91406-6.47266,7.58789-11.19922,10.27051-3.501,1.9873-5.04883,2.90771-5.04883,3.90332,0,6.76221,25.52148,8.56592,40.60156,8.56592s40.60156-1.80371,40.60156-8.56592c0-.69287-.97656-1.28076-4.06348-3.03613-4.55762-2.59033-12.18457-6.92627-12.18457-11.1377,0-2.74023.18164-28.45947.3916-58.24023.28711-40.81055.64551-91.60059.64551-99.05371a24.392,24.392,0,0,0-8.96545-19.25177l2.14416-38.80731h.001v-.00977l.01465-.26465a.95465.95465,0,0,1,.35352-.6875c1.1416-.73437,2.01563-1.373,2.01563-2.34082,0-1.74377-2.88812-3.07373-7.0874-3.95593-2.22052-1.7135-5.02094-4.10138-4.95361-5.9425a4.75158,4.75158,0,0,1,2.15723-3.39209,20.7876,20.7876,0,0,0,6.21777-7.16455c1.07129-2.07373,6.34082-2.7959,8.25488-2.89844,9.04785,0,18.208-6.24756,18.20606-18.13965a6.44159,6.44159,0,0,1,2.42383-3.6665,11.91335,11.91335,0,0,0-.86328-18.68262l-.23242-.09082c-.05859-.00781-1.44141-.23193-1.44141-2.92187,0-2.99756,3.28516-6.18359,9.37207-6.18359l20.2041.019a6.71823,6.71823,0,0,0,2.36328-.56006,4.56772,4.56772,0,0,1,1.40039-.38086,4.29846,4.29846,0,0,1,1.4834.50684,5.20638,5.20638,0,0,0,2.08887.64551,51.55785,51.55785,0,0,0,6.58887-1.51709l.36426-.481v-7.375Zm-90.88086,33.09229V42.90536c0-1.96-.72754-8.355-10.084-8.355h-13.002a5.97391,5.97391,0,0,1-2.01562-.48682,5.27033,5.27033,0,0,0-1.749-.43506,4.86805,4.86805,0,0,0-1.90527.6001,4.57425,4.57425,0,0,1-1.667.55225,45.33055,45.33055,0,0,1-5.95312-1.377V26.78671a45.33054,45.33054,0,0,1,5.95313-1.377,4.57425,4.57425,0,0,1,1.667.55225,4.86805,4.86805,0,0,0,1.90527.6001,5.91361,5.91361,0,0,0,1.83594-.44971,6.76037,6.76037,0,0,1,2.13965-.51074h15.0957c8.55176,0,17.208,5.91064,17.208,17.208V57.75155c0,1.12158,1.79883,3.31836,2.75586,4.40674-1.15137.48242-2.75586,1.3252-2.75586,2.27686,0,10.06793-.00049,23.074-.00128,37.86456-1.94672-.13416-3.95166-.20294-5.93329-.20294-1.16217,0-2.33215.02466-3.49414.07111V64.43514c0-.93945-1.627-1.9585-2.76758-2.55713C1264.62988,60.88827,1266.43359,58.88339,1266.43359,57.75155Zm15.32574,90.35583c-1.42456-.26154-3.09631-.46692-4.90155-.61328.00073-12.39276.00153-24.40674.0022-35.61823a53.62475,53.62475,0,0,0,8.20935-1.22662Zm.95068.6015a7.864,7.864,0,0,1,2.87445,1.04486l-.02393.43335c-.04871.369-1.26892.886-3.57452,1.33313.18121-.1684.51984-.50061.51984-.50061Zm-3.37738,3.22412c-.76062.09491-1.58093.18182-2.47516.25519l.00018-2.60724a22.84933,22.84933,0,0,1,3.55737.66473l.11328-.38379a23.44933,23.44933,0,0,0-3.67065-.683c.00006-.4281.00012-.85773.00012-1.28491,1.87823.15479,3.51782.3667,4.866.6153l-.19073,2.15881a9.35314,9.35314,0,0,1-2.205,1.25ZM1276.86,111.67556c.00006-1.2998.00018-2.60016.00024-3.87744,3.2887-.23,6.84381-.67059,8.59418-1.50641l-.36639,4.1463A53.014,53.014,0,0,1,1276.86,111.67556Zm-5.76038,202.89288a9.27265,9.27265,0,0,0-4.666,1.072V153.38052c1.26746.05078,2.46368.07318,3.49414.07318,1.674,0,3.78217-.05847,5.92993-.20337-.00531,70.24792-.01343,150.16754-.01471,162.4433A9.08612,9.08612,0,0,0,1271.09961,314.56844Zm4.666,2.57422c0,.64941-1.81738,1.59326-4.666,1.59326s-4.666-.94385-4.666-1.59326c0-.64209,1.81738-1.57422,4.666-1.57422S1275.76563,316.50057,1275.76563,317.14266Zm-5.83789-164.689q-1.85275,0-3.49414-.06323v-3.04352c1.254-.082,2.58331-.13007,3.95508-.13007,1.92474,0,3.79749.09161,5.4693.25372l-.00018,2.79053C1274.10272,152.38,1272.13269,152.4537,1269.92773,152.4537Zm.46094-3.63721c-1.36987,0-2.69879.048-3.95508.12994v-1.25812q1.66873-.06317,3.49414-.06567c2.14294,0,4.12787.07318,5.93036.19629-.00006.41577,0,.83417-.00006,1.25073C1274.18115,148.90823,1272.31012,148.81649,1270.38867,148.81649Zm-.46094-1.59424c-1.16418,0-2.33679.02521-3.49414.06964V112.07565c1.1438.04474,2.30981.07043,3.49414.07043,2.04535,0,4.03772-.06934,5.9328-.19769-.00073,11.16809-.00147,23.13031-.00238,35.4693C1273.9444,147.28841,1271.92059,147.22225,1269.92773,147.22225Zm0-35.27637c-1.18463,0-2.35065-.02576-3.49414-.07043v-3.88977c1.84784.06329,3.19171.06616,3.37891.06616.26929,0,2.92761-.006,6.04828-.18988-.00006,1.28015-.00018,2.58325-.00024,3.88593C1273.96631,111.87637,1271.97388,111.94589,1269.92773,111.94589Zm-.11523-4.894q-1.78592,0-3.37891-.053v-3.82971c1.12805-.0434,2.28607-.07239,3.49414-.07239,2.10278,0,4.08331.073,5.93329.19879q-.00009,1.77264-.00024,3.57776C1274.07135,106.98361,1272.05963,107.05184,1269.8125,107.05184Zm-7.416-9.63867c.01563-.12451.34277-3.063-1.58594-4.21582-4.8125-2.85449-7.80176-8.48877-7.80176-14.70361a17.84016,17.84016,0,0,1,9.85614-15.89783c1.3266.66412,2.51916,1.51184,2.56867,1.83923v37.77838a68.8814,68.8814,0,0,0-8.25885.88837C1259.66736,101.57223,1262.4,99.70821,1262.39648,97.41317Zm-7.23834,7.13849-.08252-.02106a59.50331,59.50331,0,0,1,10.358-1.32263v3.75159c-7.10541-.29987-11.08783-1.278-11.375-1.8125C1254.14429,104.96145,1254.52667,104.7568,1255.15814,104.55166Zm4.94147,45.76874a25.68343,25.68343,0,0,1,5.334-.89941v2.92334c-1.66315-.08166-3.14038-.207-4.44244-.35822,0,0-1.73315-.21863-1.87787-1.08319l-.26929-2.51678a60.53817,60.53817,0,0,1,6.5896-.652v1.28552a26.192,26.192,0,0,0-5.459.92084Zm-1.299-2.33887-3.99463-37.33038a59.77723,59.77723,0,0,0,10.62756,1.3822v35.30023A62.36248,62.36248,0,0,0,1258.80066,147.98153Zm-.36847,3.63611c-2.66559-.4715-4.08527-1.04651-4.13825-1.4574l-.02258-.40692a9.50623,9.50623,0,0,1,3.58844-1.1922l.25641,2.395A1.1727,1.1727,0,0,0,1258.43219,151.61764Zm-3.64862-41.17645-.43494-4.06427c2.33527,1.00983,7.38293,1.41113,11.085,1.57007v3.88611A59.23678,59.23678,0,0,1,1254.78357,110.44119Zm-3.46814-1.59589c-1.07031-.60645-1.59082-1.105-1.59082-1.52393,0-.75958,1.20483-1.55151,3.34546-2.24225-.00049.01135-.00562.02185-.00562.03326a.86516.86516,0,0,0,.19745.50562l.48712,4.54962a18.32694,18.32694,0,0,1-1.85364-.627A1.37124,1.37124,0,0,0,1251.31543,108.8453Zm.79,1.82715a3.26084,3.26084,0,0,0-.1236-.88489c.53308.20941,1.132.40729,1.79.59314l4.04468,37.77673a10.91577,10.91577,0,0,0-3.56921,1.162Zm18.07227,237.04443c-22.57617,0-39.60156-3.25244-39.60254-7.55371a1.17173,1.17173,0,0,1,.39472-.46466c.80743.89026,3.47058,2.098,12.29865,3.02374,7.10156.74463,16.6582,1.15527,26.90918,1.15527,6.11975,0,34.83527-.21405,39.03528-4.1106a2.81452,2.81452,0,0,1,.56433.45776C1309.58594,344.50155,1292.626,347.71688,1270.17773,347.71688Zm36.04395-9.73242c.753.428,1.552.88257,2.20642,1.28046-2.21961,1.82062-16.41821,3.61261-38.25037,3.61261-22.43738,0-36.81671-1.89282-38.41132-3.764.91785-.61139,2.20984-1.34766,3.35272-1.99622,4.58044-2.59991,10.72168-6.092,11.59155-10.17139,4.13324,2.26563,22.58618,2.29688,23.467,2.29688.88055,0,19.32062-.03125,23.46271-2.29443C1294.56476,331.354,1301.51178,335.30734,1306.22168,337.98446ZM1246.916,325.97469c.876-.95459,9.42383-2.28223,23.26172-2.28223s22.38574,1.32764,23.26172,2.28223c-.89062.94922-9.44629,2.26807-23.26172,2.26807S1247.80664,326.92391,1246.916,325.97469Zm47.65234-157.2915c0,7.44971-.3584,58.23779-.64551,99.04688-.19391,27.50879-.36359,51.53735-.38837,57.21-4.35168-2.21771-22.48395-2.24756-23.35675-2.24756s-19.00507.02985-23.35675,2.24756c-.02478-5.67261-.19446-29.70117-.38837-57.21-.28711-40.80908-.64551-91.59717-.64551-99.04688a24.53117,24.53117,0,0,1,7.6084-18.09308c.81525,1.71442,6.81561,2.47839,12.03809,2.74487V317.39217h.02722c.27411,1.5238,3.03137,2.34375,5.63879,2.34375,2.65033,0,5.45239-.84808,5.64716-2.42041h.096s.00916-87.80231.01465-164.13892c4.5213-.363,8.93817-1.13226,9.60584-2.57788A23.51257,23.51257,0,0,1,1294.56836,168.68319Zm-8.01636-63.52747c.00085-.01483.00855-.02838.00855-.04333a.76588.76588,0,0,0-.02692-.10852c2.2923.70831,3.59821,1.52972,3.59821,2.3175,0,.41748-.57031.86572-1.56055,1.50244a1.68364,1.68364,0,0,0-.59772.69861,17.96528,17.96528,0,0,1-1.8573.63934l.44232-5.00543Zm1.31976,4.62384a2.66784,2.66784,0,0,0-.12372.81329l-2.13959,38.72675a9.32214,9.32214,0,0,0-2.86291-1.01221l3.35181-37.93127Q1287.076,110.09661,1287.87177,109.77956Zm-2.30847-4.71106-.00079-.00006-.0011.01245c-.27466.51752-3.29834,1.32294-8.70117,1.72479q0-1.73419.00018-3.43817c2.22089.17981,4.22662.44,5.965.7569C1284.45477,104.443,1285.41119,104.78664,1285.56329,105.06851Zm71.11542-72.93219a45.33054,45.33054,0,0,1-5.95312,1.377,4.57426,4.57426,0,0,1-1.667-.55225,4.86805,4.86805,0,0,0-1.90527-.6001,5.18327,5.18327,0,0,0-1.752.44482,5.87043,5.87043,0,0,1-2.01172.49609l-20.2041-.019c-6.73731,0-10.37207,3.70117-10.37207,7.18359,0,3.12744,1.6543,3.76465,2.17773,3.88818a10.91294,10.91294,0,0,1,.70313,17.05225c-2.543,2.19971-2.75586,4.2417-2.76562,4.37256,0,11.28418-8.65625,17.18848-17.23437,17.189-.30859.0166-7.56348.43359-9.11719,3.43994a19.78778,19.78778,0,0,1-5.9209,6.81641,5.713,5.713,0,0,0-2.56641,4.12891c-.18347,1.99091,1.79126,3.949,3.83893,5.62085-1.584-.25488-3.29517-.45477-5.06836-.59937.00067-14.81891.001-27.84894.00091-37.93164.06256-.31311,1.21088-.99554,2.48554-1.49719a13.4443,13.4443,0,0,1,7.35821,7.74866c1.27246,3.47852,6.51074,3.34961,6.71094,3.34375,9.35645,0,10.084-6.39551,10.083-8.332a6.22207,6.22207,0,0,0-2.33008-4.51953,10.93111,10.93111,0,0,1,.5625-16.56592c.0791-.05566,1.94141-1.37842,1.94141-3.06006,0-11.29687,8.65625-17.20752,17.208-17.20752h22.29688a6.88178,6.88178,0,0,1,2.14258.50049,5.989,5.989,0,0,0,1.833.44043,4.86805,4.86805,0,0,0,1.90527-.6001,4.57426,4.57426,0,0,1,1.667-.55225,45.33054,45.33054,0,0,1,5.95313,1.377Z"
          transform="translate(-1229.05762 -23.14217)"/></g>
</svg>