<?xml version="1.0" standalone="no"?><!DOCTYPE svg PUBLIC "-//W3C//DTD SVG 1.1//EN" "http://www.w3.org/Graphics/SVG/1.1/DTD/svg11.dtd"><svg t="1512611043510" class="icon" style="" viewBox="0 0 1024 1024" version="1.1" xmlns="http://www.w3.org/2000/svg" p-id="1889" xmlns:xlink="http://www.w3.org/1999/xlink" width="20" height="20">
    <defs>
        <style type="text/css"></style>
    </defs>
    <path d="M77.7605 77.782v869.129216h869.129216V77.782016H77.760512zM355.8861 912.1464H112.529408V668.7938559999999h243.356672V912.1464319999999zM355.8861 634.025H112.529408V390.66931200000005h243.356672V634.02496zM355.8861 355.9076H112.529408V112.54784h243.356672V355.90758400000004zM634.0065 912.1464H390.64780800000005V668.7938559999999h243.359744V912.1464319999999zM634.0065 634.025H390.64780800000005V390.66931200000005h243.359744V634.02496zM634.0065 355.9076H390.64780800000005V112.54784h243.359744V355.90758400000004zM912.1249 912.1464H668.772352V668.7938559999999h243.352576V912.1464319999999zM912.1249 634.025H668.772352V390.66931200000005h243.352576V634.02496zM912.1249 355.9076H668.772352V112.54784h243.352576V355.90758400000004z" p-id="1890" fill="#4C4C4C"></path>
</svg>