<?xml version="1.0" encoding="utf-8"?>
<!-- Generator: Adobe Illustrator 16.0.0, SVG Export Plug-In . SVG Version: 6.00 Build 0)  -->
<!DOCTYPE svg PUBLIC "-//W3C//DTD SVG 1.1//EN" "http://www.w3.org/Graphics/SVG/1.1/DTD/svg11.dtd">
<svg version="1.1" id="图层_1" xmlns="http://www.w3.org/2000/svg" xmlns:xlink="http://www.w3.org/1999/xlink" x="0px" y="0px" width="20" height="20"   viewBox="180 180 40 40" enable-background="new 180 180 40 40" xml:space="preserve">
<g>
	<path fill="#4C4C4C" d="M191.935,198.541h16.144v-10.823c0-0.769,0.038-1.24,0.12-1.417c0.086-0.177,0.33-0.266,0.736-0.272
		c0.414-0.005,0.657,0.071,0.748,0.233c0.096,0.162,0.141,0.646,0.141,1.459v24.197c0,0.943-0.045,1.518-0.127,1.711
		c-0.078,0.191-0.317,0.309-0.705,0.329c-0.389,0.03-0.635-0.074-0.748-0.31c-0.108-0.236-0.163-0.842-0.163-1.813v-11.675h-16.146
		v11.896c0,0.863-0.051,1.396-0.148,1.606c-0.098,0.21-0.342,0.323-0.737,0.348c-0.391,0.019-0.632-0.075-0.722-0.296
		c-0.092-0.212-0.137-0.766-0.137-1.658V188.14c0-1.093,0.045-1.714,0.137-1.873c0.088-0.155,0.323-0.239,0.703-0.253
		c0.375-0.011,0.623,0.071,0.733,0.255c0.11,0.181,0.171,0.826,0.171,1.933V198.541L191.935,198.541z"/>
</g>
</svg>
