<?xml version="1.0" encoding="utf-8"?>
<!-- Generator: Adobe Illustrator 16.0.0, SVG Export Plug-In . SVG Version: 6.00 Build 0)  -->
<!DOCTYPE svg PUBLIC "-//W3C//DTD SVG 1.1//EN" "http://www.w3.org/Graphics/SVG/1.1/DTD/svg11.dtd">
<svg version="1.1" id="图层_1" xmlns="http://www.w3.org/2000/svg" xmlns:xlink="http://www.w3.org/1999/xlink" x="0px" y="0px"
	 width="40px" height="40px" viewBox="0 0 40 40" enable-background="new 0 0 40 40" xml:space="preserve">
<g>
	<polygon fill="#4C4C4C" points="31.5,8.5 29.496,9.951 30.023,10.479 	"/>
	<polygon fill="#4C4C4C" points="9.706,25.123 8.5,25.98 14.073,31.5 14.915,30.311 	"/>
	<polygon fill="#4C4C4C" points="12.791,22.82 11.584,23.678 16.354,28.424 17.212,27.218 	"/>
	<polygon fill="#4C4C4C" points="18.645,25.329 19.518,24.141 15.85,20.514 14.671,21.375 	"/>
	<polygon fill="#4C4C4C" points="20.95,22.251 21.85,21.085 18.896,18.172 17.744,19.061 	"/>
	<polygon fill="#4C4C4C" points="21.865,15.725 20.697,16.626 23.393,19.289 24.275,18.129 	"/>
	<polygon fill="#4C4C4C" points="24.913,13.387 23.747,14.285 25.721,16.236 26.607,15.076 	"/>
	<polygon fill="#4C4C4C" points="27.969,11.057 26.79,11.945 28.048,13.186 28.93,12.012 	"/>
</g>
</svg>
