<?xml version="1.0" encoding="utf-8"?>
<!-- Generator: Adobe Illustrator 16.0.0, SVG Export Plug-In . SVG Version: 6.00 Build 0)  -->
<!DOCTYPE svg PUBLIC "-//W3C//DTD SVG 1.1//EN" "http://www.w3.org/Graphics/SVG/1.1/DTD/svg11.dtd">
<svg version="1.1" id="图层_1" xmlns="http://www.w3.org/2000/svg" xmlns:xlink="http://www.w3.org/1999/xlink" x="0px" y="0px"
	 width="40px" height="40px" viewBox="0 0 40 40" enable-background="new 0 0 40 40" xml:space="preserve">
<path display="none" fill="#6B6C6B" d="M878.457-66.628c2.071,2.085,2.071,5.414,0,7.471L287.543,531.786
	c-2.086,2.085-5.415,2.085-7.486,0L242.657,494.4c-2.071-2.086-2.071-5.415,0-7.443L833.6-104.014c2.086-2.086,5.415-2.086,7.458,0
	L878.457-66.628z"/>
<g>
	<path fill="#323333" d="M9.42,31.71c-0.034,0.03-0.085,0.034-0.115,0.001l-1.017-1.017c-0.032-0.031-0.03-0.082,0.002-0.116
		L8.88,29.99c0.033-0.033,0.084-0.035,0.113-0.003l1.019,1.017c0.031,0.034,0.031,0.082-0.003,0.116L9.42,31.71z"/>
	<path fill="#323333" d="M11.394,29.735c-0.031,0.034-0.083,0.035-0.116,0.004l-1.017-1.021c-0.033-0.029-0.03-0.082,0.003-0.115
		l0.588-0.588c0.034-0.032,0.085-0.035,0.116-0.001l1.018,1.018c0.033,0.032,0.031,0.084-0.002,0.114L11.394,29.735z"/>
	<path fill="#323333" d="M13.367,27.762c-0.032,0.034-0.085,0.035-0.116,0.004l-1.018-1.019c-0.031-0.03-0.029-0.082,0.003-0.114
		l0.589-0.588c0.031-0.034,0.083-0.035,0.114-0.005l1.018,1.02c0.033,0.032,0.031,0.083-0.001,0.116L13.367,27.762z"/>
	<path fill="#323333" d="M15.34,25.791c-0.033,0.033-0.085,0.037-0.117,0.002l-1.018-1.017c-0.033-0.031-0.029-0.083,0.002-0.116
		l0.591-0.59c0.031-0.029,0.084-0.032,0.113-0.003l1.018,1.02c0.031,0.032,0.03,0.082-0.003,0.115L15.34,25.791z"/>
	<path fill="#323333" d="M19.286,21.846c-0.032,0.033-0.083,0.033-0.115,0.002l-1.02-1.019c-0.031-0.03-0.029-0.082,0.004-0.115
		l0.589-0.589c0.032-0.032,0.082-0.032,0.114-0.001l1.018,1.017c0.032,0.033,0.031,0.084-0.003,0.115L19.286,21.846z"/>
	<path fill="#323333" d="M17.313,23.818c-0.032,0.033-0.083,0.033-0.115,0.002l-1.02-1.018c-0.031-0.031-0.029-0.082,0.004-0.115
		l0.589-0.59c0.032-0.031,0.082-0.032,0.114-0.001l1.018,1.018c0.032,0.032,0.031,0.083-0.003,0.114L17.313,23.818z"/>
	<path fill="#323333" d="M23.231,17.9c-0.033,0.033-0.084,0.031-0.118,0.001l-1.017-1.016c-0.03-0.033-0.028-0.083,0.003-0.117
		l0.589-0.587c0.034-0.033,0.083-0.035,0.115-0.003l1.017,1.017c0.033,0.032,0.031,0.084-0.002,0.118L23.231,17.9z"/>
	<path fill="#323333" d="M21.258,19.873c-0.032,0.033-0.083,0.031-0.117,0.001l-1.017-1.015c-0.03-0.033-0.029-0.083,0.003-0.117
		l0.588-0.587c0.035-0.033,0.084-0.035,0.116-0.003l1.017,1.017c0.033,0.032,0.031,0.084-0.002,0.117L21.258,19.873z"/>
	<path fill="#323333" d="M27.175,13.957c-0.032,0.032-0.084,0.033-0.115,0l-1.018-1.017c-0.032-0.031-0.032-0.082,0.002-0.114
		l0.59-0.591c0.032-0.031,0.085-0.033,0.114-0.002l1.018,1.017c0.031,0.032,0.03,0.082-0.004,0.114L27.175,13.957z"/>
	<path fill="#323333" d="M25.202,15.929c-0.032,0.032-0.085,0.033-0.115,0l-1.018-1.017c-0.032-0.031-0.032-0.082,0.002-0.114
		l0.59-0.591c0.032-0.031,0.084-0.033,0.114-0.002l1.017,1.017c0.032,0.032,0.031,0.082-0.003,0.114L25.202,15.929z"/>
	<path fill="#323333" d="M29.148,11.983c-0.032,0.031-0.085,0.034-0.116,0.001l-1.018-1.017c-0.03-0.032-0.03-0.084,0.003-0.114
		l0.588-0.59c0.032-0.032,0.084-0.032,0.116-0.001l1.018,1.017c0.031,0.031,0.03,0.085-0.003,0.115L29.148,11.983z"/>
	<path fill="#323333" d="M31.122,10.009c-0.031,0.031-0.085,0.032-0.119,0.001l-1.014-1.017c-0.033-0.032-0.031-0.082,0.002-0.115
		l0.589-0.588c0.031-0.034,0.084-0.033,0.114-0.003l1.017,1.017c0.031,0.032,0.032,0.083,0,0.116L31.122,10.009z"/>
</g>
</svg>
