<?xml version="1.0" encoding="utf-8"?>
<!-- Generator: Adobe Illustrator 16.0.0, SVG Export Plug-In . SVG Version: 6.00 Build 0)  -->
<!DOCTYPE svg PUBLIC "-//W3C//DTD SVG 1.1//EN" "http://www.w3.org/Graphics/SVG/1.1/DTD/svg11.dtd">
<svg version="1.1" id="图层_1" xmlns="http://www.w3.org/2000/svg" xmlns:xlink="http://www.w3.org/1999/xlink" x="0px" y="0px"
	 width="40px" height="40px" viewBox="180 180 40 40" enable-background="new 180 180 40 40" xml:space="preserve">
<g>
	<g>
		<path fill="#4C4C4C" d="M209.924,195.139c0.555,0,1.001,0.449,1.001,1.002c0,0.554-0.446,1.001-1.001,1.001
			s-0.999-0.447-0.999-1.001C208.925,195.588,209.369,195.139,209.924,195.139z"/>
		<path fill="#4C4C4C" d="M212.693,192.5h-6.612c0,0-2.351-3-2.411-3h-7.125c-0.003,0-0.003,0-0.003,0c-0.069,0-2.417,3-2.417,3
			h-7.391c-0.563,0-0.734,0.207-0.734,0.768v15.782c0,0.562,0.171,1.45,0.734,1.45h25.961c0.561,0,1.305-0.891,1.305-1.45v-15.782
			C214,192.705,213.252,192.5,212.693,192.5z M213,209.05c-0.027,0.097-0.245,0.365-0.385,0.45h-25.564
			c-0.028-0.118-0.051-0.279-0.051-0.45v-15.546l7.612-0.004l0.3-0.384c0.785-1.002,1.656-2.102,2.08-2.616h6.224
			c0.425,0.518,1.293,1.614,2.078,2.617l0.3,0.383h7.102c0.119,0,0.306,0.016,0.306,0.035L213,209.05L213,209.05z"/>
		<rect x="190" y="190.5" fill="#4C4C4C" width="3" height="1"/>
	</g>
	<path fill="#4C4C4C" d="M199.856,195.608c-3.298,0-5.972,2.672-5.972,5.971c0,3.3,2.674,5.97,5.972,5.97c3.3,0,5.97-2.67,5.97-5.97
		C205.822,198.28,203.156,195.608,199.856,195.608z M199.856,206.549c-2.741,0-4.972-2.229-4.972-4.97s2.23-4.971,4.972-4.971
		c2.737,0,4.967,2.23,4.97,4.972C204.826,204.318,202.598,206.549,199.856,206.549z"/>
</g>
</svg>
