<?xml version="1.0" encoding="utf-8"?>
<!DOCTYPE svg PUBLIC "-//W3C//DTD SVG 1.1//EN" "http://www.w3.org/Graphics/SVG/1.1/DTD/svg11.dtd">
<svg width="23" height="23" viewBox="0 0 23 23" version="1.1" xmlns="http://www.w3.org/2000/svg" xmlns:xlink="http://www.w3.org/1999/xlink">
    <g class="transform-group">
        <g transform="scale(0.0224609375, 0.0224609375)">
            <path d="M941.482667 184.567467 774.4 184.567467c-8.0384-3.054933-29.653333-29.815467-45.4912-49.425067-33.4592-41.429333-68.0704-84.266667-97.8176-84.266667L387.822933 50.875733c-27.400533 0-58.376533 33.220267-102.493867 83.908267-17.271467 19.84-40.849067 46.916267-49.134933 49.783467L85.828267 184.567467c-44.066133 0-79.906133 35.848533-79.906133 79.914667l0 654.318933c0 44.066133 35.848533 79.906133 79.906133 79.906133L941.482667 998.7072c44.066133 0 79.906133-35.848533 79.906133-79.906133L1021.3888 264.490667C1021.3888 220.424533 985.540267 184.567467 941.482667 184.567467zM995.7888 918.801067c0 29.943467-24.362667 54.306133-54.306133 54.306133L85.828267 973.1072c-29.943467 0-54.306133-24.362667-54.306133-54.306133L31.522133 264.490667c0-29.952 24.362667-54.314667 54.306133-54.314667l150.997333 0c16.1024 0 33.365333-19.0208 67.805867-58.581333 26.0352-29.909333 65.3824-75.1104 83.182933-75.1104l243.2768 0c17.518933 0 53.8624 44.987733 77.9008 74.752 32.1536 39.808 48.3328 58.939733 64.708267 58.939733l167.773867 0c29.943467 0 54.306133 24.362667 54.306133 54.314667L995.780267 918.801067zM513.655467 352.341333c-118.0672 0-214.126933 96.059733-214.126933 214.135467 0 118.0672 96.0512 214.126933 214.126933 214.126933 68.736 0 133.76-33.3568 173.943467-89.216 4.130133-5.7344 2.824533-13.738667-2.9184-17.8688-5.742933-4.130133-13.738667-2.816-17.8688 2.9184-35.387733 49.194667-92.637867 78.5664-153.156267 78.5664-103.953067 0-188.526933-84.573867-188.526933-188.526933 0-103.9616 84.573867-188.535467 188.526933-188.535467s188.526933 84.5824 188.526933 188.535467c0 7.074133 5.725867 12.8 12.8 12.8s12.8-5.725867 12.8-12.8C727.7824 448.401067 631.722667 352.341333 513.655467 352.341333z"
            fill="#4C4C4C"></path>
        </g>
    </g>
</svg>