<?xml version="1.0" encoding="UTF-8"?>
<svg width="28px" height="28px" viewBox="0 0 28 28" version="1.1" xmlns="http://www.w3.org/2000/svg" xmlns:xlink="http://www.w3.org/1999/xlink">
    <!-- Generator: Sketch 50 (54983) - http://www.bohemiancoding.com/sketch -->
    <title>图像识别</title>
    <desc>Created with Sketch.</desc>
    <defs></defs>
    <g id="Page-1" stroke="none" stroke-width="1" fill="none" fill-rule="evenodd">
        <g id="图像识别" transform="translate(-67.000000, -605.000000)">
            <g transform="translate(67.000000, 605.000000)">
                <path d="M1,17.4433757 L0.452973656,16.5518518 L1,16.8297899 L1,17.4433757 Z M1,16.8297899 L1,6.90747729 L9.62435565,1.92820323 L18.2487113,6.90747729 L18.2487113,11 L19.2487113,11 L19.2487113,6.33012702 L9.62435565,0.773502692 L0,6.33012702 L0,17.4433757 L7,21 L7.45297366,20.1084761 L1,16.8297899 Z M1,6.90747729 L0.5,7.19615242 L1,6.33012702 L1,6.90747729 Z M10.1243557,1.6395281 L9.12435565,1.6395281 L9.62435565,1.92820323 L10.1243557,1.6395281 Z M18.7487113,7.19615242 L18.2487113,6.33012702 L18.2487113,6.90747729 L18.7487113,7.19615242 Z M18.2487113,6.33012702 L18.7487113,7.19615242 L18.2487113,6.90747729 L18.2487113,6.33012702 Z M18.2487113,11 L19.2487113,11 L19.2487113,6.33012702 L9.62435565,0.773502692 L0,6.33012702 L0,17.4433757 L7,21 L7.45297366,20.1084761 L1,16.8297899 L1,6.90747729 L9.62435565,1.92820323 L18.2487113,6.90747729 L18.2487113,11 Z M10.1243557,1.6395281 L9.12435565,1.6395281 L9.62435565,1.92820323 L10.1243557,1.6395281 Z M1,6.90747729 L1,6.33012702 L0.5,7.19615242 L1,6.90747729 Z M0.452973656,16.5518518 L1,17.4433757 L1,16.8297899 L0.452973656,16.5518518 Z" id="Polygon-5" fill="#000000" fill-rule="nonzero"></path>
                <path d="M22.0634533,20.9073622 L11,8" id="Line-2" stroke="#000000" stroke-linecap="square"></path>
                <path d="M24.0634533,20.9073622 L13,8" id="Line-2-Copy" stroke="#000000" stroke-linecap="square" transform="translate(18.531727, 14.453681) scale(-1, 1) translate(-18.531727, -14.453681) "></path>
                <path d="M11,27.5 C9.06700338,27.5 7.5,25.9329966 7.5,24 C7.5,22.0670034 9.06700338,20.5 11,20.5 C12.9329966,20.5 14.5,22.0670034 14.5,24 C14.5,25.9329966 12.9329966,27.5 11,27.5 Z M11,26.5 C12.3807119,26.5 13.5,25.3807119 13.5,24 C13.5,22.6192881 12.3807119,21.5 11,21.5 C9.61928813,21.5 8.5,22.6192881 8.5,24 C8.5,25.3807119 9.61928813,26.5 11,26.5 Z" id="Oval-4-Copy-2" fill="#000000" fill-rule="nonzero"></path>
                <path d="M24,27.5 C22.0670034,27.5 20.5,25.9329966 20.5,24 C20.5,22.0670034 22.0670034,20.5 24,20.5 C25.9329966,20.5 27.5,22.0670034 27.5,24 C27.5,25.9329966 25.9329966,27.5 24,27.5 Z M24,26.5 C25.3807119,26.5 26.5,25.3807119 26.5,24 C26.5,22.6192881 25.3807119,21.5 24,21.5 C22.6192881,21.5 21.5,22.6192881 21.5,24 C21.5,25.3807119 22.6192881,26.5 24,26.5 Z" id="Oval-4-Copy-3" fill="#000000" fill-rule="nonzero" transform="translate(24.000000, 24.000000) scale(-1, 1) translate(-24.000000, -24.000000) "></path>
            </g>
        </g>
    </g>
</svg>