<?xml version="1.0" encoding="UTF-8"?>
<svg width="28px" height="28px" viewBox="0 0 28 28" version="1.1" xmlns="http://www.w3.org/2000/svg" xmlns:xlink="http://www.w3.org/1999/xlink">
    <!-- Generator: Sketch 50 (54983) - http://www.bohemiancoding.com/sketch -->
    <title>图像识别</title>
    <desc>Created with Sketch.</desc>
    <defs></defs>
    <g id="Page-1" stroke="none" stroke-width="1" fill="none" fill-rule="evenodd">
        <g id="图像识别" transform="translate(-67.000000, -605.000000)" fill-rule="nonzero">
            <g transform="translate(67.000000, 605.000000)">
                <path d="M1,16.9483361 L1,17.5370144 L0.485285846,16.6626589 L1,16.9483361 Z M1,16.9483361 L1,6.42302174 L10.125,1.15470054 L19.25,6.42302174 L19.25,9.46816632 L20.25,9.46816632 L20.25,5.84567148 L10.125,0 L0,5.84567148 L0,17.5370144 L6.31211088,21.0403696 L6.79739672,20.166014 L1,16.9483361 Z M1,6.42302174 L0.5,6.71169688 L1,5.84567148 L1,6.42302174 Z M10.625,0.866025404 L9.625,0.866025404 L10.125,1.15470054 L10.625,0.866025404 Z M19.75,6.71169688 L19.25,5.84567148 L19.25,6.42302174 L19.75,6.71169688 Z M19.25,5.84567148 L19.75,6.71169688 L19.25,6.42302174 L19.25,5.84567148 Z M19.25,6.42302174 L19.25,9.46816632 L20.25,9.46816632 L20.25,5.84567148 L10.125,0 L0,5.84567148 L0,17.5370144 L6.31211088,21.0403696 L6.79739672,20.166014 L1,16.9483361 L1,6.42302174 L10.125,1.15470054 L19.25,6.42302174 Z M10.625,0.866025404 L9.625,0.866025404 L10.125,1.15470054 L10.625,0.866025404 Z M1,6.42302174 L1,5.84567148 L0.5,6.71169688 L1,6.42302174 Z" id="Polygon-5-Copy-5" fill="#333333"></path>
                <polygon id="Line-2-Copy-11" fill="#BCA755" points="23.82271 21.2565709 22.3041967 22.5581536 10.589952 8.89153477 12.1084652 7.58995202"></polygon>
                <polygon id="Line-2-Copy-10" fill="#BCA755" transform="translate(18.206331, 15.074053) scale(-1, 1) translate(-18.206331, -15.074053) " points="24.82271 21.2565709 23.3041967 22.5581536 11.589952 8.89153477 13.1084652 7.58995202"></polygon>
                <path d="M11,28 C8.790861,28 7,26.209139 7,24 C7,21.790861 8.790861,20 11,20 C13.209139,20 15,21.790861 15,24 C15,26.209139 13.209139,28 11,28 Z M11,26 C12.1045695,26 13,25.1045695 13,24 C13,22.8954305 12.1045695,22 11,22 C9.8954305,22 9,22.8954305 9,24 C9,25.1045695 9.8954305,26 11,26 Z" id="Oval-6" fill="#BCA755"></path>
                <path d="M24,28 C21.790861,28 20,26.209139 20,24 C20,21.790861 21.790861,20 24,20 C26.209139,20 28,21.790861 28,24 C28,26.209139 26.209139,28 24,28 Z M24,26 C25.1045695,26 26,25.1045695 26,24 C26,22.8954305 25.1045695,22 24,22 C22.8954305,22 22,22.8954305 22,24 C22,25.1045695 22.8954305,26 24,26 Z" id="Oval-6-Copy" fill="#BCA755"></path>
            </g>
        </g>
    </g>
</svg>