<?xml version="1.0" encoding="UTF-8"?>
<svg width="275px" height="275px" viewBox="0 0 275 275" version="1.1" xmlns="http://www.w3.org/2000/svg" xmlns:xlink="http://www.w3.org/1999/xlink">
    <!-- Generator: Sketch 50 (54983) - http://www.bohemiancoding.com/sketch -->
    <title>开机画面</title>
    <desc>Created with Sketch.</desc>
    <defs></defs>
    <g id="Page-1" stroke="none" stroke-width="1" fill="none" fill-rule="evenodd">
        <g id="开机画面" transform="translate(0.000000, -15.000000)">
            <path d="M5.26757823,287.506299 C4.74989985,287.778761 4.1005411,287.91499 3.31948249,287.91499 C2.31137196,287.91499 1.50610656,287.594852 0.903662128,286.954566 C0.301217697,286.314279 0,285.467388 0,284.413867 C0,283.281635 0.339059116,282.370414 1.01718752,281.680176 C1.69531593,280.989938 2.55658663,280.644824 3.60102546,280.644824 C4.27309915,280.644824 4.82861119,280.740185 5.26757823,280.930908 L5.26757823,281.879981 C4.76503665,281.601463 4.21255193,281.462207 3.6101075,281.462207 C2.82602153,281.462207 2.18725837,281.723313 1.69379886,282.245532 C1.20033935,282.767752 0.953613301,283.472359 0.953613301,284.359375 C0.953613301,285.200981 1.18368913,285.86926 1.64384769,286.364234 C2.10400625,286.859207 2.70644164,287.10669 3.45117195,287.10669 C4.1474645,287.10669 4.75292721,286.949269 5.26757823,286.634424 L5.26757823,287.506299 Z M8.97304706,287.746973 C8.77929609,287.85293 8.51743347,287.905908 8.18745134,287.905908 C7.28832573,287.905908 6.83876967,287.407915 6.83876967,286.411914 L6.83876967,283.510205 L5.97597669,283.510205 L5.97597669,282.774561 L6.83876967,282.774561 L6.83876967,281.56665 L7.72426774,281.285107 L7.72426774,282.774561 L8.97304706,282.774561 L8.97304706,283.510205 L7.72426774,283.510205 L7.72426774,286.252979 C7.72426774,286.582961 7.78027304,286.819091 7.89228532,286.961377 C8.0042976,287.103663 8.19047738,287.174805 8.45083025,287.174805 C8.65063594,287.174805 8.82470647,287.1188 8.97304706,287.006787 L8.97304706,287.746973 Z M12.719385,283.655518 C12.5710444,283.54956 12.3667008,283.496582 12.1063479,283.496582 C11.761229,283.496582 11.4766615,283.657787 11.2526369,283.9802 C11.0286124,284.302614 10.9166018,284.727195 10.9166018,285.253955 L10.9166018,287.796924 L10.0265627,287.796924 L10.0265627,282.774561 L10.9166018,282.774561 L10.9166018,283.796289 L10.9347658,283.796289 C11.189064,283.057614 11.6280245,282.688281 12.2516604,282.688281 C12.4544935,282.688281 12.6104001,282.710986 12.719385,282.756397 L12.719385,283.655518 Z M13.573096,287.796924 L13.573096,280.363281 L14.4631351,280.363281 L14.4631351,287.796924 L13.573096,287.796924 Z M23.7313481,287.506299 C23.2136698,287.778761 22.564311,287.91499 21.7832524,287.91499 C20.7751419,287.91499 19.9698765,287.594852 19.367432,286.954566 C18.7649876,286.314279 18.4637699,285.467388 18.4637699,284.413867 C18.4637699,283.281635 18.802829,282.370414 19.4809574,281.680176 C20.1590858,280.989938 21.0203565,280.644824 22.0647954,280.644824 C22.7368691,280.644824 23.2923811,280.740185 23.7313481,280.930908 L23.7313481,281.879981 C23.2288066,281.601463 22.6763218,281.462207 22.0738774,281.462207 C21.2897914,281.462207 20.6510283,281.723313 20.1575688,282.245532 C19.6641093,282.767752 19.4173832,283.472359 19.4173832,284.359375 C19.4173832,285.200981 19.647459,285.86926 20.1076176,286.364234 C20.5677762,286.859207 21.1702116,287.10669 21.9149419,287.10669 C22.6112344,287.10669 23.2166971,286.949269 23.7313481,286.634424 L23.7313481,287.506299 Z M32.5681647,285.085938 L28.308692,287.202051 L28.308692,286.420996 L31.478321,284.91792 L31.478321,284.886133 L28.308692,283.183252 L28.308692,282.397656 L32.5681647,284.74082 L32.5681647,285.085938 Z M42.3540536,287.506299 C41.8363752,287.778761 41.1870165,287.91499 40.4059579,287.91499 C39.3978473,287.91499 38.5925819,287.594852 37.9901375,286.954566 C37.3876931,286.314279 37.0864754,285.467388 37.0864754,284.413867 C37.0864754,283.281635 37.4255345,282.370414 38.1036629,281.680176 C38.7817913,280.989938 39.643062,280.644824 40.6875008,280.644824 C41.3595745,280.644824 41.9150866,280.740185 42.3540536,280.930908 L42.3540536,281.879981 C41.851512,281.601463 41.2990273,281.462207 40.6965829,281.462207 C39.9124969,281.462207 39.2737337,281.723313 38.7802742,282.245532 C38.2868147,282.767752 38.0400887,283.472359 38.0400887,284.359375 C38.0400887,285.200981 38.2701645,285.86926 38.7303231,286.364234 C39.1904816,286.859207 39.792917,287.10669 40.5376473,287.10669 C41.2339399,287.10669 41.8394026,286.949269 42.3540536,286.634424 L42.3540536,287.506299 Z M46.0595224,287.746973 C45.8657715,287.85293 45.6039088,287.905908 45.2739267,287.905908 C44.3748011,287.905908 43.925245,287.407915 43.925245,286.411914 L43.925245,283.510205 L43.0624521,283.510205 L43.0624521,282.774561 L43.925245,282.774561 L43.925245,281.56665 L44.8107431,281.285107 L44.8107431,282.774561 L46.0595224,282.774561 L46.0595224,283.510205 L44.8107431,283.510205 L44.8107431,286.252979 C44.8107431,286.582961 44.8667484,286.819091 44.9787607,286.961377 C45.090773,287.103663 45.2769528,287.174805 45.5373056,287.174805 C45.7371113,287.174805 45.9111818,287.1188 46.0595224,287.006787 L46.0595224,287.746973 Z M49.8058604,283.655518 C49.6575198,283.54956 49.4531761,283.496582 49.1928233,283.496582 C48.8477044,283.496582 48.5631369,283.657787 48.3391123,283.9802 C48.1150878,284.302614 48.0030772,284.727195 48.0030772,285.253955 L48.0030772,287.796924 L47.1130381,287.796924 L47.1130381,282.774561 L48.0030772,282.774561 L48.0030772,283.796289 L48.0212412,283.796289 C48.2755394,283.057614 48.7144998,282.688281 49.3381358,282.688281 C49.5409688,282.688281 49.6968755,282.710986 49.8058604,282.756397 L49.8058604,283.655518 Z M50.6595714,287.796924 L50.6595714,280.363281 L51.5496104,280.363281 L51.5496104,287.796924 L50.6595714,287.796924 Z M61.3037122,280.762891 L58.7198743,287.796924 L57.7117688,287.796924 L55.177882,280.762891 L56.1859875,280.762891 L58.079591,286.262061 C58.1431656,286.443702 58.1900889,286.654101 58.2203625,286.893262 L58.2430676,286.893262 C58.2672865,286.684374 58.3202645,286.470948 58.4020032,286.252979 L60.3319348,280.762891 L61.3037122,280.762891 Z M65.7539076,284.704492 L67.3341811,284.704492 L67.3341811,280.108984 L68.0607436,280.108984 L68.0607436,281.979883 L70.5128921,281.979883 L70.5128921,282.670117 L68.0607436,282.670117 L68.0607436,284.704492 L69.8862319,284.704492 L69.8862319,289.027539 L69.1959975,289.027539 L69.1959975,288.491699 L66.444142,288.491699 L66.444142,289.027539 L65.7539076,289.027539 L65.7539076,284.704492 Z M69.1959975,285.312988 L66.444142,285.312988 L66.444142,287.883203 L69.1959975,287.883203 L69.1959975,285.312988 Z M64.1191419,282.606543 C64.4763703,281.976852 64.773047,281.368362 65.009181,280.781055 L65.6540053,281.080762 C65.4057618,281.55303 65.0818393,282.167574 64.6822279,282.924414 L64.1191419,282.606543 Z M61.530763,281.044434 L62.0666028,280.799219 C62.2300802,281.126174 62.5055658,281.719527 62.8930677,282.579297 L62.2845716,282.888086 C61.9031244,281.919331 61.6518573,281.304786 61.530763,281.044434 Z M61.5216809,286.938672 C62.2421924,285.951753 62.7507811,284.98604 63.0474622,284.041504 L61.539845,284.041504 L61.539845,283.423926 L63.1927747,283.423926 L63.1927747,280.09082 L63.837599,280.09082 L63.837599,283.423926 L65.4723646,283.423926 L65.4723646,284.041504 L63.837599,284.041504 L63.837599,285.194922 L64.1645521,284.877051 C64.6489295,285.300881 65.0909173,285.700487 65.4905287,286.075879 L65.009181,286.529981 C64.4884753,285.997165 64.0979518,285.615724 63.837599,285.385645 L63.837599,289.000293 L63.1927747,289.000293 L63.1927747,285.131348 C62.8416011,286.081938 62.3784221,286.926559 61.8032239,287.665235 C61.7245126,287.416991 61.6306659,287.174806 61.5216809,286.938672 Z M75.389943,284.722656 L76.8067399,284.722656 L76.8067399,280.063574 L77.5423844,280.063574 L77.5423844,281.988965 L79.8583024,281.988965 L79.8583024,282.679199 L77.5423844,282.679199 L77.5423844,284.722656 L79.3678727,284.722656 L79.3678727,289.054785 L78.6776383,289.054785 L78.6776383,288.528028 L76.0801773,288.528028 L76.0801773,289.054785 L75.389943,289.054785 L75.389943,284.722656 Z M71.3121108,280.53584 L74.7996109,280.53584 L74.7996109,286.230274 L74.1457046,286.230274 L74.1457046,281.198828 L71.9660171,281.198828 L71.9660171,286.284766 L71.3121108,286.284766 L71.3121108,280.53584 Z M78.6776383,285.340234 L76.0801773,285.340234 L76.0801773,287.910449 L78.6776383,287.910449 L78.6776383,285.340234 Z M72.7289077,281.952637 L73.382814,281.952637 L73.382814,283.887109 C73.382814,285.073834 73.3071312,285.985056 73.1557632,286.620801 L73.4917984,286.321094 C74.0730513,286.950785 74.6149404,287.547165 75.117482,288.110254 L74.5089859,288.600684 C74.0609368,288.013376 73.5856486,287.438187 73.083107,286.875098 C72.8772466,287.565336 72.3081116,288.264645 71.3756851,288.973047 C71.2303718,288.779296 71.0608423,288.579493 70.8670913,288.373633 C71.6360405,287.871091 72.1416018,287.335257 72.3837905,286.766113 C72.6138698,286.287791 72.7289077,285.415924 72.7289077,284.150488 L72.7289077,281.952637 Z M84.1359392,281.807324 C84.6203167,282.521781 85.0744137,283.2665 85.4982439,284.041504 C85.2681647,284.150489 85.0350615,284.271581 84.7989275,284.404785 C84.69297,284.180761 84.5839867,283.959767 84.4719744,283.741797 C83.1671827,283.868946 81.9290114,283.993066 80.7574235,284.11416 L80.4304704,283.360352 C80.781644,283.172655 81.0843754,282.872951 81.3386735,282.461231 C81.5717802,282.110057 81.8003424,281.716506 82.0243669,281.280566 L80.3305681,281.280566 L80.3305681,280.608496 L85.5436541,280.608496 L85.5436541,281.280566 L82.8826189,281.280566 C82.4315424,282.046488 81.9744181,282.74277 81.5112321,283.369434 C82.3740294,283.305859 83.2519504,283.227149 84.1450213,283.133301 C83.9452156,282.785155 83.7363309,282.446095 83.5183611,282.116113 L84.1359392,281.807324 Z M80.3941423,285.27666 L82.5284197,285.27666 L82.5284197,284.150488 L83.2549822,284.150488 L83.2549822,285.27666 L85.3347674,285.27666 L85.3347674,285.948731 L83.2549822,285.948731 L83.2549822,287.547168 C83.9694389,287.456347 84.7050761,287.359473 85.4619158,287.256543 C85.4619158,287.468458 85.4740251,287.704589 85.4982439,287.964942 C83.7847588,288.176857 82.0622174,288.40996 80.3305681,288.664258 L80.1216813,287.901367 C80.8936579,287.822656 81.695896,287.73335 82.5284197,287.633447 L82.5284197,285.948731 L80.3941423,285.948731 L80.3941423,285.27666 Z M88.0048846,280.063574 L88.7586932,280.063574 L88.7586932,287.746973 C88.7586932,288.503813 88.3923883,288.882227 87.6597674,288.882227 C87.411524,288.882227 86.9695362,288.879199 86.3337908,288.873145 C86.2974625,288.624901 86.2520528,288.352443 86.1975604,288.055762 C86.7303755,288.1042 87.1420902,288.128418 87.4327166,288.128418 C87.8141639,288.134473 88.0048846,287.937697 88.0048846,287.538086 L88.0048846,280.063574 Z M86.0340838,281.044434 L86.7697283,281.044434 L86.7697283,286.829688 L86.0340838,286.829688 L86.0340838,281.044434 Z M98.6308614,280.762891 L96.6600606,287.796924 L95.6020039,287.796924 L94.185207,282.72915 C94.1216325,282.499071 94.0837911,282.256886 94.0716816,282.002588 L94.0535176,282.002588 C94.0353534,282.253859 93.992971,282.493016 93.9263691,282.720068 L92.4959492,287.796924 L91.4469745,287.796924 L89.4080585,280.762891 L90.4116229,280.762891 L91.8465839,286.075879 C91.9101585,286.31504 91.9479999,286.555712 91.9601093,286.797901 L91.9873554,286.797901 C92.0024922,286.616259 92.0524429,286.375588 92.1372089,286.075879 L93.6584492,280.762891 L94.5530293,280.762891 L96.0061543,286.116748 C96.0545921,286.292335 96.0939471,286.516356 96.1242207,286.788818 L96.1423848,286.788818 C96.1575216,286.59204 96.2014176,286.361964 96.2740742,286.098584 L97.654543,280.762891 L98.6308614,280.762891 Z M98.9668966,285.340234 C98.9668966,284.510738 99.198486,283.856082 99.661672,283.376245 C100.124858,282.896409 100.753025,282.656494 101.546193,282.656494 C102.300006,282.656494 102.891089,282.887327 103.31946,283.348999 C103.747831,283.810671 103.962014,284.448678 103.962014,285.263037 C103.962014,286.056205 103.733452,286.696482 103.27632,287.183887 C102.819189,287.671292 102.206158,287.91499 101.437209,287.91499 C100.686424,287.91499 100.087016,287.67886 99.6389669,287.206592 C99.1909178,286.734324 98.9668966,286.112211 98.9668966,285.340234 Z M99.8750997,285.312988 C99.8750997,285.891214 100.021168,286.346825 100.313308,286.679834 C100.605448,287.012844 100.998242,287.179346 101.491701,287.179346 C102.000298,287.179346 102.387794,287.016628 102.654201,286.691187 C102.920609,286.365746 103.053811,285.898782 103.053811,285.290283 C103.053811,284.678757 102.920609,284.209523 102.654201,283.882568 C102.387794,283.555614 102.000298,283.392139 101.491701,283.392139 C100.992187,283.392139 100.597879,283.563182 100.308767,283.905274 C100.019654,284.247365 99.8750997,284.716599 99.8750997,285.312988 Z M107.908157,283.655518 C107.759816,283.54956 107.555472,283.496582 107.295119,283.496582 C106.95,283.496582 106.665433,283.657787 106.441408,283.9802 C106.217384,284.302614 106.105373,284.727195 106.105373,285.253955 L106.105373,287.796924 L105.215334,287.796924 L105.215334,282.774561 L106.105373,282.774561 L106.105373,283.796289 L106.123537,283.796289 C106.377835,283.057614 106.816796,282.688281 107.440432,282.688281 C107.643265,282.688281 107.799172,282.710986 107.908157,282.756397 L107.908157,283.655518 Z M112.994094,287.796924 L112.104055,287.796924 L112.104055,286.961377 L112.085891,286.961377 C111.719581,287.597122 111.150446,287.91499 110.378469,287.91499 C109.742724,287.91499 109.237162,287.688699 108.86177,287.236109 C108.486377,286.783518 108.298684,286.172758 108.298684,285.403809 C108.298684,284.574312 108.510596,283.90906 108.934426,283.408032 C109.358256,282.907004 109.912255,282.656494 110.596438,282.656494 C111.280621,282.656494 111.7771,282.922898 112.085891,283.455713 L112.104055,283.455713 L112.104055,280.363281 L112.994094,280.363281 L112.994094,287.796924 Z M112.108596,284.808936 C112.108596,284.406297 111.976151,284.069508 111.711257,283.79856 C111.446363,283.527611 111.12017,283.392139 110.732668,283.392139 C110.2604,283.392139 109.888041,283.56848 109.615578,283.921167 C109.343116,284.273854 109.206887,284.75444 109.206887,285.36294 C109.206887,285.923001 109.337818,286.365746 109.599685,286.691187 C109.861551,287.016628 110.210449,287.179346 110.646389,287.179346 C111.076274,287.179346 111.427442,287.019655 111.699905,286.700269 C111.972367,286.380882 112.108596,285.983547 112.108596,285.508252 L112.108596,284.808936 Z M116.531545,284.913379 L122.05342,284.913379 L122.05342,289.000293 L121.326858,289.000293 L121.326858,288.382715 L117.258108,288.382715 L117.258108,289.000293 L116.531545,289.000293 L116.531545,284.913379 Z M115.695998,283.451172 C115.695998,285.116219 115.611234,286.239353 115.441702,286.820606 C115.272169,287.486625 114.911919,288.222262 114.36094,289.027539 C114.221681,288.821679 114.055179,288.609767 113.861428,288.391797 C114.291313,287.780271 114.581935,287.165726 114.733303,286.548145 C114.884671,285.954782 114.960354,285.082916 114.960354,283.93252 L114.960354,280.871875 C117.61232,280.787109 119.949406,280.60547 121.971682,280.326953 L122.40762,281.080762 C119.900966,281.33506 117.663782,281.498535 115.695998,281.571191 L115.695998,282.77002 L122.888967,282.77002 L122.888967,283.451172 L115.695998,283.451172 Z M121.326858,285.576367 L117.258108,285.576367 L117.258108,287.737891 L121.326858,287.737891 L121.326858,285.576367 Z M123.606448,281.571191 L124.523733,281.571191 C124.747758,281.020212 124.932424,280.517678 125.077737,280.063574 L125.840628,280.281543 C125.649904,280.744729 125.465238,281.174607 125.286624,281.571191 L127.10303,281.571191 L127.10303,288.800488 L126.376467,288.800488 L126.376467,288.09209 L124.33301,288.09209 L124.33301,288.864063 L123.606448,288.864063 L123.606448,281.571191 Z M127.23926,283.433008 C127.808404,282.530855 128.289747,281.407722 128.683303,280.063574 L129.446194,280.254297 C129.291799,280.711428 129.134378,281.141307 128.973928,281.543945 L131.898343,281.543945 C131.825686,284.65607 131.76514,286.614742 131.716702,287.42002 C131.674319,288.37061 131.174812,288.845899 130.218167,288.845899 C129.667187,288.845899 129.107134,288.827735 128.537991,288.791406 C128.501663,288.488671 128.453226,288.21924 128.392678,287.983106 L128.419925,287.983106 C129.025396,288.067872 129.579395,288.110254 130.081936,288.110254 C130.632916,288.110254 130.929592,287.819632 130.971975,287.238379 C131.038577,286.336226 131.087014,284.665149 131.117288,282.225098 L128.683303,282.225098 C128.419923,282.809378 128.147465,283.324021 127.865921,283.769043 C127.702443,283.654003 127.493559,283.541993 127.23926,283.433008 Z M124.33301,287.410938 L126.376467,287.410938 L126.376467,285.113184 L124.33301,285.113184 L124.33301,287.410938 Z M126.376467,282.252344 L124.33301,282.252344 L124.33301,284.459277 L126.376467,284.459277 L126.376467,282.252344 Z M128.038479,284.050586 L128.592483,283.641895 C129.264557,284.435063 129.800391,285.122263 130.200003,285.703516 L129.527932,286.175781 C129.098047,285.473434 128.601568,284.765043 128.038479,284.050586 Z M136.203225,285.312988 L140.998538,285.312988 L140.998538,289.000293 L140.29014,289.000293 L140.29014,288.437207 L136.911624,288.437207 L136.911624,289.000293 L136.203225,289.000293 L136.203225,285.312988 Z M136.021585,283.587402 L138.2376,283.587402 L138.2376,282.170606 L135.721878,282.170606 L135.721878,281.516699 L138.2376,281.516699 L138.2376,280.063574 L138.964163,280.063574 L138.964163,281.516699 L141.507132,281.516699 L141.507132,282.170606 L138.964163,282.170606 L138.964163,283.587402 L141.189261,283.587402 L141.189261,284.241309 L136.021585,284.241309 L136.021585,283.587402 Z M133.687503,285.521875 C134.49278,285.406835 135.158789,285.303907 135.68555,285.213086 C135.649221,285.44922 135.621976,285.679296 135.603811,285.90332 C134.931738,286.000196 134.014462,286.14248 132.851956,286.330176 L132.706643,285.658106 C133.094145,285.255467 133.555811,284.616704 134.091653,283.741797 C133.583057,283.775098 133.121392,283.808398 132.706643,283.841699 L132.534085,283.224121 C133.091119,282.479391 133.669336,281.404695 134.268753,280 L134.958987,280.272461 C134.305078,281.556061 133.769243,282.521774 133.351468,283.169629 C133.702641,283.160547 134.068946,283.149951 134.450393,283.137842 C134.656254,282.786668 134.871193,282.403713 135.095218,281.988965 L135.767288,282.325 C135.07705,283.475396 134.383795,284.541011 133.687503,285.521875 Z M140.29014,285.948731 L136.911624,285.948731 L136.911624,287.801465 L140.29014,287.801465 L140.29014,285.948731 Z M132.497757,287.665235 C133.617879,287.447265 134.71074,287.208107 135.77637,286.947754 C135.758206,287.189943 135.749124,287.420019 135.749124,287.637988 C134.76826,287.843849 133.751082,288.086034 132.697561,288.364551 L132.497757,287.665235 Z M144.794827,283.35127 C145.472956,282.394624 146.014845,281.304791 146.420511,280.081738 L147.119827,280.308789 C146.94424,280.726565 146.774711,281.117088 146.611233,281.480371 L150.525589,281.480371 C150.440823,284.574332 150.380277,286.487594 150.343948,287.220215 C150.313675,287.85596 150.168364,288.291894 149.908011,288.528028 C149.659767,288.764162 149.211725,288.882227 148.56387,288.882227 C148.085548,288.882227 147.586041,288.86709 147.065335,288.836817 C147.029007,288.594628 146.977542,288.328224 146.910941,288.037598 C147.510358,288.1042 148.052247,288.143555 148.536624,288.155664 C148.9544,288.161719 149.23594,288.089063 149.381253,287.937695 C149.532621,287.810546 149.617386,287.535061 149.63555,287.111231 C149.677933,286.293844 149.729397,284.637903 149.789944,282.143359 L146.293362,282.143359 C145.972462,282.77305 145.660649,283.30283 145.357913,283.732715 C145.206545,283.617675 145.018852,283.490528 144.794827,283.35127 Z M141.806839,285.821582 C142.43653,284.840718 142.881545,283.766022 143.141897,282.597461 L141.870413,282.597461 L141.870413,281.988965 L143.150979,281.988965 L143.150979,280.190723 L143.77764,280.190723 L143.77764,281.988965 L144.958304,281.988965 L144.958304,282.597461 L143.77764,282.597461 L143.77764,283.823535 L144.031937,283.560156 C144.443657,283.935549 144.870509,284.335154 145.312503,284.758984 L144.831155,285.258496 C144.455763,284.828611 144.104594,284.456252 143.77764,284.141406 L143.77764,289.009375 L143.150979,289.009375 L143.150979,284.332129 C142.854298,285.276665 142.50313,286.039548 142.097464,286.620801 C142.018753,286.360448 141.921878,286.094044 141.806839,285.821582 Z M147.392288,284.522852 L147.946292,284.232227 C148.388287,284.995121 148.845411,285.827632 149.317679,286.729785 L148.672855,287.074902 C148.600198,286.911425 148.524515,286.74795 148.445804,286.584473 C147.65869,286.632911 146.883698,286.687402 146.120804,286.747949 C145.933108,286.766114 145.666704,286.811523 145.321585,286.88418 L145.012796,286.230274 C145.206547,286.09707 145.370022,285.933595 145.503226,285.739844 C145.999713,284.958785 146.490137,283.999127 146.974515,282.86084 L147.655667,283.142383 C147.298439,283.929496 146.753522,284.913373 146.020901,286.094043 C146.892781,286.069824 147.610254,286.045606 148.173343,286.021387 C147.931154,285.518845 147.670805,285.019339 147.392288,284.522852 Z M151.125003,281.807324 L156.174613,281.807324 C156.150394,281.247263 156.13223,280.653909 156.12012,280.027246 L156.892093,280.027246 C156.889066,280.626663 156.898148,281.220017 156.919339,281.807324 L160.043558,281.807324 L160.043558,282.488477 L156.951126,282.488477 C157.069193,285.540054 157.579296,287.39277 158.481449,288.04668 C158.808403,288.313087 159.038479,288.240432 159.171683,287.828711 C159.262504,287.513866 159.344241,287.047659 159.416898,286.430078 C159.70147,286.533008 159.946682,286.611719 160.152542,286.666211 C160.037503,287.374613 159.913383,287.946775 159.780179,288.382715 C159.634866,288.800491 159.356353,289.009375 158.944632,289.009375 C158.526857,289.009375 158.112115,288.797463 157.700394,288.373633 C156.834569,287.453316 156.339603,285.491617 156.215482,282.488477 L151.125003,282.488477 L151.125003,281.807324 Z M151.161331,287.565332 C151.845514,287.483593 152.547851,287.394288 153.268363,287.297412 L153.268363,284.749902 L151.497366,284.749902 L151.497366,284.06875 L155.765921,284.06875 L155.765921,284.749902 L154.013089,284.749902 L154.013089,287.192969 C154.718464,287.093066 155.441992,286.98711 156.183695,286.875098 C156.171585,287.111232 156.165531,287.356444 156.165531,287.610742 C154.34306,287.871095 152.735557,288.110253 151.342972,288.328223 L151.161331,287.565332 Z M157.591409,280.563086 L158.027347,280.099902 C158.463287,280.414748 158.905274,280.771971 159.353324,281.171582 L158.835648,281.707422 C158.448146,281.313865 158.033404,280.932424 157.591409,280.563086 Z M165.420121,286.670752 L164.652689,289.091113 L164.016947,289.091113 L164.575492,286.670752 L165.420121,286.670752 Z M170.769437,282.842676 L174.774613,282.842676 L174.774613,286.430078 L171.486918,286.430078 L171.486918,287.074902 L170.769437,287.074902 L170.769437,282.842676 Z M169.761332,280.808301 L178.734379,280.808301 L178.734379,281.498535 L177.226761,281.498535 L177.226761,287.64707 C177.226761,288.464457 176.830183,288.876172 176.037015,288.882227 C175.467872,288.882227 174.913873,288.879199 174.375004,288.873145 C174.34473,288.594628 174.296293,288.319142 174.229691,288.04668 C174.913874,288.095118 175.434572,288.119336 175.7918,288.119336 C176.23985,288.119336 176.463871,287.877151 176.463871,287.392774 L176.463871,281.498535 L169.761332,281.498535 L169.761332,280.808301 Z M174.057132,283.4875 L171.486918,283.4875 L171.486918,285.785254 L174.057132,285.785254 L174.057132,283.4875 Z M183.375297,288.864063 L183.375297,285.975977 L180.732426,285.975977 C180.629495,287.235358 180.26319,288.279781 179.6335,289.109278 C179.476077,288.909472 179.297466,288.700587 179.09766,288.482617 C179.491217,287.925583 179.75762,287.308011 179.896879,286.629883 C180.030082,285.975973 180.096683,285.049615 180.096683,283.850781 L180.096683,280.608496 L187.498539,280.608496 L187.498539,287.828711 C187.498539,288.549223 187.156453,288.909473 186.472269,288.909473 C186.054494,288.909473 185.58526,288.900391 185.064555,288.882227 C185.034281,288.682421 184.988871,288.431154 184.928324,288.128418 C185.455085,288.164746 185.881936,288.18291 186.208891,288.18291 C186.584283,288.18291 186.771976,288.004299 186.771976,287.64707 L186.771976,285.975977 L184.101859,285.975977 L184.101859,288.864063 L183.375297,288.864063 Z M184.101859,285.32207 L186.771976,285.32207 L186.771976,283.623731 L184.101859,283.623731 L184.101859,285.32207 Z M186.771976,281.280566 L184.101859,281.280566 L184.101859,282.969824 L186.771976,282.969824 L186.771976,281.280566 Z M180.782377,285.32207 L183.375297,285.32207 L183.375297,283.623731 L180.823246,283.623731 C180.84141,284.211038 180.827787,284.777146 180.782377,285.32207 Z M180.823246,281.280566 L180.823246,282.969824 L183.375297,282.969824 L183.375297,281.280566 L180.823246,281.280566 Z M193.910453,287.506299 C193.392775,287.778761 192.743416,287.91499 191.962357,287.91499 C190.954247,287.91499 190.148982,287.594852 189.546537,286.954566 C188.944093,286.314279 188.642875,285.467388 188.642875,284.413867 C188.642875,283.281635 188.981934,282.370414 189.660062,281.680176 C190.338191,280.989938 191.199462,280.644824 192.2439,280.644824 C192.915974,280.644824 193.471486,280.740185 193.910453,280.930908 L193.910453,281.879981 C193.407912,281.601463 192.855427,281.462207 192.252982,281.462207 C191.468896,281.462207 190.830133,281.723313 190.336674,282.245532 C189.843214,282.767752 189.596488,283.472359 189.596488,284.359375 C189.596488,285.200981 189.826564,285.86926 190.286723,286.364234 C190.746881,286.859207 191.349317,287.10669 192.094047,287.10669 C192.790339,287.10669 193.395802,286.949269 193.910453,286.634424 L193.910453,287.506299 Z M199.445951,287.796924 L198.560453,287.796924 L198.560453,284.908838 C198.560453,283.8977 198.185066,283.392139 197.434281,283.392139 C197.049807,283.392139 196.730425,283.53972 196.476127,283.834888 C196.221829,284.130055 196.094682,284.501658 196.094682,284.949707 L196.094682,287.796924 L195.204643,287.796924 L195.204643,280.363281 L196.094682,280.363281 L196.094682,283.601025 L196.112846,283.601025 C196.49732,282.971335 197.04375,282.656494 197.752152,282.656494 C198.881357,282.656494 199.445951,283.339153 199.445951,284.704492 L199.445951,287.796924 Z M205.022319,285.512793 L201.507572,285.512793 C201.522709,286.048636 201.669534,286.462621 201.948051,286.754761 C202.226568,287.046901 202.615578,287.192969 203.115092,287.192969 C203.678181,287.192969 204.194338,287.012844 204.663578,286.652588 L204.663578,287.447266 C204.221584,287.759084 203.635799,287.91499 202.906205,287.91499 C202.179639,287.91499 201.612775,287.684915 201.205595,287.224756 C200.798415,286.764597 200.594828,286.125834 200.594828,285.308447 C200.594828,284.539498 200.818093,283.905276 201.264628,283.405762 C201.711164,282.906248 202.265919,282.656494 202.92891,282.656494 C203.585847,282.656494 204.098977,282.867649 204.468315,283.289966 C204.837653,283.712282 205.022319,284.303365 205.022319,285.063233 L205.022319,285.512793 Z M204.13228,284.799854 C204.129252,284.34575 204.021783,283.994581 203.809867,283.746338 C203.597952,283.498095 203.299762,283.373975 202.915287,283.373975 C202.561086,283.373975 202.254571,283.505663 201.995732,283.769043 C201.736892,284.032423 201.574174,284.376023 201.507572,284.799854 L204.13228,284.799854 Z M213.436821,287.796924 L212.546782,287.796924 L212.546782,284.913379 C212.546782,284.368454 212.462017,283.978688 212.292485,283.744067 C212.122953,283.509447 211.84444,283.392139 211.456938,283.392139 C211.129983,283.392139 210.849957,283.545018 210.61685,283.850781 C210.383743,284.156545 210.267192,284.518309 210.267192,284.936084 L210.267192,287.796924 L209.377153,287.796924 L209.377153,284.822559 C209.377153,283.868941 209.009334,283.392139 208.273686,283.392139 C207.934622,283.392139 207.653838,283.53745 207.431327,283.828076 C207.208817,284.118703 207.097563,284.489549 207.097563,284.940625 L207.097563,287.796924 L206.207524,287.796924 L206.207524,282.774561 L207.097563,282.774561 L207.097563,283.569238 L207.115727,283.569238 C207.472955,282.960739 207.995167,282.656494 208.682377,282.656494 C209.018414,282.656494 209.315091,282.748827 209.572416,282.933496 C209.829742,283.118165 210.008353,283.367918 210.108256,283.682764 C210.480621,282.998581 211.037647,282.656494 211.77935,282.656494 C212.884336,282.656494 213.436821,283.33764 213.436821,284.699951 L213.436821,287.796924 Z M215.035258,287.796924 L215.035258,280.762891 L217.042387,280.762891 C218.108018,280.762891 218.994264,281.07319 219.701152,281.693799 C220.40804,282.314407 220.761479,283.146919 220.761479,284.191358 C220.761479,285.281207 220.40804,286.154587 219.701152,286.811524 C218.994264,287.46846 218.083799,287.796924 216.969731,287.796924 L215.035258,287.796924 Z M215.943461,281.571191 L215.943461,286.993164 L216.96519,286.993164 C217.858261,286.993164 218.5553,286.749465 219.056328,286.262061 C219.557356,285.774656 219.807866,285.091997 219.807866,284.214063 C219.807866,283.336128 219.550544,282.676174 219.035893,282.23418 C218.521242,281.792185 217.844638,281.571191 217.006059,281.571191 L215.943461,281.571191 Z M224.69854,283.655518 C224.550199,283.54956 224.345856,283.496582 224.085503,283.496582 C223.740384,283.496582 223.455816,283.657787 223.231792,283.9802 C223.007767,284.302614 222.895757,284.727195 222.895757,285.253955 L222.895757,287.796924 L222.005717,287.796924 L222.005717,282.774561 L222.895757,282.774561 L222.895757,283.796289 L222.913921,283.796289 C223.168219,283.057614 223.607179,282.688281 224.230815,282.688281 C224.433648,282.688281 224.589555,282.710986 224.69854,282.756397 L224.69854,283.655518 Z M225.674858,283.124219 C226.174372,282.812401 226.751076,282.656494 227.404985,282.656494 C228.615929,282.656494 229.221391,283.29223 229.221391,284.563721 L229.221391,287.796924 L228.340434,287.796924 L228.340434,287.02041 L228.317729,287.02041 C227.969583,287.6168 227.456453,287.91499 226.778325,287.91499 C226.29092,287.91499 225.903424,287.783302 225.615825,287.519922 C225.328226,287.256542 225.184428,286.900832 225.184428,286.452783 C225.184428,285.514302 225.73994,284.967872 226.850981,284.813477 L228.340434,284.60459 C228.340434,283.784176 228.001375,283.373975 227.323247,283.373975 C226.720802,283.373975 226.171345,283.576805 225.674858,283.982471 L225.674858,283.124219 Z M227.164311,285.435596 C226.75259,285.490088 226.46878,285.593017 226.312871,285.744385 C226.156962,285.895753 226.079009,286.107665 226.079009,286.380127 C226.079009,286.619288 226.163773,286.81455 226.333305,286.965918 C226.502838,287.117286 226.726859,287.192969 227.005376,287.192969 C227.392878,287.192969 227.712259,287.05674 227.96353,286.784277 C228.214801,286.511815 228.340434,286.169729 228.340434,285.758008 L228.340434,285.27666 L227.164311,285.435596 Z M237.131841,282.774561 L235.633306,287.796924 L234.706938,287.796924 L233.707915,284.273096 C233.665532,284.121728 233.638286,283.96128 233.626177,283.791748 L233.608013,283.791748 C233.598931,283.918897 233.564116,284.076318 233.503569,284.264014 L232.422808,287.796924 L231.523686,287.796924 L230.016069,282.774561 L230.942436,282.774561 L231.946001,286.498193 C231.976274,286.610206 231.998979,286.763085 232.014116,286.956836 L232.050444,286.956836 C232.062554,286.790331 232.091313,286.632911 232.136724,286.48457 L233.217485,282.774561 L234.039409,282.774561 L235.092925,286.502735 C235.123198,286.611719 235.147417,286.766112 235.165581,286.965918 L235.20645,286.965918 C235.212505,286.832714 235.239751,286.678321 235.288188,286.502735 L236.269048,282.774561 L237.131841,282.774561 Z M237.408843,288.09209 L241.568413,288.09209 L241.568413,287.42002 L238.117241,287.42002 L238.117241,286.88418 L241.568413,286.88418 L241.568413,286.121289 L239.116265,286.121289 L239.116265,286.448242 L238.480522,286.448242 L238.480522,283.033398 L241.568413,283.033398 L241.568413,282.379492 L237.481499,282.379492 L237.481499,281.816406 L241.568413,281.816406 L241.568413,281.103467 C240.469482,281.136768 239.331212,281.165527 238.153569,281.189746 C238.117241,280.995995 238.074859,280.790138 238.026421,280.572168 C241.096163,280.53584 243.581587,280.454102 245.482769,280.326953 L245.591753,280.944531 C244.514013,280.995996 243.39088,281.04292 242.222319,281.085303 L242.222319,281.816406 L246.345562,281.816406 L246.345562,282.379492 L242.222319,282.379492 L242.222319,283.033398 L245.337456,283.033398 L245.337456,286.43916 L244.701714,286.43916 L244.701714,286.121289 L242.222319,286.121289 L242.222319,286.88418 L245.682573,286.88418 L245.682573,287.42002 L242.222319,287.42002 L242.222319,288.09209 L246.345562,288.09209 L246.345562,288.655176 L237.408843,288.655176 L237.408843,288.09209 Z M242.222319,285.594531 L244.701714,285.594531 L244.701714,284.813477 L242.222319,284.813477 L242.222319,285.594531 Z M239.116265,285.594531 L241.568413,285.594531 L241.568413,284.813477 L239.116265,284.813477 L239.116265,285.594531 Z M244.701714,283.560156 L242.222319,283.560156 L242.222319,284.332129 L244.701714,284.332129 L244.701714,283.560156 Z M239.116265,284.332129 L241.568413,284.332129 L241.568413,283.560156 L239.116265,283.560156 L239.116265,284.332129 Z M251.767534,280.826465 C253.020861,280.814355 254.177295,280.690236 255.23687,280.454102 L255.473003,281.153418 C254.274169,281.310841 253.253964,281.413769 252.412359,281.462207 L252.412359,283.57832 L255.7273,283.57832 L255.7273,284.195899 L254.42857,284.195899 L254.42857,288.954883 L253.756499,288.954883 L253.756499,284.195899 L252.412359,284.195899 L252.412359,284.640918 C252.412359,286.499716 251.967344,287.946772 251.0773,288.982129 C250.931987,288.794433 250.771539,288.600685 250.595952,288.400879 C251.377011,287.547164 251.767534,286.284774 251.767534,284.613672 L251.767534,280.826465 Z M246.926812,284.904297 L248.779546,284.904297 L248.779546,284.041504 L249.433452,284.041504 L249.433452,284.904297 L251.213531,284.904297 L251.213531,285.485547 L249.433452,285.485547 L249.433452,287.855957 C249.433452,288.497757 249.124666,288.818653 248.507085,288.818653 C248.246732,288.818653 247.953083,288.815625 247.626128,288.80957 C247.601909,288.609765 247.568609,288.379689 247.526226,288.119336 C247.877399,288.155664 248.152885,288.173828 248.352691,288.173828 C248.637262,288.173828 248.779546,288.019435 248.779546,287.710645 L248.779546,285.485547 L246.926812,285.485547 L246.926812,284.904297 Z M246.672515,283.205957 L248.134722,283.205957 C247.877396,282.797264 247.635211,282.446095 247.408159,282.152441 L247.898589,281.807324 C248.098395,282.049513 248.355716,282.391599 248.670562,282.833594 L248.157427,283.205957 L249.356255,283.205957 C249.686237,282.730662 249.990482,282.261428 250.268999,281.798242 L250.913824,282.161523 C250.62017,282.539943 250.340143,282.888084 250.073736,283.205957 L251.449663,283.205957 L251.449663,283.787207 L246.672515,283.787207 L246.672515,283.205957 Z M246.96314,281.098926 L248.924859,281.098926 C248.794682,280.850682 248.646344,280.581251 248.479839,280.290625 L249.061089,280.018164 C249.248785,280.326955 249.42437,280.638768 249.587847,280.953613 L249.283599,281.098926 L251.213531,281.098926 L251.213531,281.680176 L246.96314,281.680176 L246.96314,281.098926 Z M247.626128,285.894238 L248.243706,286.184863 C247.916751,286.869047 247.592829,287.486618 247.271929,288.037598 C247.096342,287.928613 246.896539,287.81963 246.672515,287.710645 C246.969196,287.250486 247.287064,286.645023 247.626128,285.894238 Z M250.241753,285.939649 C250.580817,286.399807 250.877494,286.823631 251.131792,287.211133 L250.550542,287.610742 C250.284135,287.144529 250.002595,286.705569 249.705913,286.293848 L250.241753,285.939649 Z M260.413628,288.954883 L259.832378,288.954883 L259.832378,284.11416 L264.636773,284.11416 L264.636773,288.128418 C264.636773,288.655179 264.400643,288.918555 263.928375,288.918555 C263.595365,288.930664 263.331989,288.936719 263.138238,288.936719 C263.114019,288.767187 263.082232,288.609767 263.042876,288.464453 L262.620562,288.464453 L262.620562,286.629883 L261.794097,286.629883 L261.794097,288.500781 L261.240093,288.500781 L261.240093,286.629883 L260.413628,286.629883 L260.413628,288.954883 Z M255.954351,287.283789 C256.693027,287.183886 257.564893,287.056739 258.569976,286.902344 C258.812165,286.100094 258.933257,285.110162 258.933257,283.93252 L258.933257,280.989941 L261.489849,280.989941 C261.347563,280.735643 261.212848,280.511622 261.085699,280.317871 L261.775933,280 C261.948493,280.27549 262.142241,280.605467 262.357183,280.989941 L264.500543,280.989941 L264.500543,283.478418 L263.882964,283.478418 L263.882964,283.187793 L259.550835,283.187793 L259.550835,283.941602 C259.550835,286.278723 259.10582,287.967964 258.215777,289.009375 C258.088628,288.821679 257.940289,288.633985 257.770757,288.446289 C257.994782,288.182909 258.185503,287.871096 258.342925,287.51084 C257.413526,287.698536 256.671834,287.852929 256.117828,287.974024 L255.954351,287.283789 Z M257.026031,285.421973 C257.310602,285.409863 257.834328,285.367481 258.597222,285.294824 C258.566949,285.549122 258.54273,285.745898 258.524566,285.885156 C257.337841,285.988087 256.58404,286.063769 256.26314,286.112207 L256.135992,285.540039 C256.444782,285.231249 256.847415,284.612163 257.343902,283.682764 C256.880716,283.719092 256.478083,283.753906 256.135992,283.787207 L255.963433,283.215039 C256.544686,282.288667 257.056302,281.247271 257.498296,280.09082 L258.206695,280.345117 C257.698098,281.428912 257.207674,282.367379 256.735406,283.160547 C256.932184,283.160547 257.227347,283.156006 257.620904,283.146924 C257.781354,282.835106 257.94937,282.494533 258.124956,282.125195 L258.778863,282.41582 C258.003859,283.81446 257.419587,284.816501 257.026031,285.421973 Z M263.882964,281.571191 L259.550835,281.571191 L259.550835,282.606543 L263.882964,282.606543 L263.882964,281.571191 Z M263.674078,288.346387 C263.910212,288.346387 264.028277,288.216212 264.028277,287.95586 L264.028277,286.629883 L263.174566,286.629883 L263.174566,288.332764 C263.328961,288.341846 263.495463,288.346387 263.674078,288.346387 Z M264.028277,284.69541 L263.174566,284.69541 L263.174566,286.075879 L264.028277,286.075879 L264.028277,284.69541 Z M261.794097,286.075879 L262.620562,286.075879 L262.620562,284.69541 L261.794097,284.69541 L261.794097,286.075879 Z M260.413628,286.075879 L261.240093,286.075879 L261.240093,284.69541 L260.413628,284.69541 L260.413628,286.075879 Z M268.460308,287.46543 C268.729743,287.45332 269.005229,287.442725 269.286773,287.433643 L269.286773,283.787207 L268.732769,283.787207 L268.732769,283.224121 L274.200152,283.224121 L274.200152,283.787207 L273.600738,283.787207 L273.600738,287.215674 C273.839899,287.203565 274.082084,287.189942 274.327301,287.174805 C274.297027,287.410939 274.275836,287.610742 274.263726,287.774219 C274.045756,287.783301 273.824763,287.790869 273.600738,287.796924 L273.600738,289.018457 L272.964996,289.018457 L272.964996,287.82417 C271.617821,287.884717 270.13141,287.964941 268.505718,288.064844 L268.460308,287.46543 Z M266.135308,284.541016 L267.107086,284.541016 L267.107086,282.533887 L267.7065,282.533887 L267.7065,284.541016 L268.769097,284.541016 L268.769097,285.14043 L267.7065,285.14043 L267.7065,286.389209 C268.11822,286.340771 268.526908,286.287793 268.932574,286.230274 C268.9023,286.460353 268.881109,286.669237 268.869,286.856934 C268.499662,286.899317 268.112166,286.94624 267.7065,286.997705 L267.7065,289.018457 L267.107086,289.018457 L267.107086,287.074902 C266.547024,287.147559 265.956698,287.226269 265.336089,287.311035 L265.263433,286.648047 C265.884042,286.590527 266.498586,286.528467 267.107086,286.461865 L267.107086,285.14043 L265.47232,285.14043 L265.47232,284.568262 C265.808357,283.638863 266.091411,282.806351 266.32149,282.070703 L265.372418,282.070703 L265.372418,281.480371 L266.50313,281.480371 C266.66358,280.932419 266.789214,280.448049 266.880035,280.027246 L267.579351,280.172559 C267.479448,280.517678 267.343219,280.953611 267.17066,281.480371 L268.841754,281.480371 L268.841754,282.070703 L266.979937,282.070703 C266.749858,282.766996 266.468318,283.590425 266.135308,284.541016 Z M269.205035,280.472266 L273.682476,280.472266 L273.682476,282.824512 L273.055816,282.824512 L273.055816,282.497559 L269.840777,282.497559 L269.840777,282.824512 L269.205035,282.824512 L269.205035,280.472266 Z M273.055816,281.008105 L269.840777,281.008105 L269.840777,281.961719 L273.055816,281.961719 L273.055816,281.008105 Z M272.964996,287.252002 L272.964996,286.48457 L269.922515,286.48457 L269.922515,287.401856 C270.870079,287.356445 271.884229,287.306495 272.964996,287.252002 Z M269.922515,285.957813 L272.964996,285.957813 L272.964996,285.131348 L269.922515,285.131348 L269.922515,285.957813 Z M269.922515,284.60459 L272.964996,284.60459 L272.964996,283.787207 L269.922515,283.787207 L269.922515,284.60459 Z" id="Ctrl-C-&gt;-Ctrl-V粘贴到Wo-Copy" fill="#C1C1C1"></path>
            <path d="M6.5859375,264.71875 C8.63282273,263.76562 10.5468661,262.667975 12.328125,261.425781 L12.328125,250.679688 L14.34375,250.679688 L14.34375,259.914062 C16.734387,257.984365 18.8593657,255.757825 20.71875,253.234375 L22.4296875,254.476562 C20.1562386,257.500015 17.4609531,260.14452 14.34375,262.410156 L14.34375,269.03125 C14.34375,270.093755 14.9062444,270.625 16.03125,270.625 L19.0078125,270.625 C20.0703178,270.625 20.6874991,270.117193 20.859375,269.101562 C21.0781261,268.039057 21.2187497,266.812507 21.28125,265.421875 C21.9375033,265.671876 22.6249964,265.898436 23.34375,266.101562 C23.2187494,267.414069 23.0546885,268.617182 22.8515625,269.710938 C22.554686,271.507821 21.4296973,272.40625 19.4765625,272.40625 L15.515625,272.40625 C13.3906144,272.40625 12.328125,271.359385 12.328125,269.265625 L12.328125,263.78125 C10.8671802,264.718755 9.32813309,265.578121 7.7109375,266.359375 C7.38281086,265.843747 7.00781461,265.296878 6.5859375,264.71875 Z M0,261.835938 C2.71876359,258.226544 4.71874359,254.390645 6,250.328125 L8.0390625,250.914062 C7.29687129,252.851572 6.49219184,254.675773 5.625,256.386719 L5.625,273.15625 L3.65625,273.15625 L3.65625,259.914062 C2.78905816,261.32032 1.86719238,262.640619 0.890625,263.875 C0.624998672,263.203122 0.328126641,262.523441 0,261.835938 Z M24.2109375,265.070312 L35.1796875,265.070312 L35.1796875,263.757812 L39.65625,261.226562 L28.640625,261.226562 L28.640625,259.515625 L42.3984375,259.515625 L42.3984375,261.484375 L37.078125,264.554688 L37.078125,265.070312 L47.15625,265.070312 L47.15625,266.78125 L37.078125,266.78125 L37.078125,270.320312 C37.078125,272.164072 36.1484468,273.085938 34.2890625,273.085938 C33.2578073,273.085938 32.046882,273.070313 30.65625,273.039062 C30.6093748,272.50781 30.5156257,271.843754 30.375,271.046875 C31.6250063,271.171876 32.8203068,271.242187 33.9609375,271.257812 C34.7734416,271.273438 35.1796875,270.843754 35.1796875,269.96875 L35.1796875,266.78125 L24.2109375,266.78125 L24.2109375,265.070312 Z M25.0078125,255.507812 L46.3828125,255.507812 L46.3828125,260.242188 L44.53125,260.242188 L44.53125,257.21875 L26.859375,257.21875 L26.859375,260.242188 L25.0078125,260.242188 L25.0078125,255.507812 Z M39.84375,254.148438 C40.8906302,253.023432 41.8749954,251.812506 42.796875,250.515625 L44.484375,251.757812 C43.4687449,252.914068 42.3828183,254.124994 41.2265625,255.390625 L39.84375,254.148438 Z M33.1875,250.984375 L34.7109375,250.09375 C35.6640673,251.343756 36.5468709,252.617181 37.359375,253.914062 L35.671875,254.875 C34.9843716,253.656244 34.1562548,252.359382 33.1875,250.984375 Z M26.859375,251.6875 L28.2421875,250.679688 C29.1953173,251.726568 30.1328079,252.859369 31.0546875,254.078125 L29.4609375,255.203125 C28.5859331,253.874993 27.7187543,252.70313 26.859375,251.6875 Z M57.515625,263.757812 L69.890625,263.757812 L69.890625,273.273438 L68.0625,273.273438 L68.0625,271.820312 L59.34375,271.820312 L59.34375,273.273438 L57.515625,273.273438 L57.515625,263.757812 Z M57.046875,259.304688 L62.765625,259.304688 L62.765625,255.648438 L56.2734375,255.648438 L56.2734375,253.960938 L62.765625,253.960938 L62.765625,250.210938 L64.640625,250.210938 L64.640625,253.960938 L71.203125,253.960938 L71.203125,255.648438 L64.640625,255.648438 L64.640625,259.304688 L70.3828125,259.304688 L70.3828125,260.992188 L57.046875,260.992188 L57.046875,259.304688 Z M51.0234375,264.296875 C53.1015729,263.999999 54.8203057,263.734376 56.1796875,263.5 C56.085937,264.109378 56.0156252,264.703122 55.96875,265.28125 C54.2343663,265.531251 51.8672025,265.898435 48.8671875,266.382812 L48.4921875,264.648438 C49.4921925,263.60937 50.6835868,261.960949 52.0664062,259.703125 C50.7538997,259.789063 49.5625054,259.875 48.4921875,259.960938 L48.046875,258.367188 C49.4843822,256.445303 50.9765548,253.671893 52.5234375,250.046875 L54.3046875,250.75 C52.6171791,254.062517 51.2343804,256.554679 50.15625,258.226562 C51.0625045,258.203125 52.0078076,258.175781 52.9921875,258.144531 C53.5234402,257.238277 54.0781221,256.250005 54.65625,255.179688 L56.390625,256.046875 C54.6093661,259.01564 52.8203215,261.765612 51.0234375,264.296875 Z M68.0625,265.398438 L59.34375,265.398438 L59.34375,270.179688 L68.0625,270.179688 L68.0625,265.398438 Z M47.953125,269.828125 C50.8437645,269.265622 53.6640488,268.648441 56.4140625,267.976562 C56.3671873,268.601566 56.34375,269.19531 56.34375,269.757812 C53.8124873,270.289065 51.1875136,270.914059 48.46875,271.632812 L47.953125,269.828125 Z M79.6875,258.695312 C81.4375088,256.22655 82.8359323,253.414078 83.8828125,250.257812 L85.6875,250.84375 C85.2343727,251.92188 84.7968771,252.929683 84.375,253.867188 L94.4765625,253.867188 C94.2578114,261.851602 94.101563,266.789053 94.0078125,268.679688 C93.9296871,270.320321 93.5546909,271.445309 92.8828125,272.054688 C92.2421843,272.664066 91.0859459,272.96875 89.4140625,272.96875 C88.1796813,272.96875 86.8906317,272.929688 85.546875,272.851562 C85.4531245,272.226559 85.3203134,271.539066 85.1484375,270.789062 C86.6953202,270.960938 88.0937437,271.0625 89.34375,271.09375 C90.4218804,271.109375 91.1484356,270.921877 91.5234375,270.53125 C91.9140645,270.203123 92.1328123,269.492193 92.1796875,268.398438 C92.289063,266.289052 92.4218742,262.015657 92.578125,255.578125 L83.5546875,255.578125 C82.7265584,257.203133 81.9218789,258.570307 81.140625,259.679688 C80.749998,259.382811 80.2656279,259.054689 79.6875,258.695312 Z M71.9765625,265.070312 C73.6015706,262.53905 74.7499966,259.76564 75.421875,256.75 L72.140625,256.75 L72.140625,255.179688 L75.4453125,255.179688 L75.4453125,250.539062 L77.0625,250.539062 L77.0625,255.179688 L80.109375,255.179688 L80.109375,256.75 L77.0625,256.75 L77.0625,259.914062 L77.71875,259.234375 C78.7812553,260.20313 79.8828068,261.23437 81.0234375,262.328125 L79.78125,263.617188 C78.8124952,262.507807 77.9062542,261.546879 77.0625,260.734375 L77.0625,273.296875 L75.4453125,273.296875 L75.4453125,261.226562 C74.6796837,263.664075 73.7734427,265.632805 72.7265625,267.132812 C72.5234365,266.460934 72.273439,265.773441 71.9765625,265.070312 Z M86.390625,261.71875 L87.8203125,260.96875 C88.9609432,262.93751 90.1406189,265.085926 91.359375,267.414062 L89.6953125,268.304688 C89.5078116,267.88281 89.312501,267.46094 89.109375,267.039062 C87.0781148,267.164063 85.0781348,267.304687 83.109375,267.460938 C82.6249976,267.507813 81.9375045,267.624999 81.046875,267.8125 L80.25,266.125 C80.7500025,265.781248 81.1718733,265.359377 81.515625,264.859375 C82.7968814,262.84374 84.0624937,260.367202 85.3125,257.429688 L87.0703125,258.15625 C86.1484329,260.18751 84.742197,262.726547 82.8515625,265.773438 C85.1015738,265.710937 86.9531177,265.648438 88.40625,265.585938 C87.7812469,264.289056 87.1093786,263.000006 86.390625,261.71875 Z M96.0234375,254.710938 L109.054688,254.710938 C108.992187,253.265618 108.945313,251.734383 108.914062,250.117188 L110.90625,250.117188 C110.898437,251.66407 110.921875,253.195305 110.976562,254.710938 L119.039062,254.710938 L119.039062,256.46875 L111.058594,256.46875 C111.363283,264.343789 112.679676,269.124992 115.007812,270.8125 C115.851567,271.500003 116.445311,271.312505 116.789062,270.25 C117.023439,269.437496 117.234374,268.234383 117.421875,266.640625 C118.156254,266.906251 118.78906,267.109374 119.320312,267.25 C119.023436,269.078134 118.703127,270.554682 118.359375,271.679688 C117.984373,272.757818 117.26563,273.296875 116.203125,273.296875 C115.124995,273.296875 114.054693,272.750005 112.992188,271.65625 C110.757801,269.281238 109.48047,264.218789 109.160156,256.46875 L96.0234375,256.46875 L96.0234375,254.710938 Z M96.1171875,269.570312 C97.8828213,269.359374 99.6953032,269.128907 101.554688,268.878906 L101.554688,262.304688 L96.984375,262.304688 L96.984375,260.546875 L108,260.546875 L108,262.304688 L103.476562,262.304688 L103.476562,268.609375 C105.296884,268.351561 107.164053,268.078126 109.078125,267.789062 C109.046875,268.398441 109.03125,269.031247 109.03125,269.6875 C104.328101,270.359378 100.179705,270.97656 96.5859375,271.539062 L96.1171875,269.570312 Z M112.710938,251.5 L113.835938,250.304688 C114.960943,251.117192 116.101557,252.039057 117.257812,253.070312 L115.921875,254.453125 C114.92187,253.437495 113.851568,252.45313 112.710938,251.5 Z M138.128906,276.273438 L136.113281,276.273438 L136.113281,250.351562 L138.128906,250.351562 L138.128906,276.273438 Z M161.449219,264.71875 C163.496104,263.76562 165.410147,262.667975 167.191406,261.425781 L167.191406,250.679688 L169.207031,250.679688 L169.207031,259.914062 C171.597668,257.984365 173.722647,255.757825 175.582031,253.234375 L177.292969,254.476562 C175.01952,257.500015 172.324234,260.14452 169.207031,262.410156 L169.207031,269.03125 C169.207031,270.093755 169.769526,270.625 170.894531,270.625 L173.871094,270.625 C174.933599,270.625 175.55078,270.117193 175.722656,269.101562 C175.941407,268.039057 176.082031,266.812507 176.144531,265.421875 C176.800785,265.671876 177.488278,265.898436 178.207031,266.101562 C178.082031,267.414069 177.91797,268.617182 177.714844,269.710938 C177.417967,271.507821 176.292979,272.40625 174.339844,272.40625 L170.378906,272.40625 C168.253896,272.40625 167.191406,271.359385 167.191406,269.265625 L167.191406,263.78125 C165.730461,264.718755 164.191414,265.578121 162.574219,266.359375 C162.246092,265.843747 161.871096,265.296878 161.449219,264.71875 Z M154.863281,261.835938 C157.582045,258.226544 159.582025,254.390645 160.863281,250.328125 L162.902344,250.914062 C162.160153,252.851572 161.355473,254.675773 160.488281,256.386719 L160.488281,273.15625 L158.519531,273.15625 L158.519531,259.914062 C157.652339,261.32032 156.730474,262.640619 155.753906,263.875 C155.48828,263.203122 155.191408,262.523441 154.863281,261.835938 Z M179.074219,265.070312 L190.042969,265.070312 L190.042969,263.757812 L194.519531,261.226562 L183.503906,261.226562 L183.503906,259.515625 L197.261719,259.515625 L197.261719,261.484375 L191.941406,264.554688 L191.941406,265.070312 L202.019531,265.070312 L202.019531,266.78125 L191.941406,266.78125 L191.941406,270.320312 C191.941406,272.164072 191.011728,273.085938 189.152344,273.085938 C188.121089,273.085938 186.910163,273.070313 185.519531,273.039062 C185.472656,272.50781 185.378907,271.843754 185.238281,271.046875 C186.488287,271.171876 187.683588,271.242187 188.824219,271.257812 C189.636723,271.273438 190.042969,270.843754 190.042969,269.96875 L190.042969,266.78125 L179.074219,266.78125 L179.074219,265.070312 Z M179.871094,255.507812 L201.246094,255.507812 L201.246094,260.242188 L199.394531,260.242188 L199.394531,257.21875 L181.722656,257.21875 L181.722656,260.242188 L179.871094,260.242188 L179.871094,255.507812 Z M194.707031,254.148438 C195.753911,253.023432 196.738277,251.812506 197.660156,250.515625 L199.347656,251.757812 C198.332026,252.914068 197.2461,254.124994 196.089844,255.390625 L194.707031,254.148438 Z M188.050781,250.984375 L189.574219,250.09375 C190.527349,251.343756 191.410152,252.617181 192.222656,253.914062 L190.535156,254.875 C189.847653,253.656244 189.019536,252.359382 188.050781,250.984375 Z M181.722656,251.6875 L183.105469,250.679688 C184.058599,251.726568 184.996089,252.859369 185.917969,254.078125 L184.324219,255.203125 C183.449214,253.874993 182.582036,252.70313 181.722656,251.6875 Z M205.839844,251.851562 C212.058625,251.804687 218.128877,251.421879 224.050781,250.703125 L224.730469,252.578125 C219.308567,253.046877 213.621124,253.367187 207.667969,253.539062 L207.667969,257.523438 L223.675781,257.523438 L223.675781,259.257812 C222.394525,262.718767 220.472669,265.617176 217.910156,267.953125 C220.207043,269.492195 222.996077,270.53906 226.277344,271.09375 C225.714841,271.812504 225.222658,272.507809 224.800781,273.179688 C221.496077,272.226558 218.695324,270.906258 216.398438,269.21875 C213.999988,271.039072 211.136735,272.45312 207.808594,273.460938 C207.449217,272.91406 207.019534,272.312503 206.519531,271.65625 C209.77736,270.773433 212.546864,269.531258 214.828125,267.929688 C212.273425,265.609363 210.500005,262.718767 209.507812,259.257812 L207.667969,259.257812 L207.667969,260.59375 C207.667969,266.140653 206.472668,270.398423 204.082031,273.367188 C203.675779,272.867185 203.238284,272.36719 202.769531,271.867188 C204.816416,269.335925 205.839844,265.57815 205.839844,260.59375 L205.839844,251.851562 Z M221.472656,259.257812 L211.40625,259.257812 C212.476568,262.335953 214.121083,264.835928 216.339844,266.757812 C218.691418,264.726552 220.402338,262.226577 221.472656,259.257812 Z M237.667969,250.914062 L239.378906,250 C240.050785,250.859379 240.691403,251.789058 241.300781,252.789062 L240.164062,253.445312 L249.667969,253.445312 L249.667969,255.226562 L231.410156,255.226562 L231.410156,260.96875 C231.410156,266.500028 230.269543,270.632799 227.988281,273.367188 C227.613279,272.85156 227.160159,272.312503 226.628906,271.75 C228.503916,269.65624 229.441406,266.07815 229.441406,261.015625 L229.441406,253.445312 L239.355469,253.445312 C238.847654,252.585933 238.285159,251.742192 237.667969,250.914062 Z M231.269531,270.203125 L242.109375,270.203125 C243.328131,267.085922 244.621087,262.82034 245.988281,257.40625 L248.027344,257.96875 C246.566399,263.125026 245.269537,267.20311 244.136719,270.203125 L249.925781,270.203125 L249.925781,271.984375 L231.269531,271.984375 L231.269531,270.203125 Z M232.535156,258.695312 L234.316406,258.085938 C235.285161,260.929702 236.222652,264.11717 237.128906,267.648438 L235.136719,268.257812 C234.417965,265.164047 233.550786,261.976579 232.535156,258.695312 Z M238.183594,257.523438 L239.988281,257.007812 C240.800785,259.820327 241.519528,262.968733 242.144531,266.453125 L240.082031,266.992188 C239.628904,263.898422 238.996098,260.742204 238.183594,257.523438 Z M250.886719,254.710938 L263.917969,254.710938 C263.855468,253.265618 263.808594,251.734383 263.777344,250.117188 L265.769531,250.117188 C265.761719,251.66407 265.785156,253.195305 265.839844,254.710938 L273.902344,254.710938 L273.902344,256.46875 L265.921875,256.46875 C266.226564,264.343789 267.542957,269.124992 269.871094,270.8125 C270.714848,271.500003 271.308592,271.312505 271.652344,270.25 C271.88672,269.437496 272.097655,268.234383 272.285156,266.640625 C273.019535,266.906251 273.652341,267.109374 274.183594,267.25 C273.886717,269.078134 273.566408,270.554682 273.222656,271.679688 C272.847654,272.757818 272.128912,273.296875 271.066406,273.296875 C269.988276,273.296875 268.917974,272.750005 267.855469,271.65625 C265.621083,269.281238 264.343752,264.218789 264.023438,256.46875 L250.886719,256.46875 L250.886719,254.710938 Z M250.980469,269.570312 C252.746103,269.359374 254.558584,269.128907 256.417969,268.878906 L256.417969,262.304688 L251.847656,262.304688 L251.847656,260.546875 L262.863281,260.546875 L262.863281,262.304688 L258.339844,262.304688 L258.339844,268.609375 C260.160165,268.351561 262.027334,268.078126 263.941406,267.789062 C263.910156,268.398441 263.894531,269.031247 263.894531,269.6875 C259.191383,270.359378 255.042987,270.97656 251.449219,271.539062 L250.980469,269.570312 Z M267.574219,251.5 L268.699219,250.304688 C269.824224,251.117192 270.964838,252.039057 272.121094,253.070312 L270.785156,254.453125 C269.785151,253.437495 268.714849,252.45313 267.574219,251.5 Z" id="化学结构式-|-化学反应式" fill="#C1C1C1"></path>
            <path d="M88.3046875,232.253906 L88.3046875,195.300781 L123.617188,195.300781 L123.617188,232.214844 L118.226562,232.214844 L118.226562,230.691406 L93.6953125,230.691406 L93.6953125,232.253906 L88.3046875,232.253906 Z M116.46875,202.136719 L116.46875,205.339844 C115.101556,207.188811 113.291678,208.82942 111.039062,210.261719 C113.148448,210.834638 115.544257,211.283853 118.226562,211.609375 L118.226562,200.027344 L106.351562,200.027344 C105.869789,200.743493 105.355471,201.446611 104.808594,202.136719 L116.46875,202.136719 Z M100.960938,200.027344 L93.6953125,200.027344 L93.6953125,206.804688 C96.963558,204.656239 99.3854088,202.397147 100.960938,200.027344 Z M106.175781,208.503906 C107.998707,207.657548 109.437495,206.707037 110.492188,205.652344 L102.09375,205.652344 C103.148443,206.733078 104.509106,207.68359 106.175781,208.503906 Z M96.2734375,209.832031 C95.5963508,209.08984 94.7369844,208.256515 93.6953125,207.332031 L93.6953125,212 C96.6901191,211.492185 99.3333219,210.893233 101.625,210.203125 C100.648433,209.473955 99.7695352,208.692713 98.9882812,207.859375 C98.128902,208.536462 97.2239631,209.194007 96.2734375,209.832031 Z M96.4296875,218.855469 C103.304722,219.766932 109.776011,220.730464 115.84375,221.746094 L114.75,225.964844 L118.226562,225.964844 L118.226562,212.078125 C117.653643,213.028651 116.963546,214.207024 116.15625,215.613281 C112.289043,214.962236 108.942722,214.018235 106.117188,212.78125 C104.671868,213.36719 103.115894,213.901039 101.449219,214.382812 C105.772157,214.92969 109.997375,215.548174 114.125,216.238281 L113.34375,219.949219 C109.046854,219.194007 104.229193,218.451827 98.890625,217.722656 L99.4960938,214.910156 C98.2330666,215.222658 96.9114652,215.509113 95.53125,215.769531 C95.0494768,214.675776 94.4375037,213.529954 93.6953125,212.332031 L93.6953125,225.964844 L114.554688,225.964844 C109.255182,224.884109 102.848996,223.881515 95.3359375,222.957031 L96.4296875,218.855469 Z M144.203125,193.699219 L149.710938,193.699219 C149.216143,194.545577 148.688805,195.365881 148.128906,196.160156 L159.789062,196.160156 L159.789062,199.558594 L157.425781,202.214844 L163.734375,202.214844 L163.734375,212.214844 L160.941406,212.214844 L163.890625,215.808594 L159.828125,218.054688 C161.312507,221.765644 163.291654,224.636709 165.765625,226.667969 C165.218747,227.188805 163.994801,228.555979 162.09375,230.769531 C159.789051,228.43879 157.861987,224.845076 156.3125,219.988281 L155.023438,220.691406 C155.34896,222.032559 155.511719,223.458326 155.511719,224.96875 C155.511719,229.656273 153.68231,232.045572 150.023438,232.136719 L145.375,232.136719 C145.140624,230.938796 144.867189,229.643236 144.554688,228.25 C142.458323,229.682299 140.127617,230.951817 137.5625,232.058594 C136.781246,229.792957 136.260418,228.347659 136,227.722656 C141.429715,226.055981 146.019513,223.341165 149.769531,219.578125 C149.60026,219.122394 149.404949,218.660159 149.183594,218.191406 C145.993474,221.199234 142.250021,223.582022 137.953125,225.339844 C137.510414,224.063796 136.989586,222.735684 136.390625,221.355469 C141.299504,219.975254 145.186184,218.223969 148.050781,216.101562 C147.855468,215.763019 147.640626,215.417971 147.40625,215.066406 C144.919258,216.641935 141.612,218.009109 137.484375,219.167969 C137.041664,218.048171 136.416671,216.72006 135.609375,215.183594 C139.59377,214.441403 142.660146,213.451829 144.808594,212.214844 L138.265625,212.214844 L138.265625,205.164062 C137.406246,204.2526 136.533859,203.373702 135.648438,202.527344 C139.424498,199.792955 142.276032,196.850276 144.203125,193.699219 Z M142.835938,202.214844 L151.742188,202.214844 L153.929688,199.753906 L145.277344,199.753906 C144.49609,200.613286 143.682296,201.43359 142.835938,202.214844 Z M142.601562,208.464844 L148.402344,208.464844 C148.727866,207.800778 148.98177,206.967453 149.164062,205.964844 L142.601562,205.964844 L142.601562,208.464844 Z M159.398438,208.464844 L159.398438,205.964844 L153.558594,205.964844 C153.389322,206.850265 153.17448,207.68359 152.914062,208.464844 L159.398438,208.464844 Z M160.765625,212.214844 L150.84375,212.214844 L150.550781,212.546875 C151.774746,213.848965 152.77734,215.24218 153.558594,216.726562 C156.032564,215.372389 158.434884,213.868498 160.765625,212.214844 Z M150.648438,222.878906 C149.216139,224.519539 147.588551,226.01692 145.765625,227.371094 C147.223966,227.514324 148.291663,227.585938 148.96875,227.585938 C150.218756,227.585938 150.84375,226.694019 150.84375,224.910156 C150.84375,224.337237 150.778646,223.66016 150.648438,222.878906 Z M132.40625,193.972656 L137.171875,194.792969 C136.611976,197.266939 135.947921,199.708321 135.179688,202.117188 L135.179688,232.019531 L130.492188,232.019531 L130.492188,213.796875 C129.671871,215.476571 128.799484,217.136711 127.875,218.777344 C127.640624,217.162752 127.184899,214.727881 126.507812,211.472656 C129.346368,205.535127 131.312495,199.701852 132.40625,193.972656 Z M173.226562,193.972656 C174.893237,196.186209 176.624991,198.595039 178.421875,201.199219 L173.421875,204.324219 C171.859367,201.615872 170.270841,199.063814 168.65625,196.667969 L173.226562,193.972656 Z M180.609375,195.886719 L202.640625,195.886719 L202.640625,217.019531 L180.609375,217.019531 L180.609375,195.886719 Z M197.25,212.253906 L197.25,200.652344 L186,200.652344 L186,212.253906 L197.25,212.253906 Z M179.945312,217.722656 C180.20573,220.170585 180.505207,222.097649 180.84375,223.503906 C177.171857,226.238295 174.411468,228.542959 172.5625,230.417969 L169.789062,226.824219 C170.33594,225.990881 170.622396,224.923184 170.648438,223.621094 L170.648438,211.042969 L166.78125,211.042969 L166.78125,205.769531 L176,205.769531 L176,220.925781 L179.945312,217.722656 Z M185.648438,218.269531 L190.257812,221.316406 C187.263006,225.352885 184.255223,229.102847 181.234375,232.566406 C179.932285,231.368484 178.447925,230.131517 176.78125,228.855469 C179.880224,225.912746 182.835923,222.384135 185.648438,218.269531 Z M197.09375,218.308594 C200.088557,221.667986 203.005194,225.196596 205.84375,228.894531 L201,232.332031 C198.369779,228.477845 195.62241,224.740904 192.757812,221.121094 L197.09375,218.308594 Z M227.640625,224.089844 C227.666667,228.95966 225.583354,231.420573 221.390625,231.472656 C220.635413,231.498698 219.164073,231.53776 216.976562,231.589844 C216.690103,229.532542 216.234378,227.579436 215.609375,225.730469 C217.56251,225.834636 218.929684,225.886719 219.710938,225.886719 C221.48178,225.860677 222.367188,224.936207 222.367188,223.113281 C222.367188,222.904947 222.40625,221.147152 222.484375,217.839844 L217.523438,217.839844 C216.6901,224.141959 214.307311,229.011702 210.375,232.449219 C209.151036,230.834627 207.822924,229.259122 206.390625,227.722656 C209.385432,225.378895 211.286454,222.084657 212.09375,217.839844 L207.328125,217.839844 L207.328125,213.308594 L212.601562,213.308594 C212.679688,212.162755 212.731771,211.264326 212.757812,210.613281 L217.992188,210.613281 C217.966146,211.238284 217.927084,212.136713 217.875,213.308594 L227.757812,213.308594 C227.757812,216.433609 227.71875,220.027323 227.640625,224.089844 Z M238.148438,194.167969 L243.382812,194.167969 L243.382812,225.964844 C243.382812,229.923197 241.781266,231.941406 238.578125,232.019531 C237.744788,232.123698 235.609392,232.188802 232.171875,232.214844 C231.989582,231.069005 231.546879,229.233086 230.84375,226.707031 C233.057303,226.759115 234.85416,226.772136 236.234375,226.746094 C237.510423,226.667968 238.148438,225.925788 238.148438,224.519531 L238.148438,194.167969 Z M230.0625,197.996094 L235.0625,197.996094 L235.0625,222.957031 L230.0625,222.957031 L230.0625,197.996094 Z M222.09375,199.949219 L213.578125,199.949219 L213.578125,204.871094 L222.09375,204.871094 L222.09375,199.949219 Z M227.09375,209.558594 L208.421875,209.558594 L208.421875,195.261719 L227.09375,195.261719 L227.09375,209.558594 Z" id="图像识别" fill="#C1C1C1"></path>
            <path d="M63.7207031,231 L55.9863281,231 L53.4941406,223.373047 L41.3984375,223.373047 L38.9492188,231 L31.2578125,231 L43.4394531,197.720703 L51.7753906,197.720703 L63.7207031,231 Z M51.8183594,217.894531 L48.0371094,206.357422 C47.7936186,205.626949 47.6217453,204.660162 47.5214844,203.457031 L47.328125,203.457031 C47.2421871,204.430994 47.0488296,205.369136 46.7480469,206.271484 L42.9453125,217.894531 L51.8183594,217.894531 Z M66.6210938,199.568359 C66.6210938,198.508458 66.9970666,197.645511 67.7490234,196.979492 C68.5009803,196.313473 69.4641868,195.980469 70.6386719,195.980469 C71.8418029,195.980469 72.8157515,196.320635 73.5605469,197.000977 C74.3053423,197.681319 74.6777344,198.537104 74.6777344,199.568359 C74.6777344,200.613938 74.2981809,201.484046 73.5390625,202.178711 C72.7799441,202.873376 71.8131569,203.220703 70.6386719,203.220703 C69.4785098,203.220703 68.518884,202.869795 67.7597656,202.167969 C67.0006472,201.466142 66.6210938,200.599615 66.6210938,199.568359 Z M67.1367188,231 L67.1367188,207.238281 L74.0546875,207.238281 L74.0546875,231 L67.1367188,231 Z" id="Ai" fill="#F4CE39"></path>
            <path d="M140.823624,172.147247 C132.36062,172.147247 125.5,165.286627 125.5,156.823624 C125.5,148.36062 132.36062,141.5 140.823624,141.5 C149.286627,141.5 156.147247,148.36062 156.147247,156.823624 C156.147247,165.286627 149.286627,172.147247 140.823624,172.147247 Z M140.823624,169.147247 C147.629773,169.147247 153.147247,163.629773 153.147247,156.823624 C153.147247,150.017474 147.629773,144.5 140.823624,144.5 C134.017474,144.5 128.5,150.017474 128.5,156.823624 C128.5,163.629773 134.017474,169.147247 140.823624,169.147247 Z" id="Oval-4-Copy-2" fill="#F4CE39" fill-rule="nonzero"></path>
            <path d="M199.823624,172.147247 C191.36062,172.147247 184.5,165.286627 184.5,156.823624 C184.5,148.36062 191.36062,141.5 199.823624,141.5 C208.286627,141.5 215.147247,148.36062 215.147247,156.823624 C215.147247,165.286627 208.286627,172.147247 199.823624,172.147247 Z M199.823624,169.147247 C206.629773,169.147247 212.147247,163.629773 212.147247,156.823624 C212.147247,150.017474 206.629773,144.5 199.823624,144.5 C193.017474,144.5 187.5,150.017474 187.5,156.823624 C187.5,163.629773 193.017474,169.147247 199.823624,169.147247 Z" id="Oval-4-Copy-3" fill="#F4CE39" fill-rule="nonzero" transform="translate(199.823624, 156.823624) scale(-1, 1) translate(-199.823624, -156.823624) "></path>
            <path d="M93,129.812684 L91.358921,127.138112 L93,127.971927 L93,129.812684 Z M93,80.3362788 L134.347824,56.4641016 L175.695647,80.3362788 L175.695647,100.122417 L178.695647,100.122417 L178.695647,78.604228 L134.347824,53 L90,78.604228 L90,129.812684 L122.255122,146.201163 L123.614043,143.526591 L93,127.971927 L93,80.3362788 Z M93,78.604228 L91.5,81.2023042 L93,80.3362788 L93,78.604228 Z M135.847824,55.5980762 L132.847824,55.5980762 L134.347824,56.4641016 L135.847824,55.5980762 Z M177.195647,81.2023042 L175.695647,78.604228 L175.695647,80.3362788 L177.195647,81.2023042 Z M175.695647,78.604228 L177.195647,81.2023042 L175.695647,80.3362788 L175.695647,78.604228 Z M175.695647,100.122417 L178.695647,100.122417 L178.695647,78.604228 L134.347824,53 L90,78.604228 L90,129.812684 L122.255122,146.201163 L123.614043,143.526591 L93,127.971927 L93,80.3362788 L134.347824,56.4641016 L175.695647,80.3362788 L175.695647,100.122417 Z M135.847824,55.5980762 L132.847824,55.5980762 L134.347824,56.4641016 L135.847824,55.5980762 Z M93,78.604228 L91.5,81.2023042 L93,80.3362788 L93,78.604228 Z M91.358921,127.138112 L93,129.812684 L93,127.971927 L91.358921,127.138112 Z" id="Polygon-5" fill="#C09D45" fill-rule="nonzero"></path>
            <polygon id="Line-2" fill="#F4CE39" fill-rule="nonzero" points="193.094077 145.638204 190.816308 147.590578 137.884928 85.8373022 140.162698 83.884928"></polygon>
            <polygon id="Line-2-Copy" fill="#F4CE39" fill-rule="nonzero" transform="translate(175.489503, 115.737753) scale(-1, 1) translate(-175.489503, -115.737753) " points="203.094077 145.638204 200.816308 147.590578 147.884928 85.8373022 150.162698 83.884928"></polygon>
            <path d="M138.900474,14.4245797 L138.900474,30.5052497 M179.211047,21.568453 L167.398036,43.7854955 M207.227326,46.2152185 L194.054813,55.4387119 M61.2488626,114.293376 L76.2614614,108.530579 M53.6271779,78.3038895 L78.6019785,81.3704094 M70.5736211,46.2152185 L83.7461349,55.4387119 M100.277442,21.108793 L112.090453,43.3258354" id="Line-3" stroke="#F4CE39" stroke-width="2" stroke-linecap="square" transform="translate(130.972855, 66.073075) rotate(10.000000) translate(-130.972855, -66.073075) "></path>
        </g>
    </g>
</svg>