<svg id="图层_40" data-name="图层 40" xmlns="http://www.w3.org/2000/svg" viewBox="0 0 163.59 438.61" width="165" height="440">
    <title>玻璃仪器39</title><g stroke="#000000" fill="#000000" stroke-width="0.5324" transform="translate(-680.28 -363.41)">
    <path d="M843.87,757.81l0-.15c-.67-2.38-3.14-4.49-6.61-5.66-37-12.33-79-9.88-99.12-8.71-3.69.22-6.61.39-8.41.39-5.31.31-16.81-2.25-20.53-3.65l-.55-.21a57.69,57.69,0,0,1-9.53-4.38l0,0,0-367.83a4,4,0,0,0-1.08-3,4.53,4.53,0,0,0-3.12-1.21,4.19,4.19,0,0,0-4.18,4.19l0,367.49-.07,0c-.65.28-6.42,2.17-6.39,4,0,.1,0,.63-.09,1.4-.15,2.26-.44,6.46-.44,8.7a3.06,3.06,0,0,0,1.66,2.31,38.13,38.13,0,0,0,4.72,2,20.82,20.82,0,0,0-6.3,6l-.12.18a18.06,18.06,0,0,0-.92,1.6l-.16.32q-.39.81-.71,1.67l-.11.32c-.07.19-.14.38-.2.58s-.19.67-.27,1c0,.13-.07.25-.1.37-.13.58-.23,1.16-.31,1.76,0,.11,0,.22-.06.33V768a23.26,23.26,0,0,0-.11,2.88l-.4,10.61c.15,7.37,2.76,11.67,6.72,17.37a6.9,6.9,0,0,0,5.61,3.13,6.06,6.06,0,0,0,3.07-.83,6.78,6.78,0,0,0,3.37-5.42l1-5.66a6.22,6.22,0,0,0,.21-.82,5.69,5.69,0,0,0,.08-.82h0s0,0,0,0a5.26,5.26,0,0,0,0-.85v-.07a4.9,4.9,0,0,0-.16-.7l0-.16a4.71,4.71,0,0,0-.3-.69l-.07-.12a4.71,4.71,0,0,0-.45-.66h0l0-.06-.84-1-.23-.29c-.25-.32-.48-.63-.7-.94l-.17-.24c-.22-.32-.42-.64-.61-1l-.14-.23c-.19-.33-.36-.65-.51-1l-.06-.13c6.3-7.62,31.94-13.58,65.83-15.25,32.92-1.62,61.91,1.33,70.5,7.17a9,9,0,0,0,6.74,1.57,6.31,6.31,0,0,0,4.11-2.62,3.18,3.18,0,0,0,.5-2.1Zm-149-393.4a3.5,3.5,0,0,1,2.4.92,3.05,3.05,0,0,1,.79,2.27l0,371.17c0,.46-1.32,1.11-3.22,1a6.12,6.12,0,0,1-2.38-.53c-.47-.23-.77-.52-.76-.75v0l0-370.93A3.19,3.19,0,0,1,694.82,364.41Zm-4.15,371.75v2.37h0c0,.64.45,1.23,1.31,1.66a7,7,0,0,0,2.79.63h.32c2.22,0,3.89-.84,3.94-2v-2.24a57.37,57.37,0,0,0,9.23,4.21l.55.21c3.78,1.42,15.49,4,20.91,3.71,1.81,0,4.74-.17,8.44-.39,20.1-1.17,61.94-3.61,98.75,8.66,3.67,1.23,5.47,3.33,5.95,4.91l0,2.27-.15-.1a5.33,5.33,0,0,1-3.47,2.2,8,8,0,0,1-6-1.41c-17.83-12.12-106.56-9.51-131.86,3.88-5,2.67-7.61,5.69-7.61,9a16.79,16.79,0,0,0,1.06,6.48l0,0,.06,0,.06.15h0c0,.07.07.14.11.22q.19.42.4.83c.12.24.26.47.4.71l.28.45c.19.3.4.6.61.91l.36.49.56.73c.28.35.56.7.87,1.07h0l0,0a3.68,3.68,0,0,1,.41.63c0,.06.06.13.09.19a3.78,3.78,0,0,1,.21.59l0,.15a4.1,4.1,0,0,1,.09.69s0,.1,0,.15,0,.16,0,.24l-.24,1.34a5.94,5.94,0,0,1-2.62,3.24c-2.47,1.42-5.56.58-7.36-2-4.7-6.76-7.27-13.88-7.43-20.1l.11-2.86a19.41,19.41,0,0,1,.33-2.16v-.06q.16-.71.37-1.39t.37-1.07v0q.19-.5.41-1l.11-.22c.12-.25.24-.5.37-.74l.2-.35c.11-.19.22-.38.34-.57l.29-.45.29-.43.39-.53.24-.31.5-.6.17-.2c.2-.22.41-.45.63-.66l.09-.09a22.52,22.52,0,0,1,4.57-3.46h0a31.49,31.49,0,0,1,4.76-2.24c2.08-.78,4.33-2.25,4.39-4,0-.79-.39-1.93-2.51-2.87s-4.28-1.69-6.43-2.45a53.51,53.51,0,0,1-5.53-2.15c-.64-.33-.94-.66-.93-1C685.83,737.9,689.46,736.61,690.68,736.16Zm-.12,16.45a37.62,37.62,0,0,1-4.72-1.94c-.53-.32-1.14-.89-1.14-1.44,0-2.21.28-6.39.43-8.64h0a4.46,4.46,0,0,0,.6.36,54,54,0,0,0,5.65,2.2c2.13.75,4.34,1.52,6.36,2.42.89.39,1.94,1,1.91,1.93,0,1-1.53,2.31-3.74,3.13a32.77,32.77,0,0,0-4.72,2.2Zm7.5,43.06a5.79,5.79,0,0,1-2.87,4.65c-2.47,1.43-5.56.59-7.36-2-3.86-5.56-6.4-9.73-6.54-16.79l.18-4.7a43.79,43.79,0,0,0,6.83,14.81,6.91,6.91,0,0,0,5.63,3.13,6.09,6.09,0,0,0,3.05-.82,6.74,6.74,0,0,0,1.63-1.33Zm144.23-25a5.31,5.31,0,0,1-3.46,2.19,8,8,0,0,1-6-1.41c-18.83-12.8-121.29-9.76-137.3,7.87a16.77,16.77,0,0,1-.79-5.6c0-2.88,2.38-5.6,7.08-8.09,14.18-7.51,44.88-10.83,68.89-11.44,29.82-.75,54.14,2.19,61.94,7.5a9,9,0,0,0,6.73,1.56,6.51,6.51,0,0,0,3.41-1.78l-.17,7.69A2.27,2.27,0,0,1,842.29,770.64Z"
          /></g>
</svg>