<?xml version="1.0" encoding="utf-8"?>
<!-- Generator: Adobe Illustrator 18.0.0, SVG Export Plug-In . SVG Version: 6.00 Build 0)  -->
<!DOCTYPE svg PUBLIC "-//W3C//DTD SVG 1.1//EN" "http://www.w3.org/Graphics/SVG/1.1/DTD/svg11.dtd">
<svg version="1.1" xmlns="http://www.w3.org/2000/svg" xmlns:xlink="http://www.w3.org/1999/xlink" x="0px" y="0px" width="160" height="268"
	 viewBox="0 0 160 268" enable-background="new 0 0 160 268" xml:space="preserve">
<g id="图层_5">
	<g>
		<linearGradient id="SVGID_9_" gradientUnits="userSpaceOnUse" x1="79.8902" y1="179.4799" x2="80.171" y2="265.1792">
			<stop  offset="0.1828" style="stop-color:#99FFFF;stop-opacity:0.1"/>
			<stop  offset="0.5834" style="stop-color:#45C6FF;stop-opacity:0.2113"/>
			<stop  offset="0.9028" style="stop-color:#0097FF;stop-opacity:0.3"/>
		</linearGradient>
		<path fill="url(#SVGID_9_)" stroke="none" d="M19.1,201.2c-1.5,38.9,27.3,65.5,60.8,65.5c32.8,0,62.2-25.8,61-65.4c0,0-0.2-1.8-1.5-3.1
			c-4.3-4.2-34.1-7.8-59.1-7.8C50.1,190.3,19.7,193.9,19.1,201.2z"/>
		
			<radialGradient id="SVGID_10_" cx="79.8841" cy="198.9093" r="43.2117" gradientTransform="matrix(1 0 0 0.4 0 119.3456)" gradientUnits="userSpaceOnUse">
			<stop  offset="0.2849" style="stop-color:#99FFFF;stop-opacity:0.1"/>
			<stop  offset="1" style="stop-color:#0097FF;stop-opacity:0.1"/>
		</radialGradient>
		<path fill="url(#SVGID_10_)" stroke="none" d="M140.2,198.9c0,5.3-27.2,9.6-60.8,9.6s-59.9-4.3-59.9-9.6c0-5.3,26.3-9.5,59.9-9.5
			S140.2,193.6,140.2,198.9z"/>
	</g>
	<g id="Spline_11_">
		<line shape-rendering="auto" fill="none" stroke="#000000" stroke-width="0.2549" x1="76.5" y1="49.2" x2="77.1" y2="48"/>
		<line shape-rendering="auto" fill="none" stroke="#000000" stroke-width="0.2549" x1="84.6" y1="49.3" x2="86" y2="48.6"/>
		<line shape-rendering="auto" fill="none" stroke="#000000" stroke-width="0.2549" x1="77.5" y1="51.1" x2="76.5" y2="50.1"/>
		<line shape-rendering="auto" fill="none" stroke="#000000" stroke-width="0.2549" x1="92.9" y1="49.8" x2="92.1" y2="48.7"/>
		<line shape-rendering="auto" fill="none" stroke="#000000" stroke-width="0.2549" x1="64.2" y1="39.3" x2="64.8" y2="40.9"/>
		<line shape-rendering="auto" fill="none" stroke="#000000" stroke-width="0.2549" x1="64.6" y1="31.2" x2="63.4" y2="31.9"/>
		<line shape-rendering="auto" fill="none" stroke="#000000" stroke-width="0.2549" x1="79.5" y1="23.6" x2="80.7" y2="22.8"/>
		<line shape-rendering="auto" fill="none" stroke="#000000" stroke-width="0.2549" x1="72" y1="23.6" x2="71.1" y2="22.4"/>
		<line shape-rendering="auto" fill="none" stroke="#000000" stroke-width="0.2549" x1="68.9" y1="28.7" x2="68.3" y2="27.3"/>
		<line shape-rendering="auto" fill="none" stroke="#000000" stroke-width="0.2549" x1="68" y1="39.2" x2="66.7" y2="38.2"/>
		<line shape-rendering="auto" fill="none" stroke="#000000" stroke-width="0.2549" x1="66.2" y1="32.8" x2="66.9" y2="31.1"/>
		<line shape-rendering="auto" fill="none" stroke="#000000" stroke-width="0.2549" x1="66.7" y1="24.2" x2="65.9" y2="23.1"/>
		<line shape-rendering="auto" fill="none" stroke="#000000" stroke-width="0.2549" x1="91" y1="47" x2="91.9" y2="45.5"/>
		<line shape-rendering="auto" fill="none" stroke="#000000" stroke-width="0.2549" x1="81.4" y1="47.6" x2="82.3" y2="46.5"/>
		<line shape-rendering="auto" fill="none" stroke="#000000" stroke-width="0.2549" x1="71.4" y1="42.6" x2="70.4" y2="41.5"/>
		<line shape-rendering="auto" fill="none" stroke="#000000" stroke-width="0.2549" x1="91.4" y1="36.7" x2="90.1" y2="38"/>
		<line shape-rendering="auto" fill="none" stroke="#000000" stroke-width="0.2549" x1="88" y1="29.2" x2="89.9" y2="29.8"/>
		<line shape-rendering="auto" fill="none" stroke="#000000" stroke-width="0.2549" x1="84.6" y1="23.4" x2="86" y2="22.8"/>
		<line shape-rendering="auto" fill="none" stroke="#000000" stroke-width="0.2549" x1="77.3" y1="26" x2="76.3" y2="24.9"/>
		<line shape-rendering="auto" fill="none" stroke="#000000" stroke-width="0.2549" x1="74.5" y1="27.1" x2="72.4" y2="26.5"/>
		<line shape-rendering="auto" fill="none" stroke="#000000" stroke-width="0.2549" x1="73.9" y1="29.4" x2="72.4" y2="28.2"/>
		<line shape-rendering="auto" fill="none" stroke="#000000" stroke-width="0.2549" x1="83.1" y1="28.5" x2="82.5" y2="27.1"/>
		<line shape-rendering="auto" fill="none" stroke="#000000" stroke-width="0.2549" x1="87.9" y1="27.8" x2="87.1" y2="26.7"/>
		<line shape-rendering="auto" fill="none" stroke="#000000" stroke-width="0.2549" x1="83.8" y1="31.1" x2="82.7" y2="30.2"/>
		<line shape-rendering="auto" fill="none" stroke="#000000" stroke-width="0.2549" x1="86.2" y1="38.7" x2="87.2" y2="37.6"/>
		<line shape-rendering="auto" fill="none" stroke="#000000" stroke-width="0.2549" x1="89.1" y1="44.7" x2="87.8" y2="43.7"/>
		<line shape-rendering="auto" fill="none" stroke="#000000" stroke-width="0.2549" x1="84.2" y1="45.4" x2="82.9" y2="44.6"/>
		<line shape-rendering="auto" fill="none" stroke="#000000" stroke-width="0.2549" x1="85.8" y1="31.9" x2="85.8" y2="33.6"/>
		<line shape-rendering="auto" fill="none" stroke="#000000" stroke-width="0.2549" x1="77.5" y1="32.6" x2="78.5" y2="31.4"/>
		<line shape-rendering="auto" fill="none" stroke="#000000" stroke-width="0.2549" x1="69.9" y1="36.3" x2="69.9" y2="34.7"/>
		<line shape-rendering="auto" fill="none" stroke="#000000" stroke-width="0.2549" x1="76.4" y1="35.7" x2="75.2" y2="34.7"/>
		<line shape-rendering="auto" fill="none" stroke="#000000" stroke-width="0.2549" x1="82.3" y1="35.4" x2="81.2" y2="34.7"/>
		<line shape-rendering="auto" fill="none" stroke="#000000" stroke-width="0.2549" x1="83" y1="42.1" x2="83" y2="40.7"/>
		<line shape-rendering="auto" fill="none" stroke="#000000" stroke-width="0.2549" x1="79.9" y1="39.1" x2="80.6" y2="40.2"/>
		<line shape-rendering="auto" fill="none" stroke="#000000" stroke-width="0.2549" x1="68.4" y1="50.4" x2="69.7" y2="49.6"/>
		<line shape-rendering="auto" fill="none" stroke="#000000" stroke-width="0.2549" x1="73.2" y1="39.1" x2="72.6" y2="38"/>
		<line shape-rendering="auto" fill="none" stroke="#000000" stroke-width="0.2549" x1="74.8" y1="42.7" x2="75.4" y2="41.7"/>
		<line shape-rendering="auto" fill="none" stroke="#000000" stroke-width="0.2549" x1="78.5" y1="42.1" x2="77.3" y2="42.1"/>
		<line shape-rendering="auto" fill="none" stroke="#000000" stroke-width="0.2549" x1="75.6" y1="20.5" x2="75" y2="19"/>
		<line shape-rendering="auto" fill="none" stroke="#000000" stroke-width="0.2549" x1="95.3" y1="28.7" x2="94.7" y2="27.3"/>
		<line shape-rendering="auto" fill="none" stroke="#000000" stroke-width="0.2549" x1="93.1" y1="24.2" x2="92.3" y2="23.1"/>
		<line shape-rendering="auto" fill="none" stroke="#000000" stroke-width="0.2549" x1="62.7" y1="22" x2="63.6" y2="21.3"/>
		<line shape-rendering="auto" fill="none" stroke="#000000" stroke-width="0.2549" x1="64.1" y1="7" x2="65.1" y2="8.2"/>
		<line shape-rendering="auto" fill="none" stroke="#000000" stroke-width="0.2549" x1="64" y1="15.5" x2="62.5" y2="15.5"/>
		<line shape-rendering="auto" fill="none" stroke="#000000" stroke-width="0.2549" x1="68" y1="13.1" x2="66.7" y2="12"/>
		<line shape-rendering="auto" fill="none" stroke="#000000" stroke-width="0.2549" x1="66.2" y1="6.6" x2="66.9" y2="5"/>
		<line shape-rendering="auto" fill="none" stroke="#000000" stroke-width="0.2549" x1="91" y1="20.8" x2="91.9" y2="19.4"/>
		<line shape-rendering="auto" fill="none" stroke="#000000" stroke-width="0.2549" x1="81.4" y1="21.4" x2="82.3" y2="20.4"/>
		<line shape-rendering="auto" fill="none" stroke="#000000" stroke-width="0.2549" x1="71.4" y1="16.5" x2="70.4" y2="15.4"/>
		<line shape-rendering="auto" fill="none" stroke="#000000" stroke-width="0.2549" x1="91.4" y1="10.6" x2="90.1" y2="11.9"/>
		<line shape-rendering="auto" fill="none" stroke="#000000" stroke-width="0.2549" x1="74.9" y1="5" x2="73.9" y2="4.1"/>
		<line shape-rendering="auto" fill="none" stroke="#000000" stroke-width="0.2549" x1="89.9" y1="9.7" x2="88.4" y2="9.7"/>
		<line shape-rendering="auto" fill="none" stroke="#000000" stroke-width="0.2549" x1="90.3" y1="15.5" x2="88.8" y2="15.5"/>
		<line shape-rendering="auto" fill="none" stroke="#000000" stroke-width="0.2549" x1="83.6" y1="17.3" x2="85" y2="17.3"/>
		<line shape-rendering="auto" fill="none" stroke="#000000" stroke-width="0.2549" x1="86.4" y1="9.2" x2="84.5" y2="10.2"/>
		<line shape-rendering="auto" fill="none" stroke="#000000" stroke-width="0.2549" x1="79.4" y1="4.6" x2="80.6" y2="4.6"/>
		<line shape-rendering="auto" fill="none" stroke="#000000" stroke-width="0.2549" x1="76.4" y1="9.6" x2="75.2" y2="8.6"/>
		<line shape-rendering="auto" fill="none" stroke="#000000" stroke-width="0.2549" x1="66.7" y1="50.1" x2="65.9" y2="48.9"/>
		<line shape-rendering="auto" fill="none" stroke="#000000" stroke-width="0.2549" x1="95.3" y1="36.6" x2="93.8" y2="36.6"/>
		<line shape-rendering="auto" fill="none" stroke="#000000" stroke-width="0.2549" x1="93.4" y1="35.7" x2="92" y2="34.9"/>
		<line shape-rendering="auto" fill="none" stroke="#000000" stroke-width="0.2549" x1="65.1" y1="10.6" x2="63.8" y2="11.9"/>
		<line shape-rendering="auto" fill="none" stroke="#000000" stroke-width="0.2549" x1="69.9" y1="10.1" x2="69.9" y2="8.6"/>
		<line shape-rendering="auto" fill="none" stroke="#000000" stroke-width="0.2549" x1="81.4" y1="11.9" x2="82.3" y2="10.7"/>
		<line shape-rendering="auto" fill="none" stroke="#000000" stroke-width="0.2549" x1="80" y1="18.8" x2="81.2" y2="18.2"/>
		<line shape-rendering="auto" fill="none" stroke="#000000" stroke-width="0.2549" x1="78.3" y1="11.1" x2="79.2" y2="10"/>
		<line shape-rendering="auto" fill="none" stroke="#000000" stroke-width="0.2549" x1="70.2" y1="13.7" x2="70.2" y2="12.2"/>
		<line shape-rendering="auto" fill="none" stroke="#000000" stroke-width="0.2549" x1="72.9" y1="18.1" x2="74.1" y2="17.4"/>
		<line shape-rendering="auto" fill="none" stroke="#000000" stroke-width="0.2549" x1="77.6" y1="18.4" x2="76.3" y2="17.5"/>
		<line shape-rendering="auto" fill="none" stroke="#000000" stroke-width="0.2549" x1="94.4" y1="13.1" x2="93.1" y2="12"/>
		<line shape-rendering="auto" fill="none" stroke="#000000" stroke-width="0.2549" x1="92.3" y1="7.2" x2="93" y2="5.5"/>
		<line shape-rendering="auto" fill="none" stroke="#000000" stroke-width="0.2549" x1="96.3" y1="9.3" x2="97" y2="7.9"/>
		<path stroke="#000000" fill="#000000" stroke-width="0.5324"  d="M107.3,150.4c-9.4-4.7-9.1-12.8-9.1-13S98,57.9,98,57.9s-0.2-5.4-2.3-7.1l2-39.3c0,0-0.1-1,0.6-1.4
			c1.1-0.7,1.8-1.2,1.8-1.9c0-2.6-9.3-4.7-20.7-4.7c-11.4,0-20.7,2.1-20.7,4.7c0,0.7,0.7,1.3,1.8,2c0.6,0.3,0.5,1.4,0.5,1.4
			l2.3,39.4c-2.1,1.7-2.1,7.2-2.1,7.2s0,79.1,0,79.4c0,0.7-0.8,9.4-8.2,13c-20.3,10-34.3,30.9-34.3,55.1c0,33.9,27.5,61.4,61.4,61.4
			c33.9,0,61.5-27.5,61.5-61.4C141.5,181.3,127.5,160.5,107.3,150.4z M95.1,51.5c0.2,0.1,0.3,0.3,0.5,0.5c-1.4,1-6.9,2.3-15.7,2.3
			c-9.6,0-15.3-1.6-16-2.6c0,0,0,0,0,0c0.1-0.1,0.1-0.2,0.2-0.2l0.4-0.3l0-0.4c2.3-1,7.7-1.9,15.2-1.9c7.5,0,12.8,0.9,15.2,1.9
			l0,0.3L95.1,51.5z M79.4,4.4c7.3,0,12.6,0.8,15.9,1.7c-2,1-8.2,1.8-15.6,1.8c-7.6,0-14-0.8-15.8-1.9C67.1,5.1,72.3,4.4,79.4,4.4z
			 M61,9.2c-1.3-0.7-1.3-1.1-1.3-1.1c0-0.4,1.1-1.1,3.1-1.8C64.9,8.6,75,8.9,79.6,8.9c4.6,0,14.4-0.3,16.8-2.4
			c1.8,0.6,2.7,1.2,2.7,1.6c0,0.1-0.1,0.3-1.3,1.1c-0.5,0.3-0.8,0.8-0.9,1.2c-3.2,1.3-9.5,2.4-17.6,2.4c-7.9,0-14-1-17.3-2.3
			C61.8,10,61.5,9.5,61,9.2z M62,11.4c0-0.1,0-0.3-0.1-0.6c3.5,1.3,9.9,2.2,17.2,2.2c7.5,0,14.1-1,17.6-2.4
			c-0.1,0.3-0.1,0.6-0.1,0.8l-2,39.1c-2.7-1.1-8.5-1.9-15.2-1.9c-6.7,0-12.5,0.8-15.2,1.9L62,11.4z M80,265.9
			c-33.3,0-60.4-27.1-60.4-60.4c0-23.2,12.9-43.9,33.8-54.2c8.3-3.9,8.8-13.7,8.8-13.8c0-0.4,0-78.6,0-79.4c0-1.5,0.3-3.9,1.1-5.4
			c1.8,1.6,8.5,2.7,16.6,2.7c7.5,0,13.9-1,16.2-2.4c0.7,1.7,1,4,1,5c0,0,0.2,79.2,0.2,79.5c0,0.9,0.1,9.1,9.6,13.9
			c20.8,10.4,33.7,31.2,33.7,54.2C140.5,238.8,113.4,265.9,80,265.9z"/>
	</g>
</g>
</svg>
