<?xml version="1.0" encoding="utf-8"?>
<!-- Generator: Adobe Illustrator 18.0.0, SVG Export Plug-In . SVG Version: 6.00 Build 0)  -->
<!DOCTYPE svg PUBLIC "-//W3C//DTD SVG 1.1//EN" "http://www.w3.org/Graphics/SVG/1.1/DTD/svg11.dtd">
<svg version="1.1" xmlns="http://www.w3.org/2000/svg" xmlns:xlink="http://www.w3.org/1999/xlink" x="0px" y="0px"  width="160" height="268"
	 viewBox="0 0 160 268" enable-background="new 0 0 160 268" xml:space="preserve">
<g id="图层_6">
	<g>
		<linearGradient id="SVGID_11_" gradientUnits="userSpaceOnUse" x1="78.0006" y1="200.1105" x2="78.2135" y2="265.0773">
			<stop  offset="0.1828" style="stop-color:#99FFFF;stop-opacity:0.1"/>
			<stop  offset="0.5834" style="stop-color:#45C6FF;stop-opacity:0.2113"/>
			<stop  offset="0.9028" style="stop-color:#0097FF;stop-opacity:0.3"/>
		</linearGradient>
		<path fill="url(#SVGID_11_)" stroke="none" d="M36.1,216.5c-2.6,30.7,18.7,49.7,41.8,49.7c22.6,0,45-17.9,42.2-49.6c0,0-0.1-1.4-1-2.3
			c-2.9-3.1-23.5-5.9-40.7-5.9C57.5,208.4,36.5,211,36.1,216.5z"/>
		
			<radialGradient id="SVGID_12_" cx="77.6394" cy="215.7784" r="32.4503" gradientTransform="matrix(0.9181 0 0 0.4 6.7136 129.467)" gradientUnits="userSpaceOnUse">
			<stop  offset="0.2849" style="stop-color:#99FFFF;stop-opacity:0.1"/>
			<stop  offset="1" style="stop-color:#0097FF;stop-opacity:0.1"/>
		</radialGradient>
		<path fill="url(#SVGID_12_)" stroke="none" d="M119.6,215.8c0,4-18.8,7.2-41.9,7.2s-41.3-3.3-41.3-7.2c0-4,18.1-7.1,41.3-7.1
			S119.6,211.8,119.6,215.8z"/>
	</g>
	<g id="Spline_260_">
		<line shape-rendering="auto" fill="none" stroke="#000000" stroke-width="0.2035" x1="77" y1="42" x2="77.6" y2="41"/>
		<line shape-rendering="auto" fill="none" stroke="#000000" stroke-width="0.2035" x1="70.6" y1="43" x2="71.6" y2="42.4"/>
		<line shape-rendering="auto" fill="none" stroke="#000000" stroke-width="0.2035" x1="83.6" y1="42.1" x2="84.6" y2="41.5"/>
		<line shape-rendering="auto" fill="none" stroke="#000000" stroke-width="0.2035" x1="77.9" y1="43.6" x2="77.1" y2="42.7"/>
		<line shape-rendering="auto" fill="none" stroke="#000000" stroke-width="0.2035" x1="90.1" y1="42.5" x2="89.5" y2="41.6"/>
		<line shape-rendering="auto" fill="none" stroke="#000000" stroke-width="0.2035" x1="67.3" y1="34.1" x2="67.7" y2="35.4"/>
		<line shape-rendering="auto" fill="none" stroke="#000000" stroke-width="0.2035" x1="67.5" y1="27.6" x2="66.6" y2="28.2"/>
		<line shape-rendering="auto" fill="none" stroke="#000000" stroke-width="0.2035" x1="79.4" y1="21.6" x2="80.4" y2="20.9"/>
		<line shape-rendering="auto" fill="none" stroke="#000000" stroke-width="0.2035" x1="73.5" y1="21.5" x2="72.7" y2="20.6"/>
		<line shape-rendering="auto" fill="none" stroke="#000000" stroke-width="0.2035" x1="71" y1="25.7" x2="70.5" y2="24.5"/>
		<line shape-rendering="auto" fill="none" stroke="#000000" stroke-width="0.2035" x1="70.3" y1="34.1" x2="69.2" y2="33.2"/>
		<line shape-rendering="auto" fill="none" stroke="#000000" stroke-width="0.2035" x1="68.9" y1="28.9" x2="69.4" y2="27.6"/>
		<line shape-rendering="auto" fill="none" stroke="#000000" stroke-width="0.2035" x1="69.3" y1="22.1" x2="68.6" y2="21.1"/>
		<line shape-rendering="auto" fill="none" stroke="#000000" stroke-width="0.2035" x1="88.6" y1="40.2" x2="89.4" y2="39.1"/>
		<line shape-rendering="auto" fill="none" stroke="#000000" stroke-width="0.2035" x1="80.9" y1="40.7" x2="81.7" y2="39.9"/>
		<line shape-rendering="auto" fill="none" stroke="#000000" stroke-width="0.2035" x1="73" y1="36.7" x2="72.2" y2="35.9"/>
		<line shape-rendering="auto" fill="none" stroke="#000000" stroke-width="0.2035" x1="88.9" y1="32.1" x2="87.9" y2="33.1"/>
		<line shape-rendering="auto" fill="none" stroke="#000000" stroke-width="0.2035" x1="86.3" y1="26.1" x2="87.7" y2="26.5"/>
		<line shape-rendering="auto" fill="none" stroke="#000000" stroke-width="0.2035" x1="83.6" y1="21.4" x2="84.6" y2="20.9"/>
		<line shape-rendering="auto" fill="none" stroke="#000000" stroke-width="0.2035" x1="77.7" y1="23.5" x2="76.9" y2="22.6"/>
		<line shape-rendering="auto" fill="none" stroke="#000000" stroke-width="0.2035" x1="75.5" y1="24.4" x2="73.8" y2="23.9"/>
		<line shape-rendering="auto" fill="none" stroke="#000000" stroke-width="0.2035" x1="75" y1="26.2" x2="73.8" y2="25.3"/>
		<line shape-rendering="auto" fill="none" stroke="#000000" stroke-width="0.2035" x1="82.4" y1="25.5" x2="81.9" y2="24.4"/>
		<line shape-rendering="auto" fill="none" stroke="#000000" stroke-width="0.2035" x1="86.2" y1="25" x2="85.5" y2="24"/>
		<line shape-rendering="auto" fill="none" stroke="#000000" stroke-width="0.2035" x1="82.9" y1="27.5" x2="82" y2="26.9"/>
		<line shape-rendering="auto" fill="none" stroke="#000000" stroke-width="0.2035" x1="84.8" y1="33.6" x2="85.6" y2="32.8"/>
		<line shape-rendering="auto" fill="none" stroke="#000000" stroke-width="0.2035" x1="87.1" y1="38.4" x2="86.1" y2="37.7"/>
		<line shape-rendering="auto" fill="none" stroke="#000000" stroke-width="0.2035" x1="83.2" y1="39" x2="82.2" y2="38.4"/>
		<line shape-rendering="auto" fill="none" stroke="#000000" stroke-width="0.2035" x1="84.5" y1="28.2" x2="84.5" y2="29.5"/>
		<line shape-rendering="auto" fill="none" stroke="#000000" stroke-width="0.2035" x1="77.9" y1="28.8" x2="78.6" y2="27.8"/>
		<line shape-rendering="auto" fill="none" stroke="#000000" stroke-width="0.2035" x1="71.8" y1="31.7" x2="71.8" y2="30.5"/>
		<line shape-rendering="auto" fill="none" stroke="#000000" stroke-width="0.2035" x1="77" y1="31.2" x2="76" y2="30.5"/>
		<line shape-rendering="auto" fill="none" stroke="#000000" stroke-width="0.2035" x1="81.7" y1="31" x2="80.8" y2="30.4"/>
		<line shape-rendering="auto" fill="none" stroke="#000000" stroke-width="0.2035" x1="82.3" y1="36.4" x2="82.3" y2="35.2"/>
		<line shape-rendering="auto" fill="none" stroke="#000000" stroke-width="0.2035" x1="79.8" y1="34" x2="80.4" y2="34.8"/>
		<line shape-rendering="auto" fill="none" stroke="#000000" stroke-width="0.2035" x1="74.4" y1="34" x2="73.9" y2="33"/>
		<line shape-rendering="auto" fill="none" stroke="#000000" stroke-width="0.2035" x1="75.7" y1="36.8" x2="76.2" y2="36"/>
		<line shape-rendering="auto" fill="none" stroke="#000000" stroke-width="0.2035" x1="78.7" y1="36.3" x2="77.7" y2="36.3"/>
		<line shape-rendering="auto" fill="none" stroke="#000000" stroke-width="0.2035" x1="76.3" y1="19.1" x2="75.8" y2="17.9"/>
		<line shape-rendering="auto" fill="none" stroke="#000000" stroke-width="0.2035" x1="92" y1="25.7" x2="91.6" y2="24.5"/>
		<line shape-rendering="auto" fill="none" stroke="#000000" stroke-width="0.2035" x1="90.3" y1="22.1" x2="89.7" y2="21.1"/>
		<line shape-rendering="auto" fill="none" stroke="#000000" stroke-width="0.2035" x1="66.1" y1="20.3" x2="66.7" y2="19.7"/>
		<line shape-rendering="auto" fill="none" stroke="#000000" stroke-width="0.2035" x1="67.2" y1="8.3" x2="67.9" y2="9.2"/>
		<line shape-rendering="auto" fill="none" stroke="#000000" stroke-width="0.2035" x1="67.1" y1="15.1" x2="65.9" y2="15.1"/>
		<line shape-rendering="auto" fill="none" stroke="#000000" stroke-width="0.2035" x1="70.3" y1="13.2" x2="69.2" y2="12.3"/>
		<line shape-rendering="auto" fill="none" stroke="#000000" stroke-width="0.2035" x1="68.9" y1="8" x2="69.4" y2="6.7"/>
		<line shape-rendering="auto" fill="none" stroke="#000000" stroke-width="0.2035" x1="88.6" y1="19.4" x2="89.4" y2="18.2"/>
		<line shape-rendering="auto" fill="none" stroke="#000000" stroke-width="0.2035" x1="80.9" y1="19.8" x2="81.7" y2="19"/>
		<line shape-rendering="auto" fill="none" stroke="#000000" stroke-width="0.2035" x1="73" y1="15.9" x2="72.2" y2="15"/>
		<line shape-rendering="auto" fill="none" stroke="#000000" stroke-width="0.2035" x1="88.9" y1="11.2" x2="87.9" y2="12.2"/>
		<line shape-rendering="auto" fill="none" stroke="#000000" stroke-width="0.2035" x1="75.8" y1="6.7" x2="75" y2="6"/>
		<line shape-rendering="auto" fill="none" stroke="#000000" stroke-width="0.2035" x1="87.7" y1="10.4" x2="86.5" y2="10.4"/>
		<line shape-rendering="auto" fill="none" stroke="#000000" stroke-width="0.2035" x1="88" y1="15.1" x2="86.9" y2="15.1"/>
		<line shape-rendering="auto" fill="none" stroke="#000000" stroke-width="0.2035" x1="82.7" y1="16.6" x2="83.9" y2="16.6"/>
		<line shape-rendering="auto" fill="none" stroke="#000000" stroke-width="0.2035" x1="84.9" y1="10.1" x2="83.5" y2="10.9"/>
		<line shape-rendering="auto" fill="none" stroke="#000000" stroke-width="0.2035" x1="79.4" y1="6.4" x2="80.4" y2="6.4"/>
		<line shape-rendering="auto" fill="none" stroke="#000000" stroke-width="0.2035" x1="77" y1="10.4" x2="76" y2="9.6"/>
		<line shape-rendering="auto" fill="none" stroke="#000000" stroke-width="0.2035" x1="69.3" y1="42.7" x2="68.6" y2="41.8"/>
		<line shape-rendering="auto" fill="none" stroke="#000000" stroke-width="0.2035" x1="92" y1="31.9" x2="90.8" y2="31.9"/>
		<line shape-rendering="auto" fill="none" stroke="#000000" stroke-width="0.2035" x1="90.5" y1="31.2" x2="89.5" y2="30.6"/>
		<line shape-rendering="auto" fill="none" stroke="#000000" stroke-width="0.2035" x1="68" y1="11.2" x2="66.9" y2="12.2"/>
		<line shape-rendering="auto" fill="none" stroke="#000000" stroke-width="0.2035" x1="71.8" y1="10.8" x2="71.8" y2="9.6"/>
		<line shape-rendering="auto" fill="none" stroke="#000000" stroke-width="0.2035" x1="81" y1="12.2" x2="81.7" y2="11.3"/>
		<line shape-rendering="auto" fill="none" stroke="#000000" stroke-width="0.2035" x1="79.8" y1="17.7" x2="80.8" y2="17.2"/>
		<line shape-rendering="auto" fill="none" stroke="#000000" stroke-width="0.2035" x1="78.5" y1="11.6" x2="79.2" y2="10.7"/>
		<line shape-rendering="auto" fill="none" stroke="#000000" stroke-width="0.2035" x1="72.1" y1="13.6" x2="72.1" y2="12.5"/>
		<line shape-rendering="auto" fill="none" stroke="#000000" stroke-width="0.2035" x1="74.2" y1="17.2" x2="75.2" y2="16.6"/>
		<line shape-rendering="auto" fill="none" stroke="#000000" stroke-width="0.2035" x1="77.9" y1="17.4" x2="76.9" y2="16.7"/>
		<line shape-rendering="auto" fill="none" stroke="#000000" stroke-width="0.2035" x1="91.4" y1="13.2" x2="90.3" y2="12.3"/>
		<line shape-rendering="auto" fill="none" stroke="#000000" stroke-width="0.2035" x1="89.7" y1="8.4" x2="90.2" y2="7.1"/>
		<line shape-rendering="auto" fill="none" stroke="#000000" stroke-width="0.2035" x1="92.9" y1="10.1" x2="93.4" y2="9.1"/>
	</g>
	<path stroke="#000000" fill="#000000" stroke-width="0.5324"  d="M94.8,151.8c0-2.6-0.1-104-0.1-104s-0.2-4.5-2-5.9l1.6-32.1c0,0-0.1-0.8,0.5-1.2c0.9-0.6,1.4-1,1.4-1.6
		c0-2.1-7.5-3.8-16.8-3.8c-9.3,0-16.8,1.7-16.8,3.8c0,0.6,0.5,1.1,1.5,1.6c0.4,0.2,0.4,1.1,0.4,1.1l1.5,32.1
		c-1.7,1.4-1.9,5.9-1.9,5.9s0,89.8,0,104c0,14.1-28.8,36.4-28.8,72.3c0,23.5,19.1,42.6,42.6,42.6c23.6,0,42.7-19.1,42.7-42.6
		C120.8,188.1,94.8,165.9,94.8,151.8z M79.5,4.2c5.9,0,10.3,0.7,12.9,1.4c-0.9,1-6.4,1.7-12.9,1.7c-6.6,0-12.1-0.7-13-1.7
		C69.2,4.9,73.6,4.2,79.5,4.2z M64.7,7.8c-0.9-0.5-1-0.7-1-0.7c0.1-0.3,0.7-0.7,1.9-1.1c1.2,2.1,9.1,2.4,13.9,2.4
		C84.3,8.4,92.1,8,93.4,6c1.1,0.4,1.8,0.8,1.9,1.1c0,0,0,0,0,0c0,0-0.2,0.2-1,0.7c-0.4,0.3-0.7,0.7-0.8,1c-2.5,0.9-7.8,1.5-14.1,1.5
		c-6.1,0-11.4-0.6-13.9-1.4C65.4,8.5,65.2,8,64.7,7.8z M65.6,9.7c0-0.1,0-0.4-0.1-0.7c2.8,0.9,8.5,1.4,13.9,1.4
		c5.5,0,11.2-0.5,14-1.4c-0.1,0.3-0.1,0.6-0.1,0.8l-1.6,31.6c-2.2-0.9-6.9-1.4-12.4-1.4c-5.4,0-10.1,0.6-12.3,1.4L65.6,9.7z
		 M66.7,42.6l0.4-0.3l0-0.5c1.8-0.7,5.9-1.4,12.3-1.4c6.4,0,10.6,0.7,12.4,1.4l0,0.5l0.4,0.3c0.1,0.1,0.3,0.3,0.4,0.4
		c-0.8,0.9-5.5,2.1-13.1,2.1c-7.4,0-12-1.2-13-2.2C66.5,42.9,66.6,42.7,66.7,42.6z M78,265.7c-22.9,0-41.6-18.7-41.6-41.6
		c0-21.8,10.6-38.3,19.1-51.5c5.4-8.4,9.7-15.1,9.7-20.8v-104c0-1,0.3-2.6,0.7-3.8c1.9,1.3,7.2,2.3,13.5,2.3
		c6.3,0,11.7-0.9,13.5-2.3c0.5,1.3,0.7,3,0.8,3.9c0,0,0.1,101.3,0.1,103.9c0,5.7,3.9,12.4,8.7,20.8c7.7,13.2,17.2,29.7,17.2,51.5
		C119.8,247,101,265.7,78,265.7z"/>
</g>

</svg>
