<?xml version="1.0" encoding="utf-8"?>
<!-- Generator: Adobe Illustrator 16.0.0, SVG Export Plug-In . SVG Version: 6.00 Build 0)  -->
<!DOCTYPE svg PUBLIC "-//W3C//DTD SVG 1.1//EN" "http://www.w3.org/Graphics/SVG/1.1/DTD/svg11.dtd">
<svg version="1.1" id="图层_1" xmlns="http://www.w3.org/2000/svg" xmlns:xlink="http://www.w3.org/1999/xlink" x="0px" y="0px"
	 width="40px" height="40px" viewBox="0 0 40 40" enable-background="new 0 0 40 40" xml:space="preserve">
<path fill="#4C4C4C" d="M26.618,20.477l1.475,8.564c0,0,1.099-1.127,1.994-1.904l1.979,2.646c0.084,0.104,0.252,0.113,0.39,0.021
	l0.844-0.623c0.136-0.097,0.183-0.266,0.099-0.369l-1.924-2.578c1.004-0.405,2.662-0.871,2.662-0.871L26.618,20.477L26.618,20.477z"
	/>
<path fill="#4C4C4C" d="M8.414,32.001c-0.53,0-1.064-0.063-1.592-0.19l0.234-0.973c1.504,0.366,3.058,0.113,4.375-0.704
	c1.362-0.845,2.313-2.187,2.676-3.78l0.975,0.223c-0.423,1.855-1.533,3.421-3.124,4.407C10.874,31.655,9.654,32.001,8.414,32.001z"
	/>
<path fill="#FFFFFF" stroke="#333333" stroke-width="1.043" stroke-miterlimit="10" d="M26.884,27.607"/>
<path fill="#4C4C4C" d="M20.795,29.695c-7.48,0-13.566-4.866-13.566-10.848C7.229,12.866,13.315,8,20.796,8
	c7.48,0,13.565,4.867,13.565,10.848c0,1.684-0.467,3.297-1.388,4.795l-0.852-0.523c0.822-1.338,1.239-2.775,1.239-4.272
	c0-5.43-5.637-9.848-12.565-9.848c-6.929,0-12.567,4.417-12.567,9.847c0,5.43,5.637,9.848,12.566,9.848
	c2.112,0,4.197-0.417,6.028-1.206l0.396,0.918C25.264,29.25,23.043,29.695,20.795,29.695z"/>
<path fill="#4C4C4C" d="M10.269,29.27c-2.749,0-4.903-1.501-4.903-3.416c0-1.917,2.154-3.418,4.903-3.418s4.903,1.501,4.903,3.418
	C15.172,27.769,13.018,29.27,10.269,29.27z M10.269,23.436c-2.116,0-3.903,1.107-3.903,2.418c0,1.31,1.787,2.416,3.903,2.416
	s3.903-1.106,3.903-2.416C14.172,24.543,12.385,23.436,10.269,23.436z"/>
</svg>
