<?xml version="1.0" encoding="utf-8"?>
<!-- Generator: Adobe Illustrator 16.0.0, SVG Export Plug-In . SVG Version: 6.00 Build 0)  -->
<!DOCTYPE svg PUBLIC "-//W3C//DTD SVG 1.1//EN" "http://www.w3.org/Graphics/SVG/1.1/DTD/svg11.dtd">
<svg version="1.1" id="图层_1" xmlns="http://www.w3.org/2000/svg" xmlns:xlink="http://www.w3.org/1999/xlink" x="0px" y="0px"
	 width="40px" height="40px" viewBox="0 0 40 40" enable-background="new 0 0 40 40" xml:space="preserve">
<rect x="19.5" y="6" fill="#333333" width="1" height="28"/>
<g>
	<g>
		<path fill="#999999" d="M10.354,29.873c-0.55,0-1-0.45-1-1v-5.099c0-0.55,0.45-1,1-1h19.293c0.55,0,1,0.45,1,1v5.099
			c0,0.55-0.45,1-1,1H10.354z"/>
		<path fill="none" stroke="#333333" stroke-width="0.7778" stroke-miterlimit="10" d="M10.354,29.873c-0.55,0-1-0.45-1-1v-5.099
			c0-0.55,0.45-1,1-1h19.293c0.55,0,1,0.45,1,1v5.099c0,0.55-0.45,1-1,1H10.354z"/>
	</g>
	<g>
		<path fill="#FFFFFF" d="M15,19.375c-0.55,0-1-0.45-1-1v-6c0-0.55,0.45-1,1-1h10c0.55,0,1,0.45,1,1v6c0,0.55-0.45,1-1,1H15z"/>
		<path fill="none" stroke="#333333" stroke-width="0.9299" stroke-miterlimit="10" d="M15,19.375c-0.55,0-1-0.45-1-1v-6
			c0-0.55,0.45-1,1-1h10c0.55,0,1,0.45,1,1v6c0,0.55-0.45,1-1,1H15z"/>
	</g>
</g>
</svg>
