<svg id="图层_36" data-name="图层 36" xmlns="http://www.w3.org/2000/svg" viewBox="0 0 103.08 360.36" width="105" height="365">
    <title>玻璃仪器37</title> <g  fill="#000000" stroke-width="0.2324">
    <rect x="1026.96" y="450.37" width="1.5" height="0.2" transform="translate(-823 754.58) rotate(-62.68)"/>
    <rect x="1018.55" y="451.92" width="1.66" height="0.2"
          transform="matrix(0.86, -0.52, 0.52, 0.86, -1065.57, 191.23)"/>
    <polygon points="37.99 49.85 37.13 48.58 37.29 48.47 38.15 49.74 37.99 49.85"/>
    <polygon points="57.29 49.02 57.2 48.84 58.63 48.11 58.73 48.29 57.29 49.02"/>
    <polygon points="49.55 50.98 48.49 49.86 48.64 49.72 49.69 50.84 49.55 50.98"/>
    <polygon points="65.98 49.57 65.12 48.3 65.29 48.19 66.15 49.46 65.98 49.57"/>
    <polygon points="35.96 39.98 35.29 38.32 35.48 38.25 36.15 39.9 35.96 39.98"/>
    <polygon points="34.54 30.43 34.43 30.26 35.7 29.46 35.8 29.63 34.54 30.43"/>
    <polygon points="51.76 21.52 51.65 21.35 52.94 20.49 53.05 20.66 51.76 21.52"/>
    <rect x="1021.99" y="422.26" width="0.2" height="1.61" transform="translate(-1007.49 366.66) rotate(-40.71)"/>
    <rect x="1018.81" y="427.61" width="0.2" height="1.64" transform="translate(-1064.99 1.02) rotate(-21.5)"/>
    <rect x="1017.49" y="438.96" width="0.2" height="1.85" transform="translate(-942.29 553.93) rotate(-51.14)"/>
    <polygon points="37.63 31.28 37.44 31.2 38.17 29.45 38.36 29.52 37.63 31.28"/>
    <polygon points="37.99 22.18 37.13 20.91 37.29 20.8 38.15 22.06 37.99 22.18"/>
    <polygon points="64.09 46.48 63.92 46.37 64.95 44.86 65.12 44.98 64.09 46.48"/>
    <polygon points="53.79 47.16 53.65 47.02 54.66 45.92 54.8 46.06 53.79 47.16"/>
    <rect x="1021.35" y="442.69" width="0.2" height="1.57" transform="translate(-1011.88 399.13) rotate(-42.22)"/>
    <polygon points="63.11 36.94 62.97 36.8 64.39 35.42 64.52 35.57 63.11 36.94"/>
    <rect x="1040.61" y="429.02" width="0.2" height="2.05" transform="translate(-663.94 888.71) rotate(-72.32)"/>
    <polygon points="57.29 21.35 57.2 21.17 58.63 20.44 58.73 20.62 57.29 21.35"/>
    <polygon points="49.27 24.03 48.22 22.92 48.36 22.78 49.41 23.9 49.27 24.03"/>
    <polygon points="46.35 25.26 44.1 24.64 44.15 24.45 46.41 25.07 46.35 25.26"/>
    <polygon points="45.74 27.67 44.11 26.47 44.23 26.31 45.86 27.51 45.74 27.67"/>
    <polygon points="55.56 26.73 54.85 25.21 55.03 25.13 55.74 26.65 55.56 26.73"/>
    <polygon points="60.66 26.02 59.8 24.75 59.97 24.64 60.82 25.91 60.66 26.02"/>
    <rect x="1034.51" y="430.51" width="0.2" height="1.49" transform="translate(-891.63 628.03) rotate(-54.93)"/>
    <polygon points="58.96 37.63 58.83 37.48 59.96 36.39 60.1 36.53 58.96 37.63"/>
    <polygon points="61.97 44.08 60.55 43.07 60.67 42.91 62.09 43.91 61.97 44.08"/>
    <polygon points="56.68 44.81 55.3 44.02 55.4 43.84 56.78 44.64 56.68 44.81"/>
    <rect x="58.45" y="30.34" width="0.2" height="1.78"/>
    <polygon points="49.68 31.18 49.52 31.05 50.57 29.74 50.73 29.87 49.68 31.18"/>
    <rect x="41.34" y="33.35" width="0.2" height="1.63"/>
    <rect x="1026.58" y="435.32" width="0.2" height="1.64" transform="translate(-928.58 573.23) rotate(-51.93)"/>
    <polygon points="54.72 34.2 53.49 33.37 53.6 33.2 54.83 34.04 54.72 34.2"/>
    <rect x="55.42" y="39.7" width="0.2" height="1.55"/>
    <polygon points="52.89 39.29 52.09 38.13 52.26 38.01 53.05 39.17 52.89 39.29"/>
    <polygon points="44.9 38.07 44.25 36.85 44.43 36.76 45.07 37.98 44.9 38.07"/>
    <rect x="1025.25" y="443.52" width="1.31" height="0.2" transform="translate(-868.24 682.85) rotate(-58.41)"/>
    <rect x="49.41" y="41.1" width="1.31" height="0.2"/>
    <polygon points="47.47 18.21 46.78 16.58 46.96 16.5 47.65 18.13 47.47 18.21"/>
    <polygon points="68.53 26.94 67.9 25.42 68.09 25.34 68.71 26.87 68.53 26.94"/>
    <rect x="67.01" y="35.2" width="1.61" height="0.2"/>
    <rect x="1044.63" y="435.42" width="0.2" height="1.63" transform="translate(-833.52 721.6) rotate(-60.06)"/>
    <polygon points="66.24 22.18 65.38 20.91 65.55 20.8 66.41 22.06 66.24 22.18"/>
    <polygon points="33.86 19.77 33.73 19.62 34.63 18.86 34.76 19.02 33.86 19.77"/>
    <polygon points="34.98 8.97 34.84 8.82 36.26 7.45 36.4 7.59 34.98 8.97"/>
    <polygon points="36.21 4.98 35.24 3.67 35.4 3.55 36.37 4.86 36.21 4.98"/>
    <rect x="33.58" y="12.68" width="1.55" height="0.2"/>
    <rect x="1017.49" y="410.99" width="0.2" height="1.85" transform="translate(-920.62 543.31) rotate(-51.13)"/>
    <rect x="1015.8" y="404.59" width="1.93" height="0.2" transform="translate(-722.61 789.3) rotate(-67.68)"/>
    <rect x="1042.46" y="419.9" width="1.84" height="0.2" transform="translate(-867.97 646.6) rotate(-55.92)"/>
    <polygon points="53.79 19.18 53.65 19.05 54.66 17.95 54.8 18.09 53.79 19.18"/>
    <rect x="1021.35" y="414.71" width="0.2" height="1.57" transform="translate(-993.08 391.87) rotate(-42.22)"/>
    <polygon points="63.11 8.97 62.97 8.82 64.39 7.45 64.52 7.59 63.11 8.97"/>
    <rect x="1025.05" y="402.6" width="0.2" height="1.4" transform="translate(-921.99 526.4) rotate(-49.96)"/>
    <rect x="61.21" y="6.41" width="1.61" height="0.2"/>
    <rect x="61.69" y="12.68" width="1.57" height="0.2"/>
    <rect x="56.1" y="14.63" width="1.52" height="0.2"/>
    <polygon points="57.14 7.18 57.05 7 59.04 5.99 59.13 6.17 57.14 7.18"/>
    <rect x="51.62" y="1" width="1.35" height="0.2"/>
    <rect x="41.34" y="5.37" width="0.2" height="1.63"/>
    <rect x="1026.58" y="407.35" width="0.2" height="1.65" transform="translate(-912.23 552.69) rotate(-51.35)"/>
    <polygon points="53.84 8.95 53.68 8.84 54.63 7.57 54.79 7.69 53.84 8.95"/>
    <polygon points="52.28 16.37 52.19 16.19 53.46 15.55 53.55 15.72 52.28 16.37"/>
    <rect x="1029.06" y="409.62" width="1.5" height="0.2" transform="translate(-894.71 585.45) rotate(-53.13)"/>
    <rect x="41.75" y="9.26" width="0.2" height="1.52"/>
    <rect x="1023.47" y="417.34" width="1.51" height="0.2" transform="translate(-1050.85 162.19) rotate(-29.81)"/>
    <rect x="1027.74" y="416.88" width="0.2" height="1.67" transform="translate(-877.44 625.9) rotate(-55.5)"/>
    <rect x="1045.74" y="410.99" width="0.2" height="1.85" transform="translate(-910.1 565.3) rotate(-51.13)"/>
    <polygon points="65.53 3.87 65.35 3.79 66.06 2.01 66.24 2.08 65.53 3.87"/>
    <rect x="1048.17" y="407.56" width="1.63" height="0.2" transform="translate(-763.62 761.3) rotate(-63.43)"/>
    <g id="Spline">
        <path d="M1029.58,703.21a77.82,77.82,0,0,1-14.77-1.18l0-.2c7,1.47,20.15,1.58,28.82.24l0,.2A96.45,96.45,0,0,1,1029.58,703.21Z"
              transform="translate(-978.86 -402.29)"/>
    </g>
    <g id="Spline-2" data-name="Spline">
        <path d="M1029.82,713c-3.05,0-6-.12-8.71-.35l0-.2a112.93,112.93,0,0,0,16.92.06v.2C1035.37,712.87,1032.57,713,1029.82,713Z"
              transform="translate(-978.86 -402.29)"/>
    </g>
    <g id="Spline-3" data-name="Spline">
        <path d="M1029.82,705.71c-3.05,0-6-.12-8.71-.35l0-.2a113.57,113.57,0,0,0,16.92.06v.2C1035.37,705.61,1032.57,705.71,1029.82,705.71Z"
              transform="translate(-978.86 -402.29)"/>
    </g>
    <g id="Spline-4" data-name="Spline">
        <path d="M1030,710.39c-3.07,0-6.1-.12-8.82-.35l0-.2a112.07,112.07,0,0,0,16.92.06l0,.2C1035.56,710.3,1032.78,710.39,1030,710.39Z"
              transform="translate(-978.86 -402.29)"/>
    </g>
    <g id="Spline-5" data-name="Spline">
        <path d="M1030,708.05c-3.07,0-6.1-.12-8.82-.35l0-.2a112,112,0,0,0,16.92.06l0,.2C1035.56,708,1032.78,708.05,1030,708.05Z"
              transform="translate(-978.86 -402.29)"/>
    </g>
    <g id="Spline-6" data-name="Spline">
        <path d="M1029.82,700.51c-3.05,0-6-.12-8.71-.35l0-.2a113.51,113.51,0,0,0,16.92.06v.2C1035.37,700.42,1032.57,700.51,1029.82,700.51Z"
              transform="translate(-978.86 -402.29)"/>
    </g>
    <g id="Spline-7" data-name="Spline">
        <path d="M1029.93,693.26c-3.07,0-6.1-.12-8.82-.35l0-.2a112.07,112.07,0,0,0,16.92.06l0,.2C1035.48,693.17,1032.69,693.26,1029.93,693.26Z"
              transform="translate(-978.86 -402.29)"/>
    </g>
    <g id="Spline-8" data-name="Spline">
        <path d="M1029.91,698c-3.05,0-6-.12-8.71-.35l0-.2a113.31,113.31,0,0,0,16.92.06v.2C1035.46,697.86,1032.65,698,1029.91,698Z"
              transform="translate(-978.86 -402.29)"/>
    </g>
    <g id="Spline-9" data-name="Spline">
        <path d="M1030,695.62c-3.1,0-6.12-.12-8.81-.37l0-.2a110.64,110.64,0,0,0,16.92.09v.2C1035.48,695.52,1032.71,695.62,1030,695.62Z"
              transform="translate(-978.86 -402.29)"/>
    </g>
    <g id="Spline-10" data-name="Spline">
        <path d="M1029.58,678.57a77.82,77.82,0,0,1-14.77-1.18l0-.2c7,1.47,20.15,1.58,28.82.24l0,.2A96.45,96.45,0,0,1,1029.58,678.57Z"
              transform="translate(-978.86 -402.29)"/>
    </g>
    <g id="Spline-11" data-name="Spline">
        <path d="M1029.93,688.3c-3.07,0-6.1-.12-8.82-.35l0-.2a112,112,0,0,0,16.92.06l0,.2C1035.48,688.21,1032.69,688.3,1029.93,688.3Z"
              transform="translate(-978.86 -402.29)"/>
    </g>
    <g id="Spline-12" data-name="Spline">
        <path d="M1029.92,681.06c-3.1,0-6.12-.12-8.81-.37l0-.2a110.52,110.52,0,0,0,16.92.09v.2C1035.4,681,1032.63,681.06,1029.92,681.06Z"
              transform="translate(-978.86 -402.29)"/>
    </g>
    <g id="Spline-13" data-name="Spline">
        <path d="M1029.91,685.74c-3.05,0-6-.12-8.71-.35l0-.2a113.44,113.44,0,0,0,16.92.06v.2C1035.46,685.65,1032.65,685.74,1029.91,685.74Z"
              transform="translate(-978.86 -402.29)"/>
    </g>
    <g id="Spline-14" data-name="Spline">
        <path d="M1029.91,683.4c-3.05,0-6-.12-8.71-.35l0-.2a113.06,113.06,0,0,0,16.92.06v.2C1035.46,683.31,1032.65,683.4,1029.91,683.4Z"
              transform="translate(-978.86 -402.29)"/>
    </g>
    <g id="Spline-15" data-name="Spline">
        <path d="M1029.82,675.87c-3.05,0-6-.12-8.71-.35l0-.2a113.57,113.57,0,0,0,16.92.06v.2C1035.37,675.77,1032.57,675.87,1029.82,675.87Z"
              transform="translate(-978.86 -402.29)"/>
    </g>
    <g id="Spline-16" data-name="Spline">
        <path d="M1029.82,668.61c-3,0-6-.12-8.71-.35l0-.2a113.13,113.13,0,0,0,16.92.06v.2C1035.37,668.52,1032.57,668.61,1029.82,668.61Z"
              transform="translate(-978.86 -402.29)"/>
    </g>
    <g id="Spline-17" data-name="Spline">
        <path d="M1030,673.3c-3.07,0-6.1-.12-8.82-.35l0-.2a112,112,0,0,0,16.92.06l0,.2C1035.56,673.2,1032.78,673.3,1030,673.3Z"
              transform="translate(-978.86 -402.29)"/>
    </g>
    <g id="Spline-18" data-name="Spline">
        <path d="M1030,671c-3.07,0-6.1-.12-8.82-.35l0-.2a111.88,111.88,0,0,0,16.92.06l0,.2C1035.56,670.86,1032.78,671,1030,671Z"
              transform="translate(-978.86 -402.29)"/>
    </g>
    <g id="Spline-19" data-name="Spline">
        <path d="M1029.58,654.37a77.82,77.82,0,0,1-14.77-1.18l0-.2c7,1.47,20.15,1.58,28.82.24l0,.2A96.45,96.45,0,0,1,1029.58,654.37Z"
              transform="translate(-978.86 -402.29)"/>
    </g>
    <g id="Spline-20" data-name="Spline">
        <path d="M1029.8,664.12c-3,0-6-.12-8.69-.37l0-.2a107.54,107.54,0,0,0,16.92.06l0,.2C1035.37,664,1032.56,664.12,1029.8,664.12Z"
              transform="translate(-978.86 -402.29)"/>
    </g>
    <g id="Spline-21" data-name="Spline">
        <path d="M1029.82,656.87c-3.05,0-6-.12-8.71-.35l0-.2a113,113,0,0,0,16.92.06v.2C1035.37,656.77,1032.57,656.87,1029.82,656.87Z"
              transform="translate(-978.86 -402.29)"/>
    </g>
    <g id="Spline-22" data-name="Spline">
        <path d="M1030,661.55c-3.07,0-6.1-.12-8.82-.35l0-.2a112.14,112.14,0,0,0,16.92.06l0,.2C1035.56,661.46,1032.78,661.55,1030,661.55Z"
              transform="translate(-978.86 -402.29)"/>
    </g>
    <g id="Spline-23" data-name="Spline">
        <path d="M1029.91,659.21c-3.05,0-6-.12-8.71-.35l0-.2a113.57,113.57,0,0,0,16.92.06v.2C1035.46,659.11,1032.65,659.21,1029.91,659.21Z"
              transform="translate(-978.86 -402.29)"/>
    </g>
    <g id="Spline-24" data-name="Spline">
        <path d="M1029.82,651.67c-3.05,0-6-.12-8.71-.35l0-.2a113.44,113.44,0,0,0,16.92.06v.2C1035.37,651.58,1032.57,651.67,1029.82,651.67Z"
              transform="translate(-978.86 -402.29)"/>
    </g>
    <g id="Spline-25" data-name="Spline">
        <path d="M1029.93,644.42c-3.07,0-6.1-.12-8.82-.35l0-.2a112,112,0,0,0,16.92.06l0,.2C1035.48,644.32,1032.69,644.42,1029.93,644.42Z"
              transform="translate(-978.86 -402.29)"/>
    </g>
    <g id="Spline-26" data-name="Spline">
        <path d="M1030,649.12c-3.1,0-6.12-.12-8.81-.37l0-.2a110.52,110.52,0,0,0,16.92.09v.2C1035.48,649,1032.71,649.12,1030,649.12Z"
              transform="translate(-978.86 -402.29)"/>
    </g>
    <g id="Spline-27" data-name="Spline">
        <path d="M1030,646.76c-3.07,0-6.1-.12-8.82-.35l0-.2a112.14,112.14,0,0,0,16.92.06l0,.2C1035.56,646.66,1032.78,646.76,1030,646.76Z"
              transform="translate(-978.86 -402.29)"/>
    </g>
    <g id="Spline-28" data-name="Spline">
        <path d="M1029.57,629.72a76.72,76.72,0,0,1-14.76-1.2l0-.2c7,1.5,20.16,1.6,28.82.24l0,.2A95,95,0,0,1,1029.57,629.72Z"
              transform="translate(-978.86 -402.29)"/>
    </g>
    <g id="Spline-29" data-name="Spline">
        <path d="M1029.93,639.46c-3.07,0-6.1-.12-8.82-.35l0-.2A112.08,112.08,0,0,0,1038,639l0,.2C1035.48,639.37,1032.69,639.46,1029.93,639.46Z"
              transform="translate(-978.86 -402.29)"/>
    </g>
    <g id="Spline-30" data-name="Spline">
        <path d="M1029.93,632.2c-3.07,0-6.1-.12-8.82-.35l0-.2a111.88,111.88,0,0,0,16.92.06l0,.2C1035.48,632.11,1032.69,632.2,1029.93,632.2Z"
              transform="translate(-978.86 -402.29)"/>
    </g>
    <g id="Spline-31" data-name="Spline">
        <path d="M1029.91,636.9c-3.05,0-6-.12-8.71-.35l0-.2a113.51,113.51,0,0,0,16.92.06v.2C1035.46,636.81,1032.65,636.9,1029.91,636.9Z"
              transform="translate(-978.86 -402.29)"/>
    </g>
    <g id="Spline-32" data-name="Spline">
        <path d="M1030,634.56c-3.1,0-6.12-.12-8.81-.37l0-.2a110.64,110.64,0,0,0,16.92.09v.2C1035.48,634.47,1032.71,634.56,1030,634.56Z"
              transform="translate(-978.86 -402.29)"/>
    </g>
    <g id="Spline-33" data-name="Spline">
        <path d="M1029.8,627c-3,0-6-.12-8.69-.37l0-.2a108,108,0,0,0,16.92.06l0,.2C1035.37,626.92,1032.56,627,1029.8,627Z"
              transform="translate(-978.86 -402.29)"/>
    </g>
    <g id="Spline-34" data-name="Spline">
        <path d="M1029.82,619.77c-3.05,0-6-.12-8.71-.35l0-.2a113.44,113.44,0,0,0,16.92.06v.2C1035.37,619.68,1032.57,619.77,1029.82,619.77Z"
              transform="translate(-978.86 -402.29)"/>
    </g>
    <g id="Spline-35" data-name="Spline">
        <path d="M1030,624.45c-3.07,0-6.1-.12-8.82-.35l0-.2a111.88,111.88,0,0,0,16.92.06l0,.2C1035.56,624.36,1032.78,624.45,1030,624.45Z"
              transform="translate(-978.86 -402.29)"/>
    </g>
    <g id="Spline-36" data-name="Spline">
        <path d="M1029.91,622.11c-3.05,0-6-.12-8.71-.35l0-.2a112.93,112.93,0,0,0,16.92.06v.2C1035.46,622,1032.65,622.11,1029.91,622.11Z"
              transform="translate(-978.86 -402.29)"/>
    </g>
    <g id="Spline-37" data-name="Spline">
        <path d="M1029.53,604.83a76.69,76.69,0,0,1-14.72-1.19l0-.2c6.9,1.48,20.1,1.59,28.82.23l0,.2A96.73,96.73,0,0,1,1029.53,604.83Z"
              transform="translate(-978.86 -402.29)"/>
    </g>
    <g id="Spline-38" data-name="Spline">
        <path d="M1029.82,614.57c-3.05,0-6-.12-8.71-.35l0-.2a113.38,113.38,0,0,0,16.92.06v.2C1035.37,614.48,1032.57,614.57,1029.82,614.57Z"
              transform="translate(-978.86 -402.29)"/>
    </g>
    <g id="Spline-39" data-name="Spline">
        <path d="M1029.93,607.32c-3.07,0-6.1-.12-8.82-.35l0-.2a112.14,112.14,0,0,0,16.92.06l0,.2C1035.48,607.23,1032.69,607.32,1029.93,607.32Z"
              transform="translate(-978.86 -402.29)"/>
    </g>
    <g id="Spline-40" data-name="Spline">
        <path d="M1030,612c-3.1,0-6.12-.12-8.81-.37l0-.2a110.45,110.45,0,0,0,16.92.09v.2C1035.48,611.92,1032.71,612,1030,612Z"
              transform="translate(-978.86 -402.29)"/>
    </g>
    <g id="Spline-41" data-name="Spline">
        <path d="M1030,609.66c-3.07,0-6.1-.12-8.82-.35l0-.2a111.88,111.88,0,0,0,16.92.06l0,.2C1035.56,609.57,1032.78,609.66,1030,609.66Z"
              transform="translate(-978.86 -402.29)"/>
    </g>
    <g id="Spline-42" data-name="Spline">
        <path d="M1029.92,602.13c-3.07,0-6.1-.12-8.81-.35l0-.2a112.2,112.2,0,0,0,16.92.06l0,.2C1035.47,602,1032.69,602.13,1029.92,602.13Z"
              transform="translate(-978.86 -402.29)"/>
    </g>
    <g id="Spline-43" data-name="Spline">
        <path d="M1029.92,594.89c-3.1,0-6.12-.12-8.81-.37l0-.2a110.64,110.64,0,0,0,16.92.09v.2C1035.4,594.79,1032.63,594.89,1029.92,594.89Z"
              transform="translate(-978.86 -402.29)"/>
    </g>
    <g id="Spline-44" data-name="Spline">
        <path d="M1029.91,599.57c-3.05,0-6-.12-8.71-.35l0-.2a113.44,113.44,0,0,0,16.92.06v.2C1035.46,599.47,1032.65,599.57,1029.91,599.57Z"
              transform="translate(-978.86 -402.29)"/>
    </g>
    <g id="Spline-45" data-name="Spline">
        <path d="M1029.9,597.23c-3,0-6-.12-8.71-.35l0-.2a113.06,113.06,0,0,0,16.92.06v.2C1035.46,597.13,1032.65,597.23,1029.9,597.23Z"
              transform="translate(-978.86 -402.29)"/>
    </g>
    <g id="Spline-46" data-name="Spline">
        <path d="M1029.58,580.18a77.82,77.82,0,0,1-14.77-1.18l0-.2c7,1.47,20.15,1.58,28.82.24l0,.2A96.45,96.45,0,0,1,1029.58,580.18Z"
              transform="translate(-978.86 -402.29)"/>
    </g>
    <g id="Spline-47" data-name="Spline">
        <path d="M1029.8,589.92c-3,0-6-.12-8.69-.37l0-.2a107.78,107.78,0,0,0,16.92.06l0,.2C1035.37,589.82,1032.56,589.92,1029.8,589.92Z"
              transform="translate(-978.86 -402.29)"/>
    </g>
    <g id="Spline-48" data-name="Spline">
        <path d="M1029.82,582.67c-3.05,0-6-.12-8.71-.35l0-.2a112.93,112.93,0,0,0,16.92.06v.2C1035.37,582.58,1032.57,582.67,1029.82,582.67Z"
              transform="translate(-978.86 -402.29)"/>
    </g>
    <g id="Spline-49" data-name="Spline">
        <path d="M1030,587.36c-3.07,0-6.1-.12-8.82-.35l0-.2a112.14,112.14,0,0,0,16.92.06l0,.2C1035.56,587.26,1032.78,587.36,1030,587.36Z"
              transform="translate(-978.86 -402.29)"/>
    </g>
    <g id="Spline-50" data-name="Spline">
        <path d="M1029.91,585c-3.05,0-6-.12-8.71-.35l0-.2a113.51,113.51,0,0,0,16.92.06v.2C1035.46,584.92,1032.65,585,1029.91,585Z"
              transform="translate(-978.86 -402.29)"/>
    </g>
    <g id="Spline-51" data-name="Spline">
        <path d="M1029.82,577.48c-3.05,0-6-.12-8.71-.35l0-.2a113.31,113.31,0,0,0,16.92.06v.2C1035.37,577.38,1032.57,577.48,1029.82,577.48Z"
              transform="translate(-978.86 -402.29)"/>
    </g>
    <g id="Spline-52" data-name="Spline">
        <path d="M1029.93,570.22c-3.07,0-6.1-.12-8.82-.35l0-.2a112.07,112.07,0,0,0,16.92.06l0,.2C1035.48,570.13,1032.69,570.22,1029.93,570.22Z"
              transform="translate(-978.86 -402.29)"/>
    </g>
    <g id="Spline-53" data-name="Spline">
        <path d="M1030,574.92c-3.1,0-6.12-.12-8.81-.37l0-.2a110.58,110.58,0,0,0,16.92.09v.2C1035.48,574.83,1032.71,574.92,1030,574.92Z"
              transform="translate(-978.86 -402.29)"/>
    </g>
    <g id="Spline-54" data-name="Spline">
        <path d="M1030,572.56c-3.07,0-6.1-.12-8.81-.35l0-.2a112,112,0,0,0,16.92.06l0,.2C1035.56,572.47,1032.77,572.56,1030,572.56Z"
              transform="translate(-978.86 -402.29)"/>
    </g>
    <g id="Spline-55" data-name="Spline">
        <path d="M1029.58,556a77.86,77.86,0,0,1-14.77-1.18l0-.2c7,1.47,20.16,1.58,28.82.23l0,.2A96.47,96.47,0,0,1,1029.58,556Z"
              transform="translate(-978.86 -402.29)"/>
    </g>
    <g id="Spline-56" data-name="Spline">
        <path d="M1029.82,565.73c-3.05,0-6-.12-8.71-.35l0-.2a113.31,113.31,0,0,0,16.92.06v.2C1035.37,565.64,1032.57,565.73,1029.82,565.73Z"
              transform="translate(-978.86 -402.29)"/>
    </g>
    <g id="Spline-57" data-name="Spline">
        <path d="M1029.82,558.48c-3.05,0-6-.12-8.71-.35l0-.2a113.51,113.51,0,0,0,16.92.06v.2C1035.37,558.38,1032.57,558.48,1029.82,558.48Z"
              transform="translate(-978.86 -402.29)"/>
    </g>
    <g id="Spline-58" data-name="Spline">
        <path d="M1030,563.16c-3.07,0-6.1-.12-8.81-.35l0-.2a112,112,0,0,0,16.92.06l0,.2C1035.56,563.07,1032.77,563.16,1030,563.16Z"
              transform="translate(-978.86 -402.29)"/>
    </g>
    <g id="Spline-59" data-name="Spline">
        <path d="M1030,560.82c-3.07,0-6.1-.12-8.82-.35l0-.2a112.07,112.07,0,0,0,16.92.06l0,.2C1035.56,560.73,1032.78,560.82,1030,560.82Z"
              transform="translate(-978.86 -402.29)"/>
    </g>
    <g id="Spline-60" data-name="Spline">
        <path d="M1029.93,553.29c-3.07,0-6.1-.12-8.82-.35l0-.2a112.14,112.14,0,0,0,16.92.06l0,.2C1035.48,553.19,1032.69,553.29,1029.93,553.29Z"
              transform="translate(-978.86 -402.29)"/>
    </g>
    <g id="Spline-61" data-name="Spline">
        <path d="M1029.93,546c-3.07,0-6.1-.12-8.82-.35l0-.2a112.08,112.08,0,0,0,16.92.06l0,.2C1035.48,545.93,1032.69,546,1029.93,546Z"
              transform="translate(-978.86 -402.29)"/>
    </g>
    <g id="Spline-62" data-name="Spline">
        <path d="M1029.91,550.73c-3.05,0-6-.12-8.71-.35l0-.2a113,113,0,0,0,16.92.06v.2C1035.46,550.63,1032.65,550.73,1029.91,550.73Z"
              transform="translate(-978.86 -402.29)"/>
    </g>
    <g id="Spline-63" data-name="Spline">
        <path d="M1030,548.38c-3.1,0-6.12-.12-8.81-.37l0-.2a110.45,110.45,0,0,0,16.92.09v.2C1035.48,548.29,1032.71,548.38,1030,548.38Z"
              transform="translate(-978.86 -402.29)"/>
    </g>
    <g id="Spline-64" data-name="Spline">
        <path d="M1029.58,531.34a77.86,77.86,0,0,1-14.77-1.18l0-.2c7,1.47,20.16,1.58,28.82.23l0,.2A96.47,96.47,0,0,1,1029.58,531.34Z"
              transform="translate(-978.86 -402.29)"/>
    </g>
    <g id="Spline-65" data-name="Spline">
        <path d="M1029.93,541.07c-3.07,0-6.1-.12-8.82-.35l0-.2a112,112,0,0,0,16.92.06l0,.2C1035.48,541,1032.69,541.07,1029.93,541.07Z"
              transform="translate(-978.86 -402.29)"/>
    </g>
    <g id="Spline-66" data-name="Spline">
        <path d="M1029.92,533.83c-3.1,0-6.12-.12-8.81-.37l0-.2a110.34,110.34,0,0,0,16.92.09v.2C1035.4,533.73,1032.63,533.83,1029.92,533.83Z"
              transform="translate(-978.86 -402.29)"/>
    </g>
    <g id="Spline-67" data-name="Spline">
        <path d="M1029.91,538.51c-3.05,0-6-.12-8.71-.35l0-.2a113.51,113.51,0,0,0,16.92.06v.2C1035.46,538.42,1032.65,538.51,1029.91,538.51Z"
              transform="translate(-978.86 -402.29)"/>
    </g>
    <g id="Spline-68" data-name="Spline">
        <path d="M1029.91,536.17c-3.05,0-6-.12-8.71-.35l0-.2a113.51,113.51,0,0,0,16.92.06v.2C1035.46,536.08,1032.65,536.17,1029.91,536.17Z"
              transform="translate(-978.86 -402.29)"/>
    </g>
    <g id="Spline-69" data-name="Spline">
        <path d="M1029.82,528.64c-3.05,0-6-.12-8.71-.35l0-.2a112.93,112.93,0,0,0,16.92.06v.2C1035.37,528.54,1032.57,528.64,1029.82,528.64Z"
              transform="translate(-978.86 -402.29)"/>
    </g>
    <g id="Spline-70" data-name="Spline">
        <path d="M1029.82,521.38c-3.05,0-6-.12-8.71-.35l0-.2a113,113,0,0,0,16.92.06v.2C1035.37,521.28,1032.57,521.38,1029.82,521.38Z"
              transform="translate(-978.86 -402.29)"/>
    </g>
    <g id="Spline-71" data-name="Spline">
        <path d="M1030,526.06c-3.07,0-6.1-.12-8.81-.35l0-.2a112.07,112.07,0,0,0,16.92.06l0,.2C1035.56,526,1032.77,526.06,1030,526.06Z"
              transform="translate(-978.86 -402.29)"/>
    </g>
    <g id="Spline-72" data-name="Spline">
        <path d="M1030,523.72c-3.07,0-6.1-.12-8.82-.35l0-.2a112.07,112.07,0,0,0,16.92.06l0,.2C1035.56,523.63,1032.78,523.72,1030,523.72Z"
              transform="translate(-978.86 -402.29)"/>
    </g>
    <g id="Spline-73" data-name="Spline">
        <path d="M1029.58,507.12a77.81,77.81,0,0,1-14.77-1.18l0-.2c7,1.47,20.15,1.58,28.82.23l0,.2A96.4,96.4,0,0,1,1029.58,507.12Z"
              transform="translate(-978.86 -402.29)"/>
    </g>
    <g id="Spline-74" data-name="Spline">
        <path d="M1029.93,516.85c-3.07,0-6.1-.12-8.82-.35l0-.2a112,112,0,0,0,16.92.06l0,.2C1035.48,516.76,1032.69,516.85,1029.93,516.85Z"
              transform="translate(-978.86 -402.29)"/>
    </g>
    <g id="Spline-75" data-name="Spline">
        <path d="M1029.92,509.61c-3.1,0-6.12-.12-8.81-.37l0-.2a110.52,110.52,0,0,0,16.92.09v.2C1035.4,509.52,1032.63,509.61,1029.92,509.61Z"
              transform="translate(-978.86 -402.29)"/>
    </g>
    <g id="Spline-76" data-name="Spline">
        <path d="M1029.91,514.29c-3.05,0-6-.12-8.71-.35l0-.2a113.44,113.44,0,0,0,16.92.06v.2C1035.46,514.2,1032.65,514.29,1029.91,514.29Z"
              transform="translate(-978.86 -402.29)"/>
    </g>
    <g id="Spline-77" data-name="Spline">
        <path d="M1029.91,512c-3.05,0-6-.12-8.71-.35l0-.2a113,113,0,0,0,16.92.06v.2C1035.46,511.86,1032.65,512,1029.91,512Z"
              transform="translate(-978.86 -402.29)"/>
    </g>
    <g id="Spline-78" data-name="Spline">
        <path d="M1029.82,504.42c-3.05,0-6-.12-8.71-.35l0-.2a113.44,113.44,0,0,0,16.92.06v.2C1035.37,504.32,1032.57,504.42,1029.82,504.42Z"
              transform="translate(-978.86 -402.29)"/>
    </g>
    <g id="Spline-79" data-name="Spline">
        <path d="M1029.82,497.16c-3,0-6-.12-8.71-.35l0-.2a113,113,0,0,0,16.92.06v.2C1035.37,497.07,1032.57,497.16,1029.82,497.16Z"
              transform="translate(-978.86 -402.29)"/>
    </g>
    <g id="Spline-80" data-name="Spline">
        <path d="M1030,501.85c-3.07,0-6.1-.12-8.82-.35l0-.2a112.14,112.14,0,0,0,16.92.06l0,.2C1035.56,501.75,1032.78,501.85,1030,501.85Z"
              transform="translate(-978.86 -402.29)"/>
    </g>
    <g id="Spline-81" data-name="Spline">
        <path d="M1030,499.51c-3.07,0-6.1-.12-8.82-.35l0-.2a112.14,112.14,0,0,0,16.92.06l0,.2C1035.56,499.41,1032.78,499.51,1030,499.51Z"
              transform="translate(-978.86 -402.29)"/>
    </g>
    <path d="M1081.34,750.31c-8.19-2.19-29-8.83-30-14.35a1.34,1.34,0,0,0,.06-.4V455.28c0-2.14-1.61-4.48-4.11-6l2.13-38.72h0a1,1,0,0,1,.35-.69c1.06-.67,2-1.35,2-2.36,0-3.41-11-5.24-21.32-5.24s-21.3,1.84-21.3,5.24c0,1.1,1.12,1.87,2.11,2.42.16.09.28.57.28,1l2.1,38.07c-2.42,1.24-4.25,4.27-4.25,6.28V735.55c0,5.6-21.77,12.65-30.16,14.89l-.37.65v4.36l.36.48,22.62,6.72h57.3l.68-.31,21.77-6.54.36-.48V750.8Zm-65.75-345.56a66.19,66.19,0,0,1,14.87-1.46,67,67,0,0,1,14.61,1.4h0c.68.2,1.09.4,1.18.58-.37.82-6.24,2-15.87,2s-15.49-1.18-15.87-1.93C1014.57,405.15,1015,404.95,1015.59,404.75Zm-3.85,4.33c-1.07-.59-1.59-1.1-1.59-1.54,0-.69,1.18-1.48,3.34-2.2.14,2.9,16.17,2.93,16.85,2.93s16.86,0,16.86-3c0,0,0,0,0,0,2.31.73,3.58,1.56,3.58,2.27,0,.47-.74,1-1.55,1.51a1.65,1.65,0,0,0-.6.71c-3.65,1.51-10.56,2.45-18.17,2.45s-14.47-.94-18.12-2.43A1.36,1.36,0,0,0,1011.74,409.07Zm.68.95c3.72,1.46,10.59,2.38,18,2.38s14.35-.91,18.07-2.39a2.84,2.84,0,0,0-.13.91l-2.09,37.91c-2-1.4-9.11-2.15-15.85-2.15s-13.81.75-15.83,2.16l-2.09-37.92A3.27,3.27,0,0,0,1012.42,410Zm33.87,39.26-.08,1.38c-.09.8-5.59,2.29-15.75,2.29s-15.64-1.49-15.73-2.32l-.07-1.36c1.19-1.11,7.34-2.21,15.81-2.21S1045.1,448.17,1046.29,449.28Zm-35.9,6a7.27,7.27,0,0,1,3.31-5.18l0,.57c0,2.6,10.94,3.29,16.73,3.29s16.75-.69,16.75-3.26v-.24c2.31,1.57,3.17,3.54,3.17,4.83V516c-2,1.94-11.61,3.08-20.91,3.08a81.84,81.84,0,0,1-13.51-1c-2.92-.52-4.81-1.21-5.59-2Zm0,61.09c.87.8,2.72,1.46,5.55,2a82,82,0,0,0,13.54,1c9.21,0,18.51-1,20.91-3v24c-2,1.94-11.61,3.08-20.91,3.08a81.83,81.83,0,0,1-13.51-1c-2.92-.52-4.81-1.21-5.59-2Zm0,24.22c.87.8,2.72,1.46,5.55,2a82,82,0,0,0,13.54,1c9.21,0,18.51-1,20.91-3V564.9c-2,1.94-11.61,3.07-20.91,3.07a82.1,82.1,0,0,1-13.51-1c-2.92-.52-4.81-1.2-5.59-2Zm0,24.66c.87.8,2.71,1.45,5.55,2a82.31,82.31,0,0,0,13.54,1c9.21,0,18.51-1,20.91-3v23.94c-2,1.94-11.61,3.07-20.91,3.07a82.1,82.1,0,0,1-13.51-1c-2.92-.52-4.81-1.2-5.59-2Zm0,24.2c.87.8,2.71,1.45,5.55,2a82.31,82.31,0,0,0,13.54,1c9.21,0,18.51-1,20.91-3v24.39c-2,1.94-11.61,3.07-20.91,3.07a82.1,82.1,0,0,1-13.51-1c-2.92-.52-4.81-1.2-5.59-2Zm0,24.65c.87.8,2.71,1.45,5.55,2a82.31,82.31,0,0,0,13.54,1c9.21,0,18.51-1,20.91-3v24.65c-2,2-11.71,3.06-20.88,3.06a82.22,82.22,0,0,1-13.53-1c-2.93-.52-4.82-1.21-5.6-2Zm0,24.88c.87.8,2.72,1.46,5.56,2a82.34,82.34,0,0,0,13.56,1c9.2,0,18.48-1,20.88-3v24.41c-2,1.94-11.61,3.07-20.91,3.07a82.1,82.1,0,0,1-13.51-1c-2.92-.52-4.81-1.2-5.59-2Zm0,24.67c.87.8,2.71,1.45,5.55,2a82.31,82.31,0,0,0,13.54,1c9.21,0,18.51-1,20.91-3v23.92c-2,1.94-11.61,3.08-20.91,3.08a81.82,81.82,0,0,1-13.51-1c-2.92-.52-4.81-1.21-5.59-2Zm0,24.18c.87.8,2.72,1.46,5.55,2a82,82,0,0,0,13.54,1c9.21,0,18.51-1,20.91-3v24.41c-2,1.94-11.61,3.07-20.91,3.07a82.1,82.1,0,0,1-13.51-1c-2.92-.52-4.81-1.2-5.59-2Zm0,24.66c.87.8,2.71,1.45,5.55,2a82.31,82.31,0,0,0,13.54,1c9.21,0,18.51-1,20.91-3v23.17c0,1.66-8.4,3.44-20.91,3.44a81.71,81.71,0,0,1-13.44-1c-5.25-.93-5.66-2.14-5.66-2.49Zm-9.22,49-21.31-6.4v-3.54l21.31,4.61Zm57.47.17h-56.3v-5.5h56.3Zm.45-6.5h-56.92l-20.78-4.26c6.59-1.87,26-7.84,28.69-14,.93.88,2.84,1.58,5.8,2.1a82.72,82.72,0,0,0,13.61,1c.79,0,17.29,0,21.12-3.08,2.62,6,21.59,11.94,28.43,13.9Zm21.86-.19-21.15,6.35-.14-5.26,21.3-4.63Z"
          transform="translate(-978.86 -402.29)"/></g>
</svg>