<svg id="Clipware26" xmlns="http://www.w3.org/2000/svg" viewBox="0 0 9.75 250.74414" width="12" height="255">
    <title>Clipware26</title><g fill="#000000" stroke-width="0.2324">
    <path d="M156.028,184.14044l.01654-.01294m.04926-.03864a4.911,4.911,0,0,1-1.0166-2.54785l-.00586-160.21826a3.64507,3.64507,0,1,0-7.29.01416l.01465,160.085a5.13661,5.13661,0,0,1-1.08643,2.54395l-.10986.16211.89063,21.77832a.68889.68889,0,0,0,.30566.54187l.00586,48.39954a7.91777,7.91777,0,0,0,.64471,2.57343l-.00653,7.98419a2.991,2.991,0,1,0,5.98193.001l.02344-7.98535a8.04006,8.04006,0,0,0,.63477-2.57324l-.00293-48.54535a.59566.59566,0,0,0,.14453-.37067l1.12793-21.75293ZM151.416,18.667a2.65871,2.65871,0,0,1,2.65527,2.65576l.00586,160.21826a5.35688,5.35688,0,0,0,.89136,2.66827,11.56739,11.56739,0,0,1-3.45288.42749v-1.1543a15.94409,15.94409,0,0,1,2.0752.14642l.05859-.39648a16.44145,16.44145,0,0,0-2.13379-.15045V162.19238h1.20215v-.19922h-1.20215v-.75293h1.20215V161.041h-1.20215v-.75293h1.20215v-.19922h-1.20215v-.75293h1.20215v-.19922h-1.20215v-.8125h2.30273V158.125h-2.30273v-.75293h1.20215v-.19922h-1.20215v-.75293h1.20215v-.19922h-1.20215v-.75293h1.20215v-.19922h-1.20215v-.75293h1.20215v-.19922h-1.20215v-.81152h2.30273v-.19922h-2.30273v-.76074h1.12012v-.19922h-1.12012v-.75293h1.12012v-.19922h-1.12012v-.75244h1.12012v-.2002h-1.12012v-.752h1.12012v-.2002h-1.12012v-.811h2.2207v-.2002h-2.2207v-.752h1.12012v-.2002h-1.12012v-.752h1.12012v-.2002h-1.12012v-.752h1.12012v-.2002h-1.12012v-.752h1.12012v-.2002h-1.12012v-.811h2.2207v-.2002h-2.2207v-.71484h1.20215v-.2002h-1.20215v-.752h1.20215v-.2002h-1.20215v-.752h1.20215v-.2002h-1.20215v-.752h1.20215v-.2002h-1.20215v-.81152h2.30273v-.2002h-2.30273V138.123h1.20215v-.2002h-1.20215v-.752h1.20215v-.2002h-1.20215v-.752h1.20215v-.2002h-1.20215v-.752h1.20215v-.2002h-1.20215v-.811h2.30273v-.2002h-2.30273v-.75977h1.12012v-.2002h-1.12012v-.75146h1.12012v-.2002h-1.12012v-.752h1.12012v-.2002h-1.12012v-.752h1.12012v-.2002h-1.12012v-.81152h2.2207v-.2002h-2.2207v-.752h1.12012v-.2002h-1.12012v-.752h1.12012v-.2002h-1.12012v-.75146h1.12012v-.2002h-1.12012v-.752h1.12012v-.2002h-1.12012v-.81152h2.2207v-.2002h-2.2207v-.7666h1.20215v-.2002h-1.20215v-.752h1.20215v-.2002h-1.20215v-.752h1.20215v-.2002h-1.20215v-.752h1.20215v-.2002h-1.20215v-.81152h2.30273v-.2002h-2.30273v-.75146h1.20215v-.2002h-1.20215v-.752h1.20215v-.2002h-1.20215v-.752h1.20215v-.2002h-1.20215v-.752h1.20215v-.2002h-1.20215v-.81152h2.30273v-.2002h-2.30273v-.75928h1.12012v-.2002h-1.12012V113.042h1.12012v-.2002h-1.12012v-.75244h1.12012v-.2002h-1.12012v-.75146h1.12012v-.2002h-1.12012V110.126h2.2207v-.2002h-2.2207v-.752h1.12012v-.2002h-1.12012v-.752h1.12012v-.2002h-1.12012v-.752h1.12012v-.2002h-1.12012v-.752h1.12012v-.2002h-1.12012v-.811h2.2207v-.2002h-2.2207v-.71484h1.20215v-.2002h-1.20215v-.752h1.20215v-.2002h-1.20215v-.752h1.20215v-.2002h-1.20215v-.75146h1.20215v-.2002h-1.20215v-.81152h2.30273v-.2002h-2.30273v-.752h1.20215v-.2002h-1.20215v-.752h1.20215v-.2002h-1.20215v-.752h1.20215v-.2002h-1.20215v-.75146h1.20215v-.2002h-1.20215v-.812h2.30273v-.2002h-2.30273v-.75879h1.12012v-.2002h-1.12012v-.752h1.12012v-.2002h-1.12012v-.752h1.12012v-.2002h-1.12012v-.752h1.12012v-.2002h-1.12012V90.876h2.2207v-.2002h-2.2207v-.752h1.12012v-.2002h-1.12012v-.75146h1.12012V88.772h-1.12012V88.02h1.12012v-.2002h-1.12012v-.752h1.12012v-.2002h-1.12012v-.811h2.2207v-.2002h-2.2207v-.75439h1.20215v-.2002h-1.20215v-.75244h1.20215v-.2002h-1.20215v-.75146h1.20215v-.2002h-1.20215v-.75244h1.20215v-.2002h-1.20215v-.811h2.30273v-.2002h-2.30273v-.752h1.20215v-.2002h-1.20215v-.752h1.20215v-.2002h-1.20215v-.752h1.20215v-.2002h-1.20215v-.75146h1.20215v-.2002h-1.20215v-.81152h2.30273v-.2002h-2.30273v-.75928h1.12012v-.2002h-1.12012v-.752h1.12012v-.2002h-1.12012v-.752h1.12012v-.2002h-1.12012v-.752h1.12012v-.2002h-1.12012v-.81152h2.2207v-.2002h-2.2207v-.75146h1.12012v-.2002h-1.12012v-.752h1.12012v-.2002h-1.12012v-.752h1.12012v-.2002h-1.12012v-.752h1.12012v-.2002h-1.12012V66.7666h2.2207v-.2002h-2.2207v-.71436h1.20215v-.2002h-1.20215v-.752h1.20215v-.2002h-1.20215v-.752h1.20215v-.2002h-1.20215v-.752h1.20215v-.2002h-1.20215v-.81152h2.30273v-.2002h-2.30273v-.752h1.20215v-.2002h-1.20215v-.75146h1.20215v-.2002h-1.20215v-.752h1.20215v-.2002h-1.20215v-.752h1.20215v-.2002h-1.20215v-.81152h2.30273v-.2002h-2.30273v-.75928h1.12012v-.2002h-1.12012v-.752h1.12012v-.2002h-1.12012v-.75146h1.12012v-.2002h-1.12012v-.75244h1.12012v-.2002h-1.12012v-.811h2.2207v-.2002h-2.2207v-.752h1.12012v-.2002h-1.12012v-.752h1.12012v-.2002h-1.12012v-.752h1.12012v-.2002h-1.12012v-.752h1.12012v-.2002h-1.12012v-.811h2.2207v-.2002h-2.2207V22.19537a1.22273,1.22273,0,0,0,.64746-1.22858c0-.7168-.35449-1.27832-.80664-1.27832-.45264,0-.80713.56152-.80713,1.27832,0,.69415.335,1.23187.76709,1.26581V47.31689H149.3335v.2002h1.98291v.811h-1.12012v.2002h1.12012v.752h-1.12012v.2002h1.12012v.752h-1.12012v.2002h1.12012v.752h-1.12012v.2002h1.12012v.752H149.3335v.2002h1.98291v.811h-1.12012v.2002h1.12012v.75244h-1.12012v.2002h1.12012v.75146h-1.12012v.2002h1.12012v.752h-1.12012v.2002h1.12012v.75928H149.415v.2002h1.90137v.81152h-1.03857v.2002h1.03857v.752h-1.03857v.2002h1.03857v.752h-1.03857v.2002h1.03857v.75146h-1.03857v.2002h1.03857v.752H149.415v.2002h1.90137v.81152h-1.03857v.2002h1.03857v.752h-1.03857v.2002h1.03857v.752h-1.03857v.2002h1.03857v.752h-1.03857v.2002h1.03857v.71436H149.3335v.2002h1.98291v.81152h-1.12012v.2002h1.12012v.752h-1.12012v.2002h1.12012v.752h-1.12012v.2002h1.12012v.752h-1.12012v.2002h1.12012v.75146H149.3335v.2002h1.98291v.81152h-1.12012v.2002h1.12012v.752h-1.12012v.2002h1.12012v.752h-1.12012v.2002h1.12012v.752h-1.12012v.2002h1.12012v.75928H149.415v.2002h1.90137v.81152h-1.03857v.2002h1.03857v.75146h-1.03857v.2002h1.03857v.752h-1.03857v.2002h1.03857v.752h-1.03857v.2002h1.03857v.752H149.415v.2002h1.90137v.811h-1.03857v.2002h1.03857v.75244h-1.03857v.2002h1.03857v.75146h-1.03857v.2002h1.03857v.75244h-1.03857v.2002h1.03857v.75439H149.3335v.2002h1.98291v.811h-1.12012v.2002h1.12012v.752h-1.12012V88.02h1.12012v.752h-1.12012v.2002h1.12012v.75146h-1.12012v.2002h1.12012v.752H149.3335v.2002h1.98291v.81152h-1.12012v.2002h1.12012v.752h-1.12012v.2002h1.12012v.752h-1.12012v.2002h1.12012v.752h-1.12012v.2002h1.12012v.75879H149.415v.2002h1.90137v.812h-1.03857v.2002h1.03857v.75146h-1.03857v.2002h1.03857v.752h-1.03857v.2002h1.03857v.752h-1.03857v.2002h1.03857v.752H149.415v.2002h1.90137v.81152h-1.03857v.2002h1.03857v.75146h-1.03857v.2002h1.03857v.752h-1.03857v.2002h1.03857v.752h-1.03857v.2002h1.03857v.71484H149.3335v.2002h1.98291v.811h-1.12012v.2002h1.12012v.752h-1.12012v.2002h1.12012v.752h-1.12012v.2002h1.12012v.752h-1.12012v.2002h1.12012v.752H149.3335v.2002h1.98291v.81152h-1.12012v.2002h1.12012v.75146h-1.12012v.2002h1.12012v.75244h-1.12012v.2002h1.12012v.75146h-1.12012v.2002h1.12012v.75928H149.415v.2002h1.90137v.81152h-1.03857v.2002h1.03857v.752h-1.03857v.2002h1.03857v.752h-1.03857v.2002h1.03857v.752h-1.03857v.2002h1.03857v.75146H149.415v.2002h1.90137v.81152h-1.03857v.2002h1.03857v.752h-1.03857v.2002h1.03857v.752h-1.03857v.2002h1.03857v.752h-1.03857v.2002h1.03857v.7666H149.3335v.2002h1.98291v.81152h-1.12012v.2002h1.12012v.752h-1.12012v.2002h1.12012v.75146h-1.12012v.2002h1.12012v.752h-1.12012v.2002h1.12012v.752H149.3335v.2002h1.98291v.81152h-1.12012v.2002h1.12012v.752h-1.12012v.2002h1.12012v.752h-1.12012v.2002h1.12012v.75146h-1.12012v.2002h1.12012v.75977H149.415v.2002h1.90137v.811h-1.03857v.2002h1.03857v.752h-1.03857v.2002h1.03857v.752h-1.03857v.2002h1.03857v.752h-1.03857v.2002h1.03857v.75146H149.415v.2002h1.90137v.81152h-1.03857v.2002h1.03857v.752h-1.03857v.2002h1.03857v.752h-1.03857v.2002h1.03857v.752h-1.03857v.2002h1.03857v.71484H149.3335v.2002h1.98291v.811h-1.12012v.2002h1.12012v.752h-1.12012v.2002h1.12012v.752h-1.12012v.2002h1.12012v.752h-1.12012v.2002h1.12012v.752H149.3335v.2002h1.98291v.811h-1.12012v.2002h1.12012v.752h-1.12012v.2002h1.12012v.75244h-1.12012v.19922h1.12012v.75293h-1.12012v.19922h1.12012v.76074H149.415v.19922h1.90137v.81152h-1.03857v.19922h1.03857v.75293h-1.03857v.19922h1.03857v.75293h-1.03857v.19922h1.03857v.75293h-1.03857v.19922h1.03857v.75293H149.415v.19922h1.90137v.8125h-1.03857v.19922h1.03857v.75293h-1.03857v.19922h1.03857v.75293h-1.03857v.19922h1.03857v.75293h-1.03857v.19922h1.03857v20.88391a16.517,16.517,0,0,0-2.62842.17859l.06445.39453a16.27551,16.27551,0,0,1,2.564-.17261v1.15735a10.32192,10.32192,0,0,1-3.50781-.49261,5.37029,5.37029,0,0,0,.9873-2.71967l-.01465-160.085A2.65566,2.65566,0,0,1,151.416,18.667Zm-2.61426,236.18066L148.796,206.863a12.36483,12.36483,0,0,0,2.52045.21649v47.76819h-.376c0,.3606-.84613,1.1225-1.74915,1.72589A5.85542,5.85542,0,0,1,148.80176,254.84766Zm-1.15967-69.69531a12.60169,12.60169,0,0,0,3.67432.48395v20.44312a8.51442,8.51442,0,0,1-2.833-.35382Zm3.71436-163.10742c-.3291,0-.60693-.49365-.60693-1.07812s.27783-1.07812.60693-1.07812.60742.49365.60742,1.07813S151.68555,22.04492,151.35645,22.04492Zm2.72363,232.80273a5.84225,5.84225,0,0,1-.38275,1.72491c-.9071-.60254-1.7569-1.36359-1.7569-1.72491h-.4248V207.07758a11.38367,11.38367,0,0,0,2.56158-.25452Zm.15234-49.123a8.28747,8.28747,0,0,1-2.7168.35278V185.63733a13.25168,13.25168,0,0,0,3.78223-.49084Z"
          transform="translate(-146.59961 -17.66699)"/>
    <rect x="147.76069" y="185.4134" width="0.2" height="1.8" rx="0.1" ry="0.1"
          transform="translate(207.46844 50.09688) rotate(98.54117)"/>
    <rect x="149.28244" y="190.71865" width="0.2" height="1.8" rx="0.1" ry="0.1"
          transform="translate(160.46712 -10.89553) rotate(78.40524)"/>
    <rect x="152.2438" y="192.3221" width="0.2" height="1.8" rx="0.1" ry="0.1"
          transform="matrix(-0.14852, 0.98891, -0.98891, -0.14852, 219.44946, 53.59827)"/>
    <rect x="153.23333" y="195.26666" width="0.2" height="1.8" rx="0.1" ry="0.1"
          transform="translate(93.14671 -55.00679) rotate(58.32074)"/>
    <rect x="152.14948" y="186.01098" width="0.2" height="1.8" rx="0.1" ry="0.1"
          transform="translate(-91.21015 -51.51324) rotate(15.47468)"/>
    <rect x="150.59849" y="195.44992" width="0.2" height="1.8" rx="0.1" ry="0.1"
          transform="translate(183.75815 348.93531) rotate(170.96628)"/>
    <rect x="149.30682" y="187.86004" width="0.2" height="1.8" rx="0.1" ry="0.1"
          transform="translate(243.52149 168.02866) rotate(127.63286)"/>
    <rect x="149.25431" y="202.80272" width="0.2" height="1.8" rx="0.1" ry="0.1"
          transform="translate(-27.87133 436.76179) rotate(-136.78708)"/>
    <rect x="154.25185" y="185.12384" width="0.2" height="1.8" rx="0.1" ry="0.1"
          transform="matrix(-0.96477, 0.2631, -0.2631, -0.96477, 205.60963, 307.21583)"/>
    <rect x="153.23333" y="189.1" width="0.2" height="1.8" rx="0.1" ry="0.1"
          transform="translate(-31.46978 413.47944) rotate(-132.09362)"/>
    <rect x="149.0913" y="199.28527" width="0.2" height="1.8" rx="0.1" ry="0.1"
          transform="translate(168.70221 -3.86703) rotate(78.40401)"/>
    <rect x="151.56667" y="202.26667" width="0.2" height="1.8" rx="0.1" ry="0.1"
          transform="translate(116.38241 -42.2905) rotate(62.78544)"/>
    <rect x="153.4" y="197.93333" width="0.2" height="1.8" rx="0.1" ry="0.1"
          transform="matrix(-0.99126, 0.13195, -0.13195, -0.99126, 185.29416, 358.00697)"/>
    <rect x="152.56667" y="200.26667" width="0.2" height="1.8" rx="0.1" ry="0.1"
          transform="translate(253.37582 234.62223) rotate(138.87452)"/>
    <rect x="154.4" y="191.1" width="0.2" height="1.8" rx="0.1" ry="0.1"
          transform="translate(224.40592 292.05982) rotate(157.35873)"/>
    <rect x="153.52189" y="202.87801" width="0.2" height="1.8" rx="0.1" ry="0.1"
          transform="translate(71.70168 432.97482) rotate(-157.67023)"/>
    <rect x="150.46976" y="204.35876" width="0.2" height="1.8" rx="0.1" ry="0.1"
          transform="translate(174.77352 -1.16368) rotate(78.40401)"/>
    <rect x="148.56667" y="194.76666" width="0.2" height="1.8" rx="0.1" ry="0.1"
          transform="translate(232.67611 262.89187) rotate(147.43717)"/></g>
</svg>