<svg id="Clipware27" xmlns="http://www.w3.org/2000/svg" viewBox="0 0 9.75146 222.28662" width="12" height="228">
    <title>Clipware27</title><g fill="#000000" stroke-width="0.2324">
    <path d="M154.18164,204.0752m-.20605-.21582a4.911,4.911,0,0,1-1.0166-2.54785l-.00586-160.21826a3.64531,3.64531,0,1,0-7.29053.01465l.01465,160.08447a5.12721,5.12721,0,0,1-1.08643,2.54395l-.15967.3125.89063,21.77832a.71414.71414,0,0,0,.35553.592l.00629,19.741a7.9182,7.9182,0,0,0,.64423,2.57349l-.006,7.98511a2.991,2.991,0,1,0,5.98193.001l.02246-7.98535a8.04008,8.04008,0,0,0,.63477-2.57422l-.002-19.98627a.58493.58493,0,0,0,.09375-.32037l.65051-12.54675.00769-.004-.00677-.01282.4765-9.19031Zm.207.18945-1.47076,9.07416-.64838,12.52252a8.19068,8.19068,0,0,1-2.666.352V205.55786a13.10137,13.10137,0,0,0,3.73145-.4895l-.41125,7.943-.05066.02673ZM146.6626,41.10791a2.64533,2.64533,0,1,1,5.29053-.01465l.00586,160.21826a5.47251,5.47251,0,0,0,.95874,2.775,10.82146,10.82146,0,0,1-3.52026.47V203.253a15.92076,15.92076,0,0,1,2.07422.14642l.05859-.39648a16.41848,16.41848,0,0,0-2.13281-.15039V181.96289h1.20166v-.19922h-1.20166v-.75293h1.20166v-.19922h-1.20166v-.75293h1.20166v-.19922h-1.20166v-.75293h1.20166v-.19922h-1.20166v-.8125h2.30273v-.19922h-2.30273v-.75293h1.20166v-.19922h-1.20166v-.752h1.20166v-.19922h-1.20166v-.75293h1.20166V175.04h-1.20166v-.75293h1.20166v-.19922h-1.20166v-.8125h2.30273v-.19922h-2.30273v-.76074h1.12012v-.19922h-1.12012v-.75293h1.12012v-.19922h-1.12012v-.752h1.12012v-.19922h-1.12012V169.459h1.12012v-.19922h-1.12012v-.81152h2.2207V168.249h-2.2207v-.75293h1.12012v-.19922h-1.12012v-.75293h1.12012v-.19922h-1.12012v-.75293h1.12012v-.19922h-1.12012v-.75293h1.12012v-.19922h-1.12012v-.8125h2.2207v-.19922h-2.2207v-.71582h1.20166v-.19922h-1.20166v-.75293h1.20166v-.19922h-1.20166v-.752h1.20166v-.19922h-1.20166v-.75391h1.20166v-.19922h-1.20166v-.81152h2.30273v-.19922h-2.30273v-.75293h1.20166v-.19922h-1.20166v-.75293h1.20166v-.19922h-1.20166v-.75293h1.20166V155.79h-1.20166v-.75293h1.20166v-.19922h-1.20166v-.8125h2.30273v-.19922h-2.30273v-.76074h1.12012v-.19922h-1.12012v-.752h1.12012V151.915h-1.12012v-.75293h1.12012v-.19971h-1.12012V150.21h1.12012v-.2002h-1.12012v-.811h2.2207v-.2002h-2.2207v-.752h1.12012v-.2002h-1.12012v-.752h1.12012v-.2002h-1.12012v-.752h1.12012v-.2002h-1.12012v-.752h1.12012v-.2002h-1.12012v-.811h2.2207v-.2002h-2.2207v-.76709h1.20166v-.2002h-1.20166V142.46h1.20166v-.2002h-1.20166v-.752h1.20166v-.2002h-1.20166v-.752h1.20166v-.2002h-1.20166v-.81152h2.30273v-.2002h-2.30273v-.752h1.20166v-.2002h-1.20166v-.752h1.20166v-.2002h-1.20166V136.688h1.20166v-.2002h-1.20166v-.75244h1.20166v-.2002h-1.20166v-.811h2.30273v-.2002h-2.30273v-.75928h1.12012v-.2002h-1.12012v-.752h1.12012v-.2002h-1.12012v-.752h1.12012v-.2002h-1.12012v-.752h1.12012v-.2002h-1.12012v-.811h2.2207v-.2002h-2.2207v-.752h1.12012v-.2002h-1.12012v-.752h1.12012v-.2002h-1.12012v-.752h1.12012v-.2002h-1.12012v-.752h1.12012v-.2002h-1.12012v-.81152h2.2207v-.2002h-2.2207v-.71436h1.20166v-.2002h-1.20166v-.752h1.20166v-.2002h-1.20166v-.752h1.20166v-.2002h-1.20166v-.752h1.20166v-.2002h-1.20166v-.81152h2.30273v-.2002h-2.30273v-.752h1.20166v-.2002h-1.20166v-.75146h1.20166v-.2002h-1.20166v-.752h1.20166v-.2002h-1.20166v-.752h1.20166v-.2002h-1.20166v-.81152h2.30273v-.2002h-2.30273v-.75928h1.12012v-.2002h-1.12012V113.563h1.12012v-.2002h-1.12012v-.75244h1.12012v-.2002h-1.12012v-.75146h1.12012v-.2002h-1.12012V110.647h2.2207v-.2002h-2.2207v-.752h1.12012v-.2002h-1.12012v-.752h1.12012v-.2002h-1.12012V107.791h1.12012v-.2002h-1.12012v-.75244h1.12012v-.2002h-1.12012v-.811h2.2207v-.2002h-2.2207v-.75439h1.20166v-.2002h-1.20166v-.752h1.20166v-.2002h-1.20166v-.752h1.20166v-.2002h-1.20166v-.752h1.20166v-.2002h-1.20166v-.811h2.30273v-.2002h-2.30273v-.752h1.20166v-.2002h-1.20166v-.752h1.20166v-.2002h-1.20166v-.752h1.20166v-.2002h-1.20166v-.752h1.20166v-.2002h-1.20166v-.81152h2.30273v-.2002h-2.30273V95.2251h1.12012v-.2002h-1.12012v-.752h1.12012v-.2002h-1.12012v-.75146h1.12012v-.2002h-1.12012v-.752h1.12012v-.2002h-1.12012v-.81152h2.2207v-.2002h-2.2207v-.752h1.12012v-.2002h-1.12012v-.75146h1.12012v-.2002h-1.12012V88.501h1.12012v-.2002h-1.12012v-.75146h1.12012v-.2002h-1.12012V86.5376h2.2207v-.2002h-2.2207v-.71484h1.20166v-.2002h-1.20166v-.752h1.20166v-.2002h-1.20166v-.75146h1.20166v-.2002h-1.20166v-.75244h1.20166v-.2002h-1.20166v-.811h2.30273v-.2002h-2.30273v-.752h1.20166v-.2002h-1.20166v-.752h1.20166v-.2002h-1.20166v-.752h1.20166v-.2002h-1.20166v-.752h1.20166v-.2002h-1.20166v-.811h2.30273v-.2002h-2.30273V75.9751h1.12012v-.2002h-1.12012v-.75146h1.12012v-.2002h-1.12012v-.752h1.12012v-.2002h-1.12012v-.752h1.12012v-.2002h-1.12012v-.81152h2.2207v-.2002h-2.2207v-.75146h1.12012v-.2002h-1.12012v-.752h1.12012v-.2002h-1.12012v-.752h1.12012v-.2002h-1.12012v-.752h1.12012v-.2002h-1.12012V67.2876h2.2207v-.2002h-2.2207V41.96631a1.22274,1.22274,0,0,0,.64746-1.22852c0-.7168-.35449-1.27832-.80713-1.27832-.45215,0-.80664.56152-.80664,1.27832,0,.69385.33472,1.23132.76611,1.26569V67.0874h-1.98242v.2002h1.98242v.81152h-1.11963v.2002h1.11963v.752h-1.11963v.2002h1.11963v.752h-1.11963v.2002h1.11963v.752h-1.11963v.2002h1.11963v.75146h-1.98242v.2002h1.98242v.81152h-1.11963v.2002h1.11963v.752h-1.11963v.2002h1.11963v.752h-1.11963v.2002h1.11963v.75146h-1.11963v.2002h1.11963v.75977h-1.90039v.2002h1.90039v.811h-1.0376v.2002h1.0376v.752h-1.0376v.2002h1.0376v.752h-1.0376v.2002h1.0376v.752h-1.0376v.2002h1.0376v.752h-1.90039v.2002h1.90039v.811h-1.0376v.2002h1.0376v.75244h-1.0376v.2002h1.0376v.75146h-1.0376v.2002h1.0376v.752h-1.0376v.2002h1.0376v.71484h-1.98242v.2002h1.98242v.81152h-1.11963v.2002h1.11963v.75146h-1.11963v.2002h1.11963v.75244h-1.11963v.2002h1.11963v.75146h-1.11963v.2002h1.11963v.752h-1.98242v.2002h1.98242v.81152h-1.11963v.2002h1.11963v.752h-1.11963v.2002h1.11963v.75146h-1.11963v.2002h1.11963v.752h-1.11963v.2002h1.11963v.75928h-1.90039v.2002h1.90039v.81152h-1.0376v.2002h1.0376v.752h-1.0376v.2002h1.0376v.752h-1.0376v.2002h1.0376v.752h-1.0376v.2002h1.0376v.752h-1.90039v.2002h1.90039v.811h-1.0376v.2002h1.0376v.752h-1.0376v.2002h1.0376v.752h-1.0376v.2002h1.0376v.752h-1.0376v.2002h1.0376v.75439h-1.98242v.2002h1.98242v.811h-1.11963v.2002h1.11963v.75244h-1.11963v.2002h1.11963v.75146h-1.11963v.2002h1.11963v.752h-1.11963v.2002h1.11963v.752h-1.98242v.2002h1.98242v.81152h-1.11963v.2002h1.11963v.75146h-1.11963v.2002h1.11963v.75244h-1.11963v.2002h1.11963v.75146h-1.11963v.2002h1.11963v.75928h-1.90039v.2002h1.90039v.81152h-1.0376v.2002h1.0376v.752h-1.0376v.2002h1.0376v.752h-1.0376v.2002h1.0376v.75146h-1.0376v.2002h1.0376v.752h-1.90039v.2002h1.90039v.81152h-1.0376v.2002h1.0376v.752h-1.0376v.2002h1.0376v.752h-1.0376v.2002h1.0376v.752h-1.0376v.2002h1.0376v.71436h-1.98242v.2002h1.98242v.81152h-1.11963v.2002h1.11963v.752h-1.11963v.2002h1.11963v.752h-1.11963v.2002h1.11963v.752h-1.11963v.2002h1.11963v.752h-1.98242v.2002h1.98242v.811h-1.11963v.2002h1.11963v.752h-1.11963v.2002h1.11963v.752h-1.11963v.2002h1.11963v.752h-1.11963v.2002h1.11963v.75928h-1.90039v.2002h1.90039v.811h-1.0376v.2002h1.0376v.75244h-1.0376v.2002h1.0376v.75146h-1.0376v.2002h1.0376v.752h-1.0376v.2002h1.0376v.752h-1.90039v.2002h1.90039v.81152h-1.0376v.2002h1.0376v.752h-1.0376v.2002h1.0376v.752h-1.0376v.2002h1.0376v.75146h-1.0376v.2002h1.0376v.76709h-1.98242v.2002h1.98242v.811h-1.11963v.2002h1.11963v.752h-1.11963v.2002h1.11963v.752h-1.11963v.2002h1.11963v.752h-1.11963v.2002h1.11963v.752h-1.98242v.2002h1.98242v.811h-1.11963v.2002h1.11963v.75244h-1.11963v.19971h1.11963v.75293h-1.11963v.19922h1.11963v.752h-1.11963v.19922h1.11963v.76074h-1.90039v.19922h1.90039v.8125h-1.0376v.19922h1.0376V155.79h-1.0376v.19922h1.0376v.75293h-1.0376v.19922h1.0376v.75293h-1.0376v.19922h1.0376v.75293h-1.90039v.19922h1.90039v.81152h-1.0376v.19922h1.0376v.75391h-1.0376v.19922h1.0376v.752h-1.0376v.19922h1.0376v.75293h-1.0376v.19922h1.0376v.71582h-1.98242v.19922h1.98242v.8125h-1.11963v.19922h1.11963v.75293h-1.11963v.19922h1.11963v.75293h-1.11963v.19922h1.11963v.75293h-1.11963v.19922h1.11963v.75293h-1.98242v.19922h1.98242v.81152h-1.11963v.19922h1.11963v.75391h-1.11963v.19922h1.11963v.752h-1.11963v.19922h1.11963v.75293h-1.11963v.19922h1.11963v.76074h-1.90039v.19922h1.90039v.8125h-1.0376v.19922h1.0376V175.04h-1.0376v.19922h1.0376v.75293h-1.0376v.19922h1.0376v.752h-1.0376v.19922h1.0376v.75293h-1.90039v.19922h1.90039v.8125h-1.0376v.19922h1.0376v.75293h-1.0376v.19922h1.0376v.75293h-1.0376v.19922h1.0376v.75293h-1.0376v.19922h1.0376v20.88385a16.51028,16.51028,0,0,0-2.62793.17865l.06445.39453a16.28425,16.28425,0,0,1,2.56348-.17261v1.30884a10.13089,10.13089,0,0,1-3.595-.51007,5.56519,5.56519,0,0,0,1.075-2.8537Zm2.5752.708c-.32861,0-.60645-.49365-.60645-1.07812s.27783-1.07812.60645-1.07812c.3291,0,.60693.49365.60693,1.07813S149.56689,41.81592,149.23779,41.81592Zm-.04053,163.7417v20.44318l-.00928.00018a8.577,8.577,0,0,1-2.873-.35449l-.84131-20.57324A12.74215,12.74215,0,0,0,149.19727,205.55762Zm-.375,40.60254c0,.36133-.84607,1.12311-1.749,1.72644a5.86916,5.86916,0,0,1-.38971-1.72644l-.00616-19.36731a12.67933,12.67933,0,0,0,2.51056.20813l.00928-.00012v19.1593Zm3.13867,0a5.84566,5.84566,0,0,1-.38287,1.726c-.9068-.6037-1.7558-1.36469-1.7558-1.726h-.4248V226.99768a10.97485,10.97485,0,0,0,2.56158-.26831Z"
          transform="translate(-144.43115 -37.43799)"/>
    <rect x="145.90883" y="205.63956" width="0.2" height="1.8" rx="0.1" ry="0.1"
          transform="translate(227.51134 55.38635) rotate(98.54092)"/>
    <rect x="147.43058" y="210.9448" width="0.2" height="1.8" rx="0.1" ry="0.1"
          transform="translate(180.97018 -12.69073) rotate(78.4055)"/>
    <rect x="150.39194" y="212.54826" width="0.2" height="1.8" rx="0.1" ry="0.1"
          transform="translate(239.49286 58.88874) rotate(98.54118)"/>
    <rect x="151.38148" y="215.49282" width="0.2" height="1.8" rx="0.1" ry="0.1"
          transform="translate(111.64831 -63.59775) rotate(58.32074)"/>
    <rect x="150.29762" y="206.23714" width="0.2" height="1.8" rx="0.1" ry="0.1"
          transform="translate(-83.71222 -70.05692) rotate(15.47468)"/>
    <rect x="148.74664" y="215.67608" width="0.2" height="1.8" rx="0.1" ry="0.1"
          transform="matrix(-0.9876, 0.15702, -0.15702, -0.9876, 185.42169, 369.65652)"/>
    <rect x="147.45497" y="208.0862" width="0.2" height="1.8" rx="0.1" ry="0.1"
          transform="translate(258.72525 182.30046) rotate(127.63286)"/>
    <rect x="147.40246" y="223.02888" width="0.2" height="1.8" rx="0.1" ry="0.1"
          transform="translate(-42.75348 450.69007) rotate(-136.78708)"/>
    <rect x="152.4" y="205.35" width="0.2" height="1.8" rx="0.1" ry="0.1"
          transform="matrix(-0.96477, 0.2631, -0.2631, -0.96477, 209.46122, 327.67176)"/>
    <rect x="151.38148" y="209.32616" width="0.2" height="1.8" rx="0.1" ry="0.1"
          transform="translate(-47.40338 426.11892) rotate(-132.09362)"/>
    <rect x="147.23945" y="219.51143" width="0.2" height="1.8" rx="0.1" ry="0.1"
          transform="translate(189.20439 -5.66344) rotate(78.40402)"/>
    <rect x="149.71481" y="222.49283" width="0.2" height="1.8" rx="0.1" ry="0.1"
          transform="translate(135.53303 -49.43839) rotate(62.78544)"/>
    <rect x="151.54815" y="218.15949" width="0.2" height="1.8" rx="0.1" ry="0.1"
          transform="translate(186.44394 378.75578) rotate(172.41775)"/>
    <rect x="150.71481" y="220.49282" width="0.2" height="1.8" rx="0.1" ry="0.1"
          transform="translate(265.60042 251.53117) rotate(138.87452)"/>
    <rect x="152.54815" y="211.32616" width="0.2" height="1.8" rx="0.1" ry="0.1"
          transform="matrix(-0.92293, 0.38496, -0.38496, -0.92293, 230.79967, 311.89525)"/>
    <rect x="151.67004" y="223.10417" width="0.2" height="1.8" rx="0.1" ry="0.1"
          transform="translate(62.62065 451.43584) rotate(-157.67023)"/>
    <rect x="148.61791" y="224.58492" width="0.2" height="1.8" rx="0.1" ry="0.1"
          transform="translate(195.27571 -2.9601) rotate(78.40402)"/>
    <rect x="146.71481" y="214.99282" width="0.2" height="1.8" rx="0.1" ry="0.1"
          transform="translate(242.31818 281.39038) rotate(147.43716)"/></g>
</svg>