<?xml version="1.0" encoding="utf-8"?>
<!-- Generator: Adobe Illustrator 16.0.0, SVG Export Plug-In . SVG Version: 6.00 Build 0)  -->
<!DOCTYPE svg PUBLIC "-//W3C//DTD SVG 1.1//EN" "http://www.w3.org/Graphics/SVG/1.1/DTD/svg11.dtd">
<svg version="1.1" id="图层_1" xmlns="http://www.w3.org/2000/svg" xmlns:xlink="http://www.w3.org/1999/xlink" x="0px" y="0px"
	 width="40px" height="40px" viewBox="0 0 40 40" enable-background="new 0 0 40 40" xml:space="preserve">
<g>
	<path fill="#333333" d="M8,18c1.105,0,2,0.895,2,2c0,1.103-0.896,2-2,2s-2-0.896-2-2C6.002,18.895,6.896,18,8,18z"/>
	<path fill="#333333" d="M19.947,18c1.104,0,2,0.895,2,2c0,1.103-0.896,2-2,2c-1.102,0-2-0.896-2-2
		C17.947,18.895,18.846,18,19.947,18z"/>
	<path fill="#333333" d="M32,18c1.105,0,2,0.894,2,2.001c0,1.103-0.895,2-2,2c-1.104,0-2-0.896-2-2C30,18.893,30.896,18,32,18z"/>
</g>
</svg>
