<?xml version="1.0" encoding="utf-8"?>
<!-- Generator: Adobe Illustrator 16.0.0, SVG Export Plug-In . SVG Version: 6.00 Build 0)  -->
<!DOCTYPE svg PUBLIC "-//W3C//DTD SVG 1.1//EN" "http://www.w3.org/Graphics/SVG/1.1/DTD/svg11.dtd">
<svg version="1.1" id="图层_1" xmlns="http://www.w3.org/2000/svg" xmlns:xlink="http://www.w3.org/1999/xlink" x="0px" y="0px"
	 width="40px" height="40px" viewBox="0 0 40 40" enable-background="new 0 0 40 40" xml:space="preserve">
<g>
	<g>
		<polygon fill="#4C4C4C" points="31.466,20.5 31.466,22.556 34,20.02 31.466,17.489 31.466,19.5 27.466,19.5 27.466,15.5 
			29.309,15.5 26.775,12.966 24.24,15.5 26.466,15.5 26.466,19.5 22.466,19.5 22.466,17.477 19.931,20.015 22.466,22.545 
			22.466,20.5 26.466,20.5 26.466,24.499 24.252,24.499 26.787,27.033 29.32,24.499 27.466,24.499 27.466,20.5 		"/>
		<g>
			<rect x="26.466" y="15.5" fill="#4C4C4C" width="1" height="9"/>
			<rect x="22.466" y="19.5" fill="#4C4C4C" width="9" height="1"/>
		</g>
	</g>
	<path fill="#4C4C4C" d="M21.302,23.936L10,12l0.015,16l3.173-5.009l2.003-0.79L21.302,23.936z"/>
</g>
</svg>
