<?xml version="1.0" encoding="utf-8"?>
<!-- Generator: Adobe Illustrator 16.0.0, SVG Export Plug-In . SVG Version: 6.00 Build 0)  -->
<!DOCTYPE svg PUBLIC "-//W3C//DTD SVG 1.1//EN" "http://www.w3.org/Graphics/SVG/1.1/DTD/svg11.dtd">
<svg version="1.1" id="图层_1" xmlns="http://www.w3.org/2000/svg" xmlns:xlink="http://www.w3.org/1999/xlink" x="0px" y="0px"
	 width="40px" height="40px" viewBox="180 180 40 40" enable-background="new 180 180 40 40" xml:space="preserve">
<g>
	<g>
		<g>
			<rect x="185.5" y="202.123" fill="#4C4C4C" width="7" height="1"/>
			<rect x="194.94" y="207.352" fill="#4C4C4C" width="7" height="1"/>
			<rect x="204.408" y="191.629" fill="#4C4C4C" width="6" height="1"/>
			
				<rect x="199.868" y="204.72" transform="matrix(0.5 -0.866 0.866 0.5 -76.133 278.5742)" fill="#4C4C4C" width="6.621" height="0.997"/>
			
				<rect x="199.88" y="194.244" transform="matrix(0.5001 -0.866 0.866 0.5001 -67.0659 273.3098)" fill="#4C4C4C" width="6.618" height="0.997"/>
			
				<rect x="193.232" y="201.949" transform="matrix(0.866 -0.5 0.5 0.866 -76.677 124.3751)" fill="#4C4C4C" width="0.998" height="6.617"/>
			
				<rect x="202.698" y="196.667" transform="matrix(0.8656 -0.5008 0.5008 0.8656 -72.8282 128.6347)" fill="#4C4C4C" width="0.998" height="6.618"/>
		</g>
	</g>
	<g>
		<rect x="209.5" y="205.371" fill="#4C4C4C" width="1" height="3"/>
		<g>
			<rect x="213.5" y="205.282" fill="#4C4C4C" width="1" height="3.089"/>
			<path fill="#4C4C4C" d="M210.5,205.408c0.021-0.809,0.685-1.459,1.496-1.459c0.813,0,1.475,0.65,1.496,1.459h1
				c-0.021-1.361-1.129-2.459-2.496-2.459s-2.475,1.098-2.496,2.459H210.5z"/>
		</g>
	</g>
</g>
</svg>
