<?xml version="1.0" encoding="utf-8"?>
<!-- Generator: Adobe Illustrator 16.0.0, SVG Export Plug-In . SVG Version: 6.00 Build 0)  -->
<!DOCTYPE svg PUBLIC "-//W3C//DTD SVG 1.1//EN" "http://www.w3.org/Graphics/SVG/1.1/DTD/svg11.dtd">
<svg version="1.1" id="图层_1" xmlns="http://www.w3.org/2000/svg" xmlns:xlink="http://www.w3.org/1999/xlink" x="0px" y="0px"
	 width="40px" height="40px" viewBox="0 0 40 40" enable-background="new 0 0 40 40" xml:space="preserve">
<path display="none" fill="#6B6C6B" d="M878.457-66.628c2.071,2.085,2.071,5.414,0,7.471L287.543,531.786
	c-2.086,2.085-5.415,2.085-7.486,0L242.657,494.4c-2.071-2.086-2.071-5.415,0-7.443L833.6-104.014c2.086-2.086,5.415-2.086,7.458,0
	L878.457-66.628z"/>
<g>
	<path fill="#323333" d="M33.626,10.998c0.029,0.032-0.007,0.121-0.085,0.2L11.199,33.541c-0.081,0.082-0.167,0.114-0.202,0.083
		l-0.589-0.59c-0.034-0.031,0.003-0.122,0.081-0.198l22.348-22.347c0.08-0.079,0.166-0.115,0.197-0.082L33.626,10.998z"/>
	<path fill="#323333" d="M29.593,6.966c0.03,0.031-0.005,0.122-0.084,0.199L7.165,29.508c-0.078,0.083-0.167,0.118-0.198,0.085
		l-0.592-0.594c-0.031-0.03,0.005-0.118,0.083-0.197L28.804,6.456c0.077-0.076,0.165-0.114,0.198-0.081L29.593,6.966z"/>
</g>
</svg>
