<?xml version="1.0" encoding="utf-8"?>
<!-- Generator: Adobe Illustrator 16.0.0, SVG Export Plug-In . SVG Version: 6.00 Build 0)  -->
<!DOCTYPE svg PUBLIC "-//W3C//DTD SVG 1.1//EN" "http://www.w3.org/Graphics/SVG/1.1/DTD/svg11.dtd">
<svg version="1.1" id="图层_1" xmlns="http://www.w3.org/2000/svg" xmlns:xlink="http://www.w3.org/1999/xlink" x="0px" y="0px" width="20" height="20"   viewBox="0 0 400 400" enable-background="new 0 0 400 400" xml:space="preserve">
<g enable-background="new    ">
	<path fill="#4C4C4C" d="M191.5,189.195v21.885c0,1.53,0.108,2.4-0.01,2.603s-0.063,0.303-0.416,0.294
		c-0.354-0.005-0.574-0.196-0.574-0.579v-2.464v-23.391c0-0.421-0.165-0.751-0.079-0.991c0.09-0.236,0.21-0.403,0.569-0.496
		c0.361-0.097,0.619-0.017,0.884,0.231c0.266,0.252,0.682,0.588,0.968,1.006l15.657,23.372v-22.331l-0.188-1.752
		c0.195-0.406,0.412-0.602,0.813-0.588c0.356,0.026,0.341,0.16,0.454,0.397c0.117,0.238-0.079,0.933-0.079,2.089v23.003
		c0,0.829,0.15,1.428,0.041,1.802c-0.107,0.376-0.237,0.602-0.589,0.681c-0.354,0.08-0.639-0.012-0.955-0.283
		c-0.319-0.271-0.784-0.659-1.108-1.162L191.5,189.195z"/>
</g>
</svg>
