<?xml version="1.0" encoding="UTF-8"?>
<svg width="30px" height="31px" viewBox="0 0 30 31" version="1.1" xmlns="http://www.w3.org/2000/svg" xmlns:xlink="http://www.w3.org/1999/xlink">
    <!-- Generator: Sketch 50 (54983) - http://www.bohemiancoding.com/sketch -->
    <title>Group 3</title>
    <desc>Created with Sketch.</desc>
    <defs></defs>
    <g id="Page-1" stroke="none" stroke-width="1" fill="none" fill-rule="evenodd">
        <g id="Artboard" transform="translate(-6.000000, -5.000000)">
            <g id="Group-3" transform="translate(6.000000, 5.000000)">
                <g id="Group" transform="translate(3.000000, 20.000000)">
                    <path d="M12.016537,9.801 C12.016537,9.801 18.6235409,9.797 19.2538911,9.797 C21.1780156,9.797 22.1410506,9.267 22.1410506,8.203 C22.1410506,7.906 22.036965,7.638 21.8307393,7.4 C21.6245136,7.161 21.3404669,6.951 20.9805447,6.768 C20.6206226,6.584 19.9455253,6.302 18.9523346,5.923 C17.5768482,5.391 16.672179,4.899 16.2354086,4.443 C15.7976654,3.987 15.5807393,3.465 15.5807393,2.88 C15.5807393,1.995 16.0379377,1.295 16.9533074,0.777 C17.8657588,0.259 19.0214008,0 20.4143969,0 C21.7782101,0 22.7782101,0.129 23.4143969,0.385 L23.4143969,1.883 C22.5894942,1.439 21.5428016,1.217 20.2811284,1.217 C19.442607,1.217 18.7607004,1.353 18.2315175,1.625 C17.7042802,1.899 17.4396887,2.278 17.4396887,2.762 C17.4396887,3.194 17.6225681,3.543 17.9883268,3.813 C18.3550584,4.084 19.1488327,4.452 20.3706226,4.92 C21.7159533,5.418 22.6566148,5.918 23.1945525,6.417 C23.7305447,6.917 24,7.478 24,8.101 C24,9.035 23.5632296,9.752 22.6896887,10.25 C21.8151751,10.75 20.6040856,11 19.0515564,11 L12,11 L12.016537,9.801 Z" id="Fill-1" fill="#999999"></path>
                    <path d="M11.3822839,10.9998 L11.5060174,1.5478 L6.93785649,10.9998 L6.03679724,10.9998 L1.55145797,1.5478 L1.55145797,10.9998 L-0.0002,10.9998 L-0.0002,-0.0002 L2.20305453,-0.0002 L6.53173123,8.8908 C6.81312515,8.2138 10.9033155,-0.0002 10.9033155,-0.0002 L12.9998,-0.0002 L12.9998,10.9998 L11.3822839,10.9998 Z" id="Fill-8" fill="#4A4A4A"></path>
                </g>
                <g id="Group-2">
                    <path d="M27.3164255,7.706 C26.8602844,7.133 26.4896005,6.728 26.2010441,6.491 C25.9135975,6.254 25.5739888,6.072 25.1788885,5.945 L25.1788885,5.909 C27.3019977,5.454 28.3618875,4.465 28.3618875,2.94 C28.3618875,2.012 27.9678971,1.29 27.1788063,0.774 C26.3874959,0.258 25.2965307,0 23.9036912,0 L21,0 L21,11 L21.3854817,11 L21.3854817,6.371 L21.4343144,6.371 L21.4343144,5.127 L21.3854817,5.127 L21.3854817,1.243 L23.5973775,1.243 C24.5174285,1.243 25.215513,1.404 25.6971802,1.727 C26.1799573,2.047 26.4185712,2.496 26.4185712,3.067 C26.4185712,3.684 26.1555409,4.181 25.6283706,4.56 C25.1012003,4.937 24.4142141,5.127 23.5696317,5.127 L22.9925189,5.127 L22.9925189,6.4 C23.4209142,6.433 23.8104653,6.52 24.1334265,6.7 C24.527417,6.921 24.9635811,7.337 25.4385893,7.946 L27.81585,11 L30,11 L27.3164255,7.706 Z" id="Fill-3" fill="#C9CACA"></path>
                    <path d="M20.3831622,11 L20.5069346,1.548 L15.9390509,11 L15.037559,11 L10.5525152,1.548 L10.5525152,11 L10,11 L10,0 L11.2035385,0 L15.5326486,8.891 C15.8143039,8.213 19.9046405,0 19.9046405,0 L22,0 L22,11 L20.3831622,11 Z" id="Fill-6" fill="#999999"></path>
                    <path d="M11,11 L8.93808666,11 L1.65203375,1.726 L1.72191144,11 L0,11 L0,0 L2.18185266,0 L8.77225751,8.409 C9.08618565,8.806 9.2707879,9.059 9.33023609,9.168 L9.27808856,0 L11,0 L11,11 Z" id="Fill-11" fill="#4A4A4A"></path>
                </g>
                <rect id="Rectangle" stroke="#979797" fill="#D8D8D8" x="0.5" y="15.5" width="29" height="1"></rect>
            </g>
        </g>
    </g>
</svg>