<?xml version="1.0" encoding="utf-8"?>
<!-- Generator: Adobe Illustrator 16.0.0, SVG Export Plug-In . SVG Version: 6.00 Build 0)  -->
<!DOCTYPE svg PUBLIC "-//W3C//DTD SVG 1.1//EN" "http://www.w3.org/Graphics/SVG/1.1/DTD/svg11.dtd">
<svg version="1.1" id="图层_1" xmlns="http://www.w3.org/2000/svg" xmlns:xlink="http://www.w3.org/1999/xlink" x="0px" y="0px"
	 width="40px" height="40px" viewBox="0 0 40 40" enable-background="new 0 0 40 40" xml:space="preserve">
<path fill="#323333" d="M33.145,18.831l-12.552-7.024c-1.149-0.646-1.708-0.236-1.272,0.865l1.523,3.807l0.988,2.895l0.059,1.253
	l-1.05,2.896l-1.524,3.804c-0.446,1.126,0.134,1.503,1.276,0.868l12.55-7.029C34.295,20.52,34.275,19.465,33.145,18.831z"/>
<rect x="6" y="19.496" fill="#323333" width="18.668" height="1"/>
<polygon fill="#323333" points="10.528,24.438 19.447,15.518 19.445,15.515 18.349,15.515 9.427,24.438 "/>
<polygon fill="#323333" points="7.139,24.438 16.059,15.515 14.959,15.515 6.038,24.438 "/>
</svg>
