<?xml version="1.0" encoding="utf-8"?>
<!-- Generator: Adobe Illustrator 16.0.0, SVG Export Plug-In . SVG Version: 6.00 Build 0)  -->
<!DOCTYPE svg PUBLIC "-//W3C//DTD SVG 1.1//EN" "http://www.w3.org/Graphics/SVG/1.1/DTD/svg11.dtd">
<svg version="1.1" id="图层_1" xmlns="http://www.w3.org/2000/svg" xmlns:xlink="http://www.w3.org/1999/xlink" x="0px" y="0px"
	 width="40px" height="40px" viewBox="0 0 40 40" enable-background="new 0 0 40 40" xml:space="preserve">
<g>
	<path fill="#323333" d="M33.141,18.901L20.506,12.29c-1.158-0.607-1.72-0.223-1.282,0.814l1.536,3.582l0.994,2.724l0.059,1.179
		l-1.056,2.725l-1.537,3.58c-0.449,1.06,0.135,1.414,1.286,0.817l12.631-6.617C34.301,20.489,34.283,19.501,33.141,18.901z"/>
	<rect x="6.003" y="19.5" fill="#323333" width="18.668" height="1"/>
	<polygon fill="#323333" points="6.025,24.666 7.125,24.666 11.233,20.559 15.34,24.666 16.442,24.666 11.784,20.008 16.459,15.332 
		16.419,15.292 15.4,15.292 11.233,19.458 7.068,15.292 6.026,15.292 5.997,15.321 10.683,20.008 	"/>
</g>
</svg>
