<?xml version="1.0" encoding="utf-8"?>
<!-- Generator: Adobe Illustrator 16.0.0, SVG Export Plug-In . SVG Version: 6.00 Build 0)  -->
<!DOCTYPE svg PUBLIC "-//W3C//DTD SVG 1.1//EN" "http://www.w3.org/Graphics/SVG/1.1/DTD/svg11.dtd">
<svg version="1.1" id="图层_1" xmlns="http://www.w3.org/2000/svg" xmlns:xlink="http://www.w3.org/1999/xlink" x="0px" y="0px"
	 width="40px" height="40px" viewBox="0 0 40 40" enable-background="new 0 0 40 40" xml:space="preserve">
<g>
	<path fill="#333333" d="M33.504,19.245L26.279,14.7c-0.66-0.418-0.984-0.153-0.729,0.56l0.873,2.464l0.582,1.909l0.035,0.735
		l-0.617,1.909l-0.873,2.464c-0.258,0.725,0.075,0.972,0.729,0.563l7.225-4.547C34.169,20.335,34.163,19.657,33.504,19.245z"/>
	<rect x="6" y="19.5" fill="#333333" width="23.396" height="1"/>
	<polygon fill="#333333" points="6.374,24.499 7.524,24.499 11.471,20.572 15.418,24.499 16.567,24.499 12.046,20 16.511,15.557 
		15.361,15.557 11.471,19.428 7.581,15.557 6.431,15.557 10.896,20 	"/>
</g>
</svg>
