<?xml version="1.0" encoding="utf-8"?>
<!-- Generator: Adobe Illustrator 16.0.0, SVG Export Plug-In . SVG Version: 6.00 Build 0)  -->
<!DOCTYPE svg PUBLIC "-//W3C//DTD SVG 1.1//EN" "http://www.w3.org/Graphics/SVG/1.1/DTD/svg11.dtd">
<svg version="1.1" id="图层_1" xmlns="http://www.w3.org/2000/svg" xmlns:xlink="http://www.w3.org/1999/xlink" x="0px" y="0px"
	 width="40px" height="40px" viewBox="0 0 40 40" enable-background="new 0 0 40 40" xml:space="preserve">
<path fill="#323333" d="M33.605,19.051l-9.28-5.703c-0.851-0.522-1.265-0.19-0.938,0.701l1.123,3.089l0.713,2.292h-8.207
	l5.502-5.345l-0.032-0.032h-1.058l-5.531,5.376h-2.375l5.534-5.376h-1.081l-5.537,5.377H6.242v1.134h5.027l-4.665,4.53l-0.846,0.803
	h1.08l5.512-5.332h2.373l-5.487,5.332h1.124l5.488-5.33h9.42l-0.756,2.29l-1.123,3.09c-0.332,0.911,0.1,1.22,0.938,0.701l9.28-5.703
	C34.461,20.419,34.447,19.565,33.605,19.051z"/>
</svg>
