<?xml version="1.0" encoding="utf-8"?>
<!-- Generator: Adobe Illustrator 18.0.0, SVG Export Plug-In . SVG Version: 6.00 Build 0)  -->
<!DOCTYPE svg PUBLIC "-//W3C//DTD SVG 1.1//EN" "http://www.w3.org/Graphics/SVG/1.1/DTD/svg11.dtd">
<svg version="1.1" xmlns="http://www.w3.org/2000/svg" xmlns:xlink="http://www.w3.org/1999/xlink" x="0px" y="0px"
	 viewBox="0 0 40 40" width="22" height="22" enable-background="new 0 0 40 40" xml:space="preserve">
<g id="图层_1" display="none">
	<rect x="14.4" y="22.6" display="inline" fill="#333333" width="11.3" height="1"/>
	<polygon display="inline" fill="#333333" points="29.3,32.2 20.4,7.8 19.6,7.8 10.7,32.2 11.8,32.1 20,9.6 28.2,32.1 	"/>
</g>
<g id="图层_2" display="none">
	<text transform="matrix(1 0 0 1 8.0583 33.4719)" display="inline" opacity="0.5" font-family="'ArialMT'" font-size="36">A</text>
</g>
<g id="图层_3" display="none">
	<text transform="matrix(1 0 0 1 6.9168 32.25)" opacity="0.5" font-family="'ArialMT'" font-size="36">N</text>
	<g>
		<line display="inline" fill="none" stroke="#000000" stroke-miterlimit="10" x1="11.3" y1="6.5" x2="11.3" y2="32.1"/>
		<line display="inline" fill="none" stroke="#000000" stroke-miterlimit="10" x1="28.3" y1="6.5" x2="28.3" y2="32.1"/>
		<line display="inline" fill="none" stroke="#000000" stroke-miterlimit="10" x1="11.3" y1="6.5" x2="28.3" y2="32.1"/>
	</g>
	<g>
		<polyline display="inline" fill="none" stroke="#000000" stroke-miterlimit="10" points="28.3,6.5 28.3,32.1 11.3,6.5 11.3,32.1 
					"/>
	</g>
	<polygon display="inline" points="28.8,32.2 28.8,6.5 27.8,6.5 27.8,30.5 11.8,6.5 10.8,6.5 10.8,32.1 11.8,32.1 11.8,8.2 
		27.7,32.2 	"/>
</g>
<g id="图层_4">
	<text transform="matrix(1 0 0 1 7 32)" display="none" opacity="0.5" font-family="'ArialMT'" font-size="36">C</text>
	<g id="图层_5" display="none">
		<path display="inline" opacity="0.5" fill="none" stroke="#CC6666" stroke-miterlimit="10" d="M30.8,19.1
			c0,6.5-3.6,11.7-10.3,11.7s-10.3-5.2-10.3-11.7S13.9,7.4,20.5,7.4S30.8,12.6,30.8,19.1z"/>
	</g>
	<g id="图层_5_x5F_复制" display="none">
		<path display="inline" fill="none" stroke="#000000" stroke-miterlimit="10" d="M30.2,23.4c-1.3,4.3-4.6,7.4-9.7,7.4
			c-6.7,0-10.3-5.2-10.3-11.7S13.9,7.4,20.5,7.4c4.6,0,7.7,2.5,9.3,6.1"/>
	</g>
</g>
<g id="图层_7" display="none">
	<text transform="matrix(1 0 0 1 8.4167 33.3335)" opacity="0.5" font-family="'ArialMT'" font-size="36">H</text>
	<g>
		<line display="inline" fill="#FFFFFF" stroke="#000000" stroke-miterlimit="10" x1="12.9" y1="7.4" x2="12.9" y2="33.4"/>
		<line display="inline" fill="#FFFFFF" stroke="#000000" stroke-miterlimit="10" x1="29.8" y1="7.4" x2="29.8" y2="33.4"/>
		<line display="inline" fill="#FFFFFF" stroke="#000000" stroke-miterlimit="10" x1="13" y1="19.6" x2="29.8" y2="19.6"/>
	</g>
	<polygon display="inline" points="27.9,7 27.9,18.7 12.1,18.7 12.1,7 11.1,7 11.1,33 12.1,33 12.1,19.7 27.9,19.7 27.9,33 28.9,33 
		28.9,7 	"/>
	<rect display="inline" opacity="0.5" width="40" height="40"/>
</g>
<g id="图层_8">
	<text transform="matrix(1 0 0 1 5.75 33.2502)" display="none" opacity="0.5" font-family="'ArialMT'" font-size="36">O</text>
	<path display="none" fill="none" stroke="#000000" stroke-miterlimit="10" d="M30.3,20c0,6.5-3.6,11.7-10.3,11.7S9.7,26.5,9.7,20
		S13.4,8.3,20,8.3S30.3,13.5,30.3,20z"/>
	<path d="M20,7.8C13.5,7.8,9.2,12.7,9.2,20c0,7.3,4.3,12.2,10.8,12.2c6.5,0,10.8-4.9,10.8-12.2C30.8,12.7,26.5,7.8,20,7.8z M20,31.2
		c-6,0-9.8-4.4-9.8-11.2c0-5.6,3-11.2,9.8-11.2s9.8,5.6,9.8,11.2C29.8,26.8,26,31.2,20,31.2z"/>
</g>
</svg>
