<?xml version="1.0" encoding="UTF-8"?>
<svg width="20px" height="32px" viewBox="0 0 20 50" version="1.1" xmlns="http://www.w3.org/2000/svg" xmlns:xlink="http://www.w3.org/1999/xlink">
    <!-- Generator: Sketch 50 (54983) - http://www.bohemiancoding.com/sketch -->
    <title>20</title>
    <desc>Created with Sketch.</desc>
    <defs>
        <ellipse id="path-1" cx="10" cy="4" rx="10" ry="4"></ellipse>
        <linearGradient x1="4.13807583%" y1="39.6071047%" x2="100%" y2="39.6071047%" id="linearGradient-3">
            <stop stop-color="#FFFFFF" offset="0%"></stop>
            <stop stop-color="#FFFFFF" stop-opacity="0.198086504" offset="100%"></stop>
        </linearGradient>
        <filter x="-37.5%" y="-99.5%" width="175.0%" height="299.0%" filterUnits="objectBoundingBox" id="filter-4">
            <feGaussianBlur stdDeviation="2" in="SourceGraphic"></feGaussianBlur>
        </filter>
        <linearGradient x1="8.26137796%" y1="35.2756076%" x2="64.6286691%" y2="50%" id="linearGradient-5">
            <stop stop-color="#FFFFFF" offset="0%"></stop>
            <stop stop-color="#FFFFFF" stop-opacity="0.198086504" offset="100%"></stop>
        </linearGradient>
        <filter x="-28.4%" y="-100.0%" width="156.9%" height="300.0%" filterUnits="objectBoundingBox" id="filter-6">
            <feGaussianBlur stdDeviation="1" in="SourceGraphic"></feGaussianBlur>
        </filter>
    </defs>
    <g id="Page-1" stroke="none" stroke-width="1" fill="none" fill-rule="evenodd">
        <g id="20">
            <path d="M4.5,44.5 C11.3938675,44.5 22.5,39.8185283 22.5,37 C22.5,34.1814717 11.3938675,29.5 4.5,29.5 C-0.871128195,29.5 -2.5,32.0522749 -2.5,37 C-2.5,41.9477251 -0.871128195,44.5 4.5,44.5 Z" id="Oval" stroke="#000000" fill="#FFFFFF" transform="translate(10.000000, 37.000000) scale(1, -1) rotate(90.000000) translate(-10.000000, -37.000000) "></path>
            <g id="Group-3" transform="translate(0.000000, 22.000000)">
                <g id="Oval-+-Oval-+-Oval-Mask">
                    <mask id="mask-2" fill="white">
                        <use xlink:href="#path-1"></use>
                    </mask>
                    <use id="Mask" fill="#000000" xlink:href="#path-1"></use>
                    <ellipse id="Oval" fill="#000000" mask="url(#mask-2)" cx="10" cy="4" rx="10" ry="4"></ellipse>
                    <ellipse id="Oval" fill="url(#linearGradient-3)" filter="url(#filter-4)" mask="url(#mask-2)" cx="9.6" cy="3.68175433" rx="8" ry="3.01508766"></ellipse>
                    <ellipse id="Oval" fill="url(#linearGradient-5)" filter="url(#filter-6)" mask="url(#mask-2)" cx="6.07563133" cy="3.5" rx="5.27563133" ry="1.5"></ellipse>
                </g>
            </g>
            <path d="M4.5,20.5 C11.3938675,20.5 22.5,15.8185283 22.5,13 C22.5,10.1814717 11.3938675,5.5 4.5,5.5 C-0.871128195,5.5 -2.5,8.05227494 -2.5,13 C-2.5,17.9477251 -0.871128195,20.5 4.5,20.5 Z" id="Oval" stroke="#000000" fill="#FFFFFF" transform="translate(10.000000, 13.000000) rotate(90.000000) translate(-10.000000, -13.000000) "></path>
        </g>
    </g>
</svg>