<?xml version="1.0" encoding="UTF-8"?>
<svg width="20px" height="32px" viewBox="0 0 20 50" version="1.1" xmlns="http://www.w3.org/2000/svg" xmlns:xlink="http://www.w3.org/1999/xlink">
    <!-- Generator: Sketch 50 (54983) - http://www.bohemiancoding.com/sketch -->
    <title>21</title>
    <desc>Created with Sketch.</desc>
    <defs></defs>
    <g id="Page-1" stroke="none" stroke-width="1" fill="none" fill-rule="evenodd">
        <g id="21">
            <path d="M4.5,44.5 C11.3938675,44.5 22.5,39.8185283 22.5,37 C22.5,34.1814717 11.3938675,29.5 4.5,29.5 C-0.871128195,29.5 -2.5,32.0522749 -2.5,37 C-2.5,41.9477251 -0.871128195,44.5 4.5,44.5 Z" id="Oval" stroke="#000000" fill="#FFFFFF" transform="translate(10.000000, 37.000000) scale(1, -1) rotate(90.000000) translate(-10.000000, -37.000000) "></path>
            <ellipse id="Oval" fill="#000000" cx="10" cy="26" rx="10" ry="4"></ellipse>
            <path d="M4.5,20.5 C11.3938675,20.5 22.5,15.8185283 22.5,13 C22.5,10.1814717 11.3938675,5.5 4.5,5.5 C-0.871128195,5.5 -2.5,8.05227494 -2.5,13 C-2.5,17.9477251 -0.871128195,20.5 4.5,20.5 Z" id="Oval" stroke="#000000" fill="#FFFFFF" transform="translate(10.000000, 13.000000) rotate(90.000000) translate(-10.000000, -13.000000) "></path>
        </g>
    </g>
</svg>