<?xml version="1.0" encoding="UTF-8"?>
<svg width="20px" height="32px" viewBox="0 0 20 50" version="1.1" xmlns="http://www.w3.org/2000/svg" xmlns:xlink="http://www.w3.org/1999/xlink">
    <!-- Generator: Sketch 50 (54983) - http://www.bohemiancoding.com/sketch -->
    <title>14</title>
    <desc>Created with Sketch.</desc>
    <defs>
        <path d="M9.64285714,20 C18.5188621,20 32.1428571,14.2604824 32.1428571,10 C32.1428571,5.73951764 18.5188621,0 9.64285714,0 C0.766852235,0 0,5.73951764 0,10 C0,14.2604824 0.766852235,20 9.64285714,20 Z" id="path-1"></path>
        <linearGradient x1="4.13807583%" y1="39.6071047%" x2="100%" y2="39.6071047%" id="linearGradient-3">
            <stop stop-color="#FFFFFF" offset="0%"></stop>
            <stop stop-color="#FFFFFF" stop-opacity="0.198086504" offset="100%"></stop>
        </linearGradient>
        <filter x="-33.3%" y="-68.1%" width="166.7%" height="236.3%" filterUnits="objectBoundingBox" id="filter-4">
            <feGaussianBlur stdDeviation="3" in="SourceGraphic"></feGaussianBlur>
        </filter>
        <linearGradient x1="8.26137796%" y1="35.2756076%" x2="64.6286691%" y2="50%" id="linearGradient-5">
            <stop stop-color="#FFFFFF" offset="0%"></stop>
            <stop stop-color="#FFFFFF" stop-opacity="0.198086504" offset="100%"></stop>
        </linearGradient>
        <filter x="-17.7%" y="-42.4%" width="135.4%" height="184.8%" filterUnits="objectBoundingBox" id="filter-6">
            <feGaussianBlur stdDeviation="1" in="SourceGraphic"></feGaussianBlur>
        </filter>
    </defs>
    <g id="Page-1" stroke="none" stroke-width="1" fill="none" fill-rule="evenodd">
        <g id="14">
            <path d="M6.28571429,46 C11.0594062,46 19,42.4417997 19,40.5 C19,38.5582003 11.0594062,35 6.28571429,35 C2.50375258,35 1,37.181485 1,40.5 C1,43.818515 2.50375258,46 6.28571429,46 Z" id="Oval" stroke="#000000" fill="#FFFFFF" transform="translate(10.000000, 40.500000) scale(1, -1) rotate(90.000000) translate(-10.000000, -40.500000) "></path>
            <g id="Group-3" transform="translate(10.000000, 16.500000) scale(-1, 1) rotate(90.000000) translate(-10.000000, -16.500000) translate(-6.500000, 6.500000)">
                <g id="Oval-+-Oval-+-Oval-Mask">
                    <mask id="mask-2" fill="white">
                        <use xlink:href="#path-1"></use>
                    </mask>
                    <use id="Mask" fill="#000000" xlink:href="#path-1"></use>
                    <path d="M9.64285714,19 C18.5188621,19 32.1428571,14.2604824 32.1428571,10 C32.1428571,5.73951764 18.5188621,1 9.64285714,1 C0.766852235,1 0,5.73951764 0,10 C0,14.2604824 0.766852235,19 9.64285714,19 Z" id="Oval" fill="#000000" mask="url(#mask-2)"></path>
                    <path d="M10.2857143,15.4928574 C17.3865182,15.4928574 28.2857143,11.9593751 28.2857143,8.74642869 C28.2857143,5.53348228 17.3865182,2.28571429 10.2857143,2.28571429 C3.18491036,2.28571429 1.28571429,5.53348228 1.28571429,8.74642869 C1.28571429,11.9593751 3.18491036,15.4928574 10.2857143,15.4928574 Z" id="Oval" fill="url(#linearGradient-3)" filter="url(#filter-4)" mask="url(#mask-2)"></path>
                    <path d="M7.83583606,10.6428571 C12.518489,10.6428571 19.528815,8.70482374 19.528815,7.10714286 C19.528815,5.50946197 12.518489,3.57142857 7.83583606,3.57142857 C3.15318311,3.57142857 2.57142857,5.50946197 2.57142857,7.10714286 C2.57142857,8.70482374 3.15318311,10.6428571 7.83583606,10.6428571 Z" id="Oval" fill="url(#linearGradient-5)" filter="url(#filter-6)" mask="url(#mask-2)"></path>
                </g>
            </g>
        </g>
    </g>
</svg>