<?xml version="1.0" encoding="UTF-8"?>
<svg width="20px" height="32px" viewBox="0 0 20 50" version="1.1" xmlns="http://www.w3.org/2000/svg" xmlns:xlink="http://www.w3.org/1999/xlink">
    <!-- Generator: Sketch 50 (54983) - http://www.bohemiancoding.com/sketch -->
    <title>17</title>
    <desc>Created with Sketch.</desc>
    <defs></defs>
    <g id="Page-1" stroke="none" stroke-width="1" fill="none" fill-rule="evenodd">
        <g id="17">
            <path d="M4.5,45 C11.4035594,45 23,40.3137085 23,37 C23,33.6862915 11.4035594,29 4.5,29 C-2.40355937,29 -3,33.6862915 -3,37 C-3,40.3137085 -2.40355937,45 4.5,45 Z" id="Oval" fill="#000000" transform="translate(10.000000, 37.000000) scale(1, -1) rotate(90.000000) translate(-10.000000, -37.000000) "></path>
            <ellipse id="Oval" stroke="#000000" fill="#FFFFFF" cx="10" cy="26" rx="9.5" ry="3.5"></ellipse>
            <path d="M4.5,21 C11.4035594,21 23,16.3137085 23,13 C23,9.6862915 11.4035594,5 4.5,5 C-2.40355937,5 -3,9.6862915 -3,13 C-3,16.3137085 -2.40355937,21 4.5,21 Z" id="Oval" fill="#000000" transform="translate(10.000000, 13.000000) rotate(90.000000) translate(-10.000000, -13.000000) "></path>
        </g>
    </g>
</svg>