<?xml version="1.0" encoding="UTF-8"?>
<svg width="20px" height="32px" viewBox="0 0 20 50" version="1.1" xmlns="http://www.w3.org/2000/svg" xmlns:xlink="http://www.w3.org/1999/xlink">
    <!-- Generator: Sketch 50 (54983) - http://www.bohemiancoding.com/sketch -->
    <title>15</title>
    <desc>Created with Sketch.</desc>
    <defs>
        <path d="M3.57142857,26.0714286 C12.4474335,26.0714286 26.0714286,20.3319109 26.0714286,16.0714286 C26.0714286,11.8109462 12.4474335,6.07142857 3.57142857,6.07142857 C-5.30457634,6.07142857 -6.07142857,11.8109462 -6.07142857,16.0714286 C-6.07142857,20.3319109 -5.30457634,26.0714286 3.57142857,26.0714286 Z" id="path-1"></path>
    </defs>
    <g id="Page-1" stroke="none" stroke-width="1" fill="none" fill-rule="evenodd">
        <g id="15">
            <path d="M6.07142857,45.7857143 C10.8451205,45.7857143 18.7857143,42.227514 18.7857143,40.2857143 C18.7857143,38.3439145 10.8451205,34.7857143 6.07142857,34.7857143 C2.36189208,34.7857143 1.21428571,36.6972893 1.21428571,40.2857143 C1.21428571,43.8741392 2.36189208,45.7857143 6.07142857,45.7857143 Z" id="Oval" stroke="#000000" fill="#FFFFFF" transform="translate(10.000000, 40.285714) scale(1, -1) rotate(90.000000) translate(-10.000000, -40.285714) "></path>
            <mask id="mask-2" fill="white">
                <use xlink:href="#path-1"></use>
            </mask>
            <use id="Mask" fill="#000000" transform="translate(10.000000, 16.071429) rotate(90.000000) translate(-10.000000, -16.071429) " xlink:href="#path-1"></use>
        </g>
    </g>
</svg>