<?xml version="1.0" encoding="utf-8"?>
<!-- Generator: Adobe Illustrator 16.0.0, SVG Export Plug-In . SVG Version: 6.00 Build 0)  -->
<!DOCTYPE svg PUBLIC "-//W3C//DTD SVG 1.1//EN" "http://www.w3.org/Graphics/SVG/1.1/DTD/svg11.dtd">
<svg version="1.1" id="图层_1" xmlns="http://www.w3.org/2000/svg" xmlns:xlink="http://www.w3.org/1999/xlink" x="0px" y="0px"
	 width="40px" height="40px" viewBox="0 0 40 40" enable-background="new 0 0 40 40" xml:space="preserve">
<g>
	<path fill="#4C4C4C" d="M20.474,21.061c-0.561,0.319-1.158,0.592-1.791,0.809C13.692,23.574,8.312,21.277,6,16.701
		c0.091,0.471,0.204,0.942,0.362,1.409c1.865,5.457,7.801,8.369,13.258,6.504c0.633-0.216,1.229-0.493,1.79-0.813L20.474,21.061z"/>
	<polygon fill="#4C4C4C" points="18.995,17.472 26.919,20.127 22.277,27.074 	"/>
</g>
<path fill="#4C4C4C" d="M21,7c-6.066,0-11.146,4.161-12.582,9.78l0.916,0.455C10.588,11.949,15.336,8,21,8c6.617,0,12,5.383,12,12
	c0,6.617-5.383,12-12,12c-4.462,0-8.354-2.452-10.422-6.075l-1.499-0.744C11.082,29.78,15.663,33,21,33c7.18,0,13-5.82,13-13
	S28.18,7,21,7z"/>
</svg>
