<?xml version="1.0" encoding="utf-8"?>
<!-- Generator: Adobe Illustrator 16.0.0, SVG Export Plug-In . SVG Version: 6.00 Build 0)  -->
<!DOCTYPE svg PUBLIC "-//W3C//DTD SVG 1.1//EN" "http://www.w3.org/Graphics/SVG/1.1/DTD/svg11.dtd">
<svg version="1.1" id="图层_1" xmlns="http://www.w3.org/2000/svg" xmlns:xlink="http://www.w3.org/1999/xlink" x="0px" y="0px"
	 width="40px" height="40px" viewBox="0 0 40 40" enable-background="new 0 0 40 40" xml:space="preserve">
<rect x="9.042" y="21.781" fill="#4C4C4C" width="17" height="1"/>
<g>
	<rect x="23.512" y="9.86" fill="#4C4C4C" width="9" height="1"/>
	<rect x="27.512" y="5.86" fill="#4C4C4C" width="1" height="9"/>
</g>
<g>
	<path fill="#4C4C4C" d="M9.528,22.792c0.495-3.939,3.859-6.999,7.93-6.999c4.072,0,7.436,3.06,7.931,6.999H26.4
		c-0.498-4.499-4.31-7.999-8.942-7.999c-4.632,0-8.443,3.5-8.941,7.999H9.528z"/>
	<path fill="#4C4C4C" d="M24.439,26.832c-1.769,3.087-5.459,4.726-9.048,3.742c-3.587-0.984-5.926-4.275-5.875-7.832
		c0,0-1.002-0.09-1.004,0.002c-0.054,4,2.577,7.688,6.615,8.794c4.13,1.133,8.373-0.81,10.308-4.434L24.439,26.832z"/>
</g>
</svg>
