<svg id="图层_29" data-name="图层 29" xmlns="http://www.w3.org/2000/svg" viewBox="0 0 460.57 152.76" width="461" height="153">
    <title>玻璃仪器29</title>
	    <g stroke="#000000" fill="#000000" stroke-width="0.5324" transform="translate(-226.89 -112.81)" >
    <path d="M272.4,153.43l-.05,0a.1.1,0,0,1,0-.14l1.07-1.63a.1.1,0,0,1,.14,0,.1.1,0,0,1,0,.14l-1.07,1.63A.1.1,0,0,1,272.4,153.43Z"
           />
    <path d="M275,151.47a.1.1,0,0,1-.09-.07l-.54-1.61a.1.1,0,0,1,.06-.13.1.1,0,0,1,.13.06l.54,1.61a.1.1,0,0,1-.06.13Z"
           />
    <path d="M271.91,157.39h0a.1.1,0,0,1-.07-.12l.41-1.54a.1.1,0,0,1,.19.05l-.41,1.54A.1.1,0,0,1,271.91,157.39Z"
           />
    <path d="M277.89,142a.1.1,0,0,1-.06-.18l1.24-.83a.1.1,0,0,1,.14,0,.1.1,0,0,1,0,.14l-1.24.83Z"
           />
    <path d="M277.52,152a.1.1,0,0,1-.1-.07l-.48-1.56a.1.1,0,0,1,.19-.06l.48,1.56a.1.1,0,0,1-.07.13Z"
           />
    <path d="M271.62,153l-.06,0-1.2-1a.1.1,0,1,1,.13-.15l1.2,1a.1.1,0,0,1,0,.14A.1.1,0,0,1,271.62,153Z"
           />
    <path d="M270.54,160.1a.1.1,0,0,1-.08,0l-1.21-1.37a.1.1,0,0,1,0-.14.1.1,0,0,1,.14,0l1.21,1.37a.1.1,0,0,1,0,.14Z"
           />
    <path d="M261.05,158.57a.1.1,0,0,1-.09-.05l-1-1.72a.1.1,0,1,1,.17-.1l1,1.72a.1.1,0,0,1,0,.14Z"
           />
    <path d="M247.79,155.28l-.06,0a.1.1,0,0,1,0-.14l1-1.28a.1.1,0,0,1,.16.12l-1,1.28A.1.1,0,0,1,247.79,155.28Z"
           />
    <path d="M249.42,141.37l-.07,0-1.12-1a.1.1,0,0,1,.13-.15l1.12,1a.1.1,0,0,1-.07.17Z"
           />
    <path d="M248.43,150.12a.1.1,0,0,1-.1-.07l-.47-1.59a.1.1,0,0,1,.19-.06l.47,1.59a.1.1,0,0,1-.07.12Z"
           />
    <path d="M257.59,152.31a.1.1,0,0,1-.08,0l-1-1.2a.1.1,0,0,1,0-.14.1.1,0,0,1,.14,0l1,1.2a.1.1,0,0,1,0,.14Z"
           />
    <path d="M264.9,156.94a.1.1,0,0,1-.09-.06l-.87-1.81a.1.1,0,0,1,0-.13.1.1,0,0,1,.13,0l.87,1.81a.1.1,0,0,1,0,.13Z"
           />
    <path d="M253.5,154.29h0l-1.47-.39a.1.1,0,0,1-.07-.12.1.1,0,0,1,.12-.07l1.47.39a.1.1,0,0,1,0,.2Z"
           />
    <path d="M266.71,155.66a.1.1,0,0,1-.09-.07l-.53-1.53a.1.1,0,0,1,.06-.13.1.1,0,0,1,.13.06l.53,1.53a.1.1,0,0,1-.06.13Z"
           />
    <path d="M278.46,135.28a.1.1,0,0,1-.09-.06l-.5-1.07a.1.1,0,0,1,.18-.08l.5,1.07a.1.1,0,0,1,0,.13Z"
           />
    <path d="M274.4,146a.1.1,0,0,1-.09-.06l-.62-1.48a.1.1,0,0,1,.19-.08l.62,1.48a.1.1,0,0,1-.05.13Z"
           />
    <path d="M275,133.21a.1.1,0,0,1-.09-.07l-.47-1.33a.1.1,0,0,1,.19-.07l.47,1.33a.1.1,0,0,1-.06.13Z"
           />
    <path d="M263.32,129.64a.1.1,0,0,1,0-.19l1.51-.61a.1.1,0,0,1,.07.19l-1.51.61Z"
           />
    <path d="M255.07,128.1l-.06,0a.1.1,0,0,1,0-.14l1-1.28a.1.1,0,0,1,.14,0,.1.1,0,0,1,0,.14l-1,1.28A.1.1,0,0,1,255.07,128.1Z"
           />
    <path d="M251.16,134.86a.1.1,0,0,1-.06-.18l1.24-.83a.1.1,0,0,1,.11.17l-1.24.83Z"
           />
    <path d="M250.79,144.78a.1.1,0,0,1-.1-.07l-.48-1.56a.1.1,0,1,1,.19-.06l.48,1.56a.1.1,0,0,1-.07.13Z"
           />
    <path d="M253.06,149.33a.1.1,0,0,1-.07,0l-1.08-1a.1.1,0,0,1,0-.14.1.1,0,0,1,.14,0l1.08,1a.1.1,0,0,1,0,.14A.1.1,0,0,1,253.06,149.33Z"
           />
    <path d="M255.81,145.94a.1.1,0,0,1-.06-.18l1.16-.82a.1.1,0,0,1,.14,0,.1.1,0,0,1,0,.14l-1.16.82Z"
           />
    <path d="M254.85,134.09a.1.1,0,0,1-.09-.06l-.61-1.63a.1.1,0,0,1,.19-.07l.61,1.63a.1.1,0,0,1-.06.13Z"
           />
    <path d="M258.48,134.12a.1.1,0,0,1-.09-.07l-.45-1.4a.1.1,0,0,1,.06-.13.1.1,0,0,1,.13.06l.45,1.4a.1.1,0,0,1-.06.13Z"
           />
    <path d="M262.71,132.89a.1.1,0,0,1-.07,0l-1.21-1.23a.1.1,0,1,1,.14-.14l1.21,1.23a.1.1,0,0,1-.07.17Z"
           />
    <path d="M270.33,134a.1.1,0,0,1-.09-.06l-.51-1.3a.1.1,0,0,1,.06-.13.1.1,0,0,1,.13.06l.51,1.3a.1.1,0,0,1-.06.13Z"
           />
    <path d="M275.33,137.32a.1.1,0,0,1-.07,0l-1-1.14a.1.1,0,0,1,.15-.13l1,1.14a.1.1,0,0,1,0,.14Z"
           />
    <path d="M270.1,137.09a.1.1,0,0,1-.07,0,.1.1,0,0,1,0-.14l1.12-1.09a.1.1,0,0,1,.14.14l-1.12,1.09A.1.1,0,0,1,270.1,137.09Z"
           />
    <path d="M261.83,137.57a.1.1,0,0,1-.08,0l-1.19-1.44a.1.1,0,1,1,.15-.13l1.19,1.44a.1.1,0,0,1,0,.14Z"
           />
    <path d="M257.81,146.44a.1.1,0,0,1,0-.19l1.36-.61a.1.1,0,0,1,.13.05.1.1,0,0,1,0,.13l-1.36.61Z"
           />
    <path d="M261.43,151.43a.1.1,0,0,1-.1-.1l-.09-2.05a.1.1,0,0,1,.1-.1h0a.1.1,0,0,1,.1.1l.09,2.05a.1.1,0,0,1-.1.1Z"
           />
    <path d="M261.7,143a.1.1,0,0,1-.08,0l-.91-1.37a.1.1,0,1,1,.17-.11l.91,1.37a.1.1,0,0,1,0,.14Z"
           />
    <path d="M265.93,140.36a.1.1,0,0,1-.08,0l-1-1.24A.1.1,0,1,1,265,139l1,1.24a.1.1,0,0,1,0,.14Z"
           />
    <path d="M272.67,143.74a.1.1,0,0,1-.1-.08l-.3-1.4a.1.1,0,0,1,.08-.12.1.1,0,0,1,.12.08l.3,1.4a.1.1,0,0,1-.08.12Z"
           />
    <path d="M264.24,143.29a.1.1,0,0,1-.08,0l-.92-1.19a.1.1,0,0,1,.16-.12l.92,1.19a.1.1,0,0,1,0,.14Z"
           />
    <path d="M264.66,152.37h0l-1.47-.39a.1.1,0,0,1,.05-.19l1.47.39a.1.1,0,0,1,0,.2Z"
           />
    <path d="M270,150.83a.1.1,0,0,1-.1-.07l-.4-1.46a.1.1,0,0,1,.07-.12.1.1,0,0,1,.12.07l.4,1.46a.1.1,0,0,1-.07.12Z"
           />
    <path d="M270.35,147.21a.1.1,0,0,1-.07-.18l1.27-1.09a.1.1,0,1,1,.13.15l-1.27,1.09Z"
           />
    <path d="M255.74,122.8a.1.1,0,0,1-.1-.07l-.47-1.59a.1.1,0,1,1,.19-.06l.47,1.59a.1.1,0,0,1-.07.12Z"
           />
    <path d="M264.82,125.44a.1.1,0,0,1-.08,0l-1-1.2a.1.1,0,0,1,.15-.13l1,1.2a.1.1,0,0,1,0,.14Z"
           />
    <path d="M269.3,128.32a.1.1,0,0,1-.06-.18l1.5-1.1a.1.1,0,0,1,.12.16l-1.5,1.1Z"
           />
    <path d="M263.62,127.28l-.06,0L262,126.1a.1.1,0,1,1,.12-.16l1.53,1.16a.1.1,0,0,1,0,.14A.1.1,0,0,1,263.62,127.28Z"
           />
    <path d="M274.16,129a.1.1,0,0,1-.09-.07l-.53-1.53a.1.1,0,0,1,.19-.07l.53,1.53a.1.1,0,0,1-.06.13Z"
           />
    <path d="M240.68,153.14a.1.1,0,0,1-.09-.07l-.47-1.33a.1.1,0,0,1,.06-.13.1.1,0,0,1,.13.06l.47,1.33a.1.1,0,0,1-.06.13Z"
           />
    <path d="M231.26,152.46h0a.1.1,0,0,1-.07-.12l.41-1.54a.1.1,0,0,1,.12-.07.1.1,0,0,1,.07.12l-.41,1.54A.1.1,0,0,1,231.26,152.46Z"
           />
    <path d="M230.57,145.07a.1.1,0,0,1-.08,0l-1-1.2a.1.1,0,0,1,0-.14.1.1,0,0,1,.14,0l1,1.2a.1.1,0,0,1,0,.14Z"
           />
    <path d="M237.89,149.69a.1.1,0,0,1-.09-.06l-.87-1.81a.1.1,0,0,1,0-.13.1.1,0,0,1,.13,0l.87,1.81a.1.1,0,0,1,0,.13Z"
           />
    <path d="M239.69,148.41a.1.1,0,0,1-.09-.07l-.53-1.53a.1.1,0,1,1,.19-.07l.53,1.53a.1.1,0,0,1-.06.13Z"
           />
    <path d="M251.45,128a.1.1,0,0,1-.09-.06l-.5-1.07a.1.1,0,0,1,0-.13.1.1,0,0,1,.13,0l.5,1.07a.1.1,0,0,1,0,.13Z"
           />
    <path d="M247.39,138.73a.1.1,0,0,1-.09-.06l-.62-1.48a.1.1,0,0,1,.18-.08l.62,1.48a.1.1,0,0,1-.05.13Z"
           />
    <path d="M248,126a.1.1,0,0,1-.09-.07l-.47-1.33a.1.1,0,0,1,.19-.07l.47,1.33a.1.1,0,0,1-.06.13Z"
           />
    <path d="M236.31,122.4a.1.1,0,0,1,0-.19l1.51-.61a.1.1,0,0,1,.07.19l-1.51.61Z"
           />
    <path d="M231.22,129.63a.1.1,0,0,1-.08,0,.1.1,0,0,1,0-.14l1.16-1a.1.1,0,0,1,.14,0,.1.1,0,0,1,0,.14l-1.16,1Z"
           />
    <path d="M240.91,128.32a.1.1,0,0,1-.09-.05l-.76-1.37a.1.1,0,0,1,0-.14.1.1,0,0,1,.14,0l.76,1.37a.1.1,0,0,1,0,.14Z"
           />
    <path d="M246.6,128.08a.1.1,0,0,1-.06-.18l1.35-1.1a.1.1,0,0,1,.14,0,.1.1,0,0,1,0,.14l-1.35,1.1Z"
           />
    <path d="M246.15,133.4a.1.1,0,0,1-.07-.17l1.13-1.12a.1.1,0,0,1,.14.14l-1.13,1.12A.1.1,0,0,1,246.15,133.4Z"
           />
    <path d="M235.57,127.26h0l-1.71-.46a.1.1,0,0,1-.07-.12.1.1,0,0,1,.12-.07l1.71.46a.1.1,0,0,1,0,.2Z"
           />
    <path d="M232.27,135.65a.1.1,0,0,1-.08,0l-1-1.35a.1.1,0,0,1,0-.14.1.1,0,0,1,.14,0l1,1.35a.1.1,0,0,1,0,.14Z"
           />
    <path d="M230.63,140.24h0l-1.36-.37a.1.1,0,0,1-.07-.12.1.1,0,0,1,.12-.07l1.36.37a.1.1,0,0,1,0,.2Z"
           />
    <path d="M234.41,144.18a.1.1,0,0,1-.1-.1l-.09-2.05a.1.1,0,0,1,.1-.1.1.1,0,0,1,.1.1l.09,2.05a.1.1,0,0,1-.1.1Z"
           />
    <path d="M234.69,135.73a.1.1,0,0,1-.08,0l-.91-1.37a.1.1,0,0,1,0-.14.1.1,0,0,1,.14,0l.91,1.37a.1.1,0,0,1,0,.14Z"
           />
    <path d="M239.67,131.14a.1.1,0,0,1,0-.19l1.27-.52a.1.1,0,1,1,.08.18l-1.27.52Z"
           />
    <path d="M242.74,135.64a.1.1,0,0,1,0-.19l1.32-.58a.1.1,0,0,1,.13.05.1.1,0,0,1-.05.13l-1.32.58Z"
           />
    <path d="M236.69,139.46l-.06,0a.1.1,0,0,1,0-.14l1-1.45a.1.1,0,1,1,.16.12l-1,1.45A.1.1,0,0,1,236.69,139.46Z"
           />
    <path d="M239,142.87h0a.1.1,0,0,1-.07-.12l.38-1.4a.1.1,0,0,1,.12-.07.1.1,0,0,1,.07.12l-.37,1.4A.1.1,0,0,1,239,142.87Z"
           />
    <path d="M240.17,138.63a.1.1,0,0,1-.08,0l-.68-1.08a.1.1,0,0,1,.17-.11l.68,1.08a.1.1,0,0,1,0,.14Z"
           />
    <path d="M237.89,117.75a.1.1,0,0,1-.08,0l-1-1.2a.1.1,0,0,1,0-.14.1.1,0,0,1,.14,0l1,1.2a.1.1,0,0,1,0,.14Z"
           />
    <path d="M245.2,122.38a.1.1,0,0,1-.09-.06l-.87-1.81a.1.1,0,0,1,0-.13.1.1,0,0,1,.13,0l.87,1.81a.1.1,0,0,1,0,.13Z"
           />
    <path d="M247,121.1a.1.1,0,0,1-.09-.07l-.53-1.53a.1.1,0,0,1,.19-.07l.53,1.53a.1.1,0,0,1-.06.13Z"
           />
    <path d="M656.44,260.3a.1.1,0,0,1-.09-.05l-1-1.72a.1.1,0,1,1,.17-.1l1,1.72a.1.1,0,0,1,0,.14Z"
           />
    <path d="M643.12,258.13l-.06,0a.1.1,0,0,1,0-.14l1-1.28a.1.1,0,0,1,.14,0,.1.1,0,0,1,0,.14l-1,1.28A.1.1,0,0,1,643.12,258.13Z"
           />
    <path d="M644.78,244.09l-.07,0-1.12-1a.1.1,0,0,1,0-.14.1.1,0,0,1,.14,0l1.12,1a.1.1,0,0,1-.07.17Z"
           />
    <path d="M643.79,252.83a.1.1,0,0,1-.1-.07l-.47-1.59a.1.1,0,1,1,.19-.06l.47,1.59a.1.1,0,0,1-.07.12Z"
           />
    <path d="M653,255a.1.1,0,0,1-.08,0l-1-1.2a.1.1,0,0,1,0-.14.1.1,0,0,1,.14,0l1,1.2a.1.1,0,0,1,0,.14Z"
           />
    <path d="M655.9,257.17h0a.1.1,0,0,1-.07-.12l.41-1.54a.1.1,0,1,1,.19.05L656,257.1A.1.1,0,0,1,655.9,257.17Z"
           />
    <path d="M653.71,258.5a.1.1,0,0,1-.07,0,.1.1,0,0,1,0-.14l1.17-1.15a.1.1,0,1,1,.14.14l-1.17,1.15A.1.1,0,0,1,653.71,258.5Z"
           />
    <path d="M662.07,258.37a.1.1,0,0,1-.09-.07l-.53-1.53a.1.1,0,0,1,.06-.13.1.1,0,0,1,.13.06l.53,1.53a.1.1,0,0,1-.06.13Z"
           />
    <path d="M647.82,232.59h0a.1.1,0,0,1-.07-.12l.44-1.65a.1.1,0,0,1,.12-.07.1.1,0,0,1,.07.12l-.44,1.65A.1.1,0,0,1,647.82,232.59Z"
           />
    <path d="M646.52,237.58a.1.1,0,0,1-.06-.18l1.24-.83a.1.1,0,0,1,.14,0,.1.1,0,0,1,0,.14l-1.24.83Z"
           />
    <path d="M646.15,247.5a.1.1,0,0,1-.1-.07l-.48-1.56a.1.1,0,0,1,.19-.06l.48,1.56a.1.1,0,0,1-.07.13Z"
           />
    <path d="M648.42,252a.1.1,0,0,1-.07,0l-1.08-1a.1.1,0,0,1,.14-.15l1.08,1a.1.1,0,0,1-.07.17Z"
           />
    <path d="M651.17,248.66a.1.1,0,0,1-.06-.18l1.16-.82a.1.1,0,0,1,.14,0,.1.1,0,0,1,0,.14l-1.16.82Z"
           />
    <path d="M650.22,236.8a.1.1,0,0,1-.09-.06l-.61-1.63a.1.1,0,0,1,.19-.07l.61,1.63a.1.1,0,0,1-.06.13Z"
           />
    <path d="M653.85,236.84a.1.1,0,0,1-.09-.07l-.45-1.4a.1.1,0,1,1,.19-.06l.45,1.4a.1.1,0,0,1-.06.13Z"
           />
    <path d="M663.29,238.28a.1.1,0,0,1-.09-.05l-.76-1.37a.1.1,0,0,1,.18-.1l.76,1.37a.1.1,0,0,1,0,.14Z"
           />
    <path d="M660.4,239.38a.1.1,0,0,1-.1-.08l-.46-2.19a.1.1,0,0,1,.08-.12.1.1,0,0,1,.12.08l.46,2.19a.1.1,0,0,1-.08.12Z"
           />
    <path d="M653.21,243.12h0a.1.1,0,0,1-.07-.12l.35-1.3a.1.1,0,0,1,.12-.07.1.1,0,0,1,.07.12l-.35,1.3A.1.1,0,0,1,653.21,243.12Z"
           />
    <path d="M653,250.2h0l-1.37-.37a.1.1,0,0,1-.07-.12.1.1,0,0,1,.12-.07L653,250a.1.1,0,0,1,0,.2Z"
           />
    <path d="M656.61,251.47a.1.1,0,0,1-.08,0l-1.16-1.7a.1.1,0,0,1,.17-.11l1.16,1.7a.1.1,0,0,1,0,.14Z"
           />
    <path d="M656.58,242.75h0l-1.26-.34a.1.1,0,0,1,.05-.19l1.26.34a.1.1,0,0,1,0,.2Z"
           />
    <path d="M662,241.1a.1.1,0,0,1,0-.19l1.26-.52a.1.1,0,1,1,.08.18l-1.26.52Z"  />
    <path d="M665.12,245.6a.1.1,0,0,1,0-.19l1.32-.58a.1.1,0,1,1,.08.18l-1.32.58Z"
           />
    <path d="M659.07,249.42l-.06,0a.1.1,0,0,1,0-.14l1-1.45a.1.1,0,0,1,.16.12l-1,1.45A.1.1,0,0,1,659.07,249.42Z"
           />
    <path d="M661.42,252.83h0a.1.1,0,0,1-.07-.12l.38-1.4a.1.1,0,0,1,.12-.07.1.1,0,0,1,.07.12l-.37,1.4A.1.1,0,0,1,661.42,252.83Z"
           />
    <path d="M662.55,248.59a.1.1,0,0,1-.08,0l-.69-1.08a.1.1,0,0,1,.17-.11l.69,1.08a.1.1,0,0,1,0,.14Z"
           />
    <path d="M640.25,248.54l-.06,0-1.2-1a.1.1,0,1,1,.13-.15l1.2,1a.1.1,0,0,1,0,.14A.1.1,0,0,1,640.25,248.54Z"
           />
    <path d="M640.17,257.82a.1.1,0,0,1-.09-.06l-.5-1.07a.1.1,0,0,1,0-.13.1.1,0,0,1,.13,0l.5,1.07a.1.1,0,0,1,0,.13Z"
           />
    <path d="M629.36,254.18a.1.1,0,0,1-.09-.05l-1-1.72a.1.1,0,1,1,.17-.1l1,1.72a.1.1,0,0,1,0,.14Z"
           />
    <path d="M619.7,253.84l-.05,0a.1.1,0,0,1,0-.14l1.1-1.73a.1.1,0,0,1,.14,0,.1.1,0,0,1,0,.14l-1.1,1.73A.1.1,0,0,1,619.7,253.84Z"
           />
    <path d="M626.59,255.31h0a.1.1,0,0,1-.07-.12l.41-1.54a.1.1,0,0,1,.12-.07.1.1,0,0,1,.07.12l-.41,1.54A.1.1,0,0,1,626.59,255.31Z"
           />
    <path d="M625.94,247.78a.1.1,0,0,1-.08,0l-1-1.2a.1.1,0,1,1,.15-.13l1,1.2a.1.1,0,0,1,0,.14Z"
           />
    <path d="M633.25,252.41a.1.1,0,0,1-.09-.06l-.87-1.81a.1.1,0,0,1,0-.13.1.1,0,0,1,.13,0l.87,1.81a.1.1,0,0,1,0,.13Z"
           />
    <path d="M621.85,249.76h0l-1.47-.39a.1.1,0,0,1-.07-.12.1.1,0,0,1,.12-.07l1.47.39a.1.1,0,0,1,0,.2Z"
           />
    <path d="M644.88,234.21a.1.1,0,0,1-.06-.18l1.17-.89a.1.1,0,1,1,.12.16l-1.17.89Z"
           />
    <path d="M637.24,249.13h0a.1.1,0,0,1-.07-.12l.36-1.33a.1.1,0,0,1,.12-.07.1.1,0,0,1,.07.12l-.36,1.33A.1.1,0,0,1,637.24,249.13Z"
           />
    <path d="M627,226.53l-.05,0a.1.1,0,0,1,0-.14l1.1-1.73a.1.1,0,0,1,.14,0,.1.1,0,0,1,0,.14l-1.1,1.73A.1.1,0,0,1,627,226.53Z"
           />
    <path d="M624.16,241.41a.1.1,0,0,1-.06-.18l1.16-.82a.1.1,0,0,1,.14,0,.1.1,0,0,1,0,.14l-1.16.82Z"
           />
    <path d="M626.83,229.59a.1.1,0,0,1-.09-.07l-.45-1.4a.1.1,0,0,1,.06-.13.1.1,0,0,1,.13.06l.45,1.4a.1.1,0,0,1-.06.13Z"
           />
    <path d="M631.06,228.36a.1.1,0,0,1-.07,0l-1.21-1.23a.1.1,0,0,1,.14-.14l1.21,1.23a.1.1,0,0,1-.07.17Z"
           />
    <path d="M638.68,229.47a.1.1,0,0,1-.09-.06l-.51-1.3a.1.1,0,0,1,.06-.13.1.1,0,0,1,.13.06l.51,1.3a.1.1,0,0,1-.06.13Z"
           />
    <path d="M640.52,235.07h0a.1.1,0,0,1-.07-.12l.39-1.47a.1.1,0,0,1,.19.05l-.39,1.47A.1.1,0,0,1,640.52,235.07Z"
           />
    <path d="M633.39,232.14a.1.1,0,0,1-.1-.08l-.46-2.19a.1.1,0,0,1,.2,0l.46,2.19a.1.1,0,0,1-.08.12Z"
           />
    <path d="M626.2,235.88h0a.1.1,0,0,1-.07-.12l.35-1.3a.1.1,0,0,1,.12-.07.1.1,0,0,1,.07.12l-.35,1.3A.1.1,0,0,1,626.2,235.88Z"
           />
    <path d="M626,243h0l-1.36-.37a.1.1,0,0,1-.07-.12.1.1,0,0,1,.12-.07l1.36.37a.1.1,0,0,1,0,.2Z"
           />
    <path d="M629.59,244.22a.1.1,0,0,1-.08,0l-1.16-1.7a.1.1,0,0,1,0-.14.1.1,0,0,1,.14,0l1.16,1.7a.1.1,0,0,1,0,.14Z"
           />
    <path d="M629.56,235.51h0l-1.26-.34a.1.1,0,0,1,.05-.19l1.26.34a.1.1,0,0,1,0,.2Z"
           />
    <path d="M635,233.86a.1.1,0,0,1,0-.19l1.27-.52a.1.1,0,0,1,.13.05.1.1,0,0,1-.05.13l-1.27.52Z"
           />
    <path d="M638.1,238.36a.1.1,0,0,1-.09-.06.1.1,0,0,1,.05-.13l1.32-.58a.1.1,0,1,1,.08.18l-1.32.58Z"
           />
    <path d="M632.05,242.18l-.06,0a.1.1,0,0,1,0-.14l1-1.45a.1.1,0,0,1,.16.12l-1,1.45A.1.1,0,0,1,632.05,242.18Z"
           />
    <path d="M634.4,245.59h0a.1.1,0,0,1-.07-.12l.38-1.4a.1.1,0,0,1,.12-.07.1.1,0,0,1,.07.12l-.37,1.4A.1.1,0,0,1,634.4,245.59Z"
           />
    <path d="M635.54,241.35a.1.1,0,0,1-.08,0l-.68-1.08a.1.1,0,0,1,.17-.11l.68,1.08a.1.1,0,0,1,0,.14Z"
           />
    <path d="M687.31,260.52a27.68,27.68,0,0,0-2.79-8c-2.27-4.43-5.62-8.59-8.13-9l-7.57-2.11a10.87,10.87,0,0,0-.4-3l-.08-.22-43.7-15.93-.14.53c-.67,2.5-4,2.07-4.07,2.06l-15.73-4.49-1.16-.44c-4.26-1.68-5.14-3.24-5.14-5.27,0-2.64,2.9-11.24,2.93-11.32a25.35,25.35,0,0,1,2.84-5.28h.58a5.18,5.18,0,0,0,1.93-.47,2,2,0,0,0,.68-.63,1.77,1.77,0,0,0,.24-.56,4.19,4.19,0,0,0-.81-2.83,7.88,7.88,0,0,0-1.35-1.64,2.55,2.55,0,0,0,1.88-1,1.87,1.87,0,0,0,.26-.61,3.77,3.77,0,0,0-.52-2.47,7.87,7.87,0,0,0-1.86-2.07,3.05,3.05,0,0,0,2.58-1.1,1.82,1.82,0,0,0,.24-.57,4.41,4.41,0,0,0-.76-2.9l-.37-.62a1.69,1.69,0,0,0,.55-.86c.53-2-2.85-3.9-6.22-4.79S594,174,593.45,176a1.65,1.65,0,0,0,0,.68,9.11,9.11,0,0,1-1.28.9,2.81,2.81,0,0,0-1.77,2.14c0,1.06,1.06,1.92,2.22,2.64a9.82,9.82,0,0,0-3.35,1.45c-1,.66-1.48,1.32-1.46,2,0,.86.84,1.46,1.72,2a11.76,11.76,0,0,0-2.6,1.28c-1.23.79-1.78,1.5-1.74,2.24a1.7,1.7,0,0,0,.62,1.14,9.56,9.56,0,0,0,1.91,1.2,16.39,16.39,0,0,1-.37,3.94,101.19,101.19,0,0,1-3.15,10.25c-2.44,6.13-9.47,3.67-9.81,3.55l-196-52.58c-4.39-1.73-6.18-4.34-5.46-8s2-10.22,4.39-14h.44a2.24,2.24,0,0,0,1.93-.47,2,2,0,0,0,.68-.63,1.77,1.77,0,0,0,.24-.56,4.19,4.19,0,0,0-.81-2.83,7.88,7.88,0,0,0-1.35-1.64,2.55,2.55,0,0,0,1.88-1,1.87,1.87,0,0,0,.26-.61,3.77,3.77,0,0,0-.52-2.47,7.87,7.87,0,0,0-1.86-2.07,3.05,3.05,0,0,0,2.58-1.1,1.82,1.82,0,0,0,.24-.57,4.41,4.41,0,0,0-.76-2.9l-.37-.62a1.69,1.69,0,0,0,.55-.86c.53-2-2.85-3.9-6.22-4.79s-7.24-.93-7.77,1.09a1.65,1.65,0,0,0,0,.68,9.12,9.12,0,0,1-1.28.9,2.81,2.81,0,0,0-1.77,2.14c0,1.06,1.06,1.92,2.22,2.64a9.82,9.82,0,0,0-3.35,1.45c-1,.66-1.48,1.32-1.46,2,0,.86.84,1.46,1.72,2a11.76,11.76,0,0,0-2.6,1.28c-1.23.79-1.78,1.5-1.74,2.24a1.69,1.69,0,0,0,.62,1.14,8.5,8.5,0,0,0,1.68,1.08,17.48,17.48,0,0,1-.44,7.57c-.2.74-.4,1.56-.6,2.4-1.21,5-2.74,11.17-6.42,10.41-2.72-.56-6-1.24-8.22,1.27l-5.27-1.42a15,15,0,0,1-2.47-.9l-44.41-20.83a13.64,13.64,0,0,0-10.95-1.67l-.09-.18a2,2,0,0,0-1-.64l-37.2-12.19-.1,0c-.14,0-.42-.18-.46-.31-.33-1.1-.78-2.62-2.07-3-4.37-1.16-9.28,12.7-11.27,20.19s-4.59,22-.22,23.12c1.29.34,2.43-.64,3.3-1.56a1.8,1.8,0,0,1,.6.07l38.26,7.86a1.66,1.66,0,0,0,1.06,0c2.1,2.69,6.73,4.65,10.55,4.38L332,171.17a15,15,0,0,1,2.59.46l5.25,1.41c-.33,3.17,3.11,4.81,5,5.23L358,181.79l256.51,68.85a3.62,3.62,0,0,1,2.2,3.46l0,.41,45.22,7.5.14-.06c.12-.06.78-.43,1.78-2.06l21.09,5.69a6.51,6.51,0,0,0,1.27-.25C687.31,264.74,687.7,263.08,687.31,260.52Zm-61.82-36.88,42,15.33a11.63,11.63,0,0,1,.27,2.21L625,229.69A51.94,51.94,0,0,0,625.49,223.64Zm-29.14-48.25a14.17,14.17,0,0,1,4.61.52c3.58.94,5.74,2.59,5.52,3.54v0c-.18.67-1.42.85-1.95.9a14.17,14.17,0,0,1-4.61-.52c-3.58-.94-5.74-2.59-5.52-3.54C594.59,175.62,595.83,175.44,596.36,175.39Zm-227-61.2a14.17,14.17,0,0,1,4.61.52c3.58.94,5.74,2.59,5.52,3.54v0c-.18.67-1.42.85-1.95.9a14.17,14.17,0,0,1-4.61-.52c-3.58-.94-5.74-2.59-5.52-3.54C367.59,114.43,368.83,114.24,369.36,114.2Zm-16.57,39.52c4.64,1,6.28-5.76,7.59-11.15.2-.83.4-1.64.6-2.38a18.77,18.77,0,0,0,.57-7.29,36.34,36.34,0,0,0,3.79,1.44l.23-1a32.19,32.19,0,0,1-3.84-1.48l-.1-.05c-1.15-.57-2.45-1.22-2.48-1.75,0-.15.1-.59,1.28-1.35a9.8,9.8,0,0,1,3.34-1.43,26.13,26.13,0,0,0,2.94,1.15l.23-1a21.33,21.33,0,0,1-3-1.23l-.26-.14c-.79-.42-1.87-1-1.89-1.51a.38.38,0,0,1,0-.11c0-.2.26-.54,1-1A8.35,8.35,0,0,1,367.2,122l1,.39.23-1a15.13,15.13,0,0,1-2-.92c-1.35-.8-2-1.44-2-1.91s.46-.81,1.19-1.2a5.92,5.92,0,0,0,1.28-.9c1,1.35,3.4,2.5,5.82,3.14s4.8.81,6.35.25l.36.62c.66,1.17.84,2,.55,2.45s-1.49.76-3.21.61c-.49,0-1-.11-1.54-.2l-.23,1c.48.08,1,.15,1.41.2a8.08,8.08,0,0,1,2.83,2.63c.28.49.66,1.46.29,2s-1.52.76-3.24.55c-.77-.09-1.6-.23-2.47-.41l-.23,1c.9.18,1.77.33,2.57.43.3,0,.58.06.84.08a8,8,0,0,1,2,2.17c.24.4,1,1.6.54,2.26-.23.36-1,.9-3.93.55-1-.12-2.07-.31-3.2-.55l-.23,1c1.15.24,2.27.44,3.3.57l.71.06c-2.28,4-3.53,10.32-4.24,13.87-.82,4.11,1.23,7.17,6.13,9.1l196,52.58c.08,0,8.24,2.91,11-4.15a102.61,102.61,0,0,0,3.19-10.38,17.77,17.77,0,0,0,.4-3.68,37.84,37.84,0,0,0,3.65,1.38l.23-1a32.19,32.19,0,0,1-3.84-1.48l-.1-.05c-1.15-.57-2.45-1.22-2.48-1.75,0-.15.1-.59,1.28-1.35a9.8,9.8,0,0,1,3.34-1.43,26.13,26.13,0,0,0,2.94,1.15l.23-1a21.32,21.32,0,0,1-3-1.23l-.26-.14c-.79-.42-1.87-1-1.89-1.51a.38.38,0,0,1,0-.11c0-.2.26-.54,1-1a8.35,8.35,0,0,1,4.41-1.46l1,.39.23-1a15.14,15.14,0,0,1-2-.92c-1.35-.8-2-1.44-2-1.91s.46-.81,1.19-1.2a5.92,5.92,0,0,0,1.28-.9c1,1.35,3.4,2.5,5.82,3.14s4.8.81,6.35.25l.36.62c.66,1.17.84,2,.55,2.45s-1.49.76-3.21.61c-.49,0-1-.11-1.54-.2l-.23,1c.48.08,1,.15,1.41.2a8.08,8.08,0,0,1,2.83,2.63c.28.49.66,1.46.29,2s-1.52.76-3.24.55c-.77-.09-1.6-.23-2.47-.41l-.23,1c.9.18,1.77.33,2.57.43.3,0,.58.06.84.08a8,8,0,0,1,2,2.17c.24.4,1,1.6.54,2.26-.23.36-1,.9-3.93.55-1-.12-2.07-.31-3.2-.55l-.23,1c1.15.24,2.27.44,3.3.57l.54,0a25.56,25.56,0,0,0-2.63,5c-.12.36-3,8.84-3,11.64,0,2.57,1.34,4.25,4.8,5.79-4.41,1.29-10.83-.13-10.88-.14l-245.44-66C347.5,152.79,349.82,153.1,352.79,153.72ZM230.46,133.32a68.25,68.25,0,0,1,5.95-15.6c1.67,1.06,1.31,8.17-.87,16.42-2.28,8.59-5.69,15.15-7.63,14.68A71.82,71.82,0,0,1,230.46,133.32Zm2.66,20.34a2.17,2.17,0,0,0-.72,0l-.33.06-.23.24c-1,1-1.71,1.44-2.32,1.28-1.09-.29-1.62-2.29-1.64-5.39,3.45.39,7-9.43,8.61-15.44,1.55-5.84,3.27-15.73.43-17.54,1.35-2.13,2.61-3.27,3.58-3,.74.2,1.09,1.34,1.36,2.25a1.58,1.58,0,0,0,1,1c.56,4.23-.2,11.28-2.25,19S235.69,150.26,233.11,153.67Zm.26.05h0c2.59-3.44,5.37-9.85,7.43-17.6s2.82-14.72,2.27-19l.1,0L279.45,129c-2.43,1.56-5.34,9.68-6.89,15.52s-3,14.22-1.74,16.84Zm38.7,8-.72-.17c-1.23-1.5-.6-8.6,1.59-16.85s5.22-14.86,7-15.46l.71.23h0c1.18,1.59.54,8.64-1.63,16.82S273.88,161.06,272.07,161.69Zm86.14,19.14-13.14-3.54c-.19,0-4.42-1-4.27-4l245.61,65.86c.07,0,6.54,2.08,9.66,5.51Zm256.53,68.85-17.06-4.58c-2.83-4.31-10.64-6.79-11-6.9L334.83,170.66a16,16,0,0,0-2.76-.49L283,166c-3.57.25-7.8-1.51-9.72-3.93,3.3-3,6.33-14,6.72-15.51s3.07-11.91,2-16.39a12.58,12.58,0,0,1,10.12,1.6l44.48,20.87a16,16,0,0,0,2.64,1l5.38,1.45,246.44,66.28a33.5,33.5,0,0,0,6.64.72,15.31,15.31,0,0,0,5.87-1l.82.3,15.82,4.52a5.47,5.47,0,0,0,4.24-1.12c0,1.11-.15,2.71-.41,4.71l-22.39-6-.26,1,22.51,6a77.57,77.57,0,0,1-4.33,16.49l-22.09-6-.26,1,22,5.93q-.86,2.19-1.92,4.49A4.43,4.43,0,0,0,614.74,249.68Zm47,11.28-43.92-7.28q1.36-2.85,2.41-5.56l42.59,11.49A5.86,5.86,0,0,1,661.71,261Zm1.61-2.24-42.76-11.54a78.69,78.69,0,0,0,4.33-16.49l42.93,11.53a34.1,34.1,0,0,1-1.63,9.3A39.62,39.62,0,0,1,663.33,258.71Zm1,.27a41.86,41.86,0,0,0,2.82-7.18,35.7,35.7,0,0,0,1.68-9.32l5.85,1.57c-.78.76-1,2.28-.7,4.46a31,31,0,0,0,7.63,14.92l.31.29Zm21.39,5.45c-.69.35-2-.28-3.4-1.7A30,30,0,0,1,675,248.36c-.31-2-.08-3.4.61-3.75a1,1,0,0,1,.45-.1c1.64,0,4.9,3.18,7.61,8.48a26.69,26.69,0,0,1,2.69,7.68C686.63,262.67,686.4,264.08,685.71,264.43Z"
           /></g>
</svg>