<svg id="图层_30" data-name="图层 30" xmlns="http://www.w3.org/2000/svg" viewBox="0 0 392.48 153.76" width="395" height="155">
    <title>玻璃仪器30</title><g stroke="#000000" fill="#000000" stroke-width="0.5324" transform="translate(-9.71 -103.15)">
    <path d="M55.45,161.39l-.06,0a.1.1,0,0,1,0-.14l1.08-1.63a.1.1,0,0,1,.17.11l-1.08,1.63A.1.1,0,0,1,55.45,161.39Z"
           />
    <path d="M58.08,159.43a.1.1,0,0,1-.09-.07l-.55-1.61a.1.1,0,0,1,.19-.06l.55,1.61a.1.1,0,0,1-.06.13Z"
           />
    <path d="M54.95,165.36h0a.1.1,0,0,1-.07-.12l.41-1.54a.1.1,0,0,1,.12-.07.1.1,0,0,1,.07.12L55,165.28A.1.1,0,0,1,54.95,165.36Z"
           />
    <path d="M60.95,150a.1.1,0,0,1-.06-.18l1.24-.83a.1.1,0,1,1,.11.17L61,150Z"  />
    <path d="M60.58,159.91a.1.1,0,0,1-.1-.07L60,158.28a.1.1,0,1,1,.19-.06l.48,1.56a.1.1,0,0,1-.07.13Z"
           />
    <path d="M54.66,161l-.06,0-1.2-1a.1.1,0,1,1,.13-.15l1.2,1a.1.1,0,0,1,0,.14A.1.1,0,0,1,54.66,161Z"
           />
    <path d="M53.58,168.07a.1.1,0,0,1-.08,0l-1.21-1.38a.1.1,0,1,1,.15-.13l1.21,1.38a.1.1,0,0,1,0,.14Z"
           />
    <path d="M44.07,166.54a.1.1,0,0,1-.09-.05l-1-1.73a.1.1,0,0,1,.17-.1l1,1.73a.1.1,0,0,1,0,.14Z"
           />
    <path d="M30.79,163.24l-.06,0a.1.1,0,0,1,0-.14l1-1.28a.1.1,0,0,1,.16.12l-1,1.28A.1.1,0,0,1,30.79,163.24Z"
           />
    <path d="M32.42,149.31l-.07,0-1.12-1a.1.1,0,1,1,.13-.15l1.12,1a.1.1,0,0,1-.07.17Z"
           />
    <path d="M31.43,158.07a.1.1,0,0,1-.1-.07l-.48-1.59a.1.1,0,0,1,.07-.12.1.1,0,0,1,.12.07l.48,1.59a.1.1,0,0,1-.07.12Z"
           />
    <path d="M40.61,160.27a.1.1,0,0,1-.08,0l-1-1.21a.1.1,0,1,1,.15-.13l1,1.21a.1.1,0,0,1,0,.14Z"
           />
    <path d="M47.93,164.9a.1.1,0,0,1-.09-.06L47,163a.1.1,0,0,1,0-.13.1.1,0,0,1,.13,0l.87,1.81a.1.1,0,0,1,0,.13Z"
           />
    <path d="M36.51,162.25h0L35,161.85a.1.1,0,0,1-.07-.12.1.1,0,0,1,.12-.07l1.47.39a.1.1,0,0,1,0,.2Z"
           />
    <path d="M49.74,163.62a.1.1,0,0,1-.09-.07L49.12,162a.1.1,0,0,1,.06-.13.1.1,0,0,1,.13.06l.53,1.53a.1.1,0,0,1-.06.13Z"
           />
    <path d="M61.52,143.2a.1.1,0,0,1-.09-.06l-.5-1.07a.1.1,0,1,1,.18-.08l.5,1.07a.1.1,0,0,1,0,.13Z"
           />
    <path d="M57.45,153.92a.1.1,0,0,1-.09-.06l-.62-1.48a.1.1,0,1,1,.18-.08l.62,1.48a.1.1,0,0,1-.05.13Z"
           />
    <path d="M58,141.13a.1.1,0,0,1-.09-.07l-.47-1.33a.1.1,0,0,1,.19-.07l.47,1.33a.1.1,0,0,1-.06.13Z"
           />
    <path d="M46.35,137.55a.1.1,0,0,1,0-.19l1.52-.61a.1.1,0,0,1,.07.19l-1.52.61Z"  />
    <path d="M38.08,136,38,136a.1.1,0,0,1,0-.14l1-1.28a.1.1,0,0,1,.16.12l-1,1.28A.1.1,0,0,1,38.08,136Z"
           />
    <path d="M34.16,142.79a.1.1,0,0,1-.06-.18l1.24-.83a.1.1,0,1,1,.11.17l-1.24.83Z"
           />
    <path d="M33.8,152.73a.1.1,0,0,1-.1-.07l-.48-1.56a.1.1,0,1,1,.19-.06l.48,1.56a.1.1,0,0,1-.07.13Z"
           />
    <path d="M36.07,157.29a.1.1,0,0,1-.07,0l-1.08-1a.1.1,0,0,1,0-.14.1.1,0,0,1,.14,0l1.08,1a.1.1,0,0,1,0,.14A.1.1,0,0,1,36.07,157.29Z"
           />
    <path d="M38.82,153.89a.1.1,0,0,1-.06-.18l1.16-.82a.1.1,0,1,1,.12.16l-1.16.82Z"
           />
    <path d="M37.87,142a.1.1,0,0,1-.09-.06l-.62-1.63a.1.1,0,0,1,.19-.07l.62,1.63a.1.1,0,0,1-.06.13Z"
           />
    <path d="M41.5,142a.1.1,0,0,1-.1-.07l-.45-1.4a.1.1,0,0,1,.06-.13.1.1,0,0,1,.13.06l.45,1.4a.1.1,0,0,1-.06.13Z"
           />
    <path d="M45.74,140.81a.1.1,0,0,1-.07,0l-1.21-1.23a.1.1,0,0,1,0-.14.1.1,0,0,1,.14,0l1.21,1.23a.1.1,0,0,1-.07.17Z"
           />
    <path d="M53.37,141.92a.1.1,0,0,1-.09-.06l-.52-1.3a.1.1,0,0,1,.19-.07l.52,1.3a.1.1,0,0,1-.06.13Z"
           />
    <path d="M58.38,145.26a.1.1,0,0,1-.07,0l-1-1.15a.1.1,0,0,1,0-.14.1.1,0,0,1,.14,0l1,1.15a.1.1,0,0,1-.07.17Z"
           />
    <path d="M53.14,145a.1.1,0,0,1-.07,0,.1.1,0,0,1,0-.14l1.12-1.09a.1.1,0,0,1,.14,0,.1.1,0,0,1,0,.14L53.21,145A.1.1,0,0,1,53.14,145Z"
           />
    <path d="M44.86,145.5a.1.1,0,0,1-.08,0L43.59,144a.1.1,0,0,1,0-.14.1.1,0,0,1,.14,0l1.19,1.45a.1.1,0,0,1,0,.14Z"
           />
    <path d="M40.83,154.39a.1.1,0,0,1,0-.19l1.37-.61a.1.1,0,1,1,.08.18l-1.37.61Z"  />
    <path d="M44.45,159.38a.1.1,0,0,1-.1-.1l-.09-2.05a.1.1,0,0,1,.1-.1h0a.1.1,0,0,1,.1.1l.09,2.05a.1.1,0,0,1-.1.1Z"
           />
    <path d="M44.72,150.92a.1.1,0,0,1-.08,0l-.91-1.37a.1.1,0,0,1,0-.14.1.1,0,0,1,.14,0l.91,1.37a.1.1,0,0,1,0,.14Z"
           />
    <path d="M49,148.3a.1.1,0,0,1-.08,0l-1-1.24a.1.1,0,1,1,.16-.12l1,1.24a.1.1,0,0,1,0,.14Z"
           />
    <path d="M55.72,151.69a.1.1,0,0,1-.1-.08l-.3-1.4a.1.1,0,1,1,.2,0l.3,1.4a.1.1,0,0,1-.08.12Z"
           />
    <path d="M47.27,151.23a.1.1,0,0,1-.08,0L46.27,150a.1.1,0,0,1,0-.14.1.1,0,0,1,.14,0l.92,1.19a.1.1,0,0,1,0,.14Z"
           />
    <path d="M47.69,160.33h0l-1.47-.4a.1.1,0,0,1-.07-.12.1.1,0,0,1,.12-.07l1.47.4a.1.1,0,0,1,0,.2Z"
           />
    <path d="M53,158.79a.1.1,0,0,1-.1-.07l-.4-1.46a.1.1,0,0,1,.07-.12.1.1,0,0,1,.12.07l.4,1.46a.1.1,0,0,1-.07.12Z"
           />
    <path d="M53.4,155.16a.1.1,0,0,1-.08,0,.1.1,0,0,1,0-.14l1.27-1.09a.1.1,0,0,1,.13.15l-1.27,1.09Z"
           />
    <path d="M38.75,130.7a.1.1,0,0,1-.1-.07L38.18,129a.1.1,0,0,1,.19-.06l.48,1.59a.1.1,0,0,1-.07.12Z"
           />
    <path d="M47.85,133.35a.1.1,0,0,1-.08,0l-1-1.21a.1.1,0,0,1,0-.14.1.1,0,0,1,.14,0l1,1.21a.1.1,0,0,1,0,.14Z"
           />
    <path d="M52.34,136.23a.1.1,0,0,1-.06-.18l1.5-1.1a.1.1,0,0,1,.12.16l-1.5,1.1Z"
           />
    <path d="M46.64,135.19l-.06,0L45.05,134a.1.1,0,0,1,0-.14.1.1,0,0,1,.14,0L46.7,135a.1.1,0,0,1-.06.18Z"
           />
    <path d="M57.21,137a.1.1,0,0,1-.09-.07l-.53-1.53a.1.1,0,0,1,.19-.07l.53,1.53a.1.1,0,0,1-.06.13Z"
           />
    <path d="M23.66,161.1a.1.1,0,0,1-.09-.07l-.47-1.33a.1.1,0,0,1,.06-.13.1.1,0,0,1,.13.06l.47,1.33a.1.1,0,0,1-.06.13Z"
           />
    <path d="M14.23,160.42h0a.1.1,0,0,1-.07-.12l.41-1.54a.1.1,0,0,1,.12-.07.1.1,0,0,1,.07.12l-.41,1.54A.1.1,0,0,1,14.23,160.42Z"
           />
    <path d="M13.54,153a.1.1,0,0,1-.08,0l-1-1.21a.1.1,0,0,1,0-.14.1.1,0,0,1,.14,0l1,1.21a.1.1,0,0,1,0,.14Z"
           />
    <path d="M20.87,157.65a.1.1,0,0,1-.09-.06l-.87-1.81a.1.1,0,0,1,0-.13.1.1,0,0,1,.13,0L21,157.5a.1.1,0,0,1,0,.13Z"
           />
    <path d="M22.68,156.36a.1.1,0,0,1-.09-.07l-.53-1.53a.1.1,0,0,1,.06-.13.1.1,0,0,1,.13.06l.53,1.53a.1.1,0,0,1-.06.13Z"
           />
    <path d="M34.46,135.94a.1.1,0,0,1-.09-.06l-.5-1.07a.1.1,0,1,1,.18-.08l.5,1.07a.1.1,0,0,1,0,.13Z"
           />
    <path d="M30.38,146.66a.1.1,0,0,1-.09-.06l-.62-1.48a.1.1,0,1,1,.18-.08l.62,1.48a.1.1,0,0,1-.05.13Z"
           />
    <path d="M31,133.88a.1.1,0,0,1-.09-.07l-.47-1.33a.1.1,0,1,1,.19-.07l.47,1.33a.1.1,0,0,1-.06.13Z"
           />
    <path d="M14.19,137.54a.1.1,0,0,1-.08,0,.1.1,0,0,1,0-.14l1.16-1a.1.1,0,0,1,.14,0,.1.1,0,0,1,0,.14l-1.16,1Z"
           />
    <path d="M23.9,136.23a.1.1,0,0,1-.09-.05L23,134.81a.1.1,0,0,1,0-.14.1.1,0,0,1,.14,0l.76,1.37a.1.1,0,0,1,0,.14Z"
           />
    <path d="M29.6,136a.1.1,0,0,1-.06-.18l1.35-1.1a.1.1,0,0,1,.14,0,.1.1,0,0,1,0,.14L29.66,136Z"
           />
    <path d="M29.14,141.33a.1.1,0,0,1-.07-.17L30.2,140a.1.1,0,1,1,.14.14l-1.13,1.13A.1.1,0,0,1,29.14,141.33Z"
           />
    <path d="M18.54,135.17h0l-1.72-.46a.1.1,0,0,1-.07-.12.1.1,0,0,1,.12-.07l1.72.46a.1.1,0,0,1,0,.2Z"
           />
    <path d="M15.24,143.58a.1.1,0,0,1-.08,0l-1-1.36a.1.1,0,0,1,0-.14.1.1,0,0,1,.14,0l1,1.36a.1.1,0,0,1,0,.14Z"
           />
    <path d="M13.6,148.18h0l-1.37-.37a.1.1,0,0,1-.07-.12.1.1,0,0,1,.12-.07l1.37.37a.1.1,0,0,1,0,.2Z"
           />
    <path d="M17.39,152.12a.1.1,0,0,1-.1-.1L17.2,150a.1.1,0,0,1,.1-.1h0a.1.1,0,0,1,.1.1l.09,2.05a.1.1,0,0,1-.1.1Z"
           />
    <path d="M17.66,143.66a.1.1,0,0,1-.08,0l-.91-1.37a.1.1,0,0,1,.17-.11l.91,1.37a.1.1,0,0,1,0,.14Z"
           />
    <path d="M22.65,139.06a.1.1,0,0,1,0-.19l1.27-.52a.1.1,0,0,1,.13.05.1.1,0,0,1-.05.13l-1.27.52Z"
           />
    <path d="M25.73,143.57a.1.1,0,0,1,0-.19l1.32-.59a.1.1,0,0,1,.08.18l-1.32.59Z"  />
    <path d="M19.67,147.4l-.06,0a.1.1,0,0,1,0-.14l1-1.45a.1.1,0,0,1,.14,0,.1.1,0,0,1,0,.14l-1,1.45A.1.1,0,0,1,19.67,147.4Z"
           />
    <path d="M22,150.81h0a.1.1,0,0,1-.07-.12l.38-1.4a.1.1,0,0,1,.12-.07.1.1,0,0,1,.07.12l-.38,1.4A.1.1,0,0,1,22,150.81Z"
           />
    <path d="M23.16,146.57a.1.1,0,0,1-.08,0l-.69-1.09a.1.1,0,0,1,.17-.11l.69,1.09a.1.1,0,0,1,0,.14Z"
           />
    <path d="M20.87,125.65a.1.1,0,0,1-.08,0l-1-1.21a.1.1,0,0,1,0-.14.1.1,0,0,1,.14,0l1,1.21a.1.1,0,0,1,0,.14Z"
           />
    <path d="M28.19,130.28a.1.1,0,0,1-.09-.06l-.87-1.81a.1.1,0,0,1,0-.13.1.1,0,0,1,.13,0l.87,1.81a.1.1,0,0,1,0,.13Z"
           />
    <path d="M30,129a.1.1,0,0,1-.09-.07l-.53-1.53a.1.1,0,0,1,.06-.13.1.1,0,0,1,.13.06l.53,1.53A.1.1,0,0,1,30,129Z"
           />
    <path d="M381,253.79a.1.1,0,0,1-.09-.05l-1-1.73a.1.1,0,0,1,.17-.1l1,1.73a.1.1,0,0,1,0,.14Z"
           />
    <path d="M367.66,251.62l-.06,0a.1.1,0,0,1,0-.14l1-1.28a.1.1,0,0,1,.14,0,.1.1,0,0,1,0,.14l-1,1.28A.1.1,0,0,1,367.66,251.62Z"
           />
    <path d="M369.32,237.55l-.07,0-1.12-1a.1.1,0,1,1,.13-.15l1.12,1a.1.1,0,0,1-.07.17Z"
           />
    <path d="M368.33,246.31a.1.1,0,0,1-.1-.07l-.48-1.59a.1.1,0,0,1,.07-.12.1.1,0,0,1,.12.07l.48,1.59a.1.1,0,0,1-.07.12Z"
           />
    <path d="M377.51,248.51a.1.1,0,0,1-.08,0l-1-1.21a.1.1,0,0,1,0-.14.1.1,0,0,1,.14,0l1,1.21a.1.1,0,0,1,0,.14Z"
           />
    <path d="M380.46,250.65h0a.1.1,0,0,1-.07-.12l.41-1.54a.1.1,0,0,1,.12-.07.1.1,0,0,1,.07.12l-.41,1.54A.1.1,0,0,1,380.46,250.65Z"
           />
    <path d="M378.27,252a.1.1,0,0,1-.07-.17l1.17-1.15a.1.1,0,0,1,.14,0,.1.1,0,0,1,0,.14L378.34,252A.1.1,0,0,1,378.27,252Z"
           />
    <path d="M386.64,251.86a.1.1,0,0,1-.09-.07l-.53-1.53a.1.1,0,0,1,.06-.13.1.1,0,0,1,.13.06l.53,1.53a.1.1,0,0,1-.06.13Z"
           />
    <path d="M372.37,226h0a.1.1,0,0,1-.07-.12l.44-1.65a.1.1,0,0,1,.12-.07.1.1,0,0,1,.07.12l-.44,1.65A.1.1,0,0,1,372.37,226Z"
           />
    <path d="M371.07,231a.1.1,0,0,1-.06-.18l1.24-.83a.1.1,0,0,1,.11.17l-1.24.83Z"  />
    <path d="M370.7,241a.1.1,0,0,1-.1-.07l-.48-1.56a.1.1,0,0,1,.19-.06l.48,1.56a.1.1,0,0,1-.07.13Z"
           />
    <path d="M373,245.52a.1.1,0,0,1-.07,0l-1.08-1a.1.1,0,0,1,0-.14.1.1,0,0,1,.14,0l1.08,1a.1.1,0,0,1,0,.14A.1.1,0,0,1,373,245.52Z"
           />
    <path d="M375.72,242.12a.1.1,0,0,1-.06-.18l1.16-.82a.1.1,0,1,1,.12.16l-1.16.82Z"
           />
    <path d="M374.77,230.25a.1.1,0,0,1-.09-.06l-.62-1.63a.1.1,0,1,1,.19-.07l.62,1.63a.1.1,0,0,1-.06.13Z"
           />
    <path d="M378.4,230.28a.1.1,0,0,1-.1-.07l-.45-1.4a.1.1,0,0,1,.19-.06l.45,1.4a.1.1,0,0,1-.06.13Z"
           />
    <path d="M387.86,231.73a.1.1,0,0,1-.09-.05l-.76-1.37a.1.1,0,0,1,0-.14.1.1,0,0,1,.14,0l.76,1.37a.1.1,0,0,1,0,.14Z"
           />
    <path d="M385,232.83a.1.1,0,0,1-.1-.08l-.46-2.19a.1.1,0,0,1,.08-.12.1.1,0,0,1,.12.08l.46,2.19a.1.1,0,0,1-.08.12Z"
           />
    <path d="M377.77,236.58h0a.1.1,0,0,1-.07-.12l.35-1.3a.1.1,0,0,1,.12-.07.1.1,0,0,1,.07.12l-.35,1.3A.1.1,0,0,1,377.77,236.58Z"
           />
    <path d="M377.56,243.67h0l-1.37-.37a.1.1,0,0,1-.07-.12.1.1,0,0,1,.12-.07l1.37.37a.1.1,0,0,1,0,.2Z"
           />
    <path d="M381.17,244.94a.1.1,0,0,1-.08,0l-1.16-1.7a.1.1,0,1,1,.17-.11l1.16,1.7a.1.1,0,0,1,0,.14Z"
           />
    <path d="M381.14,236.21h0l-1.26-.34a.1.1,0,0,1-.07-.12.1.1,0,0,1,.12-.07l1.26.34a.1.1,0,0,1,0,.2Z"
           />
    <path d="M386.62,234.55a.1.1,0,0,1,0-.19l1.27-.52a.1.1,0,0,1,.13.05.1.1,0,0,1-.05.13l-1.27.52Z"
           />
    <path d="M389.69,239.06a.1.1,0,0,1,0-.19l1.32-.59a.1.1,0,1,1,.08.18l-1.32.59Z"
           />
    <path d="M383.63,242.89l-.06,0a.1.1,0,0,1,0-.14l1-1.45a.1.1,0,0,1,.14,0,.1.1,0,0,1,0,.14l-1,1.45A.1.1,0,0,1,383.63,242.89Z"
           />
    <path d="M386,246.3h0a.1.1,0,0,1-.07-.12l.38-1.4a.1.1,0,0,1,.12-.07.1.1,0,0,1,.07.12l-.38,1.4A.1.1,0,0,1,386,246.3Z"
           />
    <path d="M387.12,242.06a.1.1,0,0,1-.08,0l-.69-1.09a.1.1,0,0,1,.17-.11l.69,1.09a.1.1,0,0,1,0,.14Z"
           />
    <path d="M364.78,242l-.06,0-1.2-1a.1.1,0,0,1,0-.14.1.1,0,0,1,.14,0l1.2,1a.1.1,0,0,1,0,.14A.1.1,0,0,1,364.78,242Z"
           />
    <path d="M364.7,251.3a.1.1,0,0,1-.09-.06l-.5-1.07a.1.1,0,1,1,.18-.08l.5,1.07a.1.1,0,0,1,0,.13Z"
           />
    <path d="M353.87,247.66a.1.1,0,0,1-.09-.05l-1-1.73a.1.1,0,0,1,.17-.1l1,1.73a.1.1,0,0,1,0,.14Z"
           />
    <path d="M344.2,247.32l-.05,0a.1.1,0,0,1,0-.14l1.1-1.73a.1.1,0,0,1,.14,0,.1.1,0,0,1,0,.14l-1.1,1.73A.1.1,0,0,1,344.2,247.32Z"
           />
    <path d="M351.09,248.79h0a.1.1,0,0,1-.07-.12l.41-1.54a.1.1,0,0,1,.12-.07.1.1,0,0,1,.07.12l-.41,1.54A.1.1,0,0,1,351.09,248.79Z"
           />
    <path d="M350.44,241.25a.1.1,0,0,1-.08,0l-1-1.21a.1.1,0,0,1,0-.14.1.1,0,0,1,.14,0l1,1.21a.1.1,0,0,1,0,.14Z"
           />
    <path d="M357.77,245.88a.1.1,0,0,1-.09-.06l-.87-1.81a.1.1,0,0,1,0-.13.1.1,0,0,1,.13,0l.87,1.81a.1.1,0,0,1,0,.13Z"
           />
    <path d="M346.34,243.23h0l-1.47-.39a.1.1,0,0,1-.07-.12.1.1,0,0,1,.12-.07l1.47.39a.1.1,0,0,1,0,.2Z"
           />
    <path d="M369.41,227.65a.1.1,0,0,1-.06-.18l1.18-.89a.1.1,0,1,1,.12.16l-1.18.89Z"
           />
    <path d="M361.77,242.59h0a.1.1,0,0,1-.07-.12l.36-1.33a.1.1,0,0,1,.12-.07.1.1,0,0,1,.07.12l-.36,1.33A.1.1,0,0,1,361.77,242.59Z"
           />
    <path d="M351.52,220l-.05,0a.1.1,0,0,1,0-.14l1.1-1.73a.1.1,0,0,1,.17.11l-1.1,1.73A.1.1,0,0,1,351.52,220Z"
           />
    <path d="M348.66,234.87a.1.1,0,0,1-.06-.18l1.16-.82a.1.1,0,1,1,.12.16l-1.16.82Z"
           />
    <path d="M351.34,223a.1.1,0,0,1-.1-.07l-.45-1.4a.1.1,0,0,1,.19-.06l.45,1.4a.1.1,0,0,1-.06.13Z"
           />
    <path d="M355.58,221.79a.1.1,0,0,1-.07,0l-1.21-1.23a.1.1,0,0,1,0-.14.1.1,0,0,1,.14,0l1.21,1.23a.1.1,0,0,1-.07.17Z"
           />
    <path d="M363.21,222.9a.1.1,0,0,1-.09-.06l-.52-1.3a.1.1,0,0,1,.19-.07l.52,1.3a.1.1,0,0,1-.06.13Z"
           />
    <path d="M365.05,228.51h0a.1.1,0,0,1-.07-.12l.4-1.47a.1.1,0,0,1,.12-.07.1.1,0,0,1,.07.12l-.4,1.47A.1.1,0,0,1,365.05,228.51Z"
           />
    <path d="M357.91,225.58a.1.1,0,0,1-.1-.08l-.46-2.19a.1.1,0,0,1,.08-.12.1.1,0,0,1,.12.08l.46,2.19a.1.1,0,0,1-.08.12Z"
           />
    <path d="M350.7,229.32h0a.1.1,0,0,1-.07-.12l.35-1.3a.1.1,0,0,1,.12-.07.1.1,0,0,1,.07.12l-.35,1.3A.1.1,0,0,1,350.7,229.32Z"
           />
    <path d="M350.5,236.41h0L349.1,236a.1.1,0,0,1-.07-.12.1.1,0,0,1,.12-.07l1.37.37a.1.1,0,0,1,0,.2Z"
           />
    <path d="M354.1,237.68a.1.1,0,0,1-.08,0l-1.16-1.7a.1.1,0,0,1,.17-.11l1.16,1.7a.1.1,0,0,1,0,.14Z"
           />
    <path d="M354.07,228.95h0l-1.26-.34a.1.1,0,0,1-.07-.12.1.1,0,0,1,.12-.07l1.26.34a.1.1,0,0,1,0,.2Z"
           />
    <path d="M359.55,227.3a.1.1,0,0,1,0-.19l1.27-.52a.1.1,0,1,1,.08.18l-1.27.52Z"  />
    <path d="M362.63,231.81a.1.1,0,0,1,0-.19l1.32-.59a.1.1,0,0,1,.08.18l-1.32.59Z"
           />
    <path d="M356.57,235.63l-.06,0a.1.1,0,0,1,0-.14l1-1.45a.1.1,0,0,1,.14,0,.1.1,0,0,1,0,.14l-1,1.45A.1.1,0,0,1,356.57,235.63Z"
           />
    <path d="M358.92,239h0a.1.1,0,0,1-.07-.12l.38-1.4a.1.1,0,0,1,.12-.07.1.1,0,0,1,.07.12L359,239A.1.1,0,0,1,358.92,239Z"
           />
    <path d="M360.06,234.8a.1.1,0,0,1-.08,0l-.69-1.09a.1.1,0,1,1,.17-.11l.69,1.09a.1.1,0,0,1,0,.14Z"
           />
    <path d="M399.5,236.65a8.56,8.56,0,0,0-3.36-2c-1.47-.58-2.75-1.1-3.3-2.52,0-.21-.09-.34-.1-.36l-.08-.22L349,215.64l-.14.53c-.67,2.5-4,2.07-4.07,2.06L329,213.74l-.6-.22c-.17-5.14-6.29-12.62-11.78-16-5.05-3.09-3.44-8.87-1.89-14.46l.37-1.33a17.15,17.15,0,0,1,3.1-6.55l.34,0H319a2.24,2.24,0,0,0,1.94-.43,2,2,0,0,0,.69-.62,1.77,1.77,0,0,0,.25-.56,4.19,4.19,0,0,0-.75-2.84,7.87,7.87,0,0,0-1.32-1.66,2.55,2.55,0,0,0,1.89-1,1.87,1.87,0,0,0,.27-.6,3.77,3.77,0,0,0-.48-2.47,7.87,7.87,0,0,0-1.82-2.1,3.05,3.05,0,0,0,2.6-1.05,1.82,1.82,0,0,0,.25-.57,4.41,4.41,0,0,0-.7-2.92l-.35-.63a1.69,1.69,0,0,0,.57-.85c.57-2-2.78-4-6.13-4.9s-7.22-1.06-7.79.94a1.65,1.65,0,0,0,0,.68,9.12,9.12,0,0,1-1.3.87,2.81,2.81,0,0,0-1.81,2.11c-.06,1.06,1,1.94,2.17,2.68a9.82,9.82,0,0,0-3.38,1.39c-1,.64-1.51,1.29-1.49,2,0,.86.81,1.47,1.68,2a11.75,11.75,0,0,0-2.63,1.23c-1.24.76-1.81,1.46-1.78,2.21a1.69,1.69,0,0,0,.59,1.16,6.49,6.49,0,0,0,1.21.85A32.3,32.3,0,0,1,298.71,184c-2.92,6.53-9.6,4.8-9.89,4.72l-149.6-40.14c-7.16-1.92-5.48-8.44-3.85-14.75.15-.57.29-1.13.43-1.67a17.44,17.44,0,0,1,2-5.33l.68,0H139a3.32,3.32,0,0,0,1.93-.47,2,2,0,0,0,.68-.63,1.77,1.77,0,0,0,.24-.56,4.19,4.19,0,0,0-.81-2.83,7.88,7.88,0,0,0-1.35-1.64,2.55,2.55,0,0,0,1.88-1,1.87,1.87,0,0,0,.26-.61,3.77,3.77,0,0,0-.52-2.47,7.87,7.87,0,0,0-1.86-2.07,3.05,3.05,0,0,0,2.58-1.1,1.82,1.82,0,0,0,.24-.57,4.41,4.41,0,0,0-.76-2.9l-.37-.62a1.69,1.69,0,0,0,.55-.86c.53-2-2.85-3.9-6.22-4.79s-7.24-.93-7.77,1.09a1.65,1.65,0,0,0,0,.68,9.12,9.12,0,0,1-1.28.9,2.81,2.81,0,0,0-1.77,2.14c0,1.06,1.06,1.92,2.22,2.64a9.82,9.82,0,0,0-3.35,1.45c-1,.66-1.48,1.32-1.46,2,0,.86.84,1.46,1.72,2a11.76,11.76,0,0,0-2.6,1.28c-1.23.79-1.78,1.5-1.74,2.24a1.69,1.69,0,0,0,.62,1.14,8,8,0,0,0,1.59,1,10.32,10.32,0,0,1,.27,4.52c-1.42,9.1-3.71,14.66-6.19,15.25-9.2.53-14.7,2.84-17.83,7.49l-22.39-10.5a13.64,13.64,0,0,0-10.95-1.67l-.09-.18a2,2,0,0,0-1-.64l-37.2-12.19-.1,0c-.14,0-.42-.18-.46-.31-.33-1.1-.78-2.62-2.07-3-4.37-1.16-9.28,12.7-11.27,20.19s-4.59,22-.22,23.12c1.29.34,2.43-.64,3.3-1.56a1.8,1.8,0,0,1,.6.07l38.26,7.86a1.66,1.66,0,0,0,1.06,0c2.1,2.69,6.73,4.65,10.55,4.38l25.73,2.22c3.31,9,6.23,13.5,18.74,18.31L299.91,245.3a19.14,19.14,0,0,0,6.27,1A22.92,22.92,0,0,0,322,239.75L338.78,244a3.62,3.62,0,0,1,2.2,3.46l0,.41,45.22,7.5.14-.06.1-.06a10.53,10.53,0,0,1,6.36-.86c2.16.58,8.07,2.34,8.13,2.36l.55.16.09-.57C401.67,255.74,403.82,241.32,399.5,236.65Zm-6.38-2.44a9.46,9.46,0,0,0,2.66,1.4,6.1,6.1,0,0,1,4.58,4.86l-7.42-2c.12-1,.19-1.87.21-2.63v-1C393.14,234.6,393.13,234.4,393.12,234.21Zm-43.91-10.15.14-1a51.94,51.94,0,0,0,.46-6l42,15.33v0a11.67,11.67,0,0,1,.26,2.18v1a25.4,25.4,0,0,1-.19,2.63l-43.17-11.58C349,225.73,349.1,224.86,349.21,224.06Zm42.6,15.16a40.86,40.86,0,0,1-1.31,5.67c-.48,1.56-.94,2.85-1.37,3.95L346,237.27a79.66,79.66,0,0,0,2.56-9.65Zm-80.76-86.82a14.17,14.17,0,0,1,4.6.6c3.56,1,5.69,2.7,5.45,3.65v0c-.19.66-1.44.82-2,.86a14.17,14.17,0,0,1-4.59-.6c-3.56-1-5.69-2.7-5.45-3.65C309.28,152.59,310.53,152.43,311.06,152.39ZM130.58,104.19a14.17,14.17,0,0,1,4.61.52c3.58.94,5.74,2.59,5.52,3.54v0c-.18.67-1.42.85-1.95.9a14.17,14.17,0,0,1-4.61-.52c-3.58-.94-5.74-2.59-5.52-3.54C128.81,104.42,130.05,104.23,130.58,104.19Zm-14.77,38.87c3.87-.92,6-9.25,7-16.08a11.53,11.53,0,0,0-.07-4.08h0a36.34,36.34,0,0,0,3.79,1.44l.23-1a32.19,32.19,0,0,1-3.84-1.48l-.1-.05c-1.15-.57-2.45-1.22-2.48-1.75,0-.15.1-.59,1.28-1.35a9.8,9.8,0,0,1,3.34-1.43,26.13,26.13,0,0,0,2.94,1.15l.23-1a21.33,21.33,0,0,1-3-1.23l-.26-.14c-.79-.42-1.87-1-1.89-1.51a.38.38,0,0,1,0-.11c0-.2.26-.54,1-1a8.35,8.35,0,0,1,4.41-1.46l1,.39.23-1a15.13,15.13,0,0,1-2-.92c-1.35-.8-2-1.44-2-1.91s.46-.81,1.19-1.2a5.92,5.92,0,0,0,1.28-.9c1,1.35,3.4,2.5,5.82,3.14s4.8.81,6.35.25l.36.62c.66,1.17.84,2,.55,2.45s-1.49.76-3.21.61c-.49,0-1-.11-1.54-.2l-.23,1c.48.08,1,.15,1.41.2a8.08,8.08,0,0,1,2.83,2.63c.28.49.66,1.46.29,2s-1.52.76-3.24.55c-.77-.09-1.6-.23-2.47-.41l-.23,1c.9.18,1.77.33,2.57.43.3,0,.58.06.84.08a8,8,0,0,1,2,2.17c.24.4,1,1.6.54,2.26-.23.36-1,.9-3.93.55-1-.12-2.07-.31-3.2-.55l-.23,1c1.15.24,2.27.44,3.3.57h0a20.64,20.64,0,0,0-1.88,5.16c-.13.54-.28,1.1-.42,1.66-1.59,6.14-3.56,13.79,4.56,16l149.6,40.14A10.5,10.5,0,0,0,291,190a8.93,8.93,0,0,0,8.6-5.55,32.93,32.93,0,0,0,2.76-13.74l.52.27a36.35,36.35,0,0,0,3.76,1.52l.25-1a32.18,32.18,0,0,1-3.81-1.55l-.1-.05c-1.14-.59-2.43-1.27-2.44-1.8,0-.15.11-.59,1.31-1.32a9.8,9.8,0,0,1,3.37-1.37,26.13,26.13,0,0,0,2.92,1.21l.25-1a21.33,21.33,0,0,1-3-1.28l-.26-.15c-.78-.44-1.85-1-1.86-1.55a.38.38,0,0,1,0-.11c.05-.2.27-.53,1-1a8.35,8.35,0,0,1,4.44-1.38l.94.41.25-1a15.13,15.13,0,0,1-2-1c-1.33-.82-2-1.48-2-2s.47-.8,1.21-1.18a5.92,5.92,0,0,0,1.3-.87c1,1.36,3.35,2.56,5.76,3.25s4.78.9,6.34.38l.35.63c.63,1.18.8,2,.5,2.46s-1.5.73-3.22.55c-.49-.05-1-.13-1.54-.23l-.25,1c.48.09,1,.17,1.41.23a8.08,8.08,0,0,1,2.78,2.69c.27.49.63,1.47.26,2s-1.54.73-3.25.49c-.77-.11-1.6-.27-2.46-.45l-.25,1c.9.2,1.77.36,2.56.48.3,0,.57.07.84.09a8,8,0,0,1,2,2.21c.23.4.94,1.62.5,2.27-.24.35-1.07.88-3.94.48-1-.14-2.07-.35-3.18-.61l-.25,1c1.14.27,2.26.49,3.29.63l.29,0a19.33,19.33,0,0,0-2.86,6.38l-.37,1.32c-1.58,5.67-3.37,12.1,2.33,15.58,5.14,3.14,11.08,10.32,11.3,15.08l-.91.35c-4.41,1.29-10.83-.13-10.88-.14l-193.3-52.89a15,15,0,0,1-2.47-.9L98.76,150C101.72,145.71,107,143.57,115.81,143.05ZM13.28,141.52a68.25,68.25,0,0,1,5.95-15.6c1.67,1.06,1.31,8.17-.87,16.42-2.28,8.59-5.69,15.15-7.63,14.68A71.82,71.82,0,0,1,13.28,141.52Zm2.66,20.34a2.17,2.17,0,0,0-.72,0l-.33.06-.23.24c-1,1-1.71,1.44-2.32,1.28-1.09-.29-1.62-2.29-1.64-5.39,3.45.39,7-9.43,8.61-15.44,1.55-5.84,3.27-15.73.43-17.54,1.35-2.13,2.61-3.27,3.58-3,.74.2,1.09,1.34,1.36,2.25a1.58,1.58,0,0,0,1,1c.56,4.23-.2,11.28-2.25,19S18.52,158.46,15.94,161.87Zm.26.05h0c2.59-3.44,5.37-9.85,7.43-17.6s2.82-14.72,2.27-19l.1,0,36.32,11.9c-2.43,1.56-5.34,9.68-6.89,15.52s-3,14.22-1.74,16.84Zm38.7,8-.72-.17c-1.23-1.5-.6-8.6,1.59-16.85S61,138,62.8,137.42l.71.23h0c1.18,1.59.54,8.64-1.63,16.82S56.71,169.26,54.9,169.89Zm245.32,74.46L110.64,194.73c-11.94-4.59-14.75-8.69-17.95-17.27l22.12,1.91a15,15,0,0,1,2.59.46l193.33,52.7c.07,0,6.54,2.08,9.66,5.51l.88,1C311.13,248.42,300.39,244.41,300.22,244.35ZM339.06,243,322,238.47c-2.83-4.31-10.64-6.79-11-6.9l-7.36-2L123.15,180.41l-5.49-1.55a16,16,0,0,0-2.76-.49l-49-4.22c-3.57.25-7.8-1.51-9.72-3.93,3.3-3,6.33-14,6.72-15.51s3.07-11.91,2-16.39A12.58,12.58,0,0,1,75,139.93l44.48,20.87a16,16,0,0,0,2.64,1l5.38,1.45,187.94,51.44a33.5,33.5,0,0,0,6.64.72,15.31,15.31,0,0,0,5.87-1l.82.3,15.82,4.52a5.47,5.47,0,0,0,4.24-1.12c0,1.11-.15,2.71-.41,4.71l-.14,1c-.11.8-.26,1.67-.42,2.58l-35.74-9.59-.26,1,35.82,9.61a78.56,78.56,0,0,1-2.56,9.65l-35.8-9.6-.26,1L344.76,238c-.26.76-.54,1.54-.84,2.32l-.36.94q-.86,2.19-1.92,4.49A4.43,4.43,0,0,0,339.06,243ZM387.12,253a5.86,5.86,0,0,1-1.09,1.35L342.11,247q1.36-2.85,2.41-5.56l.36-.94q.45-1.18.84-2.33l43,11.54c-.4.95-.77,1.71-1.11,2.32Zm13.55,2.65c-1.54-.46-5.82-1.72-7.6-2.2a10.1,10.1,0,0,0-5.22.26l.28-.44.51-.9c.34-.63.7-1.4,1.09-2.33l11.22,3C400.85,254.16,400.74,255.08,400.67,255.63ZM401,252l-10.92-2.93c.43-1.1.88-2.39,1.36-3.91a42.48,42.48,0,0,0,1.33-5.7l7.84,2.1A40.38,40.38,0,0,1,401,252Z"
           />
		   </g>
</svg>