<svg id="Clipware4" xmlns="http://www.w3.org/2000/svg" viewBox="0 0 49.33812 209.72464" width="52" height="215">
    <title>123</title> <g stroke="#000000" fill="#000000" stroke-width="0.5324" transform="translate(-90.02522 -1.86816)">
    <path d="M137.57813,151.1377a1.03923,1.03923,0,0,0-.18329.03583c-.11688-.06763-.245-.14838-.386-.24091-.62988-.416-1.418-.93359-2.12891-.55078a1.35625,1.35625,0,0,0-.58716.697c-.65338-.74146-1.45752-1.51154-2.26245-1.21063a1.37338,1.37338,0,0,0-.77631.92426c-1.07056-1.00421-1.75537-1.58917-2.45026-1.29242a.98753.98753,0,0,0-.44763.40717c-.87793.66211-2.74554.60162-4.27991.545-.4209-.01562-.82227-.03027-1.18262-.03027l-.292.00293c-1.07324.00977-3.07715.03809-4.21777-1.08789a3.39671,3.39671,0,0,1-.88574-2.51758l.01367-80.5293a3.40013,3.40013,0,0,1,.88574-2.52051c1.1377-1.12451,3.13184-1.10156,4.2041-1.08447l.292.00244c.36035,0,.76074-.01465,1.18262-.03027,1.53284-.05573,3.40167-.11621,4.28027.54517a.987.987,0,0,0,.44727.40649.92253.92253,0,0,0,.37012.07861c.57587,0,1.19763-.54346,2.0802-1.37012a1.37339,1.37339,0,0,0,.77625.92432,1.04038,1.04038,0,0,0,.36035.06445c.677,0,1.34485-.64746,1.90161-1.27649a1.3551,1.3551,0,0,0,.58765.69788,1.11818,1.11818,0,0,0,.53809.13428,3.19723,3.19723,0,0,0,1.5918-.68457q.21066-.13934.3858-.24121a1.03733,1.03733,0,0,0,.18256.03564c1.17188,0,1.78516-1.79541,1.78516-3.56934,0-1.77344-.61328-3.56836-1.78516-3.56836-.01447,0-.02649.00739-.04077.00793a4.65378,4.65378,0,0,1-.52759-.318c-.63184-.4165-1.417-.93359-2.12891-.55029a1.35549,1.35549,0,0,0-.58862.69836c-.65552-.73944-1.4657-1.50281-2.262-1.21252a1.37343,1.37343,0,0,0-.77631.92438c-1.07056-1.00372-1.75537-1.59064-2.45026-1.29156a.9494.9494,0,0,0-.35675.28308l-.00751-.00964a5.40732,5.40732,0,0,1-3.79688,1.00732l-.38672-.00293c-.73535,0-1.3877.00391-1.9668.00732-4.23437.02539-4.252-.022-4.75586-1.206a17.203,17.203,0,0,0-5.84332-7.33868l2.438-13.2746c.39941-2.28387.53912-3.72711-.92413-5.801l1.11554-20.22687c-.00391-.05615.01855-.23926.085-.28223.60742-.38916,1.15332-.791,1.15332-1.41895,0-1.21326-1.98291-1.9613-4.4328-2.4032a23.50867,23.50867,0,0,0-3.34235-.41632c-1.27338-.09985-2.50171-.14142-3.50122-.14142-.85193,0-1.87286.032-2.9433.10254a22.86112,22.86112,0,0,0-4.51929.577c-2.15454.45349-3.81378,1.17261-3.81378,2.28137,0,.69189.64941,1.13965,1.1748,1.42041a.8407.8407,0,0,1,.0625.34717L95.36213,26.811c-1.60114,2.17181-1.45447,3.62714-1.04327,5.97516.19214,1.0976,1.26874,7.15961,2.33319,13.14362-6.65094,4.76453-6.62079,11.13306-6.61591,11.39447l.00146,98.6875c-.00684.08966-.56268,9.00555,6.62915,12.32263.07684,2.4953-.00726,8.05389-.01733,8.68127-.08252.31152-.62842,2.17676-1.87891,2.39551a.57091.57091,0,0,0-.41113.44629l2.57422,23.92188a.83157.83157,0,0,0,.426.67133,5.48144,5.48144,0,0,1,.97052,2.45563v4.68652l.52588-.02734c.40234-.02051,9.85059-.56445,9.85059-5.458,0-.99512.104-1.06934.44775-1.31348.02283-.01624.05255-.04016.07678-.05756.5791-.2218.95892-.51611.95837-.91315l2.09473-23.88379.00488-.03809a.65413.65413,0,0,0-.22559-.44727,5.31417,5.31417,0,0,1-1.2489-2.43536c-.00818-.5257-.0993-6.45062-.011-8.86646,3.73328-1.94788,5.94318-6.36835,6.72961-8.21381.50488-1.18555.52832-1.23535,4.75586-1.20605.5791.00293,1.23145.00684,1.9668.00684l.38672-.00293a5.40669,5.40669,0,0,1,3.79688,1.00684l.00714-.00916a.94957.94957,0,0,0,.35712.28357.93007.93007,0,0,0,.37012.07813c.57587,0,1.19763-.54352,2.08014-1.37048a1.37336,1.37336,0,0,0,.77631.92419,1.01653,1.01653,0,0,0,.35938.06445c.67847,0,1.3457-.64709,1.90271-1.27594a1.35665,1.35665,0,0,0,.58752.69781,1.11479,1.11479,0,0,0,.53809.13379,3.194,3.194,0,0,0,1.59082-.68457,4.74788,4.74788,0,0,1,.52783-.31769c.01453.00055.02679.00812.0415.00812,1.17188,0,1.78516-1.79492,1.78516-3.56836S138.75,151.1377,137.57813,151.1377Zm0-95.30371c.20215,0,.78516.8833.78516,2.56836,0,1.686-.583,2.56934-.78516,2.56934-.20117,0-.78418-.8833-.78418-2.56934,0-1.68505.58305-2.56834.78418-2.56834ZM97.05891,3.51117c.73871-.15619,1.60474-.2959,2.59888-.40521,1.21088-.12012,2.719-.20459,4.56342-.20459,4.271,0,6.84521.44043,7.71533.77246-.87012.33252-3.44434.77295-7.71533.77295-4.27051,0-6.84473-.44043-7.71436-.77295A5.28064,5.28064,0,0,1,97.05891,3.51117Zm-3.054,1.31793c0-.2348.46063-.54791,1.337-.855.73914,1.321,6.36359,1.47266,8.87927,1.47266,2.53851,0,8.24268-.15442,8.89825-1.509.9458.31854,1.43817.64728,1.43817.89136,0,.04-.06738.17627-.69141.57666a1.137,1.137,0,0,0-.46643.61786,29.42729,29.42729,0,0,1-9.11853,1.16583,29.72031,29.72031,0,0,1-9.11932-1.1601,1.01669,1.01669,0,0,0-.45782-.62262c-.69139-.38234-.6992-.56984-.6992-.57765Zm1.20557,1.4328a30.61085,30.61085,0,0,0,9.0708,1.12775,30.31684,30.31684,0,0,0,9.058-1.13013,1.18708,1.18708,0,0,0-.017.28149l-1.10315,19.93268c-1.49292-.69653-5.22815-.96735-7.93787-.96735-2.70923,0-6.44354.27075-7.937.967L95.24127,6.5752a2.37033,2.37033,0,0,0-.03081-.3133Zm16.98621,20.61774-.01013.18286c-.39453.36426-3.0791,1.0293-7.90527,1.0293-4.82373,0-7.50684-.66406-7.9043-1.02832l-.01019-.18439c.83813-.43378,3.5202-.97235,7.91449-.97235,4.3961,0,7.07848.539,7.91539.9729ZM91.03614,156.04785V57.31543c-.001-.05988-.01666-5.84619,5.81311-10.277,1.0722,6.02637,2.0752,11.654,2.079,11.6535L98.93215,161.459c-.00568.04364-.54,4.25842-2.00262,5.88379C90.5453,164.25812,91.02888,156.16571,91.03614,156.04785Zm6.6001,21.14258.01221-.10156c.00439-.27344.10645-6.55273.00879-9.0498,1.3476-1.48767,1.97131-4.58124,2.18311-5.90442v18.383a20.89906,20.89906,0,0,1-3.88477-.54944A5.16345,5.16345,0,0,0,97.63624,177.19043Zm-2.168,3.65137a18.35713,18.35713,0,0,0,4.37207.68127v22.62439a5.68549,5.68549,0,0,1-1.91748-.49316Zm5.37207.73523c1.02374.04431,1.92877.05383,2.48389.05383.6308,0,1.70856-.01239,2.90039-.074v22.71c-.75494.0672-1.63171.113-2.66211.113-1.05786,0-1.95465-.0481-2.72217-.11841Zm-1.51025,28.95325v-3.624a3.93652,3.93652,0,0,0-.53754-1.92029c.32874.07306.68115.13324,1.04779.18207V210.479c-.17807.02-.34995.03751-.51022.0513Zm1.51025-.18884v-5.06659c1.02271.08466,2.03137.105,2.72217.105.67731,0,1.66022-.01953,2.66211-.09833v3.22333a13.8267,13.8267,0,0,1-5.38425,1.83659Zm6.86621-4.234a2.44422,2.44422,0,0,1-.48193,1.43793v-2.36493q.28912-.03662.56592-.0824a4.94109,4.94109,0,0,0-.084,1.00938Zm1.49561-2.45312a5.86181,5.86181,0,0,1-1.97754.501V181.494a16.83,16.83,0,0,0,3.97754-.66193Zm1.86029-23.80933a15.71257,15.71257,0,0,1-3.83783.64148V159.46777h-1v21.088c-.85907.047-1.82513.07507-2.90039.07507-.90668,0-1.73083-.02093-2.48389-.05536V159.46777H99.928L99.92037,58.60449S95.70313,34.894,95.30421,32.61377c-.36163-2.06244-.48242-3.16193.54456-4.75159,1.63226,1.15759,7.16846,1.22961,8.4325,1.22961,1.27063,0,6.85956-.07227,8.45837-1.23.873,1.4707.74695,2.55975.40393,4.52008l-4.82422,26.31006-.043,102.82764.02051.36816c-.00659,1.15546.11212,4.51843,1.51233,6.11877-.1015,2.466.00146,8.80688.00623,9.0824l.01074.09668a7.00839,7.00839,0,0,0,1.2363,2.65942ZM136.459,157.751c-.29785.19531-.918.60645-1.10449.50391-.03613-.01953-.35449-.23633-.35449-1.8291h-1c0,.28864.01282.54462.03217.7851l-.166.19147c-1.04687,1.22949-1.38281,1.34082-1.48926,1.30957-.00488-.002-.4043-.209-.4043-2.33691h-1c0,.44916.019.84137.053,1.19342l-.2337.21967a8.89924,8.89924,0,0,1-1.57129,1.32324c-.07227-.06641-.31055-.46094-.31055-2.73633h-1a17.18127,17.18127,0,0,0,.08728,1.92987,7.22253,7.22253,0,0,0-3.3656-.56854l-.376.00293c-.7334,0-1.38281-.00391-1.96094-.00684-4.14453-.0293-4.89648-.0293-5.68164,1.81348-.73633,1.72754-2.7818,5.83521-6.16333,7.66187-1.0592-1.39758-1.1947-4.50623-1.14526-5.66675l-.00684-.52148h-.02148l.03516-102.2373,2.176-11.84784a16.22319,16.22319,0,0,1,5.12573,6.6286c.70313,1.6499,1.375,1.81934,4.48535,1.81934.36426,0,.76172-.00244,1.19629-.00488.57813-.00342,1.22754-.00732,1.96094-.00732l.376.00293a7.20919,7.20919,0,0,0,3.3656-.56793,17.185,17.185,0,0,0-.08728,1.92926h1a7.02527,7.02527,0,0,1,.25488-2.71582,6.37715,6.37715,0,0,1,1.627,1.30322l.2337.21906c-.034.35211-.053.74438-.053,1.19354h1c0-2.12793.39941-2.335.4043-2.33643.10547-.03809.44238.08057,1.48926,1.30811l.166.19208c-.01935.24054-.03217.49664-.03217.78546h1c0-1.59277.31836-1.81006.35449-1.82959.19043-.10205.80664.30908,1.10449.50488.03485.023.06744.04279.10181.06531a5.27053,5.27053,0,0,0-.76685,2.97815,5.4574,5.4574,0,0,0,.70874,2.91193l-.0437.028c-.29785.19531-.918.60693-1.10449.50488C135.3184,61.82768,135,61.6104,135,60.01762h-1c0,.28882.01282.54492.03217.78546l-.166.19208c-1.04687,1.22754-1.38281,1.35352-1.48926,1.30811-.00488-.00146-.4043-.2085-.4043-2.33643h-1c0,.44916.019.84143.053,1.19354l-.2337.21906a8.88705,8.88705,0,0,1-1.57129,1.32373l-.00757-.00958.04663-.04462c-.037-.0387-.08478-.06519-.12427-.10114a8.57234,8.57234,0,0,1-.22534-2.581h-1a16.984,16.984,0,0,0,.09021,1.95752,12.40854,12.40854,0,0,0-3.9613-.26611c-.4082.01465-.79687.0293-1.14551.0293l-.2793-.00244c-1.12793-.0166-3.4834-.04443-4.91895,1.37256a4.3561,4.3561,0,0,0-1.18359,3.23242l-.01367,80.52929a4.35238,4.35238,0,0,0,1.18262,3.22852c1.44043,1.42188,3.7998,1.38477,4.93457,1.377l.27832-.00293c.34863,0,.7373.01465,1.14551.0293.48047.01758.97656.03613,1.46875.03613a8.49015,8.49015,0,0,0,2.49182-.29541,17.0309,17.0309,0,0,0-.08948,1.95068h1a10.20376,10.20376,0,0,1,.1972-2.5509c.05048-.04431.10584-.08307.1524-.13171l-.00751-.0072a8.61,8.61,0,0,1,1.53973,1.27673l.2337.21967c-.034.35205-.053.74426-.053,1.19342h1c0-2.12793.39941-2.335.4043-2.33691.10547-.03125.44238.082,1.48926,1.30957l.166.19147c-.01935.24048-.03217.49646-.03217.7851h1c0-1.59277.31836-1.80957.35449-1.8291.19043-.10254.80664.30859,1.10449.50391l.044.02826a5.45635,5.45635,0,0,0-.709,2.91217,5.26991,5.26991,0,0,0,.767,2.97833C136.52656,157.708,136.49391,157.72784,136.459,157.751Zm1.11914-.47559c-.20117,0-.78418-.88281-.78418-2.56836s.583-2.56934.78418-2.56934c.20215,0,.78516.88379.78516,2.56934s-.583,2.56833-.78517,2.56833Z"
          />
    <path d="M99.23036,189.26183h0a.1.1,0,0,1,.1.1v1.6a.1.1,0,0,1-.1.1h0a.1.1,0,0,1-.1-.1v-1.6A.1.1,0,0,1,99.23036,189.26183Z"
          />
    <path d="M105.90829,189.9343h0a.1.1,0,0,1,.00326.14139l-1.105,1.15714a.1.1,0,0,1-.14139.00326h0a.1.1,0,0,1-.00326-.14139l1.105-1.15714A.1.1,0,0,1,105.90829,189.9343Z"
          />
    <path d="M104.466,185.6592h0a.1.1,0,0,1,.12832.05946l.55082,1.50219a.1.1,0,0,1-.05946.12832h0a.1.1,0,0,1-.12832-.05946l-.55082-1.50219A.1.1,0,0,1,104.466,185.6592Z"
          />
    <path d="M107.86038,187.35618h0a.1.1,0,0,1,.05566.13l-.59481,1.48532a.1.1,0,0,1-.13.05566h0a.1.1,0,0,1-.05566-.13l.59481-1.48532A.1.1,0,0,1,107.86038,187.35618Z"
          />
    <path d="M110.11656,189.91508h0a.1.1,0,0,1-.06514.12554l-1.5253.48313a.1.1,0,0,1-.12554-.06514h0a.1.1,0,0,1,.06514-.12554l1.5253-.48313A.1.1,0,0,1,110.11656,189.91508Z"
          />
    <path d="M101.0296,196.2324h0a.1.1,0,0,1-.06514.12554l-1.5253.48314a.1.1,0,0,1-.12554-.06514h0a.1.1,0,0,1,.06514-.12554l1.5253-.48314A.1.1,0,0,1,101.0296,196.2324Z"
          />
    <path d="M97.48538,190.60618h0a.1.1,0,0,1,.05566.13l-.59481,1.48532a.1.1,0,0,1-.13.05566h0a.1.1,0,0,1-.05566-.13l.59481-1.48532A.1.1,0,0,1,97.48538,190.60618Z"
          />
    <path d="M105.92163,182.4375h0a.1.1,0,0,1,.1.1v1.6a.1.1,0,0,1-.1.1h0a.1.1,0,0,1-.1-.1v-1.6A.1.1,0,0,1,105.92163,182.4375Z"
          />
    <path d="M109.34049,182.4836h0a.1.1,0,0,1,.14094.01178l1.03316,1.2217a.1.1,0,0,1-.01178.14094h0a.1.1,0,0,1-.14094-.01178l-1.03316-1.2217A.1.1,0,0,1,109.34049,182.4836Z"
          />
    <path d="M98.8011,184.25949v0a.1.1,0,0,1,.11135-.0872l1.58829.19316a.1.1,0,0,1,.0872.11135v0a.1.1,0,0,1-.11135.0872l-1.58829-.19316A.1.1,0,0,1,98.8011,184.25949Z"
          />
    <path d="M97.10886,186.5188h0a.1.1,0,0,1,.13959.02272l.93494,1.29841a.1.1,0,0,1-.02272.13959h0a.1.1,0,0,1-.13959-.02272l-.93494-1.29841A.1.1,0,0,1,97.10886,186.5188Z"
          />
    <path d="M107.94,199.57633h0a.1.1,0,0,1,.05566.13l-.59481,1.48532a.1.1,0,0,1-.13.05566h0a.1.1,0,0,1-.05566-.13l.59481-1.48532A.1.1,0,0,1,107.94,199.57633Z"
          />
    <path d="M97.84788,199.18442h0a.1.1,0,0,1,.01363.14077l-1.01709,1.23511a.1.1,0,0,1-.14077.01363h0a.1.1,0,0,1-.01363-.14077l1.01709-1.23511A.1.1,0,0,1,97.84788,199.18442Z"
          />
    <path d="M98.27963,197.31574h0a.1.1,0,0,1-.06514.12554l-1.5253.48314a.1.1,0,0,1-.12554-.06514h0a.1.1,0,0,1,.06514-.12554l1.5253-.48314A.1.1,0,0,1,98.27963,197.31574Z"
          />
    <path d="M103.24046,197.3128h0a.1.1,0,0,1,.14094.01178l1.03316,1.2217a.1.1,0,0,1-.01178.14094h0a.1.1,0,0,1-.14094-.01178l-1.03316-1.2217A.1.1,0,0,1,103.24046,197.3128Z"
          />
    <path d="M109.11679,194.44381h0a.1.1,0,0,1,.00326.14139l-1.105,1.15714a.1.1,0,0,1-.14139.00326h0a.1.1,0,0,1-.00326-.14139l1.105-1.15714A.1.1,0,0,1,109.11679,194.44381Z"
          />
    <path d="M100.80322,191.82885v0a.1.1,0,0,1,.11135-.0872l1.58829.19316a.1.1,0,0,1,.0872.11135v0a.1.1,0,0,1-.11135.0872l-1.58829-.19316A.1.1,0,0,1,100.80322,191.82885Z"
          />
    <path d="M110.11654,184.22759h0a.1.1,0,0,1-.06514.12554l-1.5253.48313a.1.1,0,0,1-.12554-.06514h0a.1.1,0,0,1,.06514-.12554l1.5253-.48313A.1.1,0,0,1,110.11654,184.22759Z"
          />
    <path d="M108.97695,180.63593h0a.1.1,0,0,1,.00326.14139l-1.105,1.15714a.1.1,0,0,1-.14139.00326h0a.1.1,0,0,1-.00326-.14139l1.105-1.15714A.1.1,0,0,1,108.97695,180.63593Z"
          />
    <path d="M102.85923,185.46772h0a.1.1,0,0,1,.03877.136l-.77792,1.39815a.1.1,0,0,1-.136.03877h0a.1.1,0,0,1-.03877-.136l.77792-1.39815A.1.1,0,0,1,102.85923,185.46772Z"
          />
    <path d="M107.07848,204.18283h0a.1.1,0,0,1-.13914.02536l-1.31587-.91019a.1.1,0,0,1-.02536-.13914h0a.1.1,0,0,1,.13914-.02536l1.31587.91019A.1.1,0,0,1,107.07848,204.18283Z"
          />
    <path d="M99.79788,201.29368h0a.1.1,0,0,1,.05566.13l-.59481,1.48532a.1.1,0,0,1-.13.05566h0a.1.1,0,0,1-.05566-.13l.59481-1.48532A.1.1,0,0,1,99.79788,201.29368Z"
          />
    <path d="M108.88771,192.72126h0a.1.1,0,0,1-.11758.0786l-1.56931-.31182a.1.1,0,0,1-.0786-.11758h0a.1.1,0,0,1,.11758-.0786l1.56931.31182A.1.1,0,0,1,108.88771,192.72126Z"
          />
    <path d="M102.0883,199.54167h0a.1.1,0,0,1,.1.1v1.6a.1.1,0,0,1-.1.1h0a.1.1,0,0,1-.1-.1v-1.6A.1.1,0,0,1,102.0883,199.54167Z"
          />
    <path d="M96.28,183.1302h0a.1.1,0,0,1,.03877.136l-.77792,1.39815a.1.1,0,0,1-.136.03877h0a.1.1,0,0,1-.03877-.136L96.144,183.169A.1.1,0,0,1,96.28,183.1302Z"
          />
    <path d="M99.32844,182.05769h0a.1.1,0,0,1-.05115.13186l-1.464.64558a.1.1,0,0,1-.13186-.05115h0a.1.1,0,0,1,.05115-.13186l1.464-.64558A.1.1,0,0,1,99.32844,182.05769Z"
          />
    <path d="M103.2841,183.40838h0a.1.1,0,0,1-.14075.01389l-1.237-1.01481a.1.1,0,0,1-.01389-.14075h0a.1.1,0,0,1,.14075-.01389l1.237,1.01481A.1.1,0,0,1,103.2841,183.40838Z"
          />
    <path d="M109.39224,198.65877h0a.1.1,0,0,1-.13429.04438l-1.42922-.71925a.1.1,0,0,1-.04438-.13429h0a.1.1,0,0,1,.13429-.04438l1.42922.71925A.1.1,0,0,1,109.39224,198.65877Z"
          />
    <path d="M99.69159,194.4537v0a.1.1,0,0,1-.09065.10856l-1.59357.14325a.1.1,0,0,1-.10856-.09065v0a.1.1,0,0,1,.09065-.10856l1.59357-.14325A.1.1,0,0,1,99.69159,194.4537Z"
          />
    <path d="M104.66348,194.10731h0a.1.1,0,0,1,.0913.108l-.13364,1.5944a.1.1,0,0,1-.108.0913h0a.1.1,0,0,1-.0913-.108l.13364-1.5944A.1.1,0,0,1,104.66348,194.10731Z"
          />
    <path d="M102.99,189.39783h0a.1.1,0,0,1-.0388.136l-1.39836.77754a.1.1,0,0,1-.136-.0388h0a.1.1,0,0,1,.0388-.136l1.39836-.77754A.1.1,0,0,1,102.99,189.39783Z"
          />
    <path d="M109.71335,201.39006h0a.1.1,0,0,1-.06514.12554l-1.5253.48314a.1.1,0,0,1-.12554-.06514h0a.1.1,0,0,1,.06514-.12554l1.5253-.48314A.1.1,0,0,1,109.71335,201.39006Z"
          />
    <path d="M111.1192,186.23247h0a.1.1,0,0,1,.01151.141l-1.03556,1.21967a.1.1,0,0,1-.141.01151h0a.1.1,0,0,1-.01151-.141l1.03556-1.21967A.1.1,0,0,1,111.1192,186.23247Z"
          />
    <path d="M99.67307,10.57041h0a.1.1,0,0,1,.1.1v1.6a.1.1,0,0,1-.1.1h0a.1.1,0,0,1-.1-.1v-1.6A.1.1,0,0,1,99.67307,10.57041Z"
          />
    <path d="M105.30554,13.088h0a.1.1,0,0,1,.00327.14139l-1.105,1.15715a.1.1,0,0,1-.14139.00325h0a.1.1,0,0,1-.00327-.14139l1.105-1.15715A.1.1,0,0,1,105.30554,13.088Z"
          />
    <path d="M103.86322,8.81294h0a.1.1,0,0,1,.12832.05946l.55082,1.5022a.1.1,0,0,1-.05947.12831h0a.1.1,0,0,1-.12832-.05946l-.55082-1.5022A.1.1,0,0,1,103.86322,8.81294Z"
          />
    <path d="M107.25765,10.50992h0a.1.1,0,0,1,.05566.13l-.59482,1.48533a.1.1,0,0,1-.13.05565h0a.1.1,0,0,1-.05566-.13l.59482-1.48533A.1.1,0,0,1,107.25765,10.50992Z"
          />
    <path d="M109.51439,13.06949h0a.1.1,0,0,1-.06513.12553l-1.52531.48314a.1.1,0,0,1-.12553-.06514h0a.1.1,0,0,1,.06513-.12553l1.52531-.48314A.1.1,0,0,1,109.51439,13.06949Z"
          />
    <path d="M100.42687,19.38615h0a.1.1,0,0,1-.06513.12553l-1.52532.48314a.1.1,0,0,1-.12553-.06514h0a.1.1,0,0,1,.06513-.12553l1.52532-.48314A.1.1,0,0,1,100.42687,19.38615Z"
          />
    <path d="M96.88264,13.75991h0a.1.1,0,0,1,.05566.13l-.59482,1.48533a.1.1,0,0,1-.13.05565h0a.1.1,0,0,1-.05566-.13l.59482-1.48533A.1.1,0,0,1,96.88264,13.75991Z"
          />
    <path d="M105.31889,5.59124h0a.1.1,0,0,1,.1.1v1.6a.1.1,0,0,1-.1.1h0a.1.1,0,0,1-.1-.1v-1.6A.1.1,0,0,1,105.31889,5.59124Z"
          />
    <path d="M108.737,5.63727h0a.1.1,0,0,1,.14093.01178l1.03317,1.2217a.1.1,0,0,1-.01179.14093h0a.1.1,0,0,1-.14093-.01178l-1.03317-1.2217A.1.1,0,0,1,108.737,5.63727Z"
          />
    <path d="M98.19837,7.4132v0a.1.1,0,0,1,.11134-.0872l1.5883.19316a.1.1,0,0,1,.08719.11135v0a.1.1,0,0,1-.11134.0872l-1.5883-.19316A.1.1,0,0,1,98.19837,7.4132Z"
          />
    <path d="M96.50551,9.67338h0a.1.1,0,0,1,.13959.02271L97.58,10.99452a.1.1,0,0,1-.02272.13959h0a.1.1,0,0,1-.13959-.02271L96.48278,9.813A.1.1,0,0,1,96.50551,9.67338Z"
          />
    <path d="M105.40373,22.98908h0a.1.1,0,0,1,.05566.13l-.59482,1.48533a.1.1,0,0,1-.13.05565h0a.1.1,0,0,1-.05566-.13l.59482-1.48533A.1.1,0,0,1,105.40373,22.98908Z"
          />
    <path d="M97.24516,22.33815h0a.1.1,0,0,1,.01363.14077L96.24169,23.714a.1.1,0,0,1-.14077.01362h0a.1.1,0,0,1-.01363-.14077l1.01709-1.23513A.1.1,0,0,1,97.24516,22.33815Z"
          />
    <path d="M97.67688,20.46948h0a.1.1,0,0,1-.06513.12553l-1.52532.48314a.1.1,0,0,1-.12553-.06514h0a.1.1,0,0,1,.06513-.12553l1.52532-.48314A.1.1,0,0,1,97.67688,20.46948Z"
          />
    <path d="M102.63775,20.46654h0a.1.1,0,0,1,.14093.01178L103.81184,21.7a.1.1,0,0,1-.01179.14093h0a.1.1,0,0,1-.14093-.01178L102.626,20.60747A.1.1,0,0,1,102.63775,20.46654Z"
          />
    <path d="M108.514,17.59755h0a.1.1,0,0,1,.00327.14139l-1.105,1.15715a.1.1,0,0,1-.14139.00325h0a.1.1,0,0,1-.00327-.14139l1.105-1.15715A.1.1,0,0,1,108.514,17.59755Z"
          />
    <path d="M100.20048,14.98257v0a.1.1,0,0,1,.11134-.0872l1.5883.19316a.1.1,0,0,1,.08719.11135v0a.1.1,0,0,1-.11134.0872l-1.5883-.19316A.1.1,0,0,1,100.20048,14.98257Z"
          />
    <path d="M109.51438,7.382h0a.1.1,0,0,1-.06513.12553l-1.52531.48314a.1.1,0,0,1-.12553-.06514h0A.1.1,0,0,1,107.86354,7.8l1.52531-.48314A.1.1,0,0,1,109.51438,7.382Z"
          />
    <path d="M101.79461,26.06952h0a.1.1,0,0,1,.00327.14139l-1.105,1.15715a.1.1,0,0,1-.14139.00325h0a.1.1,0,0,1-.00327-.14139l1.105-1.15715A.1.1,0,0,1,101.79461,26.06952Z"
          />
    <path d="M102.25647,8.62146h0a.1.1,0,0,1,.03877.136l-.77793,1.39815a.1.1,0,0,1-.136.03876h0a.1.1,0,0,1-.03877-.136l.77793-1.39815A.1.1,0,0,1,102.25647,8.62146Z"
          />
    <path d="M106.47575,27.33656h0a.1.1,0,0,1-.13913.02536l-1.31588-.9102a.1.1,0,0,1-.02535-.13913h0a.1.1,0,0,1,.13913-.02536l1.31588.9102A.1.1,0,0,1,106.47575,27.33656Z"
          />
    <path d="M99.19515,24.44742h0a.1.1,0,0,1,.05566.13L98.656,26.06276a.1.1,0,0,1-.13.05565h0a.1.1,0,0,1-.05566-.13l.59482-1.48533A.1.1,0,0,1,99.19515,24.44742Z"
          />
    <path d="M108.285,15.875h0a.1.1,0,0,1-.11757.0786l-1.56932-.31181a.1.1,0,0,1-.07859-.11758h0a.1.1,0,0,1,.11757-.0786l1.56932.31181A.1.1,0,0,1,108.285,15.875Z"
          />
    <path d="M101.48557,22.69541h0a.1.1,0,0,1,.1.1v1.6a.1.1,0,0,1-.1.1h0a.1.1,0,0,1-.1-.1v-1.6A.1.1,0,0,1,101.48557,22.69541Z"
          />
    <path d="M95.67732,6.284h0a.1.1,0,0,1,.03877.136l-.77793,1.39816a.1.1,0,0,1-.136.03876h0a.1.1,0,0,1-.03877-.136l.77793-1.39816A.1.1,0,0,1,95.67732,6.284Z"
          />
    <path d="M98.72571,5.21144h0a.1.1,0,0,1-.05115.13185l-1.464.64558a.1.1,0,0,1-.13185-.05116h0a.1.1,0,0,1,.05115-.13185l1.464-.64558A.1.1,0,0,1,98.72571,5.21144Z"
          />
    <path d="M102.68134,6.56207h0a.1.1,0,0,1-.14074.01389l-1.237-1.01483a.1.1,0,0,1-.01388-.14074h0a.1.1,0,0,1,.14074-.01389l1.237,1.01483A.1.1,0,0,1,102.68134,6.56207Z"
          />
    <path d="M108.7895,21.8125h0a.1.1,0,0,1-.13428.04438l-1.42923-.71925a.1.1,0,0,1-.04437-.13428h0a.1.1,0,0,1,.13428-.04438l1.42923.71925A.1.1,0,0,1,108.7895,21.8125Z"
          />
    <path d="M99.08888,17.60743v0a.1.1,0,0,1-.09064.10856l-1.59358.14324a.1.1,0,0,1-.10855-.09065v0a.1.1,0,0,1,.09064-.10856l1.59358-.14324A.1.1,0,0,1,99.08888,17.60743Z"
          />
    <path d="M104.06072,17.26107h0a.1.1,0,0,1,.0913.108l-.13364,1.59441a.1.1,0,0,1-.108.0913h0a.1.1,0,0,1-.0913-.108l.13364-1.59441A.1.1,0,0,1,104.06072,17.26107Z"
          />
    <path d="M102.38723,12.55159h0a.1.1,0,0,1-.0388.136l-1.39837.77754a.1.1,0,0,1-.136-.03881h0a.1.1,0,0,1,.0388-.136l1.39837-.77754A.1.1,0,0,1,102.38723,12.55159Z"
          />
    <path d="M109.91576,24.69674h0a.1.1,0,0,1-.06513.12553l-1.52532.48314a.1.1,0,0,1-.12553-.06514h0a.1.1,0,0,1,.06513-.12553l1.52532-.48314A.1.1,0,0,1,109.91576,24.69674Z"
          />
    <path d="M111.73949,16.93833h0a.1.1,0,0,1-.00054.14142l-1.13572,1.127a.1.1,0,0,1-.14142-.00055h0a.1.1,0,0,1,.00054-.14142l1.13572-1.127A.1.1,0,0,1,111.73949,16.93833Z"
          />
    <path d="M111.45744,21.32937h0a.1.1,0,0,1,.05217.13145l-.63433,1.46889a.1.1,0,0,1-.13146.05216h0a.1.1,0,0,1-.05217-.13145l.63433-1.46889A.1.1,0,0,1,111.45744,21.32937Z"
          />
    <path d="M111.18315,25.71954h0a.1.1,0,0,1,.01151.141l-1.03558,1.21967a.1.1,0,0,1-.141.0115h0a.1.1,0,0,1-.01151-.141L111.0422,25.731A.1.1,0,0,1,111.18315,25.71954Z"
          />
    <path d="M110.51648,9.38622h0a.1.1,0,0,1,.01151.141l-1.03557,1.21967a.1.1,0,0,1-.141.0115h0a.1.1,0,0,1-.01151-.141l1.03557-1.21967A.1.1,0,0,1,110.51648,9.38622Z"
          />
    <path d="M113.22469,11.95344h0a.1.1,0,0,1-.121.07329l-1.5539-.38134a.1.1,0,0,1-.07328-.121h0a.1.1,0,0,1,.121-.07329l1.5539.38134A.1.1,0,0,1,113.22469,11.95344Z"
          />
    <path d="M113.82193,5.36055h0a.1.1,0,0,1-.14.02034l-1.28228-.957a.1.1,0,0,1-.02033-.14h0a.1.1,0,0,1,.14-.02034l1.28228.957A.1.1,0,0,1,113.82193,5.36055Z"
          />
    <path d="M112.36322,7.72959h0a.1.1,0,0,1,.12832.05946l.55082,1.5022a.1.1,0,0,1-.05947.12831h0a.1.1,0,0,1-.12832-.05946l-.55082-1.5022A.1.1,0,0,1,112.36322,7.72959Z"
          />
    </g>
</svg>