<svg id="Clipware5" xmlns="http://www.w3.org/2000/svg" viewBox="0 0 46.91703 208.98577" width="50" height="215">
    <title>Clipware5</title><g transform="translate(-2.13673 -1.60277)" fill="#000000" stroke-width="0.2324">
    <path d="M31.708,50.8278c-2.96289,0-3.60352-.18652-4.26758-1.99707a18.63266,18.63266,0,0,0-5.541-7.7334l.63477-.77246a19.66114,19.66114,0,0,1,5.8457,8.16211c.48047,1.311.49707,1.36523,4.46875,1.33545.5498-.00342,1.16895-.00781,1.86621-.00781l.36816.00293a4.5093,4.5093,0,0,0,3.55176-1.0957l.67188.74023a5.46129,5.46129,0,0,1-4.23633,1.35547l-.35547-.00293c-.69531,0-1.31152.00439-1.85937.00781C32.43848,50.82536,32.05664,50.8278,31.708,50.8278Z"
          />
    <path d="M47.33691,50.32536c-.00806,0-.01447.0047-.02246.00488a4.82531,4.82531,0,0,1-.47363-.3335c-.585-.44824-1.31152-1.00342-2.00977-.65918a1.32939,1.32939,0,0,0-.61633.75336c-.61255-.79694-1.32587-1.55182-2.08972-1.30219a1.34625,1.34625,0,0,0-.7998.98444c-.962-1.04517-1.59058-1.65186-2.26562-1.39069-.68848.26758-.90918,1.23584-.90918,3.98584h1a8.37164,8.37164,0,0,1,.27246-3.019,8.94766,8.94766,0,0,1,1.43945,1.39844l.243.26453c-.03455.39575-.05359.84119-.05359,1.35608h1c0-2.34668.37891-2.623.36719-2.626.31543.01074,1.10059,1.07959,1.3584,1.43115l.178.23956c-.02081.27393-.03442.56714-.03442.8996h1c0-1.88232.34961-2.07666.35254-2.07812.14453-.07129.75781.40088.959.55566.05408.0415.10516.07794.158.1178a6.1756,6.1756,0,0,0-.77026,3.29822,6.40315,6.40315,0,0,0,.715,3.22467c-.03461.02637-.06757.04962-.10272.0766-.20117.15479-.81543.62744-.959.55566-.00293-.00146-.35254-.1958-.35254-2.07813h-1c0,.3324.01361.62555.03442.89941l-.179.24023c-.25781.35107-1.042,1.41992-1.33008,1.43848-.01562-.01074-.39453-.28711-.39453-2.63379h-1c0,.51489.019.96033.05359,1.35608l-.243.26453a8.94766,8.94766,0,0,1-1.43945,1.39844,8.37164,8.37164,0,0,1-.27246-3.019h-1c0,2.75.2207,3.71826.90918,3.98535a.85547.85547,0,0,0,.31543.061c.56213,0,1.1377-.56836,1.95038-1.451a1.34533,1.34533,0,0,0,.79962.98376.96518.96518,0,0,0,.30176.04883c.6496,0,1.25708-.6593,1.78827-1.34985a1.32908,1.32908,0,0,0,.616.75269,1.03036,1.03036,0,0,0,.46094.10791,2.86641,2.86641,0,0,0,1.54883-.76709c.119-.09088.23376-.1756.3396-.24854a.93059.93059,0,0,0,.15649.03418c1.17969,0,1.7168-2.01123,1.7168-3.88037S48.5166,50.32536,47.33691,50.32536Zm0,6.75781c-.209-.09814-.7168-1.08008-.7168-2.877,0-1.83154.52832-2.81689.70508-2.88232.2002.06543.72852,1.05078.72852,2.88232C48.05371,56.00311,47.5459,56.985,47.33691,57.08318Z"
          />
    <path d="M47.33691,145.90788a.92656.92656,0,0,0-.15662.03424c-.10608-.07312-.221-.15814-.33948-.24908-.583-.44727-1.30566-1.00293-2.00977-.6582a1.32764,1.32764,0,0,0-.61664.753c-.61481-.79712-1.33484-1.552-2.08942-1.30182a1.34492,1.34492,0,0,0-.79968.9837c-.96277-1.04584-1.59064-1.657-2.26575-1.39a.96952.96952,0,0,0-.5011.481c-.8222.71869-2.57367.65436-4.00964.59131-.40039-.0166-.78125-.0332-1.124-.0332l-.27832.00293c-.94336.01465-2.71777.041-3.80469-1.03027a4.04946,4.04946,0,0,1-1.00293-2.99219l.01367-78.20459A4.05579,4.05579,0,0,1,29.3555,59.8991c1.083-1.06689,2.83594-1.044,3.792-1.02686l.27734.00293c.3418,0,.72266-.01611,1.123-.0332,1.53809-.06445,3.44629-.14746,4.17969.74072l.77148-.63574c-1.0498-1.27295-3.23926-1.17969-4.99414-1.104-.38477.0166-.751.03223-1.08008.03223l-.2627-.00293c-1.01758-.01318-3.127-.04687-4.50879,1.31445a4.99857,4.99857,0,0,0-1.30078,3.708l-.01367,78.20459a4.99159,4.99159,0,0,0,1.30176,3.70508c1.38379,1.36426,3.5,1.33105,4.52148,1.31738l.2627-.00293c.3291,0,.69629.01563,1.08105.03223.43457.01855.89453.03906,1.35742.03906a7.3722,7.3722,0,0,0,2.37384-.3161,21.61937,21.61937,0,0,0-.08673,2.1911h1a10.91741,10.91741,0,0,1,.22083-2.89014c.03174-.0329.067-.06158.09692-.09662A9.89,9.89,0,0,1,40.8623,146.444l.243.26483c-.03455.39581-.05359.84131-.05359,1.35626h1c0-2.34668.37891-2.623.36719-2.626.31543.01074,1.09961,1.07813,1.35742,1.42969l.17889.24091c-.02081.27393-.03436.5672-.03436.89972h1c0-1.88281.34863-2.07617.35254-2.07812.13965-.06836.75684.40039.959.55566.03522.027.06818.05023.10278.0766a6.40467,6.40467,0,0,0-.71509,3.22516,6.17249,6.17249,0,0,0,.7702,3.29736c-.05273.03979-.10382.07623-.1579.11768-.20215.15527-.8252.62109-.959.55664-.00391-.002-.35254-.19531-.35254-2.07812h-1c0,.33246.01361.62561.03442.89948l-.178.2392c-.25781.35156-1.043,1.4209-1.33105,1.43848-.01562-.00977-.39453-.28613-.39453-2.63281h-1c0,.51459.019.95978.05353,1.35535l-.243.26477a9.03259,9.03259,0,0,1-1.43945,1.39844,8.37536,8.37536,0,0,1-.27246-3.01855h-1c0,.89722.02686,1.58881.08246,2.14429a6.0956,6.0956,0,0,0-3.16254-.59448l-.35547.00293c-.69434,0-1.30957-.00391-1.85645-.00781-3.95117-.02734-4.67578-.03125-5.418,1.99219-.166.45508-.32812.99707-.50488,1.59082-.66748,2.241-1.58466,5.24219-3.85443,6.78839a25.73864,25.73864,0,0,1-2.544-6.31573v-2.36328a9.94839,9.94839,0,0,1,1.93213-5.6875,13.13427,13.13427,0,0,0,2.39795-7.64453,11.59709,11.59709,0,0,0-2.41406-7.32812,8.49115,8.49115,0,0,1-1.916-5.34473,10.05337,10.05337,0,0,1,1.93311-5.71094,13.26646,13.26646,0,0,0,2.397-7.6709,11.52047,11.52047,0,0,0-2.41455-7.31152,8.42788,8.42788,0,0,1-1.91553-5.32861,9.98606,9.98606,0,0,1,1.93262-5.6958,13.18025,13.18025,0,0,0,2.39746-7.65332,12.458,12.458,0,0,0-2.40723-7.51318A9.32648,9.32648,0,0,1,20.537,76.45131a9.21285,9.21285,0,0,1,1.92627-5.51514,12.26374,12.26374,0,0,0,2.40381-7.46484,20.51569,20.51569,0,0,0-2.36426-8.95215C21.4931,52.27118,20.539,50.1476,20.537,47.57c-.00293-3.502,2.186-7.56787,3.78418-10.53613A17.30477,17.30477,0,0,0,26.21381,32.84c.41376-2.50555-.30823-4.06775-1.59961-6.1051L25.74414,6.27167c-.00488-.09521.02539-.25146.084-.28955.4873-.312,1.15332-.73877,1.15332-1.41895,0-1.21228-1.98059-1.96008-4.42841-2.402a23.57133,23.57133,0,0,0-3.36981-.419c-1.2652-.09851-2.48462-.1394-3.47815-.1394-.84375,0-1.85339.03143-2.91266.10052A22.92267,22.92267,0,0,0,8.23433,2.284c-2.15045.45355-3.8056,1.17206-3.8056,2.27917,0,.69238.6499,1.14063,1.1748,1.4209a.82889.82889,0,0,1,.0625.34717L6.78218,26.47685c-1.39514,2.16779-2.19659,3.75378-1.7641,6.36322a17.29526,17.29526,0,0,0,1.89258,4.19434c.56812,1.05524,1.20892,2.2525,1.80127,3.51044A17.76,17.76,0,0,0,2.27,53.01823l.00537,98.17383c-.05945.40356-1.372,9.90039,5.46161,13.55463.07983,2.98267-.01428,10.81049-.01337,10.86041a2.91158,2.91158,0,0,1-.8551,1.47839l-.0741.00305,1.71533,32.80859c0,.25879.13623.69141,1.04834.69141a25.9176,25.9176,0,0,0,7.44824-1.96094c3.231-1.40918,5.73682-3.752,5.73584-4.79785l1.626-26.68158.02734-.02643c-.011-.01141-.0188-.02191-.0296-.03326l.00519.00006-.00531-.00024a3.01413,3.01413,0,0,1-.856-1.447c-.00146-.11859-.10162-8.46039-.00623-11.17834,2.66571-1.71417,3.66541-4.98944,4.39-7.42224.1709-.57227.3252-1.09473.48633-1.5332.48047-1.3125.50586-1.36816,4.47168-1.33594.54883.00391,1.167.00781,1.86328.00781l.36816-.00293a4.50774,4.50774,0,0,1,3.55176,1.09668l.00079-.00085a.91028.91028,0,0,0,.424.33972.86075.86075,0,0,0,.31543.06055c.56213,0,1.1369-.56873,1.95007-1.45111a1.34543,1.34543,0,0,0,.79993.98431.96518.96518,0,0,0,.30176.04883c.64954,0,1.257-.65973,1.78809-1.35052a1.32917,1.32917,0,0,0,.61621.75287,1.02985,1.02985,0,0,0,.46.1084,2.87267,2.87267,0,0,0,1.55078-.76758,4.75973,4.75973,0,0,1,.47272-.334c.00793.00018.0144.00488.0224.00488,1.17969,0,1.7168-2.01074,1.7168-3.87988S48.5166,145.90788,47.33691,145.90788ZM8.47943,3.2462C9.225,3.08849,10.1,2.94731,11.10608,2.83751c1.20691-.11877,2.707-.20209,4.53894-.20209,4.27148,0,6.8457.44043,7.71533.77295-.86963.33252-3.44385.77295-7.71533.77295S8.7998,3.74089,7.93018,3.40837A5.2576,5.2576,0,0,1,8.47943,3.2462ZM6.12793,5.14128c-.69141-.38232-.69922-.57031-.69922-.57812,0-.2348.46057-.54779,1.33679-.85474.73846,1.32135,6.36365,1.4729,8.87952,1.4729,2.5387,0,8.24347-.15436,8.89832-1.50934.94574.31842,1.43811.64709,1.43811.89117,0,.04-.06738.17627-.69238.57715a1.14122,1.14122,0,0,0-.46472.61755A29.4244,29.4244,0,0,1,15.70508,6.924,29.713,29.713,0,0,1,6.586,5.76377,1.01376,1.01376,0,0,0,6.12793,5.14128ZM6.665,6.31023a2.37928,2.37928,0,0,0-.0307-.3139A30.60366,30.60366,0,0,0,15.70508,7.1242a30.31624,30.31624,0,0,0,9.05847-1.13043,1.19142,1.19142,0,0,0-.01746.2818L23.64294,26.20825c-1.49292-.69653-5.22815-.96735-7.93787-.96735-2.70923,0-6.44354.27075-7.937.967ZM23.50623,26.85777c-.59613.37238-3.22076.96808-7.80115.96808-4.82324,0-7.50684-.66357-7.9043-1.02783l-.01019-.18439c.83813-.43378,3.5202-.97235,7.91449-.97235,4.39612,0,7.07849.539,7.91541.9729l-.00116.02051-.18036.11743C23.4632,26.78929,23.48248,26.82109,23.50623,26.85777ZM7.7915,36.56022a17.606,17.606,0,0,1-1.78711-3.8833c-.33246-2.00684.11121-3.23285,1.256-5.08862,1.61725,1.16541,7.17761,1.23755,8.4447,1.23755,1.237,0,6.56635-.0686,8.32349-1.14a6.42867,6.42867,0,0,1,1.199,4.99109,17.60514,17.60514,0,0,1-1.78711,3.88281c-1.64844,3.0625-3.90625,7.25635-3.90332,11.01123.002,2.7915.99854,5.00977,2.05371,7.35791a19.70274,19.70274,0,0,1,2.27637,8.54248A11.27336,11.27336,0,0,1,21.6226,70.3952a10.15949,10.15949,0,0,0-2.08545,6.05615,10.27707,10.27707,0,0,0,2.07959,6.061,11.46211,11.46211,0,0,1,2.25049,6.97559,12.17555,12.17555,0,0,1-2.251,7.13232,10.94465,10.94465,0,0,0-2.0791,6.2168,9.47389,9.47389,0,0,0,2.0874,5.88916,10.53779,10.53779,0,0,1,2.24268,6.751,12.25969,12.25969,0,0,1-2.25146,7.15137,11.012,11.012,0,0,0-2.07861,6.23047,9.53881,9.53881,0,0,0,2.08643,5.90332,10.61049,10.61049,0,0,1,2.24365,6.76953,12.12839,12.12839,0,0,1-2.25049,7.12207,10.90751,10.90751,0,0,0-2.07959,6.21v2.42969l.0166.127c.05469.209,1.33154,5.02051,2.94922,7.01758-.09521,2.76855.00244,10.86523.00781,11.24316a3.02641,3.02641,0,0,0,.51306,1.31519,37.95188,37.95188,0,0,1-7.44128.53931,38.89111,38.89111,0,0,1-7.38336-.52515,3.01558,3.01558,0,0,0,.52252-1.35669c.00439-.35156.10205-8.44727.00684-11.21582,1.61768-1.99707,2.89453-6.80859,2.94922-7.01758l.0166-2.55664a10.90751,10.90751,0,0,0-2.07959-6.21A12.12839,12.12839,0,0,1,7.36427,141.532a10.61049,10.61049,0,0,1,2.24365-6.76953,9.53881,9.53881,0,0,0,2.08643-5.90332,11.012,11.012,0,0,0-2.07861-6.23047,12.25969,12.25969,0,0,1-2.25146-7.15137,10.53779,10.53779,0,0,1,2.24268-6.751,9.47389,9.47389,0,0,0,2.0874-5.88916,10.94465,10.94465,0,0,0-2.0791-6.2168,12.17555,12.17555,0,0,1-2.251-7.13232,11.4619,11.4619,0,0,1,2.25049-6.97559,10.27707,10.27707,0,0,0,2.07959-6.061,10.15949,10.15949,0,0,0-2.08545-6.05615,11.27336,11.27336,0,0,1-2.24463-6.92383,19.70274,19.70274,0,0,1,2.27637-8.54248c1.05518-2.34814,2.05176-4.56641,2.05371-7.35791C11.69727,43.81657,9.43994,39.62272,7.7915,36.56022ZM3.27,151.2653V53.02556A17.03712,17.03712,0,0,1,9.1402,41.50167,15.8503,15.8503,0,0,1,10.69434,47.57c-.002,2.57764-.95605,4.70117-1.96582,6.94922A20.51569,20.51569,0,0,0,6.36426,63.4714a12.26372,12.26372,0,0,0,2.40381,7.46484,9.21285,9.21285,0,0,1,1.92627,5.51514,9.32648,9.32648,0,0,1-1.92285,5.52344A12.458,12.458,0,0,0,6.36426,89.488a13.18025,13.18025,0,0,0,2.39746,7.65332,9.98606,9.98606,0,0,1,1.93262,5.6958,8.42788,8.42788,0,0,1-1.91553,5.32861,11.52047,11.52047,0,0,0-2.41455,7.31152,13.26646,13.26646,0,0,0,2.397,7.6709,10.05337,10.05337,0,0,1,1.93311,5.71094,8.49115,8.49115,0,0,1-1.916,5.34473,11.59709,11.59709,0,0,0-2.41406,7.32813,13.13427,13.13427,0,0,0,2.39795,7.64453,9.94839,9.94839,0,0,1,1.93213,5.6875v2.36328c-.15143.55878-1.32477,4.76209-2.69,6.50806C2.04047,160.32018,3.25171,151.42809,3.27,151.2653Zm18.47412,52.51563c-.0752.42578-1.82373,2.48535-5.1377,3.93066a25.06248,25.06248,0,0,1-7.04834,1.877h-.064L7.83784,177.907a33.2127,33.2127,0,0,0,7.74463.62891,33.381,33.381,0,0,0,7.7373-.625Zm25.59279-51.11526c-.209-.09863-.7168-1.08105-.7168-2.877,0-1.83105.52832-2.81641.70508-2.88184.2002.06543.72852,1.05078.72852,2.88184C48.05371,151.58467,47.5459,152.56706,47.33691,152.66566Z"
          />
    <path d="M11.16666,10.57917h0a.1.1,0,0,1,.1.1v1.6a.1.1,0,0,1-.1.1h0a.1.1,0,0,1-.1-.1v-1.6A.1.1,0,0,1,11.16666,10.57917Z"
          />
    <path d="M16.79915,13.09681h0a.1.1,0,0,1,.00327.14139l-1.105,1.15715a.1.1,0,0,1-.14139.00325h0a.1.1,0,0,1-.00327-.14139l1.105-1.15715A.1.1,0,0,1,16.79915,13.09681Z"
          />
    <path d="M15.35683,8.82168h0a.1.1,0,0,1,.12832.05946l.55082,1.5022a.1.1,0,0,1-.05947.12831h0a.1.1,0,0,1-.12832-.05946L15.29737,8.95A.1.1,0,0,1,15.35683,8.82168Z"
          />
    <path d="M18.75127,10.51867h0a.1.1,0,0,1,.05566.13L18.2121,12.134a.1.1,0,0,1-.13.05565h0a.1.1,0,0,1-.05566-.13l.59481-1.48533A.1.1,0,0,1,18.75127,10.51867Z"
          />
    <path d="M21.008,13.07824h0a.1.1,0,0,1-.06513.12553l-1.52531.48314a.1.1,0,0,1-.12553-.06514h0a.1.1,0,0,1,.06513-.12553l1.52531-.48314A.1.1,0,0,1,21.008,13.07824Z"
          />
    <path d="M11.92048,19.39489h0a.1.1,0,0,1-.06513.12553L10.33,20.00355a.1.1,0,0,1-.12553-.06514h0a.1.1,0,0,1,.06513-.12553l1.52531-.48314A.1.1,0,0,1,11.92048,19.39489Z"
          />
    <path d="M8.37626,13.76866h0a.1.1,0,0,1,.05566.13L7.8371,15.384a.1.1,0,0,1-.13.05565h0a.1.1,0,0,1-.05566-.13l.59481-1.48533A.1.1,0,0,1,8.37626,13.76866Z"
          />
    <path d="M16.8125,5.6h0a.1.1,0,0,1,.1.1V7.3a.1.1,0,0,1-.1.1h0a.1.1,0,0,1-.1-.1V5.7A.1.1,0,0,1,16.8125,5.6Z"
          />
    <path d="M20.23134,5.64612h0a.1.1,0,0,1,.14093.01178l1.03317,1.22171a.1.1,0,0,1-.01179.14093h0a.1.1,0,0,1-.14093-.01178L20.21955,5.78705A.1.1,0,0,1,20.23134,5.64612Z"
          />
    <path d="M9.692,7.422v0a.1.1,0,0,1,.11134-.0872l1.5883.19316a.1.1,0,0,1,.08719.11135v0a.1.1,0,0,1-.11134.0872l-1.5883-.19316A.1.1,0,0,1,9.692,7.422Z"
          />
    <path d="M7.99911,9.68214h0a.1.1,0,0,1,.13959.02271l.93494,1.29842a.1.1,0,0,1-.02272.13959h0a.1.1,0,0,1-.13959-.02271L7.97639,9.82173A.1.1,0,0,1,7.99911,9.68214Z"
          />
    <path d="M16.89714,22.998h0a.1.1,0,0,1,.05566.13L16.358,24.61335a.1.1,0,0,1-.13.05565h0a.1.1,0,0,1-.05566-.13l.59482-1.48533A.1.1,0,0,1,16.89714,22.998Z"
          />
    <path d="M8.73878,22.34691h0a.1.1,0,0,1,.01363.14077L7.73531,23.7228a.1.1,0,0,1-.14077.01362h0a.1.1,0,0,1-.01363-.14077L8.598,22.36054A.1.1,0,0,1,8.73878,22.34691Z"
          />
    <path d="M9.17049,20.47824h0a.1.1,0,0,1-.06513.12553L7.58,21.0869a.1.1,0,0,1-.12553-.06514h0a.1.1,0,0,1,.06513-.12553L9.045,20.4131A.1.1,0,0,1,9.17049,20.47824Z"
          />
    <path d="M14.13135,20.47529h0a.1.1,0,0,1,.14093.01178l1.03317,1.22171a.1.1,0,0,1-.01179.14093h0a.1.1,0,0,1-.14093-.01178l-1.03317-1.22171A.1.1,0,0,1,14.13135,20.47529Z"
          />
    <path d="M20.00767,17.60632h0a.1.1,0,0,1,.00327.14139l-1.105,1.15715a.1.1,0,0,1-.14139.00325h0a.1.1,0,0,1-.00327-.14139l1.105-1.15715A.1.1,0,0,1,20.00767,17.60632Z"
          />
    <path d="M11.69409,14.99135v0a.1.1,0,0,1,.11134-.0872l1.5883.19316a.1.1,0,0,1,.08719.11135v0a.1.1,0,0,1-.11134.0872l-1.5883-.19316A.1.1,0,0,1,11.69409,14.99135Z"
          />
    <path d="M21.008,7.39075h0a.1.1,0,0,1-.06513.12553l-1.52531.48314a.1.1,0,0,1-.12553-.06514h0a.1.1,0,0,1,.06513-.12553l1.52531-.48314A.1.1,0,0,1,21.008,7.39075Z"
          />
    <path d="M13.28822,26.07827h0a.1.1,0,0,1,.00327.14139l-1.105,1.15715a.1.1,0,0,1-.14139.00325h0a.1.1,0,0,1-.00327-.14139l1.105-1.15715A.1.1,0,0,1,13.28822,26.07827Z"
          />
    <path d="M13.75007,8.6302h0a.1.1,0,0,1,.03877.136l-.77793,1.39816a.1.1,0,0,1-.136.03876h0a.1.1,0,0,1-.03877-.136L13.61406,8.669A.1.1,0,0,1,13.75007,8.6302Z"
          />
    <path d="M17.96935,27.34532h0a.1.1,0,0,1-.13913.02536l-1.31588-.9102a.1.1,0,0,1-.02535-.13913h0a.1.1,0,0,1,.13913-.02536l1.31588.9102A.1.1,0,0,1,17.96935,27.34532Z"
          />
    <path d="M10.68876,24.45617h0a.1.1,0,0,1,.05566.13l-.59481,1.48533a.1.1,0,0,1-.13.05565h0a.1.1,0,0,1-.05566-.13l.59481-1.48533A.1.1,0,0,1,10.68876,24.45617Z"
          />
    <path d="M19.77858,15.88375h0a.1.1,0,0,1-.11757.0786l-1.56932-.31182a.1.1,0,0,1-.07859-.11758h0a.1.1,0,0,1,.11757-.0786L19.7,15.76618A.1.1,0,0,1,19.77858,15.88375Z"
          />
    <path d="M12.97916,22.70417h0a.1.1,0,0,1,.1.1v1.6a.1.1,0,0,1-.1.1h0a.1.1,0,0,1-.1-.1v-1.6A.1.1,0,0,1,12.97916,22.70417Z"
          />
    <path d="M7.17093,6.29271h0a.1.1,0,0,1,.03877.136L6.43176,7.82687a.1.1,0,0,1-.136.03876h0a.1.1,0,0,1-.03877-.136l.77793-1.39816A.1.1,0,0,1,7.17093,6.29271Z"
          />
    <path d="M10.21932,5.22019h0a.1.1,0,0,1-.05115.13185l-1.464.64558a.1.1,0,0,1-.13185-.05116h0a.1.1,0,0,1,.05115-.13185l1.464-.64558A.1.1,0,0,1,10.21932,5.22019Z"
          />
    <path d="M14.175,6.57086h0a.1.1,0,0,1-.14074.01389l-1.237-1.01482a.1.1,0,0,1-.01388-.14074h0a.1.1,0,0,1,.14074-.01389l1.237,1.01482A.1.1,0,0,1,14.175,6.57086Z"
          />
    <path d="M20.28312,21.82126h0a.1.1,0,0,1-.13428.04438l-1.42923-.71925a.1.1,0,0,1-.04437-.13428h0a.1.1,0,0,1,.13428-.04438l1.42923.71925A.1.1,0,0,1,20.28312,21.82126Z"
          />
    <path d="M10.58247,17.6162v0a.1.1,0,0,1-.09064.10856L8.89825,17.868a.1.1,0,0,1-.10855-.09065v0a.1.1,0,0,1,.09064-.10856l1.59358-.14324A.1.1,0,0,1,10.58247,17.6162Z"
          />
    <path d="M15.55434,17.2698h0a.1.1,0,0,1,.0913.108L15.512,18.97221a.1.1,0,0,1-.108.0913h0a.1.1,0,0,1-.0913-.108l.13364-1.59441A.1.1,0,0,1,15.55434,17.2698Z"
          />
    <path d="M13.88082,12.56035h0a.1.1,0,0,1-.0388.136l-1.39837.77754a.1.1,0,0,1-.136-.03881h0a.1.1,0,0,1,.0388-.136l1.39837-.77754A.1.1,0,0,1,13.88082,12.56035Z"
          />
    <path d="M21.40939,24.70552h0a.1.1,0,0,1-.06513.12553l-1.52532.48314a.1.1,0,0,1-.12553-.06514h0a.1.1,0,0,1,.06513-.12553l1.52532-.48314A.1.1,0,0,1,21.40939,24.70552Z"
          />
    <path d="M23.2331,16.94709h0a.1.1,0,0,1-.00054.14142l-1.13572,1.127a.1.1,0,0,1-.14142-.00055h0a.1.1,0,0,1,.00054-.14142l1.13572-1.127A.1.1,0,0,1,23.2331,16.94709Z"
          />
    <path d="M22.95107,21.33811h0a.1.1,0,0,1,.05217.13145l-.63433,1.46889a.1.1,0,0,1-.13146.05216h0a.1.1,0,0,1-.05217-.13145l.63433-1.46889A.1.1,0,0,1,22.95107,21.33811Z"
          />
    <path d="M22.67676,25.72831h0a.1.1,0,0,1,.01151.141l-1.03557,1.21968a.1.1,0,0,1-.141.0115h0a.1.1,0,0,1-.01151-.141l1.03557-1.21968A.1.1,0,0,1,22.67676,25.72831Z"
          />
    <path d="M22.01009,9.395h0a.1.1,0,0,1,.01151.141L20.986,10.75558a.1.1,0,0,1-.141.0115h0a.1.1,0,0,1-.01151-.141l1.03557-1.21967A.1.1,0,0,1,22.01009,9.395Z"
          />
    <path d="M24.71832,11.96221h0a.1.1,0,0,1-.121.07329l-1.5539-.38134a.1.1,0,0,1-.07328-.121h0a.1.1,0,0,1,.121-.07329l1.5539.38134A.1.1,0,0,1,24.71832,11.96221Z"
          />
    <path d="M25.31552,5.36932h0a.1.1,0,0,1-.14.02034l-1.28228-.957a.1.1,0,0,1-.02033-.14h0a.1.1,0,0,1,.14-.02034l1.28228.957A.1.1,0,0,1,25.31552,5.36932Z"
          />
    <path d="M23.85682,7.73836h0a.1.1,0,0,1,.12832.05946L24.536,9.3a.1.1,0,0,1-.05947.12831h0a.1.1,0,0,1-.12832-.05946l-.55082-1.5022A.1.1,0,0,1,23.85682,7.73836Z"
          />
    <path d="M11.45833,186.64166h0a.1.1,0,0,1,.1.1v1.6a.1.1,0,0,1-.1.1h0a.1.1,0,0,1-.1-.1v-1.6A.1.1,0,0,1,11.45833,186.64166Z"
          />
    <path d="M18.13624,187.31413h0a.1.1,0,0,1,.00326.14139l-1.105,1.15714a.1.1,0,0,1-.14139.00326h0a.1.1,0,0,1-.00326-.14139l1.105-1.15714A.1.1,0,0,1,18.13624,187.31413Z"
          />
    <path d="M16.69392,183.039h0a.1.1,0,0,1,.12832.05946l.55082,1.50219a.1.1,0,0,1-.05946.12832h0a.1.1,0,0,1-.12832-.05946l-.55082-1.50219A.1.1,0,0,1,16.69392,183.039Z"
          />
    <path d="M20.08835,184.736h0a.1.1,0,0,1,.05566.13l-.59481,1.48532a.1.1,0,0,1-.13.05566h0a.1.1,0,0,1-.05566-.13l.59481-1.48532A.1.1,0,0,1,20.08835,184.736Z"
          />
    <path d="M22.34509,187.29557h0a.1.1,0,0,1-.06514.12554l-1.5253.48314a.1.1,0,0,1-.12554-.06514h0a.1.1,0,0,1,.06514-.12554l1.5253-.48314A.1.1,0,0,1,22.34509,187.29557Z"
          />
    <path d="M13.25758,193.61223h0a.1.1,0,0,1-.06514.12554l-1.5253.48314a.1.1,0,0,1-.12554-.06514h0a.1.1,0,0,1,.06514-.12554l1.5253-.48314A.1.1,0,0,1,13.25758,193.61223Z"
          />
    <path d="M9.71335,187.986h0a.1.1,0,0,1,.05566.13l-.59481,1.48532a.1.1,0,0,1-.13.05566h0a.1.1,0,0,1-.05566-.13l.59481-1.48532A.1.1,0,0,1,9.71335,187.986Z"
          />
    <path d="M18.14959,179.81734h0a.1.1,0,0,1,.1.1v1.6a.1.1,0,0,1-.1.1h0a.1.1,0,0,1-.1-.1v-1.6A.1.1,0,0,1,18.14959,179.81734Z"
          />
    <path d="M21.56845,179.86344h0a.1.1,0,0,1,.14094.01178l1.03316,1.2217a.1.1,0,0,1-.01178.14094h0a.1.1,0,0,1-.14094-.01178l-1.03316-1.2217A.1.1,0,0,1,21.56845,179.86344Z"
          />
    <path d="M11.02908,181.63929v0a.1.1,0,0,1,.11135-.0872l1.58829.19316a.1.1,0,0,1,.0872.11135v0a.1.1,0,0,1-.11135.0872l-1.58829-.19316A.1.1,0,0,1,11.02908,181.63929Z"
          />
    <path d="M9.33621,183.89946h0a.1.1,0,0,1,.13959.02272l.93493,1.29841a.1.1,0,0,1-.02272.13959h0a.1.1,0,0,1-.13959-.02272L9.31349,184.039A.1.1,0,0,1,9.33621,183.89946Z"
          />
    <path d="M20.16793,196.95618h0a.1.1,0,0,1,.05566.13l-.59481,1.48532a.1.1,0,0,1-.13.05566h0a.1.1,0,0,1-.05566-.13l.59481-1.48532A.1.1,0,0,1,20.16793,196.95618Z"
          />
    <path d="M10.0759,196.56425h0a.1.1,0,0,1,.01363.14077l-1.01708,1.23511a.1.1,0,0,1-.14077.01363h0A.1.1,0,0,1,8.918,197.813l1.01708-1.23512A.1.1,0,0,1,10.0759,196.56425Z"
          />
    <path d="M10.50758,194.69557h0a.1.1,0,0,1-.06514.12554l-1.5253.48314a.1.1,0,0,1-.12554-.06514h0a.1.1,0,0,1,.06514-.12554l1.5253-.48314A.1.1,0,0,1,10.50758,194.69557Z"
          />
    <path d="M15.46844,194.69261h0a.1.1,0,0,1,.14094.01178l1.03316,1.2217a.1.1,0,0,1-.01178.14094h0a.1.1,0,0,1-.14094-.01178l-1.03316-1.2217A.1.1,0,0,1,15.46844,194.69261Z"
          />
    <path d="M21.34475,191.82366h0a.1.1,0,0,1,.00326.14139l-1.105,1.15715a.1.1,0,0,1-.14139.00326h0a.1.1,0,0,1-.00326-.14139l1.105-1.15715A.1.1,0,0,1,21.34475,191.82366Z"
          />
    <path d="M13.03118,189.20868v0a.1.1,0,0,1,.11135-.0872l1.58829.19316a.1.1,0,0,1,.0872.11135v0a.1.1,0,0,1-.11135.0872L13.11839,189.32A.1.1,0,0,1,13.03118,189.20868Z"
          />
    <path d="M22.34508,181.60807h0a.1.1,0,0,1-.06514.12554l-1.5253.48314a.1.1,0,0,1-.12554-.06514h0a.1.1,0,0,1,.06514-.12554l1.5253-.48314A.1.1,0,0,1,22.34508,181.60807Z"
          />
    <path d="M21.20489,178.01578h0a.1.1,0,0,1,.00326.14139l-1.105,1.15714a.1.1,0,0,1-.14139.00326h0a.1.1,0,0,1-.00326-.14139l1.105-1.15714A.1.1,0,0,1,21.20489,178.01578Z"
          />
    <path d="M15.08717,182.84755h0a.1.1,0,0,1,.03877.136l-.77792,1.39815a.1.1,0,0,1-.136.03877h0a.1.1,0,0,1-.03877-.136l.77792-1.39815A.1.1,0,0,1,15.08717,182.84755Z"
          />
    <path d="M19.30643,201.56267h0a.1.1,0,0,1-.13914.02536l-1.31587-.91019a.1.1,0,0,1-.02536-.13914h0a.1.1,0,0,1,.13914-.02536l1.31587.91019A.1.1,0,0,1,19.30643,201.56267Z"
          />
    <path d="M12.02585,198.67351h0a.1.1,0,0,1,.05566.13l-.59481,1.48532a.1.1,0,0,1-.13.05566h0a.1.1,0,0,1-.05566-.13l.59481-1.48532A.1.1,0,0,1,12.02585,198.67351Z"
          />
    <path d="M21.11566,190.10108v0a.1.1,0,0,1-.11758.0786l-1.56931-.31181a.1.1,0,0,1-.0786-.11758v0a.1.1,0,0,1,.11758-.0786l1.56931.31181A.1.1,0,0,1,21.11566,190.10108Z"
          />
    <path d="M14.31626,196.92151h0a.1.1,0,0,1,.1.1v1.6a.1.1,0,0,1-.1.1h0a.1.1,0,0,1-.1-.1v-1.6A.1.1,0,0,1,14.31626,196.92151Z"
          />
    <path d="M8.508,180.51005h0a.1.1,0,0,1,.03877.136l-.77792,1.39815a.1.1,0,0,1-.136.03877h0a.1.1,0,0,1-.03877-.136l.77792-1.39815A.1.1,0,0,1,8.508,180.51005Z"
          />
    <path d="M11.5564,179.43754h0a.1.1,0,0,1-.05115.13186l-1.464.64558a.1.1,0,0,1-.13186-.05115h0a.1.1,0,0,1,.05115-.13186l1.464-.64558A.1.1,0,0,1,11.5564,179.43754Z"
          />
    <path d="M15.512,180.78822h0a.1.1,0,0,1-.14075.01389l-1.237-1.01481a.1.1,0,0,1-.01389-.14075h0a.1.1,0,0,1,.14075-.01389l1.237,1.01481A.1.1,0,0,1,15.512,180.78822Z"
          />
    <path d="M21.6202,196.03861h0a.1.1,0,0,1-.13429.04438l-1.42922-.71925a.1.1,0,0,1-.04438-.13429h0a.1.1,0,0,1,.13429-.04438l1.42922.71925A.1.1,0,0,1,21.6202,196.03861Z"
          />
    <path d="M11.91957,191.83355v0a.1.1,0,0,1-.09065.10856l-1.59357.14324a.1.1,0,0,1-.10856-.09065v0a.1.1,0,0,1,.09065-.10856l1.59357-.14324A.1.1,0,0,1,11.91957,191.83355Z"
          />
    <path d="M16.89277,191.48769h0a.1.1,0,0,1,.0913.108l-.13363,1.59441a.1.1,0,0,1-.108.0913h0a.1.1,0,0,1-.0913-.108l.13363-1.59441A.1.1,0,0,1,16.89277,191.48769Z"
          />
    <path d="M15.21791,186.77767h0a.1.1,0,0,1-.0388.136l-1.39836.77754a.1.1,0,0,1-.136-.0388h0a.1.1,0,0,1,.0388-.136l1.39836-.77754A.1.1,0,0,1,15.21791,186.77767Z"
          />
    <path d="M21.94131,198.76991h0a.1.1,0,0,1-.06514.12554l-1.5253.48314a.1.1,0,0,1-.12554-.06514h0a.1.1,0,0,1,.06514-.12554l1.5253-.48314A.1.1,0,0,1,21.94131,198.76991Z"
          />
    <path d="M23.34717,183.61231h0a.1.1,0,0,1,.01151.141l-1.03556,1.21967a.1.1,0,0,1-.141.01151h0a.1.1,0,0,1-.01151-.141l1.03556-1.21967A.1.1,0,0,1,23.34717,183.61231Z"
          />
    <path d="M16.33457,200.33118h0a.1.1,0,0,1,.05566.13l-.59481,1.48532a.1.1,0,0,1-.13.05566h0a.1.1,0,0,1-.05566-.13l.59481-1.48532A.1.1,0,0,1,16.33457,200.33118Z"
          />
    <path d="M10.80178,200.98428h0a.1.1,0,0,1,.14094.01178l1.03316,1.2217a.1.1,0,0,1-.01178.14094h0a.1.1,0,0,1-.14094-.01178L10.79,201.12522A.1.1,0,0,1,10.80178,200.98428Z"
          />
    <path d="M14.53439,203.98812h0a.1.1,0,0,1-.13214-.05041l-.65377-1.46033a.1.1,0,0,1,.05041-.13214h0a.1.1,0,0,1,.13214.05041l.65377,1.46033A.1.1,0,0,1,14.53439,203.98812Z"
          />
    <path d="M9.64959,203.21317h0a.1.1,0,0,1,.1.1v1.6a.1.1,0,0,1-.1.1h0a.1.1,0,0,1-.1-.1v-1.6A.1.1,0,0,1,9.64959,203.21317Z"
          />
    <path d="M13.88726,207.82129h0a.1.1,0,0,1-.13429.04438l-1.42922-.71925a.1.1,0,0,1-.04438-.13429h0a.1.1,0,0,1,.13429-.04438l1.42922.71924A.1.1,0,0,1,13.88726,207.82129Z"
          />
    <path d="M19.858,203.31155h0a.1.1,0,0,1-.06514.12554l-1.5253.48314a.1.1,0,0,1-.12554-.06514h0a.1.1,0,0,1,.06514-.12554l1.5253-.48314A.1.1,0,0,1,19.858,203.31155Z"
          />
    <path d="M11.85,204.15h0a.1.1,0,0,1,.1.1v1.6a.1.1,0,0,1-.1.1h0a.1.1,0,0,1-.1-.1v-1.6A.1.1,0,0,1,11.85,204.15Z"
          />
    <path d="M16.13512,205.85929h0a.1.1,0,0,1,.14094.01178l1.03317,1.22169a.1.1,0,0,1-.01178.14094h0a.1.1,0,0,1-.14094-.01178l-1.03317-1.22169A.1.1,0,0,1,16.13512,205.85929Z"
          />
    <path d="M10.808,207.6634h0a.1.1,0,0,1,.00326.14139l-1.105,1.15714a.1.1,0,0,1-.14139.00326h0a.1.1,0,0,1-.00326-.14139l1.105-1.15714A.1.1,0,0,1,10.808,207.6634Z"
          />
</g>
</svg>