<svg id="Clipware6" xmlns="http://www.w3.org/2000/svg" viewBox="0 0 49.33812 247.08638" width="52" height="250">
    <title>Clipware6</title><g transform="translate(-2.51349 -1.25444)"  fill="#000000" stroke-width="0.2324">
    <path d="M50.06738,184.56055a1.04142,1.04142,0,0,0-.18335.03577c-.11682-.06763-.24493-.14832-.386-.24084-.63184-.416-1.417-.93359-2.12891-.55078a1.35356,1.35356,0,0,0-.58832.69727c-.65375-.741-1.459-1.51184-2.26227-1.21094a1.37323,1.37323,0,0,0-.77618.92389c-1.07312-1.00439-1.76263-1.588-2.45038-1.29205a.989.989,0,0,0-.44666.40576c-.8786.66095-2.75049.60211-4.28186.54639-.4209-.01562-.82129-.03027-1.18164-.03027l-.292.00293c-1.07324.00977-3.07715.03906-4.21777-1.08789a3.39671,3.39671,0,0,1-.88574-2.51758L30,65.93457a3.40013,3.40013,0,0,1,.88574-2.52051c1.1377-1.124,3.13086-1.10059,4.2041-1.08447l.292.00244c.36035,0,.76074-.01465,1.18164-.03027,1.53485-.05713,3.40326-.116,4.28162.5459a.98677.98677,0,0,0,.4469.40576.92355.92355,0,0,0,.37109.07861c.575,0,1.19678-.54315,2.07941-1.36945a1.37314,1.37314,0,0,0,.77606.92365,1.02917,1.02917,0,0,0,.36035.06445c.67749,0,1.34528-.64722,1.90179-1.27606a1.35517,1.35517,0,0,0,.58746.69745,1.1187,1.1187,0,0,0,.53809.13477,3.194,3.194,0,0,0,1.59082-.68457c.14154-.0932.27-.17413.38715-.24182a1.03845,1.03845,0,0,0,.18317.03577c1.1709,0,1.78418-1.79541,1.78418-3.56885s-.61328-3.56885-1.78418-3.56885c-.01471,0-.027.00757-.0415.00812a4.708,4.708,0,0,1-.52783-.31769c-.63184-.4165-1.417-.93408-2.12891-.55078a1.35683,1.35683,0,0,0-.5885.69836c-.65546-.73993-1.46362-1.5047-2.26208-1.212a1.37332,1.37332,0,0,0-.77625.924c-1.07123-1.00372-1.757-1.59265-2.45032-1.29169a.94863.94863,0,0,0-.3562.28247l-.00708-.009a5.39041,5.39041,0,0,1-3.79687,1.00732l-.3877-.00293c-.73633,0-1.38965.00391-1.96973.00732-4.22754.02637-4.248-.021-4.75293-1.206-.95129-2.23181-5.37445-7.06476-8.55371-9.37018.54242-1.13727,1.14087-2.31982,1.73877-3.49408a43.83626,43.83626,0,0,0,3.40234-7.71289c.6214-2.47015.56592-3.78729-.926-5.85712L26.81253,5.9229c-.00488-.09473.02441-.25049.08447-.28857.60742-.38916,1.15283-.791,1.15283-1.41895,0-1.21326-1.98291-1.9613-4.4328-2.4032a23.509,23.509,0,0,0-3.34235-.41632c-1.27338-.09985-2.50171-.14142-3.50122-.14142-.85193,0-1.87286.032-2.9433.10254a22.86126,22.86126,0,0,0-4.51929.577C7.15634,2.38747,5.4971,3.10659,5.4971,4.21535c0,.69238.64941,1.14014,1.1748,1.42041a.8407.8407,0,0,1,.0625.34717l1.13287,20.448c-1.62061,2.18585-1.4729,3.64258-1.06012,5.99976A41.23708,41.23708,0,0,0,9.23,38.42334c.71692,1.60065,1.50171,3.35522,2.18909,5.01007-3.19562,2.261-8.89465,6.40118-8.89465,13.53534l.00146,132.46582c-.00684.08966-.56268,9.00537,6.629,12.32257.081,2.63092-.01715,8.6712-.01575,8.696a2.51547,2.51547,0,0,1-.91748,1.33008l.02734.24316,1.92139,34.57127a1.4058,1.4058,0,0,0,.04883.87012,1.37378,1.37378,0,0,0,1.04468.77991,3.156,3.156,0,0,0,.75708.09314,13.15162,13.15162,0,0,0,5.54932-1.79687,12.55088,12.55088,0,0,0,4.61426-3.85925l.20154-.40436a1.565,1.565,0,0,0,.07153-1.13257l1.83679-29.07745-.07568-.28711a2.546,2.546,0,0,1-.91553-1.31989c-.00555-.35083-.1015-6.43195-.0108-8.88757,3.733-1.949,5.94269-6.369,6.72906-8.21442.50391-1.18457.52441-1.2373,4.751-1.20605.58105.00293,1.23438.00684,1.97168.00684l.38867-.00293a5.38814,5.38814,0,0,1,3.7959,1.00586l.00641-.00824a.95129.95129,0,0,0,.35687.28363.93132.93132,0,0,0,.37109.07813c.57507,0,1.1969-.54279,2.07971-1.3692a1.37255,1.37255,0,0,0,.77576.92291,1.03918,1.03918,0,0,0,.35938.06445c.678,0,1.34558-.64789,1.90222-1.27655a1.3541,1.3541,0,0,0,.588.69843,1.11594,1.11594,0,0,0,.53809.13477,3.198,3.198,0,0,0,1.58984-.68359,4.60317,4.60317,0,0,1,.53033-.31952c.01434.00055.02643.008.041.008,1.1709,0,1.78418-1.79492,1.78418-3.56836S51.23828,184.56055,50.06738,184.56055Zm0-129.082c.20117,0,.78418.8833.78418,2.56885s-.583,2.56885-.78418,2.56885c-.20215,0-.78516-.8833-.78516-2.56885s.583-2.56887.78516-2.56887ZM9.54584,2.89854c.74005-.15668,1.60815-.29694,2.60516-.40649,1.21075-.12006,2.71857-.20447,4.56238-.20447,4.271,0,6.84473.44043,7.71484.77246-.87012.33252-3.44385.77295-7.71484.77295S9.86865,3.39256,8.99854,3.06a5.24356,5.24356,0,0,1,.5473-.16148ZM7.19583,4.793c-.69092-.38184-.69873-.56982-.69873-.57764,0-.2348.46063-.54791,1.337-.855.73914,1.321,6.36359,1.47266,8.87927,1.47266,2.53851,0,8.24268-.15442,8.89825-1.509.9458.31854,1.43817.64728,1.43817.89136,0,.04-.06738.17627-.69189.57666a1.13837,1.13837,0,0,0-.46564.61761,29.41366,29.41366,0,0,1-9.11884,1.16608A29.71847,29.71847,0,0,1,7.65405,5.41552,1.01685,1.01685,0,0,0,7.1958,4.793Zm.5376,1.16846a2.37013,2.37013,0,0,0-.03076-.31329,30.61072,30.61072,0,0,0,9.0708,1.12775,30.30866,30.30866,0,0,0,9.05817-1.13037,1.19165,1.19165,0,0,0-.01715.28174L24.7113,25.85992c-1.49292-.69653-5.22815-.96735-7.93787-.96735-2.70923,0-6.44354.27075-7.937.967ZM24.68887,26.26585l-.01013.18286c-.395.36426-3.07861,1.0293-7.90527,1.0293-4.82373,0-7.50684-.66406-7.9043-1.02832L8.859,26.2653c.83813-.43378,3.5202-.97235,7.91449-.97235,4.39609,0,7.07846.539,7.91537.97292ZM10.14258,38.01465a44.57674,44.57674,0,0,1-2.3501-5.75635c-.37476-2.13708-.48468-3.24316.66754-4.9295,1.76929,1.08093,7.0791,1.14923,8.31342,1.14923,1.24377,0,6.62378-.0697,8.35077-1.15845,1.04944,1.57648,1.04071,2.58423.515,4.675a44.20607,44.20607,0,0,1-3.32373,7.50293C20.441,43.18012,18.502,46.98823,18.502,49.25971c0,4.56445-1.522,6.27881-3.44873,8.44971-.23523.26477-.47675.54053-.71924.8219L9.32658,56.64716c3.98145-1.6684,4.94739-6.37,4.94739-7.28687C14.27393,47.23975,12.0791,42.33838,10.14258,38.01465Zm10.624,156.97168.021.14258c-.01746.928.017,4.62854,1.50867,6.3222-.09955,2.48047.00317,8.78583.00745,9.06061l.00146.03027a2.74776,2.74776,0,0,0,.657,1.36383,34.79662,34.79662,0,0,1-6.6897.47894,33.56474,33.56474,0,0,1-6.77734-.49963,2.707,2.707,0,0,0,.6416-1.37341c.00439-.27344.10645-6.54687.00879-9.0459,1.71143-1.81934,2.271-5.15039,2.271-6.52246,0-2.3717,2.33771-5.60876,6.25317-8.66083l3.53735,1.3288a3.02294,3.02294,0,0,0,.59174.21515c-2.3911,2.56311-2.05052,6.94879-2.03215,7.15985Zm1.84033-8.29L6.624,180.69734a2.05961,2.05961,0,0,1,1.03857-3.83789c.0191,0,.03754.00519.05652.00568l.00061.006.02649-.0033a2.08271,2.08271,0,0,1,.73621.16052l15.50879,5.83008a2.04894,2.04894,0,0,1,.01642,4.01349l-.00861-.01447c-.01147.00677-.02069.01544-.032.02234a2.12463,2.12463,0,0,1-1.36006-.1835ZM10.02066,176.5396a13.76569,13.76569,0,0,0,5.81458-2.17883l6.37274,2.39417a3.04172,3.04172,0,0,0,.44659.16174s-1.86609,1.05695-6.65619,1.87225Zm12.58624-.69971-15.98291-6A2.05961,2.05961,0,0,1,7.66257,166.002c.019,0,.0376.00519.05652.00574l.00061.006.02637-.0033a2.09636,2.09636,0,0,1,.73633.16052L23.99118,172.001a2.06117,2.06117,0,1,1-1.38428,3.83887ZM10.02139,165.68211a13.373,13.373,0,0,0,5.9079-2.25183l6.27869,2.35883a3.0547,3.0547,0,0,0,.5661.20544s-1.8158,1.193-6.77576,1.93671Zm12.58551-.808-15.98291-6a2.05961,2.05961,0,0,1,1.03857-3.83789c.019,0,.03754.00525.05652.00574l.00061.006.02631-.00323a2.07691,2.07691,0,0,1,.73639.16144l15.50879,5.8291a2.06117,2.06117,0,1,1-1.38428,3.83887ZM10.01962,154.71695a13.762,13.762,0,0,0,5.81622-2.179l6.37115,2.39374a3.01676,3.01676,0,0,0,.4469.16248s-1.38312.9892-6.65558,1.872Zm12.58728-.70026-15.98291-6a2.059,2.059,0,0,1,1.03857-3.83691c.0191,0,.03754.00519.05652.00568l.00061.006.02649-.0033a2.08271,2.08271,0,0,1,.73621.16052l15.5083,5.8291a2.06113,2.06113,0,1,1-1.38379,3.83887ZM10.02078,143.86a13.76631,13.76631,0,0,0,5.81482-2.17908l6.3714,2.39343a3.01676,3.01676,0,0,0,.4469.16248s-1.303,1.10571-6.65558,1.872Zm12.58612-.70068L6.624,137.16028a2.05961,2.05961,0,0,1,1.03857-3.83789c.019,0,.0376.00519.05652.00574l.00061.006.02637-.0033a2.09636,2.09636,0,0,1,.73633.16052l15.50879,5.83008a2.06078,2.06078,0,1,1-1.38428,3.83789Zm-12.58551-10.1568a13.55176,13.55176,0,0,0,5.86316-2.21667l6.32343,2.37543a3.05493,3.05493,0,0,0,.50873.18463s-1.40753,1.03229-6.71838,1.90576Zm12.58551-.75629-15.98291-6a2.0593,2.0593,0,0,1,1.03857-3.8374c.019,0,.03754.00519.05652.00568l.00061.006.02655-.0033a2.07957,2.07957,0,0,1,.73615.16052l15.50879,5.8291a2.06137,2.06137,0,1,1-1.38428,3.83936ZM10.02151,122.089a13.7608,13.7608,0,0,0,5.81445-2.17877l6.371,2.39307a3.00169,3.00169,0,0,0,.447.16284s-1.21985.91779-6.6557,1.8717Zm12.58539-.70074L6.624,115.38928a2.0593,2.0593,0,0,1,1.03857-3.8374c.019,0,.03754.00519.05652.00568l.00061.00555.02441-.00305a2.07891,2.07891,0,0,1,.73828.16077l15.50879,5.8291a2.061,2.061,0,1,1-1.38428,3.83838Zm-12.586-10.15643a13.75816,13.75816,0,0,0,5.81458-2.17859l6.372,2.39362a3.03164,3.03164,0,0,0,.45935.16681s-1.14935,1.01471-6.66852,1.86725Zm12.586-.7005L6.624,104.53234a2.0593,2.0593,0,0,1,1.03857-3.8374c.0191,0,.03748.00519.05652.00568l.00061.00555.02454-.00305a2.07937,2.07937,0,0,1,.73816.16028L23.99118,106.693a2.061,2.061,0,1,1-1.38428,3.83838ZM10.02145,100.37466a13.61471,13.61471,0,0,0,5.84686-2.20422l6.33868,2.38092a3.014,3.014,0,0,0,.5014.18262s-1.06592,1.01343-6.71008,1.88977Zm12.58545-.73834L6.624,93.63732a2.0593,2.0593,0,0,1,1.03857-3.8374c.0191,0,.03748.00519.05652.00568l.00061.00555.02448-.00305a2.07115,2.07115,0,0,1,.73822.16077L23.99118,95.798a2.061,2.061,0,1,1-1.38428,3.83838ZM10.0213,89.47974a13.76,13.76,0,0,0,5.81458-2.17834l6.37164,2.39343a3.03081,3.03081,0,0,0,.45935.16681s-.96185.74182-6.66852,1.86719Zm12.58563-.70044L6.624,82.7803a2.0593,2.0593,0,0,1,1.03857-3.8374c.0191,0,.03748.00519.05652.00568l.00061.00555.02454-.00305a2.07937,2.07937,0,0,1,.73816.16028l15.50879,5.82959a2.061,2.061,0,1,1-1.38428,3.83838ZM10.02148,78.62262a13.76234,13.76234,0,0,0,5.81415-2.17847l6.37189,2.39374a3.03081,3.03081,0,0,0,.45935.16681s-1.89935,1.15533-6.66852,1.867Zm12.58545-.70026L6.624,71.92285a2.0593,2.0593,0,0,1,1.03857-3.8374c.019,0,.03754.00519.05652.00568l.00061.006.02655-.0033a2.07957,2.07957,0,0,1,.73615.16052l15.50879,5.8291a2.06117,2.06117,0,1,1-1.38428,3.83887ZM10.02155,67.76569A13.76069,13.76069,0,0,0,15.836,65.58692L22.207,67.98a3.0147,3.0147,0,0,0,.44733.1629s-.94934.8028-6.656,1.87164ZM22.60693,67.065,6.624,61.066a2.06,2.06,0,0,1,1.8584-3.66846l15.50879,5.8291A2.061,2.061,0,1,1,22.60693,67.065ZM3.52441,189.4707V56.96875c0-6.48492,5.20489-10.40039,8.28246-12.58459a17.50945,17.50945,0,0,1,1.467,4.97375s-.47211,5.69537-5.67511,6.87708a3.05141,3.05141,0,0,0-1.403,5.73083l8.49512,3.19092a17.35689,17.35689,0,0,1-6.97614,1.9339c-.01764-.00031-.03448-.00519-.05219-.00519a3.05515,3.05515,0,0,0-1.4668,5.7373L14.69044,76.014a17.35808,17.35808,0,0,1-6.97778,1.93384c-.017-.00024-.03308-.00494-.05011-.00494a3.05515,3.05515,0,0,0-1.4668,5.7373l8.48407,3.187a17.4607,17.4607,0,0,1-6.96729,1.93762c-.01691-.00024-.033-.00494-.05-.00494a3.05515,3.05515,0,0,0-1.4668,5.7373l8.53308,3.2052a17.20837,17.20837,0,0,1-7.01617,1.95746c-.017-.00024-.03308-.00494-.05011-.00494a3.05515,3.05515,0,0,0-1.4668,5.7373l8.4837,3.18684a17.4582,17.4582,0,0,1-6.967,1.93774c-.01691-.00031-.033-.00494-.04993-.00494a3.05515,3.05515,0,0,0-1.4668,5.7373L14.69084,119.48a17.35689,17.35689,0,0,1-6.97614,1.9339c-.01764-.00031-.03448-.00519-.05219-.00519a3.05515,3.05515,0,0,0-1.4668,5.7373l8.54181,3.2088a17.261,17.261,0,0,1-7.02295,1.97266c-.01758-.00031-.03442-.00519-.05206-.00519a3.05515,3.05515,0,0,0-1.4668,5.7373L14.68,141.24675a17.4648,17.4648,0,0,1-6.96539,1.93817c-.01764-.00031-.03436-.00519-.05206-.00519a3.05454,3.05454,0,0,0-1.4668,5.73633l8.48468,3.18781a17.4578,17.4578,0,0,1-6.96582,1.9375c-.01758-.00031-.03442-.00519-.05206-.00519a3.05515,3.05515,0,0,0-1.4668,5.7373l8.595,3.22906a17.084,17.084,0,0,1-7.07611,2.00464c-.01758-.00031-.03442-.00519-.05206-.00519a3.05515,3.05515,0,0,0-1.4668,5.7373l8.48389,3.18732a17.46563,17.46563,0,0,1-6.965,1.938c-.01764-.00031-.03436-.00519-.05206-.00519a3.05515,3.05515,0,0,0-1.4668,5.7373l11.38544,4.277c-3.92279,3.17224-6.16473,6.45691-6.16473,9.0697,0,1.19067-.514,4.23578-2.0025,5.82019C3.03387,197.67743,3.51715,189.58856,3.52441,189.4707ZM17.0918,245.665c-3.25311,1.774-5.526,1.89606-5.88971,1.47375l-.02386-.42883c.31055-.88281,1.89111-2.44824,4.40137-3.81641a12.23968,12.23968,0,0,1,5.07568-1.68066c.53516,0,.79395.125.85791.24219C21.77,241.92676,20.44189,243.83984,17.0918,245.665Zm4.416-5.34375a3.01944,3.01944,0,0,0-.85254-.1084,13.03361,13.03361,0,0,0-5.55469,1.80273,15.0287,15.0287,0,0,0-4.01514,3.02344L9.29492,212.834a28.9903,28.9903,0,0,0,6.97754.55078,29.125,29.125,0,0,0,6.97168-.54785Zm27.43848-49.14648c-.29687.19531-.91895.60645-1.10352.50391-.03613-.01953-.35449-.2373-.35449-1.83008h-1c0,.28864.01276.54462.0321.7851l-.16687.19244c-1.04687,1.22754-1.37207,1.35254-1.48926,1.30762-.00391-.001-.40332-.208-.40332-2.33594h-1c0,.44971.0191.84247.05316,1.19489l-.23383.21918a8.87906,8.87906,0,0,1-1.57129,1.32227c-.07227-.06641-.31055-.46094-.31055-2.73633h-1a17.19658,17.19658,0,0,0,.08722,1.92889,7.24716,7.24716,0,0,0-3.36359-.56757l-.37793.00293c-.73535,0-1.38672-.00391-1.96582-.00684-4.14551-.02734-4.89258-.0293-5.67676,1.81348-.73541,1.7276-2.78143,5.83533-6.16345,7.66284-1.05945-1.39758-1.19415-4.50623-1.14563-5.66675l-.04785-.52148c-.02057-1.2995.15375-5.01746,2.61676-6.62488a3.04747,3.04747,0,0,0-.09381-5.91809l-6.57581-2.4743c4.3653-.69373,6.21991-2.02045,6.756-2.49188a3.04565,3.04565,0,0,0-.18018-5.89124L17.6925,168.5687c5.132-.81512,6.79327-2.50867,6.92468-2.6521a3.048,3.048,0,0,0-.34961-5.83948l-6.57477-2.47351c4.36023-.69324,6.21533-2.01837,6.75336-2.49121a3.0463,3.0463,0,0,0-.17859-5.8927l-6.57477-2.47351c4.36023-.69324,6.21533-2.01837,6.75336-2.49121a3.04567,3.04567,0,0,0-.17859-5.89172l-6.57544-2.47437c4.66888-.74207,6.46527-2.20856,6.84937-2.57666a3.04631,3.04631,0,0,0-.27393-5.863l-6.57465-2.47382c4.361-.69275,6.21582-2.01807,6.75354-2.491a3.046,3.046,0,0,0-.17889-5.89215l-6.57477-2.47388c4.361-.693,6.21582-2.018,6.7536-2.49091a3.046,3.046,0,0,0-.17883-5.89215l-6.5744-2.47394c4.54828-.72278,6.37457-2.13654,6.82007-2.54968a3.04579,3.04579,0,0,0-.24567-5.8714l-6.57465-2.47388c4.361-.693,6.2157-2.018,6.75348-2.49091a3.046,3.046,0,0,0-.17883-5.89215l-6.5744-2.47394c4.36072-.693,6.21545-2.01794,6.75323-2.49084a3.04631,3.04631,0,0,0-.17883-5.89264L17.693,70.65216c4.36316-.693,6.21765-2.019,6.75427-2.49121a3.046,3.046,0,0,0-.17969-5.89191l-8.93439-3.36169c.15637-.17841.315-.36218.46759-.5343,1.98584-2.23682,3.70117-4.169,3.70117-9.11328a13.9894,13.9894,0,0,1,1.53534-4.889c3.22113,2.3847,7.26978,6.973,8.06427,8.83673.70313,1.6499,1.375,1.81934,4.48242,1.81934.36426,0,.76172-.00244,1.19629-.00488.5791-.00342,1.22949-.00732,1.96387-.00732l.377.00293a7.17356,7.17356,0,0,0,3.3645-.5672,17.17556,17.17556,0,0,0-.08716,1.92853h1a7.02527,7.02527,0,0,1,.25488-2.71582,6.378,6.378,0,0,1,1.627,1.30225l.23376.21918c-.034.35229-.0531.74487-.0531,1.1944h1c0-2.12793.39941-2.335.4043-2.33643.10449-.0332.44238.081,1.49023,1.30908l.165.19135c-.01935.2406-.03217.49683-.03217.78571h1c0-1.59277.31836-1.81006.35449-1.82959.18164-.09717.80664.30811,1.10449.50439.035.02313.06763.04291.10205.06549a5.27007,5.27007,0,0,0-.76709,2.97845A5.45369,5.45369,0,0,0,48.9915,60.959l-.04413.02832c-.29785.1958-.91992.605-1.10449.50439-.03613-.01953-.35449-.23682-.35449-1.82959h-1c0,.28888.01276.5451.03217.78571l-.165.19135c-1.04785,1.22852-1.38379,1.34863-1.49023,1.30908-.00488-.00146-.4043-.2085-.4043-2.33643h-1c0,.44946.0191.842.0531,1.19421l-.23376.21887a8.80909,8.80909,0,0,1-1.57129,1.32275l-.00732-.00934.04639-.04437c-.037-.0387-.08472-.06525-.12421-.10114a8.56742,8.56742,0,0,1-.2254-2.581h-1a16.9683,16.9683,0,0,0,.09021,1.9574,12.42578,12.42578,0,0,0-3.9613-.26648c-.4082.01465-.79687.0293-1.14551.0293l-.2793-.00244c-1.12891-.01758-3.4834-.04443-4.91895,1.37256A4.35612,4.35612,0,0,0,29,65.93457l-.01367,114.30762a4.35238,4.35238,0,0,0,1.18262,3.22852c1.44043,1.4209,3.79883,1.38574,4.93457,1.377l.27832-.00293c.34863,0,.7373.01465,1.14453.0293.48047.01758.97559.03613,1.4668.03613a8.50378,8.50378,0,0,0,2.49475-.29565,17.02115,17.02115,0,0,0-.08948,1.95093h1a10.203,10.203,0,0,1,.1972-2.5509c.05048-.04431.10583-.08307.1524-.13171l-.00751-.0072a8.60069,8.60069,0,0,1,1.54071,1.27673l.23279.21881c-.034.35223-.0531.74475-.0531,1.19427h1c0-2.12793.39941-2.335.4043-2.33691.10449-.02832.44238.082,1.48926,1.30957l.16589.19141c-.01935.24048-.0321.49646-.0321.78516h1c0-1.59277.31836-1.80957.35449-1.8291.18164-.09668.80664.30762,1.10449.50488l.0437.028a5.45617,5.45617,0,0,0-.70874,2.9115,5.26679,5.26679,0,0,0,.76746,2.97858c-.03491.0228-.06793.04282-.10339.06625Zm1.12109-.47656c-.20215,0-.78516-.88281-.78516-2.56836s.583-2.56934.78516-2.56934c.20117,0,.78418.88379.78418,2.56934s-.583,2.56839-.78416,2.56839Z"
          />
    <path d="M12.70833,221.16251h0a.1.1,0,0,1,.1.1v1.6a.1.1,0,0,1-.1.1h0a.1.1,0,0,1-.1-.1v-1.6A.1.1,0,0,1,12.70833,221.16251Z"
          />
    <path d="M19.38624,221.835h0a.1.1,0,0,1,.00326.14139l-1.105,1.15714a.1.1,0,0,1-.14139.00326h0a.1.1,0,0,1-.00326-.14139l1.105-1.15714A.1.1,0,0,1,19.38624,221.835Z"
          />
    <path d="M17.94393,217.55986h0a.1.1,0,0,1,.12832.05946l.55082,1.50219a.1.1,0,0,1-.05946.12832h0a.1.1,0,0,1-.12832-.05946l-.55082-1.50219A.1.1,0,0,1,17.94393,217.55986Z"
          />
    <path d="M21.33833,219.25684h0a.1.1,0,0,1,.05566.13l-.59481,1.48532a.1.1,0,0,1-.13.05566h0a.1.1,0,0,1-.05566-.13l.59481-1.48532A.1.1,0,0,1,21.33833,219.25684Z"
          />
    <path d="M23.59509,221.81641h0a.1.1,0,0,1-.06514.12554l-1.5253.48314a.1.1,0,0,1-.12554-.06514h0a.1.1,0,0,1,.06514-.12554l1.5253-.48314A.1.1,0,0,1,23.59509,221.81641Z"
          />
    <path d="M14.80213,228.66h0a.1.1,0,0,1-.00363.14138l-1.16,1.102a.1.1,0,0,1-.14138-.00363h0a.1.1,0,0,1,.00363-.14138l1.16-1.102A.1.1,0,0,1,14.80213,228.66Z"
          />
    <path d="M10.96336,222.50684h0a.1.1,0,0,1,.05566.13l-.59481,1.48532a.1.1,0,0,1-.13.05566h0a.1.1,0,0,1-.05566-.13l.59481-1.48532A.1.1,0,0,1,10.96336,222.50684Z"
          />
    <path d="M19.39959,214.33817h0a.1.1,0,0,1,.1.1v1.6a.1.1,0,0,1-.1.1h0a.1.1,0,0,1-.1-.1v-1.6A.1.1,0,0,1,19.39959,214.33817Z"
          />
    <path d="M22.81845,214.38429h0a.1.1,0,0,1,.14094.01178l1.03316,1.2217a.1.1,0,0,1-.01178.14094h0a.1.1,0,0,1-.14094-.01178l-1.03316-1.2217A.1.1,0,0,1,22.81845,214.38429Z"
          />
    <path d="M12.27908,216.16013v0a.1.1,0,0,1,.11135-.0872l1.58829.19316a.1.1,0,0,1,.0872.11135v0a.1.1,0,0,1-.11135.0872l-1.58829-.19316A.1.1,0,0,1,12.27908,216.16013Z"
          />
    <path d="M10.58618,218.42032h0a.1.1,0,0,1,.13959.02272l.93493,1.29841a.1.1,0,0,1-.02272.13959h0a.1.1,0,0,1-.13959-.02272l-.93493-1.29841A.1.1,0,0,1,10.58618,218.42032Z"
          />
    <path d="M20.48043,231.477h0a.1.1,0,0,1,.05566.13l-.59481,1.48532a.1.1,0,0,1-.13.05566h0a.1.1,0,0,1-.05566-.13l.59481-1.48532A.1.1,0,0,1,20.48043,231.477Z"
          />
    <path d="M11.32587,231.08508h0a.1.1,0,0,1,.01363.14077L10.3224,232.461a.1.1,0,0,1-.14077.01363h0a.1.1,0,0,1-.01363-.14077l1.01709-1.23511A.1.1,0,0,1,11.32587,231.08508Z"
          />
    <path d="M11.75759,229.2164h0a.1.1,0,0,1-.06514.12554l-1.5253.48314a.1.1,0,0,1-.12554-.06514h0a.1.1,0,0,1,.06514-.12554l1.5253-.48314A.1.1,0,0,1,11.75759,229.2164Z"
          />
    <path d="M16.71845,229.21344h0a.1.1,0,0,1,.14094.01178l1.03316,1.2217a.1.1,0,0,1-.01178.14094h0a.1.1,0,0,1-.14094-.01178l-1.03316-1.2217A.1.1,0,0,1,16.71845,229.21344Z"
          />
    <path d="M22.59474,226.34448h0a.1.1,0,0,1,.00326.14139L21.493,227.643a.1.1,0,0,1-.14139.00326h0a.1.1,0,0,1-.00326-.14139l1.105-1.15715A.1.1,0,0,1,22.59474,226.34448Z"
          />
    <path d="M14.28119,223.7295v0a.1.1,0,0,1,.11135-.0872l1.58829.19316a.1.1,0,0,1,.0872.11135v0a.1.1,0,0,1-.11135.0872l-1.58829-.19316A.1.1,0,0,1,14.28119,223.7295Z"
          />
    <path d="M23.59508,216.1289h0a.1.1,0,0,1-.06514.12554l-1.5253.48314a.1.1,0,0,1-.12554-.06514h0a.1.1,0,0,1,.06514-.12554l1.5253-.48314A.1.1,0,0,1,23.59508,216.1289Z"
          />
    <path d="M22.4549,212.53661h0a.1.1,0,0,1,.00326.14139l-1.105,1.15714a.1.1,0,0,1-.14139.00326h0a.1.1,0,0,1-.00326-.14139l1.105-1.15714A.1.1,0,0,1,22.4549,212.53661Z"
          />
    <path d="M16.33717,217.36839h0a.1.1,0,0,1,.03877.136l-.77792,1.39815a.1.1,0,0,1-.136.03877h0a.1.1,0,0,1-.03877-.136l.77792-1.39815A.1.1,0,0,1,16.33717,217.36839Z"
          />
    <path d="M20.55645,236.0835h0a.1.1,0,0,1-.13914.02536l-1.31586-.91018a.1.1,0,0,1-.02536-.13914h0a.1.1,0,0,1,.13914-.02536l1.31586.91018A.1.1,0,0,1,20.55645,236.0835Z"
          />
    <path d="M13.27574,233.19466h0a.1.1,0,0,1,.05566.13L12.73657,234.81a.1.1,0,0,1-.13.05566h0a.1.1,0,0,1-.05566-.13l.59481-1.48532A.1.1,0,0,1,13.27574,233.19466Z"
          />
    <path d="M22.36566,224.62191h0a.1.1,0,0,1-.11758.0786l-1.56931-.31181a.1.1,0,0,1-.0786-.11758h0a.1.1,0,0,1,.11758-.0786l1.56931.31181A.1.1,0,0,1,22.36566,224.62191Z"
          />
    <path d="M15.56626,231.44234h0a.1.1,0,0,1,.1.1v1.6a.1.1,0,0,1-.1.1h0a.1.1,0,0,1-.1-.1v-1.6A.1.1,0,0,1,15.56626,231.44234Z"
          />
    <path d="M9.758,215.03088h0a.1.1,0,0,1,.03877.136L9.01885,216.565a.1.1,0,0,1-.136.03877h0a.1.1,0,0,1-.03877-.136l.77792-1.39815A.1.1,0,0,1,9.758,215.03088Z"
          />
    <path d="M12.80642,213.95837h0a.1.1,0,0,1-.05115.13186l-1.464.64558a.1.1,0,0,1-.13186-.05115h0a.1.1,0,0,1,.05115-.13186l1.464-.64558A.1.1,0,0,1,12.80642,213.95837Z"
          />
    <path d="M16.76206,215.30907h0a.1.1,0,0,1-.14075.01389l-1.237-1.01481a.1.1,0,0,1-.01389-.14075h0a.1.1,0,0,1,.14075-.01389l1.237,1.01481A.1.1,0,0,1,16.76206,215.30907Z"
          />
    <path d="M22.87021,230.55945h0a.1.1,0,0,1-.13429.04438l-1.42922-.71925a.1.1,0,0,1-.04438-.13429h0a.1.1,0,0,1,.13429-.04438l1.42922.71925A.1.1,0,0,1,22.87021,230.55945Z"
          />
    <path d="M13.16956,226.35437v0a.1.1,0,0,1-.09065.10856l-1.59357.14324a.1.1,0,0,1-.10856-.09065v0a.1.1,0,0,1,.09065-.10856l1.59357-.14324A.1.1,0,0,1,13.16956,226.35437Z"
          />
    <path d="M18.1428,226.00858h0a.1.1,0,0,1,.0913.108l-.13363,1.59441a.1.1,0,0,1-.108.0913h0a.1.1,0,0,1-.0913-.108l.13363-1.59441A.1.1,0,0,1,18.1428,226.00858Z"
          />
    <path d="M16.46791,221.2985h0a.1.1,0,0,1-.0388.136l-1.39836.77754a.1.1,0,0,1-.136-.0388h0a.1.1,0,0,1,.0388-.136l1.39836-.77754A.1.1,0,0,1,16.46791,221.2985Z"
          />
    <path d="M22.62881,233.72824h0a.1.1,0,0,1-.06514.12554l-1.5253.48314a.1.1,0,0,1-.12554-.06514h0a.1.1,0,0,1,.06514-.12554l1.5253-.48314A.1.1,0,0,1,22.62881,233.72824Z"
          />
    <path d="M20.72218,241.50812h0a.1.1,0,0,1,.01151.141l-1.03555,1.21966a.1.1,0,0,1-.141.01151h0a.1.1,0,0,1-.01151-.141l1.03555-1.21966A.1.1,0,0,1,20.72218,241.50812Z"
          />
    <path d="M17.58457,234.852h0a.1.1,0,0,1,.05566.13l-.59481,1.4853a.1.1,0,0,1-.13.05566h0a.1.1,0,0,1-.05566-.13l.59481-1.4853A.1.1,0,0,1,17.58457,234.852Z"
          />
    <path d="M12.05177,235.50513h0a.1.1,0,0,1,.14094.01178l1.03315,1.22169a.1.1,0,0,1-.01178.14094h0a.1.1,0,0,1-.14094-.01178L12.04,235.64607A.1.1,0,0,1,12.05177,235.50513Z"
          />
    <path d="M15.78439,238.50894h0a.1.1,0,0,1-.13214-.05041l-.65376-1.46031a.1.1,0,0,1,.05041-.13214h0a.1.1,0,0,1,.13214.05041l.65376,1.46031A.1.1,0,0,1,15.78439,238.50894Z"
          />
    <path d="M15.60632,243.50525h0a.1.1,0,0,1,.07094.12235l-.41127,1.54621a.1.1,0,0,1-.12235.07094h0a.1.1,0,0,1-.07094-.12235l.41127-1.54621A.1.1,0,0,1,15.60632,243.50525Z"
          />
    <path d="M15.13727,242.34211h0a.1.1,0,0,1-.13429.04438l-1.4292-.71924a.1.1,0,0,1-.04438-.13429h0a.1.1,0,0,1,.13429-.04438l1.4292.71924A.1.1,0,0,1,15.13727,242.34211Z"
          />
    <path d="M21.108,237.83239h0a.1.1,0,0,1-.06514.12554l-1.52529.48313a.1.1,0,0,1-.12554-.06514h0a.1.1,0,0,1,.06514-.12554l1.52529-.48313A.1.1,0,0,1,21.108,237.83239Z"
          />
    <path d="M13.1,238.67084h0a.1.1,0,0,1,.1.1v1.6a.1.1,0,0,1-.1.1h0a.1.1,0,0,1-.1-.1v-1.6A.1.1,0,0,1,13.1,238.67084Z"
          />
    <path d="M17.38512,240.3801h0a.1.1,0,0,1,.14094.01178l1.03316,1.22168a.1.1,0,0,1-.01178.14094h0a.1.1,0,0,1-.14094-.01178L17.37334,240.521A.1.1,0,0,1,17.38512,240.3801Z"
          />
    <path d="M12.05805,242.18424h0a.1.1,0,0,1,.00326.14139l-1.105,1.15713a.1.1,0,0,1-.14139.00326h0a.1.1,0,0,1-.00326-.14139l1.105-1.15713A.1.1,0,0,1,12.05805,242.18424Z"
          />
    <path d="M12.04166,9.725h0a.1.1,0,0,1,.1.1v1.6a.1.1,0,0,1-.1.1h0a.1.1,0,0,1-.1-.1v-1.6A.1.1,0,0,1,12.04166,9.725Z"
          />
    <path d="M17.67414,12.24265h0a.1.1,0,0,1,.00327.14139l-1.105,1.15715a.1.1,0,0,1-.14139.00325h0a.1.1,0,0,1-.00327-.14139l1.105-1.15715A.1.1,0,0,1,17.67414,12.24265Z"
          />
    <path d="M16.23129,7.96779h0a.1.1,0,0,1,.12832.05946l.55082,1.50219a.1.1,0,0,1-.05947.12832h0a.1.1,0,0,1-.12832-.05946L16.17182,8.0961A.1.1,0,0,1,16.23129,7.96779Z"
          />
    <path d="M19.62627,9.6645h0a.1.1,0,0,1,.05566.13l-.59481,1.48533a.1.1,0,0,1-.13.05565h0a.1.1,0,0,1-.05566-.13l.59481-1.48533A.1.1,0,0,1,19.62627,9.6645Z"
          />
    <path d="M21.883,12.22407h0a.1.1,0,0,1-.06513.12553l-1.52531.48314a.1.1,0,0,1-.12553-.06514h0a.1.1,0,0,1,.06513-.12553l1.52531-.48314A.1.1,0,0,1,21.883,12.22407Z"
          />
    <path d="M12.62674,18.23375h0a.1.1,0,0,1-.01227.14089l-1.22532,1.02889a.1.1,0,0,1-.14089-.01228h0a.1.1,0,0,1,.01227-.14089l1.22532-1.02889A.1.1,0,0,1,12.62674,18.23375Z"
          />
    <path d="M9.25126,12.9145h0a.1.1,0,0,1,.05566.13L8.7121,14.52984a.1.1,0,0,1-.13.05565h0a.1.1,0,0,1-.05566-.13l.59481-1.48533A.1.1,0,0,1,9.25126,12.9145Z"
          />
    <path d="M17.6875,4.74584h0a.1.1,0,0,1,.1.1v1.6a.1.1,0,0,1-.1.1h0a.1.1,0,0,1-.1-.1v-1.6A.1.1,0,0,1,17.6875,4.74584Z"
          />
    <path d="M21.10634,4.792h0a.1.1,0,0,1,.14093.01178l1.03317,1.2217a.1.1,0,0,1-.01179.14093h0a.1.1,0,0,1-.14093-.01178L21.09455,4.9329A.1.1,0,0,1,21.10634,4.792Z"
          />
    <path d="M10.567,6.5678v0a.1.1,0,0,1,.11134-.0872l1.5883.19316a.1.1,0,0,1,.0872.11135v0a.1.1,0,0,1-.11134.0872l-1.5883-.19316A.1.1,0,0,1,10.567,6.5678Z"
          />
    <path d="M8.8741,8.828h0a.1.1,0,0,1,.13959.02271l.93494,1.29842a.1.1,0,0,1-.02272.13959h0a.1.1,0,0,1-.13959-.02271L8.85138,8.96756A.1.1,0,0,1,8.8741,8.828Z"
          />
    <path d="M17.77208,22.14368h0a.1.1,0,0,1,.05566.13L17.23291,23.759a.1.1,0,0,1-.13.05565h0a.1.1,0,0,1-.05566-.13l.59482-1.48533A.1.1,0,0,1,17.77208,22.14368Z"
          />
    <path d="M9.70006,21.5739h0a.1.1,0,0,1-.005.14134L8.5246,22.80608a.1.1,0,0,1-.14134-.005h0a.1.1,0,0,1,.005-.14134l1.17049-1.09086A.1.1,0,0,1,9.70006,21.5739Z"
          />
    <path d="M10.04549,19.62407h0a.1.1,0,0,1-.06513.12553L8.455,20.23272a.1.1,0,0,1-.12553-.06514h0a.1.1,0,0,1,.06513-.12553L9.92,19.55893A.1.1,0,0,1,10.04549,19.62407Z"
          />
    <path d="M15.00562,19.62106h0a.1.1,0,0,1,.14093.01178l1.03317,1.2217a.1.1,0,0,1-.01179.14093h0a.1.1,0,0,1-.14093-.01178L14.99383,19.762A.1.1,0,0,1,15.00562,19.62106Z"
          />
    <path d="M20.88266,16.75215h0a.1.1,0,0,1,.00327.14139l-1.105,1.15715a.1.1,0,0,1-.14139.00325h0a.1.1,0,0,1-.00327-.14139l1.105-1.15715A.1.1,0,0,1,20.88266,16.75215Z"
          />
    <path d="M12.56909,14.13716v0a.1.1,0,0,1,.11134-.0872l1.5883.19316a.1.1,0,0,1,.08719.11135v0a.1.1,0,0,1-.11134.0872l-1.5883-.19316A.1.1,0,0,1,12.56909,14.13716Z"
          />
    <path d="M21.883,6.53658h0a.1.1,0,0,1-.06513.12553l-1.52531.48314A.1.1,0,0,1,20.167,7.0801h0a.1.1,0,0,1,.06513-.12553l1.52531-.48314A.1.1,0,0,1,21.883,6.53658Z"
          />
    <path d="M14.16323,25.22409h0a.1.1,0,0,1,.00327.14139l-1.105,1.15715a.1.1,0,0,1-.14139.00325h0a.1.1,0,0,1-.00327-.14139l1.105-1.15715A.1.1,0,0,1,14.16323,25.22409Z"
          />
    <path d="M14.62508,7.776h0a.1.1,0,0,1,.03877.136l-.77792,1.39815a.1.1,0,0,1-.136.03876h0a.1.1,0,0,1-.03877-.136l.77792-1.39815A.1.1,0,0,1,14.62508,7.776Z"
          />
    <path d="M18.84433,26.49115h0a.1.1,0,0,1-.13913.02536l-1.31588-.9102a.1.1,0,0,1-.02535-.13913h0a.1.1,0,0,1,.13913-.02536l1.31588.9102A.1.1,0,0,1,18.84433,26.49115Z"
          />
    <path d="M11.56376,23.602h0a.1.1,0,0,1,.05566.13l-.59481,1.48533a.1.1,0,0,1-.13.05565h0a.1.1,0,0,1-.05566-.13l.59481-1.48533A.1.1,0,0,1,11.56376,23.602Z"
          />
    <path d="M20.65358,15.02958h0a.1.1,0,0,1-.11757.0786l-1.56932-.31182a.1.1,0,0,1-.07859-.11758h0a.1.1,0,0,1,.11757-.0786L20.575,14.912A.1.1,0,0,1,20.65358,15.02958Z"
          />
    <path d="M13.85416,21.85h0a.1.1,0,0,1,.1.1v1.6a.1.1,0,0,1-.1.1h0a.1.1,0,0,1-.1-.1v-1.6A.1.1,0,0,1,13.85416,21.85Z"
          />
    <path d="M8.04593,5.43855h0a.1.1,0,0,1,.03877.136L7.30676,6.9727a.1.1,0,0,1-.136.03876h0a.1.1,0,0,1-.03877-.136l.77792-1.39815A.1.1,0,0,1,8.04593,5.43855Z"
          />
    <path d="M11.09432,4.366h0a.1.1,0,0,1-.05115.13185l-1.464.64558a.1.1,0,0,1-.13185-.05115h0a.1.1,0,0,1,.05115-.13185l1.464-.64558A.1.1,0,0,1,11.09432,4.366Z"
          />
    <path d="M15.05,5.7167h0a.1.1,0,0,1-.14074.01389l-1.237-1.01482a.1.1,0,0,1-.01388-.14074h0a.1.1,0,0,1,.14074-.01389L15.0361,5.576A.1.1,0,0,1,15.05,5.7167Z"
          />
    <path d="M21.15812,20.96709h0a.1.1,0,0,1-.13428.04438l-1.42923-.71925a.1.1,0,0,1-.04437-.13428h0a.1.1,0,0,1,.13428-.04438l1.42923.71925A.1.1,0,0,1,21.15812,20.96709Z"
          />
    <path d="M11.45747,16.762v0a.1.1,0,0,1-.09064.10856l-1.59358.14324a.1.1,0,0,1-.10855-.09065v0a.1.1,0,0,1,.09064-.10856l1.59358-.14324A.1.1,0,0,1,11.45747,16.762Z"
          />
    <path d="M16.42935,16.41563h0a.1.1,0,0,1,.0913.108L16.387,18.118a.1.1,0,0,1-.108.0913h0a.1.1,0,0,1-.0913-.108l.13364-1.59441A.1.1,0,0,1,16.42935,16.41563Z"
          />
    <path d="M14.75583,11.70618h0a.1.1,0,0,1-.0388.136l-1.39837.77754a.1.1,0,0,1-.136-.03881h0a.1.1,0,0,1,.0388-.136l1.39837-.77754A.1.1,0,0,1,14.75583,11.70618Z"
          />
    <path d="M22.28438,23.85135h0a.1.1,0,0,1-.06513.12553L20.69393,24.46a.1.1,0,0,1-.12553-.06514h0a.1.1,0,0,1,.06513-.12553l1.52531-.48314A.1.1,0,0,1,22.28438,23.85135Z"
          />
    <path d="M23.85128,15.912h0a.1.1,0,0,1,.0481.133l-.67917,1.4487a.1.1,0,0,1-.133.04809h0a.1.1,0,0,1-.0481-.133l.67917-1.4487A.1.1,0,0,1,23.85128,15.912Z"
          />
    <path d="M24.61,20.46323h0a.1.1,0,0,1,.00576.14131L23.53132,21.781a.1.1,0,0,1-.14131.00575h0a.1.1,0,0,1-.00576-.14131L24.46866,20.469A.1.1,0,0,1,24.61,20.46323Z"
          />
    <path d="M23.55175,24.87413h0a.1.1,0,0,1,.01151.141l-1.03557,1.21967a.1.1,0,0,1-.141.0115h0a.1.1,0,0,1-.01151-.141l1.03557-1.21967A.1.1,0,0,1,23.55175,24.87413Z"
          />
    <path d="M22.88509,8.5408h0a.1.1,0,0,1,.01151.141L21.861,9.90142a.1.1,0,0,1-.141.0115h0a.1.1,0,0,1-.01151-.141L22.74413,8.5523A.1.1,0,0,1,22.88509,8.5408Z"
          />
    <path d="M25.59331,11.108h0a.1.1,0,0,1-.121.07329L23.91847,10.8a.1.1,0,0,1-.07328-.121h0a.1.1,0,0,1,.121-.07329l1.55389.38134A.1.1,0,0,1,25.59331,11.108Z"
          />
    <path d="M26.19052,4.51516h0a.1.1,0,0,1-.14.02034l-1.28228-.957a.1.1,0,0,1-.02033-.14h0a.1.1,0,0,1,.14-.02034l1.28228.957A.1.1,0,0,1,26.19052,4.51516Z"
          />
    <path d="M24.73184,6.88419h0a.1.1,0,0,1,.12832.05946l.55082,1.5022a.1.1,0,0,1-.05947.12832h0a.1.1,0,0,1-.12832-.05946l-.55082-1.5022A.1.1,0,0,1,24.73184,6.88419Z"
          />
</g>
</svg>