<svg id="Clipware1" xmlns="http://www.w3.org/2000/svg" viewBox="0 0 39.81693 246.37866" width="40" height="250">
    <title>dd</title>
    <g fill="#000000" stroke-width="0.2324">
    <path d="M156.61513,52.71729c1.03906,1.50684.90234,2.28809.55078,4.2998l-4.83105,26.30078-.01465,135.75244c.01074.5127.72025,4.667,2.38138,6.71191v8.84863a2.33892,2.33892,0,0,0,.14941.65332,8.20393,8.20393,0,0,0,.72018,1.02832l1.21366-.02832a2.82468,2.82468,0,0,1-1.083-1.653v-9.23407c-1.71-1.653-2.38144-6.327-2.38144-6.327l.01422-135.66077,4.81647-26.22c.399-2.28.57007-3.363-1.02594-5.472Zm-16.26233-.99988c-1.59595,2.109-1.42493,3.42-1.026,5.70007.399,2.27991,4.61707,25.99194,4.61707,25.99194V219.07019s-.83292,4.674-2.54288,6.327c.11389,2.337,0,9.23407,0,9.23407a2.82509,2.82509,0,0,1-1.083,1.653l1.12821.02832a3.51164,3.51164,0,0,0,.811-1.02832,2.1888,2.1888,0,0,0,.14063-.57715c.00684-.32422.10449-6.3125.01855-8.94238,1.65039-2.03906,2.49857-6.14941,2.52591-6.6377l.002-135.80615-.01562-.08691s-4.21777-23.709-4.61621-25.98877c-.35645-2.0332-.47266-3.01172.55273-4.52783Z"
          transform="translate(-137.57118 -26.7229)"/>
    <path d="M153.13046,88.708a.38091.38091,0,0,1,.30762.13477,4.93332,4.93332,0,0,1,.8987,2.81494,1.00872,1.00872,0,0,0,.0791.43213c.96387,2.26416,2.45117,2.26416,6.86621,2.26416l2.43945.00488a7.48075,7.48075,0,0,0,2.72949-.42334l.973-1.69275a6.35528,6.35528,0,0,1-4.49139,1.11035c-5.95483,0-6.85034.098-7.59717-1.655,0,0-.01425-3.99-2.20534-3.99Zm-8.60095-.04134v-.95854h-.91846c-2.28987,0-2.20522,3.99-2.20522,3.99.11389,2.337,0,134.10217,0,134.10217h1.00073c.01074-13.08691.1084-131.89795-.002-134.15088-.03418-.85986.20824-2.31608.8987-2.80664a.48528.48528,0,0,1,.30762-.13477Zm11.142,137.13363a9.1227,9.1227,0,0,1,.64532-2.32745c.74689-1.75372.66092-1.50293,6.61575-1.50293a6.3543,6.3543,0,0,1,4.49139,1.10956l-.973-1.69275a7.48719,7.48719,0,0,0-2.72949-.42285l-.78906.00586c-.73437,0-2.94212-.0127-2.94212-.0127-3.002,0-3.7595.165-4.59349,2.124a13.44224,13.44224,0,0,0-.57617,1.71973ZM166.54771,99.84473a9.82219,9.82219,0,0,0-2.39062-.23877c-.49316,0-.98926.01807-1.46.03516-.40137.01514-.7832.0293-1.127.0293l-.708-.00586c-5.10254,0-6.17383,2.77783-6.17383,5.1084l-.01367,105.77686a4.544,4.544,0,0,0,2.457,4.38965,8.31746,8.31746,0,0,0,3.72852.71875l.71-.00586c.34375,0,.72559.01465,1.12793.0293.4707.01758.96777.03516,1.46094.03516a9.8588,9.8588,0,0,0,2.38867-.23828l1.02765-1.63324c-1.16071,1.21106-4.13812.80731-6.00531.80731-1.41016,0-5.89545.34125-5.89545-4.10248l.01373-105.77722c0-4.44366,4.47156-4.10242,5.88171-4.10242,1.86719,0,4.8446-.40375,6.00531.80731Z"
          transform="translate(-137.57118 -26.7229)"/>
    <path d="M148.75966,26.72292c-4.49219,0-11.17676.76172-11.17676,2.86035,0,.64063.62207,1.06641,1.15234,1.35742a.82978.82978,0,0,1,.085.40479l1.13867,20.55811c0,1.79053,7.90039,1.84229,8.80078,1.84229s8.80078-.05176,8.7998-1.82031l1.13965-20.62939c-.00391-.06006.00781-.30029.12988-.37793.60547-.38818,1.10742-.75684,1.10742-1.335C159.93642,27.48464,153.25185,26.72292,148.75966,26.72292Zm9.5293,3.35352a1.405,1.405,0,0,0-.59082,1.20166l-1.13086,20.47852c-.62891.48633-3.69238.98926-7.80762.98926-4.12988,0-7.19531-.51172-7.80957-1.00439L139.81825,31.2903a1.56339,1.56339,0,0,0-.36035-1.04053,1,1,0,0,0-.24121-.18555c-.56348-.30908-.62988-.47266-.63477-.49023.22754-.74463,4.30566-1.85107,10.17773-1.85107s9.9502,1.10645,10.17773,1.86768A3.13952,3.13952,0,0,1,158.289,30.07643Z"
          transform="translate(-137.57118 -26.7229)"/>
    <path d="M148.75948,26.72292c-4.6944,0-8.49982.76111-8.49982,1.7s3.80542,1.7,8.49982,1.7,8.50018-.76117,8.50018-1.7S153.45393,26.72292,148.75948,26.72292Zm.00006,2.40021a26.34994,26.34994,0,0,1-6.75293-.7002,32.91391,32.91391,0,0,1,13.50586,0A26.34994,26.34994,0,0,1,148.75954,29.12313Z"
          transform="translate(-137.57118 -26.7229)"/>
    <path d="M140.288,236.80218l2.152,22.63138c0,.60754,3.02748,1.1,6.41225,1.1s6.12878-.49249,6.12878-1.1l1.96675-22.4276c.12338-1.06846-.53419-.99874-.53419-.99874a29.18016,29.18016,0,0,1-7.79963.77747c-3.71,0-6.86254-.359-8.006-.85846C140.608,235.92623,140.16107,236.04186,140.288,236.80218Zm13.72942,22.17874a18.20783,18.20783,0,0,1-5.165.55273,20.85757,20.85757,0,0,1-5.45534-.55469l-2.06322-21.80176a31.96051,31.96051,0,0,0,7.28027.60742,31.77478,31.77478,0,0,0,7.31445-.60254Z"
          transform="translate(-137.57118 -26.7229)"/>
    <path d="M153.39,263.86621a1.33138,1.33138,0,0,0-1.02441-.38965c-1.2998,0-3.42187,1.1875-5.40625,3.02441-2.373,2.19824-4.207,5.03711-3.12109,6.21a1.33328,1.33328,0,0,0,1.02686.39063c1.29932,0,3.42041-1.1875,5.40381-3.02441C152.64191,267.88086,154.47687,265.042,153.39,263.86621Zm-3.80078,5.47656c-2.0459,1.89551-3.8833,2.75879-4.72412,2.75879-.06885,0-.23486-.00684-.292-.06934-.29248-.31543.39893-2.32715,3.06592-4.79785,2.04688-1.89453,3.88477-2.75781,4.72656-2.75781.06836,0,.2334.00684.29.06836C152.94757,264.86133,152.25714,266.875,149.58917,269.34277Z"
          transform="translate(-137.57118 -26.7229)"/>
    <rect x="5.94674" y="198.1521" width="1" height="47"/>
    <rect x="15.13942" y="198.1521" width="1" height="40"/>
    <path d="M174.49352,99.40625c-.06348.041-.12793.084-.19336.127-.14941.09863-1.0058.56055-1.13724.35156a5.21623,5.21623,0,0,1-.11328-1.25879l-.99963.00012c0,3.98615,2.48459,1.765,3.44333,1.36224Zm.99982-5.47736c-.95874-.40381-3.44333-2.62415-3.44333,1.36261l.99963.00049a5.2212,5.2212,0,0,1,.11328-1.26172c.06894-.21777.98685.25391,1.13724.35352.06543.043.12988.08594.19336.127Z"
          transform="translate(-137.57118 -26.7229)"/>
    <path d="M173.09167,94.282c-.85785-.95868-3.87823-3.98657-3.87823,1.0589l1.00012-.00012a7.59017,7.59017,0,0,1,.13672-1.665c.06686-.26953,1.54375.748,1.72735.96289Zm-1.00037,4.98065-.01465.0166c-.17773.208-1.56576,1.252-1.73125.94043a7.71393,7.71393,0,0,1-.13184-1.64453l-1.00012-.00049c0,5.04645,3.02038,2.01782,3.87823,1.06024Z"
          transform="translate(-137.57118 -26.7229)"/>
    <path d="M169.26337,99.55469l-.07227.06836c-.30957.291-1.68242,1.0957-1.80059.86523a15.19151,15.19151,0,0,1-.08984-1.91309l-1.00024-.00049c0,4.6189,1.743,3.48273,3.96337,1.41364Zm1.00043-5.62579c-2.2204-2.06891-3.96337-3.20605-3.96337,1.412l1.00024-.00012a15.19631,15.19631,0,0,1,.08984-1.91211c.05566-.36621,1.48907.57227,1.79864.86328l.07422.07031Zm-1.07465.3631"
          transform="translate(-137.57118 -26.7229)"/>
    <path d="M175.63811,93.625c-.96649,0-1.75,1.49243-1.75,3.33337s.78351,3.33344,1.75,3.33344,1.75-1.49243,1.75-3.33344S176.6046,93.625,175.63811,93.625Zm0,5.66406a2.9258,2.9258,0,0,1-.75-2.33057c0-1.46436.55273-2.27441.7627-2.335a2.974,2.974,0,0,1,.7373,2.335A2.9258,2.9258,0,0,1,175.63811,99.28906Z"
          transform="translate(-137.57118 -26.7229)"/>
    <path d="M174.49352,220.94775c-.06348.041-.12793.084-.19336.127-.14941.09863-1.0058.56055-1.13724.35156a5.21623,5.21623,0,0,1-.11328-1.25879l-.99963.00012c0,3.98615,2.48459,1.765,3.44333,1.36224Zm.99982-5.47736c-.95874-.40381-3.44333-2.62415-3.44333,1.36261l.99963.00049a5.2212,5.2212,0,0,1,.11328-1.26172c.06894-.21777.98685.25391,1.13724.35352.06543.043.12988.08594.19336.127Z"
          transform="translate(-137.57118 -26.7229)"/>
    <path d="M173.09167,215.82355c-.85785-.95868-3.87823-3.98657-3.87823,1.0589l1.00012-.00012a7.59016,7.59016,0,0,1,.13672-1.665c.06686-.26953,1.54375.748,1.72735.96289Zm-1.00037,4.98065-.01465.0166c-.17773.208-1.56576,1.252-1.73125.94043a7.71393,7.71393,0,0,1-.13184-1.64453l-1.00012-.00049c0,5.04645,3.02038,2.01782,3.87823,1.06024Z"
          transform="translate(-137.57118 -26.7229)"/>
    <path d="M169.26337,221.09619l-.07227.06836c-.30957.291-1.68242,1.0957-1.80059.86523a15.19151,15.19151,0,0,1-.08984-1.91309l-1.00024-.00049c0,4.6189,1.743,3.48273,3.96337,1.41364Zm1.00043-5.62579c-2.2204-2.06891-3.96337-3.20605-3.96337,1.412l1.00024-.00012a15.19631,15.19631,0,0,1,.08984-1.91211c.05566-.36621,1.48907.57227,1.79864.86328l.07422.07031Zm-1.07465.3631"
          transform="translate(-137.57118 -26.7229)"/>
    <path d="M175.63811,215.1665c-.96649,0-1.75,1.49243-1.75,3.33337s.78351,3.33344,1.75,3.33344,1.75-1.49243,1.75-3.33344S176.6046,215.1665,175.63811,215.1665Zm0,5.66406a2.9258,2.9258,0,0,1-.75-2.33057c0-1.46436.55273-2.27441.7627-2.335a2.974,2.974,0,0,1,.7373,2.335A2.9258,2.9258,0,0,1,175.63811,220.83057Z"
          transform="translate(-137.57118 -26.7229)"/>
    <path d="M148.75868,26.7229c-6.17871,0-11.1875,1.28394-11.1875,2.86774s5.00879,2.86768,11.1875,2.86768,11.1875-1.28394,11.1875-2.86768S154.93739,26.7229,148.75868,26.7229Zm0,5.33569c-6.68359,0-10.78711-1.4375-10.78711-2.46777,0-1.03076,4.10352-2.46826,10.78711-2.46826s10.78711,1.4375,10.78711,2.46826C159.54579,30.62109,155.44228,32.05859,148.75868,32.05859Z"
          transform="translate(-137.57118 -26.7229)"/>
    <path d="M148.75868,50.54163c-4.75647,0-8.6123.72852-8.6123,1.62708s3.85583,1.62708,8.6123,1.62708,8.6123-.72845,8.6123-1.62708S153.51515,50.54163,148.75868,50.54163Zm0,2.85437c-5.10254,0-8.01758-.80225-8.21582-1.25146.19727-.40039,3.11328-1.20312,8.21582-1.20312s8.01855.80273,8.21582,1.252C156.77626,52.59375,153.86122,53.396,148.75868,53.396Z"
          transform="translate(-137.57118 -26.7229)"/>
    <rect x="6.22048" y="9.44377" width="0.2" height="1.8" rx="0.1" ry="0.1"/>
    <rect x="148.29167" y="38.04167" width="0.2" height="1.8" rx="0.1" ry="0.1"
          transform="translate(-69.60457 -118.42713) rotate(43.67945)"/>
    <rect x="148.29167" y="34.35417" width="0.2" height="1.8" rx="0.1" ry="0.1"
          transform="translate(-140.6373 26.51689) rotate(-20.13646)"/>
    <rect x="151.04167" y="36.04167" width="0.2" height="1.8" rx="0.1" ry="0.1"
          transform="translate(-113.00549 -80.26334) rotate(21.82405)"/>
    <rect x="152.775" y="38.0375" width="0.2" height="1.8" rx="0.1" ry="0.1"
          transform="translate(6.2611 -145.28183) rotate(72.42445)"/>
    <rect x="143.775" y="43.9125" width="0.2" height="1.8" rx="0.1" ry="0.1"
          transform="translate(5.57951 -132.60098) rotate(72.42445)"/>
    <rect x="140.66667" y="39.29167" width="0.2" height="1.8" rx="0.1" ry="0.1"
          transform="translate(-112.54085 -76.17344) rotate(21.82405)"/>
    <rect x="17.34548" y="19.50627" width="0.2" height="1.8" rx="0.1" ry="0.1"/>
    <rect x="155.5875" y="34.725" width="0.2" height="1.8" rx="0.1" ry="0.1"
          transform="translate(-123.76562 82.23186) rotate(-40.22031)"/>
    <rect x="154.5875" y="42.6" width="0.2" height="1.8" rx="0.1" ry="0.1"
          transform="translate(-44.73903 165.08215) rotate(-83.06649)"/>
    <rect x="142.7125" y="32.2875" width="0.2" height="1.8" rx="0.1" ry="0.1"
          transform="translate(-44.94404 144.22617) rotate(-83.06624)"/>
    <rect x="141.15" y="35.1" width="0.2" height="1.8" rx="0.1" ry="0.1"
          transform="translate(-131.98324 62.60034) rotate(-35.75618)"/>
    <rect x="149.97917" y="48.04167" width="0.2" height="1.8" rx="0.1" ry="0.1"
          transform="translate(-108.62055 -79.00831) rotate(21.82405)"/>
    <rect x="140.79167" y="47.72917" width="0.2" height="1.8" rx="0.1" ry="0.1"
          transform="translate(-74.52797 -105.19557) rotate(39.47073)"/>
    <rect x="154.8375" y="49.1" width="0.2" height="1.8" rx="0.1" ry="0.1"
          transform="translate(18.2469 -139.52601) rotate(72.42445)"/>
    <rect x="147.3375" y="45.85" width="0.2" height="1.8" rx="0.1" ry="0.1"
          transform="translate(-132.89992 79.53491) rotate(-40.22031)"/>
    <rect x="150.60417" y="43.22917" width="0.2" height="1.8" rx="0.1" ry="0.1"
          transform="translate(-65.3819 -118.58837) rotate(43.67945)"/>
    <rect x="145.2125" y="39.7875" width="0.2" height="1.8" rx="0.1" ry="0.1"
          transform="translate(-50.19036 153.30273) rotate(-83.0665)"/>
    <rect x="152.775" y="32.35" width="0.2" height="1.8" rx="0.1" ry="0.1"
          transform="translate(0.8391 -149.25191) rotate(72.42445)"/>
    <rect x="145.29167" y="51.41667" width="0.2" height="1.8" rx="0.1" ry="0.1"
          transform="translate(-61.19784 -112.65326) rotate(43.67945)"/>
    <rect x="145.85417" y="32.10417" width="0.2" height="1.8" rx="0.1" ry="0.1"
          transform="translate(-103.11138 -93.52305) rotate(29.09153)"/>
    <rect x="152.10417" y="51.60417" width="0.2" height="1.8" rx="0.1" ry="0.1"
          transform="translate(144.39849 -69.52723) rotate(124.67162)"/>
    <rect x="142.97917" y="49.97917" width="0.2" height="1.8" rx="0.1" ry="0.1"
          transform="translate(-108.40196 -76.26715) rotate(21.82405)"/>
    <rect x="149.85417" y="40.97917" width="0.2" height="1.8" rx="0.1" ry="0.1"
          transform="translate(82.68314 -123.76099) rotate(101.23807)"/>
    <rect x="8.03298" y="21.56877" width="0.2" height="1.8" rx="0.1" ry="0.1"/>
    <rect x="157.3375" y="32.7875" width="0.2" height="1.8" rx="0.1" ry="0.1"
          transform="translate(-140.25303 23.7934) rotate(-18.07752)"/>
    <rect x="156.80318" y="40.57904" width="0.2" height="1.8" rx="0.1" ry="0.1"
          transform="matrix(0.30486, -0.9524, 0.9524, 0.30486, -68.00544, 151.54536)"/>
    <rect x="140.775" y="30.1" width="0.2" height="1.8" rx="0.1" ry="0.1"
          transform="translate(-104.72658 -91.30636) rotate(29.09153)"/>
    <rect x="150.9625" y="29.5375" width="0.2" height="1.8" rx="0.1" ry="0.1"
          transform="translate(-19.61146 -146.78632) rotate(66.20331)"/>
    <rect x="145.775" y="29.4125" width="0.2" height="1.8" rx="0.1" ry="0.1"
          transform="translate(124.26193 -89.96295) rotate(129.36527)"/>
    <rect x="151.26942" y="26.9051" width="0.2" height="1.8" rx="0.1" ry="0.1"
          transform="translate(106.68076 -121.63154) rotate(116.71358)"/>
    <rect x="146.39442" y="27.7176" width="0.2" height="1.8" rx="0.1" ry="0.1"
          transform="translate(24.30956 -146.57363) rotate(84.86316)"/>
    <rect x="157.275" y="29.6" width="0.2" height="1.8" rx="0.1" ry="0.1"
          transform="translate(90.73744 -139.97811) rotate(105.29506)"/>
    <rect x="8.43299" y="216.35626" width="0.2" height="1.8" rx="0.1" ry="0.1"/>
    <rect x="150.50417" y="244.95416" width="0.2" height="1.8" rx="0.1" ry="0.1"
          transform="translate(73.90554 -62.68502) rotate(43.67928)"/>
    <rect x="150.50417" y="241.26666" width="0.2" height="1.8" rx="0.1" ry="0.1"
          transform="translate(-211.73419 39.92731) rotate(-20.13679)"/>
    <rect x="153.25417" y="242.95416" width="0.2" height="1.8" rx="0.1" ry="0.1"
          transform="translate(-35.92515 -66.2565) rotate(21.82415)"/>
    <rect x="154.9875" y="244.95" width="0.2" height="1.8" rx="0.1" ry="0.1"
          transform="translate(205.05924 -2.95849) rotate(72.42445)"/>
    <rect x="145.9" y="251.26666" width="0.2" height="1.8" rx="0.1" ry="0.1"
          transform="translate(204.73764 10.11407) rotate(72.42445)"/>
    <rect x="142.87917" y="246.20416" width="0.2" height="1.8" rx="0.1" ry="0.1"
          transform="translate(-35.46098 -62.1665) rotate(21.82406)"/>
    <rect x="14.07882" y="211.3771" width="0.2" height="1.8" rx="0.1" ry="0.1"/>
    <rect x="155.65" y="237.93333" width="0.2" height="1.8" rx="0.1" ry="0.1"
          transform="translate(-254.96851 130.31827) rotate(-40.22051)"/>
    <rect x="145.42289" y="239.13063" width="0.2" height="1.8" rx="0.1" ry="0.1"
          transform="translate(-247.89121 328.78939) rotate(-83.06624)"/>
    <rect x="143.3625" y="242.0125" width="0.2" height="1.8" rx="0.1" ry="0.1"
          transform="translate(-252.47277 102.89366) rotate(-35.75612)"/>
    <rect x="151.4" y="255.43333" width="0.2" height="1.8" rx="0.1" ry="0.1"
          transform="translate(-31.4188 -64.6728) rotate(21.82415)"/>
    <rect x="143.00417" y="254.64166" width="0.2" height="1.8" rx="0.1" ry="0.1"
          transform="translate(57.50673 -59.41565) rotate(39.47057)"/>
    <rect x="143.15" y="252.35" width="0.2" height="1.8" rx="0.1" ry="0.1"
          transform="translate(203.85081 13.49192) rotate(72.42445)"/>
    <rect x="149.55" y="252.7625" width="0.2" height="1.8" rx="0.1" ry="0.1"
          transform="translate(-265.98642 129.88545) rotate(-40.22051)"/>
    <rect x="152.81667" y="250.14166" width="0.2" height="1.8" rx="0.1" ry="0.1"
          transform="translate(78.12738 -62.84645) rotate(43.67912)"/>
    <rect x="147.425" y="246.7" width="0.2" height="1.8" rx="0.1" ry="0.1"
          transform="translate(-253.64481 337.43245) rotate(-83.06624)"/>
    <rect x="154.9875" y="239.2625" width="0.2" height="1.8" rx="0.1" ry="0.1"
          transform="translate(199.63724 -6.92857) rotate(72.42445)"/>
    <rect x="147.50417" y="258.32916" width="0.2" height="1.8" rx="0.1" ry="0.1"
          transform="translate(82.31226 -56.91118) rotate(43.67929)"/>
    <rect x="148.15" y="241.01666" width="0.2" height="1.8" rx="0.1" ry="0.1"
          transform="translate(-1.24822 -68.28372) rotate(29.09132)"/>
    <rect x="152.06667" y="258.43333" width="0.2" height="1.8" rx="0.1" ry="0.1"
          transform="translate(314.44128 254.99285) rotate(124.67175)"/>
    <rect x="145.19167" y="256.89166" width="0.2" height="1.8" rx="0.1" ry="0.1"
          transform="translate(-31.32209 -62.26021) rotate(21.82405)"/>
    <rect x="152.06667" y="247.89166" width="0.2" height="1.8" rx="0.1" ry="0.1"
          transform="matrix(-0.19488, 0.98083, -0.98083, -0.19488, 288.27155, 121.3047)"/>
    <rect x="10.24549" y="228.48126" width="0.2" height="1.8" rx="0.1" ry="0.1"/>
    <rect x="141.57083" y="238.67916" width="0.2" height="1.8" rx="0.1" ry="0.1"
          transform="translate(-3.21471 -65.37979) rotate(29.09132)"/>
    <rect x="144.23333" y="237.18333" width="0.2" height="1.8" rx="0.1" ry="0.1"
          transform="translate(166.36694 -16.76694) rotate(66.20331)"/>
    <rect x="148.31667" y="237.6" width="0.2" height="1.8" rx="0.1" ry="0.1"
          transform="translate(289.36932 248.30422) rotate(129.36512)"/>
    <rect x="154.31667" y="253.01666" width="0.2" height="1.8" rx="0.1" ry="0.1"
          transform="translate(313.07536 203.40211) rotate(116.71358)"/>
    <rect x="144.52359" y="249.29676" width="0.2" height="1.8" rx="0.1" ry="0.1"
          transform="translate(243.29541 57.02974) rotate(84.86314)"/>
    <rect x="149.06667" y="249.18333" width="0.2" height="1.8" rx="0.1" ry="0.1"
          transform="translate(-116.16232 -38.30789) rotate(4.79108)"/>
    <rect x="147.93175" y="244.5977" width="0.2" height="1.8" rx="0.1" ry="0.1"
          transform="translate(153.08136 -29.90538) rotate(60.92414)"/>
</g>
</svg>