<?xml version="1.0" encoding="utf-8"?>
<!-- Generator: Adobe Illustrator 16.0.0, SVG Export Plug-In . SVG Version: 6.00 Build 0)  -->
<!DOCTYPE svg PUBLIC "-//W3C//DTD SVG 1.1//EN" "http://www.w3.org/Graphics/SVG/1.1/DTD/svg11.dtd">
<svg version="1.1" id="图层_1" xmlns="http://www.w3.org/2000/svg" xmlns:xlink="http://www.w3.org/1999/xlink" x="0px" y="0px"
	 width="40px" height="40px" viewBox="0 0 40 40" enable-background="new 0 0 40 40" xml:space="preserve">
<g>
	<path fill="#333333" d="M33.702,19.678l-4.367-1.93c-0.401-0.177-0.597-0.064-0.44,0.238l1.26,1.604H9.843l1.266-1.602
		c0.148-0.305-0.043-0.416-0.443-0.238l-4.367,1.93c-0.395,0.174-0.4,0.463,0,0.641l4.367,1.927
		c0.395,0.174,0.598,0.073,0.443-0.232L9.81,20.412h20.383l-1.297,1.602c-0.154,0.31,0.045,0.412,0.441,0.235l4.367-1.93
		C34.1,20.141,34.098,19.852,33.702,19.678z"/>
	<rect x="9.06" y="19.498" fill="#333333" width="21.852" height="1"/>
</g>
</svg>
