<?xml version="1.0" encoding="utf-8"?>
<!-- Generator: Adobe Illustrator 16.0.0, SVG Export Plug-In . SVG Version: 6.00 Build 0)  -->
<!DOCTYPE svg PUBLIC "-//W3C//DTD SVG 1.1//EN" "http://www.w3.org/Graphics/SVG/1.1/DTD/svg11.dtd">
<svg version="1.1" id="图层_1" xmlns="http://www.w3.org/2000/svg" xmlns:xlink="http://www.w3.org/1999/xlink" x="0px" y="0px"
	 width="40px" height="40px" viewBox="0 0 40 40" enable-background="new 0 0 40 40" xml:space="preserve">
<g>
	<g>
		<path fill="#333333" d="M11.856,20.598v-1.196l2.26-4.098c0.242-0.703-0.066-0.964-0.703-0.552l-6.939,4.503
			c-0.627,0.408-0.636,1.081,0,1.492l6.939,4.5c0.628,0.407,0.949,0.164,0.703-0.554L11.856,20.598z"/>
		<path fill="#333333" d="M33.523,19.255l-6.936-4.503c-0.635-0.412-0.945-0.149-0.703,0.552l2.193,4.098v1.196l-2.197,4.096
			c-0.248,0.72,0.072,0.961,0.701,0.554l6.941-4.5C34.162,20.336,34.154,19.661,33.523,19.255z"/>
	</g>
	<rect x="11.687" y="19.502" fill="#333333" width="16.527" height="1"/>
</g>
</svg>
