<?xml version="1.0" encoding="utf-8"?>
<!-- Generator: Adobe Illustrator 16.0.0, SVG Export Plug-In . SVG Version: 6.00 Build 0)  -->
<!DOCTYPE svg PUBLIC "-//W3C//DTD SVG 1.1//EN" "http://www.w3.org/Graphics/SVG/1.1/DTD/svg11.dtd">
<svg version="1.1" id="图层_1" xmlns="http://www.w3.org/2000/svg" xmlns:xlink="http://www.w3.org/1999/xlink" x="0px" y="0px"
	 width="40px" height="40px" viewBox="0 0 40 40" enable-background="new 0 0 40 40" xml:space="preserve">
<g>
	<path fill="#333333" d="M33.434,19.252l-8.311-4.502c-0.76-0.411-1.132-0.148-0.841,0.555l2.688,4.196H13.025l2.693-4.196
		c0.291-0.705-0.08-0.967-0.842-0.554l-8.311,4.502c-0.752,0.408-0.758,1.081,0,1.493l8.311,4.502
		c0.751,0.406,1.139,0.162,0.842-0.555L12.948,20.5h14.103l-2.77,4.193c-0.295,0.719,0.091,0.963,0.841,0.555l8.312-4.502
		C34.193,20.334,34.186,19.66,33.434,19.252z"/>
	<rect x="12.871" y="19.5" fill="#333333" width="14.739" height="1"/>
</g>
</svg>
