<?xml version="1.0" encoding="utf-8"?>
<!-- Generator: Adobe Illustrator 16.0.0, SVG Export Plug-In . SVG Version: 6.00 Build 0)  -->
<!DOCTYPE svg PUBLIC "-//W3C//DTD SVG 1.1//EN" "http://www.w3.org/Graphics/SVG/1.1/DTD/svg11.dtd">
<svg version="1.1" id="图层_1" xmlns="http://www.w3.org/2000/svg" xmlns:xlink="http://www.w3.org/1999/xlink" x="0px" y="0px"
	 width="40px" height="40px" viewBox="0 0 40 40" enable-background="new 0 0 40 40" xml:space="preserve">
<g>
	<path fill="#4C4C4C" d="M16.354,33.998C11.354,31.463,7,26.031,7,20.001C7,13.969,11.354,8.535,16.354,6v1.129
		c-5,2.482-8.309,7.393-8.309,12.873c0,5.477,3.309,10.387,8.309,12.871V33.998z"/>
	<path fill="#4C4C4C" d="M23.646,32.874c5-2.483,8.309-7.397,8.309-12.872c0-5.48-3.309-10.391-8.309-12.873V6.001
		c5,2.535,9.354,7.968,9.354,14.001c0,6.03-4.354,11.462-9.354,13.998V32.874z"/>
</g>
</svg>
