<?xml version="1.0" encoding="utf-8"?>
<!-- Generator: Adobe Illustrator 16.0.0, SVG Export Plug-In . SVG Version: 6.00 Build 0)  -->
<!DOCTYPE svg PUBLIC "-//W3C//DTD SVG 1.1//EN" "http://www.w3.org/Graphics/SVG/1.1/DTD/svg11.dtd">
<svg version="1.1" id="图层_1" xmlns="http://www.w3.org/2000/svg" xmlns:xlink="http://www.w3.org/1999/xlink" x="0px" y="0px"
	 width="18" height="18"   viewBox="180 180 40 40" enable-background="new 180 180 40 40" xml:space="preserve">
<g enable-background="new    ">
	<path fill="#4C4C4C" d="M190.73,208.152c0-0.402,0.162-0.657,0.476-0.764s0.628-0.035,0.939,0.223
		c0.122,0.121,0.311,0.451,0.568,0.981c0.26,0.537,0.677,1.068,1.265,1.603c0.588,0.533,1.244,0.961,1.975,1.283
		c0.727,0.322,1.447,0.543,2.158,0.664c0.708,0.119,1.395,0.185,2.054,0.185c1.474,0.026,2.786-0.22,3.951-0.738
		c1.159-0.521,1.985-1.207,2.479-2.065c0.493-0.854,0.771-1.67,0.842-2.44c0.068-0.767-0.004-1.467-0.224-2.103
		c-0.256-0.69-0.672-1.297-1.241-1.815c-0.574-0.521-1.328-0.937-2.259-1.242c-0.935-0.313-2.241-0.724-3.929-1.229
		c-1.687-0.506-3.045-0.977-4.078-1.405c-1.036-0.436-1.901-0.99-2.602-1.664c-0.7-0.675-1.207-1.46-1.521-2.35
		c-0.311-0.888-0.412-1.89-0.303-2.994c0.08-0.863,0.3-1.666,0.656-2.407c0.358-0.743,0.857-1.367,1.496-1.874
		c0.642-0.507,1.332-0.904,2.073-1.203c0.744-0.294,1.523-0.515,2.338-0.646c0.818-0.137,1.655-0.19,2.518-0.165
		c1.512,0.065,2.814,0.347,3.908,0.843c1.094,0.49,1.904,1.005,2.432,1.549c0.525,0.538,0.98,1.074,1.367,1.608
		c0.386,0.531,0.563,0.937,0.548,1.215c-0.025,0.277-0.121,0.487-0.294,0.625c-0.17,0.145-0.398,0.182-0.666,0.114
		c-0.204-0.041-0.364-0.12-0.486-0.245c-0.122-0.121-0.338-0.441-0.646-0.969c-0.31-0.528-0.77-1.035-1.387-1.531
		c-0.611-0.491-1.287-0.883-2.033-1.184c-0.744-0.294-1.78-0.451-3.116-0.465c-0.787,0-1.603,0.07-2.45,0.216
		c-0.851,0.139-1.639,0.456-2.368,0.939c-0.728,0.485-1.28,1.067-1.65,1.739c-0.372,0.673-0.572,1.47-0.599,2.39
		c-0.027,0.915,0.174,1.753,0.608,2.507c0.352,0.648,0.837,1.199,1.456,1.65c0.625,0.454,1.41,0.871,2.368,1.244
		c0.958,0.38,2.078,0.758,3.362,1.132l2.453,0.729c1.186,0.378,2.172,0.795,2.962,1.255c0.793,0.463,1.419,1.006,1.882,1.639
		c0.467,0.64,0.789,1.25,0.971,1.854c0.185,0.605,0.272,1.212,0.272,1.832c-0.01,1.296-0.29,2.406-0.83,3.339
		c-0.541,0.935-1.208,1.694-2.001,2.272c-0.797,0.578-1.699,1.004-2.701,1.271c-1.002,0.273-2.054,0.412-3.146,0.427
		c-1.322,0.014-2.516-0.114-3.574-0.375c-1.059-0.266-1.969-0.636-2.734-1.106c-0.761-0.474-1.414-1.026-1.953-1.669
		c-0.541-0.645-0.938-1.227-1.193-1.751C190.864,208.564,190.73,208.254,190.73,208.152z"/>
</g>
</svg>
