<?xml version="1.0" encoding="utf-8"?>
<!-- Generator: Adobe Illustrator 16.0.0, SVG Export Plug-In . SVG Version: 6.00 Build 0)  -->
<!DOCTYPE svg PUBLIC "-//W3C//DTD SVG 1.1//EN" "http://www.w3.org/Graphics/SVG/1.1/DTD/svg11.dtd">
<svg version="1.1" id="图层_1" xmlns="http://www.w3.org/2000/svg" xmlns:xlink="http://www.w3.org/1999/xlink" x="0px" y="0px"
	 width="40px" height="40px" viewBox="0 0 40 40" enable-background="new 0 0 40 40" xml:space="preserve">
<path display="none" fill="#6B6C6B" d="M878.457-66.628c2.071,2.085,2.071,5.414,0,7.471L287.543,531.786
	c-2.086,2.085-5.415,2.085-7.486,0L242.657,494.4c-2.071-2.086-2.071-5.415,0-7.443L833.6-104.014c2.086-2.086,5.415-2.086,7.458,0
	L878.457-66.628z"/>
<g>
	<path fill="#323333" d="M11.809,28.778c0.034,0.033-0.005,0.122-0.083,0.2l-2.544,2.547c-0.078,0.078-0.166,0.114-0.2,0.084
		l-0.59-0.59c-0.03-0.034,0.006-0.124,0.083-0.201l2.545-2.545c0.078-0.079,0.168-0.116,0.201-0.084L11.809,28.778z"/>
	<path fill="#323333" d="M15.768,24.821c0.033,0.029-0.003,0.12-0.083,0.199l-2.545,2.546c-0.078,0.077-0.167,0.114-0.199,0.082
		l-0.589-0.589c-0.032-0.032,0.005-0.121,0.081-0.197l2.547-2.546c0.079-0.078,0.168-0.115,0.201-0.083L15.768,24.821z"/>
	<path fill="#323333" d="M19.728,20.861c0.032,0.03-0.005,0.119-0.083,0.201L17.1,23.605c-0.076,0.077-0.167,0.113-0.198,0.083
		l-0.589-0.591c-0.032-0.03,0.005-0.121,0.083-0.199l2.544-2.544c0.078-0.078,0.167-0.114,0.199-0.082L19.728,20.861z"/>
	<path fill="#323333" d="M23.688,16.9c0.033,0.032-0.005,0.122-0.082,0.2l-2.546,2.546c-0.076,0.078-0.171,0.117-0.198,0.082
		l-0.59-0.59c-0.031-0.031,0.005-0.12,0.083-0.198l2.545-2.544c0.077-0.08,0.168-0.116,0.201-0.083L23.688,16.9z"/>
	<path fill="#323333" d="M27.647,12.942c0.029,0.034-0.004,0.12-0.084,0.2l-2.543,2.544c-0.079,0.077-0.168,0.112-0.202,0.083
		l-0.586-0.589c-0.035-0.032,0.002-0.119,0.083-0.199l2.545-2.546c0.077-0.076,0.164-0.113,0.198-0.082L27.647,12.942z"/>
	<path fill="#323333" d="M31.608,8.981c0.033,0.032-0.004,0.121-0.085,0.201l-2.543,2.545c-0.078,0.078-0.167,0.115-0.201,0.083
		l-0.589-0.588c-0.033-0.032,0.005-0.121,0.084-0.2l2.544-2.544c0.076-0.079,0.169-0.115,0.2-0.084L31.608,8.981z"/>
</g>
</svg>
