<?xml version="1.0" encoding="utf-8"?>
<!DOCTYPE svg PUBLIC "-//W3C//DTD SVG 1.1//EN" "http://www.w3.org/Graphics/SVG/1.1/DTD/svg11.dtd">
<svg width="25" height="25" viewBox="0 0 25 25" version="1.1" xmlns="http://www.w3.org/2000/svg" xmlns:xlink="http://www.w3.org/1999/xlink">
    <g class="transform-group">
        <g transform="scale(0.0244140625, 0.0244140625)">
            <path d="M652.519 165.796c-134.397-134.395-352.323-134.395-486.721 0-134.397 134.41-134.397 352.332 0 486.727 130.861 130.858 340.852 134.249 475.878 10.316L937.84 959 959 937.841 662.835 641.666C786.784 506.657 783.379 296.655 652.519 165.796zM631.358 631.363c-122.517 122.515-321.884 122.515-444.4 0-122.517-122.514-122.517-321.878 0-444.393 122.517-122.529 321.884-122.529 444.4 0C753.875 309.485 753.875 508.849 631.358 631.363z"
            fill="#4c4c4c"></path>
        </g>
    </g>
</svg>