<?xml version="1.0" encoding="utf-8"?>
<!-- Generator: Adobe Illustrator 16.0.0, SVG Export Plug-In . SVG Version: 6.00 Build 0)  -->
<!DOCTYPE svg PUBLIC "-//W3C//DTD SVG 1.1//EN" "http://www.w3.org/Graphics/SVG/1.1/DTD/svg11.dtd">
<svg version="1.1" id="图层_1" xmlns="http://www.w3.org/2000/svg" xmlns:xlink="http://www.w3.org/1999/xlink" x="0px" y="0px"
	 width="40px" height="40px" viewBox="0 0 40 40" enable-background="new 0 0 40 40" xml:space="preserve">
<g>
	<path fill="#4C4C4C" d="M26.156,20.659l1.39,8.045c0,0,1.022-1.056,1.871-1.792l1.86,2.49c0.076,0.101,0.238,0.104,0.363,0.018
		l0.795-0.577c0.123-0.095,0.164-0.253,0.092-0.351l-1.813-2.424c0.941-0.385,2.5-0.817,2.5-0.817L26.156,20.659L26.156,20.659z"/>
	<rect x="6.5" y="10.5" fill="#4C4C4C" width="27" height="1"/>
	<polygon fill="#4C4C4C" points="26.309,29.5 6.5,29.5 6.5,28.5 26.216,28.5 	"/>
	<rect x="6.5" y="10.5" fill="#4C4C4C" width="1" height="19"/>
	<polygon fill="#4C4C4C" points="32.5,22.669 32.5,10.5 33.5,10.5 33.5,23.18 	"/>
</g>
</svg>
