<?xml version="1.0" encoding="utf-8"?>
<!-- Generator: Adobe Illustrator 21.0.0, SVG Export Plug-In . SVG Version: 6.00 Build 0)  -->
<svg version="1.1" xmlns="http://www.w3.org/2000/svg" xmlns:xlink="http://www.w3.org/1999/xlink" x="0px" y="0px" width="160" height="268"
	 viewBox="0 0 160 268" enable-background="new 0 0 160 268" xml:space="preserve">
<g id="图层_26">
	<g>
		<g>
			<polygon points="69.6,23.8 69,23.2 69.1,23 69.8,23.7 			"/>
		</g>
		<g>
			<rect x="81.9" y="24.3" transform="matrix(0.3315 -0.9435 0.9435 0.3315 31.3565 93.925)" width="0.2" height="1"/>
		</g>
		<g>
			<rect x="77.1" y="23.4" transform="matrix(0.5967 -0.8024 0.8024 0.5967 11.9636 71.5447)" width="0.2" height="0.9"/>
		</g>
		<g>
			<polygon points="73.5,26.7 72.8,26.3 72.9,26.1 73.6,26.5 			"/>
		</g>
		<g>
			<rect x="80.3" y="24.3" transform="matrix(0.7335 -0.6797 0.6797 0.7335 4.5697 61.2573)" width="0.2" height="1"/>
		</g>
		<g>
			<polygon points="84.8,24.4 84.7,24.2 85.6,23.8 85.7,23.9 			"/>
		</g>
		<g>
			<rect x="82.8" y="25.3" transform="matrix(0.7634 -0.6459 0.6459 0.7634 3.2925 59.7964)" width="1" height="0.2"/>
		</g>
		<g>
			<polygon points="88.4,24.9 88.3,24.7 89.2,24.2 89.2,24.4 			"/>
		</g>
		<g>
			<rect x="86.6" y="21.5" transform="matrix(0.4782 -0.8783 0.8783 0.4782 26.4599 87.6417)" width="0.9" height="0.2"/>
		</g>
		<g>
			<polygon points="70.2,8.3 69.1,8 69.1,7.8 70.3,8.1 			"/>
		</g>
		<g>
			<polygon points="70.8,9 70.7,8.8 71.5,8.3 71.6,8.5 			"/>
		</g>
		<g>
			<polygon points="79.2,23 78.5,22.6 78.6,22.4 79.3,22.9 			"/>
		</g>
		<g>
			<rect x="68.4" y="20.5" width="0.9" height="0.2"/>
		</g>
		<g>
			<polygon points="82.3,19 81.9,18.1 82,18 82.4,18.9 			"/>
		</g>
		<g>
			<polygon points="81.4,14 81.3,13.8 82.1,13.4 82.2,13.6 			"/>
		</g>
		<g>
			<rect x="80" y="9" width="1.1" height="0.2"/>
		</g>
		<g>
			<rect x="74.8" y="9.6" transform="matrix(0.2734 -0.9619 0.9619 0.2734 44.5736 79.5274)" width="0.2" height="1.3"/>
		</g>
		<g>
			<polygon points="67.8,10.9 67.8,10.7 68.9,10.4 69,10.6 			"/>
		</g>
		<g>
			<polygon points="69,13.5 68.1,12.6 68.3,12.4 69.1,13.4 			"/>
		</g>
		<g>
			<polygon points="73.5,12.2 72.8,11.8 72.9,11.6 73.6,12 			"/>
		</g>
		<g>
			<polygon points="80.7,10.7 80,10 80.2,9.9 80.8,10.6 			"/>
		</g>
		<g>
			<polygon points="75.4,12.7 74.8,12.1 74.9,12 75.5,12.5 			"/>
		</g>
		<g>
			<rect x="80.5" y="16" width="1" height="0.2"/>
		</g>
		<g>
			<rect x="80.8" y="19.3" width="1" height="0.2"/>
		</g>
		<g>
			<rect x="77.4" y="20.3" width="0.9" height="0.2"/>
		</g>
		<g>
			<polygon points="78,16.5 77.9,16.3 79.2,15.8 79.2,15.9 			"/>
		</g>
		<g>
			<rect x="74.6" y="13.1" width="0.8" height="0.2"/>
		</g>
		<g>
			<rect x="70.2" y="13.4" width="0.2" height="0.7"/>
		</g>
		<g>
			<polygon points="70.2,16.2 70,16 70.9,15.2 71,15.3 			"/>
		</g>
		<g>
			<rect x="74.6" y="23.4" transform="matrix(0.873 -0.4877 0.4877 0.873 -1.9461 39.5755)" width="0.9" height="0.2"/>
		</g>
		<g>
			<rect x="75.2" y="14.2" width="0.2" height="0.7"/>
		</g>
		<g>
			<rect x="77.4" y="17.3" transform="matrix(0.7401 -0.6725 0.6725 0.7401 8.2143 56.7023)" width="0.2" height="0.8"/>
		</g>
		<g>
			<rect x="75.2" y="19.5" transform="matrix(0.7217 -0.6923 0.6923 0.7217 7.1754 57.6509)" width="0.2" height="0.8"/>
		</g>
		<g>
			<polygon points="72.7,17.5 71.7,17.2 71.8,17 72.8,17.3 			"/>
		</g>
		<g>
			<rect x="70.1" y="18.6" width="0.9" height="0.2"/>
		</g>
		<g>
			<polygon points="72.9,18.8 72.7,18.6 73.3,18.1 73.4,18.3 			"/>
		</g>
		<g>
			<rect x="69" y="6.9" transform="matrix(0.4819 -0.8762 0.8762 0.4819 29.8085 64.4978)" width="0.8" height="0.2"/>
		</g>
		<g>
			<polygon points="90.3,9.2 90.1,9.1 90.5,8.4 90.7,8.5 			"/>
		</g>
		<g>
			<polygon points="84.8,9.9 84.7,9.7 85.6,9.2 85.7,9.4 			"/>
		</g>
		<g>
			<polygon points="85,14.8 84.9,14.7 85.4,14 85.6,14.1 			"/>
		</g>
		<g>
			<rect x="84.3" y="19.5" transform="matrix(0.867 -0.4982 0.4982 0.867 1.5288 44.8557)" width="1" height="0.2"/>
		</g>
		<g>
			<polygon points="86.8,20 86.1,19.4 86.2,19.2 86.9,19.8 			"/>
		</g>
		<g>
			<polygon points="86.5,13.5 85.7,12.6 85.8,12.4 86.7,13.4 			"/>
		</g>
		<g>
			<rect x="85.7" y="15.5" width="0.2" height="0.9"/>
		</g>
		<g>
			<rect x="89.6" y="15.3" transform="matrix(0.5479 -0.8366 0.8366 0.5479 27.4007 82.198)" width="0.2" height="1"/>
		</g>
		<g>
			<rect x="85.9" y="17.5" width="0.2" height="0.8"/>
		</g>
		<g>
			<polygon points="87.9,20.9 87.8,20.7 88.6,20.3 88.7,20.5 			"/>
		</g>
		<g>
			<polygon points="86.9,7.5 86.7,7.4 87.1,6.6 87.3,6.7 			"/>
		</g>
		<g>
			<rect x="80.9" y="8" transform="matrix(0.8183 -0.5748 0.5748 0.8183 10.0887 48.1677)" width="0.7" height="0.2"/>
		</g>
		<g>
			<polygon points="73.9,7.8 73.8,7.6 74.6,7.1 74.7,7.3 			"/>
		</g>
		<g>
			<polygon points="81,6.5 80.1,6 80.2,5.8 81.1,6.3 			"/>
		</g>
		<g>
			<rect x="77.2" y="6.1" transform="matrix(0.4389 -0.8985 0.8985 0.4389 37.4699 73.1581)" width="0.2" height="0.9"/>
		</g>
		<g>
			<polygon points="70.9,24.9 70.8,24.7 71.6,24.2 71.7,24.4 			"/>
		</g>
		<g>
			<rect x="71.7" y="21.1" transform="matrix(0.894 -0.448 0.448 0.894 -2.0681 34.4776)" width="0.2" height="1"/>
		</g>
		<g>
			<polygon points="88.3,23.5 88.2,23.4 89.1,22.9 89.2,23 			"/>
		</g>
		<g>
			<rect x="84.1" y="16.4" width="1" height="0.2"/>
		</g>
		<g>
			<polygon points="83.8,16.1 82.9,15.7 83,15.5 83.9,15.9 			"/>
		</g>
		<g>
			<rect x="90.3" y="9.8" transform="matrix(0.6719 -0.7406 0.7406 0.6719 22.041 70.2936)" width="0.2" height="0.9"/>
		</g>
		<g>
			<polygon points="75,6.6 74.9,6.4 75.7,6.1 75.8,6.3 			"/>
		</g>
		<g>
			<polygon points="73.3,6.4 72.5,5.9 72.6,5.7 73.4,6.2 			"/>
		</g>
		<g>
			<rect x="85.9" y="5.9" width="0.9" height="0.2"/>
		</g>
	</g>
	<g>
		<g>
			<linearGradient id="SVGID_27_" gradientUnits="userSpaceOnUse" x1="80.2118" y1="26.1821" x2="80.7783" y2="199.0634">
				<stop  offset="0.1828" style="stop-color:#99FFFF;stop-opacity:0.1"/>
				<stop  offset="0.5834" style="stop-color:#45C6FF;stop-opacity:0.1"/>
				<stop  offset="0.9028" style="stop-color:#0097FF;stop-opacity:0.1"/>
			</linearGradient>
			<path fill="url(#SVGID_27_)" stroke="none" d="M47.2,54.4c-0.4,2-0.3,5.7,0.2,10.7C54.3,97.4,75.6,194,75.6,194s1,8,4.7,8c2.8,0,4-8.1,4-8.1
				s20.8-93.7,28.8-129.7c0.5-4.2,0.6-7.5,0.4-9.7c0,0-0.1-1.1-0.8-1.8c-2.3-2.5-18.6-4.6-32.2-4.6C64.1,48.1,47.6,50.2,47.2,54.4z"
				/>
			
				<radialGradient id="SVGID_28_" cx="79.7751" cy="53.9093" r="25.3482" gradientTransform="matrix(0.9281 0 0 0.4 6.2736 32.3456)" gradientUnits="userSpaceOnUse">
				<stop  offset="0.2849" style="stop-color:#99FFFF;stop-opacity:0.1"/>
				<stop  offset="1" style="stop-color:#0097FF;stop-opacity:0.1"/>
			</radialGradient>
			<path fill="url(#SVGID_28_)" stroke="none" d="M113.2,53.9c0,3.1-14.8,5.6-33.1,5.6S47.5,57,47.5,53.9s14.3-5.6,32.6-5.6S113.2,50.8,113.2,53.9
				z"/>
		</g>
		<path stroke="#000000" fill="#000000" stroke-width="0.5324" d="M114.4,58.3c0-14.9-9.5-27.5-22.8-32.2c0-3.9,0-12.4,0-13.7c0-1.7,0.2-1.7,0.2-1.7c0.5-0.3,1.6-1,1.5-2.1
			c-0.1-1.2-1.6-2.2-4.7-3.1c-2.4-0.7-5.4-1-8.9-1c-4.8,0-9.7,0.7-11.9,1.3c-2.1,0.6-3.5,1.8-3.5,3c-0.1,0.7,0.4,1.3,1.1,1.7
			c1.3,0.6,1.3,1,1.4,2l0,0.3c0.1,0.8,0.1,8.7,0,13.3c-12.2,5.2-20.7,18.1-20.7,32.2c0,1.8,0.1,3.6,0.4,5.3h-0.1l29.1,135.8
			c0,0,0.1,0.2,0,0.5c-0.1,0.4-0.3,0.9-0.7,1.3c-0.6-0.6-1.4-1-2.2-1c-1.4,0-2.6,1.1-3.4,2.8c-0.2-0.2-0.4-0.3-0.6-0.3
			c-0.4,0-0.7,0.3-1,0.7c-0.1,0-0.2,0-0.3,0c-1.2,0-2.1,1.6-2.1,3.5s1,3.5,2.1,3.5c0,0,0.1,0,0.1,0c0.3,0.6,0.7,1,1.2,1
			c0.2,0,0.5-0.1,0.7-0.3c0.8,1.6,2,2.7,3.4,2.7c0.7,0,1.4-0.3,2-0.9c0.5,0.6,1.2,1.4,1.2,2.2c0,0.8-0.3,1-0.3,1s1.1,4.4,1.1,5.5
			c0,0.9,0,41,0,41c0,0.2,0.2,0.4,0.2,0.5c0.1,0.2,0.4,0.5,1,0.5c1,0,2.6-1.1,3.3-1.6c0.9-0.6,2.4-1.9,2.5-2.9c0-0.1,0-0.2,0-0.3
			c0,0,0-36.1,0-37.2c0-1.1,1.2-5.5,1.2-5.5s-0.2-0.2-0.1-1c0-1,1-2.1,1.5-2.6c1.2,2.4,3.2,4.1,5.6,4.6c0.7,2.8,1.6,4.3,2.7,4.3
			c2,0,3.7-5.7,3.7-14s-1.6-14-3.7-14c-1,0-1.9,1.2-2.6,3.6c-1.8,0.4-3.4,1.4-4.6,2.9c-0.8,0-1.6-0.2-2.2-0.5c-1.2-0.4-0.9-1-0.9-1
			L113.3,67c0.3-1.1,0.5-2.2,0.7-3.3l0-0.1h0C114.2,61.9,114.4,60.1,114.4,58.3z M67,209.3c-0.4-0.3-0.8-1.2-0.8-2.4
			c0-1.3,0.5-2.2,0.9-2.5c-0.2,0.7-0.4,1.6-0.4,2.6C66.8,207.9,66.9,208.6,67,209.3z M68.9,210.2l-0.1,0.1c-0.1,0.1-0.1,0.1-0.1,0.1
			c-0.2-0.1-0.9-1.3-0.9-3.3c0-1.9,0.6-3,0.9-3.3l0.2,0.2c-0.3,0.9-0.4,1.9-0.4,3C68.4,208.1,68.6,209.2,68.9,210.2L68.9,210.2z
			 M79.7,5.5c3.4,0,6.3,0.3,8.6,1c0.3,0.1,0.5,0.1,0.7,0.2c-1.5,0.6-5.5,1.1-10.1,1.1c-4.8,0-8.9-0.5-10.3-1.1
			C71,6.1,75.4,5.5,79.7,5.5z M65.8,9.6c-0.4-0.2-0.6-0.4-0.6-0.7c0-0.6,0.8-1.3,2.2-1.9c1.1,1.2,5,1.8,11.4,1.8
			c6.2,0,10-0.6,11.3-1.7c1.8,0.7,2.1,1.3,2.1,1.6c0,0.4-0.4,0.8-0.9,1.1c-0.5,0.2-0.7,0.7-0.8,1.2c-2.6,1.1-7,1.8-11.8,1.8
			c-4.5,0-8.5-0.6-11.2-1.6C67.4,10.6,67,10.1,65.8,9.6z M90.6,25.8c-0.5,0.5-3.1,1.6-11.4,1.6c-7.8,0-10.5-0.9-11.3-1.5
			c0,0,0,0,0-0.1l0,0c0.4-0.5,2.9-1.6,11.4-1.6c7.5,0,10.3,0.9,11.2,1.4L90.6,25.8z M67.9,12.7l0-0.3c0-0.3-0.1-0.6-0.1-0.8
			c2.7,0.9,6.6,1.5,11.1,1.5c4.9,0,9.2-0.7,11.8-1.8c0,0.4,0,0.8,0,1.2l0,12.8c-1.3-0.7-4.7-1.4-11.2-1.4c-7,0-10.3,0.7-11.5,1.5
			C67.9,21.8,68,13.6,67.9,12.7z M72.7,201.1c0.5,0,0.9,0.2,1.4,0.6c-0.1,0-0.1,0.1-0.2,0.1c-0.5,0.2-1,0.6-1.5,1.2l-2.2,0.2
			C70.9,201.9,71.8,201.1,72.7,201.1z M78.7,203.5v7.2l-5.5-0.4c-0.9-0.9-1.3-2-1.3-3.2c0-1.3,0.4-2.3,0.9-3L78.7,203.5z M70,210
			c-0.3-0.9-0.5-1.9-0.5-3c0-1,0.2-1.9,0.4-2.7l1.9-0.2c-0.4,0.8-0.7,1.8-0.7,2.9c0,1.3,0.4,2.3,0.9,3.1L70,210z M72.7,212.8
			c-0.8,0-1.6-0.6-2.3-1.7l2.3,0.2c0.4,0.4,0.8,0.7,1.2,1C73.6,212.6,73.1,212.8,72.7,212.8z M80.6,261.2c-1.3,1-2.3,1.4-2.7,1.4
			c-0.1,0-0.2,0-0.2-0.1c0-0.1-0.1-0.7,2.1-2.3c1.3-1,2.3-1.4,2.7-1.4c0.1,0,0.2,0,0.2,0.1c0,0,0,0.1,0,0.1
			C82.7,259.2,82.2,260,80.6,261.2z M83.8,215.1c0,0.4,0,0.8,0.1,1.1c-0.3,1.2-1.1,4.4-1.1,5.5v36.1c-0.1,0-0.1,0-0.2,0
			c-1,0-2.6,1.1-3.3,1.6c-0.7,0.5-1.2,0.9-1.5,1.3l0-39c0-1-0.7-4.1-1-5.3c0.1-0.3,0.2-0.7,0.2-1.3c-0.1-1.8-2-3.4-2.3-3.6
			c0,0-0.1-0.1-0.1-0.1l10.6,0.9C84.6,212.9,83.8,214,83.8,215.1z M79.7,210.8v-7.3l1-0.1v7.5L79.7,210.8z M81.7,211v-7.6l4-0.3
			c-0.5,1.3-0.7,2.7-0.7,4.2c0,1.5,0.3,2.9,0.7,4.2L81.7,211z M87.4,212.4l0.5,0c0.2-0.2,0.5-0.3,0.8-0.4c0.7,1.5,1.8,2.8,3,3.7
			c0,0.1,0,0.1,0,0.2C89.9,215.5,88.4,214.2,87.4,212.4z M89.6,212.1c0.8,0.2,1.5,0.7,1.6,1.6c0,0.2,0.1,0.5,0.1,0.7
			C90.7,213.8,90.1,213,89.6,212.1z M92.3,200.9c0.8-5.8,2-6.4,2.3-6.5c0.9,0.3,2.7,4.3,2.7,13c0,8.7-1.7,12.7-2.7,13
			c-0.4-0.2-1.6-0.9-2.3-6.8c-0.2-1.5-1.5-2.6-3.1-2.6c0,0,0,0,0,0c-0.4-1.2-0.7-2.5-0.7-3.9c0-1.3,0.2-2.6,0.7-3.7
			c0.1,0,0.3,0,0.4,0C90.9,203.4,92.1,202.3,92.3,200.9z M89.5,202.4c0.5-1,1.2-1.9,1.9-2.6c0,0.3-0.1,0.6-0.1,1
			C91.2,201.7,90.5,202.4,89.5,202.4z M91.8,198.2c0,0.1,0,0.1,0,0.2c-1.3,0.9-2.4,2.3-3.1,3.9c-0.2-0.1-0.4-0.2-0.6-0.4l-0.7,0.1
			C88.4,200,90,198.7,91.8,198.2z M87.7,202.8c0.2,0.1,0.4,0.2,0.6,0.3c-0.4,1.2-0.7,2.6-0.7,4c0,1.4,0.3,2.8,0.7,4
			c-0.2,0.1-0.5,0.2-0.7,0.3l-0.7-0.1c-0.5-1.3-0.9-2.7-0.9-4.3c0-1.5,0.3-3,0.8-4.2L87.7,202.8z M113,63.4
			c-0.2,1.1-0.4,2.2-0.7,3.3l-29,132.1c-0.1,0.5,0.5,1,0.7,1.1c0.7,0.5,1.7,0.9,2.8,1c-0.2,0.3-0.4,0.7-0.6,1l-12.1,1
			c0.1-0.1,0.2-0.1,0.3-0.2c1.5-0.7,2.1-2,2.3-2.9c0-0.1,0-0.5,0-0.6L47.6,64l-0.1-0.5c-0.3-1.7-0.4-3.5-0.4-5.2
			c0-13.3,7.9-26,20.1-31.2l0.3-0.1c2.2,1.3,7.9,1.5,11.5,1.5c3.7,0,9.4-0.2,11.6-1.5l0.5,0.2c13.2,4.6,22.1,17.2,22.1,31.2
			C113.4,60,113.2,61.7,113,63.4z"/>
	</g>
</g>
</svg>
