<?xml version="1.0" encoding="utf-8"?>
<!-- Generator: Adobe Illustrator 21.0.0, SVG Export Plug-In . SVG Version: 6.00 Build 0)  -->
<svg version="1.1" xmlns="http://www.w3.org/2000/svg" xmlns:xlink="http://www.w3.org/1999/xlink" x="0px" y="0px" width="160" height="268"
	 viewBox="0 0 160 268" enable-background="new 0 0 160 268" xml:space="preserve">
<g id="图层_27_1_">
	<g>
		<g>
			<polygon points="73.3,20.8 72.7,20.2 72.8,20 73.5,20.7 			"/>
		</g>
		<g>
			<rect x="85.6" y="21.3" transform="matrix(0.3315 -0.9435 0.9435 0.3315 36.6751 95.4308)" width="0.2" height="1"/>
		</g>
		<g>
			<rect x="80.8" y="20.4" transform="matrix(0.5967 -0.8024 0.8024 0.5967 15.8717 73.3214)" width="0.2" height="0.9"/>
		</g>
		<g>
			<polygon points="77.2,23.7 76.5,23.3 76.6,23.1 77.3,23.5 			"/>
		</g>
		<g>
			<rect x="84" y="21.3" transform="matrix(0.7335 -0.6797 0.6797 0.7335 7.6006 62.9875)" width="0.2" height="1"/>
		</g>
		<g>
			<polygon points="88.5,21.4 88.5,21.2 89.3,20.8 89.4,20.9 			"/>
		</g>
		<g>
			<rect x="86.5" y="22.3" transform="matrix(0.7634 -0.6459 0.6459 0.7634 6.1109 61.4906)" width="1" height="0.2"/>
		</g>
		<g>
			<polygon points="92.1,21.9 92,21.7 92.9,21.2 93,21.4 			"/>
		</g>
		<g>
			<rect x="90.3" y="18.5" transform="matrix(0.4782 -0.8783 0.8783 0.4782 31.0368 89.3449)" width="0.9" height="0.2"/>
		</g>
		<g>
			<polygon points="74,5.3 72.8,5 72.9,4.8 74,5.1 			"/>
		</g>
		<g>
			<polygon points="74.5,6 74.4,5.8 75.3,5.3 75.4,5.5 			"/>
		</g>
		<g>
			<polygon points="83,20 82.2,19.6 82.3,19.4 83.1,19.9 			"/>
		</g>
		<g>
			<rect x="72.1" y="17.5" width="0.9" height="0.2"/>
		</g>
		<g>
			<polygon points="86,16 85.6,15.1 85.8,15 86.2,15.9 			"/>
		</g>
		<g>
			<polygon points="85.2,11 85.1,10.8 85.8,10.4 85.9,10.6 			"/>
		</g>
		<g>
			<rect x="83.7" y="6" width="1.1" height="0.2"/>
		</g>
		<g>
			<rect x="78.6" y="6.6" transform="matrix(0.2734 -0.9619 0.9619 0.2734 50.1634 80.9277)" width="0.2" height="1.3"/>
		</g>
		<g>
			<polygon points="71.6,7.9 71.5,7.7 72.6,7.4 72.7,7.6 			"/>
		</g>
		<g>
			<polygon points="72.7,10.5 71.9,9.6 72,9.4 72.8,10.4 			"/>
		</g>
		<g>
			<polygon points="77.2,9.2 76.5,8.8 76.6,8.6 77.3,9 			"/>
		</g>
		<g>
			<polygon points="84.4,7.7 83.7,7 83.9,6.9 84.5,7.6 			"/>
		</g>
		<g>
			<polygon points="79.1,9.7 78.5,9.1 78.6,9 79.2,9.5 			"/>
		</g>
		<g>
			<rect x="84.3" y="13" width="1" height="0.2"/>
		</g>
		<g>
			<rect x="84.5" y="16.3" width="1" height="0.2"/>
		</g>
		<g>
			<rect x="81.1" y="17.3" width="0.9" height="0.2"/>
		</g>
		<g>
			<polygon points="81.7,13.5 81.7,13.3 82.9,12.8 83,12.9 			"/>
		</g>
		<g>
			<rect x="78.3" y="10.1" width="0.8" height="0.2"/>
		</g>
		<g>
			<rect x="73.9" y="10.4" width="0.2" height="0.7"/>
		</g>
		<g>
			<polygon points="73.9,13.2 73.8,13 74.6,12.2 74.7,12.3 			"/>
		</g>
		<g>
			<rect x="78.3" y="20.4" transform="matrix(0.873 -0.4877 0.4877 0.873 -1.033168e-02 41.0097)" width="0.9" height="0.2"/>
		</g>
		<g>
			<rect x="79" y="11.2" width="0.2" height="0.7"/>
		</g>
		<g>
			<rect x="81.1" y="14.3" transform="matrix(0.7401 -0.6725 0.6725 0.7401 11.1994 58.4255)" width="0.2" height="0.8"/>
		</g>
		<g>
			<rect x="78.9" y="16.5" transform="matrix(0.7217 -0.6923 0.6923 0.7217 10.2881 59.3923)" width="0.2" height="0.8"/>
		</g>
		<g>
			<polygon points="76.5,14.5 75.4,14.2 75.5,14 76.5,14.3 			"/>
		</g>
		<g>
			<rect x="73.8" y="15.6" width="0.9" height="0.2"/>
		</g>
		<g>
			<polygon points="76.6,15.8 76.5,15.6 77,15.1 77.1,15.3 			"/>
		</g>
		<g>
			<rect x="72.7" y="3.9" transform="matrix(0.4819 -0.8762 0.8762 0.4819 34.3653 66.2046)" width="0.8" height="0.2"/>
		</g>
		<g>
			<polygon points="94,6.2 93.8,6.1 94.2,5.4 94.4,5.5 			"/>
		</g>
		<g>
			<polygon points="88.5,6.9 88.5,6.7 89.3,6.2 89.4,6.4 			"/>
		</g>
		<g>
			<polygon points="88.7,11.8 88.6,11.7 89.1,11 89.3,11.1 			"/>
		</g>
		<g>
			<rect x="88.1" y="16.5" transform="matrix(0.867 -0.4982 0.4982 0.867 3.5184 46.3111)" width="1" height="0.2"/>
		</g>
		<g>
			<polygon points="90.5,17 89.8,16.4 90,16.2 90.6,16.8 			"/>
		</g>
		<g>
			<polygon points="90.2,10.5 89.4,9.6 89.5,9.4 90.4,10.4 			"/>
		</g>
		<g>
			<rect x="89.4" y="12.5" width="0.2" height="0.9"/>
		</g>
		<g>
			<rect x="93.4" y="12.3" transform="matrix(0.5479 -0.8366 0.8366 0.5479 31.5931 83.9551)" width="0.2" height="1"/>
		</g>
		<g>
			<rect x="89.7" y="14.5" width="0.2" height="0.8"/>
		</g>
		<g>
			<polygon points="91.6,17.9 91.5,17.7 92.3,17.3 92.4,17.5 			"/>
		</g>
		<g>
			<polygon points="90.6,4.5 90.4,4.4 90.8,3.6 91,3.7 			"/>
		</g>
		<g>
			<rect x="84.6" y="5" transform="matrix(0.8183 -0.5748 0.5748 0.8183 12.4892 49.7618)" width="0.7" height="0.2"/>
		</g>
		<g>
			<polygon points="77.7,4.8 77.6,4.6 78.4,4.1 78.5,4.3 			"/>
		</g>
		<g>
			<polygon points="84.7,3.5 83.8,3 83.9,2.8 84.8,3.3 			"/>
		</g>
		<g>
			<rect x="80.9" y="3.1" transform="matrix(0.4389 -0.8985 0.8985 0.4389 42.2535 74.819)" width="0.2" height="0.9"/>
		</g>
		<g>
			<polygon points="74.6,21.9 74.5,21.7 75.3,21.2 75.4,21.4 			"/>
		</g>
		<g>
			<rect x="75.5" y="18.1" transform="matrix(0.894 -0.448 0.448 0.894 -0.3296 35.8271)" width="0.2" height="1"/>
		</g>
		<g>
			<polygon points="92,20.5 91.9,20.4 92.8,19.9 92.9,20 			"/>
		</g>
		<g>
			<rect x="87.9" y="13.4" width="1" height="0.2"/>
		</g>
		<g>
			<polygon points="87.5,13.1 86.7,12.7 86.7,12.5 87.6,12.9 			"/>
		</g>
		<g>
			<rect x="94" y="6.8" transform="matrix(0.6719 -0.7406 0.7406 0.6719 25.4839 72.0658)" width="0.2" height="0.9"/>
		</g>
		<g>
			<polygon points="78.7,3.6 78.6,3.4 79.4,3.1 79.5,3.3 			"/>
		</g>
		<g>
			<polygon points="77,3.4 76.2,2.9 76.3,2.7 77.1,3.2 			"/>
		</g>
		<g>
			<rect x="89.7" y="2.9" width="0.9" height="0.2"/>
		</g>
	</g>
	<g>
		<g>
			<linearGradient id="SVGID_29_" gradientUnits="userSpaceOnUse" x1="83.692" y1="33.0808" x2="83.9418" y2="109.294">
				<stop  offset="0.1828" style="stop-color:#99FFFF;stop-opacity:0.1"/>
				<stop  offset="0.5834" style="stop-color:#45C6FF;stop-opacity:0.1"/>
				<stop  offset="0.9028" style="stop-color:#0097FF;stop-opacity:0.1"/>
			</linearGradient>
			<path fill="url(#SVGID_29_)" stroke="none" d="M50.5,49.1c-0.4,2-1.1,6.3-0.6,11.3C55.6,83.5,79,107.2,79,107.2s3.6,3.4,4.8,3.4
				s4.7-3.3,4.7-3.3s25.4-25.7,29.2-47.3c0.5-4.2-0.3-8.4-0.5-10.6c0,0-0.1-1.1-0.8-1.8c-2.3-2.5-19-4.8-32.6-4.8
				C67.4,42.7,50.8,44.8,50.5,49.1z"/>
			
				<radialGradient id="SVGID_30_" cx="83.7151" cy="47.9093" r="25.3482" gradientTransform="matrix(0.9281 0 0 0.4 6.2736 28.7456)" gradientUnits="userSpaceOnUse">
				<stop  offset="0.2849" style="stop-color:#99FFFF;stop-opacity:0.1"/>
				<stop  offset="1" style="stop-color:#0097FF;stop-opacity:0.1"/>
			</radialGradient>
			<path fill="url(#SVGID_30_)" stroke="none" d="M116.8,47.9c0,3.1-14.8,5.6-33.1,5.6S51.1,51,51.1,47.9s14.3-5.6,32.6-5.6S116.8,44.8,116.8,47.9
				z"/>
		</g>
	</g>
	<polygon points="73.8,21.2 73.1,20.6 73.2,20.4 73.9,21.1 	"/>
	<rect x="86" y="21.8" transform="matrix(0.3315 -0.9435 0.9435 0.3315 36.5415 96.118)" width="0.2" height="1"/>
	<rect x="81.2" y="20.9" transform="matrix(0.5968 -0.8024 0.8024 0.5968 15.6914 73.8325)" width="0.2" height="0.9"/>
	<polygon points="77.6,24.1 76.9,23.7 77,23.5 77.7,24 	"/>
	<rect x="84.4" y="21.7" transform="matrix(0.7335 -0.6797 0.6797 0.7335 7.4246 63.3789)" width="0.2" height="1"/>
	<polygon points="89,21.8 88.9,21.6 89.7,21.2 89.8,21.4 	"/>
	<rect x="86.9" y="22.7" transform="matrix(0.7633 -0.646 0.646 0.7633 5.9447 61.8444)" width="1" height="0.2"/>
	<polygon points="92.5,22.3 92.4,22.1 93.3,21.7 93.4,21.8 	"/>
	<rect x="90.7" y="18.9" transform="matrix(0.4782 -0.8782 0.8782 0.4782 30.8734 89.954)" width="0.9" height="0.2"/>
	<polygon points="74.4,5.7 73.2,5.4 73.3,5.2 74.4,5.5 	"/>
	<polygon points="74.9,6.4 74.8,6.3 75.7,5.8 75.8,5.9 	"/>
	<polygon points="83.4,20.5 82.7,20 82.8,19.8 83.5,20.3 	"/>
	<rect x="72.6" y="18" width="0.9" height="0.2"/>
	<polygon points="86.4,16.4 86,15.5 86.2,15.4 86.6,16.3 	"/>
	<polygon points="85.6,11.4 85.5,11.2 86.3,10.8 86.3,11 	"/>
	<rect x="84.1" y="6.4" width="1.1" height="0.2"/>
	<rect x="79" y="7.1" transform="matrix(0.2735 -0.9619 0.9619 0.2735 50.049 81.6323)" width="0.2" height="1.3"/>
	<polygon points="72,8.4 71.9,8.2 73.1,7.8 73.1,8 	"/>
	<polygon points="73.1,10.9 72.3,10 72.4,9.9 73.3,10.8 	"/>
	<polygon points="77.6,9.6 76.9,9.2 77,9 77.7,9.4 	"/>
	<polygon points="84.8,8.1 84.1,7.4 84.3,7.3 84.9,8 	"/>
	<polygon points="79.5,10.1 78.9,9.5 79,9.4 79.6,10 	"/>
	<rect x="84.7" y="13.4" width="1" height="0.2"/>
	<rect x="85" y="16.7" width="1" height="0.2"/>
	<rect x="81.5" y="17.7" width="1" height="0.2"/>
	<polygon points="82.1,13.9 82.1,13.7 83.3,13.2 83.4,13.4 	"/>
	<rect x="78.7" y="10.6" width="0.8" height="0.2"/>
	<rect x="74.3" y="10.8" width="0.2" height="0.7"/>
	<polygon points="74.3,13.6 74.2,13.4 75,12.6 75.2,12.8 	"/>
	<rect x="78.7" y="20.9" transform="matrix(0.873 -0.4877 0.4877 0.873 -0.1688 41.2648)" width="0.9" height="0.2"/>
	<rect x="79.4" y="11.6" width="0.2" height="0.7"/>
	<rect x="81.4" y="15.7" transform="matrix(0.7413 -0.6712 0.6712 0.7413 10.2874 58.8819)" width="0.2" height="0.8"/>
	<rect x="79.3" y="16.9" transform="matrix(0.7216 -0.6923 0.6923 0.7216 10.1154 59.7945)" width="0.2" height="0.8"/>
	<polygon points="76.9,14.9 75.8,14.6 75.9,14.4 76.9,14.7 	"/>
	<rect x="74.2" y="16" width="0.9" height="0.2"/>
	<polygon points="77,16.2 76.9,16.1 77.4,15.6 77.5,15.7 	"/>
	<rect x="73.2" y="4.4" transform="matrix(0.4819 -0.8762 0.8762 0.4819 34.2034 66.785)" width="0.8" height="0.2"/>
	<polygon points="94.4,6.6 94.2,6.5 94.7,5.8 94.8,5.9 	"/>
	<polygon points="89,7.3 88.9,7.1 89.7,6.7 89.8,6.8 	"/>
	<polygon points="89.1,12.2 89,12.1 89.6,11.4 89.7,11.6 	"/>
	<rect x="88.5" y="16.9" transform="matrix(0.8671 -0.4982 0.4982 0.8671 3.3512 46.5739)" width="1" height="0.2"/>
	<polygon points="90.9,17.4 90.2,16.8 90.4,16.6 91,17.2 	"/>
	<polygon points="90.6,10.9 89.8,10 90,9.9 90.8,10.8 	"/>
	<rect x="89.8" y="12.9" width="0.2" height="0.9"/>
	<rect x="93.8" y="12.7" transform="matrix(0.5479 -0.8366 0.8366 0.5479 31.427 84.4819)" width="0.2" height="1"/>
	<rect x="90.1" y="14.9" width="0.2" height="0.8"/>
	<polygon points="92,18.3 91.9,18.1 92.7,17.7 92.8,17.9 	"/>
	<polygon points="91,4.9 90.8,4.8 91.2,4.1 91.4,4.1 	"/>
	<rect x="85" y="5.5" transform="matrix(0.8184 -0.5747 0.5747 0.8184 12.312 50.0782)" width="0.7" height="0.2"/>
	<polygon points="78.1,5.2 78,5.1 78.8,4.5 78.9,4.7 	"/>
	<polygon points="85.1,3.9 84.2,3.4 84.3,3.2 85.2,3.8 	"/>
	<rect x="81.4" y="3.5" transform="matrix(0.439 -0.8985 0.8985 0.439 42.1014 75.4561)" width="0.2" height="0.9"/>
	<polygon points="75,22.3 74.9,22.1 75.8,21.7 75.9,21.8 	"/>
	<rect x="75.9" y="18.5" transform="matrix(0.894 -0.4481 0.4481 0.894 -0.4642 36.0543)" width="0.2" height="1"/>
	<polygon points="92.4,21 92.3,20.8 93.2,20.3 93.3,20.5 	"/>
	<rect x="88.3" y="13.8" width="1" height="0.2"/>
	<polygon points="87.9,13.5 87.1,13.1 87.2,12.9 88,13.4 	"/>
	<rect x="94.4" y="7.3" transform="matrix(0.672 -0.7406 0.7406 0.672 25.2903 72.5286)" width="0.2" height="0.9"/>
	<polygon points="79.1,4.1 79.1,3.9 79.8,3.5 79.9,3.7 	"/>
	<polygon points="77.4,3.8 76.6,3.3 76.7,3.2 77.5,3.7 	"/>
	<rect x="90.1" y="3.3" width="0.9" height="0.2"/>
	<path stroke="#000000" fill="#000000" stroke-width="0.5324" d="M97.8,103.9c-1,0-1.9,1.2-2.6,3.6c-1.9,0.5-3.6,1.5-4.8,3.1c-0.7,0-1.2-1.3-1.3-1.8c0.2-0.6,0.4-1.2,0.8-1.7
		c10.3-10.2,29-35.3,29-49.9c0-15.2-9.3-28.8-23.4-34.4c0-4.2,0-11.7,0-12.9c0-1.7,0.3-1.7,0.3-1.7c0.5-0.3,1.6-1,1.5-2.1
		c-0.1-1.2-1.6-2.2-4.7-3.1c-2.9-0.7-5.9-1.1-8.9-1c-4,0-8,0.4-11.9,1.3c-2.1,0.6-3.5,1.8-3.5,3c0,0.8,0.4,1.4,1.1,1.7
		c1.3,0.6,1.4,1,1.4,2v0.4c0.1,0.7,0.1,10.1,0.1,12.7C57.6,29.2,49,42.6,49,57.3c0,14.8,19.6,41.5,29.6,51.2
		c0.6,1.1,0.3,2.4-0.6,3.2c-0.6-0.6-1.3-1-2.2-1c-1.4,0-2.6,1.1-3.4,2.8c-0.2-0.2-0.4-0.2-0.6-0.3c-0.4,0.1-0.8,0.3-1,0.7
		c-0.1,0-0.2,0-0.3,0c-1.2,0-2.1,1.6-2.1,3.5s1,3.5,2.1,3.5h0.1c0.3,0.6,0.7,1,1.2,1c0.3,0,0.5-0.1,0.7-0.3c0.8,1.6,2,2.7,3.4,2.7
		c0.7,0,1.5-0.3,2-0.9c0.6,0.6,1.1,1.4,1.2,2.2c0,0.8-0.3,1-0.3,1c0.5,1.8,0.8,3.6,1.1,5.5c0,0.1,0.1,128.3,0.2,128.5
		c0.2,0.3,0.6,0.5,1,0.5c1,0,2.6-1.1,3.3-1.6c0.9-0.6,2.4-1.9,2.5-2.9c0-0.1,0-0.2,0-0.3c0,0,0-123.1,0-124.2
		c0.3-1.9,0.7-3.7,1.2-5.5c0,0-0.2-0.2-0.1-1c0.2-1,0.7-1.9,1.5-2.6c1.1,2.3,3.2,4,5.6,4.6c0.7,2.8,1.6,4.3,2.7,4.3
		c2,0,3.7-5.7,3.7-14S99.8,103.9,97.8,103.9z M70.2,119.7c-0.6-0.6-0.9-1.5-0.8-2.4c-0.1-0.9,0.3-1.8,1-2.4
		c-0.3,0.8-0.4,1.7-0.4,2.6C69.9,118.2,70,119,70.2,119.7L70.2,119.7z M72,120.7l-0.1,0.1c0,0-0.1,0.1-0.1,0.1
		c-0.6-1-0.9-2.2-0.9-3.3c-0.1-1.2,0.2-2.3,0.9-3.3l0.2,0.3C71.4,116.5,71.4,118.6,72,120.7L72,120.7z M94.9,108.6v0.2
		c-1.4,1-2.4,2.3-3.1,3.9c-0.2-0.1-0.4-0.2-0.6-0.4l-0.7,0.1C91.4,110.5,93,109.2,94.9,108.6L94.9,108.6z M94.6,110.3
		c0,0.3-0.1,0.6-0.1,1c-0.1,0.9-0.9,1.7-1.8,1.7C93.1,111.9,93.8,111,94.6,110.3L94.6,110.3z M83.7,3c2.9-0.1,5.8,0.3,8.6,1L93,4.2
		c-1.5,0.6-5.5,1.1-10.1,1.1c-4.8,0-8.9-0.5-10.3-1.1C76.3,3.4,80,3,83.7,3z M69.8,7.1c-0.4-0.2-0.6-0.4-0.6-0.7
		c0-0.6,0.8-1.3,2.2-1.9c1.1,1.2,5,1.8,11.4,1.8c6.2,0,10-0.6,11.3-1.7c1.8,0.7,2.1,1.3,2.1,1.6S95.9,7,95.4,7.3
		C95,7.5,94.6,8,94.6,8.5c-3.8,1.3-7.8,1.9-11.9,1.8c-3.8,0.1-7.5-0.5-11.2-1.6C71.3,8,70.6,7.3,69.8,7.1z M94.5,23.7
		c-0.5,0.5-3.1,1.2-11.4,1.2c-7,0-9.9-0.8-11-1.3c-0.2-0.2-0.3-0.6-0.3-0.9c2.1-0.9,6.4-1.5,11.3-1.5s9.9,0.7,11.4,1.5
		C94.9,23.1,94.5,23.7,94.5,23.7z M71.9,10.2V9.8c0-0.3-0.1-0.6-0.1-0.8c3.6,1.1,7.3,1.6,11.1,1.5c4,0.1,8-0.5,11.8-1.8
		c0,0.4,0,0.8,0,1.2v12.6l0,0c-2.3-0.9-6.9-1.4-11.3-1.4s-9.1,0.5-11.4,1.4C71.8,18.7,72,11.1,71.9,10.2L71.9,10.2z M79.6,110.8
		c0.1-0.4,0.2-0.9,0.3-1.3c0-0.8-0.4-1.7-0.9-2.3C69.5,97.7,50,72.2,50,57.2c0-14.3,8.8-27.6,21.3-33.2c0,0,0.1,0.2,0.4,0.4
		c2.2,1.1,7.9,1.5,11.5,1.5c12.4,0,12.4-1.9,12.3-2c13.5,5.6,22.3,18.7,22.4,33.3c0,14.7-19.1,39.4-28.9,49.4c-0.6,0.6-1,1.5-1,2.4
		c0.3,1.2,1.2,2.4,1.7,2.5c-0.2,0.3-0.3,0.6-0.5,0.8l-12.1,1c0.1-0.1,0.2-0.1,0.3-0.2C78.4,112.7,79.2,111.9,79.6,110.8z
		 M83.9,113.8v7.5l-1-0.1v-7.3L83.9,113.8z M81.9,114v7.2l-5.5-0.4c-0.8-0.9-1.3-2-1.3-3.2c0-1.1,0.3-2.1,1-3L81.9,114z M75.9,111.6
		c0.5,0,1,0.3,1.4,0.6l-0.1,0.1c-0.6,0.3-1.1,0.7-1.5,1.2l-2.2,0.2C74,112.4,75,111.6,75.9,111.6L75.9,111.6z M73.2,120.4
		c-0.4-1-0.5-2-0.5-3c0-0.9,0.1-1.8,0.4-2.7l1.9-0.2c-0.5,0.9-0.7,1.9-0.7,2.9c0,1.1,0.3,2.2,0.9,3.1L73.2,120.4z M75.9,123.2
		c-1-0.2-1.8-0.8-2.3-1.7l2.4,0.2c0.4,0.4,0.8,0.7,1.2,1C76.8,123,76.3,123.2,75.9,123.2L75.9,123.2z M83.8,258.6
		c-0.8,0.7-1.7,1.1-2.7,1.4c-0.1,0-0.1,0-0.2-0.1c0-0.1-0.1-0.8,2.1-2.3c0.8-0.7,1.7-1.1,2.7-1.4c0.1,0,0.1,0,0.2,0.1
		c0,0,0,0.1,0,0.1C85.8,256.7,85.4,257.4,83.8,258.6L83.8,258.6z M87,125.5c0,0.4,0,0.7,0.1,1.1c-0.5,1.8-0.9,3.6-1.1,5.5v123.1
		c-0.1,0-0.1,0-0.2,0c-1,0-2.6,1.1-3.3,1.6c-0.6,0.4-1.1,0.8-1.5,1.3V134.3v-2.1c-0.2-1.8-0.5-3.6-1-5.3c0.2-0.4,0.2-0.8,0.2-1.3
		c-0.1-1.8-2-3.4-2.3-3.6l-0.1-0.1l10.6,0.9C87.6,123.5,87.1,124.5,87,125.5L87,125.5z M85,121.4v-7.7l4-0.3c-1,2.7-1,5.6,0,8.3
		L85,121.4z M90.1,113.3l0.8-0.1c0.2,0.1,0.4,0.2,0.5,0.3c-0.9,2.6-0.9,5.4,0,8c-0.2,0.1-0.5,0.2-0.7,0.3l-0.7-0.1
		C88.8,119.5,89,115.7,90.1,113.3z M90.6,122.9h0.5c0.2-0.2,0.5-0.3,0.8-0.4c0.7,1.5,1.7,2.8,3,3.7v0.2c-1.9-0.6-3.4-1.9-4.4-3.6
		L90.6,122.9z M92.9,122.5c0.8,0.1,1.5,0.8,1.6,1.6c0,0.3,0.1,0.5,0.1,0.7c-0.8-0.7-1.4-1.5-1.9-2.4L92.9,122.5z M97.9,130.9
		c-0.4-0.1-1.6-0.9-2.3-6.8c-0.2-1.5-1.6-2.6-3.1-2.6l0,0c-0.5-1.2-0.7-2.6-0.7-3.9c0-1.3,0.2-2.5,0.7-3.7c1.5,0.2,2.9-0.8,3.1-2.3
		c0-0.1,0-0.2,0-0.2c0.8-5.8,2-6.4,2.3-6.5c0.9,0.3,2.7,4.3,2.7,13s-1.9,12.7-2.8,13L97.9,130.9z"/>
</g>
</svg>
