<?xml version="1.0" encoding="utf-8"?>
<!-- Generator: Adobe Illustrator 16.0.0, SVG Export Plug-In . SVG Version: 6.00 Build 0)  -->
<!DOCTYPE svg PUBLIC "-//W3C//DTD SVG 1.1//EN" "http://www.w3.org/Graphics/SVG/1.1/DTD/svg11.dtd">
<svg version="1.1" id="图层_1" xmlns="http://www.w3.org/2000/svg" xmlns:xlink="http://www.w3.org/1999/xlink" x="0px" y="0px"
	 width="40px" height="40px" viewBox="0 0 40 40" enable-background="new 0 0 40 40" xml:space="preserve">
<g>
	<g>
		<rect x="6" y="8" fill="#4C4C4C" width="8" height="1"/>
		<rect x="6" y="31" fill="#4C4C4C" width="8" height="1"/>
		<rect x="6" y="8" fill="#4C4C4C" width="1" height="24"/>
	</g>
	<g>
		<rect x="19" y="8" fill="#4C4C4C" width="8" height="1"/>
		<rect x="19" y="31" fill="#4C4C4C" width="8" height="1"/>
		<rect x="26" y="8" fill="#4C4C4C" width="1" height="24"/>
	</g>
</g>
<g>
	<rect x="29" y="29" fill="#4C4C4C" width="1" height="3"/>
	<g>
		<rect x="33" y="28.911" fill="#4C4C4C" width="1" height="3.089"/>
		<path fill="#4C4C4C" d="M30,29.037c0.021-0.809,0.684-1.459,1.496-1.459s1.475,0.65,1.496,1.459h1
			c-0.021-1.361-1.129-2.459-2.496-2.459S29.021,27.676,29,29.037H30z"/>
	</g>
</g>
</svg>
