<?xml version="1.0" encoding="utf-8"?>
<!-- Generator: Adobe Illustrator 16.0.0, SVG Export Plug-In . SVG Version: 6.00 Build 0)  -->
<!DOCTYPE svg PUBLIC "-//W3C//DTD SVG 1.1//EN" "http://www.w3.org/Graphics/SVG/1.1/DTD/svg11.dtd">
<svg version="1.1" id="图层_1" xmlns="http://www.w3.org/2000/svg" xmlns:xlink="http://www.w3.org/1999/xlink" x="0px" y="0px"
	 width="40px" height="40px" viewBox="0 0 40 40" enable-background="new 0 0 40 40" xml:space="preserve">
<path display="none" fill="#6B6C6B" d="M878.457-66.628c2.071,2.085,2.071,5.414,0,7.471L287.543,531.786
	c-2.086,2.085-5.415,2.085-7.486,0L242.657,494.4c-2.071-2.086-2.071-5.415,0-7.443L833.6-104.014c2.086-2.086,5.415-2.086,7.458,0
	L878.457-66.628z"/>
<g>
	<path fill="#333333" d="M33.621,10.999c0.03,0.033-0.004,0.122-0.082,0.2l-22.34,22.343c-0.079,0.076-0.167,0.111-0.201,0.083
		l-0.588-0.589c-0.032-0.032,0.002-0.121,0.083-0.201l22.343-22.343c0.079-0.079,0.168-0.115,0.202-0.083L33.621,10.999z"/>
	<g>
		<path fill="#333333" d="M15.456,19.803l-8.996,9c-0.082,0.081-0.117,0.169-0.084,0.199l0.588,0.589c0.032,0.033,0.122,0,0.2-0.081
			l8.998-9.001L15.456,19.803z"/>
		<path fill="#333333" d="M28.802,6.458l-8.998,8.998l0.707,0.707l8.997-8.997c0.078-0.078,0.114-0.166,0.08-0.199L29,6.378
			C28.969,6.343,28.883,6.382,28.802,6.458z"/>
	</g>
	<path fill="#333333" d="M19.128,17.431c0.032,0.032-0.004,0.121-0.081,0.2l-1.416,1.413c-0.078,0.078-0.167,0.115-0.199,0.083
		l-0.588-0.588c-0.033-0.033,0.003-0.121,0.083-0.201l1.414-1.414c0.079-0.076,0.167-0.113,0.2-0.081L19.128,17.431z"/>
</g>
</svg>
