<?xml version="1.0" encoding="utf-8"?>
<!-- Generator: Adobe Illustrator 21.0.0, SVG Export Plug-In . SVG Version: 6.00 Build 0)  -->
<svg version="1.1" xmlns="http://www.w3.org/2000/svg" xmlns:xlink="http://www.w3.org/1999/xlink" x="0px" y="0px" width="160" height="192"
	 viewBox="0 0 160 192" enable-background="new 0 0 160 192" xml:space="preserve">
<g id="图层_10">
	<g>
		<linearGradient id="SVGID_19_" gradientUnits="userSpaceOnUse" x1="79.6772" y1="102.6232" x2="79.958" y2="188.3225">
			<stop  offset="0.1828" style="stop-color:#99FFFF;stop-opacity:0.1"/>
			<stop  offset="0.5834" style="stop-color:#45C6FF;stop-opacity:0.2113"/>
			<stop  offset="0.9028" style="stop-color:#0097FF;stop-opacity:0.3"/>
		</linearGradient>
		<path fill="url(#SVGID_19_)" stroke="none" d="M18.9,124.3c-1.5,38.9,27.3,65.5,60.8,65.5c32.8,0,62.2-25.8,61-65.4c0,0-0.2-1.8-1.5-3.1
			c-4.3-4.2-34.1-7.8-59.1-7.8C49.9,113.5,19.5,117,18.9,124.3z"/>
		
			<radialGradient id="SVGID_20_" cx="79.6711" cy="122.0526" r="43.2117" gradientTransform="matrix(1 0 0 0.4 0 73.2315)" gradientUnits="userSpaceOnUse">
			<stop  offset="0.2849" style="stop-color:#99FFFF;stop-opacity:0.1"/>
			<stop  offset="1" style="stop-color:#0097FF;stop-opacity:0.1"/>
		</radialGradient>
		<path fill="url(#SVGID_20_)" stroke="none" d="M140,122.1c0,5.3-27.2,9.6-60.8,9.6s-59.9-4.3-59.9-9.6c0-5.3,26.3-9.5,59.9-9.5
			S140,116.8,140,122.1z"/>
	</g>
	<g id="Spline_2_">
		<line shape-rendering="auto" fill="none" stroke="#000000" stroke-width="0.2549" x1="76.3" y1="47.9" x2="76.9" y2="46.6"/>
		<line shape-rendering="auto" fill="none" stroke="#000000" stroke-width="0.2549" x1="84.4" y1="47.9" x2="85.8" y2="47.3"/>
		<line shape-rendering="auto" fill="none" stroke="#000000" stroke-width="0.2549" x1="77.3" y1="49.8" x2="76.3" y2="48.7"/>
		<line shape-rendering="auto" fill="none" stroke="#000000" stroke-width="0.2549" x1="92.7" y1="48.5" x2="91.9" y2="47.3"/>
		<line shape-rendering="auto" fill="none" stroke="#000000" stroke-width="0.2549" x1="64" y1="38" x2="64.6" y2="39.5"/>
		<line shape-rendering="auto" fill="none" stroke="#000000" stroke-width="0.2549" x1="64.3" y1="29.8" x2="63.2" y2="30.6"/>
		<line shape-rendering="auto" fill="none" stroke="#000000" stroke-width="0.2549" x1="79.2" y1="22.2" x2="80.5" y2="21.4"/>
		<line shape-rendering="auto" fill="none" stroke="#000000" stroke-width="0.2549" x1="71.8" y1="22.2" x2="70.8" y2="21.1"/>
		<line shape-rendering="auto" fill="none" stroke="#000000" stroke-width="0.2549" x1="68.6" y1="27.4" x2="68.1" y2="25.9"/>
		<line shape-rendering="auto" fill="none" stroke="#000000" stroke-width="0.2549" x1="67.8" y1="37.9" x2="66.4" y2="36.8"/>
		<line shape-rendering="auto" fill="none" stroke="#000000" stroke-width="0.2549" x1="66" y1="31.4" x2="66.7" y2="29.8"/>
		<line shape-rendering="auto" fill="none" stroke="#000000" stroke-width="0.2549" x1="66.5" y1="22.9" x2="65.7" y2="21.7"/>
		<line shape-rendering="auto" fill="none" stroke="#000000" stroke-width="0.2549" x1="90.7" y1="45.6" x2="91.7" y2="44.2"/>
		<line shape-rendering="auto" fill="none" stroke="#000000" stroke-width="0.2549" x1="81.1" y1="46.2" x2="82.1" y2="45.2"/>
		<line shape-rendering="auto" fill="none" stroke="#000000" stroke-width="0.2549" x1="71.2" y1="41.2" x2="70.2" y2="40.2"/>
		<line shape-rendering="auto" fill="none" stroke="#000000" stroke-width="0.2549" x1="91.2" y1="35.4" x2="89.8" y2="36.7"/>
		<line shape-rendering="auto" fill="none" stroke="#000000" stroke-width="0.2549" x1="87.8" y1="27.9" x2="89.6" y2="28.4"/>
		<line shape-rendering="auto" fill="none" stroke="#000000" stroke-width="0.2549" x1="84.4" y1="22.1" x2="85.8" y2="21.4"/>
		<line shape-rendering="auto" fill="none" stroke="#000000" stroke-width="0.2549" x1="77" y1="24.6" x2="76.1" y2="23.6"/>
		<line shape-rendering="auto" fill="none" stroke="#000000" stroke-width="0.2549" x1="74.3" y1="25.7" x2="72.2" y2="25.2"/>
		<line shape-rendering="auto" fill="none" stroke="#000000" stroke-width="0.2549" x1="73.7" y1="28" x2="72.2" y2="26.9"/>
		<line shape-rendering="auto" fill="none" stroke="#000000" stroke-width="0.2549" x1="82.9" y1="27.2" x2="82.3" y2="25.7"/>
		<line shape-rendering="auto" fill="none" stroke="#000000" stroke-width="0.2549" x1="87.7" y1="26.5" x2="86.9" y2="25.3"/>
		<line shape-rendering="auto" fill="none" stroke="#000000" stroke-width="0.2549" x1="83.6" y1="29.7" x2="82.5" y2="28.9"/>
		<line shape-rendering="auto" fill="none" stroke="#000000" stroke-width="0.2549" x1="86" y1="37.3" x2="87" y2="36.3"/>
		<line shape-rendering="auto" fill="none" stroke="#000000" stroke-width="0.2549" x1="88.9" y1="43.3" x2="87.6" y2="42.4"/>
		<line shape-rendering="auto" fill="none" stroke="#000000" stroke-width="0.2549" x1="84" y1="44" x2="82.7" y2="43.3"/>
		<line shape-rendering="auto" fill="none" stroke="#000000" stroke-width="0.2549" x1="85.6" y1="30.6" x2="85.6" y2="32.2"/>
		<line shape-rendering="auto" fill="none" stroke="#000000" stroke-width="0.2549" x1="77.3" y1="31.3" x2="78.3" y2="30.1"/>
		<line shape-rendering="auto" fill="none" stroke="#000000" stroke-width="0.2549" x1="69.7" y1="34.9" x2="69.7" y2="33.4"/>
		<line shape-rendering="auto" fill="none" stroke="#000000" stroke-width="0.2549" x1="76.2" y1="34.3" x2="75" y2="33.4"/>
		<line shape-rendering="auto" fill="none" stroke="#000000" stroke-width="0.2549" x1="82.1" y1="34.1" x2="81" y2="33.3"/>
		<line shape-rendering="auto" fill="none" stroke="#000000" stroke-width="0.2549" x1="82.8" y1="40.8" x2="82.8" y2="39.3"/>
		<line shape-rendering="auto" fill="none" stroke="#000000" stroke-width="0.2549" x1="79.7" y1="37.8" x2="80.4" y2="38.9"/>
		<line shape-rendering="auto" fill="none" stroke="#000000" stroke-width="0.2549" x1="68.1" y1="49.1" x2="69.5" y2="48.3"/>
		<line shape-rendering="auto" fill="none" stroke="#000000" stroke-width="0.2549" x1="73" y1="37.8" x2="72.4" y2="36.6"/>
		<line shape-rendering="auto" fill="none" stroke="#000000" stroke-width="0.2549" x1="74.6" y1="41.4" x2="75.2" y2="40.3"/>
		<line shape-rendering="auto" fill="none" stroke="#000000" stroke-width="0.2549" x1="78.3" y1="40.7" x2="77.1" y2="40.7"/>
		<line shape-rendering="auto" fill="none" stroke="#000000" stroke-width="0.2549" x1="75.4" y1="19.2" x2="74.7" y2="17.7"/>
		<line shape-rendering="auto" fill="none" stroke="#000000" stroke-width="0.2549" x1="95.1" y1="27.4" x2="94.5" y2="25.9"/>
		<line shape-rendering="auto" fill="none" stroke="#000000" stroke-width="0.2549" x1="92.9" y1="22.9" x2="92.1" y2="21.7"/>
		<line shape-rendering="auto" fill="none" stroke="#000000" stroke-width="0.2549" x1="62.5" y1="20.6" x2="63.4" y2="19.9"/>
		<line shape-rendering="auto" fill="none" stroke="#000000" stroke-width="0.2549" x1="63.9" y1="5.6" x2="64.9" y2="6.8"/>
		<line shape-rendering="auto" fill="none" stroke="#000000" stroke-width="0.2549" x1="63.8" y1="14.2" x2="62.3" y2="14.2"/>
		<line shape-rendering="auto" fill="none" stroke="#000000" stroke-width="0.2549" x1="67.8" y1="11.8" x2="66.4" y2="10.7"/>
		<line shape-rendering="auto" fill="none" stroke="#000000" stroke-width="0.2549" x1="66" y1="5.3" x2="66.7" y2="3.6"/>
		<line shape-rendering="auto" fill="none" stroke="#000000" stroke-width="0.2549" x1="90.7" y1="19.5" x2="91.7" y2="18.1"/>
		<line shape-rendering="auto" fill="none" stroke="#000000" stroke-width="0.2549" x1="81.1" y1="20.1" x2="82.1" y2="19.1"/>
		<line shape-rendering="auto" fill="none" stroke="#000000" stroke-width="0.2549" x1="71.2" y1="15.1" x2="70.2" y2="14"/>
		<line shape-rendering="auto" fill="none" stroke="#000000" stroke-width="0.2549" x1="91.2" y1="9.2" x2="89.8" y2="10.5"/>
		<line shape-rendering="auto" fill="none" stroke="#000000" stroke-width="0.2549" x1="74.7" y1="3.6" x2="73.7" y2="2.8"/>
		<line shape-rendering="auto" fill="none" stroke="#000000" stroke-width="0.2549" x1="89.6" y1="8.3" x2="88.1" y2="8.3"/>
		<line shape-rendering="auto" fill="none" stroke="#000000" stroke-width="0.2549" x1="90" y1="14.2" x2="88.6" y2="14.2"/>
		<line shape-rendering="auto" fill="none" stroke="#000000" stroke-width="0.2549" x1="83.4" y1="16" x2="84.8" y2="16"/>
		<line shape-rendering="auto" fill="none" stroke="#000000" stroke-width="0.2549" x1="86.1" y1="7.9" x2="84.3" y2="8.9"/>
		<line shape-rendering="auto" fill="none" stroke="#000000" stroke-width="0.2549" x1="79.2" y1="3.3" x2="80.4" y2="3.3"/>
		<line shape-rendering="auto" fill="none" stroke="#000000" stroke-width="0.2549" x1="76.2" y1="8.2" x2="75" y2="7.2"/>
		<line shape-rendering="auto" fill="none" stroke="#000000" stroke-width="0.2549" x1="66.5" y1="48.7" x2="65.7" y2="47.6"/>
		<line shape-rendering="auto" fill="none" stroke="#000000" stroke-width="0.2549" x1="95.1" y1="35.2" x2="93.6" y2="35.2"/>
		<line shape-rendering="auto" fill="none" stroke="#000000" stroke-width="0.2549" x1="93.2" y1="34.3" x2="91.8" y2="33.5"/>
		<line shape-rendering="auto" fill="none" stroke="#000000" stroke-width="0.2549" x1="64.9" y1="9.2" x2="63.6" y2="10.5"/>
		<line shape-rendering="auto" fill="none" stroke="#000000" stroke-width="0.2549" x1="69.7" y1="8.8" x2="69.7" y2="7.2"/>
		<line shape-rendering="auto" fill="none" stroke="#000000" stroke-width="0.2549" x1="81.2" y1="10.5" x2="82.1" y2="9.4"/>
		<line shape-rendering="auto" fill="none" stroke="#000000" stroke-width="0.2549" x1="79.7" y1="17.4" x2="80.9" y2="16.8"/>
		<line shape-rendering="auto" fill="none" stroke="#000000" stroke-width="0.2549" x1="78.1" y1="9.7" x2="79" y2="8.6"/>
		<line shape-rendering="auto" fill="none" stroke="#000000" stroke-width="0.2549" x1="70" y1="12.3" x2="70" y2="10.9"/>
		<line shape-rendering="auto" fill="none" stroke="#000000" stroke-width="0.2549" x1="72.7" y1="16.7" x2="73.9" y2="16"/>
		<line shape-rendering="auto" fill="none" stroke="#000000" stroke-width="0.2549" x1="77.3" y1="17.1" x2="76.1" y2="16.2"/>
		<line shape-rendering="auto" fill="none" stroke="#000000" stroke-width="0.2549" x1="94.2" y1="11.8" x2="92.9" y2="10.7"/>
		<line shape-rendering="auto" fill="none" stroke="#000000" stroke-width="0.2549" x1="92.1" y1="5.8" x2="92.8" y2="4.1"/>
		<line shape-rendering="auto" fill="none" stroke="#000000" stroke-width="0.2549" x1="96.1" y1="7.9" x2="96.8" y2="6.6"/>
		<path stroke="#000000" fill="#000000" stroke-width="0.5324" d="M107.1,73.5c-8.4-4.4-9-12.4-9.1-13c0-0.6-0.2-4-0.2-4s-0.2-5.4-2.3-7.1l2-39.3c0,0-0.1-1,0.6-1.4
			c1.1-0.7,1.8-1.2,1.8-1.9c0-2.6-9.3-4.7-20.7-4.7C67.7,2,58.4,4.1,58.4,6.7c0,0.7,0.7,1.3,1.8,2c0.6,0.3,0.5,1.4,0.5,1.4l2.3,39.4
			c-2.1,1.7-2.1,7.2-2.1,7.2s0,3.3,0,3.9c0,0.6-0.8,8.7-8.2,13c-20.3,10-34.3,30.9-34.3,55.1c0,33.9,27.5,61.4,61.4,61.4
			c33.9,0,61.5-27.5,61.5-61.4C141.3,104.5,127.4,83.5,107.1,73.5z M79.1,3c7.2,0,12.5,0.8,15.8,1.7c-1.9,1-8.2,1.8-15.6,1.8
			c-7.6,0-13.9-0.8-15.7-1.8C66.9,3.8,72.1,3,79.1,3z M60.8,7.8c-1.3-0.7-1.3-1.1-1.3-1.1c0-0.4,1-1.1,3-1.7
			c2.2,2.2,12.2,2.5,16.8,2.5c4.6,0,14.4-0.3,16.8-2.4c1.9,0.6,2.8,1.2,2.8,1.7c0,0.1-0.1,0.3-1.3,1.1c-0.4,0.3-0.7,0.7-0.9,1
			c-3.3,1.2-9.6,2.2-17.6,2.2c-7.9,0-14.2-0.9-17.5-2.1C61.5,8.5,61.2,8.1,60.8,7.8z M61.8,10c0-0.1,0-0.5-0.1-0.9
			c3.6,1.3,10,2.1,17.4,2.1c7.4,0,13.9-0.9,17.5-2.1c-0.1,0.4-0.1,0.8-0.1,1l-2,39.3c-2.3-1.6-7.9-2.9-15.1-2.9
			c-7.3,0-12.9,1.4-15.2,3L61.8,10z M95.3,50.6c-0.1,1.7-6.4,4-16,4c-9.2,0-15.3-2.2-16-3.8c0.2-0.3,0.3-0.5,0.5-0.6l0.4-0.3l0,0
			c1.9-1.5,7.4-3,15.2-3c8.4,0,14.2,1.8,15.6,3.4l0,0C95.1,50.3,95.2,50.5,95.3,50.6z M79.8,189.1c-33.3,0-60.4-27.1-60.4-60.4
			c0-23.2,12.9-43.9,33.8-54.2c7.9-4.5,8.7-12.9,8.8-13.8c0-0.6,0-3.6,0-4c0-1.3,0.3-3.3,0.8-4.8c1.9,2.2,8.6,3.8,16.5,3.8
			c8.1,0,14.8-1.7,16.6-3.9c0.6,1.5,0.9,3.5,0.9,4.8l0.2,4.1c0,0.4,0.5,9.1,9.6,13.8c20.8,10.3,33.7,31,33.7,54.2
			C140.3,162,113.2,189.1,79.8,189.1z"/>
	</g>
</g>

</svg>
