<?xml version="1.0" encoding="utf-8"?>
<!-- Generator: Adobe Illustrator 18.0.0, SVG Export Plug-In . SVG Version: 6.00 Build 0)  -->
<!DOCTYPE svg PUBLIC "-//W3C//DTD SVG 1.1//EN" "http://www.w3.org/Graphics/SVG/1.1/DTD/svg11.dtd">
<svg version="1.1" xmlns="http://www.w3.org/2000/svg" xmlns:xlink="http://www.w3.org/1999/xlink" x="0px" y="0px" width="160" height="192"
	 viewBox="0 0 160 192" enable-background="new 0 0 160 192" xml:space="preserve">
<g id="图层_4">
	<g>
		<linearGradient id="SVGID_5_" gradientUnits="userSpaceOnUse" x1="80.1422" y1="96.4525" x2="80.4402" y2="187.3741">
			<stop  offset="0.1828" style="stop-color:#99FFFF;stop-opacity:0.1"/>
			<stop  offset="0.5834" style="stop-color:#45C6FF;stop-opacity:0.2113"/>
			<stop  offset="0.9028" style="stop-color:#0097FF;stop-opacity:0.3"/>
		</linearGradient>
		<path fill="url(#SVGID_5_)" stroke="none" d="M15.6,119.4c-1.5,41.3,29,69.5,64.5,69.5c34.8,0,65.1-27,64.7-69.4c0,0-0.2-1.9-1.6-3.3
			c-4.5-4.4-36.2-8.3-62.7-8.3C48.6,108,16.3,111.8,15.6,119.4z"/>
		
			<radialGradient id="SVGID_6_" cx="80.1501" cy="118.1267" r="45.845" gradientTransform="matrix(1 0 0 0.4 0 70.876)" gradientUnits="userSpaceOnUse">
			<stop  offset="0.2849" style="stop-color:#99FFFF;stop-opacity:0.1"/>
			<stop  offset="1" style="stop-color:#0097FF;stop-opacity:0.1"/>
		</radialGradient>
		<path fill="url(#SVGID_6_)" stroke="none" d="M144.2,118.1c0,5.6-28.9,10.1-64.5,10.1s-63.5-4.6-63.5-10.2c0-5.6,27.9-10.1,63.5-10.1
			S144.2,112.5,144.2,118.1z"/>
	</g>
	<path stroke="#000000" fill="#000000" stroke-width="0.5324" d="M113.2,68.5c-1.1-0.6-2.3-2.3-2.6-3.1c-3.7-8.1-8-14.2-14.6-18.2l2-37.5c0,0,0,0,0,0l0,0c0,0,0,0,0,0
		c0-0.3,0.1-0.9,0.6-1.3c1-0.7,1.7-1.2,1.7-1.9c0,0,0,0,0,0c0,0,0,0,0,0c0-2.5-9-4.6-20-4.6c-11.1,0-20,2-20,4.6c0,0,0,0,0,0
		c0,0,0,0,0,0c0,0.7,0.7,1.3,1.8,1.9c0.5,0.3,0.5,1.3,0.5,1.3l2.1,37.5c-6.4,4-11.4,10.5-15.1,18.6c-0.4,1-1.3,1.9-1.9,2.3
		C28.1,79.5,15,100.5,15,124.7c0,0,0,0,0,0c0,0,0,0,0,0c0,36,29,65.2,65,65.2c36,0,65-29.2,65-65.2c0,0,0,0,0,0c0,0,0,0,0,0
		C145,100.8,132.3,79.9,113.2,68.5z M80.2,3c7.1,0,12.3,0.8,15.4,1.7c-1.3,1.1-7.5,1.9-15.2,1.9c-7.9,0-14.3-0.9-15.3-2.1
		C68.4,3.7,73.4,3,80.2,3z M62.5,7.5c-1-0.6-1.2-0.9-1.3-1c0-0.4,1.1-1,3-1.7c1.4,2.5,11.7,2.8,16.3,2.8C85,7.7,95,7.4,96.7,5
		c1.7,0.6,2.5,1.1,2.6,1.5c-0.1,0.1-0.3,0.4-1.2,1c-0.7,0.4-0.9,1.1-1,1.6c-2.1,0.9-7.8,1.8-16.7,1.8c-9.1,0-14.8-0.9-16.8-1.8
		C63.4,8.6,63.1,7.9,62.5,7.5z M63.5,9.7c0-0.1,0-0.1,0-0.3c3.3,1.1,8.6,1.7,16.8,1.7c8.1,0,15.6-0.9,16.7-1.8c0,0.1,0,0.2,0,0.3
		c0,0,0,0.1,0,0.1l-2,37.1c-2.3-1.4-7.7-2.4-14.7-2.4c-6.9,0-12.2,1-14.6,2.4L63.5,9.7z M95,47.1L95,47.1c-0.8,0.7-6.3,1.8-15,1.8
		c-8.6,0-13.5-1.2-14.3-1.8l0,0c2.2-1.4,7.3-2.4,14.6-2.4C87.6,44.7,92.9,45.8,95,47.1z M80.2,188.9c-35.4,0-64.2-28.8-64.2-64.2
		c0-22.9,12.3-44.2,32.1-55.6c0.9-0.5,1.9-1.7,2.4-2.8c3.7-8.2,8.6-14.3,14.7-18.1l0.2-0.1C67.3,49.2,73.1,50,80,50
		c6.9,0,13.2-0.8,15.2-1.8l0.2,0.1c5.8,3.5,10.2,9,14.3,17.7c0.4,0.9,1.8,2.7,3.1,3.5c19.4,11.5,31.5,32.7,31.5,55.3
		C144.3,160.1,115.6,188.9,80.2,188.9z"/>
	<g>
		
			<line fill="none" stroke="#000000" stroke-width="0.2058" stroke-linecap="round" stroke-miterlimit="1" x1="69.8" y1="47.9" x2="71" y2="47.2"/>
		
			<line fill="none" stroke="#000000" stroke-width="0.2058" stroke-linecap="round" stroke-miterlimit="1" x1="85.2" y1="46.9" x2="86.5" y2="46.2"/>
		
			<line fill="none" stroke="#000000" stroke-width="0.2058" stroke-linecap="round" stroke-miterlimit="1" x1="78.5" y1="48.6" x2="77.6" y2="47.6"/>
		
			<line fill="none" stroke="#000000" stroke-width="0.2058" stroke-linecap="round" stroke-miterlimit="1" x1="93.1" y1="47.4" x2="92.3" y2="46.2"/>
		
			<line fill="none" stroke="#000000" stroke-width="0.2058" stroke-linecap="round" stroke-miterlimit="1" x1="65.9" y1="37.4" x2="66.4" y2="38.9"/>
		
			<line fill="none" stroke="#000000" stroke-width="0.2058" stroke-linecap="round" stroke-miterlimit="1" x1="66.2" y1="29.6" x2="65.1" y2="30.4"/>
		
			<line fill="none" stroke="#000000" stroke-width="0.2058" stroke-linecap="round" stroke-miterlimit="1" x1="80.3" y1="22.4" x2="81.5" y2="21.7"/>
		
			<line fill="none" stroke="#000000" stroke-width="0.2058" stroke-linecap="round" stroke-miterlimit="1" x1="73.3" y1="22.4" x2="72.3" y2="21.3"/>
		
			<line fill="none" stroke="#000000" stroke-width="0.2058" stroke-linecap="round" stroke-miterlimit="1" x1="70.3" y1="27.3" x2="69.7" y2="25.9"/>
		
			<line fill="none" stroke="#000000" stroke-width="0.2058" stroke-linecap="round" stroke-miterlimit="1" x1="69.5" y1="37.3" x2="68.2" y2="36.3"/>
		
			<line fill="none" stroke="#000000" stroke-width="0.2058" stroke-linecap="round" stroke-miterlimit="1" x1="67.7" y1="31.2" x2="68.4" y2="29.6"/>
		
			<line fill="none" stroke="#000000" stroke-width="0.2058" stroke-linecap="round" stroke-miterlimit="1" x1="68.2" y1="23.1" x2="67.5" y2="21.9"/>
		
			<line fill="none" stroke="#000000" stroke-width="0.2058" stroke-linecap="round" stroke-miterlimit="1" x1="91.2" y1="44.6" x2="92.1" y2="43.3"/>
		
			<line fill="none" stroke="#000000" stroke-width="0.2058" stroke-linecap="round" stroke-miterlimit="1" x1="82.1" y1="45.2" x2="83" y2="44.2"/>
		
			<line fill="none" stroke="#000000" stroke-width="0.2058" stroke-linecap="round" stroke-miterlimit="1" x1="72.7" y1="40.5" x2="71.8" y2="39.5"/>
		
			<line fill="none" stroke="#000000" stroke-width="0.2058" stroke-linecap="round" stroke-miterlimit="1" x1="91.6" y1="34.9" x2="90.4" y2="36.1"/>
		
			<line fill="none" stroke="#000000" stroke-width="0.2058" stroke-linecap="round" stroke-miterlimit="1" x1="88.4" y1="27.8" x2="90.2" y2="28.3"/>
		
			<line fill="none" stroke="#000000" stroke-width="0.2058" stroke-linecap="round" stroke-miterlimit="1" x1="85.2" y1="22.3" x2="86.5" y2="21.6"/>
		
			<line fill="none" stroke="#000000" stroke-width="0.2058" stroke-linecap="round" stroke-miterlimit="1" x1="78.2" y1="24.7" x2="77.3" y2="23.7"/>
		
			<line fill="none" stroke="#000000" stroke-width="0.2058" stroke-linecap="round" stroke-miterlimit="1" x1="75.6" y1="25.8" x2="73.6" y2="25.2"/>
		
			<line fill="none" stroke="#000000" stroke-width="0.2058" stroke-linecap="round" stroke-miterlimit="1" x1="75.1" y1="27.9" x2="73.6" y2="26.8"/>
		
			<line fill="none" stroke="#000000" stroke-width="0.2058" stroke-linecap="round" stroke-miterlimit="1" x1="83.8" y1="27.1" x2="83.2" y2="25.8"/>
		
			<line fill="none" stroke="#000000" stroke-width="0.2058" stroke-linecap="round" stroke-miterlimit="1" x1="88.3" y1="26.5" x2="87.6" y2="25.3"/>
		
			<line fill="none" stroke="#000000" stroke-width="0.2058" stroke-linecap="round" stroke-miterlimit="1" x1="84.5" y1="29.5" x2="83.4" y2="28.7"/>
		
			<line fill="none" stroke="#000000" stroke-width="0.2058" stroke-linecap="round" stroke-miterlimit="1" x1="86.7" y1="36.8" x2="87.7" y2="35.8"/>
		
			<line fill="none" stroke="#000000" stroke-width="0.2058" stroke-linecap="round" stroke-miterlimit="1" x1="89.5" y1="42.5" x2="88.2" y2="41.6"/>
		
			<line fill="none" stroke="#000000" stroke-width="0.2058" stroke-linecap="round" stroke-miterlimit="1" x1="84.8" y1="43.1" x2="83.6" y2="42.4"/>
		
			<line fill="none" stroke="#000000" stroke-width="0.2058" stroke-linecap="round" stroke-miterlimit="1" x1="86.4" y1="30.4" x2="86.4" y2="31.9"/>
		
			<line fill="none" stroke="#000000" stroke-width="0.2058" stroke-linecap="round" stroke-miterlimit="1" x1="78.5" y1="31" x2="79.4" y2="29.9"/>
		
			<line fill="none" stroke="#000000" stroke-width="0.2058" stroke-linecap="round" stroke-miterlimit="1" x1="71.2" y1="34.5" x2="71.2" y2="33"/>
		
			<line fill="none" stroke="#000000" stroke-width="0.2058" stroke-linecap="round" stroke-miterlimit="1" x1="77.5" y1="33.9" x2="76.3" y2="33"/>
		
			<line fill="none" stroke="#000000" stroke-width="0.2058" stroke-linecap="round" stroke-miterlimit="1" x1="83" y1="33.7" x2="82" y2="33"/>
		
			<line fill="none" stroke="#000000" stroke-width="0.2058" stroke-linecap="round" stroke-miterlimit="1" x1="83.7" y1="40" x2="83.7" y2="38.7"/>
		
			<line fill="none" stroke="#000000" stroke-width="0.2058" stroke-linecap="round" stroke-miterlimit="1" x1="80.7" y1="37.2" x2="81.4" y2="38.2"/>
		
			<line fill="none" stroke="#000000" stroke-width="0.2058" stroke-linecap="round" stroke-miterlimit="1" x1="74.4" y1="37.2" x2="73.8" y2="36.1"/>
		
			<line fill="none" stroke="#000000" stroke-width="0.2058" stroke-linecap="round" stroke-miterlimit="1" x1="75.9" y1="40.6" x2="76.5" y2="39.6"/>
		
			<line fill="none" stroke="#000000" stroke-width="0.2058" stroke-linecap="round" stroke-miterlimit="1" x1="79.4" y1="40" x2="78.3" y2="40"/>
		
			<line fill="none" stroke="#000000" stroke-width="0.2058" stroke-linecap="round" stroke-miterlimit="1" x1="76.7" y1="19.5" x2="76" y2="18.1"/>
		
			<line fill="none" stroke="#000000" stroke-width="0.2058" stroke-linecap="round" stroke-miterlimit="1" x1="95.3" y1="27.3" x2="94.8" y2="25.9"/>
		
			<line fill="none" stroke="#000000" stroke-width="0.2058" stroke-linecap="round" stroke-miterlimit="1" x1="93.3" y1="23.1" x2="92.5" y2="21.9"/>
		
			<line fill="none" stroke="#000000" stroke-width="0.2058" stroke-linecap="round" stroke-miterlimit="1" x1="64.4" y1="20.9" x2="65.2" y2="20.2"/>
		
			<line fill="none" stroke="#000000" stroke-width="0.2058" stroke-linecap="round" stroke-miterlimit="1" x1="65.8" y1="6.6" x2="66.7" y2="7.8"/>
		
			<line fill="none" stroke="#000000" stroke-width="0.2058" stroke-linecap="round" stroke-miterlimit="1" x1="65.6" y1="14.8" x2="64.2" y2="14.8"/>
		
			<line fill="none" stroke="#000000" stroke-width="0.2058" stroke-linecap="round" stroke-miterlimit="1" x1="69.5" y1="12.5" x2="68.2" y2="11.4"/>
		
			<line fill="none" stroke="#000000" stroke-width="0.2058" stroke-linecap="round" stroke-miterlimit="1" x1="67.7" y1="6.3" x2="68.4" y2="4.8"/>
		
			<line fill="none" stroke="#000000" stroke-width="0.2058" stroke-linecap="round" stroke-miterlimit="1" x1="91.2" y1="19.8" x2="92.1" y2="18.5"/>
		
			<line fill="none" stroke="#000000" stroke-width="0.2058" stroke-linecap="round" stroke-miterlimit="1" x1="82.1" y1="20.4" x2="83" y2="19.4"/>
		
			<line fill="none" stroke="#000000" stroke-width="0.2058" stroke-linecap="round" stroke-miterlimit="1" x1="72.7" y1="15.7" x2="71.8" y2="14.6"/>
		
			<line fill="none" stroke="#000000" stroke-width="0.2058" stroke-linecap="round" stroke-miterlimit="1" x1="91.6" y1="10.1" x2="90.4" y2="11.3"/>
		
			<line fill="none" stroke="#000000" stroke-width="0.2058" stroke-linecap="round" stroke-miterlimit="1" x1="76" y1="4.7" x2="75" y2="3.9"/>
		
			<line fill="none" stroke="#000000" stroke-width="0.2058" stroke-linecap="round" stroke-miterlimit="1" x1="90.2" y1="9.2" x2="88.8" y2="9.2"/>
		
			<line fill="none" stroke="#000000" stroke-width="0.2058" stroke-linecap="round" stroke-miterlimit="1" x1="90.6" y1="14.8" x2="89.2" y2="14.8"/>
		
			<line fill="none" stroke="#000000" stroke-width="0.2058" stroke-linecap="round" stroke-miterlimit="1" x1="84.2" y1="16.5" x2="85.6" y2="16.5"/>
		
			<line fill="none" stroke="#000000" stroke-width="0.2058" stroke-linecap="round" stroke-miterlimit="1" x1="86.9" y1="8.8" x2="85.1" y2="9.7"/>
		
			<line fill="none" stroke="#000000" stroke-width="0.2058" stroke-linecap="round" stroke-miterlimit="1" x1="80.3" y1="4.4" x2="81.4" y2="4.4"/>
		
			<line fill="none" stroke="#000000" stroke-width="0.2058" stroke-linecap="round" stroke-miterlimit="1" x1="77.5" y1="9.1" x2="76.3" y2="8.2"/>
		
			<line fill="none" stroke="#000000" stroke-width="0.2058" stroke-linecap="round" stroke-miterlimit="1" x1="68.2" y1="47.6" x2="67.5" y2="46.5"/>
		
			<line fill="none" stroke="#000000" stroke-width="0.2058" stroke-linecap="round" stroke-miterlimit="1" x1="95.3" y1="34.8" x2="93.9" y2="34.8"/>
		
			<line fill="none" stroke="#000000" stroke-width="0.2058" stroke-linecap="round" stroke-miterlimit="1" x1="93.5" y1="33.9" x2="92.3" y2="33.2"/>
		
			<line fill="none" stroke="#000000" stroke-width="0.2058" stroke-linecap="round" stroke-miterlimit="1" x1="66.7" y1="10.1" x2="65.4" y2="11.3"/>
		
			<line fill="none" stroke="#000000" stroke-width="0.2058" stroke-linecap="round" stroke-miterlimit="1" x1="71.2" y1="9.6" x2="71.2" y2="8.2"/>
		
			<line fill="none" stroke="#000000" stroke-width="0.2058" stroke-linecap="round" stroke-miterlimit="1" x1="82.1" y1="11.3" x2="83" y2="10.2"/>
		
			<line fill="none" stroke="#000000" stroke-width="0.2058" stroke-linecap="round" stroke-miterlimit="1" x1="80.8" y1="17.9" x2="81.9" y2="17.3"/>
		
			<line fill="none" stroke="#000000" stroke-width="0.2058" stroke-linecap="round" stroke-miterlimit="1" x1="79.3" y1="10.5" x2="80.1" y2="9.5"/>
		
			<line fill="none" stroke="#000000" stroke-width="0.2058" stroke-linecap="round" stroke-miterlimit="1" x1="71.6" y1="13" x2="71.6" y2="11.6"/>
		
			<line fill="none" stroke="#000000" stroke-width="0.2058" stroke-linecap="round" stroke-miterlimit="1" x1="74.1" y1="17.2" x2="75.3" y2="16.5"/>
		
			<line fill="none" stroke="#000000" stroke-width="0.2058" stroke-linecap="round" stroke-miterlimit="1" x1="78.5" y1="17.5" x2="77.3" y2="16.7"/>
		
			<line fill="none" stroke="#000000" stroke-width="0.2058" stroke-linecap="round" stroke-miterlimit="1" x1="94.5" y1="12.5" x2="93.2" y2="11.4"/>
		
			<line fill="none" stroke="#000000" stroke-width="0.2058" stroke-linecap="round" stroke-miterlimit="1" x1="77.5" y1="46.8" x2="78.1" y2="45.6"/>
		
			<line fill="none" stroke="#000000" stroke-width="0.2058" stroke-linecap="round" stroke-miterlimit="1" x1="92.5" y1="6.8" x2="93.1" y2="5.2"/>
		
			<line fill="none" stroke="#000000" stroke-width="0.2058" stroke-linecap="round" stroke-miterlimit="1" x1="96.3" y1="8.8" x2="97" y2="7.5"/>
	</g>
</g>
</svg>
