<?xml version="1.0" encoding="utf-8"?>
<!-- Generator: Adobe Illustrator 18.0.0, SVG Export Plug-In . SVG Version: 6.00 Build 0)  -->
<!DOCTYPE svg PUBLIC "-//W3C//DTD SVG 1.1//EN" "http://www.w3.org/Graphics/SVG/1.1/DTD/svg11.dtd">
<svg version="1.1" xmlns="http://www.w3.org/2000/svg" xmlns:xlink="http://www.w3.org/1999/xlink" x="0px" y="0px" width="160" height="192"
	 viewBox="0 0 160 192" enable-background="new 0 0 160 192" xml:space="preserve">
<g id="图层_6">
	<path  stroke="#000000" fill="#000000" stroke-width="0.5324" d="M96.4,69.9l2.4-39.7c0,0-0.1-1,0.6-1.4c1.1-0.7,1.8-1.3,1.8-1.9c0-2.7-9.4-4.8-21-4.8c-11.6,0-21,2.1-21,4.8
		c0,0.7,0.7,1.3,1.9,2c0.6,0.3,0.5,1.4,0.5,1.4l1.9,39.7c-25.8,7.2-44.8,30.9-44.8,59.1c0,33.9,27.4,61.3,61.3,61.3
		c33.8,0,61.3-27.4,61.3-61.3C141.3,100.8,122.3,77.1,96.4,69.9z M80.2,23c7.8,0,13.4,0.9,16.6,1.9c-1.2,1.2-8,2.2-16.3,2.2
		C72,27.2,65,26,64.2,24.8C67.5,23.8,72.8,23,80.2,23z M61.6,27.9c-1.3-0.7-1.3-1.1-1.3-1.1c0-0.4,1-1.1,3-1.7
		c1.2,2.7,12.4,3.1,17.4,3.1c4.8,0,15.5-0.4,17.2-2.9c1.6,0.6,2.4,1.2,2.4,1.5c0,0.1-0.1,0.3-1.3,1.1c-0.5,0.3-0.8,0.8-0.9,1.3
		c-3,1.5-10.4,2.6-18,2.6c-7.3,0-13.4-1-17.4-2.4C62.4,28.8,62.2,28.2,61.6,27.9z M62.6,30.1c0-0.1,0-0.3,0-0.6
		c4,1.4,10.1,2.4,17.4,2.4c7.6,0,14.9-1,17.9-2.5c-0.1,0.3-0.1,0.6-0.1,0.8l-2.4,39.3c-2.8-1.1-8.7-1.9-15.4-1.9
		c-6.8,0-12.7,0.8-15.5,2L62.6,30.1z M95.4,69.7l0,0.7c-2.1,0.9-7.4,1.9-15.3,1.9c-8.2,0-13.6-1.1-15.5-2l0-0.5
		c2.6-1.1,8.2-2,15.5-2C87.3,67.8,92.8,68.6,95.4,69.7z M80,189.3c-33.2,0-60.3-27.1-60.3-60.3c0-26.9,18-50.8,43.9-58.1
		c2.1,1.5,8.6,2.6,16.5,2.6c7.8,0,14.1-1.1,16.5-2.5c25.7,7.4,43.6,31.1,43.6,58C140.3,162.2,113.2,189.3,80,189.3z"/>
	<g>
		<linearGradient id="SVGID_7_" gradientUnits="userSpaceOnUse" x1="79.8767" y1="102.48" x2="80.1575" y2="188.1792">
			<stop  offset="0.1828" style="stop-color:#99FFFF;stop-opacity:0.1"/>
			<stop  offset="0.5834" style="stop-color:#45C6FF;stop-opacity:0.2113"/>
			<stop  offset="0.9028" style="stop-color:#0097FF;stop-opacity:0.3"/>
		</linearGradient>
		<path fill="url(#SVGID_7_)" stroke="none" d="M19.1,124.2c-1.5,38.9,27.3,65.5,60.8,65.5c32.8,0,61.4-25.5,61-65.4c0,0-0.2-1.8-1.5-3.1
			c-4.3-4.2-34.1-7.8-59.1-7.8C50.1,113.3,19.7,116.9,19.1,124.2z"/>

			<radialGradient id="SVGID_8_" cx="79.8841" cy="122.9093" r="43.2117" gradientTransform="matrix(1 0 0 0.4 0 73.7456)" gradientUnits="userSpaceOnUse">
			<stop  offset="0.2849" style="stop-color:#99FFFF;stop-opacity:0.1"/>
			<stop  offset="1" style="stop-color:#0097FF;stop-opacity:0.1"/>
		</radialGradient>
		<path fill="url(#SVGID_8_)" stroke="none" d="M140.2,122.9c0,5.3-27.2,9.6-60.8,9.6s-59.9-4.3-59.9-9.6c0-5.3,26.3-9.5,59.9-9.5
			S140.2,117.6,140.2,122.9z"/>
	</g>
	<g>

			<line fill="none" stroke="#000000" stroke-width="0.2219" stroke-linecap="round" stroke-miterlimit="1" x1="76.9" y1="70.5" x2="77.6" y2="69.2"/>

			<line fill="none" stroke="#000000" stroke-width="0.2219" stroke-linecap="round" stroke-miterlimit="1" x1="85.3" y1="70.5" x2="86.7" y2="69.8"/>

			<line fill="none" stroke="#000000" stroke-width="0.2219" stroke-linecap="round" stroke-miterlimit="1" x1="78" y1="72.4" x2="77" y2="71.4"/>

			<line fill="none" stroke="#000000" stroke-width="0.2219" stroke-linecap="round" stroke-miterlimit="1" x1="93.7" y1="71.1" x2="92.9" y2="69.9"/>

			<line fill="none" stroke="#000000" stroke-width="0.2219" stroke-linecap="round" stroke-miterlimit="1" x1="64.4" y1="60.3" x2="65" y2="61.9"/>

			<line fill="none" stroke="#000000" stroke-width="0.2219" stroke-linecap="round" stroke-miterlimit="1" x1="64.7" y1="52" x2="63.5" y2="52.8"/>

			<line fill="none" stroke="#000000" stroke-width="0.2219" stroke-linecap="round" stroke-miterlimit="1" x1="80" y1="44.2" x2="81.2" y2="43.4"/>

			<line fill="none" stroke="#000000" stroke-width="0.2219" stroke-linecap="round" stroke-miterlimit="1" x1="72.4" y1="44.2" x2="71.4" y2="43"/>

			<line fill="none" stroke="#000000" stroke-width="0.2219" stroke-linecap="round" stroke-miterlimit="1" x1="69.1" y1="49.5" x2="68.5" y2="48"/>

			<line fill="none" stroke="#000000" stroke-width="0.2219" stroke-linecap="round" stroke-miterlimit="1" x1="68.3" y1="60.2" x2="66.9" y2="59.1"/>

			<line fill="none" stroke="#000000" stroke-width="0.2219" stroke-linecap="round" stroke-miterlimit="1" x1="66.4" y1="53.6" x2="67.1" y2="51.9"/>

			<line fill="none" stroke="#000000" stroke-width="0.2219" stroke-linecap="round" stroke-miterlimit="1" x1="66.9" y1="44.9" x2="66.1" y2="43.7"/>

			<line fill="none" stroke="#000000" stroke-width="0.2219" stroke-linecap="round" stroke-miterlimit="1" x1="91.8" y1="68.1" x2="92.7" y2="66.7"/>

			<line fill="none" stroke="#000000" stroke-width="0.2219" stroke-linecap="round" stroke-miterlimit="1" x1="81.9" y1="68.8" x2="82.9" y2="67.7"/>

			<line fill="none" stroke="#000000" stroke-width="0.2219" stroke-linecap="round" stroke-miterlimit="1" x1="71.8" y1="63.7" x2="70.8" y2="62.6"/>

			<line fill="none" stroke="#000000" stroke-width="0.2219" stroke-linecap="round" stroke-miterlimit="1" x1="92.2" y1="57.7" x2="90.8" y2="59"/>

			<line fill="none" stroke="#000000" stroke-width="0.2219" stroke-linecap="round" stroke-miterlimit="1" x1="88.7" y1="50" x2="90.6" y2="50.6"/>

			<line fill="none" stroke="#000000" stroke-width="0.2219" stroke-linecap="round" stroke-miterlimit="1" x1="85.3" y1="44" x2="86.7" y2="43.4"/>

			<line fill="none" stroke="#000000" stroke-width="0.2219" stroke-linecap="round" stroke-miterlimit="1" x1="77.7" y1="46.6" x2="76.7" y2="45.6"/>

			<line fill="none" stroke="#000000" stroke-width="0.2219" stroke-linecap="round" stroke-miterlimit="1" x1="74.9" y1="47.8" x2="72.7" y2="47.2"/>

			<line fill="none" stroke="#000000" stroke-width="0.2219" stroke-linecap="round" stroke-miterlimit="1" x1="74.3" y1="50.1" x2="72.8" y2="49"/>

			<line fill="none" stroke="#000000" stroke-width="0.2219" stroke-linecap="round" stroke-miterlimit="1" x1="83.7" y1="49.2" x2="83.1" y2="47.8"/>

			<line fill="none" stroke="#000000" stroke-width="0.2219" stroke-linecap="round" stroke-miterlimit="1" x1="88.6" y1="48.6" x2="87.8" y2="47.3"/>

			<line fill="none" stroke="#000000" stroke-width="0.2219" stroke-linecap="round" stroke-miterlimit="1" x1="84.4" y1="51.8" x2="83.3" y2="51"/>

			<line fill="none" stroke="#000000" stroke-width="0.2219" stroke-linecap="round" stroke-miterlimit="1" x1="86.9" y1="59.7" x2="87.9" y2="58.6"/>

			<line fill="none" stroke="#000000" stroke-width="0.2219" stroke-linecap="round" stroke-miterlimit="1" x1="89.8" y1="65.8" x2="88.5" y2="64.9"/>

			<line fill="none" stroke="#000000" stroke-width="0.2219" stroke-linecap="round" stroke-miterlimit="1" x1="84.8" y1="66.5" x2="83.5" y2="65.8"/>

			<line fill="none" stroke="#000000" stroke-width="0.2219" stroke-linecap="round" stroke-miterlimit="1" x1="86.5" y1="52.8" x2="86.5" y2="54.4"/>

			<line fill="none" stroke="#000000" stroke-width="0.2219" stroke-linecap="round" stroke-miterlimit="1" x1="78" y1="53.5" x2="79" y2="52.2"/>

			<line fill="none" stroke="#000000" stroke-width="0.2219" stroke-linecap="round" stroke-miterlimit="1" x1="70.2" y1="57.2" x2="70.2" y2="55.6"/>

			<line fill="none" stroke="#000000" stroke-width="0.2219" stroke-linecap="round" stroke-miterlimit="1" x1="76.9" y1="56.6" x2="75.6" y2="55.6"/>

			<line fill="none" stroke="#000000" stroke-width="0.2219" stroke-linecap="round" stroke-miterlimit="1" x1="82.9" y1="56.4" x2="81.7" y2="55.6"/>

			<line fill="none" stroke="#000000" stroke-width="0.2219" stroke-linecap="round" stroke-miterlimit="1" x1="83.6" y1="63.2" x2="83.6" y2="61.7"/>

			<line fill="none" stroke="#000000" stroke-width="0.2219" stroke-linecap="round" stroke-miterlimit="1" x1="80.4" y1="60.1" x2="81.2" y2="61.2"/>

			<line fill="none" stroke="#000000" stroke-width="0.2219" stroke-linecap="round" stroke-miterlimit="1" x1="68.6" y1="71.7" x2="70" y2="70.9"/>

			<line fill="none" stroke="#000000" stroke-width="0.2219" stroke-linecap="round" stroke-miterlimit="1" x1="73.6" y1="60.1" x2="72.9" y2="58.9"/>

			<line fill="none" stroke="#000000" stroke-width="0.2219" stroke-linecap="round" stroke-miterlimit="1" x1="75.2" y1="63.8" x2="75.8" y2="62.7"/>

			<line fill="none" stroke="#000000" stroke-width="0.2219" stroke-linecap="round" stroke-miterlimit="1" x1="79" y1="63.2" x2="77.8" y2="63.2"/>

			<line fill="none" stroke="#000000" stroke-width="0.2219" stroke-linecap="round" stroke-miterlimit="1" x1="76" y1="41.1" x2="75.4" y2="39.5"/>

			<line fill="none" stroke="#000000" stroke-width="0.2219" stroke-linecap="round" stroke-miterlimit="1" x1="96.2" y1="49.5" x2="95.6" y2="48"/>

			<line fill="none" stroke="#000000" stroke-width="0.2219" stroke-linecap="round" stroke-miterlimit="1" x1="94" y1="44.9" x2="93.1" y2="43.7"/>

			<line fill="none" stroke="#000000" stroke-width="0.2219" stroke-linecap="round" stroke-miterlimit="1" x1="62.9" y1="42.6" x2="63.7" y2="41.8"/>

			<line fill="none" stroke="#000000" stroke-width="0.2219" stroke-linecap="round" stroke-miterlimit="1" x1="64.3" y1="27.2" x2="65.2" y2="28.4"/>

			<line fill="none" stroke="#000000" stroke-width="0.2219" stroke-linecap="round" stroke-miterlimit="1" x1="64.1" y1="35.9" x2="62.6" y2="35.9"/>

			<line fill="none" stroke="#000000" stroke-width="0.2219" stroke-linecap="round" stroke-miterlimit="1" x1="68.3" y1="33.5" x2="66.9" y2="32.4"/>

			<line fill="none" stroke="#000000" stroke-width="0.2219" stroke-linecap="round" stroke-miterlimit="1" x1="66.4" y1="26.9" x2="67.1" y2="25.2"/>

			<line fill="none" stroke="#000000" stroke-width="0.2219" stroke-linecap="round" stroke-miterlimit="1" x1="91.8" y1="41.4" x2="92.7" y2="39.9"/>

			<line fill="none" stroke="#000000" stroke-width="0.2219" stroke-linecap="round" stroke-miterlimit="1" x1="81.9" y1="42" x2="82.9" y2="41"/>

			<line fill="none" stroke="#000000" stroke-width="0.2219" stroke-linecap="round" stroke-miterlimit="1" x1="71.8" y1="36.9" x2="70.8" y2="35.8"/>

			<line fill="none" stroke="#000000" stroke-width="0.2219" stroke-linecap="round" stroke-miterlimit="1" x1="92.2" y1="30.9" x2="90.8" y2="32.2"/>

			<line fill="none" stroke="#000000" stroke-width="0.2219" stroke-linecap="round" stroke-miterlimit="1" x1="75.3" y1="25.1" x2="74.3" y2="24.2"/>

			<line fill="none" stroke="#000000" stroke-width="0.2219" stroke-linecap="round" stroke-miterlimit="1" x1="90.6" y1="29.9" x2="89.1" y2="29.9"/>

			<line fill="none" stroke="#000000" stroke-width="0.2219" stroke-linecap="round" stroke-miterlimit="1" x1="91" y1="35.9" x2="89.5" y2="35.9"/>

			<line fill="none" stroke="#000000" stroke-width="0.2219" stroke-linecap="round" stroke-miterlimit="1" x1="84.2" y1="37.8" x2="85.7" y2="37.8"/>

			<line fill="none" stroke="#000000" stroke-width="0.2219" stroke-linecap="round" stroke-miterlimit="1" x1="87" y1="29.5" x2="85.1" y2="30.5"/>

			<line fill="none" stroke="#000000" stroke-width="0.2219" stroke-linecap="round" stroke-miterlimit="1" x1="79.9" y1="24.8" x2="81.2" y2="24.8"/>

			<line fill="none" stroke="#000000" stroke-width="0.2219" stroke-linecap="round" stroke-miterlimit="1" x1="76.9" y1="29.8" x2="75.6" y2="28.9"/>

			<line fill="none" stroke="#000000" stroke-width="0.2219" stroke-linecap="round" stroke-miterlimit="1" x1="66.9" y1="71.4" x2="66.1" y2="70.2"/>

			<line fill="none" stroke="#000000" stroke-width="0.2219" stroke-linecap="round" stroke-miterlimit="1" x1="96.2" y1="57.5" x2="94.6" y2="57.5"/>

			<line fill="none" stroke="#000000" stroke-width="0.2219" stroke-linecap="round" stroke-miterlimit="1" x1="94.2" y1="56.6" x2="92.9" y2="55.8"/>

			<line fill="none" stroke="#000000" stroke-width="0.2219" stroke-linecap="round" stroke-miterlimit="1" x1="65.3" y1="30.9" x2="63.9" y2="32.2"/>

			<line fill="none" stroke="#000000" stroke-width="0.2219" stroke-linecap="round" stroke-miterlimit="1" x1="70.2" y1="30.4" x2="70.2" y2="28.9"/>

			<line fill="none" stroke="#000000" stroke-width="0.2219" stroke-linecap="round" stroke-miterlimit="1" x1="81.9" y1="32.2" x2="82.8" y2="31"/>

			<line fill="none" stroke="#000000" stroke-width="0.2219" stroke-linecap="round" stroke-miterlimit="1" x1="80.5" y1="39.3" x2="81.7" y2="38.7"/>

			<line fill="none" stroke="#000000" stroke-width="0.2219" stroke-linecap="round" stroke-miterlimit="1" x1="78.8" y1="31.4" x2="79.7" y2="30.2"/>

			<line fill="none" stroke="#000000" stroke-width="0.2219" stroke-linecap="round" stroke-miterlimit="1" x1="70.5" y1="34" x2="70.5" y2="32.6"/>

			<line fill="none" stroke="#000000" stroke-width="0.2219" stroke-linecap="round" stroke-miterlimit="1" x1="73.3" y1="38.6" x2="74.5" y2="37.8"/>

			<line fill="none" stroke="#000000" stroke-width="0.2219" stroke-linecap="round" stroke-miterlimit="1" x1="78" y1="38.9" x2="76.7" y2="38"/>

			<line fill="none" stroke="#000000" stroke-width="0.2219" stroke-linecap="round" stroke-miterlimit="1" x1="95.3" y1="33.5" x2="93.9" y2="32.4"/>

			<line fill="none" stroke="#000000" stroke-width="0.2219" stroke-linecap="round" stroke-miterlimit="1" x1="93.1" y1="27.4" x2="93.8" y2="25.7"/>

			<line fill="none" stroke="#000000" stroke-width="0.2219" stroke-linecap="round" stroke-miterlimit="1" x1="97.2" y1="29.6" x2="98" y2="28.2"/>
	</g>
</g>
</svg>
