<?xml version="1.0" encoding="utf-8"?>
<!-- Generator: Adobe Illustrator 16.0.0, SVG Export Plug-In . SVG Version: 6.00 Build 0)  -->
<!DOCTYPE svg PUBLIC "-//W3C//DTD SVG 1.1//EN" "http://www.w3.org/Graphics/SVG/1.1/DTD/svg11.dtd">
<svg version="1.1" id="图层_1" xmlns="http://www.w3.org/2000/svg" xmlns:xlink="http://www.w3.org/1999/xlink" x="0px" y="0px"
	 width="40px" height="40px" viewBox="0 0 40 40" enable-background="new 0 0 40 40" xml:space="preserve">
<path display="none" fill="#6B6C6B" d="M878.457-66.628c2.071,2.085,2.071,5.414,0,7.471L287.543,531.786
	c-2.086,2.085-5.415,2.085-7.486,0L242.657,494.4c-2.071-2.086-2.071-5.415,0-7.443L833.6-104.014c2.086-2.086,5.415-2.086,7.458,0
	L878.457-66.628z"/>
<g>
	<g>
		<g>
			<path fill="#333333" d="M15.408,19.875l-8.94,8.941c-0.077,0.077-0.113,0.163-0.082,0.197l0.59,0.587
				c0.031,0.034,0.121-0.003,0.201-0.08l8.938-8.938L15.408,19.875L15.408,19.875z"/>
			<path fill="#333333" d="M28.665,6.619l-8.937,8.938l0.703,0.708l8.939-8.942c0.079-0.076,0.111-0.164,0.082-0.2l-0.59-0.589
				C28.828,6.506,28.742,6.542,28.665,6.619z"/>
		</g>
	</g>
	<g>
		<g>
			<path fill="#333333" d="M19.568,23.738l-8.94,8.937c-0.078,0.081-0.116,0.168-0.083,0.201l0.587,0.584
				c0.033,0.036,0.12,0.002,0.199-0.079l8.939-8.938L19.568,23.738z"/>
			<path fill="#333333" d="M32.825,10.481l-8.938,8.936l0.706,0.706l8.939-8.937c0.076-0.08,0.109-0.165,0.079-0.201l-0.588-0.585
				C32.988,10.367,32.9,10.403,32.825,10.481z"/>
		</g>
	</g>
</g>
</svg>
