<svg id="图层_35" data-name="图层 35" xmlns="http://www.w3.org/2000/svg" viewBox="0 0 143.21 748.33" width="150" height="750">
    <title>玻璃仪器36</title> <g stroke="#000000" fill="#000000" stroke-width="1.2324"  transform="translate(2 0)">
    <rect x="1600.71" y="412.33" width="1.77" height="0.3" transform="translate(-1513.77 938.92) rotate(-33.43)"/>
    <polygon points="62.01 403.76 60.34 403.07 60.46 402.79 62.13 403.48 62.01 403.76"/>
    <polygon points="54.07 402.1 52.8 400.99 53 400.76 54.27 401.88 54.07 402.1"/>
    <polygon points="59.2 404.04 58.04 402.56 58.27 402.37 59.44 403.86 59.2 404.04"/>
    <polygon points="45.23 398.11 44.46 396.29 44.73 396.17 45.51 397.99 45.23 398.11"/>
    <polygon points="77.46 401.39 77.3 401.14 78.77 400.17 78.94 400.42 77.46 401.39"/>
    <polygon points="69.52 401.35 68.33 399.96 68.56 399.77 69.74 401.15 69.52 401.35"/>
    <rect x="1616.93" y="416.24" width="0.3" height="1.84" transform="translate(-1589.75 626.53) rotate(-22.07)"/>
    <polygon points="82.97 401.2 82.84 400.93 84.46 400.13 84.59 400.4 82.97 401.2"/>
    <polygon points="75.09 403.91 73.9 402.65 74.11 402.44 75.31 403.71 75.09 403.91"/>
    <polygon points="71.37 403.34 71.21 403.08 72.75 402.11 72.91 402.37 71.37 403.34"/>
    <rect x="1618.59" y="417.42" width="1.66" height="0.3" transform="translate(-1051.77 1648.12) rotate(-62.43)"/>
    <polygon points="82.71 404.5 82.53 404.25 84.1 403.11 84.28 403.36 82.71 404.5"/>
    <polygon points="68.93 397.9 68.65 397.77 69.39 396.17 69.67 396.29 68.93 397.9"/>
    <polygon points="97.68 401.35 96.51 399.96 96.74 399.77 97.91 401.15 97.68 401.35"/>
    <rect x="1641.91" y="415.9" width="1.94" height="0.3" transform="translate(-1364.51 1271.85) rotate(-45)"/>
    <polygon points="97.11 397.9 96.84 397.77 97.58 396.17 97.85 396.29 97.11 397.9"/>
    <polygon points="61.8 398.7 61.54 398.54 62.65 396.85 62.91 397.01 61.8 398.7"/>
    <polygon points="51.5 399.37 51.28 399.16 52.43 397.92 52.66 398.12 51.5 399.37"/>
    <polygon points="61.76 392.21 61.05 390.37 61.33 390.26 62.03 392.1 61.76 392.21"/>
    <polygon points="60.31 382.67 60.15 382.41 61.58 381.52 61.73 381.77 60.31 382.67"/>
    <rect x="58" y="373.17" width="1.91" height="0.3"/>
    <polygon points="50.96 376.05 48.83 375.33 48.92 375.05 51.06 375.77 50.96 376.05"/>
    <polygon points="44.58 381.76 43.35 380.75 43.53 380.52 44.77 381.53 44.58 381.76"/>
    <polygon points="54.68 376.89 54.5 376.64 56.07 375.53 56.25 375.77 54.68 376.89"/>
    <polygon points="55.58 380.39 55.41 380.14 56.81 379.25 56.98 379.5 55.58 380.39"/>
    <polygon points="57.93 384.13 57.67 383.98 58.64 382.32 58.9 382.48 57.93 384.13"/>
    <polygon points="58.77 391.78 58.59 391.54 59.87 390.59 60.04 390.83 58.77 391.78"/>
    <polygon points="56.92 397.43 56.67 397.27 57.61 395.81 57.86 395.97 56.92 397.43"/>
    <polygon points="57.07 393.15 55.57 392.26 55.72 392 57.23 392.89 57.07 393.15"/>
    <polygon points="53.2 384.5 52.95 384.33 54.15 382.65 54.39 382.82 53.2 384.5"/>
    <polygon points="44.45 384.07 43.38 382.75 43.61 382.56 44.68 383.88 44.45 384.07"/>
    <rect x="50.44" y="382.97" width="0.3" height="1.51"/>
    <polygon points="54.36 390.46 53.41 389.22 53.65 389.04 54.6 390.28 54.36 390.46"/>
    <polygon points="50.9 394.62 49.87 393.35 50.1 393.16 51.13 394.44 50.9 394.62"/>
    <rect x="1597" y="399.51" width="0.3" height="1.98" transform="translate(-867.88 1758.75) rotate(-70.38)"/>
    <rect x="47.06" y="393.18" width="1.51" height="0.3"/>
    <polygon points="77.46 373.79 77.3 373.54 78.77 372.56 78.94 372.81 77.46 373.79"/>
    <rect x="1620.39" y="383.74" width="0.3" height="1.83" transform="translate(-1410.9 1137.08) rotate(-40.66)"/>
    <rect x="1617.22" y="389.08" width="0.3" height="1.84" transform="translate(-1579.5 624.81) rotate(-22.08)"/>
    <rect x="1615.9" y="400.39" width="0.3" height="2.05" transform="translate(-1258.74 1400.48) rotate(-51.32)"/>
    <rect x="1614.15" y="394.06" width="2.12" height="0.3" transform="translate(-918.06 1724.32) rotate(-67.52)"/>
    <polygon points="63.81 374.47 62.84 373.03 63.08 372.86 64.06 374.3 63.81 374.47"/>
    <polygon points="89.83 398.7 89.57 398.54 90.69 396.85 90.94 397.01 89.83 398.7"/>
    <polygon points="79.53 399.37 79.31 399.16 80.47 397.92 80.69 398.12 79.53 399.37"/>
    <polygon points="68.86 394.05 67.69 392.74 67.92 392.54 69.09 393.85 68.86 394.05"/>
    <polygon points="88.81 389.18 88.6 388.96 90.14 387.45 90.36 387.67 88.81 389.18"/>
    <polygon points="88.61 380.39 86.47 379.71 86.56 379.42 88.7 380.1 88.61 380.39"/>
    <polygon points="82.97 373.61 82.84 373.35 84.46 372.52 84.59 372.79 82.97 373.61"/>
    <polygon points="75.09 376.31 73.9 375.04 74.11 374.84 75.31 376.1 75.09 376.31"/>
    <polygon points="72.22 377.5 69.79 376.83 69.88 376.54 72.3 377.21 72.22 377.5"/>
    <polygon points="71.58 379.93 69.78 378.62 69.96 378.38 71.76 379.69 71.58 379.93"/>
    <polygon points="81.32 379 80.54 377.29 80.81 377.17 81.59 378.88 81.32 379"/>
    <polygon points="86.43 378.28 85.45 376.87 85.7 376.69 86.68 378.11 86.43 378.28"/>
    <polygon points="82.12 381.74 80.74 380.76 80.92 380.52 82.3 381.5 82.12 381.74"/>
    <polygon points="84.7 389.85 84.49 389.63 85.75 388.42 85.96 388.63 84.7 389.85"/>
    <polygon points="87.76 396.29 86.19 395.17 86.37 394.93 87.94 396.04 87.76 396.29"/>
    <polygon points="82.5 397.02 80.96 396.11 81.11 395.85 82.65 396.76 82.5 397.02"/>
    <rect x="84.15" y="382.39" width="0.3" height="1.97"/>
    <polygon points="75.44 383.43 75.2 383.24 76.37 381.78 76.6 381.96 75.44 383.43"/>
    <rect x="67.1" y="385.39" width="0.3" height="1.82"/>
    <polygon points="74.25 386.67 72.78 385.55 72.97 385.31 74.44 386.44 74.25 386.67"/>
    <polygon points="80.54 386.42 79.15 385.48 79.31 385.24 80.71 386.18 80.54 386.42"/>
    <rect x="81.15" y="391.71" width="0.3" height="1.76"/>
    <polygon points="78.67 391.52 78.61 391.44 77.77 390.2 78.01 390.03 78.07 390.11 78.92 391.35 78.67 391.52"/>
    <polygon points="70.71 390.31 69.96 388.9 70.23 388.76 70.98 390.17 70.71 390.31"/>
    <polygon points="72.57 394.17 72.31 394.02 73.09 392.73 73.35 392.88 72.57 394.17"/>
    <rect x="75.09" y="393.18" width="1.51" height="0.3"/>
    <polygon points="73.26 370.5 72.49 368.7 72.77 368.58 73.54 370.38 73.26 370.5"/>
    <polygon points="97.68 373.74 96.51 372.36 96.74 372.16 97.91 373.55 97.68 373.74"/>
    <polygon points="94.24 379.21 93.55 377.5 93.82 377.39 94.52 379.1 94.24 379.21"/>
    <rect x="1644.07" y="400.39" width="0.3" height="2.05" transform="translate(-1247.87 1422.87) rotate(-51.34)"/>
    <polygon points="91.63 383.54 91.35 383.43 92.14 381.47 92.42 381.58 91.63 383.54"/>
    <polygon points="92 374.47 91.02 373.03 91.27 372.86 92.25 374.3 92 374.47"/>
    <rect x="95.57" y="395.13" width="1.59" height="0.3"/>
    <polygon points="94.66 376.82 94.56 376.54 96.58 375.82 96.68 376.1 94.66 376.82"/>
    <polygon points="95.83 379.08 95.57 378.94 96.35 377.45 96.62 377.6 95.83 379.08"/>
    <rect x="98.56" y="381.35" width="0.3" height="1.61"/>
    <polygon points="98.47 386.82 98.24 386.63 99.7 384.92 99.93 385.11 98.47 386.82"/>
    <rect x="98.25" y="391.49" width="1.64" height="0.3"/>
    <polygon points="49.43 345.91 49.27 345.66 50.74 344.68 50.91 344.93 49.43 345.91"/>
    <polygon points="43.15 345.33 42.98 345.08 44.56 344.03 44.73 344.28 43.15 345.33"/>
    <polygon points="56.93 371.98 55.62 370.95 55.81 370.71 57.12 371.74 56.93 371.98"/>
    <polygon points="45.32 370.46 44.62 368.48 44.9 368.38 44.93 368.47 45.6 370.36 45.32 370.46"/>
    <polygon points="62.07 357.31 60.97 355.86 61.21 355.67 62.31 357.12 62.07 357.31"/>
    <polygon points="60.58 352.51 58.44 351.83 58.53 351.55 60.67 352.23 60.58 352.51"/>
    <polygon points="54.07 346.62 52.8 345.51 53 345.28 54.27 346.4 54.07 346.62"/>
    <polygon points="50.96 348.18 48.83 347.46 48.92 347.17 51.06 347.89 50.96 348.18"/>
    <polygon points="44.19 349.62 41.76 348.95 41.84 348.66 44.27 349.33 44.19 349.62"/>
    <polygon points="47.7 351.36 46.36 350.44 46.53 350.19 47.87 351.12 47.7 351.36"/>
    <polygon points="59.2 348.56 58.04 347.07 58.27 346.89 59.44 348.38 59.2 348.56"/>
    <polygon points="50.69 352.32 49.62 351.05 49.85 350.85 50.92 352.13 50.69 352.32"/>
    <rect x="58.85" y="358.58" width="1.78" height="0.3"/>
    <rect x="59.31" y="364.83" width="1.76" height="0.3"/>
    <rect x="53.75" y="366.77" width="1.72" height="0.3"/>
    <polygon points="54.81 359.49 54.67 359.22 56.83 358.11 56.97 358.38 54.81 359.49"/>
    <rect x="49.28" y="353.19" width="1.53" height="0.3"/>
    <rect x="42.35" y="353.45" width="0.3" height="1.63"/>
    <polygon points="47.94 357.89 47.71 357.69 48.92 356.31 49.15 356.5 47.94 357.89"/>
    <polygon points="51.55 361.27 51.31 361.09 52.38 359.68 52.62 359.86 51.55 361.27"/>
    <polygon points="49.97 368.66 49.83 368.4 51.26 367.65 51.4 367.91 49.97 368.66"/>
    <polygon points="48.32 360.41 48.08 360.23 49.08 358.87 49.32 359.05 48.32 360.41"/>
    <rect x="42.05" y="363.59" width="1.64" height="0.3"/>
    <polygon points="46.57 363.92 46.35 363.71 47.35 362.62 47.57 362.83 46.57 363.92"/>
    <polygon points="65.61 346.95 65.45 346.69 67.05 345.72 67.2 345.98 65.61 346.95"/>
    <rect x="64.48" y="359.41" width="1.8" height="0.3"/>
    <polygon points="64.16 358.8 62.56 357.87 62.72 357.61 64.31 358.54 64.16 358.8"/>
    <rect x="1613.74" y="360.42" width="1.94" height="0.3" transform="translate(-1333.53 1235.68) rotate(-45)"/>
    <polygon points="66.85 370.53 65.48 369.17 65.69 368.96 67.06 370.31 66.85 370.53"/>
    <polygon points="84.96 371.98 83.65 370.95 83.84 370.71 85.15 371.74 84.96 371.98"/>
    <rect x="67.4" y="367.25" width="1.57" height="0.3"/>
    <polygon points="89.78 364.33 89.08 362.47 89.36 362.36 90.06 364.23 89.78 364.33"/>
    <polygon points="88.34 354.79 88.19 354.54 89.61 353.64 89.77 353.9 88.34 354.79"/>
    <rect x="86.03" y="345.29" width="1.91" height="0.3"/>
    <polygon points="79 348.18 76.86 347.46 76.95 347.17 79.09 347.89 79 348.18"/>
    <polygon points="66.48 348.93 66.38 348.65 68.42 347.92 68.52 348.21 66.48 348.93"/>
    <polygon points="68.44 353.91 67 351.9 67.24 351.73 68.69 353.74 68.44 353.91"/>
    <polygon points="75.73 351.36 74.39 350.44 74.56 350.19 75.9 351.12 75.73 351.36"/>
    <polygon points="87.23 348.56 86.07 347.07 86.31 346.89 87.47 348.38 87.23 348.56"/>
    <polygon points="78.72 352.32 77.65 351.05 77.88 350.85 78.95 352.13 78.72 352.32"/>
    <rect x="86.88" y="358.58" width="1.78" height="0.3"/>
    <rect x="87.34" y="364.83" width="1.76" height="0.3"/>
    <rect x="81.78" y="366.77" width="1.72" height="0.3"/>
    <polygon points="82.84 359.49 82.7 359.22 84.86 358.11 85 358.38 82.84 359.49"/>
    <rect x="77.31" y="353.19" width="1.53" height="0.3"/>
    <rect x="67.1" y="357.5" width="0.3" height="1.84"/>
    <polygon points="74.25 358.8 72.79 357.65 72.97 357.42 74.44 358.56 74.25 358.8"/>
    <polygon points="79.58 361.27 79.35 361.09 80.41 359.68 80.65 359.86 79.58 361.27"/>
    <polygon points="78 368.66 77.86 368.4 79.29 367.65 79.43 367.91 78 368.66"/>
    <polygon points="76.35 360.41 76.11 360.23 77.11 358.87 77.35 359.05 76.35 360.41"/>
    <rect x="67.49" y="361.37" width="0.3" height="1.72"/>
    <rect x="1621.81" y="378.89" width="1.69" height="0.3"
          transform="matrix(0.86, -0.51, 0.51, 0.86, -1517.26, 870.96)"/>
    <polygon points="75.44 368.26 73.91 367.2 74.08 366.95 75.61 368.01 75.44 368.26"/>
    <polygon points="93.8 346.95 93.64 346.69 95.21 345.72 95.37 345.98 93.8 346.95"/>
    <rect x="92.66" y="359.41" width="1.78" height="0.3"/>
    <polygon points="92.33 358.8 90.75 357.87 90.9 357.61 92.48 358.54 92.33 358.8"/>
    <rect x="1641.91" y="360.42" width="1.94" height="0.3" transform="translate(-1325.28 1255.6) rotate(-45)"/>
    <polygon points="95.04 370.53 93.66 369.17 93.87 368.96 95.25 370.31 95.04 370.53"/>
    <polygon points="99.54 347.86 99.38 347.6 100.91 346.63 101.07 346.88 99.54 347.86"/>
    <polygon points="95.83 351.19 95.57 351.05 96.35 349.58 96.62 349.72 95.83 351.19"/>
    <polygon points="100.79 353.88 99.54 352.85 99.73 352.62 100.99 353.65 100.79 353.88"/>
    <rect x="95.27" y="357.5" width="0.3" height="1.84"/>
    <polygon points="98.88 362.42 98.13 361.03 98.39 360.89 99.14 362.27 98.88 362.42"/>
    <polygon points="100.73 366.3 100.48 366.14 101.28 364.85 101.53 365.01 100.73 366.3"/>
    <polygon points="42.93 387.87 42.66 387.73 43.45 386.2 43.72 386.34 42.93 387.87"/>
    <polygon points="49.08 400.78 47.71 399.84 47.88 399.59 49.25 400.53 49.08 400.78"/>
    <polygon points="67.09 386.15 65.07 385.47 65.16 385.18 67.18 385.86 67.09 386.15"/>
    <polygon points="67.78 387.56 67.61 387.31 69.18 386.26 69.35 386.5 67.78 387.56"/>
    <rect x="61.16" y="385.75" width="1.8" height="0.3"/>
    <rect x="61.07" y="401.64" width="1.78" height="0.3"/>
    <rect x="1636.48" y="414.21" width="2.18" height="0.3" transform="translate(-1370.8 1257.57) rotate(-44.6)"/>
    <polygon points="85.2 394.74 83.05 394.06 83.13 393.78 85.29 394.45 85.2 394.74"/>
    <polygon points="79.56 387.96 79.43 387.7 81.05 386.88 81.19 387.14 79.56 387.96"/>
    <polygon points="71.66 390.66 70.49 389.39 70.7 389.19 71.88 390.45 71.66 390.66"/>
    <polygon points="55.79 390.81 54.63 389.3 54.87 389.12 56.03 390.62 55.79 390.81"/>
    <polygon points="47.28 394.57 46.21 393.3 46.44 393.1 47.51 394.37 47.28 394.57"/>
    <rect x="1623.08" y="403.9" width="0.3" height="1.63"
          transform="matrix(0.55, -0.83, 0.83, 0.55, -1161.02, 1523.94)"/>
    <polygon points="83.82 390.81 82.66 389.3 82.9 389.12 84.06 390.62 83.82 390.81"/>
    <polygon points="75.31 394.57 74.24 393.3 74.47 393.1 75.54 394.37 75.31 394.57"/>
    <rect x="83.45" y="400.81" width="1.8" height="0.3"/>
    <polygon points="79.41 401.72 79.27 401.45 81.45 400.34 81.59 400.61 79.41 401.72"/>
    <rect x="73.88" y="395.44" width="1.55" height="0.3"/>
    <rect x="66.97" y="395.7" width="0.3" height="1.61"/>
    <rect x="1623.63" y="410.88" width="1.84" height="0.3" transform="translate(-1322.16 1327.51) rotate(-47.83)"/>
    <polygon points="76.18 403.52 75.94 403.34 77 401.91 77.24 402.09 76.18 403.52"/>
    <polygon points="72.92 402.65 72.68 402.47 73.7 401.12 73.94 401.3 72.92 402.65"/>
    <rect x="64.08" y="403.6" width="0.3" height="1.72"/>
    <rect x="1616.38" y="395.34" width="1.75" height="0.3" transform="translate(-975.65 1682.79) rotate(-65.02)"/>
    <rect x="1641.98" y="403.43" width="0.3" height="1.84" transform="translate(-1583.34 633.36) rotate(-22.02)"/>
    <rect x="1640.66" y="414.74" width="0.3" height="2.05" transform="translate(-1260.47 1425.44) rotate(-51.33)"/>
    <rect x="87.52" y="393.35" width="0.3" height="1.72"/>
    <polygon points="107.3 387.23 107.17 386.96 108.79 386.16 108.93 386.43 107.3 387.23"/>
    <polygon points="99.85 390.66 98.65 389.4 98.87 389.19 100.07 390.45 99.85 390.66"/>
    <polygon points="96.98 391.85 94.55 391.18 94.63 390.89 97.06 391.56 96.98 391.85"/>
    <polygon points="96.34 394.29 94.56 392.97 94.73 392.73 96.51 394.04 96.34 394.29"/>
    <polygon points="106.07 393.35 105.3 391.65 105.57 391.52 106.35 393.23 106.07 393.35"/>
    <polygon points="106.88 396.08 105.5 395.09 105.67 394.85 107.05 395.83 106.88 396.08"/>
    <polygon points="100.19 397.78 99.96 397.6 101.12 396.13 101.36 396.32 100.19 397.78"/>
    <rect x="91.86" y="399.75" width="0.3" height="1.82"/>
    <polygon points="99.01 401.03 97.54 399.9 97.72 399.67 99.19 400.79 99.01 401.03"/>
    <polygon points="40.76 391.85 38.33 391.18 38.42 390.89 40.84 391.56 40.76 391.85"/>
    <rect x="1595.05" y="403.9" width="0.3" height="1.63"
          transform="matrix(0.55, -0.83, 0.83, 0.55, -1173.6, 1500.56)"/>
    <polygon points="105.3 400.78 103.9 399.84 104.07 399.59 105.47 400.53 105.3 400.78"/>
    <polygon points="95.47 404.67 94.72 403.26 94.98 403.12 95.73 404.52 95.47 404.67"/>
    <rect x="1593.85" y="370.99" width="1.7" height="0.3" transform="translate(-1023.9 1601.26) rotate(-62.43)"/>
    <polygon points="58.39 385.45 58.13 385.28 59.24 383.59 59.5 383.76 58.39 385.45"/>
    <polygon points="48.09 386.11 47.87 385.91 49.03 384.68 49.24 384.89 48.09 386.11"/>
    <polygon points="58.35 378.97 57.62 377.11 57.9 377 58.63 378.87 58.35 378.97"/>
    <polygon points="56.88 369.43 56.73 369.18 58.16 368.26 58.32 368.52 56.88 369.43"/>
    <rect x="54.59" y="359.91" width="1.89" height="0.3"/>
    <polygon points="47.55 362.82 45.42 362.1 45.51 361.81 47.65 362.53 47.55 362.82"/>
    <polygon points="40.76 364.26 38.33 363.59 38.42 363.3 40.84 363.97 40.76 364.26"/>
    <polygon points="41.17 368.52 39.94 367.49 40.13 367.26 41.36 368.3 41.17 368.52"/>
    <polygon points="51.27 363.65 51.09 363.41 52.66 362.27 52.84 362.51 51.27 363.65"/>
    <polygon points="52.17 367.16 52 366.91 53.4 365.99 53.57 366.24 52.17 367.16"/>
    <polygon points="54.52 370.9 54.26 370.75 55.23 369.09 55.49 369.24 54.52 370.9"/>
    <polygon points="55.36 378.52 55.18 378.29 56.46 377.34 56.63 377.58 55.36 378.52"/>
    <polygon points="53.49 384.19 53.24 384.03 54.2 382.55 54.45 382.72 53.49 384.19"/>
    <polygon points="53.66 379.89 52.14 379 52.29 378.74 53.81 379.63 53.66 379.89"/>
    <polygon points="49.77 371.25 49.52 371.07 50.74 369.41 50.98 369.59 49.77 371.25"/>
    <polygon points="41.02 370.83 39.95 369.52 40.18 369.33 41.25 370.64 41.02 370.83"/>
    <polygon points="38.85 373.57 38.62 373.37 40.08 371.68 40.31 371.88 38.85 373.57"/>
    <rect x="47.03" y="369.73" width="0.3" height="1.49"/>
    <polygon points="50.95 377.23 50.01 375.97 50.24 375.79 51.19 377.04 50.95 377.23"/>
    <polygon points="47.49 381.37 46.46 380.1 46.69 379.91 47.73 381.18 47.49 381.37"/>
    <polygon points="43.1 376.04 41.25 375.35 41.36 375.07 43.2 375.75 43.1 376.04"/>
    <polygon points="41.11 380.94 40.85 380.78 41.65 379.49 41.91 379.65 41.11 380.94"/>
    <rect x="43.65" y="379.93" width="1.49" height="0.3"/>
    <polygon points="67.09 358.54 65.07 357.86 65.16 357.58 67.18 358.26 67.09 358.54"/>
    <polygon points="67.77 359.95 67.61 359.7 69.18 358.67 69.34 358.92 67.77 359.95"/>
    <rect x="61.16" y="358.16" width="1.8" height="0.3"/>
    <rect x="61.07" y="374.05" width="1.78" height="0.3"/>
    <polygon points="60.73 373.44 59.15 372.51 59.31 372.25 60.88 373.18 60.73 373.44"/>
    <rect x="1610.33" y="375.05" width="1.92" height="0.3" transform="translate(-1344.88 1237.55) rotate(-45)"/>
    <rect x="1614.22" y="395.1" width="0.3" height="1.94" transform="translate(-1358.74 1245.84) rotate(-45)"/>
    <polygon points="81.55 386.62 80.24 385.59 80.43 385.35 81.74 386.38 81.55 386.62"/>
    <rect x="63.99" y="381.88" width="1.57" height="0.3"/>
    <polygon points="86.38 378.97 85.65 377.11 85.93 377 86.66 378.87 86.38 378.97"/>
    <polygon points="84.91 369.43 84.75 369.18 86.19 368.26 86.35 368.52 84.91 369.43"/>
    <rect x="82.62" y="359.91" width="1.89" height="0.3"/>
    <polygon points="75.58 362.82 73.45 362.1 73.54 361.81 75.68 362.53 75.58 362.82"/>
    <polygon points="63.07 363.57 62.97 363.29 65.01 362.56 65.1 362.85 63.07 363.57"/>
    <polygon points="65.03 368.55 63.59 366.54 63.83 366.37 65.28 368.38 65.03 368.55"/>
    <polygon points="72.32 366 70.96 365.08 71.13 364.83 72.49 365.75 72.32 366"/>
    <polygon points="83.82 363.2 82.66 361.71 82.89 361.53 84.06 363.02 83.82 363.2"/>
    <polygon points="75.31 366.96 74.24 365.69 74.47 365.5 75.54 366.77 75.31 366.96"/>
    <rect x="83.45" y="373.21" width="1.8" height="0.3"/>
    <rect x="83.93" y="379.47" width="1.74" height="0.3"/>
    <rect x="78.37" y="381.41" width="1.72" height="0.3"/>
    <polygon points="79.41 374.11 79.27 373.84 81.45 372.75 81.59 373.02 79.41 374.11"/>
    <rect x="73.88" y="367.83" width="1.55" height="0.3"/>
    <rect x="66.97" y="368.09" width="0.3" height="1.61"/>
    <polygon points="66.88 373.57 66.65 373.37 68.11 371.68 68.34 371.88 66.88 373.57"/>
    <rect x="75.06" y="369.73" width="0.3" height="1.49"/>
    <polygon points="78.98 377.23 78.03 375.97 78.27 375.79 79.22 377.04 78.98 377.23"/>
    <polygon points="75.52 381.37 74.49 380.1 74.72 379.91 75.76 381.18 75.52 381.37"/>
    <polygon points="71.13 376.04 69.28 375.35 69.39 375.07 71.23 375.75 71.13 376.04"/>
    <rect x="66.65" y="378.23" width="1.64" height="0.3"/>
    <polygon points="71.17 378.56 70.95 378.36 71.95 377.26 72.17 377.47 71.17 378.56"/>
    <rect x="1616.38" y="367.73" width="1.75" height="0.3" transform="translate(-950.63 1666.84) rotate(-65.02)"/>
    <polygon points="102.24 360.53 102.07 360.28 103.53 359.31 103.7 359.55 102.24 360.53"/>
    <polygon points="94.27 360.51 93.1 359.12 93.33 358.93 94.5 360.31 94.27 360.51"/>
    <rect x="1641.98" y="375.84" width="0.3" height="1.84" transform="translate(-1573 631.34) rotate(-22.02)"/>
    <polygon points="88.59 361.21 87.61 359.78 87.86 359.61 88.84 361.04 88.59 361.21"/>
    <polygon points="104.31 386.11 104.08 385.91 105.22 384.68 105.44 384.89 104.31 386.11"/>
    <polygon points="93.62 380.79 92.45 379.49 92.67 379.29 93.84 380.59 93.62 380.79"/>
    <rect x="1643.35" y="376.57" width="1.66" height="0.3" transform="translate(-1002.27 1648.12) rotate(-62.43)"/>
    <polygon points="97.36 368.52 96.13 367.49 96.33 367.26 97.56 368.3 97.36 368.52"/>
    <polygon points="107.47 363.65 107.29 363.41 108.88 362.27 109.05 362.51 107.47 363.65"/>
    <rect x="106.53" y="381.41" width="1.72" height="0.3"/>
    <polygon points="107.3 374.11 107.17 373.85 109.33 372.75 109.47 373.02 107.3 374.11"/>
    <rect x="102.06" y="367.83" width="1.53" height="0.3"/>
    <rect x="95.15" y="368.09" width="0.3" height="1.61"/>
    <polygon points="95.06 373.57 94.83 373.37 96.3 371.68 96.52 371.88 95.06 373.57"/>
    <rect x="103.25" y="369.73" width="0.3" height="1.49"/>
    <polygon points="107.15 377.23 106.2 375.97 106.44 375.79 107.39 377.04 107.15 377.23"/>
    <polygon points="103.69 381.37 102.66 380.1 102.89 379.91 103.92 381.18 103.69 381.37"/>
    <polygon points="99.31 376.04 97.47 375.35 97.57 375.07 99.42 375.75 99.31 376.04"/>
    <rect x="94.84" y="378.23" width="1.64" height="0.3"/>
    <polygon points="99.35 378.56 99.13 378.36 100.13 377.26 100.36 377.47 99.35 378.56"/>
    <rect x="1644.55" y="367.73" width="1.75" height="0.3" transform="translate(-934.36 1692.37) rotate(-65.02)"/>
    <polygon points="58.39 357.57 58.13 357.41 59.24 355.72 59.5 355.88 58.39 357.57"/>
    <polygon points="48.09 358.21 47.87 358.01 49.03 356.79 49.24 356.99 48.09 358.21"/>
    <rect x="35.96" y="354" width="1.57" height="0.3"/>
    <rect x="1609.48" y="360.81" width="0.3" height="1.98" transform="translate(-1571.79 605.42) rotate(-21.57)"/>
    <polygon points="58.6 335.04 56.93 334.35 57.05 334.07 58.72 334.76 58.6 335.04"/>
    <polygon points="39.91 334.6 39.75 334.35 41.29 333.37 41.45 333.63 39.91 334.6"/>
    <polygon points="37 340.66 35.56 338.67 35.8 338.49 37.24 340.48 37 340.66"/>
    <rect x="1595.05" y="348.42" width="0.3" height="1.63"
          transform="matrix(0.55, -0.83, 0.83, 0.55, -1127.31, 1475.67)"/>
    <polygon points="55.79 335.32 54.63 333.82 54.87 333.63 56.03 335.14 55.79 335.32"/>
    <polygon points="47.28 339.08 46.21 337.81 46.44 337.62 47.51 338.89 47.28 339.08"/>
    <rect x="55.42" y="345.33" width="1.8" height="0.3"/>
    <rect x="55.9" y="351.57" width="1.74" height="0.3"/>
    <rect x="50.33" y="353.54" width="1.72" height="0.3"/>
    <polygon points="51.38 346.24 51.24 345.97 53.42 344.86 53.56 345.13 51.38 346.24"/>
    <rect x="45.85" y="339.95" width="1.55" height="0.3"/>
    <rect x="38.94" y="340.22" width="0.3" height="1.61"/>
    <polygon points="38.85 345.69 38.62 345.5 40.08 343.79 40.31 343.98 38.85 345.69"/>
    <rect x="47.03" y="341.83" width="0.3" height="1.51"/>
    <polygon points="50.95 349.33 50 348.09 50.24 347.91 51.19 349.15 50.95 349.33"/>
    <polygon points="47.49 353.49 46.46 352.22 46.69 352.03 47.73 353.3 47.49 353.49"/>
    <polygon points="43.1 348.14 41.25 347.45 41.36 347.17 43.2 347.86 43.1 348.14"/>
    <rect x="38.62" y="350.36" width="1.64" height="0.3"/>
    <polygon points="43.14 350.68 42.92 350.48 43.92 349.39 44.14 349.59 43.14 350.68"/>
    <polygon points="74.05 332.66 73.89 332.41 75.36 331.43 75.53 331.68 74.05 332.66"/>
    <polygon points="62.2 333.69 62.04 333.44 63.62 332.47 63.78 332.72 62.2 333.69"/>
    <rect x="61.07" y="346.16" width="1.78" height="0.3"/>
    <polygon points="60.73 345.54 59.15 344.61 59.31 344.36 60.88 345.29 60.73 345.54"/>
    <polygon points="59.22 336.41 59 336.2 60.36 334.82 60.57 335.03 59.22 336.41"/>
    <rect x="1614.22" y="367.23" width="0.3" height="1.94" transform="translate(-1338.87 1237.92) rotate(-45.01)"/>
    <polygon points="81.55 358.74 80.24 357.71 80.43 357.48 81.74 358.5 81.55 358.74"/>
    <rect x="63.99" y="354" width="1.57" height="0.3"/>
    <rect x="1637.51" y="360.81" width="0.3" height="1.98" transform="translate(-1569.95 614.96) rotate(-21.54)"/>
    <rect x="1636.21" y="352.51" width="1.7" height="0.3" transform="translate(-1491.34 904.65) rotate(-31.83)"/>
    <rect x="82.62" y="332.04" width="1.89" height="0.3"/>
    <polygon points="75.58 334.92 73.45 334.2 73.54 333.92 75.68 334.64 75.58 334.92"/>
    <polygon points="63.07 335.67 62.97 335.39 65.01 334.69 65.11 334.97 63.07 335.67"/>
    <polygon points="65.03 340.66 63.59 338.67 63.83 338.49 65.28 340.48 65.03 340.66"/>
    <rect x="1623.08" y="348.42" width="0.3" height="1.63"
          transform="matrix(0.55, -0.83, 0.83, 0.55, -1114.74, 1499.06)"/>
    <polygon points="83.82 335.32 82.66 333.82 82.9 333.63 84.06 335.14 83.82 335.32"/>
    <polygon points="75.31 339.08 74.24 337.81 74.47 337.62 75.54 338.89 75.31 339.08"/>
    <rect x="83.45" y="345.33" width="1.8" height="0.3"/>
    <rect x="83.93" y="351.57" width="1.74" height="0.3"/>
    <rect x="78.37" y="353.54" width="1.72" height="0.3"/>
    <polygon points="79.41 346.24 79.27 345.97 81.45 344.86 81.59 345.13 79.41 346.24"/>
    <rect x="73.88" y="339.95" width="1.55" height="0.3"/>
    <polygon points="70.83 345.54 69.38 344.42 69.56 344.18 71.01 345.31 70.83 345.54"/>
    <polygon points="39.06 386.15 37.04 385.47 37.13 385.18 39.15 385.86 39.06 386.15"/>
    <rect x="1608.18" y="408" width="1.7" height="0.3" transform="translate(-1524.81 898.21) rotate(-31.83)"/>
    <rect x="54.59" y="387.52" width="1.89" height="0.3"/>
    <polygon points="47.55 390.41 45.42 389.69 45.51 389.4 47.65 390.12 47.55 390.41"/>
    <polygon points="54.52 398.49 54.26 398.33 55.23 396.68 55.49 396.83 54.52 398.49"/>
    <polygon points="56.22 405.55 56.05 405.31 57.32 404.37 57.5 404.61 56.22 405.55"/>
    <polygon points="49.77 398.86 49.52 398.68 50.74 397 50.98 397.17 49.77 398.86"/>
    <polygon points="41.02 398.42 39.95 397.11 40.18 396.92 41.25 398.23 41.02 398.42"/>
    <polygon points="42.79 401.03 41.35 399.9 41.53 399.67 42.98 400.79 42.79 401.03"/>
    <polygon points="43.1 403.62 41.25 402.94 41.36 402.66 43.2 403.34 43.1 403.62"/>
    <polygon points="60.73 401.03 59.15 400.1 59.31 399.84 60.88 400.77 60.73 401.03"/>
    <polygon points="59.22 391.89 59 391.68 60.36 390.31 60.57 390.52 59.22 391.89"/>
    <polygon points="63.07 391.16 62.97 390.87 65.01 390.17 65.11 390.46 63.07 391.16"/>
    <polygon points="65.03 396.14 63.59 394.15 63.83 393.97 65.28 395.97 65.03 396.14"/>
    <rect x="1620.95" y="394.62" width="0.3" height="1.95" transform="translate(-1579.03 641.79) rotate(-22.6)"/>
    <polygon points="99.15 387.87 98.88 387.73 98.92 387.64 99.64 386.2 99.91 386.34 99.87 386.43 99.15 387.87"/>
    <polygon points="98.02 384.85 97.24 383.05 97.52 382.93 98.29 384.74 98.02 384.85"/>
    <rect x="89.23" y="374.05" width="1.8" height="0.3"/>
    <polygon points="88.92 373.44 87.34 372.51 87.49 372.25 89.07 373.18 88.92 373.44"/>
    <polygon points="106.86 361.26 105.59 360.15 105.79 359.92 107.06 361.04 106.86 361.26"/>
    <polygon points="96.13 362.5 95.97 362.24 97.5 361.27 97.66 361.52 96.13 362.5"/>
    <rect x="1585.76" y="347.95" width="0.3" height="1.84" transform="translate(-1566.37 609.81) rotate(-22.07)"/>
    <polygon points="57.17 339.26 55.02 338.58 55.1 338.29 57.26 338.97 57.17 339.26"/>
    <polygon points="50.66 333.37 49.4 332.27 49.59 332.05 50.86 333.14 50.66 333.37"/>
    <rect x="63.67" y="344.26" width="0.3" height="1.82"/>
    <polygon points="76.18 348.04 75.94 347.86 77 346.43 77.24 346.61 76.18 348.04"/>
    <polygon points="74.57 355.41 74.44 355.14 75.89 354.39 76.02 354.66 74.57 355.41"/>
    <polygon points="72.92 347.17 72.68 346.99 73.7 345.64 73.94 345.82 72.92 347.17"/>
    <rect x="64.08" y="348.11" width="0.3" height="1.72"/>
    <polygon points="67.07 354.66 66.92 354.4 68.4 353.53 68.55 353.78 67.07 354.66"/>
    <rect x="1622.7" y="365.14" width="0.3" height="1.86" transform="translate(-1152.05 1481.74) rotate(-55.37)"/>
    <polygon points="90.7 343.08 90.46 342.91 91.48 341.48 91.73 341.65 90.7 343.08"/>
    <polygon points="88.1 351.32 87.91 351.09 89.56 349.67 89.75 349.9 88.1 351.32"/>
    <rect x="87.52" y="337.87" width="0.3" height="1.72"/>
    <polygon points="89.77 352.73 89.61 352.48 91.1 351.48 91.27 351.73 89.77 352.73"/>
    <polygon points="104.31 358.21 104.08 358.01 105.22 356.79 105.44 356.99 104.31 358.21"/>
    <polygon points="93.62 352.92 92.45 351.61 92.67 351.41 93.84 352.72 93.62 352.92"/>
    <polygon points="103.75 334.92 101.61 334.2 101.71 333.92 103.84 334.64 103.75 334.92"/>
    <polygon points="91.23 335.67 91.13 335.39 93.17 334.69 93.27 334.97 91.23 335.67"/>
    <polygon points="93.22 340.66 91.75 338.67 91.99 338.49 93.46 340.48 93.22 340.66"/>
    <rect x="1651.26" y="348.42" width="0.3" height="1.63"
          transform="matrix(0.55, -0.83, 0.83, 0.55, -1102.1, 1522.57)"/>
    <polygon points="111.19 337.15 110.21 335.73 110.45 335.56 111.44 336.98 111.19 337.15"/>
    <polygon points="106.88 340.59 105.5 339.61 105.67 339.37 107.05 340.35 106.88 340.59"/>
    <polygon points="109.71 356.3 109.46 356.14 110.39 354.68 110.65 354.84 109.71 356.3"/>
    <polygon points="109.86 352.02 108.36 351.13 108.51 350.87 110.01 351.76 109.86 352.02"/>
    <polygon points="105.98 343.37 105.74 343.2 106.93 341.52 107.18 341.69 105.98 343.37"/>
    <polygon points="97.23 342.94 96.16 341.62 96.4 341.44 97.47 342.75 97.23 342.94"/>
    <polygon points="92.42 346.56 92.33 346.27 94.49 345.6 94.58 345.88 92.42 346.56"/>
    <polygon points="100.72 344.63 100.5 344.43 101.71 343.07 101.94 343.27 100.72 344.63"/>
    <polygon points="104.34 348.04 104.1 347.86 105.16 346.43 105.4 346.61 104.34 348.04"/>
    <polygon points="102.76 355.41 102.62 355.14 104.05 354.39 104.19 354.66 102.76 355.41"/>
    <polygon points="101.1 347.17 100.86 346.99 101.89 345.64 102.13 345.82 101.1 347.17"/>
    <rect x="92.26" y="348.11" width="0.3" height="1.72"/>
    <polygon points="95.25 354.66 95.1 354.4 96.56 353.52 96.72 353.78 95.25 354.66"/>
    <rect x="1650.88" y="365.13" width="0.3" height="1.88" transform="translate(-1132.32 1513.02) rotate(-55.75)"/>
    <rect x="1612" y="745.08" width="1.7" height="0.3" transform="translate(-1702 950.91) rotate(-31.83)"/>
    <polygon points="77.25 725.34 77.09 725.09 78.56 724.11 78.73 724.36 77.25 725.34"/>
    <polygon points="69.31 725.29 68.11 723.92 68.34 723.73 69.53 725.09 69.31 725.29"/>
    <rect x="1617" y="740.65" width="0.3" height="1.82" transform="translate(-1711.09 638.74) rotate(-21.7)"/>
    <polygon points="63.6 726.02 62.62 724.58 62.87 724.41 63.85 725.85 63.6 726.02"/>
    <polygon points="68.65 745.6 67.48 744.29 67.7 744.09 68.88 745.4 68.65 745.6"/>
    <rect x="1622.18" y="739" width="0.3" height="2.54" transform="translate(-1070.86 2098.42) rotate(-74.72)"/>
    <polygon points="71.37 731.48 69.57 730.17 69.75 729.92 71.55 731.24 71.37 731.48"/>
    <polygon points="81.11 730.55 80.33 728.84 80.6 728.72 81.38 730.42 81.11 730.55"/>
    <polygon points="86.22 729.85 85.24 728.41 85.49 728.24 86.47 729.68 86.22 729.85"/>
    <polygon points="85.75 735.68 85.49 735.53 86.46 733.87 86.72 734.03 85.75 735.68"/>
    <polygon points="84.89 744.7 83.39 743.8 83.54 743.55 85.04 744.44 84.89 744.7"/>
    <polygon points="81.02 736.05 80.77 735.88 81.96 734.2 82.21 734.37 81.02 736.05"/>
    <rect x="1623.19" y="745.74" width="0.3" height="1.68" transform="translate(-1662.21 1165.84) rotate(-38.65)"/>
    <polygon points="67.45 739.24 67.36 738.95 69.5 738.27 69.59 738.56 67.45 739.24"/>
    <polygon points="75.76 737.33 75.53 737.13 76.74 735.75 76.97 735.95 75.76 737.33"/>
    <polygon points="79.37 740.72 79.13 740.54 80.2 739.11 80.44 739.29 79.37 740.72"/>
    <polygon points="77.77 748.09 77.64 747.82 79.08 747.09 79.22 747.36 77.77 748.09"/>
    <polygon points="76.12 739.85 75.88 739.67 76.9 738.32 77.14 738.5 76.12 739.85"/>
    <rect x="67.28" y="740.81" width="0.3" height="1.7"/>
    <polygon points="70.27 747.34 70.12 747.08 71.6 746.22 71.75 746.49 70.27 747.34"/>
    <polygon points="75.23 747.7 73.69 746.64 73.86 746.4 75.4 747.46 75.23 747.7"/>
    <polygon points="61.43 722.36 61.18 722.19 62.31 720.52 62.56 720.69 61.43 722.36"/>
    <rect x="1612.54" y="725.62" width="0.3" height="1.98" transform="translate(-1705.7 632.09) rotate(-21.57)"/>
    <rect x="1611.24" y="717.31" width="1.7" height="0.3" transform="translate(-1687.48 946.34) rotate(-31.83)"/>
    <polygon points="57.99 707.81 57.73 707.65 58.7 706 58.96 706.15 57.99 707.81"/>
    <rect x="58.95" y="716.37" width="1.76" height="0.3"/>
    <polygon points="63.11 744.02 62.92 743.79 64.59 742.35 64.79 742.58 63.11 744.02"/>
    <rect x="62.56" y="730.55" width="0.3" height="1.72"/>
    <polygon points="74.86 727.86 73.69 726.59 73.9 726.38 75.08 727.65 74.86 727.86"/>
    <polygon points="78.51 731.76 77.44 730.49 77.67 730.3 78.74 731.57 78.51 731.76"/>
    <rect x="1615.69" y="724.06" width="0.3" height="2.05" transform="translate(-1511.36 1522.01) rotate(-51.33)"/>
    <rect x="1613.94" y="717.73" width="2.12" height="0.3" transform="translate(-1217.27 1924.05) rotate(-67.52)"/>
    <polygon points="66.64 722.08 65.27 720.72 65.48 720.51 66.85 721.86 66.64 722.08"/>
    <polygon points="76.11 722.45 75.93 722.21 77.36 721.12 77.54 721.36 76.11 722.45"/>
    <polygon points="87.55 706.4 87.39 706.14 88.82 705.25 88.97 705.5 87.55 706.4"/>
    <polygon points="71.37 703.58 69.57 702.29 69.75 702.05 71.55 703.34 71.37 703.58"/>
    <polygon points="88.07 702.3 87.09 700.86 87.34 700.69 88.32 702.13 88.07 702.3"/>
    <polygon points="81.91 705.4 80.51 704.41 80.68 704.17 82.08 705.15 81.91 705.4"/>
    <polygon points="84.47 713.52 84.26 713.31 85.54 712.09 85.75 712.31 84.47 713.52"/>
    <polygon points="84.74 721.1 84.49 720.94 85.42 719.46 85.68 719.62 84.74 721.1"/>
    <polygon points="84.89 716.82 83.39 715.91 83.55 715.65 85.05 716.56 84.89 716.82"/>
    <polygon points="81.02 708.18 80.77 708 81.96 706.32 82.21 706.49 81.02 708.18"/>
    <rect x="1623.19" y="717.85" width="0.3" height="1.68" transform="translate(-1644.7 1160.04) rotate(-38.67)"/>
    <polygon points="67.45 711.36 67.36 711.08 69.5 710.4 69.59 710.68 67.45 711.36"/>
    <polygon points="75.76 709.43 75.53 709.24 76.74 707.86 76.97 708.05 75.76 709.43"/>
    <polygon points="79.37 712.82 79.13 712.64 80.2 711.23 80.44 711.41 79.37 712.82"/>
    <polygon points="77.77 720.21 77.64 719.94 79.08 719.2 79.22 719.46 77.77 720.21"/>
    <polygon points="76.12 711.96 75.88 711.77 76.9 710.44 77.14 710.62 76.12 711.96"/>
    <rect x="67.28" y="712.92" width="0.3" height="1.72"/>
    <polygon points="70.27 719.46 70.12 719.2 71.6 718.33 71.75 718.59 70.27 719.46"/>
    <polygon points="75.23 719.81 73.69 718.77 73.86 718.52 75.4 719.56 75.23 719.81"/>
    <path d="M1661.26,141.56h.58c.72,0,1.52,0,2.36-.07,3.17-.13,7.06-.3,9,1.37a1.67,1.67,0,0,0,.89,1,1.26,1.26,0,0,0,.46.09c1.1,0,2.39-1.4,4.36-3.55l.14-.15c.3,1.59.81,2.48,1.59,2.73a1.44,1.44,0,0,0,.45.07c1.41,0,2.92-2,4.07-3.56a3.08,3.08,0,0,0,1.35,2.35,1.63,1.63,0,0,0,.73.17,5.67,5.67,0,0,0,3-1.51c.33-.26.66-.5.93-.68a1.5,1.5,0,0,0,.5.09c2,0,3.1-4,3.1-7.74s-1.09-7.72-3.1-7.72l-.21,0h0a8.66,8.66,0,0,1-1.22-.85c-1.17-.9-2.51-1.92-3.68-1.34a3.07,3.07,0,0,0-1.35,2.34c-1.27-1.73-3-4-4.52-3.49-.78.26-1.29,1.15-1.59,2.74l-.14-.15c-2.25-2.45-3.6-3.93-4.82-3.47a1.46,1.46,0,0,0-.71.63l0,0c-2.82,2.56-5.57,2.53-8,2.5h-.76c-9.36,0-12.68-2.43-12.68-4.49,0-.24.79-23.47-18.24-26.51v-77h-.1c0-2.33-5.1-3.58-9.9-3.58s-9.9,1.26-9.9,3.58c0,0,0,0,0,0h0v77c-18.8,3.18-18,26.23-18,26.45V297.36c0,3-.78,5.34-2.32,6.86-2.47,2.43-6.35,2.38-8.44,2.35,0,0-4.94.15-6,.15-2.36,0-4.68-.3-6-1.49a1.63,1.63,0,0,0-.87-.92c-1.21-.47-2.56,1-4.81,3.48l-.13.14c-.3-1.59-.81-2.47-1.59-2.73-1.54-.5-3.25,1.76-4.53,3.5a3.13,3.13,0,0,0-1.35-2.36c-1.19-.59-2.52.44-3.7,1.34-.33.25-.65.49-.92.67a1.53,1.53,0,0,0-.49-.09c-2,0-3.1,4-3.1,7.74s1.09,7.72,3.1,7.72l.19,0h0a8.6,8.6,0,0,1,1.22.84,5.7,5.7,0,0,0,3,1.52,1.65,1.65,0,0,0,.74-.17,3.12,3.12,0,0,0,1.34-2.35c1.15,1.56,2.66,3.57,4.08,3.57a1.43,1.43,0,0,0,.45-.07c.78-.26,1.29-1.14,1.59-2.74l.12.14c2,2.16,3.25,3.56,4.35,3.56a1.25,1.25,0,0,0,.46-.09,1.47,1.47,0,0,0,.72-.64l0,0c2.82-2.56,5.58-2.53,8-2.5,0,0,10.56,0,12.56.44s2.27,1.2,2.27,2.67l0,16.23c-12.84,2.14-12.85,5.84-12.85,8.39a4.76,4.76,0,0,0,2.73,3.61c.31.18.45,1,.45,1.46l2.93,52.75c0,.12,0,.26,0,.41h0c0,6.36,1,8.78,1.94,11.12a18.06,18.06,0,0,1,1.55,8.07l0,158.61a31.79,31.79,0,0,0,18.9,29h0c0,4.74-.05,84.94-.06,90.45a5,5,0,0,1-2.07,3.44.62.62,0,0,1-.2-.18v-.06l-1,.05a.76.76,0,0,0,0,.13l5,45.95c0,2.59,11.81,2.62,12.31,2.62,4.78,0,11.82-.69,12.3-2.58h0v-.09a.86.86,0,0,0,0-.1l4-45.83a.8.8,0,0,0,0-.11l-.65,0a3.76,3.76,0,0,1-1.95-2.92V680.5c0-.35.24-.47,1.18-.79.26-.09.53-.18.82-.29l.63-.17a78.38,78.38,0,0,0,27.73-13.05c15.33-11.57,23.1-27.57,23.1-47.56V480.71c0-35.79-19.58-42.85-30.1-46.65-3.59-1.29-6.18-2.23-6.18-3.67a18.8,18.8,0,0,1,1.67-8,28.43,28.43,0,0,0,2.22-12.09l2.85-52.71c0-.46.14-1.23.46-1.41,1.34-.75,2.7-1.7,2.7-3,0-2.49,0-6.41-12.36-8.74l-.1,0h0c-.94-.18-2-.34-3-.5l-.17-193.14c0-3,.78-5.31,2.32-6.83C1655.22,141.47,1659.15,141.53,1661.26,141.56Zm30.39-16.17c1.17,0,2.11,3,2.11,6.73s-.95,6.73-2.11,6.73-2.11-3-2.11-6.73S1690.48,125.39,1691.65,125.39Zm-68-112.69c5.51,0,8.9,1.5,8.9,2.58s-3.39,2.56-8.9,2.56-8.9-1.49-8.9-2.56S1618.16,12.7,1623.67,12.7Zm-8.92,105.25V16.89c1.71,1.28,5.39,2,8.92,2s7.32-.69,9-2V117.95c0,7.27,2.11,13.12,4.33,19.31,2.43,6.75,4.93,13.73,4.93,23.23s-2.5,14.34-4.92,19c-2.24,4.34-4.35,8.44-4.35,15.7s2.11,11.35,4.34,15.73c2.42,4.75,4.93,9.67,4.93,19.16s-2.5,14.6-4.92,19.56c-2.23,4.58-4.34,8.9-4.34,16.16s2.11,11.12,4.34,15.25c2.42,4.47,4.92,9.09,4.92,18.56s-2.5,14.64-4.92,19.62c-2.23,4.59-4.34,8.93-4.34,16.19a28.08,28.08,0,0,0,.85,7.16c-2.77-.08-5.78-.12-9-.12-3.88,0-7.4.05-10.59.16a28.05,28.05,0,0,0,.86-7.19c0-7.26-2.11-11.6-4.34-16.19-2.42-5-4.92-10.13-4.92-19.62s2.5-14.09,4.92-18.56c2.23-4.13,4.34-8,4.34-15.25s-2.11-11.58-4.34-16.16c-2.42-5-4.92-10.08-4.92-19.56s2.51-14.41,4.93-19.16c2.23-4.37,4.34-8.51,4.34-15.73s-2.11-11.36-4.35-15.7c-2.42-4.7-4.92-9.55-4.92-19s2.51-16.48,4.93-23.23C1612.64,131.06,1614.74,125.22,1614.75,117.95Zm17.9,317.42a3.11,3.11,0,0,0-.48-.24c-2-.81-6-.18-10.09,1.6a19.92,19.92,0,0,0-7.32,4.91V418.25c3,.11,6.22.17,9.72.17q4.35,0,8.18-.11Zm-.12,2.31c-.68,1.74-3.72,4-7.58,5.7-4.33,1.89-7.8,2.13-9.31,1.54a1.35,1.35,0,0,1-.8-.66,1.23,1.23,0,0,1,0-1c.66-1.7,3.71-4,7.59-5.65h0a19.71,19.71,0,0,1,7.47-1.87,5.21,5.21,0,0,1,1.85.28,1.31,1.31,0,0,1,.78.65A1.26,1.26,0,0,1,1632.53,437.67Zm-8.05-20.25q-5.26,0-9.72-.17V405c0-.63,0-1.24-.05-1.83,3.27-.13,6.58-.19,9.78-.19q4.4,0,8.24.12c0,.61-.06,1.24-.06,1.9v12.27Q1628.84,417.42,1624.48,417.42Zm0-14.8q-5.3,0-9.8.18c-.38-5.95-2.28-9.83-4.27-13.91-2.42-4.95-4.92-10.06-4.92-19.54a40.64,40.64,0,0,1,.63-7.45c4.65.43,10.6.69,18.36.69,6.79,0,12.31-.23,16.84-.61a40.7,40.7,0,0,1,.62,7.36c0,9.47-2.5,14.59-4.92,19.54-2,4.06-3.87,7.93-4.27,13.84Q1628.88,402.62,1624.48,402.62ZM1596.72,345l.29-.08h0a143.3,143.3,0,0,1,15.54-1.28,38.66,38.66,0,0,1-3,6.58,50.7,50.7,0,0,0-2.84,5.9q-8.43-.71-12.63-2.24c2.29-2,2.64-7,2.66-7.25Zm9.62,12.09a31,31,0,0,0-1.18,4.49,51.82,51.82,0,0,1-11.74-2.28l-.28-4.68C1595.67,355.64,1599.75,356.54,1606.33,357.13Zm-1.22,4.69a41.84,41.84,0,0,0-.63,7.54c0,9.71,2.55,14.93,5,20,1.94,4,3.79,7.76,4.17,13.51q-11.39.51-17.49,2.2l-2.76-45.49A52.31,52.31,0,0,0,1605.11,361.81Zm8.58,41.43c0,.58.05,1.17.05,1.79v12.18a91,91,0,0,1-16.95-1.93l-.6-9.83C1600.71,404.21,1607,403.55,1613.7,403.25Zm20,1.79c0-.65,0-1.26.06-1.86a107,107,0,0,1,17,1.66l-.63,10.92a111.74,111.74,0,0,1-16.43,1.53Zm.08-2.26c.39-5.71,2.23-9.48,4.16-13.44,2.47-5,5-10.27,5-20a41.94,41.94,0,0,0-.61-7.45,79.29,79.29,0,0,0,11-1.66l-2.54,44.18A107.91,107.91,0,0,0,1633.75,402.77Zm8.54-41.06a31,31,0,0,0-1.15-4.43,71.31,71.31,0,0,0,12.42-1.79l-.26,4.56A78.8,78.8,0,0,1,1642.28,361.71Zm-1,.08c-4.51.37-10,.61-16.8.61-7.75,0-13.68-.26-18.33-.69a30.05,30.05,0,0,1,1.21-4.5c4.55.36,10.2.58,17.27.58,6.16,0,11.24-.17,15.46-.45A30.16,30.16,0,0,1,1641.28,361.79Zm-16.65-5q-9.84,0-16.9-.54a51.07,51.07,0,0,1,2.68-5.51,38.36,38.36,0,0,0,3.2-7.09c3.26-.11,6.86-.17,10.87-.17,3.38,0,6.48,0,9.32.13a38.23,38.23,0,0,0,3.21,7.13,50.3,50.3,0,0,1,2.73,5.64Q1633.25,356.79,1624.63,356.79Zm-70-34.06c-.86,0-2.1-2.62-2.1-6.72s1.24-6.74,2.1-6.74,2.1,2.57,2.1,6.74S1555.48,322.73,1554.61,322.73Zm39,1.56c-2.11-.46-12.76-.47-12.76-.47-2.17,0-4.81-.06-7.51,1.81a34.82,34.82,0,0,0,.32-5.7h-1c0,5.54-.51,6.9-.94,7.06s-2.17-1.53-3.71-3.22l-.68-.75c.09-.88.13-1.9.13-3.1h-1c0,5.21-.85,6.05-1.21,6.17-.87.29-2.64-2.09-3.49-3.24l-.53-.71c.06-.63.09-1.32.09-2.11h-1c0,3.85-.67,4.76-1.07,5-.62.31-1.75-.55-2.65-1.24-.28-.21-.54-.41-.8-.59,1.24-1.2,1.88-4.2,1.88-7.17s-.59-5.75-1.73-7l.65-.49c.9-.69,2-1.55,2.65-1.24.4.2,1.07,1.11,1.07,5h1c0-.78,0-1.47-.08-2.09l.51-.68c.85-1.16,2.63-3.57,3.51-3.27.36.12,1.21,1,1.21,6.16h1c0-1.2,0-2.22-.13-3.1l.68-.75c1.54-1.69,3.14-3.43,3.71-3.22s.94,1.53.94,7.06h1a36,36,0,0,0-.3-5.59,13,13,0,0,0,5.74,1c1,0,5.81-.15,5.81-.15,2.23,0,6.39.09,9.16-2.64,1.74-1.72,2.62-4.26,2.62-7.57V118.79c0-.23-.73-22.26,17-25.41v24.56c0,7.1-2.08,12.86-4.27,19-2.46,6.83-5,13.9-5,23.57s2.56,14.69,5,19.49c2.18,4.23,4.24,8.22,4.24,15.25s-2.05,11-4.23,15.27c-2.48,4.86-5,9.88-5,19.62s2.55,14.94,5,20c2.18,4.47,4.24,8.69,4.24,15.72s-2.05,10.76-4.22,14.77c-2.48,4.58-5,9.31-5,19s2.55,15,5,20.06c2.18,4.49,4.24,8.73,4.24,15.76a26.79,26.79,0,0,1-.91,7.23,144.47,144.47,0,0,0-16.07,1.33h-.05l0-16.07C1596.7,325.8,1595.84,324.78,1593.64,324.29Zm2.07,21v1.35c-.1,1.65-.8,5.82-2.75,6.84-2-.91-3-2-3-3.3V350C1589.92,349,1589.86,347,1595.72,345.3Zm-9.64,10h0a3.89,3.89,0,0,1-2.19-2.73c0-1.79,0-4.46,7.33-6.44-2.3,1.48-2.27,3-2.24,3.86v.2c0,.93,0,2.53,3.14,4l.29,4.75a30.19,30.19,0,0,1-4.17-2.06c-.5-.28-1-.55-1.48-.81A1.63,1.63,0,0,0,1586.08,355.3Zm1,2.31a4.32,4.32,0,0,0-.19-1.23l1.26.7a30.14,30.14,0,0,0,4.28,2.11l2.8,46.15q-4,1.28-5.33,3.17Zm2.87,51.64c.64-1.48,2.56-2.62,5.32-3.5l.56,9.27c-.63-.18-1.23-.37-1.77-.56-4-1.51-4-3.11-4.05-4.11Zm22.32,299.14h0v-.32h0c0-5.49.06-82.32.06-90a31.38,31.38,0,0,0,25.68-.94c0,2.88,0,11.34-.07,20.37-9.17,3.4-16.84,7.16-16.84,14.32v61.43a49.91,49.91,0,0,1-10.85-1.27A6,6,0,0,0,1612.24,708.38Zm12.57,4.89c-.95,0-1.85,0-2.72,0V651.78c0-6.43,7.17-10,15.84-13.25,0,2.13,0,4.29,0,6.4-5.74,2.38-9.85,5-9.85,9.16v59.13C1627,713.26,1625.95,713.28,1624.81,713.28Zm3.24.94v24l-6-4.72V714.23c1.5,0,2.55,0,2.72,0S1626.27,714.27,1628,714.21Zm12.46-1.7-3.91,44.71c-.3.64-4.42,1.8-11.32,1.8s-11.05-1.06-11.31-1.67l-4.83-44.83c2.41,1.13,8.14,1.53,12,1.67v19.54l.19.39,7,5.51.81-.39V714.18C1632.87,714,1638.21,713.6,1640.5,712.52ZM1656.93,422a19.88,19.88,0,0,0-1.74,8.35c0,2.15,2.72,3.13,6.84,4.61,10.29,3.71,29.44,10.62,29.44,45.71V618.64c0,42.24-35,55.78-50.08,59.65l-.75.21c-.27.11-.53.19-.77.27-.91.31-1.86.62-1.86,1.73v27.88a4.66,4.66,0,0,0,1.86,3.36c-1.5.57-5.2,1.22-10.82,1.45v-59.1c0-3.5,3.66-5.89,8.85-8.08,0,10.07-.08,18.85-.08,19l0,.15a2.7,2.7,0,0,0,2.74,1.76,5.48,5.48,0,0,0,1.54-.24l.49-.13c11.69-3,38.88-13.71,38.88-47.74V480.71c0-15.16-8.82-31.38-22-31.38a4.73,4.73,0,0,0-4.7,4.76l0,134.51c0,3.55,0,7.21-1.65,10.12-3.24,5.66-.11,11.94,0,12.15,1.09,2.93,7,9.75,11.35,12.23a14.59,14.59,0,0,1-4.18,4.6c-5-3-8.94-8.58-11.23-12.42a6.32,6.32,0,0,0-8.24-.94,30.67,30.67,0,0,1-47.47-25.74l0-158.61a18.9,18.9,0,0,0-1.62-8.45,21.65,21.65,0,0,1-1.8-8.29,9.44,9.44,0,0,0,3.64,2.15c4,1.49,10.74,2.44,20.08,2.82v25.61s0,.14,0,.14a3.54,3.54,0,0,0,.16.68,2.29,2.29,0,0,0,1.35,1.19,6.32,6.32,0,0,0,2.29.36,20.72,20.72,0,0,0,7.79-1.91c4.15-1.8,7.33-4.26,8.11-6.25a2.5,2.5,0,0,0,.18-1.1V418.27c10.15-.35,17.42-1.31,21.64-2.87a9.28,9.28,0,0,0,3.69-2.2A25.68,25.68,0,0,1,1656.93,422ZM1643,636.69c6.31-2.24,12.84-4.55,17.41-7.81a13.72,13.72,0,0,0,6.6,1.82l.46,0c-5.44,5.48-14.3,8.65-22.18,11.46-2.25.8-4.43,1.58-6.43,2.38,0-2.1,0-4.24,0-6.36C1640.28,637.67,1641.66,637.18,1643,636.69Zm-4.11.41c0-9.5.07-18.29.07-20.5.83-.44,1.65-.91,2.45-1.42a5.27,5.27,0,0,1,6.89.68c2.25,3.79,6.14,9.34,11.14,12.47-4.44,3-10.7,5.27-16.77,7.42Zm34.78-18.53c0-.1,0-.2,0-.3V603.54c2.85,5.37,5.17,10.13,5.17,15.1,0,6.74-4.35,9.89-8.94,10.78a17.34,17.34,0,0,0,3.72-9.93,5.83,5.83,0,0,0,0-.75C1673.72,618.69,1673.71,618.62,1673.71,618.56Zm-6-10.17c2.28,4.39,4.83,8,5,10.19,0,.28,0,.56,0,.83-.45,3.42-4.35,3.61-5.37,3.61a3.69,3.69,0,0,1-1.42-.37,11,11,0,0,0,.88-4.39V606.49Zm-1-4.1V588.83a92.54,92.54,0,0,0,6,12.83v13.77c-1-2-2.55-4.54-4.09-7.5C1668,606.77,1667.41,605.56,1666.77,604.29Zm6-4.76a72.73,72.73,0,0,1-6-14V532.43a1.51,1.51,0,0,0-1.45-1.57,1.23,1.23,0,0,0-1,.47,2,2,0,0,0-.37,1.25v5.19c0,10.4,0,32,0,35.41a46.31,46.31,0,0,0,1.79,12.53v16.56c-3.85-7.9-7.75-17.72-7.75-29.09V532.59c0-7.78,3.71-11.54,7.4-11.81a5.38,5.38,0,0,1,4.15,1.42c2.06,1.92,3.15,5.74,3.15,11Zm-7-67.1v48.94a45,45,0,0,1-.79-8.2c0-3.38,0-25,0-35.4v-5.19c0-.35.09-.72.35-.72A.52.52,0,0,1,1665.77,532.43Zm1.54,91.59a7.39,7.39,0,0,0,5-1.74,16.45,16.45,0,0,1-3.56,7.1l.24.2h0l-.24-.2-.22.25c-.48,0-1,.08-1.44.08a12.56,12.56,0,0,1-5.73-1.47,15.18,15.18,0,0,0,4.13-4.69A4.73,4.73,0,0,0,1667.31,624Zm-21.63,19.07c8.36-3,17.79-6.35,23.31-12.51,5.69-.68,10.9-4.44,10.9-11.93,0-5.67-2.81-10.94-6.06-17l-.1-.2V533.24c0-5.68-1.17-9.64-3.47-11.78a6.35,6.35,0,0,0-4.9-1.68c-4.14.3-8.32,4.38-8.32,12.81v40.59c0,12.48,4.58,23.07,8.75,31.34v13.74a10,10,0,0,1-.78,3.93c-4-2.35-9.87-9.08-10.86-11.72,0-.06-3-6.07,0-11.26,1.78-3.13,1.78-7.11,1.78-10.61l0-134.51a3.73,3.73,0,0,1,3.7-3.76c12.54,0,21,15.71,21,30.38V618.86c0,33.33-26.67,43.81-38.13,46.77l-.52.14c-2.26.66-2.89-.48-3-.8,0-1,0-9.61.08-19.37C1641,644.76,1643.28,643.94,1645.67,643.08ZM1659,410.4c0,1,0,2.56-4.05,4.07a28.43,28.43,0,0,1-3.85,1.08l.6-10.5a27.17,27.17,0,0,1,3.35,1c2.66,1,3.66,2.07,4,3Zm2.93-52.82-2.81,50.64a7.84,7.84,0,0,0-3.93-2.57,27.61,27.61,0,0,0-3.47-1L1654.3,360a21,21,0,0,0,7.76-3.41A4.08,4.08,0,0,0,1661.93,357.58Zm3.16-4.42c0,.64-.7,1.32-2.19,2.16a1.74,1.74,0,0,0-.75,1l-.1.07a20.71,20.71,0,0,1-7.74,3.44l.26-4.59c5.75-1.73,5.76-3.88,5.76-5a4.61,4.61,0,0,0-2.27-3.72C1665.09,348.6,1665.09,351.4,1665.09,353.15Zm-11.71-7.8c3.84,1.23,6,2.94,6,4.84,0,1.7-1.76,3.07-5.25,4.12-2.7-1.77-3.33-7.47-3.46-9.41Q1652.1,345.11,1653.38,345.35Zm-.49,9.28a72.48,72.48,0,0,1-12.11,1.67,49.89,49.89,0,0,0-2.89-6,38.51,38.51,0,0,1-3-6.62c6,.21,10.87.6,14.74,1.11C1649.71,346.5,1650.24,352.15,1652.89,354.63Zm-3.48-203.88.17,193c-4-.52-8.9-.92-15-1.12a26.81,26.81,0,0,1-.9-7.19c0-7,2.06-11.27,4.24-15.76,2.47-5.08,5-10.34,5-20.06s-2.56-14.46-5-19c-2.17-4-4.22-7.8-4.22-14.77s2.06-11.25,4.24-15.72c2.47-5.06,5-10.29,5-20s-2.56-14.76-5-19.62c-2.17-4.27-4.23-8.29-4.23-15.27s2.06-11,4.24-15.25c2.47-4.8,5-9.77,5-19.49s-2.54-16.74-5-23.57c-2.19-6.1-4.26-11.87-4.27-19V93.35c18,3,17.25,25.22,17.24,25.47,0,1.29,1,5.51,13.68,5.51h1.55a11.06,11.06,0,0,0,6.69-1.82,34.83,34.83,0,0,0-.32,5.7h1c0-5.53.51-6.9.94-7.06.59-.22,2.17,1.52,3.72,3.21l.69.75c-.09.88-.13,1.9-.13,3.1h1c0-5.21.85-6.05,1.21-6.17.87-.29,2.64,2.1,3.49,3.24l.53.7c-.05.62-.08,1.32-.08,2.11h1c0-3.86.67-4.76,1.07-5,.62-.31,1.74.55,2.63,1.24.28.22.56.42.82.6-1.24,1.22-1.9,4.26-1.9,7.16s.61,5.72,1.75,7l-.67.5c-.9.69-2,1.54-2.63,1.24-.4-.2-1.07-1.1-1.07-5h-1c0,.79,0,1.47.08,2.09l-.51.68c-.85,1.16-2.63,3.56-3.51,3.27-.36-.12-1.21-1-1.21-6.16h-1c0,1.2,0,2.22.13,3.1l-.69.76c-1.55,1.69-3.15,3.42-3.72,3.21a.46.46,0,0,1-.18-.15l.13-.1a4.42,4.42,0,0,0-.37-.39c-.29-.85-.52-2.68-.52-6.42h-1a36.1,36.1,0,0,0,.3,5.58c-2.33-1.19-5.77-1-8.65-.93-.83,0-1.62.07-2.32.07h-.56c-2.25,0-6.46-.09-9.24,2.65C1650.29,144.93,1649.41,147.46,1649.41,150.75Z"
          transform="translate(-1551.5 -11.7)"/>
    <path d="M1615.07,755.84l.08.38a45.17,45.17,0,0,1,20.55,0l.09-.38a45.2,45.2,0,0,0-20.72,0Z"
          transform="translate(-1551.5 -11.7)"/></g>
</svg>