<?xml version="1.0" encoding="utf-8"?>
<!-- Generator: Adobe Illustrator 18.0.0, SVG Export Plug-In . SVG Version: 6.00 Build 0)  -->
<!DOCTYPE svg PUBLIC "-//W3C//DTD SVG 1.1//EN" "http://www.w3.org/Graphics/SVG/1.1/DTD/svg11.dtd">
<svg version="1.1" xmlns="http://www.w3.org/2000/svg" xmlns:xlink="http://www.w3.org/1999/xlink" width="100" height = "180"
	 viewBox="30 10 100 180" enable-background="new 0 0 100 180" xml:space="preserve">
<g id="图层_16">
	<g>
		<g>
			
				<line fill="none" stroke="#000000" stroke-width="0.1225"  stroke-linecap="round" stroke-miterlimit="1" x1="76.5" y1="53.3" x2="77.2" y2="52"/>
			
				<line fill="none" stroke="#000000" stroke-width="0.1225"  stroke-linecap="round" stroke-miterlimit="1" x1="67.6" y1="54.6" x2="69" y2="53.8"/>
			
				<line fill="none" stroke="#000000" stroke-width="0.1225"  stroke-linecap="round" stroke-miterlimit="1" x1="65.8" y1="54.3" x2="64.9" y2="53"/>
			
				<line fill="none" stroke="#000000" stroke-width="0.1225"  stroke-linecap="round" stroke-miterlimit="1" x1="85.4" y1="53.4" x2="86.8" y2="52.7"/>
			
				<line fill="none" stroke="#000000" stroke-width="0.1225"  stroke-linecap="round" stroke-miterlimit="1" x1="77.6" y1="55.4" x2="76.5" y2="54.2"/>
			
				<line fill="none" stroke="#000000" stroke-width="0.1225"  stroke-linecap="round" stroke-miterlimit="1" x1="94.4" y1="54" x2="93.5" y2="52.7"/>
			
				<line fill="none" stroke="#000000" stroke-width="0.1225"  stroke-linecap="round" stroke-miterlimit="1" x1="63.1" y1="42.9" x2="63.7" y2="44.6"/>
			
				<line fill="none" stroke="#000000" stroke-width="0.1225"  stroke-linecap="round" stroke-miterlimit="1" x1="63.4" y1="34.3" x2="62.2" y2="35.1"/>
			
				<line fill="none" stroke="#000000" stroke-width="0.1225"  stroke-linecap="round" stroke-miterlimit="1" x1="79.7" y1="26.3" x2="81" y2="25.5"/>
			
				<line fill="none" stroke="#000000" stroke-width="0.1225"  stroke-linecap="round" stroke-miterlimit="1" x1="71.6" y1="26.3" x2="70.5" y2="25.1"/>
			
				<line fill="none" stroke="#000000" stroke-width="0.1225"  stroke-linecap="round" stroke-miterlimit="1" x1="68.1" y1="31.7" x2="67.5" y2="30.2"/>
			
				<line fill="none" stroke="#000000" stroke-width="0.1225"  stroke-linecap="round" stroke-miterlimit="1" x1="67.2" y1="42.8" x2="65.7" y2="41.7"/>
			
				<line fill="none" stroke="#000000" stroke-width="0.1225"  stroke-linecap="round" stroke-miterlimit="1" x1="65.3" y1="36" x2="66" y2="34.3"/>
			
				<line fill="none" stroke="#000000" stroke-width="0.1225"  stroke-linecap="round" stroke-miterlimit="1" x1="65.8" y1="27" x2="64.9" y2="25.8"/>
			
				<line fill="none" stroke="#000000" stroke-width="0.1225"  stroke-linecap="round" stroke-miterlimit="1" x1="92.3" y1="50.9" x2="93.3" y2="49.4"/>
			
				<line fill="none" stroke="#000000" stroke-width="0.1225"  stroke-linecap="round" stroke-miterlimit="1" x1="81.8" y1="51.6" x2="82.8" y2="50.5"/>
			
				<line fill="none" stroke="#000000" stroke-width="0.1225"  stroke-linecap="round" stroke-miterlimit="1" x1="71" y1="46.3" x2="69.9" y2="45.2"/>
			
				<line fill="none" stroke="#000000" stroke-width="0.1225"  stroke-linecap="round" stroke-miterlimit="1" x1="92.7" y1="40.2" x2="91.3" y2="41.5"/>
			
				<line fill="none" stroke="#000000" stroke-width="0.1225"  stroke-linecap="round" stroke-miterlimit="1" x1="89.1" y1="32.3" x2="91.1" y2="32.9"/>
			
				<line fill="none" stroke="#000000" stroke-width="0.1225"  stroke-linecap="round" stroke-miterlimit="1" x1="85.4" y1="26.2" x2="86.8" y2="25.4"/>
			
				<line fill="none" stroke="#000000" stroke-width="0.1225"  stroke-linecap="round" stroke-miterlimit="1" x1="77.3" y1="28.8" x2="76.2" y2="27.7"/>
			
				<line fill="none" stroke="#000000" stroke-width="0.1225"  stroke-linecap="round" stroke-miterlimit="1" x1="74.3" y1="30" x2="72" y2="29.4"/>
			
				<line fill="none" stroke="#000000" stroke-width="0.1225"  stroke-linecap="round" stroke-miterlimit="1" x1="73.7" y1="32.4" x2="72" y2="31.2"/>
			
				<line fill="none" stroke="#000000" stroke-width="0.1225"  stroke-linecap="round" stroke-miterlimit="1" x1="83.7" y1="31.5" x2="83" y2="30"/>
			
				<line fill="none" stroke="#000000" stroke-width="0.1225"  stroke-linecap="round" stroke-miterlimit="1" x1="89" y1="30.8" x2="88.1" y2="29.5"/>
			
				<line fill="none" stroke="#000000" stroke-width="0.1225"  stroke-linecap="round" stroke-miterlimit="1" x1="84.5" y1="34.2" x2="83.2" y2="33.3"/>
			
				<line fill="none" stroke="#000000" stroke-width="0.1225"  stroke-linecap="round" stroke-miterlimit="1" x1="87.1" y1="42.2" x2="88.2" y2="41.1"/>
			
				<line fill="none" stroke="#000000" stroke-width="0.1225"  stroke-linecap="round" stroke-miterlimit="1" x1="90.2" y1="48.6" x2="88.8" y2="47.6"/>
			
				<line fill="none" stroke="#000000" stroke-width="0.1225"  stroke-linecap="round" stroke-miterlimit="1" x1="84.8" y1="49.3" x2="83.4" y2="48.5"/>
			
				<line fill="none" stroke="#000000" stroke-width="0.1225"  stroke-linecap="round" stroke-miterlimit="1" x1="86.7" y1="35.1" x2="86.7" y2="36.9"/>
			
				<line fill="none" stroke="#000000" stroke-width="0.1225"  stroke-linecap="round" stroke-miterlimit="1" x1="77.6" y1="35.9" x2="78.6" y2="34.6"/>
			
				<line fill="none" stroke="#000000" stroke-width="0.1225"  stroke-linecap="round" stroke-miterlimit="1" x1="69.3" y1="39.7" x2="69.3" y2="38.1"/>
			
				<line fill="none" stroke="#000000" stroke-width="0.1225"  stroke-linecap="round" stroke-miterlimit="1" x1="76.4" y1="39.1" x2="75.1" y2="38.1"/>
			
				<line fill="none" stroke="#000000" stroke-width="0.1225"  stroke-linecap="round" stroke-miterlimit="1" x1="82.9" y1="38.8" x2="81.6" y2="38"/>
			
				<line fill="none" stroke="#000000" stroke-width="0.1225"  stroke-linecap="round" stroke-miterlimit="1" x1="83.6" y1="45.8" x2="83.6" y2="44.3"/>
			
				<line fill="none" stroke="#000000" stroke-width="0.1225"  stroke-linecap="round" stroke-miterlimit="1" x1="80.2" y1="42.7" x2="81" y2="43.8"/>
			
				<line fill="none" stroke="#000000" stroke-width="0.1225"  stroke-linecap="round" stroke-miterlimit="1" x1="72.9" y1="42.7" x2="72.2" y2="41.5"/>
			
				<line fill="none" stroke="#000000" stroke-width="0.1225"  stroke-linecap="round" stroke-miterlimit="1" x1="74.6" y1="46.5" x2="75.3" y2="45.4"/>
			
				<line fill="none" stroke="#000000" stroke-width="0.1225"  stroke-linecap="round" stroke-miterlimit="1" x1="78.7" y1="45.8" x2="77.4" y2="45.8"/>
			
				<line fill="none" stroke="#000000" stroke-width="0.1225"  stroke-linecap="round" stroke-miterlimit="1" x1="75.5" y1="23.1" x2="74.8" y2="21.5"/>
			
				<line fill="none" stroke="#000000" stroke-width="0.1225"  stroke-linecap="round" stroke-miterlimit="1" x1="97" y1="31.7" x2="96.3" y2="30.2"/>
			
				<line fill="none" stroke="#000000" stroke-width="0.1225"  stroke-linecap="round" stroke-miterlimit="1" x1="97" y1="40" x2="95.3" y2="40"/>
			
				<line fill="none" stroke="#000000" stroke-width="0.1225"  stroke-linecap="round" stroke-miterlimit="1" x1="94.9" y1="39.1" x2="93.5" y2="38.2"/>
			
				<line fill="none" stroke="#000000" stroke-width="0.1225"  stroke-linecap="round" stroke-miterlimit="1" x1="94.6" y1="27" x2="93.8" y2="25.8"/>
			
				<line fill="none" stroke="#000000" stroke-width="0.1225"  stroke-linecap="round" stroke-miterlimit="1" x1="61.5" y1="24.6" x2="62.4" y2="23.9"/>
			
				<line fill="none" stroke="#000000" stroke-width="0.1225"  stroke-linecap="round" stroke-miterlimit="1" x1="64" y1="12.6" x2="62.6" y2="14"/>
			
				<line fill="none" stroke="#000000" stroke-width="0.1225"  stroke-linecap="round" stroke-miterlimit="1" x1="63" y1="8.8" x2="64" y2="10.1"/>
			
				<line fill="none" stroke="#000000" stroke-width="0.1225"  stroke-linecap="round" stroke-miterlimit="1" x1="62.8" y1="17.8" x2="61.2" y2="17.8"/>
			
				<line fill="none" stroke="#000000" stroke-width="0.1225"  stroke-linecap="round" stroke-miterlimit="1" x1="67.2" y1="15.3" x2="65.7" y2="14.1"/>
			
				<line fill="none" stroke="#000000" stroke-width="0.1225"  stroke-linecap="round" stroke-miterlimit="1" x1="65.3" y1="8.5" x2="66" y2="6.7"/>
			
				<line fill="none" stroke="#000000" stroke-width="0.1225"  stroke-linecap="round" stroke-miterlimit="1" x1="92.3" y1="23.4" x2="93.3" y2="21.9"/>
			
				<line fill="none" stroke="#000000" stroke-width="0.1225"  stroke-linecap="round" stroke-miterlimit="1" x1="81.8" y1="24.1" x2="82.8" y2="23"/>
			
				<line fill="none" stroke="#000000" stroke-width="0.1225"  stroke-linecap="round" stroke-miterlimit="1" x1="71" y1="18.8" x2="69.9" y2="17.7"/>
			
				<line fill="none" stroke="#000000" stroke-width="0.1225"  stroke-linecap="round" stroke-miterlimit="1" x1="92.7" y1="12.6" x2="91.3" y2="14"/>
			
				<line fill="none" stroke="#000000" stroke-width="0.1225"  stroke-linecap="round" stroke-miterlimit="1" x1="74.8" y1="6.7" x2="73.7" y2="5.8"/>
			
				<line fill="none" stroke="#000000" stroke-width="0.1225"  stroke-linecap="round" stroke-miterlimit="1" x1="91.1" y1="11.6" x2="89.4" y2="11.6"/>
			
				<line fill="none" stroke="#000000" stroke-width="0.1225"  stroke-linecap="round" stroke-miterlimit="1" x1="91.5" y1="17.8" x2="89.9" y2="17.8"/>
			
				<line fill="none" stroke="#000000" stroke-width="0.1225"  stroke-linecap="round" stroke-miterlimit="1" x1="84.2" y1="19.7" x2="85.8" y2="19.7"/>
			
				<line fill="none" stroke="#000000" stroke-width="0.1225"  stroke-linecap="round" stroke-miterlimit="1" x1="87.3" y1="11.2" x2="85.2" y2="12.2"/>
			
				<line fill="none" stroke="#000000" stroke-width="0.1225"  stroke-linecap="round" stroke-miterlimit="1" x1="79.6" y1="6.3" x2="81" y2="6.3"/>
			
				<line fill="none" stroke="#000000" stroke-width="0.1225"  stroke-linecap="round" stroke-miterlimit="1" x1="69.3" y1="12.1" x2="69.3" y2="10.5"/>
			
				<line fill="none" stroke="#000000" stroke-width="0.1225"  stroke-linecap="round" stroke-miterlimit="1" x1="76.4" y1="11.5" x2="75.1" y2="10.5"/>
			
				<line fill="none" stroke="#000000" stroke-width="0.1225"  stroke-linecap="round" stroke-miterlimit="1" x1="81.8" y1="14" x2="82.8" y2="12.8"/>
			
				<line fill="none" stroke="#000000" stroke-width="0.1225"  stroke-linecap="round" stroke-miterlimit="1" x1="80.3" y1="21.3" x2="81.6" y2="20.6"/>
			
				<line fill="none" stroke="#000000" stroke-width="0.1225"  stroke-linecap="round" stroke-miterlimit="1" x1="78.5" y1="13.1" x2="79.4" y2="12"/>
			
				<line fill="none" stroke="#000000" stroke-width="0.1225"  stroke-linecap="round" stroke-miterlimit="1" x1="69.7" y1="15.9" x2="69.7" y2="14.4"/>
			
				<line fill="none" stroke="#000000" stroke-width="0.1225"  stroke-linecap="round" stroke-miterlimit="1" x1="72.6" y1="20.5" x2="73.9" y2="19.8"/>
			
				<line fill="none" stroke="#000000" stroke-width="0.1225"  stroke-linecap="round" stroke-miterlimit="1" x1="77.6" y1="20.9" x2="76.2" y2="20"/>
			
				<line fill="none" stroke="#000000" stroke-width="0.1225"  stroke-linecap="round" stroke-miterlimit="1" x1="96" y1="15.3" x2="94.6" y2="14.1"/>
			
				<line fill="none" stroke="#000000" stroke-width="0.1225"  stroke-linecap="round" stroke-miterlimit="1" x1="93.7" y1="9" x2="94.5" y2="7.3"/>
			
				<line fill="none" stroke="#000000" stroke-width="0.1225"  stroke-linecap="round" stroke-miterlimit="1" x1="98.1" y1="11.3" x2="98.9" y2="9.8"/>
			
				<line fill="none" stroke="#000000" stroke-width="0.1225"  stroke-linecap="round" stroke-miterlimit="1" x1="67.8" y1="175.8" x2="66.5" y2="176.6"/>
			
				<line fill="none" stroke="#000000" stroke-width="0.1225"  stroke-linecap="round" stroke-miterlimit="1" x1="83.4" y1="167.9" x2="84.7" y2="167.1"/>
			
				<line fill="none" stroke="#000000" stroke-width="0.1225"  stroke-linecap="round" stroke-miterlimit="1" x1="75.3" y1="167.9" x2="74.2" y2="166.7"/>
			
				<line fill="none" stroke="#000000" stroke-width="0.1225"  stroke-linecap="round" stroke-miterlimit="1" x1="71.8" y1="173.3" x2="71.2" y2="171.8"/>
			
				<line fill="none" stroke="#000000" stroke-width="0.1225"  stroke-linecap="round" stroke-miterlimit="1" x1="68.9" y1="186.4" x2="70.5" y2="185.1"/>
			
				<line fill="none" stroke="#000000" stroke-width="0.1225"  stroke-linecap="round" stroke-miterlimit="1" x1="68.5" y1="174.9" x2="68.5" y2="173.4"/>
			
				<line fill="none" stroke="#000000" stroke-width="0.1225"  stroke-linecap="round" stroke-miterlimit="1" x1="69.5" y1="168.6" x2="68.6" y2="167.4"/>
			
				<line fill="none" stroke="#000000" stroke-width="0.1225"  stroke-linecap="round" stroke-miterlimit="1" x1="74.6" y1="187.9" x2="73.6" y2="186.8"/>
			
				<line fill="none" stroke="#000000" stroke-width="0.1225"  stroke-linecap="round" stroke-miterlimit="1" x1="81" y1="170.4" x2="79.9" y2="169.3"/>
			
				<line fill="none" stroke="#000000" stroke-width="0.1225"  stroke-linecap="round" stroke-miterlimit="1" x1="78" y1="171.6" x2="75.7" y2="171"/>
			
				<line fill="none" stroke="#000000" stroke-width="0.1225"  stroke-linecap="round" stroke-miterlimit="1" x1="77.4" y1="174" x2="75.7" y2="172.8"/>
			
				<line fill="none" stroke="#000000" stroke-width="0.1225"  stroke-linecap="round" stroke-miterlimit="1" x1="87.4" y1="173.1" x2="86.7" y2="171.6"/>
			
				<line fill="none" stroke="#000000" stroke-width="0.1225"  stroke-linecap="round" stroke-miterlimit="1" x1="92.6" y1="172.4" x2="91.8" y2="171.1"/>
			
				<line fill="none" stroke="#000000" stroke-width="0.1225"  stroke-linecap="round" stroke-miterlimit="1" x1="83.8" y1="173.2" x2="84.7" y2="174.3"/>
			
				<line fill="none" stroke="#000000" stroke-width="0.1225"  stroke-linecap="round" stroke-miterlimit="1" x1="92.9" y1="176.7" x2="92" y2="178.2"/>
			
				<line fill="none" stroke="#000000" stroke-width="0.1225"  stroke-linecap="round" stroke-miterlimit="1" x1="91.2" y1="187" x2="89.8" y2="186.3"/>
			
				<line fill="none" stroke="#000000" stroke-width="0.1225"  stroke-linecap="round" stroke-miterlimit="1" x1="87.2" y1="178.5" x2="88.3" y2="177"/>
			
				<line fill="none" stroke="#000000" stroke-width="0.1225"  stroke-linecap="round" stroke-miterlimit="1" x1="77.4" y1="177" x2="78.3" y2="178.1"/>
			
				<line fill="none" stroke="#000000" stroke-width="0.1225"  stroke-linecap="round" stroke-miterlimit="1" x1="75.4" y1="181.1" x2="73.4" y2="181.7"/>
			
				<line fill="none" stroke="#000000" stroke-width="0.1225"  stroke-linecap="round" stroke-miterlimit="1" x1="82.9" y1="178.6" x2="81.8" y2="179.8"/>
			
				<line fill="none" stroke="#000000" stroke-width="0.1225"  stroke-linecap="round" stroke-miterlimit="1" x1="85.5" y1="183.1" x2="86.5" y2="181.9"/>
			
				<line fill="none" stroke="#000000" stroke-width="0.1225"  stroke-linecap="round" stroke-miterlimit="1" x1="84" y1="190.4" x2="85.3" y2="189.8"/>
			
				<line fill="none" stroke="#000000" stroke-width="0.1225"  stroke-linecap="round" stroke-miterlimit="1" x1="82.2" y1="182.3" x2="83.1" y2="181.1"/>
			
				<line fill="none" stroke="#000000" stroke-width="0.1225"  stroke-linecap="round" stroke-miterlimit="1" x1="73.4" y1="185" x2="73.4" y2="183.5"/>
			
				<line fill="none" stroke="#000000" stroke-width="0.1225"  stroke-linecap="round" stroke-miterlimit="1" x1="76.3" y1="189.7" x2="77.6" y2="188.9"/>
			
				<line fill="none" stroke="#000000" stroke-width="0.1225"  stroke-linecap="round" stroke-miterlimit="1" x1="81.3" y1="190" x2="79.9" y2="189.1"/>
			
				<line fill="none" stroke="#000000" stroke-width="0.1225"  stroke-linecap="round" stroke-miterlimit="1" x1="67.1" y1="165" x2="68.2" y2="163.5"/>
			
				<line fill="none" stroke="#000000" stroke-width="0.1225"  stroke-linecap="round" stroke-miterlimit="1" x1="66.6" y1="157" x2="67.3" y2="158.6"/>
			
				<line fill="none" stroke="#000000" stroke-width="0.1225"  stroke-linecap="round" stroke-miterlimit="1" x1="67" y1="148.4" x2="65.7" y2="149.2"/>
			
				<line fill="none" stroke="#000000" stroke-width="0.1225"  stroke-linecap="round" stroke-miterlimit="1" x1="64.5" y1="149.2" x2="63.6" y2="150.6"/>
			
				<line fill="none" stroke="#000000" stroke-width="0.1225"  stroke-linecap="round" stroke-miterlimit="1" x1="66.4" y1="159.4" x2="64.8" y2="159.4"/>
			
				<line fill="none" stroke="#000000" stroke-width="0.1225"  stroke-linecap="round" stroke-miterlimit="1" x1="70.9" y1="156.9" x2="69.4" y2="155.7"/>
			
				<line fill="none" stroke="#000000" stroke-width="0.1225"  stroke-linecap="round" stroke-miterlimit="1" x1="69" y1="150.1" x2="69.7" y2="148.3"/>
			
				<line fill="none" stroke="#000000" stroke-width="0.1225"  stroke-linecap="round" stroke-miterlimit="1" x1="72.6" y1="164.7" x2="71.3" y2="163.5"/>
			
				<line fill="none" stroke="#000000" stroke-width="0.1225"  stroke-linecap="round" stroke-miterlimit="1" x1="82.2" y1="165.1" x2="83.5" y2="164.1"/>
			
				<line fill="none" stroke="#000000" stroke-width="0.1225"  stroke-linecap="round" stroke-miterlimit="1" x1="95.2" y1="148.4" x2="93.9" y2="149.2"/>
			
				<line fill="none" stroke="#000000" stroke-width="0.1225"  stroke-linecap="round" stroke-miterlimit="1" x1="77.4" y1="146.5" x2="75.7" y2="145.3"/>
			
				<line fill="none" stroke="#000000" stroke-width="0.1225"  stroke-linecap="round" stroke-miterlimit="1" x1="94.5" y1="145.2" x2="93.7" y2="144"/>
			
				<line fill="none" stroke="#000000" stroke-width="0.1225"  stroke-linecap="round" stroke-miterlimit="1" x1="88.2" y1="148.2" x2="86.9" y2="147.4"/>
			
				<line fill="none" stroke="#000000" stroke-width="0.1225"  stroke-linecap="round" stroke-miterlimit="1" x1="90.8" y1="156.3" x2="91.9" y2="155.2"/>
			
				<line fill="none" stroke="#000000" stroke-width="0.1225"  stroke-linecap="round" stroke-miterlimit="1" x1="91" y1="163.8" x2="91.8" y2="162.5"/>
			
				<line fill="none" stroke="#000000" stroke-width="0.1225"  stroke-linecap="round" stroke-miterlimit="1" x1="91.2" y1="159.5" x2="89.8" y2="158.7"/>
			
				<line fill="none" stroke="#000000" stroke-width="0.1225"  stroke-linecap="round" stroke-miterlimit="1" x1="87.2" y1="151" x2="88.3" y2="149.5"/>
			
				<line fill="none" stroke="#000000" stroke-width="0.1225"  stroke-linecap="round" stroke-miterlimit="1" x1="77.4" y1="149.4" x2="78.3" y2="150.6"/>
			
				<line fill="none" stroke="#000000" stroke-width="0.1225"  stroke-linecap="round" stroke-miterlimit="1" x1="75.4" y1="153.5" x2="73.4" y2="154.1"/>
			
				<line fill="none" stroke="#000000" stroke-width="0.1225"  stroke-linecap="round" stroke-miterlimit="1" x1="82.9" y1="151" x2="81.8" y2="152.2"/>
			
				<line fill="none" stroke="#000000" stroke-width="0.1225"  stroke-linecap="round" stroke-miterlimit="1" x1="85.5" y1="155.6" x2="86.5" y2="154.3"/>
			
				<line fill="none" stroke="#000000" stroke-width="0.1225"  stroke-linecap="round" stroke-miterlimit="1" x1="84" y1="162.9" x2="85.3" y2="162.2"/>
			
				<line fill="none" stroke="#000000" stroke-width="0.1225"  stroke-linecap="round" stroke-miterlimit="1" x1="82.2" y1="154.7" x2="83.1" y2="153.6"/>
			
				<line fill="none" stroke="#000000" stroke-width="0.1225"  stroke-linecap="round" stroke-miterlimit="1" x1="73.4" y1="157.4" x2="73.4" y2="156"/>
			
				<line fill="none" stroke="#000000" stroke-width="0.1225"  stroke-linecap="round" stroke-miterlimit="1" x1="76.3" y1="162.1" x2="77.6" y2="161.4"/>
			
				<line fill="none" stroke="#000000" stroke-width="0.1225"  stroke-linecap="round" stroke-miterlimit="1" x1="81.3" y1="162.5" x2="79.9" y2="161.6"/>
			<path fill="#000000" stroke-width="0.5324" d="M100,11.6c0-0.1,0.1-0.4,0.2-0.5c1-0.6,2.3-1.4,2.3-2.8c0-4.5-14.7-5.7-22.4-5.7S57.7,3.8,57.7,8.3
				c0,1.3,1.2,2.2,2.4,2.8c0,0.1,0.1,0.4,0.1,0.6l2.2,39c-2.1,2.2-3.1,6.5-3.1,7.5c0,4.3,2.3,6.8,4,8.7c1.1,1.2,1.8,2.1,1.8,3v68.6
				l-3,2.7l5.4,46.3c0.2,2.7,9.2,3,13.2,3c3.9,0,13-0.3,13-3l3.8-46.1l-3.4-2.9V69.9c0-0.9,1.1-1.9,2.2-3c1.8-1.9,4.4-4.4,4.4-8.7
				c0-0.8-0.8-5.1-2.9-7.4l2.2-39.1V11.6z M80.1,3.6c6.7,0,12.7,0.7,16.6,1.7c-0.6,1.9-7.6,3.4-16.1,3.4c-8.9,0-16.1-1.6-16.1-3.6
				C68.4,4.1,73.9,3.6,80.1,3.6z M92.5,187.4c0,0.1,0,0.2-0.1,0.3c-1.1,1.1-5.6,1.8-11.8,1.8c-9.1,0-12.1-1.4-12.2-2.1l0-0.2
				c1.9-0.9,6.6-1.5,12.1-1.5c5.5,0,10.1,0.6,12.1,1.5L92.5,187.4z M92.6,186.8c-2.6-1.1-8.6-1.5-12.1-1.5c-3.6,0-9.5,0.3-12.1,1.5
				l-5.2-44.8c4.3,1.8,14.2,1.9,16.6,1.9c2.4,0,12.3-0.1,16.6-2L92.6,186.8z M99.7,58.1c0,3.7-2.2,6-3.9,7.8L95,66.7c-1,1-2,2-2,3.2
				v69.1l2.7,2.3c-2.8,1-8.9,1.8-16,1.8c-7.3,0-13.5-0.8-16.2-1.8l2.5-2.3V69.9c0-1.3-0.8-2.4-2-3.7c-1.6-1.7-3.7-4-3.7-8
				c0-0.7,0.8-4.3,2.5-6.3c2.7,3,15.7,3.1,17.4,3.1c1.6,0,14.5-0.1,17.3-3C99,54,99.7,57.6,99.7,58.1z M96.8,51.1
				c-1.2,1.5-8.2,2.7-16.7,2.7c-8.6,0-15.6-1.2-16.7-2.8l0-0.7c1.1-1.6,8.2-2.8,16.7-2.8c8.6,0,15.7,1.2,16.7,2.8L96.8,51.1
				L96.8,51.1z M99,11.7l-2.2,38.2c-2.1-1.9-10.7-2.7-16.8-2.7c-6,0-14.5,0.7-16.7,2.6l-2.2-38.2c0,0,0,0,0,0
				c4,1.6,10.9,2.7,18.9,2.7c8,0,15-1.1,18.9-2.7V11.7z M99,11.3c-3.9,1.6-11,2.7-19,2.7c-8,0-15-1.1-18.9-2.7
				c0-0.2-0.1-0.5-0.2-0.7l-0.1-0.3l-0.3-0.2c-1.2-0.7-1.8-1.3-1.8-1.9c0-1.1,1.8-2.2,4.8-3C64,8.7,74.4,9.7,80.6,9.7
				c6,0,16-0.9,17.1-4.1c2.4,0.8,3.8,1.7,3.8,2.7c0,0.8-1,1.4-1.8,1.9C99.2,10.5,99.1,11,99,11.3z"/>
		</g>
	</g>
</g>
</svg>
