<?xml version="1.0" encoding="utf-8"?>
<!-- Generator: Adobe Illustrator 18.0.0, SVG Export Plug-In . SVG Version: 6.00 Build 0)  -->
<!DOCTYPE svg PUBLIC "-//W3C//DTD SVG 1.1//EN" "http://www.w3.org/Graphics/SVG/1.1/DTD/svg11.dtd">
<svg version="1.1" xmlns="http://www.w3.org/2000/svg" xmlns:xlink="http://www.w3.org/1999/xlink" x="0px" y="0px"  width="100" height = "180"
	 viewBox="30 10 100 180" enable-background="new 0 0 160 192" xml:space="preserve">
<g id="图层_15">
	<g id="Spline_17_">
		<line shape-rendering="auto" fill="none" stroke="#000000" stroke-width="0.1225"  x1="77.2" y1="46" x2="77.8" y2="44.8"/>
		<line shape-rendering="auto" fill="none" stroke="#000000" stroke-width="0.1225"  x1="69.8" y1="47.1" x2="71" y2="46.4"/>
		<line shape-rendering="auto" fill="none" stroke="#000000" stroke-width="0.1225"  x1="68.3" y1="46.8" x2="67.5" y2="45.7"/>
		<line shape-rendering="auto" fill="none" stroke="#000000" stroke-width="0.1225"  x1="84.8" y1="46.1" x2="86" y2="45.4"/>
		<line shape-rendering="auto" fill="none" stroke="#000000" stroke-width="0.1225"  x1="78.2" y1="47.8" x2="77.3" y2="46.8"/>
		<line shape-rendering="auto" fill="none" stroke="#000000" stroke-width="0.1225"  x1="92.3" y1="46.5" x2="91.6" y2="45.5"/>
		<line shape-rendering="auto" fill="none" stroke="#000000" stroke-width="0.1225"  x1="66" y1="36.9" x2="66.5" y2="38.3"/>
		<line shape-rendering="auto" fill="none" stroke="#000000" stroke-width="0.1225"  x1="66.3" y1="29.4" x2="65.2" y2="30.1"/>
		<line shape-rendering="auto" fill="none" stroke="#000000" stroke-width="0.1225"  x1="80" y1="22.4" x2="81.1" y2="21.7"/>
		<line shape-rendering="auto" fill="none" stroke="#000000" stroke-width="0.1225"  x1="73.2" y1="22.4" x2="72.3" y2="21.3"/>
		<line shape-rendering="auto" fill="none" stroke="#000000" stroke-width="0.1225"  x1="70.2" y1="27.1" x2="69.7" y2="25.8"/>
		<line shape-rendering="auto" fill="none" stroke="#000000" stroke-width="0.1225"  x1="69.5" y1="36.8" x2="68.2" y2="35.8"/>
		<line shape-rendering="auto" fill="none" stroke="#000000" stroke-width="0.1225"  x1="67.8" y1="30.8" x2="68.4" y2="29.3"/>
		<line shape-rendering="auto" fill="none" stroke="#000000" stroke-width="0.1225"  x1="68.3" y1="23" x2="67.5" y2="21.9"/>
		<line shape-rendering="auto" fill="none" stroke="#000000" stroke-width="0.1225"  x1="90.6" y1="43.9" x2="91.5" y2="42.6"/>
		<line shape-rendering="auto" fill="none" stroke="#000000" stroke-width="0.1225"  x1="81.7" y1="44.5" x2="82.6" y2="43.5"/>
		<line shape-rendering="auto" fill="none" stroke="#000000" stroke-width="0.1225"  x1="72.6" y1="39.9" x2="71.7" y2="38.9"/>
		<line shape-rendering="auto" fill="none" stroke="#000000" stroke-width="0.1225"  x1="91" y1="34.5" x2="89.7" y2="35.7"/>
		<line shape-rendering="auto" fill="none" stroke="#000000" stroke-width="0.1225"  x1="87.9" y1="27.6" x2="89.5" y2="28.1"/>
		<line shape-rendering="auto" fill="none" stroke="#000000" stroke-width="0.1225"  x1="84.8" y1="22.3" x2="86" y2="21.6"/>
		<line shape-rendering="auto" fill="none" stroke="#000000" stroke-width="0.1225"  x1="78" y1="24.6" x2="77.1" y2="23.6"/>
		<line shape-rendering="auto" fill="none" stroke="#000000" stroke-width="0.1225"  x1="75.4" y1="25.6" x2="73.5" y2="25.1"/>
		<line shape-rendering="auto" fill="none" stroke="#000000" stroke-width="0.1225"  x1="74.9" y1="27.7" x2="73.5" y2="26.7"/>
		<line shape-rendering="auto" fill="none" stroke="#000000" stroke-width="0.1225"  x1="83.4" y1="26.9" x2="82.8" y2="25.6"/>
		<line shape-rendering="auto" fill="none" stroke="#000000" stroke-width="0.1225"  x1="87.8" y1="26.3" x2="87" y2="25.2"/>
		<line shape-rendering="auto" fill="none" stroke="#000000" stroke-width="0.1225"  x1="84" y1="29.3" x2="82.9" y2="28.5"/>
		<line shape-rendering="auto" fill="none" stroke="#000000" stroke-width="0.1225"  x1="86.2" y1="36.3" x2="87.1" y2="35.3"/>
		<line shape-rendering="auto" fill="none" stroke="#000000" stroke-width="0.1225"  x1="88.9" y1="41.8" x2="87.6" y2="40.9"/>
		<line shape-rendering="auto" fill="none" stroke="#000000" stroke-width="0.1225"  x1="84.3" y1="42.4" x2="83.1" y2="41.8"/>
		<line shape-rendering="auto" fill="none" stroke="#000000" stroke-width="0.1225"  x1="85.9" y1="30.1" x2="85.9" y2="31.6"/>
		<line shape-rendering="auto" fill="none" stroke="#000000" stroke-width="0.1225"  x1="78.2" y1="30.7" x2="79.1" y2="29.6"/>
		<line shape-rendering="auto" fill="none" stroke="#000000" stroke-width="0.1225"  x1="71.2" y1="34.1" x2="71.2" y2="32.7"/>
		<line shape-rendering="auto" fill="none" stroke="#000000" stroke-width="0.1225"  x1="77.2" y1="33.5" x2="76.1" y2="32.7"/>
		<line shape-rendering="auto" fill="none" stroke="#000000" stroke-width="0.1225"  x1="82.6" y1="33.3" x2="81.6" y2="32.6"/>
		<line shape-rendering="auto" fill="none" stroke="#000000" stroke-width="0.1225"  x1="83.3" y1="39.5" x2="83.3" y2="38.1"/>
		<line shape-rendering="auto" fill="none" stroke="#000000" stroke-width="0.1225"  x1="80.4" y1="36.7" x2="81.1" y2="37.7"/>
		<line shape-rendering="auto" fill="none" stroke="#000000" stroke-width="0.1225"  x1="74.2" y1="36.7" x2="73.7" y2="35.6"/>
		<line shape-rendering="auto" fill="none" stroke="#000000" stroke-width="0.1225"  x1="75.7" y1="40" x2="76.3" y2="39.1"/>
		<line shape-rendering="auto" fill="none" stroke="#000000" stroke-width="0.1225"  x1="79.1" y1="39.4" x2="78" y2="39.4"/>
		<line shape-rendering="auto" fill="none" stroke="#000000" stroke-width="0.1225"  x1="76.4" y1="19.6" x2="75.8" y2="18.2"/>
		<line shape-rendering="auto" fill="none" stroke="#000000" stroke-width="0.1225"  x1="94.5" y1="27.1" x2="94" y2="25.8"/>
		<line shape-rendering="auto" fill="none" stroke="#000000" stroke-width="0.1225"  x1="94.5" y1="34.3" x2="93.2" y2="34.3"/>
		<line shape-rendering="auto" fill="none" stroke="#000000" stroke-width="0.1225"  x1="92.8" y1="33.5" x2="91.6" y2="32.8"/>
		<line shape-rendering="auto" fill="none" stroke="#000000" stroke-width="0.1225"  x1="92.6" y1="23" x2="91.8" y2="21.9"/>
		<line shape-rendering="auto" fill="none" stroke="#000000" stroke-width="0.1225"  x1="64.6" y1="20.9" x2="65.4" y2="20.3"/>
		<line shape-rendering="auto" fill="none" stroke="#000000" stroke-width="0.1225"  x1="66.8" y1="10.4" x2="65.6" y2="11.6"/>
		<line shape-rendering="auto" fill="none" stroke="#000000" stroke-width="0.1225"  x1="65.9" y1="7.1" x2="66.7" y2="8.2"/>
		<line shape-rendering="auto" fill="none" stroke="#000000" stroke-width="0.1225"  x1="65.7" y1="15" x2="64.4" y2="15"/>
		<line shape-rendering="auto" fill="none" stroke="#000000" stroke-width="0.1225"  x1="69.5" y1="12.8" x2="68.2" y2="11.8"/>
		<line shape-rendering="auto" fill="none" stroke="#000000" stroke-width="0.1225"  x1="67.8" y1="6.8" x2="68.4" y2="5.3"/>
		<line shape-rendering="auto" fill="none" stroke="#000000" stroke-width="0.1225"  x1="90.6" y1="19.9" x2="91.5" y2="18.6"/>
		<line shape-rendering="auto" fill="none" stroke="#000000" stroke-width="0.1225"  x1="81.7" y1="20.4" x2="82.6" y2="19.5"/>
		<line shape-rendering="auto" fill="none" stroke="#000000" stroke-width="0.1225"  x1="72.6" y1="15.8" x2="71.7" y2="14.8"/>
		<line shape-rendering="auto" fill="none" stroke="#000000" stroke-width="0.1225"  x1="91" y1="10.4" x2="89.7" y2="11.6"/>
		<line shape-rendering="auto" fill="none" stroke="#000000" stroke-width="0.1225"  x1="75.8" y1="5.2" x2="74.9" y2="4.5"/>
		<line shape-rendering="auto" fill="none" stroke="#000000" stroke-width="0.1225"  x1="89.5" y1="9.6" x2="88.2" y2="9.6"/>
		<line shape-rendering="auto" fill="none" stroke="#000000" stroke-width="0.1225"  x1="89.9" y1="15" x2="88.6" y2="15"/>
		<line shape-rendering="auto" fill="none" stroke="#000000" stroke-width="0.1225"  x1="83.8" y1="16.6" x2="85.1" y2="16.6"/>
		<line shape-rendering="auto" fill="none" stroke="#000000" stroke-width="0.1225"  x1="86.3" y1="9.2" x2="84.6" y2="10.1"/>
		<line shape-rendering="auto" fill="none" stroke="#000000" stroke-width="0.1225"  x1="79.9" y1="4.9" x2="81.1" y2="4.9"/>
		<line shape-rendering="auto" fill="none" stroke="#000000" stroke-width="0.1225"  x1="71.2" y1="10" x2="71.2" y2="8.6"/>
		<line shape-rendering="auto" fill="none" stroke="#000000" stroke-width="0.1225"  x1="77.2" y1="9.5" x2="76.1" y2="8.6"/>
		<line shape-rendering="auto" fill="none" stroke="#000000" stroke-width="0.1225"  x1="81.8" y1="11.6" x2="82.6" y2="10.5"/>
		<line shape-rendering="auto" fill="none" stroke="#000000" stroke-width="0.1225"  x1="80.5" y1="18" x2="81.5" y2="17.4"/>
		<line shape-rendering="auto" fill="none" stroke="#000000" stroke-width="0.1225"  x1="79" y1="10.9" x2="79.7" y2="9.9"/>
		<line shape-rendering="auto" fill="none" stroke="#000000" stroke-width="0.1225"  x1="71.5" y1="13.3" x2="71.5" y2="11.9"/>
		<line shape-rendering="auto" fill="none" stroke="#000000" stroke-width="0.1225"  x1="74" y1="17.3" x2="75.1" y2="16.7"/>
		<line shape-rendering="auto" fill="none" stroke="#000000" stroke-width="0.1225"  x1="78.2" y1="17.6" x2="77.1" y2="16.8"/>
		<line shape-rendering="auto" fill="none" stroke="#000000" stroke-width="0.1225"  x1="93.8" y1="12.8" x2="92.5" y2="11.8"/>
		<line shape-rendering="auto" fill="none" stroke="#000000" stroke-width="0.1225"  x1="91.8" y1="7.3" x2="92.4" y2="5.7"/>
		<line shape-rendering="auto" fill="none" stroke="#000000" stroke-width="0.1225"  x1="95.5" y1="9.2" x2="96.2" y2="8"/>
	</g>
	<g>
		<line shape-rendering="auto" fill="none" stroke="#000000" stroke-width="0.1225"  x1="83.3" y1="148.6" x2="82.7" y2="149.7"/>
		<line shape-rendering="auto" fill="none" stroke="#000000" stroke-width="0.1225"  x1="90.6" y1="147.5" x2="89.4" y2="148.2"/>
		<line shape-rendering="auto" fill="none" stroke="#000000" stroke-width="0.1225"  x1="92.1" y1="147.8" x2="92.8" y2="148.9"/>
		<line shape-rendering="auto" fill="none" stroke="#000000" stroke-width="0.1225"  x1="75.9" y1="148.6" x2="74.7" y2="149.2"/>
		<line shape-rendering="auto" fill="none" stroke="#000000" stroke-width="0.1225"  x1="82.3" y1="146.9" x2="83.2" y2="147.8"/>
		<line shape-rendering="auto" fill="none" stroke="#000000" stroke-width="0.1225"  x1="68.4" y1="148.1" x2="69.2" y2="149.1"/>
		<line shape-rendering="auto" fill="none" stroke="#000000" stroke-width="0.1225"  x1="94.3" y1="157.5" x2="93.8" y2="156.1"/>
		<line shape-rendering="auto" fill="none" stroke="#000000" stroke-width="0.1225"  x1="94" y1="164.9" x2="95.1" y2="164.3"/>
		<line shape-rendering="auto" fill="none" stroke="#000000" stroke-width="0.1225"  x1="80.6" y1="171.8" x2="79.4" y2="172.5"/>
		<line shape-rendering="auto" fill="none" stroke="#000000" stroke-width="0.1225"  x1="87.2" y1="171.8" x2="88.1" y2="172.9"/>
		<line shape-rendering="auto" fill="none" stroke="#000000" stroke-width="0.1225"  x1="90.1" y1="167.2" x2="90.6" y2="168.4"/>
		<line shape-rendering="auto" fill="none" stroke="#000000" stroke-width="0.1225"  x1="90.9" y1="157.6" x2="92.1" y2="158.6"/>
		<line shape-rendering="auto" fill="none" stroke="#000000" stroke-width="0.1225"  x1="92.5" y1="163.5" x2="91.9" y2="165"/>
		<line shape-rendering="auto" fill="none" stroke="#000000" stroke-width="0.1225"  x1="92.1" y1="171.2" x2="92.8" y2="172.3"/>
		<line shape-rendering="auto" fill="none" stroke="#000000" stroke-width="0.1225"  x1="70.1" y1="150.7" x2="69.3" y2="152"/>
		<line shape-rendering="auto" fill="none" stroke="#000000" stroke-width="0.1225"  x1="78.8" y1="150.1" x2="78" y2="151"/>
		<line shape-rendering="auto" fill="none" stroke="#000000" stroke-width="0.1225"  x1="87.8" y1="154.6" x2="88.7" y2="155.6"/>
		<line shape-rendering="auto" fill="none" stroke="#000000" stroke-width="0.1225"  x1="69.8" y1="159.9" x2="71" y2="158.7"/>
		<line shape-rendering="auto" fill="none" stroke="#000000" stroke-width="0.1225"  x1="72.8" y1="166.7" x2="71.2" y2="166.2"/>
		<line shape-rendering="auto" fill="none" stroke="#000000" stroke-width="0.1225"  x1="75.9" y1="171.9" x2="74.7" y2="172.5"/>
		<line shape-rendering="auto" fill="none" stroke="#000000" stroke-width="0.1225"  x1="82.6" y1="169.6" x2="83.4" y2="170.6"/>
		<line shape-rendering="auto" fill="none" stroke="#000000" stroke-width="0.1225"  x1="85" y1="168.6" x2="87" y2="169.1"/>
		<line shape-rendering="auto" fill="none" stroke="#000000" stroke-width="0.1225"  x1="85.5" y1="166.6" x2="86.9" y2="167.6"/>
		<line shape-rendering="auto" fill="none" stroke="#000000" stroke-width="0.1225"  x1="77.2" y1="167.3" x2="77.8" y2="168.6"/>
		<line shape-rendering="auto" fill="none" stroke="#000000" stroke-width="0.1225"  x1="72.9" y1="168" x2="73.6" y2="169"/>
		<line shape-rendering="auto" fill="none" stroke="#000000" stroke-width="0.1225"  x1="76.6" y1="165" x2="77.7" y2="165.8"/>
		<line shape-rendering="auto" fill="none" stroke="#000000" stroke-width="0.1225"  x1="74.5" y1="158.2" x2="73.5" y2="159.1"/>
		<line shape-rendering="auto" fill="none" stroke="#000000" stroke-width="0.1225"  x1="71.8" y1="152.7" x2="73" y2="153.6"/>
		<line shape-rendering="auto" fill="none" stroke="#000000" stroke-width="0.1225"  x1="76.3" y1="152.1" x2="77.5" y2="152.8"/>
		<line shape-rendering="auto" fill="none" stroke="#000000" stroke-width="0.1225"  x1="74.8" y1="164.3" x2="74.8" y2="162.8"/>
		<line shape-rendering="auto" fill="none" stroke="#000000" stroke-width="0.1225"  x1="82.3" y1="163.6" x2="81.4" y2="164.7"/>
		<line shape-rendering="auto" fill="none" stroke="#000000" stroke-width="0.1225"  x1="89.2" y1="160.3" x2="89.2" y2="161.7"/>
		<line shape-rendering="auto" fill="none" stroke="#000000" stroke-width="0.1225"  x1="83.3" y1="160.9" x2="84.4" y2="161.7"/>
		<line shape-rendering="auto" fill="none" stroke="#000000" stroke-width="0.1225"  x1="77.9" y1="161.1" x2="79" y2="161.8"/>
		<line shape-rendering="auto" fill="none" stroke="#000000" stroke-width="0.1225"  x1="77.3" y1="155" x2="77.3" y2="156.4"/>
		<line shape-rendering="auto" fill="none" stroke="#000000" stroke-width="0.1225"  x1="80.2" y1="157.7" x2="79.5" y2="156.7"/>
		<line shape-rendering="auto" fill="none" stroke="#000000" stroke-width="0.1225"  x1="86.2" y1="157.8" x2="86.8" y2="158.8"/>
		<line shape-rendering="auto" fill="none" stroke="#000000" stroke-width="0.1225"  x1="84.8" y1="154.5" x2="84.2" y2="155.4"/>
		<line shape-rendering="auto" fill="none" stroke="#000000" stroke-width="0.1225"  x1="81.4" y1="155.1" x2="82.5" y2="155.1"/>
		<line shape-rendering="auto" fill="none" stroke="#000000" stroke-width="0.1225"  x1="84" y1="174.5" x2="84.6" y2="175.9"/>
		<line shape-rendering="auto" fill="none" stroke="#000000" stroke-width="0.1225"  x1="66.3" y1="167.2" x2="66.8" y2="168.4"/>
		<line shape-rendering="auto" fill="none" stroke="#000000" stroke-width="0.1225"  x1="66.3" y1="160.1" x2="67.6" y2="160.1"/>
		<line shape-rendering="auto" fill="none" stroke="#000000" stroke-width="0.1225"  x1="68" y1="160.9" x2="69.2" y2="161.6"/>
		<line shape-rendering="auto" fill="none" stroke="#000000" stroke-width="0.1225"  x1="68.2" y1="171.2" x2="68.9" y2="172.3"/>
		<line shape-rendering="auto" fill="none" stroke="#000000" stroke-width="0.1225"  x1="95.7" y1="173.2" x2="94.9" y2="173.9"/>
		<line shape-rendering="auto" fill="none" stroke="#000000" stroke-width="0.1225"  x1="93.5" y1="183.5" x2="94.7" y2="182.4"/>
		<line shape-rendering="auto" fill="none" stroke="#000000" stroke-width="0.1225"  x1="94.4" y1="186.8" x2="93.6" y2="185.7"/>
		<line shape-rendering="auto" fill="none" stroke="#000000" stroke-width="0.1225"  x1="94.5" y1="179.1" x2="95.8" y2="179.1"/>
		<line shape-rendering="auto" fill="none" stroke="#000000" stroke-width="0.1225"  x1="90.9" y1="181.3" x2="92.1" y2="182.2"/>
		<line shape-rendering="auto" fill="none" stroke="#000000" stroke-width="0.1225"  x1="92.5" y1="187.1" x2="91.9" y2="188.6"/>
		<line shape-rendering="auto" fill="none" stroke="#000000" stroke-width="0.1225"  x1="70.1" y1="174.3" x2="69.3" y2="175.6"/>
		<line shape-rendering="auto" fill="none" stroke="#000000" stroke-width="0.1225"  x1="78.8" y1="173.7" x2="78" y2="174.6"/>
		<line shape-rendering="auto" fill="none" stroke="#000000" stroke-width="0.1225"  x1="87.8" y1="178.2" x2="88.7" y2="179.2"/>
		<line shape-rendering="auto" fill="none" stroke="#000000" stroke-width="0.1225"  x1="69.8" y1="183.5" x2="71" y2="182.4"/>
		<line shape-rendering="auto" fill="none" stroke="#000000" stroke-width="0.1225"  x1="84.7" y1="188.6" x2="85.6" y2="189.4"/>
		<line shape-rendering="auto" fill="none" stroke="#000000" stroke-width="0.1225"  x1="71.2" y1="184.4" x2="72.5" y2="184.4"/>
		<line shape-rendering="auto" fill="none" stroke="#000000" stroke-width="0.1225"  x1="70.8" y1="179.1" x2="72.1" y2="179.1"/>
		<line shape-rendering="auto" fill="none" stroke="#000000" stroke-width="0.1225"  x1="76.8" y1="177.4" x2="75.5" y2="177.4"/>
		<line shape-rendering="auto" fill="none" stroke="#000000" stroke-width="0.1225"  x1="74.3" y1="184.7" x2="76" y2="183.9"/>
		<line shape-rendering="auto" fill="none" stroke="#000000" stroke-width="0.1225"  x1="80.6" y1="188.9" x2="79.5" y2="188.9"/>
		<line shape-rendering="auto" fill="none" stroke="#000000" stroke-width="0.1225"  x1="89.2" y1="184" x2="89.2" y2="185.3"/>
		<line shape-rendering="auto" fill="none" stroke="#000000" stroke-width="0.1225"  x1="83.3" y1="184.5" x2="84.4" y2="185.3"/>
		<line shape-rendering="auto" fill="none" stroke="#000000" stroke-width="0.1225"  x1="78.8" y1="182.4" x2="78" y2="183.4"/>
		<line shape-rendering="auto" fill="none" stroke="#000000" stroke-width="0.1225"  x1="80.1" y1="176.1" x2="79" y2="176.7"/>
		<line shape-rendering="auto" fill="none" stroke="#000000" stroke-width="0.1225"  x1="81.6" y1="183.1" x2="80.8" y2="184.1"/>
		<line shape-rendering="auto" fill="none" stroke="#000000" stroke-width="0.1225"  x1="88.9" y1="180.8" x2="88.9" y2="182.1"/>
		<line shape-rendering="auto" fill="none" stroke="#000000" stroke-width="0.1225"  x1="86.5" y1="176.8" x2="85.4" y2="177.4"/>
		<line shape-rendering="auto" fill="none" stroke="#000000" stroke-width="0.1225"  x1="82.3" y1="176.5" x2="83.4" y2="177.3"/>
		<line shape-rendering="auto" fill="none" stroke="#000000" stroke-width="0.1225"  x1="67" y1="181.3" x2="68.3" y2="182.2"/>
		<line shape-rendering="auto" fill="none" stroke="#000000" stroke-width="0.1225"  x1="69" y1="186.6" x2="68.3" y2="188.1"/>
		<line shape-rendering="auto" fill="none" stroke="#000000" stroke-width="0.1225"  x1="65.3" y1="184.7" x2="64.7" y2="185.9"/>
	</g>
	<path fill="#000000" stroke-width="0.5324" d="M98,52.9c-0.1-1.2-0.5-4-2.4-5.9l1.7-36.9c0,0-0.1-1,0.5-1.4c1-0.6,1.6-1.2,1.6-1.8c0-2.4-8.7-4.4-19.4-4.4
		s-19.4,2-19.4,4.4c0,0.6,0.6,1.2,1.7,1.8C63,8.9,62.9,10,62.9,10l2.1,36.8c-1.9,1.6-2.1,6.7-2.1,6.7v86.4c0,0,0.1,5.1,2.1,6.7
		l-2.1,36.8c0,0,0,1-0.5,1.3c-1.1,0.6-1.7,1.2-1.7,1.8c0,2.4,8.7,4.4,19.3,4.4s19.4-2,19.4-4.4c0-0.6-0.6-1.2-1.7-1.8
		c-0.6-0.4-0.6-1.4-0.6-1.4l-1.7-36.9c2.6-1.8,2.5-6.5,2.5-6.5S98,53.3,98,52.9z M80.1,3.4c7.1,0,12.1,0.8,15.1,1.7
		c-0.8,1-6.2,2.5-15.1,2.5c-9,0-14.3-1.5-15.1-2.5C68,4.2,73,3.4,80.1,3.4z M62.9,7.8c-1.1-0.6-1.2-0.9-1.2-0.9
		c0-0.4,0.8-0.9,2.3-1.4c0.9,1.8,7.7,3.2,16.1,3.2c8.3,0,15.2-1.4,16.1-3.2c1.5,0.5,2.3,1.1,2.3,1.4c0,0-0.2,0.3-1.2,1
		c-0.4,0.2-0.6,0.6-0.8,0.9c-3,1.3-8.8,2.3-16.4,2.3c-7.6,0-13.4-1-16.4-2.3C63.6,8.4,63.3,8,62.9,7.8z M63.9,9.9
		c0-0.1,0-0.5-0.1-0.9c3.2,1.3,9.3,2.3,16.3,2.3c7,0,13-0.9,16.3-2.2c-0.2,0.5-0.2,0.9-0.2,1.1L94.4,46c-2.1-1.3-7.7-2.2-14.2-2.2
		c-6.5,0-12,0.9-14.2,2.2L63.9,9.9z M94.3,47.2L94.3,47.2c-0.7,0.9-5.8,2.4-14.1,2.4c-8.4,0-13.5-1.5-14.1-2.4c0,0,0,0,0,0l-0.1,0
		l0,0l0-0.8c1.7-1.1,6.7-2.2,14.1-2.2c7.5,0,12.6,1.2,14.2,2.2L94.3,47.2L94.3,47.2C94.3,47.2,94.3,47.2,94.3,47.2z M80.1,190
		c-7,0-12.1-0.8-15.1-1.7c0.8-1,6.1-2.5,15.1-2.5c8.9,0,14.3,1.5,15.1,2.5C92.2,189.2,87.1,190,80.1,190z M97.3,185.6
		c1,0.7,1.2,0.9,1.2,1c0,0.4-0.8,0.9-2.3,1.4c-0.9-1.8-7.7-3.2-16.1-3.2c-8.4,0-15.2,1.4-16.1,3.2c-1.5-0.5-2.3-1.1-2.3-1.4
		c0,0,0.1-0.3,1.2-0.9c0.4-0.2,0.6-0.6,0.8-1c3-1.3,8.8-2.3,16.4-2.3c7.6,0,13.4,1,16.4,2.3C96.6,185,96.9,185.3,97.3,185.6z
		 M96.2,183.3c0,0.2,0,0.6,0.2,1.1c-3.2-1.3-9.3-2.2-16.3-2.2c-7,0-13.1,0.9-16.3,2.3c0.1-0.4,0.1-0.8,0.1-0.9l2.1-36
		c2.1,1.3,7.7,2.2,14.2,2.2c6.5,0,12.1-0.9,14.2-2.2L96.2,183.3z M66.1,146.2L66.1,146.2C66.1,146.2,66.1,146.2,66.1,146.2
		c0.7-0.9,5.7-2.4,14.1-2.4c8.3,0,13.4,1.4,14.1,2.3l0,0c0,0,0,0,0,0l0,0l0,0.8c-1.6,1.1-6.7,2.2-14.2,2.2c-7.4,0-12.5-1.1-14.1-2.2
		L66.1,146.2L66.1,146.2z M64,53.5c0-1.6,0.4-4.3,1.4-5.6c1.4,1.5,7.5,2.7,14.9,2.7c7.3,0,13.4-1.1,14.9-2.6c0.8,0.6,1.7,3.1,1.8,5
		c0,0.2,0,87.1,0,87.1c0,2-0.9,4.7-1.7,5.4c-1.5-1.5-7.7-2.6-14.9-2.6c-7.4,0-13.6,1.2-14.9,2.7c-0.9-1.2-1.4-3.7-1.4-5.3L64,53.5z"
		/>
</g>
</svg>
