<svg id="图层_28" data-name="图层 28" xmlns="http://www.w3.org/2000/svg" viewBox="0 0 81.39 52.33" width="82" height="53">
    <title>玻璃仪器30</title>
    <g stroke="#000000" fill="#000000" stroke-width="0.5324" transform="translate(-332.94 -216.43)" >
    <path d="M362.42,263.76h0a.1.1,0,0,1,0-.13l.56-1.1a.1.1,0,0,1,.18.09l-.56,1.1A.1.1,0,0,1,362.42,263.76Z"
           />
    <path d="M373.53,263.73h-1.39a.1.1,0,0,1,0-.2h1.39a.1.1,0,0,1,0,.2Z"  />
    <path d="M366.24,265.84h0l-1.6-.53a.1.1,0,0,1-.06-.13.1.1,0,0,1,.13-.06l1.6.53a.1.1,0,0,1,0,.19Z"
           />
    <path d="M360,265.57a.1.1,0,0,1-.08,0,.1.1,0,0,1,0-.14l1.13-.71a.1.1,0,0,1,.14,0,.1.1,0,0,1,0,.14l-1.13.71Z"
           />
    <path d="M369.32,266.52a.1.1,0,0,1-.06-.18l1.16-.83a.1.1,0,0,1,.12.16l-1.16.83Z"
           />
    <path d="M385.54,263.76h0a.1.1,0,0,1,0-.13l.56-1.1a.1.1,0,0,1,.13,0,.1.1,0,0,1,0,.13l-.56,1.1A.1.1,0,0,1,385.54,263.76Z"
           />
    <path d="M378.43,264.83a.1.1,0,0,1-.05-.19l1.16-.71a.1.1,0,0,1,.11.17l-1.16.71Z"
           />
    <path d="M375.94,267.05a.1.1,0,0,1-.07,0,.1.1,0,0,1,0-.14l1-1a.1.1,0,0,1,.14,0,.1.1,0,0,1,0,.14l-1,1A.1.1,0,0,1,375.94,267.05Z"
           />
    <path d="M383.14,265.57a.1.1,0,0,1-.08,0,.1.1,0,0,1,0-.14l1.13-.71a.1.1,0,0,1,.14,0,.1.1,0,0,1,0,.14l-1.13.71Z"
           />
    <path d="M380,268.09h0a.1.1,0,0,1,0-.14l.56-1.07a.1.1,0,0,1,.18.09l-.56,1.07A.1.1,0,0,1,380,268.09Z"
           />
    <path d="M384.77,261.3a.1.1,0,0,1-.09-.06l-.56-1.33a.1.1,0,0,1,.05-.13.1.1,0,0,1,.13.05l.56,1.33a.1.1,0,0,1-.05.13Z"
           />
    <path d="M365,241.31a.1.1,0,0,1-.06-.18l1.07-.71a.1.1,0,0,1,.11.17l-1.07.71Z"
           />
    <path d="M359,241.69a.1.1,0,0,1-.08,0l-.86-1a.1.1,0,0,1,.15-.13l.86,1a.1.1,0,0,1,0,.14Z"
           />
    <path d="M371.19,262.72l-.06,0-.95-.74a.1.1,0,1,1,.12-.16l.95.74a.1.1,0,0,1,0,.14A.1.1,0,0,1,371.19,262.72Z"
           />
    <path d="M374.28,259.58a.1.1,0,0,1-.08,0,.1.1,0,0,1,0-.14l.95-.65a.1.1,0,0,1,.11.17l-.95.65Z"
           />
    <path d="M375.43,250.68a.1.1,0,0,1-.08,0l-.8-1.07a.1.1,0,0,1,.16-.12l.8,1.07a.1.1,0,0,1,0,.14Z"
           />
    <path d="M375.31,243.26h0l-1.22-.5a.1.1,0,1,1,.08-.18l1.22.5a.1.1,0,0,1,0,.19Z"
           />
    <path d="M368.85,241.9l-.07,0-.92-.8a.1.1,0,1,1,.13-.15l.92.8a.1.1,0,0,1-.07.18Z"
           />
    <path d="M360,242.91a.1.1,0,0,1-.08,0,.1.1,0,0,1,0-.14l1.13-.71a.1.1,0,0,1,.14,0,.1.1,0,0,1,0,.14l-1.13.71Z"
           />
    <path d="M361.06,247.86l-.06,0-.89-.74a.1.1,0,1,1,.13-.15l.89.74a.1.1,0,0,1,0,.14A.1.1,0,0,1,361.06,247.86Z"
           />
    <path d="M369.32,243.86a.1.1,0,0,1-.06-.18l1.16-.83a.1.1,0,0,1,.12.16l-1.16.83Z"
           />
    <path d="M370.07,246.73a.1.1,0,0,1-.05-.18l1-.65a.1.1,0,0,1,.11.17l-1,.65Z"  />
    <path d="M371.93,249.82h-.05a.1.1,0,0,1,0-.14l.71-1.22a.1.1,0,0,1,.14,0,.1.1,0,0,1,0,.14l-.71,1.22A.1.1,0,0,1,371.93,249.82Z"
           />
    <path d="M372.67,256.08a.1.1,0,0,1-.06-.18l.92-.68a.1.1,0,1,1,.12.16l-.92.68Z"
           />
    <path d="M371.1,260.74l-.05,0a.1.1,0,0,1,0-.14l.68-1.07a.1.1,0,0,1,.14,0,.1.1,0,0,1,0,.14l-.68,1.07A.1.1,0,0,1,371.1,260.74Z"
           />
    <path d="M371.28,257.21h-.05l-1.1-.65a.1.1,0,1,1,.1-.17l1.1.65a.1.1,0,0,1-.05.19Z"
           />
    <path d="M368.05,250.12l-.06,0a.1.1,0,0,1,0-.14l.89-1.25a.1.1,0,1,1,.16.12l-.89,1.25A.1.1,0,0,1,368.05,250.12Z"
           />
    <path d="M361,249.76a.1.1,0,0,1-.08,0l-.77-.95a.1.1,0,1,1,.15-.13l.77.95a.1.1,0,0,1,0,.14Z"
           />
    <path d="M362.39,251.9l-.06,0-1.07-.83a.1.1,0,1,1,.12-.16l1.07.83a.1.1,0,0,1-.06.18Z"
           />
    <path d="M367.55,251.69l-.06,0-1-.68a.1.1,0,1,1,.11-.17l1,.68a.1.1,0,0,1-.06.18Z"
           />
    <path d="M368.17,257.53a.1.1,0,0,1-.1-.1v-1.28a.1.1,0,1,1,.2,0v1.28A.1.1,0,0,1,368.17,257.53Z"
           />
    <path d="M366.06,255.87a.1.1,0,0,1-.08,0l-.65-.95a.1.1,0,1,1,.16-.11l.65.95a.1.1,0,0,1,0,.14Z"
           />
    <path d="M359.54,254.89a.1.1,0,0,1-.09-.05l-.53-1a.1.1,0,1,1,.18-.09l.53,1a.1.1,0,0,1,0,.14Z"
           />
    <path d="M359.31,259.37a.1.1,0,0,1-.05-.19l1.07-.62a.1.1,0,0,1,.14,0,.1.1,0,0,1,0,.14l-1.07.62Z"
           />
    <path d="M363.37,259.67l-.06,0-1.13-.77a.1.1,0,0,1,.11-.17l1.13.77a.1.1,0,0,1,0,.14A.1.1,0,0,1,363.37,259.67Z"
           />
    <path d="M383,240.83a.1.1,0,0,1-.06-.18l1.16-.77a.1.1,0,0,1,.11.17l-1.16.77Z"
           />
    <path d="M378.87,245.78a.1.1,0,0,1-.09-.06l-.5-1.25a.1.1,0,0,1,.19-.08l.5,1.25a.1.1,0,0,1-.06.13Z"
           />
    <path d="M376.53,256.64a.1.1,0,0,1-.07-.18l1.25-1.07a.1.1,0,1,1,.13.15l-1.25,1.07Z"
           />
    <path d="M376.2,247.06a.1.1,0,0,1-.1-.1v-1.25a.1.1,0,1,1,.2,0V247A.1.1,0,0,1,376.2,247.06Z"
           />
    <path d="M377,241.87a.1.1,0,0,1-.08,0l-.71-1a.1.1,0,0,1,0-.14.1.1,0,0,1,.14,0l.71,1a.1.1,0,0,1,0,.14Z"
           />
    <path d="M387.2,261.83a.1.1,0,0,1-.06-.18l1-.8a.1.1,0,0,1,.12.16l-1,.8Z"  />
    <path d="M383.14,242.91a.1.1,0,0,1-.08,0,.1.1,0,0,1,0-.14l1.13-.71a.1.1,0,1,1,.11.17l-1.13.71Z"
           />
    <path d="M383.79,244.36h0l-1.84-.5a.1.1,0,0,1-.07-.12.1.1,0,0,1,.12-.07l1.84.5a.1.1,0,0,1,.07.12A.1.1,0,0,1,383.79,244.36Z"
           />
    <path d="M383.32,246.35l-.06,0-1.33-1a.1.1,0,0,1,0-.14.1.1,0,0,1,.14,0l1.33,1a.1.1,0,0,1,0,.14A.1.1,0,0,1,383.32,246.35Z"
           />
    <path d="M386.43,249.23l-.06,0a.1.1,0,0,1,0-.14l.86-1.07a.1.1,0,0,1,.16.13l-.86,1.07A.1.1,0,0,1,386.43,249.23Z"
           />
    <path d="M379.76,252.4a.1.1,0,0,1-.1-.1V251a.1.1,0,1,1,.2,0v1.33A.1.1,0,0,1,379.76,252.4Z"
           />
    <path d="M385.51,251.9l-.06,0-1.07-.83a.1.1,0,1,1,.12-.16l1.07.83a.1.1,0,0,1-.06.18Z"
           />
    <path d="M385.72,254h0l-1.36-.5a.1.1,0,0,1,.07-.19l1.36.5a.1.1,0,0,1,0,.19Z"
           />
    <path d="M383.35,256.11h-1.19a.1.1,0,0,1,0-.2h1.19a.1.1,0,0,1,0,.2Z"  />
    <path d="M385.75,256.11a.1.1,0,0,1-.07,0,.1.1,0,0,1,0-.14l.71-.77a.1.1,0,1,1,.15.14l-.71.77A.1.1,0,0,1,385.75,256.11Z"
           />
    <path d="M413.47,222.81l-1.14-.7a3.64,3.64,0,0,0-1.91-.54h-4.79a3.15,3.15,0,0,0-1.6.43l-.47.28a1.29,1.29,0,0,1-1.38-.11,5.83,5.83,0,0,0-2.33-.76c-1.86-.3-3.34.54-4.77,1.34s-2.52,1.41-3.93,1.19a5.65,5.65,0,0,1-3.66-2.15v-2.42c0-2.33-8.68-2.95-13.81-2.95s-13.81.62-13.81,2.95c0,0,0,.93,0,2.3a5.64,5.64,0,0,1-3.76,2.28c-1.41.22-2.63-.47-3.93-1.19s-2.92-1.63-4.77-1.34a5.84,5.84,0,0,0-2.33.76,1.29,1.29,0,0,1-1.38.11l-.47-.28a3.15,3.15,0,0,0-1.6-.43h-4.79a3.64,3.64,0,0,0-1.91.54l-1.14.7a1.8,1.8,0,0,0-.86,1.54v4.94a1.82,1.82,0,0,0,.71,1.44l1.17.9a3.64,3.64,0,0,0,2.21.75h4.5a3.5,3.5,0,0,0,1.82-.51l.22-.13a2,2,0,0,1,2.12.12,2.48,2.48,0,0,0,1.84.37,17,17,0,0,0,3-1.08c1.9-.8,4.5-1.9,5.54-1.56a13.94,13.94,0,0,1,3.9,2.59v1.39c.21.53.91,1,1.91,1.31-.33,1.33-1.85,2-3,2.4-.84.31-1.3.48-1.34,1,0,0,0,0,0,.06h0v0h0l1.22,28.07h.05c.28,2.23,12.36,2.35,14.81,2.35s14.76-.12,14.82-2.41h0l.94-27.67h0c0-.46-.41-.62-.95-.82-1.33-.5-3-1.19-3-3a3.69,3.69,0,0,0,2.07-1.31V232a13.46,13.46,0,0,1,3.74-2.45c1-.34,3.65.76,5.54,1.56a17,17,0,0,0,3,1.08,2.54,2.54,0,0,0,1.84-.37,2,2,0,0,1,2.12-.12l.22.13a3.5,3.5,0,0,0,1.82.51h4.5a3.64,3.64,0,0,0,2.21-.75l1.17-.9a1.82,1.82,0,0,0,.71-1.44v-4.94A1.82,1.82,0,0,0,413.47,222.81Zm-78.09,8-1.12-.86a.82.82,0,0,1-.32-.64v-4.94a.81.81,0,0,1,.39-.69l1.13-.69Zm6.44.54a2.48,2.48,0,0,1-.3,0H337a2.6,2.6,0,0,1-.65-.09l.08-8.66a2.63,2.63,0,0,1,.39-.05h4.79a2.13,2.13,0,0,1,.26,0Zm2.54-.84a2.76,2.76,0,0,0-1.32.39l-.22.13.08-8,.3.18a2.14,2.14,0,0,0,1.23.29Zm2.53.74a1.46,1.46,0,0,1-.66-.22,3.3,3.3,0,0,0-.87-.4l.08-7.51c.07,0,.15-.06.22-.11a3.93,3.93,0,0,1,1.31-.48Zm9.46-2.6c-1.39-.45-4,.63-6.24,1.59-.83.35-1.63.69-2.22.88l.08-8.73a7,7,0,0,1,3.73,1.26c1.39.78,2.82,1.58,4.57,1.31a6.67,6.67,0,0,0,3.62-1.77l0,7.68A12.75,12.75,0,0,0,356.35,228.63Zm17.33-11.21c8.05,0,12.6,1.26,12.81,1.95-.2.68-4.75,1.95-12.81,1.95-7.9,0-12.42-1.21-12.78-1.89v-.05h0C361.07,218.69,365.62,217.43,373.68,217.43Zm-13.93,48.8a.19.19,0,0,1,0,.1h0l0-.47c1.63-.94,7.22-1.63,13.88-1.63s12.14.68,13.84,1.6v.42c-.57.63-5.73,1.51-13.82,1.51S360.22,266.85,359.75,266.22Zm27.67.1v0l.5,0Zm0-.93c-3.16-1.55-13.34-1.57-13.85-1.57s-10.8,0-13.9,1.6l-1.14-26.17c2.46,1,9.3,1.82,15.48,1.82,1.3,0,11.07,0,14.29-1.43Zm.56-26.64c-1.44.6-6.52,1.32-14,1.32-7,0-13.43-1.05-15.17-1.75l.33-.12c1.27-.47,3.14-1.25,3.62-3.06a50.4,50.4,0,0,0,10.86,1,49.58,49.58,0,0,0,10.76-1C384.64,237.52,386.93,238.36,388,238.76Zm-1.52-5.54c-.18.68-4.73,2-12.81,2-7.9,0-12.42-1.22-12.78-1.9V220.61c2.44,1.32,8.72,1.71,12.78,1.71s10.39-.4,12.81-1.73Zm10.67-3c-2.27-1-4.84-2-6.24-1.59a12.34,12.34,0,0,0-3.43,2.1v-7.46a6.65,6.65,0,0,0,3.51,1.66c1.74.27,3.18-.53,4.57-1.31a7,7,0,0,1,3.71-1.26l.08,8.72C398.77,230.89,398,230.56,397.16,230.22Zm3.89.8a1.45,1.45,0,0,1-.69.22l-.08-8.72a4,4,0,0,1,1.34.48c.06,0,.13.06.19.1l.08,7.52A3.32,3.32,0,0,0,401,231Zm3.18-.14a2.76,2.76,0,0,0-1.34-.39l-.08-7.07a2.13,2.13,0,0,0,1.26-.28l.28-.16.08,8Zm6,.49h-4.5a2.48,2.48,0,0,1-.32,0l-.08-8.73a2.13,2.13,0,0,1,.29,0h4.79a2.62,2.62,0,0,1,.37.05l.08,8.67A2.6,2.6,0,0,1,410.25,231.38Zm3.08-2.09a.82.82,0,0,1-.32.64l-1.15.88-.07-7.86h0l1.14.7a.82.82,0,0,1,.39.69Z"
           />

    </g>
</svg>