<svg id="Clipware32" xmlns="http://www.w3.org/2000/svg" width="30.26921" height="225.85676"
     viewBox="0 0 26.26921 220.85676">
    <defs>
        <style>
            .cls-1 {
            fill: #e5e5e5;
            stroke-width="0.2324";
            }
        </style>
    </defs>
    <title>Clipware32</title><g stroke="#000000" fill="#000000" stroke-width="0.5324" transform="translate(0.0026 0.00004)">
    <path class="cls-1"
          d="M12.99779,155.76807a53.07315,53.07315,0,0,1-6.71436-.52148c-1.20459-.14941-2.24512-.27832-3.12646-.31445l-.47949-.02051V99.73487l.52051.02148c.92285.0376,1.9834.16895,3.21094.32129a52.20437,52.20437,0,0,0,6.58887.51367,57.31846,57.31846,0,0,0,9.40723-.75586l.58594-.10254v55.19136l-.41406.07227A58.29618,58.29618,0,0,1,12.99779,155.76807Zm-9.32031-1.80859c.80566.05566,1.70947.168,2.729.29395a52.12666,52.12666,0,0,0,6.59131.51465,58.079,58.079,0,0,0,8.99316-.68652V100.91846a59.5214,59.5214,0,0,1-8.99316.67285,52.94959,52.94959,0,0,1-6.71191-.52148c-.97656-.12109-1.84521-.22852-2.6084-.28418Z"
          />
    <path d="M0,71.97949c0,1.28259.89606,2.215,2.72534,2.824l-.02612,80.907.47949.01953c.88232.03516,1.9248.165,3.13135.31445.74469.09216,1.53918.18506,2.35889.27v12.97614c0,.21918.00525.64386,1.42358.88.21149,4.07892.53345,10.68774.53345,13.1366a1.9276,1.9276,0,0,0,1.42969,1.94714v35.60237l1.31006-2.38184.0127-.02246V185.2146a2.06537,2.06537,0,0,0,.74707-.45142,2.36731,2.36731,0,0,0,.67969-1.7627v-.02637a97.21657,97.21657,0,0,1,.42584-9.7356c.01967-.123.1452-1.95673.22791-3.05531,1.499-.23315,1.50739-.66937,1.50739-.89264V156.43647a52.87785,52.87785,0,0,0,5.63232-.642l.41406-.07227V74.97864a5.71728,5.71728,0,0,0,2.51563-1.27258,2.37074,2.37074,0,0,0,.73828-1.72656,3.97091,3.97091,0,0,0-1.46619-2.84668c-.33289-.56378-1.46954-.95544-2.91992-1.22791l-.05432-46.99426-.502.07941v-.012c-.63184,0-1.33594-1.36621-1.33594-3.32617V10a3.46782,3.46782,0,0,1,1.00684-2.82227l-.0188-.02643a4.95886,4.95886,0,0,0,1.79419-1.082,2.81632,2.81632,0,0,0,.83789-2.08057,2.95984,2.95984,0,0,0-1.12109-2.34045C21.95607.12655,15.24672,0,13.12642,0,11.16225,0,5.25618.10811,3.973,1.33333l-.00677-.01941a2.75344,2.75344,0,0,0-1.6875,2.68115c0,1.73639,1.34912,2.73981,3.30475,3.31836A3.7077,3.7077,0,0,1,6.43843,10v7.65186c0,.76117-.13837,3.19592-1.82312,3.31488l-.03625-.0058-.58887-.106v47.1239a4.27818,4.27818,0,0,0-2.52844,1.122A3.31032,3.31032,0,0,0,0,71.97949Zm23.80273-2.49658a6.57856,6.57856,0,0,1-1.91974.55884l-.00134-1.11768A6.59013,6.59013,0,0,1,23.80273,69.48291ZM20.916,98.51416c-.47852.34131-3.1377.94043-7.75342.94043-4.54346,0-7.62207-.64111-8.17236-1.021V75.3226a35.194,35.194,0,0,0,4.17407.3468c1.21082.11084,2.49164.19287,3.85522.19287,1.99225,0,4.02179-.09485,5.90741-.26923.66785-.04553,1.32745-.108,1.96252-.19452ZM19.29657,74.55228c-2.00079.16284-4.09973.16016-5.6037.15814l-1.04541-.001c-1.00439.00336-2.18085.00238-3.39453-.03595-1.00562-.092-1.96594-.20374-2.86475-.31122C5.893,74.303,5.432,74.249,4.99023,74.20088V71.16969a60.401,60.401,0,0,0,8.13135.50946,62.606,62.606,0,0,0,7.76306-.45514l.0036,3.14032C20.37372,74.43335,19.84473,74.497,19.29657,74.55228Zm-6.175-3.87311a54.37016,54.37016,0,0,1-8.13135-.52936V68.8162a54.36328,54.36328,0,0,1,8.13135-.5296,56.22921,56.22921,0,0,1,7.76019.47327l.00171,1.44611a56.23455,56.23455,0,0,1-7.76189.47323ZM13.12645,1c4.61084,0,7.33838.48535,8.1958.84033-.85742.355-3.585.84033-8.1958.84033S5.78758,2.19528,4.92967,1.8403C5.7876,1.48535,8.51563,1,13.12646,1ZM3.27879,3.99509A1.89217,1.89217,0,0,1,4.034,2.414c1.41882,1.165,7.163,1.26666,9.09241,1.26666,1.85559,0,7.22467-.09766,8.89624-1.141a2.03716,2.03716,0,0,1,.58569,1.46185,1.82022,1.82022,0,0,1-.5498,1.36523c-1.50488,1.52344-5.81836,1.69971-8.93213,1.69971a29.53813,29.53813,0,0,1-7.0498-.63916c-.024-.01831-.04034-.04645-.06494-.064l-.02881.04041c-1.59764-.44781-2.70409-1.18829-2.70409-2.4085ZM7.43846,17.65184V10a5.793,5.793,0,0,0-.442-2.356,35.68846,35.68846,0,0,0,6.12994.42242,31.79336,31.79336,0,0,0,6.34174-.49219A5.67671,5.67671,0,0,0,18.98822,10v7.65186a6.234,6.234,0,0,0,.92682,3.52826,60.407,60.407,0,0,1-6.7525.359,63.68948,63.68948,0,0,1-6.85089-.3313,5.03032,5.03032,0,0,0,1.12683-3.55592ZM4.99022,22.04295a57.00932,57.00932,0,0,0,8.17236.49609,58.76779,58.76779,0,0,0,7.66553-.46436l.05249,45.66644a62.61609,62.61609,0,0,0-7.759-.45453,60.401,60.401,0,0,0-8.13135.50946Zm-1,46.95343v.97321a5.47339,5.47339,0,0,1-1.55029-.48669,5.47923,5.47923,0,0,1,1.55031-.4865ZM1,71.97947a2.83472,2.83472,0,0,1,.66077-1.89374,5.47,5.47,0,0,0,2.32947.90118v3.11591l-.0705-.00562C1.9873,73.64069,1,72.93207,1,71.97949Zm14.96631,93.39685a17.22881,17.22881,0,0,1-6.29736,0v-.8056a19.21048,19.21048,0,0,0,6.29736.00006Zm-4.38306,4.93579c.366.01678.77069.02722,1.23462.02722.46368,0,.86829-.01038,1.23413-.02716v.76154H11.58324Zm1.23462-.97278a16.97885,16.97885,0,0,1-2.57745-.16846c-.06549-1.2417-.11346-2.11487-.12585-2.33917a20.27892,20.27892,0,0,0,2.75555.18732,21.05407,21.05407,0,0,0,2.64014-.16766c-.06311.83392-.12152,1.606-.17615,2.32916a17.31362,17.31362,0,0,1-2.5162.15884Zm.05225-2.51953a13.57019,13.57019,0,0,1-3.20117-.289v-.12415a19.21048,19.21048,0,0,0,6.29736.00006v.14832a14.19811,14.19811,0,0,1-3.09618.2648Zm-3.20117,2.23047v-2.31293c.07538.02063.15778.03937.24371.05713.004.07428.054.97888.12579,2.3421a3.47125,3.47125,0,0,1-.36949-.08629Zm1.15723,14.25684c0-1.89081-.19159-6.25421-.37634-10.02466a2.74065,2.74065,0,0,0,1.199.28448l.20142,11.40479a1.71209,1.71209,0,0,1-1.02406-1.66458Zm2.35205,1.75653v.00146a1.90233,1.90233,0,0,1-1.16809-.02478l.04163-.00079-.20233-11.45819c.36475.0235.72137.03046.9682.03046.20117,0,.47559-.00452.76733-.01849l-.202,11.41138a1.9611,1.9611,0,0,1-.19958.059Zm0,33.33789-.92232,1.67676V185.30793a2.16531,2.16531,0,0,0,.38818.03632,2.2162,2.2162,0,0,0,.53418-.07239ZM14.605,182.97409v.02637a2.17346,2.17346,0,0,1-.61768,1.61816,1.85793,1.85793,0,0,1-.40228.28351l.20038-11.32074a4.55463,4.55463,0,0,0,1.235-.20508c-.41492,5.65353-.41541,6.39926-.41541,9.59781Zm.4317-9.82013a5.89414,5.89414,0,0,1-2.21906.25861,6.07446,6.07446,0,0,1-2.3793-.36545c-.05133-1.04327-.09851-1.968-.144-2.84636.09076.01282.18774.02466.289.03595v1.837H15.052v-1.837c.06873-.00769.14038-.01483.20422-.02319-.08321,1.10509-.15627,2.08092-.21956,2.94048Zm.50024-4.00555c.05469-.7243.1131-1.49664.17627-2.33166.08948-.01648.173-.03467.25311-.054v2.28754a3.63047,3.63047,0,0,1-.4294.09816Zm.42938-5.608a17.22881,17.22881,0,0,1-6.29736,0V156.411c1.06012.09052,2.17358.15491,3.35059.15491.97272,0,1.96216-.02747,2.94678-.07471Zm6.04639-88.326v79.665a58.077,58.077,0,0,1-8.99316.68652,52.24573,52.24573,0,0,1-6.58643-.51367c-1.02148-.127-1.92676-.23926-2.73389-.29492l.00043-1.24414h1.668V153.314h-1.668l.00061-1.94336H5.3676v-.19922H3.7003L3.701,149.228H5.3676v-.19922H3.701l.00067-1.94336H5.3676v-.19919H3.70189l.00061-1.94336H7.50981v-.19922H3.70256l.00067-1.94336H5.36772v-.19922H3.70329l.00061-1.94336H5.36772v-.19922H3.704l.00061-1.94336H5.36772V138.316h-1.663l.00067-1.94336H5.36775v-.19922H3.70546L3.70607,134.23H7.50984v-.19922H3.70613l.00067-1.94336H5.36775v-.19922h-1.661l.00067-1.94336H5.36768v-.19922H3.70752l.00061-1.94336H5.36768v-.19922H3.70819l.00067-1.94336H5.36768v-.19922H3.70889l.00061-1.94336H7.50974v-.19922H3.70959l.00067-1.94336H5.36768v-.19928H3.71033l.00067-1.94336H5.36768v-.19922H3.71106l.00061-1.94336h1.656v-.19922H3.71173l.00067-1.94336H5.36768v-.19922H3.71246l.00061-1.94336H7.50977V112.605H3.7132l.00061-1.94287H5.36768v-.2002H3.7139l.00067-1.94238H5.36771v-.2002H3.71463l.00061-1.94238H5.36771v-.2002H3.7153l.00067-1.94238H5.36771v-.2002H3.716l.00067-1.94238H7.5098v-.2002H3.7168l.00885-26.80664.02386.00226c.0752.0174.16333.03052.24078.04718V98.55956c0,1.87354,9.08057,1.895,9.17236,1.895,1.46191,0,8.75342-.08789,8.75342-1.82568l-.027-23.39362.06781-.01282Zm2.80859-2.21631a5.92635,5.92635,0,0,1-2.93347,1.21265l-.00366-3.15051a6.91736,6.91736,0,0,0,2.57721-.87268,2.825,2.825,0,0,1,.80524,1.792,1.38639,1.38639,0,0,1-.4453,1.01849Z"
          />
    <path d="M8.3154,76.94022h0a.1.1,0,0,1,.09162.10773l-.12892,1.5948a.1.1,0,0,1-.10774.09162h0a.1.1,0,0,1-.09162-.10773l.12892-1.5948A.1.1,0,0,1,8.3154,76.94022Z"
          />
    <path d="M13.72666,79.90356h0a.1.1,0,0,1-.00814.14119l-1.19465,1.06434a.1.1,0,0,1-.14119-.00815h0a.1.1,0,0,1,.00814-.14119l1.19465-1.06434A.1.1,0,0,1,13.72666,79.90356Z"
          />
    <path d="M12.63355,75.5261h0a.1.1,0,0,1,.12311.06961l.428,1.54171a.1.1,0,0,1-.06962.1231h0a.1.1,0,0,1-.12311-.06961l-.428-1.54171A.1.1,0,0,1,12.63355,75.5261Z"
          />
    <path d="M15.88015,77.49111h0a.1.1,0,0,1,.045.13407l-.71256,1.43258a.1.1,0,0,1-.13408.045h0a.1.1,0,0,1-.045-.13407l.71256-1.43258A.1.1,0,0,1,15.88015,77.49111Z"
          />
    <path d="M17.92334,80.22421h0a.1.1,0,0,1-.075.11988l-1.55929.35866a.1.1,0,0,1-.11987-.075h0a.1.1,0,0,1,.075-.11988l1.55929-.35866A.1.1,0,0,1,17.92334,80.22421Z"
          />
    <path d="M8.21292,85.46845h0a.1.1,0,0,1-.02358.13944l-1.30424.92681a.1.1,0,0,1-.13944-.02359h0a.1.1,0,0,1,.02358-.13944l1.30424-.92681A.1.1,0,0,1,8.21292,85.46845Z"
          />
    <path d="M5.277,79.8945h0a.1.1,0,0,1,.045.13407l-.71256,1.43258a.1.1,0,0,1-.13408.045h0a.1.1,0,0,1-.045-.13407L5.143,79.93949A.1.1,0,0,1,5.277,79.8945Z"
          />
    <path d="M14.34407,72.4322h0a.1.1,0,0,1,.09162.10773l-.12891,1.5948a.1.1,0,0,1-.10774.09162h0a.1.1,0,0,1-.09162-.10773l.12891-1.5948A.1.1,0,0,1,14.34407,72.4322Z"
          />
    <path d="M17.74811,72.75368h0a.1.1,0,0,1,.13953.0231l.93135,1.301a.1.1,0,0,1-.02311.13952h0a.1.1,0,0,1-.13953-.0231l-.93135-1.301A.1.1,0,0,1,17.74811,72.75368Z"
          />
    <path d="M18.68839,71.45333h0a.1.1,0,0,1,.13929-.02451l1.31026.91828a.1.1,0,0,1,.02449.13929h0a.1.1,0,0,1-.13929.0245l-1.31026-.91828A.1.1,0,0,1,18.68839,71.45333Z"
          />
    <path d="M12.81383,69.3839v0a.1.1,0,0,1,.09531-.10449l1.59832-.0734a.1.1,0,0,1,.10448.09531v0a.1.1,0,0,1-.09531.10449l-1.59832.0734A.1.1,0,0,1,12.81383,69.3839Z"
          />
    <path d="M7.09991,73.67449h0a.1.1,0,0,1,.118-.07795l1.56758.32051a.1.1,0,0,1,.07794.118h0a.1.1,0,0,1-.118.07795L7.17785,73.7925A.1.1,0,0,1,7.09991,73.67449Z"
          />
    <path d="M5.2304,75.79087h0a.1.1,0,0,1,.1373.03389L6.195,77.19431a.1.1,0,0,1-.0339.1373h0a.1.1,0,0,1-.1373-.03389L5.1965,75.92818A.1.1,0,0,1,5.2304,75.79087Z"
          />
    <path d="M13.02645,89.78028h0a.1.1,0,0,1,.045.13408l-.71256,1.43256a.1.1,0,0,1-.13408.045h0a.1.1,0,0,1-.045-.13408l.71256-1.43256A.1.1,0,0,1,13.02645,89.78028Z"
          />
    <path d="M5.85338,88.859h0a.1.1,0,0,1-.01635.14048l-1.25458.993a.1.1,0,0,1-.14048-.01635h0a.1.1,0,0,1,.01635-.14048l1.25458-.993A.1.1,0,0,1,5.85338,88.859Z"
          />
    <path d="M5.528,86.64625h0a.1.1,0,0,1-.075.11988l-1.55929.35866a.1.1,0,0,1-.11987-.075h0a.1.1,0,0,1,.075-.11988l1.55929-.35866A.1.1,0,0,1,5.528,86.64625Z"
          />
    <path d="M10.473,87.04305h0a.1.1,0,0,1,.13953.0231l.93134,1.301a.1.1,0,0,1-.0231.13953h0a.1.1,0,0,1-.13953-.0231l-.93134-1.301A.1.1,0,0,1,10.473,87.04305Z"
          />
    <path d="M16.56136,84.65694h0a.1.1,0,0,1-.00814.14119l-1.19465,1.06435a.1.1,0,0,1-.14119-.00815h0a.1.1,0,0,1,.00814-.14119l1.19465-1.06435A.1.1,0,0,1,16.56136,84.65694Z"
          />
    <path d="M8.48555,81.38057h0a.1.1,0,0,1,.118-.07795l1.56758.32051a.1.1,0,0,1,.07794.118h0a.1.1,0,0,1-.118.07795l-1.56758-.32051A.1.1,0,0,1,8.48555,81.38057Z"
          />
    <path d="M19.42333,69.05754h0a.1.1,0,0,1-.075.11988l-1.55929.35866a.1.1,0,0,1-.11987-.075h0a.1.1,0,0,1,.075-.11988l1.55929-.35866A.1.1,0,0,1,19.42333,69.05754Z"
          />
    <path d="M9.18109,92.55988h0a.1.1,0,0,1-.00814.1412L7.97831,93.76541a.1.1,0,0,1-.1412-.00814h0a.1.1,0,0,1,.00814-.1412L9.0399,92.55174A.1.1,0,0,1,9.18109,92.55988Z"
          />
    <path d="M11.04746,75.20578h0a.1.1,0,0,1,.02768.13869l-.88807,1.33092a.1.1,0,0,1-.13869.02767h0a.1.1,0,0,1-.02768-.13869l.88807-1.33092A.1.1,0,0,1,11.04746,75.20578Z"
          />
    <path d="M13.74488,94.2h0a.1.1,0,0,1-.14073.01406L12.36591,93.2008a.1.1,0,0,1-.01406-.14073h0a.1.1,0,0,1,.14073-.01406l1.23825,1.01326A.1.1,0,0,1,13.74488,94.2Z"
          />
    <path d="M11.43671,96.131h0a.1.1,0,0,1-.12173-.072l-.39789-1.54973a.1.1,0,0,1,.072-.12173h0a.1.1,0,0,1,.12173.072l.39789,1.54973A.1.1,0,0,1,11.43671,96.131Z"
          />
    <path d="M7.13745,90.73359h0a.1.1,0,0,1,.045.13408l-.71255,1.43257a.1.1,0,0,1-.13408.045h0a.1.1,0,0,1-.045-.13408l.71255-1.43257A.1.1,0,0,1,7.13745,90.73359Z"
          />
    <path d="M16.47182,82.92153h0a.1.1,0,0,1-.12352.06887l-1.53909-.43728a.1.1,0,0,1-.06886-.12353h0a.1.1,0,0,1,.12352-.06887L16.403,82.798A.1.1,0,0,1,16.47182,82.92153Z"
          />
    <path d="M9.14495,89.17185h0a.1.1,0,0,1,.09162.10774l-.12892,1.59479a.1.1,0,0,1-.10774.09162h0a.1.1,0,0,1-.09162-.10774l.12892-1.59479A.1.1,0,0,1,9.14495,89.17185Z"
          />
    <path d="M4.67807,72.34574h0a.1.1,0,0,1,.02768.13869l-.88808,1.33091A.1.1,0,0,1,3.679,73.843h0a.1.1,0,0,1-.02768-.13869l.88808-1.33091A.1.1,0,0,1,4.67807,72.34574Z"
          />
    <path d="M3.07042,71.57213h0a.1.1,0,0,1-.06527.12546l-1.52585.48149a.1.1,0,0,1-.12546-.06528h0a.1.1,0,0,1,.06527-.12546L2.945,71.50686A.1.1,0,0,1,3.07042,71.57213Z"
          />
    <path d="M7.80293,71.52235h0a.1.1,0,0,1-.0616.1273l-1.51124.52551a.1.1,0,0,1-.1273-.06161h0a.1.1,0,0,1,.0616-.1273l1.51124-.52551A.1.1,0,0,1,7.80293,71.52235Z"
          />
    <path d="M11.6369,73.18735h0a.1.1,0,0,1-.1414.0025l-1.15119-1.11121a.1.1,0,0,1-.00249-.1414h0a.1.1,0,0,1,.1414-.0025l1.15119,1.11121A.1.1,0,0,1,11.6369,73.18735Z"
          />
    <path d="M16.49627,88.88037h0a.1.1,0,0,1-.13742.03342l-1.36662-.83207a.1.1,0,0,1-.03341-.13743h0a.1.1,0,0,1,.13743-.03341l1.36662.83207A.1.1,0,0,1,16.49627,88.88037Z"
          />
    <path d="M7.166,83.90732v0a.1.1,0,0,1-.0991.1009L5.467,84.02253a.1.1,0,0,1-.10089-.09911v0a.1.1,0,0,1,.0991-.1009l1.59994-.01433A.1.1,0,0,1,7.166,83.90732Z"
          />
    <path d="M12.14964,83.96268h0a.1.1,0,0,1,.0823.115l-.26168,1.57846a.1.1,0,0,1-.115.0823h0a.1.1,0,0,1-.0823-.115l.26168-1.57846A.1.1,0,0,1,12.14964,83.96268Z"
          />
    <path d="M10.86108,79.13367h0a.1.1,0,0,1-.04963.13243L9.355,79.92843a.1.1,0,0,1-.13243-.04964h0a.1.1,0,0,1,.04963-.13243l1.45648-.66234A.1.1,0,0,1,10.86108,79.13367Z"
          />
    <path d="M17.38647,91.846h0a.1.1,0,0,1-.075.11988l-1.55928.35863a.1.1,0,0,1-.11988-.075h0a.1.1,0,0,1,.075-.11988l1.55928-.35863A.1.1,0,0,1,17.38647,91.846Z"
          />
    <path d="M19.588,84.05872h0a.1.1,0,0,1,.03723.13644l-.79369,1.38927a.1.1,0,0,1-.13644.03722h0a.1.1,0,0,1-.03723-.13644l.79369-1.38927A.1.1,0,0,1,19.588,84.05872Z"
          />
    <path d="M19.97749,88.6563h0a.1.1,0,0,1-.00565.14132l-1.17565,1.08527a.1.1,0,0,1-.14132-.00565h0a.1.1,0,0,1,.00565-.14132l1.17565-1.08527A.1.1,0,0,1,19.97749,88.6563Z"
          />
    <path d="M18.56728,92.96761h0a.1.1,0,0,1,.00011.14143l-1.13047,1.13226a.1.1,0,0,1-.14143.00011h0A.1.1,0,0,1,17.29538,94.1l1.13047-1.13226A.1.1,0,0,1,18.56728,92.96761Z"
          />
    <path d="M19.50673,94.68917h0a.1.1,0,0,1,.12283.07011l.42177,1.5434a.1.1,0,0,1-.07011.12283h0a.1.1,0,0,1-.12283-.07011l-.42177-1.5434A.1.1,0,0,1,19.50673,94.68917Z"
          />
    <path d="M8.96258,96.88133h0a.1.1,0,0,1-.00814.1412L7.75979,98.08687a.1.1,0,0,1-.1412-.00814h0a.1.1,0,0,1,.00814-.1412l1.19463-1.06435A.1.1,0,0,1,8.96258,96.88133Z"
          />
    <path d="M12.58278,98.8169h0a.1.1,0,0,1-.06871-.12362l.43927-1.53851a.1.1,0,0,1,.12362-.06871h0a.1.1,0,0,1,.06871.12362L12.7064,98.7482A.1.1,0,0,1,12.58278,98.8169Z"
          />
    <path d="M6.50228,95.055h0a.1.1,0,0,1,.045.13408l-.71255,1.43257a.1.1,0,0,1-.13408.045h0a.1.1,0,0,1-.045-.13408L6.3682,95.1A.1.1,0,0,1,6.50228,95.055Z"
          />
    <path d="M17.09053,95.95621h0a.1.1,0,0,1-.043.13475l-1.42159.73421a.1.1,0,0,1-.13475-.043h0a.1.1,0,0,1,.043-.13475l1.42159-.73421A.1.1,0,0,1,17.09053,95.95621Z"
          />
    <path d="M18.34879,97.289h0a.1.1,0,0,1,.00011.14143l-1.13047,1.13226a.1.1,0,0,1-.14143.00011h0a.1.1,0,0,1-.00011-.14143l1.13047-1.13226A.1.1,0,0,1,18.34879,97.289Z"
          />
    <path d="M19.219,76.63368h0a.1.1,0,0,1,.00012.14142l-1.13049,1.13226a.1.1,0,0,1-.14142.00011h0a.1.1,0,0,1-.00012-.14142l1.13049-1.13226A.1.1,0,0,1,19.219,76.63368Z"
          />
    <path d="M20.40015,82.12685h0a.1.1,0,0,1-.12646.06331l-1.51811-.50532a.1.1,0,0,1-.0633-.12647h0a.1.1,0,0,1,.12646-.06331l1.51811.50532A.1.1,0,0,1,20.40015,82.12685Z"
          />
    <path d="M24.38846,72.68727h0a.1.1,0,0,1-.14114.009l-1.201-1.05718a.1.1,0,0,1-.009-.14114h0a.1.1,0,0,1,.14114-.009l1.201,1.05717A.1.1,0,0,1,24.38846,72.68727Z"
          />
    <path d="M20.30548,77.97539h0a.1.1,0,0,1,.12311.0696l.428,1.5417a.1.1,0,0,1-.06961.12311h0a.1.1,0,0,1-.12311-.0696l-.428-1.5417A.1.1,0,0,1,20.30548,77.97539Z"
          />
    <path d="M9.88173,68.86507h0a.1.1,0,0,1-.02094.13987l-1.28648.9513a.1.1,0,0,1-.13986-.021h0a.1.1,0,0,1,.02094-.13987l1.28648-.9513A.1.1,0,0,1,9.88173,68.86507Z"
          />
    <path d="M4.90129,69.60577h0a.1.1,0,0,1,.02738.13875l-.891,1.329a.1.1,0,0,1-.13875.02737h0a.1.1,0,0,1-.02738-.13875l.891-1.329A.1.1,0,0,1,4.90129,69.60577Z"
          /></g>
</svg>
