<svg id="图层_13" data-name="图层 13" xmlns="http://www.w3.org/2000/svg" viewBox="0 0 17.02734 217.56738" width="20" height="220">
    <title>玻璃仪器130</title><g stroke="#000000" fill="#000000" stroke-width="0.5324" transform="translate(-728.08301 -38.78187)">
    <path d="M745.11035,133.757c0-1.17212-3.475-1.53967-6.23492-1.64752l.3067-50.87823a4.73442,4.73442,0,0,0,.86572-.64221,5.40661,5.40661,0,0,0,1.5625-4.02783c0-8.36041,1.71967-31.71527,1.96484-34.99585.859-.25049,1.42773-.60016,1.42773-1.09253,0-1.47119-5.00586-1.69092-7.98926-1.69092-3.01855,0-8.083.21973-8.083,1.69092,0,.48834.611.83484,1.5152,1.08344.12378,2.25775,1.52972,28.11346,1.52972,35.67a4.45723,4.45723,0,0,0,2.87952,4.36639l.29272,50.49542c-2.82251.07513-6.868.40283-6.87024,1.668h-.00024L728.083,253.652l.29688.45752,4.93164,2.19629,6.8418.04346,4.17188-1.70752.30664-.459.47852-120.42383h-.00049Zm-1.07281,18.306-3.9848,1.67108h-1.30762l.11047-18.3288a19.68442,19.68442,0,0,0,5.2511-.7262Zm-14.76166-17.38513a21.73275,21.73275,0,0,0,5.8913.74854l.10614,18.30768h-1.65808L729.248,151.9084Zm7.41162.7691c.33643,0,.73462-.00336,1.16785-.012l-.11029,18.29907h-1.47131l-.10614-18.28943C736.35266,135.44624,736.527,135.44691,736.6875,135.44691Zm-.52576-1.00659-.00787-1.36664c.17993-.00177.3468-.00665.53363-.00665.41388,0,.80219.00647,1.18207.01471l-.00818,1.35052c-.3775.00818-.76294.01465-1.17389.01465C736.50348,134.44691,736.33905,134.442,736.16174,134.44032Zm1.13782,20.27759L736.29,156.548l-.01068-1.83582Zm-3.28491-.01855,1.26428.00714.02185,3.76581.9375.23877,2.1994-3.98676,1.21564.0069v100.618h-5.63867Zm9.80078-20.94434a20.63079,20.63079,0,0,1-4.9538.64386l.00775-1.28387A20.62746,20.62746,0,0,1,743.81543,133.755ZM735.8551,80.84456l-.00641-.36157-.00006-.01263h-.00012l-.42645-24.06055c.47034.03711.95184.05762,1.43146.05762.6723,0,1.24316-.02362,1.76544-.05774l-.429,24.20856a3.89694,3.89694,0,0,1-2.33484.22632Zm3.50134-.97821c-.04779.04572-.1051.07855-.155.12152l.41943-23.66895a9.19538,9.19538,0,0,0,1.95868-.42377c-.4892,7.62653-.96918,16.23486-.96918,20.666A4.43509,4.43509,0,0,1,739.35645,79.86634Zm-2.34277-40.08447a22.45048,22.45048,0,0,1,6.75684.69287,22.33312,22.33312,0,0,1-6.6709.6875,25.42226,25.42226,0,0,1-6.89941-.69629A23.36859,23.36859,0,0,1,737.01367,39.78187Zm0,2.37988v.00049c.11328.00049.23145.00049.33984.00049v-.00146a33.7704,33.7704,0,0,0,5.201-.3642c-.13513,1.82275-.51483,7.01587-.90338,12.98987-.67987.32117-1.9386.68048-4.79761.68048-2.78973,0-4.44049-.60144-4.73206-.88092-.299-6.08936-.58026-11.30219-.66241-12.80829A37.48569,37.48569,0,0,0,737.01367,42.16175Zm-4.88611,12.54883-.00018-.00323.00055.00323Zm.848,22.51563c0-4.05963-.40363-13.36517-.79785-21.48572a9.28844,9.28844,0,0,0,2.24207.55988l.42877,24.19409A3.46216,3.46216,0,0,1,732.97559,77.22621Zm2.8811,4.63513a5.00275,5.00275,0,0,0,.78.068,5.06024,5.06024,0,0,0,1.54272-.257l-.30383,50.40717c-.441-.00891-.84662-.01245-1.18811-.01245-.16583,0-.34747.00079-.53949.00256Zm-.70306,51.22882.00775,1.33374a22.25689,22.25689,0,0,1-5.58911-.66888A22.27179,22.27179,0,0,1,735.15363,133.09016Zm-5.90741,19.90125,3.76843,1.57544V255.07917l-3.93066-1.75043Zm11.4071,102.106V154.52894l3.37994-1.38647-.40045,100.70532Z"
          /></g>
</svg>