<?xml version="1.0" encoding="utf-8"?>
<!-- Generator: Adobe Illustrator 17.0.0, SVG Export Plug-In . SVG Version: 6.00 Build 0)  -->
<!DOCTYPE svg PUBLIC "-//W3C//DTD SVG 1.1//EN" "http://www.w3.org/Graphics/SVG/1.1/DTD/svg11.dtd">
<svg version="1.1" xmlns="http://www.w3.org/2000/svg" xmlns:xlink="http://www.w3.org/1999/xlink" 
     x="0px" y="0px" width="30px"
	 height="30px" viewBox="0 0 40 40" enable-background="new 0 0 40 40" xml:space="preserve">
<g id="图层_29_x5F_复制_4">
	<path d="M3.2,7h33c0.3,0,0.5-0.2,0.5-0.5S36.5,6,36.2,6h-33C2.9,6,2.7,6.2,2.7,6.5S2.9,7,3.2,7z"/>
	<path d="M15.2,13c-0.3,0-0.5,0.2-0.5,0.5s0.2,0.5,0.5,0.5h21c0.3,0,0.5-0.2,0.5-0.5S36.5,13,36.2,13H15.2z"/>
	<path d="M36.2,20h-33c-0.3,0-0.5,0.2-0.5,0.5S2.9,21,3.2,21h33c0.3,0,0.5-0.2,0.5-0.5S36.5,20,36.2,20z"/>
	<path d="M36.2,34h-33c-0.3,0-0.5,0.2-0.5,0.5S2.9,35,3.2,35h33c0.3,0,0.5-0.2,0.5-0.5S36.5,34,36.2,34z"/>
	<path d="M36.2,27h-21c-0.3,0-0.5,0.2-0.5,0.5s0.2,0.5,0.5,0.5h21c0.3,0,0.5-0.2,0.5-0.5S36.5,27,36.2,27z"/>
</g>
</svg>
