<?xml version="1.0" encoding="utf-8"?>
<!-- Generator: Adobe Illustrator 17.0.0, SVG Export Plug-In . SVG Version: 6.00 Build 0)  -->
<!DOCTYPE svg PUBLIC "-//W3C//DTD SVG 1.1//EN" "http://www.w3.org/Graphics/SVG/1.1/DTD/svg11.dtd">
<svg version="1.1" xmlns="http://www.w3.org/2000/svg" xmlns:xlink="http://www.w3.org/1999/xlink" x="0px"
     y="0px" width="30px"
	 height="30px" viewBox="0 0 40 40" enable-background="new 0 0 40 40" xml:space="preserve">
<g id="图层_1" display="none">
	<rect x="14.4" y="22.6" display="inline" fill="#333333" width="11.3" height="1"/>
	<polygon display="inline" fill="#333333" points="29.3,32.2 20.4,7.8 19.6,7.8 10.7,32.2 11.8,32.1 20,9.6 28.2,32.1 	"/>
</g>
<g id="图层_2" display="none">
	<text transform="matrix(1 0 0 1 8.0583 33.4719)" display="inline" opacity="0.5" font-family="'ArialMT'" font-size="36">A</text>
</g>
<g id="图层_3" display="none">
	<text transform="matrix(1 0 0 1 6.9168 32.25)" opacity="0.5" font-family="'ArialMT'" font-size="36">N</text>
	<g display="inline">
		<line fill="none" stroke="#000000" stroke-miterlimit="10" x1="11.3" y1="6.5" x2="11.3" y2="32.1"/>
		<line fill="none" stroke="#000000" stroke-miterlimit="10" x1="28.3" y1="6.5" x2="28.3" y2="32.1"/>
		<line display="none" fill="none" stroke="#000000" stroke-miterlimit="10" x1="11.3" y1="6.5" x2="28.3" y2="32.1"/>
	</g>
	<g>
		<polyline display="inline" fill="none" stroke="#000000" stroke-miterlimit="10" points="28.3,6.5 28.3,32.1 11.3,6.5 11.3,32.1 
					"/>
	</g>
	<polygon display="inline" points="28.8,32.2 28.8,6.5 27.8,6.5 27.8,30.5 11.8,6.5 10.8,6.5 10.8,32.1 11.8,32.1 11.8,8.2 
		27.7,32.2 	"/>
</g>
<g id="图层_4" display="none">
	<text transform="matrix(1 0 0 1 7 32)" opacity="0.5" font-family="'ArialMT'" font-size="36">C</text>
	<g id="图层_5">
		<path display="inline" opacity="0.5" fill="none" stroke="#CC6666" stroke-miterlimit="10" d="M30.8,19.1
			c0,6.5-3.6,11.7-10.3,11.7s-10.3-5.2-10.3-11.7S13.9,7.4,20.5,7.4S30.8,12.6,30.8,19.1z"/>
	</g>
	<g id="图层_5_x5F_复制">
		<path display="inline" opacity="0.5" fill="none" stroke="#000000" stroke-miterlimit="10" d="M30.2,23.4
			c-1.3,4.3-4.6,7.4-9.7,7.4c-6.7,0-10.3-5.2-10.3-11.7S13.9,7.4,20.5,7.4c4.6,0,7.7,2.5,9.3,6.1"/>
	</g>
</g>
<g id="图层_7" display="none">
	<text transform="matrix(1 0 0 1 8.4167 33.3335)" display="inline" opacity="0.5" font-family="'ArialMT'" font-size="36">H</text>
	<g display="inline">
		<line fill="#FFFFFF" stroke="#000000" stroke-miterlimit="10" x1="12.9" y1="7.4" x2="12.9" y2="33.4"/>
		<line fill="#FFFFFF" stroke="#000000" stroke-miterlimit="10" x1="29.8" y1="7.4" x2="29.8" y2="33.4"/>
		<line fill="#FFFFFF" stroke="#000000" stroke-miterlimit="10" x1="13" y1="19.6" x2="29.8" y2="19.6"/>
	</g>
	<polygon points="27.9,7 27.9,18.7 12.1,18.7 12.1,7 11.1,7 11.1,33 12.1,33 12.1,19.7 27.9,19.7 27.9,33 28.9,33 28.9,7 	"/>
	<rect display="inline" opacity="0.5" width="40" height="40"/>
</g>
<g id="H_new" display="none">
	<text transform="matrix(1 0 0 1 8.4167 33.3335)" opacity="0.5" font-family="'ArialMT'" font-size="36">H</text>
	<rect opacity="0.5" width="40" height="40"/>
	<g display="inline">
		<path fill="none" stroke="#000000" stroke-miterlimit="10" d="M29.7,8.2v24.3V8.2z"/>
		<path fill="none" stroke="#000000" stroke-miterlimit="10" d="M12.9,8.2v24.3V8.2z"/>
		<line fill="#FFFFFF" stroke="#000000" stroke-miterlimit="10" x1="13" y1="19.6" x2="29.8" y2="19.6"/>
	</g>
	<polygon points="27.9,7.8 27.9,18.8 12.1,18.8 12.1,7.8 11.1,7.8 11.1,32.2 12.1,32.2 12.1,19.8 27.9,19.8 27.9,32.2 28.9,32.2 
		28.9,7.8 	"/>
</g>
<g id="图层_8" display="none">
	<text transform="matrix(1 0 0 1 5.75 33.2502)" opacity="0.5" font-family="'ArialMT'" font-size="36">O</text>
	<path fill="none" stroke="#000000" stroke-miterlimit="10" d="M30.3,20c0,6.5-3.6,11.7-10.3,11.7S9.7,26.5,9.7,20S13.4,8.3,20,8.3
		S30.3,13.5,30.3,20z"/>
	<path display="inline" d="M20,7.8C13.5,7.8,9.2,12.7,9.2,20c0,7.3,4.3,12.2,10.8,12.2c6.5,0,10.8-4.9,10.8-12.2
		C30.8,12.7,26.5,7.8,20,7.8z M20,31.2c-6,0-9.8-4.4-9.8-11.2c0-5.6,3-11.2,9.8-11.2s9.8,5.6,9.8,11.2C29.8,26.8,26,31.2,20,31.2z"
		/>
</g>
<g id="图层_9" display="none">
	<text transform="matrix(1 0 0 1 7.625 32.5625)" opacity="0.5" font-family="'ArialMT'" font-size="36">S</text>
	<g id="图层_10" display="inline">
	</g>
	<path opacity="0.8" fill="none" stroke="#000000" stroke-miterlimit="10" d="M11,24.2c0,5,4.6,7.2,8.6,7.2s8.6-1.1,8.6-6.3
		c0-4.8-8.5-6.1-8.5-6.1s-7.9-0.9-7.8-5.6c0-3.8,3.7-5.7,7.8-5.7c4.1,0,7.9,2.4,7.9,6.4"/>
	<path opacity="0.8" fill="none" stroke="#000000" stroke-miterlimit="10" d="M11,24.2c0,5,4.6,7.2,8.6,7.2s8.6-1.1,8.6-6.3
		c0-7.6-16.3-4.2-16.3-11.6c0-3.8,3.7-5.7,7.8-5.7c4.1,0,7.9,2.4,7.9,6.4"/>
	<path display="inline" d="M20.5,19.1c-4-1-7.7-2-7.7-5.3c0-3.6,3.7-5.2,7.3-5.2c2.3,0,4.4,0.8,5.8,2.1c1,1,1.6,2.3,1.6,3.8h1
		c0-1.7-0.6-3.3-1.9-4.5c-1.6-1.5-3.9-2.4-6.5-2.4c-4.1,0-8.3,1.9-8.3,6.2c0,4.1,4.3,5.2,8.4,6.2c4,1,7.8,2,7.8,5.4
		c0,3.9-2.7,5.8-8.1,5.8c-4,0-8.1-2.3-8.1-6.7h-1c0,5.1,4.6,7.7,9.1,7.7c5.9,0,9.1-2.4,9.1-6.8C29.1,21.3,24.7,20.2,20.5,19.1z"/>
</g>
<g id="图层_11" display="none">
	<text transform="matrix(1 0 0 1 1.5625 32.0625)" display="inline" opacity="0.5" font-family="'ArialMT'" font-size="36">CI</text>
	<g id="图层_12" display="inline">
	</g>
	<g id="图层_5_x5F_复制_2" display="inline">
	</g>
	<g>
		<path fill="none" stroke="#000000" stroke-miterlimit="10" d="M25,23.4c-1.3,4.3-4.6,7.4-9.7,7.4C8.6,30.8,5,25.6,5,19.1
			S8.7,7.4,15.3,7.4c4.6,0,7.7,2.5,9.3,6.1"/>
		<line display="inline" fill="none" stroke="#000000" stroke-miterlimit="10" x1="32.6" y1="7.4" x2="32.6" y2="30.8"/>
	</g>
</g>
<g id="图层_17" display="none">
	<rect display="inline" fill="#3E9B4D" width="40" height="40"/>
</g>
<g id="图层_15" display="none">
	<text transform="matrix(1 0 0 1 1.875 32.8125)" opacity="0.5" font-family="'ArialMT'" font-size="36">Br</text>
	<g>
		<path display="inline" fill="none" stroke="#000000" stroke-miterlimit="10" d="M4.5,19.1v13.6h12.4l0,0c0,0,0,0,0,0
			c3.9,0,7-2.4,7-7c0-3.6-1.9-5.8-4.6-6.6"/>
		<path display="inline" fill="none" stroke="#000000" stroke-miterlimit="10" d="M19.3,19.1c0,0-14.8,0-14.8,0V7.3h12v0
			c0,0,0,0,0,0c3.5,0,6.3,2.8,6.3,6.3C22.8,15.9,21.3,18,19.3,19.1"/>
		<path display="inline" fill="none" stroke="#000000" stroke-miterlimit="10" d="M29.6,23.1c1.5-5.6,3-10.9,8.2-8.1"/>
		<path display="inline" fill="none" stroke="#000000" stroke-miterlimit="10" d="M29.6,14.2v18.5V14.2z"/>
	</g>
	<g>
		<path display="inline" fill="none" stroke="#000000" stroke-miterlimit="10" d="M6.4,19.2v12.1h11l0,0c0,0,0,0,0,0
			c3.4,0,6.2-2.2,6.2-6.2c0-3.2-1.7-5.2-4.1-5.9"/>
		<path display="inline" fill="none" stroke="#000000" stroke-miterlimit="10" d="M19.5,19.2c0,0-13.1,0-13.1,0V8.7H17v0
			c0,0,0,0,0,0c3.1,0,5.6,2.5,5.6,5.6C22.6,16.4,21.3,18.2,19.5,19.2"/>
		<path display="inline" fill="none" stroke="#000000" stroke-miterlimit="10" d="M28.6,22.7c1.4-5,2.7-9.7,7.3-7.2"/>
		<path display="inline" fill="none" stroke="#000000" stroke-miterlimit="10" d="M28.6,14.8v16.4V14.8z"/>
	</g>
	<g display="inline">
		<path d="M19.6,19.1c1.5-1.1,2.5-2.9,2.5-4.8c0-3.3-2.7-6-6-6.1l-11.2,0v11v0.5v12.1h11.5c4,0,6.7-2.7,6.7-6.7
			C23.1,22.3,21.8,20.2,19.6,19.1z M5.9,9.2H16c2.8,0,5.1,2.3,5.1,5.1c0,1.8-1,3.5-2.7,4.4l-12.5,0V9.2z M16.4,30.8H5.9V19.7l12.6,0
			c2.3,0.7,3.7,2.7,3.7,5.4C22.1,28.6,19.8,30.8,16.4,30.8z"/>
		<path d="M31.3,14.6c-1.5,0.7-2.5,2.5-3.2,4.6v-4.4h-1v16.4h1v-8.5c0.9-3.2,1.8-6.5,3.6-7.3c0.8-0.3,1.8-0.2,2.9,0.5l0.5-0.9
			C33.7,14.3,32.4,14.2,31.3,14.6z"/>
	</g>
</g>
<g id="图层_15_x5F_复制" display="none">
	<text transform="matrix(1 0 0 1 1.875 32.8125)" opacity="0.5" font-family="'ArialMT'" font-size="36">Br</text>
	<g>
		<path display="inline" fill="none" stroke="#000000" stroke-miterlimit="10" d="M4.5,19.1v13.6h12.4l0,0c0,0,0,0,0,0
			c3.9,0,7-2.4,7-7c0-3.6-1.9-5.8-4.6-6.6"/>
		<path display="inline" fill="none" stroke="#000000" stroke-miterlimit="10" d="M19.3,19.1c0,0-14.8,0-14.8,0V7.3h12v0
			c0,0,0,0,0,0c3.5,0,6.3,2.8,6.3,6.3C22.8,15.9,21.3,18,19.3,19.1"/>
		<path display="inline" fill="none" stroke="#000000" stroke-miterlimit="10" d="M29.6,23.1c1.5-5.6,3-10.9,8.2-8.1"/>
		<path display="inline" fill="none" stroke="#000000" stroke-miterlimit="10" d="M29.6,14.2v18.5V14.2z"/>
	</g>
	<g>
		<path display="inline" fill="none" stroke="#000000" stroke-miterlimit="10" d="M6.4,19.2v12.1h11l0,0c0,0,0,0,0,0
			c3.4,0,6.2-2.2,6.2-6.2c0-3.2-1.7-5.2-4.1-5.9"/>
		<path display="inline" fill="none" stroke="#000000" stroke-miterlimit="10" d="M19.5,19.2c0,0-13.1,0-13.1,0V8.7H17v0
			c0,0,0,0,0,0c3.1,0,5.6,2.5,5.6,5.6C22.6,16.4,21.3,18.2,19.5,19.2"/>
		<path display="inline" fill="none" stroke="#000000" stroke-miterlimit="10" d="M28.6,22.7c1.4-5,2.7-9.7,7.3-7.2"/>
		<path display="inline" fill="none" stroke="#000000" stroke-miterlimit="10" d="M28.6,14.8v16.4V14.8z"/>
	</g>
	<path display="inline" d="M25.6,19.1c1.5-1.1,2.5-2.9,2.5-4.8c0-3.3-2.7-6-6-6.1l-11.2,0v11v0.5v12.1h11.5c4,0,6.7-2.7,6.7-6.7
		C29.1,22.3,27.8,20.2,25.6,19.1z M11.9,9.2h10.2c2.8,0,5.1,2.3,5.1,5.1c0,1.8-1,3.5-2.7,4.4l-12.5,0V9.2z M22.4,30.8H11.9V19.7
		l12.6,0c2.3,0.7,3.7,2.7,3.7,5.4C28.1,28.6,25.9,30.8,22.4,30.8z"/>
</g>
<g id="图层_18" display="none">
	<text transform="matrix(1 0 0 1 11.7507 32.8386)" fill="#24B53C" font-family="'SimSun'" font-size="36">I</text>
	<polygon display="inline" points="25.6,9.2 25.6,8.2 14.4,8.2 14.4,9.2 19.5,9.2 19.5,30.8 14.4,30.8 14.4,31.8 25.6,31.8 
		25.6,30.8 20.5,30.8 20.5,9.2 	"/>
</g>
<g id="图层_19" display="none">
	<rect x="1" y="1" opacity="0.2" fill="#AA34AD" width="38" height="38"/>
	
		<image overflow="visible" opacity="0.8" width="52" height="52" xlink:href="../big box/20170526整理/in draw/20170411/QQ截图20170411130717.png"  transform="matrix(1.2969 0 0 1.2969 -10.3125 -8.3125)">
	</image>
	<path d="M14.1,21.8l-0.6-0.2c-0.8,2.6-2.8,4.2-5.5,4.2c-3.5,0-5.8-2.6-5.8-6.6c0-3.3,1.8-6.6,5.8-6.6c2.4,0,4.3,1.2,5.2,3.4
		l0.5-0.2c-1-2.4-3.1-3.8-5.7-3.8c-3.8,0-6.4,2.9-6.4,7.2c0,4.3,2.6,7.2,6.4,7.2C11.1,26.4,13.3,24.7,14.1,21.8"/>
	<rect x="17.1" y="12.2" width="0.6" height="13.9"/>
	<path fill="none" stroke="#C13636" stroke-miterlimit="10" d="M13.8,21.7c-0.9,2.7-3.2,4.5-5.8,4.5c-3.4,0-6.1-3.3-6.1-7.3
		s2.7-7.3,6.1-7.3c2.5,0,4.8,1.7,5.8,4.2"/>
	<line fill="none" x1="-8171" y1="18.9" x2="8212" y2="18.9"/>
	<g>
		<line display="inline" fill="none" stroke="#B83635" stroke-miterlimit="10" x1="26.7" y1="11.1" x2="26.7" y2="26.6"/>
		<line display="inline" fill="none" stroke="#B83635" stroke-miterlimit="10" x1="17.6" y1="11.1" x2="17.6" y2="26.6"/>
		<line display="inline" fill="none" stroke="#B83635" stroke-miterlimit="10" x1="17.4" y1="18.3" x2="26.9" y2="18.3"/>
	</g>
	<g>
		<path display="inline" d="M32.6,29.3c0.1-0.6,0.3-1.2,0.7-1.7c0.3-0.5,0.8-1,1.6-1.5l1.4-1.1c0.8-0.7,1.4-1.3,1.7-1.9
			c0.3-0.6,0.4-1.2,0.4-2c0-1.1-0.3-2-1-2.6c-0.6-0.5-1.4-0.8-2.3-0.8c-1.2,0-2.1,0.4-2.7,1.1c-0.6,0.7-0.9,1.7-0.9,2.9h1.2
			c0.1-2.1,0.9-3.1,2.3-3.1c0.7,0,1.2,0.2,1.6,0.7c0.4,0.5,0.6,1.1,0.6,1.9c0,0.6-0.1,1.2-0.4,1.6c-0.3,0.5-0.7,1-1.4,1.5L34,25.4
			c-0.9,0.8-1.6,1.5-2,2.2c-0.5,0.8-0.7,1.7-0.7,2.7h7v-1H32.6z"/>
		<path display="inline" d="M8.2,24.4c-3.1,0-5.6-3.1-5.6-6.8c0-3.8,2.5-6.8,5.6-6.8c2.3,0,4.5,1.5,5.3,3.9l0.9-0.4
			c-1-2.7-3.6-4.5-6.3-4.5c-3.7,0-6.6,3.5-6.6,7.8s3,7.8,6.6,7.8c2.8,0,5.3-1.9,6.3-4.8l-0.9-0.3C12.7,22.7,10.5,24.4,8.2,24.4z"/>
		<polygon display="inline" points="26.4,16.5 18.3,16.5 18.3,9.8 17.3,9.8 17.3,25.3 18.3,25.3 18.3,17.5 26.4,17.5 26.4,25.3 
			27.4,25.3 27.4,9.8 26.4,9.8 		"/>
	</g>
	
		<image overflow="visible" width="178" height="122" xlink:href="336096C1.png"  transform="matrix(0.2879 0 0 0.2879 -1.625 4.6236)">
	</image>
	<ellipse opacity="0.6" fill="none" stroke="#AA4B4B" stroke-miterlimit="10" cx="8.8" cy="18.2" rx="7.8" ry="7.6"/>
	<g>
		<line display="inline" fill="none" stroke="#A44949" stroke-miterlimit="10" x1="16.6" y1="10.3" x2="16.6" y2="26.2"/>
		<line display="inline" fill="none" stroke="#A44949" stroke-miterlimit="10" x1="26.8" y1="10.3" x2="26.8" y2="26.2"/>
		<line display="inline" fill="none" stroke="#A44949" stroke-miterlimit="10" x1="16.7" y1="18.3" x2="26.7" y2="18.3"/>
	</g>
	<path fill="none" stroke="#A44949" stroke-miterlimit="10" d="M29.9,20.3c0,0,2.2-2.3,4.8-2.4c2.6-0.1,6.1,3.9,0.4,7
		c-4.1,2.2-3.6,5-3.6,5h7.2"/>
	<path fill="none" stroke="#A44949" stroke-miterlimit="10" d="M34.7,18c2.6-0.1,5.3,3.8,0.4,7c-3.9,2.5-3.6,5-3.6,5"/>
	<g>
		<path display="inline" d="M0.9,17.9c0,4.5,3.7,8.1,8.3,8.1c1.4,0,2.6-0.3,3.8-0.9V24c-1.1,0.6-2.4,1-3.8,1c-4,0-7.3-3.2-7.3-7.1
			c0-3.9,3.3-7.1,7.3-7.1c1.4,0,2.7,0.4,3.8,1v-1.1c-1.1-0.6-2.4-0.9-3.8-0.9C4.6,9.8,0.9,13.4,0.9,17.9z"/>
		<polygon display="inline" points="26.7,17.5 17.5,17.5 17.5,10.1 16.5,10.1 16.5,25.9 17.5,25.9 17.5,18.5 26.7,18.5 26.7,25.9 
			27.7,25.9 27.7,10.1 26.7,10.1 		"/>
		<path display="inline" d="M35.8,25.1c3.5-1.8,3.5-3.9,3.2-5c-0.4-1.6-2.2-2.9-3.8-2.9c0,0-0.1,0-0.1,0c-1.5,0-2.8,0.7-3.7,1.3v1.2
			c0.8-0.6,2.2-1.5,3.7-1.6c1.1,0,2.6,0.8,2.9,2.2c0.4,1.4-0.6,2.7-2.7,3.9c-3.2,1.7-3.8,3.8-3.9,4.9v1.1h7.7v-1h-6.7
			C32.5,28.4,32.9,26.6,35.8,25.1z"/>
	</g>
</g>
<g id="ch2的缩小80_x25_" display="none">
	<path d="M32.6,29.3c0.1-0.6,0.3-1.2,0.7-1.7c0.3-0.5,0.8-1,1.6-1.5l1.4-1.1c0.8-0.7,1.4-1.3,1.7-1.9c0.3-0.6,0.4-1.2,0.4-2
		c0-1.1-0.3-2-1-2.6c-0.6-0.5-1.4-0.8-2.3-0.8c-1.2,0-2.1,0.4-2.7,1.1c-0.6,0.7-0.9,1.7-0.9,2.9h1.2c0.1-2.1,0.9-3.1,2.3-3.1
		c0.7,0,1.2,0.2,1.6,0.7c0.4,0.5,0.6,1.1,0.6,1.9c0,0.6-0.1,1.2-0.4,1.6c-0.3,0.5-0.7,1-1.4,1.5L34,25.4c-0.9,0.8-1.6,1.5-2,2.2
		c-0.5,0.8-0.7,1.7-0.7,2.7h7v-1H32.6z"/>
	<path display="inline" d="M32.4,28.2c0.1-0.5,0.3-1,0.5-1.4c0.3-0.4,0.7-0.8,1.2-1.2l1.1-0.9c0.6-0.5,1.1-1,1.3-1.5
		c0.2-0.5,0.3-1,0.3-1.6c0-0.9-0.3-1.6-0.8-2.1c-0.5-0.4-1.1-0.6-1.8-0.6c-0.9,0-1.6,0.3-2.1,0.8c-0.5,0.6-0.7,1.3-0.7,2.4h0.9
		c0.1-1.6,0.7-2.5,1.9-2.5c0.5,0,1,0.2,1.3,0.5c0.3,0.4,0.5,0.9,0.5,1.5c0,0.5-0.1,0.9-0.3,1.3c-0.2,0.4-0.6,0.8-1.1,1.2l-1.1,0.9
		c-0.7,0.6-1.3,1.2-1.6,1.8c-0.4,0.6-0.5,1.4-0.5,2.2h5.6v-0.8H32.4z"/>
	<path display="inline" d="M8.2,24.4c-3.1,0-5.6-3.1-5.6-6.8c0-3.8,2.5-6.8,5.6-6.8c2.3,0,4.5,1.5,5.3,3.9l0.9-0.4
		c-1-2.7-3.6-4.5-6.3-4.5c-3.7,0-6.6,3.5-6.6,7.8s3,7.8,6.6,7.8c2.8,0,5.3-1.9,6.3-4.8l-0.9-0.3C12.7,22.7,10.5,24.4,8.2,24.4z"/>
	<polygon display="inline" points="26.4,16.5 18.3,16.5 18.3,9.8 17.3,9.8 17.3,25.3 18.3,25.3 18.3,17.5 26.4,17.5 26.4,25.3 
		27.4,25.3 27.4,9.8 26.4,9.8 	"/>
</g>
<g id="右对齐" display="none">
	<rect fill-rule="evenodd" clip-rule="evenodd" fill="#E81A1A" width="40" height="40"/>
	<rect x="2" y="2" fill-rule="evenodd" clip-rule="evenodd" fill="#F9CA06" width="36" height="36"/>
	<g>
		<path display="inline" fill-rule="evenodd" clip-rule="evenodd" d="M30.5,4.1v13.5h-18V4.1H30.5L30.5,4.1z M28.2,24.4H5.7v9h22.5
			V24.4L28.2,24.4z M30.5,22.1v13.5h-27V22.1H30.5L30.5,22.1z M37.3,1.9v36h-4.5v-36H37.3L37.3,1.9z"/>
	</g>
	
		<image overflow="visible" width="191" height="44" xlink:href="336096C7.jpg"  transform="matrix(2.4973 0 0 2.4973 -365.2321 -34.9274)">
	</image>
	<rect x="4.9" y="23.2" display="inline" fill="none" stroke="#000000" stroke-miterlimit="10" width="26.5" height="11.6"/>
	<rect x="14.5" y="5.2" display="inline" width="17.5" height="12.5"/>
	<line display="inline" fill="none" stroke="#000000" stroke-miterlimit="10" x1="35.1" y1="37.5" x2="35.1" y2="2.5"/>
</g>
<g id="右对齐ok" display="none">
	<rect fill-rule="evenodd" clip-rule="evenodd" fill="#E81A1A" width="40" height="40"/>
	<rect x="2" y="2" fill-rule="evenodd" clip-rule="evenodd" fill="#F9CA06" width="36" height="36"/>
	<g>
		<path display="inline" fill-rule="evenodd" clip-rule="evenodd" d="M30.5,4.1v13.5h-18V4.1H30.5L30.5,4.1z M28.2,24.4H5.7v9h22.5
			V24.4L28.2,24.4z M30.5,22.1v13.5h-27V22.1H30.5L30.5,22.1z M37.3,1.9v36h-4.5v-36H37.3L37.3,1.9z"/>
	</g>
	
		<image overflow="visible" width="191" height="44" xlink:href="336096C1.jpg"  transform="matrix(2.4973 0 0 2.4973 -365.2321 -34.9274)">
	</image>
	<rect x="15" y="6" display="inline" width="17" height="12"/>
	<g display="inline">
		<path d="M31,23v10H6V23H31 M32,22H5v12h27V22L32,22z"/>
	</g>
	<rect x="34" y="3" display="inline" width="1" height="34"/>
</g>
<g id="左对齐" display="none">
	<rect fill-rule="evenodd" clip-rule="evenodd" fill="#E81A1A" width="40" height="40"/>
	<rect x="2" y="2" fill-rule="evenodd" clip-rule="evenodd" fill="#F9CA06" width="36" height="36"/>
	<g>
		<path display="inline" fill-rule="evenodd" clip-rule="evenodd" d="M30.5,4.1v13.5h-18V4.1H30.5L30.5,4.1z M28.2,24.4H5.7v9h22.5
			V24.4L28.2,24.4z M30.5,22.1v13.5h-27V22.1H30.5L30.5,22.1z M37.3,1.9v36h-4.5v-36H37.3L37.3,1.9z"/>
	</g>
	
		<image overflow="visible" width="191" height="44" xlink:href="336096C3.jpg"  transform="matrix(2.4973 0 0 2.4973 -365.2321 -34.9274)">
	</image>
	<rect x="8" y="6" display="inline" width="17" height="12"/>
	<g display="inline">
		<path d="M34,23v10H9V23H34 M35,22H8v12h27V22L35,22z"/>
	</g>
	<rect x="5" y="3" display="inline" width="1" height="34"/>
</g>
<g id="顶对齐" display="none">
	<rect fill-rule="evenodd" clip-rule="evenodd" fill="#E81A1A" width="40" height="40"/>
	<rect x="2" y="2" fill-rule="evenodd" clip-rule="evenodd" fill="#F9CA06" width="36" height="36"/>
	<g>
		<path display="inline" fill-rule="evenodd" clip-rule="evenodd" d="M30.5,4.1v13.5h-18V4.1H30.5L30.5,4.1z M28.2,24.4H5.7v9h22.5
			V24.4L28.2,24.4z M30.5,22.1v13.5h-27V22.1H30.5L30.5,22.1z M37.3,1.9v36h-4.5v-36H37.3L37.3,1.9z"/>
	</g>
	
		<image overflow="visible" width="191" height="44" xlink:href="336096C0.jpg"  transform="matrix(2.4973 0 0 2.4973 -365.2321 -34.9274)">
	</image>
	<rect x="22" y="8" display="inline" width="12" height="17"/>
	<g display="inline">
		<path d="M17,9v25H7V9H17 M18,8H6v27h12V8L18,8z"/>
	</g>
	<rect x="3" y="5" display="inline" width="34" height="1"/>
</g>
<g id="底对齐" display="none">
	<rect fill-rule="evenodd" clip-rule="evenodd" fill="#E81A1A" width="40" height="40"/>
	<rect x="2" y="2" fill-rule="evenodd" clip-rule="evenodd" fill="#F9CA06" width="36" height="36"/>
	<g>
		<path display="inline" fill-rule="evenodd" clip-rule="evenodd" d="M30.5,4.1v13.5h-18V4.1H30.5L30.5,4.1z M28.2,24.4H5.7v9h22.5
			V24.4L28.2,24.4z M30.5,22.1v13.5h-27V22.1H30.5L30.5,22.1z M37.3,1.9v36h-4.5v-36H37.3L37.3,1.9z"/>
	</g>
	
		<image overflow="visible" width="191" height="44" xlink:href="336096CF.jpg"  transform="matrix(2.4973 0 0 2.4973 -365.2321 -34.9274)">
	</image>
	<rect x="22" y="15" display="inline" width="12" height="17"/>
	<g display="inline">
		<path d="M17,6v25H7V6H17 M18,5H6v27h12V5L18,5z"/>
	</g>
	<rect x="3" y="34" display="inline" width="34" height="1"/>
</g>
<g id="垂直居中对齐" display="none">
	<rect fill-rule="evenodd" clip-rule="evenodd" fill="#E81A1A" width="40" height="40"/>
	<rect x="2" y="2" fill-rule="evenodd" clip-rule="evenodd" fill="#F9CA06" width="36" height="36"/>
	<g>
		<path display="inline" fill-rule="evenodd" clip-rule="evenodd" d="M30.5,4.1v13.5h-18V4.1H30.5L30.5,4.1z M28.2,24.4H5.7v9h22.5
			V24.4L28.2,24.4z M30.5,22.1v13.5h-27V22.1H30.5L30.5,22.1z M37.3,1.9v36h-4.5v-36H37.3L37.3,1.9z"/>
	</g>
	
		<image overflow="visible" width="191" height="44" xlink:href="336096C2.jpg"  transform="matrix(2.4973 0 0 2.4973 -365.2321 -34.9274)">
	</image>
	<rect x="22" y="11.5" display="inline" width="12" height="17"/>
	<g display="inline">
		<path d="M17,7.5v25H7v-25H17 M18,6.5H6v27h12V6.5L18,6.5z"/>
	</g>
	<rect x="3" y="19.5" display="inline" width="34" height="1"/>
</g>
<g id="水平居中对齐">
	<rect display="none" fill-rule="evenodd" clip-rule="evenodd" fill="#E81A1A" width="40" height="40"/>
	<rect x="2" y="2" display="none" fill-rule="evenodd" clip-rule="evenodd" fill="#F9CA06" width="36" height="36"/>
	<g display="none">
		<path display="inline" fill-rule="evenodd" clip-rule="evenodd" d="M30.5,4.1v13.5h-18V4.1H30.5L30.5,4.1z M28.2,24.4H5.7v9h22.5
			V24.4L28.2,24.4z M30.5,22.1v13.5h-27V22.1H30.5L30.5,22.1z M37.3,1.9v36h-4.5v-36H37.3L37.3,1.9z"/>
	</g>
	
		<image display="none" overflow="visible" width="191" height="44" xlink:href="336096C6.jpg"  transform="matrix(2.4973 0 0 2.4973 -365.2321 -34.9274)">
	</image>
	<rect x="11.5" y="6" display="none" width="17" height="12"/>
	<g display="none">
		<path display="inline" d="M32.5,23v10h-25V23H32.5 M33.5,22h-27v12h27V22L33.5,22z"/>
	</g>
	<rect x="19.5" y="3" display="none" width="1" height="34"/>
</g>
<g id="图层_28" display="none">
	<g display="inline">
		<path fill-rule="evenodd" clip-rule="evenodd" d="M31.2,34.6c0.6,0,1.1-0.5,1.1-1.1c0-0.6-0.5-1.1-1.1-1.1H9
			c-0.6,0-1.1,0.5-1.1,1.1c0,0.6,0.5,1.1,1.1,1.1H31.2L31.2,34.6z"/>
		<path fill-rule="evenodd" clip-rule="evenodd" d="M37.9,24.5c0-0.6-0.5-1.1-1.1-1.1H3.4c-0.6,0-1.1,0.5-1.1,1.1s0.5,1.1,1.1,1.1
			h33.4C37.4,25.6,37.9,25.1,37.9,24.5L37.9,24.5z"/>
		<path fill-rule="evenodd" clip-rule="evenodd" d="M2.3,6.7c0,0.6,0.5,1.1,1.1,1.1h33.4c0.6,0,1.1-0.5,1.1-1.1s-0.5-1.1-1.1-1.1
			H3.4C2.8,5.6,2.3,6.1,2.3,6.7L2.3,6.7z"/>
		<path fill-rule="evenodd" clip-rule="evenodd" d="M31.2,16.7c0.6,0,1.1-0.5,1.1-1.1s-0.5-1.1-1.1-1.1H9c-0.6,0-1.1,0.5-1.1,1.1
			s0.5,1.1,1.1,1.1H31.2L31.2,16.7z"/>
	</g>
</g>
<g id="图层_29" display="none">
	<g display="inline">
		<g>
			<line fill="none" stroke="#EA1B1B" stroke-linecap="round" stroke-miterlimit="10" x1="3" y1="5.5" x2="37" y2="5.5"/>
			<line fill="none" stroke="#EA1B1B" stroke-linecap="round" stroke-miterlimit="10" x1="9.5" y1="14.5" x2="30.5" y2="14.5"/>
		</g>
		<g>
			<line fill="none" stroke="#EA1B1B" stroke-linecap="round" stroke-miterlimit="10" x1="3" y1="24.5" x2="37" y2="24.5"/>
			<line fill="none" stroke="#EA1B1B" stroke-linecap="round" stroke-miterlimit="10" x1="9.5" y1="33.5" x2="30.5" y2="33.5"/>
		</g>
	</g>
</g>
<g id="图层_29_x5F_复制" display="none">
	<g display="inline">
		<path d="M3,6h34c0.3,0,0.5-0.2,0.5-0.5S37.3,5,37,5H3C2.7,5,2.5,5.2,2.5,5.5S2.7,6,3,6z"/>
		<path d="M9.5,14C9.2,14,9,14.2,9,14.5S9.2,15,9.5,15h21c0.3,0,0.5-0.2,0.5-0.5S30.7,14,30.5,14H9.5z"/>
		<path d="M37,24H3c-0.3,0-0.5,0.2-0.5,0.5S2.7,25,3,25h34c0.3,0,0.5-0.2,0.5-0.5S37.3,24,37,24z"/>
		<path d="M30.5,33h-21C9.2,33,9,33.2,9,33.5S9.2,34,9.5,34h21c0.3,0,0.5-0.2,0.5-0.5S30.7,33,30.5,33z"/>
	</g>
</g>
<g id="图层_29_x5F_复制_2" display="none">
	<path display="inline" d="M3.5,7h33C36.8,7,37,6.8,37,6.5S36.8,6,36.5,6h-33C3.2,6,3,6.2,3,6.5S3.2,7,3.5,7z"/>
	<path display="inline" d="M9.5,15C9.3,15,9,15.2,9,15.5S9.3,16,9.5,16h21c0.3,0,0.5-0.2,0.5-0.5S30.8,15,30.5,15H9.5z"/>
	<path display="inline" d="M36.5,24h-33C3.2,24,3,24.2,3,24.5S3.2,25,3.5,25h33c0.3,0,0.5-0.2,0.5-0.5S36.8,24,36.5,24z"/>
	<path display="inline" d="M30.5,33h-21C9.3,33,9,33.2,9,33.5S9.3,34,9.5,34h21c0.3,0,0.5-0.2,0.5-0.5S30.8,33,30.5,33z"/>
</g>
<g id="图层_29_x5F_复制_3">
	<g>
		<path d="M3.8,7h33c0.3,0,0.5-0.2,0.5-0.5S37.1,6,36.8,6h-33C3.5,6,3.3,6.2,3.3,6.5S3.5,7,3.8,7z"/>
		<path d="M9.8,13c-0.3,0-0.5,0.2-0.5,0.5S9.5,14,9.8,14h21c0.3,0,0.5-0.2,0.5-0.5S31.1,13,30.8,13H9.8z"/>
		<path d="M36.8,20h-33c-0.3,0-0.5,0.2-0.5,0.5S3.5,21,3.8,21h33c0.3,0,0.5-0.2,0.5-0.5S37.1,20,36.8,20z"/>
		<path d="M36.2,34h-33c-0.3,0-0.5,0.2-0.5,0.5S2.9,35,3.2,35h33c0.3,0,0.5-0.2,0.5-0.5S36.5,34,36.2,34z"/>
		<path d="M30.8,27h-21c-0.3,0-0.5,0.2-0.5,0.5S9.5,28,9.8,28h21c0.3,0,0.5-0.2,0.5-0.5S31.1,27,30.8,27z"/>
	</g>
</g>
</svg>
