<?xml version="1.0" encoding="UTF-8"?>
<svg width="32px" height="40px" viewBox="0 0 32 40" version="1.1" xmlns="http://www.w3.org/2000/svg" xmlns:xlink="http://www.w3.org/1999/xlink">
    <!-- Generator: Sketch 47.1 (45422) - http://www.bohemiancoding.com/sketch -->
    <title>Group 2</title>
    <desc>Created with Sketch.</desc>
    <defs></defs>
    <g id="Page-1" stroke="none" stroke-width="1" fill="none" fill-rule="evenodd">
        <g id="Group-2" transform="translate(-4.000000, 0.000000)" fill-rule="nonzero" fill="#333333">
            <path d="M35,36 L34,36 L34,35 L35,35 L35,5 L34,5 L34,4 L35,4 L35,1 L5,1 L5,4 L6,4 L6,5 L5,5 L5,35 L6,35 L6,36 L5,36 L5,39 L35,39 L35,36 Z M4,0 L36,0 L36,40 L4,40 L4,0 Z M7,4 L9,4 L9,5 L7,5 L7,4 Z M10,4 L12,4 L12,5 L10,5 L10,4 Z M13,4 L15,4 L15,5 L13,5 L13,4 Z M16,4 L18,4 L18,5 L16,5 L16,4 Z M19,4 L21,4 L21,5 L19,5 L19,4 Z M22,4 L24,4 L24,5 L22,5 L22,4 Z M25,4 L27,4 L27,5 L25,5 L25,4 Z M28,4 L30,4 L30,5 L28,5 L28,4 Z M31,4 L33,4 L33,5 L31,5 L31,4 Z M7,35 L9,35 L9,36 L7,36 L7,35 Z M10,35 L12,35 L12,36 L10,36 L10,35 Z M13,35 L15,35 L15,36 L13,36 L13,35 Z M16,35 L18,35 L18,36 L16,36 L16,35 Z M19,35 L21,35 L21,36 L19,36 L19,35 Z M22,35 L24,35 L24,36 L22,36 L22,35 Z M25,35 L27,35 L27,36 L25,36 L25,35 Z M28,35 L30,35 L30,36 L28,36 L28,35 Z M31,35 L33,35 L33,36 L31,36 L31,35 Z M11.5,31 C10.6715729,31 10,30.3284271 10,29.5 C10,28.6715729 10.6715729,28 11.5,28 C12.3284271,28 13,28.6715729 13,29.5 C13,30.3284271 12.3284271,31 11.5,31 Z M14.5,17 C13.6715729,17 13,16.3284271 13,15.5 C13,14.6715729 13.6715729,14 14.5,14 C15.3284271,14 16,14.6715729 16,15.5 C16,16.3284271 15.3284271,17 14.5,17 Z M19.5,24 C18.6715729,24 18,23.3284271 18,22.5 C18,21.6715729 18.6715729,21 19.5,21 C20.3284271,21 21,21.6715729 21,22.5 C21,23.3284271 20.3284271,24 19.5,24 Z M24.5,11 C23.6715729,11 23,10.3284271 23,9.5 C23,8.67157288 23.6715729,8 24.5,8 C25.3284271,8 26,8.67157288 26,9.5 C26,10.3284271 25.3284271,11 24.5,11 Z M28.5,30 C27.6715729,30 27,29.3284271 27,28.5 C27,27.6715729 27.6715729,27 28.5,27 C29.3284271,27 30,27.6715729 30,28.5 C30,29.3284271 29.3284271,30 28.5,30 Z" id="Combined-Shape"></path>
        </g>
    </g>
</svg>