<?xml version="1.0" encoding="utf-8"?>
<!-- Generator: Adobe Illustrator 16.0.0, SVG Export Plug-In . SVG Version: 6.00 Build 0)  -->
<!DOCTYPE svg PUBLIC "-//W3C//DTD SVG 1.1//EN" "http://www.w3.org/Graphics/SVG/1.1/DTD/svg11.dtd">
<svg version="1.1" id="图层_1" xmlns="http://www.w3.org/2000/svg" xmlns:xlink="http://www.w3.org/1999/xlink" x="0px" y="0px"
	 width="40px" height="40px" viewBox="0 0 40 40" enable-background="new 0 0 40 40" xml:space="preserve">
<g>
	<g>
		<g>
			<g>
				<path fill="#999999" d="M10.189,13.706c0-0.55,0.45-1,1-1h5.099c0.55,0,1,0.45,1,1V33c0,0.55-0.45,1-1,1h-5.099
					c-0.55,0-1-0.45-1-1V13.706z"/>
				<path fill="none" stroke="#333333" stroke-width="0.7778" stroke-miterlimit="10" d="M10.189,13.706c0-0.55,0.45-1,1-1h5.099
					c0.55,0,1,0.45,1,1V33c0,0.55-0.45,1-1,1h-5.099c-0.55,0-1-0.45-1-1V13.706z"/>
			</g>
			<g>
				<path fill="#FFFFFF" d="M20.688,13.706c0-0.55,0.45-1,1-1h6c0.55,0,1,0.45,1,1v10c0,0.55-0.45,1-1,1h-6c-0.55,0-1-0.45-1-1
					V13.706z"/>
				<path fill="none" stroke="#333333" stroke-width="0.9299" stroke-miterlimit="10" d="M20.688,13.706c0-0.55,0.45-1,1-1h6
					c0.55,0,1,0.45,1,1v10c0,0.55-0.45,1-1,1h-6c-0.55,0-1-0.45-1-1V13.706z"/>
			</g>
		</g>
	</g>
	<rect x="6.063" y="8.292" fill="#333333" width="28" height="1"/>
</g>
</svg>
