<?xml version="1.0" encoding="utf-8"?>
<!-- Generator: Adobe Illustrator 16.0.0, SVG Export Plug-In . SVG Version: 6.00 Build 0)  -->
<!DOCTYPE svg PUBLIC "-//W3C//DTD SVG 1.1//EN" "http://www.w3.org/Graphics/SVG/1.1/DTD/svg11.dtd">
<svg version="1.1" id="图层_1" xmlns="http://www.w3.org/2000/svg" xmlns:xlink="http://www.w3.org/1999/xlink" x="0px" y="0px"
	 width="40px" height="40px" viewBox="0 0 40 40" enable-background="new 0 0 40 40" xml:space="preserve">
<g>
	<rect x="6" y="19.501" fill="#333333" width="28" height="1"/>
	<g>
		<path fill="#999999" d="M11.408,10.353c0-0.55,0.45-1,1-1h5.098c0.55,0,1,0.45,1,1v19.295c0,0.55-0.45,1-1,1h-5.098
			c-0.55,0-1-0.45-1-1V10.353z"/>
		<path fill="none" stroke="#333333" stroke-width="0.7778" stroke-miterlimit="10" d="M11.408,10.353c0-0.55,0.45-1,1-1h5.098
			c0.55,0,1,0.45,1,1v19.295c0,0.55-0.45,1-1,1h-5.098c-0.55,0-1-0.45-1-1V10.353z"/>
	</g>
	<g>
		<path fill="#FFFFFF" d="M21.875,15.095c0-0.603,0.493-1.095,1.096-1.095h5.809c0.603,0,1.096,0.493,1.096,1.095v9.809
			c0,0.603-0.493,1.096-1.096,1.096h-5.809c-0.603,0-1.096-0.493-1.096-1.096V15.095z"/>
		<path fill="none" stroke="#333333" stroke-width="0.9298" stroke-miterlimit="10" d="M21.875,15.095
			c0-0.603,0.493-1.095,1.096-1.095h5.809c0.603,0,1.096,0.493,1.096,1.095v9.809c0,0.603-0.493,1.096-1.096,1.096h-5.809
			c-0.603,0-1.096-0.493-1.096-1.096V15.095z"/>
	</g>
</g>
</svg>
