<?xml version="1.0" encoding="utf-8"?>
<!-- Generator: Adobe Illustrator 16.0.0, SVG Export Plug-In . SVG Version: 6.00 Build 0)  -->
<!DOCTYPE svg PUBLIC "-//W3C//DTD SVG 1.1//EN" "http://www.w3.org/Graphics/SVG/1.1/DTD/svg11.dtd">
<svg version="1.1" id="图层_1" xmlns="http://www.w3.org/2000/svg" xmlns:xlink="http://www.w3.org/1999/xlink" x="0px" y="0px"
	 width="40px" height="40px" viewBox="0 0 40 40" enable-background="new 0 0 40 40" xml:space="preserve">
<path display="none" fill="#6B6C6B" d="M878.457-66.628c2.071,2.085,2.071,5.414,0,7.471L287.543,531.786
	c-2.086,2.085-5.415,2.085-7.486,0L242.657,494.4c-2.071-2.086-2.071-5.415,0-7.443L833.6-104.014c2.086-2.086,5.415-2.086,7.458,0
	L878.457-66.628z"/>
<g>
	<path fill="#323333" d="M35.017,12.392c0.028,0.032-0.005,0.121-0.086,0.202l-22.34,22.341c-0.078,0.078-0.167,0.111-0.201,0.082
		l-0.588-0.588c-0.033-0.031,0.005-0.121,0.08-0.2l22.343-22.342c0.082-0.078,0.167-0.117,0.201-0.082L35.017,12.392z"/>
	<path fill="#323333" d="M31.605,8.983c0.03,0.031-0.005,0.12-0.083,0.201L9.183,31.525c-0.08,0.077-0.168,0.112-0.2,0.08
		l-0.589-0.588c-0.032-0.031,0.003-0.12,0.079-0.196L30.818,8.478c0.078-0.078,0.162-0.114,0.195-0.081L31.605,8.983z"/>
	<path fill="#323333" d="M28.198,5.576c0.03,0.033-0.005,0.121-0.084,0.202L5.775,28.119C5.696,28.2,5.609,28.236,5.574,28.2
		l-0.587-0.593c-0.033-0.03,0.001-0.118,0.083-0.199L27.408,5.067c0.079-0.079,0.167-0.114,0.203-0.083L28.198,5.576z"/>
</g>
</svg>
