<?xml version="1.0" encoding="utf-8"?>
<!-- Generator: Adobe Illustrator 18.0.0, SVG Export Plug-In . SVG Version: 6.00 Build 0)  -->
<!DOCTYPE svg PUBLIC "-//W3C//DTD SVG 1.1//EN" "http://www.w3.org/Graphics/SVG/1.1/DTD/svg11.dtd">
<svg version="1.1" id="图层_1" xmlns="http://www.w3.org/2000/svg" xmlns:xlink="http://www.w3.org/1999/xlink" x="0px" y="0px" width ="160" height= "192"
	 viewBox="0 0 160 191.8" enable-background="new 0 0 160 191.8" xml:space="preserve">
<g>
	<linearGradient id="SVGID_1_" gradientUnits="userSpaceOnUse" x1="79.0196" y1="84.1898" x2="79.3507" y2="185.2396">
		<stop  offset="0.1828" style="stop-color:#99FFFF;stop-opacity:0.1"/>
		<stop  offset="0.5834" style="stop-color:#45C6FF;stop-opacity:0.2113"/>
		<stop  offset="0.9028" style="stop-color:#0097FF;stop-opacity:0.3"/>
	</linearGradient>
	<path fill="url(#SVGID_1_)" d="M9,109.4c-3,46,31.4,77.5,69.9,77.5s74.5-31.2,70.2-77.4c0,0-0.2-2.1-1.7-3.6c-4.9-4.8-39.2-9-68-9
		C44.7,97,10,102.1,9,109.4z"/>
	
		<radialGradient id="SVGID_2_" cx="78.9278" cy="108.0057" r="49.7195" gradientTransform="matrix(1 0 0 0.4 0 64.8034)" gradientUnits="userSpaceOnUse">
		<stop  offset="0.2849" style="stop-color:#99FFFF;stop-opacity:0.1"/>
		<stop  offset="1" style="stop-color:#0097FF;stop-opacity:0.1"/>
	</radialGradient>
	<path fill="url(#SVGID_2_)" d="M148.4,108c0,6.1-31.3,11-70,11s-68.9-5-68.9-11.1S39.7,97,78.4,97S148.4,101.9,148.4,108z"/>
</g>
<g>
	<g>
		<path fill="#231815" d="M143.4,21.2c-7.4-3.1-13.7-5.5-14.3-3.8c-0.2,0.5-0.9,2.2-0.3,2.9c0.3,0.3,0,1,0,1l-8.8,25.8
			c-1.1,0.2-1.9,0.7-2.3,1.6c-0.3,0.7-0.1,1.6-0.9,2.5c-3.7,4.1-10.1,0.3-11.3-1c-4-4.1-6.4-12-13.1-12.9c-0.1,0-0.1,0-0.2-0.1
			c-0.1-0.1-0.2-0.3-0.4-0.4c-0.3-0.5-0.6-1.1-0.6-1.1l1.2-26.3c0,0-0.1-0.7,0.4-1c0.8-0.5,1.2-0.9,1.2-1.3c0-1.8-6.5-3.3-14.5-3.3
			c-8,0-14.5,1.5-14.5,3.3c0,0.5,0.5,0.9,1.3,1.4c0.4,0.2,0.4,1,0.4,1l1.5,27.7l-0.5,0.1c-7.7,0-9.2,9.5-14.2,12.9
			c-2.9,2-10.4,3.4-11.3,1c-0.4-1.1-0.7-1.8-0.9-2.5c0-0.1-0.1-0.2-0.2-0.3c0-0.1,0-0.2,0-0.3c-0.1-0.4-0.6-0.6-1.3-0.7
			c-0.2-0.1-0.5-0.2-0.8-0.2l-0.2,0.1l-9-26.3c0,0-0.1-0.5,0-1.1c0.2-1,0.9-1.7,0.6-2.1c-1.1-1.6-7.8,0-14.7,2.7
			c-7.4,3-12.9,6.8-12.2,8.5c0.2,0.5,0.8,0.7,1.7,0.8C5.7,29.9,6,30.6,6,30.6l11.5,24.9c-0.2,0.2-0.3,0.4-0.4,0.6
			c-0.2,0.3-0.3,0.6-0.2,0.8c0,0.2,0,0.4,0.1,0.6c0.7,1.9,2.9,8.3,3.7,10.7c0.6,1.8,0.7,6.9-0.6,8.8c-7.5,11.3-11.9,24.8-11.9,39.3
			c0,39.1,31.7,71.6,70.8,71.6c39.1,0,70.8-31.2,70.8-70.2h0c0-15-2.4-26.2-10-37.5c0,0-3.1-5.9,0.1-12.1c1.1-2.2,4.5-7.8,4.1-11.3
			c0-0.2,0-0.4-0.1-0.6c-0.1-0.5-0.3-0.9-0.6-1.2c4.4-10.7,9.3-22,9.3-22s0.2-0.7,0.8-0.8c0.9-0.2,1.5,0.3,1.9,0
			C156.4,31.4,160.6,28.3,143.4,21.2z M142.9,56.7c-0.2,0.1-0.6,0.2-1.4,0.2c-2.5,0-6.6-0.9-10.7-2.4c-6.6-2.4-10.3-4.9-10.7-5.9
			c0.2-0.1,0.6-0.2,1.4-0.2c2.5,0,6.6,0.9,10.7,2.4C138.8,53.1,142.4,55.7,142.9,56.7z M90.5,37.7c-0.2,0.7-5,1.2-10.3,1.2
			s-10.4-0.4-10.3-1.2c0.2-0.6,4.8-1.7,10-1.7S90.5,37.1,90.5,37.7z M67.6,9.5c0-0.3,0-1.4-0.9-1.9C66.2,7.4,66,7.2,66,7.2
			c0.7-0.9,5.5-2.3,13.5-2.3c8,0,12.8,1.4,13.4,2.3c-0.1,0.1-0.3,0.3-0.7,0.5c-0.7,0.4-0.9,1.3-0.9,1.8L90.1,36l0.1,0.2
			c0,0.1,0,0.1,0.1,0.2c-2.2-0.7-5.9-1.1-10-1.1c-4.8,0-9.1,0.6-11.1,1.5L67.6,9.5z M18,56.5c0.8-1.1,4.3-3.5,10.2-5.7
			c3.7-1.4,7.4-2.3,9.8-2.4l0,0.1l0.5-0.1c0,0,0,0,0,0c0.4,0,0.6,0,0.8,0.1c0.2,0.1,0.3,0.2,0.5,0.3c-0.7,1.1-4.2,3.6-10.3,5.8
			c-4,1.5-8,2.4-10.4,2.4c-0.8,0-1.2-0.1-1.3-0.2C17.9,56.7,17.9,56.6,18,56.5z M6.9,30.2C6.8,30,6.3,29,5.4,28.9
			c-0.5-0.1-0.8-0.1-0.9-0.2c0.3-1,4.3-4.3,11.6-7.2c5.2-2.1,9.8-3.3,12.2-3.3c0.5,0,0.8,0.1,1,0.1c0,0,0,0,0,0
			c-0.2,0.4-0.4,0.8-0.5,1.4c-0.1,0.7,0,1.4,0,1.4l0,0.1l8.9,26.2c-2.5,0.2-6,1-9.9,2.5c-4.2,1.6-7.8,3.5-9.6,5.1L6.9,30.2z
			 M139.5,66.7c-0.2,0.4-0.4,0.7-0.6,1c-3.4,6.5-0.2,12.7-0.1,13l0.1,0.1c7,10.4,9.8,21.1,9.8,36.9v1h0c-0.3,18.2-7.5,35.2-20.4,48
			c-13.2,13-30.7,20.2-49.4,20.2c-38.5,0-69.8-31.7-69.8-70.6c0-13.9,4.1-27.3,11.7-38.8c1.5-2.2,1.4-7.7,0.7-9.6
			c-0.7-2.2-2.6-7.7-3.5-10.1c2.1,0.4,6.8-0.5,11.9-2.4c5-1.9,9-4.2,10.5-5.9c0.2,0.5,0.6,1.5,0.8,2c0.3,0.9,1.3,1.9,4.2,1.9
			c2.9,0,6.7-1.1,8.7-2.4c2-1.4,3.5-3.4,4.9-5.6c2.3-3.5,4.4-6.6,8.7-6.6l1.1-0.2c1.7,0.9,6.3,1.5,11.5,1.5c5.6,0,10.3-0.8,11.6-1.8
			c0.1,0,0.2,0.1,0.3,0.1c4.2,0.6,6.6,4.3,9,7.8c1.1,1.7,2.2,3.4,3.5,4.7c1,1.1,4.4,3.1,7.8,3.1c2,0,3.7-0.8,5-2.2
			c0.7-0.8,0.9-1.6,1-2.2c0-0.2,0.1-0.4,0.1-0.5c0.1-0.2,0.2-0.3,0.4-0.5c0.5,1.7,5.2,4.5,11.4,6.7c5.5,2,10.6,2.8,12.6,2.3
			C142.9,60.5,140.6,64.7,139.5,66.7z M154.8,31.3c-0.1,0-0.1,0-0.2,0c-0.2,0-0.5-0.1-0.8-0.1c-0.2,0-0.4,0-0.6,0.1
			c-0.8,0.2-1.3,0.9-1.5,1.4c-0.4,0.8-5.1,11.8-9.3,22c-2-1.5-5.5-3.3-9.8-4.8c-4.8-1.7-9.1-2.6-11.6-2.4l8.8-25.7
			c0.1-0.2,0.5-1.2-0.2-2c0,0-0.1-0.4,0.4-1.8c0.1,0,0.2,0,0.4,0c2.2,0,7.7,2.2,12.7,4.3c10.9,4.5,12.3,7.1,12.4,8
			C155.6,30.6,155.2,31,154.8,31.3z"/>
		<path fill="#231815" d="M79.5,9.6c6.8,0,11.4-0.8,11.8-1.8l0.1-0.6c-0.6,1.1-4.6,2-11.9,2c-7.3,0-11.9-1.4-11.9-2.2l-0.1,0.2
			C67.5,8.8,72.6,9.6,79.5,9.6z"/>
		<path fill="#231815" d="M28.7,19.1l-0.1-0.5c-0.2,1.1-3.9,3.4-11,6.4S5.6,28.7,5.4,28.1l0,0.2c0.5,1.2,5.8-0.2,12.5-2.9
			C24.5,22.6,28.6,20.1,28.7,19.1z"/>
		<path fill="#231815" d="M141.8,26.5c-7.6-3.3-11.7-7-11.4-7.9l-0.2,0.2c-0.8,1.7,4.2,5,11.3,8.1c7.1,3.1,12.3,4.3,13.1,3.4
			l0.4-0.6C154,30.7,149.4,29.8,141.8,26.5z"/>
	</g>
	<g>
		<g id="图层_5">
			<g opacity="0.6">
				<g>
					
						<line fill="none" stroke="#01192B" stroke-width="0.1806" stroke-linecap="round" stroke-miterlimit="1" x1="71.9" y1="38.6" x2="72.9" y2="38"/>
					
						<line fill="none" stroke="#01192B" stroke-width="0.1806" stroke-linecap="round" stroke-miterlimit="1" x1="83.5" y1="37.8" x2="84.5" y2="37.3"/>
					
						<line fill="none" stroke="#01192B" stroke-width="0.1806" stroke-linecap="round" stroke-miterlimit="1" x1="78.5" y1="39.2" x2="77.7" y2="38.4"/>
					
						<line fill="none" stroke="#01192B" stroke-width="0.1806" stroke-linecap="round" stroke-miterlimit="1" x1="89.3" y1="38.2" x2="88.7" y2="37.3"/>
					
						<line fill="none" stroke="#01192B" stroke-width="0.1806" stroke-linecap="round" stroke-miterlimit="1" x1="69.1" y1="30.6" x2="69.5" y2="31.7"/>
					
						<line fill="none" stroke="#01192B" stroke-width="0.1806" stroke-linecap="round" stroke-miterlimit="1" x1="69.3" y1="24.6" x2="68.4" y2="25.1"/>
					
						<line fill="none" stroke="#01192B" stroke-width="0.1806" stroke-linecap="round" stroke-miterlimit="1" x1="79.8" y1="19" x2="80.7" y2="18.4"/>
					
						<line fill="none" stroke="#01192B" stroke-width="0.1806" stroke-linecap="round" stroke-miterlimit="1" x1="74.6" y1="19" x2="73.9" y2="18.2"/>
					
						<line fill="none" stroke="#01192B" stroke-width="0.1806" stroke-linecap="round" stroke-miterlimit="1" x1="72.3" y1="22.8" x2="71.9" y2="21.8"/>
					
						<line fill="none" stroke="#01192B" stroke-width="0.1806" stroke-linecap="round" stroke-miterlimit="1" x1="71.7" y1="30.5" x2="70.8" y2="29.7"/>
					
						<line fill="none" stroke="#01192B" stroke-width="0.1806" stroke-linecap="round" stroke-miterlimit="1" x1="70.4" y1="25.8" x2="70.9" y2="24.5"/>
					
						<line fill="none" stroke="#01192B" stroke-width="0.1806" stroke-linecap="round" stroke-miterlimit="1" x1="70.8" y1="19.5" x2="70.2" y2="18.6"/>
					
						<line fill="none" stroke="#01192B" stroke-width="0.1806" stroke-linecap="round" stroke-miterlimit="1" x1="88" y1="36.1" x2="88.7" y2="35.1"/>
					
						<line fill="none" stroke="#01192B" stroke-width="0.1806" stroke-linecap="round" stroke-miterlimit="1" x1="81.1" y1="36.6" x2="81.8" y2="35.8"/>
					
						<line fill="none" stroke="#01192B" stroke-width="0.1806" stroke-linecap="round" stroke-miterlimit="1" x1="74.1" y1="32.9" x2="73.5" y2="32.2"/>
					
						<line fill="none" stroke="#01192B" stroke-width="0.1806" stroke-linecap="round" stroke-miterlimit="1" x1="88.3" y1="28.6" x2="87.3" y2="29.6"/>
					
						<line fill="none" stroke="#01192B" stroke-width="0.1806" stroke-linecap="round" stroke-miterlimit="1" x1="85.9" y1="23.1" x2="87.2" y2="23.5"/>
					
						<line fill="none" stroke="#01192B" stroke-width="0.1806" stroke-linecap="round" stroke-miterlimit="1" x1="83.5" y1="18.9" x2="84.5" y2="18.4"/>
					
						<line fill="none" stroke="#01192B" stroke-width="0.1806" stroke-linecap="round" stroke-miterlimit="1" x1="78.3" y1="20.8" x2="77.5" y2="20"/>
					
						<line fill="none" stroke="#01192B" stroke-width="0.1806" stroke-linecap="round" stroke-miterlimit="1" x1="76.3" y1="21.6" x2="74.8" y2="21.2"/>
					
						<line fill="none" stroke="#01192B" stroke-width="0.1806" stroke-linecap="round" stroke-miterlimit="1" x1="75.9" y1="23.2" x2="74.9" y2="22.5"/>
					
						<line fill="none" stroke="#01192B" stroke-width="0.1806" stroke-linecap="round" stroke-miterlimit="1" x1="82.5" y1="22.7" x2="82" y2="21.6"/>
					
						<line fill="none" stroke="#01192B" stroke-width="0.1806" stroke-linecap="round" stroke-miterlimit="1" x1="85.8" y1="22.2" x2="85.2" y2="21.3"/>
					
						<line fill="none" stroke="#01192B" stroke-width="0.1806" stroke-linecap="round" stroke-miterlimit="1" x1="83" y1="24.5" x2="82.1" y2="23.9"/>
					
						<line fill="none" stroke="#01192B" stroke-width="0.1806" stroke-linecap="round" stroke-miterlimit="1" x1="84.6" y1="30" x2="85.3" y2="29.3"/>
					
						<line fill="none" stroke="#01192B" stroke-width="0.1806" stroke-linecap="round" stroke-miterlimit="1" x1="86.7" y1="34.4" x2="85.7" y2="33.7"/>
					
						<line fill="none" stroke="#01192B" stroke-width="0.1806" stroke-linecap="round" stroke-miterlimit="1" x1="83.1" y1="34.9" x2="82.3" y2="34.4"/>
					
						<line fill="none" stroke="#01192B" stroke-width="0.1806" stroke-linecap="round" stroke-miterlimit="1" x1="84.4" y1="25.1" x2="84.4" y2="26.4"/>
					
						<line fill="none" stroke="#01192B" stroke-width="0.1806" stroke-linecap="round" stroke-miterlimit="1" x1="78.4" y1="25.7" x2="79.2" y2="24.7"/>
					
						<line fill="none" stroke="#01192B" stroke-width="0.1806" stroke-linecap="round" stroke-miterlimit="1" x1="73.1" y1="28.3" x2="73.1" y2="27.2"/>
					
						<line fill="none" stroke="#01192B" stroke-width="0.1806" stroke-linecap="round" stroke-miterlimit="1" x1="77.7" y1="27.8" x2="76.9" y2="27.2"/>
					
						<line fill="none" stroke="#01192B" stroke-width="0.1806" stroke-linecap="round" stroke-miterlimit="1" x1="81.9" y1="27.7" x2="81.1" y2="27.2"/>
					
						<line fill="none" stroke="#01192B" stroke-width="0.1806" stroke-linecap="round" stroke-miterlimit="1" x1="82.4" y1="32.5" x2="82.4" y2="31.5"/>
					
						<line fill="none" stroke="#01192B" stroke-width="0.1806" stroke-linecap="round" stroke-miterlimit="1" x1="80.1" y1="30.4" x2="80.7" y2="31.2"/>
					
						<line fill="none" stroke="#01192B" stroke-width="0.1806" stroke-linecap="round" stroke-miterlimit="1" x1="75.4" y1="30.4" x2="75" y2="29.5"/>
					
						<line fill="none" stroke="#01192B" stroke-width="0.1806" stroke-linecap="round" stroke-miterlimit="1" x1="76.5" y1="33" x2="77" y2="32.3"/>
					
						<line fill="none" stroke="#01192B" stroke-width="0.1806" stroke-linecap="round" stroke-miterlimit="1" x1="79.2" y1="32.5" x2="78.3" y2="32.5"/>
					
						<line fill="none" stroke="#01192B" stroke-width="0.1806" stroke-linecap="round" stroke-miterlimit="1" x1="77.1" y1="16.8" x2="76.7" y2="15.7"/>
					
						<line fill="none" stroke="#01192B" stroke-width="0.1806" stroke-linecap="round" stroke-miterlimit="1" x1="91" y1="22.8" x2="90.6" y2="21.8"/>
					
						<line fill="none" stroke="#01192B" stroke-width="0.1806" stroke-linecap="round" stroke-miterlimit="1" x1="89.5" y1="19.5" x2="88.9" y2="18.6"/>
					
						<line fill="none" stroke="#01192B" stroke-width="0.1806" stroke-linecap="round" stroke-miterlimit="1" x1="67.9" y1="17.9" x2="68.6" y2="17.4"/>
					
						<line fill="none" stroke="#01192B" stroke-width="0.1806" stroke-linecap="round" stroke-miterlimit="1" x1="69" y1="6.9" x2="69.7" y2="7.8"/>
					
						<line fill="none" stroke="#01192B" stroke-width="0.1806" stroke-linecap="round" stroke-miterlimit="1" x1="68.9" y1="13.2" x2="67.8" y2="13.2"/>
					
						<line fill="none" stroke="#01192B" stroke-width="0.1806" stroke-linecap="round" stroke-miterlimit="1" x1="71.7" y1="11.4" x2="70.8" y2="10.6"/>
					
						<line fill="none" stroke="#01192B" stroke-width="0.1806" stroke-linecap="round" stroke-miterlimit="1" x1="70.4" y1="6.7" x2="70.9" y2="5.4"/>
					
						<line fill="none" stroke="#01192B" stroke-width="0.1806" stroke-linecap="round" stroke-miterlimit="1" x1="88" y1="17" x2="88.7" y2="16"/>
					
						<line fill="none" stroke="#01192B" stroke-width="0.1806" stroke-linecap="round" stroke-miterlimit="1" x1="81.1" y1="17.5" x2="81.8" y2="16.7"/>
					
						<line fill="none" stroke="#01192B" stroke-width="0.1806" stroke-linecap="round" stroke-miterlimit="1" x1="74.1" y1="13.8" x2="73.5" y2="13.1"/>
					
						<line fill="none" stroke="#01192B" stroke-width="0.1806" stroke-linecap="round" stroke-miterlimit="1" x1="88.3" y1="9.5" x2="87.3" y2="10.5"/>
					
						<line fill="none" stroke="#01192B" stroke-width="0.1806" stroke-linecap="round" stroke-miterlimit="1" x1="76.6" y1="5.4" x2="75.9" y2="4.8"/>
					
						<line fill="none" stroke="#01192B" stroke-width="0.1806" stroke-linecap="round" stroke-miterlimit="1" x1="87.2" y1="8.9" x2="86.1" y2="8.9"/>
					
						<line fill="none" stroke="#01192B" stroke-width="0.1806" stroke-linecap="round" stroke-miterlimit="1" x1="87.5" y1="13.2" x2="86.5" y2="13.2"/>
					
						<line fill="none" stroke="#01192B" stroke-width="0.1806" stroke-linecap="round" stroke-miterlimit="1" x1="82.8" y1="14.4" x2="83.7" y2="14.4"/>
					
						<line fill="none" stroke="#01192B" stroke-width="0.1806" stroke-linecap="round" stroke-miterlimit="1" x1="84.8" y1="8.6" x2="83.4" y2="9.2"/>
					
						<line fill="none" stroke="#01192B" stroke-width="0.1806" stroke-linecap="round" stroke-miterlimit="1" x1="79.8" y1="5.2" x2="80.7" y2="5.2"/>
					<path fill="none" stroke="#01192B" stroke-width="0.1806" stroke-linecap="round" stroke-miterlimit="1" d="M76.9,8.1"/>
					
						<line fill="none" stroke="#01192B" stroke-width="0.1806" stroke-linecap="round" stroke-miterlimit="1" x1="70.8" y1="38.4" x2="70.2" y2="37.5"/>
					
						<line fill="none" stroke="#01192B" stroke-width="0.1806" stroke-linecap="round" stroke-miterlimit="1" x1="91" y1="28.5" x2="90" y2="28.5"/>
					
						<line fill="none" stroke="#01192B" stroke-width="0.1806" stroke-linecap="round" stroke-miterlimit="1" x1="89.7" y1="27.8" x2="88.7" y2="27.3"/>
					
						<line fill="none" stroke="#01192B" stroke-width="0.1806" stroke-linecap="round" stroke-miterlimit="1" x1="69.7" y1="9.5" x2="68.7" y2="10.5"/>
					
						<line fill="none" stroke="#01192B" stroke-width="0.1806" stroke-linecap="round" stroke-miterlimit="1" x1="73.1" y1="9.2" x2="73.1" y2="8.1"/>
					
						<line fill="none" stroke="#01192B" stroke-width="0.1806" stroke-linecap="round" stroke-miterlimit="1" x1="81.1" y1="10.5" x2="81.8" y2="9.6"/>
					
						<line fill="none" stroke="#01192B" stroke-width="0.1806" stroke-linecap="round" stroke-miterlimit="1" x1="80.2" y1="15.5" x2="81.1" y2="15.1"/>
					
						<line fill="none" stroke="#01192B" stroke-width="0.1806" stroke-linecap="round" stroke-miterlimit="1" x1="73.3" y1="11.8" x2="73.3" y2="10.7"/>
					
						<line fill="none" stroke="#01192B" stroke-width="0.1806" stroke-linecap="round" stroke-miterlimit="1" x1="75.2" y1="15" x2="76" y2="14.5"/>
					
						<line fill="none" stroke="#01192B" stroke-width="0.1806" stroke-linecap="round" stroke-miterlimit="1" x1="78.5" y1="15.3" x2="77.5" y2="14.6"/>
					
						<line fill="none" stroke="#01192B" stroke-width="0.1806" stroke-linecap="round" stroke-miterlimit="1" x1="90.5" y1="11.4" x2="89.4" y2="10.6"/>
					
						<line fill="none" stroke="#01192B" stroke-width="0.1806" stroke-linecap="round" stroke-miterlimit="1" x1="88.9" y1="7" x2="89.4" y2="5.8"/>
					
						<line fill="none" stroke="#01192B" stroke-width="0.1806" stroke-linecap="round" stroke-miterlimit="1" x1="91.8" y1="8.6" x2="92.3" y2="7.6"/>
					
						<line fill="none" stroke="#01192B" stroke-width="0.1806" stroke-linecap="round" stroke-miterlimit="1" x1="77.7" y1="37.7" x2="78.2" y2="36.9"/>
				</g>
			</g>
		</g>
		<g id="图层_5_1_">
			<g opacity="0.6">
				<g>
					
						<line fill="none" stroke="#01192B" stroke-width="0.1806" stroke-linecap="round" stroke-miterlimit="1" x1="122.7" y1="50.3" x2="123.8" y2="50.2"/>
					
						<line fill="none" stroke="#01192B" stroke-width="0.1806" stroke-linecap="round" stroke-miterlimit="1" x1="133.6" y1="54.4" x2="134.7" y2="54.3"/>
					
						<line fill="none" stroke="#01192B" stroke-width="0.1806" stroke-linecap="round" stroke-miterlimit="1" x1="128.4" y1="53.5" x2="128.1" y2="52.5"/>
					
						<line fill="none" stroke="#01192B" stroke-width="0.1806" stroke-linecap="round" stroke-miterlimit="1" x1="138.7" y1="57.1" x2="138.5" y2="56.1"/>
					
						<line fill="none" stroke="#01192B" stroke-width="0.1806" stroke-linecap="round" stroke-miterlimit="1" x1="123.4" y1="41.8" x2="123.3" y2="42.9"/>
					
						<line fill="none" stroke="#01192B" stroke-width="0.1806" stroke-linecap="round" stroke-miterlimit="1" x1="126.1" y1="36.5" x2="125.1" y2="36.5"/>
					
						<line fill="none" stroke="#01192B" stroke-width="0.1806" stroke-linecap="round" stroke-miterlimit="1" x1="138" y1="35.7" x2="139" y2="35.6"/>
					
						<line fill="none" stroke="#01192B" stroke-width="0.1806" stroke-linecap="round" stroke-miterlimit="1" x1="133.2" y1="33.6" x2="133" y2="32.5"/>
					
						<line fill="none" stroke="#01192B" stroke-width="0.1806" stroke-linecap="round" stroke-miterlimit="1" x1="129.6" y1="36" x2="129.7" y2="35"/>
					
						<line fill="none" stroke="#01192B" stroke-width="0.1806" stroke-linecap="round" stroke-miterlimit="1" x1="125.9" y1="42.8" x2="125.4" y2="41.7"/>
					
						<line fill="none" stroke="#01192B" stroke-width="0.1806" stroke-linecap="round" stroke-miterlimit="1" x1="126.6" y1="38" x2="127.6" y2="37"/>
					
						<line fill="none" stroke="#01192B" stroke-width="0.1806" stroke-linecap="round" stroke-miterlimit="1" x1="129.6" y1="32.4" x2="129.4" y2="31.4"/>
					
						<line fill="none" stroke="#01192B" stroke-width="0.1806" stroke-linecap="round" stroke-miterlimit="1" x1="138.4" y1="54.6" x2="139.4" y2="54"/>
					
						<line fill="none" stroke="#01192B" stroke-width="0.1806" stroke-linecap="round" stroke-miterlimit="1" x1="132" y1="52.2" x2="132.9" y2="51.8"/>
					
						<line fill="none" stroke="#01192B" stroke-width="0.1806" stroke-linecap="round" stroke-miterlimit="1" x1="127.1" y1="46" x2="126.8" y2="45"/>
					
						<line fill="none" stroke="#01192B" stroke-width="0.1806" stroke-linecap="round" stroke-miterlimit="1" x1="141.7" y1="48" x2="140.5" y2="48.5"/>
					
						<line fill="none" stroke="#01192B" stroke-width="0.1806" stroke-linecap="round" stroke-miterlimit="1" x1="141.8" y1="42" x2="142.9" y2="42.9"/>
					
						<line fill="none" stroke="#01192B" stroke-width="0.1806" stroke-linecap="round" stroke-miterlimit="1" x1="141.4" y1="37.2" x2="142.5" y2="37.1"/>
					
						<line fill="none" stroke="#01192B" stroke-width="0.1806" stroke-linecap="round" stroke-miterlimit="1" x1="135.9" y1="36.7" x2="135.5" y2="35.7"/>
					
						<line fill="none" stroke="#01192B" stroke-width="0.1806" stroke-linecap="round" stroke-miterlimit="1" x1="133.7" y1="36.6" x2="132.5" y2="35.6"/>
					
						<line fill="none" stroke="#01192B" stroke-width="0.1806" stroke-linecap="round" stroke-miterlimit="1" x1="132.7" y1="38" x2="132.1" y2="36.8"/>
					
						<line fill="none" stroke="#01192B" stroke-width="0.1806" stroke-linecap="round" stroke-miterlimit="1" x1="138.9" y1="40.1" x2="138.9" y2="39"/>
					
						<line fill="none" stroke="#01192B" stroke-width="0.1806" stroke-linecap="round" stroke-miterlimit="1" x1="142.1" y1="41.1" x2="142" y2="40"/>
					
						<line fill="none" stroke="#01192B" stroke-width="0.1806" stroke-linecap="round" stroke-miterlimit="1" x1="138.6" y1="42" x2="138" y2="41.1"/>
					
						<line fill="none" stroke="#01192B" stroke-width="0.1806" stroke-linecap="round" stroke-miterlimit="1" x1="137.8" y1="47.7" x2="138.8" y2="47.4"/>
					
						<line fill="none" stroke="#01192B" stroke-width="0.1806" stroke-linecap="round" stroke-miterlimit="1" x1="137.9" y1="52.6" x2="137.3" y2="51.5"/>
					
						<line fill="none" stroke="#01192B" stroke-width="0.1806" stroke-linecap="round" stroke-miterlimit="1" x1="134.5" y1="51.6" x2="133.9" y2="50.8"/>
					
						<line fill="none" stroke="#01192B" stroke-width="0.1806" stroke-linecap="round" stroke-miterlimit="1" x1="139.6" y1="43.2" x2="139.1" y2="44.3"/>
					
						<line fill="none" stroke="#01192B" stroke-width="0.1806" stroke-linecap="round" stroke-miterlimit="1" x1="133.9" y1="41.2" x2="135" y2="40.6"/>
					
						<line fill="none" stroke="#01192B" stroke-width="0.1806" stroke-linecap="round" stroke-miterlimit="1" x1="128" y1="41.4" x2="128.5" y2="40.3"/>
					
						<line fill="none" stroke="#01192B" stroke-width="0.1806" stroke-linecap="round" stroke-miterlimit="1" x1="132.4" y1="42.9" x2="132" y2="41.9"/>
					
						<line fill="none" stroke="#01192B" stroke-width="0.1806" stroke-linecap="round" stroke-miterlimit="1" x1="136.3" y1="44.5" x2="135.8" y2="43.6"/>
					
						<line fill="none" stroke="#01192B" stroke-width="0.1806" stroke-linecap="round" stroke-miterlimit="1" x1="134.7" y1="49.1" x2="135.2" y2="48.1"/>
					
						<line fill="none" stroke="#01192B" stroke-width="0.1806" stroke-linecap="round" stroke-miterlimit="1" x1="133.6" y1="46.2" x2="133.7" y2="47.1"/>
					
						<line fill="none" stroke="#01192B" stroke-width="0.1806" stroke-linecap="round" stroke-miterlimit="1" x1="129.2" y1="44.2" x2="129.3" y2="43.3"/>
					
						<line fill="none" stroke="#01192B" stroke-width="0.1806" stroke-linecap="round" stroke-miterlimit="1" x1="129.2" y1="47.1" x2="129.9" y2="46.6"/>
					
						<line fill="none" stroke="#01192B" stroke-width="0.1806" stroke-linecap="round" stroke-miterlimit="1" x1="131.8" y1="47.8" x2="131" y2="47.4"/>
					
						<line fill="none" stroke="#01192B" stroke-width="0.1806" stroke-linecap="round" stroke-miterlimit="1" x1="136.4" y1="32.5" x2="136.5" y2="31.4"/>
					
						<line fill="none" stroke="#01192B" stroke-width="0.1806" stroke-linecap="round" stroke-miterlimit="1" x1="146.7" y1="43.8" x2="146.7" y2="42.7"/>
					
						<line fill="none" stroke="#01192B" stroke-width="0.1806" stroke-linecap="round" stroke-miterlimit="1" x1="146.6" y1="40.2" x2="146.5" y2="39.2"/>
					
						<line fill="none" stroke="#01192B" stroke-width="0.1806" stroke-linecap="round" stroke-miterlimit="1" x1="127.7" y1="29.8" x2="128.5" y2="29.6"/>
					
						<line fill="none" stroke="#01192B" stroke-width="0.1806" stroke-linecap="round" stroke-miterlimit="1" x1="133.2" y1="20.2" x2="133.4" y2="21.3"/>
					
						<line fill="none" stroke="#01192B" stroke-width="0.1806" stroke-linecap="round" stroke-miterlimit="1" x1="130.5" y1="25.9" x2="129.5" y2="25.4"/>
					
						<line fill="none" stroke="#01192B" stroke-width="0.1806" stroke-linecap="round" stroke-miterlimit="1" x1="133.8" y1="25.4" x2="133.3" y2="24.3"/>
					
						<line fill="none" stroke="#01192B" stroke-width="0.1806" stroke-linecap="round" stroke-miterlimit="1" x1="134.6" y1="20.6" x2="135.5" y2="19.7"/>
					
						<line fill="none" stroke="#01192B" stroke-width="0.1806" stroke-linecap="round" stroke-miterlimit="1" x1="146.3" y1="37.3" x2="147.3" y2="36.6"/>
					
						<line fill="none" stroke="#01192B" stroke-width="0.1806" stroke-linecap="round" stroke-miterlimit="1" x1="139.9" y1="34.9" x2="140.8" y2="34.4"/>
					
						<line fill="none" stroke="#01192B" stroke-width="0.1806" stroke-linecap="round" stroke-miterlimit="1" x1="135" y1="28.7" x2="134.7" y2="27.7"/>
					
						<line fill="none" stroke="#01192B" stroke-width="0.1806" stroke-linecap="round" stroke-miterlimit="1" x1="149.6" y1="30.6" x2="148.4" y2="31.1"/>
					
						<line fill="none" stroke="#01192B" stroke-width="0.1806" stroke-linecap="round" stroke-miterlimit="1" x1="140.7" y1="22" x2="140.3" y2="21.2"/>
					
						<line fill="none" stroke="#01192B" stroke-width="0.1806" stroke-linecap="round" stroke-miterlimit="1" x1="149" y1="29.5" x2="147.9" y2="29.1"/>
					
						<line fill="none" stroke="#01192B" stroke-width="0.1806" stroke-linecap="round" stroke-miterlimit="1" x1="147.4" y1="33.6" x2="146.5" y2="33.1"/>
					
						<line fill="none" stroke="#01192B" stroke-width="0.1806" stroke-linecap="round" stroke-miterlimit="1" x1="142.6" y1="32.8" x2="143.5" y2="33.2"/>
					
						<line fill="none" stroke="#01192B" stroke-width="0.1806" stroke-linecap="round" stroke-miterlimit="1" x1="146.8" y1="28.2" x2="145.3" y2="28.3"/>
					
						<line fill="none" stroke="#01192B" stroke-width="0.1806" stroke-linecap="round" stroke-miterlimit="1" x1="143.7" y1="23.2" x2="144.5" y2="23.5"/>
					<path fill="none" stroke="#01192B" stroke-width="0.1806" stroke-linecap="round" stroke-miterlimit="1" d="M139.9,24.5"/>
					
						<line fill="none" stroke="#01192B" stroke-width="0.1806" stroke-linecap="round" stroke-miterlimit="1" x1="121.8" y1="49.6" x2="121.6" y2="48.6"/>
					
						<line fill="none" stroke="#01192B" stroke-width="0.1806" stroke-linecap="round" stroke-miterlimit="1" x1="144.3" y1="49" x2="143.3" y2="48.6"/>
					
						<line fill="none" stroke="#01192B" stroke-width="0.1806" stroke-linecap="round" stroke-miterlimit="1" x1="143.3" y1="47.8" x2="142.7" y2="46.9"/>
					
						<line fill="none" stroke="#01192B" stroke-width="0.1806" stroke-linecap="round" stroke-miterlimit="1" x1="132.7" y1="22.9" x2="131.4" y2="23.4"/>
					
						<line fill="none" stroke="#01192B" stroke-width="0.1806" stroke-linecap="round" stroke-miterlimit="1" x1="135.9" y1="24" x2="136.4" y2="23"/>
					
						<line fill="none" stroke="#01192B" stroke-width="0.1806" stroke-linecap="round" stroke-miterlimit="1" x1="142.7" y1="28.5" x2="143.7" y2="28"/>
					
						<line fill="none" stroke="#01192B" stroke-width="0.1806" stroke-linecap="round" stroke-miterlimit="1" x1="139.8" y1="32.7" x2="140.7" y2="32.7"/>
					
						<line fill="none" stroke="#01192B" stroke-width="0.1806" stroke-linecap="round" stroke-miterlimit="1" x1="135" y1="26.4" x2="135.5" y2="25.4"/>
					
						<line fill="none" stroke="#01192B" stroke-width="0.1806" stroke-linecap="round" stroke-miterlimit="1" x1="135.4" y1="30.2" x2="136.4" y2="30.1"/>
					
						<line fill="none" stroke="#01192B" stroke-width="0.1806" stroke-linecap="round" stroke-miterlimit="1" x1="138.3" y1="31.8" x2="137.8" y2="30.8"/>
					
						<line fill="none" stroke="#01192B" stroke-width="0.1806" stroke-linecap="round" stroke-miterlimit="1" x1="150.8" y1="33.2" x2="150.2" y2="32"/>
					
						<line fill="none" stroke="#01192B" stroke-width="0.1806" stroke-linecap="round" stroke-miterlimit="1" x1="151.3" y1="28.6" x2="152.2" y2="27.7"/>
					
						<line fill="none" stroke="#01192B" stroke-width="0.1806" stroke-linecap="round" stroke-miterlimit="1" x1="153.2" y1="31.2" x2="154.1" y2="30.5"/>
					
						<line fill="none" stroke="#01192B" stroke-width="0.1806" stroke-linecap="round" stroke-miterlimit="1" x1="128.4" y1="51.9" x2="129.2" y2="51.3"/>
				</g>
			</g>
		</g>
		<g id="图层_5_2_">
			<g opacity="0.6">
				<g>
					
						<line fill="none" stroke="#01192B" stroke-width="0.1806" stroke-linecap="round" stroke-miterlimit="1" x1="22.4" y1="56.2" x2="23.1" y2="55.3"/>
					
						<line fill="none" stroke="#01192B" stroke-width="0.1806" stroke-linecap="round" stroke-miterlimit="1" x1="32.7" y1="50.8" x2="33.4" y2="50"/>
					
						<line fill="none" stroke="#01192B" stroke-width="0.1806" stroke-linecap="round" stroke-miterlimit="1" x1="28.7" y1="54.1" x2="27.7" y2="53.7"/>
					
						<line fill="none" stroke="#01192B" stroke-width="0.1806" stroke-linecap="round" stroke-miterlimit="1" x1="38.2" y1="48.8" x2="37.3" y2="48.2"/>
					
						<line fill="none" stroke="#01192B" stroke-width="0.1806" stroke-linecap="round" stroke-miterlimit="1" x1="16.6" y1="50" x2="17.4" y2="50.8"/>
					
						<line fill="none" stroke="#01192B" stroke-width="0.1806" stroke-linecap="round" stroke-miterlimit="1" x1="14.3" y1="44.5" x2="13.8" y2="45.3"/>
					
						<line fill="none" stroke="#01192B" stroke-width="0.1806" stroke-linecap="round" stroke-miterlimit="1" x1="21.7" y1="35.1" x2="22.3" y2="34.2"/>
					
						<line fill="none" stroke="#01192B" stroke-width="0.1806" stroke-linecap="round" stroke-miterlimit="1" x1="16.9" y1="37.2" x2="16" y2="36.7"/>
					
						<line fill="none" stroke="#01192B" stroke-width="0.1806" stroke-linecap="round" stroke-miterlimit="1" x1="16.4" y1="41.5" x2="15.6" y2="40.8"/>
					
						<line fill="none" stroke="#01192B" stroke-width="0.1806" stroke-linecap="round" stroke-miterlimit="1" x1="19" y1="48.8" x2="17.8" y2="48.5"/>
					
						<line fill="none" stroke="#01192B" stroke-width="0.1806" stroke-linecap="round" stroke-miterlimit="1" x1="15.9" y1="45.1" x2="15.8" y2="43.7"/>
					
						<line fill="none" stroke="#01192B" stroke-width="0.1806" stroke-linecap="round" stroke-miterlimit="1" x1="13.7" y1="39.2" x2="12.8" y2="38.6"/>
					
						<line fill="none" stroke="#01192B" stroke-width="0.1806" stroke-linecap="round" stroke-miterlimit="1" x1="36.1" y1="47.4" x2="36.3" y2="46.2"/>
					
						<line fill="none" stroke="#01192B" stroke-width="0.1806" stroke-linecap="round" stroke-miterlimit="1" x1="30" y1="50.6" x2="30.3" y2="49.6"/>
					
						<line fill="none" stroke="#01192B" stroke-width="0.1806" stroke-linecap="round" stroke-miterlimit="1" x1="22.1" y1="50.1" x2="21.2" y2="49.7"/>
					
						<line fill="none" stroke="#01192B" stroke-width="0.1806" stroke-linecap="round" stroke-miterlimit="1" x1="33.3" y1="40.5" x2="32.9" y2="41.7"/>
					
						<line fill="none" stroke="#01192B" stroke-width="0.1806" stroke-linecap="round" stroke-miterlimit="1" x1="28.9" y1="36.4" x2="30.3" y2="36.2"/>
					
						<line fill="none" stroke="#01192B" stroke-width="0.1806" stroke-linecap="round" stroke-miterlimit="1" x1="25.1" y1="33.5" x2="25.7" y2="32.7"/>
					
						<line fill="none" stroke="#01192B" stroke-width="0.1806" stroke-linecap="round" stroke-miterlimit="1" x1="21" y1="37.3" x2="20" y2="36.9"/>
					
						<line fill="none" stroke="#01192B" stroke-width="0.1806" stroke-linecap="round" stroke-miterlimit="1" x1="19.5" y1="38.9" x2="18" y2="39.1"/>
					
						<line fill="none" stroke="#01192B" stroke-width="0.1806" stroke-linecap="round" stroke-miterlimit="1" x1="19.9" y1="40.5" x2="18.6" y2="40.2"/>
					
						<line fill="none" stroke="#01192B" stroke-width="0.1806" stroke-linecap="round" stroke-miterlimit="1" x1="25.6" y1="37.3" x2="24.7" y2="36.5"/>
					
						<line fill="none" stroke="#01192B" stroke-width="0.1806" stroke-linecap="round" stroke-miterlimit="1" x1="28.5" y1="35.5" x2="27.6" y2="35"/>
					
						<line fill="none" stroke="#01192B" stroke-width="0.1806" stroke-linecap="round" stroke-miterlimit="1" x1="26.8" y1="38.8" x2="25.8" y2="38.7"/>
					
						<line fill="none" stroke="#01192B" stroke-width="0.1806" stroke-linecap="round" stroke-miterlimit="1" x1="30.5" y1="43.2" x2="30.9" y2="42.3"/>
					
						<line fill="none" stroke="#01192B" stroke-width="0.1806" stroke-linecap="round" stroke-miterlimit="1" x1="34.2" y1="46.4" x2="33.1" y2="46.1"/>
					
						<line fill="none" stroke="#01192B" stroke-width="0.1806" stroke-linecap="round" stroke-miterlimit="1" x1="31.2" y1="48.3" x2="30.2" y2="48.2"/>
					
						<line fill="none" stroke="#01192B" stroke-width="0.1806" stroke-linecap="round" stroke-miterlimit="1" x1="28.3" y1="38.8" x2="28.9" y2="40"/>
					
						<line fill="none" stroke="#01192B" stroke-width="0.1806" stroke-linecap="round" stroke-miterlimit="1" x1="23.1" y1="41.8" x2="23.4" y2="40.6"/>
					
						<line fill="none" stroke="#01192B" stroke-width="0.1806" stroke-linecap="round" stroke-miterlimit="1" x1="19.3" y1="46.3" x2="18.8" y2="45.3"/>
					
						<line fill="none" stroke="#01192B" stroke-width="0.1806" stroke-linecap="round" stroke-miterlimit="1" x1="23.4" y1="44" x2="22.3" y2="43.7"/>
					
						<line fill="none" stroke="#01192B" stroke-width="0.1806" stroke-linecap="round" stroke-miterlimit="1" x1="27.2" y1="42.2" x2="26.1" y2="42"/>
					
						<line fill="none" stroke="#01192B" stroke-width="0.1806" stroke-linecap="round" stroke-miterlimit="1" x1="29.5" y1="46.4" x2="29.1" y2="45.4"/>
					
						<line fill="none" stroke="#01192B" stroke-width="0.1806" stroke-linecap="round" stroke-miterlimit="1" x1="26.6" y1="45.4" x2="27.4" y2="45.9"/>
					
						<line fill="none" stroke="#01192B" stroke-width="0.1806" stroke-linecap="round" stroke-miterlimit="1" x1="22.2" y1="47.3" x2="21.5" y2="46.6"/>
					
						<line fill="none" stroke="#01192B" stroke-width="0.1806" stroke-linecap="round" stroke-miterlimit="1" x1="24.4" y1="49.3" x2="24.5" y2="48.3"/>
					
						<line fill="none" stroke="#01192B" stroke-width="0.1806" stroke-linecap="round" stroke-miterlimit="1" x1="26.6" y1="47.7" x2="25.8" y2="48.1"/>
					
						<line fill="none" stroke="#01192B" stroke-width="0.1806" stroke-linecap="round" stroke-miterlimit="1" x1="18.3" y1="34.2" x2="17.5" y2="33.3"/>
					
						<line fill="none" stroke="#01192B" stroke-width="0.1806" stroke-linecap="round" stroke-miterlimit="1" x1="33.5" y1="34" x2="32.7" y2="33.2"/>
					
						<line fill="none" stroke="#01192B" stroke-width="0.1806" stroke-linecap="round" stroke-miterlimit="1" x1="30.8" y1="31.6" x2="29.9" y2="31.1"/>
					
						<line fill="none" stroke="#01192B" stroke-width="0.1806" stroke-linecap="round" stroke-miterlimit="1" x1="10.4" y1="38.8" x2="10.8" y2="38.1"/>
					
						<line fill="none" stroke="#01192B" stroke-width="0.1806" stroke-linecap="round" stroke-miterlimit="1" x1="6.9" y1="28.4" x2="7.9" y2="28.9"/>
					
						<line fill="none" stroke="#01192B" stroke-width="0.1806" stroke-linecap="round" stroke-miterlimit="1" x1="9.4" y1="34.2" x2="8.4" y2="34.6"/>
					
						<line fill="none" stroke="#01192B" stroke-width="0.1806" stroke-linecap="round" stroke-miterlimit="1" x1="11.2" y1="31.4" x2="10.1" y2="31.1"/>
					
						<line fill="none" stroke="#01192B" stroke-width="0.1806" stroke-linecap="round" stroke-miterlimit="1" x1="8.1" y1="27.6" x2="8" y2="26.3"/>
					
						<line fill="none" stroke="#01192B" stroke-width="0.1806" stroke-linecap="round" stroke-miterlimit="1" x1="28.4" y1="29.9" x2="28.6" y2="28.8"/>
					
						<line fill="none" stroke="#01192B" stroke-width="0.1806" stroke-linecap="round" stroke-miterlimit="1" x1="22.3" y1="33.1" x2="22.6" y2="32.1"/>
					
						<line fill="none" stroke="#01192B" stroke-width="0.1806" stroke-linecap="round" stroke-miterlimit="1" x1="14.4" y1="32.7" x2="13.5" y2="32.2"/>
					
						<line fill="none" stroke="#01192B" stroke-width="0.1806" stroke-linecap="round" stroke-miterlimit="1" x1="25.6" y1="23" x2="25.1" y2="24.3"/>
					
						<line fill="none" stroke="#01192B" stroke-width="0.1806" stroke-linecap="round" stroke-miterlimit="1" x1="13.3" y1="24" x2="12.4" y2="23.7"/>
					
						<line fill="none" stroke="#01192B" stroke-width="0.1806" stroke-linecap="round" stroke-miterlimit="1" x1="24.4" y1="22.8" x2="23.3" y2="23.3"/>
					
						<line fill="none" stroke="#01192B" stroke-width="0.1806" stroke-linecap="round" stroke-miterlimit="1" x1="26.4" y1="26.6" x2="25.4" y2="27"/>
					
						<line fill="none" stroke="#01192B" stroke-width="0.1806" stroke-linecap="round" stroke-miterlimit="1" x1="22.5" y1="29.7" x2="23.4" y2="29.3"/>
					
						<line fill="none" stroke="#01192B" stroke-width="0.1806" stroke-linecap="round" stroke-miterlimit="1" x1="22" y1="23.5" x2="21.1" y2="24.7"/>
					
						<line fill="none" stroke="#01192B" stroke-width="0.1806" stroke-linecap="round" stroke-miterlimit="1" x1="16.1" y1="22.5" x2="16.9" y2="22.1"/>
					<path fill="none" stroke="#01192B" stroke-width="0.1806" stroke-linecap="round" stroke-miterlimit="1" d="M14.6,26.3"/>
					
						<line fill="none" stroke="#01192B" stroke-width="0.1806" stroke-linecap="round" stroke-miterlimit="1" x1="21.3" y1="56.5" x2="20.4" y2="55.9"/>
					
						<line fill="none" stroke="#01192B" stroke-width="0.1806" stroke-linecap="round" stroke-miterlimit="1" x1="35.8" y1="39.2" x2="34.9" y2="39.7"/>
					
						<line fill="none" stroke="#01192B" stroke-width="0.1806" stroke-linecap="round" stroke-miterlimit="1" x1="34.3" y1="39.2" x2="33.2" y2="39"/>
					
						<line fill="none" stroke="#01192B" stroke-width="0.1806" stroke-linecap="round" stroke-miterlimit="1" x1="8.6" y1="30.5" x2="8.1" y2="31.8"/>
					
						<line fill="none" stroke="#01192B" stroke-width="0.1806" stroke-linecap="round" stroke-miterlimit="1" x1="11.6" y1="28.9" x2="11.1" y2="27.8"/>
					
						<line fill="none" stroke="#01192B" stroke-width="0.1806" stroke-linecap="round" stroke-miterlimit="1" x1="19.5" y1="26.8" x2="19.7" y2="25.7"/>
					
						<line fill="none" stroke="#01192B" stroke-width="0.1806" stroke-linecap="round" stroke-miterlimit="1" x1="20.6" y1="31.7" x2="21.3" y2="31"/>
					
						<line fill="none" stroke="#01192B" stroke-width="0.1806" stroke-linecap="round" stroke-miterlimit="1" x1="12.8" y1="31.1" x2="12.4" y2="30.2"/>
					
						<line fill="none" stroke="#01192B" stroke-width="0.1806" stroke-linecap="round" stroke-miterlimit="1" x1="15.8" y1="33.3" x2="16.4" y2="32.5"/>
					
						<line fill="none" stroke="#01192B" stroke-width="0.1806" stroke-linecap="round" stroke-miterlimit="1" x1="19" y1="32.2" x2="17.9" y2="32"/>
					
						<line fill="none" stroke="#01192B" stroke-width="0.1806" stroke-linecap="round" stroke-miterlimit="1" x1="28.4" y1="23.8" x2="27.1" y2="23.5"/>
					
						<line fill="none" stroke="#01192B" stroke-width="0.1806" stroke-linecap="round" stroke-miterlimit="1" x1="25.2" y1="20.4" x2="25.1" y2="19.1"/>
					
						<line fill="none" stroke="#01192B" stroke-width="0.1806" stroke-linecap="round" stroke-miterlimit="1" x1="28.4" y1="20.7" x2="28.5" y2="19.6"/>
					
						<line fill="none" stroke="#01192B" stroke-width="0.1806" stroke-linecap="round" stroke-miterlimit="1" x1="27.4" y1="53" x2="27.5" y2="52.1"/>
				</g>
			</g>
		</g>
	</g>
</g>
</svg>
