<?xml version="1.0" encoding="utf-8"?>
<!-- Generator: Adobe Illustrator 16.0.0, SVG Export Plug-In . SVG Version: 6.00 Build 0)  -->
<!DOCTYPE svg PUBLIC "-//W3C//DTD SVG 1.1//EN" "http://www.w3.org/Graphics/SVG/1.1/DTD/svg11.dtd">
<svg version="1.1" id="图层_1" xmlns="http://www.w3.org/2000/svg" xmlns:xlink="http://www.w3.org/1999/xlink" x="0px" y="0px"
	 width="40px" height="40px" viewBox="0 0 40 40" enable-background="new 0 0 40 40" xml:space="preserve">
<path fill="#4C4C4C" d="M21.5,15c-0.008,0-0.016,0.001-0.023,0.001v1c0.008,0,0.016-0.001,0.023-0.001c6.066,0,11,4.936,11,11
	c0,0.02,0,0.037,0,0.057C30.17,23.335,26.076,21,21.5,21c-0.008,0-0.016,0.001-0.023,0.001v1c0.008,0,0.016-0.001,0.023-0.001
	c5.41,0,9.98,3.581,11.479,8.5c0.338-1.107,0.521-2.282,0.521-3.5C33.5,20.373,28.127,15,21.5,15z"/>
<polygon fill="#4C4C4C" points="21.5,21.125 21.5,25.79 8.541,18.5 21.5,11.21 21.5,16.001 22.5,16.001 22.5,9.5 6.5,18.5 
	22.5,27.5 22.5,21.125 "/>
</svg>
