<?xml version="1.0" standalone="no"?>
<!DOCTYPE svg PUBLIC "-//W3C//DTD SVG 1.1//EN" "http://www.w3.org/Graphics/SVG/1.1/DTD/svg11.dtd">
<svg width="20" height="20" viewBox="0 0 200 200" version="1.1" xmlns="http://www.w3.org/2000/svg" xmlns:xlink="http://www.w3.org/1999/xlink">
    <g class="transform-group">
        <g transform="scale(0.1953125, 0.1953125)">
            <path d="M513.024 304.64m-265.728 0a129.75 129.75 0 1 0 531.456 0 129.75 129.75 0 1 0-531.456 0ZM77.312 1003.52c0-249.96864 195.074048-432.128 435.712-432.128 240.637952 0 435.712 182.15936 435.712 432.128M97.792 1001.814016c0.256 12.201984-8.921088 20.310016-20.137984 20.310016s-20.916224-8.54016-20.916224-19.755008 9.699328-20.865024 20.916224-20.865024S97.792 990.59712 97.792 1001.814016zM969.216 1001.631744c0.352256 11.231232-7.897088 20.492288-19.116032 20.492288-11.216896 0-21.907456-7.899136-21.907456-19.116032s10.692608-21.504 21.907456-21.504C961.318912 981.504 969.216 990.416896 969.216 1001.631744z" fill="#555"></path>
        </g>
    </g>
</svg>