<?xml version="1.0" encoding="utf-8"?>
<!-- Generator: Adobe Illustrator 21.0.0, SVG Export Plug-In . SVG Version: 6.00 Build 0)  -->
<svg version="1.1" id="图层_1" xmlns="http://www.w3.org/2000/svg" xmlns:xlink="http://www.w3.org/1999/xlink" x="0px" y="0px" width="160" height="268"
	 viewBox="0 0 160 268" style="enable-background:new 0 0 160 268;" xml:space="preserve">
<style type="text/css">
	.st33{fill:url(#SVGID_21_); stroke:none}
	.st34{fill:url(#SVGID_22_); stroke:#4c4c4c}
	.st35{fill:none;stroke:#000000;stroke-width:0.1439;}
	.st36{fill:none;stroke:#000000;stroke-width:0.2117;}
</style>
<g id="图层_11">
	<g>
		
			<linearGradient id="SVGID_21_" gradientUnits="userSpaceOnUse" x1="-79.3536" y1="164.7569" x2="79.8723" y2="6.45">
			<stop  offset="0.1828" style="stop-color:#99FFFF;stop-opacity:0.1"/>
			<stop  offset="0.5834" style="stop-color:#45C6FF;stop-opacity:0.2113"/>
			<stop  offset="0.9028" style="stop-color:#0097FF;stop-opacity:0.3"/>
		</linearGradient>
		<path class="st33" d="M31,220.3c-8.2,45.1,24.7,45.9,47.8,45.9c22.6,0,56.8,3.3,50.2-43.3c0,0-3.4-26.4-31.9-55
			c-2.6-2.6-5.7-7.8-7.3-12.1c-2.8-7.9-1.2-24.4-1.8-28.5c-0.2-1.5-6.5-2-8.6-2c-3.6,0-8.5,0.6-8.9,2c-0.3,3.1,1,22.5-1.6,29
			c-1.9,5.6-5.2,9.7-9.1,14.1C34.9,196.9,31.2,217.8,31,220.3z"/>
	</g>
	
		<radialGradient id="SVGID_22_" cx="795.3774" cy="-531.4966" r="13.5172" gradientTransform="matrix(0.4591 0 0 -0.2697 -285.6078 -16.0944)" gradientUnits="userSpaceOnUse">
		<stop  offset="0.2849" style="stop-color:#99FFFF;stop-opacity:0.1"/>
		<stop  offset="1" style="stop-color:#0097FF;stop-opacity:0.1"/>
	</radialGradient>
	<path class="st34" d="M88.2,127.3c0,1.1-3.9,2-8.7,2s-8.6-0.9-8.6-2c0-1.1,3.8-2,8.6-2S88.2,126.1,88.2,127.3z"/>
	<g id="Spline_10_">
		<line shape-rendering="auto" class="st35" x1="86.3" y1="25.7" x2="86.6" y2="26.6"/>
		<line shape-rendering="auto" class="st35" x1="86.5" y1="20.5" x2="85.8" y2="21"/>
		<line shape-rendering="auto" class="st35" x1="84.5" y1="15.5" x2="85.5" y2="15.5"/>
		<line shape-rendering="auto" class="st35" x1="71.1" y1="28.4" x2="70.4" y2="28.9"/>
		<line shape-rendering="auto" class="st35" x1="84.5" y1="31.9" x2="85.5" y2="31.9"/>
		<line shape-rendering="auto" class="st35" x1="75.8" y1="14.5" x2="74.8" y2="14.2"/>
		<line shape-rendering="auto" class="st35" x1="75.3" y1="32" x2="74.8" y2="31.3"/>
		<line shape-rendering="auto" class="st35" x1="79.7" y1="32.1" x2="80.4" y2="31.5"/>
		<line shape-rendering="auto" class="st35" x1="72.3" y1="23.4" x2="71.6" y2="22.9"/>
		<line shape-rendering="auto" class="st35" x1="88.7" y1="30.4" x2="87.8" y2="30.4"/>
		<line shape-rendering="auto" class="st35" x1="80.5" y1="17.1" x2="79.5" y2="16.7"/>
		<line shape-rendering="auto" class="st35" x1="70.7" y1="21.7" x2="71.2" y2="22.5"/>
		<line shape-rendering="auto" class="st35" x1="76.2" y1="15.4" x2="77" y2="14.8"/>
		<line shape-rendering="auto" class="st35" x1="73.5" y1="23.9" x2="72.6" y2="23.9"/>
		<line shape-rendering="auto" class="st35" x1="74.7" y1="17.1" x2="73.7" y2="17.5"/>
		<line shape-rendering="auto" class="st35" x1="75" y1="28.5" x2="74.2" y2="28.5"/>
		<line shape-rendering="auto" class="st35" x1="80.5" y1="33.3" x2="79.5" y2="32.9"/>
		<line shape-rendering="auto" class="st35" x1="74.8" y1="20.5" x2="74" y2="19.4"/>
		<line shape-rendering="auto" class="st35" x1="78.8" y1="18.9" x2="78.1" y2="18.5"/>
		<line shape-rendering="auto" class="st35" x1="85.2" y1="17.3" x2="84.6" y2="16.5"/>
		<line shape-rendering="auto" class="st35" x1="79.9" y1="18.9" x2="80.4" y2="19.5"/>
		<line shape-rendering="auto" class="st35" x1="73.5" y1="14.5" x2="72.6" y2="14.5"/>
		<line shape-rendering="auto" class="st35" x1="85.9" y1="23.4" x2="85" y2="23.4"/>
		<line shape-rendering="auto" class="st35" x1="86.1" y1="27.1" x2="85.3" y2="27.1"/>
		<line shape-rendering="auto" class="st35" x1="82.2" y1="28.3" x2="83" y2="28.3"/>
		<line shape-rendering="auto" class="st35" x1="83.8" y1="23.2" x2="82.7" y2="23.8"/>
		<line shape-rendering="auto" class="st35" x1="79.7" y1="20.2" x2="80.4" y2="20.2"/>
		<line shape-rendering="auto" class="st35" x1="75.9" y1="20.4" x2="75.9" y2="21.2"/>
		<line shape-rendering="auto" class="st35" x1="76.5" y1="22.5" x2="75.7" y2="23.4"/>
		<line shape-rendering="auto" class="st35" x1="80.4" y1="22.1" x2="80.4" y2="21.3"/>
		<line shape-rendering="auto" class="st35" x1="82.5" y1="25.6" x2="82" y2="25"/>
		<line shape-rendering="auto" class="st35" x1="80.1" y1="27.4" x2="80.6" y2="28.1"/>
		<line shape-rendering="auto" class="st35" x1="77.2" y1="24.5" x2="78.1" y2="24.9"/>
		<line shape-rendering="auto" class="st35" x1="76.5" y1="26.4" x2="75.7" y2="26.4"/>
		<line shape-rendering="auto" class="st35" x1="78.6" y1="25.8" x2="78.1" y2="26.4"/>
		<line shape-rendering="auto" class="st35" x1="74.9" y1="13.7" x2="75.3" y2="12.8"/>
		<line shape-rendering="auto" class="st35" x1="89.1" y1="14.5" x2="88.3" y2="14.5"/>
		<line shape-rendering="auto" class="st35" x1="87.8" y1="17.2" x2="87.1" y2="17.9"/>
		<line shape-rendering="auto" class="st35" x1="71" y1="14" x2="71.6" y2="13.1"/>
		<line shape-rendering="auto" class="st35" x1="70.7" y1="9.2" x2="71.1" y2="10.1"/>
		<line shape-rendering="auto" class="st35" x1="70.3" y1="9.3" x2="69.7" y2="9.8"/>
		<line shape-rendering="auto" class="st35" x1="72.2" y1="17.2" x2="71.5" y2="17.9"/>
		<line shape-rendering="auto" class="st35" x1="73.5" y1="7.4" x2="72.6" y2="7.4"/>
		<line shape-rendering="auto" class="st35" x1="72.3" y1="6.8" x2="71.6" y2="6.4"/>
		<line shape-rendering="auto" class="st35" x1="73.9" y1="13.8" x2="73.2" y2="13.1"/>
		<line shape-rendering="auto" class="st35" x1="83.3" y1="14.1" x2="83.9" y2="14.6"/>
		<line shape-rendering="auto" class="st35" x1="75" y1="12" x2="74.2" y2="12"/>
		<line shape-rendering="auto" class="st35" x1="73.9" y1="30.3" x2="73.2" y2="29.6"/>
		<line shape-rendering="auto" class="st35" x1="86.3" y1="9.2" x2="86.6" y2="10.1"/>
		<line shape-rendering="auto" class="st35" x1="86.5" y1="4" x2="85.8" y2="4.5"/>
		<line shape-rendering="auto" class="st35" x1="84.9" y1="4.5" x2="84.4" y2="5.3"/>
		<line shape-rendering="auto" class="st35" x1="85.5" y1="9.4" x2="84.9" y2="9.9"/>
		<line shape-rendering="auto" class="st35" x1="83.8" y1="13.2" x2="84.3" y2="12.4"/>
		<line shape-rendering="auto" class="st35" x1="83.9" y1="10.7" x2="83.2" y2="10.2"/>
		<line shape-rendering="auto" class="st35" x1="81.8" y1="5.6" x2="82.4" y2="4.7"/>
		<line shape-rendering="auto" class="st35" x1="76.5" y1="6" x2="75.7" y2="6.9"/>
		<line shape-rendering="auto" class="st35" x1="80.4" y1="5.6" x2="80.4" y2="4.8"/>
		<line shape-rendering="auto" class="st35" x1="77.4" y1="30.1" x2="77.1" y2="29.2"/>
		<line shape-rendering="auto" class="st35" x1="87.5" y1="26.8" x2="88.3" y2="26"/>
		<line shape-rendering="auto" class="st35" x1="87.3" y1="19.9" x2="87.3" y2="19"/>
		<line shape-rendering="auto" class="st35" x1="76.5" y1="4.6" x2="77" y2="5.3"/>
		<line shape-rendering="auto" class="st35" x1="81.4" y1="6.7" x2="80.7" y2="6.2"/>
		<line shape-rendering="auto" class="st35" x1="83.3" y1="30.6" x2="83.9" y2="31.2"/>
		<line shape-rendering="auto" class="st35" x1="81.8" y1="10.9" x2="81.8" y2="10"/>
		<line shape-rendering="auto" class="st35" x1="80" y1="9" x2="80.4" y2="9.7"/>
		<line shape-rendering="auto" class="st35" x1="76" y1="9" x2="75.7" y2="8.3"/>
		<line shape-rendering="auto" class="st35" x1="77" y1="11.3" x2="77.3" y2="10.6"/>
		<line shape-rendering="auto" class="st35" x1="79.2" y1="10.9" x2="78.5" y2="10.9"/>
		<line shape-rendering="auto" class="st35" x1="89.1" y1="7.4" x2="88.2" y2="7.4"/>
		<line shape-rendering="auto" class="st35" x1="88" y1="6.8" x2="87.2" y2="6.4"/>
		<line shape-rendering="auto" class="st35" x1="89.5" y1="13.8" x2="88.8" y2="13.1"/>
		<path stroke="#000000" fill="#000000" stroke-width="0.5324" d="M100,169.9c-10.4-11-10.8-19.5-10.8-27.8s0-100.5,0-103s1.7-2.4,1.7-4.1c0-0.4-0.4-2.1-1.6-3.1l1.2-23.6c0,0,0-0.7,0.4-1
			C91.5,6.9,92,6.5,92,6.1c0-1.6-5.5-2.8-12.4-2.8S67.2,4.6,67.2,6.2c0,0.4,0.4,0.8,1.1,1.2c0.3,0.2,0.3,0.8,0.3,0.8l1.3,23.4
			c-1.2,1-1.8,2.7-1.8,3.2c0,2.4,1.4,2.4,1.4,4.3c0,1.9,0.3,103,0.3,103c0,8.2,0,16.8-10.5,27.8c-2,2.1-30.5,31-30.5,61.9
			c0,32.5,23,35.2,51,35.2s50.9-2.7,50.9-35.2C130.7,200.9,102,172,100,169.9z M79.5,4.4c3.9,0,6.9,0.4,8.8,0.9
			c-1.6,0.5-4.8,0.8-8.6,0.8c-3.9,0-7.3-0.4-8.8-0.9C72.9,4.8,75.7,4.4,79.5,4.4z M68.3,6.2C68.5,6,69,5.8,69.6,5.6
			c1.2,1,4.6,1.5,10.2,1.5c5.3,0,8.6-0.5,10-1.4c0.5,0.2,0.8,0.4,1,0.5c-0.1,0.1-0.2,0.2-0.5,0.4c-0.5,0.3-0.7,0.8-0.7,1.2
			C87.5,8.5,83.6,9,79.2,9c-4,0-7.5-0.4-9.6-1.1V7.8c0-0.4-0.2-1.1-0.8-1.5C68.6,6.3,68.4,6.2,68.3,6.2z M69.7,8.9c0,0,0-0.5,0-0.8
			c2.2,0.6,5.6,1.1,9.6,1.1c4.4,0,8.2-0.5,10.3-1.3c0,0,0,0,0,0.1l-0.1,1.8l-1.1,21.3c-1.5-0.9-4.9-1.6-8.8-1.6
			c-3.8,0-7.1,0.6-8.7,1.5L69.7,8.9z M88.3,31.5v0.6c-1.4,0.6-4.4,1.2-8.5,1.2c-4.4,0-7.5-0.7-8.8-1.3v-0.6c1.2-0.8,4.3-1.5,8.6-1.5
			C84.1,29.9,87.2,30.7,88.3,31.5z M115.3,260.7c-8.6,4.4-20.4,5.3-35.5,5.3c-27.4,0-50-2.6-50-34.2c0-27.6,21.7-52.3,28.8-59.7
			l1.9-2.1c10.3-11.1,10.4-19.4,10.4-27.8v-0.1c0-1-0.5-101.1-0.5-103c0-1.2-0.2-1.9-0.5-2.4s-0.6-0.9-0.6-1.9c0-0.3,0.3-1.3,1-2.1
			c1.7,0.9,5.3,1.6,9.5,1.6c3.9,0,7.3-0.6,9.1-1.4c0.7,0.7,1,1.8,1,2.1c0,0.4-0.1,0.5-0.5,0.9c-0.5,0.6-1.2,1.4-1.2,3.2v103
			c0,9.2,0.8,17.6,11.1,28.5l0.2,0.2c7.1,7.3,30.1,33.5,30.1,60.9C129.7,246.4,125.1,255.6,115.3,260.7z"/>
	</g>
</g>

</svg>
