<?xml version="1.0" encoding="UTF-8"?>
<svg width="21px" height="24px" viewBox="0 0 21 24" version="1.1" xmlns="http://www.w3.org/2000/svg" xmlns:xlink="http://www.w3.org/1999/xlink">
    <!-- Generator: Sketch 50 (54983) - http://www.bohemiancoding.com/sketch -->
    <title>曲线</title>
    <desc>Created with Sketch.</desc>
    <defs></defs>
    <g id="Page-1" stroke="none" stroke-width="1" fill="none" fill-rule="evenodd">
        <path d="M-0.113948122,2.5609647 L0.593158659,3.26807148 C0.00365348053,3.85757666 -0.0255350182,4.76954488 0.505158659,5.3009647 C1.03686333,5.83266937 1.94748555,5.80328706 2.53827844,5.21173828 C3.50982082,4.24143988 5.05284627,4.19165231 5.98515866,5.1239647 C6.91742953,6.05623557 6.86766029,7.59908197 5.8969321,8.5722979 C5.30650232,9.16197169 5.27686437,10.0733961 5.80815866,10.6039647 C6.33942648,11.1352325 7.25119598,11.1058206 7.84127844,10.5157383 C8.81261351,9.54564692 10.3566443,9.49545036 11.2883999,10.4272061 C12.2207851,11.3608651 12.17138,12.9040938 11.2003848,13.8738452 C10.6096502,14.4653361 10.5804939,15.3762999 11.1121587,15.9079647 C11.6428156,16.4386217 12.5556022,16.4094144 13.1448255,15.8201913 C14.1151849,14.8485878 15.6595736,14.7983796 16.5921587,15.7309647 C17.523673,16.6624791 17.4734764,18.2065099 16.5031587,19.1780715 C15.9133028,19.7679274 15.8838908,20.6796969 16.4151587,21.2109647 C16.9464497,21.7422557 17.8573972,21.7128629 18.4480519,21.1229647 C19.4196492,20.1513674 20.9630357,20.1015682 21.8953999,21.0352061 L21.1878106,21.7418301 C20.6565709,21.2098646 19.7459843,21.2392458 19.1549321,21.8302979 C18.1833897,22.8005963 16.6403643,22.8503839 15.7080519,21.9180715 C14.7756947,20.9857143 14.8255078,19.4415088 15.7958255,18.4711913 C16.3858143,17.880446 16.4154624,16.968482 15.8850519,16.4380715 C15.3537121,15.9067318 14.4421058,15.9363681 13.8521587,16.5270715 C12.8819446,17.4972855 11.3367103,17.5467299 10.4050519,16.6150715 C9.47245364,15.6824732 9.5218407,14.1394193 10.4932784,13.1667383 C11.0835399,12.5772326 11.112698,11.6664441 10.5810519,11.1340715 C10.0506414,10.603661 9.13867736,10.633309 8.54815866,11.2230715 C7.57761456,12.1936156 6.03340906,12.2434287 5.10129362,11.3113131 C4.1684116,10.3797055 4.21863839,8.83513423 5.18959948,7.86541769 C5.77998362,7.27351974 5.80937476,6.36239436 5.27805188,5.83107148 C4.74676085,5.29978045 3.8358133,5.32917327 3.24538479,5.91884521 C2.2743345,6.89113884 0.73091937,6.94093898 -0.202189702,6.00782974 C-1.13354845,5.0751969 -1.08412948,3.53114606 -0.113948122,2.5609647 Z" id="曲线" fill="#000000" fill-rule="nonzero" transform="translate(10.511660, 12.574780) rotate(11.000000) translate(-10.511660, -12.574780) "></path>
    </g>
</svg>