<?xml version="1.0" encoding="utf-8"?>
<!-- Generator: Adobe Illustrator 17.0.0, SVG Export Plug-In . SVG Version: 6.00 Build 0)  -->
<!DOCTYPE svg PUBLIC "-//W3C//DTD SVG 1.1//EN" "http://www.w3.org/Graphics/SVG/1.1/DTD/svg11.dtd">
<svg version="1.1" xmlns="http://www.w3.org/2000/svg" xmlns:xlink="http://www.w3.org/1999/xlink" x="0px" y="0px" width="44px"
	 height="44px" viewBox="0 0 40 40" enable-background="new 0 0 40 40" xml:space="preserve">
<g id="x_top_20_x25_">
	<g>
		<path fill="#4C4C4C" d="M25.2,20c0.1-0.5,0.3-1,0.5-1.4c0.3-0.4,0.7-0.8,1.2-1.2l1.1-0.9c0.6-0.5,1.1-1,1.3-1.5c0.2-0.5,0.3-1,0.3-1.6
			c0-0.9-0.3-1.6-0.8-2.1c-0.5-0.4-1.1-0.6-1.8-0.6c-0.9,0-1.6,0.3-2.1,0.8c-0.5,0.6-0.7,1.3-0.7,2.4h0.9c0.1-1.6,0.7-2.5,1.9-2.5
			c0.5,0,1,0.2,1.3,0.5c0.3,0.4,0.5,0.9,0.5,1.5c0,0.5-0.1,0.9-0.3,1.3c-0.2,0.4-0.6,0.8-1.1,1.2l-1.1,0.9c-0.7,0.6-1.3,1.2-1.6,1.8
			c-0.4,0.6-0.5,1.4-0.5,2.2h5.6V20H25.2z"/>
		<polygon fill="#4C4C4C" points="21.9,15 20.7,15 16.2,21.2 11.7,15 10.4,15 15.6,22 10.2,29.4 11.4,29.4 16.2,22.9 21,29.4
			22.2,29.4 16.8,22 		"/>
	</g>
</g>
</svg>
