<?xml version="1.0" encoding="utf-8"?>
<!-- Generator: Adobe Illustrator 17.0.0, SVG Export Plug-In . SVG Version: 6.00 Build 0)  -->
<!DOCTYPE svg PUBLIC "-//W3C//DTD SVG 1.1//EN" "http://www.w3.org/Graphics/SVG/1.1/DTD/svg11.dtd">
<svg version="1.1" xmlns="http://www.w3.org/2000/svg" xmlns:xlink="http://www.w3.org/1999/xlink" x="0px" y="0px" width="44px"
	 height="44px" viewBox="0 0 40 40" enable-background="new 0 0 40 40" xml:space="preserve">
	<g id="x_top_2_x5F_复制_4">
	<g>
		<path fill="#4C4C4C" d="M25.1,28.7c0.1-0.5,0.3-1,0.5-1.4c0.3-0.4,0.7-0.8,1.2-1.2l1.1-0.9c0.6-0.5,1.1-1,1.3-1.5
			c0.2-0.5,0.3-1,0.3-1.6c0-0.9-0.3-1.6-0.8-2.1c-0.5-0.4-1.1-0.6-1.8-0.6c-0.9,0-1.6,0.3-2.1,0.8c-0.5,0.6-0.7,1.3-0.7,2.4h0.9
			c0.1-1.6,0.7-2.5,1.9-2.5c0.5,0,1,0.2,1.3,0.5c0.3,0.4,0.5,0.9,0.5,1.5c0,0.5-0.1,0.9-0.3,1.3c-0.2,0.4-0.6,0.8-1.1,1.2l-1.1,0.9
			c-0.7,0.6-1.3,1.2-1.6,1.8c-0.4,0.6-0.5,1.4-0.5,2.2h5.6v-0.8H25.1z"/>
		<polygon fill="#4C4C4C" points="22,10.6 20.7,10.6 16.2,16.7 11.7,10.6 10.5,10.6 15.6,17.6 10.2,25 11.4,25 16.2,18.4 21,25
			22.3,25 16.9,17.6 		"/>
	</g>
</g>
</svg>
