<?xml version="1.0" standalone="no"?><!DOCTYPE svg PUBLIC "-//W3C//DTD SVG 1.1//EN"
        "http://www.w3.org/Graphics/SVG/1.1/DTD/svg11.dtd">
<svg t="1492480516561" class="icon" style="position:relative;top:1px;left:1px;" viewBox="0 0 1024 1024" version="1.1" xmlns="http://www.w3.org/2000/svg"
     p-id="1011" xmlns:xlink="http://www.w3.org/1999/xlink" width="40" height="40">
    <path fill="#4C4C4C" d="M1000.101578 1008.7555c-17.941201 17.941201-14.582976 21.299425-32.524176 3.312222l-244.092333-244.092334A434.913102 434.913102 0 0 1 438.542002 874.058487 437.029243 437.029243 0 0 1 1.512759 437.029243 437.029243 437.029243 0 0 1 438.542002 0a437.029243 437.029243 0 0 1 334.672394 717.878036L1013.58048 966.064643c17.987204 17.941201 4.508302 24.703653-13.478902 42.690857zM829.568167 437.029243a391.026165 391.026165 0 1 0-782.098333 0.046003A391.026165 391.026165 0 0 0 829.568167 437.029243z m-207.013852 23.00154H461.543541v161.010773a23.001539 23.001539 0 0 1-46.003078 0V460.030783H254.529689a23.001539 23.001539 0 0 1 0-46.003079H415.540463V253.01693a23.001539 23.001539 0 0 1 46.003078 0V414.027704h161.010774a23.001539 23.001539 0 0 1 0 46.003079z"
          p-id="1012"></path>
</svg>