<?xml version="1.0" standalone="no"?><!DOCTYPE svg PUBLIC "-//W3C//DTD SVG 1.1//EN"
        "http://www.w3.org/Graphics/SVG/1.1/DTD/svg11.dtd">
<svg t="1492480731690" class="icon" style="position:relative;top:1px;left:1px;" viewBox="0 0 1024 1024" version="1.1" xmlns="http://www.w3.org/2000/svg"
     p-id="3327" xmlns:xlink="http://www.w3.org/1999/xlink" width="40" height="40">

    <path fill="#4C4C4C" d="M645.410613 421.592885 232.310982 421.592885c-9.516538 0-17.191166 7.674628-17.191166 17.191166 0 9.516538 7.674628 17.191166 17.191166 17.191166l412.997302 0c9.516538 0 17.191166-7.674628 17.191166-17.191166C662.601779 429.369841 654.824823 421.592885 645.410613 421.592885z"
          p-id="3328"></path>
    <path fill="#4C4C4C" d="M1018.909164 994.529429l-257.867493-257.867493c72.346158-78.281203 116.552014-182.860797 116.552014-297.877885C877.696013 196.470471 681.225542 0 438.809633 0S0.025582 196.470471 0.025582 438.784051s196.470471 438.784051 438.784051 438.784051c115.017088 0 219.596682-44.205856 297.877885-116.552014l257.867493 257.867493c6.753672 6.753672 17.60048 6.753672 24.354152 0C1025.662836 1012.129909 1025.662836 1001.283102 1018.909164 994.529429zM438.809633 843.288098c-223.382832 0-404.401719-181.018887-404.401719-404.401719S215.52913 34.382332 438.809633 34.382332s404.401719 181.018887 404.401719 404.401719S662.192465 843.288098 438.809633 843.288098z"
          p-id="3329"></path>
</svg>