<svg xmlns="http://www.w3.org/2000/svg" xmlns:xlink="http://www.w3.org/1999/xlink" viewbox="0 0 128 128" width="128" height="128"><defs><style>.cls-1{isolation:isolate;stroke:none;}.cls-2{fill:url(#未命名的渐变_94);stroke:none;}.cls-3,.cls-50{fill:#c9e7f9;stroke:none;}.cls-4{fill:#dcf2fd;stroke:none;}.cls-5{fill:#662d91;stroke:none;}.cls-6{fill:#906cbc;stroke:none;}.cls-7{fill:#803fbc;stroke:none;}.cls-8{fill:#000050;stroke:none;}.cls-9{fill:#1a3879;stroke:none;}.cls-10{fill:url(#未命名的渐变_11);stroke:none;}.cls-11{fill:#d564ff;stroke:none;}.cls-12{fill:#8c32c3;stroke:none;}.cls-13{fill:url(#未命名的渐变_11-2);stroke:none;}.cls-14{fill:url(#未命名的渐变_11-3);stroke:none;}.cls-15{fill:url(#未命名的渐变_11-4);stroke:none;}.cls-16{fill:url(#未命名的渐变_11-5);stroke:none;}.cls-17{fill:url(#未命名的渐变_11-6);stroke:none;}.cls-18{fill:url(#未命名的渐变_11-7);stroke:none;}.cls-19{fill:url(#未命名的渐变_11-8);stroke:none;}.cls-20{fill:url(#未命名的渐变_11-9);stroke:none;}.cls-21{fill:url(#未命名的渐变_11-10);stroke:none;}.cls-22{fill:url(#未命名的渐变_11-11);stroke:none;}.cls-23{fill:url(#未命名的渐变_11-12);stroke:none;}.cls-24{fill:url(#未命名的渐变_11-13);stroke:none;}.cls-25{fill:url(#未命名的渐变_11-14);stroke:none;}.cls-26{fill:url(#未命名的渐变_11-15);stroke:none;}.cls-27{fill:url(#未命名的渐变_11-16);stroke:none;}.cls-28{fill:url(#未命名的渐变_11-17);stroke:none;}.cls-29{fill:url(#未命名的渐变_11-18);stroke:none;}.cls-30{fill:url(#未命名的渐变_11-19);stroke:none;}.cls-31{fill:url(#未命名的渐变_11-20);stroke:none;}.cls-32{fill:url(#未命名的渐变_11-21);stroke:none;}.cls-33{fill:url(#未命名的渐变_11-22);stroke:none;}.cls-34{fill:url(#未命名的渐变_11-23);stroke:none;}.cls-35{fill:url(#未命名的渐变_11-24);stroke:none;}.cls-36{fill:url(#未命名的渐变_11-25);stroke:none;}.cls-37{fill:url(#未命名的渐变_11-26);stroke:none;}.cls-38{fill:url(#未命名的渐变_11-27);stroke:none;}.cls-39,.cls-42{fill:#709be1;stroke:none;}.cls-39,.cls-40,.cls-41,.cls-42,.cls-43,.cls-44,.cls-45{stroke:#000;}.cls-39,.cls-40,.cls-41,.cls-42,.cls-43,.cls-44,.cls-45,.cls-46,.cls-47,.cls-48{stroke-miterlimit:10;}.cls-39,.cls-40,.cls-41{stroke-width:0.18px;}.cls-40,.cls-43,.cls-45{fill:#4776ca;stroke:none;}.cls-41,.cls-44{fill:#6ca7e8;stroke:none;}.cls-42,.cls-43,.cls-44{stroke-width:0.14px;}.cls-45,.cls-47{stroke-width:0.25px;}.cls-46,.cls-47{fill:#d24990;stroke:#652d88;}.cls-46{stroke-width:0.24px;}.cls-48{fill:#0071bc;stroke:#2e3192;stroke-width:0.2px;}.cls-49{fill:#fff;opacity:0.33;stroke:none;}.cls-50{opacity:0.79;mix-blend-mode:multiply;stroke:none;}</style><radialGradient id="&#x672A;&#x547D;&#x540D;&#x7684;&#x6E10;&#x53D8;_94" cx="65.16" cy="61.79" r="53.26" gradientunits="userSpaceOnUse"><stop offset="0.32" stop-color="#81d4f7"/><stop offset="0.56" stop-color="#7fd3f6"/><stop offset="0.67" stop-color="#77cff4"/><stop offset="0.76" stop-color="#6bc8f1"/><stop offset="0.83" stop-color="#59beeb"/><stop offset="0.89" stop-color="#41b1e5"/><stop offset="0.94" stop-color="#24a1dc"/><stop offset="0.99" stop-color="#038ed3"/><stop offset="1" stop-color="#008dd2"/></radialGradient><linearGradient id="&#x672A;&#x547D;&#x540D;&#x7684;&#x6E10;&#x53D8;_11" x1="-187.76" y1="71.18" x2="-186.8" y2="71.18" gradienttransform="matrix(-0.14, -0.99, -0.99, 0.14, 101.37, -123.55)" gradientunits="userSpaceOnUse"><stop offset="0" stop-color="#662d91"/><stop offset="0.57" stop-color="#b546b7"/><stop offset="1" stop-color="#662d91"/></linearGradient><linearGradient id="&#x672A;&#x547D;&#x540D;&#x7684;&#x6E10;&#x53D8;_11-2" x1="-187.29" y1="72.13" x2="-186.33" y2="72.13" xlink:href="#&#x672A;&#x547D;&#x540D;&#x7684;&#x6E10;&#x53D8;_11"><linearGradient id="&#x672A;&#x547D;&#x540D;&#x7684;&#x6E10;&#x53D8;_11-3" x1="-186.46" y1="72.38" x2="-185.5" y2="72.38" xlink:href="#&#x672A;&#x547D;&#x540D;&#x7684;&#x6E10;&#x53D8;_11"><linearGradient id="&#x672A;&#x547D;&#x540D;&#x7684;&#x6E10;&#x53D8;_11-4" x1="-185.63" y1="72.61" x2="-184.67" y2="72.61" xlink:href="#&#x672A;&#x547D;&#x540D;&#x7684;&#x6E10;&#x53D8;_11"><linearGradient id="&#x672A;&#x547D;&#x540D;&#x7684;&#x6E10;&#x53D8;_11-5" x1="-188.61" y1="71.34" x2="-187.66" y2="71.34" xlink:href="#&#x672A;&#x547D;&#x540D;&#x7684;&#x6E10;&#x53D8;_11"><linearGradient id="&#x672A;&#x547D;&#x540D;&#x7684;&#x6E10;&#x53D8;_11-6" x1="-189.46" y1="71.53" x2="-188.5" y2="71.53" xlink:href="#&#x672A;&#x547D;&#x540D;&#x7684;&#x6E10;&#x53D8;_11"><linearGradient id="&#x672A;&#x547D;&#x540D;&#x7684;&#x6E10;&#x53D8;_11-7" x1="-190.73" y1="70.71" x2="-189.77" y2="70.71" xlink:href="#&#x672A;&#x547D;&#x540D;&#x7684;&#x6E10;&#x53D8;_11"><linearGradient id="&#x672A;&#x547D;&#x540D;&#x7684;&#x6E10;&#x53D8;_11-8" x1="-191.19" y1="71.28" x2="-190.23" y2="71.28" xlink:href="#&#x672A;&#x547D;&#x540D;&#x7684;&#x6E10;&#x53D8;_11"><linearGradient id="&#x672A;&#x547D;&#x540D;&#x7684;&#x6E10;&#x53D8;_11-9" x1="-191.69" y1="71.84" x2="-190.73" y2="71.84" xlink:href="#&#x672A;&#x547D;&#x540D;&#x7684;&#x6E10;&#x53D8;_11"><linearGradient id="&#x672A;&#x547D;&#x540D;&#x7684;&#x6E10;&#x53D8;_11-10" x1="-193.59" y1="71.96" x2="-192.63" y2="71.96" xlink:href="#&#x672A;&#x547D;&#x540D;&#x7684;&#x6E10;&#x53D8;_11"><linearGradient id="&#x672A;&#x547D;&#x540D;&#x7684;&#x6E10;&#x53D8;_11-11" x1="-193.58" y1="72.59" x2="-192.62" y2="72.59" xlink:href="#&#x672A;&#x547D;&#x540D;&#x7684;&#x6E10;&#x53D8;_11"><linearGradient id="&#x672A;&#x547D;&#x540D;&#x7684;&#x6E10;&#x53D8;_11-12" x1="-193.56" y1="73.2" x2="-192.6" y2="73.2" xlink:href="#&#x672A;&#x547D;&#x540D;&#x7684;&#x6E10;&#x53D8;_11"><linearGradient id="&#x672A;&#x547D;&#x540D;&#x7684;&#x6E10;&#x53D8;_11-13" x1="-194.56" y1="74.12" x2="-193.6" y2="74.12" xlink:href="#&#x672A;&#x547D;&#x540D;&#x7684;&#x6E10;&#x53D8;_11"><linearGradient id="&#x672A;&#x547D;&#x540D;&#x7684;&#x6E10;&#x53D8;_11-14" x1="-193.94" y1="74.48" x2="-192.98" y2="74.48" xlink:href="#&#x672A;&#x547D;&#x540D;&#x7684;&#x6E10;&#x53D8;_11"><linearGradient id="&#x672A;&#x547D;&#x540D;&#x7684;&#x6E10;&#x53D8;_11-15" x1="-193.35" y1="74.86" x2="-192.39" y2="74.86" xlink:href="#&#x672A;&#x547D;&#x540D;&#x7684;&#x6E10;&#x53D8;_11"><linearGradient id="&#x672A;&#x547D;&#x540D;&#x7684;&#x6E10;&#x53D8;_11-16" x1="-191.7" y1="75.83" x2="-190.74" y2="75.83" xlink:href="#&#x672A;&#x547D;&#x540D;&#x7684;&#x6E10;&#x53D8;_11"><linearGradient id="&#x672A;&#x547D;&#x540D;&#x7684;&#x6E10;&#x53D8;_11-17" x1="-192.6" y1="75.85" x2="-191.65" y2="75.85" xlink:href="#&#x672A;&#x547D;&#x540D;&#x7684;&#x6E10;&#x53D8;_11"><linearGradient id="&#x672A;&#x547D;&#x540D;&#x7684;&#x6E10;&#x53D8;_11-18" x1="-193.51" y1="75.86" x2="-192.55" y2="75.86" xlink:href="#&#x672A;&#x547D;&#x540D;&#x7684;&#x6E10;&#x53D8;_11"><linearGradient id="&#x672A;&#x547D;&#x540D;&#x7684;&#x6E10;&#x53D8;_11-19" x1="-186.4" y1="73.52" x2="-185.44" y2="73.52" xlink:href="#&#x672A;&#x547D;&#x540D;&#x7684;&#x6E10;&#x53D8;_11"><linearGradient id="&#x672A;&#x547D;&#x540D;&#x7684;&#x6E10;&#x53D8;_11-20" x1="-185.89" y1="74.06" x2="-184.93" y2="74.06" xlink:href="#&#x672A;&#x547D;&#x540D;&#x7684;&#x6E10;&#x53D8;_11"><linearGradient id="&#x672A;&#x547D;&#x540D;&#x7684;&#x6E10;&#x53D8;_11-21" x1="-185.48" y1="74.64" x2="-184.52" y2="74.64" xlink:href="#&#x672A;&#x547D;&#x540D;&#x7684;&#x6E10;&#x53D8;_11"><linearGradient id="&#x672A;&#x547D;&#x540D;&#x7684;&#x6E10;&#x53D8;_11-22" x1="-189.3" y1="76.16" x2="-188.34" y2="76.16" xlink:href="#&#x672A;&#x547D;&#x540D;&#x7684;&#x6E10;&#x53D8;_11"><linearGradient id="&#x672A;&#x547D;&#x540D;&#x7684;&#x6E10;&#x53D8;_11-23" x1="-189.96" y1="76.52" x2="-189" y2="76.52" xlink:href="#&#x672A;&#x547D;&#x540D;&#x7684;&#x6E10;&#x53D8;_11"><linearGradient id="&#x672A;&#x547D;&#x540D;&#x7684;&#x6E10;&#x53D8;_11-24" x1="-190.64" y1="76.9" x2="-189.68" y2="76.9" xlink:href="#&#x672A;&#x547D;&#x540D;&#x7684;&#x6E10;&#x53D8;_11"><linearGradient id="&#x672A;&#x547D;&#x540D;&#x7684;&#x6E10;&#x53D8;_11-25" x1="-186.94" y1="75.09" x2="-185.98" y2="75.09" xlink:href="#&#x672A;&#x547D;&#x540D;&#x7684;&#x6E10;&#x53D8;_11"><linearGradient id="&#x672A;&#x547D;&#x540D;&#x7684;&#x6E10;&#x53D8;_11-26" x1="-187.22" y1="75.62" x2="-186.26" y2="75.62" xlink:href="#&#x672A;&#x547D;&#x540D;&#x7684;&#x6E10;&#x53D8;_11"><linearGradient id="&#x672A;&#x547D;&#x540D;&#x7684;&#x6E10;&#x53D8;_11-27" x1="-187.58" y1="76.23" x2="-186.62" y2="76.23" xlink:href="#&#x672A;&#x547D;&#x540D;&#x7684;&#x6E10;&#x53D8;_11"/></linearGradient></linearGradient></linearGradient></linearGradient></linearGradient></linearGradient></linearGradient></linearGradient></linearGradient></linearGradient></linearGradient></linearGradient></linearGradient></linearGradient></linearGradient></linearGradient></linearGradient></linearGradient></linearGradient></linearGradient></linearGradient></linearGradient></linearGradient></linearGradient></linearGradient></defs><title>Organells&#x7EC6;&#x80DE;&#x5668;</title><g class="cls-1"><g id="Organells&#x7EC6;&#x80DE;&#x5668;"><path class="cls-2" d="M103.46,53.74s-.95-16.68-7.81-23.54S71.63,17.78,61,18,42.53,25.82,39.34,27.6,27.15,38.6,26,45s-3.43,16.8-2.84,23.66,3.67,18.69,7.69,23.19,14.67,11.95,16.8,13.61,15.38,7.1,24.25,7.1S92.57,108,97,103.2s12.62-16.76,14-23.74a32,32,0,0,0-3-19.91C105.35,54.81,103.46,53.74,103.46,53.74Z"/><path class="cls-3" d="M56.84,87.82c12.54,4.73,27.21,6,35.26,3.79s18-11.59,18.46-13.13c.08-.27.21-.64.35-1.11.74-6.45-.63-13.59-3-17.82-2.6-4.73-4.5-5.8-4.5-5.8L35.79,71.84S44.3,83.08,56.84,87.82Z"/><path class="cls-4" d="M95.65,30.2c-.22-.22-.47-.43-.71-.64-2.87-2.43-7.37-5-15-6.57-12.3-2.48-22.6,4.5-27.33,7S40.64,45.46,37.68,51.61s-1.89,20.23-1.89,20.23l67.67-18.1S102.51,37.06,95.65,30.2Z"/><path class="cls-5" d="M93.68,56.68C92.75,50,88.37,43.13,78.15,44.86s-15,8.5-15.27,14.21,2.28,13.71,12.62,14.61C86.25,74.61,95.23,67.71,93.68,56.68Z"/><path class="cls-6" d="M81.88,44.61c-12.07,1.8-10.48,18.21-10.48,18.21l22.09-7.2C92.44,50.21,89,44.93,81.88,44.61Z"/><path class="cls-7" d="M93.5,55.63l-22.09,7.2s9,4.18,16.84,1.52S93.5,55.63,93.5,55.63Z"/><path class="cls-8" d="M87.7,59.12A3.12,3.12,0,0,0,87,54.78a5.13,5.13,0,0,0-5.37-1.16c-3.88,1.62-2.51,4.26-2.17,5.38s1.48,2.94,5.36,1.93A5,5,0,0,0,87.7,59.12Z"/><ellipse class="cls-9" cx="81.55" cy="55.56" rx="1.67" ry="0.78" transform="translate(-17.13 56.37) rotate(-34.74)"/><path class="cls-10" d="M64.67,71.11a.41.41,0,0,1-.27.5l-12.61,1.8c-.19,0-.37-.15-.4-.4a.41.41,0,0,1,.27-.5l12.61-1.8C64.46,70.68,64.64,70.86,64.67,71.11Z"/><ellipse class="cls-11" cx="64.34" cy="71.16" rx="0.34" ry="0.46" transform="matrix(0.99, -0.14, 0.14, 0.99, -9.62, 10.06)"/><ellipse class="cls-12" cx="64.34" cy="71.16" rx="0.23" ry="0.32" transform="matrix(0.99, -0.14, 0.14, 0.99, -9.62, 10.06)"/><path class="cls-13" d="M63.67,70.78a.41.41,0,0,1-.27.5l-12.61,1.8c-.19,0-.37-.15-.4-.4a.41.41,0,0,1,.27-.5l12.61-1.8C63.45,70.35,63.63,70.53,63.67,70.78Z"/><ellipse class="cls-11" cx="63.33" cy="70.83" rx="0.34" ry="0.46" transform="translate(-9.58 9.91) rotate(-8.32)"/><ellipse class="cls-12" cx="63.33" cy="70.83" rx="0.23" ry="0.32" transform="translate(-9.58 9.91) rotate(-8.32)"/><path class="cls-14" d="M63.3,70a.41.41,0,0,1-.27.5l-12.61,1.8c-.19,0-.37-.15-.4-.4a.41.41,0,0,1,.27-.5L62.9,69.6C63.09,69.57,63.27,69.75,63.3,70Z"/><ellipse class="cls-11" cx="62.97" cy="70.05" rx="0.34" ry="0.46" transform="translate(-9.47 9.85) rotate(-8.32)"/><ellipse class="cls-12" cx="62.97" cy="70.05" rx="0.23" ry="0.32" transform="translate(-9.47 9.85) rotate(-8.32)"/><path class="cls-15" d="M63,69.21a.41.41,0,0,1-.27.5L50.06,71.5c-.19,0-.37-.15-.4-.4a.41.41,0,0,1,.27-.5l12.61-1.8C62.73,68.78,62.91,69,63,69.21Z"/><ellipse class="cls-11" cx="62.61" cy="69.26" rx="0.34" ry="0.46" transform="translate(-9.36 9.79) rotate(-8.32)"/><ellipse class="cls-12" cx="62.61" cy="69.26" rx="0.23" ry="0.32" transform="matrix(0.99, -0.14, 0.14, 0.99, -9.36, 9.79)"/><path class="cls-16" d="M64.64,72a.41.41,0,0,1-.27.5l-12.61,1.8c-.19,0-.37-.15-.4-.4a.41.41,0,0,1,.27-.5l12.61-1.8C64.42,71.55,64.6,71.73,64.64,72Z"/><ellipse class="cls-11" cx="64.3" cy="72.03" rx="0.34" ry="0.46" transform="translate(-9.74 10.06) rotate(-8.32)"/><ellipse class="cls-12" cx="64.3" cy="72.03" rx="0.23" ry="0.32" transform="translate(-9.74 10.06) rotate(-8.32)"/><path class="cls-17" d="M64.57,72.84a.41.41,0,0,1-.27.5l-12.61,1.8c-.19,0-.37-.15-.4-.4a.41.41,0,0,1,.27-.5l12.61-1.8C64.36,72.41,64.54,72.59,64.57,72.84Z"/><ellipse class="cls-11" cx="64.24" cy="72.89" rx="0.34" ry="0.46" transform="translate(-9.87 10.06) rotate(-8.32)"/><ellipse class="cls-12" cx="64.24" cy="72.89" rx="0.23" ry="0.32" transform="translate(-9.87 10.06) rotate(-8.32)"/><path class="cls-18" d="M65.57,74a.41.41,0,0,1-.27.5l-12.61,1.8c-.19,0-.37-.15-.4-.4a.41.41,0,0,1,.27-.5l12.61-1.8C65.36,73.55,65.54,73.73,65.57,74Z"/><ellipse class="cls-11" cx="65.23" cy="74.03" rx="0.34" ry="0.46" transform="translate(-10.02 10.22) rotate(-8.32)"/><ellipse class="cls-12" cx="65.23" cy="74.03" rx="0.23" ry="0.32" transform="translate(-10.02 10.22) rotate(-8.32)"/><path class="cls-19" d="M65.08,74.52a.41.41,0,0,1-.27.5l-12.61,1.8c-.19,0-.37-.15-.4-.4a.41.41,0,0,1,.27-.5l12.61-1.8C64.86,74.09,65,74.27,65.08,74.52Z"/><ellipse class="cls-11" cx="64.74" cy="74.57" rx="0.34" ry="0.46" transform="translate(-10.11 10.15) rotate(-8.32)"/><ellipse class="cls-12" cx="64.74" cy="74.57" rx="0.23" ry="0.32" transform="translate(-10.11 10.15) rotate(-8.32)"/><path class="cls-20" d="M64.59,75.09a.41.41,0,0,1-.27.5L51.7,77.39c-.19,0-.37-.15-.4-.4a.41.41,0,0,1,.27-.5l12.61-1.8C64.37,74.67,64.55,74.85,64.59,75.09Z"/><ellipse class="cls-11" cx="64.25" cy="75.14" rx="0.34" ry="0.46" transform="translate(-10.19 10.09) rotate(-8.32)"/><ellipse class="cls-12" cx="64.25" cy="75.14" rx="0.23" ry="0.32" transform="translate(-10.19 10.09) rotate(-8.32)"/><path class="cls-21" d="M64.75,77a.41.41,0,0,1-.27.5l-12.61,1.8c-.19,0-.37-.15-.4-.4a.41.41,0,0,1,.27-.5l12.61-1.8C64.54,76.56,64.72,76.74,64.75,77Z"/><ellipse class="cls-11" cx="64.42" cy="77.04" rx="0.34" ry="0.46" transform="translate(-10.47 10.13) rotate(-8.32)"/><ellipse class="cls-12" cx="64.42" cy="77.04" rx="0.23" ry="0.32" transform="translate(-10.47 10.13) rotate(-8.32)"/><path class="cls-22" d="M64.13,77.07a.41.41,0,0,1-.27.5l-12.61,1.8c-.19,0-.37-.15-.4-.4a.41.41,0,0,1,.27-.5l12.61-1.8C63.91,76.64,64.09,76.82,64.13,77.07Z"/><ellipse class="cls-11" cx="63.79" cy="77.12" rx="0.34" ry="0.46" transform="translate(-10.49 10.04) rotate(-8.32)"/><ellipse class="cls-12" cx="63.79" cy="77.12" rx="0.23" ry="0.32" transform="translate(-10.49 10.04) rotate(-8.32)"/><path class="cls-23" d="M63.51,77.14a.41.41,0,0,1-.27.5l-12.61,1.8c-.19,0-.37-.15-.4-.4a.41.41,0,0,1,.27-.5l12.61-1.8C63.3,76.71,63.48,76.89,63.51,77.14Z"/><ellipse class="cls-11" cx="63.18" cy="77.19" rx="0.34" ry="0.46" transform="translate(-10.5 9.95) rotate(-8.32)"/><ellipse class="cls-12" cx="63.18" cy="77.19" rx="0.23" ry="0.32" transform="translate(-10.5 9.95) rotate(-8.32)"/><path class="cls-24" d="M62.75,78.26a.41.41,0,0,1-.27.5l-12.61,1.8c-.19,0-.37-.15-.4-.4a.41.41,0,0,1,.27-.5l12.61-1.8C62.53,77.83,62.71,78,62.75,78.26Z"/><ellipse class="cls-11" cx="62.41" cy="78.31" rx="0.34" ry="0.46" transform="translate(-10.67 9.85) rotate(-8.32)"/><ellipse class="cls-12" cx="62.41" cy="78.31" rx="0.23" ry="0.32" transform="translate(-10.67 9.85) rotate(-8.32)"/><path class="cls-25" d="M62.3,77.7a.41.41,0,0,1-.27.5L49.42,80c-.19,0-.37-.15-.4-.4a.41.41,0,0,1,.27-.5L61.9,77.3C62.09,77.28,62.27,77.46,62.3,77.7Z"/><ellipse class="cls-11" cx="61.97" cy="77.75" rx="0.34" ry="0.46" transform="translate(-10.6 9.78) rotate(-8.32)"/><ellipse class="cls-12" cx="61.97" cy="77.75" rx="0.23" ry="0.32" transform="translate(-10.6 9.78) rotate(-8.32)"/><path class="cls-26" d="M61.85,77.17a.41.41,0,0,1-.27.5L49,79.47c-.19,0-.37-.15-.4-.4a.41.41,0,0,1,.27-.5l12.61-1.8C61.63,76.74,61.81,76.92,61.85,77.17Z"/><ellipse class="cls-11" cx="61.51" cy="77.22" rx="0.34" ry="0.46" transform="translate(-10.52 9.71) rotate(-8.32)"/><ellipse class="cls-12" cx="61.51" cy="77.22" rx="0.23" ry="0.32" transform="translate(-10.52 9.71) rotate(-8.32)"/><path class="cls-27" d="M60.65,75.68a.41.41,0,0,1-.27.5L47.76,78c-.19,0-.37-.15-.4-.4a.41.41,0,0,1,.27-.5l12.61-1.8C60.43,75.25,60.61,75.43,60.65,75.68Z"/><ellipse class="cls-11" cx="60.31" cy="75.73" rx="0.34" ry="0.46" transform="translate(-10.32 9.52) rotate(-8.32)"/><ellipse class="cls-12" cx="60.31" cy="75.73" rx="0.23" ry="0.32" transform="translate(-10.32 9.52) rotate(-8.32)"/><path class="cls-28" d="M60.76,76.58a.41.41,0,0,1-.27.5l-12.61,1.8c-.19,0-.37-.15-.4-.4a.41.41,0,0,1,.27-.5l12.61-1.8C60.54,76.15,60.72,76.33,60.76,76.58Z"/><ellipse class="cls-11" cx="60.42" cy="76.63" rx="0.34" ry="0.46" transform="translate(-10.45 9.55) rotate(-8.32)"/><ellipse class="cls-12" cx="60.42" cy="76.63" rx="0.23" ry="0.32" transform="translate(-10.45 9.55) rotate(-8.32)"/><path class="cls-29" d="M60.88,77.47a.41.41,0,0,1-.27.5L48,79.77c-.19,0-.37-.15-.4-.4a.41.41,0,0,1,.27-.5l12.61-1.8C60.67,77,60.85,77.23,60.88,77.47Z"/><ellipse class="cls-11" cx="60.55" cy="77.52" rx="0.34" ry="0.46" transform="translate(-10.58 9.57) rotate(-8.32)"/><ellipse class="cls-12" cx="60.55" cy="77.52" rx="0.23" ry="0.32" transform="translate(-10.58 9.57) rotate(-8.32)"/><path class="cls-30" d="M62.16,70.1a.41.41,0,0,1-.27.5L49.28,72.4c-.19,0-.37-.15-.4-.4a.41.41,0,0,1,.27-.5l12.61-1.8C61.95,69.67,62.13,69.85,62.16,70.1Z"/><ellipse class="cls-11" cx="61.82" cy="70.15" rx="0.34" ry="0.46" transform="translate(-9.5 9.68) rotate(-8.32)"/><ellipse class="cls-12" cx="61.82" cy="70.15" rx="0.23" ry="0.32" transform="translate(-9.5 9.68) rotate(-8.32)"/><path class="cls-31" d="M61.56,69.68a.41.41,0,0,1-.27.5L48.67,72c-.19,0-.37-.15-.4-.4a.41.41,0,0,1,.27-.5l12.61-1.8C61.34,69.25,61.52,69.43,61.56,69.68Z"/><ellipse class="cls-11" cx="61.22" cy="69.73" rx="0.34" ry="0.46" transform="translate(-9.44 9.59) rotate(-8.32)"/><ellipse class="cls-12" cx="61.22" cy="69.73" rx="0.23" ry="0.32" transform="translate(-9.44 9.59) rotate(-8.32)"/><path class="cls-32" d="M60.93,69.35a.41.41,0,0,1-.27.5L48,71.65c-.19,0-.37-.15-.4-.4a.41.41,0,0,1,.27-.5L60.52,69C60.71,68.93,60.89,69.11,60.93,69.35Z"/><ellipse class="cls-11" cx="60.59" cy="69.4" rx="0.34" ry="0.46" transform="translate(-9.4 9.49) rotate(-8.32)"/><ellipse class="cls-12" cx="60.59" cy="69.4" rx="0.23" ry="0.32" transform="translate(-9.4 9.49) rotate(-8.32)"/><path class="cls-33" d="M60,73.35a.41.41,0,0,1-.27.5l-12.61,1.8c-.19,0-.37-.15-.4-.4a.41.41,0,0,1,.27-.5L59.57,73C59.76,72.92,59.94,73.1,60,73.35Z"/><ellipse class="cls-11" cx="59.64" cy="73.4" rx="0.34" ry="0.46" transform="translate(-9.99 9.4) rotate(-8.32)"/><ellipse class="cls-12" cx="59.64" cy="73.4" rx="0.23" ry="0.32" transform="translate(-9.99 9.4) rotate(-8.32)"/><path class="cls-34" d="M59.71,74.05a.41.41,0,0,1-.27.5l-12.61,1.8c-.19,0-.37-.15-.4-.4a.41.41,0,0,1,.27-.5l12.61-1.8C59.49,73.63,59.67,73.81,59.71,74.05Z"/><ellipse class="cls-11" cx="59.37" cy="74.1" rx="0.34" ry="0.46" transform="translate(-10.1 9.37) rotate(-8.32)"/><ellipse class="cls-12" cx="59.37" cy="74.1" rx="0.23" ry="0.32" transform="translate(-10.1 9.37) rotate(-8.32)"/><path class="cls-35" d="M59.43,74.78a.41.41,0,0,1-.27.5l-12.61,1.8c-.19,0-.37-.15-.4-.4a.41.41,0,0,1,.27-.5L59,74.38C59.21,74.36,59.39,74.54,59.43,74.78Z"/><ellipse class="cls-11" cx="59.09" cy="74.83" rx="0.34" ry="0.46" transform="matrix(0.99, -0.14, 0.14, 0.99, -10.2, 9.34)"/><ellipse class="cls-12" cx="59.09" cy="74.83" rx="0.23" ry="0.32" transform="translate(-10.2 9.34) rotate(-8.32)"/><path class="cls-36" d="M60.69,70.86a.41.41,0,0,1-.27.5l-12.61,1.8c-.19,0-.37-.15-.4-.4a.41.41,0,0,1,.27-.5l12.61-1.8C60.48,70.43,60.66,70.61,60.69,70.86Z"/><ellipse class="cls-11" cx="60.36" cy="70.91" rx="0.34" ry="0.46" transform="translate(-9.62 9.48) rotate(-8.32)"/><ellipse class="cls-12" cx="60.36" cy="70.91" rx="0.23" ry="0.32" transform="translate(-9.62 9.48) rotate(-8.32)"/><path class="cls-37" d="M60.2,71.21a.41.41,0,0,1-.27.5l-12.61,1.8c-.19,0-.37-.15-.4-.4a.41.41,0,0,1,.27-.5l12.61-1.8C60,70.78,60.17,71,60.2,71.21Z"/><ellipse class="cls-11" cx="59.87" cy="71.26" rx="0.34" ry="0.46" transform="translate(-9.68 9.41) rotate(-8.32)"/><ellipse class="cls-12" cx="59.87" cy="71.26" rx="0.23" ry="0.32" transform="translate(-9.68 9.41) rotate(-8.32)"/><path class="cls-38" d="M59.65,71.66a.41.41,0,0,1-.27.5L46.76,74c-.19,0-.37-.15-.4-.4a.41.41,0,0,1,.27-.5l12.61-1.8C59.43,71.23,59.61,71.41,59.65,71.66Z"/><ellipse class="cls-11" cx="59.31" cy="71.71" rx="0.34" ry="0.46" transform="translate(-9.75 9.33) rotate(-8.32)"/><ellipse class="cls-12" cx="59.31" cy="71.71" rx="0.23" ry="0.32" transform="translate(-9.75 9.33) rotate(-8.32)"/><path class="cls-39" d="M90.73,79.61c1.81,2.6,8,3,12.78-.39s6.22-9.31,4.41-11.91-6.78-1.59-11.52,1.81S88.93,77,90.73,79.61Z"/><path class="cls-40" d="M105.65,68.48l.28,2.85a10.31,10.31,0,0,1-4.36,5.08C98.14,78.52,92.29,79,92.29,79L91.9,75.8a.58.58,0,0,1,.41-.55,1.15,1.15,0,0,1,.38-.13,18.35,18.35,0,0,1,1.74,1.08L94,73.39a.68.68,0,0,1,.25-.51c.27-.23.74-.54,1.13-.29a5.16,5.16,0,0,1,1.38,1.21,1.46,1.46,0,0,0,.69.51L97,71a1.17,1.17,0,0,1,.32-.7,2.08,2.08,0,0,1,2-.72c1.13.37,2.23,2.16,2.23,2.16l-.44-3.06a.35.35,0,0,1,.23-.34c.35-.17,1-.4,1.43-.06.58.48,1.06.83,1.06.83l-.31-1.84c0-.24.63.08.83.21l.76.5.37.23A.47.47,0,0,1,105.65,68.48Z"/><line class="cls-40" x1="93.18" y1="77.63" x2="93.28" y2="78.48"/><line class="cls-40" x1="96.07" y1="76.15" x2="96.24" y2="77.68"/><line class="cls-40" x1="99.91" y1="74.1" x2="100.07" y2="75.61"/><line class="cls-40" x1="103.61" y1="71.25" x2="103.75" y2="72.49"/><path class="cls-40" d="M90.7,80.08c1.8,2.6,8.06,2.54,12.81-.86s6.22-9.31,4.41-11.91-6.78-1.59-11.52,1.81S88.71,77.19,90.7,80.08Zm6-10.43c4.1-2.93,8.3-4.05,9.38-2.5s-1.37,5.19-5.47,8.12-8.3,4.05-9.38,2.5S92.57,72.59,96.67,69.66Z"/><path class="cls-41" d="M100.29,71.26c-.09-.95-.76-1.17-1.48-.73-1.29.78.64,1.69,1.07,3.38.16.64-.14,1.19-.94,1.65-1.55.88-2.25-.82-2.58-1.39-.54-.9-1.57-.64-.8.7.27.47,1,1.68,0,2.18s-1.4-.27-1.88-1.07-1.61-.43-.63,1.3c.19.34.2.7-.12.57s-1.88-2.3-.46-3.21c.75-.47,1.48.4,1.88,1.12s1.18.41.63-.38c-.33-.47-1.63-2.19-.49-3,2.2-1.48,2.65,2.43,3.67,1.82s-.77-1-1.19-3.1c-.13-.66.19-1.2,1-1.75,1.1-.74,1.79-.75,2.42-.28.84.63.88,2.85,1.78,2.41s.07-1.3-.21-1.56a2.4,2.4,0,0,1-.91-1.29,1,1,0,0,1,.49-1c.51-.32,1.12.1,1.61.44s1.2.89,1.57.52,0-.63-.33-.77c-.71-.31-1-.53-.88-.68a1.78,1.78,0,0,1,1.82.68,1,1,0,0,1,.08,1.31c-.82.92-1.92.2-2.6-.27-.46-.32-.58-.37-.72-.28s0,.4.11.49a4.09,4.09,0,0,1,1.32,1.83,1.6,1.6,0,0,1-.62,1.79C102.3,73.2,100.54,73.85,100.29,71.26Zm4.59-3.2Z"/><path class="cls-42" d="M50.89,65.27c-1.74,1.74-6.58,1.2-9.75-2.07s-3.48-8-1.73-9.74,5.42-.28,8.59,3S52.63,63.53,50.89,65.27Z"/><path class="cls-43" d="M41,54.67l-.61,2.15A8,8,0,0,0,43,61.32c2.33,2.09,6.75,3.29,6.75,3.29l.75-2.42a.45.45,0,0,0-.24-.48.9.9,0,0,0-.27-.15,14.3,14.3,0,0,0-1.48.59L49.2,60a.53.53,0,0,0-.12-.43c-.18-.21-.5-.51-.82-.38A4,4,0,0,0,47,60a1.13,1.13,0,0,1-.6.3l.84-2.51a.91.91,0,0,0-.15-.58,1.62,1.62,0,0,0-1.41-.82,4.58,4.58,0,0,0-2,1.35l.76-2.29a.27.27,0,0,0-.13-.29c-.24-.18-.72-.45-1.09-.25s-.93.49-.93.49L42.82,54c.05-.18-.49,0-.67,0l-.65.28-.31.13A.36.36,0,0,0,41,54.67Z"/><line class="cls-43" x1="49.28" y1="63.42" x2="49.09" y2="64.06"/><line class="cls-43" x1="47.27" y1="61.88" x2="46.92" y2="63.03"/><line class="cls-43" x1="44.61" y1="59.77" x2="44.28" y2="60.92"/><line class="cls-43" x1="42.16" y1="57.08" x2="41.88" y2="58.01"/><path class="cls-43" d="M48,56.45c-3.17-3.26-6.84-4.72-8.59-3S38,59.95,41.14,63.21s8,4.18,9.7,2.43C52.77,63.7,51.16,59.71,48,56.45Zm2.79,7.36c-1,1-4.11-.4-6.85-3.22s-4.11-5.95-3.07-7,4.11.4,6.85,3.22S51.82,62.76,50.78,63.81Z"/><path class="cls-44" d="M42.48,58.29a1.25,1.25,0,0,1-.23-1.46,3.19,3.19,0,0,1,1.27-1.22c.09-.06.27-.23.15-.36s-.2-.07-.59.11c-.59.27-1.53.67-2-.15a.78.78,0,0,1,.25-1,1.38,1.38,0,0,1,1.49-.27c.11.14-.18.26-.77.4-.25.06-.53.31-.36.54s.84,0,1.28-.18.94-.43,1.29-.11a.77.77,0,0,1,.23.87,1.87,1.87,0,0,1-.87.87c-.25.16-1.09.65-.38,1.17s1-1.23,1.7-1.6c.54-.27,1.07-.17,1.81.55.55.53.72,1,.53,1.48-.61,1.53-2,1.64-1.34,2.22s1.59-2.33,3.07-.89c.77.75-.47,1.89-.78,2.2-.53.53,0,.9.43.38s1.09-1.07,1.59-.6c1,.89-.53,2.34-.79,2.4s-.2-.22,0-.45c1-1.19.24-1.7-.31-1.08s-.91,1.08-1.59.56,0-1.35.32-1.67c.78-.93,0-1.27-.52-.65-.34.39-1.11,1.59-2.17.71-.55-.46-.71-.93-.49-1.39.56-1.23,2.17-1.66,1.29-2.44-.5-.44-1-.36-1.24.36C44.16,59.5,42.9,58.76,42.48,58.29Zm-.85-3.83Z"/><path class="cls-45" d="M68.15,33.62c.43.52,1.26-.24,2.23-1l4.11-3.34c1.3-1.05,2.11-1.71,1.69-2.24s-1.13.18-2.45,1.25l-4.13,3.36C68.63,32.41,67.72,33.09,68.15,33.62Z"/><path class="cls-45" d="M70,34.8c-.4-.49,0-1.5.88-2.22l3.76-3.05c1.18-1,2.2-1.06,2.59-.57s-.66.5-1.86,1.47l-3.72,3C70.75,34.17,70.38,35.29,70,34.8Z"/><path class="cls-45" d="M71.46,35.19c-.32-.39,0-1.2.72-1.79l3-2.46c1-.78,1.79-.88,2.11-.49s-.53.41-1.51,1.2l-3,2.47C72.06,34.7,71.78,35.58,71.46,35.19Z"/><path class="cls-45" d="M73.1,35.26c-.27-.33-.08-.94.42-1.35l2.12-1.72c.67-.54,1.29-.57,1.56-.24s-.38.28-1.06.83L74,34.52C73.52,34.93,73.37,35.59,73.1,35.26Z"/><path class="cls-45" d="M67.36,31.56c.4.49,1.47.31,2.35-.4l3.76-3.05c1.18-1,1.49-1.93,1.09-2.42s-.63.54-1.82,1.52l-3.72,3C68.13,30.94,67,31.07,67.36,31.56Z"/><path class="cls-45" d="M67.28,30c.32.39,1.18.24,1.9-.34l3-2.46c1-.78,1.23-1.57.91-2s-.51.44-1.48,1.23l-3,2.47C67.88,29.55,67,29.64,67.28,30Z"/><path class="cls-45" d="M67.54,28.42c.27.33.91.27,1.41-.14l2.12-1.72c.67-.54.82-1.15.55-1.48s-.35.31-1,.86l-2.13,1.73C68,28.08,67.28,28.09,67.54,28.42Z"/><path class="cls-46" d="M73.56,42.7a.87.87,0,0,1-1.07.4,9.58,9.58,0,0,0-6.32-.4.76.76,0,0,1-1-.63A1,1,0,0,1,65.88,41a11.13,11.13,0,0,1,7.35.47.83.83,0,0,1,.38,1.13Z"/><path class="cls-46" d="M59.13,60.47a1,1,0,0,1-.27.29.78.78,0,0,1-1.15-.19,13.08,13.08,0,0,1,.14-13.32,13.62,13.62,0,0,1,5.68-5.36.77.77,0,0,1,1.08.4,1,1,0,0,1-.47,1.17,11.72,11.72,0,0,0-4.89,4.61,11.25,11.25,0,0,0-.12,11.46A.91.91,0,0,1,59.13,60.47Z"/><path class="cls-46" d="M73,40.09a.88.88,0,0,1-1,.43,12.52,12.52,0,0,0-10.69,2.09.78.78,0,0,1-1.15-.19.94.94,0,0,1,.28-1.22,14,14,0,0,1,12.12-2.37.81.81,0,0,1,.5,1.07A1,1,0,0,1,73,40.09Z"/><path class="cls-46" d="M68.54,37.46a.91.91,0,0,1-.69.46,16,16,0,0,0-12.23,8,.81.81,0,1,1-1.39-.81,17.76,17.76,0,0,1,13.62-8.94.76.76,0,0,1,.83.79A.94.94,0,0,1,68.54,37.46Z"/><ellipse class="cls-46" cx="48.55" cy="44.97" rx="0.94" ry="0.86" transform="translate(-14.78 64.18) rotate(-59.68)"/><ellipse class="cls-46" cx="52.38" cy="41.14" rx="0.94" ry="0.86" transform="matrix(0.5, -0.86, 0.86, 0.5, -9.58, 65.58)"/><ellipse class="cls-46" cx="47.76" cy="41.59" rx="0.94" ry="0.86" transform="matrix(0.5, -0.86, 0.86, 0.5, -12.26, 61.82)"/><ellipse class="cls-46" cx="53.84" cy="35.06" rx="0.94" ry="0.86" transform="matrix(0.5, -0.86, 0.86, 0.5, -3.61, 63.83)"/><path class="cls-46" d="M64.34,34.59a20.39,20.39,0,0,0-12,9.46,21.53,21.53,0,0,0-2.15,5.08.2.2,0,0,1-.32.12.77.77,0,0,0-.35-.2.91.91,0,0,0-.9.29.93.93,0,0,0,.14,1.42.82.82,0,0,0,.71.05.21.21,0,0,1,.28.25q-.15.85-.23,1.71a.81.81,0,0,0,.6.9.92.92,0,0,0,1.06-.85,19.05,19.05,0,0,1,2.57-8,18.53,18.53,0,0,1,10.89-8.61.94.94,0,0,0,.55-.43.93.93,0,0,0,.07-.8A.81.81,0,0,0,64.34,34.59Z"/><path class="cls-46" d="M54.13,47.41a.86.86,0,0,0-1.23.48,18.34,18.34,0,0,0-1.24,6.47.13.13,0,0,1-.19.12.72.72,0,0,0-.45-.1,1,1,0,0,0-.82.53.9.9,0,0,0,.3,1.19.86.86,0,0,0,1-.11.15.15,0,0,1,.24.1q0,.17,0,.33a.8.8,0,0,0,.91.73.92.92,0,0,0,.61-.44.94.94,0,0,0,.13-.58,16.28,16.28,0,0,1,1-7.67A.86.86,0,0,0,54.13,47.41Z"/><path class="cls-46" d="M58.37,43.06A16.58,16.58,0,0,0,56,46.18a15.89,15.89,0,0,0-2,10.57.58.58,0,0,1-.09.42l0,.05a.9.9,0,0,0,.26,1.25,1.45,1.45,0,0,1,.39.45.8.8,0,0,0,1.09.51A1,1,0,0,0,56,59a.93.93,0,0,0,.09-.76A13.8,13.8,0,0,1,57.42,47a14.63,14.63,0,0,1,2.08-2.76.89.89,0,0,0-.07-1.34A.83.83,0,0,0,58.37,43.06Z"/><path class="cls-47" d="M95,51.07a.74.74,0,0,1-.55-.81A8,8,0,0,0,93.54,45a.64.64,0,0,1,.33-.92.83.83,0,0,1,1,.36A9.35,9.35,0,0,1,96,50.56a.71.71,0,0,1-.87.53Z"/><path class="cls-47" d="M77.28,42.56a.84.84,0,0,1-.3-.16.66.66,0,0,1-.07-1A11.29,11.29,0,0,1,88.06,39a11.87,11.87,0,0,1,5.63,3.66.64.64,0,0,1-.11,1,.83.83,0,0,1-1.07-.17,10.22,10.22,0,0,0-4.84-3.15,9.72,9.72,0,0,0-9.6,2.09A.78.78,0,0,1,77.28,42.56Z"/><path class="cls-47" d="M97.11,50.15a.76.76,0,0,1-.56-.73A10.65,10.65,0,0,0,92.64,41a.66.66,0,0,1-.07-1,.81.81,0,0,1,1.08,0,11.91,11.91,0,0,1,4.42,9.55.69.69,0,0,1-.79.62Z"/><path class="cls-47" d="M98.39,45.93a.79.79,0,0,1-.52-.49,13.81,13.81,0,0,0-9.17-8.56.68.68,0,1,1,.4-1.3,15.38,15.38,0,0,1,10.21,9.53.64.64,0,0,1-.49.83A.82.82,0,0,1,98.39,45.93Z"/><ellipse class="cls-47" cx="88.09" cy="30.87" rx="0.73" ry="0.81" transform="translate(32.79 106.08) rotate(-72.99)"/><ellipse class="cls-47" cx="79.91" cy="25.57" rx="0.73" ry="0.81" transform="translate(32.08 94.5) rotate(-72.99)"/><ellipse class="cls-47" cx="80.98" cy="27.99" rx="0.73" ry="0.81" transform="translate(30.53 97.24) rotate(-72.99)"/><ellipse class="cls-47" cx="94.06" cy="32.02" rx="0.73" ry="0.81" transform="translate(35.92 112.59) rotate(-72.99)"/><path class="cls-47" d="M99.95,41.92a17.72,17.72,0,0,0-10.32-8.06,18.84,18.84,0,0,0-4.68-.8c-.13,0-.23-.14-.16-.24a.64.64,0,0,0,.1-.33.77.77,0,0,0-.42-.68.79.79,0,0,0-1.16.39.69.69,0,0,0,.1.59.18.18,0,0,1-.15.28q-.74,0-1.48.14a.68.68,0,0,0-.63.67.8.8,0,0,0,.92.71,16.64,16.64,0,0,1,7.16.6,16.1,16.1,0,0,1,9.39,7.34.81.81,0,0,0,.47.37.8.8,0,0,0,.68-.09A.68.68,0,0,0,99.95,41.92Z"/><path class="cls-47" d="M87.18,35.94a.74.74,0,0,0-.65-.93,16,16,0,0,0-5.66.21.11.11,0,0,1-.14-.13.6.6,0,0,0,0-.39.86.86,0,0,0-.61-.57.77.77,0,0,0-.93.47.73.73,0,0,0,.3.79.12.12,0,0,1,0,.22l-.27.09a.67.67,0,0,0-.43.89.8.8,0,0,0,.49.42.82.82,0,0,0,.51,0,14.14,14.14,0,0,1,6.61-.64A.73.73,0,0,0,87.18,35.94Z"/><path class="cls-47" d="M91.66,38.61a14.51,14.51,0,0,0-3.08-1.35,13.83,13.83,0,0,0-9.24.33.51.51,0,0,1-.37,0l-.05,0a.77.77,0,0,0-1,.46,1.21,1.21,0,0,1-.3.41.67.67,0,0,0-.2,1,.83.83,0,0,0,.41.28.81.81,0,0,0,.65-.07,12,12,0,0,1,9.69-1.06,12.8,12.8,0,0,1,2.72,1.19A.76.76,0,0,0,92,39.46.71.71,0,0,0,91.66,38.61Z"/><path class="cls-48" d="M85,78.12c.09-.32-1.19.19-2.62.08-2-.15-4.21-.44-6.09-.58s-2.79-.79-2.88-.46.14,3.82,2.08,3.69a25.1,25.1,0,0,1,6.67.89C83.45,82.15,84.93,78.44,85,78.12Z"/><path class="cls-48" d="M86.91,79.09c.13-.41-1.62.19-3.67.05-2.87-.19-6-.55-8.72-.73s-4.11-1.06-4.24-.65.31,4.91,3.1,4.73a40.48,40.48,0,0,1,9.56,1.13C84.74,84.14,86.78,79.5,86.91,79.09Z"/><path class="cls-48" d="M88.1,80.15c.16-.49-2,.19-4.54,0-3.55-.23-7.47-.67-10.8-.89s-4.93-1.36-5.09-.87.23,6,3.67,5.81a51.18,51.18,0,0,1,11.84,1.36C85.41,86.22,87.94,80.64,88.1,80.15Z"/><path class="cls-48" d="M88.77,81.82c.2-.59-2.09-.71-4.92-.8-4-.14-8.12-.86-11.81-1.1s-6-.62-6.19-.07.29,7.27,4.12,7a47.71,47.71,0,0,1,12,1C84.45,88.64,88.71,82.64,88.77,81.82Z"/><path class="cls-48" d="M85.81,83.22c.16-.49-1.78-.9-4.3-1.07-3.53-.23-7.3-.44-10.61-.65s-5.43-.45-5.59,0S65.62,88,69,87.77a42.37,42.37,0,0,1,10.74.94C82,89.35,85.62,83.91,85.81,83.22Z"/><path class="cls-48" d="M83.21,84c.13-.44-1.57-.88-3.58-1l-8.54-.62c-2.69-.2-4.43-.2-4.53.34s.3,5.47,3,5.28a30.43,30.43,0,0,1,8.6.84C80,89.42,83.07,84.47,83.21,84Z"/><path class="cls-48" d="M79.63,84.85c0-.5-1-.66-2.46-.79l-6.11-.53c-1.93-.17-3-.31-3.22.45-.11.38.19,4.54,2.16,4.38a18.33,18.33,0,0,1,6.16.72C77.42,89.57,79.54,85.23,79.63,84.85Z"/><path class="cls-48" d="M88.75,81.72c-.16.48-2.63.25-5.39,0l-11.64-1c-3.68-.3-6-.49-5.82-1s2.32-.23,6.06.08l11.7,1C86.4,81.09,88.91,81.24,88.75,81.72Z"/><path class="cls-48" d="M88.12,80.08c-.15.45-2.35.68-4.86.47l-10.58-.89c-3.34-.28-5.14-.84-5-1.29s1.81.17,5.21.45l10.64.91C86,79.93,88.27,79.62,88.12,80.08Z"/><path class="cls-48" d="M86.88,79c-.12.36-1.91.54-3.93.37l-8.58-.72c-2.71-.22-4.17-.67-4-1s1.47.14,4.23.36l8.63.73C85.18,78.93,87,78.68,86.88,79Z"/><path class="cls-48" d="M85,78.08c-.1.3-1.36.47-2.78.35l-6-.5c-1.89-.16-2.9-.51-2.8-.82s1,.1,3,.26l6,.52C83.82,78,85.11,77.78,85,78.08Z"/><path class="cls-48" d="M85.8,83.15c.15-.45-1.78-1-4.28-1.23l-10.59-.86c-3.34-.28-5.41,0-5.56.42s1.83.13,5.22.41l10.65.85C83.73,82.94,85.64,83.6,85.8,83.15Z"/><path class="cls-48" d="M83.18,84c.12-.36-1.45-.82-3.48-1l-8.59-.7c-2.71-.22-4.38,0-4.51.33s1.48.11,4.24.33l8.64.69C81.51,83.8,83.06,84.33,83.18,84Z"/><path class="cls-48" d="M79.57,84.73c.09-.35-1-.76-2.42-.88l-6-.49c-1.9-.16-3.08.06-3.17.42s1,.07,3,.23l6.05.49C78.39,84.61,79.48,85.09,79.57,84.73Z"/><path class="cls-49" d="M42,30.74c9-6.84,14.39-7.32,16.83-8,1.52-.43,2.21-1.36.46-2.4-3.32-1-9.16,1-19.49,8.95s-12,16.51-11.21,16.51C29.77,45.8,30,39.95,42,30.74Z"/><path class="cls-50" d="M97,103.2a89.19,89.19,0,0,0,10.9-15.87,40,40,0,0,1-25.34,18.23c-16.91,4-26.73-.48-36.87-4.67-9.12-3.76-17.59-15.2-19.2-17.47,1.23,3.48,2.72,6.58,4.38,8.43,4,4.5,14.67,11.95,16.8,13.61s15.38,7.1,24.25,7.1S92.57,108,97,103.2Z"/></g></g></svg>