<svg id="Organells&#x7EC6;&#x80DE;&#x5668;" xmlns="http://www.w3.org/2000/svg" xmlns:xlink="http://www.w3.org/1999/xlink" viewbox="0 0 128 128" width="128" height="128"><defs><style>.cls-1{fill:url(#未命名的渐变_55);stroke:none;}.cls-2{opacity:0.41;stroke:none;}.cls-3{fill:#fff;stroke:none;}.cls-10,.cls-11,.cls-12,.cls-13,.cls-14,.cls-15,.cls-4,.cls-5,.cls-6,.cls-7,.cls-8,.cls-9{stroke:#006a31;stroke-miterlimit:10;}.cls-4{fill:url(#未命名的渐变_61);stroke:none;}.cls-5{fill:url(#未命名的渐变_61-2);stroke:none;}.cls-6{fill:url(#未命名的渐变_61-5);stroke:none;}.cls-7{fill:url(#未命名的渐变_61-6);stroke:none;}.cls-8{fill:url(#未命名的渐变_61-7);stroke:none;}.cls-9{fill:url(#未命名的渐变_61-8);stroke:none;}.cls-10{fill:url(#未命名的渐变_61-9);stroke:none;}.cls-11{fill:url(#未命名的渐变_61-10);stroke:none;}.cls-12{fill:url(#未命名的渐变_61-11);stroke:none;}.cls-13{fill:url(#未命名的渐变_61-12);stroke:none;}.cls-14{fill:url(#未命名的渐变_61-13);stroke:none;}.cls-15{fill:url(#未命名的渐变_61-14);stroke:none;}</style><radialGradient id="&#x672A;&#x547D;&#x540D;&#x7684;&#x6E10;&#x53D8;_55" cx="62.61" cy="62.76" r="47" gradientunits="userSpaceOnUse"><stop offset="0.2" stop-color="#d8ecd8"/><stop offset="0.38" stop-color="#d4ebd5"/><stop offset="0.54" stop-color="#c9e6cb"/><stop offset="0.69" stop-color="#b7debb"/><stop offset="0.84" stop-color="#9dd4a5"/><stop offset="0.97" stop-color="#81c88d"/></radialGradient><radialGradient id="&#x672A;&#x547D;&#x540D;&#x7684;&#x6E10;&#x53D8;_61" cx="62.61" cy="15.84" r="7.62" gradientunits="userSpaceOnUse"><stop offset="0.52" stop-color="#cde7ca"/><stop offset="1" stop-color="#aad9b1"/></radialGradient><radialGradient id="&#x672A;&#x547D;&#x540D;&#x7684;&#x6E10;&#x53D8;_61-2" cx="62.61" cy="109.69" r="7.62" xlink:href="#&#x672A;&#x547D;&#x540D;&#x7684;&#x6E10;&#x53D8;_61"><radialGradient id="&#x672A;&#x547D;&#x540D;&#x7684;&#x6E10;&#x53D8;_61-5" cx="39.37" cy="22.51" r="7.9" xlink:href="#&#x672A;&#x547D;&#x540D;&#x7684;&#x6E10;&#x53D8;_61"><radialGradient id="&#x672A;&#x547D;&#x540D;&#x7684;&#x6E10;&#x53D8;_61-6" cx="85.85" cy="103.02" r="7.9" xlink:href="#&#x672A;&#x547D;&#x540D;&#x7684;&#x6E10;&#x53D8;_61"><radialGradient id="&#x672A;&#x547D;&#x540D;&#x7684;&#x6E10;&#x53D8;_61-7" cx="22.35" cy="39.52" r="7.9" xlink:href="#&#x672A;&#x547D;&#x540D;&#x7684;&#x6E10;&#x53D8;_61"><radialGradient id="&#x672A;&#x547D;&#x540D;&#x7684;&#x6E10;&#x53D8;_61-8" cx="102.86" cy="86.01" r="7.9" xlink:href="#&#x672A;&#x547D;&#x540D;&#x7684;&#x6E10;&#x53D8;_61"><radialGradient id="&#x672A;&#x547D;&#x540D;&#x7684;&#x6E10;&#x53D8;_61-9" cx="15.69" cy="62.76" r="7.62" xlink:href="#&#x672A;&#x547D;&#x540D;&#x7684;&#x6E10;&#x53D8;_61"><radialGradient id="&#x672A;&#x547D;&#x540D;&#x7684;&#x6E10;&#x53D8;_61-10" cx="109.53" cy="62.76" r="7.62" xlink:href="#&#x672A;&#x547D;&#x540D;&#x7684;&#x6E10;&#x53D8;_61"><radialGradient id="&#x672A;&#x547D;&#x540D;&#x7684;&#x6E10;&#x53D8;_61-11" cx="22.35" cy="86.01" r="7.9" xlink:href="#&#x672A;&#x547D;&#x540D;&#x7684;&#x6E10;&#x53D8;_61"><radialGradient id="&#x672A;&#x547D;&#x540D;&#x7684;&#x6E10;&#x53D8;_61-12" cx="102.86" cy="39.52" r="7.9" xlink:href="#&#x672A;&#x547D;&#x540D;&#x7684;&#x6E10;&#x53D8;_61"><radialGradient id="&#x672A;&#x547D;&#x540D;&#x7684;&#x6E10;&#x53D8;_61-13" cx="39.37" cy="103.02" r="7.9" xlink:href="#&#x672A;&#x547D;&#x540D;&#x7684;&#x6E10;&#x53D8;_61"><radialGradient id="&#x672A;&#x547D;&#x540D;&#x7684;&#x6E10;&#x53D8;_61-14" cx="85.85" cy="22.51" r="7.9" xlink:href="#&#x672A;&#x547D;&#x540D;&#x7684;&#x6E10;&#x53D8;_61"/></radialGradient></radialGradient></radialGradient></radialGradient></radialGradient></radialGradient></radialGradient></radialGradient></radialGradient></radialGradient></defs><title>Organells&#x7EC6;&#x80DE;&#x5668;</title><circle class="cls-1" cx="62.61" cy="62.76" r="47"/><g class="cls-2"><path class="cls-3" d="M77.81,30.41a2.13,2.13,0,0,1-2,.3,37.39,37.39,0,0,0-35.58,5.21,2.13,2.13,0,1,1-2.56-3.4,41.63,41.63,0,0,1,39.61-5.8,2.13,2.13,0,0,1,.54,3.7Z"/></g><g class="cls-2"><path class="cls-3" d="M25.51,58.31a2.13,2.13,0,0,1-3.35-2.2,41.71,41.71,0,0,1,10-18.66,2.13,2.13,0,0,1,3.12,2.9,37.44,37.44,0,0,0-9,16.75A2.12,2.12,0,0,1,25.51,58.31Z"/></g><path class="cls-4" d="M53.5,17.78a1.5,1.5,0,0,1-.29-3,49.11,49.11,0,0,1,18.78,0,1.5,1.5,0,0,1-.57,2.94,46.13,46.13,0,0,0-17.64,0Z"/><path class="cls-5" d="M62.61,111.63a49.26,49.26,0,0,1-9.39-.91,1.5,1.5,0,1,1,.57-2.94,46.11,46.11,0,0,0,17.64,0,1.5,1.5,0,1,1,.57,2.94A49.28,49.28,0,0,1,62.61,111.63Z"/><path class="cls-4" d="M53.5,17.78a1.5,1.5,0,0,1-.29-3,49.11,49.11,0,0,1,18.78,0,1.5,1.5,0,0,1-.57,2.94,46.13,46.13,0,0,0-17.64,0Z"/><path class="cls-5" d="M62.61,111.63a49.26,49.26,0,0,1-9.39-.91,1.5,1.5,0,1,1,.57-2.94,46.11,46.11,0,0,0,17.64,0,1.5,1.5,0,1,1,.57,2.94A49.28,49.28,0,0,1,62.61,111.63Z"/><path class="cls-6" d="M31.48,28.56a1.5,1.5,0,0,1-1-2.63,48.84,48.84,0,0,1,16.27-9.39,1.5,1.5,0,1,1,1,2.84A45.85,45.85,0,0,0,32.47,28.2,1.49,1.49,0,0,1,31.48,28.56Z"/><path class="cls-7" d="M78,109.07a1.5,1.5,0,0,1-.49-2.92,45.85,45.85,0,0,0,15.27-8.82,1.5,1.5,0,1,1,2,2.26A48.85,48.85,0,0,1,78.45,109,1.5,1.5,0,0,1,78,109.07Z"/><path class="cls-8" d="M17.8,48.91a1.5,1.5,0,0,1-1.42-2,48.86,48.86,0,0,1,9.39-16.27,1.5,1.5,0,1,1,2.26,2A45.86,45.86,0,0,0,19.22,47.9,1.5,1.5,0,0,1,17.8,48.91Z"/><path class="cls-9" d="M98.31,95.39a1.5,1.5,0,0,1-1.13-2.48A45.83,45.83,0,0,0,106,77.63a1.5,1.5,0,1,1,2.84,1,48.83,48.83,0,0,1-9.39,16.27A1.5,1.5,0,0,1,98.31,95.39Z"/><path class="cls-10" d="M16.13,73.37a1.5,1.5,0,0,1-1.47-1.21,48.83,48.83,0,0,1,0-18.78,1.5,1.5,0,1,1,2.94.57,45.85,45.85,0,0,0,0,17.64,1.5,1.5,0,0,1-1.19,1.76Z"/><path class="cls-11" d="M109.09,73.37l-.29,0a1.5,1.5,0,0,1-1.19-1.76,45.85,45.85,0,0,0,0-17.64,1.5,1.5,0,0,1,2.94-.57,48.83,48.83,0,0,1,0,18.78A1.5,1.5,0,0,1,109.09,73.37Z"/><path class="cls-12" d="M26.91,95.39a1.5,1.5,0,0,1-1.13-.52,48.85,48.85,0,0,1-9.39-16.27,1.5,1.5,0,1,1,2.84-1A45.86,45.86,0,0,0,28,92.91a1.5,1.5,0,0,1-1.13,2.48Z"/><path class="cls-13" d="M107.41,48.91a1.5,1.5,0,0,1-1.42-1,45.84,45.84,0,0,0-8.82-15.27,1.5,1.5,0,1,1,2.26-2,48.86,48.86,0,0,1,9.39,16.27,1.5,1.5,0,0,1-1.42,2Z"/><path class="cls-14" d="M47.25,109.07a1.5,1.5,0,0,1-.49-.08A48.83,48.83,0,0,1,30.5,99.6a1.5,1.5,0,1,1,2-2.26,45.84,45.84,0,0,0,15.27,8.82,1.5,1.5,0,0,1-.49,2.92Z"/><path class="cls-15" d="M93.73,28.56a1.49,1.49,0,0,1-1-.37,45.84,45.84,0,0,0-15.27-8.82,1.5,1.5,0,1,1,1-2.84,48.86,48.86,0,0,1,16.27,9.39,1.5,1.5,0,0,1-1,2.63Z"/></svg>