<svg id="Organells&#x7EC6;&#x80DE;&#x5668;" xmlns="http://www.w3.org/2000/svg" xmlns:xlink="http://www.w3.org/1999/xlink" viewbox="0 0 128 128" width="128" height="128"><defs><style>.cls-1{fill:url(#未命名的渐变_11);stroke:none;}.cls-2{fill:#d563ff;stroke:none;}.cls-3{fill:#8d32c3;stroke:none;}.cls-4{fill:url(#未命名的渐变_11-2);stroke:none;}.cls-5{fill:url(#未命名的渐变_11-3);stroke:none;}.cls-6{fill:url(#未命名的渐变_11-4);stroke:none;}.cls-7{fill:url(#未命名的渐变_11-5);stroke:none;}.cls-8{fill:url(#未命名的渐变_11-6);stroke:none;}.cls-9{fill:url(#未命名的渐变_11-7);stroke:none;}.cls-10{fill:url(#未命名的渐变_11-8);stroke:none;}.cls-11{fill:url(#未命名的渐变_11-9);stroke:none;}.cls-12{fill:url(#未命名的渐变_11-10);stroke:none;}.cls-13{fill:url(#未命名的渐变_11-11);stroke:none;}.cls-14{fill:url(#未命名的渐变_11-12);stroke:none;}.cls-15{fill:url(#未命名的渐变_11-13);stroke:none;}.cls-16{fill:url(#未命名的渐变_11-14);stroke:none;}.cls-17{fill:url(#未命名的渐变_11-15);stroke:none;}.cls-18{fill:url(#未命名的渐变_11-16);stroke:none;}.cls-19{fill:url(#未命名的渐变_11-17);stroke:none;}.cls-20{fill:url(#未命名的渐变_11-18);stroke:none;}.cls-21{fill:#d564ff;stroke:none;}.cls-22{fill:url(#未命名的渐变_11-19);stroke:none;}.cls-23{fill:url(#未命名的渐变_11-20);stroke:none;}.cls-24{fill:url(#未命名的渐变_11-21);stroke:none;}.cls-25{fill:url(#未命名的渐变_11-22);stroke:none;}.cls-26{fill:url(#未命名的渐变_11-23);stroke:none;}.cls-27{fill:url(#未命名的渐变_11-24);stroke:none;}.cls-28{fill:url(#未命名的渐变_11-25);stroke:none;}.cls-29{fill:url(#未命名的渐变_11-26);stroke:none;}.cls-30{fill:url(#未命名的渐变_11-27);stroke:none;}</style><linearGradient id="&#x672A;&#x547D;&#x540D;&#x7684;&#x6E10;&#x53D8;_11" x1="83.26" y1="110.48" x2="88.38" y2="110.48" gradienttransform="matrix(-0.69, 0.72, 0.72, 0.69, 27.28, -74.35)" gradientunits="userSpaceOnUse"><stop offset="0" stop-color="#662d91"/><stop offset="0.57" stop-color="#b546b7"/><stop offset="1" stop-color="#662d91"/></linearGradient><linearGradient id="&#x672A;&#x547D;&#x540D;&#x7684;&#x6E10;&#x53D8;_11-2" x1="85.8" y1="115.53" x2="90.93" y2="115.53" xlink:href="#&#x672A;&#x547D;&#x540D;&#x7684;&#x6E10;&#x53D8;_11"><linearGradient id="&#x672A;&#x547D;&#x540D;&#x7684;&#x6E10;&#x53D8;_11-3" x1="90.21" y1="116.86" x2="95.33" y2="116.86" xlink:href="#&#x672A;&#x547D;&#x540D;&#x7684;&#x6E10;&#x53D8;_11"><linearGradient id="&#x672A;&#x547D;&#x540D;&#x7684;&#x6E10;&#x53D8;_11-4" x1="94.66" y1="118.12" x2="99.78" y2="118.12" xlink:href="#&#x672A;&#x547D;&#x540D;&#x7684;&#x6E10;&#x53D8;_11"><linearGradient id="&#x672A;&#x547D;&#x540D;&#x7684;&#x6E10;&#x53D8;_11-5" x1="78.7" y1="111.32" x2="83.82" y2="111.32" xlink:href="#&#x672A;&#x547D;&#x540D;&#x7684;&#x6E10;&#x53D8;_11"><linearGradient id="&#x672A;&#x547D;&#x540D;&#x7684;&#x6E10;&#x53D8;_11-6" x1="74.18" y1="112.34" x2="79.3" y2="112.34" xlink:href="#&#x672A;&#x547D;&#x540D;&#x7684;&#x6E10;&#x53D8;_11"><linearGradient id="&#x672A;&#x547D;&#x540D;&#x7684;&#x6E10;&#x53D8;_11-7" x1="67.4" y1="107.94" x2="72.53" y2="107.94" xlink:href="#&#x672A;&#x547D;&#x540D;&#x7684;&#x6E10;&#x53D8;_11"><linearGradient id="&#x672A;&#x547D;&#x540D;&#x7684;&#x6E10;&#x53D8;_11-8" x1="64.92" y1="110.98" x2="70.04" y2="110.98" xlink:href="#&#x672A;&#x547D;&#x540D;&#x7684;&#x6E10;&#x53D8;_11"><linearGradient id="&#x672A;&#x547D;&#x540D;&#x7684;&#x6E10;&#x53D8;_11-9" x1="62.26" y1="114" x2="67.38" y2="114" xlink:href="#&#x672A;&#x547D;&#x540D;&#x7684;&#x6E10;&#x53D8;_11"><linearGradient id="&#x672A;&#x547D;&#x540D;&#x7684;&#x6E10;&#x53D8;_11-10" x1="52.12" y1="114.59" x2="57.24" y2="114.59" xlink:href="#&#x672A;&#x547D;&#x540D;&#x7684;&#x6E10;&#x53D8;_11"><linearGradient id="&#x672A;&#x547D;&#x540D;&#x7684;&#x6E10;&#x53D8;_11-11" x1="52.17" y1="117.98" x2="57.29" y2="117.98" xlink:href="#&#x672A;&#x547D;&#x540D;&#x7684;&#x6E10;&#x53D8;_11"><linearGradient id="&#x672A;&#x547D;&#x540D;&#x7684;&#x6E10;&#x53D8;_11-12" x1="52.29" y1="121.26" x2="57.42" y2="121.26" xlink:href="#&#x672A;&#x547D;&#x540D;&#x7684;&#x6E10;&#x53D8;_11"><linearGradient id="&#x672A;&#x547D;&#x540D;&#x7684;&#x6E10;&#x53D8;_11-13" x1="46.96" y1="126.18" x2="52.08" y2="126.18" xlink:href="#&#x672A;&#x547D;&#x540D;&#x7684;&#x6E10;&#x53D8;_11"><linearGradient id="&#x672A;&#x547D;&#x540D;&#x7684;&#x6E10;&#x53D8;_11-14" x1="50.23" y1="128.1" x2="55.35" y2="128.1" xlink:href="#&#x672A;&#x547D;&#x540D;&#x7684;&#x6E10;&#x53D8;_11"><linearGradient id="&#x672A;&#x547D;&#x540D;&#x7684;&#x6E10;&#x53D8;_11-15" x1="53.4" y1="130.09" x2="58.52" y2="130.09" xlink:href="#&#x672A;&#x547D;&#x540D;&#x7684;&#x6E10;&#x53D8;_11"><linearGradient id="&#x672A;&#x547D;&#x540D;&#x7684;&#x6E10;&#x53D8;_11-16" x1="62.22" y1="135.29" x2="67.34" y2="135.29" xlink:href="#&#x672A;&#x547D;&#x540D;&#x7684;&#x6E10;&#x53D8;_11"><linearGradient id="&#x672A;&#x547D;&#x540D;&#x7684;&#x6E10;&#x53D8;_11-17" x1="57.38" y1="135.41" x2="62.51" y2="135.41" xlink:href="#&#x672A;&#x547D;&#x540D;&#x7684;&#x6E10;&#x53D8;_11"><linearGradient id="&#x672A;&#x547D;&#x540D;&#x7684;&#x6E10;&#x53D8;_11-18" x1="52.54" y1="135.44" x2="57.66" y2="135.44" xlink:href="#&#x672A;&#x547D;&#x540D;&#x7684;&#x6E10;&#x53D8;_11"><linearGradient id="&#x672A;&#x547D;&#x540D;&#x7684;&#x6E10;&#x53D8;_11-19" x1="90.54" y1="122.97" x2="95.67" y2="122.97" xlink:href="#&#x672A;&#x547D;&#x540D;&#x7684;&#x6E10;&#x53D8;_11"><linearGradient id="&#x672A;&#x547D;&#x540D;&#x7684;&#x6E10;&#x53D8;_11-20" x1="93.24" y1="125.85" x2="98.36" y2="125.85" xlink:href="#&#x672A;&#x547D;&#x540D;&#x7684;&#x6E10;&#x53D8;_11"><linearGradient id="&#x672A;&#x547D;&#x540D;&#x7684;&#x6E10;&#x53D8;_11-21" x1="95.44" y1="128.93" x2="100.56" y2="128.93" xlink:href="#&#x672A;&#x547D;&#x540D;&#x7684;&#x6E10;&#x53D8;_11"><linearGradient id="&#x672A;&#x547D;&#x540D;&#x7684;&#x6E10;&#x53D8;_11-22" x1="75.04" y1="137.06" x2="80.17" y2="137.06" xlink:href="#&#x672A;&#x547D;&#x540D;&#x7684;&#x6E10;&#x53D8;_11"><linearGradient id="&#x672A;&#x547D;&#x540D;&#x7684;&#x6E10;&#x53D8;_11-23" x1="71.53" y1="139" x2="76.66" y2="139" xlink:href="#&#x672A;&#x547D;&#x540D;&#x7684;&#x6E10;&#x53D8;_11"><linearGradient id="&#x672A;&#x547D;&#x540D;&#x7684;&#x6E10;&#x53D8;_11-24" x1="67.89" y1="141.04" x2="73.01" y2="141.04" xlink:href="#&#x672A;&#x547D;&#x540D;&#x7684;&#x6E10;&#x53D8;_11"><linearGradient id="&#x672A;&#x547D;&#x540D;&#x7684;&#x6E10;&#x53D8;_11-25" x1="87.65" y1="131.33" x2="92.78" y2="131.33" xlink:href="#&#x672A;&#x547D;&#x540D;&#x7684;&#x6E10;&#x53D8;_11"><linearGradient id="&#x672A;&#x547D;&#x540D;&#x7684;&#x6E10;&#x53D8;_11-26" x1="86.17" y1="134.18" x2="91.3" y2="134.18" xlink:href="#&#x672A;&#x547D;&#x540D;&#x7684;&#x6E10;&#x53D8;_11"><linearGradient id="&#x672A;&#x547D;&#x540D;&#x7684;&#x6E10;&#x53D8;_11-27" x1="84.25" y1="137.46" x2="89.37" y2="137.46" xlink:href="#&#x672A;&#x547D;&#x540D;&#x7684;&#x6E10;&#x53D8;_11"/></linearGradient></linearGradient></linearGradient></linearGradient></linearGradient></linearGradient></linearGradient></linearGradient></linearGradient></linearGradient></linearGradient></linearGradient></linearGradient></linearGradient></linearGradient></linearGradient></linearGradient></linearGradient></linearGradient></linearGradient></linearGradient></linearGradient></linearGradient></linearGradient></linearGradient></defs><title>Organells&#x7EC6;&#x80DE;&#x5668;</title><path class="cls-1" d="M21.57,39.13a2.2,2.2,0,0,1,3-.49L73.43,86.06a2.53,2.53,0,0,1-3.38,3.5L21.2,42.15A2.2,2.2,0,0,1,21.57,39.13Z"/><ellipse class="cls-2" cx="22.89" cy="40.4" rx="2.43" ry="1.82" transform="translate(-22.09 28.86) rotate(-46.08)"/><ellipse class="cls-3" cx="22.89" cy="40.4" rx="1.72" ry="1.22" transform="translate(-22.09 28.86) rotate(-46.08)"/><path class="cls-4" d="M23.45,44.47a2.2,2.2,0,0,1,3-.49L75.31,91.4a2.53,2.53,0,0,1-3.38,3.5L23.08,47.49A2.2,2.2,0,0,1,23.45,44.47Z"/><ellipse class="cls-2" cx="24.76" cy="45.74" rx="2.43" ry="1.82" transform="translate(-25.36 31.85) rotate(-46.08)"/><ellipse class="cls-3" cx="24.76" cy="45.74" rx="1.72" ry="1.22" transform="translate(-25.36 31.85) rotate(-46.08)"/><path class="cls-5" d="M21.35,48.56a2.2,2.2,0,0,1,3-.49L73.21,95.49A2.53,2.53,0,0,1,69.83,99L21,51.58A2.2,2.2,0,0,1,21.35,48.56Z"/><ellipse class="cls-2" cx="22.66" cy="49.83" rx="2.43" ry="1.82" transform="translate(-28.95 31.58) rotate(-46.08)"/><ellipse class="cls-3" cx="22.66" cy="49.83" rx="1.72" ry="1.22" transform="translate(-28.95 31.58) rotate(-46.08)"/><path class="cls-6" d="M19.17,52.64a2.2,2.2,0,0,1,3-.49L71,99.57a2.53,2.53,0,0,1-3.38,3.5L18.79,55.66A2.2,2.2,0,0,1,19.17,52.64Z"/><ellipse class="cls-2" cx="20.48" cy="53.91" rx="2.43" ry="1.82" transform="translate(-32.56 31.26) rotate(-46.08)"/><ellipse class="cls-3" cx="20.48" cy="53.91" rx="1.72" ry="1.22" transform="translate(-32.56 31.26) rotate(-46.08)"/><path class="cls-7" d="M25.34,36.43a2.2,2.2,0,0,1,3-.49L77.2,83.36a2.53,2.53,0,0,1-3.38,3.5L25,39.45A2.2,2.2,0,0,1,25.34,36.43Z"/><ellipse class="cls-2" cx="26.66" cy="37.7" rx="2.43" ry="1.82" transform="translate(-18.99 30.75) rotate(-46.08)"/><ellipse class="cls-3" cx="26.66" cy="37.7" rx="1.72" ry="1.22" transform="translate(-18.99 30.75) rotate(-46.08)"/><path class="cls-8" d="M29.21,33.88a2.2,2.2,0,0,1,3-.49L81.07,80.81a2.53,2.53,0,0,1-3.38,3.5L28.84,36.9A2.2,2.2,0,0,1,29.21,33.88Z"/><ellipse class="cls-2" cx="30.53" cy="35.15" rx="2.43" ry="1.82" transform="translate(-15.97 32.76) rotate(-46.08)"/><ellipse class="cls-3" cx="30.53" cy="35.15" rx="1.72" ry="1.22" transform="translate(-15.97 32.76) rotate(-46.08)"/><path class="cls-9" d="M30.75,26a2.2,2.2,0,0,1,3-.49L82.6,72.88a2.53,2.53,0,0,1-3.38,3.5L30.37,29A2.2,2.2,0,0,1,30.75,26Z"/><ellipse class="cls-2" cx="32.06" cy="27.22" rx="2.43" ry="1.82" transform="translate(-9.79 31.43) rotate(-46.08)"/><ellipse class="cls-3" cx="32.06" cy="27.22" rx="1.72" ry="1.22" transform="translate(-9.79 31.43) rotate(-46.08)"/><path class="cls-10" d="M34.66,26.27a2.2,2.2,0,0,1,3-.49L86.52,73.2a2.53,2.53,0,0,1-3.38,3.5L34.29,29.29A2.2,2.2,0,0,1,34.66,26.27Z"/><ellipse class="cls-2" cx="35.97" cy="27.54" rx="2.43" ry="1.82" transform="translate(-8.82 34.34) rotate(-46.08)"/><ellipse class="cls-3" cx="35.97" cy="27.54" rx="1.72" ry="1.22" transform="translate(-8.82 34.34) rotate(-46.08)"/><path class="cls-11" d="M38.67,26.45a2.2,2.2,0,0,1,3-.49L90.53,73.38a2.53,2.53,0,0,1-3.38,3.5L38.3,29.47A2.2,2.2,0,0,1,38.67,26.45Z"/><ellipse class="cls-2" cx="39.99" cy="27.72" rx="2.43" ry="1.82" transform="translate(-7.71 37.29) rotate(-46.08)"/><ellipse class="cls-3" cx="39.99" cy="27.72" rx="1.72" ry="1.22" transform="translate(-7.71 37.29) rotate(-46.08)"/><path class="cls-12" d="M46.14,19.56a2.2,2.2,0,0,1,3-.49L98,66.48A2.53,2.53,0,0,1,94.62,70L45.77,22.58A2.2,2.2,0,0,1,46.14,19.56Z"/><ellipse class="cls-2" cx="47.45" cy="20.82" rx="2.43" ry="1.82" transform="translate(-0.46 40.56) rotate(-46.08)"/><ellipse class="cls-3" cx="47.45" cy="20.82" rx="1.72" ry="1.22" transform="translate(-0.46 40.56) rotate(-46.08)"/><path class="cls-13" d="M48.55,21.94a2.2,2.2,0,0,1,3-.49l48.86,47.41A2.53,2.53,0,0,1,97,72.37L48.17,25A2.2,2.2,0,0,1,48.55,21.94Z"/><ellipse class="cls-2" cx="49.86" cy="23.21" rx="2.43" ry="1.82" transform="translate(-1.44 43.02) rotate(-46.08)"/><ellipse class="cls-3" cx="49.86" cy="23.21" rx="1.72" ry="1.22" transform="translate(-1.44 43.02) rotate(-46.08)"/><path class="cls-14" d="M50.82,24.31a2.2,2.2,0,0,1,3-.49l48.86,47.41a2.53,2.53,0,0,1-3.38,3.5L50.45,27.33A2.2,2.2,0,0,1,50.82,24.31Z"/><ellipse class="cls-2" cx="52.14" cy="25.58" rx="2.43" ry="1.82" transform="translate(-2.45 45.39) rotate(-46.08)"/><ellipse class="cls-3" cx="52.14" cy="25.58" rx="1.72" ry="1.22" transform="translate(-2.45 45.39) rotate(-46.08)"/><path class="cls-15" d="M58.06,23.87a2.2,2.2,0,0,1,3-.49L109.92,70.8a2.53,2.53,0,0,1-3.38,3.5L57.69,26.89A2.2,2.2,0,0,1,58.06,23.87Z"/><ellipse class="cls-2" cx="59.38" cy="25.14" rx="2.43" ry="1.82" transform="translate(0.08 50.47) rotate(-46.08)"/><ellipse class="cls-3" cx="59.38" cy="25.14" rx="1.72" ry="1.22" transform="translate(0.08 50.47) rotate(-46.08)"/><path class="cls-16" d="M57.18,27.57a2.2,2.2,0,0,1,3-.49L109,74.49a2.53,2.53,0,0,1-3.38,3.5L56.8,30.58A2.2,2.2,0,0,1,57.18,27.57Z"/><ellipse class="cls-2" cx="58.49" cy="28.83" rx="2.43" ry="1.82" transform="translate(-2.85 50.96) rotate(-46.08)"/><ellipse class="cls-3" cx="58.49" cy="28.83" rx="1.72" ry="1.22" transform="translate(-2.85 50.96) rotate(-46.08)"/><path class="cls-17" d="M56.41,31.23a2.2,2.2,0,0,1,3-.49l48.86,47.41a2.53,2.53,0,0,1-3.38,3.5L56,34.25A2.2,2.2,0,0,1,56.41,31.23Z"/><ellipse class="cls-2" cx="57.73" cy="32.5" rx="2.43" ry="1.82" transform="translate(-5.73 51.53) rotate(-46.08)"/><ellipse class="cls-3" cx="57.73" cy="32.5" rx="1.72" ry="1.22" transform="translate(-5.73 51.53) rotate(-46.08)"/><path class="cls-18" d="M54,41.19a2.2,2.2,0,0,1,3-.49L105.9,88.12a2.53,2.53,0,0,1-3.38,3.5L53.66,44.21A2.2,2.2,0,0,1,54,41.19Z"/><ellipse class="cls-2" cx="55.35" cy="42.46" rx="2.43" ry="1.82" transform="translate(-13.62 52.87) rotate(-46.08)"/><ellipse class="cls-3" cx="55.35" cy="42.46" rx="1.72" ry="1.22" transform="translate(-13.62 52.87) rotate(-46.08)"/><path class="cls-19" d="M57.48,37.79a2.2,2.2,0,0,1,3-.49l48.86,47.41a2.53,2.53,0,0,1-3.38,3.5L57.11,40.81A2.2,2.2,0,0,1,57.48,37.79Z"/><ellipse class="cls-2" cx="58.8" cy="39.06" rx="2.43" ry="1.82" transform="translate(-10.12 54.31) rotate(-46.08)"/><ellipse class="cls-3" cx="58.8" cy="39.06" rx="1.72" ry="1.22" transform="translate(-10.12 54.31) rotate(-46.08)"/><path class="cls-20" d="M60.86,34.32a2.2,2.2,0,0,1,3-.49l48.86,47.41a2.53,2.53,0,0,1-3.38,3.5L60.49,37.34A2.2,2.2,0,0,1,60.86,34.32Z"/><ellipse class="cls-21" cx="62.17" cy="35.59" rx="2.43" ry="1.82" transform="translate(-6.59 55.68) rotate(-46.08)"/><ellipse class="cls-3" cx="62.17" cy="35.59" rx="1.72" ry="1.22" transform="translate(-6.59 55.68) rotate(-46.08)"/><path class="cls-22" d="M25.52,53a2.2,2.2,0,0,1,3-.49L77.38,100a2.53,2.53,0,0,1-3.38,3.5L25.15,56.07A2.2,2.2,0,0,1,25.52,53Z"/><ellipse class="cls-2" cx="26.83" cy="54.31" rx="2.43" ry="1.82" transform="translate(-30.9 35.96) rotate(-46.08)"/><ellipse class="cls-3" cx="26.83" cy="54.31" rx="1.72" ry="1.22" transform="translate(-30.9 35.96) rotate(-46.08)"/><path class="cls-23" d="M25.72,57a2.2,2.2,0,0,1,3-.49l48.86,47.41a2.53,2.53,0,0,1-3.38,3.5L25.35,60A2.2,2.2,0,0,1,25.72,57Z"/><ellipse class="cls-2" cx="27.03" cy="58.25" rx="2.43" ry="1.82" transform="translate(-33.67 37.31) rotate(-46.08)"/><ellipse class="cls-3" cx="27.03" cy="58.25" rx="1.72" ry="1.22" transform="translate(-33.67 37.31) rotate(-46.08)"/><path class="cls-24" d="M26.41,60.71a2.2,2.2,0,0,1,3-.49l48.86,47.41a2.53,2.53,0,0,1-3.38,3.5L26,63.73A2.2,2.2,0,0,1,26.41,60.71Z"/><ellipse class="cls-2" cx="27.73" cy="61.97" rx="2.43" ry="1.82" transform="translate(-36.14 38.95) rotate(-46.08)"/><ellipse class="cls-3" cx="27.73" cy="61.97" rx="1.72" ry="1.22" transform="translate(-36.14 38.95) rotate(-46.08)"/><path class="cls-25" d="M46.42,51.66a2.2,2.2,0,0,1,3-.49L98.28,98.58a2.53,2.53,0,0,1-3.38,3.5L46,54.67A2.2,2.2,0,0,1,46.42,51.66Z"/><ellipse class="cls-2" cx="47.73" cy="52.92" rx="2.43" ry="1.82" transform="translate(-23.5 50.59) rotate(-46.08)"/><ellipse class="cls-3" cx="47.73" cy="52.92" rx="1.72" ry="1.22" transform="translate(-23.5 50.59) rotate(-46.08)"/><path class="cls-26" d="M50.25,50.47a2.2,2.2,0,0,1,3-.49L102.11,97.4a2.53,2.53,0,0,1-3.38,3.5L49.88,53.49A2.2,2.2,0,0,1,50.25,50.47Z"/><ellipse class="cls-2" cx="51.56" cy="51.74" rx="2.43" ry="1.82" transform="translate(-21.47 52.99) rotate(-46.08)"/><ellipse class="cls-3" cx="51.56" cy="51.74" rx="1.72" ry="1.22" transform="translate(-21.47 52.99) rotate(-46.08)"/><path class="cls-27" d="M54.24,49.26a2.2,2.2,0,0,1,3-.49L106.1,96.19a2.53,2.53,0,0,1-3.38,3.5L53.87,52.28A2.2,2.2,0,0,1,54.24,49.26Z"/><ellipse class="cls-2" cx="55.56" cy="50.53" rx="2.43" ry="1.82" transform="translate(-19.37 55.49) rotate(-46.08)"/><ellipse class="cls-3" cx="55.56" cy="50.53" rx="1.72" ry="1.22" transform="translate(-19.37 55.49) rotate(-46.08)"/><path class="cls-28" d="M33.54,56.76a2.2,2.2,0,0,1,3-.49L85.4,103.69a2.53,2.53,0,0,1-3.38,3.5L33.17,59.78A2.2,2.2,0,0,1,33.54,56.76Z"/><ellipse class="cls-2" cx="34.86" cy="58.03" rx="2.43" ry="1.82" transform="translate(-31.12 42.88) rotate(-46.08)"/><ellipse class="cls-3" cx="34.86" cy="58.03" rx="1.72" ry="1.22" transform="translate(-31.12 42.88) rotate(-46.08)"/><path class="cls-29" d="M36.63,57.68a2.2,2.2,0,0,1,3-.49L88.48,104.6a2.53,2.53,0,0,1-3.38,3.5L36.25,60.69A2.2,2.2,0,0,1,36.63,57.68Z"/><ellipse class="cls-2" cx="37.94" cy="58.94" rx="2.43" ry="1.82" transform="translate(-30.83 45.38) rotate(-46.08)"/><ellipse class="cls-3" cx="37.94" cy="58.94" rx="1.72" ry="1.22" transform="translate(-30.83 45.38) rotate(-46.08)"/><path class="cls-30" d="M40.32,58.56a2.2,2.2,0,0,1,3-.49l48.86,47.41A2.53,2.53,0,0,1,88.8,109L39.95,61.58A2.2,2.2,0,0,1,40.32,58.56Z"/><ellipse class="cls-2" cx="41.63" cy="59.83" rx="2.43" ry="1.82" transform="translate(-30.34 48.31) rotate(-46.08)"/><ellipse class="cls-3" cx="41.63" cy="59.83" rx="1.72" ry="1.22" transform="translate(-30.34 48.31) rotate(-46.08)"/></svg>