<svg id="Organells&#x7EC6;&#x80DE;&#x5668;" xmlns="http://www.w3.org/2000/svg" viewbox="0 0 128 128" width="128" height="128"><defs><style>.cls-1{fill:#cae800;stroke:none;}.cls-2{fill:#00a300;stroke:none;}.cls-3{fill:#30cb00;stroke:none;}.cls-4{fill:#05e601;stroke:#007045;stroke-miterlimit:10;stroke-width:0.5px;}</style></defs><title>Organells&#x7EC6;&#x80DE;&#x5668;</title><path class="cls-1" d="M64.64,44c-22.49,0-41.5,9.52-41.5,20.79s19,20.79,41.5,20.79,41.5-9.52,41.5-20.79S87.13,44,64.64,44Z"/><path class="cls-2" d="M64.64,32.28c-29.59,0-52.77,14.26-52.77,32.47S35.05,97.22,64.64,97.22,117.4,83,117.4,64.75,94.23,32.28,64.64,32.28Zm0,53c-21.74,0-40.81-9.59-40.81-20.52S42.9,44.24,64.64,44.24s40.81,9.59,40.81,20.52S86.38,85.27,64.64,85.27Z"/><path class="cls-3" d="M64.64,93.72C37,93.72,15.37,81,15.37,64.75s21.64-29,49.27-29,49.27,12.73,49.27,29S92.27,93.72,64.64,93.72Zm0-53c-24,0-44.31,11-44.31,24s20.29,24,44.31,24,44.31-11,44.31-24S88.66,40.74,64.64,40.74Z"/><path class="cls-4" d="M57,77.94,40.28,60.78a1.32,1.32,0,0,1,1-2.23L67,59.81a1.32,1.32,0,0,0,.59-.11L78.8,55.5a1.32,1.32,0,0,1,.83-.07l7.73,1.9a1.32,1.32,0,0,1,1,1.59l-.09.36a1.32,1.32,0,0,1-1.59,1l-6.76-1.66a1.32,1.32,0,0,0-.83.07L68.13,62.73a1.32,1.32,0,0,1-.59.11l-18.77-.92a1.32,1.32,0,0,0-1,2.23L58.2,74.84a1.32,1.32,0,0,0,1,.39l28-2.4a1.32,1.32,0,0,1,1.41,1.22l0,.37a1.32,1.32,0,0,1-1.22,1.41l-29.44,2.5A1.32,1.32,0,0,1,57,77.94Z"/><path class="cls-4" d="M44.09,51.57c-3.31,0-6.1,1.08-6.1,2.36s2.79,2.36,6.1,2.36,6.1-1.08,6.1-2.36S47.4,51.57,44.09,51.57Z"/><path class="cls-4" d="M44.09,56.29c-3.31,0-6.1,1.08-6.1,2.36S40.79,61,44.09,61s6.1-1.08,6.1-2.36S47.4,56.29,44.09,56.29Z"/><path class="cls-4" d="M44.09,61c-3.31,0-6.1,1.08-6.1,2.36s2.79,2.36,6.1,2.36,6.1-1.08,6.1-2.36S47.4,61,44.09,61Z"/><path class="cls-4" d="M77.77,50.18c-3.31,0-6.1,1.08-6.1,2.36s2.79,2.36,6.1,2.36,6.1-1.08,6.1-2.36S81.08,50.18,77.77,50.18Z"/><path class="cls-4" d="M77.77,54.9c-3.31,0-6.1,1.08-6.1,2.36s2.79,2.36,6.1,2.36,6.1-1.08,6.1-2.36S81.08,54.9,77.77,54.9Z"/><path class="cls-4" d="M86.42,54.8c-3.31,0-6.1,1.08-6.1,2.36s2.79,2.36,6.1,2.36,6.1-1.08,6.1-2.36S89.73,54.8,86.42,54.8Z"/><path class="cls-4" d="M86.42,59.51c-3.31,0-6.1,1.08-6.1,2.36s2.79,2.36,6.1,2.36,6.1-1.08,6.1-2.36S89.73,59.51,86.42,59.51Z"/><path class="cls-4" d="M86.42,64.23c-3.31,0-6.1,1.08-6.1,2.36s2.79,2.36,6.1,2.36,6.1-1.08,6.1-2.36S89.73,64.23,86.42,64.23Z"/><path class="cls-4" d="M86.42,68.95c-3.31,0-6.1,1.08-6.1,2.36s2.79,2.36,6.1,2.36,6.1-1.08,6.1-2.36S89.73,68.95,86.42,68.95Z"/><path class="cls-4" d="M86.42,73.66c-3.31,0-6.1,1.08-6.1,2.36s2.79,2.36,6.1,2.36,6.1-1.08,6.1-2.36S89.73,73.66,86.42,73.66Z"/><path class="cls-4" d="M60,66.4c-3.31,0-6.1,1.08-6.1,2.36s2.79,2.36,6.1,2.36,6.1-1.08,6.1-2.36S63.35,66.4,60,66.4Z"/><path class="cls-4" d="M60,71.11c-3.31,0-6.1,1.08-6.1,2.36s2.79,2.36,6.1,2.36,6.1-1.08,6.1-2.36S63.35,71.11,60,71.11Z"/><path class="cls-4" d="M60,75.83c-3.31,0-6.1,1.08-6.1,2.36s2.79,2.36,6.1,2.36,6.1-1.08,6.1-2.36S63.35,75.83,60,75.83Z"/><path class="cls-4" d="M68.57,46.19c-3.31,0-6.1,1.08-6.1,2.36s2.79,2.36,6.1,2.36,6.1-1.08,6.1-2.36S71.88,46.19,68.57,46.19Z"/><path class="cls-4" d="M68.57,50.91c-3.31,0-6.1,1.08-6.1,2.36s2.79,2.36,6.1,2.36,6.1-1.08,6.1-2.36S71.88,50.91,68.57,50.91Z"/><path class="cls-4" d="M68.57,55.62c-3.31,0-6.1,1.08-6.1,2.36s2.79,2.36,6.1,2.36,6.1-1.08,6.1-2.36S71.88,55.62,68.57,55.62Z"/><path class="cls-4" d="M68.57,60.34c-3.31,0-6.1,1.08-6.1,2.36s2.79,2.36,6.1,2.36,6.1-1.08,6.1-2.36S71.88,60.34,68.57,60.34Z"/><path class="cls-4" d="M68.57,65.05c-3.31,0-6.1,1.08-6.1,2.36s2.79,2.36,6.1,2.36,6.1-1.08,6.1-2.36S71.88,65.05,68.57,65.05Z"/></svg>