<svg id="Organells&#x7EC6;&#x80DE;&#x5668;" xmlns="http://www.w3.org/2000/svg" viewbox="0 0 128 128" width="128" height="128"><defs><style>.cls-1{fill:#1c9300;stroke:none;}.cls-2{fill:#e3f196;stroke:none;}.cls-3{fill:#ffa;stroke:none;}.cls-4{fill:#27723d;stroke:none;}.cls-5{fill:#439b33;stroke:none;}.cls-6{fill:#6dd13f;stroke:none;}.cls-7,.cls-9{fill:#008237;stroke:none;}.cls-8{fill:#4d9337;stroke:none;}.cls-18,.cls-9{opacity:0.67;stroke:none;}.cls-10{fill:#227633;stroke:none;}.cls-11{fill:#349433;stroke:none;}.cls-12{fill:#389737;stroke:none;}.cls-13{fill:#75bd2a;stroke:none;}.cls-14{fill:#1c7400;stroke:none;}.cls-15{fill:#3faa1d;opacity:0.44;stroke:none;}.cls-16{fill:#7ce919;opacity:0.3;stroke:none;}.cls-17{fill:#3da137;stroke:none;}.cls-18{fill:#4eb600;stroke:none;}.cls-19{fill:#2d7f37;stroke:none;}.cls-20{fill:#7bdc2a;stroke:none;}.cls-21{fill:#a3f027;stroke:none;}</style></defs><title>Organells&#x7EC6;&#x80DE;&#x5668;</title><path class="cls-1" d="M21.13,79.26s2.33,1.09,8.21.68,24.07,1.23,33.92,3.69,18.19,6.29,21.61,6.7,12.45-.41,21.48-6.84,14.36-14.77,12.86-24.21S106.89,31.93,65,32.07,9.5,53.94,9.5,61.89C9.5,76.52,21.13,79.26,21.13,79.26Z"/><path class="cls-2" d="M21.13,78.3s2.33,1.07,8.21.67,24.07,1.21,33.92,3.62,18.19,6.16,21.61,6.57,12.45-.4,21.48-6.7S120.71,68,119.2,58.73,106.89,31.93,65,32.07,9.5,53.5,9.5,61.28C9.5,75.62,21.13,78.3,21.13,78.3Z"/><path class="cls-3" d="M82.39,88.58c5.19-3.79,8.25-8.7,7.38-14.25s-7.1-16.13-31.26-16-32,12.9-32,17.58a13.75,13.75,0,0,0,.36,3.18c.76,0,1.59,0,2.51-.09,5.88-.4,24.07,1.21,33.92,3.62C71.22,84.54,78.2,87.36,82.39,88.58Z"/><path class="cls-4" d="M36.59,61.63c0,3.55-4.16,5.56-9.3,5.33S18,64.34,18,60.79A11.33,11.33,0,0,1,18.07,58c1.1-2.66,5-1.78,9.22-1.59s8-.42,9.17,2.26A10.57,10.57,0,0,1,36.59,61.63Z"/><path class="cls-5" d="M36.59,59.37c0,2.31-4.16,4-9.3,3.76S18,60.84,18,58.53s4.16-4,9.3-3.76S36.59,57.06,36.59,59.37Z"/><path class="cls-6" d="M19.58,60.7v0l0,0Z"/><path class="cls-7" d="M27.29,63.92c-4.3-.19-7.78-1.87-7.78-1.52,0,2.16,3.48,3.65,7.78,3.85s7.78-1,7.78-3.14C35.07,62.74,31.59,64.12,27.29,63.92Z"/><path class="cls-4" d="M36.59,58.18c0,3.11-4.16,4.84-9.3,4.6S18,60.42,18,57.3a8.7,8.7,0,0,1,.07-2.42c1.1-2.32,5-1.52,9.22-1.32s8-.3,9.17,2A8.14,8.14,0,0,1,36.59,58.18Z"/><path class="cls-5" d="M36.59,56.2c0,2-4.16,3.47-9.3,3.23S18,57.35,18,55.33s4.16-3.47,9.3-3.23S36.59,54.18,36.59,56.2Z"/><path class="cls-6" d="M19.58,57.24v0l0,0Z"/><path class="cls-7" d="M27.29,60.12c-4.3-.2-7.78-1.7-7.78-1.39,0,1.89,3.48,3.23,7.78,3.43s7.78-.8,7.78-2.7C35.07,59.15,31.59,60.32,27.29,60.12Z"/><path class="cls-4" d="M36.59,55.24c0,2.67-4.16,4.12-9.3,3.88S18,57,18,54.37a6.39,6.39,0,0,1,.07-2.07c1.1-2,5-1.27,9.22-1.07s8-.21,9.17,1.81A6,6,0,0,1,36.59,55.24Z"/><path class="cls-5" d="M36.59,53.55c0,1.73-4.16,2.94-9.3,2.7S18,54.41,18,52.68s4.16-2.94,9.3-2.7S36.59,51.82,36.59,53.55Z"/><path class="cls-6" d="M19.58,54.33h0l0,0Z"/><path class="cls-7" d="M27.29,56.85c-4.3-.2-7.78-1.51-7.78-1.24,0,1.62,3.48,2.79,7.78,3s7.78-.64,7.78-2.26C35.07,56.06,31.59,57,27.29,56.85Z"/><path class="cls-4" d="M36.59,52.54c0,2.35-4.16,3.61-9.3,3.37S18,54,18,51.67a5,5,0,0,1,.07-1.83c1.1-1.74,5-1.09,9.22-.89s8-.14,9.17,1.65C36.73,51,36.59,52.1,36.59,52.54Z"/><path class="cls-5" d="M36.59,51c0,1.53-4.16,2.57-9.3,2.33S18,51.7,18,50.18s4.16-2.57,9.3-2.33S36.59,49.52,36.59,51Z"/><path class="cls-6" d="M19.58,51.64h0l0,0Z"/><path class="cls-7" d="M27.29,53.9c-4.3-.2-7.78-1.37-7.78-1.14,0,1.43,3.48,2.48,7.78,2.68s7.78-.52,7.78-1.95C35.07,53.26,31.59,54.1,27.29,53.9Z"/><path class="cls-4" d="M36.59,49.89c0,2.22-4.16,3.39-9.3,3.15S18,51.24,18,49c0-.38-.15-1.39.07-1.72,1.1-1.64,5-1,9.22-.82s8-.11,9.17,1.58C36.73,48.45,36.59,49.48,36.59,49.89Z"/><path class="cls-5" d="M36.59,48.49c0,1.44-4.16,2.41-9.3,2.17s-9.3-1.61-9.3-3,4.16-2.41,9.3-2.17S36.59,47,36.59,48.49Z"/><path class="cls-6" d="M19.58,49h0l0,0Z"/><path class="cls-7" d="M27.29,51.15c-4.3-.2-7.78-1.31-7.78-1.1,0,1.35,3.48,2.34,7.78,2.55s7.78-.47,7.78-1.82C35.07,50.56,31.59,51.35,27.29,51.15Z"/><path class="cls-4" d="M34.77,68.77c0,3.43-4.66,5.37-10.41,5.14S14,71.39,14,68A9.43,9.43,0,0,1,14,65.29c1.23-2.57,5.55-1.72,10.33-1.53s9-.4,10.27,2.18A8.81,8.81,0,0,1,34.77,68.77Z"/><path class="cls-5" d="M34.77,66.6c0,2.23-4.66,3.85-10.41,3.63S14,68,14,65.79s4.66-3.85,10.41-3.63S34.77,64.37,34.77,66.6Z"/><path class="cls-6" d="M15.73,67.88v0l0,0Z"/><path class="cls-8" d="M24.36,71c-4.81-.19-8.71-1.81-8.71-1.47,0,2.08,3.9,3.52,8.71,3.71s8.71-.95,8.71-3C33.07,69.85,29.17,71.17,24.36,71Z"/><path class="cls-4" d="M34.77,65.44c0,3-4.66,4.67-10.41,4.44S14,67.6,14,64.6A7.25,7.25,0,0,1,14,62.26C15.26,60,19.59,60.79,24.36,61s9-.29,10.27,2A6.79,6.79,0,0,1,34.77,65.44Z"/><path class="cls-5" d="M34.77,63.54c0,2-4.66,3.35-10.41,3.11s-10.41-2-10.41-4,4.66-3.35,10.41-3.11S34.77,61.59,34.77,63.54Z"/><path class="cls-6" d="M15.73,64.54h0l0,0Z"/><path class="cls-8" d="M24.36,67.32c-4.81-.19-8.71-1.64-8.71-1.34,0,1.83,3.9,3.11,8.71,3.31s8.71-.78,8.71-2.6C33.07,66.38,29.17,67.51,24.36,67.32Z"/><path class="cls-4" d="M34.77,62.61c0,2.57-4.66,4-10.41,3.74S14,64.34,14,61.77c0-.44-.17-1.61.08-2,1.23-1.91,5.55-1.23,10.33-1s9-.2,10.27,1.75C34.93,60.94,34.77,62.13,34.77,62.61Z"/><path class="cls-5" d="M34.77,61c0,1.67-4.66,2.84-10.41,2.6S14,61.81,14,60.14s4.66-2.84,10.41-2.6S34.77,59.31,34.77,61Z"/><path class="cls-6" d="M15.73,61.73h0l0,0Z"/><path class="cls-8" d="M24.36,64.16c-4.81-.19-8.71-1.45-8.71-1.2,0,1.56,3.9,2.69,8.71,2.88s8.71-.61,8.71-2.18C33.07,63.4,29.17,64.35,24.36,64.16Z"/><path class="cls-4" d="M34.77,60c0,2.27-4.66,3.48-10.41,3.25S14,61.43,14,59.16c0-.39-.17-1.42.08-1.76,1.23-1.68,5.55-1.06,10.33-.86s9-.13,10.27,1.59C34.93,58.53,34.77,59.58,34.77,60Z"/><path class="cls-5" d="M34.77,58.57c0,1.47-4.66,2.48-10.41,2.25S14,59.2,14,57.72s4.66-2.48,10.41-2.25S34.77,57.09,34.77,58.57Z"/><path class="cls-6" d="M15.73,59.14h0l0,0Z"/><path class="cls-8" d="M24.36,61.32c-4.81-.19-8.71-1.32-8.71-1.1,0,1.38,3.9,2.39,8.71,2.58s8.71-.5,8.71-1.88C33.07,60.7,29.17,61.51,24.36,61.32Z"/><path class="cls-4" d="M34.77,57.45c0,2.14-4.66,3.27-10.41,3S14,58.75,14,56.61c0-.36-.17-1.34.08-1.66,1.23-1.58,5.55-1,10.33-.79s9-.1,10.27,1.53C34.93,56.06,34.77,57,34.77,57.45Z"/><path class="cls-5" d="M34.77,56.09c0,1.39-4.66,2.33-10.41,2.1S14,56.64,14,55.25s4.66-2.33,10.41-2.1S34.77,54.7,34.77,56.09Z"/><path class="cls-6" d="M15.73,56.59h0l0,0Z"/><path class="cls-8" d="M24.36,58.66c-4.81-.19-8.71-1.27-8.71-1.06,0,1.3,3.9,2.26,8.71,2.46s8.71-.45,8.71-1.75C33.07,58.1,29.17,58.86,24.36,58.66Z"/><path class="cls-4" d="M57,61.78c0,3.55-4.16,5.56-9.3,5.33s-9.3-2.62-9.3-6.17a11.33,11.33,0,0,1,.07-2.76c1.1-2.66,5-1.78,9.22-1.59s8-.42,9.17,2.26A10.57,10.57,0,0,1,57,61.78Z"/><path class="cls-5" d="M57,59.52c0,2.31-4.16,4-9.3,3.76s-9.3-2.29-9.3-4.6,4.16-4,9.3-3.76S57,57.21,57,59.52Z"/><path class="cls-6" d="M40,60.86v0l0,0Z"/><path class="cls-7" d="M47.75,64.07C43.45,63.88,40,62.2,40,62.55c0,2.16,3.48,3.65,7.78,3.85s7.78-1,7.78-3.14C55.53,62.9,52,64.27,47.75,64.07Z"/><path class="cls-4" d="M57,58.33c0,3.11-4.16,4.84-9.3,4.6s-9.3-2.36-9.3-5.48A8.7,8.7,0,0,1,38.52,55c1.1-2.32,5-1.52,9.22-1.32s8-.3,9.17,2A8.14,8.14,0,0,1,57,58.33Z"/><path class="cls-5" d="M57,56.35c0,2-4.16,3.47-9.3,3.23s-9.3-2.08-9.3-4.1,4.16-3.47,9.3-3.23S57,54.33,57,56.35Z"/><path class="cls-6" d="M40,57.39v0l0,0Z"/><path class="cls-7" d="M47.75,60.27c-4.3-.2-7.78-1.7-7.78-1.39,0,1.89,3.48,3.23,7.78,3.43s7.78-.8,7.78-2.7C55.53,59.3,52,60.47,47.75,60.27Z"/><path class="cls-4" d="M57,55.4c0,2.67-4.16,4.12-9.3,3.88s-9.3-2.09-9.3-4.75a6.39,6.39,0,0,1,.07-2.07c1.1-2,5-1.27,9.22-1.07s8-.21,9.17,1.81A6,6,0,0,1,57,55.4Z"/><path class="cls-5" d="M57,53.71c0,1.73-4.16,2.94-9.3,2.7s-9.3-1.84-9.3-3.57,4.16-2.94,9.3-2.7S57,52,57,53.71Z"/><path class="cls-6" d="M40,54.48h0l0,0Z"/><path class="cls-7" d="M47.75,57c-4.3-.2-7.78-1.51-7.78-1.24,0,1.62,3.48,2.79,7.78,3s7.78-.64,7.78-2.26C55.53,56.22,52,57.2,47.75,57Z"/><path class="cls-4" d="M57,52.69c0,2.35-4.16,3.61-9.3,3.37s-9.3-1.89-9.3-4.24A5,5,0,0,1,38.52,50c1.1-1.74,5-1.09,9.22-.89s8-.14,9.17,1.65C57.19,51.16,57,52.25,57,52.69Z"/><path class="cls-5" d="M57,51.2c0,1.53-4.16,2.57-9.3,2.33s-9.3-1.68-9.3-3.2,4.16-2.57,9.3-2.33S57,49.67,57,51.2Z"/><path class="cls-6" d="M40,51.79h0l0,0Z"/><path class="cls-7" d="M47.75,54.05c-4.3-.2-7.78-1.37-7.78-1.14,0,1.43,3.48,2.48,7.78,2.68s7.78-.52,7.78-1.95C55.53,53.41,52,54.26,47.75,54.05Z"/><path class="cls-4" d="M57,50c0,2.22-4.16,3.39-9.3,3.15s-9.3-1.81-9.3-4c0-.38-.15-1.39.07-1.72,1.1-1.64,5-1,9.22-.82s8-.11,9.17,1.58C57.19,48.6,57,49.63,57,50Z"/><path class="cls-5" d="M57,48.64c0,1.44-4.16,2.41-9.3,2.17s-9.3-1.61-9.3-3,4.16-2.41,9.3-2.17S57,47.2,57,48.64Z"/><path class="cls-6" d="M40,49.15h0l0,0Z"/><path class="cls-9" d="M47.75,51.3C43.45,51.1,40,50,40,50.21c0,1.35,3.48,2.34,7.78,2.55s7.78-.47,7.78-1.82C55.53,50.71,52,51.5,47.75,51.3Z"/><path class="cls-4" d="M57,47.71c0,2-4.16,3-9.3,2.81s-9.3-1.68-9.3-3.68c0-.34-.15-1.25.07-1.56,1.1-1.48,5-.9,9.22-.7s8-.06,9.17,1.47C57.19,46.41,57,47.33,57,47.71Z"/><path class="cls-10" d="M57,46.44c0,1.3-4.16,2.16-9.3,1.92s-9.3-1.49-9.3-2.79,4.16-2.16,9.3-1.92S57,45.14,57,46.44Z"/><path class="cls-6" d="M40,46.82h0l0,0Z"/><path class="cls-9" d="M47.75,48.8c-4.3-.2-7.78-1.22-7.78-1,0,1.22,3.48,2.13,7.78,2.34s7.78-.39,7.78-1.6C55.53,48.31,52,49,47.75,48.8Z"/><path class="cls-4" d="M82.05,65.95c0,4-4.66,6.23-10.41,6S61.24,69,61.24,65a12.68,12.68,0,0,1,.08-3.09c1.23-3,5.55-2,10.33-1.78s9-.46,10.27,2.53A11.83,11.83,0,0,1,82.05,65.95Z"/><path class="cls-5" d="M82.05,63.43c0,2.59-4.66,4.47-10.41,4.21s-10.41-2.57-10.41-5.15S65.9,58,71.65,58.27,82.05,60.84,82.05,63.43Z"/><path class="cls-7" d="M71.65,68.52c-4.81-.22-8.71-2.1-8.71-1.7,0,2.42,3.9,4.09,8.71,4.31s8.71-1.1,8.71-3.52C80.35,67.2,76.46,68.74,71.65,68.52Z"/><path class="cls-4" d="M82.05,62.09c0,3.49-4.66,5.42-10.41,5.15S61.24,64.6,61.24,61.11a9.74,9.74,0,0,1,.08-2.71c1.23-2.6,5.55-1.71,10.33-1.48s9-.34,10.27,2.29A9.11,9.11,0,0,1,82.05,62.09Z"/><path class="cls-5" d="M82.05,59.88c0,2.27-4.66,3.88-10.41,3.61S61.24,61.16,61.24,58.9,65.9,55,71.65,55.29,82.05,57.61,82.05,59.88Z"/><path class="cls-7" d="M71.65,64.26c-4.81-.23-8.71-1.9-8.71-1.56,0,2.12,3.9,3.61,8.71,3.84s8.71-.9,8.71-3C80.35,63.17,76.46,64.49,71.65,64.26Z"/><path class="cls-4" d="M82.05,58.81c0,3-4.66,4.61-10.41,4.34s-10.41-2.34-10.41-5.32a7.15,7.15,0,0,1,.08-2.32c1.23-2.22,5.55-1.42,10.33-1.2s9-.23,10.27,2A6.71,6.71,0,0,1,82.05,58.81Z"/><path class="cls-5" d="M82.05,56.91c0,1.94-4.66,3.29-10.41,3s-10.41-2.06-10.41-4,4.66-3.29,10.41-3S82.05,55,82.05,56.91Z"/><path class="cls-7" d="M71.65,60.6c-4.81-.23-8.71-1.69-8.71-1.39,0,1.81,3.9,3.12,8.71,3.35s8.71-.71,8.71-2.53C80.35,59.72,76.46,60.82,71.65,60.6Z"/><path class="cls-4" d="M82.05,55.78c0,2.63-4.66,4-10.41,3.77S61.24,57.43,61.24,54.8a5.58,5.58,0,0,1,.08-2c1.23-1.95,5.55-1.23,10.33-1s9-.15,10.27,1.85C82.22,54.06,82.05,55.29,82.05,55.78Z"/><path class="cls-5" d="M82.05,54.11c0,1.71-4.66,2.88-10.41,2.61s-10.41-1.88-10.41-3.59,4.66-2.88,10.41-2.61S82.05,52.4,82.05,54.11Z"/><path class="cls-7" d="M71.65,57.3c-4.81-.23-8.71-1.54-8.71-1.28,0,1.6,3.9,2.77,8.71,3s8.71-.58,8.71-2.18C80.35,56.58,76.46,57.53,71.65,57.3Z"/><path class="cls-4" d="M82.05,52.81c0,2.48-4.66,3.8-10.41,3.53s-10.41-2-10.41-4.51c0-.42-.17-1.55.08-1.93,1.23-1.83,5.55-1.14,10.33-.92s9-.12,10.27,1.77C82.22,51.2,82.05,52.35,82.05,52.81Z"/><path class="cls-5" d="M82.05,51.24c0,1.61-4.66,2.7-10.41,2.43s-10.41-1.8-10.41-3.41,4.66-2.7,10.41-2.43S82.05,49.63,82.05,51.24Z"/><path class="cls-6" d="M63,51.81h0l0,0Z"/><path class="cls-7" d="M71.65,54.22C66.84,54,62.94,52.75,62.94,53c0,1.51,3.9,2.62,8.71,2.85s8.71-.52,8.71-2C80.35,53.56,76.46,54.45,71.65,54.22Z"/><path class="cls-4" d="M82.05,50.2c0,2.24-4.66,3.41-10.41,3.14s-10.41-1.88-10.41-4.12c0-.38-.17-1.4.08-1.74,1.23-1.65,5.55-1,10.33-.78s9-.07,10.27,1.65C82.22,48.74,82.05,49.78,82.05,50.2Z"/><path class="cls-11" d="M82.05,48.78c0,1.46-4.66,2.42-10.41,2.15S61.24,49.26,61.24,47.8s4.66-2.42,10.41-2.15S82.05,47.32,82.05,48.78Z"/><path class="cls-7" d="M71.65,51.43c-4.81-.23-8.71-1.37-8.71-1.15,0,1.36,3.9,2.39,8.71,2.62s8.71-.43,8.71-1.8C80.35,50.87,76.46,51.65,71.65,51.43Z"/><path class="cls-4" d="M104,67.31c0,4-4.66,6.23-10.41,6S83.2,70.35,83.2,66.37a12.68,12.68,0,0,1,.08-3.09c1.23-3,5.55-2,10.33-1.78s9-.46,10.27,2.53A11.83,11.83,0,0,1,104,67.31Z"/><path class="cls-5" d="M104,64.79c0,2.59-4.66,4.47-10.41,4.21S83.2,66.43,83.2,63.85s4.66-4.47,10.41-4.21S104,62.2,104,64.79Z"/><path class="cls-6" d="M85,66.28v0l0,0Z"/><path class="cls-7" d="M93.6,69.88c-4.81-.22-8.71-2.1-8.71-1.7,0,2.42,3.9,4.09,8.71,4.31s8.71-1.1,8.71-3.52C102.31,68.56,98.41,70.1,93.6,69.88Z"/><path class="cls-4" d="M104,63.45c0,3.49-4.66,5.42-10.41,5.15S83.2,66,83.2,62.47a9.74,9.74,0,0,1,.08-2.71c1.23-2.6,5.55-1.71,10.33-1.48s9-.34,10.27,2.29A9.11,9.11,0,0,1,104,63.45Z"/><path class="cls-5" d="M104,61.24c0,2.27-4.66,3.88-10.41,3.61S83.2,62.52,83.2,60.26s4.66-3.88,10.41-3.61S104,59,104,61.24Z"/><path class="cls-6" d="M85,62.4v0l0,0Z"/><path class="cls-7" d="M93.6,65.62c-4.81-.23-8.71-1.9-8.71-1.56,0,2.12,3.9,3.61,8.71,3.84s8.71-.9,8.71-3C102.31,64.53,98.41,65.85,93.6,65.62Z"/><path class="cls-4" d="M104,60.16c0,3-4.66,4.61-10.41,4.34S83.2,62.17,83.2,59.19a7.15,7.15,0,0,1,.08-2.32c1.23-2.22,5.55-1.42,10.33-1.2s9-.23,10.27,2A6.71,6.71,0,0,1,104,60.16Z"/><path class="cls-5" d="M104,58.27c0,1.94-4.66,3.29-10.41,3s-10.41-2.06-10.41-4,4.66-3.29,10.41-3S104,56.33,104,58.27Z"/><path class="cls-6" d="M85,59.14h0l0,0Z"/><path class="cls-7" d="M93.6,62c-4.81-.23-8.71-1.69-8.71-1.39,0,1.81,3.9,3.12,8.71,3.35s8.71-.71,8.71-2.53C102.31,61.08,98.41,62.18,93.6,62Z"/><path class="cls-4" d="M104,57.14c0,2.63-4.66,4-10.41,3.77S83.2,58.79,83.2,56.16a5.58,5.58,0,0,1,.08-2c1.23-1.95,5.55-1.23,10.33-1s9-.15,10.27,1.85C104.18,55.42,104,56.65,104,57.14Z"/><path class="cls-5" d="M104,55.47c0,1.71-4.66,2.88-10.41,2.61S83.2,56.2,83.2,54.49s4.66-2.88,10.41-2.61S104,53.76,104,55.47Z"/><path class="cls-6" d="M85,56.13h0l0,0Z"/><path class="cls-7" d="M93.6,58.66c-4.81-.23-8.71-1.54-8.71-1.28,0,1.6,3.9,2.77,8.71,3s8.71-.58,8.71-2.18C102.31,57.94,98.41,58.89,93.6,58.66Z"/><path class="cls-4" d="M104,54.17c0,2.48-4.66,3.8-10.41,3.53s-10.41-2-10.41-4.51c0-.42-.17-1.55.08-1.93,1.23-1.83,5.55-1.14,10.33-.92s9-.12,10.27,1.77C104.18,52.56,104,53.71,104,54.17Z"/><path class="cls-5" d="M104,52.6c0,1.61-4.66,2.7-10.41,2.43S83.2,53.23,83.2,51.62s4.66-2.7,10.41-2.43S104,51,104,52.6Z"/><path class="cls-6" d="M85,53.17h0l0,0Z"/><path class="cls-7" d="M93.6,55.58c-4.81-.23-8.71-1.47-8.71-1.23,0,1.51,3.9,2.62,8.71,2.85s8.71-.52,8.71-2C102.31,54.92,98.41,55.81,93.6,55.58Z"/><path class="cls-4" d="M104,51.56C104,53.8,99.35,55,93.6,54.7S83.2,52.82,83.2,50.58c0-.38-.17-1.4.08-1.74,1.23-1.65,5.55-1,10.33-.78s9-.07,10.27,1.65C104.18,50.1,104,51.14,104,51.56Z"/><path class="cls-5" d="M104,50.14c0,1.46-4.66,2.42-10.41,2.15S83.2,50.62,83.2,49.16,87.85,46.74,93.6,47,104,48.68,104,50.14Z"/><path class="cls-6" d="M85,50.57h0l0,0Z"/><path class="cls-7" d="M93.6,52.79c-4.81-.23-8.71-1.37-8.71-1.15,0,1.36,3.9,2.39,8.71,2.62s8.71-.43,8.71-1.8C102.31,52.23,98.41,53,93.6,52.79Z"/><path class="cls-4" d="M111,72.31c0,4-4.66,6.23-10.41,6S90.2,75.35,90.2,71.37a12.68,12.68,0,0,1,.08-3.09c1.23-3,5.55-2,10.33-1.78s9-.46,10.27,2.53A11.83,11.83,0,0,1,111,72.31Z"/><path class="cls-5" d="M111,69.79c0,2.59-4.66,4.47-10.41,4.21S90.2,71.43,90.2,68.85s4.66-4.47,10.41-4.21S111,67.2,111,69.79Z"/><path class="cls-12" d="M100.6,74.88c-4.81-.22-8.71-2.1-8.71-1.7,0,2.42,3.9,4.09,8.71,4.31s8.71-1.1,8.71-3.52C109.31,73.56,105.41,75.1,100.6,74.88Z"/><path class="cls-4" d="M111,68.45c0,3.49-4.66,5.42-10.41,5.15S90.2,71,90.2,67.47a9.74,9.74,0,0,1,.08-2.71c1.23-2.6,5.55-1.71,10.33-1.48s9-.34,10.27,2.29A9.11,9.11,0,0,1,111,68.45Z"/><path class="cls-5" d="M111,66.24c0,2.27-4.66,3.88-10.41,3.61S90.2,67.52,90.2,65.26s4.66-3.88,10.41-3.61S111,64,111,66.24Z"/><path class="cls-12" d="M100.6,70.62c-4.81-.23-8.71-1.9-8.71-1.56,0,2.12,3.9,3.61,8.71,3.84s8.71-.9,8.71-3C109.31,69.53,105.41,70.85,100.6,70.62Z"/><path class="cls-4" d="M111,65.17c0,3-4.66,4.61-10.41,4.34S90.2,67.17,90.2,64.19a7.15,7.15,0,0,1,.08-2.32c1.23-2.22,5.55-1.42,10.33-1.2s9-.23,10.27,2A6.71,6.71,0,0,1,111,65.17Z"/><path class="cls-5" d="M111,63.27c0,1.94-4.66,3.29-10.41,3s-10.41-2.06-10.41-4,4.66-3.29,10.41-3S111,61.33,111,63.27Z"/><path class="cls-12" d="M100.6,67c-4.81-.23-8.71-1.69-8.71-1.39,0,1.81,3.9,3.12,8.71,3.35s8.71-.71,8.71-2.53C109.31,66.08,105.41,67.18,100.6,67Z"/><path class="cls-4" d="M111,62.14c0,2.63-4.66,4-10.41,3.77S90.2,63.79,90.2,61.16a5.58,5.58,0,0,1,.08-2c1.23-1.95,5.55-1.23,10.33-1s9-.15,10.27,1.85C111.18,60.42,111,61.65,111,62.14Z"/><path class="cls-5" d="M111,60.47c0,1.71-4.66,2.88-10.41,2.61S90.2,61.2,90.2,59.49s4.66-2.88,10.41-2.61S111,58.76,111,60.47Z"/><path class="cls-12" d="M100.6,63.66c-4.81-.23-8.71-1.54-8.71-1.28,0,1.6,3.9,2.77,8.71,3s8.71-.58,8.71-2.18C109.31,62.94,105.41,63.89,100.6,63.66Z"/><path class="cls-4" d="M111,59.17c0,2.48-4.66,3.8-10.41,3.53s-10.41-2-10.41-4.51c0-.42-.17-1.55.08-1.93,1.23-1.83,5.55-1.14,10.33-.92s9-.12,10.27,1.77C111.18,57.56,111,58.71,111,59.17Z"/><path class="cls-5" d="M111,57.6c0,1.61-4.66,2.7-10.41,2.43S90.2,58.23,90.2,56.62s4.66-2.7,10.41-2.43S111,56,111,57.6Z"/><path class="cls-12" d="M100.6,60.58c-4.81-.23-8.71-1.47-8.71-1.23,0,1.51,3.9,2.62,8.71,2.85s8.71-.52,8.71-2C109.31,59.92,105.41,60.81,100.6,60.58Z"/><path class="cls-4" d="M111,56.56c0,2.24-4.66,3.41-10.41,3.14S90.2,57.82,90.2,55.58c0-.38-.17-1.4.08-1.74,1.23-1.65,5.55-1,10.33-.78s9-.07,10.27,1.65C111.18,55.1,111,56.14,111,56.56Z"/><path class="cls-5" d="M111,55.14c0,1.46-4.66,2.42-10.41,2.15S90.2,55.62,90.2,54.16,94.86,51.74,100.6,52,111,53.68,111,55.14Z"/><path class="cls-12" d="M100.6,57.79c-4.81-.23-8.71-1.37-8.71-1.15,0,1.36,3.9,2.39,8.71,2.62s8.71-.43,8.71-1.8C109.31,57.23,105.41,58,100.6,57.79Z"/><path class="cls-4" d="M34.77,55.2c0,1.93-4.66,2.94-10.41,2.71S14,56.29,14,54.35c0-.33-.17-1.21.08-1.5,1.23-1.42,5.55-.87,10.33-.67s9-.06,10.27,1.42C34.93,53.94,34.77,54.84,34.77,55.2Z"/><path class="cls-13" d="M34.77,54c0,1.26-4.66,2.09-10.41,1.85S14,54.38,14,53.13,18.61,51,24.36,51.28,34.77,52.72,34.77,54Z"/><path class="cls-6" d="M15.73,54.34h0l0,0Z"/><path class="cls-8" d="M24.36,56.25c-4.81-.19-8.71-1.18-8.71-1,0,1.17,3.9,2.06,8.71,2.25s8.71-.37,8.71-1.55C33.07,55.78,29.17,56.45,24.36,56.25Z"/><path class="cls-14" d="M21.45,79.38a10.22,10.22,0,0,1-5.25-5.52c-1.55-4.66.12-12.79,8.36-18.16S51.81,43.86,73,46.61,104.27,64.42,103.91,73,96.5,89.27,88,89.27a56,56,0,0,1-13.48-2.19h0c4.67,1.62,8.34,3,10.34,3.26,3.42.41,12.45-.41,21.48-6.84s14.36-14.77,12.86-24.21S106.89,31.93,65,32.07,9.5,53.94,9.5,61.89c0,14.64,11.63,17.37,11.63,17.37"/><path class="cls-15" d="M68.25,40.41c38.39,2.39,40.45,22.77,44.35,23,3,.17,6-4.66,4.21-11C111.77,43.1,98.08,32,65,32.07c-17.44.06-30,3.87-38.67,8.86-4.21,3.15-11.24,8.85-9.62,10.54C19,53.86,29.86,38,68.25,40.41Z"/><path class="cls-16" d="M46.52,37.48c13.82-2.56,20-.76,23-.38,1.9.24,3.21-.33,2-2-3-2.24-10.46-2.89-26.45.15S22,45.37,22.9,45.71C24.14,46.18,27.91,40.92,46.52,37.48Z"/><path class="cls-1" d="M85.71,90.4l.54,0h1.17l.84-.05.35,0,.69-.07.38,0,1-.14L91,90l.91-.17.48-.1.79-.18.49-.12,1.14-.31.43-.13,1-.32.55-.19.88-.33.54-.21c.45-.18.91-.37,1.37-.58,5.62-4,13.11-11.64,10.18-22.12C105.66,50.49,76.06,38.78,48.84,42.9s-36.65,15.29-37,23.21c-.22,5.38,3.56,9.6,6,11.76h0c.46.26.89.48,1.28.66h0c.39.18.73.32,1,.42h0l.68.23h0l.17,0h.08l.32.12a10.21,10.21,0,0,1-5.24-5.52c-1.55-4.66.12-12.79,8.36-18.16S51.81,43.86,73,46.61,104.27,64.42,103.91,73,96.5,89.27,88,89.27a56,56,0,0,1-13.48-2.19h0c2,.68,3.76,1.32,5.32,1.86l.59.2.57.19.66.21.48.15.63.19.4.11.61.15.29.07c.28.06.54.11.77.13l.63.05Z"/><path class="cls-17" d="M22.31,79.61l-.52-.13.52.13Z"/><path class="cls-17" d="M21.72,79.46l.08,0Z"/><path class="cls-17" d="M21.72,79.46l-.27-.08h0Z"/><path class="cls-18" d="M109.41,64.45a2.18,2.18,0,0,0-.16-.73c-5.65-14-34.14-24.79-60.41-20.81-11.09,1.68-19.23,4.53-25,7.85-2.84,2.72-5.26,5.59-4.3,6.71,1.85,2.17,10-10.68,37.2-11.28A80.59,80.59,0,0,1,73,46.61c15.89,2.06,25.57,11.08,29.26,19.08C103.47,68.64,109.56,68.83,109.41,64.45Z"/><path class="cls-4" d="M89.46,73.43c0,4-4.66,6.23-10.41,6s-10.41-2.93-10.41-6.91a12.68,12.68,0,0,1,.08-3.09c1.23-3,5.55-2,10.33-1.78s9-.46,10.27,2.53A11.83,11.83,0,0,1,89.46,73.43Z"/><path class="cls-5" d="M89.46,70.9c0,2.59-4.66,4.47-10.41,4.21S68.65,72.55,68.65,70s4.66-4.47,10.41-4.21S89.46,68.32,89.46,70.9Z"/><path class="cls-19" d="M79.05,76c-4.81-.22-8.71-2.1-8.71-1.7,0,2.42,3.9,4.09,8.71,4.31s8.71-1.1,8.71-3.52C87.76,74.68,83.86,76.22,79.05,76Z"/><path class="cls-4" d="M89.46,69.57c0,3.49-4.66,5.42-10.41,5.15s-10.41-2.65-10.41-6.13a9.74,9.74,0,0,1,.08-2.71c1.23-2.6,5.55-1.71,10.33-1.48s9-.34,10.27,2.29A9.11,9.11,0,0,1,89.46,69.57Z"/><path class="cls-5" d="M89.46,67.35c0,2.27-4.66,3.88-10.41,3.61s-10.41-2.33-10.41-4.59,4.66-3.88,10.41-3.61S89.46,65.09,89.46,67.35Z"/><path class="cls-19" d="M79.05,71.74c-4.81-.23-8.71-1.9-8.71-1.56,0,2.12,3.9,3.61,8.71,3.84s8.71-.9,8.71-3C87.76,70.65,83.86,72,79.05,71.74Z"/><path class="cls-4" d="M89.46,66.28c0,3-4.66,4.61-10.41,4.34S68.65,68.29,68.65,65.3A7.15,7.15,0,0,1,68.73,63c1.23-2.22,5.55-1.42,10.33-1.2s9-.23,10.27,2A6.71,6.71,0,0,1,89.46,66.28Z"/><path class="cls-5" d="M89.46,64.39c0,1.94-4.66,3.29-10.41,3s-10.41-2.06-10.41-4,4.66-3.29,10.41-3S89.46,62.45,89.46,64.39Z"/><path class="cls-19" d="M79.05,68.08c-4.81-.23-8.71-1.69-8.71-1.39,0,1.81,3.9,3.12,8.71,3.35s8.71-.71,8.71-2.53C87.76,67.2,83.86,68.3,79.05,68.08Z"/><path class="cls-4" d="M89.46,63.26c0,2.63-4.66,4-10.41,3.77s-10.41-2.12-10.41-4.75a5.58,5.58,0,0,1,.08-2c1.23-1.95,5.55-1.23,10.33-1s9-.15,10.27,1.85C89.63,61.54,89.46,62.76,89.46,63.26Z"/><path class="cls-5" d="M89.46,61.59c0,1.71-4.66,2.88-10.41,2.61s-10.41-1.88-10.41-3.59S73.31,57.73,79.06,58,89.46,59.88,89.46,61.59Z"/><path class="cls-19" d="M79.05,64.78c-4.81-.23-8.71-1.54-8.71-1.28,0,1.6,3.9,2.77,8.71,3s8.71-.58,8.71-2.18C87.76,64.06,83.86,65,79.05,64.78Z"/><path class="cls-4" d="M89.46,60.29c0,2.48-4.66,3.8-10.41,3.53s-10.41-2-10.41-4.51c0-.42-.17-1.55.08-1.93,1.23-1.83,5.55-1.14,10.33-.92s9-.12,10.27,1.77C89.63,58.68,89.46,59.83,89.46,60.29Z"/><path class="cls-5" d="M89.46,58.72c0,1.61-4.66,2.7-10.41,2.43s-10.41-1.8-10.41-3.41,4.66-2.7,10.41-2.43S89.46,57.1,89.46,58.72Z"/><path class="cls-19" d="M79.05,61.7c-4.81-.23-8.71-1.47-8.71-1.23,0,1.51,3.9,2.62,8.71,2.85s8.71-.52,8.71-2C87.76,61,83.86,61.93,79.05,61.7Z"/><path class="cls-4" d="M89.46,57.68c0,2.24-4.66,3.41-10.41,3.14S68.65,58.94,68.65,56.7c0-.38-.17-1.4.08-1.74,1.23-1.65,5.55-1,10.33-.78s9-.07,10.27,1.65C89.63,56.22,89.46,57.26,89.46,57.68Z"/><path class="cls-20" d="M89.46,56.26c0,1.46-4.66,2.42-10.41,2.15s-10.41-1.67-10.41-3.13,4.66-2.42,10.41-2.15S89.46,54.8,89.46,56.26Z"/><path class="cls-6" d="M70.43,56.69h0l0,0Z"/><path class="cls-19" d="M79.05,58.9c-4.81-.23-8.71-1.37-8.71-1.15,0,1.36,3.9,2.39,8.71,2.62s8.71-.43,8.71-1.8C87.76,58.35,83.86,59.13,79.05,58.9Z"/><path class="cls-5" d="M57.18,76.17a1.85,1.85,0,0,0,1.16-.87,11.07,11.07,0,0,1,1.94-3.09,9.54,9.54,0,0,1,4.15-2.33,0,0,0,0,0,0-.07,9.17,9.17,0,0,1-1.88-1.53A13,13,0,0,1,59,72.41a2.54,2.54,0,0,1-1.36.3A2.8,2.8,0,0,1,58,74.77,3.26,3.26,0,0,1,57.18,76.17Z"/><path class="cls-5" d="M37.13,72.29s1.82-4.32,11.95-3.8S58.21,75,58.21,75Z"/><path class="cls-4" d="M56.55,76.24,38.67,74.37A1.76,1.76,0,0,1,37,72.78h0a1.37,1.37,0,0,1,1.65-1.24l17.89,1.87A1.76,1.76,0,0,1,58.21,75h0A1.37,1.37,0,0,1,56.55,76.24Z"/><path class="cls-5" d="M37.13,69s1.82-4.32,11.95-3.8,9.13,6.51,9.13,6.51Z"/><path class="cls-4" d="M56.55,73,38.67,71.09A1.76,1.76,0,0,1,37,69.51h0a1.37,1.37,0,0,1,1.65-1.24l17.89,1.87a1.76,1.76,0,0,1,1.65,1.58h0A1.37,1.37,0,0,1,56.55,73Z"/><path class="cls-5" d="M37.13,65.73s1.82-4.32,11.95-3.8,9.13,6.51,9.13,6.51Z"/><path class="cls-4" d="M56.55,69.68,38.67,67.81A1.76,1.76,0,0,1,37,66.23h0A1.37,1.37,0,0,1,38.67,65l17.89,1.87a1.76,1.76,0,0,1,1.65,1.58h0A1.37,1.37,0,0,1,56.55,69.68Z"/><path class="cls-5" d="M37.13,62.45s1.82-4.32,11.95-3.8,9.13,6.51,9.13,6.51Z"/><path class="cls-4" d="M56.55,66.4,38.67,64.53A1.76,1.76,0,0,1,37,62.95h0a1.37,1.37,0,0,1,1.65-1.24l17.89,1.87a1.76,1.76,0,0,1,1.65,1.58h0A1.37,1.37,0,0,1,56.55,66.4Z"/><path class="cls-5" d="M37.13,59.18s1.82-4.32,11.95-3.8,9.13,6.51,9.13,6.51Z"/><path class="cls-4" d="M56.55,63.12,38.67,61.25A1.76,1.76,0,0,1,37,59.67h0a1.37,1.37,0,0,1,1.65-1.24L56.55,60.3a1.76,1.76,0,0,1,1.65,1.58h0A1.37,1.37,0,0,1,56.55,63.12Z"/><path class="cls-21" d="M37.13,55.9s1.82-4.32,11.95-3.8,9.13,6.51,9.13,6.51Z"/><path class="cls-4" d="M56.55,59.84,38.67,58A1.76,1.76,0,0,1,37,56.39h0a1.37,1.37,0,0,1,1.65-1.24L56.55,57a1.76,1.76,0,0,1,1.65,1.58h0A1.37,1.37,0,0,1,56.55,59.84Z"/><path class="cls-4" d="M64.44,69.8a8.51,8.51,0,0,1-.81-.61,32.31,32.31,0,0,0-3.36,2.71c-1.69,1.61-1.46,2.36-2.22,2.87a3.26,3.26,0,0,1-.86,1.4,1.85,1.85,0,0,0,1.16-.87,11.07,11.07,0,0,1,1.94-3.09,9.54,9.54,0,0,1,4.15-2.33A0,0,0,0,0,64.44,69.8Z"/><path class="cls-4" d="M57,46.88a3.64,3.64,0,0,0,1.91,1.37,3.92,3.92,0,0,0,2.38,0l.2,1.6a24.35,24.35,0,0,0-3.2-1.61c-1.3-.47-1.62.31-1.62.31Z"/><path class="cls-11" d="M58.92,48.38a10.71,10.71,0,0,0,2.68.51l-.39-.57a3.8,3.8,0,0,1-2.27-.1A3.72,3.72,0,0,1,57.06,47l-.17.34A10.52,10.52,0,0,0,58.92,48.38Z"/><path class="cls-4" d="M58.06,62.31a10.89,10.89,0,0,1,1.56-3.38,26,26,0,0,1,2.85-2.48,3.11,3.11,0,0,1-.78-.63,3,3,0,0,1-.36-.76,11.2,11.2,0,0,1-1.63,3c-1.78,2.42-2.82,2.37-2.82,2.37Z"/><path class="cls-5" d="M61.27,55.11A11,11,0,0,1,59.66,58c-1.78,2.42-2.95,2.32-2.95,2.32a.88.88,0,0,1,.67.38c.08.12,1.18-1.08,1.83-1.63a13.31,13.31,0,0,0,2.28-3.24A1.52,1.52,0,0,1,61.27,55.11Z"/></svg>