<svg id="Organells&#x7EC6;&#x80DE;&#x5668;" xmlns="http://www.w3.org/2000/svg" viewbox="0 0 128 128" width="128" height="128"><defs><style>.cls-1{fill:#4776ca;stroke:#000;stroke-miterlimit:10;}</style></defs><title>Organells&#x7EC6;&#x80DE;&#x5668;</title><path class="cls-1" d="M18.7,64.71c0,5.78,9.63,5.23,20.32,5.23H84.27c14.28,0,23.23,0,23.23-5.78S99,59.3,84.51,59.3H39C28.38,59.3,18.7,58.94,18.7,64.71Z"/><path class="cls-1" d="M24.51,82.44c0-5.4,8-10,17.75-10H83.61c13,0,20.26,4.79,20.26,10.19s-7.07-.23-20.26-.23h-41C33,82.43,24.51,87.84,24.51,82.44Z"/><path class="cls-1" d="M32.25,93c0-4.31,6.51-8,14.39-8H80c10.52,0,16.61,3.83,16.61,8.14S90.88,93,80.18,93H46.65C38.8,93,32.25,97.29,32.25,93Z"/><path class="cls-1" d="M42.69,102.31c0-3.61,4.55-6.66,10.06-6.66H76.06c7.35,0,11.61,3.2,11.61,6.81s-4-.16-11.49-.16H52.75C47.27,102.31,42.69,105.92,42.69,102.31Z"/><path class="cls-1" d="M24.51,46.85c0,5.4,8,10,17.75,10H83.61c13,0,20.26-4.79,20.26-10.19s-7.07.23-20.26.23h-41C33,46.86,24.51,41.45,24.51,46.85Z"/><path class="cls-1" d="M32.25,36.31c0,4.31,6.51,8,14.39,8H80c10.52,0,16.61-3.83,16.61-8.14s-5.73.19-16.43.19H46.65C38.8,36.32,32.25,32,32.25,36.31Z"/><path class="cls-1" d="M42.69,27c0,3.61,4.55,6.66,10.06,6.66H76.06c7.35,0,11.61-3.2,11.61-6.81s-4,.16-11.49.16H52.75C47.27,27,42.69,23.37,42.69,27Z"/></svg>