<svg id="Organells&#x7EC6;&#x80DE;&#x5668;" xmlns="http://www.w3.org/2000/svg" viewbox="0 0 128 128" width="128" height="128"><defs><style>.cls-1{fill:#4776ca;stroke:#000;stroke-miterlimit:10;}</style></defs><title>Organells&#x7EC6;&#x80DE;&#x5668;</title><path class="cls-1" d="M100.51,33.47c.37-2.07-4.73,1.24-10.38.54C82.2,33,73.45,31.19,66,30.27s-11-5.07-11.41-3S55.18,52,62.87,51.08c6.53-.74,20.89,2.77,26.41,5.74C94.26,59.5,100.14,35.54,100.51,33.47Z"/><path class="cls-1" d="M108,39.73c.53-2.62-6.41,1.24-14.51.35-11.37-1.24-23.9-3.57-34.54-4.74-10.82-1.18-16.27-6.85-16.8-4.23s1.24,31.67,12.26,30.57c9.36-.94,29.94,3.51,37.86,7.27C99.37,72.34,107.44,42.35,108,39.73Z"/><path class="cls-1" d="M112.7,46.56c.65-3.18-7.95,1.22-18,.15C80.65,45.2,65.13,42.38,52,41c-13.39-1.43-19.5-8.78-20.16-5.61s.9,38.83,14.53,37.49c11.59-1.14,37.07,4.25,46.87,8.8C102.05,85.76,112,49.73,112.7,46.56Z"/><path class="cls-1" d="M115.33,57.35c.79-3.79-8.29-4.57-19.48-5.18-16-.88-32.13-5.53-46.77-7.1-14.89-1.59-23.79-4-24.51-.46S25.7,91.54,40.86,90c12.88-1.27,36.67,1.69,47.57,6.75C98.25,101.36,115.12,62.63,115.33,57.35Z"/><path class="cls-1" d="M103.61,66.42c.65-3.18-7-5.81-17-6.88-14-1.5-28.91-2.82-42-4.23-13.31-1.43-21.49-2.92-22.14.26s1.24,41.56,14.8,40.22c11.52-1.14,32.78,1.52,42.52,6.07C88.56,106,102.87,70.84,103.61,66.42Z"/><path class="cls-1" d="M93.31,71.64c.52-2.85-6.2-5.7-14.18-6.66-11.2-1.35-23.32-2.72-33.8-4-10.66-1.28-17.56-1.3-17.92,2.2-.3,2.88,1.19,35.29,12,34.08,9.22-1,26.25,1.36,34,5.44C80.53,106.41,92.79,74.49,93.31,71.64Z"/><path class="cls-1" d="M79.16,76.94c.14-3.22-4-4.28-9.75-5.11-8-1.16-16.7-2.33-24.21-3.42s-11.89-2-12.75,2.87c-.43,2.43.77,29.32,8.54,28.28,6.6-.88,18.8,1.17,24.38,4.67C70.42,107.41,78.79,79.38,79.16,76.94Z"/><path class="cls-1" d="M115.25,56.73c-.65,3.12-10.42,1.61-21.32.14-15.29-2.06-31.79-4.38-46.09-6.3-14.55-2-23.67-3.18-23-6.31s9.18-1.47,24,.52,35.47,5,46.32,6.43S115.89,53.61,115.25,56.73Z"/><path class="cls-1" d="M112.77,46.1c-.6,2.92-9.32,4.38-19.22,3-13.9-1.87-28.9-4-41.9-5.73C38.42,41.64,31.31,38,31.91,35.1s7.18,1.09,20.63,2.9,32.24,4.52,42.1,5.85S113.37,43.18,112.77,46.1Z"/><path class="cls-1" d="M107.84,39.45c-.48,2.33-7.54,3.48-15.58,2.4-11.27-1.52-23.44-3.23-34-4.65-10.73-1.44-16.5-4.35-16-6.68s5.82.89,16.73,2.35,26.15,3.67,34.15,4.74S108.32,37.11,107.84,39.45Z"/><path class="cls-1" d="M100.43,33.22c-.4,2-5.4,3-11,2.28C81.54,34.45,73,33.24,65.68,32.25S54.2,28.93,54.61,27s4.07.63,11.69,1.66S84.56,31.22,90.15,32,100.84,31.27,100.43,33.22Z"/><path class="cls-1" d="M103.57,65.91c.6-2.92-7.05-6.58-17-7.91-13.9-1.87-28.93-3.8-41.94-5.55-13.22-1.78-21.41-.22-22,2.7s7.23.84,20.68,2.65S75.65,62,85.52,63.29,103,68.83,103.57,65.91Z"/><path class="cls-1" d="M93.22,71.22c.48-2.33-5.73-5.27-13.76-6.35-11.27-1.52-23.47-3.08-34-4.5-10.73-1.44-17.36-.21-17.84,2.12s5.86.69,16.77,2.15S70.58,68,78.58,69.1,92.74,73.55,93.22,71.22Z"/><path class="cls-1" d="M78.91,76.17c.37-2.29-4-4.92-9.59-5.7-7.9-1.08-16.44-2.18-23.83-3.19s-12.19.4-12.55,2.69,4.11.46,11.75,1.51,18.36,2.37,24,3.14S78.54,78.45,78.91,76.17Z"/></svg>