<svg id="Organells&#x7EC6;&#x80DE;&#x5668;" xmlns="http://www.w3.org/2000/svg" viewbox="0 0 128 128" width="128" height="128"><defs><style>.cls-1{fill:#4776ca;stroke:#000;stroke-miterlimit:10;}</style></defs><title>Organells&#x7EC6;&#x80DE;&#x5668;</title><path class="cls-1" d="M31.05,32.47c-.37-2.07,4.73,1.24,10.38.54,7.93-1,16.67-2.82,24.09-3.74s11-5.07,11.41-3S76.37,51,68.69,50.08c-6.53-.74-20.89,2.77-26.41,5.74C37.3,58.5,31.42,34.54,31.05,32.47Z"/><path class="cls-1" d="M23.59,38.73C23.06,36.1,30,40,38.1,39.08c11.37-1.24,23.9-3.57,34.54-4.74,10.82-1.18,16.27-6.85,16.8-4.23S88.2,61.79,77.18,60.68c-9.36-.94-29.94,3.51-37.86,7.27C32.18,71.34,24.11,41.35,23.59,38.73Z"/><path class="cls-1" d="M18.86,45.56c-.65-3.18,7.95,1.22,18,.15C50.9,44.2,66.42,41.38,79.59,40c13.39-1.43,19.5-8.78,20.16-5.61s-.9,38.83-14.53,37.49c-11.59-1.14-37.07,4.25-46.87,8.8C29.5,84.76,19.51,48.73,18.86,45.56Z"/><path class="cls-1" d="M16.23,56.35c-.79-3.79,8.29-4.57,19.48-5.18,16-.88,32.13-5.53,46.77-7.1,14.89-1.59,23.79-4,24.51-.46S105.86,90.54,90.7,89C77.81,87.78,54,90.73,43.13,95.8,33.3,100.36,16.44,61.63,16.23,56.35Z"/><path class="cls-1" d="M27.95,65.42c-.65-3.18,7-5.81,17-6.88,14-1.5,28.91-2.82,42-4.23,13.31-1.43,21.49-2.92,22.14.26s-1.24,41.56-14.8,40.22c-11.52-1.14-32.78,1.52-42.52,6.07C43,105,28.69,69.84,27.95,65.42Z"/><path class="cls-1" d="M38.25,70.64c-.52-2.85,6.2-5.7,14.18-6.66,11.2-1.35,23.32-2.72,33.8-4,10.66-1.28,17.56-1.3,17.92,2.2.3,2.88-1.19,35.29-12,34.08-9.22-1-26.25,1.36-34,5.44C51,105.41,38.77,73.49,38.25,70.64Z"/><path class="cls-1" d="M52.39,75.94c-.14-3.22,4-4.28,9.75-5.11,8-1.16,16.7-2.33,24.21-3.42s11.89-2,12.75,2.87c.43,2.43-.77,29.32-8.54,28.28-6.6-.88-18.8,1.17-24.38,4.67C61.14,106.41,52.77,78.38,52.39,75.94Z"/><path class="cls-1" d="M16.31,55.73c.65,3.12,10.42,1.61,21.32.14,15.29-2.06,31.79-4.38,46.09-6.3,14.55-2,23.67-3.18,23-6.31s-9.18-1.47-24,.52-35.47,5-46.32,6.43S15.66,52.61,16.31,55.73Z"/><path class="cls-1" d="M18.79,45.1c.6,2.92,9.32,4.38,19.22,3,13.9-1.87,28.9-4,41.9-5.73,13.22-1.78,20.34-5.4,19.74-8.32S92.47,35.19,79,37s-32.24,4.52-42.1,5.85S18.18,42.18,18.79,45.1Z"/><path class="cls-1" d="M23.72,38.45c.48,2.33,7.54,3.48,15.58,2.4,11.27-1.52,23.44-3.23,34-4.65,10.73-1.44,16.5-4.35,16-6.68s-5.82.89-16.73,2.35-26.15,3.67-34.15,4.74S23.24,36.11,23.72,38.45Z"/><path class="cls-1" d="M31.12,32.22c.4,2,5.4,3,11,2.28,7.88-1.06,16.38-2.27,23.74-3.26S77.35,27.93,77,26s-4.07.63-11.69,1.66S47,30.22,41.4,31,30.72,30.27,31.12,32.22Z"/><path class="cls-1" d="M28,64.91C27.39,62,35,58.33,44.94,57c13.9-1.87,28.93-3.8,41.94-5.55,13.22-1.78,21.41-.22,22,2.7s-7.23.84-20.68,2.65S55.9,61,46,62.29,28.59,67.83,28,64.91Z"/><path class="cls-1" d="M38.34,70.22c-.48-2.33,5.73-5.27,13.76-6.35,11.27-1.52,23.47-3.08,34-4.5,10.73-1.44,17.36-.21,17.84,2.12s-5.86.69-16.77,2.15S61,67,53,68.1,38.82,72.55,38.34,70.22Z"/><path class="cls-1" d="M52.65,75.17c-.37-2.29,4-4.92,9.59-5.7,7.9-1.08,16.44-2.18,23.83-3.19s12.19.4,12.55,2.69-4.11.46-11.75,1.51-18.36,2.37-24,3.14S53,77.45,52.65,75.17Z"/></svg>