<svg id="Organells&#x7EC6;&#x80DE;&#x5668;" xmlns="http://www.w3.org/2000/svg" viewbox="0 0 128 128" width="128" height="128"><defs><style>.cls-1{fill:#709be1;stroke:none;}.cls-1,.cls-2,.cls-3{stroke:#000;stroke-miterlimit:10;stroke-width:0.99px;}.cls-2{fill:#4776ca;stroke:none;}.cls-3{fill:#6ca7e8;stroke:none;}</style></defs><title>Organells&#x7EC6;&#x80DE;&#x5668;</title><path class="cls-1" d="M114.35,93.9c-9.63,15.06-44.68,18.73-72.22.6S5,43.29,14.64,28.23s37.91-10.44,65.44,7.7S124,78.84,114.35,93.9Z"/><path class="cls-2" d="M27.71,34.33l-.93,16.14S32.72,67,52.5,78.2s52.89,12.73,52.89,12.73l1.52-18.29c.1-1.46-1.08-2.46-2.41-3a6.51,6.51,0,0,0-2.17-.64c-.9.09-9.58,6.48-9.58,6.48l1.51-15.95a3.83,3.83,0,0,0-1.53-2.83c-1.57-1.23-4.31-2.87-6.42-1.37-3.14,2.23-6.32,5.1-7.5,7.16a8.23,8.23,0,0,1-3.76,3l2-19.05c.07-1.14-1.14-3.12-2-3.89-2.16-2-6.69-5.29-11.24-3.61C57.6,41.28,51.77,51.63,51.77,51.63l1.8-17.36a2,2,0,0,0-1.39-1.88c-2-.86-5.81-2.06-8.07,0-3.18,2.83-5.79,4.89-5.79,4.89L39.68,26.8c.09-1.37-3.54.59-4.65,1.38-1.49,1.06-3.22,2.3-4.16,3s-1.54,1.09-2,1.39A2.64,2.64,0,0,0,27.71,34.33Z"/><line class="cls-2" x1="100.08" y1="83.28" x2="99.71" y2="88.11"/><line class="cls-2" x1="83.45" y1="75.52" x2="82.8" y2="84.21"/><line class="cls-2" x1="61.33" y1="64.78" x2="60.77" y2="73.38"/><line class="cls-2" x1="39.82" y1="49.54" x2="39.28" y2="56.57"/><path class="cls-2" d="M80.08,35.93C52.55,17.8,24.27,13.17,14.64,28.23s0,48.13,27.49,66.27,62.91,17.16,72.48,2.07C125.23,79.84,107.62,54.06,80.08,35.93ZM111.3,83.68c-5.76,9-29.71,3.6-53.5-12.06S19.39,36,25.15,26.95,54.86,23.34,78.65,39,117.05,74.68,111.3,83.68Z"/><path class="cls-3" d="M43.94,57.59c-4-2.92-4.56-6.29-3.89-10,.78-4.29,4.71-8.24,7.08-10.61.57-.57,1.57-2.09.49-2.8-.79-.52-1.5-.16-4,1.72C39.87,38.73,33.84,43,29,38c-2-2.06-1.53-5.35.19-7.41,4-4.8,9.25-5,10.13-4.26s-.87,2.1-4.8,4c-1.67.82-3.24,3-1.67,4.41,2.22,2,6-1.19,8.77-3.3s6-4.52,9-2.82a5.61,5.61,0,0,1,3,5.81c-.42,3.16-2.67,5.34-4.83,7.51-1.53,1.53-6.71,6.27-.84,8.85,5.18,2.28,4.89-10.23,9.52-14,3.42-2.77,7.34-2.86,13.7,1.08,4.71,2.93,6.64,5.88,6,9.65-1.89,11.81-11.63,14.71-6,17.78,5.9,3.24,7.59-18.94,20.33-11.07,6.62,4.09-.35,14.07-2.1,16.79-3,4.57,1.44,6.34,3.64,2,2.11-4.16,6-9.26,10.35-6.75,8.25,4.79-.11,17.37-1.88,18.19s-1.78-1.25-.79-3.2c5.11-10-1-12.41-3.86-7.2-2.53,4.57-4.73,9-10.39,6.43s-1.77-9.6-.34-12.33c4.05-7.77-1.8-9-4.66-3.8-1.79,3.26-5.37,13-14.28,8.38-4.63-2.4-6.45-5.45-5.67-9.1,2.05-9.61,12.79-15.18,5.31-19.3-4.19-2.31-7.9-.91-8.2,4.46C57.75,63.51,47.65,60.27,43.94,57.59Zm-12-25.8Z"/></svg>