<svg id="Organells&#x7EC6;&#x80DE;&#x5668;" xmlns="http://www.w3.org/2000/svg" viewbox="0 0 128 128" width="128" height="128"><defs><style>.cls-1{fill:#01a923;stroke:none;}.cls-2{fill:#a8ee53;stroke:none;}.cls-3{fill:#b8ff94;stroke:#00794a;}.cls-10,.cls-11,.cls-13,.cls-15,.cls-16,.cls-3,.cls-4,.cls-5,.cls-6{stroke-miterlimit:10;}.cls-3,.cls-4{stroke-width:0.62px;}.cls-4{fill:none;stroke:#18c544;}.cls-5{fill:#b3ffff;stroke:#3bc5e8;stroke-width:0.57px;}.cls-13,.cls-6{fill:#4776ca;stroke:#000;}.cls-6{stroke-width:0.25px;}.cls-7{fill:#cae800;stroke:none;}.cls-8{fill:#00a300;stroke:none;}.cls-9{fill:#30cb00;stroke:none;}.cls-10,.cls-11{fill:#05e601;stroke:#007045;}.cls-10{stroke-width:0.11px;}.cls-11{stroke-width:0.12px;}.cls-12{fill:#70cf53;stroke:none;}.cls-13{stroke-width:0.25px;}.cls-14{fill:#4999c7;stroke:none;}.cls-15,.cls-16{fill:#d24990;stroke:#652d88;}.cls-15{stroke-width:0.2px;}.cls-16{stroke-width:0.18px;}.cls-17{fill:#86888a;stroke:none;}.cls-18{fill:#c4c6c8;stroke:none;}.cls-19{fill:#ebebec;stroke:none;}</style></defs><title>Organells&#x7EC6;&#x80DE;&#x5668;</title><path class="cls-1" d="M17.69,32.24l2.07,10.17a4.06,4.06,0,0,1,2.57,0c1.16.5,4.5-.2,4.5-.2L22.59,61.54,16.8,62.73l-3.62,1.79,1.57,16s5.79-1.69,6.69-.1,3.09,6.74,8.61,9.91,11.7,4,12.86,5.15,7.71,4.06,7.71,4.06S51.13,97.23,55,97s21-1.69,24.94-2.38,5.66-2.18,10.28-1.39a9.55,9.55,0,0,1,6.43,3.67l4.89-13.88s5.79-8.43,6.81-10.61,2.06-5.25,4.76-5.65a4.92,4.92,0,0,1,4,.79l2.17-15.15-3.46-2.2L108,50,86.22,31.31,84.47,23.8l-3.38,1.07-8.23,5.35s-45.25,3-45.64,2.87S17.69,32.24,17.69,32.24Z"/><path class="cls-2" d="M13.18,64.53s6-2,7.52,0A50.58,50.58,0,0,0,33.15,75c5.15,2.81,12.45,6,12,7.45a47.3,47.3,0,0,1-2.15,5l6.66-.5s-1.93-3.81,1.72-4S70.08,81.58,77,80.58s11.38-3,13.74-2,5.15,2.48,5.37,3.31l.21.83,5.8-2.81s-6-1.49-6.23-4,5.37-5.46,10.09-12.75,4.29-10.76,5.8-10.93,3.65-.83,5.58-.33l1.93.5-.86-4.14S115,50,113,49.46s-8.8-9.11-15.46-13.24-14-6-14.17-7.12-.21-3.64.43-4.47l.64-.83-5.58-.66s.86,4.64-5.37,4.8S52.9,27.77,44.1,29.43s-13.1,3-15.67,2.15S22,29.26,22,29.26l-4.29,3s9.23,2.32,7.94,4.47-4.72,12.42-4.94,15.73-.21,8.61-3,9.11-4.94.66-4.94.66Z"/><path class="cls-3" d="M49.52,79.77C58.7,81,86.05,77.42,90.73,75.06c6.69-3.37,18.53-18,17.81-24.42s-19.43-19-29.87-20-42.65-.14-48,3.88-9.54,21.92-7.38,27.61S40.35,78.53,49.52,79.77Z"/><path class="cls-4" d="M50.13,78.85c8.83,1.2,35.16-2.27,39.66-4.54,6.44-3.25,17.84-17.36,17.15-23.5S88.23,32.51,78.19,31.58s-41.05-.13-46.25,3.74-9.18,21.1-7.1,26.58S41.29,77.65,50.13,78.85Z"/><path class="cls-5" d="M74.12,60.06s16.32-7.78,12.72-11.68c-1.19-1.29-1.44-3.32-3.23-4.07-9-3.77-25.29-.09-28.8,2.87C49.15,52,43.42,53,43.42,57.57c0,4-.12,10,17.83,9.07A17.62,17.62,0,0,0,74.12,60.06Z"/><path class="cls-6" d="M68.09,73.59c-.18,1.87-4.86,3.12-10.46,2.8s-10-2.1-9.8-4,4.86-3.12,10.46-2.8S68.27,71.72,68.09,73.59Z"/><path class="cls-6" d="M53.92,75.45a1.66,1.66,0,0,1-1.6-1.18A3.66,3.66,0,0,1,52.59,72c0-.14.08-.45-.17-.47s-.28.11-.54.61c-.4.75-1.06,1.93-2.36,1.58a.93.93,0,0,1-.65-1.14,1.94,1.94,0,0,1,1.38-1.53c.25,0,0,.4-.47,1-.22.27-.29.74.11.82.57.11.93-.7,1.23-1.26s.64-1.21,1.31-1.21a1.08,1.08,0,0,1,1.05.63,2.15,2.15,0,0,1-.16,1.56c-.13.36-.6,1.53.66,1.42s-.08-2,.38-3c.34-.72,1-1.07,2.49-1,1.09,0,1.7.32,1.94.95.75,2-.68,3.25.57,3.23s-.41-3.54,2.54-3.45c1.53,0,1.23,2.17,1.17,2.74-.1,1,.83.84.82,0s.2-1.93,1.19-1.92c1.88,0,1.57,2.65,1.34,2.93s-.43,0-.43-.42c0-2-1.31-1.8-1.33-.76s0,1.79-1.23,1.88S62.27,74,62.27,73.42c0-1.53-1.14-1.21-1.16-.17,0,.65.25,2.44-1.73,2.51-1,0-1.63-.27-1.83-.89-.52-1.64.85-3.42-.84-3.4-.94,0-1.46.55-1,1.39C56.88,75.16,54.82,75.54,53.92,75.45Zm-4.46-2.89Z"/><path class="cls-7" d="M42,37.52c-5.4,1.71-9,4.91-7.92,7s6.61,2.41,12,.7,9-4.91,7.92-7S47.43,35.81,42,37.52Z"/><path class="cls-8" d="M40.87,35.35c-7.11,2.25-11.27,6.65-9.48,10s8.77,4.26,15.88,2,11.27-6.65,9.48-10S48,33.11,40.87,35.35Zm5.22,9.82c-5.22,1.65-10.75,1.32-11.83-.7s2.56-5.25,7.79-6.9,10.75-1.32,11.83.7S51.31,43.52,46.09,45.17Z"/><path class="cls-9" d="M46.92,46.74c-6.64,2.1-13.09,1.38-14.69-1.63s2.35-7,9-9.11,13.09-1.38,14.69,1.63S53.56,44.64,46.92,46.74Zm-5.22-9.82c-5.77,1.82-9.56,5.4-8.28,7.81s7.24,2.91,13,1.09S56,40.42,54.72,38,47.48,35.1,41.71,36.92Z"/><path class="cls-10" d="M43.54,44.39l-5.71-1.91c-.29-.1-.27-.41,0-.49l6.3-1.72a.37.37,0,0,0,.13-.06l2.28-1.63a.38.38,0,0,1,.19-.08l2-.24a.34.34,0,0,1,.39.22v.07c0,.14-.1.28-.28.3l-1.79.2a.38.38,0,0,0-.19.08l-2.23,1.59a.37.37,0,0,1-.13.06L40,42c-.29.08-.31.4,0,.49l3.56,1.19a.43.43,0,0,0,.29,0l6.5-2.57a.39.39,0,0,1,.46.12l0,.07a.24.24,0,0,1-.15.35l-6.83,2.7A.43.43,0,0,1,43.54,44.39Z"/><path class="cls-10" d="M37.84,40.49c-.79.25-1.36.66-1.23.9s.9.22,1.7,0,1.36-.66,1.23-.9S38.63,40.24,37.84,40.49Z"/><path class="cls-10" d="M38.3,41.36c-.79.25-1.36.66-1.23.9s.9.22,1.7,0,1.36-.66,1.23-.9S39.1,41.11,38.3,41.36Z"/><path class="cls-10" d="M38.77,42.23c-.79.25-1.36.66-1.23.9s.9.22,1.7,0,1.36-.66,1.23-.9S39.56,42,38.77,42.23Z"/><path class="cls-10" d="M45.79,37.67c-.79.25-1.36.66-1.23.9s.9.22,1.7,0,1.36-.66,1.23-.9S46.59,37.42,45.79,37.67Z"/><path class="cls-10" d="M46.26,38.55c-.79.25-1.36.66-1.23.9s.9.22,1.7,0,1.36-.66,1.23-.9S47.05,38.29,46.26,38.55Z"/><path class="cls-10" d="M48.33,37.87c-.79.25-1.36.66-1.23.9s.9.22,1.7,0,1.36-.66,1.23-.9S49.12,37.62,48.33,37.87Z"/><path class="cls-10" d="M48.79,38.74c-.79.25-1.36.66-1.23.9s.9.22,1.7,0,1.36-.66,1.23-.9S49.58,38.49,48.79,38.74Z"/><path class="cls-10" d="M49.25,39.62c-.79.25-1.36.66-1.23.9s.9.22,1.7,0,1.36-.66,1.23-.9S50,39.37,49.25,39.62Z"/><path class="cls-10" d="M49.72,40.49c-.79.25-1.36.66-1.23.9s.9.22,1.7,0,1.36-.66,1.23-.9S50.51,40.24,49.72,40.49Z"/><path class="cls-10" d="M50.18,41.37c-.79.25-1.36.66-1.23.9s.9.22,1.7,0,1.36-.66,1.23-.9S51,41.11,50.18,41.37Z"/><path class="cls-10" d="M43.13,42c-.79.25-1.36.66-1.23.9s.9.22,1.7,0,1.36-.66,1.23-.9S43.92,41.77,43.13,42Z"/><path class="cls-10" d="M43.59,42.9c-.79.25-1.36.66-1.23.9s.9.22,1.7,0,1.36-.66,1.23-.9S44.39,42.64,43.59,42.9Z"/><path class="cls-10" d="M44.06,43.77c-.79.25-1.36.66-1.23.9s.9.22,1.7,0,1.36-.66,1.23-.9S44.85,43.52,44.06,43.77Z"/><path class="cls-10" d="M43.19,37.63c-.79.25-1.36.66-1.23.9s.9.22,1.7,0,1.36-.66,1.23-.9S44,37.38,43.19,37.63Z"/><path class="cls-10" d="M43.65,38.5c-.79.25-1.36.66-1.23.9s.9.22,1.7,0,1.36-.66,1.23-.9S44.45,38.25,43.65,38.5Z"/><path class="cls-10" d="M44.12,39.38c-.79.25-1.36.66-1.23.9s.9.22,1.7,0,1.36-.66,1.23-.9S44.91,39.13,44.12,39.38Z"/><path class="cls-10" d="M44.58,40.25c-.79.25-1.36.66-1.23.9s.9.22,1.7,0,1.36-.66,1.23-.9S45.38,40,44.58,40.25Z"/><path class="cls-10" d="M45,41.13c-.79.25-1.36.66-1.23.9s.9.22,1.7,0,1.36-.66,1.23-.9S45.84,40.87,45,41.13Z"/><path class="cls-7" d="M89.14,68.26c4.5-3.1,6.61-7.19,4.59-8.93s-7.52-.59-12,2.51S75.1,69,77.11,70.77,84.63,71.36,89.14,68.26Z"/><path class="cls-8" d="M91.22,70.07c5.92-4.08,8-9.47,4.76-12.28S85.54,56,79.62,60s-8,9.47-4.76,12.28S85.3,74.14,91.22,70.07Zm-9.47-8.18c4.35-3,9.88-4.14,11.84-2.46s-.15,5.79-4.51,8.79-9.88,4.14-11.84,2.46S77.4,64.88,81.76,61.89Z"/><path class="cls-9" d="M80.24,60.58c5.53-3.81,12.14-4.82,15-2.31s.84,7.45-4.69,11.26-12.14,4.82-15,2.31S74.71,64.39,80.24,60.58Zm9.47,8.18c4.81-3.31,6.91-7.8,4.58-9.81s-8.35-.91-13.16,2.4-6.91,7.8-4.58,9.81S84.9,72.07,89.71,68.76Z"/><path class="cls-11" d="M84.59,62l6.42.34c.32,0,.45.33.2.48l-5.37,3.35a.3.3,0,0,0-.1.1l-1.5,2.19a.32.32,0,0,1-.15.13l-1.89.77a.41.41,0,0,1-.48-.11l0-.07a.24.24,0,0,1,.14-.37l1.65-.67a.32.32,0,0,0,.15-.13l1.46-2.14a.3.3,0,0,1,.1-.1l3.92-2.44c.25-.16.12-.47-.2-.48l-4-.21a.42.42,0,0,0-.28.08l-5.19,4.23a.43.43,0,0,1-.5,0l-.07-.05a.23.23,0,0,1,0-.39l5.45-4.44A.42.42,0,0,1,84.59,62Z"/><path class="cls-11" d="M91.89,64.26c.66-.46,1-1,.8-1.2s-1,0-1.64.48-1,1-.8,1.2S91.23,64.71,91.89,64.26Z"/><path class="cls-11" d="M91,63.53c.66-.46,1-1,.8-1.2s-1,0-1.64.48-1,1-.8,1.2S90.39,64,91,63.53Z"/><path class="cls-11" d="M90.21,62.8c.66-.46,1-1,.8-1.2s-1,0-1.64.48-1,1-.8,1.2S89.54,63.26,90.21,62.8Z"/><path class="cls-11" d="M85.4,69.11c.66-.46,1-1,.8-1.2s-1,0-1.64.48-1,1-.8,1.2S84.73,69.57,85.4,69.11Z"/><path class="cls-11" d="M84.55,68.38c.66-.46,1-1,.8-1.2s-1,0-1.64.48-1,1-.8,1.2S83.89,68.84,84.55,68.38Z"/><path class="cls-11" d="M82.84,69.59c.66-.46,1-1,.8-1.2s-1,0-1.64.48-1,1-.8,1.2S82.18,70,82.84,69.59Z"/><path class="cls-11" d="M82,68.86c.66-.46,1-1,.8-1.2s-1,0-1.64.48-1,1-.8,1.2S81.33,69.32,82,68.86Z"/><path class="cls-11" d="M81.15,68.14c.66-.46,1-1,.8-1.2s-1,0-1.64.48-1,1-.8,1.2S80.49,68.59,81.15,68.14Z"/><path class="cls-11" d="M80.31,67.41c.66-.46,1-1,.8-1.2s-1,0-1.64.48-1,1-.8,1.2S79.65,67.86,80.31,67.41Z"/><path class="cls-11" d="M79.47,66.68c.66-.46,1-1,.8-1.2s-1,0-1.64.48-1,1-.8,1.2S78.8,67.13,79.47,66.68Z"/><path class="cls-11" d="M86,64.17c.66-.46,1-1,.8-1.2s-1,0-1.64.48-1,1-.8,1.2S85.39,64.62,86,64.17Z"/><path class="cls-11" d="M85.21,63.44c.66-.46,1-1,.8-1.2s-1,0-1.64.48-1,1-.8,1.2S84.54,63.89,85.21,63.44Z"/><path class="cls-11" d="M84.36,62.71c.66-.46,1-1,.8-1.2s-1,0-1.64.48-1,1-.8,1.2S83.7,63.17,84.36,62.71Z"/><path class="cls-11" d="M88,68.46c.66-.46,1-1,.8-1.2s-1,0-1.64.48-1,1-.8,1.2S87.29,68.92,88,68.46Z"/><path class="cls-11" d="M87.11,67.73c.66-.46,1-1,.8-1.2s-1,0-1.64.48-1,1-.8,1.2S86.45,68.19,87.11,67.73Z"/><path class="cls-11" d="M86.26,67c.66-.46,1-1,.8-1.2s-1,0-1.64.48-1,1-.8,1.2S85.6,67.46,86.26,67Z"/><path class="cls-11" d="M85.42,66.28c.66-.46,1-1,.8-1.2s-1,0-1.64.48-1,1-.8,1.2S84.76,66.73,85.42,66.28Z"/><path class="cls-11" d="M84.58,65.55c.66-.46,1-1,.8-1.2s-1,0-1.64.48-1,1-.8,1.2S83.92,66,84.58,65.55Z"/><polygon class="cls-12" points="49.68 86.88 43.02 87.37 43.65 99.75 50.61 99.51 49.68 86.88"/><path class="cls-12" d="M102.07,79.92l-5.8,2.81S96,97,96.64,96.93a56,56,0,0,0,5.09-2.68Z"/><path class="cls-12" d="M12.75,62.21,13.4,79l1.35,1.47s-1.19-16-1.19-16S12.75,62.21,12.75,62.21Z"/><path class="cls-13" d="M62.24,41.42c.61.41,1.44-.48,2.42-1.42l4.17-4c1.32-1.26,2.14-2,1.54-2.46s-1.29.4-2.63,1.68l-4.19,4C62.56,40.19,61.63,41,62.24,41.42Z"/><path class="cls-13" d="M64.63,42.17c-.57-.38-.3-1.41.59-2.27L69,36.25c1.2-1.14,2.37-1.45,2.94-1.07s-.68.61-1.89,1.77L66.3,40.57C65.41,41.42,65.2,42.55,64.63,42.17Z"/><path class="cls-13" d="M66.45,42.23c-.45-.31-.23-1.14.49-1.83L70,37.45c1-.93,1.93-1.19,2.39-.89s-.55.49-1.54,1.44l-3.09,3C67.05,41.65,66.9,42.53,66.45,42.23Z"/><path class="cls-13" d="M68.39,42c-.38-.26-.28-.87.23-1.36l2.15-2.06c.68-.65,1.41-.8,1.79-.54s-.39.34-1.08,1l-2.16,2.07C68.82,41.56,68.77,42.22,68.39,42Z"/><path class="cls-13" d="M60.9,39.65c.57.38,1.79,0,2.68-.86l3.81-3.65c1.2-1.14,1.37-2.13.8-2.51s-.63.64-1.84,1.8L62.57,38C61.68,38.9,60.33,39.27,60.9,39.65Z"/><path class="cls-13" d="M60.51,38.22c.45.31,1.44,0,2.16-.71l3.08-2.94c1-.93,1.13-1.74.68-2s-.51.52-1.5,1.46l-3.09,3C61.11,37.64,60.05,37.91,60.51,38.22Z"/><path class="cls-13" d="M60.49,36.64a1.48,1.48,0,0,0,1.63-.42l2.15-2.06c.68-.65.73-1.25.36-1.51s-.35.36-1,1l-2.16,2.07C60.91,36.24,60.11,36.38,60.49,36.64Z"/><ellipse class="cls-14" cx="29.08" cy="47.69" rx="0.82" ry="0.63"/><ellipse class="cls-14" cx="28.38" cy="52.15" rx="0.82" ry="0.63"/><ellipse class="cls-14" cx="28.01" cy="60.24" rx="0.82" ry="0.63"/><ellipse class="cls-14" cx="26.21" cy="58.11" rx="0.82" ry="0.63"/><ellipse class="cls-14" cx="27.93" cy="56.44" rx="0.82" ry="0.63"/><ellipse class="cls-14" cx="27.26" cy="55.17" rx="0.82" ry="0.63"/><ellipse class="cls-14" cx="30.21" cy="49.21" rx="0.82" ry="0.63"/><ellipse class="cls-14" cx="35.01" cy="50.72" rx="0.82" ry="0.63"/><ellipse class="cls-14" cx="32.3" cy="49.88" rx="0.82" ry="0.63"/><ellipse class="cls-14" cx="27.44" cy="49.53" rx="0.82" ry="0.63"/><ellipse class="cls-14" cx="30.53" cy="51" rx="0.82" ry="0.63"/><path class="cls-15" d="M51.36,50.23c.1.26-.15.61-.58.81a15.66,15.66,0,0,0-5.46,3.92,1.4,1.4,0,0,1-1.24.42c-.41-.09-.51-.43-.22-.76a18.2,18.2,0,0,1,6.35-4.55c.47-.21,1-.16,1.14.11Z"/><path class="cls-15" d="M52.53,64.9a.39.39,0,0,1,0,.26,1.26,1.26,0,0,1-1.08.68c-4.77.34-8.54-1.3-9.6-4.17a6.17,6.17,0,0,1,.73-5.28,1.37,1.37,0,0,1,1.17-.57c.45,0,.66.32.47.66A5.31,5.31,0,0,0,43.59,61c.91,2.48,4.16,3.89,8.27,3.59C52.21,64.58,52.46,64.7,52.53,64.9Z"/><path class="cls-15" d="M49,49.76c.09.24-.1.56-.49.76-3.6,1.93-6.3,4.72-7.21,7.47a1.26,1.26,0,0,1-1.08.68c-.48,0-.78-.21-.67-.55,1.06-3.16,4-6.25,8.18-8.47a1.06,1.06,0,0,1,1.19,0A.35.35,0,0,1,49,49.76Z"/><path class="cls-15" d="M43.43,51.83a.56.56,0,0,1-.23.58c-3.75,3.31-5.3,7.15-4.14,10.28.11.29-.19.66-.67.84s-.95.09-1.06-.2c-1.29-3.48.44-7.76,4.61-11.44a1.33,1.33,0,0,1,1.25-.29A.41.41,0,0,1,43.43,51.83Z"/><ellipse class="cls-15" cx="32.57" cy="66.9" rx="0.98" ry="0.59" transform="translate(-21.16 15.43) rotate(-20.27)"/><path class="cls-15" d="M37.91,53.63c-3,3.61-4,7.36-2.87,10.55A7.87,7.87,0,0,0,37,67.11c.08.07,0,.21-.17.24a1.6,1.6,0,0,0-.43.16.88.88,0,0,0-.52.66c0,.41.57.56,1.15.35a1.33,1.33,0,0,0,.61-.44A.34.34,0,0,1,38,68a10.8,10.8,0,0,0,1.06.67,1.25,1.25,0,0,0,1.15-.11c.5-.3.6-.74.25-.94a7.76,7.76,0,0,1-3.7-4.08c-1.07-2.9-.14-6.31,2.62-9.6a.49.49,0,0,0,.13-.48.54.54,0,0,0-.53-.29A1.55,1.55,0,0,0,37.91,53.63Z"/><path class="cls-15" d="M38.91,64.09c-.57.2-.87.65-.66.94A9,9,0,0,0,42,67.8c.07,0,0,.12-.07.16a1.34,1.34,0,0,0-.44.26c-.25.22-.39.48-.28.68s.62.36,1.11.18a1.1,1.1,0,0,0,.73-.67.24.24,0,0,1,.27-.12l.27.08A1.45,1.45,0,0,0,44.82,68a.52.52,0,0,0,.17-.53.45.45,0,0,0-.32-.26,8.86,8.86,0,0,1-4.78-3A.9.9,0,0,0,38.91,64.09Z"/><path class="cls-15" d="M39.21,60a6,6,0,0,0,.35,2.46c.83,2.24,3,3.84,6,4.55a.28.28,0,0,1,.23.19v0c.11.31.62.4,1.13.21a2.69,2.69,0,0,1,.64-.11,1.45,1.45,0,0,0,1.26-.54.44.44,0,0,0,.06-.39.52.52,0,0,0-.48-.29c-3.66-.35-6.27-1.92-7.15-4.31A5.3,5.3,0,0,1,41,59.68c0-.36-.46-.55-1-.37C39.54,59.45,39.23,59.76,39.21,60Z"/><path class="cls-16" d="M74.21,45.36c.11.24.5.3.91.14a14.43,14.43,0,0,1,6.11-1,1.29,1.29,0,0,0,1.09-.54c.2-.33,0-.61-.35-.64a16.77,16.77,0,0,0-7.1,1.2c-.44.17-.74.53-.67.81Z"/><path class="cls-16" d="M83,55.65a.36.36,0,0,0,.17.17,1.16,1.16,0,0,0,1.14-.26c3.32-2.9,4.7-6.43,3.51-9a5.69,5.69,0,0,0-3.93-2.95,1.26,1.26,0,0,0-1.14.4c-.28.31-.22.64.13.74a4.89,4.89,0,0,1,3.38,2.54c1,2.21-.16,5.24-3,7.74C83.05,55.23,83,55.48,83,55.65Z"/><path class="cls-16" d="M75.41,43.54c.1.21.43.29.81.18,3.6-1.1,7.18-1.05,9.57.13a1.16,1.16,0,0,0,1.14-.26c.33-.29.37-.65.07-.79-2.75-1.36-6.71-1.42-10.85-.15-.45.14-.79.49-.77.78A.32.32,0,0,0,75.41,43.54Z"/><path class="cls-16" d="M80.41,41.21a.51.51,0,0,0,.53.23c4.6-.3,8.12,1.18,9.41,4,.12.26.56.3,1,.11s.67-.56.55-.82c-1.44-3.1-5.36-4.75-10.48-4.41a1.22,1.22,0,0,0-1,.63A.38.38,0,0,0,80.41,41.21Z"/><ellipse class="cls-16" cx="97.32" cy="43.9" rx="0.91" ry="0.54" transform="translate(-9.44 45.11) rotate(-24.93)"/><path class="cls-16" d="M85.18,38.77c4.33.37,7.44,2.13,8.76,5a7.26,7.26,0,0,1,.65,3.18c0,.1.15.12.27,0a1.48,1.48,0,0,1,.39-.18.81.81,0,0,1,.77.09c.27.27,0,.74-.52,1a1.22,1.22,0,0,1-.68.12.32.32,0,0,0-.33.2,10,10,0,0,1-.25,1.13,1.15,1.15,0,0,1-.81.68c-.52.13-.87-.09-.77-.45a7.15,7.15,0,0,0-.27-5.07c-1.2-2.59-4-4.19-8-4.52a.45.45,0,0,1-.4-.23.5.5,0,0,1,.15-.53A1.43,1.43,0,0,1,85.18,38.77Z"/><path class="cls-16" d="M91.37,46.22c.5-.24,1-.14,1,.18a8.25,8.25,0,0,1-.59,4.23c0,.07.06.1.15.06a1.23,1.23,0,0,1,.45-.12c.31,0,.57.06.63.26s-.17.64-.61.84a1,1,0,0,1-.91,0,.22.22,0,0,0-.26.1l-.12.23a1.33,1.33,0,0,1-1.06.6.48.48,0,0,1-.46-.23.41.41,0,0,1,0-.38A8.16,8.16,0,0,0,90.82,47,.83.83,0,0,1,91.37,46.22Z"/><path class="cls-16" d="M88.52,43.79a5.53,5.53,0,0,1,1.38,1.83c.93,2,.57,4.44-.95,6.9a.26.26,0,0,0,0,.28l0,0c.13.27-.14.66-.59.88a2.48,2.48,0,0,0-.49.35,1.34,1.34,0,0,1-1.17.47.41.41,0,0,1-.3-.21.48.48,0,0,1,.12-.5c2.15-2.62,2.82-5.34,1.82-7.47a4.88,4.88,0,0,0-1.22-1.62c-.25-.22-.06-.66.44-.92A.93.93,0,0,1,88.52,43.79Z"/><path class="cls-17" d="M65.63,53.74A3.12,3.12,0,0,0,65,49.4a5.13,5.13,0,0,0-5.37-1.16c-3.88,1.62-2.51,4.26-2.17,5.38s1.48,2.94,5.36,1.93A5,5,0,0,0,65.63,53.74Z"/><path class="cls-18" d="M64.27,52.94a2.41,2.41,0,0,0-.53-3.35,4,4,0,0,0-4.15-.89c-3,1.25-1.94,3.29-1.67,4.15s1.14,2.27,4.14,1.49A3.86,3.86,0,0,0,64.27,52.94Z"/><ellipse class="cls-19" cx="59.48" cy="50.19" rx="1.67" ry="0.78" transform="translate(-18 42.84) rotate(-34.74)"/></svg>