<svg id="Organells&#x7EC6;&#x80DE;&#x5668;" xmlns="http://www.w3.org/2000/svg" viewbox="0 0 128 128" width="128" height="128"><defs><style>.cls-1{fill:#d24990;stroke:#652d88;stroke-miterlimit:10;}</style></defs><title>Organells&#x7EC6;&#x80DE;&#x5668;</title><path class="cls-1" d="M108.05,105.15a3.67,3.67,0,0,1-3.64-3.26A44.89,44.89,0,0,0,92.76,76.37a3.67,3.67,0,1,1,5.4-5,52.16,52.16,0,0,1,13.55,29.66,3.67,3.67,0,0,1-3.23,4.05Z"/><path class="cls-1" d="M15.29,89.45A3.67,3.67,0,0,1,12,84.19,52.94,52.94,0,0,1,59.42,54.4a52.25,52.25,0,0,1,30.74,9.91,3.67,3.67,0,1,1-4.29,5.95,45,45,0,0,0-26.45-8.53A45.57,45.57,0,0,0,18.6,87.38,3.67,3.67,0,0,1,15.29,89.45Z"/><path class="cls-1" d="M116.2,97.22a3.67,3.67,0,0,1-3.57-2.84A55.12,55.12,0,0,0,83.13,57.54a3.67,3.67,0,1,1,3.19-6.6,61.68,61.68,0,0,1,33.46,41.79,3.67,3.67,0,0,1-3.57,4.49Z"/><path class="cls-1" d="M116.19,73.68A3.62,3.62,0,0,1,113.14,72,63.65,63.65,0,0,0,59.42,42.67a3.63,3.63,0,0,1,0-7.25,70.87,70.87,0,0,1,59.82,32.67,3.63,3.63,0,0,1-3,5.59Z"/><circle class="cls-1" cx="48.25" cy="12.98" r="3.87"/><path class="cls-1" d="M117.67,50.8a79.65,79.65,0,0,0-58.26-25A80.77,80.77,0,0,0,37,29a.85.85,0,0,1-1.09-1A3.86,3.86,0,0,0,33,23.38,3.87,3.87,0,0,0,29.54,30a1,1,0,0,1-.3,1.65q-3.34,1.35-6.55,3a3.77,3.77,0,0,0-2,4.38,3.67,3.67,0,0,0,5.19,2.19,73.1,73.1,0,0,1,86.5,14.69,3.67,3.67,0,0,0,5.65-.4A4,4,0,0,0,117.67,50.8Z"/><path class="cls-1" d="M51.16,40.23a3.63,3.63,0,0,0-4.26-3.71,70.9,70.9,0,0,0-25.47,9.91.52.52,0,0,1-.8-.48A3.45,3.45,0,0,0,20,44a4,4,0,0,0-3.56-2,3.86,3.86,0,0,0-1.15,7.45.68.68,0,0,1,.14,1.17l-1.1.88a3.82,3.82,0,0,0-.71,5.21,3.63,3.63,0,0,0,5.14.53A63.75,63.75,0,0,1,48,43.69,3.71,3.71,0,0,0,51.16,40.23Z"/><path class="cls-1" d="M75.32,46.87a62,62,0,0,0-57.55,14,2.25,2.25,0,0,1-1.7.6h-.26a3.87,3.87,0,0,0-3.87,3.87,7,7,0,0,1-.79,2.53,3.83,3.83,0,0,0,.46,5.38,3.67,3.67,0,0,0,5.11-.61A54.73,54.73,0,0,1,73.49,54a3.67,3.67,0,1,0,1.83-7.1Z"/></svg>