<svg id="Organells&#x7EC6;&#x80DE;&#x5668;" xmlns="http://www.w3.org/2000/svg" viewbox="0 0 128 128" width="128" height="128"><defs><style>.cls-1{fill:#d24990;stroke:#652d88;stroke-miterlimit:10;}</style></defs><title>Organells&#x7EC6;&#x80DE;&#x5668;</title><path class="cls-1" d="M117.55,51.91c-.78-3.4-29.32-26.54-56.17-26.33a104.75,104.75,0,0,0-29.84,4.3L29,25.52l-.17,0c-1-.13-1.55,0-1.57,1l-.41,5.12c-4.92,2.14-7.66,4.56-7.17,6.74,2.88,12.64,18.18,73.14,79.87,42C106,77.07,119.58,60.79,117.55,51.91Z"/><path class="cls-1" d="M54.82,37.8c-2.9,12.51,3.36,60.72,46.71,59.59,7.26-.19,16-19.38,17.18-28.12C119.16,65.8,96,44.83,91.22,43.34,86.61,41.91,56.11,32.26,54.82,37.8Z"/><path class="cls-1" d="M48.77,36.83c-2.23-2.46-21.34,5-31.22,11.35L13.1,46.47c-.49-.19-1.06-.06-.89.44.37,1.09.95,3,1.34,4.27-1.25,1.17-1.9,2.2-1.7,3,3,11.85,6.73,16.83,12.88,19,3.32,1.15,14.9-1,19.28-5.74C47.55,63.55,54.27,42.92,48.77,36.83Z"/><path class="cls-1" d="M25.63,57.21c-9.13,5-18.18,9.52-15.87,14.72C15,83.78,21.51,87.59,32.18,89.73c5.77,1.15,19,.35,26.56-4.4,6.16-3.85,21.32-29.62,17.57-37.61-1.48-3.16-30.65.95-35.28,3C36.6,52.59,29.67,55,25.63,57.21Z"/><path class="cls-1" d="M80.78,51.57c-2.08,3.19-6.24,23.57-4,36.62,1.82,10.64,10.09,14.14,16.38,15.94,7,2,23-2.39,25.45-10.85,1-3.25-17-29-28.49-38.74C86.3,51.31,82.08,49.58,80.78,51.57Z"/><path class="cls-1" d="M96.09,70c-2.29-1-5.06.08-5.21,3.74-.36,8.55-5.26,22-7.79,29.47-2.38,7,2,10.6,4.68,12.9s8.24,4.43,12.05,1.94c3.08-2,10.48-11.36,11.06-16.14.62-5.07-4.89-13.91-8.71-20.1C100.73,79.48,98.37,71,96.09,70Z"/><path class="cls-1" d="M25.36,71.7c-8,6.6-16.55,10.59-14.25,15.79C16.38,99.33,24.36,114.57,35,117c11.25,2.6,29.76-1.17,37.29-6,8.95-5.77,14.36-21,18.42-44.54C91.51,61.56,68.36,54.38,56,57A72.09,72.09,0,0,0,25.36,71.7Z"/><path class="cls-1" d="M107,104.65a3.67,3.67,0,0,1-3.64-3.26A44.89,44.89,0,0,0,91.72,75.88a3.67,3.67,0,1,1,5.4-5,52.16,52.16,0,0,1,13.55,29.66,3.67,3.67,0,0,1-3.23,4.05Z"/><path class="cls-1" d="M14.26,89A3.67,3.67,0,0,1,11,83.7,52.94,52.94,0,0,1,58.38,53.91a52.25,52.25,0,0,1,30.74,9.91,3.67,3.67,0,0,1-4.29,5.95,45,45,0,0,0-26.45-8.53A45.57,45.57,0,0,0,17.57,86.88,3.67,3.67,0,0,1,14.26,89Z"/><path class="cls-1" d="M115.17,96.72a3.67,3.67,0,0,1-3.57-2.84A55.12,55.12,0,0,0,82.1,57a3.67,3.67,0,1,1,3.19-6.6,61.68,61.68,0,0,1,33.46,41.79,3.67,3.67,0,0,1-3.57,4.49Z"/><path class="cls-1" d="M115.16,73.18a3.62,3.62,0,0,1-3.05-1.66A63.65,63.65,0,0,0,58.38,42.18a3.63,3.63,0,0,1,0-7.25,70.87,70.87,0,0,1,59.82,32.67,3.63,3.63,0,0,1-3,5.59Z"/><ellipse class="cls-1" cx="46.61" cy="14.14" rx="3.87" ry="4.18"/><circle class="cls-1" cx="46.61" cy="13.45" r="3.87"/><path class="cls-1" d="M116.64,50.3a79.65,79.65,0,0,0-58.26-25,80.77,80.77,0,0,0-22.43,3.2.85.85,0,0,1-1.09-1A3.86,3.86,0,0,0,32,22.88a3.87,3.87,0,0,0-3.46,6.64,1,1,0,0,1-.3,1.65q-3.34,1.35-6.55,3a3.77,3.77,0,0,0-2,4.38,3.67,3.67,0,0,0,5.19,2.19,73.1,73.1,0,0,1,86.5,14.69,3.67,3.67,0,0,0,5.65-.4A4,4,0,0,0,116.64,50.3Z"/><path class="cls-1" d="M50.12,39.73A3.63,3.63,0,0,0,45.86,36a70.9,70.9,0,0,0-25.47,9.91.52.52,0,0,1-.8-.48,3.45,3.45,0,0,0-.58-2,4,4,0,0,0-3.56-2A3.86,3.86,0,0,0,14.3,49a.68.68,0,0,1,.14,1.17l-1.1.88a3.82,3.82,0,0,0-.71,5.21,3.63,3.63,0,0,0,5.14.53A63.75,63.75,0,0,1,47,43.19,3.71,3.71,0,0,0,50.12,39.73Z"/><path class="cls-1" d="M74.29,46.37a62,62,0,0,0-57.55,14A2.25,2.25,0,0,1,15,61h-.26a3.87,3.87,0,0,0-3.87,3.87,7,7,0,0,1-.79,2.53,3.83,3.83,0,0,0,.46,5.38,3.67,3.67,0,0,0,5.11-.61A54.73,54.73,0,0,1,72.46,53.47a3.67,3.67,0,1,0,1.83-7.1Z"/></svg>