<svg id="Organells&#x7EC6;&#x80DE;&#x5668;" xmlns="http://www.w3.org/2000/svg" viewbox="0 0 128 128" width="128" height="128"><defs><style>.cls-1{fill:#d24990;stroke:#652d88;stroke-miterlimit:10;}</style></defs><title>Organells&#x7EC6;&#x80DE;&#x5668;</title><path class="cls-1" d="M108.59,105.15a3.67,3.67,0,0,1-3.64-3.26A44.89,44.89,0,0,0,93.29,76.37a3.67,3.67,0,1,1,5.4-5,52.16,52.16,0,0,1,13.55,29.66,3.67,3.67,0,0,1-3.23,4.05Z"/><path class="cls-1" d="M15.83,89.45a3.67,3.67,0,0,1-3.3-5.26A52.94,52.94,0,0,1,60,54.4,52.25,52.25,0,0,1,90.7,64.31a3.67,3.67,0,1,1-4.29,5.95A45,45,0,0,0,60,61.74,45.57,45.57,0,0,0,19.14,87.38,3.67,3.67,0,0,1,15.83,89.45Z"/><path class="cls-1" d="M116.74,97.22a3.67,3.67,0,0,1-3.57-2.84A55.12,55.12,0,0,0,83.67,57.54a3.67,3.67,0,1,1,3.19-6.6,61.68,61.68,0,0,1,33.46,41.79,3.67,3.67,0,0,1-3.57,4.49Z"/><path class="cls-1" d="M14.4,74.05a3.67,3.67,0,0,1-2.86-6A62.06,62.06,0,0,1,75.91,46.88,3.67,3.67,0,0,1,74,54,54.73,54.73,0,0,0,17.26,72.67,3.66,3.66,0,0,1,14.4,74.05Z"/><path class="cls-1" d="M116.73,73.68A3.62,3.62,0,0,1,113.68,72,63.65,63.65,0,0,0,60,42.67a3.63,3.63,0,1,1,0-7.25,70.87,70.87,0,0,1,59.82,32.67,3.63,3.63,0,0,1-3,5.59Z"/><path class="cls-1" d="M17,58.08a3.63,3.63,0,0,1-2.31-6.42,71,71,0,0,1,32.7-15.14,3.63,3.63,0,1,1,1.27,7.14A63.74,63.74,0,0,0,19.35,57.25,3.61,3.61,0,0,1,17,58.08Z"/><path class="cls-1" d="M115.63,57.07A3.66,3.66,0,0,1,113,55.93a73.1,73.1,0,0,0-86.5-14.69,3.67,3.67,0,1,1-3.37-6.51A80.6,80.6,0,0,1,60,25.8a79.66,79.66,0,0,1,58.34,25.09,3.67,3.67,0,0,1-2.66,6.19Z"/></svg>