<svg id="Organells&#x7EC6;&#x80DE;&#x5668;" xmlns="http://www.w3.org/2000/svg" viewbox="0 0 128 128" width="128" height="128"><defs><style>.cls-1{fill:#d24990;stroke:#652d88;stroke-miterlimit:10;}</style></defs><title>Organells&#x7EC6;&#x80DE;&#x5668;</title><path class="cls-1" d="M62.16,15.78C38.73,16,19.21,23,20.47,28.57c2.88,12.64,18.18,73.14,79.87,42,6.48-3.27,20-20.21,18-29.09C117.53,38,89,15.57,62.16,15.78Z"/><path class="cls-1" d="M76.68,27.68c-10.18-2.16-19.84-5.31-21.12.23C52.66,40.41,59,88.72,102.31,87.58c7.26-.19,16-19.38,17.18-28.12C119.94,56,96.82,35,92,33.54,87.39,32.11,81.19,28.64,76.68,27.68Z"/><path class="cls-1" d="M12.63,44.37c3,11.85,6.73,16.83,12.88,19,3.32,1.15,14.9-1,19.28-5.74,3.55-3.85,10.56-24.74,5.05-30.83C46.78,23.39,11.3,39.18,12.63,44.37Z"/><path class="cls-1" d="M26.41,47.41c-9.13,5-18.18,9.52-15.87,14.72C15.81,74,22.29,77.79,33,79.92c5.77,1.15,19,.35,26.56-4.4,6.16-3.85,21.56-29.61,17.81-37.61-1.48-3.16-30.9.94-35.53,3C37.38,42.79,30.45,45.2,26.41,47.41Z"/><path class="cls-1" d="M81.33,41.44c-2.08,3.19-6,23.9-3.77,36.95C79.37,89,87.64,92.53,93.94,94.33c7,2,23-2.39,25.45-10.85,1-3.25-17.92-31.31-29.37-41C86.21,39.25,82.63,39.45,81.33,41.44Z"/><path class="cls-1" d="M96.87,60.21c-2.29-1-5.06.08-5.21,3.74-.36,8.55-5.26,22-7.79,29.47-2.38,7,2,10.6,4.68,12.9s8.24,4.43,12.05,1.94c3.08-2,10.48-11.36,11.06-16.14C112.28,87,106.77,78.21,103,72,101.51,69.68,99.15,61.17,96.87,60.21Z"/><path class="cls-1" d="M26.14,61.89c-8,6.6-16.55,10.59-14.25,15.79,5.27,11.85,13.25,27.09,23.85,29.53C47,109.81,65.5,106,73,101.19,82,95.42,87.4,80.2,91.45,56.64c.84-4.89-22.31-12.06-34.72-9.47A72.09,72.09,0,0,0,26.14,61.89Z"/><path class="cls-1" d="M108,94.85a3.67,3.67,0,0,1-3.64-3.26A44.89,44.89,0,0,0,92.69,66.07a3.67,3.67,0,1,1,5.4-5,52.16,52.16,0,0,1,13.55,29.66,3.67,3.67,0,0,1-3.23,4.05Z"/><path class="cls-1" d="M15,78.69a3.67,3.67,0,0,1-3.3-5.26A52.94,52.94,0,0,1,59.16,43.64a52.25,52.25,0,0,1,30.74,9.91,3.67,3.67,0,0,1-4.29,5.95A45,45,0,0,0,59.16,51,45.57,45.57,0,0,0,18.35,76.61,3.67,3.67,0,0,1,15,78.69Z"/><path class="cls-1" d="M116,86.45a3.67,3.67,0,0,1-3.57-2.84A55.12,55.12,0,0,0,82.88,46.77a3.67,3.67,0,1,1,3.19-6.6A61.68,61.68,0,0,1,119.53,82,3.67,3.67,0,0,1,116,86.45Z"/><path class="cls-1" d="M13.61,63.28a3.67,3.67,0,0,1-2.86-6A62.06,62.06,0,0,1,75.12,36.12a3.67,3.67,0,1,1-1.88,7.08A54.73,54.73,0,0,0,16.48,61.91,3.66,3.66,0,0,1,13.61,63.28Z"/><path class="cls-1" d="M115.94,62.91a3.62,3.62,0,0,1-3.05-1.66A63.65,63.65,0,0,0,59.16,31.91a3.63,3.63,0,0,1,0-7.25A70.87,70.87,0,0,1,119,57.32a3.63,3.63,0,0,1-3,5.59Z"/><path class="cls-1" d="M16.25,47.31a3.63,3.63,0,0,1-2.31-6.42,71,71,0,0,1,32.7-15.14,3.63,3.63,0,1,1,1.27,7.14A63.74,63.74,0,0,0,18.56,46.49,3.61,3.61,0,0,1,16.25,47.31Z"/><path class="cls-1" d="M114.84,46.31a3.66,3.66,0,0,1-2.66-1.14,73.1,73.1,0,0,0-86.5-14.69A3.67,3.67,0,0,1,22.32,24,80.6,80.6,0,0,1,59.16,15,79.66,79.66,0,0,1,117.5,40.12a3.67,3.67,0,0,1-2.66,6.19Z"/></svg>