<?xml version="1.0" encoding="utf-8"?>
<!-- Generator: Adobe Illustrator 21.0.0, SVG Export Plug-In . SVG Version: 6.00 Build 0)  -->
<svg version="1.1" xmlns="http://www.w3.org/2000/svg" xmlns:xlink="http://www.w3.org/1999/xlink" x="0px" y="0px" viewbox="0 0 300 300" style="enable-background:new 0 0 300 300;" xml:space="preserve" width="300" height="300">
<style type="text/css">
	.st0{display:none;stroke:none;}
	.st1{display:inline;stroke:none;}
	.st2{fill:#E9AEAD;stroke:none;}
	.st3{fill:#FBDDCA;stroke:none;}
	.st4{fill:#FACFA6;stroke:none;}
	.st5{fill:#E6A676;stroke:none;}
	.st6{fill:url(#SVGID_1_);stroke:none;}
	.st7{fill:#E99B99;stroke:none;}
	.st8{fill:#FADCC9;stroke:none;}
	.st9{fill:url(#SVGID_2_);stroke:none;}
	.st10{fill:none;stroke:none;}
	.st11{fill:url(#SVGID_3_);stroke:none;}
	.st12{fill:#F7A76E;stroke:none;}
	.st13{fill:#C97A78;stroke:none;}
	.st14{fill:#BE6B6C;stroke:none;}
	.st15{fill:#DB8584;stroke:none;}
	.st16{fill:#C26665;stroke:none;}
	.st17{fill:#B65D5D;stroke:none;}
	.st18{fill:#F2ABA9;stroke:none;}
	.st19{opacity:0.6;fill:#E99995;stroke:none;}
	.st20{fill:#FBBDB8;stroke:none;}
	.st21{fill:#CC7165;stroke:none;}
	.st22{fill:#EC9693;stroke:none;}
	.st23{fill:#FFD6D5;stroke:none;}
	.st24{fill:#FFCFCE;stroke:none;}
	.st25{opacity:0.7;fill:#FFCAC7;stroke:none;}
	.st26{fill:#FFCAC7;stroke:none;}
	.st27{opacity:0.64;fill:#FFCAC7;stroke:none;}
	.st28{opacity:0.8;fill:#FFCAC7;stroke:none;}
	.st29{fill:#FECCCC;stroke:none;}
	.st30{fill:#FF9691;stroke:none;}
	.st31{fill:none;stroke:#FECCCC;stroke-miterlimit:10;}
	.st32{fill:#F47D78;stroke:none;}
	.st33{fill:#EB6169;stroke:none;}
	.st34{fill:#E44B4D;stroke:none;}
	.st35{fill:#F47678;stroke:none;}
	.st36{fill:#F08180;stroke:none;}
	.st37{fill:#EB6C6C;stroke:none;}
	.st38{fill:#F06F75;stroke:none;}
	.st39{fill:#D7535B;stroke:none;}
	.st40{fill:#B9211C;stroke:none;}
	.st41{fill:#FF7E82;stroke:none;}
	.st42{fill:#FFAAA7;stroke:none;}
	.st43{fill:#E56360;stroke:none;}
	.st44{fill:#D00000;stroke:none;}
	.st45{fill:#A20000;stroke:none;}
	.st46{fill:#FFB9B2;stroke:none;}
	.st47{fill:#E2A267;stroke:none;}
	.st48{fill:url(#SVGID_4_);stroke:none;}
	.st49{fill:#F5D2B8;stroke:none;}
	.st50{fill:#F3C880;stroke:none;}
	.st51{fill:#F6BB6D;stroke:none;}
	.st52{fill:#EAAE6D;stroke:none;}
	.st53{fill:#F6D991;stroke:none;}
	.st54{fill:#F6C97B;stroke:none;}
	.st55{fill:#F6E09E;stroke:none;}
	.st56{fill:#EDB872;stroke:none;}
</style>
<g id="Anatomy_01_x5F_Female" class="st0">
	<g class="st1">
		<path class="st2" d="M156.1,277.9c-1.5,0-2.8-0.6-3.2-1.6c-0.7-1.4-0.4-2.3,0.1-3.9l0.2-0.4c0.6-1.7,0.9-4.5,0.3-6.3
			c-0.8-2.5-0.2-4.8,0.5-6.5c0.8-2.4,0.8-9-0.2-19.7c-0.7-7.8-0.3-13.3,0-17.7c0.2-3.3,0.4-5.9,0-8l0-0.1l0-0.1
			c-0.1-1.5-0.4-3-0.7-4.9c-0.8-4.6-2.1-11.5-2.1-24.6c0-10.3-0.5-16.9-0.9-20.7c-0.4,3.7-0.9,10.5-0.9,20.7c0,13-1.3,20-2.1,24.6
			c-0.4,1.9-0.6,3.4-0.7,4.9l0,0.1l0,0.1c-0.4,2.1-0.2,4.7,0,8c0.3,4.4,0.7,9.9,0,17.7c-1,10.7-1.1,17.3-0.2,19.7
			c0.6,1.7,1.2,4,0.5,6.5c-0.6,1.8-0.3,4.6,0.3,6.3l0.2,0.4c0.6,1.5,0.9,2.5,0.1,4c-0.4,0.9-1.6,1.5-3.1,1.5c-1,0-2-0.3-2.8-0.9
			c-0.4,0-0.9,0-1.4,0.1c-0.8,0-1.6,0.1-2.4,0.1c-0.8,0-2.6,0-3.4-0.9c0,0,0,0,0,0c-1.4,0-2.3-0.6-2.6-1.5c-0.1-0.5-0.2-1.8,2-2.9
			c0.9-1.3,2.1-3.8,2.3-4.7c0.1-0.5,0.2-0.9,0.2-1.4c0-0.5,0.1-1.1,0.2-1.7c0.1-0.2,0.1-0.5,0.2-0.7c0.2-0.9,0.4-1.6,0-3.2
			c-0.6-2.4-5.6-24.3-6.4-29.1c-0.8-4.9-0.5-11,0.9-17.3c1.2-5.5,0.5-11.6-0.2-15.7c-0.2-1.1-0.8-4.2-1.6-8
			c-1.5-7.1-3.5-16.8-4.2-21.8c-1.1-7.8-2.3-18.9-0.3-25.3c0.5-1.6,1.6-4.4,2.8-7.6c2.1-5.5,5.7-14.7,5.4-16.2l0-0.1l0-0.1
			c-0.2-4.8-0.7-11.1-1.5-15c-0.3,1.8-0.8,3.4-1.1,4.8c-0.3,1-0.5,2-0.7,2.9l0,0.3c-0.1,2.4-0.2,5-3.7,14.4
			c-0.5,1.3-1.5,3.9-2.9,7.3c-2.5,6.2-5.8,14.7-7.4,19.1c0.5,2.3,0.3,7.2-0.8,10.7c0,0.6,0,3.3-0.1,5.9c-0.2,4.1-0.7,5.5-2,5.5
			c-0.2,0-0.3,0-0.5-0.1c-1-0.3-1.2-1.4-1.3-2.1c-0.5,1.6-0.9,2.8-1.3,3.4c-0.4,0.5-1,0.8-1.6,0.8c-0.5,0-0.9-0.2-1.3-0.5
			c-0.3,0.2-0.7,0.3-1.1,0.3c-0.2,0-0.4,0-0.5-0.1c-0.9-0.3-1.1-1.2-1.1-2.5c-0.4,1-0.9,1.6-1.7,1.6h-0.1l-0.2,0l-0.2,0l-0.2-0.1
			c-0.9-0.6-0.8-2.1-0.7-2.8c0.2-0.9,1.2-6.6,1.4-8c0-0.1,0-0.4,0-0.8c0-0.7,0.1-1.7,0.2-2.8c-0.1,0.1-0.1,0.1-0.2,0.2
			c-0.4,0.4-0.9,0.9-1.4,1.2c-0.8,0.6-2.1,1-3.2,1c-1.2,0-1.8-0.5-2-0.9c-1-1.6,0.1-2.3,1.6-3.3l0.1-0.1c0.7-0.5,1.2-1.2,1.7-2.1
			c0.5-0.8,1.1-1.8,2-2.7l0.5-0.5c1.5-1.7,2.5-2.7,5.2-4c1.9-5.7,3.3-12.7,4.5-18.9c1.7-8.6,3.1-16,5.6-18.8c0-3.5,0.6-7.3,1.2-11.3
			c0.4-2.9,0.9-5.9,1.2-9c-0.3-9.7,0.8-14.4,1.6-17.1c1.2-4.1,3.6-6.9,11.6-8.4c4.5-1.6,7.6-3.8,9.5-6.7c1.5-2.2,1-5.5,0.9-6.4
			c-0.6-0.8-2.8-4-3.5-8.3c-1.6-0.7-2.8-4-3-4.4c-0.6-1.5-1.3-4.2,0.2-5.5c0.4-0.3,0.8-0.4,1.2-0.4c0.1,0,0.2,0,0.2,0
			c0-1.2,0.1-2.8,0.1-3.9c0-2.5,2-9.2,11.3-10c0.3-0.1,0.6-0.1,0.8-0.1h0.2c0.2,0,0.5,0,0.8,0.1c9.2,0.8,11.3,7.5,11.3,10
			c0,1.1,0,2.7,0.1,3.9c0.1,0,0.2,0,0.2,0c0.4,0,0.8,0.1,1.2,0.4c1.6,1.3,0.8,4.1,0.3,5.6c-0.2,0.4-1.4,3.7-3,4.4
			c-0.7,4.4-2.9,7.5-3.5,8.3c-0.1,0.8-0.5,3.7,1,6.5c0.8,1.5,3,4.2,9.4,6.6c8,1.5,10.4,4.3,11.6,8.4c0.8,2.7,1.8,7.4,1.6,17.1
			c0.3,3.1,0.7,6.1,1.2,9c0.6,4,1.2,7.8,1.2,11.3c2.5,2.8,3.9,10.2,5.6,18.8c1.2,6.2,2.6,13.2,4.4,18.8c2.2,0.8,3.6,2.3,5.3,4.1
			l0.4,0.4c0.9,1,1.5,1.9,2,2.7c0.6,0.9,1,1.6,1.7,2.1l0.1,0.1c1.5,1,2.6,1.7,1.6,3.3c-0.3,0.4-0.8,0.9-2,0.9c-1.1,0-2.4-0.4-3.2-1
			c-0.5-0.4-1-0.9-1.6-1.4c0,1,0.1,2.1,0.2,2.8c0,0.4,0,0.7,0.1,0.8c0.1,1.4,1.2,7.1,1.4,7.9c0.2,0.7,0.2,2.2-0.7,2.8l-0.2,0.1
			l-0.3,0.1l-0.2,0c-0.6,0-1.2-0.5-1.7-1.3c0,1.2-0.3,1.9-1.1,2.2c-0.2,0.1-0.3,0.1-0.5,0.1c-0.4,0-0.7-0.1-1.1-0.3
			c-0.4,0.3-0.8,0.5-1.3,0.5c-0.6,0-1.2-0.3-1.6-0.8c-0.4-0.5-0.8-1.8-1.3-3.4c-0.1,0.8-0.3,1.8-1.3,2.2c-0.1,0.1-0.3,0.1-0.4,0.1
			l0,0c-1.3,0-1.8-1.4-2-5.5c-0.1-2.6-0.1-5.2-0.1-5.9c-1-3.6-1.3-8.4-0.8-10.7c-1.6-4.5-5-13-7.4-19.3c-1.3-3.3-2.4-6-2.8-7.2
			c-3.5-9.4-3.6-12-3.7-14.4l0-0.3c-0.2-0.9-0.5-1.9-0.7-2.9c-0.4-1.4-0.8-3-1.1-4.8c-0.7,4-1.3,10.4-1.5,15
			c-0.1,2.6,3,10.4,5.3,16.2c1.3,3.3,2.4,6.1,2.9,7.8c1.5,4.9,1.4,13.5-0.3,25.3c-0.7,4.9-2.7,14.7-4.2,21.8c-0.8,3.8-1.4,6.9-1.6,8
			c-0.7,4.1-1.4,10.2-0.2,15.7c1.4,6.3,1.7,12.5,0.9,17.3c-0.8,4.8-5.8,26.7-6.4,29.1c-0.4,1.7-0.2,2.4,0,3.2
			c0.1,0.2,0.1,0.4,0.2,0.7c0.1,0.7,0.2,1.2,0.2,1.8c0,0.5,0.1,1,0.2,1.4c0.2,0.8,1.3,3.4,2.3,4.7c2.1,1.2,2.1,2.4,2,2.9
			c-0.2,1-1.2,1.5-2.6,1.5c0,0,0,0,0,0c-0.8,0.9-2.6,0.9-3.4,0.9c-0.8,0-1.6,0-2.4-0.1c-0.5,0-1-0.1-1.4-0.1
			C158,277.6,157.1,277.9,156.1,277.9z"/>
		<path class="st3" d="M169.7,102.9c0.6,3.3,1.5,5.9,2,8.5c0.1,2.4,0,4.7,3.6,14.5c1.4,3.7,8.1,20,10.4,26.7
			c-0.5,1.9-0.4,6.9,0.7,10.6c0,0,0,3,0.1,6c0.2,3.5,0.6,4.7,1.1,4.6c0.5-0.2,0.7-0.8,0.7-2c0-1.7,0-3.6,0-5c0-0.4,0.2-0.4,0.2-0.4
			c0.2,0,0.3,0.4,0.3,0.4c0.6,2.3,1.9,7.6,2.6,8.5c0.8,1.1,2-0.1,1.7-0.6c0.2,0.3,1.2,1,1.7,0.8c1-0.4,0-5-0.3-9.3
			c0-0.3,0.2-0.3,0.2-0.3c0.2,0,0.3,0.4,0.3,0.4c0.6,3.6,1.9,8.4,3,8.1c0.4-0.3,0.4-1.2,0.3-1.7c-0.2-0.9-1.2-6.7-1.4-8.1
			c0-0.6-0.2-3.1-0.3-5.1c0,0-0.1-0.5,0.1-0.5c0,0,0.1-0.1,0.5,0.2c0.8,0.7,1.8,1.7,2.6,2.4c1.1,0.8,3.3,1.1,3.8,0.4
			c0.5-0.7,0.2-0.9-1.5-2c-1.7-1.1-2-3-3.9-5c-1.9-2-3.3-3.7-5.7-4.4c-4.6-13.4-6-34-10.2-38c0-6-1.8-13.2-2.4-20.6
			c0.3-9.7-0.8-14.3-1.5-16.8c-1-3.4-2.7-6.2-10.9-7.7c-6.2-2.2-9-5-10.1-7.1c-1.9-3.6-1-7.4-1-7.4s3-3.6,3.6-8.9
			c0.9,1.3,5-6.4,3-8.1c-0.8-0.6-1.8,0.4-1.8,0.4s-0.1-3.5-0.1-5.5c0-2-1.5-8.3-10.4-9c0,0-0.6-0.1-0.8-0.1c-0.3,0-0.8,0-0.8,0.1
			c-8.8,0.7-10.4,7.1-10.4,9c0,2.1-0.1,5.5-0.1,5.5s-0.9-1-1.8-0.4c-2,1.8,2,9.4,3,8.1c0.6,5.3,3.6,8.9,3.6,8.9s0.9,4.5-1,7.4
			c-1.3,1.9-3.9,4.8-10.1,7.1c-8.2,1.5-9.9,4.4-10.9,7.7c-0.7,2.6-1.8,7.1-1.5,16.8c-0.7,7.5-2.4,14.6-2.4,20.6
			c-4.3,4-5.6,24.6-10.2,38c-3.1,1.4-3.8,2.4-5.7,4.4c-1.9,2-2.2,3.9-3.9,5c-1.7,1.1-1.9,1.3-1.5,2c0.5,0.7,2.7,0.4,3.8-0.4
			c0.9-0.7,1.7-1.7,2.5-2.3c0,0,0.7-0.5,0.7,0.4c-0.1,2-0.2,4.4-0.3,5c-0.2,1.4-1.2,7.2-1.4,8.1c-0.1,0.5-0.1,1.5,0.3,1.7
			c1.2,0.2,1.7-5.2,3.1-8.5c0,0,0.1-0.2,0.3-0.2c0,0,0.2,0,0.2,0.2c0,4.6-1.4,9.1-0.3,9.4c0.5,0.2,1.5-0.5,1.7-0.8
			c-0.3,0.5,0.9,1.7,1.7,0.6c0.8-1,2.3-7.2,2.7-8.8c0.1-0.4,0.2-0.4,0.2-0.4c0.3-0.2,0.3,0.3,0.3,0.3c0,1.1-0.1,3.3-0.1,5.3
			c0,1.1,0.2,1.8,0.7,2c0.5,0.2,1-1,1.1-4.6c0.1-3,0.1-6,0.1-6c1.1-3.7,1.3-8.7,0.7-10.6c2.3-6.7,9-23.1,10.4-26.7
			c3.6-9.7,3.5-12.1,3.6-14.5c0.6-2.6,1.5-5.3,2.1-8.8c0,0,0.2-1.8,0.9-2c0,0,0.4,0.1,0.7,2.2c0.8,3.7,1.4,10.4,1.7,15.9
			c0.6,2.6-6.7,19.4-8.2,24.3c-2,6.2-0.7,17.3,0.4,24.9c1.1,7.6,5.3,26.5,5.8,29.8c0.5,3.3,1.5,10.1,0.2,16.1
			c-1.3,6-1.7,12.2-0.9,16.9c0.8,4.8,5.8,26.7,6.4,29c0.6,2.4,0.1,3.2-0.2,4.4c-0.3,1.2-0.2,2.2-0.4,3.2c-0.3,1.1-1.6,3.9-2.6,5.2
			c-2.7,1.4-1.9,3,0.5,2.7c0.3,1.5,4.7,0.8,7,0.8c1.6,1.4,4.2,0.9,4.7-0.1c0.6-1.2,0.3-1.8-0.3-3.6c-0.6-1.8-1-4.8-0.3-6.9
			c0.6-2.1,0.2-4.1-0.4-5.9c-0.6-1.8-1.1-6.4,0.1-20.1c1.3-13.7-1-20.7,0-25.8c0.4-5.2,2.8-11.1,2.8-29.4c0-12.7,0.8-20.5,1.3-24.1
			c0,0,0.1-0.7,0.6-0.8c0,0,0.5,0.1,0.6,0.9c0.6,3.6,1.3,11.3,1.3,23.9c0,18.2,2.5,24.2,2.8,29.4c1,5.2-1.3,12.1,0,25.8
			c1.3,13.8,0.8,18.3,0.1,20.1c-0.6,1.8-1.1,3.8-0.4,5.9c0.6,2.1,0.3,5.1-0.3,6.9c-0.6,1.8-1,2.4-0.3,3.6c0.4,1,3.1,1.5,4.7,0.1
			c2.2,0,6.7,0.7,7-0.8c2.4,0.3,3.2-1.3,0.5-2.7c-1-1.3-2.3-4.1-2.6-5.2c-0.3-1.1-0.2-2-0.4-3.2c-0.3-1.2-0.8-2-0.1-4.4
			c0.6-2.4,5.6-24.3,6.4-29c0.8-4.8,0.5-10.9-0.9-16.9c-1.3-6-0.3-12.8,0.2-16.1c0.5-3.3,4.7-22.2,5.8-29.8
			c1.1-7.6,2.2-18.7,0.4-24.9c-1.5-4.9-8.4-20.1-8.2-24.3c0.3-5.7,0.9-12.5,1.7-16.1c0,0,0.2-1.8,0.9-1.9
			C168.9,100.8,169.3,101.1,169.7,102.9z"/>
	</g>
</g>
<g id="Anatomy_02_x5F_Male" class="st0">
	<g class="st1">
		<path class="st4" d="M175.5,100.9c0.6,4.3,1.7,9.8,3.6,13.6c0.1,2.4-0.5,9.5,2.3,16c1.6,3.7,9.3,17.8,10.1,19.2
			c0,1.1-0.1,3.9,0.7,7.9c0.6,2.9,1.7,3.7,1.7,3.7s0.4,1.9,1.4,5.3c1,3.5,2.5,5.9,3,5.7c0.5-0.2,0.3-1,0-2c-0.3-0.8-1-4.6-1.2-6.2
			c0-0.4,0-0.4,0-0.4c0.1,0,0.2,0.4,0.2,0.4c0.7,2.1,3.1,8,3.8,9c0.8,1.1,2-0.1,1.7-0.7c0.2,0.3,1.2,1,1.7,0.8
			c1.1-0.4-1.5-6.1-1.8-10.7c0,0,0-0.3,0.1-0.3c0,0,0.1-0.1,0.2,0.4c0.6,3.8,2.1,9.7,3.3,9.5c0.4-0.3,0.4-1.2,0.3-1.8
			c-0.2-0.9-1-7.8-1.1-9.3c0-0.9-0.4-4.2-0.6-6.4c-0.1-0.8,0.1-1,0.1-1c0.4-0.2,0.8,0.1,0.8,0.1c0.7,0.5,1.5,1.2,2.3,1.8
			c1.1,0.9,3.4,1.2,3.9,0.4c0.5-0.8,0.2-0.9-1.5-2.1c-1.7-1.1-2.5-2.5-4.4-4.5c-1.9-2.1-3.8-3-6.6-3.8c-3.7-5.6-4.7-14.8-5.2-20.8
			c-0.5-6-2.7-10.2-5.2-12.9c0-6.2,0.3-11.1-1.2-18.8c3-13-1.1-20.8-2.4-23.2c-1.6-2.9-4.1-4.6-12.5-6.1c-3-2.1-9.8-4.5-10.9-5
			c-1.1-0.5-2.8-0.8-2.8-3.1c0-2.3,0-6.9,0-6.9s2.3-1.1,2.4-6.5c1.4-1.3,5.8-7,2.9-9.4c-0.9-0.6-2.3,1-2.3,1s0.9-2.9,0.7-5.5
			c-1.3-10.8-12.6-10.4-12.6-10.4s-11.7,0-12.6,10.4c-0.1,2.7,0.7,5.5,0.7,5.5s-1.4-1.6-2.3-1c-3,2.4,1.5,8.1,2.9,9.4
			c0.2,5.4,2.4,6.5,2.4,6.5s0,4.6,0,6.9c0,2.3-1.6,2.6-2.7,3.1c-1.1,0.5-7.4,3-10.4,5c-8.4,1.5-10.9,3.3-12.4,6.1
			c-1.3,2.4-5.4,10.2-2.4,23.2c-1.5,7.7-1.2,12.6-1.2,18.8c-2.5,2.8-4.7,7-5.2,12.9c-0.5,6-1.5,15.2-5.2,20.8
			c-2.8,0.7-4.7,1.7-6.6,3.8c-1.9,2.1-2.7,3.4-4.4,4.5c-1.7,1.1-2,1.3-1.5,2.1c0.5,0.8,2.8,0.5,3.9-0.4c0.8-0.6,1.4-1.2,2.1-1.7
			c0,0,1.2-0.6,1,1.7c-0.2,2.1-0.5,4.6-0.5,5.5c-0.2,1.5-0.9,8.4-1.1,9.3c-0.1,0.6-0.1,1.5,0.3,1.8c1.2,0.2,2.6-5.4,3.2-9.2
			c0,0,0.2-0.3,0.2,0.2c-0.4,4.5-2.6,9.8-1.6,10.2c0.5,0.2,1.5-0.5,1.7-0.8c-0.3,0.6,0.9,1.8,1.7,0.7c0.7-0.9,2.9-6.2,3.7-8.6
			c0,0,0.2-0.5,0.3-0.5c0,0,0.1-0.1,0,0.6c-0.3,1.8-0.9,5-1.1,5.8c-0.3,1-0.5,1.8,0,2c0.5,0.2,1.9-2.2,3-5.7c1-3.5,1.4-5.3,1.4-5.3
			s1.2-0.8,1.7-3.7c0.8-4,0.7-6.8,0.7-7.9c0.8-1.4,8.5-15.5,10.1-19.2c2.7-6.4,2.1-13.6,2.3-16c2-3.9,2.9-9.3,3.5-13.6
			c0,0,0.1-0.6,0.2-0.9c0,0,0.2-0.6,0.5,1.1c0.6,3.3,1.2,9.1,1.2,10.7c0,2.3,0.8,6.7-0.3,10.6c-1.1,3.9-0.3,6.4-0.3,8.5
			c0,2.1-1.1,8-1.9,13.1c-0.8,5.1-1.6,17.7-0.5,25.4c1.1,7.7,5.3,27.1,5.8,30.4c0.6,3.4,1,10.3-0.4,16.5c-1.4,6.2-1.9,11.8-1.1,16.7
			c0.8,4.9,7.3,27.9,7.9,30.3c0.6,2.4-0.4,3.7-0.6,5c-0.3,1.2,0.7,1.7,0.4,2.7c-0.3,1.1-1.6,4-2.7,5.3c-2.7,1.4-2,3,0.5,2.7
			c0.3,1.5,4.9,0.8,7.2,0.8c1.6,1.4,4.3,0.9,4.8-0.1c0.7-1.2,0.3-1.8-0.3-3.7c-0.7-1.8-0.7-4.9,0-7c0.7-2.1,0.7-4,0-5.8
			c-0.7-1.8-1.6-6.7-0.3-20.8c1.3-14.1-1.4-21.2-0.3-26.5c1.6-2.8,2.9-11.4,2.9-30c0-13,1-20.9,1.5-24.6c0,0,0.1-0.5,0.4-0.5
			c0,0,0.3-0.1,0.4,0.5c0.6,3.6,1.5,11.6,1.5,24.6c0,18.6,1.3,27.3,2.9,30c1.1,5.3-1.6,12.4-0.3,26.5c1.3,14.1,0.3,18.9-0.3,20.8
			c-0.7,1.8-0.7,3.7,0,5.8c0.7,2.1,0.7,5.2,0,7c-0.7,1.8-1,2.4-0.3,3.7c0.4,1.1,3.2,1.6,4.8,0.1c2.3,0,6.8,0.7,7.2-0.8
			c2.5,0.3,3.3-1.3,0.5-2.7c-1.1-1.3-2.4-4.2-2.7-5.3c-0.3-1.1,0.7-1.5,0.4-2.7c-0.3-1.2-1.2-2.6-0.6-5c0.6-2.4,7.1-25.4,7.9-30.3
			c0.8-4.9,0.3-10.6-1.1-16.7c-1.4-6.2-0.9-13.1-0.4-16.5c0.6-3.3,4.7-22.7,5.8-30.4c1.1-7.7,0.3-20.3-0.5-25.4
			c-0.8-5.2-1.9-11.1-1.9-13.1c0-2.1,0.8-4.6-0.3-8.5c-1.1-3.9-0.3-8.2-0.3-10.6c0-1.6,0.8-7.5,1.4-10.8c0,0,0.1-0.5,0.2-0.6
			C175.2,100.4,175.4,100.4,175.5,100.9z"/>
		<path class="st5" d="M157,281.8c-1.5,0-2.8-0.7-3.2-1.6c-0.8-1.4-0.4-2.4,0.1-3.9l0.2-0.5c0.6-1.6,0.6-4.5,0-6.4
			c-0.7-2.3-0.7-4.4,0-6.4c0.6-1.8,1.5-6.8,0.3-20.3c-0.7-8-0.2-13.7,0.2-18.3c0.3-3.2,0.5-5.8,0.1-7.9c-2-3.6-3-13.8-3-30.4
			c0-8.9-0.4-15.5-1-20.2c-0.5,4.4-1,11-1,20.2c0,16.6-1,26.8-3,30.4c-0.4,2.1-0.2,4.7,0.1,7.9c0.4,4.6,1,10.3,0.2,18.3
			c-1.3,13.5-0.4,18.5,0.3,20.3c0.7,2,0.7,4.1,0,6.4c-0.6,1.9-0.6,4.8,0,6.4l0.2,0.4c0.6,1.6,0.9,2.5,0.1,4
			c-0.4,0.9-1.7,1.5-3.2,1.5c-1.1,0-2-0.3-2.8-0.9c-0.4,0-0.9,0-1.4,0.1c-0.8,0-1.6,0.1-2.4,0.1c-0.9,0-2.7,0-3.5-0.9c0,0,0,0,0,0
			c-1.4,0-2.4-0.6-2.6-1.6c-0.1-0.5-0.2-1.8,2-3c1-1.3,2.1-3.9,2.4-4.8c0-0.2,0-0.3-0.2-0.6c-0.2-0.4-0.5-1.1-0.3-2.1
			c0.1-0.4,0.2-0.8,0.3-1.1c0.3-0.9,0.7-1.9,0.3-3.4c-0.1-0.5-0.5-1.9-1-3.8c-2-7.3-6.2-22.6-6.9-26.5c-0.8-4.7-0.4-10.3,1.1-17.1
			c1.4-6.1,0.9-13,0.4-16.1c-0.2-1.1-0.8-4.2-1.6-8.1c-1.5-7.3-3.5-17.3-4.2-22.4c-1.1-8-0.3-20.8,0.5-25.7c0.2-1.2,0.4-2.5,0.6-3.7
			c0.6-3.8,1.3-7.8,1.3-9.3c0-0.5-0.1-1.1-0.1-1.7c-0.2-1.8-0.4-4.1,0.4-7.1c0.8-2.7,0.5-5.6,0.4-8c-0.1-0.9-0.1-1.6-0.1-2.3
			c0-1-0.3-3.8-0.6-6.6c-0.6,3.2-1.5,6.7-2.9,9.6c0,0.4,0,0.8,0,1.4c0,3.2,0,9.2-2.3,14.8c-1.5,3.6-8.8,16.8-10,19.1
			c0,1.5,0,4.2-0.7,7.9c-0.4,2.3-1.3,3.5-1.8,4c-0.1,0.7-0.5,2.4-1.3,5.1c-0.4,1.5-2.1,6.4-3.9,6.4h-0.2l-0.2-0.1
			c-0.6-0.2-0.9-0.7-0.9-1.2c-0.3,0.7-0.6,1.2-0.8,1.5c-0.4,0.5-1,0.9-1.6,0.9c-0.5,0-1-0.2-1.3-0.5c-0.4,0.2-0.7,0.3-1.1,0.3
			c-0.2,0-0.4,0-0.5-0.1c-0.6-0.2-0.9-0.6-0.9-1.2c-0.1,0.1-0.3,0.1-0.5,0.1h-0.1l-0.2,0l-0.2,0l-0.2-0.1c-0.9-0.6-0.8-2.1-0.7-2.8
			c0.2-0.7,0.8-6.8,1.1-9.2c0-0.3,0.1-1.1,0.2-2c0.1-1,0.2-2.3,0.3-3.5c0-0.1,0-0.3,0-0.4c-0.2,0.1-0.4,0.3-0.6,0.5
			c-0.3,0.2-0.6,0.5-0.9,0.8c-0.8,0.6-2.1,1-3.2,1c-1.2,0-1.8-0.5-2.1-0.9c-1-1.6,0.1-2.3,1.6-3.3l0.1-0.1c1-0.7,1.7-1.5,2.6-2.5
			c0.5-0.6,1-1.2,1.6-1.9c1.9-2,3.8-3.1,6.7-3.9c3.6-5.8,4.5-15.7,4.8-20c0.4-5.2,2.2-9.8,5.2-13.2c0-0.8,0-1.5,0-2.2
			c0-4.9-0.1-9.6,1.2-16.2c-2-8.9-1.1-16.9,2.6-23.7c1.9-3.5,5.2-5.2,12.9-6.6c2.5-1.7,6.8-3.5,9.1-4.4c0.6-0.2,1-0.4,1.3-0.5
			c0.2-0.1,0.4-0.2,0.5-0.2c1.1-0.5,1.6-0.7,1.6-2v-6.4c-0.8-0.7-2.2-2.5-2.4-6.6c-1.2-1.2-4-4.7-3.9-7.8c0-1.2,0.5-2.2,1.4-2.9
			c0.3-0.3,0.7-0.4,1.1-0.4c0.1,0,0.2,0,0.3,0c-0.2-1-0.3-2.3-0.2-3.5c1-11.2,13.4-11.4,13.6-11.4l0.1,0c1.2,0,12.1,0.3,13.4,11.3
			c0.1,1.2,0,2.5-0.2,3.5c0.1,0,0.2,0,0.3,0c0.4,0,0.8,0.1,1.1,0.4c0.9,0.7,1.4,1.7,1.4,2.9c0.1,3-2.7,6.6-3.9,7.8
			c-0.2,4.1-1.6,5.9-2.4,6.6v6.4c0,1.2,0.6,1.5,1.6,2c0.2,0.1,0.4,0.2,0.5,0.2c0.2,0.1,0.8,0.3,1.5,0.6c2.4,1,6.9,2.7,9.4,4.4
			c7.8,1.4,11.1,3.1,12.9,6.6c3.7,6.8,4.6,14.7,2.6,23.7c1.3,6.6,1.2,11.2,1.2,16.2c0,0.7,0,1.5,0,2.2c2.9,3.5,4.7,8,5.2,13.2
			c0.4,4.3,1.2,14.2,4.8,20c2.9,0.8,4.8,1.9,6.7,3.9c0.7,0.7,1.2,1.3,1.6,1.9c0.9,1.1,1.6,1.8,2.6,2.5l0.1,0.1
			c1.6,1,2.7,1.8,1.7,3.4c-0.3,0.4-0.8,0.9-2.1,0.9c-1.1,0-2.5-0.4-3.2-1c-0.3-0.2-0.6-0.5-1-0.8c-0.2-0.1-0.3-0.3-0.5-0.4
			c0.1,1,0.2,2.1,0.3,3.1c0.1,1.2,0.2,2.2,0.2,2.7c0.5,5,1,8.6,1.1,9.1c0.2,0.7,0.2,2.2-0.7,2.8l-0.2,0.1l-0.3,0.1l-0.2,0
			c-0.2,0-0.3,0-0.5-0.1c-0.1,0.6-0.3,1-0.9,1.2c-0.2,0.1-0.3,0.1-0.5,0.1c-0.4,0-0.7-0.1-1.1-0.3c-0.4,0.3-0.9,0.5-1.3,0.5
			c-0.6,0-1.2-0.3-1.6-0.9c-0.2-0.3-0.5-0.8-0.8-1.5c-0.1,0.5-0.3,1-1,1.2l-0.2,0.1l-0.2,0c-1.8,0-3.4-4.9-3.9-6.4
			c-0.8-2.7-1.2-4.4-1.3-5.1c-0.5-0.5-1.3-1.7-1.8-4c-0.5-2.7-0.8-5.4-0.7-7.9c-1.3-2.3-8.5-15.5-10-19.1
			c-2.3-5.5-2.3-11.5-2.3-14.8c0-0.5,0-1,0-1.3c-1.1-2.3-2.1-5.3-2.8-9.1c-0.4,2.6-0.7,5.2-0.7,6.1c0,0.6-0.1,1.4-0.1,2.3
			c-0.2,2.4-0.4,5.3,0.4,8c0.9,3,0.6,5.2,0.4,7.1c-0.1,0.6-0.1,1.2-0.1,1.7c0,1.5,0.7,5.4,1.3,9.2c0.2,1.2,0.4,2.5,0.6,3.7
			c0.8,5,1.6,17.8,0.5,25.7c-0.7,5.1-2.8,15.3-4.3,22.7c-0.8,3.7-1.4,6.7-1.5,7.8c-0.5,3.1-1,10,0.4,16.1c1.5,6.9,1.9,12.5,1.1,17.1
			c-0.6,3.9-4.6,18.4-6.8,26.2c-0.6,2.1-1,3.6-1.1,4.2c-0.4,1.5,0,2.5,0.3,3.4c0.1,0.4,0.3,0.7,0.3,1.1c0.2,1-0.1,1.6-0.3,2.1
			c-0.2,0.4-0.2,0.5-0.1,0.6c0.2,0.9,1.4,3.5,2.3,4.8c2.2,1.2,2.2,2.5,2,3c-0.2,1-1.2,1.6-2.6,1.6c0,0,0,0,0,0
			c-0.9,0.9-2.7,0.9-3.5,0.9c-0.8,0-1.6,0-2.4-0.1c-0.5,0-1-0.1-1.4-0.1C159,281.5,158,281.8,157,281.8z"/>
		<linearGradient id="SVGID_1_" gradientunits="userSpaceOnUse" x1="150.7578" y1="17.7759" x2="150.7578" y2="280.7684">
			<stop offset="0" style="stop-color:#FFD4B8"/>
			<stop offset="1" style="stop-color:#FAB87D"/>
		</linearGradient>
		<path class="st6" d="M175.5,100.9c0.6,4.3,1.7,9.8,3.6,13.6c0.1,2.4-0.5,9.5,2.3,16c1.6,3.7,9.3,17.8,10.1,19.2
			c0,1.1-0.1,3.9,0.7,7.9c0.6,2.9,1.7,3.7,1.7,3.7s0.4,1.9,1.4,5.3c1,3.5,2.5,5.9,3,5.7c0.5-0.2,0.3-1,0-2c-0.3-0.8-1-4.6-1.2-6.2
			c0-0.4,0-0.4,0-0.4c0.1,0,0.2,0.4,0.2,0.4c0.7,2.1,3.1,8,3.8,9c0.8,1.1,2-0.1,1.7-0.7c0.2,0.3,1.2,1,1.7,0.8
			c1.1-0.4-1.5-6.1-1.8-10.7c0,0,0-0.3,0.1-0.3c0,0,0.1-0.1,0.2,0.4c0.6,3.8,2.1,9.7,3.3,9.5c0.4-0.3,0.4-1.2,0.3-1.8
			c-0.2-0.9-1-7.8-1.1-9.3c0-0.9-0.4-4.2-0.6-6.4c-0.1-0.8,0.1-1,0.1-1c0.4-0.2,0.8,0.1,0.8,0.1c0.7,0.5,1.5,1.2,2.3,1.8
			c1.1,0.9,3.4,1.2,3.9,0.4c0.5-0.8,0.2-0.9-1.5-2.1c-1.7-1.1-2.5-2.5-4.4-4.5c-1.9-2.1-3.8-3-6.6-3.8c-3.7-5.6-4.7-14.8-5.2-20.8
			c-0.5-6-2.7-10.2-5.2-12.9c0-6.2,0.3-11.1-1.2-18.8c3-13-1.1-20.8-2.4-23.2c-1.6-2.9-4.1-4.6-12.5-6.1c-3-2.1-9.8-4.5-10.9-5
			c-1.1-0.5-2.8-0.8-2.8-3.1c0-2.3,0-6.9,0-6.9s2.3-1.1,2.4-6.5c1.4-1.3,5.8-7,2.9-9.4c-0.9-0.6-2.3,1-2.3,1s0.9-2.9,0.7-5.5
			c-1.3-10.8-12.6-10.4-12.6-10.4s-11.7,0-12.6,10.4c-0.1,2.7,0.7,5.5,0.7,5.5s-1.4-1.6-2.3-1c-3,2.4,1.5,8.1,2.9,9.4
			c0.2,5.4,2.4,6.5,2.4,6.5s0,4.6,0,6.9c0,2.3-1.6,2.6-2.7,3.1c-1.1,0.5-7.4,3-10.4,5c-8.4,1.5-10.9,3.3-12.4,6.1
			c-1.3,2.4-5.4,10.2-2.4,23.2c-1.5,7.7-1.2,12.6-1.2,18.8c-2.5,2.8-4.7,7-5.2,12.9c-0.5,6-1.5,15.2-5.2,20.8
			c-2.8,0.7-4.7,1.7-6.6,3.8c-1.9,2.1-2.7,3.4-4.4,4.5c-1.7,1.1-2,1.3-1.5,2.1c0.5,0.8,2.8,0.5,3.9-0.4c0.8-0.6,1.4-1.2,2.1-1.7
			c0,0,1.2-0.6,1,1.7c-0.2,2.1-0.5,4.6-0.5,5.5c-0.2,1.5-0.9,8.4-1.1,9.3c-0.1,0.6-0.1,1.5,0.3,1.8c1.2,0.2,2.6-5.4,3.2-9.2
			c0,0,0.2-0.3,0.2,0.2c-0.4,4.5-2.6,9.8-1.6,10.2c0.5,0.2,1.5-0.5,1.7-0.8c-0.3,0.6,0.9,1.8,1.7,0.7c0.7-0.9,2.9-6.2,3.7-8.6
			c0,0,0.2-0.5,0.3-0.5c0,0,0.1-0.1,0,0.6c-0.3,1.8-0.9,5-1.1,5.8c-0.3,1-0.5,1.8,0,2c0.5,0.2,1.9-2.2,3-5.7c1-3.5,1.4-5.3,1.4-5.3
			s1.2-0.8,1.7-3.7c0.8-4,0.7-6.8,0.7-7.9c0.8-1.4,8.5-15.5,10.1-19.2c2.7-6.4,2.1-13.6,2.3-16c2-3.9,2.9-9.3,3.5-13.6
			c0,0,0.1-0.6,0.2-0.9c0,0,0.2-0.6,0.5,1.1c0.6,3.3,1.2,9.1,1.2,10.7c0,2.3,0.8,6.7-0.3,10.6c-1.1,3.9-0.3,6.4-0.3,8.5
			c0,2.1-1.1,8-1.9,13.1c-0.8,5.1-1.6,17.7-0.5,25.4c1.1,7.7,5.3,27.1,5.8,30.4c0.6,3.4,1,10.3-0.4,16.5c-1.4,6.2-1.9,11.8-1.1,16.7
			c0.8,4.9,7.3,27.9,7.9,30.3c0.6,2.4-0.4,3.7-0.6,5c-0.3,1.2,0.7,1.7,0.4,2.7c-0.3,1.1-1.6,4-2.7,5.3c-2.7,1.4-2,3,0.5,2.7
			c0.3,1.5,4.9,0.8,7.2,0.8c1.6,1.4,4.3,0.9,4.8-0.1c0.7-1.2,0.3-1.8-0.3-3.7c-0.7-1.8-0.7-4.9,0-7c0.7-2.1,0.7-4,0-5.8
			c-0.7-1.8-1.6-6.7-0.3-20.8c1.3-14.1-1.4-21.2-0.3-26.5c1.6-2.8,2.9-11.4,2.9-30c0-13,1-20.9,1.5-24.6c0,0,0.1-0.5,0.4-0.5
			c0,0,0.3-0.1,0.4,0.5c0.6,3.6,1.5,11.6,1.5,24.6c0,18.6,1.3,27.3,2.9,30c1.1,5.3-1.6,12.4-0.3,26.5c1.3,14.1,0.3,18.9-0.3,20.8
			c-0.7,1.8-0.7,3.7,0,5.8c0.7,2.1,0.7,5.2,0,7c-0.7,1.8-1,2.4-0.3,3.7c0.4,1.1,3.2,1.6,4.8,0.1c2.3,0,6.8,0.7,7.2-0.8
			c2.5,0.3,3.3-1.3,0.5-2.7c-1.1-1.3-2.4-4.2-2.7-5.3c-0.3-1.1,0.7-1.5,0.4-2.7c-0.3-1.2-1.2-2.6-0.6-5c0.6-2.4,7.1-25.4,7.9-30.3
			c0.8-4.9,0.3-10.6-1.1-16.7c-1.4-6.2-0.9-13.1-0.4-16.5c0.6-3.3,4.7-22.7,5.8-30.4c1.1-7.7,0.3-20.3-0.5-25.4
			c-0.8-5.2-1.9-11.1-1.9-13.1c0-2.1,0.8-4.6-0.3-8.5c-1.1-3.9-0.3-8.2-0.3-10.6c0-1.6,0.8-7.5,1.4-10.8c0,0,0.1-0.5,0.2-0.6
			C175.2,100.4,175.4,100.4,175.5,100.9z"/>
	</g>
</g>
<g id="Anatomy_03_x5F_Female" class="st0">
	<g class="st1">
		<path class="st7" d="M131.4,279.2c-0.6,0-0.9-0.1-1-0.2c-5.3-2.2-6.7-7.4-6.8-7.6c-0.6-1.6,1.3-3.1,1.8-3.4c2.9-2.7,4.7-5.7,5-6.1
			c1.6-4.2-0.4-15-0.4-15.1c0-0.1-3.5-16.2-4.2-18.9c-1.5-5.8-1.3-16-1.3-19.8c0-0.5,0-0.8,0-1c0-5-2.3-15.5-3-18.2
			c-1.6-5.6-5.5-26.6-5.5-33c0-5.6,2.1-16.4,2.2-16.8c1.7-6,4.1-18.6,4.3-20c-0.2-2.4-0.5-6.2-0.8-9.5l-0.3,1.7l-2.5,6.8
			c0.1,4-0.4,6.3-0.4,6.4c-0.7,3.5-2.3,7.8-2.4,8c-0.1,0.1-4,9.1-4.5,15.7c-0.3,4.2-0.1,7.3,0.6,9.4c0.5,1.4,1.1,4.1,1.8,7.9
			c0.4,2.2,0.3,3.8-0.5,4.6c-0.4,0.5-0.9,0.7-1.5,0.7h-0.1l-0.2,0l-0.2,0l-0.2-0.1c-0.1,0-0.2-0.1-0.3-0.3c0.5,0.8,1.1,1.9,2,3.3
			c0.3,0.4,0.5,1.3,0,2l-0.2,0.2l-0.2,0.1c-0.3,0.1-0.6,0.2-0.9,0.2c-2.5,0-6.1-4.1-6.8-5l-0.1-0.1l-0.1-0.1
			c-2-4.1-2.6-8.4-1.9-13.1c1-7,1.1-12.1,1.1-16.6c0-2.1,0-4.1,0.2-6.1c0.5-8.7,3.4-22.4,3.6-22.9c0.3-1.4,0.4-3.6,0.5-5.9
			c0.1-3,0.3-6.5,0.9-9.1c0.9-3.8,0.6-7.4,0.3-10.8c-0.3-3.9-0.7-7.6,0.9-11.1c1.1-2.3,3.6-4.2,6.3-4.6c5.9-1,16.9-6.2,17-6.2l0,0
			c0,0,2.1-1.2,1.9-2.8c-0.1-0.7-0.4-0.7-0.6-0.7c-0.1,0-0.2,0-0.3,0c-1,0.2-3.2,0.5-4.2,0.5c-2-0.2-2.7-1.3-2.9-1.6
			c-0.1-0.2-0.4-0.8-0.1-2.8c0-0.4-0.1-0.5-0.1-0.6c-0.1-0.1-0.4-0.3-0.8-0.5c-0.5-0.3-0.7-0.8-0.8-1.1c-0.1-0.6,0.1-1.1,0.2-1.3
			c-0.3-0.2-0.6-0.4-0.7-0.6c-0.2-0.4-0.3-0.8-0.1-1.2c0.1-0.3,0.3-0.5,0.5-0.6c-0.2-0.1-0.4-0.1-0.6-0.2c-1.1-0.4-1.7-0.9-1.9-1.6
			c-0.2-0.7,0.1-1.3,0.3-1.6c0.2-0.2,0.6-0.6,1.3-1.1c2.4-2.4,2.2-3.4,2.1-3.7c-0.1-0.4-2.4-8.8,5.3-13.6c5-3.1,10.4-3.5,13.2-3.5
			c1.5,0,2.4,0.1,2.4,0.1c3.9,0.5,7,2.3,9.3,5.3c3.2,4.3,3.8,10.1,3.4,12.7c-0.9,5.7-5.3,9.6-6.5,10.7c-0.2,2-0.4,6.4,1.2,8.1
			c2.7,3,3.6,3.5,5.9,4.7c1.5,0.8,3,1.5,4.4,2.1c4,1.8,7.8,3.5,9.5,6.7c0,0.1,1.2,2.2,1.2,6.1c0,3.9,0,9,0.1,12.9c0,2.5,0,4.6,0,5.5
			c0,7.2,0.8,11.9,1.3,14.4c0.1,0.4,0.1,0.7,0.2,1c0.2,1.3,0.7,3.4,1.2,5.9c1.1,5.2,2.4,11.8,2.5,14.4l0.3,7.2
			c0.6,16.1,0.8,20.8,0.2,22.2c-3.2,7.4-6.3,9.2-6.5,9.3c-0.8,0.4-1.6,0.5-2.5,0.5c-0.9,0-1.5-0.2-1.6-0.2l-0.1,0l-0.1,0
			c-1.1-0.5-1.7-1.3-1.4-2.2l0.1-0.2l0.1-0.1c0.1-0.2,0.7-0.6,2.4-1.5c0.4-0.2,0.9-1,1.5-1.9c-0.1,0-0.2,0-0.3,0h-0.4l-0.3-0.3
			c-1.1-1.1-1.3-3.2-1.3-3.4c-0.3-4.1,0.5-5.9,1.4-7.9c0.3-0.8,0.7-1.6,1-2.6c1-2.9-0.2-7-0.2-7l-5.6-17.3c0-0.1-1.7-4.3-1.7-7.3
			c-0.1-3-0.1-4.9-0.2-5.4c-0.3-0.6-1.3-2.7-1.8-4.4c-0.2-0.6-0.4-1.9-0.6-3.3c-0.2,1.3-0.8,6.3-0.8,8.3c0,3.8,2.8,15.7,3.8,18.9
			c1.4,4.9,1.3,11.6,1.3,17.5l0,2.1c0,10.7-3.1,24.3-3.3,24.8c0,0.2-4,19.5-4.5,22.1c-0.4,1.7-0.4,5.6-0.3,9.7
			c0,5.9,0,12.5-0.9,17.1c-1.5,8.2-2.7,11.9-3.4,14.1c-0.3,1-0.5,1.6-0.6,2.3c-1.7,10.4-0.4,14.7-0.4,14.7l0,0.1
			c0,0,0.6,2.4,4.2,7.3c0.7,0.5,2.2,1.8,1.7,3.2c-1.3,4.6-5.9,6.1-8.1,6.3c-0.1,0-0.2,0-0.3,0c-3.3,0-5.1-4.2-5.2-4.4l-1.1-2.7
			c-1.1-2.5-2.9-4.9-3-4.9l-0.1-0.1l0-0.1c-0.3-0.7-0.5-1.4-0.7-2c-0.3,0.8-0.7,1.6-1.3,2.5c-0.5,0.8-2,2.9-2.4,4.1l-1.3,3.7
			l-0.1,0.1C134.9,278.7,132.6,279.2,131.4,279.2z M141.7,258.5c0.2,0.2,0.5,0.8,0.7,1.6c0.2-0.7,0.3-1.1,0.4-1.2l1.2-3.8
			c0.5-3.4-0.3-13.6-0.7-19.7c-0.2-2.5-0.3-4.3-0.3-4.9c0-0.8-0.1-2-0.2-3.4c-0.2-3.1-0.5-6.9-0.1-9.6c0.4-2.5,1-5.2,1.1-5.9
			c-0.2-1.2-1.3-8-1.3-10.2c0-4.5,0.1-29.3,0.2-34.9c-0.3,0-0.5,0-0.7,0c-0.1,0-0.3,0-0.4,0c0.1,6,0.4,31.1,0.4,34.9
			c0,2.8-1.5,8.8-1.8,10.1c0.3,1.1,1.4,5.1,1.6,6.4c0.4,3-0.3,12.7-0.4,13.1l-0.3,12.1c-0.1,3-0.2,6.1-0.2,8.4
			c-0.1,2-0.1,3.1-0.2,3.8l0.1,0C140.7,255.1,140.7,256.1,141.7,258.5z M109.9,168.1c0,0,0.1,0.3,0.5,1.2c-0.2-0.5-0.4-1.1-0.6-1.9
			c0,0,0-0.1,0-0.1C109.8,167.5,109.8,167.8,109.9,168.1L109.9,168.1z"/>
		<path class="st8" d="M159.6,272.4c-1.5,5.3-7.2,5.6-7.2,5.6c-2.8,0.3-4.5-3.8-4.5-3.8l-1.1-2.7c-1.2-2.7-3.1-5.2-3.1-5.2
			c-1.5-3.1,0-7,0-7l1.3-4c0.7-4.7-1-22.8-1-24.9c0-2.7-0.8-9.1-0.2-12.9c0.5-2.9,1.1-6,1.1-6s-1.3-7.9-1.3-10.3
			c0-5.1,0.2-36,0.2-36s-1.3,0.1-1.7,0.1c-0.7,0-1.4-0.3-1.4-0.3s0.4,31.8,0.4,36.2c0,3-1.8,10.1-1.8,10.1s1.4,5.1,1.6,6.5
			c0.4,2.9-0.4,12.8-0.4,12.8s-0.7,25.7-0.7,24.2c0,0-0.1,1.1,1.1,4c0,0,2.3,3.1-0.8,7.6c0,0-1.9,2.8-2.5,4.3l-1.3,3.6
			c-2.8,4.7-5.6,3.7-5.6,3.7c-4.9-2-6.2-6.9-6.2-6.9c-0.4-1.1,1.5-2.4,1.5-2.4c3.4-3.1,5.2-6.4,5.2-6.4c1.8-4.5-0.4-15.7-0.4-15.7
			s-3.5-16.2-4.2-19c-1.7-6.4-1.2-18.8-1.2-20.6c0-5.3-2.4-15.9-3.1-18.5c-1.6-5.8-5.4-26.6-5.4-32.7c0-5.6,2.2-16.7,2.2-16.7
			c1.8-6.3,4.3-20.1,4.3-20.1c-0.3-4.2-1.1-12.8-1.5-15.2c-0.1-0.7-0.3-0.5-0.3-0.5c-0.1,0-0.1,0.3-0.1,0.3l-1.1,7.3l-2.5,6.9
			c0.1,4-0.4,6.4-0.4,6.4c-0.7,3.5-2.3,7.8-2.3,7.8s-4,9.1-4.6,16c-0.5,6.5,0.4,9,0.6,9.8c0.4,1.2,1,3.8,1.7,7.8
			c0.8,4.5-1.1,4.2-1.1,4.2s-0.4-0.2-1.1-2.7c-0.3-1-0.9-2-1.2-2.8c-0.2-0.5-0.4-0.5-0.4-0.5c-0.2,0.1-0.2,0.4-0.2,0.4
			c-0.2,1-0.4,2.7,0,4.1c0,0,0.4,1.5,3.2,5.8c0,0,0.4,0.4,0.1,0.8c-2,0.9-6.5-4.5-6.5-4.5c-2.2-4.5-2.3-8.8-1.8-12.5
			c1.5-10.3,0.9-16.6,1.3-22.8c0.5-8.7,3.5-22.8,3.5-22.8c0.7-3.3,0.4-10.3,1.5-15c1.9-8.4-1.7-15.7,1.2-21.7c1-2.1,3.4-3.7,5.6-4.1
			c6.1-1,17.3-6.3,17.3-6.3s2.8-1.5,2.4-3.9c-0.3-1.7-1.5-1.7-2.1-1.5c-1,0.2-3.1,0.4-4,0.4c-1.6-0.1-2-1.1-2-1.1
			c-0.2-0.4,0-2.2,0-2.2c0-1.1-0.6-1.4-0.6-1.4s-0.3-0.2-0.8-0.5c-0.7-0.4-0.2-1.1-0.2-1.1c0.1-0.2,0.5-0.3,0.5-0.3
			c1.3-0.4,1.1-0.6,1.1-0.6c0-0.1-0.3-0.2-0.3-0.2s-0.5,0-1.5-0.2c-0.4-0.1-0.6-0.4-0.6-0.4c-0.2-0.3,0.1-0.4,0.1-0.4
			c0.1,0,0.2-0.1,0.2-0.1c0.2-0.2,0.5-0.7,0.5-0.7c0.1-0.5-0.2-0.6-0.2-0.6s-0.5-0.2-1.5-0.5c-1.8-0.6-1-1.5-1-1.5
			c0.2-0.2,1.2-1,1.2-1c2.5-2.5,2.6-3.8,2.4-4.8c-0.3-1-1.8-8.3,4.9-12.5c7-4.4,15-3.3,15-3.3c11,1.4,12.3,13.4,11.8,16.8
			c-1,6.2-6.5,10.3-6.5,10.3s-0.9,6.8,1.4,9.3c2.8,3.1,3.9,3.7,6.2,5c5.1,2.7,11.3,4.3,13.4,8.3c0,0,1.1,2,1,5.6
			c0,6.3,0.1,15.9,0.1,18.5c0,8.3,1.1,13.4,1.5,15.6c0.7,3.9,3.6,16.4,3.7,20.2c0.7,19.2,1.2,27.6,0.6,29c-3.1,7.2-6,8.8-6,8.8
			c-1.6,0.7-3.4,0.3-3.4,0.3s-1-0.4-0.8-0.9c0,0,0.3-0.4,2.1-1.3c1.4-0.7,3.1-4.9,3.1-4.9c-0.6-4-1.1-4-1.1-4
			c-0.3-0.1-0.3,0.9-0.3,0.9c-0.1,1-0.2,2.7-0.2,2.7c0.1,1.4-0.7,1.4-0.7,1.4c-0.9-0.9-1.1-2.8-1.1-2.8c-0.3-5.3,1.1-6.3,2.3-10.1
			c1.1-3.3-0.2-7.6-0.2-7.6l-5.6-17.4c0,0-1.6-4.1-1.7-7c-0.1-3.8-0.2-5.7-0.2-5.7s-1.3-2.4-1.8-4.4c-0.4-1.5-1.2-7.2-1.6-9.4
			c-0.1-0.7-0.3-0.6-0.3-0.6c-0.2,0-0.2,0.6-0.2,0.6l-0.4,6c0,0-0.9,6.3-0.9,8.7c0,4,2.9,15.9,3.8,19.2c1.5,5.4,1.3,13,1.3,19.4
			c0,10.7-3.3,24.6-3.3,24.6s-4,19.5-4.5,22.1c-0.9,4.1,0.3,18.9-1.2,26.8c-2.3,12-3.7,14.2-4,16.4c-1.8,10.8-0.4,15.2-0.4,15.2
			s0.5,2.5,4.5,7.8C158.2,270.2,159.9,271.5,159.6,272.4z"/>
		<linearGradient id="SVGID_2_" gradientunits="userSpaceOnUse" x1="142.4415" y1="26.7141" x2="142.4415" y2="278.2332">
			<stop offset="0" style="stop-color:#F6DABA"/>
			<stop offset="0.3011" style="stop-color:#F6D6B5"/>
			<stop offset="0.6383" style="stop-color:#F8C8A8"/>
			<stop offset="0.9919" style="stop-color:#FAB392"/>
			<stop offset="1" style="stop-color:#FAB291"/>
		</linearGradient>
		<path class="st9" d="M159.6,272.4c-1.5,5.3-7.2,5.6-7.2,5.6c-2.8,0.3-4.5-3.8-4.5-3.8l-1.1-2.7c-1.2-2.7-3.1-5.2-3.1-5.2
			c-1.5-3.1,0-7,0-7l1.3-4c0.7-4.7-1-22.8-1-24.9c0-2.7-0.8-9.1-0.2-12.9c0.5-2.9,1.1-6,1.1-6s-1.3-7.9-1.3-10.3
			c0-5.1,0.2-36,0.2-36s-1.3,0.1-1.7,0.1c-0.7,0-1.4-0.3-1.4-0.3s0.4,31.8,0.4,36.2c0,3-1.8,10.1-1.8,10.1s1.4,5.1,1.6,6.5
			c0.4,2.9-0.4,12.8-0.4,12.8s-0.7,25.7-0.7,24.2c0,0-0.1,1.1,1.1,4c0,0,2.3,3.1-0.8,7.6c0,0-1.9,2.8-2.5,4.3l-1.3,3.6
			c-2.8,4.7-5.6,3.7-5.6,3.7c-4.9-2-6.2-6.9-6.2-6.9c-0.4-1.1,1.5-2.4,1.5-2.4c3.4-3.1,5.2-6.4,5.2-6.4c1.8-4.5-0.4-15.7-0.4-15.7
			s-3.5-16.2-4.2-19c-1.7-6.4-1.2-18.8-1.2-20.6c0-5.3-2.4-15.9-3.1-18.5c-1.6-5.8-5.4-26.6-5.4-32.7c0-5.6,2.2-16.7,2.2-16.7
			c1.8-6.3,4.3-20.1,4.3-20.1c-0.3-4.2-1.1-12.8-1.5-15.2c-0.1-0.7-0.3-0.5-0.3-0.5c-0.1,0-0.1,0.3-0.1,0.3l-1.1,7.3l-2.5,6.9
			c0.1,4-0.4,6.4-0.4,6.4c-0.7,3.5-2.3,7.8-2.3,7.8s-4,9.1-4.6,16c-0.5,6.5,0.4,9,0.6,9.8c0.4,1.2,1,3.8,1.7,7.8
			c0.8,4.5-1.1,4.2-1.1,4.2s-0.4-0.2-1.1-2.7c-0.3-1-0.9-2-1.2-2.8c-0.2-0.5-0.4-0.5-0.4-0.5c-0.2,0.1-0.2,0.4-0.2,0.4
			c-0.2,1-0.4,2.7,0,4.1c0,0,0.4,1.5,3.2,5.8c0,0,0.4,0.4,0.1,0.8c-2,0.9-6.5-4.5-6.5-4.5c-2.2-4.5-2.3-8.8-1.8-12.5
			c1.5-10.3,0.9-16.6,1.3-22.8c0.5-8.7,3.5-22.8,3.5-22.8c0.7-3.3,0.4-10.3,1.5-15c1.9-8.4-1.7-15.7,1.2-21.7c1-2.1,3.4-3.7,5.6-4.1
			c6.1-1,17.3-6.3,17.3-6.3s2.8-1.5,2.4-3.9c-0.3-1.7-1.5-1.7-2.1-1.5c-1,0.2-3.1,0.4-4,0.4c-1.6-0.1-2-1.1-2-1.1
			c-0.2-0.4,0-2.2,0-2.2c0-1.1-0.6-1.4-0.6-1.4s-0.3-0.2-0.8-0.5c-0.7-0.4-0.2-1.1-0.2-1.1c0.1-0.2,0.5-0.3,0.5-0.3
			c1.3-0.4,1.1-0.6,1.1-0.6c0-0.1-0.3-0.2-0.3-0.2s-0.5,0-1.5-0.2c-0.4-0.1-0.6-0.4-0.6-0.4c-0.2-0.3,0.1-0.4,0.1-0.4
			c0.1,0,0.2-0.1,0.2-0.1c0.2-0.2,0.5-0.7,0.5-0.7c0.1-0.5-0.2-0.6-0.2-0.6s-0.5-0.2-1.5-0.5c-1.8-0.6-1-1.5-1-1.5
			c0.2-0.2,1.2-1,1.2-1c2.5-2.5,2.6-3.8,2.4-4.8c-0.3-1-1.8-8.3,4.9-12.5c7-4.4,15-3.3,15-3.3c11,1.4,12.3,13.4,11.8,16.8
			c-1,6.2-6.5,10.3-6.5,10.3s-0.9,6.8,1.4,9.3c2.8,3.1,3.9,3.7,6.2,5c5.1,2.7,11.3,4.3,13.4,8.3c0,0,1.1,2,1,5.6
			c0,6.3,0.1,15.9,0.1,18.5c0,8.3,1.1,13.4,1.5,15.6c0.7,3.9,3.6,16.4,3.7,20.2c0.7,19.2,1.2,27.6,0.6,29c-3.1,7.2-6,8.8-6,8.8
			c-1.6,0.7-3.4,0.3-3.4,0.3s-1-0.4-0.8-0.9c0,0,0.3-0.4,2.1-1.3c1.4-0.7,3.1-4.9,3.1-4.9c-0.6-4-1.1-4-1.1-4
			c-0.3-0.1-0.3,0.9-0.3,0.9c-0.1,1-0.2,2.7-0.2,2.7c0.1,1.4-0.7,1.4-0.7,1.4c-0.9-0.9-1.1-2.8-1.1-2.8c-0.3-5.3,1.1-6.3,2.3-10.1
			c1.1-3.3-0.2-7.6-0.2-7.6l-5.6-17.4c0,0-1.6-4.1-1.7-7c-0.1-3.8-0.2-5.7-0.2-5.7s-1.3-2.4-1.8-4.4c-0.4-1.5-1.2-7.2-1.6-9.4
			c-0.1-0.7-0.3-0.6-0.3-0.6c-0.2,0-0.2,0.6-0.2,0.6l-0.4,6c0,0-0.9,6.3-0.9,8.7c0,4,2.9,15.9,3.8,19.2c1.5,5.4,1.3,13,1.3,19.4
			c0,10.7-3.3,24.6-3.3,24.6s-4,19.5-4.5,22.1c-0.9,4.1,0.3,18.9-1.2,26.8c-2.3,12-3.7,14.2-4,16.4c-1.8,10.8-0.4,15.2-0.4,15.2
			s0.5,2.5,4.5,7.8C158.2,270.2,159.9,271.5,159.6,272.4z"/>
		<g>
			<path class="st7" d="M129.5,108.4c-1.6,0-3.2-0.4-4.6-1.3c-4.5-2.6-4.6-6.6-4.6-10.5c0-0.4,0-0.9,0-1.3l1,0c0,0.4,0,0.9,0,1.3
				c0.1,3.8,0.1,7.3,4.1,9.6c2.6,1.5,5.2,1.2,6.8,0.7c2.7-0.9,5.2-3,6.4-5.5l0.9,0.4c-1.2,2.7-4,5.1-7,6.1
				C131.5,108.3,130.5,108.4,129.5,108.4z"/>
		</g>
		<g>
			<path class="st7" d="M156.1,108.4c-1.4,0-2.7-0.3-4-0.9c-3.9-1.9-5.4-6-5.5-6.2l0.9-0.3c0.1,0.4,3.3,8.9,12.5,5.7
				c3.4-1.2,4.9-5,4.6-7.1c-0.1-1-0.5-4.4-0.5-4.4l1-0.1c0,0,0.4,3.4,0.5,4.4c0.4,2.9-1.7,6.9-5.3,8.2
				C158.9,108.2,157.5,108.4,156.1,108.4z"/>
		</g>
		<g>
			<path class="st7" d="M142,166.4c-1.9,0-2.3-0.6-2.7-1.7c-0.1-0.3-0.3-0.7-0.5-1.1c-0.8-1.6-3.8-3.5-3.8-3.5l0.5-0.8
				c0.1,0.1,3.2,2.1,4.2,3.9c0.2,0.5,0.4,0.9,0.5,1.2c0.3,0.9,0.4,1.1,1.8,1.1c1.2,0,1.3-0.1,1.5-0.6c0.1-0.3,0.3-0.7,0.7-1.2
				c1.1-1.4,4.9-4,5.1-4.1l0.6,0.8c0,0-3.8,2.6-4.9,3.9c-0.3,0.4-0.4,0.7-0.6,1C144,166,143.7,166.4,142,166.4z"/>
		</g>
		<rect x="110.4" y="19.3" class="st10" width="87.4" height="257.3"/>
	</g>
</g>
<g id="Anatomy_04_x5F_Head" class="st0">
	<g class="st1">
		<g>
			<g>
				<linearGradient id="SVGID_3_" gradientunits="userSpaceOnUse" x1="56.2473" y1="151.2723" x2="239.7527" y2="151.2723">
					<stop offset="0" style="stop-color:#FFE0D4"/>
					<stop offset="1" style="stop-color:#FACFA6"/>
				</linearGradient>
				<path class="st11" d="M111.5,237.4c-7-10.6-17-11.3-24.2-11.9c-2.3-0.2-4.3-0.3-6-0.8c-4.2-1.1-7-3-8.4-5.5
					c-1.9-3.4-0.8-7-0.3-8.7c0.1-0.2,0.1-0.4,0.2-0.5c1.3-5.1-1.3-7.2-3.7-9c-1.7-1.3-3.3-2.6-2.7-4.7l0.2-0.8
					c0.9-2.9,0.9-2.9,0-4.3c-0.3-0.4-0.6-1-1-1.7c-1.3-2.3,0-3.6,1.3-4.9c0.6-0.6,1.2-1.3,1.8-2.1c0.8-1.2,1.1-2.3,0.8-3.3
					c-0.6-2.1-3.8-3.4-6.1-4.3c-0.9-0.4-1.7-0.7-2.2-1c-3.1-2-4.7-4.2-4.8-6.5c-0.1-3.4,3.2-6.2,6.2-8.6c6-4.6,16.3-17,14.5-21.1
					c-4.3-9.7-3.2-11.6-0.8-15.8c0.8-1.5,1.9-3.3,2.9-5.9C86.2,96.9,96.3,88,99.6,85c25.8-22.8,67-20.2,75-19.4
					c48.6,4.6,59.5,39.1,60.6,43c3.6,12.8,10.2,45-5.2,66.7c-4.8,6.7-9.7,12.6-14.6,18.4c-10.3,12.3-19.2,22.9-18.4,33.6
					c0.4,5.5,0.7,7.9,0.7,7.9L111.5,237.4z"/>
			</g>
		</g>
		<g>
			<g>
				<path class="st12" d="M111.5,237.4c-7-10.6-17-11.3-24.2-11.9c-2.3-0.2-4.3-0.3-6-0.8c-4.2-1.1-7-3-8.4-5.5
					c-1.9-3.4-0.8-7-0.3-8.7c0.1-0.2,0.1-0.4,0.2-0.5c1.3-5.1-1.3-7.2-3.7-9c-1.7-1.3-3.3-2.6-2.7-4.7l0.2-0.8
					c0.9-2.9,0.9-2.9,0-4.3c-0.3-0.4-0.6-1-1-1.7c-1.3-2.3,0-3.6,1.3-4.9c0.6-0.6,1.2-1.3,1.8-2.1c0.8-1.2,1.1-2.3,0.8-3.3
					c-0.6-2.1-3.8-3.4-6.1-4.3c-0.9-0.4-1.7-0.7-2.2-1c-3.1-2-4.7-4.2-4.8-6.5c-0.1-3.4,3.2-6.2,6.2-8.6c6-4.6,16.3-17,14.5-21.1
					c-4.3-9.7-3.2-11.6-0.8-15.8c0.8-1.5,1.9-3.3,2.9-5.9C86.2,96.9,96.3,88,99.6,85c25.8-22.8,67-20.2,75-19.4
					c48.6,4.6,59.5,39.1,60.6,43c3.6,12.8,10.2,45-5.2,66.7c-4.8,6.7-9.7,12.6-14.6,18.4c-10.3,12.3-19.2,22.9-18.4,33.6
					c0.4,5.5,0.7,7.9,0.7,7.9l-1,0.1c0,0-0.3-2.4-0.7-7.9c-0.9-11.1,8.2-21.9,18.6-34.3c4.8-5.7,9.8-11.6,14.5-18.3
					c15.2-21.3,8.6-53.1,5.1-65.8c-1.1-3.8-11.8-37.7-59.8-42.2c-7.9-0.7-48.8-3.3-74.3,19.2C97,88.7,87,97.5,80,116.1
					c-1,2.7-2.1,4.6-2.9,6.1c-2.3,4-3.2,5.6,0.9,14.9c2.2,5.1-9.2,18-14.8,22.3c-2.9,2.2-6,4.8-5.9,7.8c0.1,1.9,1.5,3.8,4.4,5.7
					c0.4,0.3,1.2,0.6,2.1,1c2.5,1,5.9,2.4,6.6,5c0.4,1.3,0.1,2.7-0.9,4.2c-0.6,0.9-1.3,1.6-1.9,2.2c-1.3,1.3-2,2.1-1.1,3.8
					c0.4,0.7,0.7,1.3,1,1.7c1.1,1.8,1.1,2,0.1,5.2l-0.2,0.8c-0.4,1.4,0.6,2.2,2.3,3.6c2.3,1.8,5.5,4.4,4,10.1c0,0.2-0.1,0.3-0.2,0.6
					c-0.5,1.6-1.5,5,0.2,8c1.3,2.3,3.9,4,7.8,5c1.6,0.4,3.5,0.6,5.8,0.7c7.5,0.6,17.7,1.3,25,12.3L111.5,237.4z"/>
			</g>
			<g>
				<path class="st12" d="M71.3,174c-0.4-2-1.2-3.1-2.2-3.5c-1.6-0.5-3.4,1-3.4,1l-0.6-0.8c0.1-0.1,2.3-1.9,4.4-1.1
					c1.4,0.5,2.3,1.9,2.9,4.2L71.3,174z"/>
			</g>
			<g>
				<path class="st12" d="M74.6,176.6l-0.3-1c2.4-0.7,3.7-1.9,4.1-3.4c0.8-3.5-4.1-8-4.1-8l0.7-0.7c0.2,0.2,5.3,4.9,4.4,9
					C78.9,174.3,77.3,175.7,74.6,176.6z"/>
			</g>
			<g>
				<path class="st12" d="M71.7,193c-0.7,0-1.5,0-2.5,0l0-1c4.8,0.1,5.4,0,7.4-0.4c0.9-0.2,2.2-0.4,4.2-0.7l0.1,1
					c-2.1,0.3-3.3,0.5-4.2,0.6C75.2,192.8,74.5,193,71.7,193z"/>
			</g>
		</g>
	</g>
</g>
<g id="Anatomy_05_x5F_Brain" class="st0">
	<g class="st1">
		<path class="st13" d="M161.9,203.2c0,0,7.7,14.2,14.4,22.1c0,0,10.5,13.8,15.1,28.8c0,0,0.5,1.8,3.8,1.6c0,0,6.2,0.8,7.3-1.8
			c0,0,1.1-2.2-1.6-4.7c0,0-5-9.3-8-20.9c0,0-1.6-8.9-1-16.4L161.9,203.2z"/>
		<path class="st14" d="M198.5,255.7c0,0,3.5-0.6,4.1-1.9c0,0,1.1-2.2-1.6-4.7c0,0-5-9.3-8-20.9c0,0-1.6-8.9-1-16.4l-30-8.6
			c0,0,0.8,1.4,2,3.6c0,0,9.8,6.9,17.9,9.5c0,0,4.8,1.8,6.5,8.6c0,0,3.4,15.6,7.9,24.3C196.3,249.1,198,252.8,198.5,255.7z"/>
		<path class="st15" d="M182.4,231c2.3,5.1,6.8,14.5,6.8,14.5c2.8,4.1,2.8,1.1,2.8,1.1c-0.8-2-3.9-11.8-3.9-11.8
			c-1.6-6.5-3.4-10.3-3.4-10.3c-4-7.4-8.3-3.4-8.3-3.4s-1.3,1.1,1.4,4C177.7,225.2,181.7,229.3,182.4,231z"/>
		<path class="st16" d="M150.4,192.3c0,0,0.4,6.9,13.1,12.7c0,0,13.4,5.9,18.4,8.5c0,0,13.4,6.5,26.1,0c0,0,10.3-5.3,10.9-18
			c0,0-22.8-15.6-58.6-10.7C160.1,184.7,149.6,186.9,150.4,192.3z"/>
		<path class="st17" d="M186.7,215.1c5,1.3,13.3,2.4,21.2-1.7c0,0,10.3-5.3,10.9-18c0,0-22.8-15.6-58.6-10.7c0,0-10.5,2.2-9.7,7.6
			c0,0,29.1-1.9,44.8,6.2c0,0,8.1,3.6,6.3,11.3C201.6,209.9,200,217.5,186.7,215.1z"/>
		<path class="st18" d="M43.7,98.1c0,0,5.5-2.4,7.9-10.3c0,0,3.2-12.2,16.2-15.4c0,0,5.1-0.8,9.9-3.2c0,0,4.3-3.2,7.5-5.9
			c0,0,3.9-11.1,27.6-10.3c0,0,30.4,1.2,40.3-3.2c0,0,21.3-7.1,34.4,0c0,0,9.5,2.4,15,5.1c0,0,7.5,2.4,15.4,7.9c0,0,15,4.7,30,32.4
			c0,0,7.9,15.4,11.8,33.2c0,0,6.7,12.2,0,36.7c0,0-2.4,3.2-3.6,7.9c0,0-2,17.4-37.9,25.3c0,0-10.3,1.2-21.3-4.3c0,0-12-4.7-43.7-2
			c0,0-24.2,2-36.4-2c0,0-13.8-3.2-23.3-15.4c0,0-7.1-1.2-14.6-1.2c0,0-10.3,2.4-26.1-11.5c0,0-19.3-16.6-18.2-42.3
			C34.6,119.8,34.5,106,43.7,98.1z"/>
		<path class="st19" d="M116.7,190.1c12.2,3.9,36.4,2,36.4,2c31.7-2.8,43.7,2,43.7,2c11.1,5.5,21.3,4.3,21.3,4.3
			c35.9-7.9,37.9-25.3,37.9-25.3c1.2-4.7,3.6-7.9,3.6-7.9c6.7-24.5,0-36.7,0-36.7c-3.9-17.8-11.8-33.2-11.8-33.2
			c-15-27.6-30-32.4-30-32.4c-7.9-5.5-15.4-7.9-15.4-7.9c-2.1-1-4.6-2-7.1-2.8c0,0,30.4,14.5,25.5,42.6c0,0-3.8,12.5-10.8,16.8
			c0,0,2.3,5.6,2.1,9.5c0,0,1,17.4-1.4,24.7c0,0-3.1,15.2-22.4,10.3c0,0,1.4,19.4-18.3,24.3c0,0-20.5,4.7-25.1,6
			C144.9,186.4,127.1,190.9,116.7,190.1z"/>
		<path class="st20" d="M204.8,69.6c0,0,8.8,1.5,8.1,13.8c0,0,1.2,5.3-4.1,9.3c0,0-2,0.3-4,6.2c0,0,1,10.4-16.6,15.1
			c0,0-19.3,8-47.1,1.1c0,0-17.1-3.6-24.8-4.4c0,0-16.9-2.3-24.8,16.1c0,0-14.2,21.2-29.2,9.8c0,0-14.9-3.2-7.9-21.5
			c0,0-1.7-23.9,10.5-32.7c0,0,4.9-3.7,14.9-3.5c0,0,8.9-3.2,13.4-8.8c0,0,9-10.3,26.7-9.4c0,0,12.6,0.3,17.2-1.6
			c0,0,7.3-2.6,14.6-1.9c0,0,16.6-7.2,30,2.6C181.9,59.9,193.3,55.4,204.8,69.6z"/>
		<path class="st21" d="M159.7,197c0,0,0.7,3.8,11.1,7.3c0,0,6.9,2.6,11.8,4.7c0,0,8,2.6,10.3,0c0,0,2.3-3.6-9.3-5.5
			c0,0-6.3-1.9-11-2.2c0,0-6.2-2.8-8.7-4.3C163.9,197,158.5,195.1,159.7,197z"/>
		<g>
			<path class="st22" d="M242.3,132.9c0,0,8.7,32.4-27.2,34.7c0,0-0.4,2.4,5.5,3.9c0,0-2,9.9-19,3.6c0,0,2.1,12.2,20.8,3.6
				c0,0,5.3-2.4,5.3-9.5c0,0,14.2-0.8,19.7-16.6C247.4,152.6,251.4,141.5,242.3,132.9z"/>
			<path class="st22" d="M189.4,176.7c0,0-11.2,5.1-6.2,15c0,0,6.4,0.7,8.3,1.1C191.5,192.7,184.6,186.2,189.4,176.7z"/>
			<path class="st22" d="M116.7,190.1c0,0,28,0.8,26.1-18.6c0,0,2.8,1.1,2.4,10.2c0,0,3.2-1.5,6.7-0.9c0,0-7.5,2.1-11.5,6.9
				c0,0-4.8,5.5-7.9,5C132.5,192.7,121.1,191.6,116.7,190.1z"/>
			<path class="st22" d="M89.1,174.1c0,0-2-6.1,0-14.8c0,0-2-3.6-9.9-5.5c0,0,2.8-1.2,11.8-4.7c0,0,9.1-3.2,5.9-16.2
				c0,0,0-13.4-14.6-18.6c0,0,3.9-1.2,9.5-2c0,0,2.8-5.1-1.2-13.4c0,0,9.5,0.5,7,23.7c0,0,0.5,12.4,11.2,13.9c0,0,6.3-0.1,11.1-1.7
				c0,0,4.7-3.9,14.4-3.6c0,0,6.5,0.4,6.9-6.3c0,0-0.4-18.6,12.6-21.7c0,0-11.1,17.4,0,29.6c0,0,9.5,4.3,20.1-3.6
				c0,0,5.9-5.1,9.5-15.4c0,0,0.9-6.7,3.2-8.3c0,0-0.7,5.1,0,11.8c0,0,0,4.7-3.2,7.1c0,0-2.3,2.4,3.2,4.3c0,0,7.5,0,8.6,5.9
				c0,0-11.8-7.3-27.6,1.7c0,0-11.1,5.4-24.1-1.7c0,0-9.1-3.9-22.1,3.6c0,0-6.7,2.8-11.5,3.2c0,0-20.7,3.3-16.6,20.5
				c0,0,1.2,10.6,5.2,18.1c0,0-0.1-0.1-5.2-5.5C93.4,174.7,93.1,174.5,89.1,174.1z"/>
			<path class="st22" d="M107.6,162.9c0,0,27.4,5.1,41-13.4c0,0,0.5,5.9-4.6,9.5c0,0,4.7,1.6,7.9,2.8c0,0,8.3,4.3,16.2-1.2
				c0,0,9.9-7.1,15.8-6.7c0,0,7.9-0.8,13.2,1.6c0,0,7.1,1.8,10.3-5.9c0,0,2.8-7.5-1.4-14.6c0,0,7.5,2.8,8.3,10.7
				c0,0,9.7-5.3,7.9-17.6c0,0-0.6-11.8-9.7-12.2c0,0-6.7-0.2-8.3,8.5c0,0-1.6-7.7,3.4-11.5c0,0-1.8-0.8-5.9,0c0,0,12.8-7.9,22.3,4.3
				c0,0,2.6-5.9,6.1-7.7c0,0,5.1-3.6,4.9-9.1c0,0,3.6,4.3-4.3,14.4c0,0-3.6,2.8-3.8,13.4c0,0,2,9.7-5.3,16c0,0-5.9,4.3-11.3,7.5
				c0,0-4.7,2.8-8.7,10.7c0,0-4.5-6.9-19-3.6c0,0-11,1.6-17,12.8c0,0-4.5-10.1-23.3-8.1c0,0-18.2,1-25.7,13.2c0,0-0.8-3.8,0-7.7
				C116.7,169,110.2,166,107.6,162.9z"/>
			<path class="st22" d="M253.3,107.9c0,0-1.4,1.1-5,0c0,0-3.4-1.8-6.6,0.2c0,0,2.4,1,3,3.2c0,0-2.4,3.2-1.8,7.7
				c0,0,1.3-7.3,6.5-7.5c0,0,4.5,2.9,6.1,2.3C255.5,113.9,254.2,110.2,253.3,107.9z"/>
			<path class="st22" d="M259.7,128.5c0,0-5.1,0.4-5.1,10c0,0,2.7-6.3,6.4-6.8C260.9,131.7,260.2,131,259.7,128.5z"/>
			<path class="st22" d="M251,160.5c0,0,5.3,2.9,7.5,6.7c0,0-1.7,3.6-2.3,5.9C256.1,173.1,254.9,164.4,251,160.5z"/>
			<path class="st22" d="M202.4,55.1c0,0-0.2,1.4,1,4.9c0,0,0.6,2.6,0,4.9c0,0,2.6-2.6,6.5-1c0,0,6.9,3.8,7.7,15.4
				c0,0,0.2,6.1-1.4,10.3c0,0,4.9-3.8,6.9,4.5c0,0,0.8-8.3,0-14.4c0,0,8.1-1,9.5,14.4c0,0,3.8-11.8-8.5-18.6c0,0-3.6-2-5.1-5.9
				c0,0-1.4-4.1-1.2-6.7C217.8,63,206.7,55.7,202.4,55.1z"/>
			<path class="st22" d="M243.7,88.3c0,0,1,6.6,0,11.9c0,0,2.2-2.8,3-6.8C246.8,93.4,244.8,90,243.7,88.3z"/>
			<path class="st22" d="M178.9,56.1c0,0-11.1-10.3-18,1c0,0,10.3-5.9,15.6,1.2c0,0,1.4,1.8,0,3.9c0,0-11.5,8.3-9.5,16.8
				c0,0,1.6-4.5,4.6-6.5c0,0,1.7,5.7,4.4,6.5c0,0-3-9.1,8.5-18.4c0,0,6.5-3,12.6-1.8c0,0-3.6-4.7-14.6-1.4
				C182.7,57.4,181.3,57.8,178.9,56.1z"/>
			<path class="st22" d="M129.9,57.2c0,0,7.9,4.5,0,16.2c0,0-2,4.7-8.1,6.7c0,0-3.9,0-6.5,1.8c0,0,3,0.6,5.3,2c0,0-0.2,4.3,0.8,6.1
				c0,0-0.4-5.3,2.9-7.9c0,0,8.1-2.4,11.1-12.6c0,0,2.4-6.3,10.3-6.9c0,0,7.5-0.5,14.4,2.8c0,0-6.3-10.1-22.4-3.6c0,0-2.5,1-3.5-1
				C134.3,60.8,132.7,57.8,129.9,57.2z"/>
			<path class="st22" d="M73.7,70.9c0,0,4.5-0.9,7.3,0c0,0,7.7,1.9,12.2,0.9c0,0,5.9,0.2,10.3,7.1c0,0,1.6,4.9,2.8,6.1
				c0,0-1.6-6.9,9.1-12.4c0,0-5.9,2-8.7,1c0,0-3.2-0.9-5.5-3.1c0,0,3.8-1.4,6.5-4.4c0,0,3.9-5.5,9.1-6.1c0,0-7.5-1.4-16.8,5.4
				c0,0-4.9,2.7-6.5,2.7c0,0-8.9,0.1-10.7-2.7l-5.1,3.9L73.7,70.9z"/>
			<path class="st22" d="M64.6,80.7c0,0,7.1,7.5,3.8,23.9c0,0-3.9,4.5-3.8,18c0,0-0.4,8.8-8.3,8.8c0,0,1.4,2.5,5.3,2
				c0,0-0.2,10-8.1,13.6c0,0-3.9,1-7.1,0c0,0,7.9,6.9,16.6-3c0,0,3-4.1,2.6-8.3c0,0,1.8,8.9,9.5,8.7c0,0-11.8-14.1-2.6-37.4
				c0,0,6.7-14,22.7-15.4c0,0-11.4-4.9-21.5,4.3C73.7,96.1,71.9,83.1,64.6,80.7z"/>
			<path class="st22" d="M49.4,92.7c0,0,0.2,6.8,2.4,9.9c0,0,3-9.4,8.1-9.9c0,0-4.1,1.8-3.8,9.9c0,0,0.8,9.3-5.5,15.2
				c0,0-4.9,5.3-2.6,12.8c0,0-7.4-5.3-0.6-15.6c0,0,3.3-12.9-1.8-18.2C45.6,96.9,48.2,94.9,49.4,92.7z"/>
			<path class="st22" d="M36,110.7c0,0-1.3,16.3,7.4,24.7c0,0-6.9-3.2-8.9-15.6C34.6,119.8,35,113.6,36,110.7z"/>
			<path class="st22" d="M52.7,162.1c0,0,16.4,1,19.3-8.3c0,0-0.6,11.1-12.2,13.7C59.9,167.5,55,164.2,52.7,162.1z"/>
			<path class="st22" d="M102.7,94.3c0,0,18.6,4,18.6,26.9c0,0,0.6-4.7,8.7-4.3c0,0-4.9-0.8-5.7-5.2c0,0-0.6-5.7-2-7.1
				c0,0,2-3,9.7-9.3c0,0-2.6,4.9-1,11.8c0,0-1.2-12.7,14.6-17.5c0,0,6.5-1.9,17.6,4.6c0,0,3.8,2.6,6.1,2.8c0,0-4.9,2.5-6.1,14.6
				c0,0,4.1-10.3,20.3-17.4c0,0,16.8-3.5,27.2,3.6c0,0-1-4.3-12.4-7.9c0,0-3.6-1.2-3-5.9c0,0,0.8-8.1,7.1-10.5c0,0-4.3-1.4-7.1,1
				c0,0-3.3-7.9-8.6-6.9c0,0,6.9,3.2,5.7,17.4c0,0-1.4,3.9-4.1,4.9c0,0-7.9,2-11.8,4.1c0,0-5.7,1.3-10.7-1.4c0,0-9.5-7.8-19.9-5.9
				c0,0,1.4-2.4,2.8-6.1c0,0,2.9-6.1,6.6-7.1c0,0-6.3,0.9-11.3,9.5c0,0-6.2,6.9-12.6,9.6c0,0-8.5,4.4-11.1,7.6c0,0-1.7,0.2-4.9-1.4
				C115.3,98.9,106.6,94.1,102.7,94.3z"/>
		</g>
		<path class="st23" d="M110.1,90.5c1.9,1.7,3.5,3.9,3.5,3.9c3.1,3.6,7.8,2.9,7.8,2.9c4.1-0.2,6.5-4.6,6.5-4.6
			c1.8-3,2.8-4.4,2.8-4.4c2.8-3.8,4.7-4.2,4.7-4.2c3.6-1.4,6.1-3.4,6.1-3.4c7.7-5.3,8.9-11.6,8.9-11.6c-0.2-2.4-3.6-1.5-3.6-1.5
			c-10,3.5-10.7,11.3-10.7,11.3c-1.2,4.5-4.7,6.1-4.7,6.1c-5.3,1.9-5.1,5-5.1,5c-1.2,3.4-2.4,4.1-2.4,4.1c-4.3,1.6-5.5-2.8-5.5-2.8
			c-2.7-6.6-6.3-6.3-6.3-6.3s-2.9,0.1-3.4,2C108.8,87,108.3,88.9,110.1,90.5z"/>
		<path class="st24" d="M98.4,99.5c0,0,3.6-3,10.3,2.8c0,0,7,6.1,7.7,14c0,0,0.9,11.5-3.1,12.9c0,0-3.4,0.5-3.7-3.8
			c0,0-0.5-10.5-3.9-14c0,0-4.2-4.3-5.7-6.1C100.1,105.2,96.5,101.3,98.4,99.5z"/>
		<path class="st25" d="M94.4,55.7c0,0-2.7,4.8,0.8,6.4c0,0,4,0.9,11.4-3.2c0,0,4.9-3.4,11.1-3.2c0,0,4.5,0.5,4.9,4.2
			c0,0-0.5,2.2-4.2,3.7c0,0-4.6,1.7-5.7,5.1c0,0,0.1,2.4,3.8,0.8c0,0,3.3-0.9,4.2,0.5c0,0,1.4,2.2-1.6,4.5c0,0-1.4,1.8,1.2,1.9
			c0,0,5.5-0.3,6.2-6.4c0,0,0.3-3.8,0-5.8c0,0,0-2,0.7-3.2c0,0,2-5.8-1.8-7.9c0,0-9.9-0.1-12.5-0.1C112.8,53.1,100.8,53,94.4,55.7z"/>
		<path class="st25" d="M158.8,51.8c0,0-2.1-2.4-9.2,2.1c0,0-5.3,1.3-9.5,1.2c0,0-2-0.1-1.6,1.3c0,0,0.4,1.2,3.3,0.9
			c0,0,5-0.6,7.6-1.4c0,0,2.9-0.5,4.3-0.1C153.8,55.7,162.3,56.4,158.8,51.8z"/>
		<path class="st23" d="M167.8,59.1c0,0-3.4,0-2.8,4.2c0,0,0.6,2.1-0.1,4.3c0,0-1.6,4.6-4.8,7.6c0,0-4.7,3.7-2.8,7.9
			c0,0,2.5,4.3,6.7,5.2c0,0,3.7,0.6,5.8,0c0,0,3.6-0.8,6.2,0.3c0,0,1.3,1.2,3,1.4c0,0,5.3,0.3,8.3-4.9c0,0,2.1-4.7,0-8.6
			c0,0-2.8-2.9-2.6-6.4c0,0-2.1-2.1-4.3,3.6c0,0-0.8,3.3-0.1,5.3c0,0,0.4,4.4-5.5,4.7c0,0-3.3-0.5-4.3-4.7c0,0-2.9,2.7-4.2,5.1
			c0,0-2.5,1.1-3.9-2.2c0,0-1.3-1.7,0-5.3c0,0,1.6-4.6,4.6-7.8c0,0,3.2-2.5,3.4-5.4C170.3,63.4,171.2,59.7,167.8,59.1z"/>
		<path class="st23" d="M193.4,62.4c0,0,2.1-2,5.9,2.4c0,0,1.3,2,3,3.4c0,0,1.3,1.8-2.1,1.3c0,0-3.6,0.1-5,0.1c0,0-1.2-0.1-1.8-2
			C193.4,67.6,192.4,63.8,193.4,62.4z"/>
		<path class="st26" d="M207.1,73.6c0,0,0.3,2.9-1.1,5.3c0,0-2.8,2-3.4,6.1c0,0-0.4,3.7,2.9,4.9c0,0,2.1,1.1,3,1.1
			c0,0,2.2-0.7,1.1-4.5c0,0-0.7-4.6-0.7-6.8c0,0,0.5-3.3-0.4-6.2C208.6,73.6,207.2,71.5,207.1,73.6z"/>
		<path class="st27" d="M214.5,98.9c0,0,2.4-2.6,5.8-0.2c0,0,1.1,0.6,2,1.6c0,0,1.8,0.6,2.7-0.7c0,0,1.4-1.7,0.6-5.4
			c0,0-2.9-8,0.7-9.1c0,0,2.5-0.9,3,4.9c0,0,0,3.4,0,5.2c0,0,0.4,2.8,3.9,1.7c0,0,2.7-0.2,3.7-4.2c0,0,1.3-5-2.2-9.7
			c0,0-3.3-5.4-7-7.8c0,0-4.1-3-4.3-4.5c0,0,0.1-1.3,1.6,0c0,0,3.9,3.7,5.4,4.5c0,0,6.8,5.9,8.7,12.5c0,0,0.4,3.8,1.3,5.7
			c0,0,1.7,3.4,0.8,6.3c0,0,0.3,1.7-3,0.6c0,0-0.5-0.7-3.3-1.6c0,0-2.1-1-6.1,2.5c0,0-2.4,2.4-3.8,5.3c0,0-2,4.2-3.5,4.5
			c0,0-1.2,0.3-1.7-2.6c0,0-0.3-2.8-2-4.2c0,0-1.7-0.7-2.6,0.7c0,0-2.5,0.5-2.2-2.9C212.9,101.9,213.1,99.8,214.5,98.9z"/>
		<path class="st24" d="M193.8,99.6c0,0-7.5,0.3-5.5,6.8c0,0,0.6,2,1.8,2.9c0,0,1.3,1.6-0.1,5.8c0,0-1.6,2.6-0.9,5.4
			c0,0,1.1,6.1,6.2,6.1c0,0,3.5-0.3,2.5-6.2c0,0-0.8-6-1.1-7.3c0,0,0-2.7,3.4-3.7c0,0,5.7-1.6,8-7.5c0,0,0.4-3-3.3-3
			C204.9,98.9,199.2,98.8,193.8,99.6z"/>
		<path class="st24" d="M156.9,109.3c0,0-0.4,11.2,5.9,11.9c0,0,3.7,0.2,4.7-4.3c0,0,3.9-12.4,11.1-14.9c0,0,2-1.3,2.5,5.1
			c0,0,0,14.1-8.5,19.9c0,0-6.3,4-12.5,2.1c0,0-5.9-0.7-6.8-13.6c0,0-0.1-3.3,0.8-5.8C154.1,109.8,155.9,105.7,156.9,109.3z"/>
		<path class="st24" d="M155,104.4c0,0,1.3-2.9,0-4.1c0,0-2.9-2.2-10,1.7c0,0-5.1,3.5-5.9,11.1c0,0-0.4,10.7-5.1,13.4
			c0,0-4.9,3.3-10.5,2c0,0-3.7-1.1,0-5.9c0,0,2.9-2.9,7.4-3.6c0,0,2.5-0.9,2.8-3.2c0,0-0.1-7.8,2.4-11.1c0,0,3.3-7.2,12.7-9.6
			c0,0,8.4-1.5,11.6,3.6c0,0,1.1,2.2,0.3,4.5c0,0-0.8,3-3.8,3C156.7,106.3,154.5,106.5,155,104.4z"/>
		<path class="st25" d="M181.7,47.8c0,0-3.3-0.1-2,4c0,0,1.4,3.8,3.6,3.3c0,0,0.9-0.1,2-0.8c0,0,1.8-1.1,5,0c0,0,2.9,0.1,1.1-1.8
			c0,0-1.1-0.6-2.5-2.1C188.8,50.3,183.9,48.2,181.7,47.8z"/>
		<path class="st25" d="M67.7,72.4c0,0,0,2.4,4.3,4.1c0,0,2.6,0.5,3.7,2.4c0,0-0.5,1.9,1.3,2.9c0,0,1.2,0.5,0.9,4
			c0,0-0.5,2.6,1.7,2.5c0,0,3-0.4,7.2-3.3c0,0,2.9-2.4,7.1-1.6c0,0,3,0.5,4.3,1.6c0,0,2.1,1.3,2.8-0.9c0,0-0.3-2.5-3.3-3.8
			c0,0-1.9-0.7-4.4-2.8c0,0-3.8-2.5-10.3-3c0,0-3.7,0.1-5.8-1c0,0-1.9-1.2-3.7-2.7C73.7,70.9,69.4,72,67.7,72.4z"/>
		<path class="st24" d="M84.5,101c0,0-6.8,2.2-9.1,17c0,0-1.7,14.9,5.8,22.8c0,0,3.3,3.5,6.7,1.3c0,0,2.6-1.8,0-7.2
			c0,0-3.4-5.2-7.5-9c0,0-5-7.9-0.3-14c0,0,2.2-3.6,5.3-5.4c0,0,3.2-1.8,2.6-4.4C88,102,86.7,99.6,84.5,101z"/>
		<path class="st25" d="M55.2,84.3c0,0,2.8-1.9,5.8,0c0,0,3.2,2,3.9,6.8c0,0,0.8,10.4-2.6,17c0,0-1,2.2-1.1,4.6c0,0,0.1,3.7-1.4,6.3
			c0,0-0.8,2-1.3,4c0,0-0.5,4.8-5.8,3.5c0,0-3.2-1.4-1.1-5.3c0,0,1.2-2.8,4.6-5.4c0,0,1.4-1.9,1.3-4c0,0-0.5-3.5,1.7-5.4
			c0,0,1.1-1.4,0.5-3.7c0,0-1.2-3.8,1.7-5.9c0,0,2.2-3.1,0.9-6.2c0,0-1.2-2.8-4.4-2.2c0,0-1.3,0-3,1.7c0,0-3.6,1.4-3.4-2.2
			C51.6,87.8,51.7,85.2,55.2,84.3z"/>
		<path class="st25" d="M43.5,107.1c0,0-3.3-0.9-4.4,6.8c0,0-1.2,12.4,4.4,19.5c0,0,2,2.6,3,4.1c0,0,2,4.5,4.5,5.2
			c0,0,5.3,0.8,5.3-3.3c0,0-0.1-4.2-4.1-4.1c0,0-3-0.5-5.1-1.9c0,0-6.6-6.8-5.1-16.6c0,0,0.6-1.9,1.5-3
			C43.5,114,47,108.3,43.5,107.1z"/>
		<path class="st28" d="M52.7,153.8c0,0,7.8,1.3,11.6-3.6c0,0,1.7-3.7,3.4-4.2c0,0,2.9-0.8,5.3,1.7c0,0,2.1,2.5,2.9,4.7
			c0,0,2.4,3.1,4.2,4.8c0,0,3.6,2.4,4.3,5c0,0,2.5,5.9-3,9.2c0,0-4.7,2.1-6.2-3.6c0,0-0.7-4.3,0-7.3c0,0,0.1-4.8-1.5-6.9
			c0,0-2.3-2.8-4-2.8c0,0-1.3-0.4-3.6,2.2c0,0-4.2,4.2-8.2,4.1c0,0-3.6,0.2-5.3-1C52.7,156.3,51,155,52.7,153.8z"/>
		<path class="st28" d="M101.2,166.8c0,0-4.7,2.9,0,9.3c0,0,5.1,8,13.6,10.3c0,0,1.6,0.2,0.6-1.7c0,0-1.3-1.6-4-3.8
			c0,0-1.8-2.6-2-5.7c0,0,1.7-1.8,1.2-2.6c0,0,0.1-2.7-5.1-5.1C105.4,167.5,103.2,166.3,101.2,166.8z"/>
		<path class="st28" d="M138.5,169.7c0,0-8.2-3.2-12.7,4.9c0,0-2.8,4.6-2.4,7.6c0,0,1,2.4,6.2,1.1c0,0,3.4-1.6,4.7-2.2
			c0,0,4.8-2.5,5.2-5.9C139.5,175.1,140.8,171,138.5,169.7z"/>
		<path class="st28" d="M103.4,153.8c0,0,23.7-17.9,44.1-11.8c0,0,2.6,1.4-5.1,3.2c0,0-5.7,1.6-12.8,7.9c0,0-8.7,7-17,5
			c0,0-6.2-1.8-8.3-2C104.3,156,101.3,155.3,103.4,153.8z"/>
		<path class="st28" d="M153.3,142.9c0,0,3.3,3.1,2.5,6.5c0,0-1.3,2.9,0.1,4.4c0,0,1.9,2.1,4.2,1.4c0,0,2.4-0.8,6.1-3.8
			c0,0,6.8-5.1,15.7-5.5c0,0,6-0.8,16,2.1c0,0,4.7,0.7,4.8-2.1c0,0,0.9-4.5-6.7-5.2c0,0-17.9-2-31.6,4.5c0,0-2,0.4-3.4-0.3
			c0,0-5.3-3.3-7.1-3.6C153.8,141.4,151.8,141,153.3,142.9z"/>
		<path class="st28" d="M150.5,169.1c0,0,4.9-3.5,9.7,4c0,0,1.8,4.2,3.9,5.1c0,0,2.6,1.6,6.8-1.9c0,0,2.6-2.6,3.7-4.8
			c0,0,4.3-7.9,12-8.4c0,0,9.6-0.8,12.3,8.8c0,0-0.3,1.9-2.5,1.2c0,0-6.2-1.8-10.8,1.4c0,0-4.3,3.6-7.4,10.1c0,0-1.7,3.6-5.7,3.2
			c0,0-2.6-0.5-4.7-1.4c0,0-2.8-1-5.8,0c0,0-3,1.1-7,0c0,0-1.8-1.2,0.3-2.8c0,0,2.2-1.8,1.3-4.3c0,0-1.5-2.5-3.9-2.6
			c0,0-2-0.7-1.7-2.9C151.1,173.8,149,169.7,150.5,169.1z"/>
		<path class="st27" d="M234.6,117.6c0,0-4.3-0.6-4.5,8.3c0,0,0.3,7.6,0.5,10.9c0,0-1.3,7.3-9.9,11.1c0,0-10.1,3.5-12.6,10.5
			c0,0-1.7,3.7,3.4,4.1c0,0,12.9,1.2,18-7.1c0,0,2.8-3.1,4.3-12.5c0,0,0.4-5.9,1.8-9.3c0,0,2-6.2,1.2-12.3
			C237,121.2,237.1,118.2,234.6,117.6z"/>
		<path class="st27" d="M251,117.6c0,0-4.7-1.2-4.7,5.1c0,0-0.3,5.6,2.4,8.9c0,0,2.4,2.1,4.1-1.9c0,0,1.7-4.2,2-4.9
			C254.7,124.8,256.6,118.1,251,117.6z"/>
		<path class="st27" d="M257.7,142.8c0,0-4.5-2.6-6.7,7.9c0,0-1.3,6.2,1.6,9c0,0,3.5,2.3,5.2-2.4c0,0,0.6-2.2,0.7-5
			c0,0,0.7-3.7,0.9-4.5C259.4,147.9,261,143.6,257.7,142.8z"/>
		<path class="st27" d="M243.7,168.5c0,0-6-3.4-15.1,7.9c0,0-4.6,5.3-6.8,8.3c0,0-3.2,2.7-8.8,3.2c0,0-9.7,0.1-11.3,1.9
			c0,0-1.9,1.8,1.1,2.9c0,0,12.4,0.8,22.3-1.9c0,0,15.6-3,20.3-13.4C245.2,177.3,247.9,170.4,243.7,168.5z"/>
	</g>
</g>
<g id="Anatomy_06_x5F_Heart_x28_posterior_x29_" class="st0">
	<g class="st1">
		<path class="st29" d="M195.1,93c-2.5,5.8-2.4,11.2,0.1,12.1c2.5,0.9,6.5-3.2,9-9c2.5-5.8,2.4-11.2-0.1-12.1
			C201.6,83.1,197.5,87.2,195.1,93z"/>
		<path class="st30" d="M121.4,109.8c0,0,6.8-3.9,12.5-5.1c0,0,2.8-0.8,6.2,6.1c0,0,2.9,8,0.8,10.7c0,0-6.6,3.4-15.4,5L121.4,109.8z
			"/>
		<path class="st31" d="M195.1,93c-2.5,5.8-2.4,11.2,0.1,12.1c2.5,0.9,6.5-3.2,9-9c2.5-5.8,2.4-11.2-0.1-12.1
			C201.6,83.1,197.5,87.2,195.1,93z"/>
		<path class="st32" d="M232.1,173.1c2.8-46.9-68.7-55-104-51.8c-35.2,3.2-78.3,116.7-44.4,130c33.9,13.4,73.3-3.2,90.6-12
			C191.5,230.5,229.2,220,232.1,173.1z"/>
		<path class="st33" d="M232.1,173.1c2.8-46.9-68.7-55-104-51.8c-35.2,3.2-78.3,116.7-44.4,130c33.9,13.4,73.3-3.2,90.6-12
			C191.5,230.5,229.2,220,232.1,173.1z"/>
		<path class="st34" d="M138.5,236.8c12.7-4.8,30.2-15.7,30.2-15.7c19.8-9.9,21-30.8,21-30.8s0.6-6.6-5.3-12.4
			c0,0-18.8-13.1-28.8-24.4l76.5,19.6c-2.8,46.9-40.5,57.4-57.8,66.3c-17.3,8.8-56.8,25.4-90.6,12
			C83.6,251.3,102.8,256.4,138.5,236.8z"/>
		<path class="st30" d="M231,86c0.7,11.3-2.1,18.7-2.1,18.7s16.6,13,13.4,50c-3.2,37-26.1,30.7-36.7,28.6
			c-10.6-2.1-37.4-21.5-46.5-28.2c-9.1-6.7-38.4-14.8-46.9-31.4c-8.4-16.6-1.4-16.9,0.7-17.6c2.1-0.7,3.9-6,7.4-7
			c3.5-1.1,1.4-7.1,11.7-12c10.2-4.9,61.3,7.8,61.3,7.8s6-10.9,8.5-17.3C204.2,71.2,230.3,74.7,231,86z"/>
		<path class="st35" d="M217,112.6c-11.4-4.9-6.9-4.8-6.9-4.8c4.8,0.5,5.6-1.8,5.6-1.8c0.8-9.3,3.2-15.7,3.2-15.7
			c3.1-9.9-0.8-14.9-0.8-14.9C231,78,231,86,231,86c0.7,11.3-2.1,18.7-2.1,18.7s16.6,13,13.4,50c-3.2,37-26.1,30.7-36.7,28.6
			c-10.6-2.1-37.4-21.5-46.5-28.2c-9.1-6.7-35.9-12.4-46.9-31.4c-4.7-8.1-4-13.8-4-13.8c0.6-2.3,2.2-2.9,2.2-2.9
			c11,25.4,30.2,13.6,30.2,13.6c14.4,6.1,42.7,10.1,42.7,10.1s13.7,10.3,21.9,19.1l21.8,12.8c0,0,1.4-0.7-0.8-6.9
			c0,0-0.5-5-15.7-14.9c0,0-2.5-2-5.1-3.3c0,0,4.6-0.2,8.8-3c0,0,3.2-5.7,4.3-18.6C218.4,116,218.3,113.2,217,112.6z"/>
		<path class="st30" d="M227.4,158.7c0,0,0.7-8.8-22.1-21.1c0,0-6.9-2.1-14.4,6c0,0-4.1,5.1-1.4,10.8c0,0,4.3,8.1,7.5,14.1
			L227.4,158.7z"/>
		<path class="st36" d="M217.1,163.1l10.3-4.4c0,0,0.7-8.8-22.1-21.1c0,0-3.1-0.9-7.4,0.9c0,0,3.7-0.9,6.8,2.4
			C204.7,140.9,213.9,150.2,217.1,163.1z"/>
		<path class="st37" d="M200,64.2l-6-12.3c0,0,8.8-7.1,12,2.5C209.1,63.8,200,64.2,200,64.2z"/>
		<path class="st38" d="M140,110.8c0,0,2.9,8,0.8,10.7c0,0-6.6,3.4-15.4,5l-0.9-6.9c0,0,1.7,2.5,6.1,2.2c0,0,4.3-0.5,6.7-2.3
			C137.4,119.4,140,118,140,110.8z"/>
		<path class="st35" d="M202.5,124.5c0,0-0.9-0.7-1-6.4c0,0-5.4-2.2-6.6-4.2c0,0-1.1-1.7-1-2.2c0,0-1.4,1.9-0.9,5
			c0,0,0.7,2.6,4.8,5.2C197.9,121.8,201.3,124.3,202.5,124.5z"/>
		<path class="st39" d="M125.3,126.5c-1.4-0.1-4.1-3-5.3-8c-0.6-2.4-0.7-4.6-0.2-6.4c0.4-1.6,1.1-2.3,1.6-2.3c0.1,0,0.1,0,0.2,0
			c1.4,0.1,4.1,3,5.3,8c0.6,2.4,0.7,4.6,0.2,6.4c-0.4,1.6-1.1,2.3-1.6,2.3C125.4,126.5,125.4,126.5,125.3,126.5z"/>
		<path class="st39" d="M211.5,176.4c-9,0-16.3-6.5-16.3-14.4s7.3-14.4,16.3-14.4c9,0,16.3,6.5,16.3,14.4S220.5,176.4,211.5,176.4z"/>
		<path class="st30" d="M192.2,104.4c13.4,4.9,15.9-18,13.7-19.4c-26.1-17.4-55.9-22-75.4-14.8c-6.9,2.5-4.9,26.4,2.5,24.3
			C145.8,90.9,169.5,96,192.2,104.4z"/>
		<path class="st35" d="M128,90.9c-2.5,1.5,2.9,4.2,5,3.6c12.7-3.6,36.5,1.5,59.2,9.9c13.4,4.9,15.9-18,13.7-19.4
			c-5.3-3.6-10.9-6.5-16.4-9c0,0,5,2.7,7,8.4c0,0,1.5,9.5-3.7,13c0,0-2.8,2.7-20-3.1c0,0-14.3-2.1-28.9-6.1
			C143.3,88,132.1,88.3,128,90.9z"/>
		<path class="st30" d="M183.5,73.8c-9.9-2.8-9-2.1-13.9,2c-7.3,6.2-37.3,1.4-24.6-21.1c12.7-22.6,62.8-11.8,59.6,10.5
			c-3.3,22.3-5.9,15.3-7.3,14.7C195.8,79.2,193.4,76.6,183.5,73.8z"/>
		<path class="st35" d="M204.5,65.2c1.2-8.1-4.7-14.7-13.3-18.7c0,0,10.4,8.8,6.3,19.8c0,0-3.4,5.7-13,1.7c0,0-9.1-3.6-15.6-3.2
			l-10.2,13.6c8.2,1.1,14.8-7.4,24.7-4.5c0,0,9.5,2.8,14.9,7c0,0,1.5,1.9,3-1.4C201.3,79.4,203.1,76,204.5,65.2z"/>
		<path class="st40" d="M121,118.7c1,3.7,3,6.4,4.4,6c1.5-0.4,1.8-3.7,0.9-7.4c-1-3.7-3-6.4-4.4-6C120.4,111.7,120,115,121,118.7z"/>
		<path class="st39" d="M158.8,77.8c-8.8,0-15.9-6.1-15.9-13.7s7.1-13.7,15.9-13.7c8.8,0,15.9,6.1,15.9,13.7S167.6,77.8,158.8,77.8z
			"/>
		<path class="st38" d="M195.2,142.2c0,0-6.7-3-12.5-11.3c0,0-1.1-2.4-0.3-5.6c0,0,0.9-2.1,2-2.7c0,0,0,3.1,2.6,5.6
			c0,0,3,3.2,5.9,4.5c0,0,3,1.4,5.4,1.1L195.2,142.2z"/>
		<path class="st39" d="M196.6,132.9c-2.6,4.2-3.2,8.4-1.4,9.4s5.4-1.6,8-5.8c2.6-4.2,3.2-8.4,1.4-9.4
			C202.8,126.1,199.2,128.7,196.6,132.9z"/>
		<ellipse class="st40" cx="210.8" cy="161.3" rx="13.4" ry="12.6"/>
		<path class="st40" d="M197.1,133.2c-1.9,3.4-2.4,6.7-1.1,7.5c1.3,0.8,4-1.3,5.9-4.7c1.9-3.4,2.4-6.7,1.1-7.5
			C201.7,127.8,199,129.9,197.1,133.2z"/>
		<path class="st39" d="M201.2,117.9c-0.7,3.4-0.1,6.4,1.4,6.6c1.4,0.2,3.2-2.4,3.8-5.8c0.7-3.4,0.1-6.4-1.4-6.6
			C203.6,111.9,201.9,114.5,201.2,117.9z"/>
		<path class="st40" d="M201.6,118.1c-0.5,2.7,0,5,1.1,5.2c1.1,0.2,2.3-1.9,2.8-4.6c0.5-2.7,0-5-1.1-5.2
			C203.3,113.3,202,115.4,201.6,118.1z"/>
		
			<ellipse transform="matrix(0.9994 -3.515745e-02 3.515745e-02 0.9994 -2.7802 4.6532)" class="st39" cx="130.9" cy="81.4" rx="4" ry="10.1"/>
		<path class="st40" d="M127.3,81.5c0.1,4.6,1.6,8.3,3.2,8.2c1.6-0.1,2.8-3.9,2.7-8.5c-0.1-4.6-1.6-8.3-3.2-8.2
			C128.3,73.1,127.1,76.9,127.3,81.5z"/>
		<ellipse class="st40" cx="158.3" cy="65.3" rx="14.5" ry="12.6"/>
		<path class="st30" d="M133.5,103c-7.4,3.7-9.1,1.7-9.1,1.7c-3.5-5.6-3.9-7.5-3.9-7.5s5.5-10.6,10-8c0,0,5.2,3.6,6.9,8.2
			C137.4,97.3,137.7,100.5,133.5,103z"/>
		<path class="st35" d="M133.5,103c0,0,4.2-2.3,3.9-5.7c-1.6-4.6-6.9-8.2-6.9-8.2c-2.7-1.5-5.7,1.9-5.7,1.9s3.8-0.2,7.8,7.5
			C132.6,98.5,133.5,100.2,133.5,103z"/>
		<path class="st30" d="M124.6,91.2"/>
		<path class="st41" d="M96.1,176.8c0,0-17.4,25.2-13.7,56.9c0,0,1.3,7.7,8,6c0,0,3.6,0.1,4.6-5.2c0,0,2.3-30.4,17.7-49.7
			c0,0,2.5-7.7-5.8-11.5C106.9,173.3,100.7,171.8,96.1,176.8z"/>
		<path class="st42" d="M122.4,95.8c0,0-1.9,0.7,3.4,6.9c0,0,0.8,1,2,0c0,0,0.7-0.5-1.2-3.3C126.6,99.4,124.4,94.2,122.4,95.8z"/>
		<path class="st42" d="M194.8,122.5c0,0,2.3,1.3,4,2.7c0,0,0.8,0.8,0,1.6c0,0-0.8,0.7-2.5-0.4c0,0-1.6-1.4-2.6-1.7
			c0,0-1.1-0.6-0.8-1.5C193,123.2,193,122,194.8,122.5z"/>
		<path class="st42" d="M193.6,147.5c0,0,1.9,2.7,3,5.1c0,0,0.4,1.4-0.9,1.8c0,0-1.2,0.4-2.6-1.8c0,0-1-2.4-2-3.2c0,0-0.9-1.2,0-2.1
			C191.2,147.3,191.8,146,193.6,147.5z"/>
		<path class="st42" d="M199.2,110.4c0,0,1.8,0.6,3.1,1.3c0,0,0.6,0.5,0.2,1.1c0,0-0.4,0.6-1.8,0.1c0,0-1.3-0.7-2-0.8
			c0,0-0.8-0.2-0.7-0.9C198,111.1,197.8,110.3,199.2,110.4z"/>
		<path class="st42" d="M152.6,86.6c0,0,20.5,4.6,26.5,5.2c0,0,8.8,1.7,12.1,0.8c0,0,1.9-1,1.8-3.3c0,0,0.5-2.5-7.5-4.2
			c0,0-21.2-4.3-31.9-5.7c0,0-4.3-0.3-6,2c0,0-1.3,3.7,1,5.1C148.5,86.5,150.5,86.5,152.6,86.6z"/>
	</g>
</g>
<g id="Anatomy_07_x5F_Heart_x28_anterior_x29_" class="st0">
	<g class="st1">
		<path class="st32" d="M90.2,141c-26.3,59.8,9.6,88.2,9.6,80.8c0-10.3-1-20.1,3.6-27c5.9-8.8,4.1-11.9,9.4-17.7
			c43.4-48.1,8.4-31.1,6.5-33.4c-11.4-14-1.2-43.1-0.6-49.5c2-21.4-22.8-6.5-23.2,0C94.8,106.6,94.6,131.2,90.2,141z"/>
		<path class="st43" d="M99.8,214.7c0,2.3,0.1,4.7,0.1,7.1c0,5.7-20.6-9.2-19.2-42.8c0,0,4.7,20.4,14.7,30.7
			C95.4,209.7,98.7,212.1,99.8,214.7"/>
		<path class="st30" d="M152.7,101c-2.8,0.4-7.7,8.3-7.7,8.3c21.3-4.5,43.1-4.7,43.1-4.7s6.1,7.3,1.4,23.4l-10.3,2.8
			c0,0,18.8,3.5,27.3,22.4c1.8,3.9,19.7,28.9,19.7,63.2c0,8.3,10.8,33.3-30.1,33.3c-3.1,0-46.9-6.8-51.6-8.5
			c-4.5-1.6-43.5-8.5-44.3-18.5c-0.8-10.1-2.7-22,2.1-27.3c4.7-5.3,6.4-14.1,9.1-17.3c2.7-3.2,13.9-14,21.1-27.6
			c7.3-13.6-12.5-3.2-14.3-7.1c-1.8-3.9-9.2-13.6-4.4-31.9c4.7-18.3,5.1-24,11.2-27.4c6.1-3.3-0.6-18.1-1.4-20.3
			c-0.8-2.2,9.5-8.3,12.2-4.5c2.7,3.7,2.9,5.3,2.9,5.3s0.4-5.9,1.2-9.6c0.8-3.7,6.1-3.4,10.6-0.2c3.7,2.5,7.3-1.4,9.8,2
			c2.6,3.4-4.9,13.6-0.2,14.8c4.7,1.2,17.5,19.3,17.5,24.4c0,5.1-19.9,13.4-23.4,9.3C150.7,101,155.4,100.6,152.7,101z"/>
		<path class="st35" d="M99.5,214.7c-1.3-2.4,0.4,5.5,0.6,8.1c0.8,10,39.8,16.9,44.3,18.5c4.7,1.6,48.4,8.5,51.6,8.5
			c40.9,0,30.1-25,30.1-33.3c0-34.3-17.9-59.3-19.7-63.2c-8.5-18.9-27.3-22.4-27.3-22.4l10.3-2.8c0,0,1.8-4.1,1.7-9.8
			c0,0-1.2,3.9-5.8,5c0,0-9.5,1.7-10.9,2.3c0,0-1.9,17.5-8.7,17.5c0,0,0.6,3.2,4.4,4.2c0,0,11,0.8,17.2,3.7c0,0,17,10.8,22.5,47.6
			c0,0,1.3,14.6,5.5,27c0,0,4.7,18.8-26.5,17.7c0,0-34.2-5.7-48.8-8.3C140,235,104.6,223.7,99.5,214.7z"/>
		<path class="st32" d="M154.2,105.2c3.5,4.1,23.4-4.1,23.4-9.3c0-5.1-12.8-23.2-17.5-24.4c-4.7-1.2,2.8-11.4,0.2-14.8
			c0,0-1.2-2.2-4.1-1.2c0,0,0.6,4.1-1.4,9c0,0-2,5.4-0.3,8.7c0,0,1.3,3,4,4.7c0,0,6.4,6,7.6,18.1C166.1,96,164.9,103.3,154.2,105.2z
			"/>
		<path class="st44" d="M130.3,63.3c3.2-1.2,5.4-3.3,4.9-4.6c-0.5-1.3-3.5-1.3-6.7-0.1c-3.2,1.2-5.4,3.3-4.9,4.6
			C124.1,64.5,127.1,64.5,130.3,63.3z"/>
		<path class="st45" d="M130.3,63.3c2.1-0.8,3.5-2.2,3.2-3c-0.3-0.8-2.3-0.9-4.4,0c-2.1,0.8-3.5,2.2-3.2,3
			C126.3,64.1,128.3,64.1,130.3,63.3z"/>
		<path class="st32" d="M151.3,55.8c0,0-3.1,10.5-0.3,15.9c0,0-1.6,3.7-6.4,3c0,0,2.5-3.2,2.4-6.9c0,0,0.1-7.9,0-11.5
			c0,0-0.3-3.3-1.7-4C145.4,52.5,150.7,53.9,151.3,55.8z"/>
		<path class="st32" d="M145.4,87.8c0,0,8.5,0.8,8.7,12.9c0,0-19.1,5-10.3,44.2c0,0-1.5,5.4-7.3,6.1c0,0-2.5,0.2-1-3
			c0,0,2.6-3.1,1.6-10.2c0,0-2.5-25.3,4.4-40.4c0,0,2.1-5.5,2.2-7.8C143.6,89.6,143.3,87.3,145.4,87.8z"/>
		<path class="st43" d="M119.4,143.6c0,0-8.1,2.4-12.8-4.8c0,0,0.6,1.2,4,0.4c0,0,2-0.2,1.1-2.8c0,0-8-10.4-0.2-33.8
			c0,0,2.8-9.8,1.2-15.8c0,0-1.3-3.5-3.8-3.4c0,0,8.6-4.2,10.5,7.2c0,0-6.7,18.7-6.6,28.6C112.8,119.5,112.5,133.3,119.4,143.6z"/>
		<path class="st32" d="M127.3,64.2c0,0,1.4,0.5,4.2,1.2c0,0,2.5,0.8,4.2,4.4c0,0,3.5,8.2-0.3,10.2c0,0-1.6,1.6,1.9,1.8
			c0,0,6.5-1.6,3.3-12.4c0,0-2.5-8.1-5.2-10.8C135.3,58.7,134.7,62.7,127.3,64.2z"/>
		<path class="st46" d="M128.1,87.8c0,0-14.2,10.3-10,37.8c0,0,1,5.8,3.5,8.3c0,0,1.6,2,4.3,2c0,0,3.4,0.5,2.2-5c0,0-1.8-4.3-3-6.8
			c0,0-4.5-14,3.3-27c0,0,4.5-5.4,4-9.3C132.4,87.8,131.4,84.4,128.1,87.8z"/>
		<path class="st46" d="M127.7,67.5c0,0,3.8,6.3,2.1,13.3c0,0-0.4,1.3,0.4,1.6c0,0,1.4-0.1,2.2-2.4c0,0,1.8-7.5-2.6-13.1
			c0,0-0.9-1.2-1.6-1.2C128.3,65.7,126.8,65.9,127.7,67.5z"/>
		<path class="st46" d="M142,54.4c0,0-1.6,4.1-1.8,12.2c0,0,0.7,2,0.9,3.2c0,0,0.3-9.6,1.8-13.3c0,0,0.8-2.4,0.7-2.7
			C143.5,53.8,142.3,53.4,142,54.4z"/>
		<path class="st46" d="M114.6,197.3c0,0,9.9,21.8,39.4,30.5c0,0,25.6,5.2,34.1,7.8c0,0,7,1.2,9.8-1.2c0,0,3.8-3.5-3-7.8
			c0,0-2.1-2-17.2-7c0,0-24.1-5.8-30.8-15c0,0-13.2-15.5-19.5-16.2c0,0-7.8-1.5-12.8,2.5C114.6,190.8,112.5,193.7,114.6,197.3z"/>
	</g>
</g>
<g id="Anatomy_08_x5F_Adrenal_gland">
	<g>
		<path class="st47" d="M203.3,237.4c2.7-13.3-5.9-19.5-5.9-19.5c3.1,2.5,7.1,1.7,7.1,1.7c8.3-1.2,6.8-14.1,6.8-14.1
			c-1.4-6.1-7.1-6.1-7.1-6.1c8.3,1.4,11.3-7.1,11.3-7.1c1.9-7.1-3.8-12.7-3.8-12.7c7.8-1.3,12.3-9.7,12.3-9.7
			c8.3-19.6-6.8-24.9-6.8-24.9c4.5,0.1,4.7-5.1,4.7-5.1c-0.7-6.1-6.1-2.8-6.1-2.8c10.7-8.3,7.8-29.5,7.8-29.5
			c-3.5-18.6-19.8-16.1-19.8-16.1c3.3-2.4,3.8-10.4,3.8-10.4c-0.2-20.5-26.2-17.9-26.2-17.9c-21.2,0.5-20.8,14.6-20.8,14.6
			c-9.9-5.4-15.3,0.5-15.3,0.5c-26.4-11.8-38,8.5-38,8.5s-12-3.8-17.7,6.6c0,0-9.4-6.6-18.4-0.9c0,0-5.7,4.1-3.8,11.5
			c0,0-11.3-8.5-11.8,3.9c0,0-3,4.3,1.7,11.9c0,0,4.5,4.9,13.2,3.5c0,0,3.3-1.9,5.4,3.1c0,0,3.5,6.9,11.1,5.3
			c0,0,0.7,12.6,17.2,12.8c0,0,5.2-1.7,6.6,4.3c0,0-0.2,12.4,10.4,11.5c0,0,0.2,12.4,14.2,13.4c0,0-0.7,13.4,9,12.4
			c0,0,5.9,0.2,2.4,7c0,0-4.2,13.2,14.4,21.2c0,0,4.5,1.6,4,7.2c0,0-2.4,14,9.9,19.4c0,0-2.1,9.3,8.5,9.1
			C183.6,249.9,200.2,253.1,203.3,237.4z"/>
		<linearGradient id="SVGID_4_" gradientunits="userSpaceOnUse" x1="142.5726" y1="129.4045" x2="126.9921" y2="180.3952">
			<stop offset="0" style="stop-color:#A44F3B"/>
			<stop offset="1" style="stop-color:#E27E31"/>
		</linearGradient>
		<path class="st48" d="M203.3,237.4c2.7-13.3-5.9-19.5-5.9-19.5c3.1,2.5,7.1,1.7,7.1,1.7c8.3-1.2,6.8-14.1,6.8-14.1
			c-1.4-6.1-7.1-6.1-7.1-6.1c8.3,1.4,11.3-7.1,11.3-7.1c1.9-7.1-3.8-12.7-3.8-12.7c7.8-1.3,12.3-9.7,12.3-9.7
			c8.3-19.6-6.8-24.9-6.8-24.9c4.5,0.1,4.7-5.1,4.7-5.1c-0.7-6.1-6.1-2.8-6.1-2.8c10.7-8.3,7.8-29.5,7.8-29.5
			c-3.5-18.6-19.8-16.1-19.8-16.1c3.3-2.4,3.8-10.4,3.8-10.4c-0.2-20.5-26.2-17.9-26.2-17.9c-21.2,0.5-20.8,14.6-20.8,14.6
			c-9.9-5.4-15.3,0.5-15.3,0.5c-26.4-11.8-38,8.5-38,8.5s-12-3.8-17.7,6.6c0,0-9.4-6.6-18.4-0.9c0,0-5.7,4.1-3.8,11.5
			c0,0-11.3-8.5-11.8,3.9c0,0-3,4.3,1.7,11.9c0,0,4.2,5.4,13.2,3.5c0,0,3.7-0.9,5.4,3.1c0,0,3.5,6.9,11.1,5.3
			c0,0,0.7,12.6,17.2,12.8c0,0,5.2-1.7,6.6,4.3c0,0-0.2,12.4,10.4,11.5c0,0,0.2,12.4,14.2,13.4c0,0-0.7,13.4,9,12.4
			c0,0,5.9,0.2,2.4,7c0,0-4.2,13.2,14.4,21.2c0,0,4.5,1.6,4,7.2c0,0-2.4,14,9.9,19.4c0,0-2.1,9.3,8.5,9.1
			C183.6,249.9,200.2,253.1,203.3,237.4z"/>
		<path class="st49" d="M140.7,126.9c-3.3,9.2,5.4,10.1,5.4,10.1c-5,1.2-3.1,7.1-3.1,7.1c0.9,3.3,4.2,3.5,4.2,3.5
			c-6.1,3.7-2.8,12.6-2.8,12.6c3.3,7.1,10.6,4.5,10.6,4.5c-12,8-1.2,27.6-1.2,27.6c5.4,12,18.9,12.2,18.9,12.2
			c-5.9,3.9-5,10.2-5,10.2c0.2,7.6,9.4,9.3,9.4,9.3c-4.5,23.4,9.7,27.1,9.7,27.1c27.9,4.7,29.3-20.9,29.3-20.9
			c0.7-13.5-1.9-18.7-1.9-18.7c4.8,2.8,7.8-3.8,7.8-3.8c6.6-4.9,4-15.6,4-15.6c-1.4-6.1-7.1-6.1-7.1-6.1c8.3,1.4,11.3-7.1,11.3-7.1
			c1.9-7.1-3.8-12.7-3.8-12.7c7.8-1.3,12.3-9.7,12.3-9.7c8.3-19.6-6.8-24.9-6.8-24.9c4.5,0.1,4.7-5.1,4.7-5.1
			c-0.7-6.1-6.1-2.8-6.1-2.8c10.7-8.3,7.8-29.5,7.8-29.5c-3.5-18.6-19.8-16.1-19.8-16.1c3.3-2.4,3.8-10.4,3.8-10.4
			c-0.2-20.5-27.6-19.4-27.6-19.4C173.5,48.8,175.4,63,175.4,63c-9.9-5.4-15.3,1.9-15.3,1.9c-26.4-11.8-38,8.5-38,8.5
			s-12-3.8-17.7,6.6c0,0-9.4-6.6-18.4-0.9c0,0-7.1,4.2-5.2,11.6c0,0-13.7-5.2-19.7,7.5c0,0-7.4,2.6-4.8,11.9c0,0,2.8,10.6,15.8,5
			c0,0,1.7,5.4,8,3.3c0,0,3.5,0,5.2-4.7c0,0,1.4,6.4,10.9,4.5c0,0,5.7-0.5,8.3-5.4c0,0,5.9,12,24.1,10.9
			C128.4,123.4,132.6,131.2,140.7,126.9z"/>
		<path class="st50" d="M140.7,126.9c-3.3,9.2,5.4,10.1,5.4,10.1c-5,1.2-3.1,7.1-3.1,7.1c0.9,3.3,4.2,3.5,4.2,3.5
			c-6.1,3.7-2.8,12.6-2.8,12.6c3.3,7.1,10.6,4.5,10.6,4.5c-12,8-1.2,27.6-1.2,27.6c5.4,12,18.9,12.2,18.9,12.2
			c-5.9,3.9-5,10.2-5,10.2c0.2,7.6,9.4,9.3,9.4,9.3c-4.5,23.4,9.7,27.1,9.7,27.1c27.9,4.7,29.3-20.9,29.3-20.9
			c0.7-13.5-1.9-18.7-1.9-18.7c4.8,2.8,7.8-3.8,7.8-3.8c6.6-4.9,4-15.6,4-15.6c-1.4-6.1-7.1-6.1-7.1-6.1c8.3,1.4,11.3-7.1,11.3-7.1
			c1.9-7.1-3.8-12.7-3.8-12.7c7.8-1.3,12.3-9.7,12.3-9.7c8.3-19.6-6.8-24.9-6.8-24.9c4.5,0.1,4.7-5.1,4.7-5.1
			c-0.7-6.1-6.1-2.8-6.1-2.8c10.7-8.3,7.8-29.5,7.8-29.5c-3.5-18.6-19.8-16.1-19.8-16.1c3.3-2.4,3.8-10.4,3.8-10.4
			c-0.2-20.5-27.6-19.4-27.6-19.4C173.5,48.8,175.4,63,175.4,63c-9.9-5.4-15.3,1.9-15.3,1.9c-26.4-11.8-38,8.5-38,8.5
			s-12-3.8-17.7,6.6c0,0-9.4-6.6-18.4-0.9c0,0-7.1,4.2-5.2,11.6c0,0-13.7-5.2-19.7,7.5c0,0-7.4,2.6-4.8,11.9c0,0,2.8,10.6,15.8,5
			c0,0,1.7,5.4,8,3.3c0,0,3.5,0,5.2-4.7c0,0,1.4,6.4,10.9,4.5c0,0,5.7-0.5,8.3-5.4c0,0,5.9,12,24.1,10.9
			C128.4,123.4,132.6,131.2,140.7,126.9z"/>
		<path class="st51" d="M183.6,158.4c0,0-2.6,7.8,3.8,11.8c0,0-6.8-2.4-8.5,4.7c0,0-6.4,0.3-7,5c0,0-3.4,8.2,3.5,9.5
			c0,0-0.8,9.4,8.9,11.9h21l17.8-65.4l-3.3-43.4l-35.5-3.4c0,0-28.9-6.2-49.6,3.5c0,0,20.9,0.6,26.4,16.8c0,0,1.6,7.7-8.2,12.1
			c0,0,2.9,1.7,1.1,8.3c0,0,5.6-3.9,8.7,0c0,0,1.7,4.6-4.3,6.3c0,0,7.5,4.7,15.8,0c0,0,0,4.6,6.8,6.6c0,0,5,0,6.6,5.5
			c0,0,0.5,2.8-6.9,4.2C180.5,152.4,179.8,156.2,183.6,158.4z"/>
		<path class="st51" d="M55.6,104.8c0,0-1.4,10.8,8.3,11.7c0,0,4.5,0.4,8.1-1.6c0,0,1.2,5.3,8,3.3c0,0,3.8,0,5.2-4.7
			c0,0,1.4,6.5,10.9,4.5c0,0,5.2-0.2,8.3-5.4c0,0-2.2-2.9-0.4-7.7c0,0-0.6-3.3-10.5-1.9c0,0-2.7,3.8-10.3,1.3c0,0-1.4,4.1-10.5,5.2
			c0,0-4,6-10.1,4.7C62.5,114.2,57.3,112.4,55.6,104.8z"/>
		<path class="st51" d="M161.2,87.3c-5.9-0.4-5.8-4.3-5.8-4.3c-7.4,3.9-12.6,1.6-12.6,1.6c8.2-1.4,7-7.8,7-7.8
			C147.5,62.2,134.6,63,134.6,63c13.1-4.8,25.4,1.9,25.4,1.9c6.5-7.2,15.3-1.9,15.3-1.9c-0.3-8.6,6.8-11.9,6.8-11.9
			c12.4-5.7,25.6-1,25.6-1c3.8,6.8-2.1,39.8-2.1,39.8s-10.7,12.4-35.5,5.7C170.2,95.6,166.1,88.1,161.2,87.3"/>
		<path class="st52" d="M162.6,196.6c0,0-6.7,0.3-8.7-4.2c5.4,12,18.9,12.2,18.9,12.2c-5.9,3.9-5,10.2-5,10.2
			c0.2,7.6,9.4,9.3,9.4,9.3c-4.5,23.4,9.7,27.1,9.7,27.1c27.9,4.7,29.3-20.9,29.3-20.9c0.7-13.5-1.9-18.7-1.9-18.7
			c4.8,2.8,7.8-3.8,7.8-3.8c6.6-4.9,4-15.6,4-15.6c-1.4-6.1-7.1-6.1-7.1-6.1c8.3,1.4,11.3-7.1,11.3-7.1c1.9-7.1-3.8-12.7-3.8-12.7
			c7.8-1.3,12.3-9.7,12.3-9.7c8.3-19.6-6.8-24.9-6.8-24.9c4.5,0.1,4.7-5.1,4.7-5.1c-0.7-6.1-6.1-2.8-6.1-2.8
			c10.7-8.3,7.8-29.5,7.8-29.5c-3.5-18.6-19.8-16.1-19.8-16.1c3.3-2.4,3.8-10.4,3.8-10.4c-0.2-20.5-27.6-19.4-27.6-19.4
			c19.6,10.1,0.7,26.6,0.7,26.6c-3.6,5.7,7.2,9.1,7.2,9.1s1.4,11.3-32.4,10.6c0,0,11.5,8.4,35.9,8c-0.7,12.8,5.7,15.6,5.7,15.6
			c-5.4,2.3-7.1,11.6-7.1,11.6c-2.9,7.8,7.8,12.7,7.8,12.7c-3.4,5.6-9.1,7.4-9.1,7.4c-10.6,2.1-7.9,15.7-7.9,15.7
			c2.5,9.9,8.6,10.2,8.6,10.2c-8.2,5-3.8,13.3-3.8,13.3c-1.3,7.3-7.1,8.5-7.1,8.5s-10.3-1.1-14.3,3.6
			C178.9,201.3,175.5,194.2,162.6,196.6z"/>
		<path class="st53" d="M107.3,83.7c0,0,2.2-8.3,13.7-6.8c0,0,5.3,3.4-6.9,8.7C114.1,85.6,106.5,89.4,107.3,83.7z"/>
		<path class="st53" d="M127.5,74c0,0,0.3-9.5,10.6-9c0,0,3.1,1.2,0,4.5c0,0-1.6,1.9-1.5,4.5c0,0-0.3,3.8-4.3,3.8
			C132.3,77.8,127.8,77.8,127.5,74z"/>
		<path class="st54" d="M163.5,66.9c0,0,2.3,1.2,3.5,3.5c0,0,1.3,2.5,3.1,0.9c0,0,2-2.1,0-5.2c0,0-1.7-3.4-5.9-2.3
			C164.2,63.8,161.1,65,163.5,66.9z"/>
		<path class="st54" d="M188.9,51.8c0,0-10.4,0.6-9.7,13.1c0,0,1.2,2.3,3,2.8c0,0,2.7,1,3.2-2.8c0,0-0.3-6.6,1.5-7.6
			c0,0,4.2-1.5,4.8-3.4C191.6,53.9,192.7,51.4,188.9,51.8z"/>
		<path class="st55" d="M84.3,90.9c0,0-1.9-6.6,2.1-8.3c0,0,2.8-1.3,3,4.7c0,0,1.9,6,4.6,7c0,0,0.9,0.8,0,1.6c0,0-0.6,0.4-3.5-0.6
			C90.4,95.3,85.1,93.1,84.3,90.9z"/>
		<path class="st53" d="M74.1,92.9c0.6,1-0.9,2.1-0.9,2.1c-2.3,1-3.6,3.9-3.6,3.9c-0.6,1.4-1.6,2.4-1.6,2.4c-1.8,1.4-3,1.1-3,1.1
			c-2.1,0-2-2.7-2-2.7c0.5-4.2,3.9-6.2,3.9-6.2s2.7-1.6,5.3-1.5C72.2,91.9,73.4,91.9,74.1,92.9z"/>
		<path class="st53" d="M58.1,103.5c0,0-2.1,7,4.4,10.7c0,0,2.1,0.7,3.6,0c0,0,1.6-0.3,1.5-2.8c0,0-0.6-2.1-2.9-3.4
			c0,0-2.3-1.2-3-5.1c0,0-0.2-1.7-1.3-1.7C60.3,101.3,58.7,101.3,58.1,103.5z"/>
		<path class="st55" d="M79.7,98.5c0,0,2.1,5.1-1.8,7.2c0,0-1.8,0.8-2-1.1c0,0,0-1.1,0.7-2.2c0,0,0.8-1.5-0.1-3.5c0,0-0.4-1.4,1-1.7
			C77.5,97.2,79.2,96.9,79.7,98.5z"/>
		<path class="st55" d="M113.7,113.3c0,0,6,10,23.3,7.1c0,0,5.8-1.1,3.5-4.9c0,0-3-2.8-9.5-3.1c0,0-4.5-0.6-6-5.9
			c0,0-2.2-5.9-8.8-3.3C116.2,103.3,110,105.9,113.7,113.3z"/>
		<path class="st55" d="M115,90.3c0,0-7.8,1.7-8.8,11c0,0,0,2.3,1,2.3c0,0,1-0.2,2.1-2.8c0,0,2.3-5.5,5.7-6.1c0,0,4.4-0.4,4.7-2
			C119.7,92.8,120.9,89.3,115,90.3z"/>
		<path class="st55" d="M144.3,127.6c0,0-1.8,4.2,1.7,6c0,0,1.3,0.6,2-2.5c0,0,0.2-0.7,0-1.7c0,0-0.1-1,0-1.6c0,0,0.6-1.5-0.5-1.9
			C147.5,125.9,145.4,125.4,144.3,127.6z"/>
		<path class="st55" d="M145.5,140.2c0,0-0.2,3.6,3,4.5c0,0,2.3,0.5,4.5,0c0,0,4.2-0.9,5.8-0.9c0,0,1.5-0.5,0-2c0,0-1.9-1.1-5.6-1
			c0,0-2.8-0.2-3.8-1.8c0,0-0.5-1.5-2.7-1C146.7,138.1,145.3,138.7,145.5,140.2z"/>
		<path class="st55" d="M155.2,149.4c0,0,3.6-0.2,4.2,2.8c0,0,0.7,5.2-6.2,8.6c0,0-3.6,0.5-4.8-0.9c0,0-1.3-1.7,0.8-3.4
			c0,0,2.5-2.3,3.2-3.4C152.4,153.2,153.2,149.1,155.2,149.4z"/>
		<path class="st55" d="M164.2,146.9c0,0,0.8-1.8,4.5-2c0,0,3-0.1,2.3,2c0,0-0.2,1.8-3.3,2.5c0,0-2,1.8-3.5,1.6
			C164.2,151,161.9,150.1,164.2,146.9z"/>
		<path class="st55" d="M159.4,167.9c0,0-9.5,2.4-5.5,16.3c0,0,0.7,1.9,2.3,2.2c0,0,2.3,0.3,3.3-2.6c0,0,0.8-2.8,1.2-5.4
			c0,0,0.8-4,2.5-4.8c0,0,2.9-1.8,2-4.3C165.2,169.4,164.3,166.9,159.4,167.9z"/>
		<path class="st54" d="M175.2,85.4c0,0,3.8,3.8,9,3.8c0,0,5.7-0.4,7.4-2.3c0,0,3.5-2.5-2.9-7c0,0-3.7-1.3-9.6,0
			C179.2,79.9,172.5,81.9,175.2,85.4z"/>
		<path class="st54" d="M179.2,128.4c0,0,2.6,3.2,6.2,2.7c0,0,4.1-0.4,3.4-3.7c0,0,0.9-1.9-5.2-2.5
			C183.6,124.9,177.9,124.9,179.2,128.4z"/>
		<path class="st54" d="M188.9,107.9c0,0-1.2,7,3.8,10.5c0,0,3.8,1.8,7.1,1.3c0,0,3-0.7,2.2-5.9c0,0-1.5-4.1-4.4-5
			C197.6,108.8,188.9,104.5,188.9,107.9z"/>
		<path class="st54" d="M189.3,139.9c0,0,2.5,2.4,3.3,5c0,0,0.5,2.2,3,2c0,0,2.8,0.3,3.5-5.5c0,0,0.6-4.9-5-6.6c0,0-2.3-1-5.6,1.3
			C188.7,136.1,187.4,137.7,189.3,139.9z"/>
		<path class="st54" d="M182.2,181.7c0,0-2.2,5,1.4,11c0,0,2.5,2.2,4.7,1.5c0,0,2.1,0.2,3.2-6.2c0,0,0.9-4.8,2.3-6.3
			c0,0,2.9-5.2-2.3-6.8C191.5,174.9,185.5,173.2,182.2,181.7z"/>
		<path class="st56" d="M174.6,208.9c0,0-2.7,2.8,0,8.9c0,0,2.1,2.7,4.6,2c0,0,2.8-0.6,4.4-5.4c0,0,1.6-3.5,0-5.5
			C183.6,208.9,178.2,204.4,174.6,208.9z"/>
		<path class="st56" d="M189.6,219.6c0,0-1.3,1.3,0,4.3c0,0,1,1.3,2.2,1c0,0,1.4-0.3,2.1-2.6c0,0,0.8-1.7,0-2.7
			C194,219.6,191.4,217.4,189.6,219.6z"/>
		<path class="st56" d="M181.6,228.9c0,0-2.4,5.2,0,10c0,0,0.9,1.6,2.8,1.4c0,0,1.8,0,3-3.7c0,0,1.1-2.9,0-7.1c0,0-0.6-2.4-2.6-2.4
			C184.8,227,183,226.9,181.6,228.9z"/>
		<path class="st56" d="M205.8,189.3c0,0-1.7,5.8,2.2,9.3c0,0,3.3,3.3,4.8,5.2c0,0,2.2,1.8,4.2,0.9c0,0,2.5-1,1.7-5.8
			c0,0,0.1-4.3-5.1-6.8C213.7,192.1,206.2,185.6,205.8,189.3z"/>
		<path class="st56" d="M225,95.9c0,0-0.9,6.4,1.4,9.9c0,0,1.9,2.1,3.6,0.7c0,0,1.4-0.6,1.8-5.1c0,0,0.4-3.6-1.5-6.7
			c0,0-1.3-1.8-3.1-1.5C227.2,93.3,225.2,93.2,225,95.9z"/>
		<path class="st56" d="M214.7,125.9c0,0,1.1,5.3,8.1,5.3c0,0,2.4-0.3,2.8-1.1c0,0,1-1.2-0.8-2.4c0,0-4.1-2.4-4.5-4.1
			c0,0-0.9-2.4-2.8-2.1C217.5,121.4,213.8,121.6,214.7,125.9z"/>
		<path class="st56" d="M205.5,153.2c0,0-5.4,0.7-6.2,7.7c0,0,0.7,3.5,2.9,3.5c2.1,0,6.6,1.3,7-2.5
			C209.1,161.9,209.1,151.3,205.5,153.2z"/>
		<path class="st56" d="M217.5,84.3c0,0-5.1-0.1-6.7,7.7c0,0-1,3.5,1.4,3c0,0,5.5,1,7.6-2.4C219.7,92.6,223.2,85.8,217.5,84.3z"/>
		<path class="st55" d="M152.4,102.6c0,0,5.9,3.6,0.5,13.5c0,0-4.4,3.7-4.9-2.9c0,0-0.5-7.4-2-9.6C146,103.6,144.9,98.1,152.4,102.6
			z"/>
		<path class="st53" d="M171,156.5c0,0-0.5,6.3,5,7.6c0,0,1.5,0.2,0.9-2.4c0,0-1.1-3.2-1-5.1c0,0,0.6-3.8-3-3.6
			C172.9,153,170.7,153.5,171,156.5z"/>
		<path class="st56" d="M197.6,234.8c0,0-4.2,1.5-5.9,5.5c0,0-1.2,2.9,3.7,2.6c0,0,2.6,1.1,7.1-2.6
			C202.5,240.3,207.8,233.1,197.6,234.8z"/>
		<path class="st56" d="M204.2,170.6c0,0,1.3,3,4.9,2.2c0,0,3.1,0.1,3.1-3.8c0,0-0.7-4.3-5.2-2.5C207,166.4,203.7,167.2,204.2,170.6
			z"/>
		<path class="st56" d="M215.7,148c0,0-2.6,2.5-1.2,6.1c0,0,1,1.8,2.9,2.5c0,0,2.1,1.6,2.7,2.2c0,0,2.4,1,2.9-1.4
			c0,0,1.3-2.8-1.4-6.5C221.6,151,219.4,146.4,215.7,148z"/>
		<path class="st56" d="M208.2,129.8c0,0-1.3,0.6-1.4,2.8c0,0-0.1,2.2,1.4,3.3c0,0,1.3,0.9,2.5,0c0,0,0.7-1.6,1.6-2.9
			c0,0,1.5-1,1.3-1.9c0,0,0.2-1.6-2.4-2.4C211.1,128.8,209.3,128.3,208.2,129.8z"/>
		<path class="st56" d="M218.7,109c0,0-3.6,2.6-2.4,6.8c0,0,0.7,2,2.4,3.9c0,0,2.3,0.9,4.3,0c0,0,1.9-0.8,1.2-3.9
			c0,0-0.9-3.6-1.2-5.2C223.1,110.6,222.5,107.1,218.7,109z"/>
	</g>
</g>
</svg>
