<svg id="Anatomy_48_Circulatory_System" data-name="Anatomy 48_Circulatory System" xmlns="http://www.w3.org/2000/svg" viewbox="0 0 106.75 273.95" width="106.75" height="273.95"><defs><style>.cls-1{fill:#ffc5b5;stroke:none;}.cls-2{fill:#ffe2c4;stroke:none;}.cls-3{fill:#4b93ea;stroke:none;}.cls-4{fill:#ea342e;stroke:none;}.cls-5{fill:#ff4f54;stroke:none;}.cls-6{fill:none;stroke:#ea342e;stroke-miterlimit:10;}</style></defs><title>Anatomy 48_Circulatory System</title><path class="cls-1" d="M160.42,286.7c-.48,0-1,0-1.49,0h0c-.19,0-3.71-.08-5.08-3.1l0-.08,0-.08a18.56,18.56,0,0,1-.61-3.23,8.61,8.61,0,0,0-.5-2.49c-.48-.53-1.35-2-.5-5.64l0-.09,0-.09a6.17,6.17,0,0,0,.38-2.51,10.61,10.61,0,0,1,.26-5.6h0a33.71,33.71,0,0,0,.76-7.93c0-.11-.69-13.5-1.36-18.32-.07-.38-1.83-10.39.34-19.06,0-.77.32-6.14.11-10,0,0-.35-4.17-.57-9.51,0-.28-1.88-29.06-2.15-41.24-.27,12.18-2.13,41-2.15,41.26-.23,5.32-.57,9.48-.57,9.52-.21,3.82.07,9.18.11,10,2.17,8.67.41,18.68.33,19.1-.67,4.78-1.35,18.17-1.36,18.31a33.33,33.33,0,0,0,.77,7.95,10.51,10.51,0,0,1,.25,5.56,6.16,6.16,0,0,0,.38,2.51l0,.08,0,.1c.85,3.6,0,5.11-.5,5.64a8.91,8.91,0,0,0-.5,2.54,18.8,18.8,0,0,1-.6,3.18l0,.08,0,.08c-1.4,3.07-5,3.1-5.15,3.1-.45,0-.95,0-1.43,0a29.66,29.66,0,0,1-6.12-.64l-.08,0-.08,0a3.7,3.7,0,0,1-1.94-4.66l0-.06,0-.06a59.75,59.75,0,0,1,3.76-5.78,9.49,9.49,0,0,0,1.29-2.53,27.39,27.39,0,0,1,.25-4.36,45,45,0,0,0-.55-10.72c-3.4-10.79-6.16-24.52-6.19-24.66-1.27-5.77-.51-20.9-.48-21.54a31.64,31.64,0,0,0-.31-4.35c-1.62-3.7-1.53-13.28-1.52-13.69a150.14,150.14,0,0,0-2.16-17c-3.64-12.85-3.24-34.66-3.22-35.58.43-13.4,3.9-18.41,4.51-19.19a34.3,34.3,0,0,0,1.93-4.61,78.17,78.17,0,0,0,.92-11.82c-.12.52-.19.86-.21.92-.3,1.36-2.18,10.41-2.18,10.41a27.25,27.25,0,0,1-2.14,5.77c-.59,5.58-4,13.8-4.14,14.15l0,.1c-2,3.57-6.11,16-6.15,16.15a6.88,6.88,0,0,0-.39,2.4,15.88,15.88,0,0,1,.87,5.49c0,1.31-.08,5.67-.08,5.67,0,4.76-.51,5.95-1,6.48a1.38,1.38,0,0,1-1,.42,1.43,1.43,0,0,1-1-.45,1.76,1.76,0,0,1-.3-.38c-.09,1.39-.4,4-2.19,4a1.84,1.84,0,0,1-1.26-.56l0,0,0,0a1.87,1.87,0,0,1-.22-.39,1.76,1.76,0,0,1-1.46.8h-.15l-.07,0a1.49,1.49,0,0,1-1-.5,4.12,4.12,0,0,1-.67-2.52,2.36,2.36,0,0,1-1.78.85,1.77,1.77,0,0,1-.39,0l-.08,0-.07,0c-1.48-.59-1.48-2.39-1.24-3.36.37-2.37.64-4.33.82-5.74a3.5,3.5,0,0,1-2.09,1.13,6.73,6.73,0,0,1-1.08.1,2.13,2.13,0,0,1-1.95-.86,1.8,1.8,0,0,1-.06-1.7l0-.1.07-.09a23.7,23.7,0,0,0,2-3.57c1.12-2.5,3.09-5.87,3.18-6a9.08,9.08,0,0,1,4.42-4.15,1.81,1.81,0,0,0,.48-.35c.35-1,.94-2.7.94-2.7a122.27,122.27,0,0,0,2-13.46c.77-12.79,2.95-17.91,3-18.12a50.08,50.08,0,0,0,1.69-7.8c.91-11.56,1.52-14.51,1.73-15.23.46-4.29.38-11.17.37-11.94-1.11-7-.53-10.34-.5-10.48a13.44,13.44,0,0,1,10.62-10.23,72.47,72.47,0,0,0,13.36-8.51,8.27,8.27,0,0,0,1.7-6.3c-.73-2.12-1.19-3.79-1.45-4.82h-.09l-.11,0a3.11,3.11,0,0,1-2.19-2c-.34-1.23-1-3-1-3-1.49-4.7-.45-6,.07-6.4a1.88,1.88,0,0,1,1.18-.41h.1c-.18-1.74-.17-3.41-.16-3.5a11,11,0,0,1,2.93-8.19c3.3-3.36,8.19-3.45,8.53-3.45h.46c1.87,0,11.21.56,11.38,11.64a35.08,35.08,0,0,1-.16,3.51h.1a2,2,0,0,1,1.25.46c.46.31,1.5,1.65,0,6.31,0,.05-.65,1.82-1,3a3.12,3.12,0,0,1-2.2,2l-.11,0h-.09c-.26,1-.72,2.7-1.45,4.82a8.26,8.26,0,0,0,1.7,6.3,72.36,72.36,0,0,0,13.36,8.52c1.29.24,8.76,2,10.62,10.18,0,.18.62,3.57-.49,10.52,0,.77-.09,7.65.37,11.94.21.72.82,3.67,1.73,15.28h0a50.21,50.21,0,0,0,1.71,7.83c.06.13,2.24,5.25,3,18.08a122.2,122.2,0,0,0,2,13.51h0s.58,1.66.92,2.64a2.05,2.05,0,0,0,.48.33,9.09,9.09,0,0,1,4.42,4.15c.08.14,2.06,3.51,3.18,6a23.72,23.72,0,0,0,2,3.56l.07.09,0,.1a1.8,1.8,0,0,1-.06,1.7,2.12,2.12,0,0,1-1.95.86,6.74,6.74,0,0,1-1.08-.1A3.5,3.5,0,0,1,198,165c.19,1.42.46,3.4.84,5.82.27,1.22.11,2.92-1.26,3.47a1.71,1.71,0,0,1-.55.09,2.3,2.3,0,0,1-1.71-.81,3.58,3.58,0,0,1-.6,2.22,1.55,1.55,0,0,1-1.2.56h-.11a1.94,1.94,0,0,1-1.42-.8,1.16,1.16,0,0,1-.66.71,1.75,1.75,0,0,1-.79.19c-1.36,0-2.15-1.31-2.36-3.89a1.72,1.72,0,0,1-.36.46,1.41,1.41,0,0,1-1,.38,1.42,1.42,0,0,1-1-.44c-.55-.56-1.1-1.76-1-6.46h0s0-4.34-.08-5.66a15.87,15.87,0,0,1,.87-5.47,6.83,6.83,0,0,0-.38-2.39c0-.14-4.21-12.59-6.16-16.17l0,0,0,0c-.15-.35-3.55-8.57-4.14-14.15a27,27,0,0,1-2.13-5.71c0-.06-1.9-9.11-2.2-10.48l-.21-.9a78.29,78.29,0,0,0,.92,11.82,34.4,34.4,0,0,0,1.93,4.61c.61.78,4.08,5.79,4.51,19.18,0,.93.42,22.75-3.24,35.68a151.72,151.72,0,0,0-2.14,17c0,.34.1,9.92-1.52,13.63a31.69,31.69,0,0,0-.31,4.41c0,.59.79,15.72-.48,21.51,0,.12-2.78,13.85-6.19,24.64a45.12,45.12,0,0,0-.55,10.78,26.87,26.87,0,0,1,.24,4.29,9.4,9.4,0,0,0,1.26,2.49,59.88,59.88,0,0,1,3.79,5.82l0,.06,0,.06A3.7,3.7,0,0,1,166.7,286l-.08,0-.08,0A29.68,29.68,0,0,1,160.42,286.7Z" transform="translate(-96.63 -12.75)"/><path class="cls-2" d="M139.35,24.41a27.82,27.82,0,0,0,.47,5.37s-1.07-1.42-2-.64c0,0-1.12.77.3,5.24,0,0,.64,1.8,1,3a2.12,2.12,0,0,0,1.46,1.33.87.87,0,0,0,.69-.34A52,52,0,0,0,143,44.33s.77,4.25-2,7.26a71.67,71.67,0,0,1-13.74,8.76,12.34,12.34,0,0,0-10,9.44s-.6,3.31.52,10.22c0,0,.13,7.6-.39,12.24,0,0-.64,1.55-1.72,15.15a50.79,50.79,0,0,1-1.76,8.07s-2.19,5-3,17.82A122,122,0,0,1,108.92,147s-.64,1.87-1,2.85a2.23,2.23,0,0,1-1,.8s-2.1.6-3.95,3.73c0,0-2,3.43-3.13,5.92a25.51,25.51,0,0,1-2.15,3.78s-.73,1.5,2.06,1c0,0,1.5-.09,2.36-2.23,0,0,.6-1,1.16-.34,0,0-.34,3.13-1.16,8.41,0,0-.43,1.76.64,2.19,0,0,1.47.33,1.86-2.17,0,0,.89-8.37,1.58-7.19,0,0,.17,1.16-.43,8.24,0,0-.33,3.29.73,3.31,0,0,1.24.37,1.55-3.35,0,0,.43-6.93.69-6.78,0,0,.21-.16,0,7,0,0-.21,2.4.3,3.09,0,0,1.5,1.57,1.75-3.21a75.44,75.44,0,0,1,.69-7.53s.43-.69.86,6.4c0,0,.06.93.43,1.24,0,0,1.37,1.67,1.33-5.75,0,0,0-4.38.09-5.71a14.94,14.94,0,0,0-.86-5.24,7.53,7.53,0,0,1,.43-2.92S118,140,120,136.29c0,0,3.57-8.59,4.09-14.08a23.22,23.22,0,0,0,2.14-5.67s1.89-9.06,2.19-10.43A69.86,69.86,0,0,0,130,96.84s.56-.87.56,4.74a88.91,88.91,0,0,1-.92,15.91,34.87,34.87,0,0,1-2.06,4.92s-3.89,4.46-4.35,18.66c0,0-.46,22.44,3.21,35.37a150,150,0,0,1,2.18,17.17s-.11,10,1.49,13.39a31.75,31.75,0,0,1,.34,4.69s-.8,15.57.46,21.29c0,0,2.75,13.74,6.18,24.61a45.55,45.55,0,0,1,.57,11.1,26,26,0,0,0-.23,4.35,10.83,10.83,0,0,1-1.49,3,60.68,60.68,0,0,0-3.66,5.61s-.8,2.52,1.37,3.43a28.75,28.75,0,0,0,7.33.57s3.09,0,4.24-2.52a19.5,19.5,0,0,0,.57-3,9.33,9.33,0,0,1,.69-3.09s1.26-.92.34-4.81a7,7,0,0,1-.46-3.09,9.26,9.26,0,0,0-.23-5.15,34.23,34.23,0,0,1-.8-8.24s.69-13.51,1.37-18.43c0,0,1.83-10.19-.34-18.77,0,0-.34-6-.11-10.19,0,0,.34-4.12.57-9.5,0,0,2.06-31.71,2.18-42.82a4.7,4.7,0,0,0,1.95,0c.11,11.1,2.18,42.82,2.18,42.82.23,5.38.57,9.5.57,9.5.23,4.24-.11,10.19-.11,10.19-2.18,8.59-.34,18.77-.34,18.77.69,4.92,1.37,18.43,1.37,18.43a34.23,34.23,0,0,1-.8,8.24,9.26,9.26,0,0,0-.23,5.15,7,7,0,0,1-.46,3.09c-.92,3.89.34,4.81.34,4.81a9.33,9.33,0,0,1,.69,3.09,19.5,19.5,0,0,0,.57,3c1.14,2.52,4.24,2.52,4.24,2.52a28.75,28.75,0,0,0,7.33-.57c2.18-.92,1.37-3.43,1.37-3.43A60.68,60.68,0,0,0,164,276a10.83,10.83,0,0,1-1.49-3,26,26,0,0,0-.23-4.35,45.55,45.55,0,0,1,.57-11.1c3.43-10.88,6.18-24.61,6.18-24.61,1.26-5.72.46-21.29.46-21.29a31.75,31.75,0,0,1,.34-4.69c1.6-3.43,1.49-13.39,1.49-13.39a150,150,0,0,1,2.18-17.17c3.66-12.94,3.21-35.37,3.21-35.37-.46-14.2-4.35-18.66-4.35-18.66a34.87,34.87,0,0,1-2.06-4.92,88.91,88.91,0,0,1-.92-15.91c0-5.61.56-4.74.56-4.74a69.86,69.86,0,0,0,1.59,9.27c.3,1.37,2.19,10.43,2.19,10.43a23.22,23.22,0,0,0,2.14,5.67c.52,5.5,4.09,14.08,4.09,14.08,2,3.69,6.22,16.31,6.22,16.31a7.53,7.53,0,0,1,.43,2.92,14.94,14.94,0,0,0-.86,5.24c0,1.33.09,5.71.09,5.71-.13,7.27,1.33,5.75,1.33,5.75.33-.29.43-1.24.43-1.24.43-7.08.86-6.4.86-6.4a69.88,69.88,0,0,1,.69,7.17c.17,4.55,1.76,3.56,1.76,3.56.54-.23.3-3.09.3-3.09-.86-8.71,0-7,0-7,.3,1.37.69,6.78.69,6.78.3,3.43,1.55,3.35,1.55,3.35,1.26.09.73-3.31.73-3.31-1.57-9.07-.43-8.24-.43-8.24.64,1.12,1.33,6.83,1.33,6.83.62,3.16,2.1,2.73,2.1,2.73,1.07-.43.64-2.39.64-2.39-.82-5.28-1.16-8.41-1.16-8.41.56-.69,1.16.34,1.16.34.86,2.15,2.36,2.23,2.36,2.23,2.79.47,2.06-1,2.06-1a25.51,25.51,0,0,1-2.15-3.78c-1.12-2.49-3.13-5.92-3.13-5.92-1.85-3.13-3.95-3.73-3.95-3.73a2.23,2.23,0,0,1-1-.8c-.34-1-1-2.85-1-2.85A122,122,0,0,1,189,133.28c-.77-12.79-3-17.82-3-17.82a50.79,50.79,0,0,1-1.76-8.07c-1.07-13.61-1.72-15.15-1.72-15.15-.52-4.64-.39-12.24-.39-12.24,1.12-6.91.52-10.22.52-10.22a12.34,12.34,0,0,0-10-9.44A71.67,71.67,0,0,1,159,51.59c-2.75-3-2-7.26-2-7.26a52,52,0,0,0,1.72-5.92.87.87,0,0,0,.69.34,2.12,2.12,0,0,0,1.46-1.33c.34-1.24,1-3,1-3,1.42-4.46.3-5.24.3-5.24-.94-.77-2,.64-2,.64a27.82,27.82,0,0,0,.47-5.37c-.17-11.45-10.82-10.65-10.82-10.65S139.18,13.75,139.35,24.41Z" transform="translate(-96.63 -12.75)"/><path class="cls-3" d="M157,140a1.24,1.24,0,0,1-.84-.34c-.92-.92-.81-5.24-.78-6.09l.69,0c-.07,2,.06,5.06.58,5.58a.54.54,0,0,0,.47.12c.27-.07.79-.44,1.32-2.13.06-.26,1.69-6.84,2.79-8.5a31.58,31.58,0,0,1,5.61-5.41l.09-.07h2.1v.69h-1.87a31,31,0,0,0-5.37,5.19c-1,1.54-2.67,8.22-2.68,8.29-.49,1.56-1.1,2.43-1.83,2.61A1.15,1.15,0,0,1,157,140Z" transform="translate(-96.63 -12.75)"/><path class="cls-4" d="M154.13,138.74l-.53-.43a7.76,7.76,0,0,0,1.48-5.69l.68-.12A8.32,8.32,0,0,1,154.13,138.74Z" transform="translate(-96.63 -12.75)"/><path class="cls-4" d="M151.54,124.94l-2.74-.14c.34-6.59.6-32.46.6-32.72l2.75,0C152.14,93.17,151.88,118.29,151.54,124.94Z" transform="translate(-96.63 -12.75)"/><path class="cls-4" d="M148.91,79.66l-2.05-.17c.06-.69.66-6.79,3.88-8.06a5.32,5.32,0,0,1,5.32.64l-1.13,1.72a3.28,3.28,0,0,0-3.27-.52l-.14.07C149.91,73.93,149.07,77.86,148.91,79.66Z" transform="translate(-96.63 -12.75)"/><path class="cls-4" d="M137.73,113.93l-.54-2c2.26-.61,8.92-1.61,9.2-1.66l.31,2C146.64,112.33,139.88,113.35,137.73,113.93Z" transform="translate(-96.63 -12.75)"/><path class="cls-3" d="M153.57,78.89l-2-.24a8.81,8.81,0,0,1,.7-2.67,3.89,3.89,0,0,1,5.09-1.83l.14.06A25.62,25.62,0,0,1,160,75.75l-1.2,1.67a23,23,0,0,0-2.26-1.34c-1.84-.59-2.42.63-2.48.77L154,77A6.86,6.86,0,0,0,153.57,78.89Z" transform="translate(-96.63 -12.75)"/><path class="cls-3" d="M146.88,70.71c-1.31-7-4.28-8.62-4.55-8.76a21.37,21.37,0,0,1-4.12-2l1.11-1.74A19.5,19.5,0,0,0,143,60c.23.09,4.28,1.79,5.88,10.32Z" transform="translate(-96.63 -12.75)"/><path class="cls-3" d="M144.84,62.5l-1.7-1.17a9.2,9.2,0,0,0,1.05-2.49,33.34,33.34,0,0,0-.36-6.48l2-.28c.07.54.69,5.29.33,7.2A11.38,11.38,0,0,1,144.84,62.5Z" transform="translate(-96.63 -12.75)"/><path class="cls-3" d="M148.63,127.55l-2.75,0c0-.14.19-14.65-.53-30.14-.06-.85-1.35-21.52,1.39-28.71l2.57,1c-2.53,6.64-1.23,27.38-1.21,27.59C148.82,112.82,148.63,127.4,148.63,127.55Z" transform="translate(-96.63 -12.75)"/><path class="cls-4" d="M150.66,73.4,149.34,73a12.15,12.15,0,0,0,.45-3.26,8.89,8.89,0,0,0-1.6-5.5,10.6,10.6,0,0,1-1.64-3.06c-1.87-5-1.3-17.82-1.27-18.36l1.37.06c0,.13-.59,13.05,1.19,17.84a9.38,9.38,0,0,0,1.39,2.63,10.16,10.16,0,0,1,1.92,6.38A13.42,13.42,0,0,1,150.66,73.4Z" transform="translate(-96.63 -12.75)"/><path class="cls-4" d="M153.24,71.5l-1.37-.07a7.23,7.23,0,0,1,.42-2.11l1.28.51-.64-.25.64.25A6,6,0,0,0,153.24,71.5Z" transform="translate(-96.63 -12.75)"/><path class="cls-3" d="M143,138.89l-1.92-.74a19.76,19.76,0,0,1,3.65-5.89h0s2-2.44,2-7.4h2.06c0,5.81-2.4,8.67-2.5,8.79A18.05,18.05,0,0,0,143,138.89Z" transform="translate(-96.63 -12.75)"/><path class="cls-3" d="M161.25,153.23c0-.13-.39-12.59-4.49-17.58-.05-.06-4.73-5.81-7.38-7.82l-.08-.07a11.29,11.29,0,0,1-3.12-6.19l2-.3a9.37,9.37,0,0,0,2.45,4.95c2.86,2.19,7.48,7.87,7.68,8.12,4.55,5.53,4.94,18.28,5,18.82Z" transform="translate(-96.63 -12.75)"/><path class="cls-4" d="M155.3,72.19l-1.37-.07a3.61,3.61,0,0,1,1.32-2.39l.85,1.08A2.23,2.23,0,0,0,155.3,72.19Z" transform="translate(-96.63 -12.75)"/><path class="cls-4" d="M139.75,144.27l-2-.51a61.71,61.71,0,0,1,4-11.19,32.51,32.51,0,0,1,5.29-6.77,9,9,0,0,0,2.08-4.77h2.06c.27,4.25,4.93,8.44,5,8.48a20.86,20.86,0,0,1,5.47,9.11l-2,.5a19.05,19.05,0,0,0-4.87-8.09,21.32,21.32,0,0,1-4.64-6.18,10.57,10.57,0,0,1-1.55,2.34l-.05.06a31.35,31.35,0,0,0-4.92,6.25A60.83,60.83,0,0,0,139.75,144.27Z" transform="translate(-96.63 -12.75)"/><path class="cls-4" d="M160.12,112.67c-7.82-.68-9.69-1.87-10-2.1l.64-.81.6-.84c.07,0,1.72,1.07,8.93,1.7Z" transform="translate(-96.63 -12.75)"/><path class="cls-3" d="M138.6,118.49l-1.41-1.5a13.43,13.43,0,0,1,4-2.37c-2.2.27-3.93.37-4.08.37l-.11-2.06c.08,0,7.7-.44,11.25-1.94l1.43-.6v4.07l-.86.14C148.72,114.61,141.42,115.84,138.6,118.49Z" transform="translate(-96.63 -12.75)"/><path class="cls-3" d="M163.42,115.24a93.36,93.36,0,0,0-11.55-.44l-1.07,0,.06-3.33,1,0c2.37-.07,8.94-.41,10.85-1.13l.73,1.93a14.83,14.83,0,0,1-2.92.63c1.14.07,2.24.17,3.21.31Z" transform="translate(-96.63 -12.75)"/><path class="cls-3" d="M158.72,116.61a9.73,9.73,0,0,0-3.55-2.2l.48-1.29c.31.12,3.05,1.18,4.17,2.67Z" transform="translate(-96.63 -12.75)"/><path class="cls-4" d="M143.8,112.08a8.52,8.52,0,0,1-4.57-1.73l.85-1.08s2.21,1.71,4.2,1.41l.2,1.36A4.59,4.59,0,0,1,143.8,112.08Z" transform="translate(-96.63 -12.75)"/><path class="cls-3" d="M148.52,72.2l-2-.37A17.59,17.59,0,0,1,148,67l.05-.08a14.3,14.3,0,0,1,8.39-6.1,16.11,16.11,0,0,1,9.16.65l.08,0a12.66,12.66,0,0,1,2.93,2.25l-1.45,1.46a11.29,11.29,0,0,0-2.37-1.86,14.14,14.14,0,0,0-7.86-.55l-.07,0A12.4,12.4,0,0,0,149.82,68,16.31,16.31,0,0,0,148.52,72.2Z" transform="translate(-96.63 -12.75)"/><path class="cls-3" d="M144.62,77.5a2.14,2.14,0,0,1-1.09-.27,1.83,1.83,0,0,1-.89-1.38,5.9,5.9,0,0,0-2.6-3.79l.69-1.19A7.23,7.23,0,0,1,144,75.69a.47.47,0,0,0,.22.36c.17.09.7.23,2-.4l.59,1.24A5.39,5.39,0,0,1,144.62,77.5Z" transform="translate(-96.63 -12.75)"/><path class="cls-3" d="M154.3,62.21a97.38,97.38,0,0,1-.69-15.76v-.07c.61-4.3-.22-5.58-.23-5.59l1.08-.84c.2.25,1.19,1.76.51,6.59A95.41,95.41,0,0,0,155.66,62Z" transform="translate(-96.63 -12.75)"/><path class="cls-3" d="M158.39,62,157,61.86c.22-2.37-.82-7.46-.83-7.51-1.21-6.23.4-17,.47-17.5L158,37c0,.11-1.64,11-.48,17C157.59,54.28,158.63,59.41,158.39,62Z" transform="translate(-96.63 -12.75)"/><path class="cls-3" d="M160.66,216.36a13.14,13.14,0,0,1,.55-6.75h0s.57-1.61,1.36-3.84c0-.06,1-2.41.71-7.56a73,73,0,0,1,.29-10.5c0-.13,1.77-11.31,0-28.35a45.14,45.14,0,0,0-1.92-7.78l1.26-.55a45.35,45.35,0,0,1,2,8.15c1.8,17.27,0,28.61,0,28.72a73,73,0,0,0-.28,10.24c.29,5.51-.75,8-.8,8.12-.78,2.21-1.36,3.82-1.36,3.82a12,12,0,0,0-.49,6Z" transform="translate(-96.63 -12.75)"/><path class="cls-3" d="M157.74,210.19a4.46,4.46,0,0,0-1.3-2.28,4.17,4.17,0,0,1-2.32-2l0-.09c-1.42-4.33,1.35-10.46,1.47-10.72.72-1.52.92-5.46.94-6.85a4.74,4.74,0,0,0-.68-3.09l-.07-.1a8.26,8.26,0,0,1-1.19-4.72c.1-1.31,1.89-2.68,2.25-2.94,2-1.53,1.62-4.81,1.61-4.85v-.09a23.66,23.66,0,0,1,.71-5.41,106.34,106.34,0,0,0,2.17-17.89l1.37,0a107.74,107.74,0,0,1-2.21,18.19,22.76,22.76,0,0,0-.67,5c.06.51.4,4.16-2.16,6.08-.67.49-1.66,1.45-1.7,2a7.08,7.08,0,0,0,1,3.87,6.16,6.16,0,0,1,.93,3.93c0,.18-.07,5.29-1.07,7.38,0,0-2.64,5.84-1.43,9.65a2.78,2.78,0,0,0,1.58,1.24l.16.07a5.24,5.24,0,0,1,1.95,3.11Z" transform="translate(-96.63 -12.75)"/><path class="cls-3" d="M162.94,212.67a7.9,7.9,0,0,1-4.33-1.3l-.09-.08a3.77,3.77,0,0,1-1.18-2.87,5.64,5.64,0,0,1,1.92-3.54l.07,0a8,8,0,0,0,2.08-2c.83-1.3,1.54-1.94,2.23-2a1,1,0,0,1,.75.2c2.43,1.61,3.5,6.22,3.54,6.41a3.59,3.59,0,0,1-2,4.66A7.77,7.77,0,0,1,162.94,212.67Zm-3.48-2.38a6.52,6.52,0,0,0,6,.49c.21-.08,1.8-.76,1.15-3-.27-1.2-1.3-4.42-2.89-5.55a4.12,4.12,0,0,0-1.15,1.35,9.4,9.4,0,0,1-2.44,2.41,4.23,4.23,0,0,0-1.41,2.54A2.4,2.4,0,0,0,159.46,210.29Z" transform="translate(-96.63 -12.75)"/><path class="cls-3" d="M161.58,217.4a5.35,5.35,0,0,1-4.24-1.55,4.88,4.88,0,0,1-.89-4,3.88,3.88,0,0,1,1.58-2.4l.72,1.17a2.53,2.53,0,0,0-1,1.51,3.55,3.55,0,0,0,.59,2.86c.77.88,2.21,1.22,4.28,1,.09,0,2.71-.38,2.7-2.23a5.36,5.36,0,0,0-.29-2.06l1.27-.53a6.64,6.64,0,0,1,.4,2.63c0,2.4-2.56,3.38-3.92,3.56Q162.17,217.4,161.58,217.4Z" transform="translate(-96.63 -12.75)"/><path class="cls-3" d="M163,246.55c-.49-2.94-5.2-7.45-5.25-7.5-.89-.93.34-2.43.62-2.75a10.79,10.79,0,0,0,.18-4,14.4,14.4,0,0,1,0-5.45,29.75,29.75,0,0,0,1.19-6,35.54,35.54,0,0,1,1-5.65l.65.22a35.69,35.69,0,0,0-1,5.51,29.63,29.63,0,0,1-1.23,6.2h0a14.44,14.44,0,0,0,0,5.14c0,.13.35,3-.25,4.4l-.06.09c-.39.43-1.07,1.44-.68,1.85.19.18,4.91,4.7,5.44,7.87Z" transform="translate(-96.63 -12.75)"/><path class="cls-3" d="M161.64,281.44c-.13-1,.88-2.42,1.14-2.77.73-3.31-2.44-5.91-2.47-5.94l-.06-.07a3.39,3.39,0,0,1-.53-2.7c.58-1.83.46-9.36.46-9.44a12.08,12.08,0,0,1,1.06-5l0-.07a5.1,5.1,0,0,0,.74-2.22,26.79,26.79,0,0,1,.74-5c1.81-10.53.14-23.7.12-23.83a42,42,0,0,0-1.21-5.57,33.91,33.91,0,0,1-.87-4.49l.68-.07a35.19,35.19,0,0,0,.83,4.33,44.31,44.31,0,0,1,1.25,5.7c0,.14,1.71,13.41-.13,24.07a26.93,26.93,0,0,0-.73,4.92,6,6,0,0,1-.87,2.59,11.66,11.66,0,0,0-1,4.62c0,.31.12,7.71-.49,9.63h0a2.75,2.75,0,0,0,.4,2.06c.4.34,3.52,3.06,2.66,6.67l-.06.13a4.61,4.61,0,0,0-1,2.32Z" transform="translate(-96.63 -12.75)"/><path class="cls-3" d="M154.9,262.4l-.19-.66a5.79,5.79,0,0,0,1.13-.48,5.12,5.12,0,0,0,2.39-1.69,11.12,11.12,0,0,0,.1-3.31c-.32-3.95-.07-4.63.08-4.8a4.44,4.44,0,0,0,.61-1.86,60.77,60.77,0,0,0,0-9.4l.68-.06a61.48,61.48,0,0,1,0,9.52,5.08,5.08,0,0,1-.75,2.22c0,.1-.22.84.06,4.33.05.71.19,3.08-.2,3.72a5.56,5.56,0,0,1-2.68,1.95h0A5.92,5.92,0,0,1,154.9,262.4Z" transform="translate(-96.63 -12.75)"/><path class="cls-3" d="M160.22,281.9a5.84,5.84,0,0,0-2.54-2.08l-.08,0a3.51,3.51,0,0,1-.91-2.42,11.28,11.28,0,0,0-.49-2.12,21.29,21.29,0,0,0-1.67-2.74,4.64,4.64,0,0,1,0-4.21c.08-.22.54-1.52.95-2.4h0a4.57,4.57,0,0,0,.16-2.33,5.08,5.08,0,0,1,.08-2.08l.66.18a4.47,4.47,0,0,0-.08,1.74,5.15,5.15,0,0,1-.19,2.75c-.43.95-.94,2.39-.94,2.4a3.93,3.93,0,0,0,0,3.6,20.42,20.42,0,0,1,1.72,2.84,11.59,11.59,0,0,1,.54,2.35,2.91,2.91,0,0,0,.62,1.88,6.38,6.38,0,0,1,2.83,2.36Z" transform="translate(-96.63 -12.75)"/><path class="cls-3" d="M154,279.24c0-.13-.36-3.29,1.12-4.9a2.9,2.9,0,0,1,2.31-.93,16.31,16.31,0,0,0,3,0,2.09,2.09,0,0,1,1.67.21,2.47,2.47,0,0,1,.95,2l-.68.05a1.85,1.85,0,0,0-.64-1.48,1.46,1.46,0,0,0-1.12-.12,15.94,15.94,0,0,1-3.22,0,2.21,2.21,0,0,0-1.77.7c-1.27,1.39-1,4.33-.95,4.36Z" transform="translate(-96.63 -12.75)"/><path class="cls-3" d="M160.27,263.77a10,10,0,0,0-3.34-2.37l.21-.65a10.5,10.5,0,0,1,3.64,2.56Z" transform="translate(-96.63 -12.75)"/><path class="cls-3" d="M160.05,268a4.35,4.35,0,0,0-1.44-1.81c-.14-.1-1-.79-1.14-3.2a13.74,13.74,0,0,0,0-1.53l.69,0a13.23,13.23,0,0,1,0,1.58c.11,2,.82,2.61.83,2.62a4.92,4.92,0,0,1,1.7,2.12Z" transform="translate(-96.63 -12.75)"/><path class="cls-3" d="M163.64,281.89a7.77,7.77,0,0,0-2.29-2.44,7.45,7.45,0,0,1-2.12-2.91c-1.82-5,.51-6.68.61-6.76l.4.56-.2-.28.2.28c-.08.06-2,1.53-.36,6a6.84,6.84,0,0,0,1.87,2.59,8.3,8.3,0,0,1,2.5,2.69Z" transform="translate(-96.63 -12.75)"/><path class="cls-3" d="M154.76,282.67a3.53,3.53,0,0,1,.57-2.63,4.57,4.57,0,0,1,3.41-1.65c.21,0,5.74-1,7.6,1.47l-.55.41c-1.61-2.16-6.89-1.21-6.95-1.2a4,4,0,0,0-3,1.36,2.88,2.88,0,0,0-.46,2.09Z" transform="translate(-96.63 -12.75)"/><path class="cls-3" d="M161.21,255.77c-.16-1.1-2.06-3.15-2.77-3.84l.48-.49c.28.27,2.75,2.7,3,4.23Z" transform="translate(-96.63 -12.75)"/><path class="cls-3" d="M162.45,250.76a4.87,4.87,0,0,0-2.94-1.83l.11-.68a5.51,5.51,0,0,1,3.4,2.12Z" transform="translate(-96.63 -12.75)"/><path class="cls-3" d="M165.79,234.64c-2-2.59-3.83-2.87-3.85-2.87a6.33,6.33,0,0,1-3.21-.69l.34-.6a6,6,0,0,0,2.9.6c.14,0,2.2.3,4.37,3.14Z" transform="translate(-96.63 -12.75)"/><path class="cls-3" d="M158.93,230h-.07l0-.69a3.84,3.84,0,0,0,2.41-1.12l.07,0a2.79,2.79,0,0,1,2.4-.09l-.37.58c-.57-.36-1.51,0-1.7.11A4.54,4.54,0,0,1,158.93,230Z" transform="translate(-96.63 -12.75)"/><path class="cls-3" d="M157.21,186.68l-.35-.59a31,31,0,0,0,4.29-3.81,8.31,8.31,0,0,0,.49-5.54,3.39,3.39,0,0,1-.33-2.61,2.24,2.24,0,0,1,1-1.21,7.26,7.26,0,0,0,2.33-3.61l.67.15a7.87,7.87,0,0,1-2.59,4l-.06,0c-.06,0-1.44.76-.36,3a8.8,8.8,0,0,1-.55,6.16l0,.07A31.52,31.52,0,0,1,157.21,186.68Z" transform="translate(-96.63 -12.75)"/><path class="cls-3" d="M164.14,186.71a6,6,0,0,0-1.81-1.69,4.54,4.54,0,0,1-1.89-1.64L161,183a3.94,3.94,0,0,0,1.59,1.4,6.58,6.58,0,0,1,2.1,1.92Z" transform="translate(-96.63 -12.75)"/><path class="cls-3" d="M154,193.56c-.1-4.59,2.93-5.54,3.06-5.57l.2.66c-.11,0-2.66.86-2.57,4.9Z" transform="translate(-96.63 -12.75)"/><path class="cls-3" d="M155.83,207.06l-.11-.68a3.08,3.08,0,0,0,2.83-2.79v-7.8a10.5,10.5,0,0,1,1.9-4.5,10,10,0,0,0,.65-7.18l.65-.23a10.53,10.53,0,0,1-.71,7.77,10.13,10.13,0,0,0-1.8,4.17v7.78A3.8,3.8,0,0,1,155.83,207.06Z" transform="translate(-96.63 -12.75)"/><path class="cls-3" d="M167.34,192.12l-.69,0c.17-3,0-7.17,0-7.21a40.23,40.23,0,0,0-1.92-5.48l.63-.27a39.43,39.43,0,0,1,2,5.67C167.35,184.88,167.51,189.13,167.34,192.12Z" transform="translate(-96.63 -12.75)"/><path class="cls-3" d="M168.29,198.84l-.68-.09c.79-5.66-.7-6.32-.71-6.32-2.68-1.29-2.81-3-2.81-3.05l.69,0c0,.06.13,1.38,2.38,2.46C167.31,191.83,169.16,192.55,168.29,198.84Z" transform="translate(-96.63 -12.75)"/><path class="cls-3" d="M168,193.2l-.52-.45a6.39,6.39,0,0,0,1-1.91,4.58,4.58,0,0,0-.13-2.42c-.41-4.34-.33-7,.21-7.41a5.18,5.18,0,0,0,1.49-3.5,32.47,32.47,0,0,0-2.14-5.7c-.74-1.5-.76-4.89-.77-5a8.54,8.54,0,0,0,0-2.92,10,10,0,0,0-1.62-2.08c-.63-.56-.35-3.51-.21-4.75.37-3.36-.37-3.85-.37-3.86l-.08,0,0-.05a28.1,28.1,0,0,1-2.86-4.69,17.28,17.28,0,0,1-2.93,2.85c-1.15.74-.86,2.57-.86,2.59l-.68.11c0-.09-.36-2.29,1.14-3.26a14.6,14.6,0,0,0,3.07-3.14L162,147l.29.59a33.78,33.78,0,0,0,3,5c.36.2,1.09,1,.7,4.53-.24,2-.24,3.91,0,4.17a10.26,10.26,0,0,1,1.79,2.35,8.48,8.48,0,0,1,0,3.19h0s0,3.33.7,4.7c.09.2,2.12,4.63,2.21,6a5.84,5.84,0,0,1-1.75,4.06s-.51.88,0,6.75a5,5,0,0,1,.1,2.79A6.86,6.86,0,0,1,168,193.2Z" transform="translate(-96.63 -12.75)"/><rect class="cls-3" x="166.57" y="121.42" width="0.69" height="2.17" transform="translate(-113.48 14.37) rotate(-8.85)"/><path class="cls-3" d="M172.24,173.12h-.69c0-2.17-.82-2.6-.83-2.61l-.1-.07a2.51,2.51,0,0,1-.61-2.21,33.83,33.83,0,0,0,0-6.77c-.92-1.85-4.54-4.09-4.57-4.11l.36-.58c.16.1,3.88,2.39,4.85,4.44l0,.07c0,.07.35,1.65,0,7.05a1.91,1.91,0,0,0,.38,1.59C171.36,170.08,172.24,170.77,172.24,173.12Z" transform="translate(-96.63 -12.75)"/><path class="cls-3" d="M171,168.69a6.3,6.3,0,0,1-.69,0l.08-.68a3.71,3.71,0,0,0,2.1-.25c.85-.32.94-2.43.86-3.41l.68-.05c0,.36.24,3.54-1.25,4.08h0A3.68,3.68,0,0,1,171,168.69Z" transform="translate(-96.63 -12.75)"/><path class="cls-3" d="M174.06,172.39l-.68-.08a2.19,2.19,0,0,0-1.11-2.22A2.13,2.13,0,0,1,171,168l.69,0a1.45,1.45,0,0,0,.84,1.43A2.84,2.84,0,0,1,174.06,172.39Z" transform="translate(-96.63 -12.75)"/><path class="cls-3" d="M164.74,147.15l-.64-.25a5.38,5.38,0,0,1,1.31-2h0c.07-.16.29-1-.15-4.57h0a1.38,1.38,0,0,1,.17-1,2.8,2.8,0,0,1,1.91-1.16h.08a1.09,1.09,0,0,0,.71-.39,3.64,3.64,0,0,0,.57-2.76c0-.51.25-2,1-2.32l.27.63c-.24.1-.49,1-.57,1.69a4.22,4.22,0,0,1-.76,3.24,1.76,1.76,0,0,1-1.15.59,2.18,2.18,0,0,0-1.44.82.75.75,0,0,0-.1.53c.56,4.53.13,5,0,5.19l-.1.12h-.06A4.86,4.86,0,0,0,164.74,147.15Z" transform="translate(-96.63 -12.75)"/><path class="cls-3" d="M169.19,135.32l-.26-.64a10,10,0,0,1,3.62-.54l0,.69A9.5,9.5,0,0,0,169.19,135.32Z" transform="translate(-96.63 -12.75)"/><path class="cls-3" d="M172.81,135.88a1.85,1.85,0,0,1-.86-1.43,2.41,2.41,0,0,1,.85-1.69l.44.52a1.74,1.74,0,0,0-.6,1.14,1.21,1.21,0,0,0,.58.9Z" transform="translate(-96.63 -12.75)"/><path class="cls-3" d="M172.72,156.24c-.74-1.23-2.83-1.06-2.85-1.07h-.16l-.11-.11a14.21,14.21,0,0,1-2.14-3.63,26.36,26.36,0,0,0-2.1-3.53,4.27,4.27,0,0,0-3.32-1l-.11-.68a4.9,4.9,0,0,1,3.94,1.21,25.63,25.63,0,0,1,2.21,3.69,14.81,14.81,0,0,0,1.89,3.33c.59,0,2.51,0,3.33,1.41Z" transform="translate(-96.63 -12.75)"/><path class="cls-3" d="M170,157.22a5.73,5.73,0,0,1-.55-2.39h.69a5.12,5.12,0,0,0,.48,2.08Z" transform="translate(-96.63 -12.75)"/><path class="cls-3" d="M174,160.58a2.89,2.89,0,0,0-1.76-1.37c-.12,0-1.37-.49-.67-2.67h0a2.88,2.88,0,0,0-.17-1.31l.62-.3a3.48,3.48,0,0,1,.22,1.76c-.49,1.56.16,1.86.16,1.86a3.49,3.49,0,0,1,2.2,1.7Z" transform="translate(-96.63 -12.75)"/><path class="cls-3" d="M173.88,154.19l-.32-.61c.6-.32.49-1.74.4-2.21a2.5,2.5,0,0,0-1.75-1.81,3.8,3.8,0,0,1-1.62-.81c-.8-.54-.71-2.37-.62-3.23a2.74,2.74,0,0,1-1.47-.86c-1.82-1.93-2.57-1.86-2.58-1.86l-.18-.66c.24-.08,1.18-.15,3.27,2.06a2,2,0,0,0,1.34.66h.4l-.06.39c-.14,1-.15,2.65.29,2.92l.06,0a3.12,3.12,0,0,0,1.32.66,3.2,3.2,0,0,1,2.27,2.33C174.68,151.48,175,153.58,173.88,154.19Z" transform="translate(-96.63 -12.75)"/><path class="cls-3" d="M170.48,145.53l-.27-.63c.6-.26,1-1.81,1.15-2.73a2,2,0,0,1,1.34-1.6,4.43,4.43,0,0,0-.35-2.4l.6-.33a5.09,5.09,0,0,1,.4,3.05l0,.25-.25,0a1.34,1.34,0,0,0-1,1.1C172,142.55,171.63,145,170.48,145.53Z" transform="translate(-96.63 -12.75)"/><path class="cls-3" d="M174.51,142.48s-.24-1.11-2-1.34l.09-.68c2.25.3,2.55,1.83,2.56,1.9Z" transform="translate(-96.63 -12.75)"/><path class="cls-3" d="M164.16,195.69,164,195c.89-.27,1.41-2.39,1.54-3.66l.68.07C166.15,191.82,165.77,195.2,164.16,195.69Z" transform="translate(-96.63 -12.75)"/><path class="cls-3" d="M165.29,197.14a2.19,2.19,0,0,1,.31-1.58,1.47,1.47,0,0,1,1.12-.55,2.45,2.45,0,0,0,1.07-.37l.67,0c.09.73-1.14,1-1.67,1.07a.83.83,0,0,0-.65.28,1.48,1.48,0,0,0-.18,1Z" transform="translate(-96.63 -12.75)"/><path class="cls-3" d="M155.8,74.29l-.62-.29a4.85,4.85,0,0,1,2-2.16,2,2,0,0,0,1.14-2.61c-.05-.31-.45-2.8.8-3.32l.13,0h2v.69h-1.9c-.53.31-.46,1.82-.34,2.52a2.7,2.7,0,0,1-1.55,3.39A4.22,4.22,0,0,0,155.8,74.29Z" transform="translate(-96.63 -12.75)"/><path class="cls-3" d="M159.86,66.12l-.67-.16a2.94,2.94,0,0,0-.71-1.63l.55-.42C159.2,64.14,160.05,65.31,159.86,66.12Z" transform="translate(-96.63 -12.75)"/><path class="cls-3" d="M165.2,72.38a8.46,8.46,0,0,0-2.09-1.54,8.64,8.64,0,0,0-4.26,0l-.23-.65a9.14,9.14,0,0,1,4.68,0l.08,0a9.13,9.13,0,0,1,2.33,1.71Z" transform="translate(-96.63 -12.75)"/><path class="cls-3" d="M162.92,73.37a5.79,5.79,0,0,0-3.1-2.74L160,70a6.38,6.38,0,0,1,3.53,3.1Z" transform="translate(-96.63 -12.75)"/><path class="cls-3" d="M163.42,70.88l-.26,0,.11-.68c.78.13,1.63-.84,1.89-1.22l.57.39C165.69,69.41,164.68,70.88,163.42,70.88Z" transform="translate(-96.63 -12.75)"/><path class="cls-3" d="M158.37,69.49c-2.53,0-3.19-1-3.26-1.17l.6-.34-.3.17.3-.17s.59.89,3,.82c1.68-.05,4.34-1.89,4.37-1.91l.39.56c-.12.08-2.85,2-4.74,2Z" transform="translate(-96.63 -12.75)"/><path class="cls-3" d="M165.08,81.69a10.16,10.16,0,0,1-5-1.09,12.08,12.08,0,0,0-3.69-1.82l.19-.66a12.45,12.45,0,0,1,3.9,1.92h0a10.1,10.1,0,0,0,5,1l0,.69Z" transform="translate(-96.63 -12.75)"/><path class="cls-3" d="M166.81,84.84a5.82,5.82,0,0,1-3.45-1.24,7.05,7.05,0,0,0-2.35-.73l0-.69a7.63,7.63,0,0,1,2.73.83,4.64,4.64,0,0,0,3.71,1.08l.18.66A3.18,3.18,0,0,1,166.81,84.84Z" transform="translate(-96.63 -12.75)"/><path class="cls-3" d="M161.76,90.09c-.09-.36-.85-3.59.41-4.84l.48.49c-.84.83-.45,3.31-.22,4.19Z" transform="translate(-96.63 -12.75)"/><path class="cls-3" d="M160.9,87.78l-.68-.05a1.73,1.73,0,0,1,1.54-1.58l.08.68A1,1,0,0,0,160.9,87.78Z" transform="translate(-96.63 -12.75)"/><path class="cls-3" d="M164,87.08a6.09,6.09,0,0,1-.82-.06l.09-.68a3.94,3.94,0,0,0,2-.17l.3.62A3.94,3.94,0,0,1,164,87.08Z" transform="translate(-96.63 -12.75)"/><path class="cls-3" d="M163,81.48l-.23-.65a4.73,4.73,0,0,0,3.24-4l.69,0A5.51,5.51,0,0,1,163,81.48Z" transform="translate(-96.63 -12.75)"/><path class="cls-3" d="M164.58,81.59l-.48-.49a15.91,15.91,0,0,1,4.33-2.43l.25.64A15.63,15.63,0,0,0,164.58,81.59Z" transform="translate(-96.63 -12.75)"/><path class="cls-3" d="M135.72,77l-.63-.28c1.79-4,6.94-3.83,7.16-3.82l0,.69S137.32,73.41,135.72,77Z" transform="translate(-96.63 -12.75)"/><path class="cls-3" d="M137.57,76.56c-.13-.37-.73-2.27.33-2.73l.28.63c-.34.15-.19,1.2,0,1.88Z" transform="translate(-96.63 -12.75)"/><path class="cls-3" d="M135.35,74.12a7.41,7.41,0,0,1-2.66-.6l.28-.63c.75.33,2.91,1,3.82.07a3.9,3.9,0,0,1,1.89-1.29,3.47,3.47,0,0,1,2.8.2l-.42.54a2.81,2.81,0,0,0-2.21-.08,3.34,3.34,0,0,0-1.56,1.08A2.66,2.66,0,0,1,135.35,74.12Z" transform="translate(-96.63 -12.75)"/><path class="cls-3" d="M137.77,72.9a5.55,5.55,0,0,0-3.13-1.63l.1-.68a6.15,6.15,0,0,1,3.57,1.88Z" transform="translate(-96.63 -12.75)"/><path class="cls-3" d="M140.53,71.88c-1.35-3.55-4.08-3.14-4.11-3.14l-.11-.68s3.31-.5,4.86,3.57Z" transform="translate(-96.63 -12.75)"/><path class="cls-3" d="M140.44,72.33l-.63-.26a12.3,12.3,0,0,0,.71-3.57,2,2,0,0,0-1.36-2.07l.15-.67a2.65,2.65,0,0,1,1.9,2.75A12.76,12.76,0,0,1,140.44,72.33Z" transform="translate(-96.63 -12.75)"/><path class="cls-3" d="M137.91,70.52l-.15-.67s.75-.17,1.84-.35l.11.68C138.64,70.36,137.92,70.52,137.91,70.52Z" transform="translate(-96.63 -12.75)"/><path class="cls-3" d="M142,81l-.67-.15c.75-3.25-1-4.09-1.12-4.13l.27-.63C140.62,76.17,142.92,77.21,142,81Z" transform="translate(-96.63 -12.75)"/><path class="cls-3" d="M141.67,82a2.28,2.28,0,0,0-1.4-2.13,2.13,2.13,0,0,1-1.39-2.12l.68.08-.34,0,.34,0a1.43,1.43,0,0,0,1,1.41A3,3,0,0,1,142.36,82Z" transform="translate(-96.63 -12.75)"/><path class="cls-3" d="M134.9,83.6l-.43-.54a4.37,4.37,0,0,1,3.2-.52,5.19,5.19,0,0,0,2.52-.8,3.84,3.84,0,0,1,3.41,0l-.27.63a3.18,3.18,0,0,0-2.77,0,5.75,5.75,0,0,1-2.93.91A4,4,0,0,0,134.9,83.6Z" transform="translate(-96.63 -12.75)"/><path class="cls-3" d="M138.72,85.42H138a2.94,2.94,0,0,1,1.42-2.22s.76-.49.6-1.09l.66-.18a1.82,1.82,0,0,1-.88,1.84A2.28,2.28,0,0,0,138.72,85.42Z" transform="translate(-96.63 -12.75)"/><path class="cls-3" d="M137.34,83.06c-1-1.68-4.68-4.57-4.72-4.6l.42-.54c.16.12,3.82,3,4.89,4.79Z" transform="translate(-96.63 -12.75)"/><path class="cls-3" d="M135.72,83.13a15.64,15.64,0,0,0-3.64-2.65l.3-.62a16.08,16.08,0,0,1,3.83,2.78Z" transform="translate(-96.63 -12.75)"/><path class="cls-3" d="M135.93,85.76a46.5,46.5,0,0,1-5-1l.17-.67a47.21,47.21,0,0,0,4.88,1Z" transform="translate(-96.63 -12.75)"/><path class="cls-3" d="M129.62,89.49l-.1-.68s3.75-.56,5-1.35h0a4.75,4.75,0,0,0,1.13-2.14c0-.08.55-2.19,1.86-2.76l.27.63c-.83.36-1.34,1.78-1.47,2.3A5.13,5.13,0,0,1,134.91,88C133.51,88.9,129.77,89.47,129.62,89.49Z" transform="translate(-96.63 -12.75)"/><rect class="cls-3" x="131.58" y="89.02" width="1.91" height="0.69" transform="translate(-91.8 172.75) rotate(-70.96)"/><path class="cls-3" d="M134.51,88A16.15,16.15,0,0,0,131,87l.13-.67a16.37,16.37,0,0,1,3.77,1.18Z" transform="translate(-96.63 -12.75)"/><path class="cls-3" d="M135.62,91a5.7,5.7,0,0,0-1.2-3.08l.54-.42a6.28,6.28,0,0,1,1.34,3.5Z" transform="translate(-96.63 -12.75)"/><path class="cls-3" d="M133.9,91.2l-.61-.32A16.28,16.28,0,0,1,135,88.36l.53.44A15.85,15.85,0,0,0,133.9,91.2Z" transform="translate(-96.63 -12.75)"/><path class="cls-3" d="M141,86.76l-.69,0a4.36,4.36,0,0,1,1.16-2.53,2.32,2.32,0,0,0,.22-2.54l.63-.27a3,3,0,0,1-.35,3.28A3.72,3.72,0,0,0,141,86.76Z" transform="translate(-96.63 -12.75)"/><path class="cls-3" d="M169.17,60.81c-3.57-3.33-6.54-2.48-6.66-2.44-2.89.61-3.4,2.22-3.42,2.28l-.66-.19c0-.08.61-2.07,3.91-2.76.11,0,3.42-1,7.3,2.6Z" transform="translate(-96.63 -12.75)"/><path class="cls-3" d="M151.24,61.55a4.29,4.29,0,0,1-1.17-.15l-.07,0a36.11,36.11,0,0,0-3.58-1.74l.26-.63a36.45,36.45,0,0,1,3.63,1.76,3.34,3.34,0,0,0,4.11-2.22l.64.26A4,4,0,0,1,151.24,61.55Z" transform="translate(-96.63 -12.75)"/><path class="cls-5" d="M149.26,79.13s-3-3.55-5.5-.46c0,0-1.53,1.49-1.72,6A8.1,8.1,0,0,0,147,92.3s7,2.63,11.79,0c0,0,2.75-1.24.69-6.86a42.5,42.5,0,0,1-1-4.36s-.34-3.71-3.43-3.67c0,0-2.75-.45-4.24,1.49C150.74,78.9,150.27,80,149.26,79.13Z" transform="translate(-96.63 -12.75)"/><path class="cls-3" d="M149.86,61.21a14.22,14.22,0,0,1-1-4.11c-.26-1.14.4-6.38.47-7l.68.09a43.48,43.48,0,0,0-.48,6.79,14,14,0,0,0,.92,3.93Z" transform="translate(-96.63 -12.75)"/><path class="cls-3" d="M148.83,56.29a4,4,0,0,0-1.18-1.75l.47-.5a4.62,4.62,0,0,1,1.39,2.2Z" transform="translate(-96.63 -12.75)"/><path class="cls-3" d="M152.72,61.1c-1-.74-1.19-3.79-1.21-4.39a38,38,0,0,0-.39-7.22l.68-.11a38.66,38.66,0,0,1,.4,7.34c0,1.23.34,3.4.93,3.82Z" transform="translate(-96.63 -12.75)"/><path class="cls-3" d="M152.06,57l-.42-.54c1-.78,1.76-4.5,2-5.88l.68.1C154.2,51.18,153.46,55.88,152.06,57Z" transform="translate(-96.63 -12.75)"/><path class="cls-3" d="M152.57,36.31a3.28,3.28,0,0,0-3-2.67V33a4,4,0,0,1,3.62,3.17Z" transform="translate(-96.63 -12.75)"/><path class="cls-3" d="M152.71,36.81c-2.53-.59-3.15-.7-3.16-.7l.12-.68s.63.12,3.19.71Z" transform="translate(-96.63 -12.75)"/><path class="cls-3" d="M153,37.65l-.41-.55a2.6,2.6,0,0,0,.88-2.18l.68-.08A3.25,3.25,0,0,1,153,37.65Z" transform="translate(-96.63 -12.75)"/><path class="cls-3" d="M154.45,42a7.87,7.87,0,0,0-1.2-2.1c-.07-.06-1.3-1.3-.51-4.55l.67.16c-.69,2.82.3,3.87.31,3.88a8.42,8.42,0,0,1,1.37,2.35Z" transform="translate(-96.63 -12.75)"/><path class="cls-3" d="M164.5,58.35l-.32-.61a2.25,2.25,0,0,0,1-.81l.63.28A2.73,2.73,0,0,1,164.5,58.35Z" transform="translate(-96.63 -12.75)"/><path class="cls-3" d="M169.87,59.57a17.16,17.16,0,0,0-2.37-.13v-.69a17.61,17.61,0,0,1,2.49.14Z" transform="translate(-96.63 -12.75)"/><path class="cls-3" d="M158.29,23.89l-.68-.07c.24-2.53-1.49-3.16-1.51-3.16l-.07,0a3.33,3.33,0,0,0-1.57-.34,2.74,2.74,0,0,1-1.95-1.3l.61-.32a2.05,2.05,0,0,0,1.39.94h0a3.89,3.89,0,0,1,1.83.42A3.51,3.51,0,0,1,158.29,23.89Z" transform="translate(-96.63 -12.75)"/><path class="cls-3" d="M157.43,39.39l-.68-.08a16.87,16.87,0,0,1,1.71-5.79,46.29,46.29,0,0,0,1.41-6.41,2.65,2.65,0,0,0-1.6-2.8,8.18,8.18,0,0,1-3.9-2l.48-.49a7.68,7.68,0,0,0,3.58,1.8,3.37,3.37,0,0,1,2.12,3.52,44.91,44.91,0,0,1-1.48,6.64A16.61,16.61,0,0,0,157.43,39.39Z" transform="translate(-96.63 -12.75)"/><path class="cls-3" d="M157.19,25.51l-.21-.65c.2-.07,2-.62,3,0l-.39.57A3.44,3.44,0,0,0,157.19,25.51Z" transform="translate(-96.63 -12.75)"/><path class="cls-3" d="M156,20.61a3.51,3.51,0,0,1-1.35-1.69l.66-.18a2.94,2.94,0,0,0,1.1,1.32Z" transform="translate(-96.63 -12.75)"/><path class="cls-3" d="M157.43,20.94h-.69c0-3.88-1.28-4.54-1.29-4.54l.27-.63C155.9,15.84,157.43,16.59,157.43,20.94Z" transform="translate(-96.63 -12.75)"/><path class="cls-3" d="M156.46,18.09a3,3,0,0,0-1.4-.81l.14-.67a3.67,3.67,0,0,1,1.76,1Z" transform="translate(-96.63 -12.75)"/><path class="cls-3" d="M158.29,23l-.64-.24a5.91,5.91,0,0,0,0-4.1l.63-.27A6.54,6.54,0,0,1,158.29,23Z" transform="translate(-96.63 -12.75)"/><path class="cls-3" d="M158.68,21.05l-.65-.23A3.08,3.08,0,0,1,159,19.3l.39.57-.19-.28.2.28A2.7,2.7,0,0,0,158.68,21.05Z" transform="translate(-96.63 -12.75)"/><path class="cls-3" d="M159.89,30.8l-.67-.15a.31.31,0,0,0-.05-.31,3.19,3.19,0,0,0-2-.35l-.06-.68c.2,0,2-.16,2.63.58A1,1,0,0,1,159.89,30.8Z" transform="translate(-96.63 -12.75)"/><path class="cls-3" d="M155.31,31.84l-.33-.6A6.47,6.47,0,0,0,157,29.8a8.87,8.87,0,0,0-3,.17l-.12-.68c2.34-.43,3.63-.34,3.85.27S157.54,30.6,155.31,31.84Z" transform="translate(-96.63 -12.75)"/><path class="cls-3" d="M158.56,34c-.87-.6-1.29-.38-1.29-.38l-.38-.57c.08-.05.79-.5,2.06.39Z" transform="translate(-96.63 -12.75)"/><path class="cls-3" d="M183.32,128.46c-.49-4.44-4.34-11.08-4.38-11.15a35.66,35.66,0,0,1-2.26-4.1l0-.11V113a19.62,19.62,0,0,1,0-4.51,74.32,74.32,0,0,0-1.79-15.42,21.84,21.84,0,0,1-.63-5.24,25.29,25.29,0,0,0-.6-4.16l0-.15a48.43,48.43,0,0,1-.66-7c0-5.06-1.15-6.37-1.16-6.39l-.09-.12s-3-4.67-4.78-6l.79-1.12c2,1.39,4.77,5.74,5.12,6.29.34.39,1.5,2.11,1.5,7.29a47.47,47.47,0,0,0,.62,6.7,27.52,27.52,0,0,1,.67,4.55,21.09,21.09,0,0,0,.59,5A75.77,75.77,0,0,1,178,108.55l0,.15a17.67,17.67,0,0,0,0,4.06,36,36,0,0,0,2.13,3.84c.18.31,4,7,4.57,11.71Z" transform="translate(-96.63 -12.75)"/><path class="cls-3" d="M168.41,68.38A11.27,11.27,0,0,0,164.85,63l.78-1.13a12.38,12.38,0,0,1,4.08,6.1Z" transform="translate(-96.63 -12.75)"/><path class="cls-3" d="M176.77,109c-5.9-7.41-2.64-19.5-2.49-20l1.32.37c0,.12-3.21,11.93,2.25,18.79Z" transform="translate(-96.63 -12.75)"/><path class="cls-3" d="M182.26,131.46c-2.62-1.62-5.31-9-5.6-9.8a14.32,14.32,0,0,1,0-11.26l1.24.59a13.21,13.21,0,0,0,0,10.16c.79,2.19,3.18,8,5.06,9.14Z" transform="translate(-96.63 -12.75)"/><path class="cls-3" d="M182.43,103.23l-1.37-.08A44.34,44.34,0,0,0,180,89.59a58.86,58.86,0,0,0-2.79-6.75l1.23-.61a59.14,59.14,0,0,1,2.87,7A44.9,44.9,0,0,1,182.43,103.23Z" transform="translate(-96.63 -12.75)"/><path class="cls-3" d="M182.21,113.87l-1.36-.22C183,100,178,97.17,177.93,97.14l.63-1.22C178.8,96,184.55,99.14,182.21,113.87Z" transform="translate(-96.63 -12.75)"/><path class="cls-3" d="M186.57,132.64l-1.36-.18c1.56-11.66-3-16.06-3-16.1l-.11-.13a16.51,16.51,0,0,1-2.3-6.39,16.3,16.3,0,0,0-3.54-9.51l1-.92a17.4,17.4,0,0,1,3.89,10.32h0a15.47,15.47,0,0,0,2,5.69C183.8,116,188.14,120.85,186.57,132.64Z" transform="translate(-96.63 -12.75)"/><path class="cls-3" d="M166.49,63.38l-.36-.58c2.05-1.27,6-.85,6.81-.75a3.12,3.12,0,0,1,2-.29l-.1.68a2.32,2.32,0,0,0-1.59.25l-.11.08-.13,0S168.51,62.13,166.49,63.38Z" transform="translate(-96.63 -12.75)"/><path class="cls-3" d="M174.43,63.68a22.55,22.55,0,0,1-2.65-1.07l.28-.63a23,23,0,0,0,2.55,1Z" transform="translate(-96.63 -12.75)"/><path class="cls-3" d="M174.48,65.66l-.2-.06a8.24,8.24,0,0,0-5.08,0l-.26-.64a8.74,8.74,0,0,1,5.37,0,8.66,8.66,0,0,1,3.87-1.11c.14-.05.61-.22,1.16-.37l.19.66c-.61.17-1.13.37-1.14.37l-.08,0c-2.94.36-3.66,1-3.67,1.05Z" transform="translate(-96.63 -12.75)"/><path class="cls-3" d="M175.14,68.57l-.58-.37.69-1.08a3.3,3.3,0,0,0-1.85-1.75l.27-.63A3.86,3.86,0,0,1,176,67.08l0,.15Z" transform="translate(-96.63 -12.75)"/><rect class="cls-3" x="175.74" y="65.54" width="0.69" height="2.69" transform="translate(-78.46 156.82) rotate(-53.83)"/><path class="cls-3" d="M177.92,83.57c-.78-3-.27-8.1-.25-8.31A10.77,10.77,0,0,0,177,72.8l0-.07a3.2,3.2,0,0,1,.59-2.94c1.62-2.44.55-3.25.5-3.28l.38-.57a1.7,1.7,0,0,1,.65,1.08,4.41,4.41,0,0,1-1,3.19l-.07.08s-.67.6-.39,2.29a10.9,10.9,0,0,1,.71,2.7c0,.11-.52,5.21.23,8.13Z" transform="translate(-96.63 -12.75)"/><path class="cls-3" d="M177.91,83.51a7.34,7.34,0,0,1,1.22-4.13,8.37,8.37,0,0,0,.36-4l.68-.11a8.92,8.92,0,0,1-.44,4.48,6.84,6.84,0,0,0-1.14,3.73Z" transform="translate(-96.63 -12.75)"/><path class="cls-3" d="M177.63,82a6.67,6.67,0,0,1-2.32-2.85,9.5,9.5,0,0,1,0-4.25c-.36-3.23-2.19-3.59-2.27-3.6l.11-.68c.1,0,2.44.42,2.85,4.26V75s-.53,2.62,0,3.91A6.06,6.06,0,0,0,178,81.39Z" transform="translate(-96.63 -12.75)"/><path class="cls-3" d="M178.68,84.72c-1.7,0-2.74-1.95-2.78-2A20.64,20.64,0,0,0,173.42,79l.53-.44a20.81,20.81,0,0,1,2.57,3.85h0S177.4,84,178.68,84Z" transform="translate(-96.63 -12.75)"/><path class="cls-3" d="M175.74,76.82h-.69c0-.28-.67-.87-1.27-1.22l.35-.59C174.4,75.16,175.75,76,175.74,76.82Z" transform="translate(-96.63 -12.75)"/><path class="cls-3" d="M177.58,74.48a2.37,2.37,0,0,0-1.89-.62l-.12-.68a3,3,0,0,1,2.49.8Z" transform="translate(-96.63 -12.75)"/><path class="cls-3" d="M181.58,68.61l-1.36-1.66a6.17,6.17,0,0,0-4.56-1.9l0-.69a6.81,6.81,0,0,1,5.12,2.14l1.37,1.68Z" transform="translate(-96.63 -12.75)"/><path class="cls-3" d="M180.49,70.11l-.66-.2a7,7,0,0,0,.32-3.08l.66-.2A7.73,7.73,0,0,1,180.49,70.11Z" transform="translate(-96.63 -12.75)"/><path class="cls-3" d="M179.41,85.74l-.48-.49c1.15-1.14,1.31-3.57,1.31-3.59l.69,0C180.92,81.81,180.75,84.41,179.41,85.74Z" transform="translate(-96.63 -12.75)"/><path class="cls-3" d="M178.9,89.51a2.56,2.56,0,0,1-1.85-.83l0-.06a3.7,3.7,0,0,0-1-1.22l.38-.57a4.27,4.27,0,0,1,1.2,1.43,1.86,1.86,0,0,0,1.54.55l.08.68Z" transform="translate(-96.63 -12.75)"/><path class="cls-3" d="M177,106.11c-.7-4.84,1.41-10.53,1.5-10.77a9.92,9.92,0,0,0,.36-4.25,3.85,3.85,0,0,1,.87-3.59l.47.5a3.2,3.2,0,0,0-.66,3,10.44,10.44,0,0,1-.4,4.62c0,.06-2.14,5.76-1.46,10.43Z" transform="translate(-96.63 -12.75)"/><path class="cls-3" d="M179.13,125.09l-.68-.1a35.34,35.34,0,0,0-.11-4.9,3.41,3.41,0,0,1,1-3.4l.4.56-.2-.28.2.28A2.81,2.81,0,0,0,179,120,34.83,34.83,0,0,1,179.13,125.09Z" transform="translate(-96.63 -12.75)"/><path class="cls-3" d="M181.3,119.68l-.68-.05a10.91,10.91,0,0,0-.36-3.33,7.21,7.21,0,0,1,.41-4.22l.63.28a6.61,6.61,0,0,0-.38,3.76A11.39,11.39,0,0,1,181.3,119.68Z" transform="translate(-96.63 -12.75)"/><path class="cls-3" d="M182.76,143.11c-.21-1.72-.21-4.48-.21-4.59a34.6,34.6,0,0,0-.26-5.45,7,7,0,0,1,.63-3.89h0a5.78,5.78,0,0,0,.22-3.21l.65-.21a6.38,6.38,0,0,1-.25,3.7A6.41,6.41,0,0,0,183,133a34.33,34.33,0,0,1,.27,5.59h0s0,2.8.21,4.48Z" transform="translate(-96.63 -12.75)"/><path class="cls-3" d="M185.8,135.65l-.68-.1c.41-2.93-1.42-7.85-1.44-7.9l.64-.24C184.4,127.62,186.24,132.55,185.8,135.65Z" transform="translate(-96.63 -12.75)"/><path class="cls-3" d="M188.14,151.41A2.32,2.32,0,0,0,187,150a2.5,2.5,0,0,1-1.17-2.29c-.14-.51-1.54-5.37-3.32-7.51l.53-.44c2,2.37,3.41,7.59,3.47,7.81v.09a1.87,1.87,0,0,0,.77,1.72,3,3,0,0,1,1.46,1.8Z" transform="translate(-96.63 -12.75)"/><path class="cls-3" d="M192,150.17a4.24,4.24,0,0,1-3.46-2.32l0-.1c-.49-4.18-2.12-5.88-2.14-5.89a7.76,7.76,0,0,1-2.76-4.77l.68-.05a7.26,7.26,0,0,0,2.55,4.32c.09.09,1.81,1.85,2.34,6.25a3.56,3.56,0,0,0,2.87,1.87Z" transform="translate(-96.63 -12.75)"/><path class="cls-3" d="M183.12,138.77l-.46-.51a8.58,8.58,0,0,0,2.52-4l.67.14A9.12,9.12,0,0,1,183.12,138.77Z" transform="translate(-96.63 -12.75)"/><path class="cls-3" d="M190.13,145.74a31.56,31.56,0,0,0-2.66-5.92,5.37,5.37,0,0,1-1.53-4.33c0-.48-.07-5.12,0-6.22l.69,0c0,1.12,0,6.17,0,6.22v.07a4.65,4.65,0,0,0,1.39,3.8l0,.06a32,32,0,0,1,2.75,6.15Z" transform="translate(-96.63 -12.75)"/><path class="cls-3" d="M187,141.68l-.67-.15a15,15,0,0,0,.28-3h.69A15.37,15.37,0,0,1,187,141.68Z" transform="translate(-96.63 -12.75)"/><path class="cls-3" d="M189.27,143.3a56.06,56.06,0,0,0-3.35-15.22l.64-.25a56.83,56.83,0,0,1,3.4,15.44Z" transform="translate(-96.63 -12.75)"/><path class="cls-3" d="M190.59,152.46a4.77,4.77,0,0,1-2.33-.87,16,16,0,0,0-3.14-1.45l.24-.64a17.1,17.1,0,0,1,3.33,1.56c.4.28,1.66,1,2.38.61.54-.28.66-1.16.66-1.84h.69c0,1.28-.35,2.1-1,2.46A1.71,1.71,0,0,1,190.59,152.46Z" transform="translate(-96.63 -12.75)"/><path class="cls-3" d="M191.71,161.6c-3.76,0-6-3.63-6-3.68l.59-.35c.13.22,3.19,5.25,8.3,2.56a13.36,13.36,0,0,0,3-4.19l.65.23a14,14,0,0,1-3.25,4.49l-.07.05A6.92,6.92,0,0,1,191.71,161.6Z" transform="translate(-96.63 -12.75)"/><path class="cls-3" d="M193.45,163.78c-.39-7.55-3.58-8.53-3.88-8.6a1.29,1.29,0,0,1-.87-.43c-.58-.62-.77-1.79-.57-3.47l.68.08c-.23,1.9.14,2.63.37,2.9a.61.61,0,0,0,.42.24h.07c.16,0,4,.83,4.46,9.25Z" transform="translate(-96.63 -12.75)"/><path class="cls-3" d="M196.37,162.56c-.52-4-4.48-7.43-4.52-7.47-1.39-1-1-2.81-.52-3.63l.61.32c0,.07-.95,1.84.34,2.76.19.16,4.22,3.61,4.78,7.92Z" transform="translate(-96.63 -12.75)"/><path class="cls-3" d="M201.81,164.43a4.21,4.21,0,0,1-2.38-.65c-1.16-.92-1.94-4.34-2-4.73a29,29,0,0,1-1-3,7.54,7.54,0,0,0-3.48-5.11,7,7,0,0,0-2.29-1.14l.18-.66a7.42,7.42,0,0,1,2.46,1.22,8.09,8.09,0,0,1,3.8,5.55h0a30.49,30.49,0,0,0,1,3c.23,1,1,3.74,1.78,4.38h0a3.81,3.81,0,0,0,2.42.49l.06.68Z" transform="translate(-96.63 -12.75)"/><path class="cls-3" d="M191.6,165.18h-.69c0-3.81-.86-5.15-1-5.36a10,10,0,0,1-2.12-1.85c-1.07-1.26-.62-5.37-.56-5.83l.68.08c-.14,1.18-.34,4.43.41,5.31a9.39,9.39,0,0,0,2,1.74l.07.06C190.43,159.37,191.6,160.67,191.6,165.18Z" transform="translate(-96.63 -12.75)"/><path class="cls-3" d="M186.84,172.14l-.68-.06a40.53,40.53,0,0,0-.16-9.15c-1.11-4,.32-6.26.38-6.35l.57.38s-1.32,2.1-.29,5.83A41.07,41.07,0,0,1,186.84,172.14Z" transform="translate(-96.63 -12.75)"/><path class="cls-3" d="M189.68,173.13l-.69,0a37.83,37.83,0,0,0-.86-8.45,22.79,22.79,0,0,1-.08-4.27l.69.05a22.52,22.52,0,0,0,.07,4.09A38.49,38.49,0,0,1,189.68,173.13Z" transform="translate(-96.63 -12.75)"/><path class="cls-3" d="M190.58,175.38a34.52,34.52,0,0,1-.62-7,14.77,14.77,0,0,1,1-5.25l.63.28a14.4,14.4,0,0,0-.92,5,34.56,34.56,0,0,0,.61,6.9Z" transform="translate(-96.63 -12.75)"/><path class="cls-3" d="M190.57,164.93a6.24,6.24,0,0,1-2.52-2l.56-.4a5.64,5.64,0,0,0,2.22,1.73Z" transform="translate(-96.63 -12.75)"/><path class="cls-3" d="M197.06,173.62a3.36,3.36,0,0,1-1.61-2.66c-.44-6.07-1.92-8.22-1.94-8.24l.56-.4c.07.09,1.61,2.28,2.07,8.6a2.66,2.66,0,0,0,1.26,2.1Z" transform="translate(-96.63 -12.75)"/><path class="cls-3" d="M196.9,170c-1.17-3.16-.88-8.75-.87-9l.69,0c0,.06-.3,5.68.83,8.71Z" transform="translate(-96.63 -12.75)"/><path class="cls-4" d="M144.07,143.3l-.51-.46c2.17-2.41,1.18-6.3,1.17-6.34a43.2,43.2,0,0,1-1-5.59l.68-.08a43.41,43.41,0,0,0,1,5.48C145.44,136.5,146.49,140.62,144.07,143.3Z" transform="translate(-96.63 -12.75)"/><path class="cls-4" d="M146.66,139.63a4.21,4.21,0,0,1-1.57-.84l.44-.53a3.58,3.58,0,0,0,1.29.7Z" transform="translate(-96.63 -12.75)"/><path class="cls-4" d="M137.18,144.22a4.11,4.11,0,0,1-2.52-.89c-1.13-1-1.27-3.19-1.28-3.29a4.06,4.06,0,0,0-1.95-3.7,8.75,8.75,0,0,1-1.77-1.36,5.34,5.34,0,0,1-1.73-3.26c-.65-2.51,1.94-4.2,2-4.27a4.78,4.78,0,0,1,5.18-.22l4.4,3a5.75,5.75,0,0,0,3.59.54l.23.65c-.06,0-1.48.5-4.11-.56l-.06,0-4.42-3a4.1,4.1,0,0,0-4.42.21s-2.29,1.5-1.76,3.59a4.79,4.79,0,0,0,1.53,2.88,8.25,8.25,0,0,0,1.6,1.24,4.68,4.68,0,0,1,2.33,4.29,4.92,4.92,0,0,0,1,2.8,3.35,3.35,0,0,0,3.63.32l.31.61A4.11,4.11,0,0,1,137.18,144.22Z" transform="translate(-96.63 -12.75)"/><path class="cls-4" d="M139.7,141.62a4,4,0,0,0-2.14-.48c-1.89.24-2.16-1-2.18-1a7,7,0,0,1,0-2,1.89,1.89,0,0,0-.89-1.68,11.07,11.07,0,0,1-1.93-1.8,4.2,4.2,0,0,1-1-3.09l.68.07a3.6,3.6,0,0,0,.8,2.56,10.68,10.68,0,0,0,1.81,1.69,2.54,2.54,0,0,1,1.18,2.35,6.39,6.39,0,0,0,0,1.71s.18.64,1.45.48a4.8,4.8,0,0,1,2.62.62Z" transform="translate(-96.63 -12.75)"/><path class="cls-4" d="M132,133.75a4.54,4.54,0,0,0-1.28-.66l.2-.66a5.21,5.21,0,0,1,1.5.77Z" transform="translate(-96.63 -12.75)"/><path class="cls-4" d="M132.69,133.9l-.67-.14a5.9,5.9,0,0,1,1.38-2.3l.5.48A5.32,5.32,0,0,0,132.69,133.9Z" transform="translate(-96.63 -12.75)"/><path class="cls-4" d="M127.92,135.22a3.53,3.53,0,0,0-1.85-1.06l.12-.68a4.18,4.18,0,0,1,2.26,1.29Z" transform="translate(-96.63 -12.75)"/><path class="cls-4" d="M127.36,135.67l-.41-.55a5,5,0,0,1,3-.72l0,.69A4.39,4.39,0,0,0,127.36,135.67Z" transform="translate(-96.63 -12.75)"/><path class="cls-4" d="M138.76,205.85l-1.34-.31c.78-3.41,1.47-10.85,1.47-10.93.12-1.37,1.77-9.55,1.84-9.89.44-4.14.22-11.9.22-12,0-4.69-1.7-12.44-1.72-12.52-2.05-6.19-.86-17.15-.81-17.62l1.37.15c0,.11-1.2,11.13.77,17.1.09.39,1.81,8,1.77,12.87a119.54,119.54,0,0,1-.23,12.2c-.6,3-1.74,8.77-1.83,9.81C140.24,195,139.57,202.35,138.76,205.85Z" transform="translate(-96.63 -12.75)"/><path class="cls-4" d="M137.76,194.16c-.67-2.53,0-7.48,0-7.69a74.73,74.73,0,0,0,0-14.86,55.6,55.6,0,0,1-1.1-6.48c-.13-3.87-1.07-10.53-1.08-10.59a10.71,10.71,0,0,1,3-8.24l.46.51a10.18,10.18,0,0,0-2.8,7.66s1,6.73,1.08,10.61a57.09,57.09,0,0,0,1.09,6.41,75,75,0,0,1,0,15.07s-.64,5,0,7.43Z" transform="translate(-96.63 -12.75)"/><path class="cls-4" d="M134.37,189.35a5.71,5.71,0,0,1,1.91-3.93c.06,0,1.74-1.18,1.79-2.61l.69,0c-.06,1.79-2,3.07-2,3.12a5,5,0,0,0-1.65,3.39Z" transform="translate(-96.63 -12.75)"/><path class="cls-4" d="M136.22,190.13l-.66-.19c0-.12.83-2.9,2.37-3.73l.33.61C137.19,187.39,136.43,189.4,136.22,190.13Z" transform="translate(-96.63 -12.75)"/><path class="cls-4" d="M136.23,195.06c0-.15-.48-3.61,1.35-5.93l.54.43c-1.65,2.09-1.22,5.37-1.21,5.41Z" transform="translate(-96.63 -12.75)"/><path class="cls-4" d="M140.18,151.69a8.1,8.1,0,0,1-5.66-1.95,5.84,5.84,0,0,1-2.65-3.07c-.21-1-.7-2.69-.7-2.71-.32-1.44-.24-2.46.25-3a1.22,1.22,0,0,1,.94-.47c2.85,0,3.28,5,3.3,5.18A4.61,4.61,0,0,0,136,148c.93,1.53,3.93,0,4.2-.09,1.18-.86,2.17-1.16,2.93-.89a1.69,1.69,0,0,1,1,1.09,2.4,2.4,0,0,1-.3,1.9,4.7,4.7,0,0,1-2.71,1.66C140.81,151.68,140.49,151.69,140.18,151.69Zm-7.65-5.2a5.2,5.2,0,0,0,2.32,2.65l.12.08s2,2.08,6.08,1.75h0a4.08,4.08,0,0,0,2.23-1.36,1.71,1.71,0,0,0,.21-1.36,1,1,0,0,0-.58-.61c-.37-.13-1.07-.09-2.31.81l0,0c-.16.08-3.83,2-5.12-.13a4.75,4.75,0,0,1-.45-2.69s-.4-4.52-2.62-4.52a.57.57,0,0,0-.41.24c-.19.23-.44.86-.1,2.42,0,0,.49,1.71.69,2.69Z" transform="translate(-96.63 -12.75)"/><path class="cls-4" d="M132.67,154.51a8.51,8.51,0,0,0-1.43-2.65,6,6,0,0,1-1.66-2.53c-.51-1.86-1.41-2-1.41-2a2.23,2.23,0,0,1-1.54-1,1.68,1.68,0,0,1-.13-1.24,20.49,20.49,0,0,0,.32-4.29l.69,0a20.81,20.81,0,0,1-.35,4.5,1,1,0,0,0,.08.74,1.55,1.55,0,0,0,1,.65c.26,0,1.4.3,2,2.46a5.5,5.5,0,0,0,1.5,2.24,9,9,0,0,1,1.59,2.92Z" transform="translate(-96.63 -12.75)"/><path class="cls-4" d="M128.38,176.33l-.38-.57a2.64,2.64,0,0,0,.8-1.58,97.65,97.65,0,0,1,0-10.51c1.11-5.15,1.67-6.93,1.69-7a4.34,4.34,0,0,1,3.09-3.11,5.09,5.09,0,0,1,2.48.62l-.28.63a5,5,0,0,0-2.1-.57,3.7,3.7,0,0,0-2.54,2.62s-.57,1.86-1.67,6.91a98.18,98.18,0,0,0,0,10.4v.07A3.39,3.39,0,0,1,128.38,176.33Z" transform="translate(-96.63 -12.75)"/><path class="cls-4" d="M129.53,177.63s-.36-2.66-.8-4.43l.67-.17c.45,1.8.8,4.39.81,4.5Z" transform="translate(-96.63 -12.75)"/><path class="cls-4" d="M131.13,167.05a16.78,16.78,0,0,1-2.31-1.86l.5-.47a16.4,16.4,0,0,0,2.19,1.75Z" transform="translate(-96.63 -12.75)"/><path class="cls-4" d="M125.9,166.67l-.32,0,.08-.68s1.31.15,1.71-.65a12,12,0,0,1,1.87-3.4l.47.5A11.24,11.24,0,0,0,128,165.6,2.26,2.26,0,0,1,125.9,166.67Z" transform="translate(-96.63 -12.75)"/><path class="cls-4" d="M127.16,150.14a1.46,1.46,0,0,1-.51-.08,2.94,2.94,0,0,1-2-1.35,3.06,3.06,0,0,1-.2-2.26l.65.21a2.39,2.39,0,0,0,.15,1.71,2.31,2.31,0,0,0,1.59,1l.07,0s.54.22,1.38-.43a1,1,0,0,1,.52-.34,1.66,1.66,0,0,1,1.28.29l-.36.59c-.55-.33-.83-.23-.9-.12l-.08.09A2.57,2.57,0,0,1,127.16,150.14Z" transform="translate(-96.63 -12.75)"/><path class="cls-4" d="M129.44,154.86a1,1,0,0,1-.59-.2,13.87,13.87,0,0,0-1.79-1.62l.41-.55a14,14,0,0,1,1.85,1.67s0,0,.11,0h.1c.17,0,.53-.24,1-1.12a1.37,1.37,0,0,1,1.62-1l-.15.67a.73.73,0,0,0-.84.57c-.46.93-1,1.43-1.48,1.54Z" transform="translate(-96.63 -12.75)"/><path class="cls-4" d="M131.61,152l-.21-.65a7.18,7.18,0,0,0,2.65-2.28l.56.4A7.73,7.73,0,0,1,131.61,152Z" transform="translate(-96.63 -12.75)"/><path class="cls-4" d="M132.21,146.9h0l0-.69s.64,0,1.44-1.53l.61.32C133.31,146.77,132.45,146.9,132.21,146.9Z" transform="translate(-96.63 -12.75)"/><path class="cls-4" d="M133.22,147.86l-.61-.31c0-.09,1.14-2.2,2.7-2.23V146C134.37,146,133.48,147.35,133.22,147.86Z" transform="translate(-96.63 -12.75)"/><path class="cls-4" d="M138.41,161.09a5.45,5.45,0,0,0-.56-2.16,7.75,7.75,0,0,1-1.87-1.64l.53-.43a7,7,0,0,0,1.73,1.51l.12.1a5.22,5.22,0,0,1,.73,2.57Z" transform="translate(-96.63 -12.75)"/><path class="cls-4" d="M133.25,168.15l-.51-.46s3.21-3.56,3.79-5.05l.64.25C136.55,164.5,133.39,168,133.25,168.15Z" transform="translate(-96.63 -12.75)"/><path class="cls-4" d="M133.3,174.06l-.46-.51s3.73-3.39,4.34-5l.64.25C137.15,170.57,133.46,173.92,133.3,174.06Z" transform="translate(-96.63 -12.75)"/><path class="cls-4" d="M126.84,142.92c-.62-1-1.18-1-1.2-1l-.06-.68c.1,0,1-.05,1.84,1.29Z" transform="translate(-96.63 -12.75)"/><path class="cls-4" d="M143.06,277l-.54-.43c1.23-1.55-.18-6.13-.83-7.77l0-.1a23.67,23.67,0,0,0-.3-2.35,12,12,0,0,1-1.16-3.41c-.26-9-3.16-21.32-3.19-21.44-2.24-7.08-1.5-20.73-1.47-21.31a24.51,24.51,0,0,1,.68-5.91,28.9,28.9,0,0,0,1.28-4.31,17.81,17.81,0,0,0,.61-6.13l.69,0a18,18,0,0,1-.63,6.35,27.81,27.81,0,0,1-1.29,4.35h0a24.85,24.85,0,0,0-.64,5.7c0,.16-.76,14.12,1.45,21.11,0,.15,3,12.53,3.21,21.56h0A11.69,11.69,0,0,0,142,266l0,.09a21.62,21.62,0,0,1,.32,2.43C142.59,269.17,144.73,274.85,143.06,277Z" transform="translate(-96.63 -12.75)"/><path class="cls-4" d="M141,233.71a9.81,9.81,0,0,1-3.2-3.13,3.48,3.48,0,0,0-2.11-2.25l.15-.67a4,4,0,0,1,2.57,2.6h0a9.37,9.37,0,0,0,2.89,2.82Z" transform="translate(-96.63 -12.75)"/><path class="cls-4" d="M138.77,233.5a7.59,7.59,0,0,1-.26-2.09h.69a7.09,7.09,0,0,0,.23,1.88Z" transform="translate(-96.63 -12.75)"/><path class="cls-4" d="M140.87,243.4a6.19,6.19,0,0,0-1.18-1.06,3.63,3.63,0,0,1-1-2.93,5,5,0,0,0-2.36-1.82l.17-.67a5.64,5.64,0,0,1,2.82,2.18l.09.12,0,.14a3.05,3.05,0,0,0,.7,2.44h0a6.62,6.62,0,0,1,1.3,1.19Z" transform="translate(-96.63 -12.75)"/><rect class="cls-4" x="139.78" y="238.63" width="0.69" height="2.23" transform="translate(-231.58 264.97) rotate(-67.56)"/><path class="cls-4" d="M141.29,250.47c-1.32-.31-1.4-1.25-1.41-1.29-.17-.87-.42-2.33-.42-2.33-.5-1.79-1.33-1.86-1.34-1.86v-.69c.14,0,1.34.07,2,2.4,0,0,.26,1.49.44,2.39,0,0,.08.53.89.72Z" transform="translate(-96.63 -12.75)"/><path class="cls-4" d="M134.21,241.23c-1-2.82-2-6-2-6-2.08-11.08,2.38-15.94,2.57-16.14a3.59,3.59,0,0,0,1-2.62,1.36,1.36,0,0,0-.55-.89c-.89-.49-1-1-1-1.2-.37-2,2.61-2.7,2.75-2.74h0s.79-.29,2.79-1.22a4.52,4.52,0,0,0,2.38-1.6,1.41,1.41,0,0,0,.09-1.15l.65-.21a2.09,2.09,0,0,1-.13,1.68,5,5,0,0,1-2.75,1.92c-2,.94-2.81,1.23-2.84,1.24s-2.54.6-2.27,2v.07h0s.06.3.68.64a2,2,0,0,1,.88,1.34,4.16,4.16,0,0,1-1.12,3.21c-.07.07-4.42,4.86-2.43,15.53h0s1,3.15,2,6Z" transform="translate(-96.63 -12.75)"/><path class="cls-4" d="M139.41,266.22c-.29-4.65-.89-9-.89-9.08-.39-3.37-3.4-12.3-3.43-12.39a32.6,32.6,0,0,1-1.56-10.68c-.08-3.38,0-9.12,0-9.18s.25-3.93,1.24-5.74l.6.33c-.92,1.68-1.16,5.4-1.16,5.44s-.08,5.77,0,9.16c0,.08-.15,6,1.52,10.45.13.38,3.07,9.1,3.47,12.53,0,0,.61,4.44.9,9.12Z" transform="translate(-96.63 -12.75)"/><path class="cls-4" d="M140.82,207.21a8.84,8.84,0,0,1,.52-6.52,4.87,4.87,0,0,1,1.29-3.87,6.58,6.58,0,0,0,.79-1.11c.64-2.08,0-9.52,0-9.6a2.37,2.37,0,0,0-.84-1.69,1,1,0,0,0-.74-.11l-.23-.65a1.64,1.64,0,0,1,1.3.16,3,3,0,0,1,1.18,2.2c0,.34.69,7.67,0,9.94a6.59,6.59,0,0,1-.93,1.33,4.21,4.21,0,0,0-1.09,3.43v.12l-.06.1a8.14,8.14,0,0,0-.5,6.08Z" transform="translate(-96.63 -12.75)"/><path class="cls-4" d="M135.29,205.15c-3.31,0-3.59-2.69-3.59-2.72-.49-3,3.31-4.49,3.47-4.56,2-.73,4.13-3.39,4.15-3.41l.54.43c-.09.12-2.27,2.83-4.45,3.63,0,0-3.43,1.39-3,3.83,0,.11.25,2.12,2.91,2.12Z" transform="translate(-96.63 -12.75)"/><path class="cls-4" d="M135,212.88a3.31,3.31,0,0,0-.21-.46l0,0-.24-.2a6.73,6.73,0,0,1-1-.88,2.07,2.07,0,0,1-.27-1.77A3.06,3.06,0,0,1,134.9,208a2,2,0,0,0,1.2-.87,2.25,2.25,0,0,0-.93-1.12l-.11-.07a1.62,1.62,0,0,1-.44-1.49c.25-1,1.5-1.73,3.72-2.3a10,10,0,0,1,3.1,0l-.12.68a9.45,9.45,0,0,0-2.84,0c-2.54.65-3.1,1.4-3.2,1.79a.89.89,0,0,0,.22.79,3.11,3.11,0,0,1,1.3,1.6l0,.08v.09c0,.09-.16.91-1.65,1.48a2.4,2.4,0,0,0-1.23,1.16,1.38,1.38,0,0,0,.19,1.17s.12.14.71.64h0c.28.06.5.36.75,1Z" transform="translate(-96.63 -12.75)"/><path class="cls-4" d="M135.48,206l-.39-.56a7.47,7.47,0,0,1,6.05-1.36l-.19.66A6.93,6.93,0,0,0,135.48,206Z" transform="translate(-96.63 -12.75)"/><path class="cls-4" d="M135.86,208.28l-.15-.67c3.53-.77,4.64-2.11,4.66-2.13l.54.42C140.86,206,139.67,207.44,135.86,208.28Z" transform="translate(-96.63 -12.75)"/><path class="cls-4" d="M141.73,210.11a42.38,42.38,0,0,1-7.69-.92l.15-.67a39.21,39.21,0,0,0,7.78.9v.69Z" transform="translate(-96.63 -12.75)"/><path class="cls-4" d="M141.43,213.57l-.55-.41c2.33-3.08,1.39-5.35,1.35-5.45l0-.08a10.08,10.08,0,0,1,0-3.47c.07-2.73-.56-3-.57-3.05l.08-.68c.3,0,1.27.33,1.17,3.81a9.76,9.76,0,0,0,0,3.23C143,207.83,143.87,210.34,141.43,213.57Z" transform="translate(-96.63 -12.75)"/><path class="cls-4" d="M142,212.69l-.64-.26v0c0-.05,0-.38-1-1.64l.54-.42C142,211.81,142.16,212.34,142,212.69Z" transform="translate(-96.63 -12.75)"/><path class="cls-4" d="M138.69,206.16a8.18,8.18,0,0,1-4.16-.91l.37-.58c1.94,1.22,5.65.69,5.69.68l.1.68A14.74,14.74,0,0,1,138.69,206.16Z" transform="translate(-96.63 -12.75)"/><path class="cls-4" d="M139.64,272.68a1.85,1.85,0,0,1-1.07-.31,1.77,1.77,0,0,1-.7-1.05c-.47-3.39.62-4.77.67-4.83,2.44-2.72,6.93.92,7.12,1.07l-.44.53s-4.17-3.37-6.17-1.16h0s-.93,1.24-.51,4.27c0,.09.23,1,1.51.74a3.65,3.65,0,0,0,2.44-1.3l.58.36a4.25,4.25,0,0,1-2.92,1.62A2.77,2.77,0,0,1,139.64,272.68Z" transform="translate(-96.63 -12.75)"/><path class="cls-4" d="M143,285.33l-.44-.53c2-1.6,1.76-4.58,1.76-4.61a5.56,5.56,0,0,1-.17-2.29,4.64,4.64,0,0,1,1-2.18,5.39,5.39,0,0,0-.75-5.43A3.49,3.49,0,0,0,142,269v-.69a4.09,4.09,0,0,1,2.93,1.54,6,6,0,0,1,.82,6.22l0,.07a4.14,4.14,0,0,0-.87,1.87,5.22,5.22,0,0,0,.16,2.09C145,280.27,145.23,283.5,143,285.33Z" transform="translate(-96.63 -12.75)"/><path class="cls-4" d="M145.79,280.83l-.68-.08c.37-3.07-.42-3.5-.43-3.5-4.15-1.61-9.5,1-9.55,1l-.31-.62c.23-.11,5.67-2.77,10.11-1C145.13,276.67,146.23,277.21,145.79,280.83Z" transform="translate(-96.63 -12.75)"/><path class="cls-4" d="M141.11,283l-.52-.45a3.37,3.37,0,0,0,.84-1.92,7.71,7.71,0,0,1,1.07-4.06l.58.37a7.17,7.17,0,0,0-1,3.69A4,4,0,0,1,141.11,283Z" transform="translate(-96.63 -12.75)"/><path class="cls-4" d="M138.31,282.56,138,282a4,4,0,0,0,1.44-2.1,9.52,9.52,0,0,1,2.07-3.71l.5.47a9,9,0,0,0-1.91,3.42A4.7,4.7,0,0,1,138.31,282.56Z" transform="translate(-96.63 -12.75)"/><path class="cls-4" d="M135.67,282.28l-.21-.65a4.24,4.24,0,0,0,2.32-2.22,6.38,6.38,0,0,1,1.55-3.29l.45.52-.23-.26.23.26a6.11,6.11,0,0,0-1.35,3A4.85,4.85,0,0,1,135.67,282.28Z" transform="translate(-96.63 -12.75)"/><path class="cls-4" d="M133.44,282.05l-.23-.65a13.71,13.71,0,0,0,2.62-2.4,3.42,3.42,0,0,0,.6-1.74h.69a4.1,4.1,0,0,1-.76,2.17A13.76,13.76,0,0,1,133.44,282.05Z" transform="translate(-96.63 -12.75)"/><path class="cls-4" d="M140.31,283.4l-.36-.58a9.08,9.08,0,0,1,3.37-1.08l.09.68A8.56,8.56,0,0,0,140.31,283.4Z" transform="translate(-96.63 -12.75)"/><path class="cls-4" d="M135.3,282.53l-.66-.18c0-.18.36-1,2.92-1l0,.69C135.9,282,135.37,282.38,135.3,282.53Z" transform="translate(-96.63 -12.75)"/><path class="cls-4" d="M133.08,282.64l-.67-.14s.41-1.83,2.95-1.44l-.1.68C133.38,281.45,133.09,282.59,133.08,282.64Z" transform="translate(-96.63 -12.75)"/><path class="cls-4" d="M137.54,283.2l-.66-.17c0-.07.45-1.66,3.63-1.29l-.08.68C137.9,282.12,137.54,283.19,137.54,283.2Z" transform="translate(-96.63 -12.75)"/><rect class="cls-4" x="143.93" y="266.34" width="1.53" height="0.69" transform="translate(-143.6 18.73) rotate(-10.7)"/><path class="cls-4" d="M145.55,48.59c-1.48-3.48-2.68-6.55-2.7-6.58a27.26,27.26,0,0,1-1.51-9.89c.43-4.95-.21-6.44-.22-6.45l.62-.29c0,.06.73,1.6.29,6.79a27.1,27.1,0,0,0,1.47,9.59s1.22,3.09,2.69,6.56Z" transform="translate(-96.63 -12.75)"/><path class="cls-4" d="M144.27,44.12l-.56-.4a12.79,12.79,0,0,0,2.5-6.77c.08-2.52,1-3.47,1.06-3.51l.48.49a4.72,4.72,0,0,0-.85,3A13.29,13.29,0,0,1,144.27,44.12Z" transform="translate(-96.63 -12.75)"/><path class="cls-4" d="M145.66,40a3,3,0,0,0-1.21-1.81l.38-.57a3.7,3.7,0,0,1,1.51,2.27Z" transform="translate(-96.63 -12.75)"/><path class="cls-4" d="M146.76,37.22l-.41-.55a5.19,5.19,0,0,1,2.14-.88,1.53,1.53,0,0,0,1.64-1.5h.69a2.17,2.17,0,0,1-2.28,2.19A4.54,4.54,0,0,0,146.76,37.22Z" transform="translate(-96.63 -12.75)"/><path class="cls-4" d="M145.78,31.58a2.82,2.82,0,0,1-.56-.05l-.18,0-.07-.17c-.21-.54-1.05-.76-1.36-.8a6.44,6.44,0,0,0-1.67.26l-.28-.63a6.42,6.42,0,0,1,2-.31,2.66,2.66,0,0,1,1.89,1,1.82,1.82,0,0,0,1.44-.4l.48.49A2.34,2.34,0,0,1,145.78,31.58Z" transform="translate(-96.63 -12.75)"/><path class="cls-4" d="M144,30.18h-.69c0-1.6,1.81-2.12,1.89-2.15l.18.66S144,29.1,144,30.18Z" transform="translate(-96.63 -12.75)"/><path class="cls-4" d="M145,21c-1-3.17.78-4.34.85-4.39l.37.58c-.06,0-1.4,1-.57,3.61Z" transform="translate(-96.63 -12.75)"/><path class="cls-4" d="M143.48,23.1l-.5-.48a9,9,0,0,1,4.46-2.71l.12.68A8.47,8.47,0,0,0,143.48,23.1Z" transform="translate(-96.63 -12.75)"/><path class="cls-4" d="M143.32,24.21a12.51,12.51,0,0,1-.35-4.82c0-.19,0-.41,0-.47l.32,0,0-.4.28.11c.14.15.13.31.08.86A11.88,11.88,0,0,0,144,24Z" transform="translate(-96.63 -12.75)"/><rect class="cls-4" x="142.47" y="19.34" width="0.69" height="1.58" transform="translate(-68.16 95.28) rotate(-45.58)"/><path class="cls-4" d="M141.75,27.21l-.32-.39A6.18,6.18,0,0,1,140,23.58l.69,0a5.6,5.6,0,0,0,.93,2.46c.62-1,2.23-3.18,4.3-3.47l.1.68c-2.26.32-4,3.53-4.06,3.56Z" transform="translate(-96.63 -12.75)"/><path class="cls-4" d="M141,25l-.68,0a25.43,25.43,0,0,1,1.22-3l.62.3C141.89,22.69,141,24.69,141,25Z" transform="translate(-96.63 -12.75)"/><path class="cls-4" d="M144.38,25.51c-.54-.2-1.26-.29-1.42-.1l-.52-.44c.55-.66,1.91-.2,2.18-.1Z" transform="translate(-96.63 -12.75)"/><path class="cls-4" d="M142,34.92l-.6-.33a4.11,4.11,0,0,1,1.88-1.71l.23.65A3.44,3.44,0,0,0,142,34.92Z" transform="translate(-96.63 -12.75)"/><path class="cls-4" d="M141.67,58.69a8.2,8.2,0,0,0-.31-1.89,6.5,6.5,0,0,1,.9-5.39,21.25,21.25,0,0,0,2-6l.68.11a21.58,21.58,0,0,1-2.15,6.23,5.92,5.92,0,0,0-.81,4.81,8.64,8.64,0,0,1,.34,2Z" transform="translate(-96.63 -12.75)"/><path class="cls-4" d="M138.1,55.84l-.53-.44a2.8,2.8,0,0,1,2.11-1,7.82,7.82,0,0,0,1.68-.41l.25.64a7.88,7.88,0,0,1-1.93.45A2.25,2.25,0,0,0,138.1,55.84Z" transform="translate(-96.63 -12.75)"/><path class="cls-4" d="M140.12,53.34l-.17-.67a4,4,0,0,1,2,0l-.23.65A3.28,3.28,0,0,0,140.12,53.34Z" transform="translate(-96.63 -12.75)"/><path class="cls-4" d="M143.82,54.93a11.25,11.25,0,0,1-2.27-1.69l.49-.48a10.7,10.7,0,0,0,2.11,1.57Z" transform="translate(-96.63 -12.75)"/><path class="cls-4" d="M146.2,52.36l-.42-.55a14.21,14.21,0,0,0,3.51-3.95l.61.31A14.64,14.64,0,0,1,146.2,52.36Z" transform="translate(-96.63 -12.75)"/><path class="cls-4" d="M150.15,51.58s-1.68-.09-3-.19l.05-.68c1.29.1,3,.19,3,.19Z" transform="translate(-96.63 -12.75)"/><path class="cls-4" d="M151.15,54.46a8.57,8.57,0,0,0-2.81-2.92l.34-.6a9.13,9.13,0,0,1,3.07,3.18Z" transform="translate(-96.63 -12.75)"/><path class="cls-4" d="M113.33,130.95l-1.37-.14c.52-5.06,3.73-10.84,3.86-11.08a21,21,0,0,0,1.38-3.64,19.9,19.9,0,0,1,1.7-6.59,51.65,51.65,0,0,0,2.28-5.71c.91-3.22,1.93-12.72,1.94-12.82a42.45,42.45,0,0,1,3-10.73,23.58,23.58,0,0,0,1.66-5.51c.16-2.13.5-4.23.51-4.32l0-.08c2.67-9.51,6.3-11.49,6.79-11.71s5-2.61,9.22.79l-.87,1.06a7.1,7.1,0,0,0-7.71-.64l-.08,0s-3.44,1.61-6,10.79c0,.3-.35,2.26-.5,4.24a24.34,24.34,0,0,1-1.8,6h0a42.16,42.16,0,0,0-2.84,10.27c0,.36-1,9.68-2,13a51.46,51.46,0,0,1-2.38,6h0a19,19,0,0,0-1.54,6.13l0,.12a22.49,22.49,0,0,1-1.52,4C117,120.45,113.83,126.17,113.33,130.95Z" transform="translate(-96.63 -12.75)"/><path class="cls-4" d="M131.65,71l-.65-.23a12.36,12.36,0,0,1,2.31-3.8c.12-.25.92-2.17,0-6.24l.67-.15c1.06,4.66,0,6.68-.08,6.76l0,.06A11.82,11.82,0,0,0,131.65,71Z" transform="translate(-96.63 -12.75)"/><path class="cls-4" d="M135.47,62.88l-.31-.61a4.59,4.59,0,0,0,1.88-1.7h0a4.83,4.83,0,0,0,.09-2.09l.67-.16a5.42,5.42,0,0,1-.11,2.48A5.18,5.18,0,0,1,135.47,62.88Z" transform="translate(-96.63 -12.75)"/><rect class="cls-4" x="131.29" y="68.25" width="1.45" height="0.69" transform="translate(-110.71 27.76) rotate(-16.58)"/><path class="cls-4" d="M128.23,87.76a11.45,11.45,0,0,1,.93-5,17,17,0,0,0,.84-4.54c.16-3.67-1.52-4.33-1.54-4.33l.22-.65c.09,0,2.18.78,2,5a17.47,17.47,0,0,1-.89,4.79,11,11,0,0,0-.87,4.75Z" transform="translate(-96.63 -12.75)"/><path class="cls-4" d="M120,72.08l-.68-.12c0-.07.34-1.82,3.55-2.29H123a15.49,15.49,0,0,0,4.6-.43,5.83,5.83,0,0,0,2.08-1.1l.49.48a6.42,6.42,0,0,1-2.38,1.28,15.9,15.9,0,0,1-4.8.45C120.32,70.75,120,72,120,72.08Z" transform="translate(-96.63 -12.75)"/><path class="cls-4" d="M118.81,74.18l-.3-.62a3.81,3.81,0,0,0,1.64-2.71l.67.14A4.43,4.43,0,0,1,118.81,74.18Z" transform="translate(-96.63 -12.75)"/><path class="cls-4" d="M119.36,71.4a6.09,6.09,0,0,1-1.29-.13l.16-.67a5.41,5.41,0,0,0,2.18,0l.16.67A5.26,5.26,0,0,1,119.36,71.4Z" transform="translate(-96.63 -12.75)"/><path class="cls-4" d="M119.58,77l-.52-.44c.08-.09,1.95-2.3,3.07-3.33h0s.65-.72.49-3.24l.69,0c.18,2.86-.62,3.7-.71,3.79C121.5,74.79,119.6,77,119.58,77Z" transform="translate(-96.63 -12.75)"/><path class="cls-4" d="M120.82,77.51a5.16,5.16,0,0,1-.1-2.7l.68.1a4.84,4.84,0,0,0,.05,2.32Z" transform="translate(-96.63 -12.75)"/><path class="cls-4" d="M122,81.65l-.32-.61a37,37,0,0,0,6-3.93l.46.51A36.91,36.91,0,0,1,122,81.65Z" transform="translate(-96.63 -12.75)"/><path class="cls-4" d="M122.23,100.64c-.85-2.15-.74-9.3-.74-9.61a31.51,31.51,0,0,1,0-5.58c0-2.68,3.49-6.3,3.63-6.45l.49.48s-3.44,3.57-3.44,6a32.09,32.09,0,0,0,0,5.52c0,.1-.1,7.35.69,9.38Z" transform="translate(-96.63 -12.75)"/><polygon class="cls-4" points="24.66 70.03 24.18 69.53 25.75 68.05 23.7 66.94 24.02 66.33 26.91 67.89 24.66 70.03"/><path class="cls-4" d="M118.39,110.8c-.94-1.24-.15-4.08-.06-4.4,1.1-2.71,1.81-8.81,1.81-8.87.31-6.44,1.09-6.73,1.38-6.84a.52.52,0,0,1,.56.12l-.5.47a.16.16,0,0,0,.19,0c-.07,0-.68.63-1,6.26,0,.28-.73,6.28-1.85,9-.21.75-.66,2.95,0,3.76Z" transform="translate(-96.63 -12.75)"/><path class="cls-4" d="M117.1,117.92c-1.85-3.13-.93-5.06-.89-5.14a18.08,18.08,0,0,0,1.75-3.49l.64.24a18.35,18.35,0,0,1-1.79,3.57c-.09.22-.66,1.86.88,4.46Z" transform="translate(-96.63 -12.75)"/><path class="cls-4" d="M123.19,114l-.48-.49c1.51-1.46,1.59-4.51,1.59-4.54-.62-5.62,0-8.16,0-8.27a19.54,19.54,0,0,0,1-4.19,53.64,53.64,0,0,1,0-5.55c.15-3.29-.61-4-.61-4l.39-.57c.18.12,1.08.89.91,4.56a54.64,54.64,0,0,0,0,5.5,18.86,18.86,0,0,1-1,4.39s-.6,2.53,0,8.05C125,109.13,124.91,112.35,123.19,114Z" transform="translate(-96.63 -12.75)"/><path class="cls-4" d="M122,117.29l-.27-.63a6.9,6.9,0,0,0,3.34-3.84c.15-.54.25-1.5,0-1.76-.09-.09-.26-.1-.5,0l-.2-.66a1.12,1.12,0,0,1,1.18.19c.66.64.28,2.16.2,2.46A7.49,7.49,0,0,1,122,117.29Z" transform="translate(-96.63 -12.75)"/><path class="cls-4" d="M121.12,122.51a33,33,0,0,1,.26-3.87,25.09,25.09,0,0,0,0-5,3.48,3.48,0,0,1,.16-3.13,9.64,9.64,0,0,0,1.07-4.85l.68-.08a10.21,10.21,0,0,1-1.15,5.26l0,.07s-.61.77,0,2.55v.07a25.62,25.62,0,0,1,0,5.2,33.05,33.05,0,0,0-.25,3.76Z" transform="translate(-96.63 -12.75)"/><path class="cls-4" d="M124.39,106.41a4.78,4.78,0,0,1-3.18-1.1l.49-.48a4.23,4.23,0,0,0,2.71.89Z" transform="translate(-96.63 -12.75)"/><path class="cls-4" d="M112.81,151.28l-.32-.61c.85-.45,2.34-3.62,3.09-5.54.29-2.12,1.82-8.52,1.89-8.79a37.86,37.86,0,0,0,.34-9.38c0-.1-.42-3,4.27-5.23l.1,0a1.61,1.61,0,0,0,1.19-1.44,11.87,11.87,0,0,1,.74-2.67l0-.06a1.69,1.69,0,0,0-.07-2.3l.46-.51a2.32,2.32,0,0,1,.18,3.2,11.68,11.68,0,0,0-.66,2.45,2.3,2.3,0,0,1-1.71,2c-4.15,2-3.86,4.4-3.84,4.51a38.64,38.64,0,0,1-.35,9.61c0,.08-1.62,6.74-1.89,8.78l0,.08C116,145.87,114.17,150.55,112.81,151.28Z" transform="translate(-96.63 -12.75)"/><path class="cls-4" d="M113.6,140.08l-.69,0c0-.38.32-9.31,5-13.39l.45.52C113.9,131.06,113.6,140,113.6,140.08Z" transform="translate(-96.63 -12.75)"/><path class="cls-4" d="M112.26,147.19l-.59-.34c0-.06,3.71-6.54,4.78-18.49l.68.06C116,140.53,112.3,147.13,112.26,147.19Z" transform="translate(-96.63 -12.75)"/><path class="cls-4" d="M110.94,154.43a1.62,1.62,0,0,1-.83-.22c-1-.28-1.06-1.85-1.06-2-.16-1.21-.42-2.26-.42-2.27l0-.1,0-.09a62.41,62.41,0,0,0,1.88-8.16c0-.07,1.13-7.35,2.05-12.33l.68.13c-.92,5-2,12.25-2,12.32a65.67,65.67,0,0,1-1.87,8.18c.07.29.27,1.2.41,2.29,0,.46.15,1.34.59,1.43l.08,0,.06,0s.76.53,2-.66c0,0,2.49-2.63,1.73-4.37l.63-.27c.93,2.16-1.76,5-1.87,5.12A2.82,2.82,0,0,1,110.94,154.43Z" transform="translate(-96.63 -12.75)"/><path class="cls-4" d="M125,100.82l-.68-.06a10.66,10.66,0,0,0-1.05-5.61l.6-.34A11.2,11.2,0,0,1,125,100.82Z" transform="translate(-96.63 -12.75)"/><path class="cls-4" d="M118.38,124.93a2.8,2.8,0,0,1,.73-2.62,10.63,10.63,0,0,0,.64-5.17,5.71,5.71,0,0,1-1.3-4.43l.68.11a5.07,5.07,0,0,0,1.18,3.92l.06.06,0,.08c0,.08.56,2-.66,5.74l0,.1-.09.06a2.07,2.07,0,0,0-.55,2Z" transform="translate(-96.63 -12.75)"/><path class="cls-4" d="M98.78,165.27a1.6,1.6,0,0,1-.89-.23,1.16,1.16,0,0,1-.52-1v-.17l.14-.1a11.14,11.14,0,0,0,2.12-2.89,15.09,15.09,0,0,1,3.68-6.08l.07,0a4.34,4.34,0,0,0,1.65-2.13c0-.12.56-1.33,3.76-3.12l.33.6c-3,1.66-3.45,2.76-3.45,2.77a5.06,5.06,0,0,1-1.92,2.46,15.09,15.09,0,0,0-3.49,5.82,13.3,13.3,0,0,1-2.19,3,.45.45,0,0,0,.19.25c.21.13.92.33,2.92-.66.17-.31.76-1.38,1.42-2.85.07-.37.63-2.68,3.54-5.26l.46.51c-2.9,2.58-3.32,4.88-3.32,4.9l0,.09c-.81,1.8-1.49,3-1.52,3l-.05.09-.09,0A6.8,6.8,0,0,1,98.78,165.27Z" transform="translate(-96.63 -12.75)"/><path class="cls-4" d="M110,159c-1.84,0-3-2-3.09-2.09a9.29,9.29,0,0,0-2.41-2.79l.42-.54a9.7,9.7,0,0,1,2.6,3h0s1.18,1.95,2.8,1.68a3.12,3.12,0,0,0,2.68-2.85l.68.1a3.84,3.84,0,0,1-3.27,3.43A2.61,2.61,0,0,1,110,159Z" transform="translate(-96.63 -12.75)"/><path class="cls-6" d="M101,158.69a7.45,7.45,0,0,0,1.54,3.48" transform="translate(-96.63 -12.75)"/><path class="cls-4" d="M106.59,174.69a.69.69,0,0,1-.56-.31l-.08-.13,0-.15c.66-2.41.57-8.55.57-8.61a6.89,6.89,0,0,0-.47-2.47l-.42.39a33.43,33.43,0,0,0-1.05,6.49c0,.37-.29,3.3-1.77,3.57h-.13a.7.7,0,0,1-.43-.33c-.63-.94-.53-3.61.3-7.72a29.1,29.1,0,0,0,.65-6l.69,0a29.19,29.19,0,0,1-.66,6.15c-1.12,5.54-.59,6.9-.41,7.19.66-.32,1-2,1.07-2.86a34.51,34.51,0,0,1,1.1-6.74l0-.1.08-.07.66-.61h0l.05,0c2.6-2.39,3.77-3.45,4.33-3.88l0,0,.1-.11,0,0c.33-.23.4-.16.5-.06s0,.48-.14.63a4.16,4.16,0,0,0-1.26,3.22v.07c-1,12-2.24,12.36-2.66,12.47Zm0-12.17a7.56,7.56,0,0,1,.62,3,51.44,51.44,0,0,1-.49,8.39c.35-.47,1.24-2.55,2-11.69a4.52,4.52,0,0,1,.23-1.78Z" transform="translate(-96.63 -12.75)"/><path class="cls-4" d="M109.69,175.25a1.33,1.33,0,0,1-1-.71l-.08-.11,0-.14c.32-2,.92-7.37-.16-8.91L109,165c1.36,1.94.46,8.21.3,9.27.2.26.34.31.39.3.22,0,.51-.72.62-1.3.19-1.22.78-7.7.86-8.6a28.91,28.91,0,0,0-2.23-3.39l.54-.42a28.91,28.91,0,0,1,2.34,3.57l0,.09v.1c0,.3-.66,7.43-.88,8.77-.06.29-.36,1.69-1.15,1.85Z" transform="translate(-96.63 -12.75)"/><path class="cls-4" d="M112.85,172c-.43,0-.66-.61-.78-.91l0-.08s-.39-2.89-.6-7.79l.69,0c.2,4.55.55,7.32.59,7.69l.09.21a39.55,39.55,0,0,0,.22-6.84c.88-6-.45-6.55-.46-6.55l.09-.68a1,1,0,0,1,.66.43c.54.68,1,2.42.39,6.84.24,7.49-.49,7.64-.77,7.7Z" transform="translate(-96.63 -12.75)"/><path class="cls-3" d="M157.67,91.33c-3.89-.41-4.07-2.52-4.08-2.61-.29-1.08,1.18-2.15,1.35-2.26,1-.9.06-2.37-.18-2.7A4,4,0,0,1,153,81.44v-.07c-.11-1.49.18-2.54.88-3.11a2.26,2.26,0,0,1,1.9-.4c1.53.28,3.36,2.17,3.62,2.44a9.71,9.71,0,0,1,3,4.27,6.87,6.87,0,0,0,3.19,3.59l-.31.61a7.45,7.45,0,0,1-3.54-4,9.14,9.14,0,0,0-2.8-3.93l-.06-.05s-1.88-2-3.29-2.27a1.6,1.6,0,0,0-1.32.26,3,3,0,0,0-.63,2.49,3.24,3.24,0,0,0,1.46,1.89l.08,0,.05.07c.63.79,1.45,2.58.11,3.73-.35.25-1.24,1-1.09,1.61,0,.13.2,1.7,3.47,2Z" transform="translate(-96.63 -12.75)"/><path class="cls-4" d="M155.47,93.07a7.42,7.42,0,0,1-2.54-3.13c-.57-1.33.93-3.06,1.23-3.4a2.94,2.94,0,0,0,.42-2.29.78.78,0,0,0-.41-.45,4,4,0,0,1-1.88-2.37v-.07c-.11-1.49.18-2.54.88-3.11a2.26,2.26,0,0,1,1.9-.4l.08,0a8.83,8.83,0,0,1,3.6,4.5l-.65.23a8.27,8.27,0,0,0-3.25-4.1,1.57,1.57,0,0,0-1.25.28,3,3,0,0,0-.63,2.49,3.24,3.24,0,0,0,1.46,1.89,1.43,1.43,0,0,1,.78.81,3.63,3.63,0,0,1-.45,2.92l-.06.08c-.44.47-1.5,1.86-1.14,2.7a6.84,6.84,0,0,0,2.27,2.82Z" transform="translate(-96.63 -12.75)"/><path class="cls-3" d="M157.46,84.32s-.63-.87-2.41-.51l-.14-.67c2.26-.47,3.08.75,3.12.8Z" transform="translate(-96.63 -12.75)"/><path class="cls-4" d="M144.72,88.62l-.68-.08c.21-1.87,2.81-4.54,2.92-4.65a13.3,13.3,0,0,0,2-4.82l.68.12a13.74,13.74,0,0,1-2.12,5.15C147.42,84.4,144.9,87,144.72,88.62Z" transform="translate(-96.63 -12.75)"/><path class="cls-4" d="M151.57,89.18a8.18,8.18,0,0,1-2.35-1.77l0-.06a15,15,0,0,0-2.2-3l.47-.5a15.17,15.17,0,0,1,2.3,3.09,7.46,7.46,0,0,0,2.08,1.57Z" transform="translate(-96.63 -12.75)"/><path class="cls-4" d="M148.89,92.29l-1.26-1.8a13.72,13.72,0,0,1-2.45-3.87l.63-.27a13.18,13.18,0,0,0,2.3,3.66l.05.06,1.28,1.83Z" transform="translate(-96.63 -12.75)"/></svg>