<svg id="Anatomy_01_Female" data-name="Anatomy 01_Female" xmlns="http://www.w3.org/2000/svg" viewbox="0 0 109.79 257.25" width="109.79" height="257.25"><defs><style>.cls-1{fill:#e9aead;stroke:none;}.cls-2{fill:#fbddca;stroke:none;}</style></defs><title>Anatomy 01_Female</title><path class="cls-1" d="M156.05,277.9a3.33,3.33,0,0,1-3.17-1.61c-.75-1.39-.41-2.32.14-3.86l.16-.44a11.76,11.76,0,0,0,.31-6.3,10.25,10.25,0,0,1,.46-6.52c.85-2.4.78-9-.2-19.69a98.17,98.17,0,0,1,0-17.72,31.85,31.85,0,0,0,0-8v-.12a48,48,0,0,0-.74-4.89,121.79,121.79,0,0,1-2.11-24.56,196,196,0,0,0-.89-20.7,198.77,198.77,0,0,0-.9,20.7A121.93,121.93,0,0,1,147,208.71a47.93,47.93,0,0,0-.74,4.89v.12a31.8,31.8,0,0,0,0,8,98.07,98.07,0,0,1,0,17.72c-1,10.67-1.05,17.29-.2,19.69a10.26,10.26,0,0,1,.46,6.53,11.8,11.8,0,0,0,.31,6.3l.15.43c.56,1.54.9,2.48.11,4a3.34,3.34,0,0,1-3.13,1.53,4.69,4.69,0,0,1-2.75-.86l-1.39.07c-.78,0-1.58.09-2.35.09s-2.61,0-3.45-.92h0c-1.38,0-2.35-.58-2.58-1.54-.12-.5-.16-1.77,2-2.94a18.69,18.69,0,0,0,2.28-4.66,9.36,9.36,0,0,0,.2-1.43,14.19,14.19,0,0,1,.24-1.75c.05-.24.11-.47.17-.69a5.24,5.24,0,0,0,0-3.23c-.63-2.44-5.59-24.31-6.4-29.12a47.18,47.18,0,0,1,.9-17.33c1.22-5.49.46-11.6-.21-15.73-.18-1.12-.81-4.15-1.61-8-1.47-7.11-3.49-16.85-4.19-21.79-1.11-7.8-2.35-18.92-.33-25.34.5-1.59,1.58-4.37,2.82-7.58,2.13-5.5,5.7-14.71,5.38-16.21l0-.08v-.08a130,130,0,0,0-1.48-15c-.35,1.8-.77,3.38-1.14,4.8-.27,1-.52,2-.73,2.89v.31c-.1,2.35-.2,5-3.68,14.36-.47,1.26-1.53,3.93-2.88,7.32-2.47,6.2-5.84,14.65-7.39,19.13a27,27,0,0,1-.78,10.74c0,.64,0,3.28-.14,5.89-.19,4.08-.72,5.53-2,5.53a1.29,1.29,0,0,1-.45-.08,2.32,2.32,0,0,1-1.31-2.14,14,14,0,0,1-1.33,3.35,1.88,1.88,0,0,1-2.88.31,2.49,2.49,0,0,1-1.07.28,1.57,1.57,0,0,1-.51-.08c-.93-.32-1.14-1.18-1.07-2.55-.41,1-.92,1.61-1.74,1.61h-.1l-.18,0-.21,0-.17-.12c-.9-.63-.83-2.1-.67-2.79.21-.88,1.22-6.61,1.37-8,0-.09,0-.41,0-.83,0-.7.11-1.74.16-2.77l-.21.21a16.19,16.19,0,0,1-1.35,1.24,5.57,5.57,0,0,1-3.18,1,2.23,2.23,0,0,1-2-.88c-1-1.55.09-2.28,1.6-3.3l.14-.09A6.25,6.25,0,0,0,98.95,157a15.36,15.36,0,0,1,2-2.74l.45-.49a13.87,13.87,0,0,1,5.18-4A158.39,158.39,0,0,0,111,130.93c1.67-8.56,3.11-16,5.59-18.81a84,84,0,0,1,1.24-11.3c.45-2.91.91-5.91,1.19-9-.25-9.66.77-14.36,1.56-17.05,1.2-4.09,3.56-6.93,11.57-8.42,4.45-1.61,7.56-3.79,9.49-6.65,1.46-2.16,1-5.54.89-6.42A20,20,0,0,1,139,45c-1.59-.71-2.85-4-3-4.4-.56-1.5-1.27-4.2.24-5.51a2,2,0,0,1,1.25-.45h.23c0-1.18.06-2.77.06-3.91,0-2.53,2-9.25,11.26-10a4.21,4.21,0,0,1,.84-.06h.23a4.21,4.21,0,0,1,.84.06c9.24.76,11.26,7.48,11.26,10,0,1.15,0,2.74.06,3.91h.23a2,2,0,0,1,1.19.4c1.56,1.35.85,4.05.29,5.55-.15.41-1.41,3.68-3,4.39a20,20,0,0,1-3.55,8.33,10.54,10.54,0,0,0,1,6.5c.77,1.46,3,4.24,9.44,6.56,8,1.48,10.36,4.32,11.57,8.42.79,2.69,1.81,7.38,1.56,17.05.28,3.06.74,6.07,1.19,9a83.78,83.78,0,0,1,1.24,11.3c2.48,2.81,3.93,10.25,5.59,18.81a159.36,159.36,0,0,0,4.44,18.82c2.23.81,3.64,2.33,5.26,4.07l.4.43a15.42,15.42,0,0,1,2,2.74,6.27,6.27,0,0,0,1.73,2.13l.14.09c1.5,1,2.59,1.74,1.6,3.29a2.24,2.24,0,0,1-2,.88,5.57,5.57,0,0,1-3.17-1c-.5-.39-1-.9-1.56-1.4,0,1,.12,2.06.16,2.77,0,.39,0,.69.05.84.15,1.38,1.17,7.13,1.36,7.91s.24,2.16-.67,2.8l-.17.12-.3.06H198c-.64,0-1.2-.49-1.69-1.29,0,1.21-.32,1.95-1.12,2.22a1.56,1.56,0,0,1-.52.08,2.51,2.51,0,0,1-1.07-.28,1.88,1.88,0,0,1-2.88-.31,14.2,14.2,0,0,1-1.33-3.38,2.34,2.34,0,0,1-1.33,2.17,1.24,1.24,0,0,1-.44.08h0c-1.3,0-1.83-1.45-2-5.53-.12-2.61-.14-5.25-.14-5.89a26.93,26.93,0,0,1-.78-10.74c-1.56-4.51-5-13-7.44-19.25-1.33-3.33-2.37-6-2.83-7.2-3.48-9.36-3.59-12-3.68-14.37v-.3c-.21-.94-.46-1.89-.73-2.89-.38-1.42-.8-3-1.14-4.78a133.5,133.5,0,0,0-1.48,15c-.11,2.56,3,10.45,5.29,16.2,1.29,3.25,2.4,6.06,2.9,7.76,1.46,4.93,1.35,13.45-.33,25.32-.7,4.95-2.72,14.69-4.2,21.8-.79,3.83-1.42,6.85-1.6,8-.67,4.12-1.43,10.24-.21,15.73a47.14,47.14,0,0,1,.9,17.33c-.8,4.77-5.76,26.67-6.39,29.12a5.27,5.27,0,0,0,0,3.24c.06.22.12.45.17.68a14.23,14.23,0,0,1,.24,1.75,9.22,9.22,0,0,0,.2,1.42,18.66,18.66,0,0,0,2.28,4.66c2.15,1.18,2.11,2.44,2,2.94-.23,1-1.2,1.54-2.58,1.54h0c-.84.92-2.6.92-3.45.92s-1.58,0-2.35-.09l-1.39-.07A4.69,4.69,0,0,1,156.05,277.9Z" transform="translate(-95.1 -20.65)"/><path class="cls-2" d="M169.69,102.89c.58,3.33,1.46,5.92,2,8.47.1,2.36,0,4.71,3.64,14.45,1.36,3.66,8.07,20,10.37,26.75-.52,1.94-.38,6.94.74,10.65,0,0,0,3,.14,6,.16,3.55.62,4.74,1.12,4.55s.7-.85.7-2c0-1.67,0-3.63,0-5,0-.39.2-.36.2-.36.22,0,.27.36.27.36.56,2.27,1.93,7.57,2.63,8.5a.91.91,0,0,0,1.67-.64c.19.31,1.15,1,1.66.81,1-.36,0-5-.26-9.27,0-.31.17-.28.17-.28.25,0,.3.41.3.41.58,3.56,1.86,8.38,3,8.15.38-.27.4-1.19.27-1.74-.21-.87-1.24-6.66-1.39-8.1,0-.56-.22-3.14-.27-5.11,0,0-.05-.47.15-.52,0,0,.15-.07.46.19.77.66,1.8,1.74,2.62,2.39,1.06.83,3.29,1.12,3.77.38s.22-.89-1.45-2-2-3-3.88-5-3.27-3.66-5.71-4.39c-4.61-13.44-6-34-10.25-38,0-6-1.75-13.15-2.43-20.65.26-9.74-.77-14.25-1.52-16.8-1-3.36-2.72-6.24-10.87-7.73-6.16-2.22-9-5-10.06-7.06a11.46,11.46,0,0,1-1-7.4A18.86,18.86,0,0,0,160.11,44c.94,1.28,5-6.38,3-8.14-.84-.63-1.78.41-1.78.41s-.1-3.45-.1-5.52-1.53-8.3-10.36-9a6.76,6.76,0,0,0-1.69,0c-8.83.72-10.37,7.06-10.37,9s-.09,5.52-.09,5.52-.94-1-1.78-.41c-2,1.76,2,9.42,3,8.14a18.89,18.89,0,0,0,3.62,8.91s.94,4.53-1,7.4c-1.32,1.95-3.9,4.85-10.06,7.06-8.15,1.5-9.89,4.38-10.87,7.73-.75,2.55-1.78,7.07-1.52,16.8-.68,7.5-2.44,14.62-2.44,20.65-4.28,4-5.63,24.58-10.25,38-3.05,1.35-3.84,2.38-5.71,4.39s-2.21,3.89-3.88,5-1.93,1.27-1.45,2,2.71.44,3.77-.38c.9-.71,1.74-1.73,2.54-2.32,0,0,.71-.46.68.4-.05,2-.24,4.43-.27,5-.15,1.43-1.18,7.22-1.39,8.1-.13.55-.11,1.47.27,1.74,1.22.24,1.7-5.16,3.13-8.46a.38.38,0,0,1,.27-.2.21.21,0,0,1,.17.23c0,4.57-1.44,9.05-.35,9.43.5.17,1.47-.49,1.66-.81a.92.92,0,0,0,1.68.64c.78-1,2.32-7.2,2.7-8.76.09-.35.17-.37.17-.37.29-.16.3.3.3.3,0,1.12-.08,3.28-.08,5.3,0,1.14.19,1.81.7,2s1-1,1.12-4.55c.14-3,.14-6,.14-6,1.12-3.71,1.26-8.71.74-10.65,2.31-6.72,9-23.09,10.38-26.75,3.63-9.74,3.53-12.1,3.64-14.45.57-2.62,1.49-5.29,2.07-8.76,0,0,.21-1.83.9-2,0,0,.44.13.72,2.23a118.7,118.7,0,0,1,1.65,15.94c.56,2.64-6.7,19.43-8.23,24.3-2,6.22-.71,17.34.36,24.9s5.26,26.49,5.8,29.76,1.54,10.06.2,16.1a46.5,46.5,0,0,0-.89,16.94c.8,4.78,5.77,26.69,6.38,29a7,7,0,0,1-.15,4.38c-.26,1.22-.19,2.15-.44,3.2a19,19,0,0,1-2.59,5.2c-2.67,1.37-1.94,3,.5,2.66.32,1.49,4.74.79,7,.79,1.59,1.4,4.23.9,4.66-.13.64-1.19.32-1.79-.32-3.58a12.77,12.77,0,0,1-.32-6.93,9.27,9.27,0,0,0-.44-5.9c-.64-1.79-1.12-6.37.15-20.12s-1-20.67,0-25.85c.4-5.21,2.84-11.15,2.84-29.38,0-12.73.76-20.53,1.32-24.06,0,0,.15-.73.58-.75,0,0,.47.07.59.88.56,3.58,1.3,11.32,1.3,23.93,0,18.23,2.45,24.18,2.85,29.38,1,5.17-1.27,12.1,0,25.85s.78,18.33.15,20.12a9.27,9.27,0,0,0-.45,5.9,12.73,12.73,0,0,1-.32,6.93c-.63,1.79-1,2.39-.32,3.58.43,1,3.08,1.53,4.66.13,2.23,0,6.66.7,7-.79,2.43.3,3.17-1.29.49-2.66a19,19,0,0,1-2.59-5.2c-.26-1.05-.19-2-.45-3.2a7,7,0,0,1-.15-4.38c.61-2.35,5.57-24.26,6.38-29a46.48,46.48,0,0,0-.89-16.94c-1.34-6-.33-12.83.2-16.1s4.73-22.2,5.8-29.76,2.21-18.68.36-24.9c-1.45-4.89-8.4-20.09-8.23-24.3a120.78,120.78,0,0,1,1.69-16.11s.2-1.81.88-1.87A5,5,0,0,1,169.69,102.89Z" transform="translate(-95.1 -20.65)"/></svg>