<svg id="Anatomy_03_Female" data-name="Anatomy 03_Female" xmlns="http://www.w3.org/2000/svg" xmlns:xlink="http://www.w3.org/1999/xlink" viewbox="0 0 95.18 259.92" width="95.18" height="259.92"><defs><style>.cls-1{fill:#e99b99;stroke:none;}.cls-2{fill:#fadcc9;stroke:none;}.cls-3{fill:url(#未命名的渐变_194);stroke:none;}.cls-4{fill:none;stroke:none;}</style><linearGradient id="&#x672A;&#x547D;&#x540D;&#x7684;&#x6E10;&#x53D8;_194" x1="142.44" y1="26.71" x2="142.44" y2="278.23" gradientunits="userSpaceOnUse"><stop offset="0" stop-color="#f6daba"/><stop offset="0.3" stop-color="#f6d6b5"/><stop offset="0.64" stop-color="#f8c8a8"/><stop offset="0.99" stop-color="#fab392"/><stop offset="1" stop-color="#fab291"/></linearGradient></defs><title>Anatomy 03_Female</title><path class="cls-1" d="M131.36,279.23a3.14,3.14,0,0,1-1-.16,12,12,0,0,1-6.78-7.57c-.6-1.63,1.34-3.11,1.8-3.43a29.3,29.3,0,0,0,5-6.1c1.63-4.25-.43-15-.45-15.12s-3.48-16.18-4.19-18.94c-1.51-5.8-1.33-16-1.26-19.82,0-.47,0-.83,0-1,0-5-2.26-15.46-3-18.18-1.59-5.59-5.47-26.6-5.47-33,0-5.64,2.11-16.39,2.2-16.85,1.7-6,4.05-18.57,4.31-20-.16-2.39-.51-6.23-.84-9.51l-.26,1.67-2.47,6.8a30.1,30.1,0,0,1-.4,6.42,59.38,59.38,0,0,1-2.36,8c-.06.14-4,9.11-4.5,15.74-.34,4.17-.15,7.32.57,9.36a72.26,72.26,0,0,1,1.75,7.93c.41,2.24.25,3.75-.48,4.63a2,2,0,0,1-1.51.73h-.08l-.16,0-.19,0-.16-.1a1.07,1.07,0,0,1-.3-.26c.46.82,1.09,1.89,2,3.25a1.67,1.67,0,0,1,0,2l-.15.2-.23.11a2.19,2.19,0,0,1-.93.2c-2.5,0-6.08-4.15-6.77-5l-.08-.1-.05-.11a22.11,22.11,0,0,1-1.89-13.07,115,115,0,0,0,1.1-16.57c0-2.13,0-4.14.16-6.14.51-8.7,3.43-22.37,3.55-22.94a42.56,42.56,0,0,0,.51-5.88,54.72,54.72,0,0,1,.94-9.15,33.9,33.9,0,0,0,.28-10.83c-.34-3.93-.65-7.65.95-11.08a8.91,8.91,0,0,1,6.29-4.63c5.88-1,16.89-6.19,17-6.24h0s2.14-1.18,1.88-2.84c-.12-.74-.38-.74-.58-.74a1.56,1.56,0,0,0-.32,0,27.64,27.64,0,0,1-4.17.46,3.33,3.33,0,0,1-2.86-1.61c-.12-.21-.39-.79-.14-2.79a1,1,0,0,0-.13-.56l-.75-.47a1.68,1.68,0,0,1-.79-1.08,1.93,1.93,0,0,1,.24-1.35,1.86,1.86,0,0,1-.7-.63,1.37,1.37,0,0,1-.11-1.19,1.25,1.25,0,0,1,.5-.59l-.64-.17a2.52,2.52,0,0,1-1.86-1.56,1.8,1.8,0,0,1,.34-1.59,11.29,11.29,0,0,1,1.31-1.12c2.44-2.44,2.18-3.39,2.08-3.74s-2.36-8.83,5.32-13.6a25.58,25.58,0,0,1,13.2-3.54,19.83,19.83,0,0,1,2.44.13,13.24,13.24,0,0,1,9.27,5.29,18.78,18.78,0,0,1,3.37,12.69c-.89,5.66-5.27,9.65-6.54,10.7-.22,2-.37,6.43,1.16,8.12a16.93,16.93,0,0,0,5.9,4.72c1.46.79,3,1.46,4.44,2.11,4,1.79,7.8,3.47,9.46,6.69a13.07,13.07,0,0,1,1.15,6.05c0,3.86,0,9,.06,12.9,0,2.51,0,4.56,0,5.55a77.35,77.35,0,0,0,1.27,14.44c.06.36.12.68.16,1,.21,1.25.66,3.42,1.18,5.92,1.08,5.23,2.43,11.75,2.54,14.4l.28,7.24c.63,16.13.79,20.84.19,22.2-3.25,7.44-6.34,9.21-6.47,9.28a5.81,5.81,0,0,1-2.5.53,6.88,6.88,0,0,1-1.61-.18l-.06,0-.06,0c-1.15-.45-1.7-1.3-1.41-2.15l.06-.19.13-.15a8.78,8.78,0,0,1,2.4-1.51,5.61,5.61,0,0,0,1.46-1.95,1.38,1.38,0,0,1-.28,0h-.42l-.29-.3a6.49,6.49,0,0,1-1.34-3.44,14.54,14.54,0,0,1,1.38-7.95c.33-.77.67-1.56,1-2.56,1-2.93-.17-7-.18-7l-5.55-17.35a26.36,26.36,0,0,1-1.74-7.28c-.07-3-.15-4.86-.18-5.44a27.24,27.24,0,0,1-1.79-4.4c-.18-.64-.39-1.87-.63-3.32-.18,1.34-.84,6.32-.84,8.29,0,3.79,2.85,15.65,3.75,18.9,1.36,4.93,1.34,11.63,1.32,17.53v2.1c0,10.68-3.15,24.26-3.28,24.83,0,.17-4,19.54-4.53,22.07a68,68,0,0,0-.35,9.69c0,5.87,0,12.52-.86,17.13a109.94,109.94,0,0,1-3.4,14.11,17.39,17.39,0,0,0-.62,2.27c-1.71,10.37-.4,14.69-.39,14.73l0,.11s.56,2.4,4.23,7.3c.66.49,2.15,1.78,1.68,3.17-1.28,4.64-5.86,6.14-8.1,6.28h-.33c-3.25,0-5.11-4.24-5.18-4.42l-1.09-2.73a31.41,31.41,0,0,0-3-4.93l-.06-.07,0-.08a7.5,7.5,0,0,1-.65-2,11,11,0,0,1-1.29,2.47,24.46,24.46,0,0,0-2.37,4.07l-1.3,3.67-.05.09C134.92,278.68,132.57,279.23,131.36,279.23Zm10.31-20.76a6,6,0,0,1,.72,1.65,10.33,10.33,0,0,1,.37-1.19l1.23-3.82c.48-3.36-.28-13.6-.73-19.74-.19-2.5-.32-4.3-.32-4.94,0-.83-.08-2-.18-3.45a48.41,48.41,0,0,1-.05-9.6c.39-2.48,1-5.19,1.1-5.91-.2-1.24-1.29-8-1.29-10.23,0-4.46.14-29.35.17-34.9l-.65,0-.4,0c.07,6,.36,31.1.36,34.89,0,2.75-1.46,8.78-1.79,10.13.29,1.07,1.39,5.07,1.58,6.38.44,3-.34,12.66-.37,13.07l-.33,12.09c-.08,3-.17,6.08-.24,8.35-.06,2-.09,3.12-.18,3.79h.05A10.25,10.25,0,0,0,141.67,258.48Zm-31.75-90.4a9.34,9.34,0,0,0,.51,1.16,19.57,19.57,0,0,1-.62-1.92l0-.11a5.6,5.6,0,0,0,.14.87Z" transform="translate(-102.63 -19.31)"/><path class="cls-2" d="M159.59,272.35c-1.45,5.26-7.21,5.61-7.21,5.61-2.79.27-4.53-3.8-4.53-3.8l-1.08-2.71a32.35,32.35,0,0,0-3.08-5.16c-1.53-3.12,0-7,0-7l1.27-4c.73-4.71-1-22.75-1-24.91,0-2.72-.84-9.08-.25-12.89.45-2.89,1.13-6,1.13-6s-1.31-7.9-1.31-10.26c0-5.06.18-36,.18-36s-1.32.13-1.66.13a4.37,4.37,0,0,1-1.42-.31s.37,31.84.37,36.17c0,3-1.82,10.14-1.82,10.14s1.42,5.08,1.63,6.51c.43,2.9-.38,12.84-.38,12.84s-.7,25.69-.7,24.24c0,0-.1,1.14,1.08,4,0,0,2.33,3.11-.76,7.65a26.23,26.23,0,0,0-2.48,4.3l-1.27,3.58c-2.81,4.69-5.62,3.66-5.62,3.66a11,11,0,0,1-6.16-6.88c-.42-1.14,1.46-2.4,1.46-2.4a29.77,29.77,0,0,0,5.24-6.45c1.81-4.53-.37-15.75-.37-15.75s-3.48-16.19-4.2-19c-1.67-6.43-1.21-18.8-1.21-20.61,0-5.27-2.35-15.93-3.08-18.46-1.64-5.79-5.43-26.6-5.43-32.74,0-5.61,2.18-16.65,2.18-16.65,1.81-6.32,4.34-20.09,4.34-20.09-.29-4.22-1.13-12.82-1.48-15.21-.1-.71-.35-.51-.35-.51s-.13.33-.13.33L120.34,111l-2.5,6.89a29.62,29.62,0,0,1-.37,6.38,59.22,59.22,0,0,1-2.31,7.81s-4,9.14-4.56,16c-.53,6.5.35,9,.63,9.77a71.07,71.07,0,0,1,1.71,7.77c.82,4.5-1.08,4.17-1.08,4.17s-.38-.23-1.08-2.72a29.75,29.75,0,0,0-1.16-2.78c-.21-.55-.39-.51-.39-.51-.19.06-.24.42-.24.42a10.33,10.33,0,0,0,0,4.14s.39,1.47,3.21,5.84a.73.73,0,0,1,.05.85c-2,.92-6.51-4.51-6.51-4.51A21.27,21.27,0,0,1,103.89,158c1.49-10.34.9-16.64,1.27-22.79.52-8.72,3.53-22.79,3.53-22.79.71-3.26.35-10.32,1.45-15,1.93-8.45-1.66-15.68,1.16-21.71a8,8,0,0,1,5.55-4.07c6.08-1,17.26-6.33,17.26-6.33s2.82-1.49,2.43-3.9a1.59,1.59,0,0,0-2.1-1.52,26.64,26.64,0,0,1-4,.44,2.24,2.24,0,0,1-2-1.09,6.77,6.77,0,0,1,0-2.25c0-1.12-.56-1.43-.56-1.43l-.79-.5a.76.76,0,0,1-.2-1.09c.13-.21.55-.28.55-.28,1.29-.37,1.15-.6,1.15-.6s-.31-.17-.31-.17a7.36,7.36,0,0,1-1.53-.21,1,1,0,0,1-.56-.38c-.18-.34.12-.44.12-.44a.74.74,0,0,0,.22-.13A3.36,3.36,0,0,0,127,51c.1-.48-.17-.63-.17-.63a10.5,10.5,0,0,0-1.51-.46c-1.78-.6-1-1.54-1-1.54.17-.21,1.21-1,1.21-1,2.51-2.5,2.64-3.8,2.39-4.76s-1.81-8.33,4.88-12.49a25,25,0,0,1,15-3.27c11,1.42,12.33,13.4,11.78,16.83-1,6.17-6.5,10.33-6.5,10.33s-.95,6.75,1.35,9.32a18,18,0,0,0,6.24,5c5.09,2.74,11.34,4.31,13.42,8.34a12.1,12.1,0,0,1,1,5.58c0,6.34.1,15.91.1,18.46a80.64,80.64,0,0,0,1.45,15.56c.66,3.92,3.56,16.39,3.7,20.19.73,19.15,1.17,27.6.56,29-3.15,7.21-6,8.81-6,8.81a5.64,5.64,0,0,1-3.37.25s-1-.39-.83-.89a8.45,8.45,0,0,1,2.1-1.28c1.43-.73,3.08-4.88,3.08-4.88-.65-4-1.07-4-1.07-4-.28-.08-.33.89-.33.89-.12,1-.25,2.72-.25,2.72.06,1.44-.7,1.43-.7,1.43a5.7,5.7,0,0,1-1.06-2.84c-.33-5.31,1.08-6.3,2.33-10.1,1.1-3.26-.17-7.59-.17-7.59l-5.56-17.37a25.91,25.91,0,0,1-1.69-7c-.08-3.8-.19-5.69-.19-5.69a27.3,27.3,0,0,1-1.81-4.4c-.42-1.53-1.18-7.19-1.63-9.42-.14-.7-.29-.63-.29-.63-.16,0-.25.61-.25.61l-.38,6s-.89,6.34-.89,8.69c0,4,2.89,15.93,3.79,19.17,1.48,5.38,1.27,13,1.27,19.36,0,10.69-3.26,24.6-3.26,24.6s-4,19.54-4.53,22.09c-.87,4.09.28,18.89-1.21,26.84-2.25,12-3.67,14.22-4,16.4-1.79,10.84-.35,15.2-.35,15.2s.5,2.51,4.5,7.82C158.15,270.23,159.9,271.45,159.59,272.35Z" transform="translate(-102.63 -19.31)"/><path class="cls-3" d="M159.59,272.35c-1.45,5.26-7.21,5.61-7.21,5.61-2.79.27-4.53-3.8-4.53-3.8l-1.08-2.71a32.35,32.35,0,0,0-3.08-5.16c-1.53-3.12,0-7,0-7l1.27-4c.73-4.71-1-22.75-1-24.91,0-2.72-.84-9.08-.25-12.89.45-2.89,1.13-6,1.13-6s-1.31-7.9-1.31-10.26c0-5.06.18-36,.18-36s-1.32.13-1.66.13a4.37,4.37,0,0,1-1.42-.31s.37,31.84.37,36.17c0,3-1.82,10.14-1.82,10.14s1.42,5.08,1.63,6.51c.43,2.9-.38,12.84-.38,12.84s-.7,25.69-.7,24.24c0,0-.1,1.14,1.08,4,0,0,2.33,3.11-.76,7.65a26.23,26.23,0,0,0-2.48,4.3l-1.27,3.58c-2.81,4.69-5.62,3.66-5.62,3.66a11,11,0,0,1-6.16-6.88c-.42-1.14,1.46-2.4,1.46-2.4a29.77,29.77,0,0,0,5.24-6.45c1.81-4.53-.37-15.75-.37-15.75s-3.48-16.19-4.2-19c-1.67-6.43-1.21-18.8-1.21-20.61,0-5.27-2.35-15.93-3.08-18.46-1.64-5.79-5.43-26.6-5.43-32.74,0-5.61,2.18-16.65,2.18-16.65,1.81-6.32,4.34-20.09,4.34-20.09-.29-4.22-1.13-12.82-1.48-15.21-.1-.71-.35-.51-.35-.51s-.13.33-.13.33L120.34,111l-2.5,6.89a29.62,29.62,0,0,1-.37,6.38,59.22,59.22,0,0,1-2.31,7.81s-4,9.14-4.56,16c-.53,6.5.35,9,.63,9.77a71.07,71.07,0,0,1,1.71,7.77c.82,4.5-1.08,4.17-1.08,4.17s-.38-.23-1.08-2.72a29.75,29.75,0,0,0-1.16-2.78c-.21-.55-.39-.51-.39-.51-.19.06-.24.42-.24.42a10.33,10.33,0,0,0,0,4.14s.39,1.47,3.21,5.84a.73.73,0,0,1,.05.85c-2,.92-6.51-4.51-6.51-4.51A21.27,21.27,0,0,1,103.89,158c1.49-10.34.9-16.64,1.27-22.79.52-8.72,3.53-22.79,3.53-22.79.71-3.26.35-10.32,1.45-15,1.93-8.45-1.66-15.68,1.16-21.71a8,8,0,0,1,5.55-4.07c6.08-1,17.26-6.33,17.26-6.33s2.82-1.49,2.43-3.9a1.59,1.59,0,0,0-2.1-1.52,26.64,26.64,0,0,1-4,.44,2.24,2.24,0,0,1-2-1.09,6.77,6.77,0,0,1,0-2.25c0-1.12-.56-1.43-.56-1.43l-.79-.5a.76.76,0,0,1-.2-1.09c.13-.21.55-.28.55-.28,1.29-.37,1.15-.6,1.15-.6s-.31-.17-.31-.17a7.36,7.36,0,0,1-1.53-.21,1,1,0,0,1-.56-.38c-.18-.34.12-.44.12-.44a.74.74,0,0,0,.22-.13A3.36,3.36,0,0,0,127,51c.1-.48-.17-.63-.17-.63a10.5,10.5,0,0,0-1.51-.46c-1.78-.6-1-1.54-1-1.54.17-.21,1.21-1,1.21-1,2.51-2.5,2.64-3.8,2.39-4.76s-1.81-8.33,4.88-12.49a25,25,0,0,1,15-3.27c11,1.42,12.33,13.4,11.78,16.83-1,6.17-6.5,10.33-6.5,10.33s-.95,6.75,1.35,9.32a18,18,0,0,0,6.24,5c5.09,2.74,11.34,4.31,13.42,8.34a12.1,12.1,0,0,1,1,5.58c0,6.34.1,15.91.1,18.46a80.64,80.64,0,0,0,1.45,15.56c.66,3.92,3.56,16.39,3.7,20.19.73,19.15,1.17,27.6.56,29-3.15,7.21-6,8.81-6,8.81a5.64,5.64,0,0,1-3.37.25s-1-.39-.83-.89a8.45,8.45,0,0,1,2.1-1.28c1.43-.73,3.08-4.88,3.08-4.88-.65-4-1.07-4-1.07-4-.28-.08-.33.89-.33.89-.12,1-.25,2.72-.25,2.72.06,1.44-.7,1.43-.7,1.43a5.7,5.7,0,0,1-1.06-2.84c-.33-5.31,1.08-6.3,2.33-10.1,1.1-3.26-.17-7.59-.17-7.59l-5.56-17.37a25.91,25.91,0,0,1-1.69-7c-.08-3.8-.19-5.69-.19-5.69a27.3,27.3,0,0,1-1.81-4.4c-.42-1.53-1.18-7.19-1.63-9.42-.14-.7-.29-.63-.29-.63-.16,0-.25.61-.25.61l-.38,6s-.89,6.34-.89,8.69c0,4,2.89,15.93,3.79,19.17,1.48,5.38,1.27,13,1.27,19.36,0,10.69-3.26,24.6-3.26,24.6s-4,19.54-4.53,22.09c-.87,4.09.28,18.89-1.21,26.84-2.25,12-3.67,14.22-4,16.4-1.79,10.84-.35,15.2-.35,15.2s.5,2.51,4.5,7.82C158.15,270.23,159.9,271.45,159.59,272.35Z" transform="translate(-102.63 -19.31)"/><path class="cls-1" d="M129.47,108.43a9.16,9.16,0,0,1-4.64-1.27c-4.5-2.62-4.56-6.63-4.62-10.5,0-.44,0-.88,0-1.32l1,0c0,.44,0,.89,0,1.33.06,3.76.11,7.31,4.13,9.65a8.26,8.26,0,0,0,6.82.71,10.86,10.86,0,0,0,6.36-5.54l.91.41a11.9,11.9,0,0,1-7,6.08A9.79,9.79,0,0,1,129.47,108.43Z" transform="translate(-102.63 -19.31)"/><path class="cls-1" d="M156.15,108.43a9.14,9.14,0,0,1-4-.88,11.8,11.8,0,0,1-5.5-6.19l.94-.34c.13.37,3.31,8.92,12.45,5.66a7.34,7.34,0,0,0,4.62-7.13c-.11-1-.55-4.4-.55-4.4l1-.13s.44,3.44.55,4.41a8.29,8.29,0,0,1-5.28,8.19A12.69,12.69,0,0,1,156.15,108.43Z" transform="translate(-102.63 -19.31)"/><path class="cls-1" d="M142,166.37c-1.94,0-2.27-.62-2.69-1.72a8.94,8.94,0,0,0-.47-1.08C138,162,135,160.07,135,160l.54-.84c.13.08,3.22,2.08,4.16,3.9a10,10,0,0,1,.52,1.18c.34.89.41,1.08,1.76,1.08s1.29-.12,1.54-.64a5.21,5.21,0,0,1,.7-1.16,33.54,33.54,0,0,1,5.09-4.08l.56.83A33.63,33.63,0,0,0,145,164.2a4.19,4.19,0,0,0-.58,1C144,166,143.68,166.37,142,166.37Z" transform="translate(-102.63 -19.31)"/><rect class="cls-4" x="7.77" width="87.41" height="257.33"/></svg>