<svg id="Anatomy_04_Head" data-name="Anatomy 04_Head" xmlns="http://www.w3.org/2000/svg" xmlns:xlink="http://www.w3.org/1999/xlink" viewbox="0 0 183.51 172.26" width="183.51" height="172.26"><defs><style>.cls-1{fill:url(#未命名的渐变_365);stroke:none;}.cls-2{fill:#f7a76e;stroke:none;}</style><linearGradient id="&#x672A;&#x547D;&#x540D;&#x7684;&#x6E10;&#x53D8;_365" x1="56.25" y1="151.27" x2="239.75" y2="151.27" gradientunits="userSpaceOnUse"><stop offset="0" stop-color="#ffe0d4"/><stop offset="1" stop-color="#facfa6"/></linearGradient></defs><title>Anatomy 04_Head</title><path class="cls-1" d="M111.47,237.4c-7-10.58-17-11.34-24.21-11.89a35.4,35.4,0,0,1-6-.77c-4.18-1.11-7-3-8.45-5.5-1.89-3.36-.81-7-.3-8.73.06-.21.11-.39.15-.53,1.34-5.09-1.33-7.19-3.68-9-1.69-1.33-3.29-2.58-2.65-4.68l.24-.79c.87-2.89.87-2.89,0-4.34-.27-.44-.61-1-1-1.74-1.28-2.34,0-3.61,1.29-4.95a14.14,14.14,0,0,0,1.8-2.09,3.88,3.88,0,0,0,.78-3.31c-.65-2.1-3.78-3.38-6.06-4.32a15.39,15.39,0,0,1-2.24-1c-3.12-2-4.74-4.22-4.83-6.47-.13-3.43,3.16-6.24,6.25-8.61,6-4.62,16.3-17,14.5-21.13-4.29-9.73-3.21-11.63-.84-15.8A39.67,39.67,0,0,0,79,115.73C86.15,96.93,96.27,88,99.6,85c25.8-22.78,67-20.17,75-19.41,48.64,4.64,59.54,39.06,60.63,43,3.56,12.82,10.18,45-5.22,66.67-4.76,6.72-9.74,12.64-14.56,18.38-10.32,12.28-19.23,22.88-18.39,33.62.42,5.54.69,7.88.69,7.91Z" transform="translate(-56.25 -65.14)"/><path class="cls-2" d="M111.47,237.4c-7-10.58-17-11.34-24.21-11.89a35.4,35.4,0,0,1-6-.77c-4.18-1.11-7-3-8.45-5.5-1.89-3.36-.81-7-.3-8.73.06-.21.11-.39.15-.53,1.34-5.09-1.33-7.19-3.68-9-1.69-1.33-3.29-2.58-2.65-4.68l.24-.79c.87-2.89.87-2.89,0-4.34-.27-.44-.61-1-1-1.74-1.28-2.34,0-3.61,1.29-4.95a14.14,14.14,0,0,0,1.8-2.09,3.88,3.88,0,0,0,.78-3.31c-.65-2.1-3.78-3.38-6.06-4.32a15.39,15.39,0,0,1-2.24-1c-3.12-2-4.74-4.22-4.83-6.47-.13-3.43,3.16-6.24,6.25-8.61,6-4.62,16.3-17,14.5-21.13-4.29-9.73-3.21-11.63-.84-15.8A39.67,39.67,0,0,0,79,115.73C86.15,96.93,96.27,88,99.6,85c25.8-22.78,67-20.17,75-19.41,48.64,4.64,59.54,39.06,60.63,43,3.56,12.82,10.18,45-5.22,66.67-4.76,6.72-9.74,12.64-14.56,18.38-10.32,12.28-19.23,22.88-18.39,33.62.42,5.54.69,7.88.69,7.91l-1,.12s-.27-2.38-.7-7.94c-.87-11.15,8.16-21.89,18.62-34.34,4.81-5.72,9.78-11.63,14.51-18.31,15.15-21.34,8.59-53.14,5.07-65.83C233.21,105,222.5,71.2,174.52,66.62c-7.93-.75-48.77-3.34-74.26,19.17C97,88.69,87,97.52,80,116.08A40.6,40.6,0,0,1,77,122.17c-2.27,4-3.2,5.64.88,14.91,2.24,5.08-9.18,18-14.81,22.32-2.89,2.22-6,4.83-5.85,7.78.07,1.92,1.54,3.82,4.37,5.67a15,15,0,0,0,2.07,1c2.47,1,5.85,2.4,6.64,5a4.86,4.86,0,0,1-.9,4.16,15,15,0,0,1-1.92,2.24c-1.32,1.34-2,2.08-1.13,3.76.4.73.74,1.27,1,1.69,1.14,1.83,1.09,2,.14,5.16l-.24.79c-.42,1.38.56,2.23,2.31,3.61,2.34,1.84,5.54,4.35,4,10.08,0,.15-.1.34-.16.56-.48,1.61-1.47,5,.21,8,1.29,2.29,3.92,4,7.83,5a34.78,34.78,0,0,0,5.82.74c7.46.57,17.68,1.34,25,12.33Z" transform="translate(-56.25 -65.14)"/><path class="cls-2" d="M71.3,174c-.43-2-1.17-3.13-2.2-3.49-1.58-.54-3.41,1-3.43,1l-.64-.77c.09-.08,2.29-1.86,4.4-1.14,1.38.48,2.34,1.9,2.86,4.22Z" transform="translate(-56.25 -65.14)"/><path class="cls-2" d="M74.61,176.57l-.3-1c2.36-.75,3.72-1.88,4.05-3.38.77-3.49-4.07-8-4.12-8l.68-.74c.22.2,5.31,4.93,4.42,9C78.92,174.32,77.33,175.71,74.61,176.57Z" transform="translate(-56.25 -65.14)"/><path class="cls-2" d="M71.72,193l-2.46,0v-1c4.84.07,5.37,0,7.36-.37.91-.16,2.15-.38,4.24-.65l.13,1c-2.07.27-3.3.49-4.2.65A22.6,22.6,0,0,1,71.72,193Z" transform="translate(-56.25 -65.14)"/></svg>