<svg id="Anatomy_02_Male" data-name="Anatomy 02_Male" xmlns="http://www.w3.org/2000/svg" xmlns:xlink="http://www.w3.org/1999/xlink" viewbox="0 0 124.83 264.99" width="124.83" height="264.99"><defs><style>.cls-1{fill:#facfa6;stroke:none;}.cls-2{fill:#e6a676;stroke:none;}.cls-3{fill:url(#未命名的渐变_378);stroke:none;}</style><linearGradient id="&#x672A;&#x547D;&#x540D;&#x7684;&#x6E10;&#x53D8;_378" x1="150.76" y1="17.78" x2="150.76" y2="280.77" gradientunits="userSpaceOnUse"><stop offset="0" stop-color="#ffd4b8"/><stop offset="1" stop-color="#fab87d"/></linearGradient></defs><title>Anatomy 02_Male</title><path class="cls-1" d="M175.46,100.91c.6,4.27,1.67,9.78,3.61,13.61.11,2.4-.46,9.53,2.25,16,1.55,3.67,9.33,17.84,10.09,19.2a34.28,34.28,0,0,0,.71,7.92c.58,2.92,1.74,3.69,1.74,3.69s.35,1.87,1.38,5.34,2.46,5.87,3,5.68.31-1,0-2a57.57,57.57,0,0,1-1.16-6.25c0-.45,0-.45,0-.45s.23.39.23.39c.71,2.14,3.06,8,3.81,9a.94.94,0,0,0,1.72-.65c.19.32,1.18,1,1.7.82,1.07-.37-1.54-6.14-1.77-10.72,0,0,0-.31.06-.33s.08-.11.16.39c.59,3.79,2.12,9.71,3.34,9.47.39-.28.41-1.22.28-1.78-.21-.89-1-7.82-1.12-9.29,0-.88-.43-4.23-.59-6.36-.06-.84.13-1,.13-1a.72.72,0,0,1,.76.1c.7.52,1.52,1.23,2.25,1.8,1.09.86,3.38,1.16,3.87.4s.23-.91-1.5-2.06-2.49-2.49-4.41-4.54a12.44,12.44,0,0,0-6.59-3.76c-3.69-5.62-4.69-14.83-5.19-20.8a21.85,21.85,0,0,0-5.16-12.94c0-6.17.31-11.09-1.21-18.8,3-13-1.11-20.81-2.41-23.19-1.56-2.87-4.08-4.61-12.45-6.13-3-2.06-9.81-4.49-10.91-5s-2.75-.81-2.75-3.09V48.65s2.26-1.14,2.43-6.5c1.39-1.3,5.81-7,2.86-9.43-.87-.65-2.26,1-2.26,1a17.22,17.22,0,0,0,.7-5.53c-1.29-10.78-12.57-10.39-12.57-10.39s-11.66,0-12.57,10.39a21.46,21.46,0,0,0,.7,5.53s-1.39-1.63-2.26-1c-3,2.44,1.46,8.13,2.85,9.43.17,5.36,2.43,6.5,2.43,6.5v6.88c0,2.28-1.65,2.57-2.75,3.09s-7.4,3-10.43,5c-8.37,1.52-10.89,3.26-12.45,6.13-1.3,2.38-5.37,10.19-2.41,23.19-1.52,7.71-1.22,12.64-1.22,18.8a21.85,21.85,0,0,0-5.17,12.94c-.5,6-1.5,15.19-5.19,20.8a12.42,12.42,0,0,0-6.58,3.76c-1.93,2.05-2.7,3.39-4.42,4.54s-2,1.3-1.5,2.06,2.78.46,3.88-.4c.82-.64,1.35-1.17,2.1-1.69,0,0,1.18-.57,1,1.68s-.48,4.62-.52,5.47c-.15,1.47-.91,8.4-1.12,9.29-.14.56-.12,1.51.27,1.78,1.19.23,2.59-5.37,3.17-9.17,0,0,.23-.31.21.19-.4,4.47-2.62,9.82-1.6,10.17.52.18,1.51-.5,1.71-.82a.94.94,0,0,0,1.72.65,63.91,63.91,0,0,0,3.7-8.56s.16-.53.31-.47c0,0,.14-.08,0,.56-.31,1.81-.87,5-1.11,5.82-.31,1-.52,1.78,0,2s1.94-2.2,3-5.68,1.38-5.34,1.38-5.34,1.2-.8,1.75-3.69a36.68,36.68,0,0,0,.71-7.92c.76-1.36,8.54-15.53,10.09-19.2,2.72-6.43,2.14-13.57,2.25-16,2-3.88,2.95-9.34,3.52-13.64,0,0,.11-.58.2-.92,0,0,.25-.56.53,1.09a104.42,104.42,0,0,1,1.25,10.73c0,2.31.83,6.69-.28,10.56s-.28,6.43-.28,8.49-1.1,8-1.93,13.14-1.61,17.73-.51,25.45,5.29,27.07,5.85,30.41a48.13,48.13,0,0,1-.38,16.48c-1.38,6.18-1.93,11.84-1.1,16.74s7.27,27.88,7.9,30.29-.36,3.73-.63,5,.71,1.66.44,2.75a19.5,19.5,0,0,1-2.67,5.31c-2.75,1.4-2,3,.51,2.72.32,1.52,4.88.8,7.17.8,1.63,1.43,4.35.93,4.79-.13.65-1.23.33-1.83-.32-3.67a12.8,12.8,0,0,1,0-7,8.79,8.79,0,0,0,0-5.8c-.66-1.83-1.64-6.72-.33-20.78s-1.37-21.2-.31-26.49c1.63-2.75,2.92-11.4,2.92-30a160.39,160.39,0,0,1,1.53-24.56s.07-.55.43-.48c0,0,.34-.07.43.46A161.9,161.9,0,0,1,152.72,186c0,18.64,1.29,27.28,2.92,30,1.06,5.29-1.62,12.44-.31,26.49s.33,18.94-.32,20.78a8.84,8.84,0,0,0,0,5.8,12.8,12.8,0,0,1,0,7c-.65,1.83-1,2.44-.32,3.67.44,1.06,3.16,1.56,4.78.13,2.3,0,6.85.72,7.17-.8,2.5.3,3.26-1.32.5-2.72a19.53,19.53,0,0,1-2.66-5.31c-.27-1.08.7-1.5.44-2.75s-1.24-2.57-.62-5,7.06-25.4,7.88-30.29.28-10.56-1.1-16.74a48,48,0,0,1-.38-16.48c.56-3.34,4.74-22.69,5.84-30.41s.32-20.3-.5-25.45-1.92-11.08-1.92-13.14.83-4.63-.28-8.49-.27-8.24-.27-10.56c0-1.65.84-7.53,1.41-10.82,0,0,.09-.55.23-.56S175.39,100.35,175.46,100.91Z" transform="translate(-88.34 -16.78)"/><path class="cls-2" d="M157,281.77a3.39,3.39,0,0,1-3.22-1.63c-.77-1.42-.43-2.36.14-3.92l.17-.47a11.94,11.94,0,0,0,0-6.4,9.82,9.82,0,0,1,0-6.43c.64-1.8,1.53-6.83.27-20.35a90.59,90.59,0,0,1,.21-18.29,31,31,0,0,0,.15-7.94c-2-3.58-3-13.8-3-30.38a184.94,184.94,0,0,0-1-20.18,186,186,0,0,0-1,20.18c0,16.59-1,26.81-3,30.38a31.06,31.06,0,0,0,.15,7.94,90.76,90.76,0,0,1,.21,18.29c-1.26,13.51-.37,18.55.27,20.35a9.78,9.78,0,0,1,0,6.43,11.93,11.93,0,0,0,0,6.4l.16.43c.57,1.57.91,2.52.11,4a3.39,3.39,0,0,1-3.19,1.55,4.82,4.82,0,0,1-2.83-.88c-.43,0-.92,0-1.44.07-.8,0-1.63.09-2.42.09s-2.67,0-3.53-.94h0c-1.41,0-2.39-.58-2.62-1.56-.12-.51-.16-1.79,2-3a19.16,19.16,0,0,0,2.35-4.76c0-.18,0-.28-.15-.64a3.11,3.11,0,0,1-.3-2.08A9,9,0,0,1,136,267a5.19,5.19,0,0,0,.29-3.4c-.13-.5-.51-1.89-1-3.83-2-7.34-6.21-22.62-6.87-26.54-.78-4.65-.42-10.25,1.11-17.12a47.19,47.19,0,0,0,.37-16.1c-.19-1.14-.81-4.2-1.6-8.07-1.49-7.3-3.52-17.29-4.25-22.36-1.13-8-.28-20.79.51-25.75.2-1.22.41-2.47.61-3.71a90.88,90.88,0,0,0,1.3-9.27c0-.51-.06-1.07-.12-1.71a17.14,17.14,0,0,1,.44-7.06,23.16,23.16,0,0,0,.36-8c-.07-.87-.12-1.63-.12-2.27,0-1-.29-3.81-.65-6.56a37.7,37.7,0,0,1-2.87,9.56c0,.37,0,.82,0,1.35,0,3.22,0,9.22-2.32,14.75-1.53,3.63-8.77,16.84-10,19.06a38.28,38.28,0,0,1-.73,7.86,7.59,7.59,0,0,1-1.82,4c-.15.69-.54,2.43-1.33,5.1-.45,1.5-2.06,6.41-3.88,6.41h-.17l-.22-.07a1.36,1.36,0,0,1-.95-1.18,10.4,10.4,0,0,1-.84,1.53,1.9,1.9,0,0,1-2.93.3,2.56,2.56,0,0,1-1.1.29,1.6,1.6,0,0,1-.52-.08,1.31,1.31,0,0,1-.92-1.22,1.21,1.21,0,0,1-.46.09h-.1L95,173l-.21,0-.18-.12c-.91-.65-.83-2.13-.67-2.83s.85-6.76,1.1-9.16c0-.33.09-1.07.19-2,.11-1,.25-2.31.33-3.48,0-.14,0-.25,0-.35l-.57.47c-.28.24-.58.49-.92.75a5.68,5.68,0,0,1-3.25,1,2.28,2.28,0,0,1-2.08-.89c-1-1.57.1-2.31,1.64-3.34l.13-.09a12.35,12.35,0,0,0,2.61-2.54c.47-.55,1-1.17,1.64-1.86a13.16,13.16,0,0,1,6.68-3.94c3.63-5.84,4.47-15.75,4.82-20a23.24,23.24,0,0,1,5.16-13.23c0-.76,0-1.5,0-2.23A73.77,73.77,0,0,1,112.61,93c-2-8.93-1.14-16.9,2.55-23.68,1.9-3.49,5.17-5.17,12.94-6.6a64.88,64.88,0,0,1,9.13-4.43l1.25-.54.54-.23c1.1-.45,1.63-.72,1.63-2V49.16c-.81-.71-2.2-2.5-2.41-6.57-1.16-1.22-4-4.74-3.87-7.78a3.74,3.74,0,0,1,1.36-2.86,1.79,1.79,0,0,1,1.1-.38,1.94,1.94,0,0,1,.34,0,18.89,18.89,0,0,1-.24-3.46c1-11.23,13.44-11.36,13.57-11.36h.14c1.24,0,12.11.32,13.42,11.27a15.07,15.07,0,0,1-.19,3.54l.29,0a1.77,1.77,0,0,1,1.07.35,3.75,3.75,0,0,1,1.4,2.88c.09,3-2.71,6.56-3.87,7.78-.22,4.08-1.61,5.87-2.42,6.57v6.38c0,1.22.56,1.51,1.63,2l.54.23c.25.11.79.33,1.51.61a62.05,62.05,0,0,1,9.37,4.36c7.78,1.43,11.06,3.11,12.95,6.6C190,76.06,190.9,84,188.9,93a73.6,73.6,0,0,1,1.21,16.17c0,.74,0,1.48,0,2.25a23.23,23.23,0,0,1,5.16,13.23c.36,4.27,1.19,14.18,4.83,20a13.19,13.19,0,0,1,6.68,3.94c.65.69,1.17,1.31,1.64,1.86A12.37,12.37,0,0,0,211,153l.12.08c1.56,1,2.69,1.79,1.67,3.36a2.27,2.27,0,0,1-2.08.89,5.65,5.65,0,0,1-3.25-1l-1-.79L206,155c.08,1,.2,2.12.3,3.15.13,1.24.22,2.22.24,2.68.54,5,1,8.58,1.1,9.09.17.7.25,2.18-.67,2.83l-.18.12-.31.06h-.17a1.21,1.21,0,0,1-.47-.1,1.3,1.3,0,0,1-.91,1.22,1.58,1.58,0,0,1-.52.08,2.56,2.56,0,0,1-1.1-.29,1.9,1.9,0,0,1-2.93-.31,10,10,0,0,1-.84-1.52,1.35,1.35,0,0,1-1,1.18l-.16.06h-.23c-1.82,0-3.43-4.9-3.87-6.41-.79-2.67-1.19-4.4-1.34-5.1a7.68,7.68,0,0,1-1.81-4,36.29,36.29,0,0,1-.74-7.87c-1.29-2.33-8.48-15.45-10-19.06-2.34-5.54-2.33-11.55-2.32-14.78,0-.52,0-1,0-1.33a37.76,37.76,0,0,1-2.83-9.09c-.37,2.6-.68,5.15-.68,6.09,0,.64-.06,1.4-.12,2.27a23.18,23.18,0,0,0,.36,8,17.13,17.13,0,0,1,.44,7.05c-.07.65-.12,1.2-.12,1.71a90.69,90.69,0,0,0,1.29,9.24c.21,1.25.42,2.51.62,3.74.8,5,1.65,17.82.51,25.75-.73,5.14-2.79,15.26-4.3,22.65-.76,3.73-1.36,6.67-1.54,7.78a47.15,47.15,0,0,0,.37,16.09c1.53,6.87,1.89,12.47,1.11,17.12-.65,3.86-4.63,18.39-6.77,26.2-.58,2.11-1,3.64-1.13,4.17a5.2,5.2,0,0,0,.29,3.41,9,9,0,0,1,.34,1.11,3.12,3.12,0,0,1-.3,2.08c-.16.36-.19.46-.15.63a19.23,19.23,0,0,0,2.34,4.77c2.2,1.2,2.16,2.48,2,3-.23,1-1.21,1.56-2.62,1.56h0c-.86.94-2.66.94-3.53.94s-1.62,0-2.42-.09c-.52,0-1-.06-1.44-.07A4.81,4.81,0,0,1,157,281.77Z" transform="translate(-88.34 -16.78)"/><path class="cls-3" d="M175.46,100.91c.6,4.27,1.67,9.78,3.61,13.61.11,2.4-.46,9.53,2.25,16,1.55,3.67,9.33,17.84,10.09,19.2a34.28,34.28,0,0,0,.71,7.92c.58,2.92,1.74,3.69,1.74,3.69s.35,1.87,1.38,5.34,2.46,5.87,3,5.68.31-1,0-2a57.57,57.57,0,0,1-1.16-6.25c0-.45,0-.45,0-.45s.23.39.23.39c.71,2.14,3.06,8,3.81,9a.94.94,0,0,0,1.72-.65c.19.32,1.18,1,1.7.82,1.07-.37-1.54-6.14-1.77-10.72,0,0,0-.31.06-.33s.08-.11.16.39c.59,3.79,2.12,9.71,3.34,9.47.39-.28.41-1.22.28-1.78-.21-.89-1-7.82-1.12-9.29,0-.88-.43-4.23-.59-6.36-.06-.84.13-1,.13-1a.72.72,0,0,1,.76.1c.7.52,1.52,1.23,2.25,1.8,1.09.86,3.38,1.16,3.87.4s.23-.91-1.5-2.06-2.49-2.49-4.41-4.54a12.44,12.44,0,0,0-6.59-3.76c-3.69-5.62-4.69-14.83-5.19-20.8a21.85,21.85,0,0,0-5.16-12.94c0-6.17.31-11.09-1.21-18.8,3-13-1.11-20.81-2.41-23.19-1.56-2.87-4.08-4.61-12.45-6.13-3-2.06-9.81-4.49-10.91-5s-2.75-.81-2.75-3.09V48.65s2.26-1.14,2.43-6.5c1.39-1.3,5.81-7,2.86-9.43-.87-.65-2.26,1-2.26,1a17.22,17.22,0,0,0,.7-5.53c-1.29-10.78-12.57-10.39-12.57-10.39s-11.66,0-12.57,10.39a21.46,21.46,0,0,0,.7,5.53s-1.39-1.63-2.26-1c-3,2.44,1.46,8.13,2.85,9.43.17,5.36,2.43,6.5,2.43,6.5v6.88c0,2.28-1.65,2.57-2.75,3.09s-7.4,3-10.43,5c-8.37,1.52-10.89,3.26-12.45,6.13-1.3,2.38-5.37,10.19-2.41,23.19-1.52,7.71-1.22,12.64-1.22,18.8a21.85,21.85,0,0,0-5.17,12.94c-.5,6-1.5,15.19-5.19,20.8a12.42,12.42,0,0,0-6.58,3.76c-1.93,2.05-2.7,3.39-4.42,4.54s-2,1.3-1.5,2.06,2.78.46,3.88-.4c.82-.64,1.35-1.17,2.1-1.69,0,0,1.18-.57,1,1.68s-.48,4.62-.52,5.47c-.15,1.47-.91,8.4-1.12,9.29-.14.56-.12,1.51.27,1.78,1.19.23,2.59-5.37,3.17-9.17,0,0,.23-.31.21.19-.4,4.47-2.62,9.82-1.6,10.17.52.18,1.51-.5,1.71-.82a.94.94,0,0,0,1.72.65,63.91,63.91,0,0,0,3.7-8.56s.16-.53.31-.47c0,0,.14-.08,0,.56-.31,1.81-.87,5-1.11,5.82-.31,1-.52,1.78,0,2s1.94-2.2,3-5.68,1.38-5.34,1.38-5.34,1.2-.8,1.75-3.69a36.68,36.68,0,0,0,.71-7.92c.76-1.36,8.54-15.53,10.09-19.2,2.72-6.43,2.14-13.57,2.25-16,2-3.88,2.95-9.34,3.52-13.64,0,0,.11-.58.2-.92,0,0,.25-.56.53,1.09a104.42,104.42,0,0,1,1.25,10.73c0,2.31.83,6.69-.28,10.56s-.28,6.43-.28,8.49-1.1,8-1.93,13.14-1.61,17.73-.51,25.45,5.29,27.07,5.85,30.41a48.13,48.13,0,0,1-.38,16.48c-1.38,6.18-1.93,11.84-1.1,16.74s7.27,27.88,7.9,30.29-.36,3.73-.63,5,.71,1.66.44,2.75a19.5,19.5,0,0,1-2.67,5.31c-2.75,1.4-2,3,.51,2.72.32,1.52,4.88.8,7.17.8,1.63,1.43,4.35.93,4.79-.13.65-1.23.33-1.83-.32-3.67a12.8,12.8,0,0,1,0-7,8.79,8.79,0,0,0,0-5.8c-.66-1.83-1.64-6.72-.33-20.78s-1.37-21.2-.31-26.49c1.63-2.75,2.92-11.4,2.92-30a160.39,160.39,0,0,1,1.53-24.56s.07-.55.43-.48c0,0,.34-.07.43.46A161.9,161.9,0,0,1,152.72,186c0,18.64,1.29,27.28,2.92,30,1.06,5.29-1.62,12.44-.31,26.49s.33,18.94-.32,20.78a8.84,8.84,0,0,0,0,5.8,12.8,12.8,0,0,1,0,7c-.65,1.83-1,2.44-.32,3.67.44,1.06,3.16,1.56,4.78.13,2.3,0,6.85.72,7.17-.8,2.5.3,3.26-1.32.5-2.72a19.53,19.53,0,0,1-2.66-5.31c-.27-1.08.7-1.5.44-2.75s-1.24-2.57-.62-5,7.06-25.4,7.88-30.29.28-10.56-1.1-16.74a48,48,0,0,1-.38-16.48c.56-3.34,4.74-22.69,5.84-30.41s.32-20.3-.5-25.45-1.92-11.08-1.92-13.14.83-4.63-.28-8.49-.27-8.24-.27-10.56c0-1.65.84-7.53,1.41-10.82,0,0,.09-.55.23-.56S175.39,100.35,175.46,100.91Z" transform="translate(-88.34 -16.78)"/></svg>