<svg xmlns="http://www.w3.org/2000/svg" viewbox="0 0 128 128" width="128" height="128"><defs><style>.cls-1{isolation:isolate;stroke:none;}.cls-16,.cls-2{fill:#1072ba;stroke:none;}.cls-3{fill:#2aaae2;stroke:none;}.cls-4{fill:#006cb6;stroke:none;}.cls-5{fill:#0f3a5e;stroke:none;}.cls-6{fill:#67abd6;stroke:none;}.cls-7{fill:#dcddde;stroke:none;}.cls-8{fill:#c0bfc0;stroke:none;}.cls-13,.cls-14,.cls-8{opacity:0.86;stroke:none;}.cls-11,.cls-13,.cls-8{mix-blend-mode:multiply;stroke:none;}.cls-9{fill:#c7c8ca;stroke:none;}.cls-10{fill:#e0e1e2;stroke:none;}.cls-10,.cls-15{opacity:0.82;stroke:none;}.cls-11{fill:#cfd2d3;opacity:0.38;stroke:none;}.cls-12{fill:#e4e4e3;stroke:none;}.cls-13,.cls-14{fill:#d2d2d2;stroke:none;}.cls-15{fill:#e5e5e5;stroke:none;}.cls-16{opacity:0.12;stroke:none;}</style></defs><title>&#x751F;&#x7269;&#x4EEA;&#x5668;</title><g class="cls-1"><g id="Bio_instruments&#x751F;&#x7269;&#x4EEA;&#x5668;" data-name="Bio instruments&#x751F;&#x7269;&#x4EEA;&#x5668;"><path class="cls-2" d="M98.77,77s8.78-5.54,9.43-6.93,1.57-6,2.37-6.78,3.55-2.87,3.55-2.87a11.31,11.31,0,0,0-.45,2.75c.19.27.72,1.54,2-.64s3.91-7.5,4-9-.64-2.27-2-1.33a114.21,114.21,0,0,1-12.58,6.67c-4,1.69-8,2.87-8,3S98.77,77,98.77,77Z"/><path class="cls-3" d="M117.72,52.18a114.22,114.22,0,0,1-12.58,6.67c-4,1.69-8,2.87-8,3s0,.25.05.63a99.27,99.27,0,0,0,13.38-5.42,83.87,83.87,0,0,0,9-4.91C119.2,51.66,118.58,51.59,117.72,52.18Z"/><path class="cls-3" d="M115.56,61.74a21.11,21.11,0,0,0,1.9-4.52l-.29.3c-.29.3-3,2.88-3,2.88a11.31,11.31,0,0,0-.45,2.75l.08.13A4.1,4.1,0,0,0,115.56,61.74Z"/><path class="cls-4" d="M70.44,49a13.84,13.84,0,0,0-3.21,0c-3.85-2.53-12.87-7.95-20.07-8.87C38.22,39,13.91,46.46,13.8,46.53s1.8,14.16,1.8,14.16,10.27-4.76,10.51-5.27A18.89,18.89,0,0,0,27,51.3c0-1.11.06-2,.06-2s11.1-6.1,18-6S58.11,49,60.62,51s5.91,5.56,8.35,4a2.5,2.5,0,0,0,1.29-3C70.28,51.87,70.82,49.25,70.44,49ZM69,50.23l-.74-.52A4.6,4.6,0,0,1,70,49.45c.19.12,0,1-.2,1.55A3.69,3.69,0,0,0,69,50.23Z"/><path class="cls-3" d="M43.67,40.06c-10.54.51-29.77,6.41-29.87,6.47a5.33,5.33,0,0,0,.06.76c3.73-1,20.1-5.39,23.42-6.22A42.42,42.42,0,0,1,43.67,40.06Z"/><path class="cls-2" d="M12.26,47,14,61.1c0,.42.86.83,1.78.74s1.6-.66,1.56-1.08l-1.7-14.08Z"/><ellipse class="cls-5" cx="13.92" cy="46.82" rx="1.68" ry="0.63" transform="translate(-4.78 1.69) rotate(-5.95)"/><ellipse class="cls-6" cx="13.9" cy="46.77" rx="1.24" ry="0.39" transform="translate(-4.77 1.69) rotate(-5.95)"/><path class="cls-2" d="M94.82,61.73l.94,14.16c0,.42.81.88,1.74.83s1.63-.57,1.61-1l-.94-14.16Z"/><path class="cls-7" d="M33.15,63.12a9.46,9.46,0,0,0,3.68.24,6.81,6.81,0,0,1-1.15-.16c-2.35-.57-5.92-3.53-8.48-5.24C28.21,59.05,31.49,62.5,33.15,63.12Z"/><path class="cls-8" d="M27.52,83.68a4.34,4.34,0,0,1-.65.19A4.33,4.33,0,0,0,27.52,83.68Z"/><path class="cls-8" d="M26,84a4,4,0,0,0,.7-.06A4,4,0,0,1,26,84Z"/><path class="cls-9" d="M98.54,62c-1,.27-10.56,1.94-24.2,1s-22.89-2.53-26.62-1.64-8.92,2.64-12,1.89-8.36-5.7-10.57-6.38-12.25-4.63-12.25-4.63l-.6-5.13S9.2,48.76,9,51.13v.13a5,5,0,0,0,1.9,1.34c3.18,1.46,9.12,3.31,11.8,4.55a13.6,13.6,0,0,1,8.45,9c2.14,6.88-2,15.83-2,15.83l-.26.89c3.88-3,5.88-11.17,5.88-11.17a7.79,7.79,0,0,1,5.35,3c2.34,2.89,7.5,14.94,18.46,16.26s21.22-3,29.61-7.48S98.77,77,98.77,77a43,43,0,0,0,1.35-9.57C100.18,62.5,99.51,61.7,98.54,62Z"/><path class="cls-8" d="M28.92,82.88a6.2,6.2,0,0,1-.61.41A6.16,6.16,0,0,0,28.92,82.88Z"/><path class="cls-8" d="M28.2,83.36a5,5,0,0,1-.66.32A5,5,0,0,0,28.2,83.36Z"/><path class="cls-10" d="M73,64.29c-11-1-23.13-3.27-26.21-2a9.45,9.45,0,0,0-5.26,6.45,29.21,29.21,0,0,0-.14,7.77c2.76,4.39,7.88,13.34,17.24,14.46,11,1.32,21.22-3,29.61-7.48,3.64-2,6.1-3.43,7.73-4.49a35.81,35.81,0,0,0,.8-8.19,30.17,30.17,0,0,0-.65-7.35A111.29,111.29,0,0,1,73,64.29Z"/><ellipse class="cls-11" cx="31.76" cy="76.62" rx="6.44" ry="1.12" transform="translate(-51.14 74.02) rotate(-65.69)"/><ellipse class="cls-11" cx="44.43" cy="78.8" rx="1.12" ry="7.36" transform="translate(-35.13 35.74) rotate(-32.16)"/><path class="cls-12" d="M10.09,50.26c.37,1.06,2.77,1.93,2.77,1.93l-.55-4.72S9.72,49.2,10.09,50.26Z"/><path class="cls-13" d="M32.92,77.11c-.13.3-.27.6-.42.9Q32.72,77.56,32.92,77.11Z"/><path class="cls-13" d="M34.8,71.71v0Z"/><path class="cls-13" d="M30.91,80.73c.19-.27.37-.54.55-.83C31.28,80.18,31.1,80.46,30.91,80.73Z"/><path class="cls-13" d="M30.29,81.53c.21-.25.41-.51.6-.78C30.7,81,30.5,81.29,30.29,81.53Z"/><path class="cls-14" d="M29.59,82.3a7.77,7.77,0,0,1-.67.59l.26-.89s4.09-8.95,2-15.83a13.6,13.6,0,0,0-8.45-9c-2.67-1.24-8.61-3.09-11.8-4.55A5,5,0,0,1,9,51.27v-.13c-.19,2.37-.59,10.45,1.76,17.5S18,83.92,26,84A5.13,5.13,0,0,0,29.59,82.3Z"/><path class="cls-13" d="M34.78,71.82l-.06.24Z"/><path class="cls-13" d="M29.66,82.22c.21-.21.42-.44.62-.68C30.08,81.78,29.88,82,29.66,82.22Z"/><path class="cls-13" d="M31.5,79.83c.35-.57.67-1.17,1-1.77C32.18,78.66,31.85,79.26,31.5,79.83Z"/><path class="cls-13" d="M34.59,72.49l-.15.51Z"/><path class="cls-13" d="M34.42,73.06l-.2.63Z"/><path class="cls-13" d="M33.65,75.32c-.21.55-.45,1.14-.71,1.74C33.2,76.47,33.44,75.88,33.65,75.32Z"/><path class="cls-13" d="M34.7,72.09l-.11.39Z"/><path class="cls-13" d="M34,74.46l-.29.79Z"/><path class="cls-13" d="M34.22,73.7l-.25.73Z"/><path class="cls-15" d="M31.14,66.17C29,59.29,23.91,57.46,19.48,56s-7.24,7.43-6,14.8a26.79,26.79,0,0,0,4,9.45A12.19,12.19,0,0,0,26,84a4.69,4.69,0,0,0,2.91-1.08l.26-.89S33.28,73,31.14,66.17Z"/><path class="cls-16" d="M94.82,61.73l1,14.42c0,.43.81.89,1.74.85s1.63-.58,1.61-1l-1-14.42Z"/><ellipse class="cls-5" cx="96.49" cy="61.63" rx="1.68" ry="0.63" transform="translate(-2.96 4.89) rotate(-2.86)"/><ellipse class="cls-6" cx="96.47" cy="61.58" rx="1.24" ry="0.39" transform="translate(-2.95 4.89) rotate(-2.86)"/></g></g></svg>