<svg xmlns="http://www.w3.org/2000/svg" xmlns:xlink="http://www.w3.org/1999/xlink" viewbox="0 0 128 128" width="128" height="128"><defs><style>.cls-1{isolation:isolate;stroke:none;}.cls-2{fill:#dddedf;stroke:none;}.cls-3{fill:#c6c5c5;stroke:none;}.cls-4{fill:#b5b5b5;stroke:none;}.cls-5{fill:#d1d2d1;stroke:none;}.cls-6,.cls-7{fill:#b68b67;stroke:none;}.cls-7{opacity:0.27;stroke:none;}.cls-10,.cls-11,.cls-13,.cls-15,.cls-20,.cls-7{mix-blend-mode:multiply;stroke:none;}.cls-8{fill:#788289;stroke:none;}.cls-9{fill:#fff;opacity:0.38;stroke:none;}.cls-10,.cls-30{fill:#5e656c;stroke:none;}.cls-10,.cls-13,.cls-15{opacity:0.33;stroke:none;}.cls-11{fill:#787d9d;stroke:none;}.cls-12,.cls-13{fill:#9aa3ac;stroke:none;}.cls-14{fill:#adb8be;stroke:none;}.cls-15{fill:#474d53;stroke:none;}.cls-16,.cls-20{fill:#e0e0df;stroke:none;}.cls-17{fill:#97a2ab;stroke:none;}.cls-18{fill:#b0b8c0;stroke:none;}.cls-19{fill:#d6b2a3;stroke:none;}.cls-21{fill:url(#未命名的渐变_274);stroke:none;}.cls-22{fill:url(#未命名的渐变_277);stroke:none;}.cls-23{fill:url(#未命名的渐变_246);stroke:none;}.cls-24{fill:url(#未命名的渐变_247);stroke:none;}.cls-25{fill:url(#未命名的渐变_264);stroke:none;}.cls-26{fill:url(#未命名的渐变_252);stroke:none;}.cls-27{fill:#5b6369;stroke:none;}.cls-28{fill:#8a949c;stroke:none;}.cls-29{fill:#747e88;stroke:none;}</style><linearGradient id="&#x672A;&#x547D;&#x540D;&#x7684;&#x6E10;&#x53D8;_274" x1="59.4" y1="38.57" x2="65.1" y2="38.57" gradientunits="userSpaceOnUse"><stop offset="0.01" stop-color="#d2d3d4"/><stop offset="0.74" stop-color="#babcbe"/><stop offset="1" stop-color="#68696c"/></linearGradient><linearGradient id="&#x672A;&#x547D;&#x540D;&#x7684;&#x6E10;&#x53D8;_277" x1="59.67" y1="38.57" x2="64.83" y2="38.57" gradientunits="userSpaceOnUse"><stop offset="0.01" stop-color="#e5e5e6"/><stop offset="0.74" stop-color="#babcbe"/><stop offset="1" stop-color="#68696c"/></linearGradient><linearGradient id="&#x672A;&#x547D;&#x540D;&#x7684;&#x6E10;&#x53D8;_246" x1="62.15" y1="39.47" x2="62.15" y2="19.83" gradientunits="userSpaceOnUse"><stop offset="0" stop-color="#faed24"/><stop offset="0.08" stop-color="#f8cb25"/><stop offset="0.19" stop-color="#f59e25"/><stop offset="0.3" stop-color="#f27826"/><stop offset="0.43" stop-color="#f05926"/><stop offset="0.55" stop-color="#ee4127"/><stop offset="0.68" stop-color="#ed2f27"/><stop offset="0.83" stop-color="#ec2527"/><stop offset="1" stop-color="#ec2227"/></linearGradient><linearGradient id="&#x672A;&#x547D;&#x540D;&#x7684;&#x6E10;&#x53D8;_247" x1="62.13" y1="39.41" x2="62.13" y2="22.35" gradientunits="userSpaceOnUse"><stop offset="0" stop-color="#faed24"/><stop offset="0.07" stop-color="#f9d724"/><stop offset="0.2" stop-color="#f6b125"/><stop offset="0.34" stop-color="#f49226"/><stop offset="0.48" stop-color="#f37a26"/><stop offset="0.64" stop-color="#f26827"/><stop offset="0.8" stop-color="#f15e27"/><stop offset="1" stop-color="#f15b27"/></linearGradient><linearGradient id="&#x672A;&#x547D;&#x540D;&#x7684;&#x6E10;&#x53D8;_264" x1="62.08" y1="39.09" x2="62.08" y2="25.57" gradientunits="userSpaceOnUse"><stop offset="0" stop-color="#fbed8b"/><stop offset="0.01" stop-color="#fbeb89"/><stop offset="0.18" stop-color="#f9d66a"/><stop offset="0.36" stop-color="#f8c552"/><stop offset="0.55" stop-color="#f7b940"/><stop offset="0.75" stop-color="#f6b236"/><stop offset="1" stop-color="#f6b033"/></linearGradient><linearGradient id="&#x672A;&#x547D;&#x540D;&#x7684;&#x6E10;&#x53D8;_252" x1="62.08" y1="38.85" x2="62.08" y2="29.15" gradientunits="userSpaceOnUse"><stop offset="0" stop-color="#fff"/><stop offset="0.2" stop-color="#fffffc"/><stop offset="0.35" stop-color="#fffef3"/><stop offset="0.47" stop-color="#fefde4"/><stop offset="0.58" stop-color="#fefbce"/><stop offset="0.68" stop-color="#fdf9b2"/><stop offset="0.78" stop-color="#fcf68f"/><stop offset="0.88" stop-color="#fcf266"/><stop offset="0.97" stop-color="#faef38"/><stop offset="1" stop-color="#faed24"/></linearGradient></defs><title>&#x751F;&#x7269;&#x4EEA;&#x5668;</title><g class="cls-1"><g id="Bio_instruments&#x751F;&#x7269;&#x4EEA;&#x5668;" data-name="Bio instruments&#x751F;&#x7269;&#x4EEA;&#x5668;"><path class="cls-2" d="M65.53,83.91c0-.5-1.47-1.38-3.28-1.38S59,83.41,59,83.91V96c0,.61,1.47,1.11,3.28,1.11s3.28-.5,3.28-1.11Z"/><path class="cls-3" d="M60.45,90.25V85.69a.67.67,0,0,1,.68-.65h2.24a.67.67,0,0,1,.68.65v4.56C64.05,90.61,60.45,90.61,60.45,90.25Z"/><path class="cls-4" d="M65.48,89.56v-5c0-1-1.43.36-1.43,1.11v4.56C64.05,90.61,65.48,89.92,65.48,89.56Z"/><path class="cls-5" d="M59,89.56v-5c0-1,1.43.36,1.43,1.11v4.56C60.45,90.61,59,89.92,59,89.56Z"/><path class="cls-6" d="M75.06,91.22H81.7a10.18,10.18,0,0,1,5.41,1.83,75.75,75.75,0,0,0,6.61,4.3c1.39.65,2.77.65,2.89,1.46a1.67,1.67,0,0,1-1.16,1.64c-1.84.79-1.06,1.8-1.06,1.8l-8-4.81a11.6,11.6,0,0,0-6-1.69c-2.52,0-5.34,0-5.34,0Z"/><path class="cls-7" d="M94.65,100.93a8.83,8.83,0,0,1-1.06-.39,78.46,78.46,0,0,1-6.82-4.3,10.73,10.73,0,0,0-5.58-1.83H75.06v1.38s2.82,0,5.34,0a11.6,11.6,0,0,1,6,1.69l8,4.81A1,1,0,0,1,94.65,100.93Z"/><path class="cls-8" d="M47.2,102.32v2.54c0,3,6.74,5.39,15,5.39s15-2.41,15-5.39v-2.54Z"/><path class="cls-9" d="M53.37,110c.32.77.76-.55,1.29-.1v-7.59H53.37Z"/><path class="cls-9" d="M49.39,107.65a17.82,17.82,0,0,0,5.27,1.86v-7.19H49.39Z"/><path class="cls-10" d="M70.21,109.43c4.25-1,7.09-2.64,7.09-4.57v-2.54H70.21Z"/><path class="cls-10" d="M76.26,106.82a2.71,2.71,0,0,0,1-2v-2.54h-1Z"/><path class="cls-11" d="M65.07,72.92c0-.52-1.26-.94-2.82-.94s-2.82.42-2.82.94v0h0V83.51c0,.64,1.26,1.15,2.82,1.15s2.82-.52,2.82-1.15V72.94h0Z"/><path class="cls-12" d="M65.07,72.91c0-.51-1.26-.93-2.82-.93s-2.82.42-2.82.93v0h0V83.39c0,.63,1.26,1.14,2.82,1.14s2.82-.51,2.82-1.14V72.93h0Z"/><path class="cls-9" d="M61.14,83.06V72.95a4.55,4.55,0,0,1-1.06-.36V83.3s.26.63,1.48.81A1.2,1.2,0,0,1,61.14,83.06Z"/><path class="cls-13" d="M63.84,72.14V84.33c.74-.21,1.23-.55,1.23-.94V72.93h0v0C65.07,72.59,64.58,72.31,63.84,72.14Z"/><path class="cls-14" d="M65.06,72.93v0c0-.51-1.26-.93-2.82-.93s-2.82.42-2.82.93v0h0V73c.1.25.58,1,2.75,1s2.77-.77,2.88-1v-.06Z"/><path class="cls-10" d="M65.07,74.74a1,1,0,0,0-.74,1v5.47a1,1,0,0,0,.74,1Z"/><path class="cls-10" d="M64.51,75.64v5.6a1,1,0,0,0,.44.85l.12.05v-7.4l-.12.05A1,1,0,0,0,64.51,75.64Z"/><path class="cls-15" d="M64.64,46.94c0-.5-1.07-.91-2.39-.91s-2.39.41-2.39.91v0h0V72.53c0,.62,1.07,1.12,2.39,1.12s2.39-.5,2.39-1.12V47h0Z"/><path class="cls-12" d="M64.64,46.93c0-.5-1.07-.91-2.39-.91s-2.39.41-2.39.91v0h0V72.42c0,.61,1.07,1.11,2.39,1.11s2.39-.5,2.39-1.11V47h0Z"/><path class="cls-13" d="M62.25,46c-1.32,0-2.39.41-2.39.91v0h0v.83a5.86,5.86,0,0,0,4.78,0V47h0v0C64.64,46.43,63.57,46,62.25,46Z"/><path class="cls-9" d="M61.31,72.1V47a3.5,3.5,0,0,1-.9-.35V72.33s.22.61,1.26.79A1.25,1.25,0,0,1,61.31,72.1Z"/><path class="cls-13" d="M63.6,46.18V73.33c.63-.2,1-.54,1-.92V47h0v0C64.64,46.62,64.23,46.35,63.6,46.18Z"/><path class="cls-16" d="M65.1,38.52c0-.5-1.28-.91-2.85-.91s-2.85.41-2.85.91v7.72c0,.61,1.28,1.11,2.85,1.11s2.85-.5,2.85-1.11Z"/><ellipse class="cls-17" cx="62.25" cy="102.32" rx="15.05" ry="5.39"/><path class="cls-18" d="M73.73,102.13c0,2.17-5.14,3.93-11.48,3.93s-11.48-1.76-11.48-3.93,5.14-6.35,11.48-6.35S73.73,100,73.73,102.13Z"/><path class="cls-12" d="M62.25,90.35a5.8,5.8,0,0,1-3.28-1V96c0,.61,1.47,1.11,3.28,1.11s3.28-.5,3.28-1.11V89.37A5.8,5.8,0,0,1,62.25,90.35Z"/><ellipse class="cls-19" cx="75.06" cy="93.51" rx="0.74" ry="2.28"/><path class="cls-19" d="M94.39,102.25a.9.9,0,0,0,.92-.12,1.75,1.75,0,0,0,.53-1.52,2.53,2.53,0,0,0-.1-.31l-.29.15C93.61,101.24,94.39,102.25,94.39,102.25Z"/><path class="cls-6" d="M95.61,100.92a1.33,1.33,0,0,0-.11-.5l-.06,0a2.56,2.56,0,0,0-1,.65c-.06.29-.06.67.31.7C95.38,101.84,95.6,101.26,95.61,100.92Z"/><path class="cls-9" d="M60.6,46V39.67a3.5,3.5,0,0,1-.9-.35v6.89s.22.61,1.26.79A1.25,1.25,0,0,1,60.6,46Z"/><path class="cls-20" d="M64.3,37.89V47c.49-.2.8-.47.8-.77V38.52C65.1,38.28,64.79,38.06,64.3,37.89Z"/><path class="cls-21" d="M62.25,37.61c-1.57,0-2.85.41-2.85.91v.09s0,.91,2.78.91,2.91-.91,2.91-.91v-.09C65.1,38,63.82,37.61,62.25,37.61Z"/><path class="cls-22" d="M62.25,37.78c-1.42,0-2.58.33-2.58.74v.08s0,.75,2.52.75,2.64-.75,2.64-.75v-.08C64.83,38.12,63.68,37.78,62.25,37.78Z"/><path class="cls-23" d="M63.77,38.89a2.55,2.55,0,0,1-3.14.08,7.12,7.12,0,0,1-2.81-6.79c.3-3.08,2-3.55,3.26-8.09.79-2.87,0-4.26,0-4.26s2.56,1.78,2.74,4.31-.46,5.74.5,5.84.91-2.77.91-2.77,2.23,4.09.86,8.16A7.51,7.51,0,0,1,63.77,38.89Z"/><path class="cls-24" d="M63.41,38.92A1.8,1.8,0,0,1,61,39a7.1,7.1,0,0,1-2.47-5.1c-.09-4,2.4-7.17,3-9.14a5.93,5.93,0,0,0,.45-2.36A4.26,4.26,0,0,1,63,25.15c.12,1.94-.11,5.41,1,5.64s1.46-1.71,1.43-1.61.91,4.11-.12,6.91A7.2,7.2,0,0,1,63.41,38.92Z"/><path class="cls-25" d="M64.21,37.82a2,2,0,0,1-3.7.16A7.3,7.3,0,0,1,59,34.05c-.07-3.1.94-4.18,1.94-5.89a7.51,7.51,0,0,0,.95-2.6,14.26,14.26,0,0,1,.36,2.5c.09,1.51.24,3.87,1.09,4a2.16,2.16,0,0,0,1.55-.49,9.33,9.33,0,0,1-.29,5.44A6.32,6.32,0,0,1,64.21,37.82Z"/><path class="cls-26" d="M60,34.31a8.35,8.35,0,0,1,1.46-5.16s.06,5,1.18,5.1c.88.07,1.33-1.05,1.33-1.05a8.94,8.94,0,0,1-.36,4.6C62.83,39.67,60.19,39.32,60,34.31Z"/><path class="cls-10" d="M74.83,95.47c.28,0,.66-.88.66-2s-.38-2-.66-2h-9c-.35,0-.63.88-.63,2s.28,2,.63,2Z"/><path class="cls-18" d="M74.73,95.47c.28,0,.65-.88.65-2s-.37-2-.65-2H65.49c-.34,0-.62.88-.62,2s.28,2,.62,2Z"/><path class="cls-27" d="M62.25,90.43A5.49,5.49,0,0,1,59,89.37v.69a5.62,5.62,0,0,0,6.55,0v-.69A5.49,5.49,0,0,1,62.25,90.43Z"/><path class="cls-28" d="M62.25,90.35a5.8,5.8,0,0,1-3.28-1V90a6,6,0,0,0,6.55,0v-.64A5.8,5.8,0,0,1,62.25,90.35Z"/><rect class="cls-29" x="59.43" y="74.74" width="1.05" height="7.4" rx="0.42" ry="0.42"/><path class="cls-30" d="M60.06,74.76a.52.52,0,0,0-.43.51v6.35a.43.43,0,1,0,.85,0V75.26A.52.52,0,0,0,60.06,74.76Z"/></g></g></svg>