<svg xmlns="http://www.w3.org/2000/svg" xmlns:xlink="http://www.w3.org/1999/xlink" viewbox="0 0 128 128" width="128" height="128"><defs><style>.cls-1{isolation:isolate;stroke:none;}.cls-2{fill:url(#未命名的渐变_16);stroke:none;}.cls-3{fill:#c2c4c5;opacity:0.4;mix-blend-mode:multiply;stroke:none;}.cls-4{fill:#fff;opacity:0.29;stroke:none;}.cls-5{fill:url(#未命名的渐变_56);stroke:none;}.cls-6{fill:url(#未命名的渐变_31);stroke:none;}.cls-7{fill:none;stroke:#4e4e4e;stroke-miterlimit:10;stroke-width:0.24px;}.cls-8{fill:#333;stroke:none;}</style><linearGradient id="&#x672A;&#x547D;&#x540D;&#x7684;&#x6E10;&#x53D8;_16" x1="171.78" y1="-34.22" x2="162.34" y2="-34.22" gradienttransform="translate(-84.54 -18.84) rotate(40)" gradientunits="userSpaceOnUse"><stop offset="0" stop-color="#abadb0"/><stop offset="0.57" stop-color="#f8f8f9"/><stop offset="0.99" stop-color="#b3b5b8"/></linearGradient><linearGradient id="&#x672A;&#x547D;&#x540D;&#x7684;&#x6E10;&#x53D8;_56" x1="167.47" y1="-87.54" x2="164.76" y2="-91.27" gradienttransform="translate(10.42 -146.86) rotate(90)" gradientunits="userSpaceOnUse"><stop offset="0.01" stop-color="#848689"/><stop offset="0.19" stop-color="#dedfe0"/><stop offset="1" stop-color="#dcddde"/></linearGradient><linearGradient id="&#x672A;&#x547D;&#x540D;&#x7684;&#x6E10;&#x53D8;_31" x1="164.24" y1="-90.86" x2="166.85" y2="-89.29" gradienttransform="translate(10.41 -146.95) rotate(90)" gradientunits="userSpaceOnUse"><stop offset="0" stop-color="#cbccce"/><stop offset="0.27" stop-color="#bfc0c2"/><stop offset="0.76" stop-color="#9ea0a2"/><stop offset="0.99" stop-color="#8c8e90"/></linearGradient></defs><title>&#x751F;&#x7269;&#x4EEA;&#x5668;</title><g class="cls-1"><g id="Bio_instruments&#x751F;&#x7269;&#x4EEA;&#x5668;" data-name="Bio instruments&#x751F;&#x7269;&#x4EEA;&#x5668;"><path class="cls-2" d="M98.13,17.29l-62.92,75c-2.28,2.71-7.54,10.85-6.41,11.8S37,98.42,39.31,95.7l62.92-75Z"/><path class="cls-3" d="M101.52,20.65,38.74,95.47c-1.45,1.72-7.47,7.85-8.27,8-.42.05-.55-.13-.56-.19.75,0,6.89-6.26,8.44-8.11L101,20.5Z"/><path class="cls-4" d="M98.31,18.29,35.7,92.91c-1.45,1.72-6.55,8.62-6.53,9.43a.53.53,0,0,0,.25.47c-.16-.73,5.12-7.73,6.67-9.58L98.66,18.67Z"/><ellipse class="cls-5" cx="100.21" cy="18.97" rx="1.03" ry="2.67" transform="translate(21.27 83.54) rotate(-50)"/><ellipse class="cls-6" cx="100.3" cy="18.92" rx="0.77" ry="2.37" transform="translate(21.34 83.59) rotate(-50)"/><line class="cls-7" x1="45.97" y1="79.77" x2="47.71" y2="81.24"/><line class="cls-7" x1="57.12" y1="66.48" x2="58.86" y2="67.94"/><line class="cls-7" x1="68.28" y1="53.19" x2="70.02" y2="54.65"/><line class="cls-7" x1="79.43" y1="39.9" x2="81.17" y2="41.36"/><line class="cls-7" x1="90.58" y1="26.6" x2="92.33" y2="28.07"/><path class="cls-8" d="M91.64,25.2a1,1,0,0,1,.5-.37.48.48,0,0,1,.45.11q.4.34-.1.93a1,1,0,0,1-.49.36.47.47,0,0,1-.45-.1Q91.15,25.78,91.64,25.2Zm.25.2q-.34.4-.17.54c.11.09.28,0,.51-.27s.29-.46.18-.55S92.13,25.11,91.89,25.4Z"/><path class="cls-8" d="M92.22,26.46a.15.15,0,0,1,.12-.06.2.2,0,0,1,.13,0,.19.19,0,0,1,.07.12.15.15,0,0,1,0,.13.15.15,0,0,1-.12.06.2.2,0,0,1-.13-.05.19.19,0,0,1-.07-.12A.15.15,0,0,1,92.22,26.46Z"/><path class="cls-8" d="M93.34,27.58l-.76-.63.16-.19.6,0a1.26,1.26,0,0,0,.29,0,.34.34,0,0,0,.16-.11.2.2,0,0,0,0-.31.57.57,0,0,0-.39-.12l.18-.21a.77.77,0,0,1,.42.18.52.52,0,0,1,.2.32.39.39,0,0,1-.1.32.79.79,0,0,1-.6.22H93l.48.4Z"/><path class="cls-8" d="M80.44,38.55a1,1,0,0,1,.5-.37.48.48,0,0,1,.45.11q.4.34-.1.93a1,1,0,0,1-.49.36.47.47,0,0,1-.45-.1Q80,39.13,80.44,38.55Zm.25.2q-.34.4-.17.54c.11.09.28,0,.51-.27s.29-.46.18-.55S80.93,38.46,80.69,38.75Z"/><path class="cls-8" d="M81,39.8a.15.15,0,0,1,.12-.06.2.2,0,0,1,.13,0,.19.19,0,0,1,.07.12.15.15,0,0,1,0,.13.15.15,0,0,1-.12.06.2.2,0,0,1-.13-.05.19.19,0,0,1-.07-.12A.15.15,0,0,1,81,39.8Z"/><path class="cls-8" d="M82.41,40.72l-.14-.12-.21.25-.22-.19.21-.25L81.54,40l.13-.15,1.12-.34.24.2-.61.73.14.12Zm-.22-.48.32-.38.1-.11h0l0,0-.07,0-.6.18Z"/><path class="cls-8" d="M69.24,51.89a1,1,0,0,1,.5-.37.48.48,0,0,1,.45.11q.4.34-.1.93a1,1,0,0,1-.49.36.47.47,0,0,1-.45-.1Q68.75,52.48,69.24,51.89Zm.25.2q-.34.4-.17.54c.11.09.28,0,.51-.27s.29-.46.18-.55S69.73,51.81,69.49,52.09Z"/><path class="cls-8" d="M69.82,53.15a.15.15,0,0,1,.12-.06.2.2,0,0,1,.13,0,.19.19,0,0,1,.07.12.15.15,0,0,1,0,.13.15.15,0,0,1-.12.06.2.2,0,0,1-.13-.05.19.19,0,0,1-.07-.12A.15.15,0,0,1,69.82,53.15Z"/><path class="cls-8" d="M71.69,53.3a.5.5,0,0,0-.15-.21.34.34,0,0,0-.3-.07.57.57,0,0,0-.31.21h0a.36.36,0,0,1,.35.08.38.38,0,0,1,.15.29.51.51,0,0,1-.13.33.52.52,0,0,1-.35.2.5.5,0,0,1-.38-.12.46.46,0,0,1-.18-.4.85.85,0,0,1,.22-.48,1,1,0,0,1,.54-.36.59.59,0,0,1,.54.14.72.72,0,0,1,.18.21Zm-1,.16a.33.33,0,0,0-.08.19.18.18,0,0,0,.07.16.18.18,0,0,0,.17,0,.31.31,0,0,0,.16-.11c.11-.13.11-.24,0-.33a.19.19,0,0,0-.16,0A.25.25,0,0,0,70.74,53.46Z"/><path class="cls-8" d="M58,65.24a1,1,0,0,1,.5-.37A.48.48,0,0,1,59,65q.4.34-.1.93a1,1,0,0,1-.49.36.47.47,0,0,1-.45-.1Q57.55,65.82,58,65.24Zm.25.2q-.34.4-.17.54c.11.09.28,0,.51-.27s.29-.46.18-.55S58.53,65.16,58.29,65.44Z"/><path class="cls-8" d="M58.62,66.5a.15.15,0,0,1,.12-.06.2.2,0,0,1,.13,0,.19.19,0,0,1,.07.12.15.15,0,0,1,0,.13.15.15,0,0,1-.12.06.2.2,0,0,1-.13-.05.19.19,0,0,1-.07-.12A.15.15,0,0,1,58.62,66.5Z"/><path class="cls-8" d="M59.71,66.56a.36.36,0,0,1,0-.43A.35.35,0,0,1,60,66a.63.63,0,0,1,.54.44.33.33,0,0,1-.07.3.39.39,0,0,1-.46.1h0a.48.48,0,0,1,.09.27.36.36,0,0,1-.09.24.37.37,0,0,1-.32.15.65.65,0,0,1-.38-.17.57.57,0,0,1-.21-.32.36.36,0,0,1,.08-.32.42.42,0,0,1,.49-.11Zm.08.23a.29.29,0,0,0-.34.06.18.18,0,0,0,0,.15.26.26,0,0,0,.09.15.25.25,0,0,0,.16.06.17.17,0,0,0,.14-.07C59.88,67.06,59.87,66.94,59.79,66.79Zm.46-.23a.17.17,0,0,0,0-.13.19.19,0,0,0-.07-.12.2.2,0,0,0-.14,0,.16.16,0,0,0-.12.06.25.25,0,0,0,0,.29A.25.25,0,0,0,60.24,66.57Z"/><path class="cls-8" d="M47.17,79.82l-.72-.61.16-.19.24.2.62-.74-.3-.15.17-.2.58.31-.83,1,.24.2Z"/><path class="cls-8" d="M47.42,79.85a.15.15,0,0,1,.12-.06.2.2,0,0,1,.13,0,.19.19,0,0,1,.07.12.15.15,0,0,1,0,.13.15.15,0,0,1-.12.06.2.2,0,0,1-.13-.05.19.19,0,0,1-.07-.12A.15.15,0,0,1,47.42,79.85Z"/><path class="cls-8" d="M48.22,79.75a1,1,0,0,1,.5-.37.48.48,0,0,1,.45.11q.4.34-.1.93a1,1,0,0,1-.49.36.47.47,0,0,1-.45-.1Q47.73,80.33,48.22,79.75Zm.25.2q-.34.4-.17.54t.51-.27q.35-.41.18-.55T48.47,79.95Z"/></g></g></svg>