<svg xmlns="http://www.w3.org/2000/svg" xmlns:xlink="http://www.w3.org/1999/xlink" viewbox="0 0 128 128" width="128" height="128"><defs><style>.cls-1{isolation:isolate;stroke:none;}.cls-2{fill:url(#未命名的渐变_209);stroke:none;}.cls-10,.cls-3{opacity:0.73;stroke:none;}.cls-4,.cls-7{stroke:#fff;stroke-miterlimit:10;}.cls-4{stroke-width:2px;}.cls-4,.cls-5{fill:url(#未命名的渐变_186);stroke:none;}.cls-6{opacity:0.74;stroke:none;}.cls-7{fill:none;stroke-width:1px;}.cls-8{opacity:0.42;stroke:none;}.cls-10,.cls-9{fill:#fff;stroke:none;}.cls-10{mix-blend-mode:lighten;stroke:none;}.cls-11{fill:#a2def9;opacity:0.21;mix-blend-mode:multiply;stroke:none;}.cls-12{fill:url(#未命名的渐变_321);stroke:none;}.cls-13{fill:url(#未命名的渐变_271);stroke:none;}.cls-14{fill:url(#未命名的渐变_275);stroke:none;}.cls-15{fill:url(#未命名的渐变_305);stroke:none;}</style><linearGradient id="&#x672A;&#x547D;&#x540D;&#x7684;&#x6E10;&#x53D8;_209" x1="86.13" y1="95.46" x2="47.54" y2="28.62" gradientunits="userSpaceOnUse"><stop offset="0" stop-color="#bfe7f5"/><stop offset="0.55" stop-color="#e8f6f8"/><stop offset="0.67" stop-color="#e4f4f8"/><stop offset="0.98" stop-color="#ddf1f8"/></linearGradient><linearGradient id="&#x672A;&#x547D;&#x540D;&#x7684;&#x6E10;&#x53D8;_186" x1="14.82" y1="44.87" x2="116.18" y2="44.87" gradientunits="userSpaceOnUse"><stop offset="0.01" stop-color="#f1fafe"/><stop offset="0.82" stop-color="#c2e3f7"/></linearGradient><linearGradient id="&#x672A;&#x547D;&#x540D;&#x7684;&#x6E10;&#x53D8;_321" x1="13.03" y1="54.32" x2="117.76" y2="54.32" gradientunits="userSpaceOnUse"><stop offset="0" stop-color="#8dd7f2"/><stop offset="0.09" stop-color="#b3e3f5"/><stop offset="0.5" stop-color="#b5e4f5"/><stop offset="0.65" stop-color="#bce6f6"/><stop offset="0.76" stop-color="#c8ebf8"/><stop offset="0.85" stop-color="#d9f1fb"/><stop offset="0.92" stop-color="#eff9fe"/><stop offset="0.92" stop-color="#eff9fe"/><stop offset="1" stop-color="#87d5f7"/></linearGradient><radialGradient id="&#x672A;&#x547D;&#x540D;&#x7684;&#x6E10;&#x53D8;_271" cx="68.48" cy="61.86" r="22.89" gradienttransform="matrix(0.98, 0.25, -0.78, 0.69, 47.99, 1.12)" gradientunits="userSpaceOnUse"><stop offset="0" stop-color="#7bd3f7"/><stop offset="1" stop-color="#5fccf5"/></radialGradient><radialGradient id="&#x672A;&#x547D;&#x540D;&#x7684;&#x6E10;&#x53D8;_275" cx="68.48" cy="61.86" r="17.99" gradienttransform="matrix(0.98, 0.25, -0.78, 0.69, 47.99, 1.12)" gradientunits="userSpaceOnUse"><stop offset="0" stop-color="#7bd3f7"/><stop offset="1" stop-color="#00bbf2"/></radialGradient><radialGradient id="&#x672A;&#x547D;&#x540D;&#x7684;&#x6E10;&#x53D8;_305" cx="65.61" cy="70.06" r="5.16" gradienttransform="matrix(1, 0.09, -0.04, 0.75, 3, 1.03)" gradientunits="userSpaceOnUse"><stop offset="0.18" stop-color="#3ec7f4"/><stop offset="1" stop-color="#00b2ea"/></radialGradient></defs><title>&#x751F;&#x7269;&#x4EEA;&#x5668;</title><g class="cls-1"><g id="Bio_instruments&#x751F;&#x7269;&#x4EEA;&#x5668;" data-name="Bio instruments&#x751F;&#x7269;&#x4EEA;&#x5668;"><path class="cls-2" d="M117.18,66.65c0,15.25-22.95,27.62-51.26,27.62S14.66,81.9,14.66,66.65c0-1.42-1.25-11-1.21-12.41C13.83,40,40.24,38,65.92,38s50.09.88,51.88,14.89C118,54.26,117.18,65.26,117.18,66.65Z"/><g class="cls-3"><path class="cls-4" d="M65.5,38.89c23.69,0,43.38,9.24,49.26,21.09a15.38,15.38,0,0,0,1.42-5.77c0-13.51-22.69-24.46-50.68-24.46s-50.68,11-50.68,24.46A15.38,15.38,0,0,0,16.25,60C22.12,48.13,41.81,38.89,65.5,38.89Z"/></g><path class="cls-5" d="M65.5,38.89c23.69,0,43.38,9.24,49.26,21.09a15.38,15.38,0,0,0,1.42-5.77c0-13.51-22.69-24.46-50.68-24.46s-50.68,11-50.68,24.46A15.38,15.38,0,0,0,16.25,60C22.12,48.13,41.81,38.89,65.5,38.89Z"/><g class="cls-6"><path class="cls-7" d="M16.38,62.17A14.48,14.48,0,0,0,16,65.42C16,80.08,38.33,92,65.88,92s49.89-11.88,49.89-26.53a13.48,13.48,0,0,0-.64-4.09"/></g><g class="cls-8"><path class="cls-9" d="M65.8,79.61c-23.15,0-42.77-7.55-49.59-18a15,15,0,0,0-.39,3.32c0,14.92,22.37,27,50,27s50-12.1,50-27a15,15,0,0,0-.39-3.32C108.57,72.07,89,79.61,65.8,79.61Z"/></g><path class="cls-10" d="M35.4,76.58V75s-10.21-4.5-16.69-9.66l.84,6.28a9.78,9.78,0,0,0,4.22,6.55,65.88,65.88,0,0,0,17.67,8.92S34.79,82.24,35.4,76.58Z"/><path class="cls-11" d="M95.24,77.65V76s9.37-3.36,15.85-8.51v5.14c0,2.16-1.53,4.63-4.22,6.55-3.25,2.33-8.8,5.46-18,8.64C88.91,87.85,95.86,83.31,95.24,77.65Z"/><path class="cls-12" d="M65.4,28.59C36.47,28.59,13,40.11,13,54.31S36.47,80,65.4,80s52.37-11.51,52.37-25.73S94.32,28.59,65.4,28.59Zm0,49.4c-28,0-50.77-10.83-50.77-23.67s22.73-23.9,50.77-23.9,50.77,11.07,50.77,23.9S93.44,78,65.4,78Z"/><path class="cls-13" d="M64.88,52c2.34-.17,7.51-6.16,13.81-4.77S82.78,53.64,85,55.4s14.36,2,11.19,8.85C94.8,67.94,87.93,63.9,84,65.5c-6.08,1.72-2.17,6.21-8,7s-8.14-4.15-14.61-3.73-8,5.8-14.29,4.1,1.32-5.44.32-8-12.57-2.66-10-6.59,8.36-1.14,11.72-2.9-4.89-4.46-.67-6.28C57.32,45.29,62.54,52.18,64.88,52Z"/><path class="cls-14" d="M65.34,54c1.84-.13,5.9-4.84,10.85-3.75s3.22,5,4.94,6.4,11.29,1.59,8.79,7c-1.07,2.9-6.47-.28-9.58,1-4.78,1.35-1.71,4.88-6.29,5.51s-6.4-3.26-11.49-2.93-6.32,4.56-11.23,3.22,1-4.28.25-6.28S41.71,62,43.71,58.91s6.57-.9,9.21-2.28-3.84-3.51-.53-4.94C59.4,48.68,63.5,54.1,65.34,54Z"/><path class="cls-15" d="M71.07,59.82c-.11,1.93-2.72,3.28-5.82,3s-5.53-2-5.42-4,2.72-3.28,5.82-3S71.18,57.89,71.07,59.82Z"/></g></g></svg>