<svg xmlns="http://www.w3.org/2000/svg" xmlns:xlink="http://www.w3.org/1999/xlink" viewbox="0 0 128 128" width="128" height="128"><defs><style>.cls-1,.cls-33{fill:none;stroke:none;}.cls-2{isolation:isolate;stroke:none;}.cls-3{fill:#3757a7;stroke:none;}.cls-4{fill:#4d73b8;stroke:none;}.cls-5{fill:#5a7fc0;stroke:none;}.cls-6{fill:#fbbfa7;stroke:none;}.cls-7{fill:#f3ac93;stroke:none;}.cls-8{fill:#5bc0ed;stroke:none;}.cls-9{fill:#5167b0;stroke:none;}.cls-10{fill:#2a499d;stroke:none;}.cls-11{fill:#628eca;stroke:none;}.cls-12{fill:#24adc5;stroke:none;}.cls-13{fill:#707f86;stroke:none;}.cls-14{fill:#f6f6f6;stroke:none;}.cls-15{fill:url(#未命名的渐变_426);stroke:none;}.cls-16{fill:#1b8393;stroke:none;}.cls-17{fill:#95a8b0;stroke:none;}.cls-18{fill:#f3f4f4;stroke:none;}.cls-19{fill:#cdd9e0;stroke:none;}.cls-20{fill:#dbeaf2;stroke:none;}.cls-21{fill:#fbfeff;stroke:none;}.cls-22{fill:#e1eef4;stroke:#fff;stroke-width:0.37px;}.cls-22,.cls-32{mix-blend-mode:multiply;stroke:none;}.cls-23{fill:#d1dde1;stroke:none;}.cls-24{fill:#ccd9df;stroke:none;}.cls-25{fill:#444245;stroke:none;}.cls-26{fill:#595a5c;stroke:none;}.cls-27{fill:#424244;stroke:none;}.cls-28{fill:#98a3a6;stroke:none;}.cls-29{fill:#fff;opacity:0.5;stroke:none;}.cls-30{fill:#6aaac2;opacity:0.3;stroke:none;}.cls-31{opacity:0.33;fill:url(#未命名的渐变_653);stroke:none;}.cls-32{fill:#d8d9d9;opacity:0.68;stroke:none;}.cls-33{stroke:#4e4e4e;stroke-width:0.18px;}.cls-34{clip-path:url(#clip-path);stroke:none;}</style><linearGradient id="&#x672A;&#x547D;&#x540D;&#x7684;&#x6E10;&#x53D8;_426" x1="14.38" y1="77.72" x2="36.48" y2="77.72" gradienttransform="translate(131.43 128.38) rotate(174.79)" gradientunits="userSpaceOnUse"><stop offset="0.01" stop-color="#daf1fd"/><stop offset="0.79" stop-color="#20c4f4"/></linearGradient><linearGradient id="&#x672A;&#x547D;&#x540D;&#x7684;&#x6E10;&#x53D8;_653" x1="10.3" y1="91.77" x2="15.41" y2="91.77" gradienttransform="translate(131.43 128.38) rotate(174.79)" gradientunits="userSpaceOnUse"><stop offset="0.01" stop-color="#daf1fd"/><stop offset="0.82" stop-color="#8fd8f8"/></linearGradient><clippath id="clip-path"><rect class="cls-1" x="81.84" y="52.7" width="20.75" height="21.02"/></clippath></defs><title>&#x751F;&#x7269;&#x4EEA;&#x5668;</title><g class="cls-2"><g id="Bio_instruments&#x751F;&#x7269;&#x4EEA;&#x5668;" data-name="Bio instruments&#x751F;&#x7269;&#x4EEA;&#x5668;"><path class="cls-3" d="M72.32,60.62s7.26,6.16,7.44,8.41-.63,10.77-1.83,10.45-4.35-2.11-4-5.49.69-4-.34-4.69S70.26,67,70.26,67s2.55,3.86,2.12,5.51-1.62,8.5-3,7.85a5.12,5.12,0,0,1-3-5.77c.75-3.18.6-3.51-1.42-5.21a31.22,31.22,0,0,1-3.54-3.57Z"/><path class="cls-4" d="M96.53,63.74s2.81,0-.79-2.5S90,56.3,86.62,55.6s-9.19-4-11.4-3.55S59.82,52.84,57,53.94,31.55,63.1,28.18,68s12.14.59,20.61-2.37S68.62,54.17,78.4,57.35,96.53,63.74,96.53,63.74Z"/><path class="cls-5" d="M98.33,65.28c-1.67-1.43-6.75-6.57-9.67-7.47s-9.9-4.45-14-4-12.74-.16-20.81,2.85S31.74,61.88,26.31,69.25c-.61.82-1.23,1.62-1.86,2.39-1.09.81-4.77,3.6-5.43,4.63C18.25,77.48,18.4,78,17.3,79s-3.62,2.07-4.88,3.12a9.28,9.28,0,0,0-2,2.44S8.57,94.29,14.58,97c5.36,2.44,7.93,1.61,9.42,2.63s2.19,1.94,3.37.44,1.73-1.42,3.46-2.28,4.29-2.47,6.6-2.77c13.45-1.74,22.52-1.34,30,4.14,3,2.23,6.34,3.83,6.67,0,.54-6.27-7.46-9.43-12.21-10.77-4.55-1.28-5.84-4.1-5.17-7.25s3.44-13.57,9.33-16,10.86-3.12,12.92-2.5,7,1.62,8.39,1.93,5.42,4.69,8.89,4.22S100,66.72,98.33,65.28Z"/><path class="cls-6" d="M10.35,85.33,3.84,89.84s-.78.39-.68,2.42S3.34,98.32,8.07,103s9.91,5.16,10.43,4.67,7.41-6.85,7.41-6.85L17.7,94.58Z"/><path class="cls-7" d="M15.6,96.49a24.49,24.49,0,0,0,8.33,6.17c.93-.84,2-1.85,2-1.85l-8.4-6.23-7.14-9.26-.53.37A25.23,25.23,0,0,0,15.6,96.49Z"/><path class="cls-8" d="M26.82,100.57A36.14,36.14,0,0,1,18,94a77.18,77.18,0,0,1-7.5-9.7s-.75-.45-.61.44,3.37,5.85,6.38,9.07a34.57,34.57,0,0,0,7,6.07c1.58.92,3.35,1.68,3.66,1.35S26.82,100.57,26.82,100.57Z"/><path class="cls-9" d="M55.88,81.84a37.55,37.55,0,0,1-2.35,3.38c-.8,1-.9,2,2.07,2.07a15.82,15.82,0,0,1,3.23.22,7.78,7.78,0,0,1-2.6-2.39A7.77,7.77,0,0,1,55.88,81.84Z"/><path class="cls-10" d="M55.8,84.47s-.29,1.13-.52,1.7-.14,1,.88.83a4.12,4.12,0,0,1,1.12-.1A3.17,3.17,0,0,1,56.19,86,4.87,4.87,0,0,1,55.8,84.47Z"/><path class="cls-9" d="M13.07,82.13a4.65,4.65,0,0,0-1.38,1.28c-.52.79-.41.94.46,2.12s1.54,2.16,1.73,2.06-1.53-3.74-1.47-4.09A7,7,0,0,1,13.07,82.13Z"/><path class="cls-10" d="M12.23,83.41s-.18-.1-.39.31-.13.54.53,1.6a11.49,11.49,0,0,0,1.26,1.91c.1,0-1.35-3-1.37-3.26S12.23,83.41,12.23,83.41Z"/><path class="cls-9" d="M26.79,99.66s1.92-1.28,2.32-1.44A4.38,4.38,0,0,0,31,97.14c.41-.57-1.7-2.37-1.94-2.28s.23,2.37-.13,2.53-1.64-2-1.91-1.83.36,1.79.24,2.61A5.68,5.68,0,0,1,26.79,99.66Z"/><path class="cls-10" d="M28.41,97.83c.12-.27.06-.35-.39-1a6.45,6.45,0,0,0-.87-1.1c-.06,0,1,1.79,1,1.93S28.29,98.1,28.41,97.83Z"/><path class="cls-10" d="M30.53,97.39s.14,0,.26-.33,0-.43-.56-1a6.12,6.12,0,0,0-1.14-1c-.07,0,1.32,1.83,1.35,2S30.53,97.39,30.53,97.39Z"/><path class="cls-11" d="M48.69,87.72c-.12-.46-.36-.94-3.68-.73s-9.74,1.43-9.07,4.71,7.39.88,9.65-.56S48.81,88.18,48.69,87.72Z"/><path class="cls-11" d="M59.34,56.89c.3.48-4.12,2.08-6.68,3.63s-3,2.07-6.79,2.9-7.59,2-8.94,3.09S35.16,69.1,33.08,70s-3.77.37-4.09-.89c-.43-1.68,6.5-5.39,14.78-8.1S59,56.41,59.34,56.89Z"/><path class="cls-4" d="M76,74.12a.9.9,0,0,0-.82.1,2.11,2.11,0,0,0-.4,2.19c.39.76,1.12,1.76,1.54,1.67s.88-1.31.48-2.55S76,74.12,76,74.12Z"/><path class="cls-11" d="M20.86,75.9A.9.9,0,0,0,20,76a2.11,2.11,0,0,0-.4,2.19c.39.76,1.12,1.76,1.54,1.67s.88-1.31.48-2.55S20.86,75.9,20.86,75.9Z"/><path class="cls-11" d="M69.89,56.14s.81-.3.76-.56-1.57-.56-3.3-.3a21.22,21.22,0,0,0-4.62,1c-.32.28,1.25.61,3.85.36A16.64,16.64,0,0,0,69.89,56.14Z"/><path class="cls-4" d="M67.72,76.29c-.3.08-1,.4-.34,1.7s1.5,1.63,1.8,1.38a1.5,1.5,0,0,0,.2-1.88C68.87,76.61,68,76.21,67.72,76.29Z"/><path class="cls-9" d="M17.69,80.58a15.46,15.46,0,0,0,3.23,1.49c.15-.11-1.6-1.76-1.8-2.85-.11-.61-.18-1.17-.22-1.56a2.7,2.7,0,0,0-.81.77,3.29,3.29,0,0,1-2.33,1.76A3.21,3.21,0,0,1,17.69,80.58Z"/><path class="cls-10" d="M19.1,80.51s-1.78-.61-1.54-.92.71-1,.79-.78,0,.57.19,1A3.19,3.19,0,0,0,19.1,80.51Z"/><path class="cls-11" d="M69.48,93.65s-1.38.52-1.2,1.69,2.14,3.58,2.85,3.67,1.89-.7,1.24-2.49A6.24,6.24,0,0,0,69.48,93.65Z"/><path class="cls-12" d="M112.19,34.73l.15.1a.74.74,0,0,1,.24.92l-2.49,5.14s-.21,1.2-2,0-.79-1.9-.79-1.9l3.94-4.12A.74.74,0,0,1,112.19,34.73Z"/><path class="cls-13" d="M121.43,21.95l-13,18.71-.31-.22,13-18.71s.95-1.35,1.1-1.25S121.43,21.95,121.43,21.95Z"/><path class="cls-14" d="M88.3,61.66l7,4.88,14-20.12a1.48,1.48,0,0,0,.18-1.35L109,43.79a2,2,0,0,1,.2-1.91l.25-.35-2.59-1.8-.25.35a2,2,0,0,1-1.72.85l-1.38,0a1.48,1.48,0,0,0-1.2.64Z"/><path class="cls-14" d="M105.45,44.47a9.62,9.62,0,0,0,4,1.68,1.47,1.47,0,0,0,0-1.08L109,43.79a2,2,0,0,1,.2-1.91l.25-.35-2.59-1.8-.25.35a2,2,0,0,1-1.72.85l-1.38,0a1.47,1.47,0,0,0-1,.41A9.62,9.62,0,0,0,105.45,44.47Z"/><path class="cls-15" d="M88.74,62l6.15,4.27L108.7,46.36a1.54,1.54,0,0,0,.24-1.3s-.85-2.24-.45-2.82l.57-.94L107.18,40l-.68.86c-.4.58-2.81.56-2.81.56a1.54,1.54,0,0,0-1.13.67Z"/><path class="cls-16" d="M108.69,38.19c.15.15.31.29.49.42l-1.28,1.84.59.41L109.76,39c.19.11.38.22.57.31l1-2-.41-.25,1.52-2.19-.07-.07-.15-.1-.09,0-1.52,2.19c-.13-.1-.26-.2-.38-.3Z"/><path class="cls-17" d="M121.05,21.85c-.12.25-.17.43-.12.47s.21-.07.4-.27l.17-.24s.84-1.23.71-1.32-1,1.12-1,1.12Z"/><path class="cls-18" d="M66.9,91.44c.82-1.18,3.31-.88,5.56.69s3.41,3.79,2.59,5a2.9,2.9,0,0,1-.51.56c-1.06.71-3.08.12-5.05-1.25s-3.23-3.06-2.93-4.3A2.9,2.9,0,0,1,66.9,91.44Z"/><ellipse class="cls-19" cx="71.13" cy="94.05" rx="2.34" ry="4.96" transform="translate(-46.69 98.8) rotate(-55.21)"/><polygon class="cls-20" points="87.53 65.62 91.88 68.65 73.33 95.51 68.98 92.49 87.53 65.62"/><polygon class="cls-21" points="93.39 60.58 94.57 61.39 71.26 95.12 70.08 94.3 93.39 60.58"/><ellipse class="cls-22" cx="105.86" cy="43.87" rx="0.85" ry="3.65" transform="translate(9.43 105.78) rotate(-55.21)"/><path class="cls-23" d="M83.89,60.86c.81-1.17,4.54,0,8.33,2.66s6.21,5.71,5.4,6.88a1.77,1.77,0,0,1-.56.51c-1.31.52-4.45-.86-7.77-3.17S83.58,63,83.6,61.56A1.77,1.77,0,0,1,83.89,60.86Z"/><ellipse class="cls-14" cx="90.91" cy="65.41" rx="2.3" ry="8.36" transform="translate(-14.68 102.75) rotate(-55.21)"/><path class="cls-24" d="M90,62.1l-1-.52L88,63.1l.9.62Z"/><path class="cls-24" d="M95.15,65.85q-.39-.36-.83-.73L93.2,66.75l.9.62Z"/><path class="cls-20" d="M88,63.1c-.39.55.68,2,2.38,3.14s3.39,1.69,3.77,1.13c.19-.28,0-.77-.41-1.33l2.79-4-4.35-3-2.79,4C88.66,62.81,88.14,62.82,88,63.1Z"/><path class="cls-25" d="M93.91,61.08c1.73,1.2,3.51,1.64,4,1l2.3-3.3-6.27-4.35-2.3,3.3C91.16,58.36,92.18,59.87,93.91,61.08Z"/><path class="cls-26" d="M93.91,54.39,92.38,56.6c-.46.67.57,2.18,2.3,3.38s3.51,1.64,4,1l1.54-2.21Z"/><path class="cls-27" d="M93.91,54.39l-.76,1.09c-.46.67.57,2.18,2.3,3.38s3.51,1.64,4,1l.76-1.09Z"/><ellipse class="cls-28" cx="97.05" cy="56.57" rx="1.47" ry="3.81" transform="matrix(0.57, -0.82, 0.82, 0.57, -4.78, 103.99)"/><path class="cls-29" d="M93.34,67.58l15.6-22.46s0,0,0-.05a10.75,10.75,0,0,1-.53-2l-16.54,24A4.74,4.74,0,0,0,93.34,67.58Z"/><path class="cls-30" d="M89.14,65.28l16.72-24.09a9.58,9.58,0,0,1-2.07.22L88.06,64A5.36,5.36,0,0,0,89.14,65.28Z"/><path class="cls-31" d="M108.09,40.85a2.48,2.48,0,0,0,1.35.56c.94-1.68,2.59-5.1,3.15-6.26a.72.72,0,0,0-.24-.31l0,0L108,40.76Z"/><path class="cls-32" d="M107.35,40.2l0,0,4.51-5.61a.73.73,0,0,0-.66.21l-3.94,4.12S106.64,39.38,107.35,40.2Z"/><path class="cls-16" d="M108,41c.94.65,1.91.88,2.17.51a.6.6,0,0,0,0-.6c-.29.33-1.09.19-1.85-.33s-1.16-1.23-1-1.61a.6.6,0,0,0-.57.17C106.46,39.5,107,40.33,108,41Z"/><path class="cls-33" d="M104.74,45.2A9.77,9.77,0,0,0,108,46.89"/><path class="cls-33" d="M103.78,48.87a8.92,8.92,0,0,0,2.24.91"/><path class="cls-33" d="M99.73,54.7a9.28,9.28,0,0,0,2.32.8"/><path class="cls-33" d="M100.65,51.08a10,10,0,0,0,3.4,1.53"/><path class="cls-33" d="M96.57,57a10.38,10.38,0,0,0,3.52,1.36"/><path class="cls-33" d="M106.1,47a8.07,8.07,0,0,0,1.47.55"/><path class="cls-33" d="M105.7,47.58a8.1,8.1,0,0,0,1.47.54"/><path class="cls-33" d="M105.3,48.16a8.14,8.14,0,0,0,1.48.54"/><path class="cls-33" d="M104.9,48.74a8.17,8.17,0,0,0,1.48.53"/><path class="cls-33" d="M104.09,49.89a8.24,8.24,0,0,0,1.49.52"/><path class="cls-33" d="M103.69,50.47a8.28,8.28,0,0,0,1.5.51"/><path class="cls-33" d="M103.29,51.05a8.31,8.31,0,0,0,1.5.5"/><path class="cls-33" d="M102.89,51.63a8.35,8.35,0,0,0,1.51.49"/><path class="cls-33" d="M102.08,52.79a8.43,8.43,0,0,0,1.52.48"/><path class="cls-33" d="M101.68,53.36a8.47,8.47,0,0,0,1.52.47"/><path class="cls-33" d="M101.28,53.94a8.51,8.51,0,0,0,1.52.47"/><path class="cls-33" d="M100.88,54.52a8.55,8.55,0,0,0,1.53.46"/><path class="cls-33" d="M100.07,55.68a8.63,8.63,0,0,0,1.54.45"/><path class="cls-33" d="M99.67,56.26a8.68,8.68,0,0,0,1.54.44"/><path class="cls-33" d="M99.27,56.84a8.72,8.72,0,0,0,1.55.43"/><path class="cls-33" d="M98.87,57.41a8.77,8.77,0,0,0,1.55.43"/><g class="cls-34"><path class="cls-5" d="M24.26,100.83c1.62,1.1,3,1,4.22-.49,2.1-2.68,4.16-4.68,9-5.3,13.45-1.74,22.52-1.34,30,4.14,3,2.23,6.08,6.51,6.57.24s-7.37-9.68-12.11-11c-4.55-1.28-5.84-4.1-5.17-7.25s3.44-13.57,9.33-16,10.86-3.12,12.92-2.5,7,1.62,8.39,1.93,5.42,4.69,8.89,4.22,3.78-2.13,2.11-3.56-6.75-6.57-9.67-7.47-9.9-4.45-14-4-12.74-.16-20.81,2.85S31.74,61.88,26.31,69.25A69.76,69.76,0,0,1,10.39,84.54s1,7.06,7,9.79C22.75,96.77,22.76,99.81,24.26,100.83Z"/></g><path class="cls-11" d="M92.55,65.54s-.57.27-.57.77a2.6,2.6,0,0,0,2.12,1.76c1.17.15,2.9.15,3.15-.27s-.74-1.61-2.48-2.05S92.55,65.54,92.55,65.54Z"/></g></g></svg>