<svg xmlns="http://www.w3.org/2000/svg" xmlns:xlink="http://www.w3.org/1999/xlink" viewbox="0 0 128 128" width="128" height="128"><defs><style>.cls-1{isolation:isolate;stroke:none;}.cls-2{fill:url(#未命名的渐变_101);stroke:none;}.cls-12,.cls-14,.cls-3{fill:#fff;stroke:none;}.cls-4{fill:url(#未命名的渐变_822);stroke:none;}.cls-5{opacity:0.56;fill:url(#未命名的渐变_822-2);stroke:none;}.cls-13,.cls-5,.cls-9{mix-blend-mode:multiply;stroke:none;}.cls-6{fill:url(#未命名的渐变_101-2);stroke:none;}.cls-7{fill:url(#未命名的渐变_788);stroke:none;}.cls-8{fill:#4a8cca;opacity:0.25;stroke:none;}.cls-9{opacity:0.22;fill:url(#未命名的渐变_823);stroke:none;}.cls-10{fill:url(#未命名的渐变_867);stroke:none;}.cls-11{fill:url(#未命名的渐变_851);stroke:none;}.cls-12,.cls-13{opacity:0.38;stroke:none;}.cls-13{fill:#a2def9;stroke:none;}.cls-14{opacity:0.27;stroke:none;}.cls-15{fill:url(#未命名的渐变_818);stroke:none;}.cls-16{fill:url(#未命名的渐变_809);stroke:none;}</style><linearGradient id="&#x672A;&#x547D;&#x540D;&#x7684;&#x6E10;&#x53D8;_101" x1="38.23" y1="115.23" x2="94.75" y2="85.18" gradientunits="userSpaceOnUse"><stop offset="0" stop-color="#8dd7f2"/><stop offset="0.09" stop-color="#cfecf8"/><stop offset="0.38" stop-color="#cdecf8"/><stop offset="0.49" stop-color="#c6eaf8"/><stop offset="0.57" stop-color="#bae8f7"/><stop offset="0.63" stop-color="#a9e4f6"/><stop offset="0.69" stop-color="#93e0f5"/><stop offset="0.74" stop-color="#77daf4"/><stop offset="0.78" stop-color="#57d3f3"/><stop offset="0.82" stop-color="#32cbf1"/><stop offset="0.86" stop-color="#09c3ef"/><stop offset="0.86" stop-color="#05c2ef"/><stop offset="0.87" stop-color="#24c9f1"/><stop offset="0.88" stop-color="#65daf5"/><stop offset="0.89" stop-color="#9ce7f9"/><stop offset="0.9" stop-color="#c7f1fb"/><stop offset="0.91" stop-color="#e6f9fd"/><stop offset="0.92" stop-color="#f8fdff"/><stop offset="0.92" stop-color="#fff"/><stop offset="1" stop-color="#87d5f7"/></linearGradient><linearGradient id="&#x672A;&#x547D;&#x540D;&#x7684;&#x6E10;&#x53D8;_822" x1="65.89" y1="115.88" x2="65.89" y2="90.39" gradientunits="userSpaceOnUse"><stop offset="0" stop-color="#edf8fa"/><stop offset="0.32" stop-color="#ebf8fa"/><stop offset="0.44" stop-color="#e4f6fa"/><stop offset="0.52" stop-color="#d8f3f9"/><stop offset="0.59" stop-color="#c7eff8"/><stop offset="0.65" stop-color="#b1eaf7"/><stop offset="0.7" stop-color="#95e4f6"/><stop offset="0.75" stop-color="#75dcf4"/><stop offset="0.79" stop-color="#4fd3f2"/><stop offset="0.83" stop-color="#25c9f1"/><stop offset="0.86" stop-color="#05c2ef"/><stop offset="0.87" stop-color="#24c9f1"/><stop offset="0.88" stop-color="#65daf5"/><stop offset="0.89" stop-color="#9ce7f9"/><stop offset="0.9" stop-color="#c7f1fb"/><stop offset="0.91" stop-color="#e6f9fd"/><stop offset="0.92" stop-color="#f8fdff"/><stop offset="0.92" stop-color="#fff"/><stop offset="1" stop-color="#87d5f7"/></linearGradient><linearGradient id="&#x672A;&#x547D;&#x540D;&#x7684;&#x6E10;&#x53D8;_822-2" x1="65.85" y1="114.7" x2="65.85" y2="90.5" xlink:href="#&#x672A;&#x547D;&#x540D;&#x7684;&#x6E10;&#x53D8;_822"><linearGradient id="&#x672A;&#x547D;&#x540D;&#x7684;&#x6E10;&#x53D8;_101-2" x1="30.76" y1="58.23" x2="101.02" y2="58.23" xlink:href="#&#x672A;&#x547D;&#x540D;&#x7684;&#x6E10;&#x53D8;_101"><linearGradient id="&#x672A;&#x547D;&#x540D;&#x7684;&#x6E10;&#x53D8;_788" x1="65.89" y1="88.66" x2="65.89" y2="14.02" gradientunits="userSpaceOnUse"><stop offset="0.01" stop-color="#fff"/><stop offset="0.82" stop-color="#cfedfc"/></linearGradient><linearGradient id="&#x672A;&#x547D;&#x540D;&#x7684;&#x6E10;&#x53D8;_823" x1="37.55" y1="103.05" x2="94.29" y2="103.05" gradientunits="userSpaceOnUse"><stop offset="0" stop-color="#87d5f7"/><stop offset="0.08" stop-color="#fff"/><stop offset="0.08" stop-color="#f8fdff"/><stop offset="0.09" stop-color="#e6f9fd"/><stop offset="0.1" stop-color="#c7f1fb"/><stop offset="0.11" stop-color="#9ce7f9"/><stop offset="0.12" stop-color="#65daf5"/><stop offset="0.13" stop-color="#24c9f1"/><stop offset="0.14" stop-color="#05c2ef"/><stop offset="0.17" stop-color="#25c9f1"/><stop offset="0.21" stop-color="#4fd3f2"/><stop offset="0.25" stop-color="#75dcf4"/><stop offset="0.3" stop-color="#95e4f6"/><stop offset="0.35" stop-color="#b1eaf7"/><stop offset="0.41" stop-color="#c7eff8"/><stop offset="0.48" stop-color="#d8f3f9"/><stop offset="0.56" stop-color="#e4f6fa"/><stop offset="0.68" stop-color="#ebf8fa"/><stop offset="1" stop-color="#edf8fa"/></linearGradient><linearGradient id="&#x672A;&#x547D;&#x540D;&#x7684;&#x6E10;&#x53D8;_867" x1="7.19" y1="85.37" x2="134.41" y2="85.37" gradientunits="userSpaceOnUse"><stop offset="0.01" stop-color="#412312"/><stop offset="0.29" stop-color="#754d25"/><stop offset="0.57" stop-color="#412312"/><stop offset="0.61" stop-color="#452615"/><stop offset="0.65" stop-color="#522e1c"/><stop offset="0.69" stop-color="#663d29"/><stop offset="0.73" stop-color="#83513b"/><stop offset="0.74" stop-color="#8c5741"/></linearGradient><linearGradient id="&#x672A;&#x547D;&#x540D;&#x7684;&#x6E10;&#x53D8;_851" x1="40.71" y1="96.34" x2="105.82" y2="48.99" gradientunits="userSpaceOnUse"><stop offset="0" stop-color="#9c8060"/><stop offset="1" stop-color="#815d4c"/></linearGradient><linearGradient id="&#x672A;&#x547D;&#x540D;&#x7684;&#x6E10;&#x53D8;_818" x1="30.76" y1="20.17" x2="101.02" y2="20.17" gradientunits="userSpaceOnUse"><stop offset="0" stop-color="#8dd7f2"/><stop offset="0.09" stop-color="#b3e3f5"/><stop offset="0.48" stop-color="#b5e4f5"/><stop offset="0.62" stop-color="#bce6f5"/><stop offset="0.72" stop-color="#c8eaf6"/><stop offset="0.81" stop-color="#d9f0f7"/><stop offset="0.86" stop-color="#e8f6f8"/><stop offset="0.9" stop-color="#f8fcfd"/><stop offset="0.92" stop-color="#fff"/><stop offset="1" stop-color="#87d5f7"/></linearGradient><linearGradient id="&#x672A;&#x547D;&#x540D;&#x7684;&#x6E10;&#x53D8;_809" x1="51.1" y1="3.16" x2="80.68" y2="37.18" gradientunits="userSpaceOnUse"><stop offset="0" stop-color="#f2fafe"/><stop offset="0.74" stop-color="#c7eafb"/><stop offset="1" stop-color="#53c9f4"/></linearGradient></linearGradient></linearGradient></defs><title>&#x751F;&#x7269;&#x4EEA;&#x5668;</title><g class="cls-1"><g id="Bio_instruments&#x751F;&#x7269;&#x4EEA;&#x5668;" data-name="Bio instruments&#x751F;&#x7269;&#x4EEA;&#x5668;"><path class="cls-2" d="M90.78,96.87c0-4.85,5.95-8,5.95-8l-22.6,2.63s-3.58,1.65-8.24,4.14c-4.67-2.49-8.24-4.14-8.24-4.14L35,88.89S41,92,41,96.87c0,2.05-4.21,4.73-5.42,9-1.32,4.65,1,10.29,16.75,12.39a73.43,73.43,0,0,0,12.37.84h2.39a73.43,73.43,0,0,0,12.37-.84c15.74-2.1,18.07-7.74,16.75-12.39C95,101.61,90.78,98.92,90.78,96.87Z"/><path class="cls-3" d="M89.18,97.54c0-4.47,5.57-7.36,5.57-7.36L73.6,92.6s-3.35,1.52-7.71,3.81c-4.37-2.29-7.71-3.81-7.71-3.81L37,90.17s5.57,2.89,5.57,7.36c0,1.89-3.94,4.36-5.08,8.3-1.24,4.29.94,9.49,15.67,11.43a69.71,69.71,0,0,0,11.58.78H67a69.71,69.71,0,0,0,11.58-.78c14.73-1.94,16.91-7.14,15.67-11.43C93.12,101.9,89.18,99.43,89.18,97.54Z"/><path class="cls-4" d="M87.38,97.12c0-4.09,5.14-6.73,5.14-6.73L73,92.61S69.92,94,65.89,96.1c-4-2.1-7.12-3.49-7.12-3.49L39.25,90.39s5.14,2.64,5.14,6.73c0,1.73-3.64,4-4.68,7.6-1.14,3.92.87,8.68,14.46,10.45a64.9,64.9,0,0,0,10.68.71h2.07a64.9,64.9,0,0,0,10.68-.71c13.6-1.77,15.6-6.53,14.46-10.45C91,101.11,87.38,98.85,87.38,97.12Z"/><path class="cls-5" d="M85.39,97.68c0-3.71,4.49-7.17,4.49-7.17L72.35,93.58a21.37,21.37,0,0,0-6.46,2.26,21.37,21.37,0,0,0-6.46-2.26l-17.62-3s4.57,3.38,4.57,7.09c0,1.57-3.3,3.62-4.25,6.89-1,3.56.79,7.88,13.12,9.49a58.9,58.9,0,0,0,9.7.64h1.88a58.9,58.9,0,0,0,9.7-.64c12.34-1.61,14.16-5.93,13.12-9.49C88.69,101.3,85.39,99.25,85.39,97.68Z"/><path class="cls-6" d="M30.76,20.36V84.94c0,6.16,15.73,11.16,35.13,11.16S101,91.1,101,84.94V20.36Z"/><path class="cls-3" d="M31.49,17.62V83.31c0,6.21,15.4,11.25,34.4,11.25s34.4-5,34.4-11.25V17.62Z"/><path class="cls-7" d="M32.54,21.53V82.87c0,5.78,14.93,10.46,33.35,10.46s33.35-4.68,33.35-10.46V21.53Z"/><path class="cls-8" d="M65.89,74.71c-17,0-30.78,3.67-30.78,8.2a2.36,2.36,0,0,0,.05.48c.93-4.18,14.33-7.5,30.73-7.5s29.8,3.32,30.73,7.5a2.36,2.36,0,0,0,.06-.48C96.68,78.38,82.89,74.71,65.89,74.71Z"/><path class="cls-9" d="M65.92,98.32c-15.67,0-28.37,4-28.37,8.94a3,3,0,0,0,0,.52c.86-4.56,13.21-8.17,28.32-8.17s27.47,3.61,28.32,8.17a3,3,0,0,0,.05-.52C94.29,102.32,81.59,98.32,65.92,98.32Z"/><path class="cls-10" d="M32.54,78.07v5.46c0,5,14.94,9.14,33.36,9.14s33.38-4.09,33.38-9.14V78.07Z"/><path class="cls-11" d="M99.2,78.1c0,3.25-15,5.89-33.41,5.89s-33.4-2.64-33.4-5.89,15-5.89,33.4-5.89S99.2,74.84,99.2,78.1Z"/><path class="cls-12" d="M46.86,81.52V25.73a52.93,52.93,0,0,1-10.58-2.92v58a6.51,6.51,0,0,0,2.81,5.42c2.17,1.46,5.87,3.1,12,3.83A9.29,9.29,0,0,1,46.86,81.52Z"/><path class="cls-13" d="M86,81.52V24.76a52.93,52.93,0,0,0,10.58-2.92V80.77a6.51,6.51,0,0,1-2.81,5.42c-2.17,1.46-5.87,3.1-12,3.83A9.29,9.29,0,0,0,86,81.52Z"/><path class="cls-14" d="M65.89,105.58c-11.22,0-20.31,2.83-20.31,6.33a2.59,2.59,0,0,0,.77,1.71A78.82,78.82,0,0,0,65.89,116a78.82,78.82,0,0,0,19.54-2.36,2.59,2.59,0,0,0,.77-1.71C86.2,108.42,77.11,105.58,65.89,105.58Z"/><ellipse class="cls-15" cx="65.89" cy="20.17" rx="35.13" ry="9.11"/><ellipse class="cls-16" cx="65.89" cy="20.17" rx="33.09" ry="8"/></g></g></svg>