<svg id="Bio_instruments&#x751F;&#x7269;&#x4EEA;&#x5668;" data-name="Bio instruments&#x751F;&#x7269;&#x4EEA;&#x5668;" xmlns="http://www.w3.org/2000/svg" xmlns:xlink="http://www.w3.org/1999/xlink" viewbox="0 0 128 128" width="128" height="128"><defs><style>.cls-1,.cls-10,.cls-11,.cls-12,.cls-9{fill:none;stroke:none;}.cls-2{fill:#d6e0e4;stroke:none;}.cls-3{fill:#808181;stroke:none;}.cls-4{fill:#c7c8c9;stroke:none;}.cls-5{fill:#a2a2a1;stroke:none;}.cls-6{fill:#aab2b5;stroke:none;}.cls-7{fill:#c8ced0;stroke:none;}.cls-8{clip-path:url(#clip-path);stroke:none;}.cls-10,.cls-9{stroke:#ebebec;}.cls-10,.cls-11,.cls-12,.cls-9{stroke-miterlimit:10;}.cls-9{stroke-width:0.36px;}.cls-10{stroke-width:0.37px;}.cls-11,.cls-12{stroke:#231f20;}.cls-11{stroke-width:0.35px;}.cls-12{stroke-width:0.36px;}.cls-13{fill:#898e8e;stroke:none;}.cls-14{fill:#b6bbbb;stroke:none;}</style><clippath id="clip-path"><path class="cls-1" d="M42.44,84.9A2.24,2.24,0,0,1,43,83.56c3-3.68,18.68-22.9,21-25.88,2.58-3.29,25.15-32.1,27.63-35.38s5.61-7.54,6.82-8.23,4.9-2.33,7.1-.57,3.49,5.43.24,9.41S53.64,84.16,52.3,85s-7,4.16-7.51,4.79-11.7,13.29-12.74,13.27a1.15,1.15,0,0,1-.65-1.89c.78-1,10.13-10.37,10.61-12.65A22,22,0,0,0,42.44,84.9Z"/></clippath></defs><title>&#x751F;&#x7269;&#x4EEA;&#x5668;</title><path class="cls-2" d="M43.25,86.53S30.41,99.27,25,105.87s-5.43,7.43-5.43,7.43a12.07,12.07,0,0,0,7.82-1.22c3.75-2.13,11-11.22,11.12-11.86a1.81,1.81,0,0,0-.4-1.23s3.72-4.12,5.31-5.47,5.1-3.41,5-4.09-.34-2.26-.34-2.26Z"/><path class="cls-3" d="M42.44,84.9A2.24,2.24,0,0,1,43,83.56c3-3.68,18.68-22.9,21-25.88,2.58-3.29,25.15-32.1,27.63-35.38s5.61-7.54,6.82-8.23,4.9-2.33,7.1-.57,3.49,5.43.24,9.41S53.64,84.16,52.3,85s-7,4.16-7.51,4.79-11.7,13.29-12.74,13.27a1.15,1.15,0,0,1-.65-1.89c.78-1,10.13-10.37,10.61-12.65A22,22,0,0,0,42.44,84.9Z"/><path class="cls-4" d="M105.71,13.67l-.2-.18c-2.2-1.75-5.89-.12-7.1.57S94.08,19,91.6,22.3,66.54,54.39,64,57.68c-2.33,3-18,22.2-21,25.88a2.24,2.24,0,0,0-.51,1.34A22,22,0,0,1,42,88.53c-.48,2.28-9.83,11.6-10.61,12.65a1.12,1.12,0,0,0,.14,1.64c1.61-.73,12.13-12.66,12.65-13.27s6.18-4,7.52-4.81S102,26.47,105.29,22.48C108.2,18.91,107.47,15.59,105.71,13.67Z"/><path class="cls-5" d="M105.71,13.67l-.2-.18a3.66,3.66,0,0,0-1.91-.75,11,11,0,0,0-4.13,1.34c-1.22.7-4.39,5-6.91,8.31s-25.39,32.42-28,35.74c-2.36,3-18.26,22.43-21.3,26.14a2.25,2.25,0,0,0-.51,1.36,19.92,19.92,0,0,1-.52,3.2c-.49,2.3-10.09,11.94-10.88,13a.75.75,0,0,0,0,.7,1.34,1.34,0,0,0,.24.27c1.16.68,12.3-12.54,12.82-13.15s6-4.08,7.35-4.93S102,26.47,105.29,22.48C108.2,18.91,107.47,15.59,105.71,13.67Z"/><path class="cls-6" d="M27.35,112.08c3.75-2.13,11-11.22,11.12-11.86a1.51,1.51,0,0,0-.17-.86,78.41,78.41,0,0,1-8.7,8.85c-4,3.41-7.28,3.15-8.67,2.8-1.4,2-1.4,2.29-1.4,2.29A12.07,12.07,0,0,0,27.35,112.08Z"/><path class="cls-7" d="M27.35,112.08c3.75-2.13,11-11.22,11.12-11.86a1.29,1.29,0,0,0-.06-.56c-1.9,2.34-7.76,9.43-10.54,11.44-2.62,1.9-6.52,1.79-8.09,1.65a1.68,1.68,0,0,0-.25.55A12.07,12.07,0,0,0,27.35,112.08Z"/><g class="cls-8"><line class="cls-9" x1="47.05" y1="78.06" x2="53.84" y2="83.75"/><line class="cls-9" x1="48.14" y1="76.76" x2="54.97" y2="82.51"/><line class="cls-9" x1="49.18" y1="75.42" x2="56.08" y2="81.23"/><line class="cls-9" x1="50.27" y1="74.12" x2="57.26" y2="80.01"/><line class="cls-9" x1="51.32" y1="72.79" x2="58.39" y2="78.75"/><line class="cls-9" x1="52.32" y1="71.42" x2="59.53" y2="77.49"/><line class="cls-9" x1="53.37" y1="70.06" x2="60.59" y2="76.16"/><line class="cls-10" x1="54.55" y1="68.87" x2="61.7" y2="74.87"/><line class="cls-10" x1="55.54" y1="67.49" x2="62.82" y2="73.61"/><line class="cls-10" x1="56.65" y1="66.21" x2="63.94" y2="72.33"/><line class="cls-10" x1="57.7" y1="64.89" x2="65.02" y2="71.03"/><line class="cls-10" x1="58.75" y1="63.53" x2="66.2" y2="69.82"/><line class="cls-10" x1="59.79" y1="62.22" x2="67.26" y2="68.49"/><line class="cls-10" x1="60.91" y1="60.95" x2="68.41" y2="67.24"/><line class="cls-11" x1="47.36" y1="78.06" x2="53.82" y2="83.48"/><line class="cls-11" x1="48.45" y1="76.77" x2="54.96" y2="82.24"/><line class="cls-11" x1="49.5" y1="75.42" x2="56.07" y2="80.95"/><line class="cls-11" x1="50.58" y1="74.13" x2="57.24" y2="79.73"/><line class="cls-11" x1="51.64" y1="72.8" x2="58.36" y2="78.47"/><line class="cls-11" x1="52.64" y1="71.43" x2="59.5" y2="77.21"/><line class="cls-11" x1="53.69" y1="70.07" x2="60.57" y2="75.88"/><line class="cls-12" x1="54.87" y1="68.88" x2="61.67" y2="74.59"/><line class="cls-12" x1="55.86" y1="67.51" x2="62.79" y2="73.33"/><line class="cls-12" x1="56.97" y1="66.22" x2="63.91" y2="72.05"/><line class="cls-12" x1="58.03" y1="64.9" x2="65" y2="70.75"/><line class="cls-12" x1="59.08" y1="63.55" x2="66.17" y2="69.53"/><line class="cls-12" x1="60.12" y1="62.24" x2="67.23" y2="68.2"/><line class="cls-12" x1="61.24" y1="60.96" x2="68.38" y2="66.96"/></g><path class="cls-13" d="M71.88,59.82c10.55-12.08,29.44-34.64,30.8-36.31,2.13-2.61,1.6-5,.31-6.43l-.15-.13a2.39,2.39,0,0,0-.32-.22,2.73,2.73,0,0,0-2-.18,8.62,8.62,0,0,0-2.12.83c-.89.51-3.2,3.65-5,6.07C91.74,25.62,71,51.72,67.6,56.1,65.75,58.51,70,62,71.88,59.82Z"/><path class="cls-14" d="M103,17.08l-.15-.13a2.39,2.39,0,0,0-.32-.22,2.07,2.07,0,0,0-.37-.15,3.48,3.48,0,0,0-1,.09,8.87,8.87,0,0,0-2.17.85c-.91.52-3.29,3.73-5.18,6.2-1.69,2.21-23,28.89-26.47,33.36a2.29,2.29,0,0,0-.19.32c0,2.13,3.16,4.19,4.73,2.4,10.55-12.08,29.44-34.64,30.8-36.31C104.81,20.9,104.27,18.48,103,17.08Z"/></svg>