<svg xmlns="http://www.w3.org/2000/svg" xmlns:xlink="http://www.w3.org/1999/xlink" viewbox="0 0 128 128" width="128" height="128"><defs><style>.cls-1,.cls-60{fill:none;stroke:none;}.cls-2{isolation:isolate;stroke:none;}.cls-3{fill:#c7c6c5;stroke:none;}.cls-4{fill:#ededed;stroke:none;}.cls-5{fill:#d9d9d9;stroke:none;}.cls-6{fill:#c6c7c6;stroke:none;}.cls-7{fill:url(#linear-gradient);stroke:none;}.cls-8{fill:url(#未命名的渐变_154);stroke:none;}.cls-9{fill:url(#未命名的渐变_149);stroke:none;}.cls-10{fill:url(#linear-gradient-2);stroke:none;}.cls-11{fill:url(#未命名的渐变_214);stroke:none;}.cls-12{fill:#cccdcd;stroke:none;}.cls-13{fill:url(#未命名的渐变_201);stroke:none;}.cls-14{fill:#2a2a29;stroke:none;}.cls-15{fill:url(#未命名的渐变_244);stroke:none;}.cls-16{fill:url(#未命名的渐变_172);stroke:none;}.cls-17{fill:#a5a4a4;stroke:none;}.cls-18{fill:#dbdad9;stroke:none;}.cls-19{fill:#272726;stroke:none;}.cls-20{fill:#ebebeb;stroke:none;}.cls-21{fill:#cfcfcf;stroke:none;}.cls-22,.cls-35{fill:#fff;stroke:none;}.cls-22{opacity:0.32;stroke:none;}.cls-23{fill:#1b1c1c;stroke:none;}.cls-24{fill:#2e2e2e;stroke:none;}.cls-25{fill:#59858f;stroke:none;}.cls-26{fill:#b2dde6;stroke:none;}.cls-27{fill:url(#未命名的渐变_241);stroke:none;}.cls-28{fill:url(#未命名的渐变_149-2);stroke:none;}.cls-29{fill:#ddd;stroke:none;}.cls-30{fill:url(#未命名的渐变_241-2);stroke:none;}.cls-31{fill:url(#未命名的渐变_149-3);stroke:none;}.cls-32{fill:url(#linear-gradient-3);stroke:none;}.cls-33,.cls-39,.cls-46{opacity:0.53;stroke:none;}.cls-33{fill:url(#linear-gradient-4);stroke:none;}.cls-34{fill:url(#未命名的渐变_22);stroke:none;}.cls-36{fill:url(#未命名的渐变_254);stroke:none;}.cls-37{fill:url(#未命名的渐变_8);stroke:none;}.cls-38{clip-path:url(#clip-path);stroke:none;}.cls-39{fill:url(#linear-gradient-5);stroke:none;}.cls-40{fill:url(#未命名的渐变_172-2);stroke:none;}.cls-41{fill:#ebebec;stroke:none;}.cls-42{fill:#434345;stroke:none;}.cls-43{fill:#5c5d60;stroke:none;}.cls-44{fill:#333132;stroke:none;}.cls-45{clip-path:url(#clip-path-2);stroke:none;}.cls-46{fill:url(#linear-gradient-6);stroke:none;}.cls-47{fill:#f3f3f3;stroke:none;}.cls-48{fill:#91b4ba;stroke:none;}.cls-49{fill:#7a9899;stroke:none;}.cls-50{fill:#bec0c2;opacity:0.55;mix-blend-mode:multiply;stroke:none;}.cls-51{fill:url(#未命名的渐变_2);stroke:none;}.cls-52{fill:url(#未命名的渐变_91);stroke:none;}.cls-53{fill:url(#linear-gradient-7);stroke:none;}.cls-54{fill:url(#未命名的渐变_91-2);stroke:none;}.cls-55{fill:#d7f0fc;stroke:none;}.cls-56{fill:#bde7fb;stroke:none;}.cls-57{fill:url(#未命名的渐变_22-2);stroke:none;}.cls-58{fill:url(#未命名的渐变_254-2);stroke:none;}.cls-59{fill:url(#未命名的渐变_8-2);stroke:none;}.cls-60{stroke:#5a5b5d;stroke-width:0.27px;}.cls-61{fill:url(#未命名的渐变_442);stroke:none;}</style><linearGradient id="linear-gradient" x1="50.71" y1="66.49" x2="56.22" y2="66.88" gradienttransform="matrix(1, 0, -0.02, 1, 1.17, 0)" gradientunits="userSpaceOnUse"><stop offset="0" stop-color="#bbb"/><stop offset="0" stop-color="#b1b1b1"/><stop offset="0.01" stop-color="#9b9b9b"/><stop offset="0.01" stop-color="#8b8b8b"/><stop offset="0.02" stop-color="#7f7f7f"/><stop offset="0.03" stop-color="#787878"/><stop offset="0.05" stop-color="#767676"/><stop offset="0.1" stop-color="#b5b6b6"/><stop offset="0.19" stop-color="#fff"/><stop offset="0.31" stop-color="#a3a3a2"/><stop offset="0.37" stop-color="#c2c2c2"/><stop offset="0.41" stop-color="#908f8f"/><stop offset="0.55" stop-color="#aeaeae"/><stop offset="0.6" stop-color="#cfd0d0"/><stop offset="0.77" stop-color="#c8c7c6"/><stop offset="0.87" stop-color="#676767"/><stop offset="0.92" stop-color="#bbb"/><stop offset="0.95" stop-color="#8c8c8c"/><stop offset="1" stop-color="#9e9e9e"/></linearGradient><linearGradient id="&#x672A;&#x547D;&#x540D;&#x7684;&#x6E10;&#x53D8;_154" x1="58.96" y1="61.09" x2="64.64" y2="60.89" gradienttransform="matrix(1, 0, -0.02, 1, 1.17, 0)" gradientunits="userSpaceOnUse"><stop offset="0" stop-color="#bbb"/><stop offset="0" stop-color="#b1b1b1"/><stop offset="0.01" stop-color="#9b9b9b"/><stop offset="0.01" stop-color="#8b8b8b"/><stop offset="0.02" stop-color="#7f7f7f"/><stop offset="0.03" stop-color="#787878"/><stop offset="0.05" stop-color="#767676"/><stop offset="0.1" stop-color="#b5b6b6"/><stop offset="0.19" stop-color="#fff"/><stop offset="0.31" stop-color="#a3a3a2"/><stop offset="0.37" stop-color="#c2c2c2"/><stop offset="0.41" stop-color="#908f8f"/><stop offset="0.55" stop-color="#aeaeae"/><stop offset="0.6" stop-color="#cfd0d0"/><stop offset="0.77" stop-color="#c8c7c6"/><stop offset="0.87" stop-color="#676767"/><stop offset="1" stop-color="#bbb"/></linearGradient><linearGradient id="&#x672A;&#x547D;&#x540D;&#x7684;&#x6E10;&#x53D8;_149" x1="44.4" y1="59.37" x2="49.26" y2="61.95" gradienttransform="matrix(1, 0, -0.02, 1, 1.17, 0)" gradientunits="userSpaceOnUse"><stop offset="0" stop-color="#bbb"/><stop offset="0" stop-color="#b1b1b1"/><stop offset="0.01" stop-color="#9b9b9b"/><stop offset="0.01" stop-color="#8b8b8b"/><stop offset="0.02" stop-color="#7f7f7f"/><stop offset="0.03" stop-color="#787878"/><stop offset="0.05" stop-color="#767676"/><stop offset="0.1" stop-color="#b5b6b6"/><stop offset="0.19" stop-color="#fff"/><stop offset="0.44" stop-color="#c8c7c6"/><stop offset="0.87" stop-color="#676767"/><stop offset="1" stop-color="#bbb"/></linearGradient><linearGradient id="linear-gradient-2" x1="49.49" y1="60.75" x2="58.78" y2="61.4" xlink:href="#linear-gradient"><linearGradient id="&#x672A;&#x547D;&#x540D;&#x7684;&#x6E10;&#x53D8;_214" x1="45.02" y1="51.47" x2="65.83" y2="62.53" gradienttransform="matrix(1, 0, -0.02, 1, 1.17, 0)" gradientunits="userSpaceOnUse"><stop offset="0" stop-color="#151f1e"/><stop offset="0.12" stop-color="#565c5b"/><stop offset="0.16" stop-color="#595f5e"/><stop offset="0.19" stop-color="#636867"/><stop offset="0.22" stop-color="#747877"/><stop offset="0.25" stop-color="#8c8e8d"/><stop offset="0.27" stop-color="#a3a3a2"/><stop offset="0.81" stop-color="#111"/><stop offset="0.96" stop-color="#555454"/></linearGradient><linearGradient id="&#x672A;&#x547D;&#x540D;&#x7684;&#x6E10;&#x53D8;_201" x1="48.12" y1="47.14" x2="67.67" y2="47.14" gradienttransform="matrix(1, 0, -0.02, 1, 1.17, 0)" gradientunits="userSpaceOnUse"><stop offset="0" stop-color="#d3d4d5"/><stop offset="0.24" stop-color="#f4f4f4"/><stop offset="1" stop-color="#b7b8ba"/></linearGradient><linearGradient id="&#x672A;&#x547D;&#x540D;&#x7684;&#x6E10;&#x53D8;_244" x1="69.5" y1="43.73" x2="74.99" y2="33.83" gradienttransform="matrix(1, 0, -0.02, 1, 1.17, 0)" gradientunits="userSpaceOnUse"><stop offset="0" stop-color="#616264"/><stop offset="0.24" stop-color="#f4f4f4"/><stop offset="1" stop-color="#808184"/></linearGradient><linearGradient id="&#x672A;&#x547D;&#x540D;&#x7684;&#x6E10;&#x53D8;_172" x1="74.27" y1="49.43" x2="75.56" y2="47.01" gradienttransform="matrix(1, 0, -0.02, 1, 1.17, 0)" gradientunits="userSpaceOnUse"><stop offset="0" stop-color="#676767"/><stop offset="0.56" stop-color="#c8c7c6"/><stop offset="0.79" stop-color="#fff"/><stop offset="1" stop-color="#b5b6b6"/></linearGradient><linearGradient id="&#x672A;&#x547D;&#x540D;&#x7684;&#x6E10;&#x53D8;_241" x1="63.91" y1="84.21" x2="79.75" y2="84.21" gradienttransform="matrix(1, 0, -0.02, 1, 1.17, 0)" gradientunits="userSpaceOnUse"><stop offset="0" stop-color="#c0c2c4"/><stop offset="0.12" stop-color="#c4c6c8"/><stop offset="0.17" stop-color="#c1c3c5"/><stop offset="0.22" stop-color="#b8babb"/><stop offset="0.26" stop-color="#aaa"/><stop offset="0.27" stop-color="#a3a3a2"/><stop offset="0.56" stop-color="#d3d5d6"/></linearGradient><linearGradient id="&#x672A;&#x547D;&#x540D;&#x7684;&#x6E10;&#x53D8;_149-2" x1="77.84" y1="79.24" x2="80.17" y2="79.24" xlink:href="#&#x672A;&#x547D;&#x540D;&#x7684;&#x6E10;&#x53D8;_149"><linearGradient id="&#x672A;&#x547D;&#x540D;&#x7684;&#x6E10;&#x53D8;_241-2" x1="48.15" y1="73.5" x2="64.02" y2="73.5" gradienttransform="matrix(0.99, 0.12, -0.14, 0.99, 10.77, -5.95)" xlink:href="#&#x672A;&#x547D;&#x540D;&#x7684;&#x6E10;&#x53D8;_241"><linearGradient id="&#x672A;&#x547D;&#x540D;&#x7684;&#x6E10;&#x53D8;_149-3" x1="62.08" y1="68.69" x2="64.42" y2="68.69" gradienttransform="matrix(1, 0.08, -0.1, 1, 7.55, -3.75)" xlink:href="#&#x672A;&#x547D;&#x540D;&#x7684;&#x6E10;&#x53D8;_149"><linearGradient id="linear-gradient-3" x1="137.04" y1="1.99" x2="147.74" y2="1.99" gradienttransform="matrix(-0.19, 0.33, -1.03, -0.59, 109.63, 44.7)" gradientunits="userSpaceOnUse"><stop offset="0" stop-color="#969696"/><stop offset="0.09" stop-color="#9a9a9a"/><stop offset="0.18" stop-color="#a6a6a6"/><stop offset="0.28" stop-color="#bbb"/><stop offset="0.29" stop-color="#bdbdbd"/><stop offset="0.46" stop-color="#a1a1a1"/><stop offset="0.82" stop-color="#696969"/><stop offset="1" stop-color="#535353"/></linearGradient><linearGradient id="linear-gradient-4" x1="137.04" y1="1.99" x2="147.74" y2="1.99" gradienttransform="matrix(-0.19, 0.33, -1.03, -0.59, 109.63, 44.7)" gradientunits="userSpaceOnUse"><stop offset="0" stop-color="#d4d4d4"/><stop offset="0.11" stop-color="#d8d8d8"/><stop offset="0.23" stop-color="#e4e4e4"/><stop offset="0.29" stop-color="#ededee"/><stop offset="0.55" stop-color="#dededf"/><stop offset="1" stop-color="#c9c9c9"/></linearGradient><linearGradient id="&#x672A;&#x547D;&#x540D;&#x7684;&#x6E10;&#x53D8;_22" x1="142.26" y1="0.61" x2="144.81" y2="0.61" gradienttransform="matrix(-0.19, 0.33, -1.03, -0.59, 109.63, 44.7)" gradientunits="userSpaceOnUse"><stop offset="0" stop-color="#dedfe0"/><stop offset="0.46" stop-color="#dadbdc"/><stop offset="0.93" stop-color="#cecfd1"/><stop offset="1" stop-color="#cbccce"/></linearGradient><linearGradient id="&#x672A;&#x547D;&#x540D;&#x7684;&#x6E10;&#x53D8;_254" x1="137.87" y1="0.51" x2="146.76" y2="0.51" gradienttransform="matrix(-0.19, 0.33, -1.03, -0.59, 109.63, 44.7)" gradientunits="userSpaceOnUse"><stop offset="0" stop-color="#7f8285"/><stop offset="0.33" stop-color="#7b7e81"/><stop offset="0.66" stop-color="#707375"/><stop offset="1" stop-color="#5e6060"/><stop offset="1" stop-color="#5e6060"/></linearGradient><linearGradient id="&#x672A;&#x547D;&#x540D;&#x7684;&#x6E10;&#x53D8;_8" x1="146.79" y1="0.57" x2="140.06" y2="0.17" gradienttransform="matrix(-0.19, 0.33, -1.03, -0.59, 109.63, 44.7)" gradientunits="userSpaceOnUse"><stop offset="0" stop-color="#95979a"/><stop offset="0.2" stop-color="#919396"/><stop offset="0.41" stop-color="#85878a"/><stop offset="0.62" stop-color="#727375"/><stop offset="0.83" stop-color="#575859"/><stop offset="1" stop-color="#3b3c3c"/></linearGradient><clippath id="clip-path"><path class="cls-1" d="M76.56,49a13.13,13.13,0,0,0-.62,1.21L73.9,49c-.42-.23-.43-.93,0-1.57s1.05-1,1.47-.73l2,1.12S76.85,48.47,76.56,49Z"/></clippath><linearGradient id="linear-gradient-5" x1="47.99" y1="25.22" x2="58.7" y2="25.22" gradienttransform="matrix(-0.19, 0.33, -1.1, -0.63, 113.16, 46.71)" xlink:href="#linear-gradient-4"><linearGradient id="&#x672A;&#x547D;&#x540D;&#x7684;&#x6E10;&#x53D8;_172-2" x1="75.22" y1="48.97" x2="77.28" y2="48.97" xlink:href="#&#x672A;&#x547D;&#x540D;&#x7684;&#x6E10;&#x53D8;_172"><clippath id="clip-path-2"><path class="cls-1" d="M75.76,40.41c-1.13,1.87-2.53,5-2.53,5l-3.3-1.85c-1.62-.89-1.64-3.76,0-6.4s4.21-4.06,5.83-3.16c.41.22,3,1.71,3,1.71S77,38.43,75.76,40.41Z"/></clippath><linearGradient id="linear-gradient-6" x1="16.16" y1="29.98" x2="51.75" y2="29.98" gradienttransform="matrix(-0.17, 0.3, -1.11, -0.63, 112.27, 47.66)" xlink:href="#linear-gradient-4"><linearGradient id="&#x672A;&#x547D;&#x540D;&#x7684;&#x6E10;&#x53D8;_2" x1="51.29" y1="28.55" x2="64.25" y2="38.68" gradienttransform="matrix(1, 0, -0.02, 1, 1.17, 0)" gradientunits="userSpaceOnUse"><stop offset="0" stop-color="#e7e8e7"/><stop offset="1" stop-color="#b5b9bc"/></linearGradient><linearGradient id="&#x672A;&#x547D;&#x540D;&#x7684;&#x6E10;&#x53D8;_91" x1="52.5" y1="20.7" x2="62.84" y2="20.7" gradienttransform="matrix(1, 0, -0.02, 1, 1.17, 0)" gradientunits="userSpaceOnUse"><stop offset="0" stop-color="#151f1e"/><stop offset="0.12" stop-color="#565c5b"/><stop offset="0.16" stop-color="#595f5e"/><stop offset="0.19" stop-color="#636867"/><stop offset="0.22" stop-color="#747877"/><stop offset="0.25" stop-color="#8c8e8d"/><stop offset="0.27" stop-color="#a3a3a2"/><stop offset="0.56" stop-color="#111"/></linearGradient><linearGradient id="linear-gradient-7" x1="52.51" y1="13.09" x2="62.84" y2="13.09" xlink:href="#linear-gradient"><linearGradient id="&#x672A;&#x547D;&#x540D;&#x7684;&#x6E10;&#x53D8;_91-2" x1="52.17" y1="10.53" x2="63.42" y2="10.53" xlink:href="#&#x672A;&#x547D;&#x540D;&#x7684;&#x6E10;&#x53D8;_91"><linearGradient id="&#x672A;&#x547D;&#x540D;&#x7684;&#x6E10;&#x53D8;_22-2" x1="34.71" y1="26.36" x2="42.01" y2="26.36" xlink:href="#&#x672A;&#x547D;&#x540D;&#x7684;&#x6E10;&#x53D8;_22"><linearGradient id="&#x672A;&#x547D;&#x540D;&#x7684;&#x6E10;&#x53D8;_254-2" x1="22.14" y1="26.07" x2="47.62" y2="26.07" xlink:href="#&#x672A;&#x547D;&#x540D;&#x7684;&#x6E10;&#x53D8;_254"><linearGradient id="&#x672A;&#x547D;&#x540D;&#x7684;&#x6E10;&#x53D8;_8-2" x1="47.69" y1="26.24" x2="28.41" y2="25.11" xlink:href="#&#x672A;&#x547D;&#x540D;&#x7684;&#x6E10;&#x53D8;_8"><linearGradient id="&#x672A;&#x547D;&#x540D;&#x7684;&#x6E10;&#x53D8;_442" x1="74.6" y1="40.43" x2="75.66" y2="40.43" gradienttransform="matrix(1, 0, -0.02, 1, 1.17, 0)" gradientunits="userSpaceOnUse"><stop offset="0" stop-color="#949494"/><stop offset="0.33" stop-color="#8d8e8f"/><stop offset="1" stop-color="#828487"/></linearGradient></linearGradient></linearGradient></linearGradient></linearGradient></linearGradient></linearGradient></linearGradient></linearGradient></linearGradient></linearGradient></linearGradient></linearGradient></defs><title>&#x751F;&#x7269;&#x4EEA;&#x5668;</title><g class="cls-2"><g id="Bio_instruments&#x751F;&#x7269;&#x4EEA;&#x5668;" data-name="Bio instruments&#x751F;&#x7269;&#x4EEA;&#x5668;"><path d="M46.54,106.36c0,.78-1.71,1.77-4.18,1.66-3.14-.14-3.8-1.42-3.77-2.19,0-1,1.63-.68,3.91-.68S46.56,105.58,46.54,106.36Z"/><path class="cls-3" d="M46.12,95.64s-7.7,3.35-7.82,6c-.06,1.32,0,2.36.06,3.1a1.72,1.72,0,0,0,.39,1.08,4.58,4.58,0,0,0,3.45,1.33c3.47.2,8.11-2.52,8.11-2.52Z"/><path class="cls-4" d="M49.35,102.57l-3.23-6.93s-7.69,3.35-7.82,6c0,.78.93,2.1,3.54,2.4C43.82,104.23,47.07,103.41,49.35,102.57Z"/><path d="M70.52,119.79c0,.78-1.79,1.85-4.26,1.75-3.14-.14-3.78-1.53-3.75-2.31,0-1,1.63-.68,3.91-.68S70.54,119,70.52,119.79Z"/><path class="cls-4" d="M72.43,102.55s-.59,2.16-.73,2.44a20.2,20.2,0,0,1-4.56,5.29c-2.22,1.52-4.76,2.93-4.84,4.34-.05.94-.09,2.45-.11,3.36a2,2,0,0,0,.92,1.75,6.08,6.08,0,0,0,3.15.81c3.45.1,6.7-1.79,11.29-4.2s11.93-5.75,14.36-9.56.9-10.08-.11-11.91-4.91-4.18-4.91-4.18Z"/><path class="cls-3" d="M66.3,120.57c3.44.17,6.65-1.82,11.24-4.23s11.93-5.75,14.36-9.56a10.7,10.7,0,0,0,1.25-6.48,17.37,17.37,0,0,1-.79,2.35C91,106,84.84,109.18,78.14,113S67,117.56,64.57,116.82s-2.28-2.2-2.28-2.2c-.06,1.11-.1,2.92-.11,3.65a1.66,1.66,0,0,0,.22.82C62.77,119.63,63.34,120.42,66.3,120.57Z"/><path class="cls-5" d="M84.18,43.77s2.89,4,.69,13.38-3.5,10.78-4.61,11.67-7.14,3.34-7.14,3.34,11.49,7.64,13.19,7.4,10.83-16.25,9.89-24.77-3.81-13.11-7.35-13S84.18,43.77,84.18,43.77Z"/><path class="cls-4" d="M63.75,29.77l13.46-7.1s3.14-1.55,5.62-.52,9,5,9,5L66.46,37.19Z"/><path class="cls-6" d="M67.24,53.63l.33-18L84.1,26.9A7.57,7.57,0,0,1,91,26.51c3.74,1.67,8,6.75,7.72,23.59s-4,29.44-7,35.28S84.56,95.79,80.1,100.1,71.69,105,71.69,105s-1.58-1.29-2.89-2.13A16.7,16.7,0,0,0,66,101.58L57,88.52l14.27-8.43,8.64-2.88a79.83,79.83,0,0,0,6.35-5.11c2.07-2.29,3.26-5.92,4.58-11.1,1.11-4.37,1.67-9.14.43-12.25C88,40.46,82.15,45,79,47.08S67.24,53.63,67.24,53.63Z"/><path class="cls-7" d="M55.83,69.23a1,1,0,0,1-.42.69,3.73,3.73,0,0,1-2.4.37,3.48,3.48,0,0,1-2.25-.8.88.88,0,0,1-.24-.72l.7-5.9,5.31.48Z"/><path class="cls-8" d="M64.63,64.51a1.8,1.8,0,0,1-.35,1.12,3,3,0,0,1-2.42.94,2.83,2.83,0,0,1-2.41-.88,1.71,1.71,0,0,1-.33-1.06l0-9.13,5.51-.08Z"/><path class="cls-9" d="M48.27,63.9a1,1,0,0,1-.64.52A3.68,3.68,0,0,1,45.25,64a3.32,3.32,0,0,1-1.83-1.48.88.88,0,0,1,0-.76l2.7-5.38L51,58.55Z"/><path class="cls-10" d="M58.22,65.37a1.61,1.61,0,0,1-.72,1.16,6.29,6.29,0,0,1-4,.63c-2.23-.2-3.3-.83-3.8-1.36a1.48,1.48,0,0,1-.4-1.21l1.18-9.95,9,.82Z"/><path class="cls-11" d="M67.88,58.09c-.51,4.43-6.43,7.52-13.21,6.92s-11.86-4.68-11.35-9.1S49.74,48.38,56.52,49,68.39,53.66,67.88,58.09Z"/><path class="cls-12" d="M67.87,57c-.45,3.84-6.24,6.48-13,5.88s-11.79-4.2-11.34-8,6.24-6.48,13-5.88S68.31,53.18,67.87,57Z"/><path class="cls-13" d="M67.85,55.87a3.72,3.72,0,0,1-1.3,2.8C65.26,59.75,62.78,61.2,58,61.2s-7.34-1.47-8.54-2.56A3.48,3.48,0,0,1,48.3,56l.42-22.89H68.26Z"/><polygon class="cls-14" points="71.62 88.3 71.36 102.31 62.95 98.95 63.3 89.45 71.62 88.3"/><path class="cls-15" d="M75.56,40.34c-1.18,1.89-2.65,5.08-2.65,5.08l-3.3-1.88c-1.62-.9-1.59-3.8.07-6.47s4.33-4.1,6-3.2c.41.23,3,1.73,3,1.73S76.81,38.33,75.56,40.34Z"/><path class="cls-16" d="M76.56,49a13.13,13.13,0,0,0-.62,1.21L73.9,49c-.42-.23-.43-.93,0-1.57s1.05-1,1.47-.73l2,1.12S76.85,48.47,76.56,49Z"/><path class="cls-17" d="M68,100c-.07,3.67-5.48,6.64-12.08,6.64S44,103.67,44,100l0-2.61H68Z"/><path class="cls-18" d="M68,97.39C68,101.05,62.54,104,55.94,104s-11.91-3-11.84-6.64,5.48-6.64,12.08-6.64S68.09,93.72,68,97.39Z"/><path class="cls-19" d="M67.37,97.39c-.06,3.39-5.18,6.14-11.42,6.14s-11.26-2.75-11.2-6.14,5.18-6.14,11.42-6.14S67.43,94,67.37,97.39Z"/><path class="cls-20" d="M74.6,104l-2.28-1,.32-12.41A5.7,5.7,0,0,1,76,85.3c4-1.87,7.06,1.45,7.06,1.45Z"/><path class="cls-21" d="M74.6,104l13-7.4A1.3,1.3,0,0,0,88.24,95c-1.16-3.11-5-11.94-10.23-8.24C73.24,90.18,74.6,104,74.6,104Z"/><path class="cls-22" d="M50.1,59.17a11.8,11.8,0,0,0,5.81,1.92l.51-28H50.58Z"/><path d="M67.37,97.39c.06-3.39-5-6.14-11.2-6.14a20.71,20.71,0,0,0-2.23.12,21.34,21.34,0,0,0-1,7.49,9.47,9.47,0,0,0,1.47,4.61c.5,0,1,.06,1.53.06C62.19,103.53,67.31,100.78,67.37,97.39Z"/><polygon class="cls-23" points="37.17 80.51 37.16 81.51 61.24 95.25 88.84 80.28 88.86 79.26 37.17 80.51"/><polygon class="cls-24" points="61.58 94.2 88.86 79.26 64.22 66.48 37.17 80.51 61.58 94.2"/><path class="cls-25" d="M70.38,80.48c0,2.57-3.82,4.66-8.44,4.66s-8.31-2.08-8.27-4.66,3.82-4.66,8.44-4.66S70.43,77.91,70.38,80.48Z"/><path class="cls-26" d="M70.21,80.93c0,2.32-3.74,4.21-8.27,4.21s-8.16-1.88-8.11-4.21,3.74-4.21,8.27-4.21S70.25,78.61,70.21,80.93Z"/><path class="cls-27" d="M77.62,79.28l-12.44,8.4a2.06,2.06,0,0,1-1,.43c-.42,0-.87,0-.6.23s1.24.77,1.24.77a2.47,2.47,0,0,0,1.59-.34c.79-.48,13.08-9,13.08-9Z"/><path class="cls-28" d="M78.79,78.56A11.57,11.57,0,0,0,80,78.47s0,.71,0,.82c0,.4-.54.73-1.18.73s-1.15-.33-1.15-.73c0-.1,0-.75,0-.75Z"/><path class="cls-29" d="M78.82,77.81c.64,0,1.15.33,1.15.73s-.54.73-1.18.73-1.15-.33-1.15-.73S78.18,77.81,78.82,77.81Z"/><path class="cls-30" d="M62.55,69.8,49.13,76.67a2.07,2.07,0,0,1-1,.31c-.41,0-.86-.07-.63.16s1.13.91,1.13.91a2.47,2.47,0,0,0,1.62-.15c.84-.39,14.12-7.35,14.12-7.35Z"/><path class="cls-31" d="M63.73,69.21a11.54,11.54,0,0,0,1.17,0l-.1.82c0,.4-.6.69-1.23.63s-1.12-.42-1.08-.82c0-.1.09-.74.09-.74Z"/><path class="cls-29" d="M63.83,68.47c.64.05,1.12.42,1.08.82s-.6.69-1.23.63-1.12-.42-1.08-.82S63.19,68.42,63.83,68.47Z"/><path class="cls-32" d="M82.92,89l-1.81-1c-.61-.33-1.57.16-2.15,1.1s-.55,2,.06,2.31l1.81,1Z"/><path class="cls-33" d="M79.61,88.4l-.15.13,2.83,1.54.1-.16Zm.34-.23-.18.12,2.71,1.47.1-.16Zm-.62.5-.13.15,2.89,1.57.1-.16Zm1-.67-.24.08,2.53,1.37.1-.16Zm.48,4.41-2-1.11a.81.81,0,0,0,.21.17l1.81,1Zm.25-4.35a.89.89,0,0,0-.44-.1l2.18,1.18.06-.1Zm-2.37,1.53-.07.18,2.85,1.55.1-.16Zm.36-.64-.11.16,2.91,1.58.1-.16Zm-.53,1.79a1.31,1.31,0,0,0,.07.25l2.31,1.26.1-.16Zm0-.42a1.78,1.78,0,0,0,0,.21l2.59,1.41.1-.16Zm.34-1.06-.09.17L81.71,91l.1-.16Zm-.28.68c0,.07,0,.13,0,.19l2.75,1.49.1-.16Z"/><path class="cls-34" d="M80.83,92.44c-.61-.33-.64-1.37-.06-2.31s1.54-1.43,2.15-1.1.64,1.37.06,2.31S81.44,92.77,80.83,92.44Z"/><path class="cls-35" d="M80.81,90.15c.56-.92,1.49-1.4,2.1-1.12l0,0c-.61-.33-1.57.16-2.15,1.1s-.55,2,.06,2.31l.05,0C80.27,92.07,80.25,91.07,80.81,90.15Z"/><path class="cls-36" d="M81.11,92.23c-.44-.24-.4-1.07.09-1.86s1.23-1.24,1.67-1,.4,1.07-.09,1.86S81.54,92.46,81.11,92.23Z"/><path class="cls-37" d="M82.68,89.3A1.67,1.67,0,0,1,82.45,91c-.42.69-1,1.12-1.49,1.06a.5.5,0,0,0,.14.12c.44.24,1.18-.21,1.67-1s.52-1.62.09-1.86A.52.52,0,0,0,82.68,89.3Z"/><g class="cls-38"><path class="cls-39" d="M74.22,46.56l-.15.13,3,1.64.1-.16Zm.35-.23-.19.11L77.28,48l.1-.16Zm-.63.49-.13.15,3.09,1.68.1-.16ZM75,46.17l-.25.08,2.71,1.47.1-.16Zm.64,4.5-2.19-1.19a.92.92,0,0,0,.23.18l1.93,1Zm.13-4.41a1,1,0,0,0-.46-.12l2.33,1.27.06-.1Zm-2.45,1.49-.07.18,3,1.66.1-.16Zm.35-.64-.11.16L76.71,49l.1-.16Zm-.5,1.81a1.36,1.36,0,0,0,.08.26l2.48,1.34.1-.16Zm0-.43a1.75,1.75,0,0,0,0,.22l2.77,1.51L76,50Zm.33-1.07-.09.17,3.1,1.69.1-.16Zm-.27.68c0,.07,0,.13,0,.19l2.94,1.6.1-.16Z"/></g><path class="cls-40" d="M77.32,49.39c-.4.63-1.05,1-1.47.73s-.43-.93,0-1.57,1.05-1,1.47-.73S77.71,48.76,77.32,49.39Z"/><path class="cls-41" d="M77.23,49.34c-.35.56-.93.85-1.3.65s-.38-.83,0-1.39.93-.85,1.3-.65S77.58,48.78,77.23,49.34Z"/><path class="cls-42" d="M76.86,49.12c-.13.2-.34.31-.48.23s-.15-.3,0-.51.34-.31.48-.23S77,48.91,76.86,49.12Z"/><path class="cls-43" d="M76.8,49.1c-.12.2-.32.3-.45.23s-.13-.29,0-.48.32-.3.45-.23S76.92,48.91,76.8,49.1Z"/><path class="cls-44" d="M76.82,48.34c-.05.09-.14.13-.2.1s-.06-.13,0-.21.14-.13.2-.1S76.87,48.25,76.82,48.34Z"/><path class="cls-44" d="M76.65,49.73c-.05.09-.14.13-.2.1s-.06-.13,0-.21.14-.13.2-.1S76.7,49.65,76.65,49.73Z"/><g class="cls-45"><path class="cls-46" d="M69.74,33.87l-.48.4L79.4,39.73l.3-.5Zm1.1-.67a6,6,0,0,0-.6.33L80,38.78l.3-.5Zm-2,1.46a5.72,5.72,0,0,0-.4.44l10.37,5.58.3-.5Zm3.42-1.95a5.55,5.55,0,0,0-.81.22l9.08,4.88.3-.5ZM75.14,46.9,67.8,43a3.36,3.36,0,0,0,.78.59L75.07,47Zm-.33-13.84a3.57,3.57,0,0,0-1.53-.41l7.83,4.21.19-.31ZM67.09,37.5c-.07.19-.13.37-.18.56l10.22,5.5.3-.5Zm1-2-.32.48,10.45,5.63.3-.5Zm-1.32,5.62a4.47,4.47,0,0,0,.3.82l8.3,4.47.3-.5Zm-.16-1.35a5.3,5.3,0,0,0,0,.68l9.3,5,.3-.5Zm.89-3.32c-.09.17-.17.35-.25.52l10.4,5.6.3-.5Zm-.76,2.12c0,.2-.07.41-.09.61l9.87,5.31.3-.5Z"/></g><path class="cls-47" d="M78.53,42.07c-1.67,2.67-4.33,4.1-6,3.2s-1.59-3.8.07-6.47,4.33-4.1,6-3.2S80.19,39.4,78.53,42.07Z"/><path class="cls-48" d="M64,85a11,11,0,0,0,4.26-1.4,4.65,4.65,0,0,0,.25-1.4c0-2.25-1.57-4.2-4-5.26l-.38-.07Z"/><path class="cls-49" d="M68.55,82.19c0-.06,0-.11,0-.17l-4.42-1.25L64,85a11,11,0,0,0,4.26-1.4A4.65,4.65,0,0,0,68.55,82.19Z"/><path class="cls-50" d="M63.94,60.19a9.56,9.56,0,0,0,2.61-1.52,3.72,3.72,0,0,0,1.3-2.8l.42-22.79H64.43Z"/><path class="cls-22" d="M61.44,60.9a14,14,0,0,0,1.49-.36l.44-23.9H61.88Z"/><path class="cls-51" d="M53.33,28.77l-4,3.18a1.67,1.67,0,0,0-.66,1.74c.45,1.78,2.43,4.64,9.86,4.48,7-.15,9.06-2.59,9.72-4.13a1.43,1.43,0,0,0-.35-1.61l-4.62-3.82Z"/><path class="cls-52" d="M63.48,29a2.08,2.08,0,0,1-.89,1.69,7.69,7.69,0,0,1-4.35,1c-2.63,0-3.92-.64-4.54-1.19a1.69,1.69,0,0,1-.55-1.31l.36-19.45H63.84Z"/><path class="cls-53" d="M53.43,14.16a9.39,9.39,0,0,0,5.14,1.34,9.64,9.64,0,0,0,5.19-1.34l.06-3.49H53.49Z"/><path class="cls-54" d="M64.4,10.53c0,1.53-2.57,2.78-5.68,2.78s-5.6-1.24-5.57-2.78,2.57-2.78,5.68-2.78S64.43,9,64.4,10.53Z"/><path class="cls-55" d="M63.44,10.53c0,1.16-2.13,2.11-4.7,2.11s-4.65-.94-4.63-2.11,2.13-2.11,4.7-2.11S63.46,9.36,63.44,10.53Z"/><path class="cls-56" d="M58.74,12.64c2.58,0,4.68-.94,4.7-2.11,0-.54-.45-1-1.18-1.4l-6.37,3.06A8.64,8.64,0,0,0,58.74,12.64Z"/><path class="cls-57" d="M72.79,45.37c-1.75-1-1.83-3.92-.18-6.61s4.41-4.11,6.16-3.15,1.83,3.92.18,6.62S74.54,46.33,72.79,45.37Z"/><path class="cls-35" d="M72.74,38.83c1.61-2.62,4.26-4,6-3.21l-.13-.09c-1.75-1-4.51.45-6.16,3.15s-1.57,5.66.18,6.61l.15.07C71.16,44.32,71.13,41.45,72.74,38.83Z"/><path class="cls-58" d="M73.57,44.76c-1.25-.68-1.14-3.08.25-5.34s3.53-3.55,4.78-2.86,1.14,3.08-.25,5.34S74.83,45.45,73.57,44.76Z"/><path class="cls-59" d="M78.08,36.39c.79,1,.55,3-.66,5s-3,3.2-4.26,3a1.42,1.42,0,0,0,.41.34c1.25.69,3.39-.6,4.78-2.87s1.5-4.66.25-5.34A1.5,1.5,0,0,0,78.08,36.39Z"/><path class="cls-60" d="M76.61,41c-.58.93-1.51,1.43-2.07,1.11s-.55-1.32,0-2.25,1.51-1.43,2.07-1.11S77.19,40.07,76.61,41Z"/><path class="cls-61" d="M76,40.64c-.21.34-.55.52-.76.41s-.2-.48,0-.82.55-.52.76-.41S76.17,40.3,76,40.64Z"/></g></g></svg>