<svg xmlns="http://www.w3.org/2000/svg" xmlns:xlink="http://www.w3.org/1999/xlink" viewbox="0 0 128 128" width="128" height="128"><defs><style>.cls-1{isolation:isolate;stroke:none;}.cls-2,.cls-3{fill:#dcf1f9;stroke:none;}.cls-10,.cls-11,.cls-12,.cls-13,.cls-14,.cls-15,.cls-16,.cls-17,.cls-18,.cls-19,.cls-2,.cls-20,.cls-21,.cls-22,.cls-23,.cls-24,.cls-25,.cls-26,.cls-27,.cls-28,.cls-29,.cls-3,.cls-30,.cls-31,.cls-32,.cls-38,.cls-4,.cls-5,.cls-6,.cls-7,.cls-8,.cls-9{stroke-miterlimit:10;}.cls-2{stroke-width:2.02px;stroke:url(#未命名的渐变_608);}.cls-3{stroke-width:2px;stroke:url(#未命名的渐变_600);}.cls-10,.cls-11,.cls-12,.cls-13,.cls-14,.cls-15,.cls-16,.cls-17,.cls-18,.cls-19,.cls-20,.cls-21,.cls-22,.cls-23,.cls-24,.cls-25,.cls-27,.cls-28,.cls-29,.cls-30,.cls-31,.cls-32,.cls-4,.cls-5,.cls-6,.cls-7,.cls-8,.cls-9{stroke-width:0.47px;}.cls-4{fill:url(#未命名的渐变_565);stroke:url(#未命名的渐变_573);}.cls-5{fill:url(#未命名的渐变_565-2);stroke:url(#未命名的渐变_573-2);}.cls-6{fill:url(#未命名的渐变_565-3);stroke:url(#未命名的渐变_573-3);}.cls-7{fill:url(#未命名的渐变_565-4);stroke:url(#未命名的渐变_573-4);}.cls-8{fill:url(#未命名的渐变_565-5);stroke:url(#未命名的渐变_573-5);}.cls-9{fill:url(#未命名的渐变_565-6);stroke:url(#未命名的渐变_573-6);}.cls-10{fill:url(#未命名的渐变_565-7);stroke:url(#未命名的渐变_573-7);}.cls-11{fill:url(#未命名的渐变_565-8);stroke:url(#未命名的渐变_573-8);}.cls-12{fill:url(#未命名的渐变_565-9);stroke:url(#未命名的渐变_573-9);}.cls-13{fill:url(#未命名的渐变_565-10);stroke:url(#未命名的渐变_573-10);}.cls-14{fill:url(#未命名的渐变_565-11);stroke:url(#未命名的渐变_573-11);}.cls-15{fill:url(#未命名的渐变_565-12);stroke:url(#未命名的渐变_573-12);}.cls-16{fill:url(#未命名的渐变_565-13);stroke:url(#未命名的渐变_573-13);}.cls-17{fill:url(#未命名的渐变_565-14);stroke:url(#未命名的渐变_573-14);}.cls-18{fill:url(#未命名的渐变_565-15);stroke:url(#未命名的渐变_573-15);}.cls-19{fill:url(#未命名的渐变_565-16);stroke:url(#未命名的渐变_573-16);}.cls-20{fill:url(#未命名的渐变_565-17);stroke:url(#未命名的渐变_573-17);}.cls-21{fill:url(#未命名的渐变_565-18);stroke:url(#未命名的渐变_573-18);}.cls-22{fill:url(#未命名的渐变_565-19);stroke:url(#未命名的渐变_573-19);}.cls-23{fill:url(#未命名的渐变_565-20);stroke:url(#未命名的渐变_573-20);}.cls-24{fill:url(#未命名的渐变_565-21);stroke:url(#未命名的渐变_573-21);}.cls-25{fill:url(#未命名的渐变_565-22);stroke:url(#未命名的渐变_573-22);}.cls-26{stroke-width:0.5px;fill:url(#未命名的渐变_634);stroke:url(#未命名的渐变_617);}.cls-27{fill:url(#未命名的渐变_565-23);stroke:url(#未命名的渐变_573-23);}.cls-28{fill:url(#未命名的渐变_565-24);stroke:url(#未命名的渐变_573-24);}.cls-29{fill:url(#未命名的渐变_565-25);stroke:url(#未命名的渐变_573-25);}.cls-30{fill:url(#未命名的渐变_565-26);stroke:url(#未命名的渐变_573-26);}.cls-31{fill:url(#未命名的渐变_565-27);stroke:url(#未命名的渐变_573-27);}.cls-32{fill:url(#未命名的渐变_565-28);stroke:url(#未命名的渐变_573-28);}.cls-33{fill:url(#未命名的渐变_16);stroke:none;}.cls-34{fill:#c2c4c5;opacity:0.4;mix-blend-mode:multiply;stroke:none;}.cls-35{fill:#fff;opacity:0.29;stroke:none;}.cls-36{fill:url(#未命名的渐变_56);stroke:none;}.cls-37{fill:url(#未命名的渐变_31);stroke:none;}.cls-38{fill:none;stroke:#4e4e4e;stroke-width:0.24px;}.cls-39{fill:#333;stroke:none;}</style><linearGradient id="&#x672A;&#x547D;&#x540D;&#x7684;&#x6E10;&#x53D8;_608" x1="14.58" y1="56.61" x2="112.01" y2="99.99" gradientunits="userSpaceOnUse"><stop offset="0" stop-color="#0e78be"/><stop offset="0.4" stop-color="#ccecfc"/><stop offset="0.47" stop-color="#c0e4f8"/><stop offset="0.59" stop-color="#9fd0ed"/><stop offset="0.75" stop-color="#69afdb"/><stop offset="0.95" stop-color="#2082c3"/><stop offset="1" stop-color="#0c75bc"/></linearGradient><linearGradient id="&#x672A;&#x547D;&#x540D;&#x7684;&#x6E10;&#x53D8;_600" x1="14.66" y1="56.46" x2="111.33" y2="99.5" gradientunits="userSpaceOnUse"><stop offset="0" stop-color="#54c8f3"/><stop offset="0.4" stop-color="#ccecfc"/><stop offset="0.51" stop-color="#c0e7fa"/><stop offset="0.7" stop-color="#9fdaf6"/><stop offset="0.96" stop-color="#6ac4ee"/><stop offset="1" stop-color="#60c0ed"/></linearGradient><radialGradient id="&#x672A;&#x547D;&#x540D;&#x7684;&#x6E10;&#x53D8;_565" cx="24.22" cy="57.78" r="7.19" gradientunits="userSpaceOnUse"><stop offset="0" stop-color="#e5f5fd"/><stop offset="0.13" stop-color="#d9f1fc"/><stop offset="0.37" stop-color="#b8e8fb"/><stop offset="0.69" stop-color="#83d9f8"/><stop offset="0.99" stop-color="#49c8f5"/></radialGradient><radialGradient id="&#x672A;&#x547D;&#x540D;&#x7684;&#x6E10;&#x53D8;_573" cx="25.37" cy="58.93" r="5.6" gradientunits="userSpaceOnUse"><stop offset="0" stop-color="#e5f5fd"/><stop offset="0.12" stop-color="#d9f2fc"/><stop offset="0.33" stop-color="#b8e9fb"/><stop offset="0.61" stop-color="#82dbf8"/><stop offset="0.95" stop-color="#39c8f5"/><stop offset="1" stop-color="#2fc5f4"/></radialGradient><radialGradient id="&#x672A;&#x547D;&#x540D;&#x7684;&#x6E10;&#x53D8;_565-2" cx="36.79" cy="57.78" r="7.19" xlink:href="#&#x672A;&#x547D;&#x540D;&#x7684;&#x6E10;&#x53D8;_565"><radialGradient id="&#x672A;&#x547D;&#x540D;&#x7684;&#x6E10;&#x53D8;_573-2" cx="37.94" cy="58.93" r="5.6" xlink:href="#&#x672A;&#x547D;&#x540D;&#x7684;&#x6E10;&#x53D8;_573"><radialGradient id="&#x672A;&#x547D;&#x540D;&#x7684;&#x6E10;&#x53D8;_565-3" cx="49.35" cy="57.78" r="7.19" xlink:href="#&#x672A;&#x547D;&#x540D;&#x7684;&#x6E10;&#x53D8;_565"><radialGradient id="&#x672A;&#x547D;&#x540D;&#x7684;&#x6E10;&#x53D8;_573-3" cx="50.5" cy="58.93" r="5.6" xlink:href="#&#x672A;&#x547D;&#x540D;&#x7684;&#x6E10;&#x53D8;_573"><radialGradient id="&#x672A;&#x547D;&#x540D;&#x7684;&#x6E10;&#x53D8;_565-4" cx="61.91" cy="57.78" r="7.19" xlink:href="#&#x672A;&#x547D;&#x540D;&#x7684;&#x6E10;&#x53D8;_565"><radialGradient id="&#x672A;&#x547D;&#x540D;&#x7684;&#x6E10;&#x53D8;_573-4" cx="63.06" cy="58.93" r="5.6" xlink:href="#&#x672A;&#x547D;&#x540D;&#x7684;&#x6E10;&#x53D8;_573"><radialGradient id="&#x672A;&#x547D;&#x540D;&#x7684;&#x6E10;&#x53D8;_565-5" cx="74.47" cy="57.78" r="7.19" xlink:href="#&#x672A;&#x547D;&#x540D;&#x7684;&#x6E10;&#x53D8;_565"><radialGradient id="&#x672A;&#x547D;&#x540D;&#x7684;&#x6E10;&#x53D8;_573-5" cx="75.62" cy="58.93" r="5.6" xlink:href="#&#x672A;&#x547D;&#x540D;&#x7684;&#x6E10;&#x53D8;_573"><radialGradient id="&#x672A;&#x547D;&#x540D;&#x7684;&#x6E10;&#x53D8;_565-6" cx="87.04" cy="57.78" r="7.19" xlink:href="#&#x672A;&#x547D;&#x540D;&#x7684;&#x6E10;&#x53D8;_565"><radialGradient id="&#x672A;&#x547D;&#x540D;&#x7684;&#x6E10;&#x53D8;_573-6" cx="88.19" cy="58.93" r="5.6" xlink:href="#&#x672A;&#x547D;&#x540D;&#x7684;&#x6E10;&#x53D8;_573"><radialGradient id="&#x672A;&#x547D;&#x540D;&#x7684;&#x6E10;&#x53D8;_565-7" cx="99.6" cy="57.78" r="7.19" xlink:href="#&#x672A;&#x547D;&#x540D;&#x7684;&#x6E10;&#x53D8;_565"><radialGradient id="&#x672A;&#x547D;&#x540D;&#x7684;&#x6E10;&#x53D8;_573-7" cx="100.75" cy="58.93" r="5.6" xlink:href="#&#x672A;&#x547D;&#x540D;&#x7684;&#x6E10;&#x53D8;_573"><radialGradient id="&#x672A;&#x547D;&#x540D;&#x7684;&#x6E10;&#x53D8;_565-8" cx="24.22" cy="70.67" r="7.19" xlink:href="#&#x672A;&#x547D;&#x540D;&#x7684;&#x6E10;&#x53D8;_565"><radialGradient id="&#x672A;&#x547D;&#x540D;&#x7684;&#x6E10;&#x53D8;_573-8" cx="25.37" cy="71.82" r="5.6" xlink:href="#&#x672A;&#x547D;&#x540D;&#x7684;&#x6E10;&#x53D8;_573"><radialGradient id="&#x672A;&#x547D;&#x540D;&#x7684;&#x6E10;&#x53D8;_565-9" cx="36.79" cy="70.67" r="7.19" xlink:href="#&#x672A;&#x547D;&#x540D;&#x7684;&#x6E10;&#x53D8;_565"><radialGradient id="&#x672A;&#x547D;&#x540D;&#x7684;&#x6E10;&#x53D8;_573-9" cx="37.94" cy="71.82" r="5.6" xlink:href="#&#x672A;&#x547D;&#x540D;&#x7684;&#x6E10;&#x53D8;_573"><radialGradient id="&#x672A;&#x547D;&#x540D;&#x7684;&#x6E10;&#x53D8;_565-10" cx="49.35" cy="70.67" r="7.19" xlink:href="#&#x672A;&#x547D;&#x540D;&#x7684;&#x6E10;&#x53D8;_565"><radialGradient id="&#x672A;&#x547D;&#x540D;&#x7684;&#x6E10;&#x53D8;_573-10" cx="50.5" cy="71.82" r="5.6" xlink:href="#&#x672A;&#x547D;&#x540D;&#x7684;&#x6E10;&#x53D8;_573"><radialGradient id="&#x672A;&#x547D;&#x540D;&#x7684;&#x6E10;&#x53D8;_565-11" cx="61.91" cy="70.67" r="7.19" xlink:href="#&#x672A;&#x547D;&#x540D;&#x7684;&#x6E10;&#x53D8;_565"><radialGradient id="&#x672A;&#x547D;&#x540D;&#x7684;&#x6E10;&#x53D8;_573-11" cx="63.06" cy="71.82" r="5.6" xlink:href="#&#x672A;&#x547D;&#x540D;&#x7684;&#x6E10;&#x53D8;_573"><radialGradient id="&#x672A;&#x547D;&#x540D;&#x7684;&#x6E10;&#x53D8;_565-12" cx="74.47" cy="70.67" r="7.19" xlink:href="#&#x672A;&#x547D;&#x540D;&#x7684;&#x6E10;&#x53D8;_565"><radialGradient id="&#x672A;&#x547D;&#x540D;&#x7684;&#x6E10;&#x53D8;_573-12" cx="75.62" cy="71.82" r="5.6" xlink:href="#&#x672A;&#x547D;&#x540D;&#x7684;&#x6E10;&#x53D8;_573"><radialGradient id="&#x672A;&#x547D;&#x540D;&#x7684;&#x6E10;&#x53D8;_565-13" cx="87.04" cy="70.67" r="7.19" xlink:href="#&#x672A;&#x547D;&#x540D;&#x7684;&#x6E10;&#x53D8;_565"><radialGradient id="&#x672A;&#x547D;&#x540D;&#x7684;&#x6E10;&#x53D8;_573-13" cx="88.19" cy="71.82" r="5.6" xlink:href="#&#x672A;&#x547D;&#x540D;&#x7684;&#x6E10;&#x53D8;_573"><radialGradient id="&#x672A;&#x547D;&#x540D;&#x7684;&#x6E10;&#x53D8;_565-14" cx="99.6" cy="70.67" r="7.19" xlink:href="#&#x672A;&#x547D;&#x540D;&#x7684;&#x6E10;&#x53D8;_565"><radialGradient id="&#x672A;&#x547D;&#x540D;&#x7684;&#x6E10;&#x53D8;_573-14" cx="100.75" cy="71.82" r="5.6" xlink:href="#&#x672A;&#x547D;&#x540D;&#x7684;&#x6E10;&#x53D8;_573"><radialGradient id="&#x672A;&#x547D;&#x540D;&#x7684;&#x6E10;&#x53D8;_565-15" cx="24.22" cy="83.57" r="7.19" xlink:href="#&#x672A;&#x547D;&#x540D;&#x7684;&#x6E10;&#x53D8;_565"><radialGradient id="&#x672A;&#x547D;&#x540D;&#x7684;&#x6E10;&#x53D8;_573-15" cx="25.37" cy="84.72" r="5.6" xlink:href="#&#x672A;&#x547D;&#x540D;&#x7684;&#x6E10;&#x53D8;_573"><radialGradient id="&#x672A;&#x547D;&#x540D;&#x7684;&#x6E10;&#x53D8;_565-16" cx="36.79" cy="83.57" r="7.19" xlink:href="#&#x672A;&#x547D;&#x540D;&#x7684;&#x6E10;&#x53D8;_565"><radialGradient id="&#x672A;&#x547D;&#x540D;&#x7684;&#x6E10;&#x53D8;_573-16" cx="37.94" cy="84.72" r="5.6" xlink:href="#&#x672A;&#x547D;&#x540D;&#x7684;&#x6E10;&#x53D8;_573"><radialGradient id="&#x672A;&#x547D;&#x540D;&#x7684;&#x6E10;&#x53D8;_565-17" cx="49.35" cy="83.57" r="7.19" xlink:href="#&#x672A;&#x547D;&#x540D;&#x7684;&#x6E10;&#x53D8;_565"><radialGradient id="&#x672A;&#x547D;&#x540D;&#x7684;&#x6E10;&#x53D8;_573-17" cx="50.5" cy="84.72" r="5.6" xlink:href="#&#x672A;&#x547D;&#x540D;&#x7684;&#x6E10;&#x53D8;_573"><radialGradient id="&#x672A;&#x547D;&#x540D;&#x7684;&#x6E10;&#x53D8;_565-18" cx="61.91" cy="83.57" r="7.19" xlink:href="#&#x672A;&#x547D;&#x540D;&#x7684;&#x6E10;&#x53D8;_565"><radialGradient id="&#x672A;&#x547D;&#x540D;&#x7684;&#x6E10;&#x53D8;_573-18" cx="63.06" cy="84.72" r="5.6" xlink:href="#&#x672A;&#x547D;&#x540D;&#x7684;&#x6E10;&#x53D8;_573"><radialGradient id="&#x672A;&#x547D;&#x540D;&#x7684;&#x6E10;&#x53D8;_565-19" cx="74.47" cy="83.57" r="7.19" xlink:href="#&#x672A;&#x547D;&#x540D;&#x7684;&#x6E10;&#x53D8;_565"><radialGradient id="&#x672A;&#x547D;&#x540D;&#x7684;&#x6E10;&#x53D8;_573-19" cx="75.62" cy="84.72" r="5.6" xlink:href="#&#x672A;&#x547D;&#x540D;&#x7684;&#x6E10;&#x53D8;_573"><radialGradient id="&#x672A;&#x547D;&#x540D;&#x7684;&#x6E10;&#x53D8;_565-20" cx="87.04" cy="83.57" r="7.19" xlink:href="#&#x672A;&#x547D;&#x540D;&#x7684;&#x6E10;&#x53D8;_565"><radialGradient id="&#x672A;&#x547D;&#x540D;&#x7684;&#x6E10;&#x53D8;_573-20" cx="88.19" cy="84.72" r="5.6" xlink:href="#&#x672A;&#x547D;&#x540D;&#x7684;&#x6E10;&#x53D8;_573"><radialGradient id="&#x672A;&#x547D;&#x540D;&#x7684;&#x6E10;&#x53D8;_565-21" cx="99.6" cy="83.57" r="7.19" xlink:href="#&#x672A;&#x547D;&#x540D;&#x7684;&#x6E10;&#x53D8;_565"><radialGradient id="&#x672A;&#x547D;&#x540D;&#x7684;&#x6E10;&#x53D8;_573-21" cx="100.75" cy="84.72" r="5.6" xlink:href="#&#x672A;&#x547D;&#x540D;&#x7684;&#x6E10;&#x53D8;_573"><radialGradient id="&#x672A;&#x547D;&#x540D;&#x7684;&#x6E10;&#x53D8;_565-22" cx="24.22" cy="96.46" r="7.19" xlink:href="#&#x672A;&#x547D;&#x540D;&#x7684;&#x6E10;&#x53D8;_565"><radialGradient id="&#x672A;&#x547D;&#x540D;&#x7684;&#x6E10;&#x53D8;_573-22" cx="25.37" cy="97.61" r="5.6" xlink:href="#&#x672A;&#x547D;&#x540D;&#x7684;&#x6E10;&#x53D8;_573"><radialGradient id="&#x672A;&#x547D;&#x540D;&#x7684;&#x6E10;&#x53D8;_634" cx="25.51" cy="97.75" r="3.89" gradientunits="userSpaceOnUse"><stop offset="0.03" stop-color="#dcf2fd"/><stop offset="0.56" stop-color="#6cc4eb"/><stop offset="0.86" stop-color="#30abe2"/></radialGradient><radialGradient id="&#x672A;&#x547D;&#x540D;&#x7684;&#x6E10;&#x53D8;_617" cx="26.14" cy="98.38" r="3.16" gradientunits="userSpaceOnUse"><stop offset="0" stop-color="#e5f5fd"/><stop offset="0.1" stop-color="#d9edf9"/><stop offset="0.28" stop-color="#b8d9ee"/><stop offset="0.52" stop-color="#82b8dd"/><stop offset="0.82" stop-color="#398bc6"/><stop offset="1" stop-color="#086cb6"/></radialGradient><radialGradient id="&#x672A;&#x547D;&#x540D;&#x7684;&#x6E10;&#x53D8;_565-23" cx="36.79" cy="96.46" r="7.19" xlink:href="#&#x672A;&#x547D;&#x540D;&#x7684;&#x6E10;&#x53D8;_565"><radialGradient id="&#x672A;&#x547D;&#x540D;&#x7684;&#x6E10;&#x53D8;_573-23" cx="37.94" cy="97.61" r="5.6" xlink:href="#&#x672A;&#x547D;&#x540D;&#x7684;&#x6E10;&#x53D8;_573"><radialGradient id="&#x672A;&#x547D;&#x540D;&#x7684;&#x6E10;&#x53D8;_565-24" cx="49.35" cy="96.46" r="7.19" xlink:href="#&#x672A;&#x547D;&#x540D;&#x7684;&#x6E10;&#x53D8;_565"><radialGradient id="&#x672A;&#x547D;&#x540D;&#x7684;&#x6E10;&#x53D8;_573-24" cx="50.5" cy="97.61" r="5.6" xlink:href="#&#x672A;&#x547D;&#x540D;&#x7684;&#x6E10;&#x53D8;_573"><radialGradient id="&#x672A;&#x547D;&#x540D;&#x7684;&#x6E10;&#x53D8;_565-25" cx="61.91" cy="96.46" r="7.19" xlink:href="#&#x672A;&#x547D;&#x540D;&#x7684;&#x6E10;&#x53D8;_565"><radialGradient id="&#x672A;&#x547D;&#x540D;&#x7684;&#x6E10;&#x53D8;_573-25" cx="63.06" cy="97.61" r="5.6" xlink:href="#&#x672A;&#x547D;&#x540D;&#x7684;&#x6E10;&#x53D8;_573"><radialGradient id="&#x672A;&#x547D;&#x540D;&#x7684;&#x6E10;&#x53D8;_565-26" cx="74.47" cy="96.46" r="7.19" xlink:href="#&#x672A;&#x547D;&#x540D;&#x7684;&#x6E10;&#x53D8;_565"><radialGradient id="&#x672A;&#x547D;&#x540D;&#x7684;&#x6E10;&#x53D8;_573-26" cx="75.62" cy="97.61" r="5.6" xlink:href="#&#x672A;&#x547D;&#x540D;&#x7684;&#x6E10;&#x53D8;_573"><radialGradient id="&#x672A;&#x547D;&#x540D;&#x7684;&#x6E10;&#x53D8;_565-27" cx="87.04" cy="96.46" r="7.19" xlink:href="#&#x672A;&#x547D;&#x540D;&#x7684;&#x6E10;&#x53D8;_565"><radialGradient id="&#x672A;&#x547D;&#x540D;&#x7684;&#x6E10;&#x53D8;_573-27" cx="88.19" cy="97.61" r="5.6" xlink:href="#&#x672A;&#x547D;&#x540D;&#x7684;&#x6E10;&#x53D8;_573"><radialGradient id="&#x672A;&#x547D;&#x540D;&#x7684;&#x6E10;&#x53D8;_565-28" cx="99.6" cy="96.46" r="7.19" xlink:href="#&#x672A;&#x547D;&#x540D;&#x7684;&#x6E10;&#x53D8;_565"><radialGradient id="&#x672A;&#x547D;&#x540D;&#x7684;&#x6E10;&#x53D8;_573-28" cx="100.75" cy="97.61" r="5.6" xlink:href="#&#x672A;&#x547D;&#x540D;&#x7684;&#x6E10;&#x53D8;_573"><linearGradient id="&#x672A;&#x547D;&#x540D;&#x7684;&#x6E10;&#x53D8;_16" x1="254.71" y1="204.82" x2="245.27" y2="204.82" gradienttransform="translate(3.43 -260.53) rotate(40)" gradientunits="userSpaceOnUse"><stop offset="0" stop-color="#abadb0"/><stop offset="0.57" stop-color="#f8f8f9"/><stop offset="0.99" stop-color="#b3b5b8"/></linearGradient><linearGradient id="&#x672A;&#x547D;&#x540D;&#x7684;&#x6E10;&#x53D8;_56" x1="250.4" y1="151.51" x2="247.69" y2="147.77" gradienttransform="translate(247.31 -235.05) rotate(90)" gradientunits="userSpaceOnUse"><stop offset="0.01" stop-color="#848689"/><stop offset="0.19" stop-color="#dedfe0"/><stop offset="1" stop-color="#dcddde"/></linearGradient><linearGradient id="&#x672A;&#x547D;&#x540D;&#x7684;&#x6E10;&#x53D8;_31" x1="247.18" y1="148.18" x2="249.79" y2="149.75" gradienttransform="translate(247.3 -235.14) rotate(90)" gradientunits="userSpaceOnUse"><stop offset="0" stop-color="#cbccce"/><stop offset="0.27" stop-color="#bfc0c2"/><stop offset="0.76" stop-color="#9ea0a2"/><stop offset="0.99" stop-color="#8c8e90"/></linearGradient></radialGradient></radialGradient></radialGradient></radialGradient></radialGradient></radialGradient></radialGradient></radialGradient></radialGradient></radialGradient></radialGradient></radialGradient></radialGradient></radialGradient></radialGradient></radialGradient></radialGradient></radialGradient></radialGradient></radialGradient></radialGradient></radialGradient></radialGradient></radialGradient></radialGradient></radialGradient></radialGradient></radialGradient></radialGradient></radialGradient></radialGradient></radialGradient></radialGradient></radialGradient></radialGradient></radialGradient></radialGradient></radialGradient></radialGradient></radialGradient></radialGradient></radialGradient></radialGradient></radialGradient></radialGradient></radialGradient></radialGradient></radialGradient></radialGradient></radialGradient></radialGradient></radialGradient></radialGradient></radialGradient></defs><title>&#x751F;&#x7269;&#x4EEA;&#x5668;</title><g class="cls-1"><g id="Bio_instruments&#x751F;&#x7269;&#x4EEA;&#x5668;" data-name="Bio instruments&#x751F;&#x7269;&#x4EEA;&#x5668;"><rect class="cls-2" x="17.08" y="49.55" width="92.44" height="57.49" rx="5.01" ry="5.01"/><rect class="cls-3" x="17.08" y="49.55" width="91.84" height="56.85" rx="5.01" ry="5.01"/><circle class="cls-4" cx="25.37" cy="58.93" r="5.37"/><circle class="cls-5" cx="37.94" cy="58.93" r="5.37"/><circle class="cls-6" cx="50.5" cy="58.93" r="5.37"/><circle class="cls-7" cx="63.06" cy="58.93" r="5.37"/><circle class="cls-8" cx="75.62" cy="58.93" r="5.37"/><circle class="cls-9" cx="88.19" cy="58.93" r="5.37"/><circle class="cls-10" cx="100.75" cy="58.93" r="5.37"/><circle class="cls-11" cx="25.37" cy="71.82" r="5.37"/><circle class="cls-12" cx="37.94" cy="71.82" r="5.37"/><circle class="cls-13" cx="50.5" cy="71.82" r="5.37"/><circle class="cls-14" cx="63.06" cy="71.82" r="5.37"/><circle class="cls-15" cx="75.62" cy="71.82" r="5.37"/><circle class="cls-16" cx="88.19" cy="71.82" r="5.37"/><circle class="cls-17" cx="100.75" cy="71.82" r="5.37"/><circle class="cls-18" cx="25.37" cy="84.72" r="5.37"/><circle class="cls-19" cx="37.94" cy="84.72" r="5.37"/><circle class="cls-20" cx="50.5" cy="84.72" r="5.37"/><circle class="cls-21" cx="63.06" cy="84.72" r="5.37"/><circle class="cls-22" cx="75.62" cy="84.72" r="5.37"/><circle class="cls-23" cx="88.19" cy="84.72" r="5.37"/><circle class="cls-24" cx="100.75" cy="84.72" r="5.37"/><circle class="cls-25" cx="25.37" cy="97.61" r="5.37"/><circle class="cls-26" cx="26.14" cy="98.38" r="2.91"/><circle class="cls-27" cx="37.94" cy="97.61" r="5.37"/><circle class="cls-28" cx="50.5" cy="97.61" r="5.37"/><circle class="cls-29" cx="63.06" cy="97.61" r="5.37"/><circle class="cls-30" cx="75.62" cy="97.61" r="5.37"/><circle class="cls-31" cx="88.19" cy="97.61" r="5.37"/><circle class="cls-32" cx="100.75" cy="97.61" r="5.37"/><path class="cls-33" d="M96,12,33.06,87c-2.28,2.71-7.54,10.85-6.41,11.8s8.23-5.65,10.51-8.36l62.92-75Z"/><path class="cls-34" d="M99.36,15.39,36.58,90.21c-1.45,1.72-7.47,7.85-8.27,8-.42.05-.55-.13-.56-.19.75,0,6.89-6.26,8.44-8.11L98.83,15.24Z"/><path class="cls-35" d="M96.15,13,33.54,87.65C32.09,89.38,27,96.27,27,97.09a.53.53,0,0,0,.25.47c-.16-.73,5.12-7.73,6.67-9.58L96.5,13.41Z"/><ellipse class="cls-36" cx="98.05" cy="13.71" rx="1.03" ry="2.67" transform="translate(24.52 80.01) rotate(-50)"/><ellipse class="cls-37" cx="98.14" cy="13.66" rx="0.77" ry="2.37" transform="translate(24.59 80.06) rotate(-50)"/><line class="cls-38" x1="43.81" y1="74.52" x2="45.55" y2="75.98"/><line class="cls-38" x1="54.96" y1="61.22" x2="56.71" y2="62.69"/><line class="cls-38" x1="66.12" y1="47.93" x2="67.86" y2="49.39"/><line class="cls-38" x1="77.27" y1="34.64" x2="79.01" y2="36.1"/><line class="cls-38" x1="88.43" y1="21.34" x2="90.17" y2="22.81"/><path class="cls-39" d="M89.48,19.94a1,1,0,0,1,.5-.37.48.48,0,0,1,.45.11q.4.34-.1.93a1,1,0,0,1-.49.36.47.47,0,0,1-.45-.1Q89,20.52,89.48,19.94Zm.25.2q-.34.4-.17.54c.11.09.28,0,.51-.27s.29-.46.18-.55S90,19.86,89.73,20.14Z"/><path class="cls-39" d="M90.06,21.2a.15.15,0,0,1,.12-.06.2.2,0,0,1,.13,0,.19.19,0,0,1,.07.12.15.15,0,0,1,0,.13.15.15,0,0,1-.12.06.2.2,0,0,1-.13-.05.19.19,0,0,1-.07-.12A.15.15,0,0,1,90.06,21.2Z"/><path class="cls-39" d="M91.18,22.32l-.76-.63.16-.19.6,0a1.26,1.26,0,0,0,.29,0,.34.34,0,0,0,.16-.11.2.2,0,0,0,0-.31.57.57,0,0,0-.39-.12l.18-.21a.77.77,0,0,1,.42.18.52.52,0,0,1,.2.32.39.39,0,0,1-.1.32.79.79,0,0,1-.6.22h-.43l.48.4Z"/><path class="cls-39" d="M78.28,33.29a1,1,0,0,1,.5-.37.48.48,0,0,1,.45.11q.4.34-.1.93a1,1,0,0,1-.49.36.47.47,0,0,1-.45-.1Q77.79,33.87,78.28,33.29Zm.25.2q-.34.4-.17.54c.11.09.28,0,.51-.27s.29-.46.18-.55S78.77,33.2,78.53,33.49Z"/><path class="cls-39" d="M78.86,34.55a.15.15,0,0,1,.12-.06.2.2,0,0,1,.13,0,.19.19,0,0,1,.07.12.15.15,0,0,1,0,.13.15.15,0,0,1-.12.06.2.2,0,0,1-.13-.05.19.19,0,0,1-.07-.12A.15.15,0,0,1,78.86,34.55Z"/><path class="cls-39" d="M80.25,35.46l-.14-.12-.21.25-.22-.19.21-.25-.51-.43.13-.15,1.12-.34.24.2-.61.73.14.12ZM80,35l.32-.38.1-.11h0l0,0-.07,0-.6.18Z"/><path class="cls-39" d="M67.08,46.64a1,1,0,0,1,.5-.37.48.48,0,0,1,.45.11q.4.34-.1.93a1,1,0,0,1-.49.36.47.47,0,0,1-.45-.1Q66.59,47.22,67.08,46.64Zm.25.2q-.34.4-.17.54c.11.09.28,0,.51-.27s.29-.46.18-.55S67.57,46.55,67.33,46.84Z"/><path class="cls-39" d="M67.66,47.89a.15.15,0,0,1,.12-.06.2.2,0,0,1,.13,0A.19.19,0,0,1,68,48a.15.15,0,0,1,0,.13.15.15,0,0,1-.12.06.2.2,0,0,1-.13-.05.19.19,0,0,1-.07-.12A.15.15,0,0,1,67.66,47.89Z"/><path class="cls-39" d="M69.53,48a.5.5,0,0,0-.15-.21.34.34,0,0,0-.3-.07.57.57,0,0,0-.31.21h0a.36.36,0,0,1,.35.08.38.38,0,0,1,.15.29.51.51,0,0,1-.13.33.52.52,0,0,1-.35.2.5.5,0,0,1-.38-.12.46.46,0,0,1-.18-.4.85.85,0,0,1,.22-.48A1,1,0,0,1,69,47.5a.59.59,0,0,1,.54.14.72.72,0,0,1,.18.21Zm-1,.16a.33.33,0,0,0-.08.19.18.18,0,0,0,.07.16.18.18,0,0,0,.17,0,.31.31,0,0,0,.16-.11c.11-.13.11-.24,0-.33a.19.19,0,0,0-.16,0A.25.25,0,0,0,68.58,48.2Z"/><path class="cls-39" d="M55.88,60a1,1,0,0,1,.5-.37.48.48,0,0,1,.45.11q.4.34-.1.93a1,1,0,0,1-.49.36.47.47,0,0,1-.45-.1Q55.39,60.57,55.88,60Zm.25.2q-.34.4-.17.54c.11.09.28,0,.51-.27s.29-.46.18-.55S56.37,59.9,56.13,60.18Z"/><path class="cls-39" d="M56.46,61.24a.15.15,0,0,1,.12-.06.2.2,0,0,1,.13,0,.19.19,0,0,1,.07.12.15.15,0,0,1,0,.13.15.15,0,0,1-.12.06.2.2,0,0,1-.13-.05.19.19,0,0,1-.07-.12A.15.15,0,0,1,56.46,61.24Z"/><path class="cls-39" d="M57.55,61.3a.36.36,0,0,1,0-.43.35.35,0,0,1,.29-.13.63.63,0,0,1,.54.44.33.33,0,0,1-.07.3.39.39,0,0,1-.46.1h0a.48.48,0,0,1,.09.27.36.36,0,0,1-.09.24.37.37,0,0,1-.32.15.65.65,0,0,1-.38-.17.57.57,0,0,1-.21-.32.36.36,0,0,1,.08-.32.42.42,0,0,1,.49-.11Zm.08.23a.29.29,0,0,0-.34.06.18.18,0,0,0,0,.15.26.26,0,0,0,.09.15.25.25,0,0,0,.16.06.17.17,0,0,0,.14-.07C57.72,61.8,57.72,61.68,57.63,61.54Zm.46-.23a.17.17,0,0,0,0-.13.19.19,0,0,0-.07-.12.2.2,0,0,0-.14,0,.16.16,0,0,0-.12.06.25.25,0,0,0,0,.29A.25.25,0,0,0,58.09,61.31Z"/><path class="cls-39" d="M45,74.57,44.29,74l.16-.19.24.2.62-.74-.3-.15.17-.2.58.31-.83,1,.24.2Z"/><path class="cls-39" d="M45.26,74.59a.15.15,0,0,1,.12-.06.2.2,0,0,1,.13,0,.19.19,0,0,1,.07.12.15.15,0,0,1,0,.13.15.15,0,0,1-.12.06.2.2,0,0,1-.13-.05.19.19,0,0,1-.07-.12A.15.15,0,0,1,45.26,74.59Z"/><path class="cls-39" d="M46.06,74.49a1,1,0,0,1,.5-.37.48.48,0,0,1,.45.11q.4.34-.1.93a1,1,0,0,1-.49.36.47.47,0,0,1-.45-.1Q45.58,75.07,46.06,74.49Zm.25.2q-.34.4-.17.54t.51-.27q.35-.41.18-.55T46.31,74.69Z"/></g></g></svg>