<svg xmlns="http://www.w3.org/2000/svg" xmlns:xlink="http://www.w3.org/1999/xlink" viewbox="0 0 128 128" width="128" height="128"><defs><style>.cls-1{isolation:isolate;stroke:none;}.cls-2{fill:url(#linear-gradient);stroke:none;}.cls-3{fill:url(#linear-gradient-2);stroke:none;}.cls-4{fill:url(#linear-gradient-3);stroke:none;}.cls-5{fill:url(#linear-gradient-4);stroke:none;}.cls-6{fill:url(#linear-gradient-5);stroke:none;}.cls-7{fill:url(#未命名的渐变_64);stroke:none;}.cls-8{fill:url(#未命名的渐变_136);stroke:none;}.cls-9{fill:#e6e6e5;stroke:none;}.cls-10,.cls-11,.cls-38{fill:none;stroke:none;}.cls-10,.cls-11{stroke:#4e4e4e;}.cls-10{stroke-width:0.49px;}.cls-11{stroke-width:0.49px;}.cls-12{fill:url(#Linear_Gradient_1);stroke:none;}.cls-13{fill:#1a1a1a;stroke:none;}.cls-14{fill:url(#Linear_Gradient_1-2);stroke:none;}.cls-15{fill:url(#Linear_Gradient_1-3);stroke:none;}.cls-16{fill:url(#Linear_Gradient_1-4);stroke:none;}.cls-17{fill:url(#Linear_Gradient_1-5);stroke:none;}.cls-18{fill:url(#Linear_Gradient_1-6);stroke:none;}.cls-19{fill:url(#Linear_Gradient_1-7);stroke:none;}.cls-20{fill:url(#linear-gradient-6);stroke:none;}.cls-21{fill:#f5f5f5;stroke:none;}.cls-22{fill:url(#linear-gradient-7);stroke:none;}.cls-23{fill:#e6e6e6;stroke:none;}.cls-24{fill:#010101;stroke:none;}.cls-25{fill:#be202e;stroke:none;}.cls-26{fill:url(#未命名的渐变_159);stroke:none;}.cls-27{fill:#bec0c2;opacity:0.55;mix-blend-mode:multiply;stroke:none;}.cls-28{fill:url(#未命名的渐变_2);stroke:none;}.cls-29{fill:#fff;opacity:0.43;stroke:none;}.cls-30{fill:url(#radial-gradient);stroke:none;}.cls-31{fill:#535353;stroke:none;}.cls-32{fill:url(#radial-gradient-2);stroke:none;}.cls-33{fill:url(#未命名的渐变_116);stroke:none;}.cls-34{fill:url(#未命名的渐变_100);stroke:none;}.cls-35{fill:url(#未命名的渐变_205);stroke:none;}.cls-36{fill:url(#New_Gradient_183);stroke:none;}.cls-37{fill:url(#未命名的渐变_52);stroke:none;}.cls-39{fill-rule:evenodd;fill:url(#New_Gradient_27);stroke:none;}</style><linearGradient id="linear-gradient" x1="30.54" y1="112.86" x2="33.67" y2="112.86" gradientunits="userSpaceOnUse"><stop offset="0" stop-color="#0a0a0a"/><stop offset="0.16" stop-color="#2e2e2e"/><stop offset="0.19" stop-color="#282828"/><stop offset="0.29" stop-color="#121212"/><stop offset="0.39" stop-color="#050505"/><stop offset="0.48"/><stop offset="0.62" stop-color="#030303"/><stop offset="0.73" stop-color="#0d0d0d"/><stop offset="0.82" stop-color="#1c1c1c"/><stop offset="0.91" stop-color="#0c0c0c"/><stop offset="1"/></linearGradient><linearGradient id="linear-gradient-2" x1="29.8" y1="112.43" x2="34.48" y2="112.02" gradienttransform="matrix(1, 0.12, 0, 1, 0, -3.78)" gradientunits="userSpaceOnUse"><stop offset="0" stop-color="#8a8a8a"/><stop offset="0.16" stop-color="#acacac"/><stop offset="0.51" stop-color="#fff"/><stop offset="0.7" stop-color="#c2c2c2"/><stop offset="0.8" stop-color="#797979"/><stop offset="0.94" stop-color="#222"/><stop offset="1"/></linearGradient><linearGradient id="linear-gradient-3" x1="93.94" y1="102.85" x2="97.07" y2="102.85" xlink:href="#linear-gradient"><linearGradient id="linear-gradient-4" x1="62.51" y1="116.52" x2="65.77" y2="116.52" xlink:href="#linear-gradient"><linearGradient id="linear-gradient-5" x1="61.74" y1="112.16" x2="66.61" y2="111.73" xlink:href="#linear-gradient-2"><linearGradient id="&#x672A;&#x547D;&#x540D;&#x7684;&#x6E10;&#x53D8;_64" x1="68.67" y1="27.59" x2="60.91" y2="116.27" gradientunits="userSpaceOnUse"><stop offset="0" stop-color="#cfd1d2"/><stop offset="0.71" stop-color="#fff"/><stop offset="1" stop-color="#bec0c2"/></linearGradient><linearGradient id="&#x672A;&#x547D;&#x540D;&#x7684;&#x6E10;&#x53D8;_136" x1="65.98" y1="41.91" x2="100.19" y2="101.17" gradientunits="userSpaceOnUse"><stop offset="0" stop-color="#ededed"/><stop offset="0.3" stop-color="#eaeaea"/><stop offset="0.5" stop-color="#e1e1e1"/><stop offset="0.68" stop-color="#d2d2d2"/><stop offset="0.84" stop-color="#bcbcbc"/><stop offset="0.89" stop-color="#b5b5b5"/></linearGradient><linearGradient id="Linear_Gradient_1" x1="54.36" y1="56.29" x2="57.18" y2="57.15" gradienttransform="matrix(1, -0.01, -0.08, 1, 4.62, 0.3)" gradientunits="userSpaceOnUse"><stop offset="0" stop-color="#fff"/><stop offset="1"/></linearGradient><linearGradient id="Linear_Gradient_1-2" x1="124.03" y1="117.05" x2="124.74" y2="117.27" gradienttransform="matrix(-0.03, -0.99, -1, 0.2, 198.34, 210.04)" xlink:href="#Linear_Gradient_1"><linearGradient id="Linear_Gradient_1-3" x1="125.3" y1="116.92" x2="126.01" y2="117.14" gradienttransform="matrix(-0.03, -0.99, -1, 0.2, 198.34, 210.04)" xlink:href="#Linear_Gradient_1"><linearGradient id="Linear_Gradient_1-4" x1="126.49" y1="116.8" x2="127.21" y2="117.02" gradienttransform="matrix(-0.03, -0.99, -1, 0.2, 198.34, 210.04)" xlink:href="#Linear_Gradient_1"><linearGradient id="Linear_Gradient_1-5" x1="127.83" y1="103.97" x2="128.54" y2="104.19" gradienttransform="matrix(-0.03, -0.99, -1, 0.2, 198.34, 210.04)" xlink:href="#Linear_Gradient_1"><linearGradient id="Linear_Gradient_1-6" x1="129.09" y1="103.84" x2="129.81" y2="104.06" gradienttransform="matrix(-0.03, -0.99, -1, 0.2, 198.34, 210.04)" xlink:href="#Linear_Gradient_1"><linearGradient id="Linear_Gradient_1-7" x1="130.29" y1="103.73" x2="131" y2="103.94" gradienttransform="matrix(-0.03, -0.99, -1, 0.2, 198.34, 210.04)" xlink:href="#Linear_Gradient_1"><linearGradient id="linear-gradient-6" x1="68.77" y1="37.79" x2="77.13" y2="42.97" gradienttransform="matrix(0.99, 0.02, -0.34, 1, 14, -1.41)" gradientunits="userSpaceOnUse"><stop offset="0" stop-color="#d6d6d6"/><stop offset="0.41" stop-color="#f0f0f0"/><stop offset="0.44" stop-color="#dbdbdb"/><stop offset="0.5" stop-color="#bdbdbd"/><stop offset="0.56" stop-color="#a4a4a4"/><stop offset="0.63" stop-color="#919191"/><stop offset="0.71" stop-color="#848484"/><stop offset="0.81" stop-color="#7c7c7c"/><stop offset="1" stop-color="#7a7a7a"/></linearGradient><linearGradient id="linear-gradient-7" x1="75.76" y1="44.61" x2="70.16" y2="35.98" gradienttransform="matrix(0.99, 0.02, -0.34, 1, 14, -1.41)" gradientunits="userSpaceOnUse"><stop offset="0" stop-color="#ebebeb"/><stop offset="0.41" stop-color="#fff"/><stop offset="0.41" stop-color="#fdfdfd"/><stop offset="0.45" stop-color="#cfcfcf"/><stop offset="0.49" stop-color="#a6a6a6"/><stop offset="0.53" stop-color="#828282"/><stop offset="0.58" stop-color="#636363"/><stop offset="0.63" stop-color="#4b4b4b"/><stop offset="0.69" stop-color="#373737"/><stop offset="0.75" stop-color="#2a2a2a"/><stop offset="0.84" stop-color="#222"/><stop offset="1" stop-color="#202020"/></linearGradient><linearGradient id="&#x672A;&#x547D;&#x540D;&#x7684;&#x6E10;&#x53D8;_159" x1="63.95" y1="28.62" x2="70.54" y2="28.62" gradienttransform="translate(3.96)" gradientunits="userSpaceOnUse"><stop offset="0" stop-color="#5f6062"/><stop offset="0.24" stop-color="#9d9fa1"/><stop offset="1" stop-color="#444446"/></linearGradient><linearGradient id="&#x672A;&#x547D;&#x540D;&#x7684;&#x6E10;&#x53D8;_2" x1="65.17" y1="24.36" x2="69.34" y2="27.62" gradienttransform="translate(3.96)" gradientunits="userSpaceOnUse"><stop offset="0" stop-color="#e7e8e7"/><stop offset="1" stop-color="#b5b9bc"/></linearGradient><radialGradient id="radial-gradient" cx="72.31" cy="12.12" r="38.06" gradienttransform="matrix(-1.07, 0, 0, 1, 132.01, 0)" gradientunits="userSpaceOnUse"><stop offset="0" stop-color="#e3e3e3"/><stop offset="0.84" stop-color="#737373"/><stop offset="1" stop-color="#707070"/></radialGradient><radialGradient id="radial-gradient-2" cx="67.26" cy="13.9" r="17.28" gradienttransform="matrix(-1.07, 0, 0, 1, 132.01, 0)" gradientunits="userSpaceOnUse"><stop offset="0" stop-color="#ababab"/><stop offset="0.16" stop-color="#a7a7a7"/><stop offset="0.32" stop-color="#9c9c9c"/><stop offset="0.47" stop-color="#898989"/><stop offset="0.61" stop-color="#6e6e6e"/><stop offset="0.76" stop-color="#4c4c4c"/><stop offset="0.9" stop-color="#222"/><stop offset="1"/></radialGradient><linearGradient id="&#x672A;&#x547D;&#x540D;&#x7684;&#x6E10;&#x53D8;_116" x1="29.83" y1="11.12" x2="88.66" y2="11.12" gradienttransform="matrix(-1, 0, 0, 1, 131.09, 0)" gradientunits="userSpaceOnUse"><stop offset="0" stop-color="#5e6060"/><stop offset="0.09" stop-color="#727474"/><stop offset="0.27" stop-color="#979899"/><stop offset="0.46" stop-color="#b3b5b5"/><stop offset="0.64" stop-color="#c8c9ca"/><stop offset="0.82" stop-color="#d4d5d6"/><stop offset="1" stop-color="#d8d9da"/></linearGradient><linearGradient id="&#x672A;&#x547D;&#x540D;&#x7684;&#x6E10;&#x53D8;_100" x1="29.83" y1="10.57" x2="88.66" y2="10.57" gradienttransform="matrix(-1, 0, 0, 1, 131.09, 0)" gradientunits="userSpaceOnUse"><stop offset="0" stop-color="#e5e7e8"/><stop offset="0.23" stop-color="#e1e3e4"/><stop offset="0.46" stop-color="#d5d7d8"/><stop offset="0.69" stop-color="#c1c3c3"/><stop offset="0.92" stop-color="#a6a7a7"/><stop offset="1" stop-color="#9b9c9c"/></linearGradient><linearGradient id="&#x672A;&#x547D;&#x540D;&#x7684;&#x6E10;&#x53D8;_205" x1="56.34" y1="47.09" x2="63.49" y2="43.21" gradienttransform="matrix(1, -0.29, 0, 1, 0, 17.36)" gradientunits="userSpaceOnUse"><stop offset="0" stop-color="#6a6a6b"/><stop offset="0.11" stop-color="#646364"/><stop offset="0.62" stop-color="#3f3e3f"/><stop offset="0.76" stop-color="#7d7c7e"/><stop offset="1" stop-color="#48484a"/></linearGradient><linearGradient id="New_Gradient_183" x1="61.61" y1="48.45" x2="58.47" y2="41.35" gradienttransform="matrix(1, -0.29, 0, 1, 0, 17.36)" gradientunits="userSpaceOnUse"><stop offset="0.06" stop-color="#a3a4a7"/><stop offset="0.39" stop-color="#a5a7a8"/><stop offset="0.54" stop-color="#f3f4f4"/><stop offset="0.94" stop-color="#f3f4f4"/></linearGradient><linearGradient id="&#x672A;&#x547D;&#x540D;&#x7684;&#x6E10;&#x53D8;_52" x1="56.19" y1="45.87" x2="63.64" y2="43.87" gradientunits="userSpaceOnUse"><stop offset="0.01" stop-color="#d8d9da"/><stop offset="0.1" stop-color="#dcddde"/><stop offset="0.19" stop-color="#e8e9e9"/><stop offset="0.28" stop-color="#fcfcfc"/><stop offset="0.29" stop-color="#fff"/><stop offset="0.4" stop-color="#f1f2f2"/><stop offset="0.59" stop-color="#cececf"/><stop offset="0.85" stop-color="#949697"/><stop offset="1" stop-color="#6f7173"/></linearGradient><radialGradient id="New_Gradient_27" cx="-326.13" cy="513.67" r="0.61" gradienttransform="matrix(0.14, -1, 0.92, -0.17, -365.93, -194.61)" gradientunits="userSpaceOnUse"><stop offset="0" stop-color="#ed2024"/><stop offset="0.53" stop-color="#991b1e"/><stop offset="1" stop-color="#5b0b0c"/></radialGradient></linearGradient></linearGradient></linearGradient></linearGradient></linearGradient></linearGradient></linearGradient></linearGradient></linearGradient></defs><title>&#x751F;&#x7269;&#x4EEA;&#x5668;</title><g class="cls-1"><g id="Bio_instruments&#x751F;&#x7269;&#x4EEA;&#x5668;" data-name="Bio instruments&#x751F;&#x7269;&#x4EEA;&#x5668;"><rect class="cls-2" x="30.54" y="110.74" width="3.13" height="4.23" rx="1.57" ry="1.57"/><path class="cls-3" d="M34.42,113.5a.19.19,0,0,1-.22.18l-4.11-.45a.24.24,0,0,1-.22-.22v-1.74a.19.19,0,0,1,.22-.18l4.11.45a.24.24,0,0,1,.22.22Z"/><rect class="cls-4" x="93.94" y="100.74" width="3.13" height="4.23" rx="1.57" ry="1.57"/><rect class="cls-5" x="62.51" y="114.32" width="3.26" height="4.41" rx="1.57" ry="1.57"/><path class="cls-6" d="M66.55,117.19a.19.19,0,0,1-.23.18L62,116.91a.25.25,0,0,1-.23-.23v-1.82a.19.19,0,0,1,.23-.18l4.28.46a.25.25,0,0,1,.23.23Z"/><path class="cls-7" d="M26.82,112.15V92.57A25.57,25.57,0,0,1,28.31,84l20-52.32s15.26-1.72,16.25-1.72l33.87.24v72L70.2,117.09Z"/><path class="cls-8" d="M70.2,117.09,98.4,102.2v-72c-1,0-15.31,1.84-15.31,1.84L70.66,89.27a20.55,20.55,0,0,0-.47,4.36Z"/><path class="cls-9" d="M48.29,31.67,83.1,32,98.4,30.19l-33.87-.24C63.55,29.95,48.29,31.67,48.29,31.67Z"/><line class="cls-10" x1="46.17" y1="45.4" x2="53.76" y2="45.66"/><line class="cls-10" x1="45.16" y1="48.14" x2="48.95" y2="48.28"/><line class="cls-10" x1="43.92" y1="51.51" x2="51.51" y2="51.77"/><line class="cls-10" x1="42.91" y1="54.25" x2="46.69" y2="54.39"/><line class="cls-10" x1="41.65" y1="57.67" x2="49.24" y2="57.94"/><line class="cls-10" x1="40.64" y1="60.42" x2="44.42" y2="60.55"/><line class="cls-10" x1="39.44" y1="63.67" x2="47.03" y2="63.94"/><line class="cls-10" x1="38.43" y1="66.42" x2="42.21" y2="66.55"/><line class="cls-10" x1="37.16" y1="69.84" x2="44.75" y2="70.1"/><line class="cls-10" x1="36.15" y1="72.58" x2="39.94" y2="72.72"/><line class="cls-11" x1="67.06" y1="46.1" x2="75.14" y2="46.32"/><line class="cls-11" x1="66" y1="48.88" x2="74.09" y2="49.09"/><line class="cls-11" x1="64.71" y1="52.28" x2="72.79" y2="52.49"/><line class="cls-11" x1="63.65" y1="55.05" x2="71.74" y2="55.27"/><line class="cls-11" x1="62.34" y1="58.51" x2="70.42" y2="58.73"/><line class="cls-11" x1="61.28" y1="61.29" x2="69.36" y2="61.51"/><line class="cls-11" x1="60.03" y1="64.58" x2="68.11" y2="64.79"/><line class="cls-11" x1="58.97" y1="67.35" x2="67.06" y2="67.57"/><line class="cls-11" x1="57.66" y1="70.81" x2="65.74" y2="71.03"/><line class="cls-11" x1="56.6" y1="73.59" x2="64.69" y2="73.81"/><path class="cls-12" d="M63.69,35.42a1,1,0,0,0-.91.06,1.56,1.56,0,0,0-.68.83L47.23,76.18A1.45,1.45,0,0,0,47.8,78a.94.94,0,0,0,.39.08,1.38,1.38,0,0,0,1.2-1L64.26,37.27A1.45,1.45,0,0,0,63.69,35.42Z"/><path class="cls-13" d="M48.24,78a.64.64,0,0,1-.26-.06,1,1,0,0,1-.38-1.24L62.65,36.75a.84.84,0,0,1,1.07-.59,1,1,0,0,1,.38,1.24L49,77.34A.93.93,0,0,1,48.24,78Z"/><path class="cls-14" d="M83.38,107a.25.25,0,0,1,0,.23.45.45,0,0,1-.21.2l-10,4.94a.35.35,0,0,1-.47-.09.22.22,0,0,1,0-.1.39.39,0,0,1,.24-.33l10-4.94A.35.35,0,0,1,83.38,107Z"/><path class="cls-13" d="M72.7,112.18a.15.15,0,0,0,0,.06.23.23,0,0,0,.32.06l10-5a.2.2,0,1,0-.17-.35l-10,5A.26.26,0,0,0,72.7,112.18Z"/><path class="cls-15" d="M83.48,105.73a.25.25,0,0,1,0,.23.45.45,0,0,1-.21.2l-10,4.94a.35.35,0,0,1-.47-.09.22.22,0,0,1,0-.1.39.39,0,0,1,.24-.33l10-4.94A.35.35,0,0,1,83.48,105.73Z"/><path class="cls-13" d="M72.8,110.89a.15.15,0,0,0,0,.06.23.23,0,0,0,.32.06l10-5a.2.2,0,1,0-.17-.35l-10,5A.26.26,0,0,0,72.8,110.89Z"/><path class="cls-16" d="M83.57,104.51a.25.25,0,0,1,0,.23.45.45,0,0,1-.21.2l-10,4.94a.35.35,0,0,1-.47-.09.22.22,0,0,1,0-.1.39.39,0,0,1,.24-.33l10-4.94A.35.35,0,0,1,83.57,104.51Z"/><path class="cls-13" d="M72.89,109.68a.15.15,0,0,0,0,.06.23.23,0,0,0,.32.06l10-5a.2.2,0,1,0-.17-.35l-10,5A.26.26,0,0,0,72.89,109.68Z"/><path class="cls-17" d="M96.37,100.63a.25.25,0,0,1,0,.23.45.45,0,0,1-.21.2l-10,4.94a.35.35,0,0,1-.47-.09.22.22,0,0,1,0-.1.39.39,0,0,1,.24-.33l10-4.94A.35.35,0,0,1,96.37,100.63Z"/><path class="cls-13" d="M85.69,105.79a.15.15,0,0,0,0,.06.23.23,0,0,0,.32.06l10-5a.2.2,0,1,0-.17-.35l-10,5A.26.26,0,0,0,85.69,105.79Z"/><path class="cls-18" d="M96.46,99.35a.25.25,0,0,1,0,.23.45.45,0,0,1-.21.2l-10,4.94a.35.35,0,0,1-.47-.09.22.22,0,0,1,0-.1.39.39,0,0,1,.24-.33l10-4.94A.35.35,0,0,1,96.46,99.35Z"/><path class="cls-13" d="M85.78,104.51a.15.15,0,0,0,0,.06.23.23,0,0,0,.32.06l10-5A.2.2,0,1,0,96,99.3l-10,5A.26.26,0,0,0,85.78,104.51Z"/><path class="cls-19" d="M96.55,98.13a.25.25,0,0,1,0,.23.45.45,0,0,1-.21.2l-10,4.94a.35.35,0,0,1-.47-.09.22.22,0,0,1,0-.1.39.39,0,0,1,.24-.33l10-4.94A.35.35,0,0,1,96.55,98.13Z"/><path class="cls-13" d="M85.87,103.29a.15.15,0,0,0,0,.06.23.23,0,0,0,.32.06l10-5a.2.2,0,1,0-.17-.35l-10,5A.26.26,0,0,0,85.87,103.29Z"/><path class="cls-20" d="M75.27,43.57l-7.16-.16c-.28,0-.42-.27-.31-.58L69.46,38a.83.83,0,0,1,.7-.56l7.18.08c.29,0,.43.27.32.58L76,43a.84.84,0,0,1-.72.57Z"/><path class="cls-21" d="M75.63,43a.27.27,0,0,1-.23.18L68.24,43c-.09,0-.14-.09-.1-.19L69.8,38a.27.27,0,0,1,.23-.18l7.18.09c.09,0,.14.09.1.19Z"/><path class="cls-21" d="M75.63,43a.27.27,0,0,1-.23.18L68.24,43c-.09,0-.14-.09-.1-.19L69.8,38a.27.27,0,0,1,.23-.18l7.18.09c.09,0,.14.09.1.19Z"/><path class="cls-22" d="M75.63,43a.27.27,0,0,1-.23.18L68.24,43c-.09,0-.14-.09-.1-.19L69.8,38a.27.27,0,0,1,.23-.18l7.18.09c.09,0,.14.09.1.19Z"/><polygon class="cls-23" points="75.37 42.8 68.53 42.66 70.07 38.2 76.92 38.29 75.37 42.8 75.37 42.8"/><path class="cls-24" d="M75.35,41.83l-1.07,0c-.06,0-.1-.06-.07-.13l.07-.19a.19.19,0,0,1,.16-.13l1.07,0c.06,0,.1.06.07.13l-.07.2a.19.19,0,0,1-.16.13Zm-5.11-.1-1,0c-.06,0-.09-.06-.07-.13l.07-.19a.19.19,0,0,1,.16-.13l1,0c.06,0,.1.06.07.13l-.07.19a.19.19,0,0,1-.16.13Zm.62-1.13-.05,0-.33-.28a.13.13,0,0,1,0-.18l.14-.17a.18.18,0,0,1,.09-.06h0l0,0,.33.28a.09.09,0,0,1,0,.08.18.18,0,0,1,0,.1l-.15.17a.17.17,0,0,1-.12.06Zm3.59.06h0a.07.07,0,0,1,0-.06l0-.17a.18.18,0,0,1,.1-.18L75,40,75,40h0a.07.07,0,0,1,0,.06l0,.17a.18.18,0,0,1-.1.18l-.53.27-.06,0ZM74,39.78l-.05,0-.12-.1a.08.08,0,0,1,0-.08.18.18,0,0,1,0-.1L74.3,39a.17.17,0,0,1,.12-.06l.05,0,.12.1a.09.09,0,0,1,0,.08.17.17,0,0,1,0,.1l-.42.48a.17.17,0,0,1-.12.06Zm-2.18,0h0a.07.07,0,0,1,0-.06l-.08-.48a.18.18,0,0,1,.1-.18l.18-.1.06,0h0a.07.07,0,0,1,0,.06l.08.48a.18.18,0,0,1-.1.18l-.18.1-.06,0Zm1.29-.33H73c-.06,0-.1-.06-.07-.13l.19-.55a.19.19,0,0,1,.16-.13h.17c.06,0,.1.06.07.13l-.19.55a.19.19,0,0,1-.16.13Z"/><path class="cls-25" d="M72.5,41.47l.8-2.74-1.09,2.74a.4.4,0,0,0-.15.19c0,.14,0,.26.14.26a.37.37,0,0,0,.31-.25A.21.21,0,0,0,72.5,41.47Z"/><path class="cls-24" d="M71,42.18h0c.12,0,.07.15,0,.14h0l0,.07h.29l.1-.28H71Zm.7.1c0,.09-.21.09-.18,0l.05-.16h-.05l-.1.28h.34l.1-.28h-.11Zm.87,0h0a.05.05,0,0,1-.06,0,.12.12,0,0,1-.1,0h0s0,0,0,0l0-.11h-.06l-.1.28h.34l.1-.28h-.09Zm.5,0h.2v0h-.35l0,.07s-.11,0-.09,0l0-.07h0l-.1.28h.47l0-.1H73C72.86,42.33,72.91,42.18,73,42.18Zm-1.1.22h.14l.1-.28H72Z"/><path class="cls-26" d="M74.44,30.3a.65.65,0,0,1-.42.54,6.45,6.45,0,0,1-2.86.49,6.29,6.29,0,0,1-2.86-.49.6.6,0,0,1-.38-.51L68,25.91h6.53Z"/><path class="cls-27" d="M73.15,31.13a4.08,4.08,0,0,0,.87-.29.65.65,0,0,0,.42-.54l.06-4.39H73.23Z"/><path class="cls-28" d="M69.5,25.08l-1.33.61c-.19.08-.27.21-.22.33.15.34.83.89,3.31.86s3-.5,3.23-.8c.08-.11,0-.23-.12-.31L72.82,25Z"/><path class="cls-29" d="M68.48,30.92a4.58,4.58,0,0,0,.94.27l.11-5.27h-1Z"/><path class="cls-30" d="M42.8,10.6h57.88c.44,0-.64,1.51-.64,1.51C95.12,22.38,84.78,26.82,71.68,26.82c-12.47,0-23.16-4.9-28.24-14.71C43.44,12.11,42.35,10.6,42.8,10.6Z"/><path class="cls-31" d="M95.81,19.8a.48.48,0,0,0,0-.71h0a.56.56,0,0,0-.76,0h0c-5.61,5.12-13.61,7.69-22.63,7.69h-1.2c-.3,0,.38.06.38.34h.07c7.24.48,18.27-2,24.13-7.33Z"/><path class="cls-31" d="M55.61,14.26a2.08,2.08,0,0,1,.9.14c1.42.61,3,2.19,4.85,4.69,3.24,4.91,7.48,8,11.82,7.89a8.5,8.5,0,0,0,.94-.06c-.9.1-2.1.16-3,.21a29.13,29.13,0,0,1-5.06-.36,28.74,28.74,0,0,1-4.91-1.25c-.75-.27-1.71-.69-2.45-1-2.38-1.1-4.63-4.72-5.37-7.89C53.08,14.64,54.23,14.31,55.61,14.26Z"/><path class="cls-32" d="M54.92,14.36c1.51.47,3.28,2.1,5.25,4.85,3.24,4.91,7.48,8,11.82,7.89.32,0-1.16.09-2.06.14a29,29,0,0,1-5.06-.36A28.77,28.77,0,0,1,60,25.63c-.75-.27-1.72-.69-2.45-1-2.38-1.1-4-3.44-4.73-6.61C52.5,15.8,53.33,14.37,54.92,14.36Z"/><path class="cls-33" d="M42.43,11.12c0,1.74,13.17,3.15,29.42,3.15s29.41-1.41,29.41-3.15v-.55C98.66,9.11,86.18,8,71.85,8S45,9.11,42.43,10.57Z"/><ellipse class="cls-34" cx="71.84" cy="10.57" rx="29.42" ry="2.6"/><path class="cls-35" d="M64.62,44.17a5.7,5.7,0,0,1-4.38,5.1c-2.45.66-4.53-1.25-4.55-2.84,0-2.29,2-4.77,4.5-5.43A3.31,3.31,0,0,1,64.62,44.17Z"/><path class="cls-36" d="M64.27,43.74a5.79,5.79,0,0,1-4.36,5.09c-2.41.63-4.36-.64-4.36-2.82a5.79,5.79,0,0,1,4.36-5.09C62.32,40.29,64.27,41.55,64.27,43.74Z"/><path class="cls-37" d="M59.92,48.18c-2,.52-3.64-.53-3.64-2.36a4.85,4.85,0,0,1,3.64-4.26c2-.52,3.64.53,3.64,2.36a4.85,4.85,0,0,1-3.64,4.26Z"/><path class="cls-38" d="M63.47,43.19a2.43,2.43,0,0,0-.42-.86,2.33,2.33,0,0,0-.7-.6,2.79,2.79,0,0,0-.91-.32,3.61,3.61,0,0,0-1.07,0,4.54,4.54,0,0,0-1.17.32,5.45,5.45,0,0,0-1.18.68,5.38,5.38,0,0,0-1,1,4.76,4.76,0,0,0-.67,1.16,3.65,3.65,0,0,0-.27,1.26A2.65,2.65,0,0,0,56.36,47a2.3,2.3,0,0,0,.79.91,2.73,2.73,0,0,0,1.09.42,3.69,3.69,0,0,0,1.23,0,4.72,4.72,0,0,0,1.25-.41,5.54,5.54,0,0,0,1.15-.75,5.3,5.3,0,0,0,.87-.94,4.69,4.69,0,0,0,.56-1,3.75,3.75,0,0,0,.25-1A2.86,2.86,0,0,0,63.47,43.19Zm-4.28,2.08-.57.35.57-.35.64-.4Z"/><path class="cls-39" d="M61.91,42.74a.51.51,0,0,1,.37-.41c.18,0,.3.1.27.29a.51.51,0,0,1-.37.41C62,43.07,61.88,42.94,61.91,42.74Z"/></g></g></svg>