<svg id="Bio_instruments&#x751F;&#x7269;&#x4EEA;&#x5668;" data-name="Bio instruments&#x751F;&#x7269;&#x4EEA;&#x5668;" xmlns="http://www.w3.org/2000/svg" viewbox="0 0 128 128" width="128" height="128"><defs><style>.cls-1{fill:#d3d3d3;stroke:none;}.cls-2{fill:#adaeb0;stroke:none;}.cls-3{fill:#9da4a2;stroke:none;}.cls-4{fill:#f0efef;stroke:none;}.cls-5{fill:#cbccce;stroke:none;}.cls-6{fill:#e0e1e0;stroke:none;}.cls-7{fill:#e2e3e4;stroke:none;}.cls-8{fill:#7b7c7d;stroke:none;}.cls-9{fill:#a1a6a7;stroke:none;}.cls-10{fill:#565655;stroke:none;}.cls-11,.cls-12{fill:#d6d8d8;stroke:#68696c;stroke-linecap:round;stroke-linejoin:round;}.cls-11,.cls-14{stroke-width:0.25px;}.cls-12,.cls-13{stroke-width:0.5px;}.cls-13,.cls-14,.cls-15{fill:none;stroke-miterlimit:10;}.cls-13,.cls-15{stroke:#babcbe;}.cls-14{stroke:#aaacaf;}.cls-15{stroke-width:0.51px;}</style></defs><title>&#x751F;&#x7269;&#x4EEA;&#x5668;</title><path class="cls-1" d="M70.92,105.61c1.77-4.48-1.05-9-4.35-10.74S61.34,92.23,61,90.8s1-3.54,2.34-5.75,25-40.13,25-40.13l20.21-24.24-.42-1-.36-.31L93.65,34l11.87-16.45L104,17.27,83.51,40.92,45.22,73.3s-1.82,2-3.92.82S38.5,69.9,35.16,68s-8.68-2.32-13.74,3.63S19,83.33,21.49,85.58s7.63,3,11.69-.45,5.88-5.75,8.66-5.66,6.4,4.44,6.62,4.56,1.74.15,1.51-.47-3.23-5.63-3-7.14,12.31-11,14.13-12.62S84.43,44.19,84.43,44.19l.26.21L59.4,85.94a2.81,2.81,0,0,1-3.91,1.25c-2.71-1.28-3.72-2.19-3.94-2s-.73,1.36-.37,1.6,5,3.62,5.39,5.71-1.93,5.34-3.64,8.19-4.44,9.07,2.42,13.4S69.15,110.09,70.92,105.61Zm-37-24c-4.11,4.49-7.54,4.49-10.13,2.42-3.26-2.59-4.26-6.67.21-11.65,5-5.57,8.56-3.46,11.17-1.1S38,77.09,33.93,81.58Zm21.69,29.23c-2.49-2.2-3-5.8.2-10.3,3.47-4.86,7-5.17,9.91-2.89,2.77,2.17,4.63,6.08,1.07,10.8C62.84,113.66,58.73,113.56,55.62,110.81Z"/><polygon class="cls-2" points="90.74 42.06 108.56 20.69 108.14 19.71 107.78 19.41 93.65 34.02 105.52 17.58 104.04 17.27 83.65 40.76 90.74 42.06"/><polygon class="cls-3" points="92.65 39.77 108.56 20.69 108.14 19.71 107.78 19.41 93.65 34.02 91.64 36.34 92.65 39.77"/><path class="cls-4" d="M90.85,41.93l-7-1.43-.37.42-20.09,17,3.77.78,17.25-14.5.26.21L75,60.3l3.32.68,10-16.06Z"/><path class="cls-5" d="M108.56,20.69l-.42-1-.36-.31L95.53,32.07,92,36s-.31.7-.52.52,0-.48.3-.83l13.49-18.15L104,17.27l-20.4,23.5,7.1,1.29Z"/><path class="cls-6" d="M88.35,44.93l2.5-3-7-1.43-.37.42-8.06,6.82,3.81.8,5.19-4.36.26.21-2.85,4.68,3.47.72Z"/><path class="cls-7" d="M66.57,94.88c-3.3-1.77-5.23-2.65-5.53-4.08s1-3.54,2.34-5.75c.15-.26.61-1,1.29-2.1L61.78,82,59.4,85.94a2.81,2.81,0,0,1-3.91,1.25c-2.71-1.28-3.72-2.19-3.94-2s-.73,1.36-.37,1.6,5,3.62,5.39,5.71c.2,1.2-.46,2.77-1.38,4.44l2.5,1.38c2.85-2.71,5.64-2.59,8-.71a7.06,7.06,0,0,1,2.94,6.76l2.26,1.23C72.69,101.13,69.86,96.65,66.57,94.88Z"/><polygon class="cls-8" points="93.65 34.02 91.64 36.34 108.14 19.71 107.78 19.41 93.65 34.02"/><path class="cls-7" d="M24,72.35a11.78,11.78,0,0,1,3.75-3L25,68.49a16,16,0,0,0-3.55,3.17,11.51,11.51,0,0,0-2.77,5.69L21,78.51C21.08,76.68,22,74.6,24,72.35Z"/><path class="cls-7" d="M47,76.42a2.13,2.13,0,0,1,.47-.75l-4.09-1.3a2.79,2.79,0,0,1-2.1-.25,4.31,4.31,0,0,1-.94-.71L35.84,72c1.94,2.33,1.8,5.56-1.92,9.62a16.17,16.17,0,0,1-2.35,2.15l2.05,1c3.73-3.21,5.54-5.36,8.21-5.26s6.4,4.44,6.62,4.56,1.74.15,1.51-.47S46.74,77.93,47,76.42Z"/><path class="cls-5" d="M45.22,73.3s-1.82,2-3.92.82S38.5,69.9,35.16,68s-8.43-2.28-13.37,3.24l2.64.64c4.76-5,8.21-2.95,10.74-.66A5.34,5.34,0,0,1,37.07,75l10,2.43a2.47,2.47,0,0,1-.1-1c.27-1.51,12.31-11,14.13-12.62.61-.53,3.45-2.93,6.95-5.87L64.44,57Z"/><path class="cls-9" d="M66.57,94.88c-3.3-1.77-5.23-2.65-5.53-4.08s1-3.54,2.34-5.75,25-40.13,25-40.13l4.81-5.76L92.74,39l-4.86,5.65S63.71,83.55,62.61,85.45s-3,4.05-1.82,6.25,4.13,2.37,6.85,4.59c4.62,3.77,3.2,9.23,1.22,12.1S61,117.69,55.21,113s-2.32-10.14.12-14.21,2.51-5.54,2.14-7.14-7-5-5.52-5.92c.16-.1,4.42,2.49,5.91,2.4a3.82,3.82,0,0,0,2.51-1.75L85.62,44.71a.59.59,0,0,0-.07-.71l-.27-.3a.64.64,0,0,0-.88-.06C80.15,47.19,48.3,73.82,46.81,75.25S48,80.89,49.1,82.78c.17.3-.61.68-.88.35s-3.29-3.46-5-4.11a5.91,5.91,0,0,0-5.33,1.1c-1.11,1-9.47,11.1-16.12,4.66s1.19-13.7,4.15-16,6.83-1.41,9.16,0c3.08,1.89,3.56,4.68,6.47,6a3.82,3.82,0,0,0,4-.65l39.13-33,20.22-23.74-.82-.17L83.51,40.92,45.22,73.3s-1.82,2-3.92.82S38.5,69.9,35.16,68s-8.68-2.32-13.74,3.63S19,83.33,21.49,85.58s7.63,3,11.69-.45,5.88-5.75,8.66-5.66,6.4,4.44,6.62,4.56,1.74.15,1.51-.47-3.23-5.63-3-7.14,12.31-11,14.13-12.62S84.43,44.19,84.43,44.19l.26.21L59.4,85.94a2.81,2.81,0,0,1-3.91,1.25c-2.71-1.28-3.64-2.12-3.92-2s-1.38.86-.4,1.64c.34.27,5,3.62,5.39,5.71s-1.93,5.34-3.64,8.19-4.44,9.07,2.42,13.4,13.81-4,15.58-8.49S69.87,96.65,66.57,94.88Z"/><polygon class="cls-10" points="91.64 36.34 92.65 39.77 93.18 39.13 92.16 35.74 91.64 36.34"/><polygon class="cls-10" points="84.28 40.26 84.96 44.63 85.5 43.98 84.8 39.65 84.28 40.26"/><circle class="cls-11" cx="89.42" cy="39.47" r="1.02" transform="translate(1.71 82.6) rotate(-50)"/><line class="cls-12" x1="89.35" y1="38.59" x2="89.52" y2="40.3"/><path class="cls-13" d="M34,81.66c-4.24,4.63-7.77,4.63-10.46,2.49-3.36-2.67-4.39-6.88.21-12C28.92,66.39,32.6,68.57,35.3,71S38.26,77,34,81.66Z"/><path class="cls-14" d="M33.86,81.52C29.75,86,26.32,86,23.72,83.94c-3.26-2.59-4.26-6.67.21-11.65,5-5.57,8.56-3.46,11.17-1.1S38,77,33.86,81.52Z"/><path class="cls-15" d="M55.43,111.07c-2.57-2.27-3.12-6,.21-10.66,3.59-5,7.22-5.35,10.25-3,2.87,2.24,4.79,6.29,1.1,11.17C62.89,114,58.65,113.91,55.43,111.07Z"/><path class="cls-14" d="M55.62,110.85c-2.49-2.2-3-5.8.2-10.3,3.47-4.86,7-5.17,9.91-2.89,2.77,2.17,4.63,6.08,1.07,10.8C62.84,113.71,58.73,113.61,55.62,110.85Z"/></svg>