<svg xmlns="http://www.w3.org/2000/svg" xmlns:xlink="http://www.w3.org/1999/xlink" viewbox="0 0 128 128" width="128" height="128"><defs><style>.cls-1{isolation:isolate;stroke:none;}.cls-16,.cls-18,.cls-19,.cls-2,.cls-20,.cls-22,.cls-23,.cls-31{fill:#deecf7;stroke:none;}.cls-13,.cls-16,.cls-17,.cls-18,.cls-19,.cls-2,.cls-20,.cls-21,.cls-22,.cls-23{stroke:#bce0f5;}.cls-13,.cls-16,.cls-17,.cls-18,.cls-19,.cls-2,.cls-20,.cls-21,.cls-22,.cls-23,.cls-30,.cls-31{stroke-linecap:round;stroke-linejoin:round;}.cls-13,.cls-2,.cls-30,.cls-31{stroke-width:0.74px;}.cls-3{fill:#c4c6c8;stroke:none;}.cls-4{fill:#67686b;stroke:none;}.cls-5{fill:#7b7c7f;stroke:none;}.cls-6{fill:url(#linear-gradient);stroke:none;}.cls-7{fill:url(#linear-gradient-2);stroke:none;}.cls-26,.cls-8{opacity:0.53;stroke:none;}.cls-8{fill:url(#linear-gradient-3);stroke:none;}.cls-9{fill:url(#未命名的渐变_22);stroke:none;}.cls-10,.cls-32{fill:#fff;stroke:none;}.cls-11{fill:url(#未命名的渐变_254);stroke:none;}.cls-12{fill:url(#未命名的渐变_8);stroke:none;}.cls-13{fill:none;stroke:none;}.cls-13,.cls-19,.cls-23{mix-blend-mode:multiply;stroke:none;}.cls-14{fill:url(#未命名的渐变_520);stroke:none;}.cls-15{fill:url(#未命名的渐变_549);stroke:none;}.cls-16,.cls-17,.cls-18,.cls-19{stroke-width:0.1px;}.cls-16,.cls-30{opacity:0.69;stroke:none;}.cls-17{fill:#bce0f5;stroke:none;}.cls-17,.cls-21{opacity:0.4;stroke:none;}.cls-20,.cls-21,.cls-22,.cls-23{stroke-width:0.1px;}.cls-20{opacity:0.62;stroke:none;}.cls-21{fill:#bfe1f5;stroke:none;}.cls-24{fill:url(#linear-gradient-4);stroke:none;}.cls-25{fill:url(#linear-gradient-5);stroke:none;}.cls-26{fill:url(#linear-gradient-6);stroke:none;}.cls-27{fill:url(#未命名的渐变_22-2);stroke:none;}.cls-28{fill:url(#未命名的渐变_254-2);stroke:none;}.cls-29{fill:url(#未命名的渐变_8-2);stroke:none;}.cls-30{fill:#c4e3f6;stroke:#8ad0f2;}.cls-31{stroke:#afdbf4;opacity:0.52;}.cls-32{opacity:0.44;stroke:none;}</style><linearGradient id="linear-gradient" x1="38.95" y1="20.59" x2="94.6" y2="20.59" gradienttransform="matrix(1, -0.02, 0, 1, 0, 1.17)" gradientunits="userSpaceOnUse"><stop offset="0" stop-color="#bbb"/><stop offset="0" stop-color="#b1b1b1"/><stop offset="0.01" stop-color="#9b9b9b"/><stop offset="0.01" stop-color="#8b8b8b"/><stop offset="0.02" stop-color="#7f7f7f"/><stop offset="0.03" stop-color="#787878"/><stop offset="0.05" stop-color="#767676"/><stop offset="0.1" stop-color="#b5b6b6"/><stop offset="0.19" stop-color="#fff"/><stop offset="0.31" stop-color="#a3a3a2"/><stop offset="0.37" stop-color="#c2c2c2"/><stop offset="0.41" stop-color="#908f8f"/><stop offset="0.55" stop-color="#aeaeae"/><stop offset="0.6" stop-color="#cfd0d0"/><stop offset="0.77" stop-color="#c8c7c6"/><stop offset="0.87" stop-color="#676767"/><stop offset="0.92" stop-color="#bbb"/><stop offset="0.95" stop-color="#8c8c8c"/><stop offset="1" stop-color="#9e9e9e"/></linearGradient><linearGradient id="linear-gradient-2" x1="1858" y1="-205.85" x2="1864.8" y2="-205.85" gradienttransform="matrix(0.32, -0.03, -0.01, 0.73, -546.64, 208.42)" gradientunits="userSpaceOnUse"><stop offset="0" stop-color="#969696"/><stop offset="0.09" stop-color="#9a9a9a"/><stop offset="0.18" stop-color="#a6a6a6"/><stop offset="0.28" stop-color="#bbb"/><stop offset="0.29" stop-color="#bdbdbd"/><stop offset="0.46" stop-color="#a1a1a1"/><stop offset="0.82" stop-color="#696969"/><stop offset="1" stop-color="#535353"/></linearGradient><linearGradient id="linear-gradient-3" x1="1858" y1="-205.85" x2="1864.8" y2="-205.85" gradienttransform="matrix(0.32, -0.03, -0.01, 0.73, -546.64, 208.42)" gradientunits="userSpaceOnUse"><stop offset="0" stop-color="#d4d4d4"/><stop offset="0.11" stop-color="#d8d8d8"/><stop offset="0.23" stop-color="#e4e4e4"/><stop offset="0.29" stop-color="#ededee"/><stop offset="0.55" stop-color="#dededf"/><stop offset="1" stop-color="#c9c9c9"/></linearGradient><linearGradient id="&#x672A;&#x547D;&#x540D;&#x7684;&#x6E10;&#x53D8;_22" x1="1861.32" y1="-207.29" x2="1862.94" y2="-207.29" gradienttransform="matrix(0.32, -0.03, -0.01, 0.73, -546.64, 208.42)" gradientunits="userSpaceOnUse"><stop offset="0" stop-color="#dedfe0"/><stop offset="0.46" stop-color="#dadbdc"/><stop offset="0.93" stop-color="#cecfd1"/><stop offset="1" stop-color="#cbccce"/></linearGradient><linearGradient id="&#x672A;&#x547D;&#x540D;&#x7684;&#x6E10;&#x53D8;_254" x1="1858.53" y1="-207.36" x2="1864.19" y2="-207.36" gradienttransform="matrix(0.32, -0.03, -0.01, 0.73, -546.64, 208.42)" gradientunits="userSpaceOnUse"><stop offset="0" stop-color="#7f8285"/><stop offset="0.33" stop-color="#7b7e81"/><stop offset="0.66" stop-color="#707375"/><stop offset="1" stop-color="#5e6060"/><stop offset="1" stop-color="#5e6060"/></linearGradient><linearGradient id="&#x672A;&#x547D;&#x540D;&#x7684;&#x6E10;&#x53D8;_8" x1="1864.2" y1="-207.32" x2="1859.92" y2="-207.57" gradienttransform="matrix(0.32, -0.03, -0.01, 0.73, -546.64, 208.42)" gradientunits="userSpaceOnUse"><stop offset="0" stop-color="#95979a"/><stop offset="0.2" stop-color="#919396"/><stop offset="0.41" stop-color="#85878a"/><stop offset="0.62" stop-color="#727375"/><stop offset="0.83" stop-color="#575859"/><stop offset="1" stop-color="#3b3c3c"/></linearGradient><linearGradient id="&#x672A;&#x547D;&#x540D;&#x7684;&#x6E10;&#x53D8;_520" x1="45.53" y1="93.77" x2="53.41" y2="127.88" gradientunits="userSpaceOnUse"><stop offset="0" stop-color="#7ea6d7"/><stop offset="0.12" stop-color="#88b0db"/><stop offset="0.15" stop-color="#8bb4dc"/><stop offset="0.31" stop-color="#7ca4d0"/><stop offset="0.61" stop-color="#557cb0"/><stop offset="0.79" stop-color="#3a5f9a"/><stop offset="0.87" stop-color="#3b619e"/><stop offset="0.95" stop-color="#3e68aa"/><stop offset="1" stop-color="#416eb6"/></linearGradient><linearGradient id="&#x672A;&#x547D;&#x540D;&#x7684;&#x6E10;&#x53D8;_549" x1="83.94" y1="119" x2="105.36" y2="86" gradientunits="userSpaceOnUse"><stop offset="0" stop-color="#618ec7"/><stop offset="0.22" stop-color="#5d89c3"/><stop offset="0.46" stop-color="#527cb6"/><stop offset="0.71" stop-color="#4066a1"/><stop offset="0.77" stop-color="#3a5f9a"/><stop offset="0.86" stop-color="#3b619e"/><stop offset="0.94" stop-color="#3e68aa"/><stop offset="1" stop-color="#416eb6"/></linearGradient><linearGradient id="linear-gradient-4" x1="23.69" y1="35.17" x2="79.34" y2="35.17" gradienttransform="matrix(1, 0, 0, 1, 0, 0)" xlink:href="#linear-gradient"><linearGradient id="linear-gradient-5" x1="1810.13" y1="-186.19" x2="1816.93" y2="-186.19" gradienttransform="matrix(0.32, -0.02, -0.01, 0.73, -546.64, 196.9)" xlink:href="#linear-gradient-2"><linearGradient id="linear-gradient-6" x1="1810.13" y1="-186.19" x2="1816.93" y2="-186.19" gradienttransform="matrix(0.32, -0.02, -0.01, 0.73, -546.64, 196.9)" xlink:href="#linear-gradient-3"><linearGradient id="&#x672A;&#x547D;&#x540D;&#x7684;&#x6E10;&#x53D8;_22-2" x1="1813.45" y1="-187.63" x2="1815.07" y2="-187.63" gradienttransform="matrix(0.32, -0.02, -0.01, 0.73, -546.64, 196.9)" xlink:href="#&#x672A;&#x547D;&#x540D;&#x7684;&#x6E10;&#x53D8;_22"><linearGradient id="&#x672A;&#x547D;&#x540D;&#x7684;&#x6E10;&#x53D8;_254-2" x1="1810.66" y1="-187.7" x2="1816.32" y2="-187.7" gradienttransform="matrix(0.32, -0.02, -0.01, 0.73, -546.64, 196.9)" xlink:href="#&#x672A;&#x547D;&#x540D;&#x7684;&#x6E10;&#x53D8;_254"><linearGradient id="&#x672A;&#x547D;&#x540D;&#x7684;&#x6E10;&#x53D8;_8-2" x1="1816.33" y1="-187.66" x2="1812.05" y2="-187.91" gradienttransform="matrix(0.32, -0.02, -0.01, 0.73, -546.64, 196.9)" xlink:href="#&#x672A;&#x547D;&#x540D;&#x7684;&#x6E10;&#x53D8;_8"/></linearGradient></linearGradient></linearGradient></linearGradient></linearGradient></defs><title>&#x751F;&#x7269;&#x4EEA;&#x5668;</title><g class="cls-1"><g id="Bio_instruments&#x751F;&#x7269;&#x4EEA;&#x5668;" data-name="Bio instruments&#x751F;&#x7269;&#x4EEA;&#x5668;"><path class="cls-2" d="M20.45,73.37c2.66-1.89,24.78-16,26.87-15.78s55.92,3.81,55.92,3.81L83.63,77.57Z"/><polygon class="cls-3" points="93.16 9.92 91.63 10.95 92.66 27.45 46.18 25.75 46.18 9.11 40.22 8.93 38.95 9.87 42.06 11.72 42.99 28.36 94.6 31.33 95.63 30.31 95.63 9.97 93.16 9.92"/><polygon class="cls-4" points="44.93 26.75 46.18 25.75 46.18 9.11 44.93 10.11 44.93 26.75"/><polygon class="cls-5" points="94.6 31.33 94.6 10.99 95.63 9.97 95.63 30.31 94.6 31.33"/><polygon class="cls-6" points="91.63 10.95 91.63 28.47 44.93 26.75 44.93 10.11 38.95 9.87 38.95 12.66 41.97 12.86 41.97 29.38 94.6 31.33 94.6 10.99 91.63 10.95"/><path class="cls-7" d="M41.31,7.73V9.35c0,.27.48.46,1.07.42s1.06-.29,1.05-.57V7.58Z"/><path class="cls-8" d="M41.87,9.75l.1,0V7.69h-.1Zm-.2-.05.1,0v-2h-.1Zm.39.08h.1V7.67H42Zm-.59-.17.1.06V7.71h-.1Zm1.93-2V9.32a.26.26,0,0,0,0-.11V7.59ZM41.31,9.36a.26.26,0,0,0,.07.16V7.73h-.06Zm1.33.39.1,0V7.63h-.1Zm-.39,0h.1V7.66h-.1Zm1-.26.1-.08V7.59h-.1Zm-.19.1.1,0v-2H43Zm-.58.14h.1V7.65h-.1Zm.39-.07.1,0v-2h-.1Z"/><path class="cls-9" d="M43.43,7.58c0,.27-.47.52-1.05.57S41.31,8,41.31,7.73s.47-.53,1.05-.57S43.43,7.31,43.43,7.58Z"/><path class="cls-10" d="M42.38,8.13c-.57,0-1-.14-1.07-.4v0c0,.27.48.46,1.07.42s1.06-.29,1.05-.57v0C43.41,7.85,42.95,8.09,42.38,8.13Z"/><path class="cls-11" d="M43.26,7.55c0,.19-.39.38-.89.41s-.9-.1-.9-.29.39-.38.89-.41S43.26,7.35,43.26,7.55Z"/><path class="cls-12" d="M41.5,7.74a1.14,1.14,0,0,1,.87-.34c.43,0,.79.07.88.22a.16.16,0,0,0,0-.07c0-.19-.41-.32-.9-.29s-.89.22-.89.41A.15.15,0,0,0,41.5,7.74Z"/><path class="cls-2" d="M47,80.16,103.24,85,83.63,105.73s-63.92-5.81-63.17-6.18S47,80.16,47,80.16Z"/><polygon class="cls-13" points="47.32 57.59 47.03 80.16 103.24 85 103.24 61.4 47.32 57.59"/><polygon class="cls-14" points="20.07 99.65 14.44 111.88 86 120.35 83.63 106 20.07 99.65"/><polyline class="cls-15" points="85.98 120.33 108.08 95.25 103.59 84.85 83.63 106.04"/><polygon class="cls-16" points="34.43 25.48 50.32 13.19 50.32 84.32 34.43 97.93 34.43 25.48"/><polygon class="cls-17" points="35.74 25.5 51.63 13.24 51.63 84.59 35.74 98.21 35.74 25.5"/><polygon class="cls-18" points="35.74 98.21 34.43 97.93 50.32 84.32 51.63 84.59 35.74 98.21"/><polygon class="cls-19" points="51.63 13.24 50.32 13.19 34.43 25.48 35.74 25.5 51.63 13.24"/><polygon class="cls-20" points="71.21 26.76 85.9 14.43 85.9 87.05 71.21 100.66 71.21 26.76"/><polygon class="cls-21" points="72.42 26.84 87.1 14.47 87.1 87.32 72.42 100.93 72.42 26.84"/><polygon class="cls-22" points="72.42 100.93 71.21 100.66 85.9 87.05 87.1 87.32 72.42 100.93"/><polygon class="cls-23" points="87.1 14.47 85.9 14.43 71.21 26.76 72.42 26.84 87.1 14.47"/><polygon class="cls-3" points="77.9 24.96 76.37 25.96 77.4 42.48 30.92 39.96 30.92 23.32 24.96 23.04 23.69 23.96 26.8 25.86 27.73 42.52 79.34 46.39 80.37 45.39 80.37 25.05 77.9 24.96"/><polygon class="cls-4" points="29.67 40.94 30.92 39.96 30.92 23.32 29.67 24.3 29.67 40.94"/><polygon class="cls-5" points="79.34 46.39 79.34 26.05 80.37 25.05 80.37 45.39 79.34 46.39"/><polygon class="cls-24" points="76.37 25.96 76.37 43.48 29.67 40.94 29.67 24.3 23.69 23.96 23.69 26.75 26.7 27 26.7 43.52 79.34 46.39 79.34 26.05 76.37 25.96"/><path class="cls-25" d="M26,21.86v1.63c0,.27.48.47,1.07.44s1.06-.27,1.05-.55V21.75Z"/><path class="cls-26" d="M26.61,23.89l.1,0V21.83h-.1Zm-.2-.06.1,0v-2h-.1Zm.39.08h.1V21.82h-.1Zm-.59-.18.1.06V21.85h-.1Zm1.93-2v1.73a.25.25,0,0,0,0-.11V21.75Zm-2.09,1.73a.26.26,0,0,0,.07.16V21.86H26Zm1.33.41.1,0V21.79h-.1Zm-.39,0h.1V21.81H27Zm1-.24.1-.08V21.76H28Zm-.19.1.1,0v-2h-.1Zm-.58.13h.1V21.8h-.1Zm.39-.07.1,0v-2h-.1Z"/><path class="cls-27" d="M28.17,21.75c0,.27-.47.52-1.05.55s-1.07-.17-1.07-.44.47-.52,1.05-.55S28.17,21.48,28.17,21.75Z"/><path class="cls-10" d="M27.12,22.28c-.57,0-1-.16-1.07-.42v0c0,.27.48.47,1.07.44s1.06-.28,1.05-.55v0C28.15,22,27.69,22.25,27.12,22.28Z"/><path class="cls-28" d="M28,21.71c0,.19-.39.37-.89.4s-.9-.11-.9-.31.39-.37.89-.4S28,21.52,28,21.71Z"/><path class="cls-29" d="M26.24,21.87a1.12,1.12,0,0,1,.87-.32c.43,0,.79.08.88.24a.16.16,0,0,0,0-.07c0-.19-.41-.33-.9-.31s-.89.2-.89.4A.15.15,0,0,0,26.24,21.87Z"/><polygon class="cls-30" points="83.63 77.57 103.24 61.4 103.24 85 83.63 105.73 83.63 77.57"/><polygon class="cls-31" points="83.63 77.57 20.45 73.37 20.45 99.55 83.63 105.73 83.63 77.57"/><polygon class="cls-32" points="54.87 102.52 68.82 103.89 20.86 74.83 20.86 81.91 54.87 102.52"/></g></g></svg>