<svg xmlns="http://www.w3.org/2000/svg" xmlns:xlink="http://www.w3.org/1999/xlink" viewbox="0 0 128 128" width="128" height="128"><defs><style>.cls-1{isolation:isolate;stroke:none;}.cls-2{fill:url(#未命名的渐变_209);stroke:none;}.cls-10,.cls-3{opacity:0.73;stroke:none;}.cls-4,.cls-7{stroke:#fff;stroke-miterlimit:10;}.cls-4{stroke-width:2px;}.cls-4,.cls-5{fill:url(#未命名的渐变_186);stroke:none;}.cls-6{opacity:0.74;stroke:none;}.cls-7{fill:none;stroke-width:1px;}.cls-8{opacity:0.42;stroke:none;}.cls-10,.cls-9{fill:#fff;stroke:none;}.cls-10{mix-blend-mode:lighten;stroke:none;}.cls-11{fill:#a2def9;opacity:0.21;mix-blend-mode:multiply;stroke:none;}.cls-12{fill:url(#未命名的渐变_321);stroke:none;}</style><linearGradient id="&#x672A;&#x547D;&#x540D;&#x7684;&#x6E10;&#x53D8;_209" x1="85.6" y1="95.46" x2="47.01" y2="28.62" gradientunits="userSpaceOnUse"><stop offset="0" stop-color="#bfe7f5"/><stop offset="0.55" stop-color="#e8f6f8"/><stop offset="0.67" stop-color="#e4f4f8"/><stop offset="0.98" stop-color="#ddf1f8"/></linearGradient><linearGradient id="&#x672A;&#x547D;&#x540D;&#x7684;&#x6E10;&#x53D8;_186" x1="14.3" y1="44.87" x2="115.65" y2="44.87" gradientunits="userSpaceOnUse"><stop offset="0.01" stop-color="#f1fafe"/><stop offset="0.82" stop-color="#c2e3f7"/></linearGradient><linearGradient id="&#x672A;&#x547D;&#x540D;&#x7684;&#x6E10;&#x53D8;_321" x1="12.5" y1="54.32" x2="117.23" y2="54.32" gradientunits="userSpaceOnUse"><stop offset="0" stop-color="#8dd7f2"/><stop offset="0.09" stop-color="#b3e3f5"/><stop offset="0.5" stop-color="#b5e4f5"/><stop offset="0.65" stop-color="#bce6f6"/><stop offset="0.76" stop-color="#c8ebf8"/><stop offset="0.85" stop-color="#d9f1fb"/><stop offset="0.92" stop-color="#eff9fe"/><stop offset="0.92" stop-color="#eff9fe"/><stop offset="1" stop-color="#87d5f7"/></linearGradient></defs><title>&#x751F;&#x7269;&#x4EEA;&#x5668;</title><g class="cls-1"><g id="Bio_instruments&#x751F;&#x7269;&#x4EEA;&#x5668;" data-name="Bio instruments&#x751F;&#x7269;&#x4EEA;&#x5668;"><path class="cls-2" d="M116.65,66.65c0,15.25-22.95,27.62-51.26,27.62S14.13,81.9,14.13,66.65c0-1.42-1.25-11-1.21-12.41C13.3,40,39.71,38,65.39,38s50.09.88,51.88,14.89C117.45,54.26,116.65,65.26,116.65,66.65Z"/><g class="cls-3"><path class="cls-4" d="M65,38.89c23.69,0,43.38,9.24,49.26,21.09a15.38,15.38,0,0,0,1.42-5.77C115.65,40.7,93,29.75,65,29.75S14.3,40.7,14.3,54.21A15.38,15.38,0,0,0,15.72,60C21.59,48.13,41.28,38.89,65,38.89Z"/></g><path class="cls-5" d="M65,38.89c23.69,0,43.38,9.24,49.26,21.09a15.38,15.38,0,0,0,1.42-5.77C115.65,40.7,93,29.75,65,29.75S14.3,40.7,14.3,54.21A15.38,15.38,0,0,0,15.72,60C21.59,48.13,41.28,38.89,65,38.89Z"/><g class="cls-6"><path class="cls-7" d="M15.85,62.17a14.48,14.48,0,0,0-.39,3.26C15.47,80.08,37.8,92,65.36,92s49.89-11.88,49.89-26.53a13.48,13.48,0,0,0-.64-4.09"/></g><g class="cls-8"><path class="cls-9" d="M65.27,79.61c-23.15,0-42.77-7.55-49.59-18a15,15,0,0,0-.39,3.32c0,14.92,22.37,27,50,27s50-12.1,50-27a15,15,0,0,0-.39-3.32C108,72.07,88.42,79.61,65.27,79.61Z"/></g><path class="cls-10" d="M34.88,76.58V75s-10.21-4.5-16.69-9.66L19,71.58a9.78,9.78,0,0,0,4.22,6.55,65.88,65.88,0,0,0,17.67,8.92S34.26,82.24,34.88,76.58Z"/><path class="cls-11" d="M94.72,77.65V76s9.37-3.36,15.85-8.51v5.14c0,2.16-1.53,4.63-4.22,6.55-3.25,2.33-8.8,5.46-18,8.64C88.38,87.85,95.33,83.31,94.72,77.65Z"/><path class="cls-12" d="M64.87,28.59c-28.92,0-52.37,11.52-52.37,25.72S35.95,80,64.87,80s52.37-11.51,52.37-25.73S93.79,28.59,64.87,28.59Zm0,49.4c-28,0-50.77-10.83-50.77-23.67s22.73-23.9,50.77-23.9,50.77,11.07,50.77,23.9S92.91,78,64.87,78Z"/></g></g></svg>