<svg xmlns="http://www.w3.org/2000/svg" xmlns:xlink="http://www.w3.org/1999/xlink" viewbox="0 0 128 128" width="128" height="128"><defs><style>.cls-1{isolation:isolate;stroke:none;}.cls-2{fill:#24adc5;stroke:none;}.cls-3{fill:#707f86;stroke:none;}.cls-4{fill:#f6f6f6;stroke:none;}.cls-5{fill:url(#未命名的渐变_426);stroke:none;}.cls-6{fill:#1b8393;stroke:none;}.cls-7{fill:#95a8b0;stroke:none;}.cls-8{fill:#f3f4f4;stroke:none;}.cls-9{fill:#cdd9e0;stroke:none;}.cls-10{fill:#dbeaf2;stroke:none;}.cls-11{fill:#fbfeff;stroke:none;}.cls-12{fill:#e1eef4;stroke:#fff;stroke-width:0.6px;}.cls-12,.cls-22{mix-blend-mode:multiply;stroke:none;}.cls-13{fill:#d1dde1;stroke:none;}.cls-14{fill:#ccd9df;stroke:none;}.cls-15{fill:#444245;stroke:none;}.cls-16{fill:#595a5c;stroke:none;}.cls-17{fill:#424244;stroke:none;}.cls-18{fill:#98a3a6;stroke:none;}.cls-19{fill:#fff;opacity:0.5;stroke:none;}.cls-20{fill:#6aaac2;opacity:0.3;stroke:none;}.cls-21{opacity:0.33;fill:url(#未命名的渐变_653);stroke:none;}.cls-22{fill:#d8d9d9;opacity:0.68;stroke:none;}.cls-23{fill:none;stroke:#4e4e4e;stroke-width:0.3px;}</style><linearGradient id="&#x672A;&#x547D;&#x540D;&#x7684;&#x6E10;&#x53D8;_426" x1="44.56" y1="65.19" x2="80.81" y2="65.19" gradientunits="userSpaceOnUse"><stop offset="0.01" stop-color="#daf1fd"/><stop offset="0.79" stop-color="#20c4f4"/></linearGradient><linearGradient id="&#x672A;&#x547D;&#x540D;&#x7684;&#x6E10;&#x53D8;_653" x1="37.88" y1="88.23" x2="46.26" y2="88.23" gradientunits="userSpaceOnUse"><stop offset="0.01" stop-color="#daf1fd"/><stop offset="0.82" stop-color="#8fd8f8"/></linearGradient></defs><title>&#x751F;&#x7269;&#x4EEA;&#x5668;</title><g class="cls-1"><g id="Bio_instruments&#x751F;&#x7269;&#x4EEA;&#x5668;" data-name="Bio instruments&#x751F;&#x7269;&#x4EEA;&#x5668;"><path class="cls-2" d="M38.46,93.55l-.23-.19A1.21,1.21,0,0,1,38,91.81l4.83-8s.53-1.93,3.27.38,1,3.22,1,3.22L40,93.54A1.21,1.21,0,0,1,38.46,93.55Z"/><path class="cls-3" d="M21.47,113.06l24-28.62.48.4L22,113.46s-1.75,2.07-2,1.88S21.47,113.06,21.47,113.06Z"/><path class="cls-4" d="M81.48,53.14l-10.74-9L44.91,74.9a2.43,2.43,0,0,0-.49,2.18l.65,2.17a3.29,3.29,0,0,1-.61,3.09l-.46.54,4,3.33.46-.54a3.29,3.29,0,0,1,2.93-1.14l2.25.26a2.43,2.43,0,0,0,2.06-.86Z"/><path class="cls-4" d="M50.91,78.65a15.78,15.78,0,0,0-6.27-3.34,2.42,2.42,0,0,0-.22,1.77l.65,2.17a3.29,3.29,0,0,1-.61,3.09l-.46.54,4,3.33.46-.54a3.29,3.29,0,0,1,2.93-1.14l2.25.26a2.42,2.42,0,0,0,1.7-.52A15.78,15.78,0,0,0,50.91,78.65Z"/><path class="cls-5" d="M80.81,52.57l-9.4-7.89L45.9,75.08a2.52,2.52,0,0,0-.58,2.08s1.06,3.79.32,4.68L44.56,83.3l2.87,2.41,1.25-1.31c.74-.88,4.67-.49,4.67-.49a2.52,2.52,0,0,0,2-.93Z"/><path class="cls-6" d="M44.7,88.43c-.22-.26-.47-.51-.73-.76l2.36-2.81-.9-.75-2.36,2.81c-.29-.21-.58-.41-.88-.59l-1.9,3.09c.21.14.43.31.64.47l-2.81,3.34a1.15,1.15,0,0,0,.11.13l.23.19a1.15,1.15,0,0,0,.14.08l2.81-3.34c.2.18.4.36.58.55Z"/><path class="cls-7" d="M22.07,113.27c.24-.38.35-.67.26-.75s-.35.08-.69.38l-.31.37s-1.56,1.88-1.35,2.05,1.78-1.69,1.78-1.69Z"/><path class="cls-8" d="M106.84,24.67c-1.52,1.81-5.54.94-9-2s-5-6.7-3.48-8.51a4.75,4.75,0,0,1,.92-.84c1.84-1,5.05.26,8.06,2.79s4.82,5.47,4.15,7.46A4.75,4.75,0,0,1,106.84,24.67Z"/><ellipse class="cls-9" cx="100.32" cy="19.78" rx="3.84" ry="8.14" transform="translate(20.68 83.91) rotate(-50)"/><rect class="cls-10" x="85.79" y="16.16" width="8.69" height="31.5" transform="translate(41.6 -50.47) rotate(40)"/><rect class="cls-11" x="85.46" y="13.48" width="2.35" height="45.2" transform="translate(43.46 -47.25) rotate(40)"/><ellipse class="cls-12" cx="50.15" cy="79.56" rx="1.4" ry="5.98" transform="translate(-43.03 66.84) rotate(-50)"/><path class="cls-13" d="M88.57,55.1c-1.5,1.78-7.41-.71-13.21-5.58s-9.28-10.26-7.79-12a2.9,2.9,0,0,1,1-.75c2.21-.65,7.14,2.07,12.21,6.33S89.4,51.69,89.14,54A2.9,2.9,0,0,1,88.57,55.1Z"/><ellipse class="cls-4" cx="77.79" cy="46.62" rx="3.78" ry="13.71" transform="translate(-7.93 76.24) rotate(-50)"/><path class="cls-14" d="M78.81,52.16q.77.53,1.51,1l2-2.32L80.9,49.68Z"/><path class="cls-14" d="M70.92,45.26q.59.65,1.24,1.31l2.08-2.48-1.37-1.15Z"/><path class="cls-10" d="M82.27,50.83c.71-.85-.82-3.3-3.41-5.48s-5.28-3.26-6-2.41c-.36.42-.15,1.25.46,2.24l-5.16,6.15,6.65,5.58L80,50.76C81.07,51.2,81.92,51.26,82.27,50.83Z"/><path class="cls-15" d="M72.23,53.25c-2.65-2.22-5.49-3.2-6.34-2.18l-4.24,5.05,9.59,8,4.24-5.05C76.33,58.1,74.88,55.47,72.23,53.25Z"/><path class="cls-16" d="M71.23,64.17l2.84-3.38c.85-1-.6-3.64-3.24-5.87s-5.49-3.2-6.34-2.18l-2.84,3.38Z"/><path class="cls-17" d="M71.23,64.17l1.4-1.67c.85-1-.6-3.64-3.24-5.87s-5.49-3.2-6.34-2.18l-1.4,1.67Z"/><ellipse class="cls-18" cx="66.44" cy="60.15" rx="2.41" ry="6.26" transform="translate(-22.34 72.38) rotate(-50)"/><path class="cls-19" d="M74.14,42.72,45.31,77.07s0,.06,0,.09a17.62,17.62,0,0,1,.57,3.26L76.47,43.67A7.77,7.77,0,0,0,74.14,42.72Z"/><path class="cls-20" d="M80.66,47.09,49.77,83.94a15.71,15.71,0,0,1,3.42,0l29-34.48A8.79,8.79,0,0,0,80.66,47.09Z"/><path class="cls-21" d="M46.07,84.17A4.07,4.07,0,0,0,44,83.05c-1.78,2.6-5,7.94-6.08,9.76a1.18,1.18,0,0,0,.35.54l.06,0,8-9.07Z"/><path class="cls-22" d="M47.19,85.33l-.08,0-8.2,8.49A1.2,1.2,0,0,0,40,93.54l7.06-6.15S48.22,86.79,47.19,85.33Z"/><path class="cls-6" d="M46.3,84c-1.44-1.21-3-1.72-3.48-1.15a1,1,0,0,0,0,1c.52-.5,1.81-.15,3,.82s1.72,2.18,1.32,2.78a1,1,0,0,0,1-.2C48.52,86.62,47.74,85.18,46.3,84Z"/><path class="cls-23" d="M52.18,77.57a16,16,0,0,0-5.11-3.26"/><path class="cls-23" d="M54.31,71.71a14.63,14.63,0,0,0-3.53-1.82"/><path class="cls-23" d="M61.78,62.8a15.22,15.22,0,0,0-3.67-1.65"/><path class="cls-23" d="M59.73,68.57a16.44,16.44,0,0,0-5.33-3"/><path class="cls-23" d="M67.28,59.57a17,17,0,0,0-5.54-2.75"/><path class="cls-23" d="M50.23,74.42a13.24,13.24,0,0,0-2.31-1.12"/><path class="cls-23" d="M51,73.53a13.29,13.29,0,0,0-2.32-1.11"/><path class="cls-23" d="M51.71,72.65a13.34,13.34,0,0,0-2.33-1.1"/><path class="cls-23" d="M52.46,71.76a13.4,13.4,0,0,0-2.34-1.09"/><path class="cls-23" d="M53.94,70a13.51,13.51,0,0,0-2.36-1.06"/><path class="cls-23" d="M54.68,69.11a13.57,13.57,0,0,0-2.37-1.05"/><path class="cls-23" d="M55.43,68.22a13.63,13.63,0,0,0-2.38-1"/><path class="cls-23" d="M56.17,67.34a13.69,13.69,0,0,0-2.39-1"/><path class="cls-23" d="M57.66,65.57a13.82,13.82,0,0,0-2.4-1"/><path class="cls-23" d="M58.4,64.69a13.89,13.89,0,0,0-2.41-1"/><path class="cls-23" d="M59.14,63.8a14,14,0,0,0-2.42-1"/><path class="cls-23" d="M59.88,62.92a14,14,0,0,0-2.43-1"/><path class="cls-23" d="M61.37,61.15a14.16,14.16,0,0,0-2.45-1"/><path class="cls-23" d="M62.11,60.26a14.23,14.23,0,0,0-2.46-.95"/><path class="cls-23" d="M62.85,59.38a14.31,14.31,0,0,0-2.46-.94"/><path class="cls-23" d="M63.6,58.49a14.38,14.38,0,0,0-2.47-.93"/></g></g></svg>