<svg xmlns="http://www.w3.org/2000/svg" xmlns:xlink="http://www.w3.org/1999/xlink" viewbox="0 0 128 128" width="128" height="128"><defs><style>.cls-1{isolation:isolate;stroke:none;}.cls-2{fill:url(#未命名的渐变_209);stroke:none;}.cls-10,.cls-3{opacity:0.73;stroke:none;}.cls-4,.cls-7{stroke:#fff;stroke-miterlimit:10;}.cls-4{stroke-width:2px;}.cls-4,.cls-5{fill:url(#未命名的渐变_186);stroke:none;}.cls-6{opacity:0.74;stroke:none;}.cls-7{fill:none;stroke-width:1px;}.cls-8{opacity:0.42;stroke:none;}.cls-10,.cls-9{fill:#fff;stroke:none;}.cls-10{mix-blend-mode:lighten;stroke:none;}.cls-11{fill:#a2def9;opacity:0.21;mix-blend-mode:multiply;stroke:none;}.cls-12{fill:url(#未命名的渐变_321);stroke:none;}.cls-13{fill:url(#未命名的渐变_616);stroke:none;}.cls-14{fill:url(#未命名的渐变_616-2);stroke:none;}.cls-15{fill:url(#未命名的渐变_616-3);stroke:none;}.cls-16{fill:url(#未命名的渐变_616-4);stroke:none;}.cls-17{fill:url(#未命名的渐变_616-5);stroke:none;}.cls-18{fill:url(#未命名的渐变_616-6);stroke:none;}.cls-19{fill:url(#未命名的渐变_616-7);stroke:none;}.cls-20{fill:url(#未命名的渐变_616-8);stroke:none;}</style><linearGradient id="&#x672A;&#x547D;&#x540D;&#x7684;&#x6E10;&#x53D8;_209" x1="84.23" y1="95.46" x2="45.64" y2="28.62" gradientunits="userSpaceOnUse"><stop offset="0" stop-color="#bfe7f5"/><stop offset="0.55" stop-color="#e8f6f8"/><stop offset="0.67" stop-color="#e4f4f8"/><stop offset="0.98" stop-color="#ddf1f8"/></linearGradient><linearGradient id="&#x672A;&#x547D;&#x540D;&#x7684;&#x6E10;&#x53D8;_186" x1="12.92" y1="44.87" x2="114.28" y2="44.87" gradientunits="userSpaceOnUse"><stop offset="0.01" stop-color="#f1fafe"/><stop offset="0.82" stop-color="#c2e3f7"/></linearGradient><linearGradient id="&#x672A;&#x547D;&#x540D;&#x7684;&#x6E10;&#x53D8;_321" x1="11.13" y1="54.32" x2="115.86" y2="54.32" gradientunits="userSpaceOnUse"><stop offset="0" stop-color="#8dd7f2"/><stop offset="0.09" stop-color="#b3e3f5"/><stop offset="0.5" stop-color="#b5e4f5"/><stop offset="0.65" stop-color="#bce6f6"/><stop offset="0.76" stop-color="#c8ebf8"/><stop offset="0.85" stop-color="#d9f1fb"/><stop offset="0.92" stop-color="#eff9fe"/><stop offset="0.92" stop-color="#eff9fe"/><stop offset="1" stop-color="#87d5f7"/></linearGradient><linearGradient id="&#x672A;&#x547D;&#x540D;&#x7684;&#x6E10;&#x53D8;_616" x1="31.05" y1="57.36" x2="81.14" y2="57.36" gradienttransform="matrix(1.1, 0.14, -0.13, 0.99, 4.42, -8.65)" gradientunits="userSpaceOnUse"><stop offset="0" stop-color="#6996cf"/><stop offset="1" stop-color="#9398cc"/></linearGradient><linearGradient id="&#x672A;&#x547D;&#x540D;&#x7684;&#x6E10;&#x53D8;_616-2" x1="65.13" y1="62.99" x2="72.79" y2="62.99" xlink:href="#&#x672A;&#x547D;&#x540D;&#x7684;&#x6E10;&#x53D8;_616"><linearGradient id="&#x672A;&#x547D;&#x540D;&#x7684;&#x6E10;&#x53D8;_616-3" x1="51.55" y1="68.89" x2="64.6" y2="68.89" xlink:href="#&#x672A;&#x547D;&#x540D;&#x7684;&#x6E10;&#x53D8;_616"><linearGradient id="&#x672A;&#x547D;&#x540D;&#x7684;&#x6E10;&#x53D8;_616-4" x1="46.23" y1="74.53" x2="54.53" y2="74.53" xlink:href="#&#x672A;&#x547D;&#x540D;&#x7684;&#x6E10;&#x53D8;_616"><linearGradient id="&#x672A;&#x547D;&#x540D;&#x7684;&#x6E10;&#x53D8;_616-5" x1="57.93" y1="73.96" x2="63.19" y2="73.96" xlink:href="#&#x672A;&#x547D;&#x540D;&#x7684;&#x6E10;&#x53D8;_616"><linearGradient id="&#x672A;&#x547D;&#x540D;&#x7684;&#x6E10;&#x53D8;_616-6" x1="65.29" y1="69.22" x2="80.19" y2="69.22" xlink:href="#&#x672A;&#x547D;&#x540D;&#x7684;&#x6E10;&#x53D8;_616"><linearGradient id="&#x672A;&#x547D;&#x540D;&#x7684;&#x6E10;&#x53D8;_616-7" x1="81.36" y1="67.29" x2="84.11" y2="67.29" xlink:href="#&#x672A;&#x547D;&#x540D;&#x7684;&#x6E10;&#x53D8;_616"><linearGradient id="&#x672A;&#x547D;&#x540D;&#x7684;&#x6E10;&#x53D8;_616-8" x1="85.65" y1="66.42" x2="89.61" y2="66.42" xlink:href="#&#x672A;&#x547D;&#x540D;&#x7684;&#x6E10;&#x53D8;_616"/></linearGradient></linearGradient></linearGradient></linearGradient></linearGradient></linearGradient></defs><title>&#x751F;&#x7269;&#x4EEA;&#x5668;</title><g class="cls-1"><g id="Bio_instruments&#x751F;&#x7269;&#x4EEA;&#x5668;" data-name="Bio instruments&#x751F;&#x7269;&#x4EEA;&#x5668;"><path class="cls-2" d="M115.27,66.65c0,15.25-22.95,27.62-51.26,27.62S12.76,81.9,12.76,66.65c0-1.42-1.25-11-1.21-12.41C11.93,40,38.34,38,64,38s50.09.88,51.88,14.89C116.08,54.26,115.27,65.26,115.27,66.65Z"/><g class="cls-3"><path class="cls-4" d="M63.6,38.89c23.69,0,43.38,9.24,49.26,21.09a15.38,15.38,0,0,0,1.42-5.77c0-13.51-22.69-24.46-50.68-24.46s-50.68,11-50.68,24.46A15.38,15.38,0,0,0,14.34,60C20.22,48.13,39.91,38.89,63.6,38.89Z"/></g><path class="cls-5" d="M63.6,38.89c23.69,0,43.38,9.24,49.26,21.09a15.38,15.38,0,0,0,1.42-5.77c0-13.51-22.69-24.46-50.68-24.46s-50.68,11-50.68,24.46A15.38,15.38,0,0,0,14.34,60C20.22,48.13,39.91,38.89,63.6,38.89Z"/><g class="cls-6"><path class="cls-7" d="M14.48,62.17a14.48,14.48,0,0,0-.39,3.26C14.09,80.08,36.43,92,64,92s49.89-11.88,49.89-26.53a13.48,13.48,0,0,0-.64-4.09"/></g><g class="cls-8"><path class="cls-9" d="M63.9,79.61c-23.15,0-42.77-7.55-49.59-18a15,15,0,0,0-.39,3.32c0,14.92,22.37,27,50,27s50-12.1,50-27a15,15,0,0,0-.39-3.32C106.67,72.07,87.05,79.61,63.9,79.61Z"/></g><path class="cls-10" d="M33.5,76.58V75s-10.21-4.5-16.69-9.66l.84,6.28a9.78,9.78,0,0,0,4.22,6.55,65.88,65.88,0,0,0,17.67,8.92S32.89,82.24,33.5,76.58Z"/><path class="cls-11" d="M93.34,77.65V76s9.37-3.36,15.85-8.51v5.14c0,2.16-1.53,4.63-4.22,6.55-3.25,2.33-8.8,5.46-18,8.64C87,87.85,94,83.31,93.34,77.65Z"/><path class="cls-12" d="M63.49,28.59c-28.92,0-52.37,11.52-52.37,25.72S34.57,80,63.49,80s52.37-11.51,52.37-25.73S92.42,28.59,63.49,28.59Zm0,49.4c-28,0-50.77-10.83-50.77-23.67s22.73-23.9,50.77-23.9,50.77,11.07,50.77,23.9S91.54,78,63.49,78Z"/><path class="cls-13" d="M54.35,62.27c-1.2.16-2.52-.51-2.07-1.05a4.11,4.11,0,0,1,2.88-1.62c2.35-.11,4.66,0,6.71-1.42a16.92,16.92,0,0,1,8.71-2.42c2.62.13,4.37-1.2,5.68-1.84,10.72-5.24-1.12-8.1-4.56-6.74s-4.71.68-9.44,2.27S53.58,53.93,48,54.31a45.46,45.46,0,0,0-17,4.53c-2,1,.1,5.69,5.34,3.24,6.07-2.83,9.92-2.9,7.58-.41-1.74,1.85-4.27.85-4.16,2.33s2.41,2.2,7.44,1.74S67.27,62,69.64,60.51a16.17,16.17,0,0,1,6.51-2.22h.05c1.2-.17,2.54.57,2,1.09s-1.2,1.44-.43,2c1.42,1,3.46.87,5.33-.35s4.25-2.79,3.52-4.36-2.71-3.08-4.2-2.36a22.75,22.75,0,0,1-5.63,1.43c-.62,0-3,1.22-4.39,1.45s-3.78.41-5,1.44A8,8,0,0,1,63,60.48c-1.9.24-5.3.14-6.68,1.15A4.41,4.41,0,0,1,54.35,62.27Z"/><path class="cls-14" d="M67.91,64.27c.18,1,5.34,2,7.28,1.37a1.8,1.8,0,0,0-.31-3.53C72.87,62,67.73,63.26,67.91,64.27Z"/><path class="cls-15" d="M66,66.1a2.52,2.52,0,0,0-1-.33,7.89,7.89,0,0,0-2.89,0,5.59,5.59,0,0,1-3,.51c-1.7-.08-3.09-.13-3.48.45s-2.48,1.14-2.83,1.44-1.57,1.33.06,1.89,4.74-.57,4.65-1.07,1.35-.8,2-.65,2.57-.64,3.14-.22,4.39.85,4.28-.63A1.82,1.82,0,0,0,66,66.1Z"/><path class="cls-16" d="M51.62,72c-.58-.15-1-.43-1-.72-.09-.61-.6-1.57-3-1.21-3.49.52-.68,1.66.05,2s2.16,1.33,2.09,1.81,2.27,1.62,4.06,1,.77-2.34-.3-2.48A18.2,18.2,0,0,1,51.62,72Z"/><path class="cls-17" d="M62.08,72c-1.2-.37-3.3.27-3.43,1.3s4.21,2.3,5.41,1.41S63.27,72.38,62.08,72Z"/><path class="cls-18" d="M67.88,72.07a1.47,1.47,0,0,1-.37-.21c-.35-.29-1-1.06,1.34-1.75,2.91-.88,5.34-.42,6.3-.64s3.31-1.52,5-1.23,5.47,2.11,3.1,2.43-5.63-.88-6.32-.41-1.19,1.94-4.34,2.29A9.66,9.66,0,0,1,67.88,72.07Z"/><path class="cls-19" d="M88.08,69.28c-.28-.25-2.57-.55-2.65.07s.07,1.82,1.81,1.63S88.36,69.52,88.08,69.28Z"/><path class="cls-20" d="M93.77,68.56c-1.53-.2-3.66.64-3.61,1.48s2.4,1.85,3.47.8S95.29,68.76,93.77,68.56Z"/></g></g></svg>