<svg xmlns="http://www.w3.org/2000/svg" xmlns:xlink="http://www.w3.org/1999/xlink" viewbox="0 0 128 128" width="128" height="128"><defs><style>.cls-1{fill:none;stroke:none;}.cls-2{isolation:isolate;stroke:none;}.cls-3{fill:url(#未命名的渐变_14);stroke:none;}.cls-4{fill:url(#未命名的渐变_167);stroke:none;}.cls-5{fill:url(#未命名的渐变_38);stroke:none;}.cls-6{fill:url(#未命名的渐变_20);stroke:none;}.cls-7{fill:url(#未命名的渐变_43);stroke:none;}.cls-8{fill:url(#未命名的渐变_67);stroke:none;}.cls-9{fill:url(#未命名的渐变_411);stroke:none;}.cls-10{fill:url(#未命名的渐变_388);stroke:none;}.cls-11{fill:#e8f4f7;stroke:none;}.cls-12{fill:url(#未命名的渐变_403);stroke:none;}.cls-13{fill:#d1e1e7;stroke:none;}.cls-14{fill:url(#未命名的渐变_119);stroke:none;}.cls-15{fill:#479798;stroke:none;}.cls-16{fill:#6b7e84;stroke:none;}.cls-16,.cls-25,.cls-28{mix-blend-mode:multiply;stroke:none;}.cls-17{fill:#2c4c53;stroke:none;}.cls-18{fill:url(#未命名的渐变_181);stroke:none;}.cls-19{fill:#82b7bc;stroke:none;}.cls-20{fill:url(#未命名的渐变_92);stroke:none;}.cls-21{fill:url(#未命名的渐变_92-2);stroke:none;}.cls-22{fill:url(#未命名的渐变_92-3);stroke:none;}.cls-23{fill:url(#未命名的渐变_140);stroke:none;}.cls-24{fill:#a8c5c8;stroke:none;}.cls-25{fill:#88b8b9;opacity:0.35;stroke:none;}.cls-26{fill:url(#未命名的渐变_290);stroke:none;}.cls-27{fill:url(#未命名的渐变_268);stroke:none;}.cls-28{opacity:0.44;stroke:none;}.cls-29{clip-path:url(#clip-path);stroke:none;}.cls-30{fill:#109b8f;stroke:none;}.cls-31{fill:#3f7b7e;stroke:none;}.cls-32{fill:url(#未命名的渐变_173);stroke:none;}.cls-33{fill:url(#linear-gradient);stroke:none;}.cls-34{fill:url(#未命名的渐变_232);stroke:none;}.cls-35{fill:#2aaae2;stroke:none;}.cls-36{fill:#8ad3de;stroke:none;}.cls-37{fill:url(#未命名的渐变_191);stroke:none;}.cls-38{fill:url(#未命名的渐变_467);stroke:none;}.cls-39{fill:#010101;stroke:none;}.cls-40{fill:url(#未命名的渐变_68);stroke:none;}.cls-41{opacity:0.83;stroke:none;}.cls-42{fill:#fff;stroke:none;}.cls-43{fill:url(#未命名的渐变_140-2);stroke:none;}.cls-44{fill:#c4dee2;stroke:none;}.cls-45{fill:#30817d;stroke:none;}</style><linearGradient id="&#x672A;&#x547D;&#x540D;&#x7684;&#x6E10;&#x53D8;_14" x1="98.49" y1="136.58" x2="103.59" y2="136.58" gradienttransform="translate(48.9 -74.84) rotate(40)" gradientunits="userSpaceOnUse"><stop offset="0" stop-color="#9b9c9c"/><stop offset="0.25" stop-color="#d7d8d9"/><stop offset="0.36" stop-color="#d2d3d4"/><stop offset="0.5" stop-color="#c3c4c5"/><stop offset="0.65" stop-color="#aaabab"/><stop offset="0.81" stop-color="#888"/><stop offset="0.98" stop-color="#5c5c5c"/><stop offset="1" stop-color="#575757"/></linearGradient><linearGradient id="&#x672A;&#x547D;&#x540D;&#x7684;&#x6E10;&#x53D8;_167" x1="98.49" y1="132.57" x2="103.59" y2="132.57" gradienttransform="translate(48.9 -74.84) rotate(40)" gradientunits="userSpaceOnUse"><stop offset="0" stop-color="#ccc"/><stop offset="0.25" stop-color="#f3f3f3"/><stop offset="0.36" stop-color="#eee"/><stop offset="0.5" stop-color="#dfdfdf"/><stop offset="0.66" stop-color="#c5c5c5"/><stop offset="0.82" stop-color="#a2a2a2"/><stop offset="0.99" stop-color="#767676"/><stop offset="1" stop-color="#737373"/></linearGradient><linearGradient id="&#x672A;&#x547D;&#x540D;&#x7684;&#x6E10;&#x53D8;_38" x1="99.32" y1="162.84" x2="101.84" y2="162.84" gradienttransform="translate(48.9 -74.84) rotate(40)" gradientunits="userSpaceOnUse"><stop offset="0" stop-color="#8b8b8c"/><stop offset="0" stop-color="#8c8c8d"/><stop offset="0.12" stop-color="#c5c5c6"/><stop offset="0.2" stop-color="#e9e9e9"/><stop offset="0.25" stop-color="#f6f6f6"/><stop offset="0.55" stop-color="#f4f4f4"/><stop offset="0.66" stop-color="#ededed"/><stop offset="0.74" stop-color="#e2e2e2"/><stop offset="0.8" stop-color="#d1d1d1"/><stop offset="0.86" stop-color="#bbb"/><stop offset="0.91" stop-color="#9f9f9f"/><stop offset="0.95" stop-color="#7f7f7f"/><stop offset="0.99" stop-color="#5b5b5b"/><stop offset="1" stop-color="#4f4f4f"/></linearGradient><linearGradient id="&#x672A;&#x547D;&#x540D;&#x7684;&#x6E10;&#x53D8;_20" x1="99.32" y1="155.64" x2="101.84" y2="155.64" gradienttransform="translate(48.9 -74.84) rotate(40)" gradientunits="userSpaceOnUse"><stop offset="0" stop-color="#c0bfbf"/><stop offset="0.25" stop-color="#e0e1e1"/><stop offset="0.41" stop-color="#dbdcdc"/><stop offset="0.6" stop-color="#cccdcd"/><stop offset="0.82" stop-color="#b3b4b4"/><stop offset="1" stop-color="#999"/></linearGradient><linearGradient id="&#x672A;&#x547D;&#x540D;&#x7684;&#x6E10;&#x53D8;_43" x1="62.77" y1="83.55" x2="69.52" y2="83.55" gradienttransform="matrix(0.77, 0.64, -0.63, 0.78, 54.46, -28.57)" gradientunits="userSpaceOnUse"><stop offset="0" stop-color="#a3a3a3"/><stop offset="0.07" stop-color="#ababac"/><stop offset="0.33" stop-color="#c3c4c5"/><stop offset="0.56" stop-color="#d2d3d4"/><stop offset="0.75" stop-color="#d7d8d9"/><stop offset="1" stop-color="#9b9c9c"/></linearGradient><linearGradient id="&#x672A;&#x547D;&#x540D;&#x7684;&#x6E10;&#x53D8;_67" x1="62.77" y1="83.15" x2="69.52" y2="83.15" gradienttransform="matrix(0.77, 0.64, -0.63, 0.78, 54.46, -28.57)" gradientunits="userSpaceOnUse"><stop offset="0" stop-color="#c9cacb"/><stop offset="0.25" stop-color="#fff"/><stop offset="0.37" stop-color="#dcdcdc"/><stop offset="0.55" stop-color="#afafaf"/><stop offset="0.64" stop-color="#9e9e9e"/><stop offset="0.77" stop-color="#acacac"/><stop offset="1" stop-color="#ccc"/></linearGradient><linearGradient id="&#x672A;&#x547D;&#x540D;&#x7684;&#x6E10;&#x53D8;_411" x1="61.39" y1="81.34" x2="70.87" y2="81.34" gradienttransform="matrix(0.77, 0.64, -0.63, 0.78, 54.46, -28.57)" gradientunits="userSpaceOnUse"><stop offset="0" stop-color="#4fc2c0"/><stop offset="0.68" stop-color="#2a8385"/><stop offset="1" stop-color="#176468"/></linearGradient><linearGradient id="&#x672A;&#x547D;&#x540D;&#x7684;&#x6E10;&#x53D8;_388" x1="59.4" y1="80.29" x2="73.47" y2="80.29" gradienttransform="matrix(0.77, 0.64, -0.63, 0.78, 54.46, -28.57)" gradientunits="userSpaceOnUse"><stop offset="0.01" stop-color="#a1c9c8"/><stop offset="0.06" stop-color="#9fcccc"/><stop offset="0.12" stop-color="#98d6d8"/><stop offset="0.12" stop-color="#97d7d9"/><stop offset="0.29" stop-color="#91d5dc"/><stop offset="0.67" stop-color="#529ba0"/><stop offset="1" stop-color="#176468"/></linearGradient><linearGradient id="&#x672A;&#x547D;&#x540D;&#x7684;&#x6E10;&#x53D8;_403" x1="41.97" y1="51.2" x2="84.18" y2="51.2" gradienttransform="translate(55.14 -28) rotate(40)" gradientunits="userSpaceOnUse"><stop offset="0" stop-color="#7bb1ba"/><stop offset="0.36" stop-color="#b6d9dd"/><stop offset="0.56" stop-color="#d3edee"/><stop offset="0.62" stop-color="#c0e2e4"/><stop offset="0.71" stop-color="#a4d1d4"/><stop offset="0.8" stop-color="#90c5c9"/><stop offset="0.9" stop-color="#84bdc2"/><stop offset="0.99" stop-color="#80bbc0"/></linearGradient><linearGradient id="&#x672A;&#x547D;&#x540D;&#x7684;&#x6E10;&#x53D8;_119" x1="58.88" y1="18.61" x2="76.49" y2="18.61" gradienttransform="matrix(0.77, 0.64, -0.63, 0.78, 54.46, -28.57)" gradientunits="userSpaceOnUse"><stop offset="0.01" stop-color="#97bac2"/><stop offset="0.14" stop-color="#9abec6"/><stop offset="0.26" stop-color="#a1c9d2"/><stop offset="0.29" stop-color="#a4cdd6"/><stop offset="0.41" stop-color="#96c5cd"/><stop offset="0.63" stop-color="#73afb6"/><stop offset="0.93" stop-color="#398b92"/><stop offset="1" stop-color="#2a8288"/></linearGradient><linearGradient id="&#x672A;&#x547D;&#x540D;&#x7684;&#x6E10;&#x53D8;_181" x1="61.18" y1="18.62" x2="73.49" y2="18.62" gradienttransform="translate(55.14 -28) rotate(40)" gradientunits="userSpaceOnUse"><stop offset="0" stop-color="#7ab9b7"/><stop offset="0.1" stop-color="#88c4bf"/><stop offset="0.23" stop-color="#9fd7cd"/><stop offset="0.39" stop-color="#83c3ba"/><stop offset="0.72" stop-color="#3e928a"/><stop offset="1" stop-color="#00665f"/></linearGradient><linearGradient id="&#x672A;&#x547D;&#x540D;&#x7684;&#x6E10;&#x53D8;_92" x1="65.12" y1="22.87" x2="66.04" y2="22.87" gradienttransform="matrix(0.77, 0.64, -0.63, 0.78, 54.46, -28.57)" gradientunits="userSpaceOnUse"><stop offset="0" stop-color="#004c50"/><stop offset="0.13" stop-color="#055054"/><stop offset="0.3" stop-color="#145c5f"/><stop offset="0.49" stop-color="#2e7072"/><stop offset="0.68" stop-color="#518b8d"/><stop offset="0.88" stop-color="#7daeae"/><stop offset="1" stop-color="#9ac4c4"/></linearGradient><linearGradient id="&#x672A;&#x547D;&#x540D;&#x7684;&#x6E10;&#x53D8;_92-2" x1="74.3" y1="19.94" x2="75.22" y2="19.94" xlink:href="#&#x672A;&#x547D;&#x540D;&#x7684;&#x6E10;&#x53D8;_92"><linearGradient id="&#x672A;&#x547D;&#x540D;&#x7684;&#x6E10;&#x53D8;_92-3" x1="59.85" y1="17.28" x2="60.77" y2="17.28" xlink:href="#&#x672A;&#x547D;&#x540D;&#x7684;&#x6E10;&#x53D8;_92"><linearGradient id="&#x672A;&#x547D;&#x540D;&#x7684;&#x6E10;&#x53D8;_140" x1="61.89" y1="16.5" x2="73.9" y2="16.5" gradienttransform="matrix(0.77, 0.64, -0.63, 0.78, 54.46, -28.57)" gradientunits="userSpaceOnUse"><stop offset="0.01" stop-color="#afcbce"/><stop offset="0.04" stop-color="#b1cfd1"/><stop offset="0.07" stop-color="#b6dadb"/><stop offset="0.15" stop-color="#c4e3e7"/><stop offset="0.26" stop-color="#dcf2fd"/><stop offset="0.4" stop-color="#bfe0ea"/><stop offset="0.7" stop-color="#77b2ba"/><stop offset="1" stop-color="#2a8288"/></linearGradient><linearGradient id="&#x672A;&#x547D;&#x540D;&#x7684;&#x6E10;&#x53D8;_290" x1="81.64" y1="40.16" x2="84.03" y2="40.16" gradienttransform="translate(55.14 -28) rotate(40)" gradientunits="userSpaceOnUse"><stop offset="0" stop-color="#d89140"/><stop offset="0.25" stop-color="#fff799"/><stop offset="0.35" stop-color="#faf295"/><stop offset="0.49" stop-color="#ece38b"/><stop offset="0.63" stop-color="#d6c979"/><stop offset="0.78" stop-color="#b6a661"/><stop offset="0.94" stop-color="#8d7a41"/><stop offset="1" stop-color="#7d6835"/></linearGradient><linearGradient id="&#x672A;&#x547D;&#x540D;&#x7684;&#x6E10;&#x53D8;_268" x1="80.56" y1="40.71" x2="83.08" y2="40.71" gradienttransform="matrix(0.77, 0.64, -0.63, 0.78, 54.46, -28.57)" gradientunits="userSpaceOnUse"><stop offset="0" stop-color="#d89140"/><stop offset="0.25" stop-color="#decd5f"/><stop offset="0.43" stop-color="#dac85b"/><stop offset="0.65" stop-color="#cfb951"/><stop offset="0.89" stop-color="#bca040"/><stop offset="1" stop-color="#b29237"/></linearGradient><clippath id="clip-path"><path class="cls-1" d="M95,19.66l-1.53,1.87c-1,1.28.19,4,2.73,6.18s5.44,2.83,6.48,1.55l1.52-1.88Z"/></clippath><linearGradient id="&#x672A;&#x547D;&#x540D;&#x7684;&#x6E10;&#x53D8;_173" x1="62" y1="10.46" x2="72.37" y2="10.46" gradienttransform="translate(55.14 -28) rotate(40)" gradientunits="userSpaceOnUse"><stop offset="0" stop-color="#7ab9b7"/><stop offset="0.17" stop-color="#6cb0ad"/><stop offset="0.48" stop-color="#499793"/><stop offset="0.9" stop-color="#0f706a"/><stop offset="1" stop-color="#00665f"/></linearGradient><linearGradient id="linear-gradient" x1="62.78" y1="8.49" x2="73.01" y2="8.49" gradienttransform="matrix(0.77, 0.64, -0.63, 0.78, 54.46, -28.57)" gradientunits="userSpaceOnUse"><stop offset="0" stop-color="#bbb"/><stop offset="0" stop-color="#b1b1b1"/><stop offset="0.01" stop-color="#9b9b9b"/><stop offset="0.01" stop-color="#8b8b8b"/><stop offset="0.02" stop-color="#7f7f7f"/><stop offset="0.03" stop-color="#787878"/><stop offset="0.05" stop-color="#767676"/><stop offset="0.1" stop-color="#b5b6b6"/><stop offset="0.19" stop-color="#fff"/><stop offset="0.31" stop-color="#a3a3a2"/><stop offset="0.37" stop-color="#c2c2c2"/><stop offset="0.41" stop-color="#908f8f"/><stop offset="0.55" stop-color="#aeaeae"/><stop offset="0.6" stop-color="#cfd0d0"/><stop offset="0.77" stop-color="#c8c7c6"/><stop offset="0.87" stop-color="#676767"/><stop offset="0.92" stop-color="#bbb"/><stop offset="0.95" stop-color="#8c8c8c"/><stop offset="1" stop-color="#9e9e9e"/></linearGradient><linearGradient id="&#x672A;&#x547D;&#x540D;&#x7684;&#x6E10;&#x53D8;_232" x1="60.66" y1="3.56" x2="73.48" y2="3.56" gradienttransform="translate(55.14 -28) rotate(40)" gradientunits="userSpaceOnUse"><stop offset="0" stop-color="#1072ba"/><stop offset="0.24" stop-color="#1072ba"/><stop offset="1" stop-color="#00397c"/></linearGradient><linearGradient id="&#x672A;&#x547D;&#x540D;&#x7684;&#x6E10;&#x53D8;_191" x1="58.94" y1="14.52" x2="76.42" y2="22.73" gradienttransform="matrix(0.77, 0.64, -0.63, 0.78, 54.46, -28.57)" gradientunits="userSpaceOnUse"><stop offset="0.01" stop-color="#97bac2"/><stop offset="0.07" stop-color="#9abec5"/><stop offset="0.13" stop-color="#a2cace"/><stop offset="0.18" stop-color="#afdedc"/><stop offset="0.18" stop-color="#b0dfdd"/><stop offset="0.37" stop-color="#b0d1d1"/><stop offset="0.67" stop-color="#b1b3b6"/><stop offset="0.88" stop-color="#5d9499"/><stop offset="1" stop-color="#2a8288"/></linearGradient><linearGradient id="&#x672A;&#x547D;&#x540D;&#x7684;&#x6E10;&#x53D8;_467" x1="62.28" y1="67.55" x2="89.62" y2="67.55" gradientunits="userSpaceOnUse"><stop offset="0" stop-color="#81c8cb"/><stop offset="0.27" stop-color="#56afb4"/><stop offset="0.6" stop-color="#28959b"/><stop offset="0.85" stop-color="#0b848b"/><stop offset="1" stop-color="#007e85"/></linearGradient><linearGradient id="&#x672A;&#x547D;&#x540D;&#x7684;&#x6E10;&#x53D8;_68" x1="98.21" y1="144.95" x2="103.68" y2="144.95" gradienttransform="matrix(0.94, 0.44, -0.63, 0.77, 70.88, -90.57)" gradientunits="userSpaceOnUse"><stop offset="0" stop-color="#ccc"/><stop offset="0.25" stop-color="#010101"/><stop offset="0.34" stop-color="#060606"/><stop offset="0.44" stop-color="#161616"/><stop offset="0.56" stop-color="#2f2f2f"/><stop offset="0.69" stop-color="#525252"/><stop offset="0.82" stop-color="#7f7f7f"/><stop offset="0.96" stop-color="#b5b5b5"/><stop offset="1" stop-color="#c7c7c7"/></linearGradient><linearGradient id="&#x672A;&#x547D;&#x540D;&#x7684;&#x6E10;&#x53D8;_140-2" x1="58.49" y1="75.51" x2="83.26" y2="75.51" gradienttransform="translate(55.14 -28) rotate(40)" xlink:href="#&#x672A;&#x547D;&#x540D;&#x7684;&#x6E10;&#x53D8;_140"/></linearGradient></linearGradient></defs><title>&#x751F;&#x7269;&#x4EEA;&#x5668;</title><g class="cls-2"><g id="Bio_instruments&#x751F;&#x7269;&#x4EEA;&#x5668;" data-name="Bio instruments&#x751F;&#x7269;&#x4EEA;&#x5668;"><path class="cls-3" d="M25.25,109.82h0c-.88-.74,2.34-6,3-6.78L49,79.67a2,2,0,0,1,2.73,0h0a2,2,0,0,1,.46,2.69L31.41,105.72C30.79,106.46,26.13,110.55,25.25,109.82Z"/><path class="cls-4" d="M53,78.2a2,2,0,0,0-2.73,0L28.47,102.73a.92.92,0,0,0-.22.7A2.7,2.7,0,0,0,31,105.75a.92.92,0,0,0,.65-.33L53.45,80.9A2,2,0,0,0,53,78.2Z"/><path class="cls-5" d="M16,120.87h0c-.53-.45,9.48-13.26,9.48-13.26.36-.43.06.1.94.84s1.36.35,1,.78C27.39,109.23,16.5,121.32,16,120.87Z"/><path class="cls-6" d="M26.3,108.56c-.88-.74-.48-1.39-.85-1l-.8,1s-.2.51.6,1.18,1.26.38,1.26.38l.88-1C27.75,108.8,27.18,109.3,26.3,108.56Z"/><path class="cls-7" d="M55.13,81a3.27,3.27,0,0,1-4.66.39A3.41,3.41,0,0,1,50,76.71a3.27,3.27,0,0,1,4.66-.39A3.41,3.41,0,0,1,55.13,81Z"/><path class="cls-8" d="M49.28,78.32A5.34,5.34,0,0,0,51,80.83,5.2,5.2,0,0,0,53.71,82a3.16,3.16,0,0,0,1.42-1,3.41,3.41,0,0,0-.51-4.73,3.22,3.22,0,0,0-5.34,2Z"/><path class="cls-9" d="M57.48,80.3c-1.37,1.71-4,1.54-6-.14s-2.67-4.25-1.3-6,4.11-1.73,6.12,0S58.85,78.59,57.48,80.3Z"/><path class="cls-10" d="M61.07,80c-1.71,2.11-5.49,1.81-8.44-.67S49,73.77,50.37,71c1.2-2.44,2.29-.85,5.24,1.63S62.78,77.88,61.07,80Z"/><path class="cls-11" d="M83.93,28.13a15.2,15.2,0,0,0-4.58-5.37c-2.93-2-7.06-3.79-7.49-4.86s.37-2.44,2.81-3.34,5.85-2.52,8.16-1.9,6,.87,9.68,4.76,8.38,10,9.63,12.25a7.08,7.08,0,0,1,.06,6.24l-7.79,6.4,7.15,5.29-30.66,35s-1.72,2.62-7.22.25C59.21,80.92,54.1,78,52,74.82s-1.18-6.59.93-9.19S83.93,28.13,83.93,28.13Z"/><path class="cls-12" d="M94.4,42.31l5.47-5.13-.08,0a9.15,9.15,0,0,1-6.24-1,16.88,16.88,0,0,1-6.48-6.8c-1.11-2.59-3.43-5-5.62-6.92s-9.69-5-9.69-5h0a1.53,1.53,0,0,0,.1.42c.43,1.08,4.56,2.91,7.49,4.86a15.2,15.2,0,0,1,4.58,5.37S55.07,63,53,65.63s-3,6-.93,9.19,7.17,6.1,11.64,8c5.5,2.37,7.22-.25,7.22-.25L102,47.13Z"/><path class="cls-13" d="M100.77,35.26c-2,2.15-6.39,1.23-9.76-2.05s-4.47-7.68-2.45-9.83,6.39-1.23,9.76,2.05S102.79,33.12,100.77,35.26Z"/><path class="cls-14" d="M91.57,34q-.36-.3-.7-.63A12.16,12.16,0,0,1,87.46,28a4.84,4.84,0,0,1,.76-4.67c2.05-2.22,6.59-1.27,10.1,2.09a12.16,12.16,0,0,1,3.41,5.46A4.84,4.84,0,0,1,101,35.5h0C99,37.58,95,36.89,91.57,34ZM97.41,25c-3.26-2.73-7.14-3.42-8.94-1.48a4.52,4.52,0,0,0-.69,4.35,11.83,11.83,0,0,0,3.31,5.3c3.38,3.24,7.7,4.18,9.63,2.1a4.52,4.52,0,0,0,.69-4.35,11.83,11.83,0,0,0-3.31-5.3Q97.76,25.29,97.41,25Z"/><path class="cls-15" d="M89,40.92s9.36,6.34,10.35,6.67a2.76,2.76,0,0,0,3.75-2.6c.07-2.57-5.41-7.06-5.41-7.06l-3.51,4a5.42,5.42,0,0,1-2.44,0A16,16,0,0,1,89,40.92Z"/><path class="cls-16" d="M95.3,42.49l1.34-.15s3.46-1.65,3.49-1.76a7.5,7.5,0,0,0-.77-1.08c-.93-.93-1.67-1.58-1.67-1.58l-3.51,4a5.42,5.42,0,0,1-2.44,0,16,16,0,0,1-2.73-1,8.64,8.64,0,0,0,2.7,1.36A8.74,8.74,0,0,0,95.3,42.49Z"/><path class="cls-17" d="M94.18,41.91l4.69,3.43s1.6.94,2.41-.18a7.19,7.19,0,0,0,1-2.24,29.66,29.66,0,0,0-4.55-5Z"/><path class="cls-18" d="M99.46,33.5c-1.37,1.69-4.59,1.29-7.2-.89s-3.6-5.33-2.23-7,4.59-1.29,7.2.89S100.83,31.81,99.46,33.5Z"/><path class="cls-13" d="M91.62,38.65a1.53,1.53,0,0,1,.19-2l.74-.68s0-.3,1.35.37,5,2.26,7.56.21.91-6.54.91-6.54,4.43,7.17,5.11,10.25c.51,2.33-.49,5.57-2.93,5.57s-4.87-1.17-8.67-3.85l-3.8-2.68Z"/><path class="cls-19" d="M103.1,44.21c-3.61-.69-8.07-5.39-9.19-6.32a4.17,4.17,0,0,1-1.37-2L91.35,37a.84.84,0,0,0-.1,1.11l.66.89a1.74,1.74,0,0,0,.4.39l3.57,2.51c3.8,2.68,6.13,3.88,8.7,3.87a2.74,2.74,0,0,0,2.59-2.1C106.31,44.42,105,44.57,103.1,44.21Z"/><path class="cls-20" d="M90.65,31.65a.41.41,0,0,1-.56,0,.42.42,0,0,1-.14-.56.41.41,0,0,1,.56,0A.42.42,0,0,1,90.65,31.65Z"/><path class="cls-21" d="M99.53,35.27a.42.42,0,0,1-.6,0,.44.44,0,0,1-.11-.6.42.42,0,0,1,.6,0A.44.44,0,0,1,99.53,35.27Z"/><path class="cls-22" d="M90.14,23.92a.42.42,0,0,1-.6,0,.44.44,0,0,1-.11-.6.42.42,0,0,1,.6,0A.44.44,0,0,1,90.14,23.92Z"/><path class="cls-23" d="M95.14,19.53l-4.8,5.91c-1.39,1.71-.45,4.83,2.09,7s5.73,2.48,7.11.76l4.79-5.92Z"/><path class="cls-17" d="M93.7,29.41l1.36.59-.89-1.2L94,29a8.51,8.51,0,0,1-.63-.67l.24-.17-1.12-1,.11.33h0L93,28.63l.28-.19a8.7,8.7,0,0,0,.66.7Z"/><path class="cls-17" d="M96.83,30.24l-.37.47.49.26-.24.3L96.22,31l-.37.47-.32-.17.37-.47-.48-.26.24-.3.48.26.37-.47Z"/><path class="cls-17" d="M91.7,25.11l.51,1.34-.24.3-.51-1.34Z"/><path class="cls-24" d="M82.06,19.64a1.18,1.18,0,0,0,.08-.31l.2-.13,1.1,1-.21.15-.87-.75a.76.76,0,0,1-.09.28Z"/><path class="cls-24" d="M84,19.76q-.33.21-.9-.26t-.25-.73q.35-.23.93.26T84,19.76Zm-1-.85c-.08.06,0,.21.29.45s.45.32.54.27,0-.21-.29-.44S83.16,18.86,83.07,18.91Z"/><path class="cls-24" d="M84,19l.68-.46.19.16-.68.46Z"/><path class="cls-24" d="M84.43,18a1.18,1.18,0,0,0,.08-.31l.2-.13,1.1,1-.21.15-.87-.75a.75.75,0,0,1-.09.28Z"/><path class="cls-24" d="M86.42,18.15q-.33.21-.9-.26t-.25-.73c.23-.15.54-.06.93.26S86.64,18,86.42,18.15Zm-1-.85c-.08.06,0,.21.29.45s.45.32.54.27,0-.21-.28-.44S85.53,17.24,85.44,17.3Z"/><path class="cls-24" d="M87.2,17.62q-.33.21-.9-.26c-.38-.33-.46-.58-.25-.73s.54-.06.93.26S87.42,17.46,87.2,17.62Zm-1-.85c-.08.06,0,.21.29.45s.45.32.54.27,0-.21-.29-.44S86.31,16.71,86.22,16.77Z"/><path class="cls-25" d="M94.51,53.76A96.67,96.67,0,0,1,80.28,44.5a10,10,0,0,1-3.22-8.06l-1,1.24a10.06,10.06,0,0,0,3.22,8.09A96.67,96.67,0,0,0,93.49,55a3.93,3.93,0,0,0,1.38.23L96,54A4.32,4.32,0,0,1,94.51,53.76Z"/><path class="cls-25" d="M92.45,56.3A96.67,96.67,0,0,1,78.22,47,10.07,10.07,0,0,1,75,38.93l-1,1.24A10.08,10.08,0,0,0,77.2,48.3a96.67,96.67,0,0,0,14.23,9.26,3.75,3.75,0,0,0,1.22.22l1.09-1.24A4.11,4.11,0,0,1,92.45,56.3Z"/><path class="cls-25" d="M90.51,58.75c-1.09-.43-10.24-5.62-14.35-9.17a10.09,10.09,0,0,1-3.21-8.17l-1,1.24a10.11,10.11,0,0,0,3.21,8.19,80.65,80.65,0,0,0,14.49,9,4.52,4.52,0,0,0,1,.22l1-1.14A3.93,3.93,0,0,1,90.51,58.75Z"/><path class="cls-25" d="M88.44,61.22c-1.09-.43-10.24-5.62-14.35-9.17a10.07,10.07,0,0,1-3.21-8.13l-1,1.24a10.08,10.08,0,0,0,3.21,8.15,80.64,80.64,0,0,0,14.49,9,4.8,4.8,0,0,0,.93.21l1-1.14A3.5,3.5,0,0,1,88.44,61.22Z"/><path class="cls-25" d="M86.36,63.7c-1.09-.43-10.24-5.62-14.35-9.17a10,10,0,0,1-3.22-8.08l-1,1.24A10.06,10.06,0,0,0,71,55.79a80.64,80.64,0,0,0,14.49,9,5.18,5.18,0,0,0,.84.19l1-1.13A3.13,3.13,0,0,1,86.36,63.7Z"/><path class="cls-25" d="M84.27,66.18C83.19,65.75,74,60.57,69.92,57A10,10,0,0,1,66.71,49l-1,1.24a10,10,0,0,0,3.22,8.08,80.64,80.64,0,0,0,14.49,9,5.32,5.32,0,0,0,.78.18l1-1.12A2.89,2.89,0,0,1,84.27,66.18Z"/><path class="cls-25" d="M82.19,68.67C81.1,68.24,72,63.05,67.84,59.51a10,10,0,0,1-3.22-8l-1,1.24a10,10,0,0,0,3.22,8,80.64,80.64,0,0,0,14.49,9,5.5,5.5,0,0,0,.7.16l1-1.11A2.64,2.64,0,0,1,82.19,68.67Z"/><path class="cls-25" d="M80,71.22a102.18,102.18,0,0,1-14.23-9.31,10.24,10.24,0,0,1-3.44-7.7l-.93,1.13a10.25,10.25,0,0,0,3.44,7.73,87.73,87.73,0,0,0,14.36,9.15,6,6,0,0,0,.61.16l.88-1A2.48,2.48,0,0,1,80,71.22Z"/><path class="cls-25" d="M77.92,73.75a109.27,109.27,0,0,1-14.14-9.42,10.49,10.49,0,0,1-3.6-7.47l-.87,1.05a10.49,10.49,0,0,0,3.6,7.5,93.74,93.74,0,0,0,14.26,9.27c.18.07.35.11.53.16l.81-.93A2.36,2.36,0,0,1,77.92,73.75Z"/><path class="cls-25" d="M75.83,76.25a111.09,111.09,0,0,1-14.12-9.44,10.55,10.55,0,0,1-3.63-7.39l-.85,1a10.56,10.56,0,0,0,3.64,7.41,95.3,95.3,0,0,0,14.24,9.3c.16.06.3.09.45.14l.79-.9A2.21,2.21,0,0,1,75.83,76.25Z"/><path class="cls-26" d="M94.66,52.11l-6.24,7.24a12.73,12.73,0,0,0,1.82.61l.44.08,6.46-7.37Z"/><path class="cls-27" d="M93.67,51.48l-6.38,7.39a7.6,7.6,0,0,1,1.49.85c.42.35.63.18.63.18l6.32-7.45Z"/><path class="cls-25" d="M97.09,52.7a4.42,4.42,0,0,1-1.73-.23,94.3,94.3,0,0,1-14.07-9.12,10,10,0,0,1-3.14-8.21l1-1.26a10,10,0,0,0,3.14,8.21,94.3,94.3,0,0,0,14.07,9.12,4.79,4.79,0,0,0,1.8.24Z"/><g class="cls-28"><g class="cls-29"><path class="cls-30" d="M91.1,24.27a.12.12,0,0,1,0-.16l4.65-5.92a.11.11,0,0,1,.16,0h0a.12.12,0,0,1,0,.16l-4.65,5.92a.11.11,0,0,1-.16,0Z"/><path class="cls-30" d="M91.32,24.44a.12.12,0,0,1,0-.16L96,18.37a.11.11,0,0,1,.16,0h0a.12.12,0,0,1,0,.16l-4.65,5.91a.11.11,0,0,1-.16,0Z"/><path class="cls-30" d="M91.67,24.73a.12.12,0,0,1,0-.16l4.65-5.91a.11.11,0,0,1,.16,0,.11.11,0,0,1,0,.16l-4.65,5.91a.11.11,0,0,1-.16,0Z"/><path class="cls-30" d="M92,25a.12.12,0,0,1,0-.16l4.65-5.91a.11.11,0,0,1,.16,0h0a.12.12,0,0,1,0,.16L92.19,25A.11.11,0,0,1,92,25Z"/><path class="cls-30" d="M92.58,25.45a.12.12,0,0,1,0-.16l4.65-5.91a.11.11,0,0,1,.16,0h0a.12.12,0,0,1,0,.16l-4.65,5.91A.12.12,0,0,1,92.58,25.45Z"/><path class="cls-30" d="M93.14,25.91a.12.12,0,0,1,0-.16l4.65-5.92a.11.11,0,0,1,.16,0h0A.12.12,0,0,1,98,20L93.3,25.89a.11.11,0,0,1-.16,0Z"/><path class="cls-30" d="M93.71,26.36a.12.12,0,0,1,0-.16l4.65-5.92a.11.11,0,0,1,.16,0h0a.12.12,0,0,1,0,.16l-4.65,5.92a.11.11,0,0,1-.16,0Z"/><path class="cls-30" d="M94.28,26.83a.12.12,0,0,1,0-.16l4.65-5.92a.11.11,0,0,1,.16,0,.12.12,0,0,1,0,.16l-4.65,5.92a.11.11,0,0,1-.16,0Z"/><path class="cls-30" d="M94.86,27.29a.12.12,0,0,1,0-.16l4.65-5.91a.11.11,0,1,1,.18.14L95,27.27a.11.11,0,0,1-.16,0Z"/><path class="cls-30" d="M95.8,28a.12.12,0,0,1,0-.16L100.44,22a.11.11,0,0,1,.16,0h0a.12.12,0,0,1,0,.16L96,28a.11.11,0,0,1-.16,0Z"/><path class="cls-30" d="M96.92,28.95a.12.12,0,0,1,0-.16l4.65-5.92a.11.11,0,0,1,.16,0,.12.12,0,0,1,0,.16l-4.65,5.92a.11.11,0,0,1-.16,0Z"/><path class="cls-30" d="M97.76,29.62a.12.12,0,0,1,0-.16l4.65-5.92a.11.11,0,0,1,.16,0h0a.12.12,0,0,1,0,.16L97.92,29.6A.1.1,0,0,1,97.76,29.62Z"/><path class="cls-30" d="M98.33,30.08a.12.12,0,0,1,0-.16L103,24a.11.11,0,0,1,.16,0h0a.12.12,0,0,1,0,.16l-4.65,5.92a.11.11,0,0,1-.16,0Z"/><path class="cls-30" d="M98.9,30.54a.12.12,0,0,1,0-.16l4.65-5.92a.11.11,0,0,1,.16,0h0a.12.12,0,0,1,0,.16l-4.65,5.92a.11.11,0,0,1-.16,0Z"/><path class="cls-30" d="M99.46,31a.12.12,0,0,1,0-.16l4.65-5.91a.12.12,0,0,1,.16,0,.12.12,0,0,1,0,.16L99.62,31a.11.11,0,0,1-.16,0Z"/><path class="cls-30" d="M100,31.42a.12.12,0,0,1,0-.16l4.65-5.91a.11.11,0,0,1,.16,0h0a.12.12,0,0,1,0,.16l-4.65,5.91a.11.11,0,0,1-.16,0Z"/><path class="cls-30" d="M100.37,31.72a.12.12,0,0,1,0-.16L105,25.64a.11.11,0,0,1,.16,0h0a.12.12,0,0,1,0,.16l-4.65,5.91a.11.11,0,0,1-.16,0Z"/><path class="cls-30" d="M100.71,32a.12.12,0,0,1,0-.16l4.65-5.92a.11.11,0,0,1,.16,0h0a.12.12,0,0,1,0,.16L100.87,32a.11.11,0,0,1-.16,0Z"/><path class="cls-30" d="M100.94,32.18a.12.12,0,0,1,0-.16l4.65-5.91a.11.11,0,0,1,.16,0h0a.12.12,0,0,1,0,.16l-4.65,5.91a.11.11,0,0,1-.16,0Z"/><path class="cls-31" d="M91.11,24.27a.12.12,0,0,1,0-.16l4.65-5.92a.11.11,0,0,1,.16,0h0a.12.12,0,0,1,0,.16l-4.65,5.92a.11.11,0,0,1-.16,0Z"/><path class="cls-31" d="M91.33,24.45a.12.12,0,0,1,0-.16L96,18.37a.11.11,0,0,1,.16,0h0a.12.12,0,0,1,0,.16l-4.65,5.92a.11.11,0,0,1-.16,0Z"/><path class="cls-31" d="M91.68,24.74a.12.12,0,0,1,0-.16l4.65-5.92a.11.11,0,0,1,.16,0,.11.11,0,0,1,0,.16l-4.65,5.92a.11.11,0,0,1-.16,0Z"/><path class="cls-31" d="M92.05,25a.12.12,0,0,1,0-.16L96.68,19a.11.11,0,0,1,.16,0h0a.12.12,0,0,1,0,.16L92.21,25a.11.11,0,0,1-.16,0Z"/><path class="cls-31" d="M92.6,25.48a.12.12,0,0,1,0-.16l4.65-5.92a.11.11,0,0,1,.16,0h0a.12.12,0,0,1,0,.16l-4.65,5.92A.12.12,0,0,1,92.6,25.48Z"/><path class="cls-31" d="M93.17,25.94a.12.12,0,0,1,0-.16l4.65-5.92a.11.11,0,0,1,.16,0h0A.12.12,0,0,1,98,20l-4.65,5.92a.11.11,0,0,1-.16,0Z"/><path class="cls-31" d="M93.75,26.4a.12.12,0,0,1,0-.16l4.65-5.92a.11.11,0,0,1,.16,0h0a.12.12,0,0,1,0,.16l-4.65,5.92a.11.11,0,0,1-.16,0Z"/><path class="cls-31" d="M94.34,26.87a.12.12,0,0,1,0-.16L99,20.79a.11.11,0,0,1,.16,0,.12.12,0,0,1,0,.16L94.5,26.86a.11.11,0,0,1-.16,0Z"/><path class="cls-31" d="M94.93,27.34a.12.12,0,0,1,0-.16l4.65-5.92a.12.12,0,0,1,.18.15l-4.65,5.92a.11.11,0,0,1-.16,0Z"/><path class="cls-31" d="M95.88,28.11a.12.12,0,0,1,0-.16L100.52,22a.11.11,0,0,1,.16,0h0a.12.12,0,0,1,0,.16L96,28.1a.11.11,0,0,1-.16,0Z"/><path class="cls-31" d="M97,29a.12.12,0,0,1,0-.16L101.66,23a.11.11,0,0,1,.16,0,.12.12,0,0,1,0,.16L97.19,29A.11.11,0,0,1,97,29Z"/><path class="cls-31" d="M97.87,29.72a.12.12,0,0,1,0-.16l4.65-5.92a.11.11,0,0,1,.16,0h0a.12.12,0,0,1,0,.16L98,29.7A.1.1,0,0,1,97.87,29.72Z"/><path class="cls-31" d="M98.45,30.18a.12.12,0,0,1,0-.16l4.65-5.92a.11.11,0,0,1,.16,0h0a.12.12,0,0,1,0,.16l-4.65,5.92a.11.11,0,0,1-.16,0Z"/><path class="cls-31" d="M99,30.65a.12.12,0,0,1,0-.16l4.65-5.92a.11.11,0,0,1,.16,0h0a.12.12,0,0,1,0,.16l-4.65,5.92a.11.11,0,0,1-.16,0Z"/><path class="cls-31" d="M99.6,31.11a.12.12,0,0,1,0-.16L104.24,25a.12.12,0,0,1,.16,0,.12.12,0,0,1,0,.16l-4.65,5.92a.11.11,0,0,1-.16,0Z"/><path class="cls-31" d="M100.16,31.55a.12.12,0,0,1,0-.16l4.65-5.92a.11.11,0,0,1,.16,0h0a.12.12,0,0,1,0,.16l-4.65,5.92a.11.11,0,0,1-.16,0Z"/><path class="cls-31" d="M100.53,31.85a.12.12,0,0,1,0-.16l4.65-5.92a.11.11,0,0,1,.16,0h0a.12.12,0,0,1,0,.16l-4.65,5.92a.11.11,0,0,1-.16,0Z"/><path class="cls-31" d="M100.88,32.13a.12.12,0,0,1,0-.16l4.65-5.92a.11.11,0,0,1,.16,0h0a.12.12,0,0,1,0,.16L101,32.11a.11.11,0,0,1-.16,0Z"/><path class="cls-31" d="M101.11,32.32a.12.12,0,0,1,0-.16l4.65-5.92a.11.11,0,0,1,.16,0h0a.12.12,0,0,1,0,.16l-4.65,5.92a.11.11,0,0,1-.16,0Z"/></g></g><path class="cls-13" d="M104.34,27.25c-1.16,1.43-4.16.86-6.7-1.28s-3.67-5-2.51-6.45,4.16-.86,6.7,1.28S105.5,25.82,104.34,27.25Z"/><path class="cls-32" d="M103.86,26.53c-1,1.22-3.58.72-5.77-1.12s-3.17-4.33-2.18-5.55,3.58-.72,5.77,1.12S104.85,25.3,103.86,26.53Z"/><path class="cls-33" d="M100.1,14.84l-3.79,4.65c-1.09,1.35-.23,3.91,1.94,5.73s4.8,2.19,5.89.84l3.78-4.66Z"/><path class="cls-34" d="M109.14,22c-1.41,1.74-4.75,1.31-7.46-1s-3.77-5.53-2.36-7.27,4.75-1.31,7.46,1S110.55,20.21,109.14,22Z"/><path class="cls-35" d="M109.34,21.17c-1.16,1.43-4.18.84-6.74-1.31S98.88,14.8,100,13.37s4.18-.84,6.74,1.31S110.49,19.74,109.34,21.17Z"/><path class="cls-36" d="M100.32,13.33a2.26,2.26,0,0,1,1.74-.74,2.42,2.42,0,0,0-2,.78c-1.16,1.43,0,4.34,2.56,6.49a9.41,9.41,0,0,0,3.32,1.84A10.55,10.55,0,0,1,103,20C100.38,17.73,99.16,14.76,100.32,13.33Z"/><path class="cls-37" d="M102.75,31a10.88,10.88,0,0,0-.45-1.27l-.28.34a10.52,10.52,0,0,1,.37,1c.55,2.07.27,3.84-.78,5-2.21,2.38-7.14,1.3-11-2.4a13.52,13.52,0,0,1-3.79-6.06c-.55-2.07-.27-3.84.78-5,1.25-1.35,3.38-1.58,5.69-.86l.25-.31c-2.5-.81-4.84-.58-6.21.9-1.15,1.24-1.46,3.14-.87,5.34A13.9,13.9,0,0,0,90.34,34q.39.38.8.72c3.88,3.25,8.54,4,10.74,1.66C103,35.13,103.34,33.24,102.75,31Z"/><path class="cls-38" d="M89.62,61.24a24.41,24.41,0,0,1-3.9-1.87c-1.82-1-4.76-3.24-7.47-3.26s-4,.55-7.77,5.07S62.28,71.3,62.28,71.3s3.42,4.47,6.5,5.82A48,48,0,0,0,74.06,79"/><path class="cls-39" d="M72.53,72.1l-4.17-2a.68.68,0,0,1-.27-1.1l8.31-9.86a1.28,1.28,0,0,1,1.45-.29l4.17,2a.68.68,0,0,1,.27,1.1L74,71.81A1.28,1.28,0,0,1,72.53,72.1Z"/><path class="cls-40" d="M72.49,71.38l-3.23-1.51a.68.68,0,0,1-.27-1.1l7.45-8.85a1.28,1.28,0,0,1,1.45-.29l3.23,1.51a.68.68,0,0,1,.27,1.1l-7.45,8.85A1.28,1.28,0,0,1,72.49,71.38Z"/><g class="cls-41"><path class="cls-42" d="M74.21,65.31l1.55,1.83-.22.27-1.42-1.72-.85,1L73,66.58l1.11-1.32Z"/><path class="cls-42" d="M76.51,66a.15.15,0,0,1-.09-.11.17.17,0,0,1,0-.15.29.29,0,0,1,.16-.1.27.27,0,0,1,.18,0,.15.15,0,0,1,.09.11.17.17,0,0,1,0,.15.28.28,0,0,1-.16.09A.26.26,0,0,1,76.51,66Z"/><path class="cls-42" d="M76.91,65.17a1.29,1.29,0,0,0,.51-.35.52.52,0,0,0,.15-.4.38.38,0,0,0-.25-.29.61.61,0,0,0-.46,0,1,1,0,0,0-.44.32l-.25.33L75,64.19l.84-1,.26.12-.64.76.65.31.14-.18a1.22,1.22,0,0,1,.61-.41.93.93,0,0,1,.66.06.6.6,0,0,1,.38.45.8.8,0,0,1-.24.63,1.41,1.41,0,0,1-.46.38Z"/></g><path class="cls-43" d="M70.22,78.78c-2.71-1.41-9.08-4.33-12.24-7.46-2.26-2.24-2.87-6.1-3.09-8L53,65.63c-2.11,2.6-3,6-.93,9.19s7.17,6.1,11.64,8c5.5,2.37,7.22-.25,7.22-.25L74.06,79A5,5,0,0,1,70.22,78.78Z"/><path class="cls-44" d="M72.58,78c-2-.33-6.66-4.15-11.21-7.87a15.31,15.31,0,0,1-5.26-8.37l-1.28,1.55c.15,1.8.75,5.81,3.1,8.15,3.09,3.07,9.31,5.89,12,7.27a4.62,4.62,0,0,0,4,.34l.74-.85A16.82,16.82,0,0,1,72.58,78Z"/><path class="cls-45" d="M93.8,51.67a17,17,0,0,0,1.87,1,3.84,3.84,0,0,0,1.28.2l.3-.35a3.91,3.91,0,0,1-1.45-.18,18.05,18.05,0,0,1-1.82-1l-.43-.25L87,58.86l.14.11A7.75,7.75,0,0,0,89,60a12.72,12.72,0,0,0,1.42.41l.26-.3a12.2,12.2,0,0,1-1.55-.43,7.52,7.52,0,0,1-1.66-.84l6.15-7.22Z"/></g></g></svg>