<svg id="Bio_instruments&#x751F;&#x7269;&#x4EEA;&#x5668;" data-name="Bio instruments&#x751F;&#x7269;&#x4EEA;&#x5668;" xmlns="http://www.w3.org/2000/svg" xmlns:xlink="http://www.w3.org/1999/xlink" viewbox="0 0 128 128" width="128" height="128"><defs><style>.cls-1{fill:none;stroke:none;}.cls-2{fill:url(#未命名的渐变_455);stroke:none;}.cls-3{fill:#8e5927;stroke:none;}.cls-4{fill:#dcb689;stroke:none;}.cls-5{opacity:0.22;stroke:none;}.cls-6{clip-path:url(#clip-path);stroke:none;}.cls-7{fill:#fed3ab;stroke:none;}.cls-8{opacity:0.46;stroke:none;}.cls-9{clip-path:url(#clip-path-2);stroke:none;}.cls-10{fill:url(#未命名的渐变_454);stroke:none;}.cls-11{clip-path:url(#clip-path-3);stroke:none;}.cls-12{clip-path:url(#clip-path-4);stroke:none;}.cls-13{fill:#c59562;stroke:none;}.cls-14{fill:#a76f35;stroke:none;}.cls-15{opacity:0.39;stroke:none;}.cls-16{clip-path:url(#clip-path-5);stroke:none;}.cls-17{opacity:0.18;stroke:none;}.cls-18{clip-path:url(#clip-path-6);stroke:none;}.cls-19{fill:#a76e34;stroke:none;}.cls-20{opacity:0.19;stroke:none;}.cls-21{clip-path:url(#clip-path-7);stroke:none;}.cls-22{fill:#ca9259;stroke:none;}.cls-23{opacity:0.27;stroke:none;}.cls-24{clip-path:url(#clip-path-8);stroke:none;}.cls-25{fill:#d8b38a;stroke:none;}.cls-26{clip-path:url(#clip-path-9);stroke:none;}.cls-27{clip-path:url(#clip-path-10);stroke:none;}</style><linearGradient id="&#x672A;&#x547D;&#x540D;&#x7684;&#x6E10;&#x53D8;_455" x1="-244.78" y1="69.79" x2="-239.37" y2="69.79" gradienttransform="matrix(1, 0, 0, -1, 358.04, 139.57)" gradientunits="userSpaceOnUse"><stop offset="0" stop-color="#9d7349"/><stop offset="1" stop-color="#c8a478"/></linearGradient><clippath id="clip-path"><rect class="cls-1" x="113.26" y="33.94" width="5.41" height="71.69" transform="translate(231.92 139.57) rotate(-180)"/></clippath><clippath id="clip-path-2"><polygon class="cls-1" points="111.03 30.48 116.31 30.48 118.67 33.94 113.26 33.94 111.03 30.48"/></clippath><linearGradient id="&#x672A;&#x547D;&#x540D;&#x7684;&#x6E10;&#x53D8;_454" x1="9.75" y1="69.79" x2="15.16" y2="69.79" gradientunits="userSpaceOnUse"><stop offset="0" stop-color="#c8a478"/><stop offset="1" stop-color="#9d7349"/></linearGradient><clippath id="clip-path-3"><rect class="cls-1" x="9.75" y="33.94" width="5.41" height="71.69"/></clippath><clippath id="clip-path-4"><polygon class="cls-1" points="17.39 30.48 12.11 30.48 9.75 33.94 15.16 33.94 17.39 30.48"/></clippath><clippath id="clip-path-5"><rect class="cls-1" x="15.16" y="98.85" width="98.09" height="3.56"/></clippath><clippath id="clip-path-6"><polygon class="cls-1" points="15.16 98.85 113.26 98.85 111.03 91.03 17.39 91.03 15.16 98.85"/></clippath><clippath id="clip-path-7"><rect class="cls-1" x="15.16" y="51.36" width="98.09" height="3.56"/></clippath><clippath id="clip-path-8"><path class="cls-1" d="M111,46.93h-8.31c.4,1.55-1.64,2.81-4.66,2.81s-5.78-1.26-6.25-2.81H89.47c.24,1.56-1.95,2.84-5,2.84s-5.64-1.28-5.94-2.84H76.21c.07,1.55-2.26,2.84-5.3,2.84s-5.51-1.28-5.62-2.84H62.95c-.14,1.55-2.61,2.8-5.62,2.8S52,48.48,52,46.93H49.69c-.3,1.53-2.92,2.81-5.94,2.81s-5.2-1.28-5-2.81H36.44c-.47,1.55-3.23,2.83-6.26,2.83s-5.06-1.29-4.65-2.83H17.39l-2.22,4.44h98.09Z"/></clippath><clippath id="clip-path-9"><rect class="cls-1" x="15.16" y="79.11" width="98.09" height="3.56"/></clippath><clippath id="clip-path-10"><path class="cls-1" d="M111,74.67h-8.31c.4,1.55-1.64,2.81-4.66,2.81s-5.78-1.26-6.25-2.81H89.47c.24,1.56-1.95,2.84-5,2.84s-5.64-1.28-5.94-2.84H76.21c.07,1.55-2.26,2.84-5.3,2.84s-5.51-1.28-5.62-2.84H62.95c-.14,1.55-2.61,2.8-5.62,2.8S52,76.22,52,74.67H49.69c-.3,1.53-2.92,2.81-5.94,2.81s-5.2-1.28-5-2.81H36.44C36,76.22,33.2,77.5,30.18,77.5s-5.06-1.29-4.65-2.83H17.39l-2.22,4.44h98.09Z"/></clippath></defs><title>&#x751F;&#x7269;&#x4EEA;&#x5668;</title><rect class="cls-2" x="113.26" y="33.94" width="5.41" height="71.69" transform="translate(231.92 139.57) rotate(-180)"/><polygon class="cls-3" points="113.26 105.63 111.03 96.14 111.03 30.48 113.26 33.94 113.26 105.63"/><polygon class="cls-4" points="111.03 30.48 116.31 30.48 118.67 33.94 113.26 33.94 111.03 30.48"/><g class="cls-5"><g class="cls-6"><path class="cls-7" d="M117.72,33.38c-.13,6.86-1.14,14.94,1.44,21.47,0,.11.22.06.18,0-2.56-6.49-1.56-14.58-1.43-21.43a.09.09,0,0,0-.19,0Z"/><path class="cls-7" d="M116.91,33.59q0,7.69.17,15.38c.08,4.17-.67,10.56,1.71,14.26.06.1.23,0,.16-.09-2.6-4-1.64-11.69-1.72-16.3q-.1-6.62-.13-13.24a.09.09,0,0,0-.19,0Z"/><path class="cls-7" d="M116,33.59q.1,9,.34,18c.06,2.24-.73,14.88,1.91,16.13a.1.1,0,0,0,.13,0,5.2,5.2,0,0,0,.73-2.4c0-.12-.17-.12-.19,0-.32,3-1.66-1.42-1.68-1.51-.11-.69-.21-1.38-.28-2.08-.12-1.14-.15-2.29-.2-3.44-.16-3.46-.24-6.92-.32-10.38q-.16-7.16-.24-14.33a.09.09,0,0,0-.19,0Z"/><path class="cls-7" d="M115.33,33.38q0,10.88.2,21.75c.06,4.38.11,8.77.31,13.15.14,3,.11,7.09,1.75,9.56a.09.09,0,0,0,.15,0c1-1.07,1.34-3.11,1.79-4.46,0-.11-.14-.16-.18,0-.77,2.29-1.69,5.14-2.53,1.14a37.9,37.9,0,0,1-.77-5.62c-.26-4.4-.26-8.82-.33-13.23q-.17-11.13-.21-22.27a.09.09,0,0,0-.19,0Z"/><path class="cls-7" d="M114.09,33.31c.09,10.37.23,20.75.54,31.12a125.32,125.32,0,0,0,.75,14.38c.8,5.46,1.81,10.31,1.12,15.84-.46,3.69-1.33,7.3-1.69,11,0,.12.17.12.19,0,.37-3.69,1.24-7.29,1.71-11,.69-5.37-.21-10.08-1-15.34-.78-4.89-.7-10-.85-14.93-.3-10.37-.45-20.75-.54-31.12a.09.09,0,0,0-.19,0Z"/><path class="cls-7" d="M118.92,81.5a67.87,67.87,0,0,0-.14,21.36c0,.12.2.07.18,0a67.27,67.27,0,0,1,.14-21.26c0-.12-.16-.17-.18,0Z"/><path class="cls-7" d="M118.76,105.63c-.07-.76-.33-5.8-1.3-5.71-.64.06-1,2.18-1.05,2.59-.3,1.22-.56,2.45-.78,3.68,0,.12.16.17.18,0q.21-1.18.47-2.35c.14-.64.29-1.28.46-1.92a4.26,4.26,0,0,1,.52-1.54c.47-.49.57.27.67.69.15.6.24,1.21.33,1.82q.2,1.34.32,2.69c0,.12.2.12.19,0Z"/><path class="cls-7" d="M118.05,105.94c0-.38-.16-2.07-.74-2-.32,0-.48.66-.56.89a12.13,12.13,0,0,0-.37,1.31c0,.12.15.17.18,0s.12-.49.19-.73.21-1,.48-1.24.24,0,.32.25a4.41,4.41,0,0,1,.16.6c.06.29.12.59.15.89,0,.12.2.12.19,0Z"/><path class="cls-7" d="M113.7,105.94c.56-7.28,1.62-14.44,1-21.75-.68-7.55-1-15.1-1.44-22.66,0-.12-.19-.12-.19,0,.43,7.56.75,15.12,1.44,22.66.67,7.31-.4,14.48-1,21.75,0,.12.18.12.19,0Z"/></g></g><g class="cls-8"><g class="cls-9"><path class="cls-7" d="M118.35,32.67a10.75,10.75,0,0,1-6.37.48c-.12,0-.17.16,0,.18a10.92,10.92,0,0,0,6.51-.5c.11,0,0-.21-.09-.16Z"/><path class="cls-7" d="M117.42,31.67c-.27,1.79-5.71-.12-6.75-.77-.1-.06-.19.1-.09.16,1,.64,6.7,2.8,7,.66,0-.12-.16-.17-.18,0Z"/><path class="cls-7" d="M117.07,30.78c-1.61.65-4.41.63-5.52-.94-.07-.1-.23,0-.16.09,1.16,1.65,4,1.71,5.73,1,.11,0,.06-.22,0-.18Z"/></g></g><rect class="cls-10" x="9.75" y="33.94" width="5.41" height="71.69"/><polygon class="cls-3" points="15.16 105.63 17.39 96.14 17.39 30.48 15.16 33.94 15.16 105.63"/><polygon class="cls-4" points="17.39 30.48 12.11 30.48 9.75 33.94 15.16 33.94 17.39 30.48"/><g class="cls-5"><g class="cls-11"><path class="cls-7" d="M10.51,33.38c.13,6.84,1.13,14.94-1.43,21.43,0,.11.14.16.18,0,2.58-6.54,1.57-14.61,1.44-21.47a.09.09,0,0,0-.19,0Z"/><path class="cls-7" d="M11.32,33.59q0,6.62-.13,13.24c-.07,4.59.86,12.28-1.72,16.3-.06.1.1.19.16.09C12,59.52,11.26,53.15,11.34,49q.14-7.69.17-15.38a.09.09,0,0,0-.19,0Z"/><path class="cls-7" d="M12.23,33.59q-.08,7.16-.24,14.33c-.08,3.32-.16,6.64-.3,10-.05,1.19-.09,2.39-.2,3.58,0,.5-.09,1-.16,1.5L11,64.67q.19,2.4-1.53.65c0-.12-.2-.12-.19,0a5.2,5.2,0,0,0,.73,2.4.1.1,0,0,0,.13,0c2.65-1.26,1.85-13.86,1.91-16.13q.25-9,.34-18a.09.09,0,0,0-.19,0Z"/><path class="cls-7" d="M12.9,33.38q0,11.13-.21,22.27c-.06,4.31-.1,8.63-.32,12.93a37.74,37.74,0,0,1-.78,5.92c-.84,4-1.77,1.15-2.53-1.14,0-.11-.22-.06-.18,0,.46,1.38.78,3.37,1.79,4.46a.09.09,0,0,0,.15,0c1.64-2.46,1.61-6.57,1.75-9.56.2-4.38.25-8.77.31-13.15q.16-10.88.2-21.75a.09.09,0,0,0-.19,0Z"/><path class="cls-7" d="M14.14,33.31c-.09,10.37-.23,20.75-.54,31.12a125.11,125.11,0,0,1-.82,14.8c-.75,5-1.74,9.5-1.17,14.61.44,4,1.42,7.85,1.81,11.83,0,.12.2.12.19,0-.31-3.15-1-6.2-1.47-9.33-.95-6.2,0-11.38.9-17.51a123.54,123.54,0,0,0,.76-14.39c.3-10.37.45-20.75.54-31.12a.09.09,0,0,0-.19,0Z"/><path class="cls-7" d="M9.32,81.55a67.26,67.26,0,0,1,.14,21.26c0,.12.16.17.18,0A67.86,67.86,0,0,0,9.5,81.5c0-.12-.2-.07-.18,0Z"/><path class="cls-7" d="M9.85,105.63q.12-1.35.32-2.69c.09-.61.18-1.22.33-1.82.1-.42.2-1.17.67-.69a4.26,4.26,0,0,1,.52,1.54c.17.63.32,1.27.46,1.92s.33,1.57.47,2.35c0,.12.2.07.18,0-.22-1.19-.46-2.39-.75-3.56-.1-.42-.43-2.65-1.08-2.71-1-.09-1.23,4.95-1.3,5.71,0,.12.17.12.19,0Z"/><path class="cls-7" d="M10.55,105.94c0-.28.08-.57.14-.84a4.64,4.64,0,0,1,.17-.64c.07-.2.12-.39.32-.25s.38.89.46,1.19.14.52.2.78.21.07.18,0a12.49,12.49,0,0,0-.35-1.26c-.08-.24-.25-.91-.58-.94-.57-.05-.69,1.64-.74,2,0,.12.17.12.19,0Z"/><path class="cls-7" d="M14.9,105.94c-.56-7.28-1.62-14.44-1-21.75.68-7.55,1-15.1,1.44-22.66,0-.12-.18-.12-.19,0-.43,7.56-.75,15.12-1.44,22.66-.67,7.31.4,14.47,1,21.75,0,.12.19.12.19,0Z"/></g></g><g class="cls-8"><g class="cls-12"><path class="cls-7" d="M10,32.83a10.91,10.91,0,0,0,6.51.5c.12,0,.07-.2,0-.18a10.75,10.75,0,0,1-6.37-.48c-.11,0-.2.11-.09.16Z"/><path class="cls-7" d="M10.82,31.72c.32,2.13,6,0,7-.66.1-.06,0-.22-.09-.16-1,.65-6.48,2.57-6.75.77,0-.12-.2-.07-.18,0Z"/><path class="cls-7" d="M11.31,31c1.69.68,4.57.62,5.73-1,.07-.1-.09-.19-.16-.09-1.11,1.57-3.91,1.59-5.52.94-.11,0-.16.13,0,.18Z"/></g></g><rect class="cls-13" x="15.16" y="98.85" width="98.09" height="3.56"/><polygon class="cls-14" points="15.16 98.85 113.26 98.85 111.03 91.03 17.39 91.03 15.16 98.85"/><g class="cls-15"><g class="cls-16"><path class="cls-7" d="M14.8,101.11c4,.32,7.81,1,11.72,1.64.14,0,.2-.19.06-.22-3.93-.63-7.81-1.32-11.78-1.65-.14,0-.14.21,0,.22Z"/><path class="cls-7" d="M15,99.53a62.22,62.22,0,0,1,12.91,1.89c3.9.91,8.16,0,11.92,1.39.13.05.19-.17.06-.22-4.24-1.62-9.14-.69-13.56-1.82A49.33,49.33,0,0,0,15,99.31a.11.11,0,0,0,0,.22Z"/><path class="cls-7" d="M27.69,98.73a122.7,122.7,0,0,0,13.81,3.05,79.36,79.36,0,0,0,11.32.69c3.63,0,7.2-1,10.79-1,2.76,0,5.59.78,8.35,1a59.66,59.66,0,0,0,12.93-.35,104.2,104.2,0,0,0,16.44-3.47c.14,0,.08-.26-.06-.22a103.35,103.35,0,0,1-14.53,3.17,62.42,62.42,0,0,1-15.52.58c-2.54-.23-5.07-.94-7.62-.94-3.14,0-6.24.87-9.38,1a81.13,81.13,0,0,1-10.89-.46,107.45,107.45,0,0,1-15.59-3.26.11.11,0,0,0-.06.22Z"/><path class="cls-7" d="M88.36,102.82C92.8,101.7,97.5,102,102,101c3.94-.82,7.83-1,11.79-1.51.14,0,.14-.24,0-.22-3.61.46-7.06.49-10.66,1.26-4.91,1-10,.82-14.84,2a.11.11,0,0,0,.06.22Z"/><path class="cls-7" d="M100.91,103c4.25-.71,8.49-1.21,12.77-1.7.14,0,.14-.24,0-.22-4.3.49-8.56,1-12.83,1.71-.14,0-.08.24.06.22Z"/><path class="cls-7" d="M35.91,98.6A31.86,31.86,0,0,0,49,101.11c5.49,0,11-1.72,16.44-1.56,5.75.17,11.25,1.62,17.09,1.19,2.83-.21,6.93-.35,9.35-2.09.12-.08,0-.28-.11-.19-3,2.17-8.16,2.09-11.65,2.17-5,.1-9.75-1.16-14.67-1.3-4.22-.12-8.54,1.12-12.76,1.4-5.6.37-11.48,0-16.67-2.32-.13-.06-.24.13-.11.19Z"/><path class="cls-7" d="M38.46,98.86c4.52,1.89,9.95,1.19,14.52-.12a.11.11,0,0,0-.06-.22c-4.54,1.31-9.9,2-14.4.12-.13-.06-.19.16-.06.22Z"/><path class="cls-7" d="M75.47,98.48c3.95,2.75,10.84,1.93,15,.19.13-.05.07-.27-.06-.22-4.16,1.72-11,2.54-14.87-.17-.12-.08-.23.11-.11.19Z"/></g></g><g class="cls-17"><g class="cls-18"><path class="cls-7" d="M15.95,96.2c.94-.07,1.89-.28,2.83-.43.68-.11,1.36-.23,2-.38.24-.05,1-.1,1.14-.31.36-.46-.64-.55-.92-.59-1.65-.25-3.16.19-4.79.23a.11.11,0,0,0,0,.22c1,0,2-.3,3.08-.33.39,0,2.33-.09,2.47.29a5.63,5.63,0,0,1-.68.19,34.51,34.51,0,0,1-5.16.88c-.14,0-.14.24,0,.22Z"/><path class="cls-7" d="M15.36,97.89c8.61.8,17.17-1.68,25.62-3a198.91,198.91,0,0,1,21.81-2.7c17-.81,33.6,6.85,50.62,5.93.14,0,.14-.23,0-.22-17,.92-33.6-6.74-50.62-5.93-6.68.32-13.47,1.49-20.09,2.42-9,1.27-18.13,4.17-27.34,3.31-.14,0-.14.21,0,.22Z"/><path class="cls-7" d="M24.68,98.71c11.69-1,23.13-3.95,34.82-4.22a111.8,111.8,0,0,1,25,1.78c6.33,1.25,12.66,2.08,19,2.92.14,0,.14-.21,0-.22-7.48-1-14.87-2.1-22.27-3.57C74,94,66.86,94.1,59.5,94.27c-11.72.27-23.11,3.26-34.82,4.22-.14,0-.14.24,0,.22Z"/><path class="cls-7" d="M42.78,97.83c5.56-3,14.48-1.56,20.56-1.56s12.91-.72,19,.42C83.8,97,85.8,97,84,97.74c-1.55.58-3.93.28-5.59.38-4.56.28-9.14.55-13.71.53-7.31,0-14.64-.58-21.93-1-.14,0-.14.22,0,.22,7.13.43,14.29,1,21.44,1,4.34,0,8.7-.21,13-.46,2.68-.15,6,.12,8.54-.7a.11.11,0,0,0,0-.19c-1.48-1.43-4.85-1.34-6.9-1.39C74.6,96,70.3,96.05,66,96c-4.65,0-9.3,0-14,0-3.23,0-6.44,0-9.39,1.56C42.54,97.7,42.66,97.9,42.78,97.83Z"/><path class="cls-7" d="M53.92,97a52.52,52.52,0,0,0,11.27,1c2.27-.13,4.54-.32,6.8-.55.36,0,1.92,0,2.2-.31A.11.11,0,0,0,74.1,97a187.14,187.14,0,0,0-20.16-.15c-.14,0-.14.23,0,.22,3.54-.21,7.06-.27,10.6-.16l6.51.23c.6,0,3.45-.19,2.47,0A60.41,60.41,0,0,1,54,96.8C53.84,96.78,53.78,97,53.92,97Z"/><path class="cls-7" d="M15.26,97.17c11,0,21.75-2.47,32.73-3.28.14,0,.14-.23,0-.22-11,.82-21.7,3.26-32.73,3.28a.11.11,0,0,0,0,.22Z"/><path class="cls-7" d="M16.78,93.6c7.3-.14,14.59.6,21.9.14A76.89,76.89,0,0,0,49,92a78.58,78.58,0,0,1,17.16-1.14,78.51,78.51,0,0,1,13.57,1c4.13.81,8.09,2.26,12.31,2.61,6.73.56,13.11-1.45,19.91-.59.14,0,.14-.21,0-.22-6.56-.83-12.58,1-19,.64-5-.28-9.64-2.15-14.57-2.9a92.91,92.91,0,0,0-12.19-.76,83.09,83.09,0,0,0-13.37.48c-4.53.65-8.93,2-13.5,2.41-7.5.59-15-.25-22.51-.11a.11.11,0,0,0,0,.22Z"/><path class="cls-7" d="M112,94.73a21,21,0,0,0-4.27-.29c-.39,0-2,0-1.56.67.16.26.88.27,1.17.32.67.12,1.35.22,2,.32l3.17.46c.14,0,.2-.2.06-.22-1.64-.23-3.28-.45-4.91-.73-.23,0-.9,0-1.06-.2-.4-.42.63-.36.91-.38s.79,0,1.18,0a25.26,25.26,0,0,1,3.23.3c.14,0,.2-.19.06-.22Z"/><path class="cls-7" d="M112.83,97.09c-6.05-.49-12.2-.74-18.19-1.78-2.39-.42-4.74-1-7.08-1.67-1.15-.31-3.65-.52-1.29-.38,3.71.21,7.53.72,11.25.45,4.59-.33,8.86-1.58,13.52-1.51a.11.11,0,0,0,0-.22c-5-.07-9.61,1.4-14.56,1.54A111.76,111.76,0,0,1,85,92.94c-.13,0-.15.19,0,.22,9.23,2.57,18.35,3.38,27.88,4.16.14,0,.14-.21,0-.22Z"/><path class="cls-7" d="M103,90.54c-5.58,4-16.81,2.27-22.79-.06-.13-.05-.19.16-.06.22,6,2.33,17.31,4.09,23,0,.12-.08,0-.28-.11-.19Z"/><path class="cls-7" d="M46.84,90.53c-7,2.25-15.1,3.23-21.91,0-.13-.06-.24.13-.11.19C31.69,94,39.88,93,46.9,90.74c.14,0,.08-.26-.06-.22Z"/><path class="cls-7" d="M17.12,92.19c8.12.14,16.14,1.9,24.29,1.3.14,0,.14-.23,0-.22-8.13.59-16.18-1.16-24.29-1.3a.11.11,0,0,0,0,.22Z"/></g></g><rect class="cls-19" x="15.16" y="51.36" width="98.09" height="3.56"/><g class="cls-20"><g class="cls-21"><path class="cls-7" d="M14.8,52.88c4-.32,7.85-1,11.78-1.65.14,0,.08-.24-.06-.22-3.91.63-7.77,1.32-11.72,1.64-.14,0-.14.24,0,.22Z"/><path class="cls-7" d="M15,54.46A48.87,48.87,0,0,0,26.31,53c4.41-1.14,9.32-.2,13.56-1.82.13-.05.08-.27-.06-.22-3.75,1.44-8,.49-11.92,1.39A62.52,62.52,0,0,1,15,54.24a.11.11,0,0,0,0,.22Z"/><path class="cls-7" d="M27.75,55.25a110.72,110.72,0,0,1,14.94-3.19,80,80,0,0,1,11.54-.53c3.15.09,6.25,1,9.38,1,2.55,0,5.08-.71,7.62-.94a60,60,0,0,1,13.67.31,102.29,102.29,0,0,1,16.38,3.44c.14,0,.2-.17.06-.22a104.24,104.24,0,0,0-16.43-3.47,59.37,59.37,0,0,0-12.22-.41c-3,.2-6.09,1.06-9.08,1.05-3.36,0-6.7-.92-10.09-1a80.67,80.67,0,0,0-11.43.61A116.46,116.46,0,0,0,27.69,55a.11.11,0,0,0,.06.22Z"/><path class="cls-7" d="M88.3,51.17c4.84,1.21,9.93,1,14.84,2,3.6.76,7.06.8,10.66,1.26.14,0,.14-.21,0-.22-4-.5-7.85-.69-11.79-1.51-4.51-.94-9.2-.65-13.65-1.77a.11.11,0,0,0-.06.22Z"/><path class="cls-7" d="M100.85,51c4.27.71,8.53,1.22,12.83,1.71.14,0,.14-.21,0-.22-4.28-.49-8.52-1-12.77-1.7-.14,0-.2.19-.06.22Z"/><path class="cls-7" d="M36,55.36c4.9-2.23,10.46-2.67,15.76-2.37,4.53.25,9.15,1.57,13.67,1.45s9.18-1.34,13.86-1.32c3.7,0,9.25-.12,12.47,2.18.12.08.23-.11.11-.19-2.41-1.73-6.55-1.88-9.35-2.09-5.85-.44-11.34,1-17.09,1.19-5.43.16-11-1.53-16.44-1.56a31.62,31.62,0,0,0-13.1,2.51c-.13.06,0,.25.11.19Z"/><path class="cls-7" d="M38.52,55.13c4.49-1.88,9.86-1.19,14.4.12A.11.11,0,0,0,53,55c-4.57-1.32-10-2-14.52-.12-.13.05-.07.27.06.22Z"/><path class="cls-7" d="M75.58,55.48c3.89-2.71,10.7-1.89,14.87-.17.13.06.19-.16.06-.22-4.2-1.73-11.09-2.56-15,.19-.12.08,0,.28.11.19Z"/></g></g><path class="cls-22" d="M111,46.93h-8.31c.4,1.55-1.64,2.81-4.66,2.81s-5.78-1.26-6.25-2.81H89.47c.24,1.56-1.95,2.84-5,2.84s-5.64-1.28-5.94-2.84H76.21c.07,1.55-2.26,2.84-5.3,2.84s-5.51-1.28-5.62-2.84H62.95c-.14,1.55-2.61,2.8-5.62,2.8S52,48.48,52,46.93H49.69c-.3,1.53-2.92,2.81-5.94,2.81s-5.2-1.28-5-2.81H36.44c-.47,1.55-3.23,2.83-6.26,2.83s-5.06-1.29-4.65-2.83H17.39l-2.22,4.44h98.09Z"/><g class="cls-23"><g class="cls-24"><path class="cls-7" d="M15.82,50.2c1.13-.05,2.27-.19,3.39-.31.59-.06,2.17,0,2.67-.39a.09.09,0,0,0,0-.1c-.29-.49-2.09-.29-2.52-.29-1.09,0-2.17.17-3.26.19a.09.09,0,0,0,0,.17c1,0,2-.18,3.08-.19a6.85,6.85,0,0,1,2.37.14c.19.08.21-.07,0,0a3.32,3.32,0,0,1-.62.09c-1.69.22-3.41.42-5.11.5-.11,0-.11.18,0,.17Z"/><path class="cls-7" d="M15.24,51.18C31,52,46.92,48.29,62.66,47.86c16.92-.47,33.7,4,50.62,3.44.11,0,.11-.17,0-.17-16.92.53-33.7-3.91-50.62-3.44C46.92,48.12,31,51.86,15.24,51c-.11,0-.11.16,0,.17Z"/><path class="cls-7" d="M24.55,51.66c11.64-.55,23.18-2.29,34.82-2.44,14.81-.2,29.27,1.6,44,2.72.11,0,.11-.16,0-.17-14.74-1.12-29.2-2.92-44-2.72-11.64.16-23.18,1.89-34.82,2.44-.11,0-.11.18,0,.17Z"/><path class="cls-7" d="M42.62,51.15c6.12-1.88,13.74-.91,20.06-.91,6,0,12.18-.28,18.21.1,1,.06,5.71.17,2.94.71a33.47,33.47,0,0,1-5,.2c-4.59.16-9.19.32-13.78.33-7.48,0-15-.33-22.43-.6-.11,0-.11.17,0,.17,7.14.25,14.29.56,21.44.6,6.94,0,14.72.58,21.57-.67a.09.09,0,0,0,0-.16c-1.79-1-4.82-.77-6.86-.8-4.29-.07-8.59,0-12.88-.05-7.28,0-16.23-1.26-23.31.92C42.47,51,42.52,51.18,42.62,51.15Z"/><path class="cls-7" d="M53.82,50.68a89.62,89.62,0,0,0,11.24.57c2.15-.07,4.3-.18,6.44-.3.56,0,2,.16,2.51-.19a.09.09,0,0,0,0-.16c-6.71-.18-13.44-.32-20.16-.09-.11,0-.11.17,0,.17,3.85-.13,7.69-.15,11.53-.08l6.35.13c.49,0,3-.12,1.55-.06a143.17,143.17,0,0,1-19.44-.16C53.71,50.5,53.71,50.67,53.82,50.68Z"/><path class="cls-7" d="M15.14,50.76c11,0,21.8-1.43,32.73-1.9.11,0,.11-.18,0-.17-10.93.47-21.78,1.89-32.73,1.9a.09.09,0,0,0,0,.17Z"/><path class="cls-7" d="M16.65,48.69c7.3-.08,14.6.35,21.9.08,9.22-.33,18.2-1.8,27.48-1.69,8.75.1,17.2,1.68,25.88,2.09,6.67.31,13.21-.83,19.91-.34.11,0,.11-.16,0-.17-6.41-.47-12.66.58-19,.37-9-.29-17.72-2-26.75-2.12S48.17,48.2,39.16,48.58c-7.5.32-15-.14-22.51-.06a.09.09,0,0,0,0,.17Z"/><path class="cls-7" d="M111.87,49.3c-1-.09-2.06-.15-3.09-.17-.66,0-2.24-.25-2.79.23a.09.09,0,0,0,0,.1c.22.47,2.48.4,2.9.44l3.58.3c.11,0,.11-.16,0-.17-1.72-.14-3.45-.27-5.17-.45-.31,0-1.53-.08-.7-.21a12.2,12.2,0,0,1,2.19-.07c1,0,2.07.08,3.09.17.11,0,.11-.16,0-.17Z"/><path class="cls-7" d="M112.7,50.68c-5.6-.26-11.21-.43-16.79-.91-2.85-.25-5.67-.66-8.49-1.09-1-.16-3.73-.29-1.28-.18,8.35.37,16.46-.68,24.76-.61a.09.09,0,0,0,0-.17c-8.73-.07-17.27.94-26,.56-.09,0-.12.15,0,.17a246.36,246.36,0,0,0,27.88,2.41c.11,0,.11-.17,0-.17Z"/><path class="cls-7" d="M102.87,46.87c-6.42,2.65-16.23,1.46-22.83,0-.11,0-.15.14,0,.16a59.53,59.53,0,0,0,12.32,1.18c3.35,0,7.42.17,10.61-1.15.1,0,.06-.21,0-.16Z"/><path class="cls-7" d="M46.72,46.87c-7.13,1.34-14.88,1.94-22,0a.09.09,0,0,0,0,.16c7.12,2,14.86,1.37,22,0,.11,0,.06-.18,0-.16Z"/><path class="cls-7" d="M17,47.88c8.11.08,16.18,1.1,24.29.76.11,0,.11-.18,0-.17-8.11.34-16.19-.67-24.29-.76a.09.09,0,0,0,0,.17Z"/></g></g><path class="cls-25" d="M15,34.08V51.36a.15.15,0,0,0,.15.15h98.08a.15.15,0,0,0,.15-.15V34.08a.15.15,0,0,0-.3,0V48.65c0,2.92.49,2.56-2.32,2.56H19.6c-.93,0-2.72.35-3.61,0-1.28-.5-.12.54-.68-1-.91-2.46,0-6.9,0-9.52V34.08a.15.15,0,0,0-.3,0Z"/><rect class="cls-19" x="15.16" y="79.11" width="98.09" height="3.56"/><g class="cls-20"><g class="cls-26"><path class="cls-7" d="M14.8,80.62c4-.32,7.85-1,11.78-1.65.14,0,.08-.24-.06-.22-3.91.63-7.77,1.32-11.72,1.64-.14,0-.14.24,0,.22Z"/><path class="cls-7" d="M15,82.21a48.87,48.87,0,0,0,11.33-1.47c4.41-1.14,9.32-.2,13.56-1.82.13-.05.08-.27-.06-.22-3.75,1.44-8,.49-11.92,1.39A62.52,62.52,0,0,1,15,82a.11.11,0,0,0,0,.22Z"/><path class="cls-7" d="M27.75,83a110.72,110.72,0,0,1,14.94-3.19,80,80,0,0,1,11.54-.53c3.15.09,6.25,1,9.38,1,2.55,0,5.08-.71,7.62-.94a60,60,0,0,1,13.67.31,102.29,102.29,0,0,1,16.38,3.44c.14,0,.2-.17.06-.22a104.24,104.24,0,0,0-16.43-3.47A59.37,59.37,0,0,0,72.69,79c-3,.2-6.09,1.06-9.08,1.05-3.36,0-6.7-.92-10.09-1a80.67,80.67,0,0,0-11.43.61,116.46,116.46,0,0,0-14.41,3.12.11.11,0,0,0,.06.22Z"/><path class="cls-7" d="M88.3,78.91c4.84,1.21,9.93,1,14.84,2,3.6.76,7.06.8,10.66,1.26.14,0,.14-.21,0-.22-4-.5-7.85-.69-11.79-1.51-4.51-.94-9.2-.65-13.65-1.77a.11.11,0,0,0-.06.22Z"/><path class="cls-7" d="M100.85,78.73c4.27.71,8.53,1.22,12.83,1.71.14,0,.14-.21,0-.22-4.28-.49-8.52-1-12.77-1.7-.14,0-.2.19-.06.22Z"/><path class="cls-7" d="M36,83.1c4.9-2.23,10.46-2.67,15.76-2.37,4.53.25,9.15,1.57,13.67,1.45s9.18-1.34,13.86-1.32c3.7,0,9.25-.12,12.47,2.18.12.08.23-.11.11-.19-2.41-1.73-6.55-1.88-9.35-2.09-5.85-.44-11.34,1-17.09,1.19-5.43.16-11-1.53-16.44-1.56a31.62,31.62,0,0,0-13.1,2.51c-.13.06,0,.25.11.19Z"/><path class="cls-7" d="M38.52,82.87C43,81,48.38,81.69,52.92,83a.11.11,0,0,0,.06-.22c-4.57-1.32-10-2-14.52-.12-.13.05-.07.27.06.22Z"/><path class="cls-7" d="M75.58,83.23c3.89-2.71,10.7-1.89,14.87-.17.13.06.19-.16.06-.22-4.2-1.73-11.09-2.56-15,.19-.12.08,0,.28.11.19Z"/></g></g><path class="cls-22" d="M111,74.67h-8.31c.4,1.55-1.64,2.81-4.66,2.81s-5.78-1.26-6.25-2.81H89.47c.24,1.56-1.95,2.84-5,2.84s-5.64-1.28-5.94-2.84H76.21c.07,1.55-2.26,2.84-5.3,2.84s-5.51-1.28-5.62-2.84H62.95c-.14,1.55-2.61,2.8-5.62,2.8S52,76.22,52,74.67H49.69c-.3,1.53-2.92,2.81-5.94,2.81s-5.2-1.28-5-2.81H36.44C36,76.22,33.2,77.5,30.18,77.5s-5.06-1.29-4.65-2.83H17.39l-2.22,4.44h98.09Z"/><g class="cls-23"><g class="cls-27"><path class="cls-7" d="M15.82,77.95c1.13-.05,2.27-.19,3.39-.31.59-.06,2.17,0,2.67-.39a.09.09,0,0,0,0-.1c-.29-.49-2.09-.29-2.52-.29-1.09,0-2.17.17-3.26.19a.09.09,0,0,0,0,.17c1,0,2-.18,3.08-.19a6.85,6.85,0,0,1,2.37.14c.19.08.21-.07,0,0a3.32,3.32,0,0,1-.62.09c-1.69.22-3.41.42-5.11.5-.11,0-.11.18,0,.17Z"/><path class="cls-7" d="M15.24,78.93C31,79.77,46.92,76,62.66,75.6c16.92-.47,33.7,4,50.62,3.44.11,0,.11-.17,0-.17-16.92.53-33.7-3.91-50.62-3.44C46.92,75.87,31,79.6,15.24,78.76c-.11,0-.11.16,0,.17Z"/><path class="cls-7" d="M24.55,79.4c11.64-.55,23.18-2.29,34.82-2.44,14.81-.2,29.27,1.6,44,2.72.11,0,.11-.16,0-.17-14.74-1.12-29.2-2.92-44-2.72-11.64.16-23.18,1.89-34.82,2.44-.11,0-.11.18,0,.17Z"/><path class="cls-7" d="M42.62,78.9C48.74,77,56.37,78,62.68,78c6,0,12.18-.28,18.21.1,1,.06,5.71.17,2.94.71a33.47,33.47,0,0,1-5,.2c-4.59.16-9.19.32-13.78.33-7.48,0-15-.33-22.43-.6-.11,0-.11.17,0,.17,7.14.25,14.29.56,21.44.6,6.94,0,14.72.58,21.57-.67a.09.09,0,0,0,0-.16c-1.79-1-4.82-.77-6.86-.8-4.29-.07-8.59,0-12.88-.05-7.28,0-16.23-1.26-23.31.92C42.47,78.76,42.52,78.93,42.62,78.9Z"/><path class="cls-7" d="M53.82,78.42A89.62,89.62,0,0,0,65.06,79c2.15-.07,4.3-.18,6.44-.3.56,0,2,.16,2.51-.19a.09.09,0,0,0,0-.16c-6.71-.18-13.44-.32-20.16-.09-.11,0-.11.17,0,.17,3.85-.13,7.69-.15,11.53-.08l6.35.13c.49,0,3-.12,1.55-.06a143.17,143.17,0,0,1-19.44-.16C53.71,78.24,53.71,78.41,53.82,78.42Z"/><path class="cls-7" d="M15.14,78.51c11,0,21.8-1.43,32.73-1.9.11,0,.11-.18,0-.17-10.93.47-21.78,1.89-32.73,1.9a.09.09,0,0,0,0,.17Z"/><path class="cls-7" d="M16.65,76.43c7.3-.08,14.6.35,21.9.08,9.22-.33,18.2-1.8,27.48-1.69,8.75.1,17.2,1.68,25.88,2.09,6.67.31,13.21-.83,19.91-.34.11,0,.11-.16,0-.17-6.41-.47-12.66.58-19,.37-9-.29-17.72-2-26.75-2.12s-17.85,1.29-26.87,1.67c-7.5.32-15-.14-22.51-.06a.09.09,0,0,0,0,.17Z"/><path class="cls-7" d="M111.87,77c-1-.09-2.06-.15-3.09-.17-.66,0-2.24-.25-2.79.23a.09.09,0,0,0,0,.1c.22.47,2.48.4,2.9.44l3.58.3c.11,0,.11-.16,0-.17-1.72-.14-3.45-.27-5.17-.45-.31,0-1.53-.08-.7-.21a12.2,12.2,0,0,1,2.19-.07c1,0,2.07.08,3.09.17.11,0,.11-.16,0-.17Z"/><path class="cls-7" d="M112.7,78.42c-5.6-.26-11.21-.43-16.79-.91-2.85-.25-5.67-.66-8.49-1.09-1-.16-3.73-.29-1.28-.18,8.35.37,16.46-.68,24.76-.61a.09.09,0,0,0,0-.17c-8.73-.07-17.27.94-26,.56-.09,0-.12.15,0,.17a246.36,246.36,0,0,0,27.88,2.41c.11,0,.11-.17,0-.17Z"/><path class="cls-7" d="M102.87,74.62c-6.42,2.65-16.23,1.46-22.83,0-.11,0-.15.14,0,.16a59.53,59.53,0,0,0,12.32,1.18c3.35,0,7.42.17,10.61-1.15.1,0,.06-.21,0-.16Z"/><path class="cls-7" d="M46.72,74.62c-7.13,1.34-14.88,1.94-22,0a.09.09,0,0,0,0,.16c7.12,2,14.86,1.37,22,0,.11,0,.06-.18,0-.16Z"/><path class="cls-7" d="M17,75.62c8.11.08,16.18,1.1,24.29.76.11,0,.11-.18,0-.17-8.11.34-16.19-.67-24.29-.76a.09.09,0,0,0,0,.17Z"/></g></g><path class="cls-25" d="M15,54.85V79.11a.15.15,0,0,0,.15.15h98.08a.15.15,0,0,0,.15-.15V54.85a.15.15,0,0,0-.3,0V70.38c0,2.31.55,5.28,0,7.52-.39,1.59.48.6-.49,1.06-2,.93-6.76,0-8.88,0H87.23c-23.35,0-46.73-.28-70.08,0-.28,0-1.89.06-1.9,0-.47-.49.07-5.5.07-6.34V54.85a.15.15,0,0,0-.3,0Z"/><path class="cls-25" d="M15,82.55v16.3a.15.15,0,0,0,.15.15h98.08a.15.15,0,0,0,.15-.15V82.55a.15.15,0,0,0-.3,0V96.48c0,2.74.25,2.22-2.49,2.22h-91a13.38,13.38,0,0,1-3.5,0c-1.27-.41-.28.42-.79-.5-1-1.78,0-6.92,0-9V82.55a.15.15,0,0,0-.3,0Z"/></svg>