<svg xmlns="http://www.w3.org/2000/svg" xmlns:xlink="http://www.w3.org/1999/xlink" viewbox="0 0 128 128" width="128" height="128"><defs><style>.cls-1{fill:none;stroke:none;}.cls-2{isolation:isolate;stroke:none;}.cls-3{fill:url(#未命名的渐变_455);stroke:none;}.cls-4{fill:#8e5927;stroke:none;}.cls-5{fill:#dcb689;stroke:none;}.cls-6{opacity:0.22;stroke:none;}.cls-7{clip-path:url(#clip-path);stroke:none;}.cls-8{fill:#fed3ab;stroke:none;}.cls-9{opacity:0.46;stroke:none;}.cls-10{clip-path:url(#clip-path-2);stroke:none;}.cls-11{fill:url(#未命名的渐变_454);stroke:none;}.cls-12{clip-path:url(#clip-path-3);stroke:none;}.cls-13{clip-path:url(#clip-path-4);stroke:none;}.cls-14{fill:#c59562;stroke:none;}.cls-15{fill:#a76f35;stroke:none;}.cls-16{opacity:0.39;stroke:none;}.cls-17{clip-path:url(#clip-path-5);stroke:none;}.cls-18{opacity:0.18;stroke:none;}.cls-19{clip-path:url(#clip-path-6);stroke:none;}.cls-20{fill:#d8b38a;stroke:none;}.cls-21,.cls-24,.cls-27,.cls-30,.cls-39,.cls-41{fill:#fff;stroke:none;}.cls-21{mix-blend-mode:overlay;stroke:none;}.cls-22{fill:url(#linear-gradient);stroke:none;}.cls-23{fill:url(#未命名的渐变_220);stroke:none;}.cls-24{opacity:0.26;stroke:none;}.cls-25{fill:#bdc6cc;opacity:0.4;stroke:none;}.cls-26{fill:#d12b2d;stroke:none;}.cls-27{opacity:0.2;stroke:none;}.cls-28{fill:url(#linear-gradient-2);stroke:none;}.cls-29{fill:url(#未命名的渐变_83);stroke:none;}.cls-31{fill:url(#linear-gradient-3);stroke:none;}.cls-32{fill:url(#linear-gradient-4);stroke:none;}.cls-33{fill:url(#未命名的渐变_361);stroke:none;}.cls-34{fill:url(#未命名的渐变_35);stroke:none;}.cls-35{fill:#f79461;stroke:none;}.cls-35,.cls-48,.cls-72{opacity:0.79;stroke:none;}.cls-36{fill:url(#未命名的渐变_39);stroke:none;}.cls-37{fill:url(#linear-gradient-5);stroke:none;}.cls-38{fill:url(#未命名的渐变_345);stroke:none;}.cls-39{opacity:0.45;stroke:none;}.cls-40{fill:#00894b;stroke:none;}.cls-40,.cls-52{opacity:0.88;stroke:none;}.cls-41{opacity:0.21;stroke:none;}.cls-42{fill:url(#linear-gradient-6);stroke:none;}.cls-43{fill:url(#未命名的渐变_83-2);stroke:none;}.cls-44{fill:url(#linear-gradient-7);stroke:none;}.cls-45{fill:url(#linear-gradient-8);stroke:none;}.cls-46{fill:url(#未命名的渐变_327);stroke:none;}.cls-47{fill:url(#未命名的渐变_7);stroke:none;}.cls-48{fill:#9cd092;stroke:none;}.cls-49{fill:url(#未命名的渐变_32);stroke:none;}.cls-50{fill:url(#linear-gradient-9);stroke:none;}.cls-51{fill:url(#未命名的渐变_308);stroke:none;}.cls-52{fill:#febe10;stroke:none;}.cls-53{fill:url(#linear-gradient-10);stroke:none;}.cls-54{fill:url(#未命名的渐变_83-3);stroke:none;}.cls-55{fill:url(#linear-gradient-11);stroke:none;}.cls-56{fill:url(#linear-gradient-12);stroke:none;}.cls-57{fill:url(#未命名的渐变_316);stroke:none;}.cls-58{fill:url(#未命名的渐变_4);stroke:none;}.cls-59,.cls-60{fill:#f9ee4a;stroke:none;}.cls-59{opacity:0.44;stroke:none;}.cls-60{opacity:0.67;stroke:none;}.cls-61{fill:url(#未命名的渐变_21);stroke:none;}.cls-62{fill:url(#linear-gradient-13);stroke:none;}.cls-63{fill:url(#未命名的渐变_228);stroke:none;}.cls-64{fill:#008bcd;stroke:none;}.cls-65{fill:url(#linear-gradient-14);stroke:none;}.cls-66{fill:url(#未命名的渐变_83-4);stroke:none;}.cls-67{fill:url(#linear-gradient-15);stroke:none;}.cls-68{fill:url(#linear-gradient-16);stroke:none;}.cls-69{fill:url(#未命名的渐变_260);stroke:none;}.cls-70{fill:url(#未命名的渐变_12);stroke:none;}.cls-71,.cls-72{fill:#57cbf5;stroke:none;}.cls-71{opacity:0.5;stroke:none;}.cls-73{fill:url(#未命名的渐变_86);stroke:none;}.cls-74{fill:#a76e34;stroke:none;}.cls-75{opacity:0.19;stroke:none;}.cls-76{clip-path:url(#clip-path-7);stroke:none;}.cls-77{fill:#ca9259;stroke:none;}.cls-78{opacity:0.27;stroke:none;}.cls-79{clip-path:url(#clip-path-8);stroke:none;}.cls-80{clip-path:url(#clip-path-9);stroke:none;}.cls-81{clip-path:url(#clip-path-10);stroke:none;}</style><linearGradient id="&#x672A;&#x547D;&#x540D;&#x7684;&#x6E10;&#x53D8;_455" x1="-621.02" y1="78.32" x2="-615.61" y2="78.32" gradienttransform="matrix(1, 0, 0, -1, 734.52, 156.65)" gradientunits="userSpaceOnUse"><stop offset="0" stop-color="#9d7349"/><stop offset="1" stop-color="#c8a478"/></linearGradient><clippath id="clip-path"><rect class="cls-1" x="113.5" y="42.48" width="5.41" height="71.69" transform="translate(232.4 156.65) rotate(-180)"/></clippath><clippath id="clip-path-2"><polygon class="cls-1" points="111.27 39.02 116.55 39.02 118.91 42.48 113.5 42.48 111.27 39.02"/></clippath><linearGradient id="&#x672A;&#x547D;&#x540D;&#x7684;&#x6E10;&#x53D8;_454" x1="9.99" y1="78.32" x2="15.4" y2="78.32" gradientunits="userSpaceOnUse"><stop offset="0" stop-color="#c8a478"/><stop offset="1" stop-color="#9d7349"/></linearGradient><clippath id="clip-path-3"><rect class="cls-1" x="9.99" y="42.48" width="5.41" height="71.69"/></clippath><clippath id="clip-path-4"><polygon class="cls-1" points="17.63 39.02 12.35 39.02 9.99 42.48 15.4 42.48 17.63 39.02"/></clippath><clippath id="clip-path-5"><rect class="cls-1" x="15.4" y="107.39" width="98.09" height="3.56"/></clippath><clippath id="clip-path-6"><polygon class="cls-1" points="15.4 107.39 113.5 107.39 111.27 99.57 17.63 99.57 15.4 107.39"/></clippath><linearGradient id="linear-gradient" x1="98.38" y1="90.76" x2="109.35" y2="90.76" gradienttransform="translate(-6.46 -30.48)" gradientunits="userSpaceOnUse"><stop offset="0.01" stop-color="#d2d2d2"/><stop offset="0.07" stop-color="#dedede"/><stop offset="0.17" stop-color="#ebecec"/><stop offset="0.3" stop-color="#f3f4f4"/><stop offset="0.54" stop-color="#f5f6f6"/><stop offset="0.71" stop-color="#f3f3f3"/><stop offset="0.82" stop-color="#ebebeb"/><stop offset="0.91" stop-color="#dddddc"/><stop offset="0.99" stop-color="#cac9c8"/><stop offset="1" stop-color="#c8c7c6"/></linearGradient><linearGradient id="&#x672A;&#x547D;&#x540D;&#x7684;&#x6E10;&#x53D8;_220" x1="95.21" y1="100.38" x2="113.96" y2="100.38" gradienttransform="translate(-6.46 -30.48)" gradientunits="userSpaceOnUse"><stop offset="0.01" stop-color="#ed2224"/><stop offset="0.43" stop-color="#f15b27"/><stop offset="1" stop-color="#c1282d"/></linearGradient><linearGradient id="linear-gradient-2" x1="106.17" y1="47.38" x2="99.71" y2="47.38" gradienttransform="translate(-6.46 -30.48)" gradientunits="userSpaceOnUse"><stop offset="0.01" stop-color="#d2d2d2"/><stop offset="0.34" stop-color="#d6d6d6"/><stop offset="0.67" stop-color="#e2e2e2"/><stop offset="1" stop-color="#f5f6f6"/></linearGradient><linearGradient id="&#x672A;&#x547D;&#x540D;&#x7684;&#x6E10;&#x53D8;_83" x1="101.81" y1="47.46" x2="104.42" y2="46.24" gradienttransform="translate(-6.46 -30.48)" gradientunits="userSpaceOnUse"><stop offset="0.01" stop-color="#d2d2d2"/><stop offset="0.58" stop-color="#d5d6d6"/><stop offset="1" stop-color="#dcddde"/></linearGradient><linearGradient id="linear-gradient-3" x1="98.63" y1="46.5" x2="108.94" y2="46.5" gradienttransform="translate(-6.46 -30.48)" gradientunits="userSpaceOnUse"><stop offset="0.01" stop-color="#767676"/><stop offset="0.01" stop-color="#777"/><stop offset="0.12" stop-color="#9d9d9d"/><stop offset="0.23" stop-color="#bcbcbc"/><stop offset="0.35" stop-color="#d4d4d4"/><stop offset="0.48" stop-color="#e5e5e5"/><stop offset="0.61" stop-color="#f0f0f0"/><stop offset="0.78" stop-color="#f3f3f3"/><stop offset="0.83" stop-color="#efefef"/><stop offset="0.87" stop-color="#e4e4e4"/><stop offset="0.92" stop-color="#d1d1d1"/><stop offset="0.97" stop-color="#b6b6b6"/><stop offset="1" stop-color="#9e9e9e"/></linearGradient><linearGradient id="linear-gradient-4" x1="108.99" y1="45.86" x2="98.75" y2="45.86" gradienttransform="translate(-6.46 -30.48)" gradientunits="userSpaceOnUse"><stop offset="0.01" stop-color="#989898"/><stop offset="0.1" stop-color="#b1b1b1"/><stop offset="0.24" stop-color="#cdcdcd"/><stop offset="0.39" stop-color="#e3e3e3"/><stop offset="0.55" stop-color="#f3f3f3"/><stop offset="0.74" stop-color="#fcfcfc"/><stop offset="1" stop-color="#fff"/></linearGradient><linearGradient id="&#x672A;&#x547D;&#x540D;&#x7684;&#x6E10;&#x53D8;_361" x1="103.85" y1="67.49" x2="103.85" y2="65.97" gradienttransform="translate(-6.46 -30.48)" gradientunits="userSpaceOnUse"><stop offset="0.03" stop-color="#f15a25"/><stop offset="1" stop-color="#c1282d"/></linearGradient><linearGradient id="&#x672A;&#x547D;&#x540D;&#x7684;&#x6E10;&#x53D8;_35" x1="101.33" y1="37.29" x2="101.33" y2="35.72" gradientunits="userSpaceOnUse"><stop offset="0" stop-color="#ed2224"/><stop offset="1" stop-color="#a62c31"/></linearGradient><linearGradient id="&#x672A;&#x547D;&#x540D;&#x7684;&#x6E10;&#x53D8;_39" x1="101.25" y1="67.56" x2="106.18" y2="67.56" gradienttransform="translate(-6.46 -30.48)" gradientunits="userSpaceOnUse"><stop offset="0.01" stop-color="#fff"/><stop offset="0.3" stop-color="#fffbfc"/><stop offset="0.61" stop-color="#fdeff5"/><stop offset="0.91" stop-color="#fbdae9"/><stop offset="1" stop-color="#fad3e4"/></linearGradient><linearGradient id="linear-gradient-5" x1="58.72" y1="90.76" x2="69.68" y2="90.76" xlink:href="#linear-gradient"><linearGradient id="&#x672A;&#x547D;&#x540D;&#x7684;&#x6E10;&#x53D8;_345" x1="55.54" y1="102.53" x2="74.3" y2="102.53" gradienttransform="translate(-6.46 -30.48)" gradientunits="userSpaceOnUse"><stop offset="0.01" stop-color="#33a35a"/><stop offset="0.08" stop-color="#37a559"/><stop offset="0.15" stop-color="#43aa54"/><stop offset="0.22" stop-color="#58b44d"/><stop offset="0.29" stop-color="#71bf44"/><stop offset="0.42" stop-color="#6dbc44"/><stop offset="0.56" stop-color="#61b445"/><stop offset="0.7" stop-color="#4ca746"/><stop offset="0.83" stop-color="#309447"/><stop offset="0.97" stop-color="#0b7b49"/><stop offset="1" stop-color="#037649"/></linearGradient><linearGradient id="linear-gradient-6" x1="66.51" y1="47.38" x2="60.04" y2="47.38" xlink:href="#linear-gradient-2"><linearGradient id="&#x672A;&#x547D;&#x540D;&#x7684;&#x6E10;&#x53D8;_83-2" x1="62.15" y1="47.46" x2="64.76" y2="46.24" xlink:href="#&#x672A;&#x547D;&#x540D;&#x7684;&#x6E10;&#x53D8;_83"><linearGradient id="linear-gradient-7" x1="58.97" y1="46.5" x2="69.27" y2="46.5" xlink:href="#linear-gradient-3"><linearGradient id="linear-gradient-8" x1="69.33" y1="45.86" x2="59.09" y2="45.86" xlink:href="#linear-gradient-4"><linearGradient id="&#x672A;&#x547D;&#x540D;&#x7684;&#x6E10;&#x53D8;_327" x1="64.18" y1="71.79" x2="64.18" y2="70.27" gradienttransform="translate(-6.46 -30.48)" gradientunits="userSpaceOnUse"><stop offset="0" stop-color="#7ac24e"/><stop offset="1" stop-color="#319e5a"/></linearGradient><linearGradient id="&#x672A;&#x547D;&#x540D;&#x7684;&#x6E10;&#x53D8;_7" x1="61.67" y1="41.58" x2="61.67" y2="40.02" gradientunits="userSpaceOnUse"><stop offset="0" stop-color="#4fb852"/><stop offset="1" stop-color="#168957"/></linearGradient><linearGradient id="&#x672A;&#x547D;&#x540D;&#x7684;&#x6E10;&#x53D8;_32" x1="61.58" y1="71.85" x2="66.52" y2="71.85" gradienttransform="translate(-6.46 -30.48)" gradientunits="userSpaceOnUse"><stop offset="0.01" stop-color="#fff"/><stop offset="0.24" stop-color="#fbfdfb"/><stop offset="0.49" stop-color="#f0f8ef"/><stop offset="0.73" stop-color="#deefda"/><stop offset="0.98" stop-color="#c4e2be"/><stop offset="1" stop-color="#c1e1bb"/></linearGradient><linearGradient id="linear-gradient-9" x1="45.48" y1="90.76" x2="56.45" y2="90.76" xlink:href="#linear-gradient"><linearGradient id="&#x672A;&#x547D;&#x540D;&#x7684;&#x6E10;&#x53D8;_308" x1="42.31" y1="99.33" x2="61.06" y2="99.33" gradienttransform="translate(-6.46 -30.48)" gradientunits="userSpaceOnUse"><stop offset="0.01" stop-color="#fbb03b"/><stop offset="0.08" stop-color="#fbb439"/><stop offset="0.15" stop-color="#fbc035"/><stop offset="0.22" stop-color="#fad52d"/><stop offset="0.29" stop-color="#faed24"/><stop offset="0.44" stop-color="#fae924"/><stop offset="0.59" stop-color="#f9dd23"/><stop offset="0.74" stop-color="#f9c823"/><stop offset="0.9" stop-color="#f8ac22"/><stop offset="1" stop-color="#f79421"/></linearGradient><linearGradient id="linear-gradient-10" x1="53.27" y1="47.38" x2="46.81" y2="47.38" xlink:href="#linear-gradient-2"><linearGradient id="&#x672A;&#x547D;&#x540D;&#x7684;&#x6E10;&#x53D8;_83-3" x1="48.91" y1="47.46" x2="51.52" y2="46.24" xlink:href="#&#x672A;&#x547D;&#x540D;&#x7684;&#x6E10;&#x53D8;_83"><linearGradient id="linear-gradient-11" x1="45.73" y1="46.5" x2="56.04" y2="46.5" xlink:href="#linear-gradient-3"><linearGradient id="linear-gradient-12" x1="56.09" y1="45.86" x2="45.85" y2="45.86" xlink:href="#linear-gradient-4"><linearGradient id="&#x672A;&#x547D;&#x540D;&#x7684;&#x6E10;&#x53D8;_316" x1="50.95" y1="65.39" x2="50.95" y2="63.87" gradienttransform="translate(-6.46 -30.48)" gradientunits="userSpaceOnUse"><stop offset="0" stop-color="#f5ca2e"/><stop offset="1" stop-color="#f8963a"/></linearGradient><linearGradient id="&#x672A;&#x547D;&#x540D;&#x7684;&#x6E10;&#x53D8;_4" x1="48.43" y1="35.18" x2="48.43" y2="33.61" gradientunits="userSpaceOnUse"><stop offset="0" stop-color="#f1ae30"/><stop offset="1" stop-color="#f47d38"/></linearGradient><linearGradient id="&#x672A;&#x547D;&#x540D;&#x7684;&#x6E10;&#x53D8;_21" x1="48.35" y1="65.45" x2="53.28" y2="65.45" gradienttransform="translate(-6.46 -30.48)" gradientunits="userSpaceOnUse"><stop offset="0.01" stop-color="#fff"/><stop offset="0.23" stop-color="#fffffb"/><stop offset="0.45" stop-color="#fffeef"/><stop offset="0.68" stop-color="#fffcda"/><stop offset="0.91" stop-color="#fffabe"/><stop offset="1" stop-color="#fff9b0"/></linearGradient><linearGradient id="linear-gradient-13" x1="32.21" y1="90.76" x2="43.18" y2="90.76" xlink:href="#linear-gradient"><linearGradient id="&#x672A;&#x547D;&#x540D;&#x7684;&#x6E10;&#x53D8;_228" x1="29.04" y1="106" x2="47.79" y2="106" gradienttransform="translate(-6.46 -30.48)" gradientunits="userSpaceOnUse"><stop offset="0.01" stop-color="#2bace2"/><stop offset="0.07" stop-color="#2faee3"/><stop offset="0.14" stop-color="#3bb4e7"/><stop offset="0.21" stop-color="#50bfec"/><stop offset="0.28" stop-color="#6ccef5"/><stop offset="0.29" stop-color="#71d0f6"/><stop offset="0.42" stop-color="#6dccf3"/><stop offset="0.56" stop-color="#63c0eb"/><stop offset="0.69" stop-color="#51abde"/><stop offset="0.83" stop-color="#388fcc"/><stop offset="0.97" stop-color="#186ab4"/><stop offset="1" stop-color="#1061ae"/></linearGradient><linearGradient id="linear-gradient-14" x1="40" y1="47.38" x2="33.53" y2="47.38" xlink:href="#linear-gradient-2"><linearGradient id="&#x672A;&#x547D;&#x540D;&#x7684;&#x6E10;&#x53D8;_83-4" x1="35.64" y1="47.46" x2="38.25" y2="46.24" xlink:href="#&#x672A;&#x547D;&#x540D;&#x7684;&#x6E10;&#x53D8;_83"><linearGradient id="linear-gradient-15" x1="32.46" y1="46.5" x2="42.77" y2="46.5" xlink:href="#linear-gradient-3"><linearGradient id="linear-gradient-16" x1="42.82" y1="45.86" x2="32.58" y2="45.86" xlink:href="#linear-gradient-4"><linearGradient id="&#x672A;&#x547D;&#x540D;&#x7684;&#x6E10;&#x53D8;_260" x1="37.67" y1="78.74" x2="37.67" y2="77.22" gradienttransform="translate(-6.46 -30.48)" gradientunits="userSpaceOnUse"><stop offset="0" stop-color="#2bace2"/><stop offset="1" stop-color="#0e79bf"/></linearGradient><linearGradient id="&#x672A;&#x547D;&#x540D;&#x7684;&#x6E10;&#x53D8;_12" x1="35.16" y1="48.53" x2="35.16" y2="46.96" gradientunits="userSpaceOnUse"><stop offset="0" stop-color="#009cda"/><stop offset="1" stop-color="#006db6"/></linearGradient><linearGradient id="&#x672A;&#x547D;&#x540D;&#x7684;&#x6E10;&#x53D8;_86" x1="35.07" y1="78.8" x2="40.01" y2="78.8" gradienttransform="translate(-6.46 -30.48)" gradientunits="userSpaceOnUse"><stop offset="0.01" stop-color="#fff"/><stop offset="0.24" stop-color="#fbfdff"/><stop offset="0.47" stop-color="#eff9fe"/><stop offset="0.71" stop-color="#daf1fc"/><stop offset="0.94" stop-color="#bee7fb"/><stop offset="1" stop-color="#b6e4fa"/></linearGradient><clippath id="clip-path-7"><rect class="cls-1" x="15.4" y="59.9" width="98.09" height="3.56"/></clippath><clippath id="clip-path-8"><path class="cls-1" d="M111.27,55.46H103c.4,1.55-1.64,2.81-4.66,2.81S92.53,57,92.05,55.46H89.71c.24,1.56-1.95,2.84-5,2.84S79.09,57,78.79,55.46H76.45c.07,1.55-2.26,2.84-5.3,2.84S65.64,57,65.53,55.46H63.19c-.14,1.55-2.61,2.8-5.62,2.8s-5.33-1.25-5.29-2.8H49.93C49.63,57,47,58.27,44,58.27S38.8,57,39,55.46H36.68c-.47,1.55-3.23,2.83-6.26,2.83S25.35,57,25.76,55.46H17.63L15.4,59.9H113.5Z"/></clippath><clippath id="clip-path-9"><rect class="cls-1" x="15.4" y="87.64" width="98.09" height="3.56"/></clippath><clippath id="clip-path-10"><path class="cls-1" d="M111.27,83.21H103c.4,1.55-1.64,2.81-4.66,2.81s-5.78-1.26-6.25-2.81H89.71c.24,1.56-1.95,2.84-5,2.84s-5.64-1.28-5.94-2.84H76.45c.07,1.55-2.26,2.84-5.3,2.84s-5.51-1.28-5.62-2.84H63.19C63,84.76,60.58,86,57.57,86s-5.33-1.25-5.29-2.8H49.93C49.63,84.74,47,86,44,86s-5.2-1.28-5-2.81H36.68C36.21,84.76,33.44,86,30.42,86s-5.06-1.29-4.65-2.83H17.63L15.4,87.64H113.5Z"/></clippath></linearGradient></linearGradient></linearGradient></linearGradient></linearGradient></linearGradient></linearGradient></linearGradient></linearGradient></linearGradient></linearGradient></linearGradient></linearGradient></linearGradient></linearGradient></defs><title>&#x751F;&#x7269;&#x4EEA;&#x5668;</title><g class="cls-2"><g id="Bio_instruments&#x751F;&#x7269;&#x4EEA;&#x5668;" data-name="Bio instruments&#x751F;&#x7269;&#x4EEA;&#x5668;"><rect class="cls-3" x="113.5" y="42.48" width="5.41" height="71.69" transform="translate(232.4 156.65) rotate(-180)"/><polygon class="cls-4" points="113.5 114.17 111.27 104.68 111.27 39.02 113.5 42.48 113.5 114.17"/><polygon class="cls-5" points="111.27 39.02 116.55 39.02 118.91 42.48 113.5 42.48 111.27 39.02"/><g class="cls-6"><g class="cls-7"><path class="cls-8" d="M118,41.92c-.13,6.86-1.14,14.94,1.44,21.47,0,.11.22.06.18,0C117,56.85,118,48.76,118.15,41.92a.09.09,0,0,0-.19,0Z"/><path class="cls-8" d="M117.15,42.13q0,7.69.17,15.38c.08,4.17-.67,10.56,1.71,14.26.06.1.23,0,.16-.09-2.6-4-1.64-11.69-1.72-16.3q-.1-6.62-.13-13.24a.09.09,0,0,0-.19,0Z"/><path class="cls-8" d="M116.24,42.13q.1,9,.34,18c.06,2.24-.73,14.88,1.91,16.13a.1.1,0,0,0,.13,0,5.2,5.2,0,0,0,.73-2.4c0-.12-.17-.12-.19,0-.32,3-1.66-1.42-1.68-1.51-.11-.69-.21-1.38-.28-2.08-.12-1.14-.15-2.29-.2-3.44-.16-3.46-.24-6.92-.32-10.38q-.16-7.16-.24-14.33a.09.09,0,0,0-.19,0Z"/><path class="cls-8" d="M115.57,41.92q0,10.88.2,21.75c.06,4.38.11,8.77.31,13.15.14,3,.11,7.09,1.75,9.56a.09.09,0,0,0,.15,0c1-1.07,1.34-3.11,1.79-4.46,0-.11-.14-.16-.18,0-.77,2.29-1.69,5.14-2.53,1.14a37.9,37.9,0,0,1-.77-5.62C116,73,116,68.59,116,64.19q-.17-11.13-.21-22.27a.09.09,0,0,0-.19,0Z"/><path class="cls-8" d="M114.33,41.85c.09,10.37.23,20.75.54,31.12a125.32,125.32,0,0,0,.75,14.38c.8,5.46,1.81,10.31,1.12,15.84-.46,3.69-1.33,7.3-1.69,11,0,.12.17.12.19,0,.37-3.69,1.24-7.29,1.71-11,.69-5.37-.21-10.08-1-15.34-.78-4.89-.7-10-.85-14.93-.3-10.37-.45-20.75-.54-31.12a.09.09,0,0,0-.19,0Z"/><path class="cls-8" d="M119.16,90A67.87,67.87,0,0,0,119,111.4c0,.12.2.07.18,0a67.27,67.27,0,0,1,.14-21.26c0-.12-.16-.17-.18,0Z"/><path class="cls-8" d="M119,114.17c-.07-.76-.33-5.8-1.3-5.71-.64.06-1,2.18-1.05,2.59-.3,1.22-.56,2.45-.78,3.68,0,.12.16.17.18,0q.21-1.18.47-2.35c.14-.64.29-1.28.46-1.92a4.26,4.26,0,0,1,.52-1.54c.47-.49.57.27.67.69.15.6.24,1.21.33,1.82q.2,1.34.32,2.69c0,.12.2.12.19,0Z"/><path class="cls-8" d="M118.29,114.48c0-.38-.16-2.07-.74-2-.32,0-.48.66-.56.89a12.13,12.13,0,0,0-.37,1.31c0,.12.15.17.18,0s.12-.49.19-.73.21-1,.48-1.24.24,0,.32.25a4.41,4.41,0,0,1,.16.6c.06.29.12.59.15.89,0,.12.2.12.19,0Z"/><path class="cls-8" d="M113.94,114.48c.56-7.28,1.62-14.44,1-21.75-.68-7.55-1-15.1-1.44-22.66,0-.12-.19-.12-.19,0,.43,7.56.75,15.12,1.44,22.66.67,7.31-.4,14.48-1,21.75,0,.12.18.12.19,0Z"/></g></g><g class="cls-9"><g class="cls-10"><path class="cls-8" d="M118.59,41.21a10.75,10.75,0,0,1-6.37.48c-.12,0-.17.16,0,.18a10.92,10.92,0,0,0,6.51-.5c.11,0,0-.21-.09-.16Z"/><path class="cls-8" d="M117.66,40.21c-.27,1.79-5.71-.12-6.75-.77-.1-.06-.19.1-.09.16,1,.64,6.7,2.8,7,.66,0-.12-.16-.17-.18,0Z"/><path class="cls-8" d="M117.31,39.31c-1.61.65-4.41.63-5.52-.94-.07-.1-.23,0-.16.09,1.16,1.65,4,1.71,5.73,1,.11,0,.06-.22,0-.18Z"/></g></g><rect class="cls-11" x="9.99" y="42.48" width="5.41" height="71.69"/><polygon class="cls-4" points="15.4 114.17 17.63 104.68 17.63 39.02 15.4 42.48 15.4 114.17"/><polygon class="cls-5" points="17.63 39.02 12.35 39.02 9.99 42.48 15.4 42.48 17.63 39.02"/><g class="cls-6"><g class="cls-12"><path class="cls-8" d="M10.75,41.92c.13,6.84,1.13,14.94-1.43,21.43,0,.11.14.16.18,0,2.58-6.54,1.57-14.61,1.44-21.47a.09.09,0,0,0-.19,0Z"/><path class="cls-8" d="M11.56,42.13q0,6.62-.13,13.24c-.07,4.59.86,12.28-1.72,16.3-.06.1.1.19.16.09,2.38-3.7,1.63-10.08,1.71-14.26q.14-7.69.17-15.38a.09.09,0,0,0-.19,0Z"/><path class="cls-8" d="M12.47,42.13q-.08,7.16-.24,14.33c-.08,3.32-.16,6.64-.3,10-.05,1.19-.09,2.39-.2,3.58,0,.5-.09,1-.16,1.5l-.3,1.72q.19,2.4-1.53.65c0-.12-.2-.12-.19,0a5.2,5.2,0,0,0,.73,2.4.1.1,0,0,0,.13,0c2.65-1.26,1.85-13.86,1.91-16.13q.25-9,.34-18a.09.09,0,0,0-.19,0Z"/><path class="cls-8" d="M13.14,41.92q0,11.13-.21,22.27c-.06,4.31-.1,8.63-.32,12.93A37.74,37.74,0,0,1,11.84,83c-.84,4-1.77,1.15-2.53-1.14,0-.11-.22-.06-.18,0,.46,1.38.78,3.37,1.79,4.46a.09.09,0,0,0,.15,0c1.64-2.46,1.61-6.57,1.75-9.56.2-4.38.25-8.77.31-13.15q.16-10.88.2-21.75a.09.09,0,0,0-.19,0Z"/><path class="cls-8" d="M14.38,41.85C14.3,52.23,14.15,62.6,13.85,73A125.11,125.11,0,0,1,13,87.77c-.75,5-1.74,9.5-1.17,14.61.44,4,1.42,7.85,1.81,11.83,0,.12.2.12.19,0-.31-3.15-1-6.2-1.47-9.33-.95-6.2,0-11.38.9-17.51A123.54,123.54,0,0,0,14,73c.3-10.37.45-20.75.54-31.12a.09.09,0,0,0-.19,0Z"/><path class="cls-8" d="M9.56,90.09a67.26,67.26,0,0,1,.14,21.26c0,.12.16.17.18,0A67.86,67.86,0,0,0,9.74,90c0-.12-.2-.07-.18,0Z"/><path class="cls-8" d="M10.09,114.17q.12-1.35.32-2.69c.09-.61.18-1.22.33-1.82.1-.42.2-1.17.67-.69a4.26,4.26,0,0,1,.52,1.54c.17.63.32,1.27.46,1.92s.33,1.57.47,2.35c0,.12.2.07.18,0-.22-1.19-.46-2.39-.75-3.56-.1-.42-.43-2.65-1.08-2.71-1-.09-1.23,4.95-1.3,5.71,0,.12.17.12.19,0Z"/><path class="cls-8" d="M10.79,114.48c0-.28.08-.57.14-.84a4.64,4.64,0,0,1,.17-.64c.07-.2.12-.39.32-.25s.38.89.46,1.19.14.52.2.78.21.07.18,0a12.49,12.49,0,0,0-.35-1.26c-.08-.24-.25-.91-.58-.94-.57-.05-.69,1.64-.74,2,0,.12.17.12.19,0Z"/><path class="cls-8" d="M15.14,114.48c-.56-7.28-1.62-14.44-1-21.75.68-7.55,1-15.1,1.44-22.66,0-.12-.18-.12-.19,0C15,77.62,14.68,85.18,14,92.72c-.67,7.31.4,14.47,1,21.75,0,.12.19.12.19,0Z"/></g></g><g class="cls-9"><g class="cls-13"><path class="cls-8" d="M10.22,41.37a10.91,10.91,0,0,0,6.51.5c.12,0,.07-.2,0-.18a10.75,10.75,0,0,1-6.37-.48c-.11,0-.2.11-.09.16Z"/><path class="cls-8" d="M11.06,40.26c.32,2.13,6,0,7-.66.1-.06,0-.22-.09-.16-1,.65-6.48,2.57-6.75.77,0-.12-.2-.07-.18,0Z"/><path class="cls-8" d="M11.55,39.49c1.69.68,4.57.62,5.73-1,.07-.1-.09-.19-.16-.09C16,39.95,13.21,40,11.6,39.31c-.11,0-.16.13,0,.18Z"/></g></g><rect class="cls-14" x="15.4" y="107.39" width="98.09" height="3.56"/><polygon class="cls-15" points="15.4 107.39 113.5 107.39 111.27 99.57 17.63 99.57 15.4 107.39"/><g class="cls-16"><g class="cls-17"><path class="cls-8" d="M15,109.65c4,.32,7.81,1,11.72,1.64.14,0,.2-.19.06-.22-3.93-.63-7.81-1.32-11.78-1.65-.14,0-.14.21,0,.22Z"/><path class="cls-8" d="M15.22,108.07A62.22,62.22,0,0,1,28.13,110c3.9.91,8.16,0,11.92,1.39.13.05.19-.17.06-.22-4.24-1.62-9.14-.69-13.56-1.82a49.33,49.33,0,0,0-11.33-1.47.11.11,0,0,0,0,.22Z"/><path class="cls-8" d="M27.93,107.27a122.7,122.7,0,0,0,13.81,3.05,79.36,79.36,0,0,0,11.32.69c3.63,0,7.2-1,10.79-1,2.76,0,5.59.78,8.35,1a59.66,59.66,0,0,0,12.93-.35,104.2,104.2,0,0,0,16.44-3.47c.14,0,.08-.26-.06-.22A103.35,103.35,0,0,1,87,110.17a62.42,62.42,0,0,1-15.52.58c-2.54-.23-5.07-.94-7.62-.94-3.14,0-6.24.87-9.38,1a81.13,81.13,0,0,1-10.89-.46A107.45,107.45,0,0,1,28,107.06a.11.11,0,0,0-.06.22Z"/><path class="cls-8" d="M88.6,111.35c4.45-1.12,9.14-.83,13.65-1.77,3.94-.82,7.83-1,11.79-1.51.14,0,.14-.24,0-.22-3.61.46-7.06.49-10.66,1.26-4.91,1-10,.82-14.84,2a.11.11,0,0,0,.06.22Z"/><path class="cls-8" d="M101.15,111.54c4.25-.71,8.49-1.21,12.77-1.7.14,0,.14-.24,0-.22-4.3.49-8.56,1-12.83,1.71-.14,0-.08.24.06.22Z"/><path class="cls-8" d="M36.15,107.14a31.86,31.86,0,0,0,13.1,2.51c5.49,0,11-1.72,16.44-1.56,5.75.17,11.25,1.62,17.09,1.19,2.83-.21,6.93-.35,9.35-2.09.12-.08,0-.28-.11-.19-3,2.17-8.16,2.09-11.65,2.17-5,.1-9.75-1.16-14.67-1.3-4.22-.12-8.54,1.12-12.76,1.4-5.6.37-11.48,0-16.67-2.32-.13-.06-.24.13-.11.19Z"/><path class="cls-8" d="M38.7,107.39c4.52,1.89,9.95,1.19,14.52-.12a.11.11,0,0,0-.06-.22c-4.54,1.31-9.9,2-14.4.12-.13-.06-.19.16-.06.22Z"/><path class="cls-8" d="M75.71,107c3.95,2.75,10.84,1.93,15,.19.13-.05.07-.27-.06-.22-4.16,1.72-11,2.54-14.87-.17-.12-.08-.23.11-.11.19Z"/></g></g><g class="cls-18"><g class="cls-19"><path class="cls-8" d="M16.19,104.74c.94-.07,1.89-.28,2.83-.43.68-.11,1.36-.23,2-.38.24-.05,1-.1,1.14-.31.36-.46-.64-.55-.92-.59-1.65-.25-3.16.19-4.79.23a.11.11,0,0,0,0,.22c1,0,2-.3,3.08-.33.39,0,2.33-.09,2.47.29a5.63,5.63,0,0,1-.68.19,34.51,34.51,0,0,1-5.16.88c-.14,0-.14.24,0,.22Z"/><path class="cls-8" d="M15.6,106.43c8.61.8,17.17-1.68,25.62-3A198.91,198.91,0,0,1,63,100.7c17-.81,33.6,6.85,50.62,5.93.14,0,.14-.23,0-.22-17,.92-33.6-6.74-50.62-5.93-6.68.32-13.47,1.49-20.09,2.42-9,1.27-18.13,4.17-27.34,3.31-.14,0-.14.21,0,.22Z"/><path class="cls-8" d="M24.92,107.25c11.69-1,23.13-3.95,34.82-4.22a111.8,111.8,0,0,1,25,1.78c6.33,1.25,12.66,2.08,19,2.92.14,0,.14-.21,0-.22-7.48-1-14.87-2.1-22.27-3.57-7.25-1.44-14.38-1.3-21.74-1.13-11.72.27-23.11,3.26-34.82,4.22-.14,0-.14.24,0,.22Z"/><path class="cls-8" d="M43,106.37c5.56-3,14.48-1.56,20.56-1.56s12.91-.72,19,.42c1.46.27,3.46.36,1.62,1.05-1.55.58-3.93.28-5.59.38-4.56.28-9.14.55-13.71.53-7.31,0-14.64-.58-21.93-1-.14,0-.14.22,0,.22,7.13.43,14.29,1,21.44,1,4.34,0,8.7-.21,13-.46,2.68-.15,6,.12,8.54-.7a.11.11,0,0,0,0-.19c-1.48-1.43-4.85-1.34-6.9-1.39-4.29-.12-8.59-.08-12.88-.09-4.65,0-9.3,0-14,0-3.23,0-6.44,0-9.39,1.56C42.78,106.24,42.9,106.44,43,106.37Z"/><path class="cls-8" d="M54.16,105.56a52.52,52.52,0,0,0,11.27,1c2.27-.13,4.54-.32,6.8-.55.36,0,1.92,0,2.2-.31a.11.11,0,0,0-.08-.19,187.14,187.14,0,0,0-20.16-.15c-.14,0-.14.23,0,.22,3.54-.21,7.06-.27,10.6-.16l6.51.23c.6,0,3.45-.19,2.47,0a60.41,60.41,0,0,1-19.55-.25C54.08,105.32,54,105.54,54.16,105.56Z"/><path class="cls-8" d="M15.5,105.71c11,0,21.75-2.47,32.73-3.28.14,0,.14-.23,0-.22-11,.82-21.7,3.26-32.73,3.28a.11.11,0,0,0,0,.22Z"/><path class="cls-8" d="M17,102.13c7.3-.14,14.59.6,21.9.14a76.89,76.89,0,0,0,10.32-1.78,78.58,78.58,0,0,1,17.16-1.14,78.51,78.51,0,0,1,13.57,1c4.13.81,8.09,2.26,12.31,2.61,6.73.56,13.11-1.45,19.91-.59.14,0,.14-.21,0-.22-6.56-.83-12.58,1-19,.64-5-.28-9.64-2.15-14.57-2.9a92.91,92.91,0,0,0-12.19-.76A83.09,83.09,0,0,0,53,99.61c-4.53.65-8.93,2-13.5,2.41-7.5.59-15-.25-22.51-.11a.11.11,0,0,0,0,.22Z"/><path class="cls-8" d="M112.27,103.27A21,21,0,0,0,108,103c-.39,0-2,0-1.56.67.16.26.88.27,1.17.32.67.12,1.35.22,2,.32l3.17.46c.14,0,.2-.2.06-.22-1.64-.23-3.28-.45-4.91-.73-.23,0-.9,0-1.06-.2-.4-.42.63-.36.91-.38s.79,0,1.18,0a25.26,25.26,0,0,1,3.23.3c.14,0,.2-.19.06-.22Z"/><path class="cls-8" d="M113.07,105.63c-6.05-.49-12.2-.74-18.19-1.78-2.39-.42-4.74-1-7.08-1.67-1.15-.31-3.65-.52-1.29-.38,3.71.21,7.53.72,11.25.45,4.59-.33,8.86-1.58,13.52-1.51a.11.11,0,0,0,0-.22c-5-.07-9.61,1.4-14.56,1.54a111.76,111.76,0,0,1-11.49-.58c-.13,0-.15.19,0,.22,9.23,2.57,18.35,3.38,27.88,4.16.14,0,.14-.21,0-.22Z"/><path class="cls-8" d="M103.2,99.08c-5.58,4-16.81,2.27-22.79-.06-.13-.05-.19.16-.06.22,6,2.33,17.31,4.09,23,0,.12-.08,0-.28-.11-.19Z"/><path class="cls-8" d="M47.08,99.06c-7,2.25-15.1,3.23-21.91,0-.13-.06-.24.13-.11.19,6.87,3.3,15.06,2.33,22.09.06.14,0,.08-.26-.06-.22Z"/><path class="cls-8" d="M17.36,100.73c8.12.14,16.14,1.9,24.29,1.3.14,0,.14-.23,0-.22-8.13.59-16.18-1.16-24.29-1.3a.11.11,0,0,0,0,.22Z"/></g></g><path class="cls-20" d="M15.25,91.09v16.3a.15.15,0,0,0,.15.15h98.08a.15.15,0,0,0,.15-.15V91.09a.15.15,0,0,0-.3,0V105c0,2.74.25,2.22-2.49,2.22h-91a13.38,13.38,0,0,1-3.5,0c-1.27-.41-.28.42-.79-.5-1-1.78,0-6.92,0-9V91.09a.15.15,0,0,0-.3,0Z"/><path class="cls-21" d="M93.65,18.62v79c0,3.51,3,3.84,3.07,3.81-1.17-.37-2.06-1.83-2.06-3.81V19Z"/><path class="cls-22" d="M91.91,16.44v82.5a5.49,5.49,0,0,0,11,0V16.44Z"/><path class="cls-23" d="M92.48,36.49V98.72a4.93,4.93,0,0,0,9.84,0V36.49Z"/><path class="cls-24" d="M93.58,17.87V98.54c0,3.58,3,3.92,3.13,3.89-1.2-.38-2.1-1.87-2.1-3.89V18.22Z"/><path class="cls-25" d="M102,17.87V98.13c0,3.59-3.79,4.32-3.91,4.29,1.5-.38,2.63-2.28,2.63-4.29V18.22Z"/><path class="cls-26" d="M102,98.13s0-37.92,0-61.64h-1.28c0,23.68,0,61.64,0,61.64,0,2-1.13,3.91-2.63,4.29C98.18,102.46,102,101.72,102,98.13Z"/><path class="cls-27" d="M100.6,17.87V98.13c0,3.59-2.07,4.32-2.14,4.29.82-.38,1.44-2.28,1.44-4.29V18.22Z"/><path class="cls-28" d="M102.41,16.14a11.13,11.13,0,0,0-5.06-.94,11.13,11.13,0,0,0-5.06.94h-.83l.23.76c0,.94,2.54,1.7,5.66,1.7s5.72-.78,5.82-1.7l.07-.76Z"/><ellipse class="cls-29" cx="97.35" cy="16.04" rx="5.89" ry="1.91"/><path class="cls-30" d="M97.35,17.95c-3.19,0-5.77-.82-5.88-1.84a.57.57,0,0,0,0,.06c0,1.05,2.64,1.91,5.89,1.91s5.89-.85,5.89-1.91a.57.57,0,0,0,0-.06C103.13,17.13,100.54,17.95,97.35,17.95Z"/><ellipse class="cls-31" cx="97.35" cy="16.02" rx="5.19" ry="1.36"/><path class="cls-32" d="M97.35,14.82c2.76,0,5,.57,5.17,1.28a.36.36,0,0,0,0-.08c0-.75-2.32-1.36-5.19-1.36s-5.19.61-5.19,1.36a.38.38,0,0,0,0,.08C92.34,15.39,94.59,14.82,97.35,14.82Z"/><polygon class="cls-30" points="93.58 18.17 93.5 17.61 94.57 17.85 94.61 18.39 93.58 18.17"/><ellipse class="cls-33" cx="97.38" cy="36.51" rx="4.92" ry="1.06"/><path class="cls-34" d="M102,36.89v-.76a4.59,4.59,0,0,0-1.28-.4q0,.78,0,1.57A4.6,4.6,0,0,0,102,36.89Z"/><path class="cls-35" d="M100.6,37.3q0-.8,0-1.6l-.7-.11q0,.91,0,1.82Z"/><path class="cls-35" d="M94.61,37.38q0-.88,0-1.76a9.27,9.27,0,0,0-1,.21v1.34A9.26,9.26,0,0,0,94.61,37.38Z"/><path class="cls-36" d="M97.38,37.59c-2.66,0-4.82-.5-4.92-1.12a.28.28,0,0,0,0,0c0,.64,2.21,1.16,4.93,1.16s4.93-.52,4.93-1.16a.28.28,0,0,0,0,0C102.2,37.09,100,37.59,97.38,37.59Z"/><path class="cls-21" d="M54,18.62v79c0,3.51,3,3.84,3.07,3.81-1.17-.37-2.06-1.83-2.06-3.81V19Z"/><path class="cls-37" d="M52.25,16.44v82.5a5.49,5.49,0,0,0,11,0V16.44Z"/><path class="cls-38" d="M52.82,40.79V98.72a4.93,4.93,0,0,0,9.84,0V40.79Z"/><path class="cls-39" d="M53.92,17.87V98.54c0,3.58,3,3.92,3.13,3.89-1.2-.38-2.1-1.87-2.1-3.89V18.22Z"/><path class="cls-25" d="M62.31,17.87V98.13c0,3.59-3.79,4.32-3.91,4.29,1.5-.38,2.63-2.28,2.63-4.29V18.22Z"/><path class="cls-40" d="M62.31,98.13s0-33.62,0-57.35H61c0,23.68,0,57.35,0,57.35,0,2-1.13,3.91-2.63,4.29C58.52,102.46,62.31,101.72,62.31,98.13Z"/><path class="cls-41" d="M60.94,17.87V98.13c0,3.59-2.07,4.32-2.14,4.29.82-.38,1.44-2.28,1.44-4.29V18.22Z"/><path class="cls-42" d="M62.75,16.14a11.13,11.13,0,0,0-5.06-.94,11.13,11.13,0,0,0-5.06.94H51.8l.23.76c0,.94,2.54,1.7,5.66,1.7s5.72-.78,5.82-1.7l.07-.76Z"/><ellipse class="cls-43" cx="57.69" cy="16.04" rx="5.89" ry="1.91"/><path class="cls-30" d="M57.69,17.95c-3.19,0-5.77-.82-5.88-1.84a.57.57,0,0,0,0,.06c0,1.05,2.64,1.91,5.89,1.91s5.89-.85,5.89-1.91a.57.57,0,0,0,0-.06C63.47,17.13,60.88,17.95,57.69,17.95Z"/><ellipse class="cls-44" cx="57.69" cy="16.02" rx="5.19" ry="1.36"/><path class="cls-45" d="M57.69,14.82c2.76,0,5,.57,5.17,1.28a.36.36,0,0,0,0-.08c0-.75-2.32-1.36-5.19-1.36s-5.19.61-5.19,1.36a.38.38,0,0,0,0,.08C52.68,15.39,54.93,14.82,57.69,14.82Z"/><polygon class="cls-30" points="53.92 18.17 53.84 17.61 54.91 17.85 54.95 18.39 53.92 18.17"/><ellipse class="cls-46" cx="57.72" cy="40.8" rx="4.92" ry="1.06"/><path class="cls-47" d="M62.31,41.18v-.76A4.59,4.59,0,0,0,61,40q0,.78,0,1.57A4.6,4.6,0,0,0,62.31,41.18Z"/><path class="cls-48" d="M60.94,41.6q0-.8,0-1.6l-.7-.11q0,.91,0,1.82Z"/><path class="cls-48" d="M54.95,41.68q0-.88,0-1.76a9.27,9.27,0,0,0-1,.21v1.34A9.26,9.26,0,0,0,54.95,41.68Z"/><path class="cls-49" d="M57.72,41.88c-2.66,0-4.82-.5-4.92-1.12a.28.28,0,0,0,0,0c0,.64,2.21,1.16,4.93,1.16s4.93-.52,4.93-1.16a.28.28,0,0,0,0,0C62.54,41.38,60.38,41.88,57.72,41.88Z"/><path class="cls-21" d="M40.75,18.62v79c0,3.51,3,3.84,3.07,3.81-1.17-.37-2.06-1.83-2.06-3.81V19Z"/><path class="cls-50" d="M39,16.44v82.5a5.49,5.49,0,0,0,11,0V16.44Z"/><path class="cls-51" d="M39.58,34.38V98.72a4.66,4.66,0,0,0,4.92,4.59,4.66,4.66,0,0,0,4.92-4.59V34.38Z"/><path class="cls-39" d="M40.68,17.87V98.54c0,3.58,3,3.92,3.13,3.89-1.2-.38-2.1-1.87-2.1-3.89V18.22Z"/><path class="cls-25" d="M49.07,17.87V98.13c0,3.59-3.79,4.32-3.91,4.29,1.5-.38,2.63-2.28,2.63-4.29V18.22Z"/><path class="cls-52" d="M49.07,98.13s0-40,0-63.75H47.79c0,23.68,0,63.75,0,63.75,0,2-1.13,3.91-2.63,4.29C45.28,102.46,49.07,101.72,49.07,98.13Z"/><path class="cls-27" d="M47.7,17.87V98.13c0,3.59-2.07,4.32-2.14,4.29.82-.38,1.44-2.28,1.44-4.29V18.22Z"/><path class="cls-53" d="M49.51,16.14a11.13,11.13,0,0,0-5.06-.94,11.13,11.13,0,0,0-5.06.94h-.83l.23.76c0,.94,2.54,1.7,5.66,1.7s5.72-.78,5.82-1.7l.07-.76Z"/><ellipse class="cls-54" cx="44.45" cy="16.04" rx="5.89" ry="1.91"/><path class="cls-30" d="M44.45,17.95c-3.19,0-5.77-.82-5.88-1.84a.57.57,0,0,0,0,.06c0,1.05,2.64,1.91,5.89,1.91s5.89-.85,5.89-1.91a.57.57,0,0,0,0-.06C50.23,17.13,47.64,17.95,44.45,17.95Z"/><ellipse class="cls-55" cx="44.45" cy="16.02" rx="5.19" ry="1.36"/><path class="cls-56" d="M44.45,14.82c2.76,0,5,.57,5.17,1.28a.36.36,0,0,0,0-.08c0-.75-2.32-1.36-5.19-1.36s-5.19.61-5.19,1.36a.38.38,0,0,0,0,.08C39.44,15.39,41.69,14.82,44.45,14.82Z"/><polygon class="cls-30" points="40.69 18.17 40.6 17.61 41.67 17.85 41.71 18.39 40.69 18.17"/><ellipse class="cls-57" cx="44.48" cy="34.4" rx="4.92" ry="1.06"/><path class="cls-58" d="M49.07,34.78V34a4.59,4.59,0,0,0-1.28-.4q0,.78,0,1.57A4.6,4.6,0,0,0,49.07,34.78Z"/><path class="cls-59" d="M47.7,35.2q0-.8,0-1.6l-.7-.11q0,.91,0,1.82Z"/><path class="cls-60" d="M41.71,35.28q0-.88,0-1.76a9.27,9.27,0,0,0-1,.21v1.34A9.26,9.26,0,0,0,41.71,35.28Z"/><path class="cls-61" d="M44.48,35.48c-2.66,0-4.82-.5-4.92-1.12a.28.28,0,0,0,0,0c0,.64,2.21,1.16,4.93,1.16s4.93-.52,4.93-1.16a.28.28,0,0,0,0,0C49.3,35,47.14,35.48,44.48,35.48Z"/><path class="cls-21" d="M27.48,18.62v79c0,3.51,3,3.84,3.07,3.81-1.17-.37-2.06-1.83-2.06-3.81V19Z"/><path class="cls-62" d="M25.74,16.44v82.5a5.27,5.27,0,0,0,5.48,5.19,5.27,5.27,0,0,0,5.49-5.19V16.44Z"/><path class="cls-63" d="M26.31,47.73v51a4.66,4.66,0,0,0,4.92,4.59,4.66,4.66,0,0,0,4.92-4.59v-51Z"/><path class="cls-39" d="M27.41,17.87V98.54c0,3.58,3,3.92,3.13,3.89-1.2-.38-2.1-1.87-2.1-3.89V18.22Z"/><path class="cls-25" d="M35.8,17.87V98.13c0,3.59-3.79,4.32-3.91,4.29,1.5-.38,2.63-2.28,2.63-4.29V18.22Z"/><path class="cls-64" d="M35.8,98.13s0-26.68,0-50.4H34.51c0,23.68,0,50.4,0,50.4,0,2-1.13,3.91-2.63,4.29C32,102.46,35.8,101.72,35.8,98.13Z"/><path class="cls-41" d="M34.43,17.87V98.13c0,3.59-2.07,4.32-2.14,4.29.82-.38,1.44-2.28,1.44-4.29V18.22Z"/><path class="cls-65" d="M36.24,16.14a11.13,11.13,0,0,0-5.06-.94,11.13,11.13,0,0,0-5.06.94h-.83l.23.76c0,.94,2.54,1.7,5.66,1.7s5.72-.78,5.82-1.7l.07-.76Z"/><ellipse class="cls-66" cx="31.18" cy="16.04" rx="5.89" ry="1.91"/><path class="cls-30" d="M31.18,17.95c-3.19,0-5.77-.82-5.88-1.84a.57.57,0,0,0,0,.06c0,1.05,2.64,1.91,5.89,1.91s5.89-.85,5.89-1.91a.57.57,0,0,0,0-.06C37,17.13,34.37,17.95,31.18,17.95Z"/><ellipse class="cls-67" cx="31.18" cy="16.02" rx="5.19" ry="1.36"/><path class="cls-68" d="M31.18,14.82c2.76,0,5,.57,5.17,1.28a.36.36,0,0,0,0-.08c0-.75-2.32-1.36-5.19-1.36S26,15.27,26,16a.38.38,0,0,0,0,.08C26.17,15.39,28.42,14.82,31.18,14.82Z"/><polygon class="cls-30" points="27.41 18.17 27.32 17.61 28.4 17.85 28.44 18.39 27.41 18.17"/><ellipse class="cls-69" cx="31.21" cy="47.75" rx="4.92" ry="1.06"/><path class="cls-70" d="M35.8,48.13v-.76a4.59,4.59,0,0,0-1.28-.4q0,.78,0,1.57A4.6,4.6,0,0,0,35.8,48.13Z"/><path class="cls-71" d="M34.43,48.55q0-.8,0-1.6l-.7-.11q0,.91,0,1.82Z"/><path class="cls-72" d="M28.44,48.63q0-.88,0-1.76a9.27,9.27,0,0,0-1,.21v1.34A9.26,9.26,0,0,0,28.44,48.63Z"/><path class="cls-73" d="M31.21,48.83c-2.66,0-4.82-.5-4.92-1.12a.28.28,0,0,0,0,0c0,.64,2.21,1.16,4.93,1.16s4.93-.52,4.93-1.16a.28.28,0,0,0,0,0C36,48.33,33.87,48.83,31.21,48.83Z"/><rect class="cls-74" x="15.4" y="59.9" width="98.09" height="3.56"/><g class="cls-75"><g class="cls-76"><path class="cls-8" d="M15,61.42c4-.32,7.85-1,11.78-1.65.14,0,.08-.24-.06-.22C22.85,60.18,19,60.87,15,61.19c-.14,0-.14.24,0,.22Z"/><path class="cls-8" d="M15.22,63a48.87,48.87,0,0,0,11.33-1.47c4.41-1.14,9.32-.2,13.56-1.82.13-.05.08-.27-.06-.22-3.75,1.44-8,.49-11.92,1.39a62.52,62.52,0,0,1-12.91,1.89.11.11,0,0,0,0,.22Z"/><path class="cls-8" d="M28,63.79A110.72,110.72,0,0,1,42.93,60.6a80,80,0,0,1,11.54-.53c3.15.09,6.25,1,9.38,1,2.55,0,5.08-.71,7.62-.94a60,60,0,0,1,13.67.31,102.29,102.29,0,0,1,16.38,3.44c.14,0,.2-.17.06-.22a104.24,104.24,0,0,0-16.43-3.47,59.37,59.37,0,0,0-12.22-.41c-3,.2-6.09,1.06-9.08,1.05-3.36,0-6.7-.92-10.09-1a80.67,80.67,0,0,0-11.43.61,116.46,116.46,0,0,0-14.41,3.12.11.11,0,0,0,.06.22Z"/><path class="cls-8" d="M88.54,59.71c4.84,1.21,9.93,1,14.84,2,3.6.76,7.06.8,10.66,1.26.14,0,.14-.21,0-.22-4-.5-7.85-.69-11.79-1.51-4.51-.94-9.2-.65-13.65-1.77a.11.11,0,0,0-.06.22Z"/><path class="cls-8" d="M101.09,59.52c4.27.71,8.53,1.22,12.83,1.71.14,0,.14-.21,0-.22-4.28-.49-8.52-1-12.77-1.7-.14,0-.2.19-.06.22Z"/><path class="cls-8" d="M36.26,63.9c4.9-2.23,10.46-2.67,15.76-2.37,4.53.25,9.15,1.57,13.67,1.45s9.18-1.34,13.86-1.32c3.7,0,9.25-.12,12.47,2.18.12.08.23-.11.11-.19-2.41-1.73-6.55-1.88-9.35-2.09-5.85-.44-11.34,1-17.09,1.19-5.43.16-11-1.53-16.44-1.56a31.62,31.62,0,0,0-13.1,2.51c-.13.06,0,.25.11.19Z"/><path class="cls-8" d="M38.76,63.67c4.49-1.88,9.86-1.19,14.4.12a.11.11,0,0,0,.06-.22c-4.57-1.32-10-2-14.52-.12-.13.05-.07.27.06.22Z"/><path class="cls-8" d="M75.82,64c3.89-2.71,10.7-1.89,14.87-.17.13.06.19-.16.06-.22-4.2-1.73-11.09-2.56-15,.19-.12.08,0,.28.11.19Z"/></g></g><path class="cls-77" d="M111.27,55.46H103c.4,1.55-1.64,2.81-4.66,2.81S92.53,57,92.05,55.46H89.71c.24,1.56-1.95,2.84-5,2.84S79.09,57,78.79,55.46H76.45c.07,1.55-2.26,2.84-5.3,2.84S65.64,57,65.53,55.46H63.19c-.14,1.55-2.61,2.8-5.62,2.8s-5.33-1.25-5.29-2.8H49.93C49.63,57,47,58.27,44,58.27S38.8,57,39,55.46H36.68c-.47,1.55-3.23,2.83-6.26,2.83S25.35,57,25.76,55.46H17.63L15.4,59.9H113.5Z"/><g class="cls-78"><g class="cls-79"><path class="cls-8" d="M16.06,58.74c1.13-.05,2.27-.19,3.39-.31.59-.06,2.17,0,2.67-.39a.09.09,0,0,0,0-.1c-.29-.49-2.09-.29-2.52-.29-1.09,0-2.17.17-3.26.19a.09.09,0,0,0,0,.17c1,0,2-.18,3.08-.19A6.85,6.85,0,0,1,21.8,58c.19.08.21-.07,0,0a3.32,3.32,0,0,1-.62.09c-1.69.22-3.41.42-5.11.5-.11,0-.11.18,0,.17Z"/><path class="cls-8" d="M15.48,59.72c15.72.85,31.68-2.89,47.43-3.32,16.92-.47,33.7,4,50.62,3.44.11,0,.11-.17,0-.17-16.92.53-33.7-3.91-50.62-3.44-15.75.44-31.71,4.17-47.43,3.32-.11,0-.11.16,0,.17Z"/><path class="cls-8" d="M24.79,60.2c11.64-.55,23.18-2.29,34.82-2.44,14.81-.2,29.27,1.6,44,2.72.11,0,.11-.16,0-.17-14.74-1.12-29.2-2.92-44-2.72C48,57.74,36.43,59.47,24.79,60c-.11,0-.11.18,0,.17Z"/><path class="cls-8" d="M42.86,59.69c6.12-1.88,13.74-.91,20.06-.91,6,0,12.18-.28,18.21.1,1,.06,5.71.17,2.94.71a33.47,33.47,0,0,1-5,.2c-4.59.16-9.19.32-13.78.33-7.48,0-15-.33-22.43-.6-.11,0-.11.17,0,.17,7.14.25,14.29.56,21.44.6,6.94,0,14.72.58,21.57-.67a.09.09,0,0,0,0-.16c-1.79-1-4.82-.77-6.86-.8-4.29-.07-8.59,0-12.88-.05-7.28,0-16.23-1.26-23.31.92C42.71,59.56,42.76,59.72,42.86,59.69Z"/><path class="cls-8" d="M54.06,59.22a89.62,89.62,0,0,0,11.24.57c2.15-.07,4.3-.18,6.44-.3.56,0,2,.16,2.51-.19a.09.09,0,0,0,0-.16c-6.71-.18-13.44-.32-20.16-.09-.11,0-.11.17,0,.17,3.85-.13,7.69-.15,11.53-.08l6.35.13c.49,0,3-.12,1.55-.06A143.17,143.17,0,0,1,54.06,59C54,59,54,59.21,54.06,59.22Z"/><path class="cls-8" d="M15.38,59.3c11,0,21.8-1.43,32.73-1.9.11,0,.11-.18,0-.17-10.93.47-21.78,1.89-32.73,1.9a.09.09,0,0,0,0,.17Z"/><path class="cls-8" d="M16.89,57.23c7.3-.08,14.6.35,21.9.08C48,57,57,55.51,66.27,55.62c8.75.1,17.2,1.68,25.88,2.09,6.67.31,13.21-.83,19.91-.34.11,0,.11-.16,0-.17-6.41-.47-12.66.58-19,.37-9-.29-17.72-2-26.75-2.12S48.41,56.73,39.4,57.12c-7.5.32-15-.14-22.51-.06a.09.09,0,0,0,0,.17Z"/><path class="cls-8" d="M112.11,57.84c-1-.09-2.06-.15-3.09-.17-.66,0-2.24-.25-2.79.23a.09.09,0,0,0,0,.1c.22.47,2.48.4,2.9.44l3.58.3c.11,0,.11-.16,0-.17-1.72-.14-3.45-.27-5.17-.45-.31,0-1.53-.08-.7-.21a12.2,12.2,0,0,1,2.19-.07c1,0,2.07.08,3.09.17.11,0,.11-.16,0-.17Z"/><path class="cls-8" d="M112.94,59.21c-5.6-.26-11.21-.43-16.79-.91-2.85-.25-5.67-.66-8.49-1.09-1-.16-3.73-.29-1.28-.18,8.35.37,16.46-.68,24.76-.61a.09.09,0,0,0,0-.17c-8.73-.07-17.27.94-26,.56-.09,0-.12.15,0,.17a246.36,246.36,0,0,0,27.88,2.41c.11,0,.11-.17,0-.17Z"/><path class="cls-8" d="M103.11,55.41c-6.42,2.65-16.23,1.46-22.83,0-.11,0-.15.14,0,.16a59.53,59.53,0,0,0,12.32,1.18c3.35,0,7.42.17,10.61-1.15.1,0,.06-.21,0-.16Z"/><path class="cls-8" d="M47,55.41c-7.13,1.34-14.88,1.94-22,0a.09.09,0,0,0,0,.16c7.12,2,14.86,1.37,22,0,.11,0,.06-.18,0-.16Z"/><path class="cls-8" d="M17.23,56.42c8.11.08,16.18,1.1,24.29.76.11,0,.11-.18,0-.17-8.11.34-16.19-.67-24.29-.76a.09.09,0,0,0,0,.17Z"/></g></g><path class="cls-20" d="M15.25,42.62V59.9a.15.15,0,0,0,.15.15h98.08a.15.15,0,0,0,.15-.15V42.62a.15.15,0,0,0-.3,0V57.19c0,2.92.49,2.56-2.32,2.56H19.84c-.93,0-2.72.35-3.61,0-1.28-.5-.12.54-.68-1-.91-2.46,0-6.9,0-9.52V42.62a.15.15,0,0,0-.3,0Z"/><rect class="cls-74" x="15.4" y="87.64" width="98.09" height="3.56"/><g class="cls-75"><g class="cls-80"><path class="cls-8" d="M15,89.16c4-.32,7.85-1,11.78-1.65.14,0,.08-.24-.06-.22C22.85,87.92,19,88.61,15,88.94c-.14,0-.14.24,0,.22Z"/><path class="cls-8" d="M15.22,90.74a48.87,48.87,0,0,0,11.33-1.47c4.41-1.14,9.32-.2,13.56-1.82.13-.05.08-.27-.06-.22-3.75,1.44-8,.49-11.92,1.39a62.52,62.52,0,0,1-12.91,1.89.11.11,0,0,0,0,.22Z"/><path class="cls-8" d="M28,91.53a110.72,110.72,0,0,1,14.94-3.19,80,80,0,0,1,11.54-.53c3.15.09,6.25,1,9.38,1,2.55,0,5.08-.71,7.62-.94a60,60,0,0,1,13.67.31,102.29,102.29,0,0,1,16.38,3.44c.14,0,.2-.17.06-.22A104.24,104.24,0,0,0,85.15,87.9a59.37,59.37,0,0,0-12.22-.41c-3,.2-6.09,1.06-9.08,1.05-3.36,0-6.7-.92-10.09-1a80.67,80.67,0,0,0-11.43.61,116.46,116.46,0,0,0-14.41,3.12.11.11,0,0,0,.06.22Z"/><path class="cls-8" d="M88.54,87.45c4.84,1.21,9.93,1,14.84,2,3.6.76,7.06.8,10.66,1.26.14,0,.14-.21,0-.22-4-.5-7.85-.69-11.79-1.51-4.51-.94-9.2-.65-13.65-1.77a.11.11,0,0,0-.06.22Z"/><path class="cls-8" d="M101.09,87.27c4.27.71,8.53,1.22,12.83,1.71.14,0,.14-.21,0-.22-4.28-.49-8.52-1-12.77-1.7-.14,0-.2.19-.06.22Z"/><path class="cls-8" d="M36.26,91.64C41.16,89.42,46.72,89,52,89.27c4.53.25,9.15,1.57,13.67,1.45s9.18-1.34,13.86-1.32c3.7,0,9.25-.12,12.47,2.18.12.08.23-.11.11-.19-2.41-1.73-6.55-1.88-9.35-2.09-5.85-.44-11.34,1-17.09,1.19-5.43.16-11-1.53-16.44-1.56a31.62,31.62,0,0,0-13.1,2.51c-.13.06,0,.25.11.19Z"/><path class="cls-8" d="M38.76,91.41c4.49-1.88,9.86-1.19,14.4.12a.11.11,0,0,0,.06-.22c-4.57-1.32-10-2-14.52-.12-.13.05-.07.27.06.22Z"/><path class="cls-8" d="M75.82,91.77c3.89-2.71,10.7-1.89,14.87-.17.13.06.19-.16.06-.22-4.2-1.73-11.09-2.56-15,.19-.12.08,0,.28.11.19Z"/></g></g><path class="cls-77" d="M111.27,83.21H103c.4,1.55-1.64,2.81-4.66,2.81s-5.78-1.26-6.25-2.81H89.71c.24,1.56-1.95,2.84-5,2.84s-5.64-1.28-5.94-2.84H76.45c.07,1.55-2.26,2.84-5.3,2.84s-5.51-1.28-5.62-2.84H63.19C63,84.76,60.58,86,57.57,86s-5.33-1.25-5.29-2.8H49.93C49.63,84.74,47,86,44,86s-5.2-1.28-5-2.81H36.68C36.21,84.76,33.44,86,30.42,86s-5.06-1.29-4.65-2.83H17.63L15.4,87.64H113.5Z"/><g class="cls-78"><g class="cls-81"><path class="cls-8" d="M16.06,86.48c1.13-.05,2.27-.19,3.39-.31.59-.06,2.17,0,2.67-.39a.09.09,0,0,0,0-.1c-.29-.49-2.09-.29-2.52-.29-1.09,0-2.17.17-3.26.19a.09.09,0,0,0,0,.17c1,0,2-.18,3.08-.19a6.85,6.85,0,0,1,2.37.14c.19.08.21-.07,0,0a3.32,3.32,0,0,1-.62.09c-1.69.22-3.41.42-5.11.5-.11,0-.11.18,0,.17Z"/><path class="cls-8" d="M15.48,87.46c15.72.85,31.68-2.89,47.43-3.32,16.92-.47,33.7,4,50.62,3.44.11,0,.11-.17,0-.17C96.6,87.94,79.83,83.5,62.9,84c-15.75.44-31.71,4.17-47.43,3.32-.11,0-.11.16,0,.17Z"/><path class="cls-8" d="M24.79,87.94C36.43,87.39,48,85.65,59.61,85.5c14.81-.2,29.27,1.6,44,2.72.11,0,.11-.16,0-.17-14.74-1.12-29.2-2.92-44-2.72-11.64.16-23.18,1.89-34.82,2.44-.11,0-.11.18,0,.17Z"/><path class="cls-8" d="M42.86,87.43c6.12-1.88,13.74-.91,20.06-.91,6,0,12.18-.28,18.21.1,1,.06,5.71.17,2.94.71a33.47,33.47,0,0,1-5,.2c-4.59.16-9.19.32-13.78.33-7.48,0-15-.33-22.43-.6-.11,0-.11.17,0,.17,7.14.25,14.29.56,21.44.6,6.94,0,14.72.58,21.57-.67a.09.09,0,0,0,0-.16c-1.79-1-4.82-.77-6.86-.8-4.29-.07-8.59,0-12.88-.05-7.28,0-16.23-1.26-23.31.92C42.71,87.3,42.76,87.47,42.86,87.43Z"/><path class="cls-8" d="M54.06,87a89.62,89.62,0,0,0,11.24.57c2.15-.07,4.3-.18,6.44-.3.56,0,2,.16,2.51-.19a.09.09,0,0,0,0-.16c-6.71-.18-13.44-.32-20.16-.09-.11,0-.11.17,0,.17,3.85-.13,7.69-.15,11.53-.08l6.35.13c.49,0,3-.12,1.55-.06a143.17,143.17,0,0,1-19.44-.16C54,86.78,54,87,54.06,87Z"/><path class="cls-8" d="M15.38,87c11,0,21.8-1.43,32.73-1.9.11,0,.11-.18,0-.17-10.93.47-21.78,1.89-32.73,1.9a.09.09,0,0,0,0,.17Z"/><path class="cls-8" d="M16.89,85c7.3-.08,14.6.35,21.9.08,9.22-.33,18.2-1.8,27.48-1.69,8.75.1,17.2,1.68,25.88,2.09,6.67.31,13.21-.83,19.91-.34.11,0,.11-.16,0-.17-6.41-.47-12.66.58-19,.37-9-.29-17.72-2-26.75-2.12S48.41,84.48,39.4,84.86c-7.5.32-15-.14-22.51-.06a.09.09,0,0,0,0,.17Z"/><path class="cls-8" d="M112.11,85.59c-1-.09-2.06-.15-3.09-.17-.66,0-2.24-.25-2.79.23a.09.09,0,0,0,0,.1c.22.47,2.48.4,2.9.44l3.58.3c.11,0,.11-.16,0-.17-1.72-.14-3.45-.27-5.17-.45-.31,0-1.53-.08-.7-.21a12.2,12.2,0,0,1,2.19-.07c1,0,2.07.08,3.09.17.11,0,.11-.16,0-.17Z"/><path class="cls-8" d="M112.94,87c-5.6-.26-11.21-.43-16.79-.91-2.85-.25-5.67-.66-8.49-1.09-1-.16-3.73-.29-1.28-.18,8.35.37,16.46-.68,24.76-.61a.09.09,0,0,0,0-.17c-8.73-.07-17.27.94-26,.56-.09,0-.12.15,0,.17a246.36,246.36,0,0,0,27.88,2.41c.11,0,.11-.17,0-.17Z"/><path class="cls-8" d="M103.11,83.15c-6.42,2.65-16.23,1.46-22.83,0-.11,0-.15.14,0,.16a59.53,59.53,0,0,0,12.32,1.18c3.35,0,7.42.17,10.61-1.15.1,0,.06-.21,0-.16Z"/><path class="cls-8" d="M47,83.15c-7.13,1.34-14.88,1.94-22,0a.09.09,0,0,0,0,.16c7.12,2,14.86,1.37,22,0,.11,0,.06-.18,0-.16Z"/><path class="cls-8" d="M17.23,84.16c8.11.08,16.18,1.1,24.29.76.11,0,.11-.18,0-.17-8.11.34-16.19-.67-24.29-.76a.09.09,0,0,0,0,.17Z"/></g></g><path class="cls-20" d="M15.25,63.39V87.64a.15.15,0,0,0,.15.15h98.08a.15.15,0,0,0,.15-.15V63.39a.15.15,0,0,0-.3,0V78.92c0,2.31.55,5.28,0,7.52-.39,1.59.48.6-.49,1.06-2,.93-6.76,0-8.88,0H87.47c-23.35,0-46.73-.28-70.08,0-.28,0-1.89.06-1.9,0-.47-.49.07-5.5.07-6.34V63.39a.15.15,0,0,0-.3,0Z"/></g></g></svg>