<svg xmlns="http://www.w3.org/2000/svg" xmlns:xlink="http://www.w3.org/1999/xlink" viewbox="0 0 128 128" width="128" height="128"><defs><style>.cls-1{isolation:isolate;stroke:none;}.cls-11,.cls-2,.cls-5,.cls-8{fill:#fff;stroke:none;}.cls-2,.cls-8{mix-blend-mode:overlay;stroke:none;}.cls-3{fill:url(#linear-gradient);stroke:none;}.cls-4{fill:url(#未命名的渐变_228);stroke:none;}.cls-5{opacity:0.45;stroke:none;}.cls-6{fill:#bdc6cc;opacity:0.53;stroke:none;}.cls-7{fill:#008bcd;stroke:none;}.cls-8{opacity:0.29;stroke:none;}.cls-9{fill:url(#linear-gradient-2);stroke:none;}.cls-10{fill:url(#未命名的渐变_83);stroke:none;}.cls-12{fill:url(#linear-gradient-3);stroke:none;}.cls-13{fill:url(#linear-gradient-4);stroke:none;}.cls-14{fill:url(#未命名的渐变_260);stroke:none;}.cls-15{fill:#2a63af;opacity:0.69;stroke:none;}.cls-16{fill:#57cbf5;opacity:0.79;stroke:none;}.cls-17{fill:url(#未命名的渐变_86);stroke:none;}</style><linearGradient id="linear-gradient" x1="5.96" y1="-83.06" x2="20.47" y2="-83.06" gradienttransform="translate(-1.6 119.63) rotate(40)" gradientunits="userSpaceOnUse"><stop offset="0.01" stop-color="#d2d2d2"/><stop offset="0.07" stop-color="#dedede"/><stop offset="0.17" stop-color="#ebecec"/><stop offset="0.3" stop-color="#f3f4f4"/><stop offset="0.54" stop-color="#f5f6f6"/><stop offset="0.71" stop-color="#f3f3f3"/><stop offset="0.82" stop-color="#ebebeb"/><stop offset="0.91" stop-color="#dddddc"/><stop offset="0.99" stop-color="#cac9c8"/><stop offset="1" stop-color="#c8c7c6"/></linearGradient><linearGradient id="&#x672A;&#x547D;&#x540D;&#x7684;&#x6E10;&#x53D8;_228" x1="1.77" y1="-62.92" x2="26.57" y2="-62.92" gradienttransform="translate(-1.6 119.63) rotate(40)" gradientunits="userSpaceOnUse"><stop offset="0.01" stop-color="#2bace2"/><stop offset="0.07" stop-color="#2faee3"/><stop offset="0.14" stop-color="#3bb4e7"/><stop offset="0.21" stop-color="#50bfec"/><stop offset="0.28" stop-color="#6ccef5"/><stop offset="0.29" stop-color="#71d0f6"/><stop offset="0.42" stop-color="#6dccf3"/><stop offset="0.56" stop-color="#63c0eb"/><stop offset="0.69" stop-color="#51abde"/><stop offset="0.83" stop-color="#388fcc"/><stop offset="0.97" stop-color="#186ab4"/><stop offset="1" stop-color="#1061ae"/></linearGradient><linearGradient id="linear-gradient-2" x1="16.27" y1="-140.43" x2="7.72" y2="-140.43" gradienttransform="translate(-1.6 119.63) rotate(40)" gradientunits="userSpaceOnUse"><stop offset="0.01" stop-color="#d2d2d2"/><stop offset="0.34" stop-color="#d6d6d6"/><stop offset="0.67" stop-color="#e2e2e2"/><stop offset="1" stop-color="#f5f6f6"/></linearGradient><linearGradient id="&#x672A;&#x547D;&#x540D;&#x7684;&#x6E10;&#x53D8;_83" x1="10.5" y1="-140.33" x2="13.95" y2="-141.95" gradienttransform="translate(-42.09 6.48) rotate(90)" gradientunits="userSpaceOnUse"><stop offset="0.01" stop-color="#d2d2d2"/><stop offset="0.58" stop-color="#d5d6d6"/><stop offset="1" stop-color="#dcddde"/></linearGradient><linearGradient id="linear-gradient-3" x1="6.3" y1="-141.6" x2="19.92" y2="-141.6" gradienttransform="translate(-42.1 6.46) rotate(90)" gradientunits="userSpaceOnUse"><stop offset="0.01" stop-color="#767676"/><stop offset="0.01" stop-color="#777"/><stop offset="0.12" stop-color="#9d9d9d"/><stop offset="0.23" stop-color="#bcbcbc"/><stop offset="0.35" stop-color="#d4d4d4"/><stop offset="0.48" stop-color="#e5e5e5"/><stop offset="0.61" stop-color="#f0f0f0"/><stop offset="0.78" stop-color="#f3f3f3"/><stop offset="0.83" stop-color="#efefef"/><stop offset="0.87" stop-color="#e4e4e4"/><stop offset="0.92" stop-color="#d1d1d1"/><stop offset="0.97" stop-color="#b6b6b6"/><stop offset="1" stop-color="#9e9e9e"/></linearGradient><linearGradient id="linear-gradient-4" x1="19.99" y1="-142.44" x2="6.45" y2="-142.44" gradienttransform="translate(-1.6 119.63) rotate(40)" gradientunits="userSpaceOnUse"><stop offset="0.01" stop-color="#989898"/><stop offset="0.1" stop-color="#b1b1b1"/><stop offset="0.24" stop-color="#cdcdcd"/><stop offset="0.39" stop-color="#e3e3e3"/><stop offset="0.55" stop-color="#f3f3f3"/><stop offset="0.74" stop-color="#fcfcfc"/><stop offset="1" stop-color="#fff"/></linearGradient><linearGradient id="&#x672A;&#x547D;&#x540D;&#x7684;&#x6E10;&#x53D8;_260" x1="13.19" y1="-98.97" x2="13.19" y2="-100.98" gradienttransform="translate(-27.09 38.59) rotate(90)" gradientunits="userSpaceOnUse"><stop offset="0" stop-color="#2bace2"/><stop offset="1" stop-color="#0e79bf"/></linearGradient><linearGradient id="&#x672A;&#x547D;&#x540D;&#x7684;&#x6E10;&#x53D8;_86" x1="9.75" y1="-98.89" x2="16.28" y2="-98.89" gradienttransform="translate(-1.6 119.63) rotate(40)" gradientunits="userSpaceOnUse"><stop offset="0.01" stop-color="#fff"/><stop offset="0.24" stop-color="#fbfdff"/><stop offset="0.47" stop-color="#eff9fe"/><stop offset="0.71" stop-color="#daf1fc"/><stop offset="0.94" stop-color="#bee7fb"/><stop offset="1" stop-color="#b6e4fa"/></linearGradient></defs><title>&#x751F;&#x7269;&#x4EEA;&#x5668;</title><g class="cls-1"><g id="Bio_instruments&#x751F;&#x7269;&#x4EEA;&#x5668;" data-name="Bio instruments&#x751F;&#x7269;&#x4EEA;&#x5668;"><path class="cls-2" d="M93.54,19.1,26.36,99.17c-3,3.55-.26,6.41-.13,6.46-.87-1.37-.53-3.6,1.15-5.61L94.26,20.3Z"/><path class="cls-3" d="M93.63,15.41,23.51,99a7,7,0,0,0,1.14,9.92,7,7,0,0,0,10-.6l70.13-83.57Z"/><path class="cls-4" d="M67.6,47.6,24.26,99.25c-2.29,2.73-1.67,6.52,1.08,8.83s6.59,2.27,8.89-.47L77.57,56Z"/><path class="cls-5" d="M94.1,18.29,25.53,100c-3,3.63-.26,6.54-.13,6.6-.89-1.4-.54-3.68,1.17-5.72L94.85,19.51Z"/><path class="cls-6" d="M102.6,25.42,34.37,106.72c-3,3.63-7.52,1.16-7.61,1,1.84.89,4.61-.08,6.31-2.11l67.93-81Z"/><path class="cls-7" d="M34.37,106.72,77.21,55.67l-1.3-1.09L33.07,105.63c-1.71,2-4.48,3-6.31,2.11C26.86,107.88,31.32,110.35,34.37,106.72Z"/><path class="cls-8" d="M101.21,24.26,33,105.56c-3,3.63-5.77,2.62-5.82,2.53,1.15.31,3.4-1.09,5.11-3.13l67.93-81Z"/><path class="cls-9" d="M104.52,24a14.72,14.72,0,0,0-4.33-5.25,14.72,14.72,0,0,0-5.92-3.35l-.84-.71-.42,1c-.8,1,1.12,3.88,4.29,6.54s6.45,4.07,7.34,3.22l.72-.71Z"/><ellipse class="cls-10" cx="99.48" cy="19.63" rx="2.52" ry="7.79" transform="translate(20.5 83.22) rotate(-50)"/><path class="cls-11" d="M97.86,21.57c-3.23-2.71-5.15-5.74-4.39-6.87l-.07.06c-.9,1.07,1,4.18,4.34,6.94s6.69,4.14,7.59,3.07l0-.07C104.41,25.64,101.09,24.28,97.86,21.57Z"/><ellipse class="cls-12" cx="99.5" cy="19.62" rx="1.8" ry="6.86" transform="translate(20.51 83.23) rotate(-50)"/><path class="cls-13" d="M100.52,18.4c2.8,2.35,4.6,4.84,4.15,5.69l.08-.07c.64-.76-1.2-3.35-4.1-5.78s-5.77-3.79-6.41-3a.5.5,0,0,0-.05.09C95,14.71,97.72,16,100.52,18.4Z"/><polygon class="cls-11" points="93.85 18.59 94.24 17.95 95.12 19.1 94.7 19.68 93.85 18.59"/><ellipse class="cls-14" cx="72.55" cy="51.78" rx="1.41" ry="6.51" transform="translate(-13.75 74.08) rotate(-50)"/><path class="cls-15" d="M76.88,56.06l.65-.77a6.07,6.07,0,0,0-1-1.5l-1.33,1.59A6.08,6.08,0,0,0,76.88,56.06Z"/><path class="cls-16" d="M75.14,55.33l1.36-1.62c-.19-.23-.39-.46-.62-.71l-1.55,1.84C74.62,55,74.88,55.18,75.14,55.33Z"/><path class="cls-16" d="M69,50.32l1.49-1.78a12.26,12.26,0,0,0-1.22-.66l-1.14,1.36A12.25,12.25,0,0,0,69,50.32Z"/><path class="cls-17" d="M71.64,52.88c-2.69-2.26-4.46-4.6-4-5.32l-.05,0c-.55.65,1.25,3.06,4,5.37s5.44,3.67,6,3l0-.06C76.94,56.47,74.33,55.14,71.64,52.88Z"/></g></g></svg>