<svg id="Bio_instruments&#x751F;&#x7269;&#x4EEA;&#x5668;" data-name="Bio instruments&#x751F;&#x7269;&#x4EEA;&#x5668;" xmlns="http://www.w3.org/2000/svg" xmlns:xlink="http://www.w3.org/1999/xlink" viewbox="0 0 128 128" width="128" height="128"><defs><style>.cls-1{fill:#1072ba;stroke:none;}.cls-2{fill:url(#未命名的渐变_101);stroke:none;}.cls-3,.cls-8,.cls-9{fill:#fff;stroke:none;}.cls-4{fill:url(#未命名的渐变_653);stroke:none;}.cls-5{fill:url(#未命名的渐变_101-2);stroke:none;}.cls-6{fill:url(#未命名的渐变_664);stroke:none;}.cls-7{fill:#4a8cca;opacity:0.25;stroke:none;}.cls-8{opacity:0.24;stroke:none;}.cls-9{opacity:0.38;stroke:none;}.cls-10{fill:url(#未命名的渐变_101-3);stroke:none;}.cls-11{fill:url(#未命名的渐变_653-2);stroke:none;}.cls-12{fill:url(#未命名的渐变_101-4);stroke:none;}.cls-13{fill:url(#未命名的渐变_664-2);stroke:none;}.cls-14{fill:url(#未命名的渐变_101-5);stroke:none;}.cls-15{fill:url(#未命名的渐变_653-3);stroke:none;}.cls-16{fill:url(#未命名的渐变_101-6);stroke:none;}.cls-17{fill:url(#未命名的渐变_664-3);stroke:none;}.cls-18{fill:url(#未命名的渐变_101-7);stroke:none;}.cls-19{fill:url(#未命名的渐变_653-4);stroke:none;}.cls-20{fill:url(#未命名的渐变_101-8);stroke:none;}.cls-21{fill:url(#未命名的渐变_664-4);stroke:none;}.cls-22{fill:url(#未命名的渐变_101-9);stroke:none;}.cls-23{fill:url(#未命名的渐变_653-5);stroke:none;}.cls-24{fill:url(#未命名的渐变_101-10);stroke:none;}.cls-25{fill:url(#未命名的渐变_664-5);stroke:none;}.cls-26{fill:url(#未命名的渐变_101-11);stroke:none;}.cls-27{fill:url(#未命名的渐变_653-6);stroke:none;}.cls-28{fill:url(#未命名的渐变_101-12);stroke:none;}.cls-29{fill:url(#未命名的渐变_664-6);stroke:none;}.cls-30{fill:url(#未命名的渐变_101-13);stroke:none;}.cls-31{fill:url(#未命名的渐变_653-7);stroke:none;}.cls-32{fill:url(#未命名的渐变_101-14);stroke:none;}.cls-33{fill:url(#未命名的渐变_664-7);stroke:none;}.cls-34{fill:url(#未命名的渐变_101-15);stroke:none;}.cls-35{fill:url(#未命名的渐变_653-8);stroke:none;}.cls-36{fill:url(#未命名的渐变_101-16);stroke:none;}.cls-37{fill:url(#未命名的渐变_664-8);stroke:none;}.cls-38{fill:url(#未命名的渐变_101-17);stroke:none;}.cls-39{fill:url(#未命名的渐变_653-9);stroke:none;}.cls-40{fill:url(#未命名的渐变_101-18);stroke:none;}.cls-41{fill:url(#未命名的渐变_664-9);stroke:none;}.cls-42{fill:url(#未命名的渐变_101-19);stroke:none;}.cls-43{fill:url(#未命名的渐变_653-10);stroke:none;}.cls-44{fill:url(#未命名的渐变_101-20);stroke:none;}.cls-45{fill:url(#未命名的渐变_664-10);stroke:none;}.cls-46{fill:url(#未命名的渐变_101-21);stroke:none;}.cls-47{fill:url(#未命名的渐变_653-11);stroke:none;}.cls-48{fill:url(#未命名的渐变_101-22);stroke:none;}.cls-49{fill:url(#未命名的渐变_664-11);stroke:none;}.cls-50{fill:url(#未命名的渐变_101-23);stroke:none;}.cls-51{fill:url(#未命名的渐变_653-12);stroke:none;}.cls-52{fill:url(#未命名的渐变_101-24);stroke:none;}.cls-53{fill:url(#未命名的渐变_664-12);stroke:none;}.cls-54{fill:url(#未命名的渐变_101-25);stroke:none;}.cls-55{fill:url(#未命名的渐变_653-13);stroke:none;}.cls-56{fill:url(#未命名的渐变_101-26);stroke:none;}.cls-57{fill:url(#未命名的渐变_664-13);stroke:none;}.cls-58{fill:url(#未命名的渐变_101-27);stroke:none;}.cls-59{fill:url(#未命名的渐变_653-14);stroke:none;}.cls-60{fill:url(#未命名的渐变_101-28);stroke:none;}.cls-61{fill:url(#未命名的渐变_664-14);stroke:none;}.cls-62{fill:url(#未命名的渐变_101-29);stroke:none;}.cls-63{fill:url(#未命名的渐变_653-15);stroke:none;}.cls-64{fill:url(#未命名的渐变_101-30);stroke:none;}.cls-65{fill:url(#未命名的渐变_664-15);stroke:none;}.cls-66{fill:url(#未命名的渐变_101-31);stroke:none;}.cls-67{fill:url(#未命名的渐变_653-16);stroke:none;}.cls-68{fill:url(#未命名的渐变_101-32);stroke:none;}.cls-69{fill:url(#未命名的渐变_664-16);stroke:none;}.cls-70{fill:url(#未命名的渐变_101-33);stroke:none;}.cls-71{fill:url(#未命名的渐变_653-17);stroke:none;}.cls-72{fill:url(#未命名的渐变_101-34);stroke:none;}.cls-73{fill:url(#未命名的渐变_664-17);stroke:none;}.cls-74{fill:url(#未命名的渐变_101-35);stroke:none;}.cls-75{fill:url(#未命名的渐变_653-18);stroke:none;}.cls-76{fill:url(#未命名的渐变_101-36);stroke:none;}.cls-77{fill:url(#未命名的渐变_664-18);stroke:none;}.cls-78{fill:url(#未命名的渐变_101-37);stroke:none;}.cls-79{fill:url(#未命名的渐变_653-19);stroke:none;}.cls-80{fill:url(#未命名的渐变_101-38);stroke:none;}.cls-81{fill:url(#未命名的渐变_664-19);stroke:none;}.cls-82{fill:url(#未命名的渐变_101-39);stroke:none;}.cls-83{fill:url(#未命名的渐变_653-20);stroke:none;}.cls-84{fill:url(#未命名的渐变_101-40);stroke:none;}.cls-85{fill:url(#未命名的渐变_664-20);stroke:none;}.cls-86{fill:url(#未命名的渐变_101-41);stroke:none;}.cls-87{fill:url(#未命名的渐变_653-21);stroke:none;}.cls-88{fill:url(#未命名的渐变_101-42);stroke:none;}.cls-89{fill:url(#未命名的渐变_664-21);stroke:none;}.cls-90{fill:url(#未命名的渐变_101-43);stroke:none;}.cls-91{fill:url(#未命名的渐变_653-22);stroke:none;}.cls-92{fill:url(#未命名的渐变_101-44);stroke:none;}.cls-93{fill:url(#未命名的渐变_664-22);stroke:none;}.cls-94{fill:url(#未命名的渐变_101-45);stroke:none;}.cls-95{fill:url(#未命名的渐变_653-23);stroke:none;}.cls-96{fill:url(#未命名的渐变_101-46);stroke:none;}.cls-97{fill:url(#未命名的渐变_664-23);stroke:none;}.cls-98{fill:url(#未命名的渐变_101-47);stroke:none;}.cls-99{fill:url(#未命名的渐变_653-24);stroke:none;}.cls-100{fill:url(#未命名的渐变_101-48);stroke:none;}.cls-101{fill:url(#未命名的渐变_664-24);stroke:none;}.cls-102{fill:url(#未命名的渐变_101-49);stroke:none;}.cls-103{fill:url(#未命名的渐变_653-25);stroke:none;}.cls-104{fill:url(#未命名的渐变_101-50);stroke:none;}.cls-105{fill:url(#未命名的渐变_664-25);stroke:none;}.cls-106{fill:url(#未命名的渐变_101-51);stroke:none;}.cls-107{fill:url(#未命名的渐变_653-26);stroke:none;}.cls-108{fill:url(#未命名的渐变_101-52);stroke:none;}.cls-109{fill:url(#未命名的渐变_664-26);stroke:none;}.cls-110{fill:url(#未命名的渐变_101-53);stroke:none;}.cls-111{fill:url(#未命名的渐变_653-27);stroke:none;}.cls-112{fill:url(#未命名的渐变_101-54);stroke:none;}.cls-113{fill:url(#未命名的渐变_664-27);stroke:none;}.cls-114{fill:url(#未命名的渐变_101-55);stroke:none;}.cls-115{fill:url(#未命名的渐变_653-28);stroke:none;}.cls-116{fill:url(#未命名的渐变_101-56);stroke:none;}.cls-117{fill:url(#未命名的渐变_664-28);stroke:none;}.cls-118{fill:url(#未命名的渐变_101-57);stroke:none;}.cls-119{fill:url(#未命名的渐变_653-29);stroke:none;}.cls-120{fill:url(#未命名的渐变_101-58);stroke:none;}.cls-121{fill:url(#未命名的渐变_664-29);stroke:none;}.cls-122{fill:url(#未命名的渐变_101-59);stroke:none;}.cls-123{fill:url(#未命名的渐变_653-30);stroke:none;}.cls-124{fill:url(#未命名的渐变_101-60);stroke:none;}.cls-125{fill:url(#未命名的渐变_664-30);stroke:none;}.cls-126{fill:url(#未命名的渐变_101-61);stroke:none;}.cls-127{fill:url(#未命名的渐变_653-31);stroke:none;}.cls-128{fill:url(#未命名的渐变_101-62);stroke:none;}.cls-129{fill:url(#未命名的渐变_664-31);stroke:none;}.cls-130{fill:url(#未命名的渐变_101-63);stroke:none;}.cls-131{fill:url(#未命名的渐变_653-32);stroke:none;}.cls-132{fill:url(#未命名的渐变_101-64);stroke:none;}.cls-133{fill:url(#未命名的渐变_664-32);stroke:none;}.cls-134{fill:url(#未命名的渐变_51);stroke:none;}.cls-135{fill:url(#未命名的渐变_25);stroke:none;}.cls-136{fill:url(#未命名的渐变_48);stroke:none;}</style><linearGradient id="&#x672A;&#x547D;&#x540D;&#x7684;&#x6E10;&#x53D8;_101" x1="87.12" y1="47.55" x2="98.35" y2="47.55" gradienttransform="matrix(1, -0.07, 0, 1, 0, 4.55)" gradientunits="userSpaceOnUse"><stop offset="0" stop-color="#8dd7f2"/><stop offset="0.09" stop-color="#cfecf8"/><stop offset="0.38" stop-color="#cdecf8"/><stop offset="0.49" stop-color="#c6eaf8"/><stop offset="0.57" stop-color="#bae8f7"/><stop offset="0.63" stop-color="#a9e4f6"/><stop offset="0.69" stop-color="#93e0f5"/><stop offset="0.74" stop-color="#77daf4"/><stop offset="0.78" stop-color="#57d3f3"/><stop offset="0.82" stop-color="#32cbf1"/><stop offset="0.86" stop-color="#09c3ef"/><stop offset="0.86" stop-color="#05c2ef"/><stop offset="0.87" stop-color="#24c9f1"/><stop offset="0.88" stop-color="#65daf5"/><stop offset="0.89" stop-color="#9ce7f9"/><stop offset="0.9" stop-color="#c7f1fb"/><stop offset="0.91" stop-color="#e6f9fd"/><stop offset="0.92" stop-color="#f8fdff"/><stop offset="0.92" stop-color="#fff"/><stop offset="1" stop-color="#87d5f7"/></linearGradient><linearGradient id="&#x672A;&#x547D;&#x540D;&#x7684;&#x6E10;&#x53D8;_653" x1="92.74" y1="56.24" x2="92.74" y2="34.41" gradienttransform="matrix(1, -0.07, 0, 1, 0, 4.55)" gradientunits="userSpaceOnUse"><stop offset="0.01" stop-color="#daf1fd"/><stop offset="0.82" stop-color="#8fd8f8"/></linearGradient><linearGradient id="&#x672A;&#x547D;&#x540D;&#x7684;&#x6E10;&#x53D8;_101-2" x1="87.12" y1="36.28" x2="98.31" y2="36.28" xlink:href="#&#x672A;&#x547D;&#x540D;&#x7684;&#x6E10;&#x53D8;_101"><linearGradient id="&#x672A;&#x547D;&#x540D;&#x7684;&#x6E10;&#x53D8;_664" x1="97.97" y1="36.64" x2="87.46" y2="35.91" gradienttransform="matrix(1, -0.07, 0, 1, 0, 4.55)" gradientunits="userSpaceOnUse"><stop offset="0" stop-color="#e5f5fd"/><stop offset="0.74" stop-color="#79d2f7"/><stop offset="1" stop-color="#29afe5"/></linearGradient><linearGradient id="&#x672A;&#x547D;&#x540D;&#x7684;&#x6E10;&#x53D8;_101-3" x1="76.49" y1="49.95" x2="87.85" y2="49.95" xlink:href="#&#x672A;&#x547D;&#x540D;&#x7684;&#x6E10;&#x53D8;_101"><linearGradient id="&#x672A;&#x547D;&#x540D;&#x7684;&#x6E10;&#x53D8;_653-2" x1="82.18" y1="58.69" x2="82.18" y2="36.73" xlink:href="#&#x672A;&#x547D;&#x540D;&#x7684;&#x6E10;&#x53D8;_653"><linearGradient id="&#x672A;&#x547D;&#x540D;&#x7684;&#x6E10;&#x53D8;_101-4" x1="76.49" y1="38.6" x2="87.82" y2="38.6" xlink:href="#&#x672A;&#x547D;&#x540D;&#x7684;&#x6E10;&#x53D8;_101"><linearGradient id="&#x672A;&#x547D;&#x540D;&#x7684;&#x6E10;&#x53D8;_664-2" x1="87.48" y1="38.97" x2="76.84" y2="38.23" xlink:href="#&#x672A;&#x547D;&#x540D;&#x7684;&#x6E10;&#x53D8;_664"><linearGradient id="&#x672A;&#x547D;&#x540D;&#x7684;&#x6E10;&#x53D8;_101-5" x1="65.73" y1="51.91" x2="77.23" y2="51.91" xlink:href="#&#x672A;&#x547D;&#x540D;&#x7684;&#x6E10;&#x53D8;_101"><linearGradient id="&#x672A;&#x547D;&#x540D;&#x7684;&#x6E10;&#x53D8;_653-3" x1="71.48" y1="60.71" x2="71.48" y2="38.62" xlink:href="#&#x672A;&#x547D;&#x540D;&#x7684;&#x6E10;&#x53D8;_653"><linearGradient id="&#x672A;&#x547D;&#x540D;&#x7684;&#x6E10;&#x53D8;_101-6" x1="65.73" y1="40.49" x2="77.2" y2="40.49" xlink:href="#&#x672A;&#x547D;&#x540D;&#x7684;&#x6E10;&#x53D8;_101"><linearGradient id="&#x672A;&#x547D;&#x540D;&#x7684;&#x6E10;&#x53D8;_664-3" x1="76.85" y1="40.87" x2="66.08" y2="40.12" xlink:href="#&#x672A;&#x547D;&#x540D;&#x7684;&#x6E10;&#x53D8;_664"><linearGradient id="&#x672A;&#x547D;&#x540D;&#x7684;&#x6E10;&#x53D8;_101-7" x1="54.82" y1="54.6" x2="66.47" y2="54.6" xlink:href="#&#x672A;&#x547D;&#x540D;&#x7684;&#x6E10;&#x53D8;_101"><linearGradient id="&#x672A;&#x547D;&#x540D;&#x7684;&#x6E10;&#x53D8;_653-4" x1="60.65" y1="63.45" x2="60.65" y2="41.23" xlink:href="#&#x672A;&#x547D;&#x540D;&#x7684;&#x6E10;&#x53D8;_653"><linearGradient id="&#x672A;&#x547D;&#x540D;&#x7684;&#x6E10;&#x53D8;_101-8" x1="54.82" y1="43.1" x2="66.44" y2="43.1" xlink:href="#&#x672A;&#x547D;&#x540D;&#x7684;&#x6E10;&#x53D8;_101"><linearGradient id="&#x672A;&#x547D;&#x540D;&#x7684;&#x6E10;&#x53D8;_664-4" x1="66.09" y1="43.49" x2="55.18" y2="42.72" xlink:href="#&#x672A;&#x547D;&#x540D;&#x7684;&#x6E10;&#x53D8;_664"><linearGradient id="&#x672A;&#x547D;&#x540D;&#x7684;&#x6E10;&#x53D8;_101-9" x1="43.78" y1="56.12" x2="55.56" y2="56.12" xlink:href="#&#x672A;&#x547D;&#x540D;&#x7684;&#x6E10;&#x53D8;_101"><linearGradient id="&#x672A;&#x547D;&#x540D;&#x7684;&#x6E10;&#x53D8;_653-5" x1="49.68" y1="65.02" x2="49.68" y2="42.66" xlink:href="#&#x672A;&#x547D;&#x540D;&#x7684;&#x6E10;&#x53D8;_653"><linearGradient id="&#x672A;&#x547D;&#x540D;&#x7684;&#x6E10;&#x53D8;_101-10" x1="43.78" y1="44.54" x2="55.54" y2="44.54" xlink:href="#&#x672A;&#x547D;&#x540D;&#x7684;&#x6E10;&#x53D8;_101"><linearGradient id="&#x672A;&#x547D;&#x540D;&#x7684;&#x6E10;&#x53D8;_664-5" x1="55.19" y1="44.93" x2="44.14" y2="44.16" xlink:href="#&#x672A;&#x547D;&#x540D;&#x7684;&#x6E10;&#x53D8;_664"><linearGradient id="&#x672A;&#x547D;&#x540D;&#x7684;&#x6E10;&#x53D8;_101-11" x1="32.59" y1="58.64" x2="44.52" y2="58.64" xlink:href="#&#x672A;&#x547D;&#x540D;&#x7684;&#x6E10;&#x53D8;_101"><linearGradient id="&#x672A;&#x547D;&#x540D;&#x7684;&#x6E10;&#x53D8;_653-6" x1="38.56" y1="67.59" x2="38.56" y2="45.09" xlink:href="#&#x672A;&#x547D;&#x540D;&#x7684;&#x6E10;&#x53D8;_653"><linearGradient id="&#x672A;&#x547D;&#x540D;&#x7684;&#x6E10;&#x53D8;_101-12" x1="32.59" y1="46.98" x2="44.51" y2="46.98" xlink:href="#&#x672A;&#x547D;&#x540D;&#x7684;&#x6E10;&#x53D8;_101"><linearGradient id="&#x672A;&#x547D;&#x540D;&#x7684;&#x6E10;&#x53D8;_664-6" x1="44.15" y1="47.37" x2="32.96" y2="46.59" xlink:href="#&#x672A;&#x547D;&#x540D;&#x7684;&#x6E10;&#x53D8;_664"><linearGradient id="&#x672A;&#x547D;&#x540D;&#x7684;&#x6E10;&#x53D8;_101-13" x1="21.26" y1="60.87" x2="33.34" y2="60.87" xlink:href="#&#x672A;&#x547D;&#x540D;&#x7684;&#x6E10;&#x53D8;_101"><linearGradient id="&#x672A;&#x547D;&#x540D;&#x7684;&#x6E10;&#x53D8;_653-7" x1="27.3" y1="69.88" x2="27.3" y2="47.24" xlink:href="#&#x672A;&#x547D;&#x540D;&#x7684;&#x6E10;&#x53D8;_653"><linearGradient id="&#x672A;&#x547D;&#x540D;&#x7684;&#x6E10;&#x53D8;_101-14" x1="21.26" y1="49.13" x2="33.33" y2="49.13" xlink:href="#&#x672A;&#x547D;&#x540D;&#x7684;&#x6E10;&#x53D8;_101"><linearGradient id="&#x672A;&#x547D;&#x540D;&#x7684;&#x6E10;&#x53D8;_664-7" x1="32.96" y1="49.53" x2="21.63" y2="48.74" xlink:href="#&#x672A;&#x547D;&#x540D;&#x7684;&#x6E10;&#x53D8;_664"><linearGradient id="&#x672A;&#x547D;&#x540D;&#x7684;&#x6E10;&#x53D8;_101-15" x1="9.77" y1="63.45" x2="22.01" y2="63.45" xlink:href="#&#x672A;&#x547D;&#x540D;&#x7684;&#x6E10;&#x53D8;_101"><linearGradient id="&#x672A;&#x547D;&#x540D;&#x7684;&#x6E10;&#x53D8;_653-8" x1="15.9" y1="72.52" x2="15.9" y2="49.74" xlink:href="#&#x672A;&#x547D;&#x540D;&#x7684;&#x6E10;&#x53D8;_653"><linearGradient id="&#x672A;&#x547D;&#x540D;&#x7684;&#x6E10;&#x53D8;_101-16" x1="9.77" y1="51.63" x2="22" y2="51.63" xlink:href="#&#x672A;&#x547D;&#x540D;&#x7684;&#x6E10;&#x53D8;_101"><linearGradient id="&#x672A;&#x547D;&#x540D;&#x7684;&#x6E10;&#x53D8;_664-8" x1="21.63" y1="52.04" x2="10.15" y2="51.23" xlink:href="#&#x672A;&#x547D;&#x540D;&#x7684;&#x6E10;&#x53D8;_664"><linearGradient id="&#x672A;&#x547D;&#x540D;&#x7684;&#x6E10;&#x53D8;_101-17" x1="93.88" y1="52.42" x2="105.02" y2="52.42" xlink:href="#&#x672A;&#x547D;&#x540D;&#x7684;&#x6E10;&#x53D8;_101"><linearGradient id="&#x672A;&#x547D;&#x540D;&#x7684;&#x6E10;&#x53D8;_653-9" x1="99.45" y1="61.07" x2="99.45" y2="39.35" xlink:href="#&#x672A;&#x547D;&#x540D;&#x7684;&#x6E10;&#x53D8;_653"><linearGradient id="&#x672A;&#x547D;&#x540D;&#x7684;&#x6E10;&#x53D8;_101-18" x1="93.88" y1="41.19" x2="104.97" y2="41.19" xlink:href="#&#x672A;&#x547D;&#x540D;&#x7684;&#x6E10;&#x53D8;_101"><linearGradient id="&#x672A;&#x547D;&#x540D;&#x7684;&#x6E10;&#x53D8;_664-9" x1="104.64" y1="41.55" x2="94.22" y2="40.82" xlink:href="#&#x672A;&#x547D;&#x540D;&#x7684;&#x6E10;&#x53D8;_664"><linearGradient id="&#x672A;&#x547D;&#x540D;&#x7684;&#x6E10;&#x53D8;_101-19" x1="83.33" y1="54.84" x2="94.61" y2="54.84" xlink:href="#&#x672A;&#x547D;&#x540D;&#x7684;&#x6E10;&#x53D8;_101"><linearGradient id="&#x672A;&#x547D;&#x540D;&#x7684;&#x6E10;&#x53D8;_653-10" x1="88.97" y1="63.54" x2="88.97" y2="41.69" xlink:href="#&#x672A;&#x547D;&#x540D;&#x7684;&#x6E10;&#x53D8;_653"><linearGradient id="&#x672A;&#x547D;&#x540D;&#x7684;&#x6E10;&#x53D8;_101-20" x1="83.33" y1="43.53" x2="94.57" y2="43.53" xlink:href="#&#x672A;&#x547D;&#x540D;&#x7684;&#x6E10;&#x53D8;_101"><linearGradient id="&#x672A;&#x547D;&#x540D;&#x7684;&#x6E10;&#x53D8;_664-10" x1="94.23" y1="43.9" x2="83.68" y2="43.16" xlink:href="#&#x672A;&#x547D;&#x540D;&#x7684;&#x6E10;&#x53D8;_664"><linearGradient id="&#x672A;&#x547D;&#x540D;&#x7684;&#x6E10;&#x53D8;_101-21" x1="72.65" y1="56.83" x2="84.06" y2="56.83" xlink:href="#&#x672A;&#x547D;&#x540D;&#x7684;&#x6E10;&#x53D8;_101"><linearGradient id="&#x672A;&#x547D;&#x540D;&#x7684;&#x6E10;&#x53D8;_653-11" x1="78.36" y1="65.59" x2="78.36" y2="43.6" xlink:href="#&#x672A;&#x547D;&#x540D;&#x7684;&#x6E10;&#x53D8;_653"><linearGradient id="&#x672A;&#x547D;&#x540D;&#x7684;&#x6E10;&#x53D8;_101-22" x1="72.65" y1="45.45" x2="84.03" y2="45.45" xlink:href="#&#x672A;&#x547D;&#x540D;&#x7684;&#x6E10;&#x53D8;_101"><linearGradient id="&#x672A;&#x547D;&#x540D;&#x7684;&#x6E10;&#x53D8;_664-11" x1="83.69" y1="45.82" x2="73" y2="45.07" xlink:href="#&#x672A;&#x547D;&#x540D;&#x7684;&#x6E10;&#x53D8;_664"><linearGradient id="&#x672A;&#x547D;&#x540D;&#x7684;&#x6E10;&#x53D8;_101-23" x1="61.84" y1="59.54" x2="73.39" y2="59.54" xlink:href="#&#x672A;&#x547D;&#x540D;&#x7684;&#x6E10;&#x53D8;_101"><linearGradient id="&#x672A;&#x547D;&#x540D;&#x7684;&#x6E10;&#x53D8;_653-12" x1="67.62" y1="68.35" x2="67.62" y2="46.23" xlink:href="#&#x672A;&#x547D;&#x540D;&#x7684;&#x6E10;&#x53D8;_653"><linearGradient id="&#x672A;&#x547D;&#x540D;&#x7684;&#x6E10;&#x53D8;_101-24" x1="61.84" y1="48.08" x2="73.36" y2="48.08" xlink:href="#&#x672A;&#x547D;&#x540D;&#x7684;&#x6E10;&#x53D8;_101"><linearGradient id="&#x672A;&#x547D;&#x540D;&#x7684;&#x6E10;&#x53D8;_664-12" x1="73.01" y1="48.46" x2="62.19" y2="47.7" xlink:href="#&#x672A;&#x547D;&#x540D;&#x7684;&#x6E10;&#x53D8;_664"><linearGradient id="&#x672A;&#x547D;&#x540D;&#x7684;&#x6E10;&#x53D8;_101-25" x1="50.88" y1="61.09" x2="62.57" y2="61.09" xlink:href="#&#x672A;&#x547D;&#x540D;&#x7684;&#x6E10;&#x53D8;_101"><linearGradient id="&#x672A;&#x547D;&#x540D;&#x7684;&#x6E10;&#x53D8;_653-13" x1="56.73" y1="69.95" x2="56.73" y2="47.69" xlink:href="#&#x672A;&#x547D;&#x540D;&#x7684;&#x6E10;&#x53D8;_653"><linearGradient id="&#x672A;&#x547D;&#x540D;&#x7684;&#x6E10;&#x53D8;_101-26" x1="50.88" y1="49.55" x2="62.55" y2="49.55" xlink:href="#&#x672A;&#x547D;&#x540D;&#x7684;&#x6E10;&#x53D8;_101"><linearGradient id="&#x672A;&#x547D;&#x540D;&#x7684;&#x6E10;&#x53D8;_664-13" x1="62.2" y1="49.93" x2="51.24" y2="49.16" xlink:href="#&#x672A;&#x547D;&#x540D;&#x7684;&#x6E10;&#x53D8;_664"><linearGradient id="&#x672A;&#x547D;&#x540D;&#x7684;&#x6E10;&#x53D8;_101-27" x1="39.78" y1="63.63" x2="51.62" y2="63.63" xlink:href="#&#x672A;&#x547D;&#x540D;&#x7684;&#x6E10;&#x53D8;_101"><linearGradient id="&#x672A;&#x547D;&#x540D;&#x7684;&#x6E10;&#x53D8;_653-14" x1="45.71" y1="72.54" x2="45.71" y2="50.14" xlink:href="#&#x672A;&#x547D;&#x540D;&#x7684;&#x6E10;&#x53D8;_653"><linearGradient id="&#x672A;&#x547D;&#x540D;&#x7684;&#x6E10;&#x53D8;_101-28" x1="39.78" y1="52.01" x2="51.6" y2="52.01" xlink:href="#&#x672A;&#x547D;&#x540D;&#x7684;&#x6E10;&#x53D8;_101"><linearGradient id="&#x672A;&#x547D;&#x540D;&#x7684;&#x6E10;&#x53D8;_664-14" x1="51.24" y1="52.39" x2="40.15" y2="51.62" xlink:href="#&#x672A;&#x547D;&#x540D;&#x7684;&#x6E10;&#x53D8;_664"><linearGradient id="&#x672A;&#x547D;&#x540D;&#x7684;&#x6E10;&#x53D8;_101-29" x1="28.54" y1="65.88" x2="40.53" y2="65.88" xlink:href="#&#x672A;&#x547D;&#x540D;&#x7684;&#x6E10;&#x53D8;_101"><linearGradient id="&#x672A;&#x547D;&#x540D;&#x7684;&#x6E10;&#x53D8;_653-15" x1="34.54" y1="74.85" x2="34.54" y2="52.32" xlink:href="#&#x672A;&#x547D;&#x540D;&#x7684;&#x6E10;&#x53D8;_653"><linearGradient id="&#x672A;&#x547D;&#x540D;&#x7684;&#x6E10;&#x53D8;_101-30" x1="28.54" y1="54.18" x2="40.52" y2="54.18" xlink:href="#&#x672A;&#x547D;&#x540D;&#x7684;&#x6E10;&#x53D8;_101"><linearGradient id="&#x672A;&#x547D;&#x540D;&#x7684;&#x6E10;&#x53D8;_664-15" x1="40.15" y1="54.58" x2="28.91" y2="53.79" xlink:href="#&#x672A;&#x547D;&#x540D;&#x7684;&#x6E10;&#x53D8;_664"><linearGradient id="&#x672A;&#x547D;&#x540D;&#x7684;&#x6E10;&#x53D8;_101-31" x1="17.15" y1="68.49" x2="29.29" y2="68.49" xlink:href="#&#x672A;&#x547D;&#x540D;&#x7684;&#x6E10;&#x53D8;_101"><linearGradient id="&#x672A;&#x547D;&#x540D;&#x7684;&#x6E10;&#x53D8;_653-16" x1="23.23" y1="77.51" x2="23.23" y2="54.83" xlink:href="#&#x672A;&#x547D;&#x540D;&#x7684;&#x6E10;&#x53D8;_653"><linearGradient id="&#x672A;&#x547D;&#x540D;&#x7684;&#x6E10;&#x53D8;_101-32" x1="17.15" y1="56.71" x2="29.28" y2="56.71" xlink:href="#&#x672A;&#x547D;&#x540D;&#x7684;&#x6E10;&#x53D8;_101"><linearGradient id="&#x672A;&#x547D;&#x540D;&#x7684;&#x6E10;&#x53D8;_664-16" x1="28.91" y1="57.1" x2="17.53" y2="56.31" xlink:href="#&#x672A;&#x547D;&#x540D;&#x7684;&#x6E10;&#x53D8;_664"><linearGradient id="&#x672A;&#x547D;&#x540D;&#x7684;&#x6E10;&#x53D8;_101-33" x1="100.09" y1="57.37" x2="111.15" y2="57.37" xlink:href="#&#x672A;&#x547D;&#x540D;&#x7684;&#x6E10;&#x53D8;_101"><linearGradient id="&#x672A;&#x547D;&#x540D;&#x7684;&#x6E10;&#x53D8;_653-17" x1="105.62" y1="65.98" x2="105.62" y2="44.35" xlink:href="#&#x672A;&#x547D;&#x540D;&#x7684;&#x6E10;&#x53D8;_653"><linearGradient id="&#x672A;&#x547D;&#x540D;&#x7684;&#x6E10;&#x53D8;_101-34" x1="100.09" y1="46.16" x2="111.1" y2="46.16" xlink:href="#&#x672A;&#x547D;&#x540D;&#x7684;&#x6E10;&#x53D8;_101"><linearGradient id="&#x672A;&#x547D;&#x540D;&#x7684;&#x6E10;&#x53D8;_664-17" x1="110.77" y1="46.52" x2="100.42" y2="45.8" xlink:href="#&#x672A;&#x547D;&#x540D;&#x7684;&#x6E10;&#x53D8;_664"><linearGradient id="&#x672A;&#x547D;&#x540D;&#x7684;&#x6E10;&#x53D8;_101-35" x1="89.62" y1="59.81" x2="100.81" y2="59.81" xlink:href="#&#x672A;&#x547D;&#x540D;&#x7684;&#x6E10;&#x53D8;_101"><linearGradient id="&#x672A;&#x547D;&#x540D;&#x7684;&#x6E10;&#x53D8;_653-18" x1="95.22" y1="68.47" x2="95.22" y2="46.71" xlink:href="#&#x672A;&#x547D;&#x540D;&#x7684;&#x6E10;&#x53D8;_653"><linearGradient id="&#x672A;&#x547D;&#x540D;&#x7684;&#x6E10;&#x53D8;_101-36" x1="89.62" y1="48.53" x2="100.77" y2="48.53" xlink:href="#&#x672A;&#x547D;&#x540D;&#x7684;&#x6E10;&#x53D8;_101"><linearGradient id="&#x672A;&#x547D;&#x540D;&#x7684;&#x6E10;&#x53D8;_664-18" x1="100.44" y1="48.9" x2="89.96" y2="48.16" xlink:href="#&#x672A;&#x547D;&#x540D;&#x7684;&#x6E10;&#x53D8;_664"><linearGradient id="&#x672A;&#x547D;&#x540D;&#x7684;&#x6E10;&#x53D8;_101-37" x1="79.02" y1="61.83" x2="90.35" y2="61.83" xlink:href="#&#x672A;&#x547D;&#x540D;&#x7684;&#x6E10;&#x53D8;_101"><linearGradient id="&#x672A;&#x547D;&#x540D;&#x7684;&#x6E10;&#x53D8;_653-19" x1="84.68" y1="70.54" x2="84.68" y2="48.64" xlink:href="#&#x672A;&#x547D;&#x540D;&#x7684;&#x6E10;&#x53D8;_653"><linearGradient id="&#x672A;&#x547D;&#x540D;&#x7684;&#x6E10;&#x53D8;_101-38" x1="79.02" y1="50.47" x2="90.31" y2="50.47" xlink:href="#&#x672A;&#x547D;&#x540D;&#x7684;&#x6E10;&#x53D8;_101"><linearGradient id="&#x672A;&#x547D;&#x540D;&#x7684;&#x6E10;&#x53D8;_664-19" x1="89.97" y1="50.84" x2="79.36" y2="50.1" xlink:href="#&#x672A;&#x547D;&#x540D;&#x7684;&#x6E10;&#x53D8;_664"><linearGradient id="&#x672A;&#x547D;&#x540D;&#x7684;&#x6E10;&#x53D8;_101-39" x1="68.28" y1="64.56" x2="79.75" y2="64.56" xlink:href="#&#x672A;&#x547D;&#x540D;&#x7684;&#x6E10;&#x53D8;_101"><linearGradient id="&#x672A;&#x547D;&#x540D;&#x7684;&#x6E10;&#x53D8;_653-20" x1="74.02" y1="73.33" x2="74.02" y2="51.3" xlink:href="#&#x672A;&#x547D;&#x540D;&#x7684;&#x6E10;&#x53D8;_653"><linearGradient id="&#x672A;&#x547D;&#x540D;&#x7684;&#x6E10;&#x53D8;_101-40" x1="68.28" y1="53.13" x2="79.72" y2="53.13" xlink:href="#&#x672A;&#x547D;&#x540D;&#x7684;&#x6E10;&#x53D8;_101"><linearGradient id="&#x672A;&#x547D;&#x540D;&#x7684;&#x6E10;&#x53D8;_664-20" x1="79.37" y1="53.5" x2="68.63" y2="52.75" xlink:href="#&#x672A;&#x547D;&#x540D;&#x7684;&#x6E10;&#x53D8;_664"><linearGradient id="&#x672A;&#x547D;&#x540D;&#x7684;&#x6E10;&#x53D8;_101-41" x1="57.41" y1="66.13" x2="69.02" y2="66.13" xlink:href="#&#x672A;&#x547D;&#x540D;&#x7684;&#x6E10;&#x53D8;_101"><linearGradient id="&#x672A;&#x547D;&#x540D;&#x7684;&#x6E10;&#x53D8;_653-21" x1="63.21" y1="74.95" x2="63.21" y2="52.78" xlink:href="#&#x672A;&#x547D;&#x540D;&#x7684;&#x6E10;&#x53D8;_653"><linearGradient id="&#x672A;&#x547D;&#x540D;&#x7684;&#x6E10;&#x53D8;_101-42" x1="57.41" y1="54.62" x2="68.99" y2="54.62" xlink:href="#&#x672A;&#x547D;&#x540D;&#x7684;&#x6E10;&#x53D8;_101"><linearGradient id="&#x672A;&#x547D;&#x540D;&#x7684;&#x6E10;&#x53D8;_664-21" x1="68.64" y1="55" x2="57.76" y2="54.24" xlink:href="#&#x672A;&#x547D;&#x540D;&#x7684;&#x6E10;&#x53D8;_664"><linearGradient id="&#x672A;&#x547D;&#x540D;&#x7684;&#x6E10;&#x53D8;_101-43" x1="46.39" y1="68.69" x2="58.15" y2="68.69" xlink:href="#&#x672A;&#x547D;&#x540D;&#x7684;&#x6E10;&#x53D8;_101"><linearGradient id="&#x672A;&#x547D;&#x540D;&#x7684;&#x6E10;&#x53D8;_653-22" x1="52.27" y1="77.56" x2="52.27" y2="55.26" xlink:href="#&#x672A;&#x547D;&#x540D;&#x7684;&#x6E10;&#x53D8;_653"><linearGradient id="&#x672A;&#x547D;&#x540D;&#x7684;&#x6E10;&#x53D8;_101-44" x1="46.39" y1="57.1" x2="58.12" y2="57.1" xlink:href="#&#x672A;&#x547D;&#x540D;&#x7684;&#x6E10;&#x53D8;_101"><linearGradient id="&#x672A;&#x547D;&#x540D;&#x7684;&#x6E10;&#x53D8;_664-22" x1="57.77" y1="57.49" x2="46.75" y2="56.72" xlink:href="#&#x672A;&#x547D;&#x540D;&#x7684;&#x6E10;&#x53D8;_664"><linearGradient id="&#x672A;&#x547D;&#x540D;&#x7684;&#x6E10;&#x53D8;_101-45" x1="35.23" y1="70.97" x2="47.14" y2="70.97" xlink:href="#&#x672A;&#x547D;&#x540D;&#x7684;&#x6E10;&#x53D8;_101"><linearGradient id="&#x672A;&#x547D;&#x540D;&#x7684;&#x6E10;&#x53D8;_653-23" x1="41.19" y1="79.9" x2="41.19" y2="57.46" xlink:href="#&#x672A;&#x547D;&#x540D;&#x7684;&#x6E10;&#x53D8;_653"><linearGradient id="&#x672A;&#x547D;&#x540D;&#x7684;&#x6E10;&#x53D8;_101-46" x1="35.23" y1="59.3" x2="47.12" y2="59.3" xlink:href="#&#x672A;&#x547D;&#x540D;&#x7684;&#x6E10;&#x53D8;_101"><linearGradient id="&#x672A;&#x547D;&#x540D;&#x7684;&#x6E10;&#x53D8;_664-23" x1="46.76" y1="59.69" x2="35.6" y2="58.91" xlink:href="#&#x672A;&#x547D;&#x540D;&#x7684;&#x6E10;&#x53D8;_664"><linearGradient id="&#x672A;&#x547D;&#x540D;&#x7684;&#x6E10;&#x53D8;_101-47" x1="23.93" y1="73.6" x2="35.98" y2="73.6" xlink:href="#&#x672A;&#x547D;&#x540D;&#x7684;&#x6E10;&#x53D8;_101"><linearGradient id="&#x672A;&#x547D;&#x540D;&#x7684;&#x6E10;&#x53D8;_653-24" x1="29.96" y1="82.58" x2="29.96" y2="60" xlink:href="#&#x672A;&#x547D;&#x540D;&#x7684;&#x6E10;&#x53D8;_653"><linearGradient id="&#x672A;&#x547D;&#x540D;&#x7684;&#x6E10;&#x53D8;_101-48" x1="23.93" y1="61.85" x2="35.97" y2="61.85" xlink:href="#&#x672A;&#x547D;&#x540D;&#x7684;&#x6E10;&#x53D8;_101"><linearGradient id="&#x672A;&#x547D;&#x540D;&#x7684;&#x6E10;&#x53D8;_664-24" x1="35.6" y1="62.25" x2="24.3" y2="61.46" xlink:href="#&#x672A;&#x547D;&#x540D;&#x7684;&#x6E10;&#x53D8;_664"><linearGradient id="&#x672A;&#x547D;&#x540D;&#x7684;&#x6E10;&#x53D8;_101-49" x1="106.74" y1="62.13" x2="117.72" y2="62.13" xlink:href="#&#x672A;&#x547D;&#x540D;&#x7684;&#x6E10;&#x53D8;_101"><linearGradient id="&#x672A;&#x547D;&#x540D;&#x7684;&#x6E10;&#x53D8;_653-25" x1="112.23" y1="70.7" x2="112.23" y2="49.16" xlink:href="#&#x672A;&#x547D;&#x540D;&#x7684;&#x6E10;&#x53D8;_653"><linearGradient id="&#x672A;&#x547D;&#x540D;&#x7684;&#x6E10;&#x53D8;_101-50" x1="106.74" y1="50.95" x2="117.67" y2="50.95" xlink:href="#&#x672A;&#x547D;&#x540D;&#x7684;&#x6E10;&#x53D8;_101"><linearGradient id="&#x672A;&#x547D;&#x540D;&#x7684;&#x6E10;&#x53D8;_664-25" x1="117.34" y1="51.31" x2="107.08" y2="50.6" xlink:href="#&#x672A;&#x547D;&#x540D;&#x7684;&#x6E10;&#x53D8;_664"><linearGradient id="&#x672A;&#x547D;&#x540D;&#x7684;&#x6E10;&#x53D8;_101-51" x1="96.35" y1="64.59" x2="107.47" y2="64.59" xlink:href="#&#x672A;&#x547D;&#x540D;&#x7684;&#x6E10;&#x53D8;_101"><linearGradient id="&#x672A;&#x547D;&#x540D;&#x7684;&#x6E10;&#x53D8;_653-26" x1="101.91" y1="73.21" x2="101.91" y2="51.55" xlink:href="#&#x672A;&#x547D;&#x540D;&#x7684;&#x6E10;&#x53D8;_653"><linearGradient id="&#x672A;&#x547D;&#x540D;&#x7684;&#x6E10;&#x53D8;_101-52" x1="96.35" y1="53.34" x2="107.42" y2="53.34" xlink:href="#&#x672A;&#x547D;&#x540D;&#x7684;&#x6E10;&#x53D8;_101"><linearGradient id="&#x672A;&#x547D;&#x540D;&#x7684;&#x6E10;&#x53D8;_664-26" x1="107.09" y1="53.71" x2="96.7" y2="52.98" xlink:href="#&#x672A;&#x547D;&#x540D;&#x7684;&#x6E10;&#x53D8;_664"><linearGradient id="&#x672A;&#x547D;&#x540D;&#x7684;&#x6E10;&#x53D8;_101-53" x1="85.84" y1="66.63" x2="97.08" y2="66.63" xlink:href="#&#x672A;&#x547D;&#x540D;&#x7684;&#x6E10;&#x53D8;_101"><linearGradient id="&#x672A;&#x547D;&#x540D;&#x7684;&#x6E10;&#x53D8;_653-27" x1="91.46" y1="75.3" x2="91.46" y2="53.5" xlink:href="#&#x672A;&#x547D;&#x540D;&#x7684;&#x6E10;&#x53D8;_653"><linearGradient id="&#x672A;&#x547D;&#x540D;&#x7684;&#x6E10;&#x53D8;_101-54" x1="85.84" y1="55.31" x2="97.04" y2="55.31" xlink:href="#&#x672A;&#x547D;&#x540D;&#x7684;&#x6E10;&#x53D8;_101"><linearGradient id="&#x672A;&#x547D;&#x540D;&#x7684;&#x6E10;&#x53D8;_664-27" x1="96.7" y1="55.67" x2="86.18" y2="54.94" xlink:href="#&#x672A;&#x547D;&#x540D;&#x7684;&#x6E10;&#x53D8;_664"><linearGradient id="&#x672A;&#x547D;&#x540D;&#x7684;&#x6E10;&#x53D8;_101-55" x1="75.19" y1="69.38" x2="86.57" y2="69.38" xlink:href="#&#x672A;&#x547D;&#x540D;&#x7684;&#x6E10;&#x53D8;_101"><linearGradient id="&#x672A;&#x547D;&#x540D;&#x7684;&#x6E10;&#x53D8;_653-28" x1="80.88" y1="78.11" x2="80.88" y2="56.18" xlink:href="#&#x672A;&#x547D;&#x540D;&#x7684;&#x6E10;&#x53D8;_653"><linearGradient id="&#x672A;&#x547D;&#x540D;&#x7684;&#x6E10;&#x53D8;_101-56" x1="75.19" y1="57.98" x2="86.53" y2="57.98" xlink:href="#&#x672A;&#x547D;&#x540D;&#x7684;&#x6E10;&#x53D8;_101"><linearGradient id="&#x672A;&#x547D;&#x540D;&#x7684;&#x6E10;&#x53D8;_664-28" x1="86.19" y1="58.36" x2="75.54" y2="57.61" xlink:href="#&#x672A;&#x547D;&#x540D;&#x7684;&#x6E10;&#x53D8;_664"><linearGradient id="&#x672A;&#x547D;&#x540D;&#x7684;&#x6E10;&#x53D8;_101-57" x1="64.4" y1="70.97" x2="75.92" y2="70.97" xlink:href="#&#x672A;&#x547D;&#x540D;&#x7684;&#x6E10;&#x53D8;_101"><linearGradient id="&#x672A;&#x547D;&#x540D;&#x7684;&#x6E10;&#x53D8;_653-29" x1="70.16" y1="79.75" x2="70.16" y2="57.69" xlink:href="#&#x672A;&#x547D;&#x540D;&#x7684;&#x6E10;&#x53D8;_653"><linearGradient id="&#x672A;&#x547D;&#x540D;&#x7684;&#x6E10;&#x53D8;_101-58" x1="64.4" y1="59.5" x2="75.89" y2="59.5" xlink:href="#&#x672A;&#x547D;&#x540D;&#x7684;&#x6E10;&#x53D8;_101"><linearGradient id="&#x672A;&#x547D;&#x540D;&#x7684;&#x6E10;&#x53D8;_664-29" x1="75.54" y1="59.88" x2="64.75" y2="59.12" xlink:href="#&#x672A;&#x547D;&#x540D;&#x7684;&#x6E10;&#x53D8;_664"><linearGradient id="&#x672A;&#x547D;&#x540D;&#x7684;&#x6E10;&#x53D8;_101-59" x1="53.47" y1="73.56" x2="65.14" y2="73.56" xlink:href="#&#x672A;&#x547D;&#x540D;&#x7684;&#x6E10;&#x53D8;_101"><linearGradient id="&#x672A;&#x547D;&#x540D;&#x7684;&#x6E10;&#x53D8;_653-30" x1="59.31" y1="82.39" x2="59.31" y2="60.19" xlink:href="#&#x672A;&#x547D;&#x540D;&#x7684;&#x6E10;&#x53D8;_653"><linearGradient id="&#x672A;&#x547D;&#x540D;&#x7684;&#x6E10;&#x53D8;_101-60" x1="53.47" y1="62" x2="65.11" y2="62" xlink:href="#&#x672A;&#x547D;&#x540D;&#x7684;&#x6E10;&#x53D8;_101"><linearGradient id="&#x672A;&#x547D;&#x540D;&#x7684;&#x6E10;&#x53D8;_664-30" x1="64.76" y1="62.39" x2="53.83" y2="61.62" xlink:href="#&#x672A;&#x547D;&#x540D;&#x7684;&#x6E10;&#x53D8;_664"><linearGradient id="&#x672A;&#x547D;&#x540D;&#x7684;&#x6E10;&#x53D8;_101-61" x1="42.41" y1="75.86" x2="54.21" y2="75.86" xlink:href="#&#x672A;&#x547D;&#x540D;&#x7684;&#x6E10;&#x53D8;_101"><linearGradient id="&#x672A;&#x547D;&#x540D;&#x7684;&#x6E10;&#x53D8;_653-31" x1="48.31" y1="84.75" x2="48.31" y2="62.41" xlink:href="#&#x672A;&#x547D;&#x540D;&#x7684;&#x6E10;&#x53D8;_653"><linearGradient id="&#x672A;&#x547D;&#x540D;&#x7684;&#x6E10;&#x53D8;_101-62" x1="42.41" y1="64.23" x2="54.19" y2="64.23" xlink:href="#&#x672A;&#x547D;&#x540D;&#x7684;&#x6E10;&#x53D8;_101"><linearGradient id="&#x672A;&#x547D;&#x540D;&#x7684;&#x6E10;&#x53D8;_664-31" x1="53.83" y1="64.62" x2="42.77" y2="63.84" xlink:href="#&#x672A;&#x547D;&#x540D;&#x7684;&#x6E10;&#x53D8;_664"><linearGradient id="&#x672A;&#x547D;&#x540D;&#x7684;&#x6E10;&#x53D8;_101-63" x1="31.19" y1="78.51" x2="43.15" y2="78.51" xlink:href="#&#x672A;&#x547D;&#x540D;&#x7684;&#x6E10;&#x53D8;_101"><linearGradient id="&#x672A;&#x547D;&#x540D;&#x7684;&#x6E10;&#x53D8;_653-32" x1="37.18" y1="87.45" x2="37.18" y2="64.98" xlink:href="#&#x672A;&#x547D;&#x540D;&#x7684;&#x6E10;&#x53D8;_653"><linearGradient id="&#x672A;&#x547D;&#x540D;&#x7684;&#x6E10;&#x53D8;_101-64" x1="31.19" y1="66.8" x2="43.14" y2="66.8" xlink:href="#&#x672A;&#x547D;&#x540D;&#x7684;&#x6E10;&#x53D8;_101"><linearGradient id="&#x672A;&#x547D;&#x540D;&#x7684;&#x6E10;&#x53D8;_664-32" x1="42.77" y1="67.19" x2="31.57" y2="66.41" xlink:href="#&#x672A;&#x547D;&#x540D;&#x7684;&#x6E10;&#x53D8;_664"><linearGradient id="&#x672A;&#x547D;&#x540D;&#x7684;&#x6E10;&#x53D8;_51" x1="7.69" y1="77.08" x2="120.83" y2="76.31" gradientunits="userSpaceOnUse"><stop offset="0" stop-color="#84cdf2"/><stop offset="0.31" stop-color="#6fb7df"/><stop offset="0.96" stop-color="#3a80ae"/><stop offset="1" stop-color="#377dab"/></linearGradient><linearGradient id="&#x672A;&#x547D;&#x540D;&#x7684;&#x6E10;&#x53D8;_25" x1="86.56" y1="78.38" x2="111.53" y2="78.38" gradienttransform="matrix(-1, 0.07, 0, 1, 118.7, -3.75)" gradientunits="userSpaceOnUse"><stop offset="0" stop-color="#a9ddf7"/><stop offset="1" stop-color="#9ddcf7"/></linearGradient><linearGradient id="&#x672A;&#x547D;&#x540D;&#x7684;&#x6E10;&#x53D8;_48" x1="30.72" y1="77.39" x2="121.51" y2="77.39" gradientunits="userSpaceOnUse"><stop offset="0" stop-color="#97daf8"/><stop offset="0.15" stop-color="#4abaeb"/><stop offset="0.92" stop-color="#5fb6e5"/><stop offset="1" stop-color="#62b5e4"/></linearGradient></linearGradient></linearGradient></linearGradient></linearGradient></linearGradient></linearGradient></linearGradient></linearGradient></linearGradient></linearGradient></linearGradient></linearGradient></linearGradient></linearGradient></linearGradient></linearGradient></linearGradient></linearGradient></linearGradient></linearGradient></linearGradient></linearGradient></linearGradient></linearGradient></linearGradient></linearGradient></linearGradient></linearGradient></linearGradient></linearGradient></linearGradient></linearGradient></linearGradient></linearGradient></linearGradient></linearGradient></linearGradient></linearGradient></linearGradient></linearGradient></linearGradient></linearGradient></linearGradient></linearGradient></linearGradient></linearGradient></linearGradient></linearGradient></linearGradient></linearGradient></linearGradient></linearGradient></linearGradient></linearGradient></linearGradient></linearGradient></linearGradient></linearGradient></linearGradient></linearGradient></linearGradient></linearGradient></linearGradient></linearGradient></linearGradient></linearGradient></linearGradient></linearGradient></linearGradient></linearGradient></linearGradient></linearGradient></linearGradient></linearGradient></linearGradient></linearGradient></linearGradient></linearGradient></linearGradient></linearGradient></linearGradient></linearGradient></linearGradient></linearGradient></linearGradient></linearGradient></linearGradient></linearGradient></linearGradient></linearGradient></linearGradient></linearGradient></linearGradient></linearGradient></linearGradient></linearGradient></linearGradient></linearGradient></linearGradient></linearGradient></linearGradient></linearGradient></linearGradient></linearGradient></linearGradient></linearGradient></linearGradient></linearGradient></linearGradient></linearGradient></linearGradient></linearGradient></linearGradient></linearGradient></linearGradient></linearGradient></linearGradient></linearGradient></linearGradient></linearGradient></linearGradient></linearGradient></linearGradient></linearGradient></linearGradient></defs><title>&#x751F;&#x7269;&#x4EEA;&#x5668;</title><path class="cls-1" d="M30.2,85.27,8.49,69.76c-.36-.26.19-1.21.63-1.32L86.81,50.66a.56.56,0,0,1,.28,0l33.5,9.89a.51.51,0,0,1,0,1L30.67,85.36A.56.56,0,0,1,30.2,85.27Z"/><path class="cls-2" d="M87.12,34.67l0,19c0,2,2.52,3.5,5.62,3.31s5.57-2,5.57-4l0-18.84Z"/><path class="cls-3" d="M87.44,33.76l0,19.31c0,2,2.38,3.54,5.3,3.36s5.26-2,5.25-4l0-19.19Z"/><path class="cls-4" d="M87.71,35l0,17.58c0,1.86,2.26,3.23,5,3.06s5-1.8,5-3.65l0-17.47Z"/><path class="cls-5" d="M92.73,31.38c-3.09.14-5.61,1.59-5.6,3.23s2.52,2.85,5.62,2.7,5.57-1.6,5.57-3.23S95.81,31.23,92.73,31.38Z"/><path class="cls-6" d="M92.73,31.74c-2.91.13-5.28,1.41-5.28,2.86s2.37,2.5,5.29,2.35S98,35.53,98,34.09,95.63,31.6,92.73,31.74Z"/><path class="cls-7" d="M92.76,50c-2.71.15-4.91,1.48-4.91,3a1.54,1.54,0,0,0,0,.16c.15-1.38,2.29-2.58,4.9-2.73s4.73.81,4.88,2.16c0-.05,0-.1,0-.16C97.65,50.88,95.47,49.82,92.76,50Z"/><path class="cls-8" d="M95.8,37.26l0,14.74a4.41,4.41,0,0,1-.66,2.81,3.42,3.42,0,0,0,2.34-2.27l0-16.31A5.79,5.79,0,0,1,95.8,37.26Z"/><path class="cls-9" d="M89.73,52.37l0-14.8A5.21,5.21,0,0,1,88,36.7l0,16.4a2.94,2.94,0,0,0,2.37,2A4,4,0,0,1,89.73,52.37Z"/><path class="cls-10" d="M76.49,37.75l0,19.08c0,2,2.56,3.51,5.69,3.32s5.64-2,5.64-4l0-19Z"/><path class="cls-3" d="M76.82,36.83l0,19.44c0,2,2.41,3.55,5.36,3.37s5.32-2,5.32-4l0-19.31Z"/><path class="cls-11" d="M77.09,38.1l0,17.69c0,1.87,2.29,3.25,5.09,3.07s5.05-1.82,5.05-3.68l0-17.58Z"/><path class="cls-12" d="M82.17,34.42c-3.13.15-5.68,1.61-5.68,3.27s2.55,2.87,5.69,2.71,5.64-1.62,5.64-3.26S85.29,34.27,82.17,34.42Z"/><path class="cls-13" d="M82.17,34.78c-3,.14-5.35,1.43-5.35,2.88s2.4,2.51,5.36,2.36,5.32-1.44,5.31-2.88S85.11,34.64,82.17,34.78Z"/><path class="cls-7" d="M82.2,53.13c-2.75.16-5,1.5-5,3a1.54,1.54,0,0,0,0,.16c.15-1.38,2.32-2.6,5-2.76s4.79.8,4.95,2.16a1.56,1.56,0,0,0,0-.16C87.15,54,84.94,53,82.2,53.13Z"/><path class="cls-8" d="M85.28,40.34l0,14.84A4.43,4.43,0,0,1,84.63,58,3.46,3.46,0,0,0,87,55.71L87,39.3A5.89,5.89,0,0,1,85.28,40.34Z"/><path class="cls-9" d="M79.13,55.55l0-14.89a5.28,5.28,0,0,1-1.71-.87l0,16.51a3,3,0,0,0,2.4,2A4,4,0,0,1,79.13,55.55Z"/><path class="cls-14" d="M65.73,40.4l0,19.21c0,2,2.59,3.53,5.76,3.33s5.72-2,5.71-4l0-19.08Z"/><path class="cls-3" d="M66.06,39.47l0,19.56c0,2.06,2.44,3.57,5.43,3.38s5.39-2,5.39-4l0-19.44Z"/><path class="cls-15" d="M66.33,40.75l0,17.8c0,1.88,2.31,3.26,5.16,3.08s5.12-1.84,5.12-3.71l0-17.69Z"/><path class="cls-16" d="M71.48,37c-3.17.15-5.75,1.63-5.75,3.3s2.58,2.88,5.76,2.72,5.71-1.64,5.71-3.29S74.64,36.88,71.48,37Z"/><path class="cls-17" d="M71.48,37.41c-3,.15-5.42,1.45-5.42,2.91s2.43,2.52,5.42,2.36,5.38-1.46,5.38-2.91S74.46,37.26,71.48,37.41Z"/><path class="cls-7" d="M71.5,55.87c-2.78.17-5,1.52-5,3a1.54,1.54,0,0,0,0,.16c.15-1.39,2.35-2.62,5-2.78s4.85.8,5,2.17a1.57,1.57,0,0,0,0-.16C76.52,56.78,74.28,55.71,71.5,55.87Z"/><path class="cls-8" d="M74.63,43l0,14.93A4.44,4.44,0,0,1,74,60.77a3.49,3.49,0,0,0,2.4-2.31l0-16.52A6,6,0,0,1,74.63,43Z"/><path class="cls-9" d="M68.39,58.31l0-15a5.35,5.35,0,0,1-1.74-.87l0,16.61a3,3,0,0,0,2.43,2A4,4,0,0,1,68.39,58.31Z"/><path class="cls-18" d="M54.82,43.78l0,19.33c0,2.05,2.62,3.55,5.83,3.34s5.79-2,5.79-4.07l0-19.2Z"/><path class="cls-3" d="M55.16,42.85l0,19.69c0,2.07,2.47,3.59,5.5,3.39s5.46-2,5.46-4.08l0-19.56Z"/><path class="cls-19" d="M55.44,44.14l0,17.92c0,1.9,2.34,3.28,5.22,3.09s5.18-1.86,5.18-3.75l0-17.81Z"/><path class="cls-20" d="M60.65,40.39c-3.21.16-5.83,1.65-5.82,3.33s2.62,2.9,5.83,2.72,5.79-1.66,5.78-3.33S63.85,40.23,60.65,40.39Z"/><path class="cls-21" d="M60.65,40.76c-3,.15-5.49,1.47-5.49,2.94s2.46,2.53,5.49,2.37,5.45-1.48,5.45-2.94S63.66,40.61,60.65,40.76Z"/><path class="cls-7" d="M60.67,59.34c-2.82.17-5.11,1.54-5.1,3a1.53,1.53,0,0,0,0,.16c.15-1.4,2.38-2.64,5.09-2.81s4.92.8,5.07,2.17a1.57,1.57,0,0,0,0-.16C65.75,60.25,63.48,59.17,60.67,59.34Z"/><path class="cls-8" d="M63.84,46.38l0,15a4.46,4.46,0,0,1-.69,2.87,3.54,3.54,0,0,0,2.43-2.33l0-16.63A6.08,6.08,0,0,1,63.84,46.38Z"/><path class="cls-9" d="M57.52,61.8l0-15.09a5.41,5.41,0,0,1-1.76-.88l0,16.72a3,3,0,0,0,2.46,2A4,4,0,0,1,57.52,61.8Z"/><path class="cls-22" d="M43.78,46l0,19.46c0,2.07,2.65,3.57,5.91,3.35s5.86-2.06,5.86-4.11l0-19.33Z"/><path class="cls-3" d="M44.12,45.06l0,19.82c0,2.09,2.5,3.61,5.57,3.41s5.53-2,5.53-4.12l0-19.69Z"/><path class="cls-23" d="M44.4,46.36v18c0,1.91,2.37,3.3,5.29,3.11S55,65.62,55,63.72l0-17.92Z"/><path class="cls-24" d="M49.68,42.58c-3.25.17-5.9,1.67-5.9,3.36s2.65,2.91,5.91,2.73,5.86-1.68,5.86-3.36S52.92,42.41,49.68,42.58Z"/><path class="cls-25" d="M49.68,42.95c-3.07.16-5.56,1.49-5.56,3s2.5,2.55,5.56,2.38,5.52-1.49,5.52-3S52.73,42.79,49.68,42.95Z"/><path class="cls-7" d="M49.7,61.65c-2.85.18-5.17,1.55-5.17,3.07a1.53,1.53,0,0,0,0,.16c.16-1.41,2.41-2.67,5.16-2.84s5,.79,5.13,2.18a1.57,1.57,0,0,0,0-.16C54.84,62.56,52.54,61.48,49.7,61.65Z"/><path class="cls-8" d="M52.91,48.6l0,15.13a4.47,4.47,0,0,1-.7,2.89,3.58,3.58,0,0,0,2.47-2.35l0-16.73A6.18,6.18,0,0,1,52.91,48.6Z"/><path class="cls-9" d="M46.5,64.13V48.95a5.49,5.49,0,0,1-1.78-.88V64.9a3,3,0,0,0,2.49,2A4,4,0,0,1,46.5,64.13Z"/><path class="cls-26" d="M32.59,49.22V68.81c0,2.08,2.69,3.59,6,3.36s5.94-2.08,5.94-4.15l0-19.45Z"/><path class="cls-3" d="M32.93,48.28V68.23c0,2.1,2.53,3.63,5.64,3.42s5.6-2.07,5.6-4.16l0-19.82Z"/><path class="cls-27" d="M33.22,49.59V67.74c0,1.92,2.4,3.32,5.35,3.12S43.9,69,43.9,67V49Z"/><path class="cls-28" d="M38.57,45.77c-3.3.17-6,1.69-6,3.39s2.68,2.92,6,2.74,5.94-1.7,5.94-3.39S41.85,45.6,38.57,45.77Z"/><path class="cls-29" d="M38.57,46.14c-3.11.16-5.63,1.51-5.63,3s2.53,2.56,5.63,2.38,5.59-1.51,5.59-3S41.66,46,38.57,46.14Z"/><path class="cls-7" d="M38.58,65c-2.89.18-5.24,1.57-5.24,3.1a1.53,1.53,0,0,0,0,.16c.16-1.42,2.44-2.69,5.23-2.87s5,.79,5.2,2.18a1.57,1.57,0,0,0,0-.16C43.79,65.87,41.46,64.79,38.58,65Z"/><path class="cls-8" d="M41.84,51.82V67.05A4.49,4.49,0,0,1,41.14,70a3.62,3.62,0,0,0,2.5-2.37V50.75A6.29,6.29,0,0,1,41.84,51.82Z"/><path class="cls-9" d="M35.35,67.47V52.19a5.56,5.56,0,0,1-1.8-.88V68.25a3,3,0,0,0,2.52,2A4,4,0,0,1,35.35,67.47Z"/><path class="cls-30" d="M21.26,52.18V71.89c0,2.1,2.72,3.61,6.06,3.37s6-2.1,6-4.19V51.5Z"/><path class="cls-3" d="M21.6,51.23V71.31c0,2.11,2.56,3.65,5.71,3.43S33,72.65,33,70.55V50.6Z"/><path class="cls-31" d="M21.89,52.54V70.81c0,1.93,2.43,3.33,5.42,3.13s5.39-1.93,5.39-3.85V51.93Z"/><path class="cls-32" d="M27.31,48.69c-3.34.18-6.06,1.71-6.06,3.42s2.72,2.94,6.06,2.75,6-1.72,6-3.42S30.64,48.51,27.31,48.69Z"/><path class="cls-33" d="M27.31,49.07c-3.15.17-5.7,1.53-5.7,3s2.56,2.57,5.71,2.39,5.67-1.53,5.67-3S30.45,48.9,27.31,49.07Z"/><path class="cls-7" d="M27.32,68c-2.93.19-5.31,1.59-5.31,3.13a1.53,1.53,0,0,0,0,.16c.16-1.43,2.47-2.71,5.3-2.89s5.11.79,5.27,2.19a1.57,1.57,0,0,0,0-.16C32.6,68.91,30.24,67.83,27.32,68Z"/><path class="cls-8" d="M30.62,54.78V70.11A4.51,4.51,0,0,1,29.91,73a3.66,3.66,0,0,0,2.53-2.39v-17A6.4,6.4,0,0,1,30.62,54.78Z"/><path class="cls-9" d="M24,70.54V55.16a5.64,5.64,0,0,1-1.83-.89V71.33a3.07,3.07,0,0,0,2.56,2.06A4,4,0,0,1,24,70.54Z"/><path class="cls-34" d="M9.77,55.49V75.33c0,2.11,2.75,3.62,6.14,3.38S22,76.59,22,74.5V54.79Z"/><path class="cls-3" d="M10.13,54.53V74.74c0,2.13,2.6,3.67,5.79,3.44s5.75-2.12,5.75-4.23V53.88Z"/><path class="cls-35" d="M10.42,55.85V74.25c0,1.95,2.46,3.35,5.49,3.14s5.46-1.95,5.46-3.88V55.22Z"/><path class="cls-36" d="M15.91,52c-3.38.19-6.14,1.74-6.14,3.46s2.75,3,6.14,2.75S22,56.43,22,54.72,19.28,51.78,15.91,52Z"/><path class="cls-37" d="M15.91,52.35c-3.19.18-5.78,1.55-5.78,3.06S12.72,58,15.91,57.8s5.74-1.55,5.74-3.06S19.09,52.17,15.91,52.35Z"/><path class="cls-7" d="M15.91,71.42c-3,.2-5.38,1.61-5.38,3.16a1.53,1.53,0,0,0,0,.16c.16-1.44,2.51-2.73,5.37-2.92s5.17.78,5.34,2.19a1.57,1.57,0,0,0,0-.16C21.26,72.32,18.87,71.23,15.91,71.42Z"/><path class="cls-8" d="M19.26,58.09V73.52a4.53,4.53,0,0,1-.73,2.95,3.71,3.71,0,0,0,2.57-2.41V57A6.51,6.51,0,0,1,19.26,58.09Z"/><path class="cls-9" d="M12.59,74V58.48a5.72,5.72,0,0,1-1.85-.89V74.76a3.1,3.1,0,0,0,2.59,2.06A4.05,4.05,0,0,1,12.59,74Z"/><path class="cls-38" d="M93.88,39.13l0,18.89c0,2,2.51,3.48,5.58,3.28s5.53-2,5.52-4l0-18.77Z"/><path class="cls-3" d="M94.2,38.22l0,19.24c0,2,2.36,3.52,5.26,3.33s5.21-2,5.21-4l0-19.12Z"/><path class="cls-39" d="M94.46,39.48,94.5,57c0,1.85,2.24,3.21,5,3s5-1.81,4.95-3.65l0-17.41Z"/><path class="cls-40" d="M99.44,35.83c-3.07.15-5.56,1.6-5.56,3.24s2.5,2.84,5.57,2.68S105,40.13,105,38.5,102.5,35.68,99.44,35.83Z"/><path class="cls-41" d="M99.44,36.19c-2.89.14-5.24,1.42-5.24,2.86s2.36,2.48,5.25,2.33,5.21-1.43,5.21-2.86S102.32,36,99.44,36.19Z"/><path class="cls-7" d="M99.48,54.35c-2.69.16-4.88,1.49-4.87,3a1.53,1.53,0,0,0,0,.15c.15-1.37,2.27-2.58,4.86-2.73s4.7.79,4.85,2.14c0-.05,0-.1,0-.16C104.33,55.25,102.16,54.19,99.48,54.35Z"/><path class="cls-8" d="M102.49,41.69l0,14.69a4.42,4.42,0,0,1-.66,2.8,3.41,3.41,0,0,0,2.32-2.27l0-16.25A5.76,5.76,0,0,1,102.49,41.69Z"/><path class="cls-9" d="M96.47,56.75l0-14.74a5.14,5.14,0,0,1-1.68-.86l0,16.34a2.91,2.91,0,0,0,2.35,2A4,4,0,0,1,96.47,56.75Z"/><path class="cls-42" d="M83.33,42.22l0,19c0,2,2.54,3.49,5.65,3.29s5.6-2,5.6-4l0-18.89Z"/><path class="cls-3" d="M83.65,41.3l0,19.36c0,2,2.39,3.53,5.32,3.34s5.28-2,5.28-4l0-19.24Z"/><path class="cls-43" d="M83.93,42.57l0,17.62c0,1.86,2.27,3.23,5.05,3s5-1.83,5-3.68L94,42Z"/><path class="cls-44" d="M89,38.89c-3.11.16-5.63,1.62-5.63,3.27S85.87,45,89,44.84s5.6-1.63,5.59-3.27S92.06,38.73,89,38.89Z"/><path class="cls-45" d="M89,39.25c-2.93.15-5.31,1.44-5.3,2.89S86,44.63,89,44.47s5.27-1.45,5.27-2.89S91.88,39.1,89,39.25Z"/><path class="cls-7" d="M89,57.53c-2.72.17-4.94,1.51-4.93,3a1.53,1.53,0,0,0,0,.16c.15-1.38,2.3-2.6,4.93-2.76s4.76.79,4.91,2.14c0-.05,0-.1,0-.16C93.91,58.42,91.71,57.36,89,57.53Z"/><path class="cls-8" d="M92.05,44.78l0,14.78a4.43,4.43,0,0,1-.67,2.82,3.45,3.45,0,0,0,2.35-2.29l0-16.35A5.85,5.85,0,0,1,92.05,44.78Z"/><path class="cls-9" d="M86,59.94l0-14.84a5.21,5.21,0,0,1-1.7-.86l0,16.44a2.93,2.93,0,0,0,2.38,2A4,4,0,0,1,86,59.94Z"/><path class="cls-46" d="M72.65,44.88l0,19.13c0,2,2.57,3.51,5.72,3.3s5.67-2,5.67-4l0-19Z"/><path class="cls-3" d="M73,44l0,19.49c0,2.05,2.42,3.55,5.39,3.36s5.35-2,5.34-4l0-19.36Z"/><path class="cls-47" d="M73.25,45.24l0,17.73c0,1.88,2.3,3.25,5.12,3.06s5.08-1.85,5.07-3.71l0-17.63Z"/><path class="cls-48" d="M78.35,41.52c-3.15.16-5.71,1.64-5.7,3.3s2.56,2.86,5.71,2.69S84,45.86,84,44.22,81.49,41.36,78.35,41.52Z"/><path class="cls-49" d="M78.36,41.89C75.39,42,73,43.35,73,44.8s2.42,2.5,5.38,2.34,5.34-1.47,5.34-2.91S81.31,41.74,78.36,41.89Z"/><path class="cls-7" d="M78.39,60.29c-2.76.17-5,1.52-5,3a1.53,1.53,0,0,0,0,.16c.15-1.39,2.33-2.62,5-2.79s4.82.78,5,2.15a1.57,1.57,0,0,0,0-.16C83.36,61.18,81.14,60.11,78.39,60.29Z"/><path class="cls-8" d="M81.48,47.45l0,14.88a4.45,4.45,0,0,1-.68,2.84,3.49,3.49,0,0,0,2.38-2.31l0-16.46A6,6,0,0,1,81.48,47.45Z"/><path class="cls-9" d="M75.3,62.72l0-14.93a5.28,5.28,0,0,1-1.72-.87l0,16.55a3,3,0,0,0,2.41,2A4,4,0,0,1,75.3,62.72Z"/><path class="cls-50" d="M61.84,48.28l0,19.26c0,2,2.6,3.53,5.79,3.31s5.74-2,5.74-4.07l0-19.13Z"/><path class="cls-3" d="M62.17,47.36l0,19.61c0,2.06,2.45,3.57,5.46,3.37s5.42-2,5.41-4.08l0-19.49Z"/><path class="cls-51" d="M62.44,48.64l0,17.85c0,1.89,2.33,3.26,5.18,3.07s5.14-1.87,5.14-3.75l0-17.74Z"/><path class="cls-52" d="M67.61,44.89c-3.19.17-5.78,1.66-5.78,3.33s2.6,2.88,5.78,2.7,5.74-1.67,5.74-3.33S70.79,44.72,67.61,44.89Z"/><path class="cls-53" d="M67.61,45.26c-3,.16-5.44,1.48-5.44,2.94s2.45,2.52,5.45,2.35S73,49.06,73,47.61,70.61,45.1,67.61,45.26Z"/><path class="cls-7" d="M67.64,63.77c-2.79.18-5.06,1.54-5.06,3a1.53,1.53,0,0,0,0,.16c.15-1.4,2.36-2.64,5.05-2.81s4.88.78,5,2.15a1.57,1.57,0,0,0,0-.16C72.68,64.66,70.42,63.59,67.64,63.77Z"/><path class="cls-8" d="M70.78,50.85l0,15a4.46,4.46,0,0,1-.69,2.86,3.53,3.53,0,0,0,2.42-2.33l0-16.56A6,6,0,0,1,70.78,50.85Z"/><path class="cls-9" d="M64.51,66.23l0-15a5.35,5.35,0,0,1-1.74-.87l0,16.66a3,3,0,0,0,2.44,2A4,4,0,0,1,64.51,66.23Z"/><path class="cls-54" d="M50.88,50.52l0,19.38c0,2.06,2.63,3.55,5.86,3.32s5.82-2.06,5.81-4.11l0-19.25Z"/><path class="cls-3" d="M51.22,49.59l0,19.74c0,2.08,2.48,3.59,5.53,3.38s5.48-2.05,5.48-4.12l0-19.61Z"/><path class="cls-55" d="M51.5,50.88l0,18c0,1.9,2.35,3.28,5.25,3.08S62,70,62,68.15l0-17.86Z"/><path class="cls-56" d="M56.73,47.1c-3.23.17-5.85,1.68-5.85,3.36s2.63,2.89,5.86,2.71,5.81-1.69,5.81-3.36S59.95,46.92,56.73,47.1Z"/><path class="cls-57" d="M56.73,47.47c-3,.17-5.51,1.5-5.51,3S53.7,53,56.74,52.79s5.48-1.5,5.48-3S59.76,47.3,56.73,47.47Z"/><path class="cls-7" d="M56.75,66.1c-2.83.18-5.13,1.56-5.13,3.07a1.53,1.53,0,0,0,0,.16c.15-1.41,2.39-2.66,5.12-2.84s4.94.78,5.09,2.16a1.57,1.57,0,0,0,0-.16C61.85,67,59.57,65.92,56.75,66.1Z"/><path class="cls-8" d="M59.94,53.09l0,15.07a4.48,4.48,0,0,1-.7,2.88,3.57,3.57,0,0,0,2.45-2.35l0-16.67A6.15,6.15,0,0,1,59.94,53.09Z"/><path class="cls-9" d="M53.59,68.58l0-15.13a5.42,5.42,0,0,1-1.77-.87l0,16.76a3,3,0,0,0,2.47,2A4,4,0,0,1,53.59,68.58Z"/><path class="cls-58" d="M39.78,53.76V73.27c0,2.07,2.66,3.57,5.94,3.33s5.89-2.09,5.89-4.15l0-19.38Z"/><path class="cls-3" d="M40.12,52.82V72.69c0,2.09,2.51,3.61,5.6,3.39s5.56-2.08,5.55-4.15l0-19.74Z"/><path class="cls-59" d="M40.41,54.12V72.2c0,1.91,2.38,3.3,5.31,3.09S51,73.38,51,71.48l0-18Z"/><path class="cls-60" d="M45.71,50.31c-3.27.18-5.93,1.7-5.93,3.39s2.66,2.91,5.93,2.71S51.61,54.7,51.6,53,49,50.13,45.71,50.31Z"/><path class="cls-61" d="M45.71,50.68c-3.08.17-5.58,1.52-5.58,3s2.51,2.54,5.59,2.36,5.55-1.52,5.55-3S48.78,50.51,45.71,50.68Z"/><path class="cls-7" d="M45.73,69.44c-2.87.19-5.2,1.58-5.19,3.1a1.53,1.53,0,0,0,0,.16C40.7,71.28,43,70,45.73,69.83s5,.77,5.16,2.16a1.57,1.57,0,0,0,0-.16C50.89,70.32,48.58,69.25,45.73,69.44Z"/><path class="cls-8" d="M49,56.33V71.5a4.5,4.5,0,0,1-.71,2.9A3.61,3.61,0,0,0,50.74,72l0-16.78A6.25,6.25,0,0,1,49,56.33Z"/><path class="cls-9" d="M42.52,71.94V56.71a5.49,5.49,0,0,1-1.79-.87V72.71a3,3,0,0,0,2.5,2A4,4,0,0,1,42.52,71.94Z"/><path class="cls-62" d="M28.54,56.73V76.37c0,2.09,2.7,3.58,6,3.35s6-2.11,6-4.18V56Z"/><path class="cls-3" d="M28.89,55.79v20c0,2.1,2.54,3.63,5.67,3.4s5.63-2.1,5.63-4.19V55.13Z"/><path class="cls-63" d="M29.17,57.09v18.2c0,1.93,2.41,3.31,5.38,3.1s5.34-1.93,5.34-3.85V56.46Z"/><path class="cls-64" d="M34.55,53.25c-3.31.19-6,1.72-6,3.43s2.7,2.92,6,2.72,6-1.73,6-3.42S37.85,53.06,34.55,53.25Z"/><path class="cls-65" d="M34.55,53.62c-3.12.18-5.66,1.54-5.66,3S31.43,59.2,34.55,59s5.62-1.54,5.62-3S37.66,53.44,34.55,53.62Z"/><path class="cls-7" d="M34.56,72.5c-2.9.2-5.26,1.6-5.26,3.13a1.53,1.53,0,0,0,0,.16c.16-1.43,2.45-2.7,5.25-2.9s5.07.77,5.23,2.17a1.57,1.57,0,0,0,0-.16C39.79,73.38,37.45,72.3,34.56,72.5Z"/><path class="cls-8" d="M37.83,59.3V74.57a4.51,4.51,0,0,1-.72,2.92,3.65,3.65,0,0,0,2.51-2.39V58.21A6.36,6.36,0,0,1,37.83,59.3Z"/><path class="cls-9" d="M31.31,75V59.7a5.57,5.57,0,0,1-1.81-.88v17a3,3,0,0,0,2.54,2A4,4,0,0,1,31.31,75Z"/><path class="cls-66" d="M17.15,60.06V79.83c0,2.1,2.73,3.6,6.09,3.36s6-2.14,6-4.22V59.33Z"/><path class="cls-3" d="M17.5,59.11V79.24c0,2.12,2.58,3.65,5.74,3.42s5.7-2.12,5.7-4.23v-20Z"/><path class="cls-67" d="M17.79,60.42V78.74c0,1.94,2.44,3.33,5.45,3.11s5.42-2,5.41-3.88V59.77Z"/><path class="cls-68" d="M23.24,56.54c-3.36.2-6.09,1.75-6.09,3.46s2.73,2.94,6.09,2.73,6-1.75,6-3.46S26.58,56.34,23.24,56.54Z"/><path class="cls-69" d="M23.24,56.92c-3.16.19-5.73,1.56-5.73,3.06s2.57,2.57,5.73,2.37,5.69-1.56,5.69-3.06S26.39,56.73,23.24,56.92Z"/><path class="cls-7" d="M23.24,75.92c-2.94.2-5.33,1.62-5.33,3.16a1.53,1.53,0,0,0,0,.16c.16-1.44,2.49-2.73,5.32-2.93s5.13.77,5.29,2.17a1.57,1.57,0,0,0,0-.16C28.55,76.79,26.18,75.72,23.24,75.92Z"/><path class="cls-8" d="M26.56,62.63V78a4.53,4.53,0,0,1-.73,2.94,3.7,3.7,0,0,0,2.54-2.41v-17A6.47,6.47,0,0,1,26.56,62.63Z"/><path class="cls-9" d="M20,78.47V63a5.64,5.64,0,0,1-1.84-.88v17.1a3.07,3.07,0,0,0,2.57,2A4,4,0,0,1,20,78.47Z"/><path class="cls-70" d="M100.09,43.68l0,18.83c0,2,2.49,3.46,5.54,3.25s5.49-2,5.48-4l0-18.7Z"/><path class="cls-3" d="M100.4,42.78l0,19.17c0,2,2.35,3.5,5.22,3.31s5.18-2,5.17-4l0-19.06Z"/><path class="cls-71" d="M100.67,44l0,17.45c0,1.85,2.23,3.2,5,3s4.92-1.81,4.91-3.65l0-17.35Z"/><path class="cls-72" d="M105.61,40.38c-3,.16-5.52,1.61-5.52,3.24s2.49,2.82,5.53,2.65,5.49-1.62,5.48-3.24S108.64,40.22,105.61,40.38Z"/><path class="cls-73" d="M105.61,40.74c-2.87.15-5.2,1.43-5.2,2.86s2.34,2.47,5.21,2.31,5.17-1.44,5.17-2.86S108.47,40.59,105.61,40.74Z"/><path class="cls-7" d="M105.65,58.84c-2.67.17-4.84,1.49-4.84,3a1.53,1.53,0,0,0,0,.15c.14-1.37,2.25-2.57,4.83-2.74s4.66.78,4.81,2.12c0-.05,0-.1,0-.15C110.47,59.72,108.31,58.67,105.65,58.84Z"/><path class="cls-8" d="M108.64,46.21l0,14.64a4.42,4.42,0,0,1-.65,2.79,3.4,3.4,0,0,0,2.31-2.27l0-16.19A5.73,5.73,0,0,1,108.64,46.21Z"/><path class="cls-9" d="M102.66,61.24l0-14.69a5.08,5.08,0,0,1-1.67-.85L101,62a2.89,2.89,0,0,0,2.34,2A4,4,0,0,1,102.66,61.24Z"/><path class="cls-74" d="M89.62,46.79l0,18.95c0,2,2.52,3.47,5.61,3.26s5.56-2,5.55-4l0-18.82Z"/><path class="cls-3" d="M89.94,45.88l0,19.3c0,2,2.37,3.52,5.28,3.32s5.24-2,5.24-4l0-19.18Z"/><path class="cls-75" d="M90.21,47.14l0,17.56c0,1.86,2.25,3.21,5,3s5-1.83,5-3.68l0-17.46Z"/><path class="cls-76" d="M95.21,43.46c-3.09.16-5.59,1.63-5.59,3.27s2.52,2.83,5.6,2.66,5.56-1.64,5.55-3.27S98.28,43.29,95.21,43.46Z"/><path class="cls-77" d="M95.21,43.82c-2.91.16-5.27,1.45-5.27,2.89s2.37,2.48,5.28,2.31,5.24-1.46,5.23-2.89S98.11,43.67,95.21,43.82Z"/><path class="cls-7" d="M95.25,62c-2.7.17-4.9,1.51-4.9,3a1.53,1.53,0,0,0,0,.16c.15-1.38,2.28-2.6,4.89-2.76s4.72.77,4.87,2.12c0-.05,0-.1,0-.16C100.12,62.91,97.94,61.86,95.25,62Z"/><path class="cls-8" d="M98.28,49.32l0,14.73a4.44,4.44,0,0,1-.66,2.81A3.44,3.44,0,0,0,100,64.57l0-16.3A5.82,5.82,0,0,1,98.28,49.32Z"/><path class="cls-9" d="M92.22,64.45l0-14.79a5.15,5.15,0,0,1-1.69-.86l0,16.39a2.91,2.91,0,0,0,2.37,2A4,4,0,0,1,92.22,64.45Z"/><path class="cls-78" d="M79,49.48l0,19.07c0,2,2.55,3.49,5.68,3.27s5.63-2,5.62-4l0-18.94Z"/><path class="cls-3" d="M79.34,48.56l0,19.42c0,2,2.4,3.53,5.35,3.33s5.31-2,5.3-4L90,48Z"/><path class="cls-79" d="M79.61,49.83l0,17.67c0,1.87,2.28,3.23,5.08,3s5-1.85,5-3.71l0-17.57Z"/><path class="cls-80" d="M84.68,46.12c-3.12.17-5.66,1.65-5.66,3.3s2.55,2.85,5.67,2.67,5.63-1.66,5.62-3.3S87.79,45.95,84.68,46.12Z"/><path class="cls-81" d="M84.68,46.48c-2.94.16-5.33,1.47-5.33,2.92s2.4,2.49,5.34,2.32S90,50.24,90,48.8,87.61,46.32,84.68,46.48Z"/><path class="cls-7" d="M84.71,64.81c-2.74.18-5,1.53-5,3a1.53,1.53,0,0,0,0,.16c.15-1.38,2.31-2.62,5-2.79s4.78.77,4.93,2.13a1.57,1.57,0,0,0,0-.16C89.65,65.69,87.44,64.63,84.71,64.81Z"/><path class="cls-8" d="M87.78,52l0,14.83a4.45,4.45,0,0,1-.67,2.83,3.48,3.48,0,0,0,2.37-2.31l0-16.4A5.92,5.92,0,0,1,87.78,52Z"/><path class="cls-9" d="M81.65,67.25l0-14.88a5.22,5.22,0,0,1-1.71-.86l0,16.49a2.93,2.93,0,0,0,2.39,2A4,4,0,0,1,81.65,67.25Z"/><path class="cls-82" d="M68.28,52.9l0,19.19c0,2,2.58,3.51,5.75,3.28s5.7-2,5.7-4.07l0-19.06Z"/><path class="cls-3" d="M68.61,52l0,19.54c0,2.06,2.43,3.55,5.42,3.34s5.38-2,5.37-4.08l0-19.42Z"/><path class="cls-83" d="M68.88,53.25l0,17.79c0,1.88,2.31,3.24,5.14,3s5.1-1.88,5.1-3.75l0-17.68Z"/><path class="cls-84" d="M74,49.5c-3.16.18-5.74,1.67-5.73,3.33S70.86,55.69,74,55.5s5.7-1.68,5.7-3.33S77.17,49.32,74,49.5Z"/><path class="cls-85" d="M74,49.87c-3,.17-5.4,1.49-5.4,2.95S71,55.31,74,55.14s5.37-1.5,5.37-2.95S77,49.7,74,49.87Z"/><path class="cls-7" d="M74,68.31c-2.77.19-5,1.55-5,3a1.53,1.53,0,0,0,0,.16c.15-1.39,2.34-2.64,5-2.82s4.84.76,5,2.13a1.57,1.57,0,0,0,0-.16C79,69.19,76.81,68.13,74,68.31Z"/><path class="cls-8" d="M77.16,55.42l0,14.92a4.47,4.47,0,0,1-.68,2.85,3.52,3.52,0,0,0,2.4-2.33l0-16.5A6,6,0,0,1,77.16,55.42Z"/><path class="cls-9" d="M70.94,70.77l0-15a5.28,5.28,0,0,1-1.73-.86l0,16.6a3,3,0,0,0,2.42,2A4,4,0,0,1,70.94,70.77Z"/><path class="cls-86" d="M57.41,55.15l0,19.31c0,2.05,2.61,3.53,5.82,3.3S69,75.69,69,73.65l0-19.18Z"/><path class="cls-3" d="M57.74,54.22l0,19.67c0,2.07,2.46,3.57,5.49,3.35s5.44-2.06,5.44-4.12l0-19.55Z"/><path class="cls-87" d="M58,55.51l0,17.9c0,1.89,2.34,3.26,5.21,3.06s5.17-1.9,5.17-3.78l0-17.79Z"/><path class="cls-88" d="M63.21,51.73c-3.2.18-5.81,1.69-5.81,3.36S60,58,63.22,57.77,69,56.07,69,54.41,66.41,51.54,63.21,51.73Z"/><path class="cls-89" d="M63.21,52.1c-3,.17-5.47,1.5-5.47,3s2.46,2.51,5.48,2.33,5.44-1.51,5.44-3S66.22,51.92,63.21,52.1Z"/><path class="cls-7" d="M63.24,70.66c-2.81.19-5.09,1.57-5.09,3.08a1.53,1.53,0,0,0,0,.16c.15-1.4,2.37-2.66,5.08-2.84s4.9.76,5.06,2.14a1.57,1.57,0,0,0,0-.16C68.3,71.53,66,70.47,63.24,70.66Z"/><path class="cls-8" d="M66.39,57.69l0,15a4.48,4.48,0,0,1-.69,2.87,3.56,3.56,0,0,0,2.43-2.34l0-16.61A6.12,6.12,0,0,1,66.39,57.69Z"/><path class="cls-9" d="M60.1,73.14l0-15.07a5.36,5.36,0,0,1-1.75-.86l0,16.7a3,3,0,0,0,2.45,2A4,4,0,0,1,60.1,73.14Z"/><path class="cls-90" d="M46.39,58.42l0,19.44c0,2.07,2.65,3.55,5.89,3.31s5.85-2.1,5.85-4.15l0-19.31Z"/><path class="cls-3" d="M46.73,57.48l0,19.8c0,2.08,2.49,3.59,5.55,3.36s5.51-2.08,5.51-4.15l0-19.67Z"/><path class="cls-91" d="M47,58.77l0,18c0,1.91,2.37,3.28,5.27,3.07s5.24-1.92,5.23-3.81l0-17.91Z"/><path class="cls-92" d="M52.27,55c-3.25.19-5.88,1.71-5.88,3.4S49,61.24,52.28,61s5.85-1.72,5.84-3.4S55.51,54.77,52.27,55Z"/><path class="cls-93" d="M52.28,55.33c-3.06.18-5.54,1.53-5.54,3s2.49,2.52,5.55,2.34,5.51-1.53,5.51-3S55.32,55.15,52.28,55.33Z"/><path class="cls-7" d="M52.29,74c-2.85.2-5.16,1.59-5.16,3.11a1.53,1.53,0,0,0,0,.16c.16-1.41,2.4-2.68,5.15-2.87s5,.76,5.12,2.14a1.57,1.57,0,0,0,0-.16C57.42,74.88,55.13,73.82,52.29,74Z"/><path class="cls-8" d="M55.5,60.95l0,15.11a4.5,4.5,0,0,1-.7,2.89,3.6,3.6,0,0,0,2.46-2.36l0-16.72A6.22,6.22,0,0,1,55.5,60.95Z"/><path class="cls-9" d="M49.11,76.52V61.35a5.43,5.43,0,0,1-1.78-.87V77.29a3,3,0,0,0,2.49,2A4,4,0,0,1,49.11,76.52Z"/><path class="cls-94" d="M35.23,61.41V81c0,2.08,2.68,3.57,6,3.32s5.92-2.12,5.92-4.18l0-19.43Z"/><path class="cls-3" d="M35.58,60.46V80.39c0,2.1,2.52,3.61,5.63,3.38s5.59-2.11,5.58-4.19l0-19.8Z"/><path class="cls-95" d="M35.86,61.76V79.9c0,1.92,2.4,3.3,5.34,3.08s5.3-1.94,5.3-3.85l0-18Z"/><path class="cls-96" d="M41.19,57.91c-3.29.2-6,1.73-6,3.43s2.68,2.9,6,2.69,5.92-1.74,5.92-3.43S44.47,57.72,41.19,57.91Z"/><path class="cls-97" d="M41.19,58.29c-3.1.19-5.61,1.54-5.61,3s2.52,2.54,5.62,2.34,5.58-1.55,5.58-3S44.28,58.1,41.19,58.29Z"/><path class="cls-7" d="M41.21,77.1c-2.88.2-5.22,1.61-5.22,3.13a1.53,1.53,0,0,0,0,.16c.16-1.42,2.43-2.7,5.21-2.9s5,.75,5.19,2.14a1.57,1.57,0,0,0,0-.16C46.4,78,44.08,76.89,41.21,77.1Z"/><path class="cls-8" d="M44.45,63.94V79.15a4.52,4.52,0,0,1-.71,2.91,3.65,3.65,0,0,0,2.49-2.38V62.85A6.33,6.33,0,0,1,44.45,63.94Z"/><path class="cls-9" d="M38,79.62V64.35a5.5,5.5,0,0,1-1.8-.87V80.4a3,3,0,0,0,2.52,2A4,4,0,0,1,38,79.62Z"/><path class="cls-98" d="M23.93,64.75v19.7c0,2.09,2.71,3.58,6,3.33s6-2.15,6-4.22V64Z"/><path class="cls-3" d="M24.28,63.8V83.86c0,2.11,2.56,3.63,5.7,3.39s5.66-2.13,5.66-4.23V63.09Z"/><path class="cls-99" d="M24.57,65.11V83.36c0,1.93,2.43,3.31,5.41,3.09s5.37-2,5.37-3.88V64.43Z"/><path class="cls-100" d="M30,61.22c-3.33.2-6,1.76-6,3.46s2.71,2.92,6,2.7,6-1.76,6-3.46S33.29,61,30,61.22Z"/><path class="cls-101" d="M30,61.6c-3.14.19-5.69,1.57-5.69,3.06S26.84,67.21,30,67s5.65-1.57,5.65-3.06S33.1,61.41,30,61.6Z"/><path class="cls-7" d="M30,80.54c-2.92.21-5.29,1.63-5.29,3.17a1.53,1.53,0,0,0,0,.16c.16-1.43,2.47-2.72,5.28-2.93s5.09.75,5.25,2.15a1.57,1.57,0,0,0,0-.16C35.24,81.39,32.89,80.32,30,80.54Z"/><path class="cls-8" d="M33.27,67.28V82.6a4.54,4.54,0,0,1-.72,2.93,3.69,3.69,0,0,0,2.53-2.41V66.18A6.44,6.44,0,0,1,33.27,67.28Z"/><path class="cls-9" d="M26.71,83.08V67.71a5.58,5.58,0,0,1-1.82-.87v17a3,3,0,0,0,2.55,2A4,4,0,0,1,26.71,83.08Z"/><path class="cls-102" d="M106.74,48l0,18.76c0,2,2.47,3.44,5.49,3.23s5.45-2,5.44-4l0-18.63Z"/><path class="cls-3" d="M107.05,47.12l0,19.1c0,2,2.33,3.48,5.18,3.28s5.14-2,5.13-4l0-19Z"/><path class="cls-103" d="M107.32,48.37l0,17.38c0,1.84,2.21,3.18,4.92,3s4.88-1.82,4.87-3.65l0-17.28Z"/><path class="cls-104" d="M112.22,44.72c-3,.16-5.48,1.62-5.48,3.24s2.47,2.8,5.49,2.63,5.44-1.63,5.44-3.24S115.23,44.56,112.22,44.72Z"/><path class="cls-105" d="M112.22,45.08c-2.85.16-5.16,1.44-5.16,2.87s2.32,2.45,5.17,2.29,5.13-1.45,5.13-2.87S115.06,44.93,112.22,45.08Z"/><path class="cls-7" d="M112.26,63.11c-2.65.17-4.8,1.5-4.8,3a1.53,1.53,0,0,0,0,.15c.14-1.36,2.23-2.57,4.79-2.74s4.63.76,4.78,2.1c0-.05,0-.1,0-.15C117,64,114.9,62.94,112.26,63.11Z"/><path class="cls-8" d="M115.23,50.52l0,14.58a4.43,4.43,0,0,1-.65,2.78,3.4,3.4,0,0,0,2.29-2.27l0-16.13A5.7,5.7,0,0,1,115.23,50.52Z"/><path class="cls-9" d="M109.3,65.51l0-14.64a5,5,0,0,1-1.66-.85l0,16.22a2.86,2.86,0,0,0,2.32,2A4,4,0,0,1,109.3,65.51Z"/><path class="cls-106" d="M96.35,51.15l0,18.87c0,2,2.5,3.46,5.56,3.24s5.51-2,5.51-4l0-18.75Z"/><path class="cls-3" d="M96.67,50.24l0,19.22c0,2,2.36,3.5,5.24,3.29s5.2-2,5.2-4l0-19.1Z"/><path class="cls-107" d="M96.94,51.5,97,69c0,1.85,2.24,3.19,5,3s4.94-1.84,4.93-3.68l0-17.39Z"/><path class="cls-108" d="M101.9,47.81c-3.06.17-5.55,1.64-5.55,3.27s2.5,2.82,5.56,2.63,5.51-1.65,5.51-3.27S105,47.64,101.9,47.81Z"/><path class="cls-109" d="M101.9,48.18c-2.88.16-5.23,1.46-5.22,2.89s2.35,2.46,5.23,2.29,5.19-1.47,5.19-2.89S104.78,48,101.9,48.18Z"/><path class="cls-7" d="M101.94,66.32c-2.68.18-4.86,1.52-4.86,3a1.53,1.53,0,0,0,0,.15c.14-1.37,2.26-2.59,4.85-2.77s4.69.76,4.83,2.1c0-.05,0-.1,0-.15C106.78,67.18,104.62,66.14,101.94,66.32Z"/><path class="cls-8" d="M104.95,53.65l0,14.68a4.44,4.44,0,0,1-.66,2.8,3.44,3.44,0,0,0,2.32-2.29l0-16.23A5.79,5.79,0,0,1,104.95,53.65Z"/><path class="cls-9" d="M98.94,68.74l0-14.73a5.09,5.09,0,0,1-1.68-.85l0,16.33a2.88,2.88,0,0,0,2.35,2A4,4,0,0,1,98.94,68.74Z"/><path class="cls-110" d="M85.84,53.86l0,19c0,2,2.53,3.47,5.63,3.25s5.58-2,5.58-4l0-18.87Z"/><path class="cls-3" d="M86.16,52.94l0,19.35c0,2,2.38,3.51,5.31,3.3s5.27-2,5.26-4l0-19.22Z"/><path class="cls-111" d="M86.43,54.2l0,17.6c0,1.86,2.26,3.21,5,3s5-1.86,5-3.71l0-17.5Z"/><path class="cls-112" d="M91.45,50.49c-3.1.18-5.62,1.66-5.62,3.3s2.53,2.83,5.63,2.64S97,54.77,97,53.13,94.54,50.31,91.45,50.49Z"/><path class="cls-113" d="M91.45,50.85c-2.92.17-5.29,1.48-5.29,2.92s2.38,2.47,5.3,2.3,5.26-1.48,5.26-2.92S94.36,50.69,91.45,50.85Z"/><path class="cls-7" d="M91.49,69.11c-2.72.19-4.92,1.54-4.92,3a1.53,1.53,0,0,0,0,.16c.15-1.38,2.29-2.61,4.91-2.79s4.74.75,4.89,2.11c0-.05,0-.1,0-.16C96.39,70,94.2,68.93,91.49,69.11Z"/><path class="cls-8" d="M94.53,56.35l0,14.77a4.46,4.46,0,0,1-.67,2.82,3.48,3.48,0,0,0,2.35-2.3l0-16.34A5.89,5.89,0,0,1,94.53,56.35Z"/><path class="cls-9" d="M88.45,71.55l0-14.82a5.15,5.15,0,0,1-1.7-.85l0,16.43a2.9,2.9,0,0,0,2.38,2A4,4,0,0,1,88.45,71.55Z"/><path class="cls-114" d="M75.19,57.29l0,19.12c0,2,2.56,3.49,5.7,3.26s5.66-2.06,5.65-4.07l0-19Z"/><path class="cls-3" d="M75.51,56.36l0,19.47c0,2,2.41,3.53,5.37,3.31s5.33-2,5.33-4.08l0-19.35Z"/><path class="cls-115" d="M75.79,57.63l0,17.72c0,1.87,2.29,3.23,5.1,3S86,76.49,86,74.63l0-17.61Z"/><path class="cls-116" d="M80.87,53.89c-3.14.18-5.69,1.68-5.69,3.34s2.56,2.84,5.7,2.65,5.65-1.69,5.65-3.34S84,53.7,80.87,53.89Z"/><path class="cls-117" d="M80.87,54.25c-3,.17-5.36,1.5-5.36,3s2.41,2.48,5.37,2.3,5.33-1.5,5.32-2.95S83.82,54.08,80.87,54.25Z"/><path class="cls-7" d="M80.91,72.63c-2.75.19-5,1.56-5,3a1.53,1.53,0,0,0,0,.16c.15-1.39,2.32-2.63,5-2.82s4.8.75,5,2.11a1.57,1.57,0,0,0,0-.16C85.87,73.49,83.65,72.44,80.91,72.63Z"/><path class="cls-8" d="M84,59.78l0,14.86a4.47,4.47,0,0,1-.68,2.84,3.52,3.52,0,0,0,2.38-2.32l0-16.44A6,6,0,0,1,84,59.78Z"/><path class="cls-9" d="M77.83,75.09l0-14.92a5.22,5.22,0,0,1-1.72-.85l0,16.53a2.92,2.92,0,0,0,2.41,2A4,4,0,0,1,77.83,75.09Z"/><path class="cls-118" d="M64.4,59.56l0,19.24c0,2,2.59,3.51,5.77,3.27S75.92,80,75.92,78l0-19.11Z"/><path class="cls-3" d="M64.73,58.63l0,19.59c0,2.06,2.44,3.55,5.44,3.33s5.4-2.06,5.4-4.11l0-19.47Z"/><path class="cls-119" d="M65,59.91l0,17.83c0,1.89,2.32,3.24,5.17,3s5.13-1.9,5.13-3.78l0-17.72Z"/><path class="cls-120" d="M70.16,56.13c-3.18.19-5.76,1.7-5.76,3.37s2.59,2.86,5.77,2.66,5.72-1.71,5.72-3.36S73.33,55.94,70.16,56.13Z"/><path class="cls-121" d="M70.16,56.5c-3,.18-5.43,1.51-5.43,3s2.44,2.5,5.43,2.31,5.39-1.52,5.39-3S73.14,56.32,70.16,56.5Z"/><path class="cls-7" d="M70.19,75c-2.79.2-5.05,1.57-5,3.08a1.53,1.53,0,0,0,0,.16c.15-1.4,2.35-2.65,5-2.84s4.86.75,5,2.11a1.57,1.57,0,0,0,0-.16C75.21,75.85,73,74.8,70.19,75Z"/><path class="cls-8" d="M73.32,62.06l0,15a4.49,4.49,0,0,1-.68,2.86,3.55,3.55,0,0,0,2.41-2.34L75,61A6.08,6.08,0,0,1,73.32,62.06Z"/><path class="cls-9" d="M67.07,77.47l0-15a5.29,5.29,0,0,1-1.74-.86l0,16.64a2.94,2.94,0,0,0,2.44,2A4,4,0,0,1,67.07,77.47Z"/><path class="cls-122" d="M53.47,62.84l0,19.36c0,2.06,2.62,3.53,5.85,3.28s5.8-2.1,5.8-4.15l0-19.23Z"/><path class="cls-3" d="M53.81,61.9l0,19.72c0,2.08,2.47,3.57,5.51,3.34s5.47-2.09,5.47-4.15l0-19.6Z"/><path class="cls-123" d="M54.09,63.19l0,17.95c0,1.9,2.35,3.26,5.23,3s5.19-1.92,5.19-3.81l0-17.84Z"/><path class="cls-124" d="M59.31,59.38c-3.22.2-5.84,1.72-5.84,3.4s2.62,2.87,5.84,2.66,5.8-1.73,5.8-3.4S62.52,59.18,59.31,59.38Z"/><path class="cls-125" d="M59.31,59.75c-3,.19-5.5,1.53-5.5,3s2.47,2.51,5.5,2.31,5.46-1.54,5.46-3S62.33,59.56,59.31,59.75Z"/><path class="cls-7" d="M59.33,78.36c-2.82.2-5.12,1.59-5.11,3.11a1.53,1.53,0,0,0,0,.16c.15-1.41,2.38-2.68,5.11-2.87s4.93.74,5.08,2.12a1.57,1.57,0,0,0,0-.16C64.42,79.21,62.14,78.16,59.33,78.36Z"/><path class="cls-8" d="M62.5,65.34l0,15.06a4.51,4.51,0,0,1-.69,2.88,3.6,3.6,0,0,0,2.44-2.36l0-16.65A6.19,6.19,0,0,1,62.5,65.34Z"/><path class="cls-9" d="M56.17,80.86l0-15.11a5.36,5.36,0,0,1-1.76-.86l0,16.75a3,3,0,0,0,2.47,2A4,4,0,0,1,56.17,80.86Z"/><path class="cls-126" d="M42.41,65.85V85.34c0,2.07,2.66,3.54,5.92,3.29s5.88-2.13,5.87-4.18l0-19.36Z"/><path class="cls-3" d="M42.74,64.9l0,19.85c0,2.09,2.5,3.59,5.58,3.35s5.54-2.11,5.54-4.19l0-19.72Z"/><path class="cls-127" d="M43,66.2V84.26c0,1.91,2.38,3.28,5.3,3.05s5.26-1.95,5.26-3.84l0-18Z"/><path class="cls-128" d="M48.32,62.35c-3.26.2-5.91,1.74-5.91,3.43s2.66,2.89,5.92,2.67S54.2,66.7,54.19,65,51.57,62.15,48.32,62.35Z"/><path class="cls-129" d="M48.32,62.72c-3.07.19-5.57,1.55-5.57,3s2.5,2.52,5.57,2.32,5.53-1.56,5.53-3S51.38,62.53,48.32,62.72Z"/><path class="cls-7" d="M48.33,81.46c-2.86.21-5.18,1.61-5.18,3.14a1.53,1.53,0,0,0,0,.16c.16-1.42,2.41-2.7,5.17-2.9s5,.74,5.15,2.12a1.57,1.57,0,0,0,0-.16C53.49,82.31,51.18,81.25,48.33,81.46Z"/><path class="cls-8" d="M51.55,68.35V83.5a4.52,4.52,0,0,1-.7,2.9A3.64,3.64,0,0,0,53.33,84l0-16.76A6.29,6.29,0,0,1,51.55,68.35Z"/><path class="cls-9" d="M45.14,84V68.77a5.43,5.43,0,0,1-1.78-.86V84.77a3,3,0,0,0,2.5,2A4,4,0,0,1,45.14,84Z"/><path class="cls-130" d="M31.19,69.21V88.83c0,2.09,2.69,3.56,6,3.3s6-2.15,6-4.22l0-19.49Z"/><path class="cls-3" d="M31.54,68.26v20c0,2.1,2.54,3.61,5.65,3.36s5.61-2.14,5.61-4.23l0-19.85Z"/><path class="cls-131" d="M31.82,69.56V87.75c0,1.92,2.41,3.29,5.37,3.06s5.33-2,5.33-3.88V68.85Z"/><path class="cls-132" d="M37.18,65.68c-3.3.21-6,1.76-6,3.46s2.69,2.9,6,2.68,5.95-1.77,5.95-3.46S40.48,65.47,37.18,65.68Z"/><path class="cls-133" d="M37.18,66.05c-3.11.2-5.64,1.57-5.64,3.07s2.53,2.53,5.64,2.32,5.61-1.58,5.6-3.06S40.29,65.85,37.18,66.05Z"/><path class="cls-7" d="M37.2,84.91c-2.9.22-5.25,1.64-5.25,3.17a1.53,1.53,0,0,0,0,.16c.16-1.43,2.45-2.72,5.24-2.93s5.05.73,5.21,2.13a1.57,1.57,0,0,0,0-.16C42.42,85.75,40.08,84.7,37.2,84.91Z"/><path class="cls-8" d="M40.46,71.71V87a4.54,4.54,0,0,1-.71,2.92,3.68,3.68,0,0,0,2.5-2.4V70.6A6.4,6.4,0,0,1,40.46,71.71Z"/><path class="cls-9" d="M34,87.46V72.15a5.51,5.51,0,0,1-1.81-.86v17a3,3,0,0,0,2.53,2A4,4,0,0,1,34,87.46Z"/><path class="cls-134" d="M120.73,60.63c-.16-.3-3-.93-3-.93v.15s1,.14,0,.43L32.4,83.83s-.4.08-.6.1H31.3a3.24,3.24,0,0,1-1.82-.6S9.61,69.24,9.22,68.94s.56-.52.56-.52V68.3a17.22,17.22,0,0,0-2.14.54l1.52,5A3.71,3.71,0,0,0,11,77.26l19,15.5a3.62,3.62,0,0,0,2.06.78h0a3.92,3.92,0,0,0,.61,0l.15,0a4,4,0,0,0,.62-.13l84.42-25.66a2.53,2.53,0,0,0,2-2.36l.22-3.76C120.14,61.15,120.73,60.63,120.73,60.63Z"/><path class="cls-135" d="M8.11,68.92,28.86,84.35a3.46,3.46,0,0,0,3,.52l.29,9.29a3.86,3.86,0,0,1-3.54-.66L9.16,77.42a3.82,3.82,0,0,1-1.85-3.5l-.13-4.48A.6.6,0,0,1,8.11,68.92Z"/><path class="cls-136" d="M119.6,60.53,31.85,84.86a3.65,3.65,0,0,1-1.13.13v9.32a4.11,4.11,0,0,0,1.42-.16l87-25.24a2.6,2.6,0,0,0,2.1-2.42L121.5,62A1.46,1.46,0,0,0,119.6,60.53Z"/></svg>