<svg xmlns="http://www.w3.org/2000/svg" xmlns:xlink="http://www.w3.org/1999/xlink" viewbox="0 0 128 128" width="128" height="128"><defs><style>.cls-1,.cls-66{fill:none;stroke:none;}.cls-2{isolation:isolate;stroke:none;}.cls-3{fill:#fbbfa7;stroke:none;}.cls-4{fill:#f3ac93;stroke:none;}.cls-5{fill:#5a7fc0;stroke:none;}.cls-50,.cls-6{fill:#628eca;stroke:none;}.cls-6{opacity:0.48;stroke:none;}.cls-7{fill:url(#未命名的渐变_14);stroke:none;}.cls-8{fill:url(#未命名的渐变_167);stroke:none;}.cls-9{fill:url(#未命名的渐变_38);stroke:none;}.cls-10{fill:url(#未命名的渐变_20);stroke:none;}.cls-11{fill:url(#未命名的渐变_43);stroke:none;}.cls-12{fill:url(#未命名的渐变_67);stroke:none;}.cls-13{fill:url(#未命名的渐变_411);stroke:none;}.cls-14{fill:url(#未命名的渐变_388);stroke:none;}.cls-15{fill:#e8f4f7;stroke:none;}.cls-16{fill:url(#未命名的渐变_403);stroke:none;}.cls-17{fill:#d1e1e7;stroke:none;}.cls-18{fill:url(#未命名的渐变_119);stroke:none;}.cls-19{fill:#479798;stroke:none;}.cls-20{fill:#6b7e84;stroke:none;}.cls-20,.cls-29,.cls-32,.cls-66,.cls-72,.cls-76{mix-blend-mode:multiply;stroke:none;}.cls-21{fill:#2c4c53;stroke:none;}.cls-22{fill:url(#未命名的渐变_181);stroke:none;}.cls-23{fill:#82b7bc;stroke:none;}.cls-24{fill:url(#未命名的渐变_92);stroke:none;}.cls-25{fill:url(#未命名的渐变_92-2);stroke:none;}.cls-26{fill:url(#未命名的渐变_92-3);stroke:none;}.cls-27{fill:url(#未命名的渐变_140);stroke:none;}.cls-28{fill:#a8c5c8;stroke:none;}.cls-29{fill:#88b8b9;opacity:0.35;stroke:none;}.cls-30{fill:url(#未命名的渐变_290);stroke:none;}.cls-31{fill:url(#未命名的渐变_268);stroke:none;}.cls-32,.cls-85{opacity:0.44;stroke:none;}.cls-33{clip-path:url(#clip-path);stroke:none;}.cls-34{fill:#109b8f;stroke:none;}.cls-35{fill:#3f7b7e;stroke:none;}.cls-36{fill:url(#未命名的渐变_173);stroke:none;}.cls-37{fill:url(#linear-gradient);stroke:none;}.cls-38{fill:url(#未命名的渐变_232);stroke:none;}.cls-39{fill:#2aaae2;stroke:none;}.cls-40{fill:#8ad3de;stroke:none;}.cls-41{fill:url(#未命名的渐变_191);stroke:none;}.cls-42{fill:url(#未命名的渐变_467);stroke:none;}.cls-43{fill:#010101;stroke:none;}.cls-44{fill:url(#未命名的渐变_68);stroke:none;}.cls-45{opacity:0.83;stroke:none;}.cls-46,.cls-85{fill:#fff;stroke:none;}.cls-47{fill:url(#未命名的渐变_140-2);stroke:none;}.cls-48{fill:#c4dee2;stroke:none;}.cls-49{fill:#30817d;stroke:none;}.cls-51{fill:#5bc0ed;stroke:none;}.cls-52{fill:#445aa8;stroke:none;}.cls-53{fill:#4f6eb0;stroke:none;}.cls-54{fill:#5167b0;stroke:none;}.cls-55{fill:#2a499d;stroke:none;}.cls-56,.cls-69,.cls-71,.cls-72,.cls-73,.cls-75,.cls-76,.cls-84{fill:#deecf7;stroke:none;}.cls-56,.cls-66,.cls-69,.cls-70,.cls-71,.cls-72,.cls-73,.cls-74,.cls-75,.cls-76{stroke:#bce0f5;}.cls-56,.cls-66,.cls-69,.cls-70,.cls-71,.cls-72,.cls-73,.cls-74,.cls-75,.cls-76,.cls-83,.cls-84{stroke-linecap:round;stroke-linejoin:round;}.cls-56,.cls-66,.cls-83,.cls-84{stroke-width:0.45px;}.cls-57{fill:#c4c6c8;stroke:none;}.cls-58{fill:#67686b;stroke:none;}.cls-59{fill:#7b7c7f;stroke:none;}.cls-60{fill:url(#linear-gradient-2);stroke:none;}.cls-61{fill:url(#linear-gradient-3);stroke:none;}.cls-62,.cls-79{opacity:0.53;stroke:none;}.cls-62{fill:url(#linear-gradient-4);stroke:none;}.cls-63{fill:url(#未命名的渐变_22);stroke:none;}.cls-64{fill:url(#未命名的渐变_254);stroke:none;}.cls-65{fill:url(#未命名的渐变_8);stroke:none;}.cls-67{fill:url(#未命名的渐变_520);stroke:none;}.cls-68{fill:url(#未命名的渐变_549);stroke:none;}.cls-69,.cls-70,.cls-71,.cls-72{stroke-width:0.06px;}.cls-69,.cls-83{opacity:0.69;stroke:none;}.cls-70{fill:#bce0f5;stroke:none;}.cls-70,.cls-74{opacity:0.4;stroke:none;}.cls-73,.cls-74,.cls-75,.cls-76{stroke-width:0.06px;}.cls-73{opacity:0.62;stroke:none;}.cls-74{fill:#bfe1f5;stroke:none;}.cls-77{fill:url(#linear-gradient-5);stroke:none;}.cls-78{fill:url(#linear-gradient-6);stroke:none;}.cls-79{fill:url(#linear-gradient-7);stroke:none;}.cls-80{fill:url(#未命名的渐变_22-2);stroke:none;}.cls-81{fill:url(#未命名的渐变_254-2);stroke:none;}.cls-82{fill:url(#未命名的渐变_8-2);stroke:none;}.cls-83{fill:#c4e3f6;stroke:#8ad0f2;}.cls-84{stroke:#afdbf4;opacity:0.52;}</style><linearGradient id="&#x672A;&#x547D;&#x540D;&#x7684;&#x6E10;&#x53D8;_14" x1="-40.95" y1="-277.73" x2="-38.67" y2="-277.73" gradienttransform="translate(-83.05 287.69) rotate(40)" gradientunits="userSpaceOnUse"><stop offset="0" stop-color="#9b9c9c"/><stop offset="0.25" stop-color="#d7d8d9"/><stop offset="0.36" stop-color="#d2d3d4"/><stop offset="0.5" stop-color="#c3c4c5"/><stop offset="0.65" stop-color="#aaabab"/><stop offset="0.81" stop-color="#888"/><stop offset="0.98" stop-color="#5c5c5c"/><stop offset="1" stop-color="#575757"/></linearGradient><linearGradient id="&#x672A;&#x547D;&#x540D;&#x7684;&#x6E10;&#x53D8;_167" x1="-40.95" y1="-279.53" x2="-38.67" y2="-279.53" gradienttransform="translate(-83.05 287.69) rotate(40)" gradientunits="userSpaceOnUse"><stop offset="0" stop-color="#ccc"/><stop offset="0.25" stop-color="#f3f3f3"/><stop offset="0.36" stop-color="#eee"/><stop offset="0.5" stop-color="#dfdfdf"/><stop offset="0.66" stop-color="#c5c5c5"/><stop offset="0.82" stop-color="#a2a2a2"/><stop offset="0.99" stop-color="#767676"/><stop offset="1" stop-color="#737373"/></linearGradient><linearGradient id="&#x672A;&#x547D;&#x540D;&#x7684;&#x6E10;&#x53D8;_38" x1="-40.59" y1="-265.98" x2="-39.46" y2="-265.98" gradienttransform="translate(-83.05 287.69) rotate(40)" gradientunits="userSpaceOnUse"><stop offset="0" stop-color="#8b8b8c"/><stop offset="0" stop-color="#8c8c8d"/><stop offset="0.12" stop-color="#c5c5c6"/><stop offset="0.2" stop-color="#e9e9e9"/><stop offset="0.25" stop-color="#f6f6f6"/><stop offset="0.55" stop-color="#f4f4f4"/><stop offset="0.66" stop-color="#ededed"/><stop offset="0.74" stop-color="#e2e2e2"/><stop offset="0.8" stop-color="#d1d1d1"/><stop offset="0.86" stop-color="#bbb"/><stop offset="0.91" stop-color="#9f9f9f"/><stop offset="0.95" stop-color="#7f7f7f"/><stop offset="0.99" stop-color="#5b5b5b"/><stop offset="1" stop-color="#4f4f4f"/></linearGradient><linearGradient id="&#x672A;&#x547D;&#x540D;&#x7684;&#x6E10;&#x53D8;_20" x1="-40.59" y1="-269.2" x2="-39.46" y2="-269.2" gradienttransform="translate(-83.05 287.69) rotate(40)" gradientunits="userSpaceOnUse"><stop offset="0" stop-color="#c0bfbf"/><stop offset="0.25" stop-color="#e0e1e1"/><stop offset="0.41" stop-color="#dbdcdc"/><stop offset="0.6" stop-color="#cccdcd"/><stop offset="0.82" stop-color="#b3b4b4"/><stop offset="1" stop-color="#999"/></linearGradient><linearGradient id="&#x672A;&#x547D;&#x540D;&#x7684;&#x6E10;&#x53D8;_43" x1="-69.5" y1="-319.07" x2="-66.48" y2="-319.07" gradienttransform="matrix(0.77, 0.64, -0.63, 0.78, -77.49, 333.96)" gradientunits="userSpaceOnUse"><stop offset="0" stop-color="#a3a3a3"/><stop offset="0.07" stop-color="#ababac"/><stop offset="0.33" stop-color="#c3c4c5"/><stop offset="0.56" stop-color="#d2d3d4"/><stop offset="0.75" stop-color="#d7d8d9"/><stop offset="1" stop-color="#9b9c9c"/></linearGradient><linearGradient id="&#x672A;&#x547D;&#x540D;&#x7684;&#x6E10;&#x53D8;_67" x1="-69.5" y1="-319.24" x2="-66.48" y2="-319.24" gradienttransform="matrix(0.77, 0.64, -0.63, 0.78, -77.49, 333.96)" gradientunits="userSpaceOnUse"><stop offset="0" stop-color="#c9cacb"/><stop offset="0.25" stop-color="#fff"/><stop offset="0.37" stop-color="#dcdcdc"/><stop offset="0.55" stop-color="#afafaf"/><stop offset="0.64" stop-color="#9e9e9e"/><stop offset="0.77" stop-color="#acacac"/><stop offset="1" stop-color="#ccc"/></linearGradient><linearGradient id="&#x672A;&#x547D;&#x540D;&#x7684;&#x6E10;&#x53D8;_411" x1="-70.12" y1="-320.05" x2="-65.88" y2="-320.05" gradienttransform="matrix(0.77, 0.64, -0.63, 0.78, -77.49, 333.96)" gradientunits="userSpaceOnUse"><stop offset="0" stop-color="#4fc2c0"/><stop offset="0.68" stop-color="#2a8385"/><stop offset="1" stop-color="#176468"/></linearGradient><linearGradient id="&#x672A;&#x547D;&#x540D;&#x7684;&#x6E10;&#x53D8;_388" x1="-71.01" y1="-320.53" x2="-64.72" y2="-320.53" gradienttransform="matrix(0.77, 0.64, -0.63, 0.78, -77.49, 333.96)" gradientunits="userSpaceOnUse"><stop offset="0.01" stop-color="#a1c9c8"/><stop offset="0.06" stop-color="#9fcccc"/><stop offset="0.12" stop-color="#98d6d8"/><stop offset="0.12" stop-color="#97d7d9"/><stop offset="0.29" stop-color="#91d5dc"/><stop offset="0.67" stop-color="#529ba0"/><stop offset="1" stop-color="#176468"/></linearGradient><linearGradient id="&#x672A;&#x547D;&#x540D;&#x7684;&#x6E10;&#x53D8;_403" x1="-85.52" y1="-333.54" x2="-66.64" y2="-333.54" gradienttransform="translate(-76.81 334.53) rotate(40)" gradientunits="userSpaceOnUse"><stop offset="0" stop-color="#7bb1ba"/><stop offset="0.36" stop-color="#b6d9dd"/><stop offset="0.56" stop-color="#d3edee"/><stop offset="0.62" stop-color="#c0e2e4"/><stop offset="0.71" stop-color="#a4d1d4"/><stop offset="0.8" stop-color="#90c5c9"/><stop offset="0.9" stop-color="#84bdc2"/><stop offset="0.99" stop-color="#80bbc0"/></linearGradient><linearGradient id="&#x672A;&#x547D;&#x540D;&#x7684;&#x6E10;&#x53D8;_119" x1="-71.24" y1="-348.12" x2="-63.37" y2="-348.12" gradienttransform="matrix(0.77, 0.64, -0.63, 0.78, -77.49, 333.96)" gradientunits="userSpaceOnUse"><stop offset="0.01" stop-color="#97bac2"/><stop offset="0.14" stop-color="#9abec6"/><stop offset="0.26" stop-color="#a1c9d2"/><stop offset="0.29" stop-color="#a4cdd6"/><stop offset="0.41" stop-color="#96c5cd"/><stop offset="0.63" stop-color="#73afb6"/><stop offset="0.93" stop-color="#398b92"/><stop offset="1" stop-color="#2a8288"/></linearGradient><linearGradient id="&#x672A;&#x547D;&#x540D;&#x7684;&#x6E10;&#x53D8;_181" x1="-76.93" y1="-348.11" x2="-71.42" y2="-348.11" gradienttransform="translate(-76.81 334.53) rotate(40)" gradientunits="userSpaceOnUse"><stop offset="0" stop-color="#7ab9b7"/><stop offset="0.1" stop-color="#88c4bf"/><stop offset="0.23" stop-color="#9fd7cd"/><stop offset="0.39" stop-color="#83c3ba"/><stop offset="0.72" stop-color="#3e928a"/><stop offset="1" stop-color="#00665f"/></linearGradient><linearGradient id="&#x672A;&#x547D;&#x540D;&#x7684;&#x6E10;&#x53D8;_92" x1="-68.45" y1="-346.21" x2="-68.04" y2="-346.21" gradienttransform="matrix(0, 1, -1, 0.02, -258.07, 95.28)" gradientunits="userSpaceOnUse"><stop offset="0" stop-color="#004c50"/><stop offset="0.13" stop-color="#055054"/><stop offset="0.3" stop-color="#145c5f"/><stop offset="0.49" stop-color="#2e7072"/><stop offset="0.68" stop-color="#518b8d"/><stop offset="0.88" stop-color="#7daeae"/><stop offset="1" stop-color="#9ac4c4"/></linearGradient><linearGradient id="&#x672A;&#x547D;&#x540D;&#x7684;&#x6E10;&#x53D8;_92-2" x1="-64.35" y1="-347.52" x2="-63.93" y2="-347.52" gradienttransform="matrix(0, 1, -1, 0.02, -255.41, 92.82)" xlink:href="#&#x672A;&#x547D;&#x540D;&#x7684;&#x6E10;&#x53D8;_92"><linearGradient id="&#x672A;&#x547D;&#x540D;&#x7684;&#x6E10;&#x53D8;_92-3" x1="-70.81" y1="-348.71" x2="-70.4" y2="-348.71" gradienttransform="matrix(0, 1, -1, 0.02, -260.81, 94.22)" xlink:href="#&#x672A;&#x547D;&#x540D;&#x7684;&#x6E10;&#x53D8;_92"><linearGradient id="&#x672A;&#x547D;&#x540D;&#x7684;&#x6E10;&#x53D8;_140" x1="-69.9" y1="-349.06" x2="-64.52" y2="-349.06" gradienttransform="matrix(0.77, 0.64, -0.63, 0.78, -77.49, 333.96)" gradientunits="userSpaceOnUse"><stop offset="0.01" stop-color="#afcbce"/><stop offset="0.04" stop-color="#b1cfd1"/><stop offset="0.07" stop-color="#b6dadb"/><stop offset="0.15" stop-color="#c4e3e7"/><stop offset="0.26" stop-color="#dcf2fd"/><stop offset="0.4" stop-color="#bfe0ea"/><stop offset="0.7" stop-color="#77b2ba"/><stop offset="1" stop-color="#2a8288"/></linearGradient><linearGradient id="&#x672A;&#x547D;&#x540D;&#x7684;&#x6E10;&#x53D8;_290" x1="-67.78" y1="-338.48" x2="-66.7" y2="-338.48" gradienttransform="translate(-76.81 334.53) rotate(40)" gradientunits="userSpaceOnUse"><stop offset="0" stop-color="#d89140"/><stop offset="0.25" stop-color="#fff799"/><stop offset="0.35" stop-color="#faf295"/><stop offset="0.49" stop-color="#ece38b"/><stop offset="0.63" stop-color="#d6c979"/><stop offset="0.78" stop-color="#b6a661"/><stop offset="0.94" stop-color="#8d7a41"/><stop offset="1" stop-color="#7d6835"/></linearGradient><linearGradient id="&#x672A;&#x547D;&#x540D;&#x7684;&#x6E10;&#x53D8;_268" x1="-61.55" y1="-338.23" x2="-60.42" y2="-338.23" gradienttransform="matrix(0.77, 0.64, -0.63, 0.78, -77.49, 333.96)" gradientunits="userSpaceOnUse"><stop offset="0" stop-color="#d89140"/><stop offset="0.25" stop-color="#decd5f"/><stop offset="0.43" stop-color="#dac85b"/><stop offset="0.65" stop-color="#cfb951"/><stop offset="0.89" stop-color="#bca040"/><stop offset="1" stop-color="#b29237"/></linearGradient><clippath id="clip-path"><path class="cls-1" d="M90.26,15.76l-.68.83c-.46.57.08,1.81,1.22,2.76s2.43,1.26,2.9.69l.68-.84Z"/></clippath><linearGradient id="&#x672A;&#x547D;&#x540D;&#x7684;&#x6E10;&#x53D8;_173" x1="-76.56" y1="-351.77" x2="-71.92" y2="-351.77" gradienttransform="translate(-76.81 334.53) rotate(40)" gradientunits="userSpaceOnUse"><stop offset="0" stop-color="#7ab9b7"/><stop offset="0.17" stop-color="#6cb0ad"/><stop offset="0.48" stop-color="#499793"/><stop offset="0.9" stop-color="#0f706a"/><stop offset="1" stop-color="#00665f"/></linearGradient><linearGradient id="linear-gradient" x1="-69.5" y1="-352.65" x2="-64.92" y2="-352.65" gradienttransform="matrix(0.77, 0.64, -0.63, 0.78, -77.49, 333.96)" gradientunits="userSpaceOnUse"><stop offset="0" stop-color="#bbb"/><stop offset="0" stop-color="#b1b1b1"/><stop offset="0.01" stop-color="#9b9b9b"/><stop offset="0.01" stop-color="#8b8b8b"/><stop offset="0.02" stop-color="#7f7f7f"/><stop offset="0.03" stop-color="#787878"/><stop offset="0.05" stop-color="#767676"/><stop offset="0.1" stop-color="#b5b6b6"/><stop offset="0.19" stop-color="#fff"/><stop offset="0.31" stop-color="#a3a3a2"/><stop offset="0.37" stop-color="#c2c2c2"/><stop offset="0.41" stop-color="#908f8f"/><stop offset="0.55" stop-color="#aeaeae"/><stop offset="0.6" stop-color="#cfd0d0"/><stop offset="0.77" stop-color="#c8c7c6"/><stop offset="0.87" stop-color="#676767"/><stop offset="0.92" stop-color="#bbb"/><stop offset="0.95" stop-color="#8c8c8c"/><stop offset="1" stop-color="#9e9e9e"/></linearGradient><linearGradient id="&#x672A;&#x547D;&#x540D;&#x7684;&#x6E10;&#x53D8;_232" x1="-77.16" y1="-354.85" x2="-71.43" y2="-354.85" gradienttransform="translate(-76.81 334.53) rotate(40)" gradientunits="userSpaceOnUse"><stop offset="0" stop-color="#1072ba"/><stop offset="0.24" stop-color="#1072ba"/><stop offset="1" stop-color="#00397c"/></linearGradient><linearGradient id="&#x672A;&#x547D;&#x540D;&#x7684;&#x6E10;&#x53D8;_191" x1="-71.22" y1="-349.95" x2="-63.4" y2="-346.27" gradienttransform="matrix(0.77, 0.64, -0.63, 0.78, -77.49, 333.96)" gradientunits="userSpaceOnUse"><stop offset="0.01" stop-color="#97bac2"/><stop offset="0.07" stop-color="#9abec5"/><stop offset="0.13" stop-color="#a2cace"/><stop offset="0.18" stop-color="#afdedc"/><stop offset="0.18" stop-color="#b0dfdd"/><stop offset="0.37" stop-color="#b0d1d1"/><stop offset="0.67" stop-color="#b1b3b6"/><stop offset="0.88" stop-color="#5d9499"/><stop offset="1" stop-color="#2a8288"/></linearGradient><linearGradient id="&#x672A;&#x547D;&#x540D;&#x7684;&#x6E10;&#x53D8;_467" x1="75.6" y1="37.18" x2="87.84" y2="37.18" gradientunits="userSpaceOnUse"><stop offset="0" stop-color="#81c8cb"/><stop offset="0.27" stop-color="#56afb4"/><stop offset="0.6" stop-color="#28959b"/><stop offset="0.85" stop-color="#0b848b"/><stop offset="1" stop-color="#007e85"/></linearGradient><linearGradient id="&#x672A;&#x547D;&#x540D;&#x7684;&#x6E10;&#x53D8;_68" x1="-43.46" y1="-133.58" x2="-41.01" y2="-133.58" gradienttransform="matrix(0.94, 0.44, -0.63, 0.77, 37.55, 157.73)" gradientunits="userSpaceOnUse"><stop offset="0" stop-color="#ccc"/><stop offset="0.25" stop-color="#010101"/><stop offset="0.34" stop-color="#060606"/><stop offset="0.44" stop-color="#161616"/><stop offset="0.56" stop-color="#2f2f2f"/><stop offset="0.69" stop-color="#525252"/><stop offset="0.82" stop-color="#7f7f7f"/><stop offset="0.96" stop-color="#b5b5b5"/><stop offset="1" stop-color="#c7c7c7"/></linearGradient><linearGradient id="&#x672A;&#x547D;&#x540D;&#x7684;&#x6E10;&#x53D8;_140-2" x1="-78.13" y1="-322.66" x2="-67.05" y2="-322.66" gradienttransform="translate(-76.81 334.53) rotate(40)" xlink:href="#&#x672A;&#x547D;&#x540D;&#x7684;&#x6E10;&#x53D8;_140"><linearGradient id="linear-gradient-2" x1="46.21" y1="63.04" x2="80.15" y2="63.04" gradienttransform="matrix(1, -0.02, 0, 1, 0, -2.11)" xlink:href="#linear-gradient"><linearGradient id="linear-gradient-3" x1="2287.91" y1="-123.7" x2="2292.06" y2="-123.7" gradienttransform="matrix(0.32, -0.03, -0.01, 0.73, -675.31, 203.46)" gradientunits="userSpaceOnUse"><stop offset="0" stop-color="#969696"/><stop offset="0.09" stop-color="#9a9a9a"/><stop offset="0.18" stop-color="#a6a6a6"/><stop offset="0.28" stop-color="#bbb"/><stop offset="0.29" stop-color="#bdbdbd"/><stop offset="0.46" stop-color="#a1a1a1"/><stop offset="0.82" stop-color="#696969"/><stop offset="1" stop-color="#535353"/></linearGradient><linearGradient id="linear-gradient-4" x1="2287.91" y1="-123.7" x2="2292.06" y2="-123.7" gradienttransform="matrix(0.32, -0.03, -0.01, 0.73, -675.31, 203.46)" gradientunits="userSpaceOnUse"><stop offset="0" stop-color="#d4d4d4"/><stop offset="0.11" stop-color="#d8d8d8"/><stop offset="0.23" stop-color="#e4e4e4"/><stop offset="0.29" stop-color="#ededee"/><stop offset="0.55" stop-color="#dededf"/><stop offset="1" stop-color="#c9c9c9"/></linearGradient><linearGradient id="&#x672A;&#x547D;&#x540D;&#x7684;&#x6E10;&#x53D8;_22" x1="2289.94" y1="-124.58" x2="2290.92" y2="-124.58" gradienttransform="matrix(0.32, -0.03, -0.01, 0.73, -675.31, 203.46)" gradientunits="userSpaceOnUse"><stop offset="0" stop-color="#dedfe0"/><stop offset="0.46" stop-color="#dadbdc"/><stop offset="0.93" stop-color="#cecfd1"/><stop offset="1" stop-color="#cbccce"/></linearGradient><linearGradient id="&#x672A;&#x547D;&#x540D;&#x7684;&#x6E10;&#x53D8;_254" x1="2288.23" y1="-124.62" x2="2291.68" y2="-124.62" gradienttransform="matrix(0.32, -0.03, -0.01, 0.73, -675.31, 203.46)" gradientunits="userSpaceOnUse"><stop offset="0" stop-color="#7f8285"/><stop offset="0.33" stop-color="#7b7e81"/><stop offset="0.66" stop-color="#707375"/><stop offset="1" stop-color="#5e6060"/><stop offset="1" stop-color="#5e6060"/></linearGradient><linearGradient id="&#x672A;&#x547D;&#x540D;&#x7684;&#x6E10;&#x53D8;_8" x1="2291.69" y1="-124.6" x2="2289.08" y2="-124.75" gradienttransform="matrix(0.32, -0.03, -0.01, 0.73, -675.31, 203.46)" gradientunits="userSpaceOnUse"><stop offset="0" stop-color="#95979a"/><stop offset="0.2" stop-color="#919396"/><stop offset="0.41" stop-color="#85878a"/><stop offset="0.62" stop-color="#727375"/><stop offset="0.83" stop-color="#575859"/><stop offset="1" stop-color="#3b3c3c"/></linearGradient><linearGradient id="&#x672A;&#x547D;&#x540D;&#x7684;&#x6E10;&#x53D8;_520" x1="50.22" y1="104.46" x2="55.03" y2="125.26" gradientunits="userSpaceOnUse"><stop offset="0" stop-color="#7ea6d7"/><stop offset="0.12" stop-color="#88b0db"/><stop offset="0.15" stop-color="#8bb4dc"/><stop offset="0.31" stop-color="#7ca4d0"/><stop offset="0.61" stop-color="#557cb0"/><stop offset="0.79" stop-color="#3a5f9a"/><stop offset="0.87" stop-color="#3b619e"/><stop offset="0.95" stop-color="#3e68aa"/><stop offset="1" stop-color="#416eb6"/></linearGradient><linearGradient id="&#x672A;&#x547D;&#x540D;&#x7684;&#x6E10;&#x53D8;_549" x1="73.65" y1="119.84" x2="86.71" y2="99.72" gradientunits="userSpaceOnUse"><stop offset="0" stop-color="#618ec7"/><stop offset="0.22" stop-color="#5d89c3"/><stop offset="0.46" stop-color="#527cb6"/><stop offset="0.71" stop-color="#4066a1"/><stop offset="0.77" stop-color="#3a5f9a"/><stop offset="0.86" stop-color="#3b619e"/><stop offset="0.94" stop-color="#3e68aa"/><stop offset="1" stop-color="#416eb6"/></linearGradient><linearGradient id="linear-gradient-5" x1="36.9" y1="68.72" x2="70.84" y2="68.72" gradienttransform="matrix(1, 0, 0, 1, 0, 0)" xlink:href="#linear-gradient"><linearGradient id="linear-gradient-6" x1="2258.61" y1="-115.68" x2="2262.76" y2="-115.68" gradienttransform="matrix(0.32, -0.02, -0.01, 0.73, -675.31, 192.98)" xlink:href="#linear-gradient-3"><linearGradient id="linear-gradient-7" x1="2258.61" y1="-115.68" x2="2262.76" y2="-115.68" gradienttransform="matrix(0.32, -0.02, -0.01, 0.73, -675.31, 192.98)" xlink:href="#linear-gradient-4"><linearGradient id="&#x672A;&#x547D;&#x540D;&#x7684;&#x6E10;&#x53D8;_22-2" x1="2260.64" y1="-116.56" x2="2261.63" y2="-116.56" gradienttransform="matrix(0.32, -0.02, -0.01, 0.73, -675.31, 192.98)" xlink:href="#&#x672A;&#x547D;&#x540D;&#x7684;&#x6E10;&#x53D8;_22"><linearGradient id="&#x672A;&#x547D;&#x540D;&#x7684;&#x6E10;&#x53D8;_254-2" x1="2258.94" y1="-116.6" x2="2262.39" y2="-116.6" gradienttransform="matrix(0.32, -0.02, -0.01, 0.73, -675.31, 192.98)" xlink:href="#&#x672A;&#x547D;&#x540D;&#x7684;&#x6E10;&#x53D8;_254"><linearGradient id="&#x672A;&#x547D;&#x540D;&#x7684;&#x6E10;&#x53D8;_8-2" x1="2262.4" y1="-116.58" x2="2259.79" y2="-116.73" gradienttransform="matrix(0.32, -0.02, -0.01, 0.73, -675.31, 192.98)" xlink:href="#&#x672A;&#x547D;&#x540D;&#x7684;&#x6E10;&#x53D8;_8"/></linearGradient></linearGradient></linearGradient></linearGradient></linearGradient></linearGradient></linearGradient></linearGradient></linearGradient></defs><title>&#x751F;&#x7269;&#x4EEA;&#x5668;</title><g class="cls-2"><g id="Bio_instruments&#x751F;&#x7269;&#x4EEA;&#x5668;" data-name="Bio instruments&#x751F;&#x7269;&#x4EEA;&#x5668;"><path class="cls-3" d="M89.94,52.53l2.13,4.21s.16.49,1.39.61a9,9,0,0,0,6.88-1.95c3.23-2.37,4-5.37,3.72-5.72S100.84,45,100.84,45Z"/><path class="cls-4" d="M97.1,50.42A14.9,14.9,0,0,0,101.57,46L100.84,45l-10.9,7.56.17.34A15.51,15.51,0,0,0,97.1,50.42Z"/><path class="cls-5" d="M77.91,24.26s.35.9-.52.86-.33,2.81-.78,3.76-1.73,1.4-1.38,2a39.89,39.89,0,0,1,3,5.28,18.53,18.53,0,0,0,2.82,5.75c1,1.2,5.12,3.6,5.57,4.58a9,9,0,0,0,1.55,2.25,17.33,17.33,0,0,1,1.15,2.76c.27.51.72.88,1.11.84a33.81,33.81,0,0,0,6.74-3.21,28.08,28.08,0,0,0,3.75-3.92,3.94,3.94,0,0,0-.52-1c-.25-.26-.55-1.3-.71-1.42s-.51-.35-.33-.74a1.57,1.57,0,0,0-.3-1.54,2.07,2.07,0,0,1-.57-1.65,10,10,0,0,0-1.22-4.53c-1.09-2.21-2.83-9.46-3.57-10.4s-1.59-1-1.7-1.4-1.52.36-2.3.26a3.32,3.32,0,0,0-2.19.29,4.32,4.32,0,0,0-.64.92s-.83-2.41-1.38-2.57a3.07,3.07,0,0,0-2.37,0A4.23,4.23,0,0,0,82,23.37a3.37,3.37,0,0,0-3-.86A1.73,1.73,0,0,0,77.91,24.26Z"/><path class="cls-6" d="M79.12,36.68s1.72,4.29,4.63,6,9.55-2.38,8.66-4.53-4.86-.29-7.95-1.63-3.8-1-4.21-.75S79.12,36.68,79.12,36.68Z"/><path class="cls-7" d="M59,56.09h0c-.39-.33,1-2.7,1.33-3l9.31-10.45a.87.87,0,0,1,1.22,0h0a.87.87,0,0,1,.21,1.2L61.79,54.26C61.51,54.59,59.43,56.42,59,56.09Z"/><path class="cls-8" d="M71.44,42a.87.87,0,0,0-1.22,0l-9.75,11a.41.41,0,0,0-.1.31,1.21,1.21,0,0,0,1.23,1,.41.41,0,0,0,.29-.15l9.75-11A.87.87,0,0,0,71.44,42Z"/><path class="cls-9" d="M54.89,61h0c-.24-.2,4.24-5.93,4.24-5.93.16-.19,0,0,.42.38s.61.16.44.35C60,55.83,55.12,61.24,54.89,61Z"/><path class="cls-10" d="M59.51,55.53c-.4-.33-.22-.62-.38-.43l-.36.46s-.09.23.27.53.56.17.56.17l.39-.43C60.16,55.64,59.9,55.86,59.51,55.53Z"/><path class="cls-11" d="M72.4,43.22a1.46,1.46,0,0,1-2.08.17,1.52,1.52,0,0,1-.23-2.12,1.46,1.46,0,0,1,2.08-.17A1.52,1.52,0,0,1,72.4,43.22Z"/><path class="cls-12" d="M69.79,42a2.39,2.39,0,0,0,.76,1.12,2.33,2.33,0,0,0,1.23.54,1.41,1.41,0,0,0,.64-.44,1.52,1.52,0,0,0-.23-2.12,1.44,1.44,0,0,0-2.39.9Z"/><path class="cls-13" d="M73.46,42.89a1.85,1.85,0,0,1-2.67-.06,2,2,0,0,1-.58-2.67,1.92,1.92,0,0,1,2.74,0A2,2,0,0,1,73.46,42.89Z"/><path class="cls-14" d="M75.06,42.75c-.76.94-2.45.81-3.78-.3a3,3,0,0,1-1-3.72c.53-1.09,1-.38,2.35.73S75.82,41.81,75.06,42.75Z"/><path class="cls-15" d="M85.29,19.55a6.8,6.8,0,0,0-2-2.4c-1.31-.87-3.16-1.69-3.35-2.18s.17-1.09,1.26-1.5,2.62-1.13,3.65-.85a7.37,7.37,0,0,1,4.33,2.13,39,39,0,0,1,4.31,5.48,3.17,3.17,0,0,1,0,2.79L90,25.89l3.2,2.37L79.46,43.92s-.77,1.17-3.23.11c-2-.86-4.29-2.19-5.21-3.6a3.38,3.38,0,0,1,.41-4.11C72.38,35.16,85.29,19.55,85.29,19.55Z"/><path class="cls-16" d="M90,25.89l2.45-2.3h0a4.09,4.09,0,0,1-2.79-.45,7.55,7.55,0,0,1-2.9-3A9.43,9.43,0,0,0,84.18,17a24.58,24.58,0,0,0-4.33-2.23h0a.69.69,0,0,0,0,.19c.19.48,2,1.3,3.35,2.18a6.8,6.8,0,0,1,2,2.4S72.38,35.16,71.44,36.32A3.38,3.38,0,0,0,71,40.43c.92,1.41,3.21,2.73,5.21,3.6,2.46,1.06,3.23-.11,3.23-.11L93.37,28Z"/><path class="cls-17" d="M92.83,22.74c-.9,1-2.86.55-4.37-.92s-2-3.44-1.1-4.4,2.86-.55,4.37.92S93.73,21.78,92.83,22.74Z"/><path class="cls-18" d="M88.71,22.19l-.31-.28a5.44,5.44,0,0,1-1.52-2.44,2.17,2.17,0,0,1,.34-2.09c.92-1,2.95-.57,4.52.93a5.44,5.44,0,0,1,1.52,2.44,2.17,2.17,0,0,1-.34,2.09h0C92.05,23.77,90.23,23.47,88.71,22.19Zm2.61-4c-1.46-1.22-3.19-1.53-4-.66A2,2,0,0,0,87,19.43,5.29,5.29,0,0,0,88.5,21.8c1.51,1.45,3.44,1.87,4.31.94a2,2,0,0,0,.31-1.95,5.29,5.29,0,0,0-1.48-2.37Z"/><path class="cls-19" d="M87.56,25.27s4.19,2.84,4.63,3a1.23,1.23,0,0,0,1.68-1.16c0-1.15-2.42-3.16-2.42-3.16l-1.57,1.78a2.42,2.42,0,0,1-1.09,0A7.16,7.16,0,0,1,87.56,25.27Z"/><path class="cls-20" d="M90.38,26l.6-.07s1.55-.74,1.56-.79a3.35,3.35,0,0,0-.34-.48c-.42-.42-.75-.7-.75-.7l-1.57,1.78a2.42,2.42,0,0,1-1.09,0,7.16,7.16,0,0,1-1.22-.44,3.86,3.86,0,0,0,1.21.61A3.91,3.91,0,0,0,90.38,26Z"/><path class="cls-21" d="M89.87,25.71,92,27.25s.72.42,1.08-.08a3.22,3.22,0,0,0,.43-1,13.27,13.27,0,0,0-2-2.23Z"/><path class="cls-22" d="M92.24,21.95c-.61.76-2.06.58-3.22-.4s-1.61-2.38-1-3.14,2.06-.58,3.22.4S92.85,21.19,92.24,21.95Z"/><path class="cls-17" d="M88.73,24.25a.69.69,0,0,1,.08-.91l.33-.31s0-.14.6.16,2.22,1,3.38.09.41-2.92.41-2.92A24.55,24.55,0,0,1,95.82,25c.23,1-.22,2.49-1.31,2.49s-2.18-.52-3.88-1.72l-1.7-1.2Z"/><path class="cls-23" d="M93.86,26.74c-1.61-.31-3.61-2.41-4.11-2.83a1.86,1.86,0,0,1-.61-.87l-.53.49a.37.37,0,0,0,0,.49l.29.4a.78.78,0,0,0,.18.17l1.6,1.13c1.7,1.2,2.74,1.74,3.89,1.73a1.22,1.22,0,0,0,1.16-.94A2.18,2.18,0,0,1,93.86,26.74Z"/><ellipse class="cls-24" cx="88.14" cy="20.99" rx="0.15" ry="0.21" transform="translate(15.4 75.02) rotate(-50)"/><ellipse class="cls-25" cx="92.11" cy="22.61" rx="0.17" ry="0.21" transform="translate(15.58 78.64) rotate(-50)"/><ellipse class="cls-26" cx="87.91" cy="17.53" rx="0.17" ry="0.21" transform="translate(17.97 73.6) rotate(-50)"/><path class="cls-27" d="M90.31,15.7l-2.15,2.64c-.62.77-.2,2.16.94,3.11s2.56,1.11,3.18.34l2.14-2.65Z"/><path class="cls-21" d="M89.66,20.12l.61.26-.4-.54-.08.1a3.81,3.81,0,0,1-.28-.3l.11-.08-.5-.44.05.15h0l.17.48.12-.09a3.89,3.89,0,0,0,.29.31Z"/><path class="cls-21" d="M91.06,20.49l-.17.21.22.12-.11.13-.22-.12-.17.21L90.48,21l.17-.21-.21-.11.11-.13.21.11.17-.21Z"/><path class="cls-21" d="M88.76,18.2l.23.6-.11.13-.23-.6Z"/><path class="cls-28" d="M84.47,15.72a.54.54,0,0,0,0-.14l.09-.06.49.42L85,16l-.39-.33a.37.37,0,0,1,0,.13Z"/><path class="cls-28" d="M85.36,15.78c-.1.06-.23,0-.4-.12s-.21-.26-.11-.33.24,0,.42.12S85.46,15.71,85.36,15.78Zm-.44-.38s0,.09.13.2.2.14.24.12,0-.09-.13-.2S85,15.37,84.92,15.4Z"/><path class="cls-28" d="M85.35,15.45l.3-.21.08.07-.3.21Z"/><path class="cls-28" d="M85.54,15a.56.56,0,0,0,0-.14l.09-.06.49.43-.1.07L85.67,15a.37.37,0,0,1,0,.13Z"/><path class="cls-28" d="M86.42,15.06c-.1.06-.23,0-.4-.12s-.21-.26-.11-.33.24,0,.42.12S86.52,15,86.42,15.06ZM86,14.68s0,.09.13.2.2.14.24.12,0-.09-.13-.2S86,14.65,86,14.68Z"/><path class="cls-28" d="M86.77,14.82c-.1.06-.23,0-.4-.12s-.21-.26-.11-.33.24,0,.42.12S86.87,14.75,86.77,14.82Zm-.44-.38s0,.09.13.2.2.14.24.12,0-.09-.13-.2S86.38,14.42,86.34,14.44Z"/><path class="cls-29" d="M90,31a43.25,43.25,0,0,1-6.37-4.14,4.49,4.49,0,0,1-1.44-3.61l-.46.55a4.5,4.5,0,0,0,1.44,3.62,43.25,43.25,0,0,0,6.37,4.14,1.76,1.76,0,0,0,.62.1l.49-.56A1.93,1.93,0,0,1,90,31Z"/><path class="cls-29" d="M89.1,32.15A43.25,43.25,0,0,1,82.73,28a4.5,4.5,0,0,1-1.44-3.63l-.46.55a4.51,4.51,0,0,0,1.44,3.64,43.25,43.25,0,0,0,6.37,4.14,1.68,1.68,0,0,0,.55.1l.49-.56A1.84,1.84,0,0,1,89.1,32.15Z"/><path class="cls-29" d="M88.24,33.25a42,42,0,0,1-6.42-4.1,4.52,4.52,0,0,1-1.44-3.65l-.46.55a4.52,4.52,0,0,0,1.44,3.67,36.08,36.08,0,0,0,6.48,4,2,2,0,0,0,.45.1l.45-.51A1.76,1.76,0,0,1,88.24,33.25Z"/><path class="cls-29" d="M87.31,34.35a42,42,0,0,1-6.42-4.1,4.51,4.51,0,0,1-1.44-3.64l-.46.55a4.51,4.51,0,0,0,1.44,3.65,36.08,36.08,0,0,0,6.48,4,2.15,2.15,0,0,0,.42.09l.45-.51A1.57,1.57,0,0,1,87.31,34.35Z"/><path class="cls-29" d="M86.38,35.46A42,42,0,0,1,80,31.36a4.5,4.5,0,0,1-1.44-3.62l-.46.55a4.5,4.5,0,0,0,1.44,3.63,36.08,36.08,0,0,0,6.48,4,2.32,2.32,0,0,0,.38.09l.44-.51A1.4,1.4,0,0,1,86.38,35.46Z"/><path class="cls-29" d="M85.44,36.57A42,42,0,0,1,79,32.47a4.49,4.49,0,0,1-1.44-3.6l-.46.55A4.49,4.49,0,0,0,78.57,33a36.08,36.08,0,0,0,6.48,4l.35.08.44-.5A1.29,1.29,0,0,1,85.44,36.57Z"/><path class="cls-29" d="M84.51,37.69a42,42,0,0,1-6.42-4.1A4.48,4.48,0,0,1,76.65,30l-.46.55a4.49,4.49,0,0,0,1.44,3.6,36.08,36.08,0,0,0,6.48,4l.31.07.44-.5A1.18,1.18,0,0,1,84.51,37.69Z"/><path class="cls-29" d="M83.55,38.83a45.72,45.72,0,0,1-6.37-4.17,4.58,4.58,0,0,1-1.54-3.45l-.42.51a4.59,4.59,0,0,0,1.54,3.46,39.25,39.25,0,0,0,6.42,4.1l.27.07.39-.45A1.11,1.11,0,0,1,83.55,38.83Z"/><path class="cls-29" d="M82.6,40a48.89,48.89,0,0,1-6.33-4.21,4.69,4.69,0,0,1-1.61-3.34l-.39.47a4.7,4.7,0,0,0,1.61,3.35,41.94,41.94,0,0,0,6.38,4.15l.24.07.36-.41A1.06,1.06,0,0,1,82.6,40Z"/><path class="cls-29" d="M81.66,41.08a49.7,49.7,0,0,1-6.32-4.22,4.72,4.72,0,0,1-1.63-3.31l-.38.46A4.72,4.72,0,0,0,75,37.33a42.64,42.64,0,0,0,6.37,4.16l.2.06.35-.4A1,1,0,0,1,81.66,41.08Z"/><path class="cls-30" d="M90.09,30.28,87.3,33.51a5.69,5.69,0,0,0,.82.27l.2,0,2.89-3.3Z"/><path class="cls-31" d="M89.65,30,86.79,33.3a3.4,3.4,0,0,1,.67.38c.19.16.28.08.28.08l2.83-3.33Z"/><path class="cls-29" d="M91.18,30.54a2,2,0,0,1-.77-.1,42.19,42.19,0,0,1-6.29-4.08,4.47,4.47,0,0,1-1.4-3.67l.46-.56a4.47,4.47,0,0,0,1.4,3.67,42.19,42.19,0,0,0,6.29,4.08,2.14,2.14,0,0,0,.8.11Z"/><g class="cls-32"><g class="cls-33"><path class="cls-34" d="M88.5,17.82a.05.05,0,0,1,0-.07l2.08-2.65a0,0,0,0,1,.07,0h0a.05.05,0,0,1,0,.07l-2.08,2.65a0,0,0,0,1-.07,0Z"/><path class="cls-34" d="M88.59,17.9a.05.05,0,0,1,0-.07l2.08-2.65a0,0,0,0,1,.07,0h0a.05.05,0,0,1,0,.07l-2.08,2.65a0,0,0,0,1-.07,0Z"/><path class="cls-34" d="M88.75,18a.05.05,0,0,1,0-.07l2.08-2.65a0,0,0,0,1,.07,0,0,0,0,0,1,0,.07L88.82,18a0,0,0,0,1-.07,0Z"/><path class="cls-34" d="M88.91,18.15a.05.05,0,0,1,0-.07L91,15.44a0,0,0,0,1,.07,0h0a.05.05,0,0,1,0,.07L89,18.15a0,0,0,0,1-.07,0Z"/><path class="cls-34" d="M89.16,18.35a.05.05,0,0,1,0-.07l2.08-2.65a0,0,0,0,1,.07,0h0a.05.05,0,0,1,0,.07l-2.08,2.65A.05.05,0,0,1,89.16,18.35Z"/><path class="cls-34" d="M89.41,18.55a.05.05,0,0,1,0-.07l2.08-2.65a0,0,0,0,1,.07,0h0a.05.05,0,0,1,0,.07l-2.08,2.65a0,0,0,0,1-.07,0Z"/><path class="cls-34" d="M89.66,18.76a.05.05,0,0,1,0-.07L91.74,16a0,0,0,0,1,.07,0h0a.05.05,0,0,1,0,.07l-2.08,2.65a0,0,0,0,1-.07,0Z"/><path class="cls-34" d="M89.92,19a.05.05,0,0,1,0-.07L92,16.25a0,0,0,0,1,.07,0,.05.05,0,0,1,0,.07L90,19a0,0,0,0,1-.07,0Z"/><path class="cls-34" d="M90.18,19.17a.05.05,0,0,1,0-.07l2.08-2.65a.05.05,0,1,1,.08.06l-2.08,2.65a0,0,0,0,1-.07,0Z"/><path class="cls-34" d="M90.6,19.51a.05.05,0,0,1,0-.07l2.08-2.65a0,0,0,0,1,.07,0h0a.05.05,0,0,1,0,.07L90.67,19.5a0,0,0,0,1-.07,0Z"/><path class="cls-34" d="M91.1,19.91a.05.05,0,0,1,0-.07l2.08-2.65a0,0,0,0,1,.07,0,.05.05,0,0,1,0,.07l-2.08,2.65a0,0,0,0,1-.07,0Z"/><path class="cls-34" d="M91.48,20.21a.05.05,0,0,1,0-.07l2.08-2.65a0,0,0,0,1,.07,0h0a.05.05,0,0,1,0,.07l-2.08,2.65A0,0,0,0,1,91.48,20.21Z"/><path class="cls-34" d="M91.73,20.42a.05.05,0,0,1,0-.07l2.08-2.65a0,0,0,0,1,.07,0h0a.05.05,0,0,1,0,.07L91.8,20.41a0,0,0,0,1-.07,0Z"/><path class="cls-34" d="M92,20.62a.05.05,0,0,1,0-.07l2.08-2.65a0,0,0,0,1,.07,0h0a.05.05,0,0,1,0,.07l-2.08,2.65a0,0,0,0,1-.07,0Z"/><path class="cls-34" d="M92.24,20.83a.05.05,0,0,1,0-.07l2.08-2.65a.05.05,0,0,1,.07,0,.05.05,0,0,1,0,.07l-2.08,2.65a0,0,0,0,1-.07,0Z"/><path class="cls-34" d="M92.48,21a.05.05,0,0,1,0-.07l2.08-2.65a0,0,0,0,1,.07,0h0a.05.05,0,0,1,0,.07L92.55,21a0,0,0,0,1-.07,0Z"/><path class="cls-34" d="M92.65,21.15a.05.05,0,0,1,0-.07l2.08-2.65a0,0,0,0,1,.07,0h0a.05.05,0,0,1,0,.07l-2.08,2.65a0,0,0,0,1-.07,0Z"/><path class="cls-34" d="M92.8,21.28a.05.05,0,0,1,0-.07l2.08-2.65a0,0,0,0,1,.07,0h0a.05.05,0,0,1,0,.07l-2.08,2.65a0,0,0,0,1-.07,0Z"/><path class="cls-34" d="M92.9,21.36a.05.05,0,0,1,0-.07L95,18.64a0,0,0,0,1,.07,0h0a.05.05,0,0,1,0,.07L93,21.35a0,0,0,0,1-.07,0Z"/><path class="cls-35" d="M88.5,17.82a.05.05,0,0,1,0-.07l2.08-2.65a.05.05,0,0,1,.07,0h0a.05.05,0,0,1,0,.07l-2.08,2.65a.05.05,0,0,1-.07,0Z"/><path class="cls-35" d="M88.6,17.9a.05.05,0,0,1,0-.07l2.08-2.65a.05.05,0,0,1,.07,0h0a.05.05,0,0,1,0,.07l-2.08,2.65a.05.05,0,0,1-.07,0Z"/><path class="cls-35" d="M88.76,18a.05.05,0,0,1,0-.07l2.08-2.65a.05.05,0,0,1,.07,0,0,0,0,0,1,0,.07L88.83,18a.05.05,0,0,1-.07,0Z"/><path class="cls-35" d="M88.92,18.16a.05.05,0,0,1,0-.07L91,15.44a.05.05,0,0,1,.07,0h0a.05.05,0,0,1,0,.07L89,18.15a.05.05,0,0,1-.07,0Z"/><path class="cls-35" d="M89.17,18.36a.05.05,0,0,1,0-.07l2.08-2.65a.05.05,0,0,1,.07,0h0a.05.05,0,0,1,0,.07l-2.08,2.65A.05.05,0,0,1,89.17,18.36Z"/><path class="cls-35" d="M89.43,18.57a.05.05,0,0,1,0-.07l2.08-2.65a.05.05,0,0,1,.07,0h0a.05.05,0,0,1,0,.07L89.5,18.56a.05.05,0,0,1-.07,0Z"/><path class="cls-35" d="M89.68,18.78a.05.05,0,0,1,0-.07l2.08-2.65a.05.05,0,0,1,.07,0h0a.05.05,0,0,1,0,.07l-2.08,2.65a.05.05,0,0,1-.07,0Z"/><path class="cls-35" d="M89.95,19a.05.05,0,0,1,0-.07L92,16.27a.05.05,0,0,1,.07,0,.06.06,0,0,1,0,.07L90,19a.05.05,0,0,1-.07,0Z"/><path class="cls-35" d="M90.21,19.2a.05.05,0,0,1,0-.07l2.08-2.65a.05.05,0,0,1,.08.07l-2.08,2.65a.05.05,0,0,1-.07,0Z"/><path class="cls-35" d="M90.64,19.54a.05.05,0,0,1,0-.07l2.08-2.65a.05.05,0,0,1,.07,0h0a.05.05,0,0,1,0,.07l-2.08,2.65a.05.05,0,0,1-.07,0Z"/><path class="cls-35" d="M91.15,20a.05.05,0,0,1,0-.07l2.08-2.65a0,0,0,0,1,.07,0,.05.05,0,0,1,0,.07l-2.08,2.65a.05.05,0,0,1-.07,0Z"/><path class="cls-35" d="M91.53,20.26a.05.05,0,0,1,0-.07l2.08-2.65a.05.05,0,0,1,.07,0h0a.05.05,0,0,1,0,.07L91.6,20.25A0,0,0,0,1,91.53,20.26Z"/><path class="cls-35" d="M91.79,20.47a.05.05,0,0,1,0-.07l2.08-2.65a.05.05,0,0,1,.07,0h0a.05.05,0,0,1,0,.07l-2.08,2.65a.05.05,0,0,1-.07,0Z"/><path class="cls-35" d="M92,20.67a.05.05,0,0,1,0-.07L94.12,18a.05.05,0,0,1,.07,0h0a.05.05,0,0,1,0,.07l-2.08,2.65a.05.05,0,0,1-.07,0Z"/><path class="cls-35" d="M92.3,20.88a.05.05,0,0,1,0-.07l2.08-2.65a.05.05,0,0,1,.07,0,.05.05,0,0,1,0,.07l-2.08,2.65a.05.05,0,0,1-.07,0Z"/><path class="cls-35" d="M92.55,21.08a.05.05,0,0,1,0-.07l2.08-2.65a.05.05,0,0,1,.07,0h0a.05.05,0,0,1,0,.07l-2.08,2.65a.05.05,0,0,1-.07,0Z"/><path class="cls-35" d="M92.72,21.21a.05.05,0,0,1,0-.07l2.08-2.65a.05.05,0,0,1,.07,0h0a.05.05,0,0,1,0,.07l-2.08,2.65a.05.05,0,0,1-.07,0Z"/><path class="cls-35" d="M92.87,21.34a.05.05,0,0,1,0-.07l2.08-2.65a.05.05,0,0,1,.07,0h0a.05.05,0,0,1,0,.07l-2.08,2.65a.05.05,0,0,1-.07,0Z"/><path class="cls-35" d="M93,21.42a.05.05,0,0,1,0-.07L95,18.7a.05.05,0,0,1,.07,0h0a.05.05,0,0,1,0,.07L93,21.42a.05.05,0,0,1-.07,0Z"/></g></g><path class="cls-17" d="M94.42,19.15c-.52.64-1.86.38-3-.57s-1.64-2.25-1.12-2.89,1.86-.38,3,.57S94.94,18.51,94.42,19.15Z"/><path class="cls-36" d="M94.2,18.83c-.44.55-1.6.32-2.58-.5s-1.42-1.94-1-2.48,1.6-.32,2.58.5S94.65,18.28,94.2,18.83Z"/><path class="cls-37" d="M92.52,13.6l-1.69,2.08c-.49.6-.1,1.75.87,2.56s2.15,1,2.64.38L96,16.54Z"/><path class="cls-38" d="M96.57,16.78c-.63.78-2.12.58-3.34-.43s-1.69-2.47-1.06-3.25,2.12-.58,3.34.43S97.2,16,96.57,16.78Z"/><path class="cls-39" d="M96.66,16.43c-.52.64-1.87.38-3-.59s-1.66-2.26-1.14-2.9,1.87-.38,3,.59S97.17,15.8,96.66,16.43Z"/><path class="cls-40" d="M92.62,12.93a1,1,0,0,1,.78-.33,1.08,1.08,0,0,0-.9.35c-.52.64,0,1.94,1.14,2.9a4.21,4.21,0,0,0,1.49.82,4.72,4.72,0,0,1-1.29-.78C92.65,14.89,92.1,13.57,92.62,12.93Z"/><path class="cls-41" d="M93.71,20.85a4.87,4.87,0,0,0-.2-.57l-.12.15a4.71,4.71,0,0,1,.16.46,2.31,2.31,0,0,1-.35,2.23c-1,1.07-3.19.58-4.92-1.07a6,6,0,0,1-1.69-2.71,2.31,2.31,0,0,1,.35-2.23,2.41,2.41,0,0,1,2.55-.39l.11-.14a2.6,2.6,0,0,0-2.78.4,2.48,2.48,0,0,0-.39,2.39,6.22,6.22,0,0,0,1.74,2.79l.36.32c1.73,1.46,3.82,1.8,4.8.74A2.48,2.48,0,0,0,93.71,20.85Z"/><path class="cls-42" d="M87.84,34.36a10.92,10.92,0,0,1-1.75-.84c-.82-.45-2.13-1.45-3.34-1.46s-1.81.25-3.48,2.27-3.67,4.53-3.67,4.53a10.08,10.08,0,0,0,2.91,2.6,21.47,21.47,0,0,0,2.36.84"/><path class="cls-43" d="M80.19,39.22l-1.87-.87a.3.3,0,0,1-.12-.49l3.72-4.41a.57.57,0,0,1,.65-.13l1.87.87a.3.3,0,0,1,.12.49l-3.72,4.41A.57.57,0,0,1,80.19,39.22Z"/><path class="cls-44" d="M80.17,38.89l-1.44-.68a.3.3,0,0,1-.12-.49l3.33-4a.57.57,0,0,1,.65-.13l1.44.68a.3.3,0,0,1,.12.49l-3.33,4A.57.57,0,0,1,80.17,38.89Z"/><g class="cls-45"><path class="cls-46" d="M81,36.18l.69.82-.1.12-.64-.77-.38.45-.12-.05.5-.59Z"/><path class="cls-46" d="M82,36.48a.07.07,0,0,1,0,0,.08.08,0,0,1,0-.07.12.12,0,0,1,.07,0h.08a.07.07,0,0,1,0,0,.08.08,0,0,1,0,.07.13.13,0,0,1-.07,0Z"/><path class="cls-46" d="M82.17,36.12A.58.58,0,0,0,82.4,36a.23.23,0,0,0,.07-.18.17.17,0,0,0-.11-.13.27.27,0,0,0-.2,0,.43.43,0,0,0-.2.14l-.11.15-.53-.25.38-.45.12.05-.29.34.29.14.06-.08a.55.55,0,0,1,.27-.18.42.42,0,0,1,.3,0,.27.27,0,0,1,.17.2.36.36,0,0,1-.11.28.62.62,0,0,1-.21.17Z"/></g><path class="cls-47" d="M79.16,42.21c-1.21-.63-4.06-1.94-5.48-3.34a6.25,6.25,0,0,1-1.38-3.6l-.86,1A3.38,3.38,0,0,0,71,40.43c.92,1.41,3.21,2.73,5.21,3.6,2.46,1.06,3.23-.11,3.23-.11l1.41-1.62A2.23,2.23,0,0,1,79.16,42.21Z"/><path class="cls-48" d="M80.21,41.87c-.89-.15-3-1.86-5-3.52a6.85,6.85,0,0,1-2.35-3.75l-.57.7a6.17,6.17,0,0,0,1.39,3.65C75,40.32,77.82,41.59,79,42.2a2.07,2.07,0,0,0,1.81.15l.33-.38A7.52,7.52,0,0,1,80.21,41.87Z"/><path class="cls-49" d="M89.71,30.08a7.6,7.6,0,0,0,.83.45,1.72,1.72,0,0,0,.57.09l.13-.15a1.75,1.75,0,0,1-.65-.08,8.08,8.08,0,0,1-.81-.44l-.19-.11L86.65,33.3l.06,0a3.47,3.47,0,0,0,.84.44,5.69,5.69,0,0,0,.63.18l.12-.13a5.46,5.46,0,0,1-.69-.19,3.37,3.37,0,0,1-.74-.38L89.62,30Z"/><path class="cls-5" d="M84.15,17.87c.41,0,2.3,2.61,1,5.66s-2.61,2.74-2.61,2.74,1.48,2.08.72,3.46a3.77,3.77,0,0,1-2.77,1.54,2.36,2.36,0,0,1-1.26,2.86,3.27,3.27,0,0,1-3.37-.44s-.47,1.89-2.14,1.7-2-2.27-1.51-3.37a3,3,0,0,1,1.57-1.51s.09-2.36.91-3.24S76,26.4,76,26.4s.85-3,2-3.9a5,5,0,0,1,1.64-1s1-2.27,2.39-2.9S83.74,17.84,84.15,17.87Z"/><path class="cls-5" d="M99.42,15.39a4.88,4.88,0,0,1-1-2.13c-.29-1.53-1-4-2.64-3.71-2.32.44-1.78,5.86-1.2,6.89l.57,1s-.29,2.31-.67,4.21c0,2.38.14,7.39,1.38,10.72.68,1.82,1.21,3.12,1.61,4,.18.41.67.93.64.48-.15-1.95-.22-5.29.26-6.13,1.08-1.89,2.71-12.17,2.17-13.58A9,9,0,0,0,99.42,15.39Z"/><path class="cls-50" d="M99.69,17.5c-.27-.1-.39-.35-.84.87a5.93,5.93,0,0,0-.61,3.15,10.83,10.83,0,0,1-.45,4.09c-.35.66-1,3.59-.35,3.63.86.06,1.84-3.21,2.18-7S100,17.6,99.69,17.5Z"/><path class="cls-51" d="M100.86,44.73a17.68,17.68,0,0,1-4.8,4.49A34.48,34.48,0,0,1,89.51,52s-.34.41.21.53,3.84-.9,6.06-2.2A16.23,16.23,0,0,0,100.09,47c.7-.87,1.33-1.91,1.15-2.2A.23.23,0,0,0,100.86,44.73Z"/><path class="cls-52" d="M84.15,17.87c-.41,0-.85.09-2.2.72s-2.39,2.9-2.39,2.9a5,5,0,0,0-1.64,1c-1.1.88-2,3.9-2,3.9a.71.71,0,0,0-.22.07,7,7,0,0,0,2.34,4.65,4,4,0,0,0,2.42,1h.12a2.9,2.9,0,0,0-.1-.82,3.77,3.77,0,0,0,2.77-1.54,2.32,2.32,0,0,0,.1-1.7,7.13,7.13,0,0,0-.71-1.39h.12c-.13-.23-.23-.37-.23-.37s1.35.31,2.61-2.74S84.56,17.9,84.15,17.87Z"/><path class="cls-5" d="M85.19,23.53c1.26-3.05-.63-5.63-1-5.66s-.85.09-2.2.72-2.39,2.9-2.39,2.9a5,5,0,0,0-1.64,1c-1.1.88-2,3.9-2,3.9s.66,2.87,2.29,4a3.28,3.28,0,0,0,5-.63c.76-1.38-.72-3.46-.72-3.46S83.93,26.59,85.19,23.53Z"/><path class="cls-52" d="M83.45,28.23a6,6,0,0,0-.87-2s1.35.31,2.61-2.74-.63-5.63-1-5.66-.85.09-2.2.72-2.39,2.9-2.39,2.9a2,2,0,0,0-.31.13,5.87,5.87,0,0,0,1.14,3.95C81.56,26.73,83,27.33,83.45,28.23Z"/><path class="cls-53" d="M72.26,32c-.47,1.1-.16,3.18,1.51,3.37s2.14-1.7,2.14-1.7-.48-.56-1.15-1.28a4.74,4.74,0,0,1-.93-1.9A3,3,0,0,0,72.26,32Z"/><path class="cls-6" d="M84.15,17.87c-.41,0-.85.09-2.2.72s-2.39,2.9-2.39,2.9,0,3,1.28,4,1.74.81,1.74.81h.15c.38,0,1.45-.29,2.46-2.75C86.45,20.48,84.56,17.9,84.15,17.87Z"/><path class="cls-54" d="M86.63,45.78a2.69,2.69,0,0,0,.44,1c.34.44.45.42,1.29.17s1.53-.42,1.51-.54-2.41.1-2.6,0A4.13,4.13,0,0,1,86.63,45.78Z"/><path class="cls-55" d="M87.18,46.5s-.09.08.09.27.28.18,1,0a7,7,0,0,0,1.33-.31c0-.06-2,.14-2.11.1Z"/><path class="cls-54" d="M88.54,48.89s.59,1.22.64,1.47a2.53,2.53,0,0,0,.47,1.17c.3.28,1.55-.78,1.52-.93s-1.43-.08-1.48-.29,1.31-.78,1.25-.95-1.09.05-1.57-.09A3.43,3.43,0,0,1,88.54,48.89Z"/><path class="cls-55" d="M89.48,50c.15.09.2.07.6-.14a3.88,3.88,0,0,0,.73-.41s-1.14.4-1.23.4S89.33,49.9,89.48,50Z"/><path class="cls-55" d="M89.55,51.26s0,.08.17.18.25.06.65-.23a3.64,3.64,0,0,0,.72-.57s-1.2.6-1.3.61Z"/><path class="cls-54" d="M97.95,40a8.28,8.28,0,0,0-1.24,1.46c0,.09,1.15-.58,1.75-.53.34,0,.64.07.85.1A1.43,1.43,0,0,0,99,40.5a2,2,0,0,1-.54-1.56A2.17,2.17,0,0,1,97.95,40Z"/><path class="cls-55" d="M97.79,40.74s.57-.83.7-.66.45.51.3.51-.3-.09-.54,0A1.76,1.76,0,0,0,97.79,40.74Z"/><path class="cls-54" d="M99.08,42.51s-.09-.15-.61.2S97,43.82,97.08,44s.67-.23,1.27-.74A3.69,3.69,0,0,0,99.08,42.51Z"/><path class="cls-55" d="M98.93,42.59s-.05-.08-.34.11-.8.61-.77.71.37-.13.7-.41A2,2,0,0,0,98.93,42.59Z"/><path class="cls-54" d="M100,43.91a13.13,13.13,0,0,1-1.25,1c-.54.37-1,.6-1,.69a2.83,2.83,0,0,0,1.53-.83C100,44.21,100,43.91,100,43.91Z"/><path class="cls-55" d="M99.83,44.13a8.74,8.74,0,0,1-.83.69c-.36.25-.67.4-.65.46a1.88,1.88,0,0,0,1-.55C99.81,44.33,99.83,44.13,99.83,44.13Z"/><path class="cls-50" d="M97.2,35.34c.32-.08.87,1.05,0,2.08s-2.36,1.67-2.6,1.33.43-.6,1.16-1.49S96.59,35.5,97.2,35.34Z"/><path class="cls-50" d="M83.87,22c.31-1.64.27-3.37-.51-4a14.31,14.31,0,0,0-1.41.59,5.75,5.75,0,0,0-2.09,2.32,5,5,0,0,0,.69,3.43C81.66,25.65,83.45,24.16,83.87,22Z"/><path class="cls-50" d="M78.59,22c-.19.13-.41.29-.67.49a8.73,8.73,0,0,0-1.81,3.44c.58,1.57,1.73,3.5,2.66,3.39,1.37-.16,1-2.46.51-3.48A15.56,15.56,0,0,1,78.59,22Z"/><path class="cls-50" d="M74.58,28.83c-.36,0-.36,1.13.09,2.4s1.72,2.5,2.54,2.54,1-.82.59-.91a4.2,4.2,0,0,1-2.13-1.23C75.13,30.92,74.94,28.88,74.58,28.83Z"/><path class="cls-50" d="M73,31.46a1.79,1.79,0,0,0-.63,1.7c.12,1.21.63,1.66.91,1.63s-.07-1-.33-1.66A3.26,3.26,0,0,1,73,31.46Z"/><path class="cls-52" d="M75.37,33.09a2,2,0,0,1-.88,1.83,2.47,2.47,0,0,1-1.37.28,1.79,1.79,0,0,0,.64.2c1.67.19,2.14-1.7,2.14-1.7Z"/><path class="cls-50" d="M96.54,10.09c-.18-.44-1.55-.08-1.89,1.17s-.28,3.46,0,3.52,0-2.58.7-3.62C95.72,10.54,96.65,10.37,96.54,10.09Z"/><path class="cls-56" d="M34.93,92c1.62-1.15,15.11-9.77,16.39-9.62s34.1,2.32,34.1,2.32l-12,9.86Z"/><polygon class="cls-57" points="79.27 53.32 78.34 53.95 78.97 64.01 50.62 62.97 50.62 52.82 46.98 52.71 46.21 53.29 48.1 54.41 48.67 64.57 80.15 66.38 80.78 65.75 80.78 53.35 79.27 53.32"/><polygon class="cls-58" points="49.86 63.58 50.62 62.97 50.62 52.82 49.86 53.44 49.86 63.58"/><polygon class="cls-59" points="80.15 66.38 80.15 53.97 80.78 53.35 80.78 65.75 80.15 66.38"/><polygon class="cls-60" points="78.34 53.95 78.34 64.63 49.86 63.58 49.86 53.44 46.21 53.29 46.21 54.99 48.05 55.11 48.05 65.19 80.15 66.38 80.15 53.97 78.34 53.95"/><path class="cls-61" d="M47.65,52v1c0,.17.29.28.65.26s.65-.18.64-.34v-1Z"/><path class="cls-62" d="M48,53.21H48V52H48Zm-.12,0,.06,0V52h-.06Zm.24,0h.06V51.95H48.1Zm-.36-.11.06,0V52h-.06Zm1.18-1.23V53a.16.16,0,0,0,0-.07v-1ZM47.65,53a.16.16,0,0,0,0,.1V52h0Zm.81.24h.06V51.92h-.06Zm-.24,0h.06V51.94h-.06Zm.59-.16.06,0V51.9h-.06Zm-.12.06.06,0v-1.2h-.06Zm-.35.09h.06V51.93h-.06Zm.24,0,.06,0V51.91h-.06Z"/><path class="cls-63" d="M48.94,51.89c0,.17-.29.32-.64.34s-.65-.09-.65-.26.29-.32.64-.34S48.94,51.73,48.94,51.89Z"/><path class="cls-46" d="M48.3,52.23c-.35,0-.63-.08-.65-.24h0c0,.17.29.28.65.26s.65-.18.64-.34h0C48.93,52.06,48.65,52.2,48.3,52.23Z"/><path class="cls-64" d="M48.84,51.87c0,.12-.24.23-.54.25s-.55-.06-.55-.18.24-.23.54-.25S48.84,51.75,48.84,51.87Z"/><path class="cls-65" d="M47.76,52a.7.7,0,0,1,.53-.21c.26,0,.48,0,.54.13a.1.1,0,0,0,0,0c0-.12-.25-.2-.55-.18s-.54.13-.54.25A.09.09,0,0,0,47.76,52Z"/><path class="cls-56" d="M51.14,96.16l34.28,3-12,12.64s-39-3.54-38.53-3.77S51.14,96.16,51.14,96.16Z"/><polygon class="cls-66" points="51.31 82.39 51.14 96.16 85.42 99.11 85.42 84.72 51.31 82.39"/><polygon class="cls-67" points="34.69 108.04 31.26 115.5 74.9 120.67 73.46 111.91 34.69 108.04"/><polyline class="cls-68" points="74.89 120.65 88.37 105.36 85.63 99.02 73.46 111.94"/><polygon class="cls-69" points="43.45 62.8 53.15 55.31 53.15 98.69 43.45 107 43.45 62.8"/><polygon class="cls-70" points="44.25 62.82 53.94 55.34 53.94 98.86 44.25 107.16 44.25 62.82"/><polygon class="cls-71" points="44.25 107.16 43.45 107 53.15 98.69 53.94 98.86 44.25 107.16"/><polygon class="cls-72" points="53.94 55.34 53.15 55.31 43.45 62.8 44.25 62.82 53.94 55.34"/><polygon class="cls-73" points="65.89 63.59 74.84 56.07 74.84 100.35 65.89 108.66 65.89 63.59"/><polygon class="cls-74" points="66.62 63.63 75.58 56.09 75.58 100.52 66.62 108.83 66.62 63.63"/><polygon class="cls-75" points="66.62 108.83 65.89 108.66 74.84 100.35 75.58 100.52 66.62 108.83"/><polygon class="cls-76" points="75.58 56.09 74.84 56.07 65.89 63.59 66.62 63.63 75.58 56.09"/><polygon class="cls-57" points="69.97 62.49 69.03 63.1 69.66 73.17 41.31 71.64 41.31 61.49 37.67 61.32 36.9 61.88 38.8 63.04 39.37 73.2 70.84 75.56 71.47 74.95 71.47 62.54 69.97 62.49"/><polygon class="cls-58" points="40.55 72.23 41.31 71.64 41.31 61.49 40.55 62.09 40.55 72.23"/><polygon class="cls-59" points="70.84 75.56 70.84 63.15 71.47 62.54 71.47 74.95 70.84 75.56"/><polygon class="cls-77" points="69.03 63.1 69.03 73.78 40.55 72.23 40.55 62.09 36.9 61.88 36.9 63.58 38.74 63.73 38.74 73.81 70.84 75.56 70.84 63.15 69.03 63.1"/><path class="cls-78" d="M38.34,60.6v1c0,.17.29.29.65.27s.65-.17.64-.33v-1Z"/><path class="cls-79" d="M38.68,61.84h.06V60.58h-.06Zm-.12,0,.06,0V60.59h-.06Zm.24.05h.06V60.57h-.06Zm-.36-.11.06,0V60.59h-.06Zm1.18-1.21v1.06a.15.15,0,0,0,0-.07v-1Zm-1.28,1.06a.16.16,0,0,0,0,.1V60.6h0Zm.81.25h.06V60.56h-.06Zm-.24,0H39V60.57h-.06Zm.59-.15.06,0V60.54H39.5Zm-.12.06.06,0v-1.2h-.06Zm-.35.08h.06V60.56H39Zm.24,0,.06,0V60.55h-.06Z"/><path class="cls-80" d="M39.64,60.53c0,.17-.29.32-.64.33s-.65-.1-.65-.27.29-.32.64-.33S39.63,60.37,39.64,60.53Z"/><path class="cls-46" d="M39,60.85c-.35,0-.63-.1-.65-.25h0c0,.17.29.29.65.27s.65-.17.64-.33h0C39.62,60.7,39.34,60.84,39,60.85Z"/><path class="cls-81" d="M39.53,60.51c0,.12-.24.23-.54.24s-.55-.07-.55-.19.24-.23.54-.24S39.53,60.39,39.53,60.51Z"/><path class="cls-82" d="M38.46,60.61a.68.68,0,0,1,.53-.2c.26,0,.48,0,.54.14a.1.1,0,0,0,0,0c0-.12-.25-.2-.55-.19s-.54.12-.54.24A.09.09,0,0,0,38.46,60.61Z"/><polygon class="cls-83" points="73.46 94.57 85.42 84.72 85.42 99.11 73.46 111.75 73.46 94.57"/><polygon class="cls-84" points="73.46 94.57 34.93 92.01 34.93 107.98 73.46 111.75 73.46 94.57"/><polygon class="cls-85" points="55.92 109.79 64.43 110.63 35.17 92.9 35.17 97.23 55.92 109.79"/></g></g></svg>