<svg id="Bio_instruments&#x751F;&#x7269;&#x4EEA;&#x5668;" data-name="Bio instruments&#x751F;&#x7269;&#x4EEA;&#x5668;" xmlns="http://www.w3.org/2000/svg" viewbox="0 0 128 128" width="128" height="128"><defs><style>.cls-1{fill:#dbdcdc;stroke:none;}.cls-2{fill:#a5a7aa;stroke:none;}.cls-3{fill:#e2f4fd;stroke:none;}.cls-4{fill:#cde9f7;stroke:none;}.cls-5{fill:#606161;stroke:none;}.cls-6{fill:#afb4b8;stroke:none;}</style></defs><title>&#x751F;&#x7269;&#x4EEA;&#x5668;</title><path class="cls-1" d="M78.43,65.06l-1.15-2.26c.71-.36,17.4-8.82,22.91-10.29,2.92-.78,9.78-6.82,11.79-13.93a11.14,11.14,0,0,0-2.67-11.36c-10-10.53-31.64-11.76-45.42-2.59A92.52,92.52,0,0,0,46.21,39.78,51.9,51.9,0,0,1,39.63,46C33.69,50.43,22.26,63.37,22.15,63.5l-1.9-1.68C20.72,61.28,32,48.56,38.12,44A50.07,50.07,0,0,0,44.37,38,94.79,94.79,0,0,1,62.49,22.52c14.71-9.79,37.9-8.38,48.66,3a13.69,13.69,0,0,1,3.27,13.79c-2.21,7.84-9.63,14.64-13.57,15.69C95.59,56.37,78.6,65,78.43,65.06Z"/><path class="cls-2" d="M111.15,25.47A29.88,29.88,0,0,0,98,17.79a28.16,28.16,0,0,1,9.72,6.47,14.15,14.15,0,0,1,3.11,5A11.19,11.19,0,0,1,112,38.58c-2,7.12-8.87,13.15-11.79,13.93l-.23.07a9.9,9.9,0,0,1-2.51,1.16,75.69,75.69,0,0,0-9.27,3.75C82.73,60,77.66,62.61,77.28,62.81l1.15,2.26c.17-.09,17.17-8.7,22.42-10.1,3.94-1.06,11.36-7.85,13.57-15.69A13.69,13.69,0,0,0,111.15,25.47Z"/><path class="cls-3" d="M84.1,100.66c.75-4.25-2.89-23.29-1.42-31,.58-3,3.36-7.67,1.48-9.74S59.7,44.37,48.87,46.3c-11.13,2-14.68,7-22,10.29-4.6,2.09-10.56,1.54-10,4.56s-2.67,28.41,2.58,38.1S37.69,114.34,53.63,114C71.59,113.58,83.31,105.11,84.1,100.66Z"/><path class="cls-4" d="M53.63,114c12.64-.28,22.16-4.56,27-8.62a110.86,110.86,0,0,1-1.67-33.8c.8-7.23,1.08-13.26-16-20.7C57,48.29,51.57,46.54,48.87,48.95S43.52,64,43.37,67.48s.9,7.11-.6,7.26S35.55,77.4,38.71,78s17.13,5.86,11.42,6.91-15.63,1.4-13.08,2.15,19.54,4.61,13.83,6.57S38,96,40.74,97s4.13,1.28,5.93,4.43,5,7.36,1.2,8.12a34.79,34.79,0,0,1-14.13-.3,14.36,14.36,0,0,0-4.26-.4C35.84,112.37,44.2,114.19,53.63,114Z"/><ellipse class="cls-5" cx="81.65" cy="62.24" rx="1.32" ry="1.47"/><path class="cls-6" d="M36.67,58.11c-1.9-1.34,6.46-8.67,12.71-8.34S62.21,58.58,60.7,60c-2.44,2.29-7.35-7.46-12.71-7.12S38.57,59.45,36.67,58.11Z"/><path class="cls-4" d="M24.23,61.35a.82.82,0,0,0-.82-1.24c-1.9.3-4.74,1.24-4.83,4.24-.13,4.51-.8,23.08.13,26.93s0-21.09,2.26-24.68C22.28,64.5,23.47,62.58,24.23,61.35Z"/><ellipse class="cls-5" cx="20.53" cy="62.49" rx="1.42" ry="1.49"/></svg>