<svg id="Bio_instruments&#x751F;&#x7269;&#x4EEA;&#x5668;" data-name="Bio instruments&#x751F;&#x7269;&#x4EEA;&#x5668;" xmlns="http://www.w3.org/2000/svg" xmlns:xlink="http://www.w3.org/1999/xlink" viewbox="0 0 128 128" width="128" height="128"><defs><style>.cls-1{fill:url(#linear-gradient);stroke:none;}.cls-2{fill:url(#radial-gradient);stroke:none;}.cls-3{fill:url(#radial-gradient-2);stroke:none;}.cls-4{fill:url(#linear-gradient-2);stroke:none;}.cls-5{fill:url(#radial-gradient-3);stroke:none;}.cls-6{fill:url(#linear-gradient-3);stroke:none;}.cls-7{fill:url(#linear-gradient-4);stroke:none;}.cls-8{fill:#fff;stroke:none;}.cls-9{fill:url(#linear-gradient-5);stroke:none;}.cls-10{fill:url(#linear-gradient-6);stroke:none;}.cls-11{fill:url(#linear-gradient-7);stroke:none;}.cls-12{fill:url(#linear-gradient-8);stroke:none;}.cls-13{fill:url(#linear-gradient-9);stroke:none;}.cls-14{fill:url(#linear-gradient-10);stroke:none;}.cls-15{fill:#77848c;stroke:none;}</style><linearGradient id="linear-gradient" x1="47.45" y1="64.39" x2="88.87" y2="64.39" gradientunits="userSpaceOnUse"><stop offset="0.03" stop-color="#9fb8c9"/><stop offset="0.54" stop-color="#ecf0f3"/><stop offset="0.88" stop-color="#9fb8c9"/></linearGradient><radialGradient id="radial-gradient" cx="73.02" cy="114.96" fx="60.006973180305835" fy="100.75783674602694" r="30.11" gradienttransform="translate(0.22) scale(0.92 1)" gradientunits="userSpaceOnUse"><stop offset="0.31" stop-color="#fff"/><stop offset="0.46" stop-color="#fcfcfd"/><stop offset="0.58" stop-color="#f1f5f7"/><stop offset="0.7" stop-color="#dfe7ee"/><stop offset="0.82" stop-color="#c5d5e0"/><stop offset="0.88" stop-color="#b5c9d7"/><stop offset="0.9" stop-color="#bbceda"/><stop offset="0.94" stop-color="#cddae4"/><stop offset="0.98" stop-color="#e9eff3"/><stop offset="1" stop-color="#fff"/></radialGradient><radialGradient id="radial-gradient-2" cx="73.01" cy="126.64" fx="64.80268616190742" fy="117.6868930557898" r="18.99" gradienttransform="translate(0.22) scale(0.92 1)" gradientunits="userSpaceOnUse"><stop offset="0.31" stop-color="#fff"/><stop offset="0.46" stop-color="#fcfcfd"/><stop offset="0.58" stop-color="#f1f5f7"/><stop offset="0.7" stop-color="#dfe7ee"/><stop offset="0.82" stop-color="#c5d5e0"/><stop offset="0.88" stop-color="#b5c9d7"/></radialGradient><linearGradient id="linear-gradient-2" x1="59.73" y1="63.39" x2="75.14" y2="63.39" gradientunits="userSpaceOnUse"><stop offset="0.01" stop-color="#c0d4e2"/><stop offset="0.11" stop-color="#d4e1ea"/><stop offset="0.22" stop-color="#e4ebf0"/><stop offset="0.36" stop-color="#edf1f4"/><stop offset="0.54" stop-color="#f0f3f5"/><stop offset="0.61" stop-color="#eaeff2"/><stop offset="0.7" stop-color="#d9e3e9"/><stop offset="0.8" stop-color="#bdcfdb"/><stop offset="0.82" stop-color="#b5c9d7"/></linearGradient><radialGradient id="radial-gradient-3" cx="60.66" cy="113.54" r="21.93" gradienttransform="translate(0.22) scale(0.92 1)" gradientunits="userSpaceOnUse"><stop offset="0.13" stop-color="#fff"/><stop offset="0.36" stop-color="#e1e9ef"/><stop offset="0.6" stop-color="#c9d7e2"/><stop offset="0.82" stop-color="#bacdda"/><stop offset="1" stop-color="#b5c9d7"/></radialGradient><linearGradient id="linear-gradient-3" x1="55.24" y1="112.96" x2="79.53" y2="112.96" gradientunits="userSpaceOnUse"><stop offset="0.01" stop-color="#c0d4e2"/><stop offset="0.19" stop-color="#fff"/><stop offset="0.37" stop-color="#fcfcfd"/><stop offset="0.54" stop-color="#f1f4f6"/><stop offset="0.54" stop-color="#f0f3f5"/><stop offset="0.62" stop-color="#eaeff2"/><stop offset="0.73" stop-color="#d9e3e9"/><stop offset="0.85" stop-color="#bdcfdb"/><stop offset="0.88" stop-color="#b5c9d7"/><stop offset="0.9" stop-color="#bbceda"/><stop offset="0.94" stop-color="#cddae4"/><stop offset="0.98" stop-color="#e9eff3"/><stop offset="1" stop-color="#fff"/></linearGradient><linearGradient id="linear-gradient-4" x1="55.55" y1="113.01" x2="79.53" y2="113.01" xlink:href="#linear-gradient"><linearGradient id="linear-gradient-5" x1="60.41" y1="22.12" x2="75.6" y2="22.17" gradientunits="userSpaceOnUse"><stop offset="0.01" stop-color="#c1d4e3"/><stop offset="0.19" stop-color="#fff"/><stop offset="0.37" stop-color="#fcfcfd"/><stop offset="0.54" stop-color="#f1f4f6"/><stop offset="0.54" stop-color="#f0f3f5"/><stop offset="0.62" stop-color="#eaeff2"/><stop offset="0.73" stop-color="#d9e2e9"/><stop offset="0.85" stop-color="#bdcedb"/><stop offset="0.88" stop-color="#b7cad8"/><stop offset="0.9" stop-color="#bdcfdb"/><stop offset="0.94" stop-color="#cfdce5"/><stop offset="0.98" stop-color="#ebf1f4"/><stop offset="1" stop-color="#fff"/></linearGradient><linearGradient id="linear-gradient-6" x1="56.52" y1="61.01" x2="75.62" y2="61.01" gradientunits="userSpaceOnUse"><stop offset="0.01" stop-color="#c1d4e3"/><stop offset="0.4" stop-color="#fff"/><stop offset="0.5" stop-color="#fcfcfd"/><stop offset="0.59" stop-color="#f1f4f6"/><stop offset="0.6" stop-color="#f0f3f5"/><stop offset="0.67" stop-color="#e1e8ee"/><stop offset="0.85" stop-color="#c3d2de"/><stop offset="0.96" stop-color="#b7cad8"/></linearGradient><linearGradient id="linear-gradient-7" x1="60.49" y1="13.93" x2="75.67" y2="13.97" gradientunits="userSpaceOnUse"><stop offset="0.01" stop-color="#dfe6ef"/><stop offset="0.19" stop-color="#fff"/><stop offset="0.37" stop-color="#fcfcfd"/><stop offset="0.54" stop-color="#f1f4f6"/><stop offset="0.54" stop-color="#f0f3f5"/><stop offset="0.65" stop-color="#eaeff2"/><stop offset="0.8" stop-color="#d9e2e9"/><stop offset="0.97" stop-color="#bdcedb"/><stop offset="1" stop-color="#b7cad8"/></linearGradient><linearGradient id="linear-gradient-8" x1="60.68" y1="14.62" x2="75.64" y2="14.67" xlink:href="#linear-gradient-7"><linearGradient id="linear-gradient-9" x1="60.2" y1="14.83" x2="75.63" y2="14.87" gradientunits="userSpaceOnUse"><stop offset="0.01" stop-color="#c1d4e3"/><stop offset="0.15" stop-color="#f0f3f5"/><stop offset="0.46" stop-color="#cbd9e2"/><stop offset="0.67" stop-color="#b7cad8"/></linearGradient><linearGradient id="linear-gradient-10" x1="60.51" y1="14.21" x2="75.59" y2="14.26" xlink:href="#linear-gradient-9"/></linearGradient></linearGradient></defs><title>&#x751F;&#x7269;&#x4EEA;&#x5668;</title><path class="cls-1" d="M60.89,16.88v91.6s0,.08,0,.12,0,.05,0,.08a2.27,2.27,0,0,1-1.26,1.88l0,0-.34.15h0A16,16,0,0,0,55.71,113H79.14a16,16,0,0,0-3.55-2.25h0l-.34-.15,0,0A2.28,2.28,0,0,1,74,108.47s0-79.42,0-92.65Z"/><path class="cls-2" d="M61,16.88V108.5a2.28,2.28,0,0,1-1.25,2.08l0,0a15.7,15.7,0,0,0-3.8,2.37H79a15.72,15.72,0,0,0-3.8-2.37l0,0a2.28,2.28,0,0,1-1.25-2.08V16.88Z"/><path class="cls-3" d="M61,97.62V108.5a2.28,2.28,0,0,1-1.25,2.08l0,0-.34.15a97,97,0,0,1,10.06-1.06,20.45,20.45,0,0,1,6.12,1.06l-.34-.15,0,0a2.28,2.28,0,0,1-1.25-2.08V97.62Z"/><path class="cls-4" d="M61,16.88V108.5c0,.48-.26,1.64.82,1.34a41.13,41.13,0,0,1,8-.55c4,.41,4.11.59,4.11-5V16.88Z"/><path class="cls-5" d="M57.39,113c2.54-1.77,9.14-2.8,12.38-2.8a15.14,15.14,0,0,1,6.69,1.56A14.39,14.39,0,0,0,69,109.65c-3.45,0-10.21,1.23-12.78,3.32Z"/><path class="cls-6" d="M79.14,113.62l.09,0c.17,0,.3-.28.3-.63v0a.61.61,0,0,0-.58-.63s-4.1.36-9.74.44a115.3,115.3,0,0,1-13.38-.44.61.61,0,0,0-.58.63v0c0,.35.14.63.3.63l.09,0Z"/><path class="cls-7" d="M79.24,112.39a.65.65,0,0,1,.13.39v0c0,.34-.13.62-.3.62l-.09,0-23.44.15.09,0h23.5l.09,0c.17,0,.3-.28.3-.63v0A.65.65,0,0,0,79.24,112.39Z"/><path class="cls-8" d="M77.91,112.38a111,111,0,0,1-12.6.47c-2.81-.06-6.86-.24-9.26-.54,2.59.37,9.15.61,12.33.68a68,68,0,0,0,10.87-.59Z"/><path class="cls-9" d="M73.43,13c-1.83-.05-7.93-.14-11.05,0-2.32.12-3.38,1-3.49,1.53v.07c1.13.1,1.83.92,2,3,0,.08,0,.16,0,.25,0,.4.07,12.89.08,13.44,0,0-.12-12.31,2.58-12.2,3,0,9.92.84,10.35,5.68-.08-4.31,0-8,.08-10.3A.86.86,0,0,0,73.43,13Z"/><path class="cls-10" d="M61,13.65l-1.79.71s1.7.21,1.85,3c.06,1,.28,13.08.29,28,0,26,0,60.69,0,60.69,0,1.25.67,2.27,1.5,2.27h8.8c.83,0,1.5-1,1.5-2.27V13.68Z"/><path class="cls-11" d="M73.47,13.28c-1.83,0-7.93-.13-11.05,0-2.3.11-3.36.81-3.48,1.34H59c.29-.85,1.66-.78,3.39-.86,3.12-.14,9.23.32,11.05.11.6-.07.6.33.55.74A.78.78,0,0,0,73.47,13.28Z"/><path class="cls-12" d="M74,14.68v0h0Z"/><path class="cls-13" d="M73.93,14.89v0h0Z"/><path class="cls-14" d="M73.41,13.69c-1.82,0-7.9-.11-11,0-2.31.09-3.22.51-3.39.88l0,.06.21,0c.44-.54,1.59-.5,3.19-.56,3.1-.12,9.19.27,11,.09.59-.06.59.28.55.63C74.63,14.13,73.76,13.7,73.41,13.69Z"/><path class="cls-15" d="M63.12,51.8h3.42v-.09H63.12Zm3.42-.9H63.12V51h3.42Zm.3-2.48h-4v.14h4Zm-.3,1.66H63.12v.09h3.42Zm0-.82H63.12v.09h3.42Zm0-12.25H63.12v.09h3.42Zm-3.42,9.07h3.42V46H63.12Zm0-8.16h3.42v-.09H63.12Zm-.82,6.56h5.07v-.14H62.3Zm.82-5.75h3.42v-.09H63.12Zm3.72,1.52h-4v.14h4Zm-3.72-.7h3.42v-.09H63.12Zm0,14.7h3.42v-.09H63.12Zm3.72,2.34h-4v.14h4Zm-.3.84H63.12v.09h3.42Zm-3.42-2.36h3.42V55H63.12Zm3.42-9.88H63.12v.09h3.42Zm0,13.06H63.12v.09h3.42Zm0-4.9H63.12v.09h3.42ZM63.12,46.9h3.42v-.09H63.12Zm0,.82h3.42v-.09H63.12Zm3.42,11.34H63.12v.09h3.42ZM63.12,100h3.42v-.09H63.12ZM62.3,52.65h5.07V52.5H62.3ZM63.12,60h3.42v-.09H63.12Zm0-4.08h3.42V55.8H63.12Zm0,39.19h3.42V95H63.12Zm0,.82h3.42V95.8H63.12Zm3.42-1.72H63.12v.09h3.42Zm-3.42,2.54h3.42v-.09H63.12Zm-.82-3.23h5.07v-.14H62.3Zm.52,4.08h4v-.14h-4Zm.3,3.23h3.42v-.09H63.12Zm0-1.63h3.42v-.09H63.12Zm0-.82h3.42v-.09H63.12Zm0,3.27h3.42v-.09H63.12Zm0-71.85h3.42v-.09H63.12Zm-.82,6.56h5.07v-.14H62.3Zm4.24,4.78H63.12v.09h3.42Zm0-8.16H63.12V33h3.42Zm0,.82H63.12v.09h3.42Zm0,9H63.12v.09h3.42Zm-3.42.9h3.42v-.09H63.12Zm3.42-1.72H63.12V42h3.42ZM63.12,30.57h3.42v-.09H63.12Zm0,4.9h3.42v-.09H63.12Zm0-4.08h3.42V31.3H63.12Zm3.42-2.54H63.12v.09h3.42Zm-3.73,3.38h4v-.14h-4Zm3.73,2.33H63.12v.09h3.42Zm0,47.36H63.12V82h3.42Zm0-4.08H63.12v.09h3.42Zm-3.42,1.72h3.42v-.09H63.12ZM62.3,60.81h5.07v-.14H62.3Zm.82,17.93h3.42v-.09H63.12Zm0,1.63h3.42v-.09H63.12Zm3.42,3.18H63.12v.09h3.42Zm0,8.17H63.12v.09h3.42Zm-3.42-7.26h3.42v-.09H63.12Zm3.42-1.72H63.12v.09h3.42Zm-4.24-5.6h5.07V77H62.3Zm4.55,3.94h-4v.14h4Zm-3.72,7.46h3.42v-.09H63.12Zm0-.82h3.42v-.09H63.12ZM67.36,28H60.93v.14H71.21V28Zm-.82,58H63.12v.09h3.42Zm-3.42.9h3.42v-.09H63.12Zm3.42,3.18H63.12v.09h3.42Zm0,.82H63.12V91h3.42Zm.3-1.66h-4v.14h4Zm-3.72,3.38h3.42v-.09H63.12Zm-.82-7.31h5.07v-.14H62.3Zm.82-22.89h3.42v-.09H63.12Zm3.42-.9H63.12v.09h3.42Zm-3.42,1.72h3.42v-.09H63.12Zm3.72,1.52h-4v.14h4ZM63.12,64h3.42V64H63.12Zm3.42,1.55H63.12v.09h3.42Zm-3.42,2.54h3.42V68H63.12Zm0,4.08h3.42v-.09H63.12Zm3.42-5.8H63.12v.09h3.42Zm0,.82H63.12v.09h3.42ZM62.3,69h5.07v-.14H62.3Zm.82,1.6h3.42v-.09H63.12Zm0,.82h3.42v-.09H63.12Zm3.72,1.52h-4v.14h4Zm-.3-3.24H63.12v.09h3.42Zm0,4.08H63.12v.09h3.42Zm0,1.63H63.12v.09h3.42Zm-3.42.9h3.42v-.09H63.12Zm3.42-1.72H63.12v.09h3.42Zm2,16.28c-.41,0-.44.5-.44.82s0,.82.44.82S69,92,69,91.67,69,90.85,68.56,90.85Zm0,1.48c-.23,0-.25-.33-.25-.66s0-.65.25-.65.25.37.25.65S68.79,92.33,68.56,92.33Zm1.07-1.48c-.41,0-.44.5-.44.82s0,.82.44.82.44-.46.44-.82S70,90.85,69.63,90.85Zm0,1.48c-.23,0-.25-.33-.25-.66s0-.65.25-.65.25.37.25.65S69.86,92.33,69.63,92.33Zm-2.52-1.19v.14h.34v1.17h.18v-1.6H67.5C67.47,91.1,67.35,91.14,67.12,91.14Zm2.52-16.53c-.41,0-.44.5-.44.82s0,.82.44.82.44-.46.44-.82S70,74.62,69.63,74.62Zm0,1.48c-.23,0-.25-.33-.25-.66s0-.65.25-.65.25.37.25.65S69.86,76.1,69.63,76.1Zm-2-.5a.67.67,0,0,0,.29-.53.4.4,0,0,0-.41-.45.41.41,0,0,0-.42.47v.07h.18c0-.22,0-.39.24-.39s.24.12.24.28a.6.6,0,0,1-.26.45c-.35.29-.4.43-.4.71h.86v-.16h-.67C67.26,75.91,67.3,75.88,67.61,75.59Zm1-1c-.41,0-.44.5-.44.82s0,.82.44.82.44-.46.44-.82S69,74.62,68.56,74.62Zm0,1.48c-.23,0-.25-.33-.25-.66s0-.65.25-.65.25.37.25.65S68.79,76.1,68.56,76.1Zm0-17.71c-.41,0-.44.5-.44.82s0,.82.44.82.44-.46.44-.82S69,58.39,68.56,58.39Zm0,1.48c-.23,0-.25-.33-.25-.66s0-.65.25-.65.25.37.25.65S68.79,59.86,68.56,59.86Zm1.07-1.48c-.41,0-.44.5-.44.82s0,.82.44.82.44-.46.44-.82S70,58.39,69.63,58.39Zm0,1.48c-.23,0-.25-.33-.25-.66s0-.65.25-.65.25.37.25.65S69.86,59.86,69.63,59.86Zm-2-.71a.34.34,0,0,0,.24-.37.37.37,0,0,0-.39-.4c-.26,0-.41.21-.41.47h.17c0-.16.06-.31.23-.31s.23.11.23.26-.13.27-.33.27v.16c.27,0,.38.05.38.33a.25.25,0,0,1-.26.29c-.22,0-.26-.18-.26-.35H67c0,.29.13.51.44.51a.42.42,0,0,0,.44-.47A.37.37,0,0,0,67.64,59.15Zm2-17c-.41,0-.44.5-.44.82s0,.82.44.82.44-.46.44-.82S70,42.15,69.63,42.15Zm0,1.48c-.23,0-.25-.33-.25-.66s0-.65.25-.65.25.37.25.65S69.86,43.63,69.63,43.63Zm-1.85-1.48h-.17l-.6,1v.16h.59v.4h.18v-.4h.14V43.2h-.14Zm-.18,1h-.44l.44-.76Zm1-1c-.41,0-.44.5-.44.82s0,.82.44.82S69,43.33,69,43,69,42.15,68.56,42.15Zm0,1.48c-.23,0-.25-.33-.25-.66s0-.65.25-.65.25.37.25.65S68.79,43.63,68.56,43.63Zm1.07-15.95c.42,0,.44-.46.44-.82s0-.82-.44-.82-.44.5-.44.82S69.22,27.68,69.63,27.68Zm0-1.48c.23,0,.25.37.25.65s0,.66-.25.66-.25-.33-.25-.66S69.4,26.2,69.63,26.2Zm-2.15,1.32c-.18,0-.24-.12-.24-.29h-.18c0,.29.14.45.43.45s.44-.29.44-.58-.11-.51-.41-.51a.34.34,0,0,0-.26.12l.07-.47h.54v-.16h-.68l-.1.83h.16a.23.23,0,0,1,.23-.15c.23,0,.27.19.27.38S67.67,27.52,67.48,27.52Zm1.08.16c.42,0,.44-.46.44-.82s0-.82-.44-.82-.44.5-.44.82S68.15,27.68,68.56,27.68Zm0-1.48c.23,0,.25.37.25.65s0,.66-.25.66-.25-.33-.25-.66S68.33,26.2,68.56,26.2Z"/></svg>