<svg id="Bio_instruments&#x751F;&#x7269;&#x4EEA;&#x5668;" data-name="Bio instruments&#x751F;&#x7269;&#x4EEA;&#x5668;" xmlns="http://www.w3.org/2000/svg" viewbox="0 0 128 128" width="128" height="128"><defs><style>.cls-1{fill:#fbbfa7;stroke:none;}.cls-2{fill:#f3ac93;stroke:none;}.cls-3{fill:#5a7fc0;stroke:none;}.cls-4{fill:#5167b0;stroke:none;}.cls-11,.cls-5{fill:#628eca;stroke:none;}.cls-6{fill:#2a499d;stroke:none;}.cls-7{fill:#4d73b8;stroke:none;}.cls-8{fill:#3757a7;stroke:none;}.cls-9{fill:#5cbdeb;stroke:none;}.cls-10{fill:#5bc0ed;stroke:none;}.cls-11{opacity:0.48;stroke:none;}</style></defs><title>&#x751F;&#x7269;&#x4EEA;&#x5668;</title><path class="cls-1" d="M38.1,54.22l-6.42,4.43s-2.49,2.14-1,7.25,9.67,9.82,9.67,9.82,5.09,2.33,7,1.51,7.82-9,7.82-9Z"/><path class="cls-2" d="M37.16,54.87a19,19,0,0,0,3.21,6.21c4,5.51,12.76,7.87,12.76,7.87s0-1,0-2.41l-15-12.31Z"/><path class="cls-1" d="M55.51,113.87,59,121s.27.82,2.29,1,6,.71,11.36-3.29,6.55-9.05,6.14-9.64-5.32-7.94-5.32-7.94Z"/><path class="cls-2" d="M67.33,110.31a24.87,24.87,0,0,0,7.38-7.38l-1.2-1.8-18,12.74.29.58A25.23,25.23,0,0,0,67.33,110.31Z"/><path class="cls-3" d="M83.41,25.87c-.36-.31,14.71-15,14.81-16.51s-2-3.26-4.28-1.93S79,20,75.48,22,66.93,27.15,61.9,26s-4.65-4.87-5.25-7.33S55.18,11,52.73,9.22,47.7,7,47,7.93s1.22,5.2,1.35,7.84,0,10.66.21,13.08-.1,9.54,0,10.83a9.18,9.18,0,0,1-4,9.2c-4.81,3.49-6,4.26-6,4.26a24.41,24.41,0,0,0,2.24,5c1.26,1.91,11.13,9.42,12.37,9.82a14,14,0,0,0,3.25.43,45.26,45.26,0,0,1,3-3.45c.67-.55,4-4,5.75-5.07A20.59,20.59,0,0,1,70,57.38a38.82,38.82,0,0,0,8.66-4.56A65,65,0,0,1,86.53,48c.81-.31,3.23-2.14,5.62-2.68s13.4-2.86,14.4-3.38S109,40.74,108.79,39s-6.25-1.18-10.11-.55-8.53,1.61-8.86.41,1.93-2.55,4.75-4,12.5-6.13,14.36-7.51,2.37-2.56,1.73-4-3.32-.89-4.3-.59S89.61,30.34,89.2,30s9.24-8.24,10.71-9.49,8.42-7.26,7.85-8.83-2.66-1.88-4.35-1.16S95,16.35,91.93,19.29,83.77,26.19,83.41,25.87Z"/><path class="cls-4" d="M70.27,24.73A13.48,13.48,0,0,1,61.9,26a7.55,7.55,0,0,1-2.2-.83A8.25,8.25,0,0,0,66.15,27C68.6,26.77,69.74,25.73,70.27,24.73Z"/><path class="cls-4" d="M82.77,25.78s-.87,1,0,1.73a1.11,1.11,0,0,0,1.75-.69c-.06-.39-1,.11-1.41-.07S82.77,25.78,82.77,25.78Z"/><path class="cls-5" d="M97.47,9.63c.13-.23.33-1.13-.89-1.74s-2.12-.26-2.32.15.18,1.46,1.42,1.8S97.33,9.86,97.47,9.63Z"/><path class="cls-5" d="M104.34,10.7c-.2.24-.57.86.66,1.6s2.15.52,2.26.15a1.5,1.5,0,0,0-.88-1.67A2.1,2.1,0,0,0,104.34,10.7Z"/><path class="cls-5" d="M107.48,23.53c0-.2.46-1.34,2.12-.48s1,2.43.17,2.14-1.35-.31-1.79-.77S107.46,23.73,107.48,23.53Z"/><path class="cls-4" d="M90.29,39.31a1.86,1.86,0,0,1-.62-.08c-.68-.24-.27-1.44-.78-1.4s-.95,1.82.08,2.52c.74.5,1.76-.36,2.28-.87A3.13,3.13,0,0,1,90.29,39.31Z"/><path class="cls-5" d="M108.34,38.45a4,4,0,0,0-1.59-.46,1.48,1.48,0,0,0-.47,1.28,1.37,1.37,0,0,0,1.63,1.11C108.26,40.34,108.69,39.15,108.34,38.45Z"/><path class="cls-4" d="M90,45.45c0-.33-.44-.5-2.32-.13s-5,1.26-6,2.16-1,1.78-.6,2.14,1.72-1,2.68-1.23A20.65,20.65,0,0,0,87.13,47a13.26,13.26,0,0,1,1.92-.78C89.22,46.18,90,45.77,90,45.45Z"/><path class="cls-4" d="M49.27,42.08s-.12,2.67-.82,3.52-2.9,2.94-2.9,2.94a23.63,23.63,0,0,1,4.05-1.87c.58-.09,2.73,0,3-.81S51.16,44.8,50.4,44A5.42,5.42,0,0,1,49.27,42.08Z"/><path class="cls-6" d="M49.31,43.78a4.21,4.21,0,0,1-.16,1.35c-.18.36-.66.93-.4,1s1.51-.67,1.51-.67a8.65,8.65,0,0,1-.64-.83A3,3,0,0,1,49.31,43.78Z"/><path class="cls-4" d="M62.3,61a24.84,24.84,0,0,0,2.57-1.45c.61-.48.89-1.08,1.22-1.14s1.13-1.21.82-1.27a10.22,10.22,0,0,1-3.28-1.9c-1.22-1.1-1.37-2.75-2.18-2.52s0,2,.43,2.69A8.21,8.21,0,0,1,63,58.65,5.47,5.47,0,0,1,62.3,61Z"/><path class="cls-6" d="M63.52,56.05a4.1,4.1,0,0,0,1,1.62c.72.64,1.07.61,1.22.4s-.36-.51-1.1-1A4.08,4.08,0,0,1,63.52,56.05Z"/><path class="cls-7" d="M58.39,63.67c-.08-.67-.18-3-1.26-3.71s-3.19-1.05-3.76-2,.59-4.08-2.3-5.48-6.26-1.36-7.5-1.55l-1.5-.24c-2.74,2-3.5,2.46-3.5,2.46a24.41,24.41,0,0,0,2.24,5c1.26,1.91,11.13,9.42,12.37,9.82a14,14,0,0,0,3.25.43,45.26,45.26,0,0,1,3-3.45l.19-.16C59.21,64.62,58.45,64.17,58.39,63.67Z"/><path class="cls-8" d="M56.43,68.43s.83-1.05,1.64-2a19.35,19.35,0,0,1-.72-2.67A3.41,3.41,0,0,0,55,60.63c-2-.76-3.69-.4-5-1.34s.55-2.94-2.47-3.83a9.7,9.7,0,0,0-6.7.48,4,4,0,0,0-.86.65,13.63,13.63,0,0,0,.88,1.58c1.26,1.91,11.13,9.42,12.37,9.82A14,14,0,0,0,56.43,68.43Z"/><path class="cls-9" d="M43.66,60.88a20.88,20.88,0,0,1-3.6-4.29,16.72,16.72,0,0,1-1.5-3.44A.43.43,0,0,0,38,52.9c-.38.15-.31,1.35.19,2.6A23.39,23.39,0,0,0,41.8,61C43.36,62.81,43.66,60.88,43.66,60.88Z"/><path class="cls-3" d="M33.51,62.7a3.38,3.38,0,0,0-2.39-1.44c-1.49-.07-2.91,1.69-3.67,3.38s-1.71,4.66-1.12,5.71,7.59,11.85,8.3,14.18,1.92,7.15,3.63,9.3,10.06,7.34,10.86,9.07a16.15,16.15,0,0,0,2.68,4c.77.85,1.53,4,2,4.89s1.23,1.56,1.91,1.49,8.78-3.49,11.52-5.62a48.38,48.38,0,0,0,6.39-6.9,7.14,7.14,0,0,0-.9-1.69c-.43-.47-.95-2.31-1.22-2.52s-.87-.62-.57-1.31a2.87,2.87,0,0,0-.53-2.72,3.76,3.76,0,0,1-1-2.93,18.21,18.21,0,0,0-2.12-8,138,138,0,0,0-8.5-14,13.52,13.52,0,0,1-2.15-3.95c-.2-.69-1.08-2.32-2.42-2.51s-3.16-.12-3.76.49a7.56,7.56,0,0,0-1.09,1.63S47.9,58.9,47,58.62s-2.86-.81-4.06,0S41,61.93,41,61.93s-2.45-2.4-5.11-1.54A3.23,3.23,0,0,0,33.51,62.7Z"/><path class="cls-5" d="M32.21,62.69s-.9-1.17-2-.66-2.8,3.09-2.68,3.8,1.22,1.6,2.75.46A6.24,6.24,0,0,0,32.21,62.69Z"/><path class="cls-5" d="M34.5,63.27a1.49,1.49,0,0,0,2.58.93c2.09-1.51.61-3.67-.38-3.49A2.86,2.86,0,0,0,34.5,63.27Z"/><path class="cls-4" d="M41,61.93s-.39.92.48,3.31,1.82,3.84,2.34,3.59-.21-1.73-1.12-3.45S41,61.93,41,61.93Z"/><path class="cls-6" d="M41,62.11a4.8,4.8,0,0,0,.48,2.3c.62,1.69,1.23,2.75,1.49,2.62s-.23-1.2-.83-2.44S41,62.11,41,62.11Z"/><path class="cls-4" d="M33.51,62.7s-.56.71-.19,2.86,1,3.54,1.57,3.42.14-1.49-.41-3.1S33.51,62.7,33.51,62.7Z"/><path class="cls-6" d="M33.51,62.86a3.55,3.55,0,0,0-.07,2c.21,1.53.55,2.54.83,2.48s.06-1-.23-2.2S33.51,62.86,33.51,62.86Z"/><path class="cls-4" d="M49.34,63.18s-.51.9.52,3.33,1.85,3.12,2.39,2.82-.36-1.73-1.3-3.13A19.77,19.77,0,0,1,49.34,63.18Z"/><path class="cls-6" d="M49.24,63.22s-.21.59.52,2.37,1.22,2.32,1.49,2.15-.32-1.24-.93-2.29A20.43,20.43,0,0,1,49.24,63.22Z"/><path class="cls-5" d="M35.9,81.65c-.42.21-.86.53-.09,3.31s3,8,6.08,6.65-.38-6.51-2.15-8.1S36.32,81.43,35.9,81.65Z"/><path class="cls-5" d="M55.87,66.27c-.54.16-1-.1-.34,2.4s.63,3.09,2.73,5.81,3.89,5.67,4.1,7.15-.55,2.78.25,4.59,2.38,2.38,3.47,1.69c1.46-.91-.8-7.36-4.71-13.88S56.42,66.11,55.87,66.27Z"/><path class="cls-4" d="M68.42,91.57a15.46,15.46,0,0,0-2.28,2.73c.07.17,2.12-1.09,3.22-1,.62.05,1.18.13,1.56.2a2.7,2.7,0,0,0-.54-1,3.76,3.76,0,0,1-1-2.93A4.11,4.11,0,0,1,68.42,91.57Z"/><path class="cls-6" d="M68.12,93s1.06-1.56,1.29-1.24.82,1,.55,1-.54-.18-1-.07A3.19,3.19,0,0,0,68.12,93Z"/><path class="cls-4" d="M70.5,96.27s-.17-.27-1.12.38-2.68,2.09-2.56,2.41,1.24-.43,2.34-1.4A6.87,6.87,0,0,0,70.5,96.27Z"/><path class="cls-6" d="M70.23,96.44s-.1-.15-.62.21S68.13,97.8,68.2,98s.68-.24,1.29-.77A3.78,3.78,0,0,0,70.23,96.44Z"/><path class="cls-4" d="M72.19,98.91a24.26,24.26,0,0,1-2.29,1.94c-1,.7-1.86,1.12-1.79,1.3s1.58-.42,2.8-1.55S72.19,98.91,72.19,98.91Z"/><path class="cls-6" d="M71.88,99.32a16.15,16.15,0,0,1-1.52,1.29c-.67.47-1.24.75-1.19.86s1.05-.28,1.87-1S71.88,99.32,71.88,99.32Z"/><path class="cls-4" d="M48.52,100.94a4.65,4.65,0,0,0,.73,1.73c.56.76.75.71,2.15.29s2.56-.71,2.52-.92-4,.17-4.35,0A7,7,0,0,1,48.52,100.94Z"/><path class="cls-6" d="M49.43,102.17s-.15.14.16.47.47.3,1.69,0a11.49,11.49,0,0,0,2.23-.54c0-.1-3.31.24-3.53.17Z"/><path class="cls-4" d="M52.5,107.37s1,2.09,1.08,2.51a4.38,4.38,0,0,0,.79,2c.5.49,2.59-1.33,2.54-1.59s-2.38-.13-2.48-.5,2.18-1.34,2.1-1.62-1.82.09-2.62-.15A5.68,5.68,0,0,1,52.5,107.37Z"/><path class="cls-5" d="M48.06,7.9a1,1,0,0,0-.48.77,2.36,2.36,0,0,0,1.79,1.76c1,.15,2.44.15,2.65-.27s-.63-1.61-2.08-2.05S48.06,7.9,48.06,7.9Z"/><path class="cls-6" d="M54.07,109.24c.25.16.34.12,1-.24a6.45,6.45,0,0,0,1.21-.7c0-.06-1.91.69-2.05.68S53.82,109.08,54.07,109.24Z"/><path class="cls-6" d="M54.19,111.4s0,.14.29.31.42.11,1.09-.4a6.12,6.12,0,0,0,1.2-1c0-.08-2,1-2.18,1Z"/><path class="cls-10" d="M73.53,100.72a29.48,29.48,0,0,1-7.92,7.57A56.24,56.24,0,0,1,54.81,113a.52.52,0,0,0,.35.9c.83.19,6.34-1.52,10-3.71a26.88,26.88,0,0,0,7.11-5.66c1.16-1.46,2.19-3.22,1.91-3.72S73.53,100.72,73.53,100.72Z"/><path class="cls-11" d="M58.47,85.13c.31-3.24-4.48-13.28-5.71-14.05s-3.71.62-5.1.93-4.63-.77-6.49-1.39-2.47,2.32-3.71,2.93-4.17-1.7-5.87-2c-1.07-.19-2.75.53-3.85,1.09,2.25,3.58,6.35,10.14,6.88,11.9.71,2.34,1.92,7.15,3.63,9.3,1.29,1.61,6.33,4.95,9.08,7.24A50.79,50.79,0,0,0,61.4,97.79c1.39-.62,1.24-5.25.31-6.49S58.16,88.37,58.47,85.13Z"/></svg>