<svg id="Bio_instruments&#x751F;&#x7269;&#x4EEA;&#x5668;" data-name="Bio instruments&#x751F;&#x7269;&#x4EEA;&#x5668;" xmlns="http://www.w3.org/2000/svg" xmlns:xlink="http://www.w3.org/1999/xlink" viewbox="0 0 128 128" width="128" height="128"><defs><style>.cls-1{fill:url(#未命名的渐变_80);stroke:none;}.cls-2{fill:url(#未命名的渐变_45);stroke:none;}.cls-3{fill:url(#未命名的渐变_61);stroke:none;}.cls-4{fill:url(#未命名的渐变_61-2);stroke:none;}.cls-5{fill:url(#未命名的渐变_28);stroke:none;}.cls-6{fill:url(#未命名的渐变_102);stroke:none;}.cls-7{fill:url(#未命名的渐变_17);stroke:none;}.cls-8{fill:url(#未命名的渐变_78);stroke:none;}.cls-9{fill:#fdfeff;opacity:0.7;stroke:none;}.cls-10{fill:#fff;opacity:0.74;stroke:none;}</style><linearGradient id="&#x672A;&#x547D;&#x540D;&#x7684;&#x6E10;&#x53D8;_80" x1="61.57" y1="95.68" x2="71.02" y2="116.61" gradientunits="userSpaceOnUse"><stop offset="0" stop-color="#cbccce"/><stop offset="1" stop-color="#abadb0"/></linearGradient><linearGradient id="&#x672A;&#x547D;&#x540D;&#x7684;&#x6E10;&#x53D8;_45" x1="25.38" y1="76.66" x2="94.15" y2="83.54" gradientunits="userSpaceOnUse"><stop offset="0" stop-color="#e9e9ea"/><stop offset="0.03" stop-color="#efeff0"/><stop offset="0.85" stop-color="#cbccce"/><stop offset="1" stop-color="#d8d9da"/></linearGradient><linearGradient id="&#x672A;&#x547D;&#x540D;&#x7684;&#x6E10;&#x53D8;_61" x1="22.12" y1="83.86" x2="106.76" y2="83.86" gradientunits="userSpaceOnUse"><stop offset="0" stop-color="#dadbdc"/><stop offset="0.89" stop-color="#a7a9ac"/><stop offset="1" stop-color="#c2c4c6"/></linearGradient><linearGradient id="&#x672A;&#x547D;&#x540D;&#x7684;&#x6E10;&#x53D8;_61-2" x1="24.36" y1="91.52" x2="104.51" y2="91.52" xlink:href="#&#x672A;&#x547D;&#x540D;&#x7684;&#x6E10;&#x53D8;_61"><linearGradient id="&#x672A;&#x547D;&#x540D;&#x7684;&#x6E10;&#x53D8;_28" x1="87.52" y1="54.91" x2="-63.19" y2="52.41" gradientunits="userSpaceOnUse"><stop offset="0.16" stop-color="#efeff0"/><stop offset="0.31" stop-color="#e5e5e6"/><stop offset="0.57" stop-color="#cacbcc"/><stop offset="0.91" stop-color="#9ea0a3"/><stop offset="1" stop-color="#919396"/></linearGradient><linearGradient id="&#x672A;&#x547D;&#x540D;&#x7684;&#x6E10;&#x53D8;_102" x1="62.5" y1="51.97" x2="120.79" y2="91.29" gradientunits="userSpaceOnUse"><stop offset="0" stop-color="#ebebec"/><stop offset="0.47" stop-color="#d6d7d8"/><stop offset="1" stop-color="#babcbe"/></linearGradient><linearGradient id="&#x672A;&#x547D;&#x540D;&#x7684;&#x6E10;&#x53D8;_17" x1="94.42" y1="54.23" x2="39.81" y2="52.28" gradientunits="userSpaceOnUse"><stop offset="0" stop-color="#f8f8f9"/><stop offset="1" stop-color="#c2c4c6"/></linearGradient><linearGradient id="&#x672A;&#x547D;&#x540D;&#x7684;&#x6E10;&#x53D8;_78" x1="81.86" y1="43.93" x2="95.06" y2="55.25" gradientunits="userSpaceOnUse"><stop offset="0" stop-color="#f2f2f2"/><stop offset="0.42" stop-color="#dcddde"/><stop offset="1" stop-color="#b3b3b3"/></linearGradient></linearGradient></defs><title>&#x751F;&#x7269;&#x4EEA;&#x5668;</title><ellipse class="cls-1" cx="64.39" cy="101.93" rx="27.85" ry="13.04"/><path class="cls-2" d="M64.39,112.7c-22.42,0-35-10.24-38.71-22.87l-9.76-36.9h96.94l-9.77,36.9C99.38,102.46,86.8,112.7,64.39,112.7Z"/><path class="cls-3" d="M22.12,76.73l1,3.69c9.83,6.69,24.6,11,41.1,11C81,91.38,95.94,87,105.77,80.1l1-3.76C97.62,83.89,82,88.88,64.2,88.88,46.76,88.88,31.34,84.06,22.12,76.73Z"/><path class="cls-4" d="M64.2,95.69c-16.11,0-30.48-4.11-39.84-10.52l.91,3.43c9.77,5.9,23.6,9.58,38.93,9.58,15.56,0,29.59-3.8,39.39-9.85l.92-3.49C95.15,91.45,80.57,95.69,64.2,95.69Z"/><path class="cls-5" d="M112.86,54.52c0,13.21-21.7,23.91-48.47,23.91S15.92,67.73,15.92,54.52s21.7-23.89,48.47-23.89S112.86,41.33,112.86,54.52Z"/><ellipse class="cls-6" cx="64.39" cy="53.25" rx="48.47" ry="23.9"/><ellipse class="cls-7" cx="64.47" cy="53.16" rx="42.18" ry="19.92"/><path class="cls-8" d="M108.18,12.06a5.11,5.11,0,0,0-7.12,1.19S92.31,24.73,83.15,35.69C81,38.26,79.07,40.47,77.57,42c-9.38,9.51-16.36,12.87-20.9,17a14.72,14.72,0,0,0-2.72,2.91A15,15,0,0,0,52,65.52h0a14.33,14.33,0,0,0-.8,6.61,79,79,0,0,0,12.48,1.13,76.17,76.17,0,0,0,18.62-2.07c1.43-5,3-11.63,7.39-20.52,1.23-2.47,3.3-6,5.71-9.9,7.44-12,13.94-21.59,13.94-21.59A5.11,5.11,0,0,0,108.18,12.06Z"/><path class="cls-9" d="M103,17.44,85.52,39.11c-.7.89-3,2.85-3.65,2.37h0c-.62-.48.72-3.22,1.42-4.11l17.48-21.68c.7-.89,2.59-2.27,3.2-1.79h0C104.58,14.38,103.7,16.54,103,17.44Z"/><path class="cls-10" d="M64.26,56.53c-.21-.22-.52-.4-3.08,1.16s-7.31,5-6,6.69,6-2.67,7.46-4.49S64.47,56.74,64.26,56.53Z"/></svg>