<svg id="Bio_instruments&#x751F;&#x7269;&#x4EEA;&#x5668;" data-name="Bio instruments&#x751F;&#x7269;&#x4EEA;&#x5668;" xmlns="http://www.w3.org/2000/svg" xmlns:xlink="http://www.w3.org/1999/xlink" viewbox="0 0 128 128" width="128" height="128"><defs><style>.cls-1,.cls-8{fill:none;stroke:none;}.cls-2{fill-rule:evenodd;fill:url(#未命名的渐变_18);stroke:none;}.cls-3{fill:#8b8e90;opacity:0.78;stroke:none;}.cls-4{fill:#fff;stroke:none;}.cls-5{fill:#656668;opacity:0.33;stroke:none;}.cls-6{fill:url(#未命名的渐变_27);stroke:none;}.cls-7{clip-path:url(#clip-path);stroke:none;}.cls-8{stroke:#1072ba;stroke-linecap:round;stroke-linejoin:round;stroke-width:0.35px;}.cls-9{fill:#234da1;stroke:none;}.cls-10{fill:#3675bb;stroke:none;}.cls-11{fill:#2bace2;stroke:none;}.cls-12{fill:#0f70b8;stroke:none;}.cls-13{fill:#168acb;stroke:none;}.cls-14{fill:#8fd8f8;stroke:none;}</style><linearGradient id="&#x672A;&#x547D;&#x540D;&#x7684;&#x6E10;&#x53D8;_18" x1="67.12" y1="88.63" x2="77.78" y2="88.63" gradienttransform="translate(53.82 -34.08) rotate(40)" gradientunits="userSpaceOnUse"><stop offset="0" stop-color="#f0eff0"/><stop offset="0.13" stop-color="#e9e8e9"/><stop offset="0.31" stop-color="#d7d6d7"/><stop offset="0.52" stop-color="#b9b8b9"/><stop offset="0.76" stop-color="#8f8f8f"/><stop offset="0.77" stop-color="#8c8c8c"/><stop offset="0.83" stop-color="#909090"/><stop offset="0.9" stop-color="#9c9c9c"/><stop offset="0.96" stop-color="#b0b0b0"/><stop offset="1" stop-color="#c4c4c4"/></linearGradient><linearGradient id="&#x672A;&#x547D;&#x540D;&#x7684;&#x6E10;&#x53D8;_27" x1="62.01" y1="52.65" x2="82.97" y2="52.65" gradienttransform="translate(53.82 -34.08) rotate(40)" gradientunits="userSpaceOnUse"><stop offset="0.01" stop-color="#1072ba"/><stop offset="0.12" stop-color="#1176bd"/><stop offset="0.23" stop-color="#1382c5"/><stop offset="0.29" stop-color="#158ccc"/><stop offset="0.45" stop-color="#197ec2"/><stop offset="0.74" stop-color="#235ba9"/><stop offset="1" stop-color="#2e368f"/></linearGradient><clippath id="clip-path"><path class="cls-1" d="M70.49,42.57l-3.25,3.84c-1.52,1.81.85,6.29,5.28,10s9.25,5.27,10.77,3.46L86.52,56Z"/></clippath></defs><title>&#x751F;&#x7269;&#x4EEA;&#x5668;</title><path class="cls-2" d="M74.78,52.8h0c-1.75-1.85-4.58-2-6-.26l-32,38.14a10.06,10.06,0,0,0-2.3,5.75l0,.25c-.19,2.45-1.89,4-3.41,5.86l-2.65,3.16,0,0c0,.09-.33.72,1,1.86s1.94.61,1.94.61L34,105c1.51-1.8,3-3.53,5.41-4.14l.27-.07a10,10,0,0,0,5.24-3.24l32-38.15c1.44-1.72.83-4.48-1.3-5.89h0A4.82,4.82,0,0,1,74.78,52.8Z"/><path class="cls-3" d="M39.67,100.79a10,10,0,0,0,5.24-3.24l32-38.15a3.44,3.44,0,0,0,.74-2.64l-2.45-1.09L43.45,93.52a22.66,22.66,0,0,1-5.53,4.71A19.49,19.49,0,0,0,33,103l-3.73,4.45.14.13c1.46,1.22,1.94.61,1.94.61L34,105c1.51-1.8,3-3.53,5.41-4.14Z"/><path class="cls-4" d="M28.42,106.44a2.5,2.5,0,0,0,.39.57c1-1.17,6.5-7.59,7.67-10.37a20.69,20.69,0,0,1,3.77-5.88c1.23-1.46,31.47-37.22,31.47-37.22l-1.4-1.17L38.64,90.13a14.75,14.75,0,0,0-2.91,5.15,22.12,22.12,0,0,1-4.4,7.69Z"/><path class="cls-5" d="M75.65,56.87l.87.73L44.84,95.37a12.43,12.43,0,0,1-4.67,3.7c-5.53,2.19-.11.21,4.25-4.79C45.67,92.84,75.65,56.87,75.65,56.87Z"/><path class="cls-5" d="M29.8,107.89l6.67-8a38.93,38.93,0,0,0-4.27,4.31l-2.86,3.29,0,0C29.53,107.7,29.66,107.8,29.8,107.89Z"/><path class="cls-6" d="M70.49,42.57l-3.25,3.84c-1.52,1.81.85,6.29,5.28,10s9.25,5.27,10.77,3.46L86.52,56Z"/><g class="cls-7"><line class="cls-8" x1="70.32" y1="42.8" x2="63.76" y2="50.9"/><line class="cls-8" x1="70.68" y1="43.08" x2="64.11" y2="51.19"/><line class="cls-8" x1="71.25" y1="43.55" x2="64.69" y2="51.66"/><line class="cls-8" x1="71.85" y1="44.03" x2="65.28" y2="52.14"/><line class="cls-8" x1="72.74" y1="44.75" x2="66.18" y2="52.86"/><line class="cls-8" x1="73.66" y1="45.5" x2="67.1" y2="53.61"/><line class="cls-8" x1="74.6" y1="46.26" x2="68.03" y2="54.36"/><line class="cls-8" x1="75.54" y1="47.02" x2="68.98" y2="55.13"/><line class="cls-8" x1="76.48" y1="47.79" x2="69.92" y2="55.89"/><line class="cls-8" x1="78.03" y1="49.04" x2="71.46" y2="57.14"/><line class="cls-8" x1="79.87" y1="50.53" x2="73.3" y2="58.63"/><line class="cls-8" x1="81.24" y1="51.64" x2="74.67" y2="59.74"/><line class="cls-8" x1="82.17" y1="52.39" x2="75.61" y2="60.5"/><line class="cls-8" x1="83.11" y1="53.15" x2="76.55" y2="61.26"/><line class="cls-8" x1="84.03" y1="53.9" x2="77.47" y2="62"/><line class="cls-8" x1="84.92" y1="54.62" x2="78.36" y2="62.73"/><line class="cls-8" x1="85.53" y1="55.11" x2="78.96" y2="63.22"/><line class="cls-8" x1="86.08" y1="55.56" x2="79.52" y2="63.66"/><line class="cls-8" x1="86.46" y1="55.87" x2="79.9" y2="63.97"/></g><ellipse class="cls-9" cx="78.49" cy="49.29" rx="4.27" ry="10.48" transform="translate(-9.72 77.73) rotate(-50)"/><ellipse class="cls-10" cx="78.49" cy="49.29" rx="3.72" ry="9.64" transform="translate(-9.72 77.73) rotate(-50)"/><path class="cls-11" d="M77.1,52.37c-3.8-3.19-5.9-6.93-4.7-8.36s5.25,0,9,3.18l.53.46c-.38-.37-.78-.73-1.2-1.08-3.89-3.26-8.07-4.69-9.32-3.19s.87,5.36,4.76,8.63a18.93,18.93,0,0,0,5.51,3.33A20.07,20.07,0,0,1,77.1,52.37Z"/><path class="cls-12" d="M74,43.75,92.54,21.66a7,7,0,0,1,9.85-.86h0a7,7,0,0,1,.86,9.85L84.72,52.74c-.66.78-2.47,3.55-8.12-1.2S73.35,44.53,74,43.75Z"/><path class="cls-13" d="M75.14,44.1,93.09,22.72c2.4-2.86,6.13-3.69,8.34-1.84h0c2.2,1.85,2,5.67-.37,8.53L83.11,50.79c-.64.76-2.45,3.38-6.66-.15S74.51,44.86,75.14,44.1Z"/><path class="cls-11" d="M76.06,44.16l17.1-20.38c2.29-2.73,5-4.21,7.17-2.41s0,0,0,0c1.67,1.4,1.16,4.75-1.13,7.48L82.1,49.23c-.61.72-2.38,3.18-5.57.51S75.45,44.89,76.06,44.16Z"/><path class="cls-14" d="M75.32,47.31s-.74-.28,1.13-2.59S94.17,23.63,94.17,23.63s1.95-2.34,3.68-2.36,2.93,1.13,2.25,2c-1,1.26-1.45-.31-3.27.33s-3.48,3-8.39,8.74C83.34,38.26,75.32,47.31,75.32,47.31Z"/></svg>