<svg xmlns="http://www.w3.org/2000/svg" xmlns:xlink="http://www.w3.org/1999/xlink" viewbox="0 0 128 128" width="128" height="128"><defs><style>.cls-1{isolation:isolate;stroke:none;}.cls-2,.cls-4,.cls-6,.cls-9{fill:#fff;stroke:none;}.cls-2{mix-blend-mode:overlay;stroke:none;}.cls-3{fill:url(#linear-gradient);stroke:none;}.cls-4{opacity:0.64;stroke:none;}.cls-5{fill:#b3b5b8;opacity:0.29;stroke:none;}.cls-6{opacity:0.37;stroke:none;}.cls-7{fill:url(#linear-gradient-2);stroke:none;}.cls-8{fill:url(#未命名的渐变_83);stroke:none;}.cls-10{fill:url(#linear-gradient-3);stroke:none;}.cls-11{fill:url(#linear-gradient-4);stroke:none;}</style><linearGradient id="linear-gradient" x1="49.23" y1="38.38" x2="63.73" y2="38.38" gradienttransform="translate(42.39 -1.21) rotate(40)" gradientunits="userSpaceOnUse"><stop offset="0.01" stop-color="#d2d2d2"/><stop offset="0.07" stop-color="#dedede"/><stop offset="0.17" stop-color="#ebecec"/><stop offset="0.3" stop-color="#f3f4f4"/><stop offset="0.54" stop-color="#f5f6f6"/><stop offset="0.71" stop-color="#f3f3f3"/><stop offset="0.82" stop-color="#ebebeb"/><stop offset="0.91" stop-color="#dddddc"/><stop offset="0.99" stop-color="#cac9c8"/><stop offset="1" stop-color="#c8c7c6"/></linearGradient><linearGradient id="linear-gradient-2" x1="59.54" y1="-18.99" x2="50.98" y2="-18.99" gradienttransform="translate(42.39 -1.21) rotate(40)" gradientunits="userSpaceOnUse"><stop offset="0.01" stop-color="#d2d2d2"/><stop offset="0.34" stop-color="#d6d6d6"/><stop offset="0.67" stop-color="#e2e2e2"/><stop offset="1" stop-color="#f5f6f6"/></linearGradient><linearGradient id="&#x672A;&#x547D;&#x540D;&#x7684;&#x6E10;&#x53D8;_83" x1="53.76" y1="-18.89" x2="57.21" y2="-20.5" gradienttransform="translate(78.42 -36.79) rotate(90)" gradientunits="userSpaceOnUse"><stop offset="0.01" stop-color="#d2d2d2"/><stop offset="0.58" stop-color="#d5d6d6"/><stop offset="1" stop-color="#dcddde"/></linearGradient><linearGradient id="linear-gradient-3" x1="49.56" y1="-20.15" x2="63.19" y2="-20.15" gradienttransform="translate(78.41 -36.8) rotate(90)" gradientunits="userSpaceOnUse"><stop offset="0.01" stop-color="#767676"/><stop offset="0.01" stop-color="#777"/><stop offset="0.12" stop-color="#9d9d9d"/><stop offset="0.23" stop-color="#bcbcbc"/><stop offset="0.35" stop-color="#d4d4d4"/><stop offset="0.48" stop-color="#e5e5e5"/><stop offset="0.61" stop-color="#f0f0f0"/><stop offset="0.78" stop-color="#f3f3f3"/><stop offset="0.83" stop-color="#efefef"/><stop offset="0.87" stop-color="#e4e4e4"/><stop offset="0.92" stop-color="#d1d1d1"/><stop offset="0.97" stop-color="#b6b6b6"/><stop offset="1" stop-color="#9e9e9e"/></linearGradient><linearGradient id="linear-gradient-4" x1="63.26" y1="-21" x2="49.72" y2="-21" gradienttransform="translate(42.39 -1.21) rotate(40)" gradientunits="userSpaceOnUse"><stop offset="0.01" stop-color="#989898"/><stop offset="0.1" stop-color="#b1b1b1"/><stop offset="0.24" stop-color="#cdcdcd"/><stop offset="0.39" stop-color="#e3e3e3"/><stop offset="0.55" stop-color="#f3f3f3"/><stop offset="0.74" stop-color="#fcfcfc"/><stop offset="1" stop-color="#fff"/></linearGradient></defs><title>&#x751F;&#x7269;&#x4EEA;&#x5668;</title><g class="cls-1"><g id="Bio_instruments&#x751F;&#x7269;&#x4EEA;&#x5668;" data-name="Bio instruments&#x751F;&#x7269;&#x4EEA;&#x5668;"><path class="cls-2" d="M92.6,19.1,25.42,99.17c-3,3.55-.26,6.41-.13,6.46-.87-1.37-.53-3.6,1.15-5.61L93.33,20.3Z"/><path class="cls-3" d="M92.7,15.41,22.57,99a7,7,0,0,0,1.14,9.92,7,7,0,0,0,10-.6l70.13-83.57Z"/><path class="cls-4" d="M93.17,18.29,24.6,100c-3,3.63-.26,6.54-.13,6.6-.89-1.4-.54-3.68,1.17-5.72L93.91,19.51Z"/><path class="cls-5" d="M101.66,25.42,33.44,106.72c-3,3.63-7.52,1.16-7.61,1,1.84.89,4.61-.08,6.31-2.11l67.93-81Z"/><path class="cls-6" d="M100.28,24.26,32.05,105.56c-3,3.63-5.77,2.62-5.82,2.53,1.15.31,3.4-1.09,5.11-3.13L99.27,24Z"/><path class="cls-7" d="M103.58,24a14.72,14.72,0,0,0-4.33-5.25,14.72,14.72,0,0,0-5.92-3.35l-.84-.71-.42,1c-.8,1,1.12,3.88,4.29,6.54s6.45,4.07,7.34,3.22l.72-.71Z"/><ellipse class="cls-8" cx="98.55" cy="19.63" rx="2.52" ry="7.79" transform="translate(20.16 82.5) rotate(-50)"/><path class="cls-9" d="M96.92,21.57c-3.23-2.71-5.15-5.74-4.39-6.87l-.07.06c-.9,1.07,1,4.18,4.34,6.94s6.69,4.14,7.59,3.07l0-.07C103.47,25.64,100.15,24.28,96.92,21.57Z"/><ellipse class="cls-10" cx="98.56" cy="19.62" rx="1.8" ry="6.86" transform="translate(20.18 82.51) rotate(-50)"/><path class="cls-11" d="M99.58,18.4c2.8,2.35,4.6,4.84,4.15,5.69l.08-.07c.64-.76-1.2-3.35-4.1-5.78s-5.77-3.79-6.41-3a.5.5,0,0,0-.05.09C94,14.71,96.78,16,99.58,18.4Z"/><polygon class="cls-9" points="92.91 18.59 93.3 17.95 94.18 19.1 93.77 19.68 92.91 18.59"/></g></g></svg>