<svg xmlns="http://www.w3.org/2000/svg" xmlns:xlink="http://www.w3.org/1999/xlink" viewbox="0 0 128 128" width="128" height="128"><defs><style>.cls-1{isolation:isolate;stroke:none;}.cls-2{fill:url(#未命名的渐变_520);stroke:none;}.cls-19,.cls-23,.cls-3,.cls-8{fill:#fff;stroke:none;}.cls-3{opacity:0.2;stroke:none;}.cls-4{fill:#5e656c;opacity:0.18;stroke:none;}.cls-11,.cls-12,.cls-13,.cls-24,.cls-4,.cls-7{mix-blend-mode:multiply;stroke:none;}.cls-5{fill:#5188c7;stroke:none;}.cls-6{fill:url(#未命名的渐变_520-2);stroke:none;}.cls-7{fill:#4a72b8;opacity:0.4;stroke:none;}.cls-8{opacity:0.19;stroke:none;}.cls-8,.cls-9{mix-blend-mode:lighten;stroke:none;}.cls-9{opacity:0.59;fill:url(#未命名的渐变_501);stroke:none;}.cls-10{opacity:0.88;stroke:none;}.cls-11,.cls-12,.cls-13{opacity:0.21;stroke:none;}.cls-11{fill:url(#未命名的渐变_170);stroke:none;}.cls-12{fill:url(#未命名的渐变_170-2);stroke:none;}.cls-13{fill:url(#未命名的渐变_170-3);stroke:none;}.cls-14{fill:url(#linear-gradient);stroke:none;}.cls-15{fill:#434343;stroke:none;}.cls-16{opacity:0.53;fill:url(#linear-gradient-2);stroke:none;}.cls-17{fill:url(#linear-gradient-3);stroke:none;}.cls-18{fill:url(#未命名的渐变_180);stroke:none;}.cls-20{fill:url(#linear-gradient-4);stroke:none;}.cls-21{fill:url(#未命名的渐变_182);stroke:none;}.cls-22,.cls-23,.cls-24{fill-rule:evenodd;stroke:none;}.cls-22{fill:url(#未命名的渐变_320);stroke:none;}.cls-23{opacity:0.33;stroke:none;}.cls-24{opacity:0.27;fill:url(#linear-gradient-5);stroke:none;}.cls-25{fill:#dcddde;stroke:none;}</style><linearGradient id="&#x672A;&#x547D;&#x540D;&#x7684;&#x6E10;&#x53D8;_520" x1="47.62" y1="114.51" x2="90.27" y2="114.51" gradientunits="userSpaceOnUse"><stop offset="0" stop-color="#7ea6d7"/><stop offset="0.12" stop-color="#88b0db"/><stop offset="0.15" stop-color="#8bb4dc"/><stop offset="0.31" stop-color="#7ca4d0"/><stop offset="0.61" stop-color="#557cb0"/><stop offset="0.79" stop-color="#3a5f9a"/><stop offset="0.87" stop-color="#3b619e"/><stop offset="0.95" stop-color="#3e68aa"/><stop offset="1" stop-color="#416eb6"/></linearGradient><linearGradient id="&#x672A;&#x547D;&#x540D;&#x7684;&#x6E10;&#x53D8;_520-2" x1="48.11" y1="75.83" x2="89.78" y2="75.83" xlink:href="#&#x672A;&#x547D;&#x540D;&#x7684;&#x6E10;&#x53D8;_520"><linearGradient id="&#x672A;&#x547D;&#x540D;&#x7684;&#x6E10;&#x53D8;_501" x1="49.8" y1="45.17" x2="90.61" y2="50.9" gradientunits="userSpaceOnUse"><stop offset="0.2" stop-color="#90c0e7"/><stop offset="0.32" stop-color="#89b8e0"/><stop offset="0.51" stop-color="#76a2ce"/><stop offset="0.74" stop-color="#577db0"/><stop offset="0.85" stop-color="#466aa0"/><stop offset="0.89" stop-color="#426ca3"/><stop offset="0.93" stop-color="#3674ad"/><stop offset="0.97" stop-color="#2180bd"/><stop offset="1" stop-color="#0d8ccd"/></linearGradient><linearGradient id="&#x672A;&#x547D;&#x540D;&#x7684;&#x6E10;&#x53D8;_170" x1="59.81" y1="34.89" x2="85.68" y2="38.79" gradientunits="userSpaceOnUse"><stop offset="0" stop-color="#1072ba"/><stop offset="0.29" stop-color="#126db6"/><stop offset="0.65" stop-color="#175ea9"/><stop offset="0.99" stop-color="#1f4998"/></linearGradient><linearGradient id="&#x672A;&#x547D;&#x540D;&#x7684;&#x6E10;&#x53D8;_170-2" x1="58.67" y1="42.46" x2="84.54" y2="46.36" xlink:href="#&#x672A;&#x547D;&#x540D;&#x7684;&#x6E10;&#x53D8;_170"><linearGradient id="&#x672A;&#x547D;&#x540D;&#x7684;&#x6E10;&#x53D8;_170-3" x1="58.84" y1="42.48" x2="84.7" y2="46.38" xlink:href="#&#x672A;&#x547D;&#x540D;&#x7684;&#x6E10;&#x53D8;_170"><linearGradient id="linear-gradient" x1="54.86" y1="43.09" x2="83.18" y2="43.09" gradientunits="userSpaceOnUse"><stop offset="0" stop-color="#969696"/><stop offset="0.09" stop-color="#9a9a9a"/><stop offset="0.18" stop-color="#a6a6a6"/><stop offset="0.28" stop-color="#bbb"/><stop offset="0.29" stop-color="#bdbdbd"/><stop offset="0.46" stop-color="#a1a1a1"/><stop offset="0.82" stop-color="#696969"/><stop offset="1" stop-color="#535353"/></linearGradient><linearGradient id="linear-gradient-2" x1="54.86" y1="43.1" x2="83.18" y2="43.1" gradientunits="userSpaceOnUse"><stop offset="0" stop-color="#d4d4d4"/><stop offset="0.11" stop-color="#d8d8d8"/><stop offset="0.23" stop-color="#e4e4e4"/><stop offset="0.29" stop-color="#ededee"/><stop offset="0.55" stop-color="#dededf"/><stop offset="1" stop-color="#c9c9c9"/></linearGradient><linearGradient id="linear-gradient-3" x1="54.86" y1="48.36" x2="83.18" y2="48.36" xlink:href="#linear-gradient"><linearGradient id="&#x672A;&#x547D;&#x540D;&#x7684;&#x6E10;&#x53D8;_180" x1="68.84" y1="36.29" x2="75.66" y2="36.29" gradientunits="userSpaceOnUse"><stop offset="0" stop-color="#ccc"/><stop offset="0.27" stop-color="#c8c8c8"/><stop offset="0.56" stop-color="#bcbcbc"/><stop offset="0.84" stop-color="#a7a7a7"/><stop offset="1" stop-color="#989898"/></linearGradient><linearGradient id="linear-gradient-4" x1="57.12" y1="36.02" x2="80.92" y2="36.02" gradientunits="userSpaceOnUse"><stop offset="0" stop-color="#fdfeff"/><stop offset="0.2" stop-color="#f9fafb"/><stop offset="0.4" stop-color="#edeeef"/><stop offset="0.6" stop-color="#d9dada"/><stop offset="0.81" stop-color="#bdbebe"/><stop offset="1" stop-color="#9b9c9c"/></linearGradient><linearGradient id="&#x672A;&#x547D;&#x540D;&#x7684;&#x6E10;&#x53D8;_182" x1="80.98" y1="36.22" x2="62.98" y2="35.16" gradientunits="userSpaceOnUse"><stop offset="0" stop-color="#fff"/><stop offset="0.16" stop-color="#fbfbfb"/><stop offset="0.32" stop-color="#efefef"/><stop offset="0.49" stop-color="#dadada"/><stop offset="0.65" stop-color="#bebebe"/><stop offset="0.82" stop-color="#999"/><stop offset="0.98" stop-color="#6c6c6c"/><stop offset="1" stop-color="#676767"/></linearGradient><linearGradient id="&#x672A;&#x547D;&#x540D;&#x7684;&#x6E10;&#x53D8;_320" x1="31.69" y1="25.33" x2="71.3" y2="25.33" gradientunits="userSpaceOnUse"><stop offset="0.77" stop-color="#f0f0f0"/><stop offset="1" stop-color="#c7c7c7"/></linearGradient><linearGradient id="linear-gradient-5" x1="35.55" y1="27.01" x2="67.61" y2="27.01" gradientunits="userSpaceOnUse"><stop offset="0" stop-color="#f2f2f2"/><stop offset="1" stop-color="#999"/></linearGradient></linearGradient></linearGradient></linearGradient></linearGradient></defs><title>&#x751F;&#x7269;&#x4EEA;&#x5668;</title><g class="cls-1"><g id="Bio_instruments&#x751F;&#x7269;&#x4EEA;&#x5668;" data-name="Bio instruments&#x751F;&#x7269;&#x4EEA;&#x5668;"><path class="cls-2" d="M47.62,111.3v2.06c0,2.41,9.55,4.37,21.32,4.37s21.32-2,21.32-4.37V111.3Z"/><path class="cls-3" d="M49.7,117c1.18.62,2.83-.45,4.79-.08v-6.15H49.7Z"/><path class="cls-4" d="M80.22,117.06c6-.77,10-2.14,10-3.7V111.3h-10Z"/><ellipse class="cls-5" cx="68.95" cy="111.3" rx="21.32" ry="4.37"/><path class="cls-6" d="M56.31,36.8v8.75a4.38,4.38,0,0,1-3.61,4.7c-4.53,1.25-4.6,7.32-4.6,7.32V111c0,2.16,9.33,3.9,20.84,3.9s20.84-1.75,20.84-3.9V57.57s-.07-6.07-4.6-7.32a4.38,4.38,0,0,1-3.61-4.7V36.8"/><path class="cls-7" d="M89.78,111V57.57s-.07-6.07-4.6-7.32a4.38,4.38,0,0,1-3.61-4.7V36.8H74A34.32,34.32,0,0,0,75.64,48,18.73,18.73,0,0,1,85,64.42v49C88,112.78,89.78,111.91,89.78,111Z"/><path class="cls-8" d="M59.95,47.61s-8.32,6.24-8.32,12.07v53.45a42.22,42.22,0,0,0,6.1,1.12V60.93s.07-6.43,2.81-9.8,8.41-10.44,8.41-10.44Z"/><path class="cls-9" d="M56.31,36.8v8.75a4.38,4.38,0,0,1-3.61,4.7c-3.71,1-4.43,5.27-4.56,6.78a71.61,71.61,0,0,0,20.8,2.83A71.61,71.61,0,0,0,89.75,57c-.14-1.51-.86-5.75-4.56-6.78a4.38,4.38,0,0,1-3.61-4.7V36.8"/><g class="cls-10"><path class="cls-11" d="M81.57,37.63V35.73l-20-1.95-5.3,1.07V36.8l5.3-1Z"/><path class="cls-12" d="M86.91,51.09a5.22,5.22,0,0,0-1.73-.84,4.38,4.38,0,0,1-3.61-4.7V37.63l-20-1.84-5.3,1v8.75a4.55,4.55,0,0,1-1.61,3.77,62.57,62.57,0,0,0,14.4,2.86C77.76,53,85.05,52.53,86.91,51.09Z"/><path class="cls-13" d="M86.91,51.09a5.22,5.22,0,0,0-1.73-.84,4.38,4.38,0,0,1-3.61-4.7V37.63l-20-1.84-5.3,1v8.75a4.55,4.55,0,0,1-1.61,3.77,62.57,62.57,0,0,0,14.4,2.86C77.76,53,85.05,52.53,86.91,51.09Z"/></g><path class="cls-14" d="M54.86,36.29V47.12c0,1.53,6.34,2.77,14.16,2.77s14.16-1.24,14.16-2.77V36.29Z"/><path class="cls-15" d="M69,49.59c-7.82,0-14.16-1.24-14.16-2.77v.3c0,1.53,6.34,2.77,14.16,2.77s14.16-1.24,14.16-2.77v-.3C83.18,48.34,76.84,49.59,69,49.59Z"/><path class="cls-16" d="M62.13,49.55l1.35.13V36.3H62.13Zm-2.59-.37,1.35.21V36.3H59.54Zm5.18.59,1.35.07V36.3H64.72ZM57,48.57c.4.13.85.25,1.35.36V36.3H57ZM82.84,36.3V47.73a.84.84,0,0,0,.34-.6V36.3Zm-28,10.83c0,.33.31.64.85.94V36.3h-.85Zm17.62,2.69,1.35-.08V36.3H72.48Zm-5.18.06,1.35,0V36.3H67.31Zm12.94-1.07a13,13,0,0,0,1.35-.42V36.3H80.25Zm-2.59.51c.47-.07.92-.15,1.35-.23V36.3H77.66Zm-7.77.57,1.35,0V36.3H69.9Zm5.18-.26,1.35-.14V36.3H75.07Z"/><path class="cls-17" d="M80.25,48.81a13,13,0,0,0,1.35-.42v-.3a13,13,0,0,1-1.35.42Zm-5.18.82,1.35-.14v-.3l-1.35.14Zm-2.59.18,1.35-.08v-.3l-1.35.08Zm-12.94-.63,1.35.21v-.3l-1.35-.21Zm10.36.71,1.35,0v-.3l-1.35,0Zm7.77-.57c.47-.07.92-.15,1.35-.23v-.3c-.42.08-.88.16-1.35.23ZM57,48.57c.4.13.85.25,1.35.36v-.3c-.5-.11-.94-.24-1.35-.36Zm-2.09-1.74v.3a.79.79,0,0,0,.29.56h0a2.6,2.6,0,0,0,.56.38v-.3C55.17,47.48,54.86,47.16,54.86,46.83Zm28,.59v.3a.84.84,0,0,0,.34-.6v-.3A.83.83,0,0,1,82.84,47.43ZM67.31,49.88l1.35,0v-.3l-1.35,0Zm-5.18-.33,1.35.13v-.3l-1.35-.13Zm2.59.22,1.35.07v-.3l-1.35-.07Z"/><ellipse class="cls-18" cx="69.02" cy="36.29" rx="14.16" ry="2.77"/><path class="cls-19" d="M69,39c-7.61,0-13.8-1.18-14.12-2.65a.52.52,0,0,0,0,.12C54.86,38,61.2,39.2,69,39.2S83.18,38,83.18,36.42a.67.67,0,0,0,0-.12C82.82,37.78,76.63,39,69,39Z"/><ellipse class="cls-20" cx="69.02" cy="36.02" rx="11.9" ry="1.98"/><path class="cls-21" d="M57.37,36.43c1.13-.9,5.91-1.57,11.65-1.57s10.52.68,11.65,1.57a.56.56,0,0,0,.26-.41c0-1.1-5.33-2-11.9-2s-11.9.89-11.9,2A.55.55,0,0,0,57.37,36.43Z"/><path class="cls-22" d="M71.3,35.36V22.62a8.59,8.59,0,0,0-9.77-8.51L36.06,17.63l-4.37,3.56s5,1,5.17,1,15.27-2.11,23.85-3.31a5.07,5.07,0,0,1,5.78,5V35.21c0,.54.38,1.42,2.41,1.42S71.3,35.66,71.3,35.36Z"/><path class="cls-23" d="M61.53,14.11,36.06,17.63l-.13.09,1.94.2c.17,0,17.73-2.11,27.7-3.31h.2A8.53,8.53,0,0,0,61.53,14.11Z"/><path class="cls-24" d="M60.31,17.71,36.15,21.25l-.6.46c1.21.16,1.22.53,1.3.53s15.27-2.11,23.85-3.31a5.07,5.07,0,0,1,5.78,5V35.21c0,.4.21,1,1.13,1.26V24C67.61,18.75,65.08,17,60.31,17.71Z"/><path class="cls-25" d="M31.69,21.19s5,1,5.17,1L33,20.78l3.05-3.15Z"/></g></g></svg>