<svg xmlns="http://www.w3.org/2000/svg" xmlns:xlink="http://www.w3.org/1999/xlink" viewbox="0 0 128 128" width="128" height="128"><defs><style>.cls-1{fill:none;stroke:none;}.cls-2{isolation:isolate;stroke:none;}.cls-3{fill:#fbbfa7;stroke:none;}.cls-4{fill:#f3ac93;stroke:none;}.cls-5{fill:#5a7fc0;stroke:none;}.cls-50,.cls-6{fill:#628eca;stroke:none;}.cls-6{opacity:0.48;stroke:none;}.cls-7{fill:url(#未命名的渐变_14);stroke:none;}.cls-8{fill:url(#未命名的渐变_167);stroke:none;}.cls-9{fill:url(#未命名的渐变_38);stroke:none;}.cls-10{fill:url(#未命名的渐变_20);stroke:none;}.cls-11{fill:url(#未命名的渐变_43);stroke:none;}.cls-12{fill:url(#未命名的渐变_67);stroke:none;}.cls-13{fill:url(#未命名的渐变_411);stroke:none;}.cls-14{fill:url(#未命名的渐变_388);stroke:none;}.cls-15{fill:#e8f4f7;stroke:none;}.cls-16{fill:url(#未命名的渐变_403);stroke:none;}.cls-17{fill:#d1e1e7;stroke:none;}.cls-18{fill:url(#未命名的渐变_119);stroke:none;}.cls-19{fill:#479798;stroke:none;}.cls-20{fill:#6b7e84;stroke:none;}.cls-20,.cls-29,.cls-32{mix-blend-mode:multiply;stroke:none;}.cls-21{fill:#2c4c53;stroke:none;}.cls-22{fill:url(#未命名的渐变_181);stroke:none;}.cls-23{fill:#82b7bc;stroke:none;}.cls-24{fill:url(#未命名的渐变_92);stroke:none;}.cls-25{fill:url(#未命名的渐变_92-2);stroke:none;}.cls-26{fill:url(#未命名的渐变_92-3);stroke:none;}.cls-27{fill:url(#未命名的渐变_140);stroke:none;}.cls-28{fill:#a8c5c8;stroke:none;}.cls-29{fill:#88b8b9;opacity:0.35;stroke:none;}.cls-30{fill:url(#未命名的渐变_290);stroke:none;}.cls-31{fill:url(#未命名的渐变_268);stroke:none;}.cls-32{opacity:0.44;stroke:none;}.cls-33{clip-path:url(#clip-path);stroke:none;}.cls-34{fill:#109b8f;stroke:none;}.cls-35{fill:#3f7b7e;stroke:none;}.cls-36{fill:url(#未命名的渐变_173);stroke:none;}.cls-37{fill:url(#linear-gradient);stroke:none;}.cls-38{fill:url(#未命名的渐变_232);stroke:none;}.cls-39{fill:#2aaae2;stroke:none;}.cls-40{fill:#8ad3de;stroke:none;}.cls-41{fill:url(#未命名的渐变_191);stroke:none;}.cls-42{fill:url(#未命名的渐变_467);stroke:none;}.cls-43{fill:#010101;stroke:none;}.cls-44{fill:url(#未命名的渐变_68);stroke:none;}.cls-45{opacity:0.83;stroke:none;}.cls-46{fill:#fff;stroke:none;}.cls-47{fill:url(#未命名的渐变_140-2);stroke:none;}.cls-48{fill:#c4dee2;stroke:none;}.cls-49{fill:#30817d;stroke:none;}.cls-51{fill:#5bc0ed;stroke:none;}.cls-52{fill:#445aa8;stroke:none;}.cls-53{fill:#4f6eb0;stroke:none;}.cls-54{fill:#5167b0;stroke:none;}.cls-55{fill:#2a499d;stroke:none;}</style><linearGradient id="&#x672A;&#x547D;&#x540D;&#x7684;&#x6E10;&#x53D8;_14" x1="47.43" y1="17.47" x2="52" y2="17.47" gradienttransform="translate(4.91 46) rotate(40)" gradientunits="userSpaceOnUse"><stop offset="0" stop-color="#9b9c9c"/><stop offset="0.25" stop-color="#d7d8d9"/><stop offset="0.36" stop-color="#d2d3d4"/><stop offset="0.5" stop-color="#c3c4c5"/><stop offset="0.65" stop-color="#aaabab"/><stop offset="0.81" stop-color="#888"/><stop offset="0.98" stop-color="#5c5c5c"/><stop offset="1" stop-color="#575757"/></linearGradient><linearGradient id="&#x672A;&#x547D;&#x540D;&#x7684;&#x6E10;&#x53D8;_167" x1="47.43" y1="13.87" x2="52" y2="13.87" gradienttransform="translate(4.91 46) rotate(40)" gradientunits="userSpaceOnUse"><stop offset="0" stop-color="#ccc"/><stop offset="0.25" stop-color="#f3f3f3"/><stop offset="0.36" stop-color="#eee"/><stop offset="0.5" stop-color="#dfdfdf"/><stop offset="0.66" stop-color="#c5c5c5"/><stop offset="0.82" stop-color="#a2a2a2"/><stop offset="0.99" stop-color="#767676"/><stop offset="1" stop-color="#737373"/></linearGradient><linearGradient id="&#x672A;&#x547D;&#x540D;&#x7684;&#x6E10;&#x53D8;_38" x1="48.17" y1="40.99" x2="50.43" y2="40.99" gradienttransform="translate(4.91 46) rotate(40)" gradientunits="userSpaceOnUse"><stop offset="0" stop-color="#8b8b8c"/><stop offset="0" stop-color="#8c8c8d"/><stop offset="0.12" stop-color="#c5c5c6"/><stop offset="0.2" stop-color="#e9e9e9"/><stop offset="0.25" stop-color="#f6f6f6"/><stop offset="0.55" stop-color="#f4f4f4"/><stop offset="0.66" stop-color="#ededed"/><stop offset="0.74" stop-color="#e2e2e2"/><stop offset="0.8" stop-color="#d1d1d1"/><stop offset="0.86" stop-color="#bbb"/><stop offset="0.91" stop-color="#9f9f9f"/><stop offset="0.95" stop-color="#7f7f7f"/><stop offset="0.99" stop-color="#5b5b5b"/><stop offset="1" stop-color="#4f4f4f"/></linearGradient><linearGradient id="&#x672A;&#x547D;&#x540D;&#x7684;&#x6E10;&#x53D8;_20" x1="48.17" y1="34.54" x2="50.43" y2="34.54" gradienttransform="translate(4.91 46) rotate(40)" gradientunits="userSpaceOnUse"><stop offset="0" stop-color="#c0bfbf"/><stop offset="0.25" stop-color="#e0e1e1"/><stop offset="0.41" stop-color="#dbdcdc"/><stop offset="0.6" stop-color="#cccdcd"/><stop offset="0.82" stop-color="#b3b4b4"/><stop offset="1" stop-color="#999"/></linearGradient><linearGradient id="&#x672A;&#x547D;&#x540D;&#x7684;&#x6E10;&#x53D8;_43" x1="13.77" y1="-33.37" x2="19.82" y2="-33.37" gradienttransform="matrix(0.77, 0.64, -0.63, 0.78, 10.48, 92.27)" gradientunits="userSpaceOnUse"><stop offset="0" stop-color="#a3a3a3"/><stop offset="0.07" stop-color="#ababac"/><stop offset="0.33" stop-color="#c3c4c5"/><stop offset="0.56" stop-color="#d2d3d4"/><stop offset="0.75" stop-color="#d7d8d9"/><stop offset="1" stop-color="#9b9c9c"/></linearGradient><linearGradient id="&#x672A;&#x547D;&#x540D;&#x7684;&#x6E10;&#x53D8;_67" x1="13.77" y1="-33.72" x2="19.82" y2="-33.72" gradienttransform="matrix(0.77, 0.64, -0.63, 0.78, 10.48, 92.27)" gradientunits="userSpaceOnUse"><stop offset="0" stop-color="#c9cacb"/><stop offset="0.25" stop-color="#fff"/><stop offset="0.37" stop-color="#dcdcdc"/><stop offset="0.55" stop-color="#afafaf"/><stop offset="0.64" stop-color="#9e9e9e"/><stop offset="0.77" stop-color="#acacac"/><stop offset="1" stop-color="#ccc"/></linearGradient><linearGradient id="&#x672A;&#x547D;&#x540D;&#x7684;&#x6E10;&#x53D8;_411" x1="12.54" y1="-35.34" x2="21.04" y2="-35.34" gradienttransform="matrix(0.77, 0.64, -0.63, 0.78, 10.48, 92.27)" gradientunits="userSpaceOnUse"><stop offset="0" stop-color="#4fc2c0"/><stop offset="0.68" stop-color="#2a8385"/><stop offset="1" stop-color="#176468"/></linearGradient><linearGradient id="&#x672A;&#x547D;&#x540D;&#x7684;&#x6E10;&#x53D8;_388" x1="10.75" y1="-36.28" x2="23.36" y2="-36.28" gradienttransform="matrix(0.77, 0.64, -0.63, 0.78, 10.48, 92.27)" gradientunits="userSpaceOnUse"><stop offset="0.01" stop-color="#a1c9c8"/><stop offset="0.06" stop-color="#9fcccc"/><stop offset="0.12" stop-color="#98d6d8"/><stop offset="0.12" stop-color="#97d7d9"/><stop offset="0.29" stop-color="#91d5dc"/><stop offset="0.67" stop-color="#529ba0"/><stop offset="1" stop-color="#176468"/></linearGradient><linearGradient id="&#x672A;&#x547D;&#x540D;&#x7684;&#x6E10;&#x53D8;_403" x1="-6.84" y1="-62.35" x2="30.98" y2="-62.35" gradienttransform="translate(11.16 92.84) rotate(40)" gradientunits="userSpaceOnUse"><stop offset="0" stop-color="#7bb1ba"/><stop offset="0.36" stop-color="#b6d9dd"/><stop offset="0.56" stop-color="#d3edee"/><stop offset="0.62" stop-color="#c0e2e4"/><stop offset="0.71" stop-color="#a4d1d4"/><stop offset="0.8" stop-color="#90c5c9"/><stop offset="0.9" stop-color="#84bdc2"/><stop offset="0.99" stop-color="#80bbc0"/></linearGradient><linearGradient id="&#x672A;&#x547D;&#x540D;&#x7684;&#x6E10;&#x53D8;_119" x1="10.29" y1="-91.55" x2="26.07" y2="-91.55" gradienttransform="matrix(0.77, 0.64, -0.63, 0.78, 10.48, 92.27)" gradientunits="userSpaceOnUse"><stop offset="0.01" stop-color="#97bac2"/><stop offset="0.14" stop-color="#9abec6"/><stop offset="0.26" stop-color="#a1c9d2"/><stop offset="0.29" stop-color="#a4cdd6"/><stop offset="0.41" stop-color="#96c5cd"/><stop offset="0.63" stop-color="#73afb6"/><stop offset="0.93" stop-color="#398b92"/><stop offset="1" stop-color="#2a8288"/></linearGradient><linearGradient id="&#x672A;&#x547D;&#x540D;&#x7684;&#x6E10;&#x53D8;_181" x1="10.37" y1="-91.53" x2="21.4" y2="-91.53" gradienttransform="translate(11.16 92.84) rotate(40)" gradientunits="userSpaceOnUse"><stop offset="0" stop-color="#7ab9b7"/><stop offset="0.1" stop-color="#88c4bf"/><stop offset="0.23" stop-color="#9fd7cd"/><stop offset="0.39" stop-color="#83c3ba"/><stop offset="0.72" stop-color="#3e928a"/><stop offset="1" stop-color="#00665f"/></linearGradient><linearGradient id="&#x672A;&#x547D;&#x540D;&#x7684;&#x6E10;&#x53D8;_92" x1="15.88" y1="-87.73" x2="16.7" y2="-87.73" gradienttransform="matrix(0.77, 0.64, -0.63, 0.78, 10.48, 92.27)" gradientunits="userSpaceOnUse"><stop offset="0" stop-color="#004c50"/><stop offset="0.13" stop-color="#055054"/><stop offset="0.3" stop-color="#145c5f"/><stop offset="0.49" stop-color="#2e7072"/><stop offset="0.68" stop-color="#518b8d"/><stop offset="0.88" stop-color="#7daeae"/><stop offset="1" stop-color="#9ac4c4"/></linearGradient><linearGradient id="&#x672A;&#x547D;&#x540D;&#x7684;&#x6E10;&#x53D8;_92-2" x1="24.11" y1="-90.36" x2="24.93" y2="-90.36" xlink:href="#&#x672A;&#x547D;&#x540D;&#x7684;&#x6E10;&#x53D8;_92"><linearGradient id="&#x672A;&#x547D;&#x540D;&#x7684;&#x6E10;&#x53D8;_92-3" x1="11.16" y1="-92.74" x2="11.98" y2="-92.74" xlink:href="#&#x672A;&#x547D;&#x540D;&#x7684;&#x6E10;&#x53D8;_92"><linearGradient id="&#x672A;&#x547D;&#x540D;&#x7684;&#x6E10;&#x53D8;_140" x1="12.98" y1="-93.44" x2="23.75" y2="-93.44" gradienttransform="matrix(0.77, 0.64, -0.63, 0.78, 10.48, 92.27)" gradientunits="userSpaceOnUse"><stop offset="0.01" stop-color="#afcbce"/><stop offset="0.04" stop-color="#b1cfd1"/><stop offset="0.07" stop-color="#b6dadb"/><stop offset="0.15" stop-color="#c4e3e7"/><stop offset="0.26" stop-color="#dcf2fd"/><stop offset="0.4" stop-color="#bfe0ea"/><stop offset="0.7" stop-color="#77b2ba"/><stop offset="1" stop-color="#2a8288"/></linearGradient><linearGradient id="&#x672A;&#x547D;&#x540D;&#x7684;&#x6E10;&#x53D8;_290" x1="28.7" y1="-72.23" x2="30.84" y2="-72.23" gradienttransform="translate(11.16 92.84) rotate(40)" gradientunits="userSpaceOnUse"><stop offset="0" stop-color="#d89140"/><stop offset="0.25" stop-color="#fff799"/><stop offset="0.35" stop-color="#faf295"/><stop offset="0.49" stop-color="#ece38b"/><stop offset="0.63" stop-color="#d6c979"/><stop offset="0.78" stop-color="#b6a661"/><stop offset="0.94" stop-color="#8d7a41"/><stop offset="1" stop-color="#7d6835"/></linearGradient><linearGradient id="&#x672A;&#x547D;&#x540D;&#x7684;&#x6E10;&#x53D8;_268" x1="29.71" y1="-71.75" x2="31.97" y2="-71.75" gradienttransform="matrix(0.77, 0.64, -0.63, 0.78, 10.48, 92.27)" gradientunits="userSpaceOnUse"><stop offset="0" stop-color="#d89140"/><stop offset="0.25" stop-color="#decd5f"/><stop offset="0.43" stop-color="#dac85b"/><stop offset="0.65" stop-color="#cfb951"/><stop offset="0.89" stop-color="#bca040"/><stop offset="1" stop-color="#b29237"/></linearGradient><clippath id="clip-path"><path class="cls-1" d="M82.42,24.07,81,25.75c-.93,1.14.17,3.62,2.45,5.53s4.88,2.53,5.8,1.39L90.66,31Z"/></clippath><linearGradient id="&#x672A;&#x547D;&#x540D;&#x7684;&#x6E10;&#x53D8;_173" x1="11.11" y1="-98.85" x2="20.4" y2="-98.85" gradienttransform="translate(11.16 92.84) rotate(40)" gradientunits="userSpaceOnUse"><stop offset="0" stop-color="#7ab9b7"/><stop offset="0.17" stop-color="#6cb0ad"/><stop offset="0.48" stop-color="#499793"/><stop offset="0.9" stop-color="#0f706a"/><stop offset="1" stop-color="#00665f"/></linearGradient><linearGradient id="linear-gradient" x1="13.79" y1="-100.61" x2="22.95" y2="-100.61" gradienttransform="matrix(0.77, 0.64, -0.63, 0.78, 10.48, 92.27)" gradientunits="userSpaceOnUse"><stop offset="0" stop-color="#bbb"/><stop offset="0" stop-color="#b1b1b1"/><stop offset="0.01" stop-color="#9b9b9b"/><stop offset="0.01" stop-color="#8b8b8b"/><stop offset="0.02" stop-color="#7f7f7f"/><stop offset="0.03" stop-color="#787878"/><stop offset="0.05" stop-color="#767676"/><stop offset="0.1" stop-color="#b5b6b6"/><stop offset="0.19" stop-color="#fff"/><stop offset="0.31" stop-color="#a3a3a2"/><stop offset="0.37" stop-color="#c2c2c2"/><stop offset="0.41" stop-color="#908f8f"/><stop offset="0.55" stop-color="#aeaeae"/><stop offset="0.6" stop-color="#cfd0d0"/><stop offset="0.77" stop-color="#c8c7c6"/><stop offset="0.87" stop-color="#676767"/><stop offset="0.92" stop-color="#bbb"/><stop offset="0.95" stop-color="#8c8c8c"/><stop offset="1" stop-color="#9e9e9e"/></linearGradient><linearGradient id="&#x672A;&#x547D;&#x540D;&#x7684;&#x6E10;&#x53D8;_232" x1="9.91" y1="-105.03" x2="21.39" y2="-105.03" gradienttransform="translate(11.16 92.84) rotate(40)" gradientunits="userSpaceOnUse"><stop offset="0" stop-color="#1072ba"/><stop offset="0.24" stop-color="#1072ba"/><stop offset="1" stop-color="#00397c"/></linearGradient><linearGradient id="&#x672A;&#x547D;&#x540D;&#x7684;&#x6E10;&#x53D8;_191" x1="10.34" y1="-95.21" x2="26" y2="-87.85" gradienttransform="matrix(0.77, 0.64, -0.63, 0.78, 10.48, 92.27)" gradientunits="userSpaceOnUse"><stop offset="0.01" stop-color="#97bac2"/><stop offset="0.07" stop-color="#9abec5"/><stop offset="0.13" stop-color="#a2cace"/><stop offset="0.18" stop-color="#afdedc"/><stop offset="0.18" stop-color="#b0dfdd"/><stop offset="0.37" stop-color="#b0d1d1"/><stop offset="0.67" stop-color="#b1b3b6"/><stop offset="0.88" stop-color="#5d9499"/><stop offset="1" stop-color="#2a8288"/></linearGradient><linearGradient id="&#x672A;&#x547D;&#x540D;&#x7684;&#x6E10;&#x53D8;_467" x1="53.07" y1="66.98" x2="77.56" y2="66.98" gradientunits="userSpaceOnUse"><stop offset="0" stop-color="#81c8cb"/><stop offset="0.27" stop-color="#56afb4"/><stop offset="0.6" stop-color="#28959b"/><stop offset="0.85" stop-color="#0b848b"/><stop offset="1" stop-color="#007e85"/></linearGradient><linearGradient id="&#x672A;&#x547D;&#x540D;&#x7684;&#x6E10;&#x53D8;_68" x1="46.92" y1="66.49" x2="51.82" y2="66.49" gradienttransform="matrix(0.94, 0.44, -0.63, 0.77, 59.77, -7.8)" gradientunits="userSpaceOnUse"><stop offset="0" stop-color="#ccc"/><stop offset="0.25" stop-color="#010101"/><stop offset="0.34" stop-color="#060606"/><stop offset="0.44" stop-color="#161616"/><stop offset="0.56" stop-color="#2f2f2f"/><stop offset="0.69" stop-color="#525252"/><stop offset="0.82" stop-color="#7f7f7f"/><stop offset="0.96" stop-color="#b5b5b5"/><stop offset="1" stop-color="#c7c7c7"/></linearGradient><linearGradient id="&#x672A;&#x547D;&#x540D;&#x7684;&#x6E10;&#x53D8;_140-2" x1="7.96" y1="-40.57" x2="30.15" y2="-40.57" gradienttransform="translate(11.16 92.84) rotate(40)" xlink:href="#&#x672A;&#x547D;&#x540D;&#x7684;&#x6E10;&#x53D8;_140"/></linearGradient></linearGradient></defs><title>&#x751F;&#x7269;&#x4EEA;&#x5668;</title><g class="cls-2"><g id="Bio_instruments&#x751F;&#x7269;&#x4EEA;&#x5668;" data-name="Bio instruments&#x751F;&#x7269;&#x4EEA;&#x5668;"><path class="cls-3" d="M81.77,97.72,86,106.15s.33,1,2.78,1.21,7.31.84,13.79-3.91,8-10.75,7.45-11.45-6.45-9.43-6.45-9.43Z"/><path class="cls-4" d="M96.11,93.49a29.85,29.85,0,0,0,9-8.77l-1.46-2.14L81.77,97.72l.35.68A31.07,31.07,0,0,0,96.11,93.49Z"/><path class="cls-5" d="M57.69,41.1s.7,1.8-1,1.73-.67,5.62-1.56,7.53-3.46,2.8-2.77,4,5.23,7.94,6,10.58S61.16,73,64,76.44c2,2.41,10.25,7.22,11.16,9.17a18,18,0,0,0,3.11,4.51c.9,1,1.77,4.51,2.31,5.52S82,97.4,82.82,97.32s10.27-4,13.49-6.43,7.5-7.84,7.5-7.84a7.89,7.89,0,0,0-1-1.91c-.5-.53-1.09-2.61-1.41-2.84s-1-.7-.65-1.48a3.15,3.15,0,0,0-.61-3.07A4.14,4.14,0,0,1,99,70.45a19.93,19.93,0,0,0-2.43-9.07C94.34,57,90.85,42.44,89.37,40.55s-3.17-2-3.4-2.81-3,.73-4.61.53-3.7-.12-4.39.57a8.64,8.64,0,0,0-1.29,1.85S74,35.86,72.92,35.55s-3.33-.9-4.74.06-2.27,3.72-2.27,3.72-2.85-2.7-6-1.71A3.47,3.47,0,0,0,57.69,41.1Z"/><path class="cls-6" d="M60.1,66s3.44,8.6,9.26,12.09S88.49,73.29,86.7,69,77,68.41,70.79,65.74s-7.6-2.09-8.43-1.51S60.1,66,60.1,66Z"/><path class="cls-7" d="M19.89,104.85h0c-.79-.66,2.1-5.41,2.66-6.07L41.2,77.84a1.75,1.75,0,0,1,2.45,0h0a1.75,1.75,0,0,1,.42,2.41L25.41,101.18C24.85,101.84,20.68,105.51,19.89,104.85Z"/><path class="cls-8" d="M44.74,76.53a1.75,1.75,0,0,0-2.45,0l-19.52,22a.83.83,0,0,0-.19.63,2.42,2.42,0,0,0,2.47,2.07.83.83,0,0,0,.58-.3l19.52-22A1.75,1.75,0,0,0,44.74,76.53Z"/><path class="cls-9" d="M11.58,114.76h0c-.48-.4,8.49-11.88,8.49-11.88.33-.39.05.09.84.75s1.22.31.89.7C21.81,104.33,12.05,115.16,11.58,114.76Z"/><path class="cls-10" d="M20.83,103.73c-.79-.66-.43-1.25-.76-.86l-.72.92s-.18.45.53,1.05,1.13.34,1.13.34l.79-.87C22.13,103.94,21.62,104.39,20.83,103.73Z"/><path class="cls-11" d="M46.66,79.08a2.93,2.93,0,0,1-4.17.35A3.05,3.05,0,0,1,42,75.19a2.93,2.93,0,0,1,4.17-.35A3.05,3.05,0,0,1,46.66,79.08Z"/><path class="cls-12" d="M41.42,76.63a4.79,4.79,0,0,0,1.51,2.25A4.66,4.66,0,0,0,45.39,80a2.83,2.83,0,0,0,1.27-.89,3.05,3.05,0,0,0-.46-4.24,2.89,2.89,0,0,0-4.79,1.79Z"/><path class="cls-13" d="M48.77,78.41c-1.23,1.53-3.55,1.38-5.35-.13S41,74.47,42.26,72.94s3.68-1.55,5.48,0S50,76.87,48.77,78.41Z"/><path class="cls-14" d="M52,78.13c-1.53,1.89-4.92,1.62-7.56-.6s-3.23-5-2-7.44c1.07-2.18,2.05-.76,4.7,1.46S53.51,76.24,52,78.13Z"/><path class="cls-15" d="M72.47,31.67a13.62,13.62,0,0,0-4.1-4.81c-2.63-1.75-6.32-3.39-6.71-4.36s.33-2.18,2.51-3,5.24-2.26,7.31-1.71,5.39.78,8.67,4.27a78.07,78.07,0,0,1,8.63,11,6.34,6.34,0,0,1,.05,5.59l-7,5.73,6.4,4.74L60.79,80.47s-1.54,2.35-6.47.22c-4-1.73-8.58-4.38-10.43-7.2s-1.06-5.9.83-8.24S72.47,31.67,72.47,31.67Z"/><path class="cls-16" d="M81.85,44.37l4.9-4.6-.08,0a8.2,8.2,0,0,1-5.59-.9,15.13,15.13,0,0,1-5.81-6.09,18.89,18.89,0,0,0-5-6.2c-2-1.71-8.68-4.47-8.68-4.47h0a1.37,1.37,0,0,0,.09.38c.39,1,4.09,2.61,6.71,4.36a13.62,13.62,0,0,1,4.1,4.81S46.61,62.93,44.72,65.26,42,70.67,43.89,73.5,50.31,79,54.32,80.7c4.92,2.13,6.47-.22,6.47-.22L88.64,48.69Z"/><path class="cls-17" d="M87.56,38.06c-1.81,1.92-5.72,1.1-8.74-1.84s-4-6.88-2.2-8.81,5.72-1.1,8.74,1.84S89.37,36.13,87.56,38.06Z"/><path class="cls-18" d="M79.31,37q-.32-.27-.63-.56a10.9,10.9,0,0,1-3.05-4.89,4.34,4.34,0,0,1,.69-4.19c1.84-2,5.9-1.13,9,1.87a10.9,10.9,0,0,1,3.05,4.89,4.34,4.34,0,0,1-.69,4.19h0C86,40.13,82.35,39.52,79.31,37Zm5.23-8.11c-2.92-2.45-6.39-3.07-8-1.32a4.05,4.05,0,0,0-.61,3.9,10.6,10.6,0,0,0,3,4.75c3,2.9,6.9,3.75,8.63,1.88a4.05,4.05,0,0,0,.61-3.9,10.6,10.6,0,0,0-3-4.75Q84.86,29.12,84.54,28.86Z"/><path class="cls-19" d="M77,43.13s8.38,5.68,9.27,6a2.47,2.47,0,0,0,3.36-2.33c.06-2.3-4.85-6.33-4.85-6.33L81.65,44a4.86,4.86,0,0,1-2.19,0A14.35,14.35,0,0,1,77,43.13Z"/><path class="cls-20" d="M82.66,44.53l1.2-.13s3.1-1.47,3.13-1.58a6.72,6.72,0,0,0-.69-1c-.84-.84-1.5-1.41-1.5-1.41L81.65,44a4.86,4.86,0,0,1-2.19,0A14.34,14.34,0,0,1,77,43.13a7.74,7.74,0,0,0,2.42,1.22A7.83,7.83,0,0,0,82.66,44.53Z"/><path class="cls-21" d="M81.65,44l4.21,3.08s1.43.84,2.16-.16a6.44,6.44,0,0,0,.87-2,26.58,26.58,0,0,0-4.08-4.48Z"/><path class="cls-22" d="M86.38,36.47c-1.23,1.52-4.12,1.16-6.45-.8s-3.23-4.77-2-6.29,4.12-1.16,6.45.8S87.61,35,86.38,36.47Z"/><path class="cls-17" d="M79.36,41.09a1.38,1.38,0,0,1,.17-1.82l.66-.61s0-.27,1.21.33,4.45,2,6.77.18.82-5.86.82-5.86,4,6.43,4.58,9.18c.46,2.09-.44,5-2.62,5S86.57,46.44,83.17,44l-3.4-2.4Z"/><path class="cls-23" d="M89.64,46.07c-3.23-.62-7.23-4.83-8.23-5.66a3.73,3.73,0,0,1-1.23-1.75l-1.07,1a.75.75,0,0,0-.09,1l.59.8a1.56,1.56,0,0,0,.36.35L83.17,44c3.4,2.4,5.49,3.48,7.8,3.47a2.45,2.45,0,0,0,2.32-1.88C92.51,46.26,91.31,46.39,89.64,46.07Z"/><path class="cls-24" d="M78.49,34.82a.36.36,0,0,1-.51,0,.38.38,0,0,1-.13-.5.36.36,0,0,1,.51,0A.38.38,0,0,1,78.49,34.82Z"/><path class="cls-25" d="M86.45,38.07a.38.38,0,0,1-.53,0,.39.39,0,0,1-.1-.53.38.38,0,0,1,.53,0A.39.39,0,0,1,86.45,38.07Z"/><path class="cls-26" d="M78,27.89a.38.38,0,0,1-.53,0,.39.39,0,0,1-.1-.53.38.38,0,0,1,.53,0A.39.39,0,0,1,78,27.89Z"/><path class="cls-27" d="M82.51,24l-4.3,5.29c-1.24,1.53-.4,4.33,1.88,6.24s5.13,2.22,6.37.68l4.29-5.3Z"/><path class="cls-21" d="M81.22,32.81l1.21.53-.79-1.08-.16.21a7.62,7.62,0,0,1-.56-.6l.22-.15-1-.88.1.29h0l.33,1,.25-.17a7.79,7.79,0,0,0,.59.62Z"/><path class="cls-21" d="M84,33.55l-.33.42.44.24-.21.27-.44-.24-.33.42-.29-.16.33-.42-.43-.23.21-.27.43.23.33-.42Z"/><path class="cls-21" d="M79.42,29l.46,1.2-.21.27-.46-1.2Z"/><path class="cls-28" d="M70.79,24a1,1,0,0,0,.08-.27l.18-.12,1,.85-.19.13L71.06,24a.69.69,0,0,1-.08.25Z"/><path class="cls-28" d="M72.57,24.16q-.3.19-.8-.23t-.22-.65q.31-.2.83.23T72.57,24.16Zm-.87-.76q-.11.08.26.4c.24.21.4.29.48.24s0-.19-.26-.39S71.77,23.35,71.7,23.4Z"/><path class="cls-28" d="M72.55,23.49l.61-.41.17.15-.61.41Z"/><path class="cls-28" d="M72.92,22.6a1,1,0,0,0,.08-.28l.18-.12,1,.85-.19.13-.78-.67a.69.69,0,0,1-.08.25Z"/><path class="cls-28" d="M74.7,22.71q-.3.19-.8-.23t-.22-.65q.31-.2.83.23T74.7,22.71ZM73.82,22q-.11.08.26.4c.24.21.4.29.48.24s0-.19-.26-.39S73.9,21.91,73.82,22Z"/><path class="cls-28" d="M75.4,22.24q-.3.19-.8-.23c-.34-.3-.41-.52-.22-.65s.48-.06.83.23S75.6,22.09,75.4,22.24Zm-.87-.76c-.07.05,0,.19.26.4s.4.29.48.24,0-.19-.26-.4S74.6,21.43,74.52,21.48Z"/><path class="cls-29" d="M81.94,54.63a86.61,86.61,0,0,1-12.75-8.3,9,9,0,0,1-2.88-7.22l-.91,1.11a9,9,0,0,0,2.88,7.24A86.61,86.61,0,0,0,81,55.76a3.52,3.52,0,0,0,1.23.2l1-1.11A3.87,3.87,0,0,1,81.94,54.63Z"/><path class="cls-29" d="M80.1,56.9a86.61,86.61,0,0,1-12.75-8.3,9,9,0,0,1-2.88-7.27l-.91,1.11a9,9,0,0,0,2.88,7.29A86.61,86.61,0,0,0,79.18,58a3.36,3.36,0,0,0,1.1.2l1-1.11A3.68,3.68,0,0,1,80.1,56.9Z"/><path class="cls-29" d="M78.37,59.1a84.07,84.07,0,0,1-12.86-8.21,9,9,0,0,1-2.88-7.32l-.91,1.11A9.06,9.06,0,0,0,64.59,52a72.26,72.26,0,0,0,13,8.06,4.05,4.05,0,0,0,.9.2l.9-1A3.52,3.52,0,0,1,78.37,59.1Z"/><path class="cls-29" d="M76.5,61.31A84.07,84.07,0,0,1,63.65,53.1a9,9,0,0,1-2.88-7.28l-.91,1.11a9,9,0,0,0,2.88,7.3,72.25,72.25,0,0,0,13,8.06,4.3,4.3,0,0,0,.83.19l.89-1A3.14,3.14,0,0,1,76.5,61.31Z"/><path class="cls-29" d="M74.64,63.53a84.07,84.07,0,0,1-12.86-8.21,9,9,0,0,1-2.88-7.24L58,49.18a9,9,0,0,0,2.88,7.27,72.25,72.25,0,0,0,13,8.06,4.64,4.64,0,0,0,.76.17l.89-1A2.81,2.81,0,0,1,74.64,63.53Z"/><path class="cls-29" d="M72.77,65.76a84.07,84.07,0,0,1-12.86-8.21A9,9,0,0,1,57,50.33l-.91,1.11A9,9,0,0,0,59,58.68a72.25,72.25,0,0,0,13,8.06,4.77,4.77,0,0,0,.7.16l.88-1A2.59,2.59,0,0,1,72.77,65.76Z"/><path class="cls-29" d="M70.9,68A84.07,84.07,0,0,1,58,59.78a9,9,0,0,1-2.88-7.18l-.91,1.11a9,9,0,0,0,2.88,7.2,72.25,72.25,0,0,0,13,8.06,4.93,4.93,0,0,0,.63.15l.87-1A2.36,2.36,0,0,1,70.9,68Z"/><path class="cls-29" d="M69,70.27a91.55,91.55,0,0,1-12.75-8.34A9.18,9.18,0,0,1,53.16,55l-.84,1A9.19,9.19,0,0,0,55.4,63a78.61,78.61,0,0,0,12.87,8.2,5.33,5.33,0,0,0,.55.15l.79-.9A2.22,2.22,0,0,1,69,70.27Z"/><path class="cls-29" d="M67.08,72.54a97.9,97.9,0,0,1-12.67-8.44,9.4,9.4,0,0,1-3.22-6.7l-.78.94a9.4,9.4,0,0,0,3.23,6.72,84,84,0,0,0,12.78,8.3c.16.06.32.1.47.14l.73-.83A2.11,2.11,0,0,1,67.08,72.54Z"/><path class="cls-29" d="M65.21,74.78a99.54,99.54,0,0,1-12.65-8.46A9.45,9.45,0,0,1,49.3,59.7l-.76.93a9.46,9.46,0,0,0,3.26,6.64A85.38,85.38,0,0,0,64.55,75.6l.4.12.71-.81A2,2,0,0,1,65.21,74.78Z"/><path class="cls-30" d="M82.08,53.15l-5.59,6.48a11.4,11.4,0,0,0,1.63.55l.4.08,5.79-6.61Z"/><path class="cls-31" d="M81.19,52.58,75.48,59.2a6.81,6.81,0,0,1,1.34.76c.38.32.57.16.57.16L83,53.45Z"/><path class="cls-29" d="M84.26,53.67a4,4,0,0,1-1.55-.2A84.49,84.49,0,0,1,70.1,45.3a9,9,0,0,1-2.81-7.35l.92-1.13A9,9,0,0,0,71,44.17a84.49,84.49,0,0,0,12.61,8.17,4.29,4.29,0,0,0,1.61.21Z"/><g class="cls-32"><g class="cls-33"><path class="cls-34" d="M78.89,28.21a.1.1,0,0,1,0-.14L83,22.76a.1.1,0,0,1,.14,0h0a.1.1,0,0,1,0,.14L79,28.19a.1.1,0,0,1-.14,0Z"/><path class="cls-34" d="M79.09,28.36a.1.1,0,0,1,0-.14l4.17-5.3a.1.1,0,0,1,.14,0h0a.1.1,0,0,1,0,.14l-4.17,5.3a.1.1,0,0,1-.14,0Z"/><path class="cls-34" d="M79.4,28.62a.1.1,0,0,1,0-.14l4.17-5.3a.1.1,0,0,1,.14,0,.1.1,0,0,1,0,.15l-4.17,5.3a.1.1,0,0,1-.14,0Z"/><path class="cls-34" d="M79.72,28.88a.1.1,0,0,1,0-.14l4.17-5.3a.1.1,0,0,1,.14,0h0a.1.1,0,0,1,0,.14l-4.17,5.3a.1.1,0,0,1-.14,0Z"/><path class="cls-34" d="M80.21,29.27a.1.1,0,0,1,0-.14l4.17-5.3a.1.1,0,0,1,.14,0h0a.1.1,0,0,1,0,.14l-4.17,5.3A.11.11,0,0,1,80.21,29.27Z"/><path class="cls-34" d="M80.72,29.67a.1.1,0,0,1,0-.14l4.17-5.3a.1.1,0,0,1,.14,0h0a.1.1,0,0,1,0,.14l-4.17,5.3a.1.1,0,0,1-.14,0Z"/><path class="cls-34" d="M81.23,30.08a.1.1,0,0,1,0-.14l4.17-5.3a.1.1,0,0,1,.14,0h0a.1.1,0,0,1,0,.14l-4.17,5.3a.1.1,0,0,1-.14,0Z"/><path class="cls-34" d="M81.74,30.5a.1.1,0,0,1,0-.14l4.17-5.3A.1.1,0,0,1,86,25a.11.11,0,0,1,0,.15l-4.17,5.3a.1.1,0,0,1-.14,0Z"/><path class="cls-34" d="M82.26,30.91a.1.1,0,0,1,0-.14l4.17-5.3a.1.1,0,1,1,.16.13L82.4,30.9a.1.1,0,0,1-.14,0Z"/><path class="cls-34" d="M83.1,31.59a.1.1,0,0,1,0-.14l4.17-5.3a.1.1,0,0,1,.14,0h0a.1.1,0,0,1,0,.14l-4.17,5.3a.1.1,0,0,1-.14,0Z"/><path class="cls-34" d="M84.11,32.4a.1.1,0,0,1,0-.14L88.26,27a.1.1,0,0,1,.14,0,.1.1,0,0,1,0,.14l-4.17,5.3a.1.1,0,0,1-.14,0Z"/><path class="cls-34" d="M84.85,33a.1.1,0,0,1,0-.14L89,27.55a.1.1,0,0,1,.14,0h0a.1.1,0,0,1,0,.14L85,33A.09.09,0,0,1,84.85,33Z"/><path class="cls-34" d="M85.37,33.41a.1.1,0,0,1,0-.14L89.52,28a.1.1,0,0,1,.14,0h0a.1.1,0,0,1,0,.15l-4.17,5.3a.1.1,0,0,1-.14,0Z"/><path class="cls-34" d="M85.88,33.82a.1.1,0,0,1,0-.14L90,28.38a.1.1,0,0,1,.14,0h0a.1.1,0,0,1,0,.14L86,33.81a.1.1,0,0,1-.14,0Z"/><path class="cls-34" d="M86.38,34.23a.1.1,0,0,1,0-.14l4.17-5.3a.11.11,0,0,1,.14,0,.1.1,0,0,1,0,.14l-4.17,5.3a.1.1,0,0,1-.14,0Z"/><path class="cls-34" d="M86.87,34.62a.1.1,0,0,1,0-.14L91,29.17a.1.1,0,0,1,.14,0h0a.1.1,0,0,1,0,.15L87,34.6a.1.1,0,0,1-.14,0Z"/><path class="cls-34" d="M87.2,34.88a.1.1,0,0,1,0-.14l4.17-5.3a.1.1,0,0,1,.14,0h0a.1.1,0,0,1,0,.14l-4.17,5.3a.1.1,0,0,1-.14,0Z"/><path class="cls-34" d="M87.5,35.13a.1.1,0,0,1,0-.14l4.17-5.3a.1.1,0,0,1,.14,0h0a.1.1,0,0,1,0,.15l-4.17,5.3a.1.1,0,0,1-.14,0Z"/><path class="cls-34" d="M87.71,35.29a.1.1,0,0,1,0-.14l4.17-5.3a.1.1,0,0,1,.14,0h0A.1.1,0,0,1,92,30l-4.17,5.3a.1.1,0,0,1-.14,0Z"/><path class="cls-35" d="M78.9,28.21a.11.11,0,0,1,0-.15L83,22.76a.1.1,0,0,1,.14,0h0a.11.11,0,0,1,0,.15L79,28.19a.1.1,0,0,1-.14,0Z"/><path class="cls-35" d="M79.09,28.37a.11.11,0,0,1,0-.15l4.17-5.3a.1.1,0,0,1,.14,0h0a.11.11,0,0,1,0,.15l-4.17,5.3a.1.1,0,0,1-.14,0Z"/><path class="cls-35" d="M79.41,28.62a.11.11,0,0,1,0-.15l4.17-5.3a.1.1,0,0,1,.14,0,.1.1,0,0,1,0,.15l-4.17,5.3a.1.1,0,0,1-.14,0Z"/><path class="cls-35" d="M79.74,28.89a.11.11,0,0,1,0-.15l4.17-5.3a.1.1,0,0,1,.14,0h0a.11.11,0,0,1,0,.15l-4.17,5.3a.1.1,0,0,1-.14,0Z"/><path class="cls-35" d="M80.24,29.29a.11.11,0,0,1,0-.15l4.17-5.3a.1.1,0,0,1,.14,0h0a.11.11,0,0,1,0,.15l-4.17,5.3A.11.11,0,0,1,80.24,29.29Z"/><path class="cls-35" d="M80.75,29.7a.11.11,0,0,1,0-.15l4.17-5.3a.1.1,0,0,1,.14,0h0a.11.11,0,0,1,0,.15l-4.17,5.3a.1.1,0,0,1-.14,0Z"/><path class="cls-35" d="M81.27,30.12a.11.11,0,0,1,0-.15l4.17-5.3a.1.1,0,0,1,.14,0h0a.11.11,0,0,1,0,.15l-4.17,5.3a.1.1,0,0,1-.14,0Z"/><path class="cls-35" d="M81.79,30.54a.11.11,0,0,1,0-.15l4.17-5.3a.1.1,0,0,1,.14,0,.11.11,0,0,1,0,.15l-4.17,5.3a.1.1,0,0,1-.14,0Z"/><path class="cls-35" d="M82.32,31a.11.11,0,0,1,0-.15l4.17-5.3a.1.1,0,0,1,.16.13l-4.17,5.3a.1.1,0,0,1-.14,0Z"/><path class="cls-35" d="M83.17,31.65a.11.11,0,0,1,0-.15l4.17-5.3a.1.1,0,0,1,.14,0h0a.11.11,0,0,1,0,.15l-4.17,5.3a.1.1,0,0,1-.14,0Z"/><path class="cls-35" d="M84.2,32.47a.11.11,0,0,1,0-.15L88.35,27a.1.1,0,0,1,.14,0,.11.11,0,0,1,0,.15l-4.17,5.3a.1.1,0,0,1-.14,0Z"/><path class="cls-35" d="M85,33.09a.11.11,0,0,1,0-.15l4.17-5.3a.1.1,0,0,1,.14,0h0a.11.11,0,0,1,0,.15l-4.17,5.3A.09.09,0,0,1,85,33.09Z"/><path class="cls-35" d="M85.48,33.5a.11.11,0,0,1,0-.15l4.17-5.3a.1.1,0,0,1,.14,0h0a.11.11,0,0,1,0,.15l-4.17,5.3a.1.1,0,0,1-.14,0Z"/><path class="cls-35" d="M86,33.92a.11.11,0,0,1,0-.15l4.17-5.3a.1.1,0,0,1,.14,0h0a.11.11,0,0,1,0,.15l-4.17,5.3a.1.1,0,0,1-.14,0Z"/><path class="cls-35" d="M86.51,34.33a.11.11,0,0,1,0-.15l4.17-5.3a.11.11,0,0,1,.14,0,.11.11,0,0,1,0,.15l-4.17,5.3a.1.1,0,0,1-.14,0Z"/><path class="cls-35" d="M87,34.73a.11.11,0,0,1,0-.15l4.17-5.3a.1.1,0,0,1,.14,0h0a.11.11,0,0,1,0,.15l-4.17,5.3a.1.1,0,0,1-.14,0Z"/><path class="cls-35" d="M87.34,35a.11.11,0,0,1,0-.15l4.17-5.3a.1.1,0,0,1,.14,0h0a.11.11,0,0,1,0,.15L87.49,35a.1.1,0,0,1-.14,0Z"/><path class="cls-35" d="M87.65,35.25a.11.11,0,0,1,0-.15l4.17-5.3a.1.1,0,0,1,.14,0h0a.11.11,0,0,1,0,.15l-4.17,5.3a.1.1,0,0,1-.14,0Z"/><path class="cls-35" d="M87.86,35.42a.11.11,0,0,1,0-.15L92,30a.1.1,0,0,1,.14,0h0a.11.11,0,0,1,0,.15L88,35.41a.1.1,0,0,1-.14,0Z"/></g></g><path class="cls-17" d="M90.75,30.87c-1,1.28-3.72.77-6-1.14S81.47,25.23,82.5,24s3.72-.77,6,1.14S91.79,29.59,90.75,30.87Z"/><path class="cls-36" d="M90.32,30.23c-.89,1.1-3.2.65-5.17-1s-2.84-3.88-1.95-5,3.2-.65,5.17,1S91.21,29.13,90.32,30.23Z"/><path class="cls-37" d="M87,19.75l-3.39,4.17c-1,1.21-.2,3.5,1.74,5.13s4.3,2,5.28.76L94,25.63Z"/><path class="cls-38" d="M95.05,26.13c-1.26,1.56-4.25,1.17-6.68-.87s-3.37-5-2.11-6.51,4.25-1.17,6.68.87S96.31,24.57,95.05,26.13Z"/><path class="cls-39" d="M95.23,25.43c-1,1.28-3.74.75-6-1.18s-3.33-4.53-2.29-5.81,3.74-.75,6,1.18S96.26,24.15,95.23,25.43Z"/><path class="cls-40" d="M87.15,18.4a2,2,0,0,1,1.56-.66,2.17,2.17,0,0,0-1.81.69c-1,1.28,0,3.88,2.29,5.81a8.43,8.43,0,0,0,3,1.65,9.45,9.45,0,0,1-2.58-1.56C87.2,22.34,86.11,19.68,87.15,18.4Z"/><path class="cls-41" d="M89.33,34.27a9.75,9.75,0,0,0-.41-1.14l-.25.31a9.43,9.43,0,0,1,.33.92,4.63,4.63,0,0,1-.7,4.46c-2,2.13-6.4,1.17-9.86-2.15A12.11,12.11,0,0,1,75,31.24a4.63,4.63,0,0,1,.7-4.46c1.12-1.21,3-1.42,5.1-.77l.22-.27c-2.24-.73-4.34-.52-5.57.81a5,5,0,0,0-.78,4.79,12.45,12.45,0,0,0,3.49,5.59q.35.34.72.64c3.47,2.91,7.65,3.61,9.62,1.49A5,5,0,0,0,89.33,34.27Z"/><path class="cls-42" d="M77.56,61.33a21.87,21.87,0,0,1-3.5-1.67c-1.63-.89-4.26-2.91-6.69-2.92s-3.62.49-7,4.55-7.34,9.07-7.34,9.07,3.06,4,5.82,5.21a43,43,0,0,0,4.73,1.68"/><path class="cls-43" d="M62.25,71.06l-3.74-1.75a.61.61,0,0,1-.25-1l7.44-8.84a1.15,1.15,0,0,1,1.3-.26L70.75,61A.61.61,0,0,1,71,62L63.55,70.8A1.15,1.15,0,0,1,62.25,71.06Z"/><path class="cls-44" d="M62.21,70.41l-2.89-1.36a.61.61,0,0,1-.25-1l6.68-7.93a1.15,1.15,0,0,1,1.3-.26l2.89,1.36a.61.61,0,0,1,.25,1l-6.68,7.93A1.15,1.15,0,0,1,62.21,70.41Z"/><g class="cls-45"><path class="cls-46" d="M63.76,65l1.38,1.64-.2.24-1.27-1.54-.76.91-.23-.11,1-1.18Z"/><path class="cls-46" d="M65.82,65.58a.14.14,0,0,1-.09-.1.16.16,0,0,1,0-.13.25.25,0,0,1,.14-.08.24.24,0,0,1,.16,0,.14.14,0,0,1,.08.1.16.16,0,0,1,0,.13.25.25,0,0,1-.14.08A.24.24,0,0,1,65.82,65.58Z"/><path class="cls-46" d="M66.18,64.85a1.15,1.15,0,0,0,.46-.32.47.47,0,0,0,.14-.36.34.34,0,0,0-.22-.26.54.54,0,0,0-.41,0,.86.86,0,0,0-.39.29l-.22.29L64.48,64l.75-.89.23.11-.57.68.59.27L65.6,64a1.09,1.09,0,0,1,.54-.37.84.84,0,0,1,.59.05.54.54,0,0,1,.34.4.72.72,0,0,1-.21.56,1.23,1.23,0,0,1-.41.34Z"/></g><path class="cls-47" d="M60.19,77c-2.43-1.27-8.14-3.88-11-6.68-2-2-2.57-5.46-2.77-7.2l-1.73,2.1c-1.89,2.33-2.68,5.41-.83,8.24S50.31,79,54.32,80.7c4.92,2.13,6.47-.22,6.47-.22l2.83-3.25A4.47,4.47,0,0,1,60.19,77Z"/><path class="cls-48" d="M62.3,76.38c-1.79-.3-6-3.72-10-7.05a13.72,13.72,0,0,1-4.71-7.5L46.4,63.22c.14,1.61.67,5.21,2.77,7.3C51.94,73.27,57.52,75.8,59.9,77a4.14,4.14,0,0,0,3.63.31l.67-.76A15.07,15.07,0,0,1,62.3,76.38Z"/><path class="cls-49" d="M81.31,52.76a15.22,15.22,0,0,0,1.67.89,3.44,3.44,0,0,0,1.15.18l.27-.31a3.51,3.51,0,0,1-1.3-.16,16.18,16.18,0,0,1-1.63-.87l-.39-.22-5.9,6.93.13.09a6.94,6.94,0,0,0,1.69.88,11.4,11.4,0,0,0,1.27.36l.23-.27a10.93,10.93,0,0,1-1.39-.39,6.74,6.74,0,0,1-1.49-.75l5.51-6.47Z"/><path class="cls-5" d="M70.19,28.3c.82.06,4.6,5.23,2.08,11.34S67,45.13,67,45.13s3,4.16,1.45,6.93-5.55,3.09-5.55,3.09,1.26,4-2.52,5.74A6.55,6.55,0,0,1,53.67,60s-.95,3.78-4.29,3.4-4-4.54-3-6.74a6,6,0,0,1,3.15-3s.19-4.73,1.83-6.49,2.46-1.76,2.46-1.76,1.7-6.05,3.91-7.81a10.1,10.1,0,0,1,3.28-2s2.08-4.54,4.79-5.8S69.37,28.24,70.19,28.3Z"/><path class="cls-5" d="M100.77,23.33a9.77,9.77,0,0,1-2-4.26c-.58-3.06-2-8-5.28-7.44-4.65.87-3.56,11.73-2.41,13.8l1.15,2.07s-.58,4.62-1.34,8.44c0,4.77.28,14.79,2.76,21.47,1.35,3.65,2.42,6.25,3.22,8.05.36.83,1.35,1.86,1.28,1-.3-3.9-.44-10.59.52-12.27C100.86,50.37,104.12,29.8,103,27A18,18,0,0,0,100.77,23.33Z"/><path class="cls-50" d="M101.31,27.57c-.53-.19-.79-.7-1.69,1.74s-1.31,2.87-1.21,6.31-.2,6.87-.9,8.2-2,7.18-.7,7.27c1.72.12,3.68-6.42,4.36-14S101.84,27.76,101.31,27.57Z"/><path class="cls-51" d="M103.64,82.1a35.4,35.4,0,0,1-9.61,9c-5,3.15-13.12,5.65-13.12,5.65s-.69.82.42,1.07S89,96,93.48,93.39s7.22-5,8.63-6.72,2.65-3.83,2.31-4.41A.46.46,0,0,0,103.64,82.1Z"/><path class="cls-52" d="M70.19,28.3c-.82-.06-1.7.19-4.41,1.45S61,35.55,61,35.55a10.1,10.1,0,0,0-3.28,2c-2.21,1.76-3.91,7.81-3.91,7.81a1.41,1.41,0,0,0-.45.14c-.25.76,1.24,6.89,4.69,9.31,3.19,2.23,4.86,2,4.86,2l.23,0a5.81,5.81,0,0,0-.2-1.65s4-.32,5.55-3.09a4.64,4.64,0,0,0,.21-3.41,14.28,14.28,0,0,0-1.42-2.79,1.32,1.32,0,0,0,.24,0c-.27-.46-.47-.75-.47-.75s2.71.63,5.23-5.48S71,28.37,70.19,28.3Z"/><path class="cls-5" d="M72.27,39.65C74.79,33.53,71,28.37,70.19,28.3s-1.7.19-4.41,1.45S61,35.55,61,35.55a10.1,10.1,0,0,0-3.28,2c-2.21,1.76-3.91,7.81-3.91,7.81s1.33,5.74,4.58,7.95c3,2,4.56,1.82,4.56,1.82s4-.32,5.55-3.09S67,45.13,67,45.13,69.74,45.76,72.27,39.65Z"/><path class="cls-52" d="M68.78,49A12,12,0,0,0,67,45.13s2.71.63,5.23-5.48S71,28.37,70.19,28.3s-1.7.19-4.41,1.45S61,35.55,61,35.55a4,4,0,0,0-.63.26c-.12,1.62.24,5.85,2.29,7.9C65,46.05,68,47.25,68.78,49Z"/><path class="cls-53" d="M46.36,56.66c-.95,2.21-.32,6.37,3,6.74S53.67,60,53.67,60s-1-1.11-2.3-2.56a9.49,9.49,0,0,1-1.86-3.81A6,6,0,0,0,46.36,56.66Z"/><path class="cls-6" d="M70.19,28.3c-.82-.06-1.7.19-4.41,1.45S61,35.55,61,35.55s0,6,2.57,8S67,45.13,67,45.13l.29,0c.77,0,2.91-.59,4.94-5.5C74.79,33.53,71,28.37,70.19,28.3Z"/><path class="cls-54" d="M75.15,84.21a5.38,5.38,0,0,0,.88,2c.67.89.9.83,2.57.34s3.07-.83,3-1.08-4.84.19-5.21,0A8.27,8.27,0,0,1,75.15,84.21Z"/><path class="cls-55" d="M76.25,85.65s-.18.16.19.55.56.36,2,.05a14,14,0,0,0,2.67-.63c0-.12-4,.28-4.23.2Z"/><path class="cls-54" d="M79,90.43s1.18,2.45,1.29,2.94a5.08,5.08,0,0,0,.95,2.35c.6.57,3.11-1.56,3-1.86s-2.85-.15-3-.59,2.62-1.57,2.51-1.9-2.19.1-3.14-.18A6.87,6.87,0,0,1,79,90.43Z"/><path class="cls-55" d="M80.86,92.63c.3.19.4.14,1.21-.29a7.76,7.76,0,0,0,1.45-.82c0-.08-2.29.81-2.46.8S80.56,92.44,80.86,92.63Z"/><path class="cls-55" d="M81,95.17s0,.16.35.36.5.12,1.31-.47a7.3,7.3,0,0,0,1.44-1.14c0-.09-2.4,1.21-2.61,1.22Z"/><path class="cls-54" d="M97.82,72.62a16.57,16.57,0,0,0-2.48,2.91c.07.18,2.31-1.16,3.51-1.06.67.05,1.29.14,1.7.21a2.86,2.86,0,0,0-.58-1.05,4,4,0,0,1-1.08-3.12A4.34,4.34,0,0,1,97.82,72.62Z"/><path class="cls-55" d="M97.49,74.1s1.15-1.66,1.41-1.32.89,1,.6,1-.59-.19-1.09-.07A3.52,3.52,0,0,0,97.49,74.1Z"/><path class="cls-54" d="M100.09,77.64s-.19-.29-1.22.41-2.93,2.23-2.79,2.57,1.35-.46,2.55-1.49A7.38,7.38,0,0,0,100.09,77.64Z"/><path class="cls-55" d="M99.79,77.82s-.1-.16-.67.23-1.61,1.23-1.54,1.41.74-.25,1.4-.82A4.06,4.06,0,0,0,99.79,77.82Z"/><path class="cls-54" d="M101.93,80.45a26.3,26.3,0,0,1-2.5,2.07c-1.09.75-2,1.19-2,1.38s1.72-.45,3.05-1.65S101.93,80.45,101.93,80.45Z"/><path class="cls-55" d="M101.59,80.89a17.5,17.5,0,0,1-1.66,1.38c-.73.5-1.35.8-1.3.92a3.77,3.77,0,0,0,2-1.1C101.55,81.29,101.59,80.89,101.59,80.89Z"/><path class="cls-50" d="M96.33,63.29c.63-.17,1.73,2.11.06,4.17s-4.72,3.35-5.22,2.66.85-1.2,2.33-3S95.11,63.61,96.33,63.29Z"/><path class="cls-50" d="M69.61,36.49c.61-3.28.54-6.74-1-7.92a28.66,28.66,0,0,0-2.82,1.19c-1.83.85-3.38,3.2-4.18,4.64-.14,1.61-.27,4.9,1.39,6.87C65.19,43.88,68.79,40.91,69.61,36.49Z"/><path class="cls-50" d="M59,36.58c-.39.26-.83.58-1.33,1C56,38.9,54.65,42.7,54.08,44.46c1.15,3.15,3.46,7,5.32,6.79,2.74-.31,2-4.93,1-7C59.68,42.8,59.23,38.7,59,36.58Z"/><path class="cls-50" d="M51,50.26c-.73-.09-.73,2.27.18,4.82s3.45,5,5.09,5.09,2-1.64,1.18-1.82a8.4,8.4,0,0,1-4.27-2.45C52.11,54.44,51.75,50.35,51,50.26Z"/><path class="cls-50" d="M47.78,55.52a3.59,3.59,0,0,0-1.26,3.41c.23,2.43,1.26,3.32,1.82,3.27s-.14-2.1-.65-3.32A6.52,6.52,0,0,1,47.78,55.52Z"/><path class="cls-52" d="M52.6,58.79c0,1.14-.28,2.89-1.76,3.66A4.94,4.94,0,0,1,48.1,63a3.58,3.58,0,0,0,1.29.4c3.34.38,4.29-3.4,4.29-3.4S53.26,59.52,52.6,58.79Z"/><path class="cls-50" d="M95,12.72c-.37-.88-3.11-.17-3.78,2.34s-.57,6.92-.08,7,0-5.17,1.41-7.24C93.35,13.63,95.23,13.28,95,12.72Z"/></g></g></svg>