<svg xmlns="http://www.w3.org/2000/svg" xmlns:xlink="http://www.w3.org/1999/xlink" viewbox="0 0 128 128" width="128" height="128"><defs><style>.cls-1{isolation:isolate;stroke:none;}.cls-2,.cls-25{fill:#dddedf;stroke:none;}.cls-3{fill:#c6c5c5;stroke:none;}.cls-4{fill:#b5b5b5;stroke:none;}.cls-5{fill:#d1d2d1;stroke:none;}.cls-6,.cls-7{fill:#b68b67;stroke:none;}.cls-7{opacity:0.27;stroke:none;}.cls-10,.cls-11,.cls-13,.cls-15,.cls-20,.cls-25,.cls-7{mix-blend-mode:multiply;stroke:none;}.cls-8{fill:#788289;stroke:none;}.cls-9{fill:#fff;opacity:0.38;stroke:none;}.cls-10,.cls-27{fill:#5e656c;stroke:none;}.cls-10,.cls-13,.cls-15{opacity:0.33;stroke:none;}.cls-11{fill:#787d9d;stroke:none;}.cls-12,.cls-13{fill:#9aa3ac;stroke:none;}.cls-14{fill:#adb8be;stroke:none;}.cls-15{fill:#474d53;stroke:none;}.cls-16,.cls-20{fill:#e0e0df;stroke:none;}.cls-17{fill:#97a2ab;stroke:none;}.cls-18{fill:#b0b8c0;stroke:none;}.cls-19{fill:#d6b2a3;stroke:none;}.cls-21{fill:url(#未命名的渐变_274);stroke:none;}.cls-22{fill:url(#未命名的渐变_277);stroke:none;}.cls-23{fill:#5b6369;stroke:none;}.cls-24{fill:#8a949c;stroke:none;}.cls-25{opacity:0.48;stroke:none;}.cls-26{fill:#747e88;stroke:none;}.cls-28{fill:#d5daef;stroke:none;}.cls-29{fill:#bb85bb;opacity:0.56;stroke:none;}.cls-30{fill:#b2e1eb;stroke:none;}.cls-31{fill:#a89ccc;stroke:none;}</style><linearGradient id="&#x672A;&#x547D;&#x540D;&#x7684;&#x6E10;&#x53D8;_274" x1="61.18" y1="32.38" x2="68.13" y2="32.38" gradientunits="userSpaceOnUse"><stop offset="0.01" stop-color="#d2d3d4"/><stop offset="0.74" stop-color="#babcbe"/><stop offset="1" stop-color="#68696c"/></linearGradient><linearGradient id="&#x672A;&#x547D;&#x540D;&#x7684;&#x6E10;&#x53D8;_277" x1="61.51" y1="32.38" x2="67.8" y2="32.38" gradientunits="userSpaceOnUse"><stop offset="0.01" stop-color="#e5e5e6"/><stop offset="0.74" stop-color="#babcbe"/><stop offset="1" stop-color="#68696c"/></linearGradient></defs><title>&#x751F;&#x7269;&#x4EEA;&#x5668;</title><g class="cls-1"><g id="Bio_instruments&#x751F;&#x7269;&#x4EEA;&#x5668;" data-name="Bio instruments&#x751F;&#x7269;&#x4EEA;&#x5668;"><path class="cls-2" d="M68.65,87.66c0-.61-1.79-1.68-4-1.68s-4,1.07-4,1.68v14.76c0,.75,1.79,1.36,4,1.36s4-.61,4-1.36Z"/><path class="cls-3" d="M62.46,95.4V89.84a.82.82,0,0,1,.83-.8H66a.82.82,0,0,1,.83.8V95.4C66.85,95.84,62.46,95.84,62.46,95.4Z"/><path class="cls-4" d="M68.59,94.55V88.49c0-1.26-1.74.43-1.74,1.35V95.4C66.85,95.84,68.59,95,68.59,94.55Z"/><path class="cls-5" d="M60.72,94.55V88.49c0-1.26,1.74.43,1.74,1.35V95.4C62.46,95.84,60.72,95,60.72,94.55Z"/><path class="cls-2" d="M56.84,97.68a8.44,8.44,0,0,1,3-3.59c1.14-.77,2.35-1.37,2-2.52s-1.68-1-3-1.07a8.44,8.44,0,0,1-4.47-1.45c-.41-.28-3.46-1.64-1.55,5.1S56.64,98.13,56.84,97.68Z"/><path class="cls-5" d="M54.39,89.05a2,2,0,0,0-1-.3c-.61.43-.93,1.76.05,5.23s2,4.43,2.71,4.48a2,2,0,0,0,.71-.78,8.44,8.44,0,0,1,3-3.59c1.14-.77,2.35-1.37,2-2.52s-1.68-1-3-1.07A8.44,8.44,0,0,1,54.39,89.05Z"/><path class="cls-2" d="M54.85,89.75a1.74,1.74,0,0,0-.88-.23c-.54.37-.84,1.47,0,4.32s1.65,3.63,2.3,3.66a1.74,1.74,0,0,0,.63-.66,7.46,7.46,0,0,1,2.71-3c1-.66,1.69-1.06,1.42-2s-1.06-.92-2.26-1A7.46,7.46,0,0,1,54.85,89.75Z"/><path class="cls-3" d="M60.7,93.55c.81-.55,1.45-1.1,1.2-2s-1.08-1-2.06-1a1.91,1.91,0,0,1,.86,3Z"/><path class="cls-6" d="M80.28,96.58h8.09A12.41,12.41,0,0,1,95,98.82a92.36,92.36,0,0,0,8.06,5.24c1.69.79,3.38.79,3.52,1.78a2,2,0,0,1-1.41,2c-2.24,1-1.3,2.2-1.3,2.2l-9.69-5.86a14.14,14.14,0,0,0-7.36-2.06c-3.07,0-6.51,0-6.51,0Z"/><path class="cls-7" d="M104.17,108.41a10.76,10.76,0,0,1-1.29-.47,95.66,95.66,0,0,1-8.31-5.24,13.08,13.08,0,0,0-6.8-2.23H80.28v1.69s3.44,0,6.51,0a14.14,14.14,0,0,1,7.36,2.06l9.69,5.86A1.16,1.16,0,0,1,104.17,108.41Z"/><path class="cls-8" d="M46.31,110.11v3.1c0,3.63,8.21,6.57,18.35,6.57S83,116.84,83,113.21v-3.1Z"/><path class="cls-9" d="M53.83,119.49c.39.93.92-.68,1.57-.12v-9.26H53.83Z"/><path class="cls-9" d="M49,116.61a21.73,21.73,0,0,0,6.42,2.27v-8.77H49Z"/><path class="cls-10" d="M74.36,118.78c5.18-1.16,8.64-3.22,8.64-5.57v-3.1H74.36Z"/><path class="cls-10" d="M81.74,115.6A3.31,3.31,0,0,0,83,113.21v-3.1H81.74Z"/><path class="cls-11" d="M68.1,74.27c0-.63-1.54-1.15-3.44-1.15s-3.44.51-3.44,1.15v0h0V87.18c0,.78,1.54,1.4,3.44,1.4s3.44-.63,3.44-1.4V74.29h0Z"/><path class="cls-12" d="M68.1,74.25c0-.63-1.54-1.13-3.44-1.13s-3.44.51-3.44,1.13v0h0V87c0,.77,1.54,1.39,3.44,1.39S68.1,87.8,68.1,87V74.28h0Z"/><path class="cls-9" d="M63.3,86.63V74.3A5.54,5.54,0,0,1,62,73.86V86.92s.31.76,1.81,1A1.47,1.47,0,0,1,63.3,86.63Z"/><path class="cls-13" d="M66.6,73.32V88.18c.9-.25,1.49-.67,1.49-1.14V74.28h0v0C68.1,73.87,67.5,73.52,66.6,73.32Z"/><path class="cls-14" d="M68.09,74.28v0c0-.63-1.54-1.13-3.44-1.13s-3.44.51-3.44,1.13v0h0v.1c.13.3.7,1.19,3.36,1.19s3.38-.94,3.52-1.22v-.07Z"/><path class="cls-10" d="M68.1,76.48a1.22,1.22,0,0,0-.9,1.18v6.67a1.22,1.22,0,0,0,.9,1.18Z"/><path class="cls-10" d="M67.41,77.58v6.83a1.25,1.25,0,0,0,.54,1l.15.07v-9l-.15.07A1.25,1.25,0,0,0,67.41,77.58Z"/><path class="cls-15" d="M67.57,42.59c0-.61-1.3-1.11-2.91-1.11s-2.91.5-2.91,1.11v0h0V73.8c0,.75,1.3,1.36,2.91,1.36s2.91-.61,2.91-1.36V42.61h0Z"/><path class="cls-12" d="M67.57,42.58c0-.61-1.3-1.11-2.91-1.11s-2.91.5-2.91,1.11v0h0v31c0,.75,1.3,1.36,2.91,1.36s2.91-.61,2.91-1.36v-31h0Z"/><path class="cls-13" d="M64.66,41.48c-1.61,0-2.91.5-2.91,1.11v0h0v1a7.15,7.15,0,0,0,5.82,0v-1h0v0C67.57,42,66.27,41.48,64.66,41.48Z"/><path class="cls-9" d="M63.51,73.26V42.63a4.27,4.27,0,0,1-1.09-.43V73.55s.27.75,1.53,1A1.52,1.52,0,0,1,63.51,73.26Z"/><path class="cls-13" d="M66.31,41.67v33.1c.76-.24,1.27-.65,1.27-1.12v-31h0v0C67.57,42.2,67.07,41.87,66.31,41.67Z"/><path class="cls-16" d="M68.13,32.32c0-.61-1.56-1.11-3.47-1.11s-3.47.5-3.47,1.11v9.41c0,.75,1.56,1.36,3.47,1.36s3.47-.61,3.47-1.36Z"/><ellipse class="cls-17" cx="64.66" cy="110.11" rx="18.35" ry="6.57"/><path class="cls-18" d="M78.66,109.89c0,2.65-6.27,4.79-14,4.79s-14-2.15-14-4.79,6.27-7.75,14-7.75S78.66,107.24,78.66,109.89Z"/><path class="cls-12" d="M64.66,95.51a7.07,7.07,0,0,1-4-1.19v8.1c0,.75,1.79,1.36,4,1.36s4-.61,4-1.36v-8.1A7.07,7.07,0,0,1,64.66,95.51Z"/><ellipse class="cls-19" cx="80.28" cy="99.37" rx="0.9" ry="2.78"/><path class="cls-19" d="M103.84,110a1.1,1.1,0,0,0,1.12-.15,2.13,2.13,0,0,0,.65-1.85,3.08,3.08,0,0,0-.12-.38,3,3,0,0,1-.35.19C102.89,108.8,103.84,110,103.84,110Z"/><path class="cls-6" d="M105.34,108.41a1.62,1.62,0,0,0-.13-.61l-.07,0a3.12,3.12,0,0,0-1.18.8c-.07.35-.07.82.38.85C105,109.53,105.32,108.82,105.34,108.41Z"/><path class="cls-9" d="M62.64,41.42V33.73a4.27,4.27,0,0,1-1.09-.43v8.4s.27.75,1.53,1A1.52,1.52,0,0,1,62.64,41.42Z"/><path class="cls-20" d="M67.16,31.56V42.67c.6-.24,1-.57,1-.94V32.32C68.13,32,67.76,31.76,67.16,31.56Z"/><path class="cls-21" d="M64.66,31.22c-1.92,0-3.47.5-3.47,1.11v.11s0,1.11,3.4,1.11,3.55-1.11,3.55-1.11v-.11C68.13,31.71,66.58,31.22,64.66,31.22Z"/><path class="cls-22" d="M64.66,31.43c-1.74,0-3.14.41-3.14.91v.09s0,.91,3.07.91,3.22-.91,3.22-.91v-.09C67.8,31.83,66.4,31.43,64.66,31.43Z"/><path class="cls-10" d="M80,101.76c.35,0,.8-1.07.8-2.4S80.34,97,80,97H69c-.42,0-.77,1.07-.77,2.4s.34,2.4.77,2.4Z"/><path class="cls-18" d="M79.87,101.76c.34,0,.79-1.07.79-2.4s-.45-2.4-.79-2.4H68.6c-.42,0-.76,1.07-.76,2.4s.34,2.4.76,2.4Z"/><path class="cls-23" d="M64.66,95.61a6.69,6.69,0,0,1-4-1.29v.85a6.85,6.85,0,0,0,8,0v-.85A6.69,6.69,0,0,1,64.66,95.61Z"/><path class="cls-24" d="M64.66,95.51a7.07,7.07,0,0,1-4-1.19v.78a7.31,7.31,0,0,0,8,0v-.78A7.07,7.07,0,0,1,64.66,95.51Z"/><path class="cls-25" d="M62,92a12.5,12.5,0,0,0-4.38,2,29.31,29.31,0,0,0-3.7,3c1.51,3,2.8,1.08,3,.7a8.43,8.43,0,0,1,3-3.59C60.87,93.41,61.94,92.87,62,92Z"/><rect class="cls-26" x="61.22" y="76.48" width="1.28" height="9.02" rx="0.56" ry="0.56"/><path class="cls-27" d="M62,76.51a.64.64,0,0,0-.52.62v7.74a.53.53,0,1,0,1,0V77.13A.64.64,0,0,0,62,76.51Z"/><path class="cls-28" d="M67.36,23.86c0,10.22-1.1,9.36-2.59,9.36S62,34.08,62,23.86,64,4.38,64.66,4.38,67.36,13.64,67.36,23.86Z"/><path class="cls-29" d="M66.45,25.59c0,7.95-.69,7.63-1.68,7.63s-1.91.31-1.91-7.63.8-14.39,1.79-14.39S66.45,17.64,66.45,25.59Z"/><path class="cls-30" d="M66.05,29.75c0,4.06-.51,3-1.28,3s-1.51,1.07-1.51-3,.62-11,1.39-11S66.05,25.69,66.05,29.75Z"/><path class="cls-31" d="M65.42,31.41c0,2.29-.23.87-.65.87s-.88,1.41-.88-.87.34-4.14.76-4.14S65.42,29.13,65.42,31.41Z"/></g></g></svg>