<svg id="Bio_instruments&#x751F;&#x7269;&#x4EEA;&#x5668;" data-name="Bio instruments&#x751F;&#x7269;&#x4EEA;&#x5668;" xmlns="http://www.w3.org/2000/svg" xmlns:xlink="http://www.w3.org/1999/xlink" viewbox="0 0 128 128" width="128" height="128"><defs><style>.cls-1{fill:url(#未命名的渐变_101);stroke:none;}.cls-2,.cls-7,.cls-8{fill:#fff;stroke:none;}.cls-3{fill:url(#未命名的渐变_653);stroke:none;}.cls-4{fill:url(#未命名的渐变_101-2);stroke:none;}.cls-5{fill:url(#未命名的渐变_664);stroke:none;}.cls-6{fill:#4a8cca;opacity:0.25;stroke:none;}.cls-7{opacity:0.24;stroke:none;}.cls-8{opacity:0.38;stroke:none;}</style><linearGradient id="&#x672A;&#x547D;&#x540D;&#x7684;&#x6E10;&#x53D8;_101" x1="39.15" y1="69" x2="94.05" y2="69" gradientunits="userSpaceOnUse"><stop offset="0" stop-color="#8dd7f2"/><stop offset="0.09" stop-color="#cfecf8"/><stop offset="0.38" stop-color="#cdecf8"/><stop offset="0.49" stop-color="#c6eaf8"/><stop offset="0.57" stop-color="#bae8f7"/><stop offset="0.63" stop-color="#a9e4f6"/><stop offset="0.69" stop-color="#93e0f5"/><stop offset="0.74" stop-color="#77daf4"/><stop offset="0.78" stop-color="#57d3f3"/><stop offset="0.82" stop-color="#32cbf1"/><stop offset="0.86" stop-color="#09c3ef"/><stop offset="0.86" stop-color="#05c2ef"/><stop offset="0.87" stop-color="#24c9f1"/><stop offset="0.88" stop-color="#65daf5"/><stop offset="0.89" stop-color="#9ce7f9"/><stop offset="0.9" stop-color="#c7f1fb"/><stop offset="0.91" stop-color="#e6f9fd"/><stop offset="0.92" stop-color="#f8fdff"/><stop offset="0.92" stop-color="#fff"/><stop offset="1" stop-color="#87d5f7"/></linearGradient><linearGradient id="&#x672A;&#x547D;&#x540D;&#x7684;&#x6E10;&#x53D8;_653" x1="66.6" y1="107.48" x2="66.6" y2="11.9" gradientunits="userSpaceOnUse"><stop offset="0.01" stop-color="#daf1fd"/><stop offset="0.82" stop-color="#8fd8f8"/></linearGradient><linearGradient id="&#x672A;&#x547D;&#x540D;&#x7684;&#x6E10;&#x53D8;_101-2" x1="39.15" y1="20.01" x2="94.05" y2="20.01" xlink:href="#&#x672A;&#x547D;&#x540D;&#x7684;&#x6E10;&#x53D8;_101"><linearGradient id="&#x672A;&#x547D;&#x540D;&#x7684;&#x6E10;&#x53D8;_664" x1="54.64" y1="6.26" x2="78.56" y2="33.77" gradientunits="userSpaceOnUse"><stop offset="0" stop-color="#e5f5fd"/><stop offset="0.74" stop-color="#79d2f7"/><stop offset="1" stop-color="#29afe5"/></linearGradient></linearGradient></defs><title>&#x751F;&#x7269;&#x4EEA;&#x5668;</title><path class="cls-1" d="M39.15,20.22v85.26c0,6.79,12.29,12.3,27.45,12.3s27.45-5.51,27.45-12.3V20.22Z"/><path class="cls-2" d="M40.72,17.2v86.45c0,6.85,11.59,12.41,25.88,12.41s25.88-5.55,25.88-12.41V17.2Z"/><path class="cls-3" d="M42,21.51v80.6c0,6.27,11,11.35,24.57,11.35s24.57-5.08,24.57-11.35V21.51Z"/><ellipse class="cls-4" cx="66.6" cy="20.01" rx="27.45" ry="10.05"/><ellipse class="cls-5" cx="66.6" cy="20.01" rx="25.86" ry="8.82"/><path class="cls-6" d="M66.6,94.2c-13.29,0-24.06,4-24.06,9a3.63,3.63,0,0,0,0,.53c.73-4.61,11.2-8.27,24-8.27s23.29,3.66,24,8.27a3.63,3.63,0,0,0,0-.53C90.66,98.24,79.89,94.2,66.6,94.2Z"/><path class="cls-7" d="M81.67,30.42V101.7c.32,6.43-3.3,9.38-3.3,9.38,9.56-1.61,11.57-7.24,11.57-7.24V27.2A32.23,32.23,0,0,1,81.67,30.42Z"/><path class="cls-8" d="M51.73,101.7V30.42a32.26,32.26,0,0,1-8.27-3.22v76.64s2,5.63,11.57,7.24C55,111.08,51.41,108.13,51.73,101.7Z"/></svg>