<svg id="Microorganisms&#x5FAE;&#x751F;&#x7269;" xmlns="http://www.w3.org/2000/svg" viewbox="0 0 128 128" width="128" height="128"><defs><style>.cls-1,.cls-11{fill:#00aeef;stroke:none;}.cls-1{stroke:#00aeef;}.cls-1,.cls-10,.cls-11,.cls-12,.cls-5,.cls-6,.cls-7,.cls-8,.cls-9{stroke-linecap:round;stroke-linejoin:round;}.cls-1,.cls-10,.cls-11,.cls-12,.cls-3,.cls-5,.cls-6,.cls-7,.cls-8,.cls-9{stroke-width:0.5px;}.cls-2{fill:#0071bc;stroke:none;}.cls-2,.cls-3{stroke:#0071bc;}.cls-2,.cls-3,.cls-4{stroke-miterlimit:10;}.cls-3{fill:#bce6fb;stroke:none;}.cls-4{fill:none;stroke:#0088ce;}.cls-5{fill:#abe1fa;stroke:none;}.cls-10,.cls-11,.cls-12,.cls-5,.cls-6,.cls-7,.cls-8,.cls-9{stroke:#0089d0;}.cls-6{fill:#009ce0;stroke:none;}.cls-7{fill:#57cbf5;stroke:none;}.cls-8{fill:#a5dff9;stroke:none;}.cls-9{fill:#c1e8fb;stroke:none;}.cls-10{fill:#3fc7f4;stroke:none;}.cls-12{fill:#00bff3;stroke:none;}</style></defs><title>Microorganisms&#x5FAE;&#x751F;&#x7269;</title><polyline class="cls-1" points="57.56 95.51 55.47 99.32 62.53 96.5"/><polyline class="cls-1" points="75.63 95.51 77.72 99.32 70.66 96.5"/><polyline class="cls-1" points="63.73 96.54 66.55 100.44 69.46 96.4"/><ellipse class="cls-2" cx="66.59" cy="93.64" rx="10.77" ry="3.48"/><ellipse class="cls-3" cx="66.59" cy="93.19" rx="10.77" ry="3.04"/><polyline class="cls-4" points="62.96 94.81 59.75 92.28 50.72 115.35"/><polyline class="cls-4" points="70.23 94.81 73.44 92.28 82.47 115.35"/><polyline class="cls-4" points="58.39 93.07 54.06 88.42 39.67 108.45"/><polyline class="cls-4" points="74.8 93.07 79.12 88.42 93.52 108.45"/><polyline class="cls-4" points="60.79 91.56 58.61 87.4 50.13 103.63"/><polyline class="cls-4" points="72.4 91.56 74.57 87.4 83.06 103.63"/><ellipse class="cls-3" cx="66.59" cy="91.94" rx="4.9" ry="1.31"/><ellipse class="cls-3" cx="66.59" cy="90.52" rx="4.9" ry="1.31"/><ellipse class="cls-3" cx="66.59" cy="89.09" rx="4.9" ry="1.31"/><ellipse class="cls-3" cx="66.59" cy="87.66" rx="4.9" ry="1.31"/><ellipse class="cls-3" cx="66.59" cy="86.24" rx="4.9" ry="1.31"/><ellipse class="cls-3" cx="66.59" cy="84.81" rx="4.9" ry="1.31"/><ellipse class="cls-3" cx="66.59" cy="83.38" rx="4.9" ry="1.31"/><ellipse class="cls-3" cx="66.59" cy="81.96" rx="4.9" ry="1.31"/><ellipse class="cls-3" cx="66.59" cy="80.53" rx="4.9" ry="1.31"/><ellipse class="cls-3" cx="66.59" cy="79.1" rx="4.9" ry="1.31"/><ellipse class="cls-3" cx="66.59" cy="77.68" rx="4.9" ry="1.31"/><ellipse class="cls-3" cx="66.59" cy="76.25" rx="4.9" ry="1.31"/><ellipse class="cls-3" cx="66.59" cy="74.82" rx="4.9" ry="1.31"/><ellipse class="cls-3" cx="66.59" cy="73.4" rx="4.9" ry="1.31"/><ellipse class="cls-3" cx="66.59" cy="71.97" rx="4.9" ry="1.31"/><ellipse class="cls-3" cx="66.59" cy="70.54" rx="4.9" ry="1.31"/><ellipse class="cls-3" cx="66.59" cy="69.11" rx="4.9" ry="1.31"/><ellipse class="cls-3" cx="66.59" cy="67.69" rx="4.9" ry="1.31"/><ellipse class="cls-3" cx="66.59" cy="66.26" rx="4.9" ry="1.31"/><ellipse class="cls-3" cx="66.59" cy="64.83" rx="4.9" ry="1.31"/><ellipse class="cls-3" cx="66.59" cy="63.41" rx="4.9" ry="1.31"/><ellipse class="cls-3" cx="66.59" cy="61.98" rx="4.9" ry="1.31"/><ellipse class="cls-3" cx="66.59" cy="60.55" rx="4.9" ry="1.31"/><ellipse class="cls-3" cx="66.59" cy="59.13" rx="4.9" ry="1.31"/><ellipse class="cls-3" cx="66.59" cy="57.7" rx="4.9" ry="1.31"/><ellipse class="cls-3" cx="66.59" cy="56.27" rx="4.9" ry="1.31"/><ellipse class="cls-3" cx="66.59" cy="54.85" rx="4.9" ry="1.31"/><ellipse class="cls-3" cx="66.59" cy="53.42" rx="4.9" ry="1.31"/><ellipse class="cls-3" cx="66.59" cy="51.99" rx="4.9" ry="1.31"/><path class="cls-3" d="M62.47,51.28V44.54c0-1,.92-.21,2-.21h4.16c1.12,0,2-.78,2,.21v6.75c0,.5-1,1-4.12,1S62.47,51.78,62.47,51.28Z"/><ellipse class="cls-3" cx="66.59" cy="46.45" rx="9.16" ry="2.91"/><ellipse class="cls-3" cx="66.59" cy="46.3" rx="9.16" ry="2.76"/><polygon class="cls-5" points="51.69 22.48 51.69 39.05 66.59 47.34 81.5 39.05 81.5 22.48 66.59 14.2 51.69 22.48"/><polygon class="cls-6" points="59.73 36.02 51.69 39.05 66.59 47.34 81.5 39.05 73.45 36.02 59.73 36.02"/><polygon class="cls-5" points="51.69 22.48 51.69 22.75 81.5 22.75 81.5 22.48 66.59 14.2 51.69 22.48"/><polygon class="cls-5" points="81.5 22.75 81.5 22.48 66.59 14.2 66.59 22.75 81.5 22.75"/><polygon class="cls-7" points="81.5 22.75 66.59 47.34 51.69 22.75 81.5 22.75"/><polygon class="cls-8" points="73.45 36.02 66.59 22.75 59.73 36.02 73.45 36.02"/><polygon class="cls-9" points="73.45 36.02 73.45 36.02 81.5 22.75 66.59 22.75 73.45 36.02"/><polygon class="cls-10" points="59.73 36.02 59.73 36.02 66.59 22.75 51.69 22.75 59.73 36.02"/><polygon class="cls-11" points="51.69 39.05 59.73 36.02 51.69 22.75 51.69 39.05"/><polygon class="cls-12" points="66.59 47.34 73.45 36.02 81.5 39.05 66.59 47.34"/></svg>