<svg id="Microorganisms&#x5FAE;&#x751F;&#x7269;" xmlns="http://www.w3.org/2000/svg" viewbox="0 0 128 128" width="128" height="128"><defs><style>.cls-1,.cls-2{fill:#84d5f7;stroke:none;}.cls-1{stroke:#c1e8fa;stroke-width:2px;}.cls-1,.cls-3,.cls-5{stroke-miterlimit:10;}.cls-3,.cls-5{fill:none;stroke:#0089d0;}.cls-3{stroke-width:0.5px;}.cls-4{fill:#0089d0;stroke:none;}.cls-5{stroke-width:0.34px;}.cls-6{fill:#c7eafb;stroke:none;}.cls-7{fill:#0071bc;stroke:none;}</style></defs><title>Microorganisms&#x5FAE;&#x751F;&#x7269;</title><path class="cls-1" d="M79.72,45.82s-4-.55-4.87-4-1.33-9.74-5.09-11.51-7-3-9.85-6.2-7.2-8.19-9.63-6.31-.89,5.87-.11,6.53,2.77,2.66,1.33,4.87-4,2.21-3.54,5.31,3.54,6.09,6.53,8.53,9,7.86,6.2,10.08-5-2.33-6.09-4.21A5.37,5.37,0,0,0,51,46.16L50.16,46s0-3.32-2.21-3.76-3.54-.11-5-.33-.89-3.65-4.32-2.66-.89,7.2-2.77,7.64S24.58,38.3,21.26,38.18s-6-1.77-7.42,2.55,4.87,9,6.64,10.52,9,5.31,8.3,7.2-6.53,1.11-7.53,1.77,1.66,6.2,3.65,6.86,3.54.11,5.87,1.88,3.76,3.76.22,4.21-6.64-1.66-12.29.66S13,77.71,13.62,80.7s2,5,7.31,4.21,7.64-1.22,7.64-1.22-6.86,4.54-6.86,8.19,4.1,7.64,11,4.76,9.74-5.54,11.18-8.41,4.76-6.75,8.53-5.54,3.32,6.42,3.32,8.53,1.66,3.32,5,2.66,6.64-2.1,8.86.89,0,4.76-2.88,6.2-4.65,3.32-3.76,5.87,4.76,3.32,9.52,1.44,12.18-7.64,15.28-7.64,8.86,2.55,10.85,0,2.77-4.32.78-6.86a10.94,10.94,0,0,1-2-8.41c.44-2.55,4.1-2.77,5.2-3.88A6.16,6.16,0,0,0,103.74,78s3.76,2.55,6.09-.22-.66-5.09,1-6.86,7.42-1,7.31-4.54-4.32-2.77-5.2-3.65-1.11-4.76-2.66-5.31-3-1-3.88-2-1.77-2.55-4.54-1.66A6,6,0,0,1,95,51.69c-1.77-2.1-6.64-12.29-12.73-10.19C80,42.29,79.72,45.82,79.72,45.82Z"/><path class="cls-2" d="M79.72,45.82s-4-.55-4.87-4-1.33-9.74-5.09-11.51-7-3-9.85-6.2-7.2-8.19-9.63-6.31-.89,5.87-.11,6.53,2.77,2.66,1.33,4.87-4,2.21-3.54,5.31,3.54,6.09,6.53,8.53,9,7.86,6.2,10.08-5-2.33-6.09-4.21A5.37,5.37,0,0,0,51,46.16L50.16,46s0-3.32-2.21-3.76-3.54-.11-5-.33-.89-3.65-4.32-2.66-.89,7.2-2.77,7.64S24.58,38.3,21.26,38.18s-6-1.77-7.42,2.55,4.87,9,6.64,10.52,9,5.31,8.3,7.2-6.53,1.11-7.53,1.77,1.66,6.2,3.65,6.86,3.54.11,5.87,1.88,3.76,3.76.22,4.21-6.64-1.66-12.29.66S13,77.71,13.62,80.7s2,5,7.31,4.21,7.64-1.22,7.64-1.22-6.86,4.54-6.86,8.19,4.1,7.64,11,4.76,9.74-5.54,11.18-8.41,4.76-6.75,8.53-5.54,3.32,6.42,3.32,8.53,1.66,3.32,5,2.66,6.64-2.1,8.86.89,0,4.76-2.88,6.2-4.65,3.32-3.76,5.87,4.76,3.32,9.52,1.44,12.18-7.64,15.28-7.64,8.86,2.55,10.85,0,2.77-4.32.78-6.86a10.94,10.94,0,0,1-2-8.41c.44-2.55,4.1-2.77,5.2-3.88A6.16,6.16,0,0,0,103.74,78s3.76,2.55,6.09-.22-.66-5.09,1-6.86,7.42-1,7.31-4.54-4.32-2.77-5.2-3.65-1.11-4.76-2.66-5.31-3-1-3.88-2-1.77-2.55-4.54-1.66A6,6,0,0,1,95,51.69c-1.77-2.1-6.64-12.29-12.73-10.19C80,42.29,79.72,45.82,79.72,45.82Z"/><path class="cls-3" d="M79.72,45.82a17.77,17.77,0,0,0,3.12,5,8.44,8.44,0,0,1,2.72,5.43l.13,1.81"/><path class="cls-3" d="M28.57,83.69s4.58-3.18,5.75-3.05,5.18-1.29,5.56-2.85,1.42-2.2,3.75-2.33a5.48,5.48,0,0,0,3.75-2.07"/><path class="cls-3" d="M50.16,46a4.53,4.53,0,0,1-1.87,3.66c-1.94,1.29-3.11,3-3.24,3.88l-.13.91"/><path class="cls-3" d="M84.52,57.08a27.53,27.53,0,0,1-5.31,3.62c-2.33,1-7.89,5.31-5.82,8.28s7.89-1.68,10.35-1.68a5.07,5.07,0,0,1,3.75,1.55"/><path class="cls-3" d="M89.31,70s-.26,1.81-2.85,3.62-4,5.82-1.55,7.89,8.15-3.88,9.71-3.62a3.41,3.41,0,0,1,2.07.91"/><path class="cls-3" d="M96.68,66.41s5.31,2.26,5.5,3.86c.15,1.29-4.84,4-4.84,4"/><path class="cls-3" d="M103.74,78s-.33-2.84-3-2.84S98,77.14,98,77.14"/><path class="cls-3" d="M107.56,65.62s3.24,4,.91,5.43-4.66-.52-4.66-.52"/><path class="cls-3" d="M101.73,56.44s3.75-1.42,4.66,1.16-1.55,4.27-1.55,4.27"/><path class="cls-3" d="M82.78,58.27s-1.74-10.76-9-4.81c-6.47,5.31,1,10.39,1,10.39"/><path class="cls-3" d="M63,48.54s1.42,3.11.65,5.18A4,4,0,0,1,61,56.18"/><circle class="cls-3" cx="77.64" cy="85.65" r="5"/><ellipse class="cls-4" cx="76.74" cy="83.35" rx="1.92" ry="1.28" transform="translate(-33.81 108.13) rotate(-60)"/><ellipse class="cls-4" cx="93.19" cy="57.74" rx="1.86" ry="0.9" transform="translate(-14.57 77.9) rotate(-42.38)"/><ellipse class="cls-3" cx="92.17" cy="58.85" rx="4.59" ry="2.86" transform="translate(-15.58 77.5) rotate(-42.38)"/><ellipse class="cls-4" cx="90.9" cy="59.37" rx="1.86" ry="0.9" transform="translate(-16.26 76.78) rotate(-42.38)"/><ellipse class="cls-4" cx="93.03" cy="59.92" rx="1.86" ry="0.9" transform="translate(-5.37 110.53) rotate(-60)"/><ellipse class="cls-4" cx="74.79" cy="86.07" rx="1.86" ry="0.95" transform="translate(-37.14 107.81) rotate(-60)"/><ellipse class="cls-4" cx="76.42" cy="86.53" rx="1.86" ry="0.95" transform="translate(-36.73 109.45) rotate(-60)"/><ellipse class="cls-4" cx="78.18" cy="86.72" rx="1.86" ry="0.95" transform="translate(-36.01 111.06) rotate(-60)"/><ellipse class="cls-4" cx="80.08" cy="84.17" rx="0.95" ry="1.86" transform="translate(-27.65 40.68) rotate(-24.44)"/><ellipse class="cls-4" cx="79.43" cy="87" rx="0.95" ry="1.86" transform="translate(-28.88 40.66) rotate(-24.44)"/><circle class="cls-5" cx="45.6" cy="61.19" r="3.37"/><circle class="cls-6" cx="89.33" cy="95.07" r="3.37"/><circle class="cls-6" cx="31.46" cy="63.02" r="3.37"/><ellipse class="cls-4" cx="45.47" cy="59.79" rx="1.05" ry="1.92" transform="translate(-22.27 92.25) rotate(-78.35)"/><ellipse class="cls-4" cx="43.66" cy="61.66" rx="1.86" ry="0.95" transform="translate(-31.57 68.64) rotate(-60)"/><ellipse class="cls-4" cx="45.59" cy="62.28" rx="1.86" ry="0.95" transform="translate(-31.14 70.62) rotate(-60)"/><ellipse class="cls-4" cx="47.5" cy="61.86" rx="0.95" ry="1.86" transform="translate(-6.51 5.59) rotate(-6.31)"/><circle class="cls-6" cx="62.33" cy="44.49" r="1.66" transform="translate(14.73 104.48) rotate(-87.09)"/><circle class="cls-3" cx="69.29" cy="38.2" r="0.76"/><circle class="cls-6" cx="60.32" cy="35.49" r="2.32"/><circle class="cls-3" cx="32.96" cy="51.42" r="1.35"/><circle class="cls-3" cx="31.93" cy="55.73" r="0.97"/><circle class="cls-3" cx="23.71" cy="46.1" r="0.76"/><circle class="cls-6" cx="67.14" cy="55.09" r="1.95"/><circle class="cls-6" cx="68.94" cy="69.56" r="2.67"/><circle class="cls-6" cx="65.08" cy="81.09" r="1.99"/><circle class="cls-6" cx="78.12" cy="76.38" r="1.85"/><circle class="cls-6" cx="95.89" cy="73.22" r="1.2"/><circle class="cls-3" cx="93.75" cy="67.11" r="0.82"/><circle class="cls-6" cx="98.47" cy="62.11" r="1.38"/><circle class="cls-3" cx="82.93" cy="61.66" r="0.59"/><circle class="cls-6" cx="36.79" cy="84.92" r="1.73"/><circle class="cls-3" cx="28.25" cy="89.31" r="1.26"/><circle class="cls-3" cx="22.6" cy="80.51" r="0.88"/><circle class="cls-4" cx="55.15" cy="64.71" r="0.89"/><circle class="cls-4" cx="56.9" cy="65.16" r="0.89"/><circle class="cls-4" cx="55.22" cy="66.83" r="0.89"/><circle class="cls-4" cx="53.19" cy="65.72" r="0.89"/><circle class="cls-4" cx="46.5" cy="68.09" r="0.89"/><circle class="cls-4" cx="53.76" cy="67.78" r="0.89"/><circle class="cls-4" cx="51.64" cy="68.39" r="0.89"/><circle class="cls-4" cx="53.5" cy="69.59" r="0.89"/><circle class="cls-4" cx="55.93" cy="69.57" r="0.89"/><circle class="cls-4" cx="55.6" cy="68.6" r="0.89"/><circle class="cls-4" cx="58.01" cy="68.13" r="0.89"/><circle class="cls-4" cx="57.32" cy="67.09" r="0.89"/><circle class="cls-4" cx="58.93" cy="66.13" r="0.89"/><circle class="cls-4" cx="58.79" cy="63.67" r="0.89"/><circle class="cls-4" cx="64.43" cy="62.49" r="0.89"/><circle class="cls-4" cx="59.26" cy="60.27" r="0.89"/><circle class="cls-4" cx="56.97" cy="58.34" r="0.89"/><circle class="cls-4" cx="42.18" cy="54.93" r="0.89"/><circle class="cls-4" cx="36.27" cy="67.15" r="0.89"/><circle class="cls-4" cx="47.85" cy="65.54" r="0.89"/><circle class="cls-4" cx="44.19" cy="79.41" r="0.89" transform="translate(-20.85 15.94) rotate(-16.61)"/><circle class="cls-4" cx="72.47" cy="93.01" r="0.89" transform="translate(-23.56 24.59) rotate(-16.61)"/><circle class="cls-4" cx="61.05" cy="65.21" r="0.89"/><circle class="cls-4" cx="60.84" cy="68.32" r="0.89"/><circle class="cls-4" cx="60.64" cy="66.8" r="0.89"/><circle class="cls-4" cx="63.1" cy="65.84" r="0.89"/><circle class="cls-4" cx="63.39" cy="69.3" r="0.89"/><circle class="cls-4" cx="61.1" cy="69.79" r="0.89"/><circle class="cls-4" cx="60.2" cy="70.95" r="0.89"/><circle class="cls-4" cx="59.14" cy="70.24" r="0.89"/><circle class="cls-4" cx="57.63" cy="72.25" r="0.89"/><circle class="cls-4" cx="57.61" cy="71.02" r="0.89"/><circle class="cls-4" cx="55.11" cy="72.49" r="0.89"/><circle class="cls-4" cx="54.63" cy="71.02" r="0.89"/><circle class="cls-4" cx="53.08" cy="71.26" r="0.89"/><circle class="cls-4" cx="51.23" cy="70.67" r="0.89"/><circle class="cls-4" cx="53.88" cy="74.7" r="0.89"/><circle class="cls-4" cx="53.41" cy="73.24" r="0.89"/><circle class="cls-4" cx="51.85" cy="73.48" r="0.89"/><circle class="cls-4" cx="55.95" cy="74.62" r="0.89"/><circle class="cls-4" cx="57.59" cy="75.86" r="0.89"/><circle class="cls-4" cx="58.37" cy="74.3" r="0.89"/><circle class="cls-4" cx="61.39" cy="74.68" r="0.89"/><circle class="cls-4" cx="60.04" cy="73.07" r="0.89"/><circle class="cls-4" cx="62.87" cy="72.86" r="0.89"/><circle class="cls-4" cx="62.38" cy="71.47" r="0.89"/><circle class="cls-4" cx="66.04" cy="73.94" r="0.89"/><path class="cls-7" d="M74.82,61.05c-.48.18-2.8-4.12-.72-5.11S75.3,60.87,74.82,61.05Z"/><path class="cls-7" d="M76.59,54.71c.38-.34,4.1,2.83,2.52,4.5S76.21,55,76.59,54.71Z"/></svg>