<svg id="Microorganisms&#x5FAE;&#x751F;&#x7269;" xmlns="http://www.w3.org/2000/svg" viewbox="0 0 128 128" width="128" height="128"><defs><style>.cls-1{fill:#86c87f;stroke:none;}.cls-2{fill:#6ec179;stroke:none;}.cls-3{fill:#add581;stroke:none;}.cls-4{fill:#4ca39e;stroke:none;}.cls-5{fill:#8ed1c0;stroke:none;}.cls-6{fill:#bce0c1;stroke:none;}.cls-7{fill:none;stroke:#d1e9d6;stroke-linecap:round;stroke-linejoin:round;stroke-width:3px;}</style></defs><title>Microorganisms&#x5FAE;&#x751F;&#x7269;</title><path class="cls-1" d="M107.83,91.73a12.12,12.12,0,0,0-6.1-11.85c-3.81-2.25-7.39-2-10.55-1.7-2.87.23-5.36.44-7.68-1.11C81,75.4,79.45,72,78,68.67S75,62.16,72.64,61.18c-2.75-1.12-5,0-6.95.91a8.94,8.94,0,0,1-4.32,1.28,6.06,6.06,0,0,1-5-2.67l-1.23.68a7.41,7.41,0,0,0,6.14,3.39,10.16,10.16,0,0,0,5-1.42c2-.95,3.64-1.77,5.81-.88,1.86.76,3.18,3.68,4.57,6.76,1.5,3.33,3.21,7.1,6,9s5.56,1.59,8.57,1.34,6.3-.51,9.72,1.51A14.15,14.15,0,0,1,107.83,91.73Z"/><path class="cls-2" d="M103.75,94c.52,0,.84,0,.89,0s-8.32-.7-10-6.18C94,85.35,92.28,82.92,88,81c-3.5-1.55-6.21-.7-8.61,0-2.55.8-4.75,1.48-7.68-.57-3.45-2.41-3.54-6.1-3.63-10-.06-2.64-.12-5.37-1.21-7.86C64,56.17,55.56,57.09,55.2,57.13l.16,1.39c.08,0,7.82-.84,10.22,4.66,1,2.24,1,4.83,1.09,7.33.09,4.08.19,8.31,4.23,11.13,3.5,2.44,6.25,1.58,8.9.75,2.36-.74,4.6-1.44,7.62-.1,3.82,1.69,5,4.18,6,6.38.75,1.58,1.45,3.07,3,3.86A17.32,17.32,0,0,0,103.75,94Z"/><path class="cls-3" d="M98.81,99.53a9.34,9.34,0,0,0,6-2s-5.26,2.65-11.84-1.13c-3.54-2-4.67-5.19-5.77-8.24-1-2.84-2.08-5.79-5-7.67-3.19-2-5.55-1.35-7.83-.69S70.06,81,67,79.38C62.59,77,62.48,75,62.29,71.59a31.4,31.4,0,0,0-.47-4.42c-1.25-6.55-6.21-7.55-6.42-7.59L55.15,61c.17,0,4.24.9,5.3,6.47a30.42,30.42,0,0,1,.45,4.23c.19,3.59.33,6.19,5.48,8.95,3.52,1.89,6.06,1.16,8.3.52s4-1.16,6.69.53,3.49,4.21,4.48,7c1.13,3.13,2.4,6.68,6.39,9A13.11,13.11,0,0,0,98.81,99.53Z"/><rect class="cls-4" x="14.2" y="40.63" width="46.5" height="19.44" rx="9.72" ry="9.72" transform="translate(50.45 111.74) rotate(-155.32)"/><path class="cls-5" d="M45.59,63.5l-26-12a9.61,9.61,0,0,1-2.75-1.92,9.72,9.72,0,0,1-.46-9h0a9.75,9.75,0,0,1,12.89-4.77L53.8,47.17a9.73,9.73,0,0,1,5.55,7.45,9.61,9.61,0,0,1-.87,4.11A9.75,9.75,0,0,1,45.59,63.5Z"/><path class="cls-6" d="M44,60.51,22,50.38a8.13,8.13,0,0,1-2.33-1.62,8.22,8.22,0,0,1-.39-7.59h0a8.24,8.24,0,0,1,10.9-4L51,46.69A8.23,8.23,0,0,1,55.67,53a8.13,8.13,0,0,1-.74,3.47A8.24,8.24,0,0,1,44,60.51Z"/><line class="cls-7" x1="33.08" y1="41.35" x2="43.93" y2="46.34"/><path class="cls-7" d="M24,39.82a4.7,4.7,0,0,1,4.4-.26"/></svg>