<svg id="Microorganisms&#x5FAE;&#x751F;&#x7269;" xmlns="http://www.w3.org/2000/svg" viewbox="0 0 128 128" width="128" height="128"><defs><style>.cls-1{fill:#0070d1;stroke:none;}.cls-2{fill:#0099eb;stroke:none;}.cls-3{fill:#00aeff;stroke:none;}.cls-4{fill:#6dcff6;stroke:none;}.cls-5{fill:#0076da;stroke:none;}.cls-6{fill:#0085ff;stroke:none;}.cls-7{fill:#0062ce;stroke:none;}.cls-8{fill:#00a2ff;stroke:none;}.cls-9{fill:#00c2ff;stroke:none;}.cls-10{fill:#0098ff;stroke:none;}.cls-11{fill:#00bdff;stroke:none;}.cls-12{fill:#00ceff;stroke:none;}.cls-13{fill:#00aee8;stroke:none;}.cls-14{fill:#00a9ff;stroke:none;}.cls-15{fill:#00e7ff;stroke:none;}</style></defs><title>Microorganisms&#x5FAE;&#x751F;&#x7269;</title><circle class="cls-1" cx="63.79" cy="61.31" r="40.1"/><circle class="cls-2" cx="61.32" cy="58.84" r="34.97"/><circle class="cls-3" cx="60.29" cy="57.81" r="27.67"/><circle class="cls-4" cx="52.84" cy="50.35" r="9.38"/><path class="cls-5" d="M31.43,40,39.1,51.82A3.88,3.88,0,0,0,43.5,50c1.77-2.58.86-4,.86-4Z"/><path class="cls-6" d="M39.8,72.85l14-1.58a3.88,3.88,0,0,0,.35-4.75c-1.52-2.73-3.21-2.57-3.21-2.57Z"/><path class="cls-6" d="M53.42,85.77l11.66-7.9a3.88,3.88,0,0,0-1.89-4.37c-2.62-1.71-4-.78-4-.78Z"/><path class="cls-5" d="M37.1,88.73l13.48-4.08a3.88,3.88,0,0,0-.51-4.73c-2-2.41-3.62-1.95-3.62-1.95Z"/><path class="cls-7" d="M32.09,102.77,44,95.29a3.88,3.88,0,0,0-1.73-4.44c-2.55-1.81-4-.93-4-.93Z"/><path class="cls-7" d="M52.91,107.55,59,94.86A3.88,3.88,0,0,0,55.17,92c-3.12-.16-3.88,1.36-3.88,1.36Z"/><path class="cls-5" d="M60.75,98.19l7.8-11.72a3.88,3.88,0,0,0-3.4-3.33c-3.07-.6-4,.8-4,.8Z"/><path class="cls-7" d="M66.3,113.11l3.64-13.6a3.88,3.88,0,0,0-4.29-2.06c-3.1.42-3.56,2.05-3.56,2.05Z"/><path class="cls-7" d="M43.94,13.68l.53,14.07s1.52,2,4.65.68c2.9-1.17,2.86-3,2.86-3Z"/><path class="cls-7" d="M59.84,13.54,58,27.5s1.17,2.18,4.47,1.45c3.05-.68,3.31-2.47,3.31-2.47Z"/><path class="cls-5" d="M55.9,23.53,52.5,37.19s.92,2.3,4.28,1.95c3.11-.32,3.57-2.07,3.57-2.07Z"/><path class="cls-5" d="M81.91,27.7,69.42,34.21s-1.11,2.21,1.38,4.5c2.3,2.12,3.92,1.3,3.92,1.3Z"/><path class="cls-7" d="M79.36,11.94,72.79,24.39s.34,2.45,3.69,2.91c3.1.43,4-1.16,4-1.16Z"/><path class="cls-6" d="M62.21,31.17,58,44.6s.77,2.35,4.15,2.21c3.13-.13,3.7-1.85,3.7-1.85Z"/><path class="cls-7" d="M83.89,37.88,70.68,42.76s-1.38,2.05.8,4.63c2,2.39,3.73,1.79,3.73,1.79Z"/><path class="cls-5" d="M95.68,37.75,83.24,44.34s-1.1,2.22,1.41,4.49c2.32,2.1,3.93,1.28,3.93,1.28Z"/><path class="cls-7" d="M111.56,40.66,97.65,42.88s-1.75,1.74-.12,4.7c1.52,2.74,3.31,2.48,3.31,2.48Z"/><path class="cls-7" d="M109,55.34l-13.82-2.7s-2.25,1-1.73,4.37c.48,3.09,2.25,3.46,2.25,3.46Z"/><path class="cls-7" d="M90,51.47,76.38,54.89s-1.6,1.89.29,4.69c1.75,2.6,3.51,2.18,3.51,2.18Z"/><path class="cls-8" d="M69.06,56.8l-6.64.3s-1.6,1.89.29,4.69c1.75,2.6,3.51,2.18,3.51,2.18Z"/><path class="cls-7" d="M114.55,73l-12.46-6.56s-2.45.34-2.91,3.69c-.43,3.1,1.16,4,1.16,4Z"/><path class="cls-5" d="M102.51,65.9,90,59.35s-2.45.34-2.91,3.69c-.43,3.1,1.16,4,1.16,4Z"/><path class="cls-6" d="M87.5,72.83,75,66.27s-2.45.34-2.91,3.69c-.43,3.1,1.16,4,1.16,4Z"/><path class="cls-7" d="M103.74,92.06,92.85,83.13s-2.47-.15-3.59,3c-1,3,.34,4.12.34,4.12Z"/><path class="cls-7" d="M89.62,99.67,82.73,87.39s-2.24-1-4.45,1.51c-2,2.37-1.18,4-1.18,4Z"/><path class="cls-7" d="M17.51,40.57l11.33,8.36s2.47,0,3.43-3.21c.89-3-.55-4.1-.55-4.1Z"/><path class="cls-7" d="M17.26,57.15l13.25,4.77s2.38-.68,2.37-4.06c0-3.13-1.7-3.77-1.7-3.77Z"/><path class="cls-5" d="M25.34,67l13.84,2.6s2.24-1,1.7-4.38c-.5-3.09-2.28-3.45-2.28-3.45Z"/><path class="cls-7" d="M15.5,77.28l14-1.24s1.87-1.62.45-4.68c-1.32-2.84-3.13-2.7-3.13-2.7Z"/><path class="cls-7" d="M94.73,25.24,84.1,34.47s-.57,2.41,2.38,4.05c2.73,1.52,4.12.35,4.12.35Z"/><circle class="cls-9" cx="105.6" cy="35.78" r="3.92" transform="matrix(0.86, -0.52, 0.52, 0.86, -3.25, 59.93)"/><path class="cls-10" d="M95.24,42.1,95.15,42a1.24,1.24,0,0,1,.37-1.71l6.5-3.88a1.24,1.24,0,0,1,1.69.46l.09.15a1.24,1.24,0,0,1-.37,1.71l-6.5,3.88A1.24,1.24,0,0,1,95.24,42.1Z"/><path class="cls-11" d="M71.8,53.16,71.73,53a1.24,1.24,0,0,1,.6-1.65l7-3a1.24,1.24,0,0,1,1.61.68l.07.16a1.24,1.24,0,0,1-.6,1.65l-7,3A1.24,1.24,0,0,1,71.8,53.16Z"/><circle class="cls-12" cx="82.12" cy="48.72" r="3.92" transform="translate(-12.62 36.77) rotate(-23.49)"/><circle class="cls-9" cx="109.76" cy="60.39" r="3.92" transform="translate(-1.69 3.18) rotate(-1.65)"/><path class="cls-10" d="M97.63,60.78V60.6a1.24,1.24,0,0,1,1.17-1.3l7.57-.17a1.24,1.24,0,0,1,1.24,1.23v.18a1.24,1.24,0,0,1-1.17,1.3L98.87,62A1.24,1.24,0,0,1,97.63,60.78Z"/><path class="cls-11" d="M77.07,64.7l0-.18a1.24,1.24,0,0,1,1.43-1L86,65a1.24,1.24,0,0,1,.94,1.48l0,.18a1.24,1.24,0,0,1-1.43,1L78,66.18A1.24,1.24,0,0,1,77.07,64.7Z"/><circle class="cls-12" cx="86.96" cy="66.58" r="3.92" transform="translate(4.71 138.9) rotate(-78.76)"/><circle class="cls-9" cx="92.04" cy="82.3" r="3.92" transform="translate(-23.24 126.51) rotate(-62.78)"/><path class="cls-13" d="M81.76,76.78l.08-.16A1.24,1.24,0,0,1,83.5,76l6.71,3.51a1.24,1.24,0,0,1,.49,1.68l-.08.16A1.24,1.24,0,0,1,89,82l-6.71-3.51A1.24,1.24,0,0,1,81.76,76.78Z"/><circle class="cls-9" cx="108.03" cy="79.86" r="3.92" transform="translate(-10.16 143.73) rotate(-64.86)"/><path class="cls-10" d="M97,74.74l.08-.16a1.24,1.24,0,0,1,1.63-.64l6.83,3.26a1.24,1.24,0,0,1,.55,1.66L106,79a1.24,1.24,0,0,1-1.63.64l-6.83-3.26A1.24,1.24,0,0,1,97,74.74Z"/><circle class="cls-9" cx="68.95" cy="14.9" r="3.92"/><path class="cls-14" d="M69,27H68.8a1.24,1.24,0,0,1-1.27-1.21l.06-7.57a1.24,1.24,0,0,1,1.27-1.21H69a1.24,1.24,0,0,1,1.27,1.21l-.06,7.57A1.24,1.24,0,0,1,69,27Z"/><circle class="cls-9" cx="33.37" cy="25.57" r="3.92" transform="translate(-8.66 26.35) rotate(-38.53)"/><path class="cls-14" d="M41,35l-.14.11A1.24,1.24,0,0,1,39.08,35L34.4,29a1.24,1.24,0,0,1,.24-1.74l.14-.11a1.24,1.24,0,0,1,1.75.15l4.68,6A1.24,1.24,0,0,1,41,35Z"/><circle class="cls-12" cx="48.68" cy="35.25" r="3.92" transform="translate(-11.36 37.99) rotate(-38.53)"/><path class="cls-11" d="M56.27,44.72l-.14.11a1.24,1.24,0,0,1-1.75-.15l-4.68-6A1.24,1.24,0,0,1,50,37l.14-.11a1.24,1.24,0,0,1,1.75.15l4.68,6A1.24,1.24,0,0,1,56.27,44.72Z"/><circle class="cls-9" cx="17.1" cy="65.64" r="3.92" transform="translate(-11.16 3.98) rotate(-10.02)"/><path class="cls-10" d="M29,63.49l0,.18a1.24,1.24,0,0,1-1,1.46L20.65,66.4a1.24,1.24,0,0,1-1.41-1l0-.18a1.24,1.24,0,0,1,1-1.46l7.46-1.27A1.24,1.24,0,0,1,29,63.49Z"/><path class="cls-11" d="M51,61.64l0,.18a1.24,1.24,0,0,1-1.36,1.11l-7.5-1a1.24,1.24,0,0,1-1-1.41l0-.18a1.24,1.24,0,0,1,1.36-1.11l7.5,1A1.24,1.24,0,0,1,51,61.64Z"/><circle class="cls-12" cx="42.3" cy="60.32" r="3.92" transform="translate(-22.86 94.7) rotate(-82.78)"/><path class="cls-11" d="M66.93,74.16l.17,0a1.24,1.24,0,0,1,1.53.86l1.8,7.35a1.24,1.24,0,0,1-.94,1.48l-.17,0A1.24,1.24,0,0,1,67.79,83L66,75.64A1.24,1.24,0,0,1,66.93,74.16Z"/><circle class="cls-12" cx="69.4" cy="82.83" r="3.92" transform="translate(-18.11 19.43) rotate(-14.12)"/><circle class="cls-9" cx="77.04" cy="105.81" r="3.92" transform="translate(-33.77 36.16) rotate(-21.79)"/><path class="cls-10" d="M72.5,94.56l.17-.07a1.24,1.24,0,0,1,1.63.65l2.76,7a1.24,1.24,0,0,1-.73,1.59l-.17.07a1.24,1.24,0,0,1-1.63-.65l-2.76-7A1.24,1.24,0,0,1,72.5,94.56Z"/><circle class="cls-9" cx="23.26" cy="83.89" r="3.92" transform="translate(-28.4 13.82) rotate(-20.91)"/><path class="cls-10" d="M34.58,79.52l.06.17A1.24,1.24,0,0,1,34,81.3L26.88,84a1.24,1.24,0,0,1-1.58-.76L25.24,83a1.24,1.24,0,0,1,.67-1.62L33,78.76A1.24,1.24,0,0,1,34.58,79.52Z"/><circle class="cls-9" cx="42.86" cy="103.49" r="3.92" transform="translate(-67.68 85.38) rotate(-58.2)"/><path class="cls-10" d="M49.22,93.15l.15.09a1.24,1.24,0,0,1,.44,1.69l-4,6.41a1.24,1.24,0,0,1-1.72.36l-.15-.09a1.24,1.24,0,0,1-.44-1.69l4-6.41A1.24,1.24,0,0,1,49.22,93.15Z"/><circle class="cls-15" cx="65.26" cy="51.28" r="3.92" transform="translate(-17.13 41.26) rotate(-31.23)"/><circle class="cls-15" cx="72.21" cy="62.99" r="3.92" transform="translate(-22.19 46.56) rotate(-31.23)"/><circle class="cls-15" cx="59.59" cy="67.28" r="3.92" transform="translate(-26.25 40.64) rotate(-31.23)"/><path class="cls-5" d="M31,28.56l7.62,11.84s2.3.91,4.35-1.78c1.9-2.49.94-4,.94-4Z"/><path class="cls-7" d="M26,89.68l12.76-6a3.88,3.88,0,0,0-1.18-4.61C35.29,77,33.74,77.7,33.74,77.7Z"/><path class="cls-5" d="M88,89.44,81.07,77.16s-2.24-1-4.45,1.51c-2,2.37-1.18,4-1.18,4Z"/><path class="cls-6" d="M41.08,49.32,52.94,56.9a3.88,3.88,0,0,0,3.27-3.47c.54-3.08-.88-4-.88-4Z"/><path class="cls-5" d="M103.47,80,92.84,70.76s-2.46-.23-3.68,2.93c-1.13,2.92.23,4.13.23,4.13Z"/></svg>