<svg id="Microorganisms&#x5FAE;&#x751F;&#x7269;" xmlns="http://www.w3.org/2000/svg" viewbox="0 0 128 128" width="128" height="128"><defs><style>.cls-1{fill:#3ca58f;stroke:none;}.cls-2{fill:#a0d4b3;stroke:none;}.cls-2,.cls-4,.cls-6,.cls-8{stroke:#00a898;stroke-miterlimit:10;}.cls-2,.cls-4{stroke-width:0.44px;}.cls-3{fill:#bbdec2;stroke:none;}.cls-4,.cls-8{fill:none;stroke:none;}.cls-5{fill:#009296;stroke:none;}.cls-6,.cls-7{fill:#d9ffd9;stroke:none;}.cls-6,.cls-8{stroke-width:0.5px;}</style></defs><title>Microorganisms&#x5FAE;&#x751F;&#x7269;</title><polygon class="cls-1" points="58.71 30.87 59.33 31.09 59.48 27.79 58.87 27.58 58.71 30.87"/><polygon class="cls-1" points="59.87 31.3 60.48 31.52 60.69 28.22 60.09 28 59.87 31.3"/><polygon class="cls-1" points="61.01 31.74 61.61 31.98 61.9 28.69 61.3 28.45 61.01 31.74"/><polygon class="cls-1" points="63.1 29.18 62.5 28.93 62.14 32.21 62.74 32.47 63.1 29.18"/><polygon class="cls-1" points="64.27 29.69 63.68 29.42 63.26 32.7 63.85 32.97 64.27 29.69"/><polygon class="cls-1" points="64.37 33.22 64.96 33.5 65.44 30.23 64.86 29.96 64.37 33.22"/><polygon class="cls-1" points="66.62 30.79 66.04 30.5 65.48 33.76 66.07 34.05 66.62 30.79"/><polygon class="cls-1" points="67.76 31.36 67.18 31.07 66.57 34.32 67.15 34.62 67.76 31.36"/><polygon class="cls-1" points="68.89 31.96 68.33 31.66 67.66 34.9 68.23 35.21 68.89 31.96"/><polygon class="cls-1" points="70.02 32.59 69.46 32.27 68.75 35.5 69.31 35.82 70.02 32.59"/><polygon class="cls-1" points="71.13 33.23 70.58 32.9 69.81 36.11 70.37 36.44 71.13 33.23"/><polygon class="cls-1" points="71.42 37.08 72.24 33.88 71.69 33.55 70.87 36.74 71.42 37.08"/><polygon class="cls-1" points="72.79 34.21 71.92 37.4 72.48 37.74 73.33 34.55 72.79 34.21"/><polygon class="cls-1" points="73.87 34.88 72.96 38.06 73.5 38.41 74.42 35.23 73.87 34.88"/><polygon class="cls-1" points="74.96 35.58 74.01 38.74 74.55 39.1 75.5 35.94 74.96 35.58"/><polygon class="cls-1" points="75.55 39.79 76.54 36.63 76 36.27 75.01 39.42 75.55 39.79"/><polygon class="cls-1" points="77.59 37.36 77.06 36.99 76.03 40.13 76.57 40.5 77.59 37.36"/><polygon class="cls-1" points="78.64 38.1 78.12 37.73 77.05 40.85 77.58 41.23 78.64 38.1"/><polygon class="cls-1" points="79.67 38.85 79.15 38.47 78.04 41.58 78.57 41.97 79.67 38.85"/><polygon class="cls-1" points="80.17 39.22 79.03 42.32 79.55 42.71 80.69 39.61 80.17 39.22"/><polygon class="cls-1" points="81.19 39.99 80.01 43.07 80.52 43.47 81.7 40.38 81.19 39.99"/><polygon class="cls-1" points="81.5 44.24 82.71 41.17 82.2 40.77 80.98 43.84 81.5 44.24"/><polygon class="cls-1" points="83.7 41.96 83.2 41.55 81.96 44.62 82.46 45.02 83.7 41.96"/><polygon class="cls-1" points="83.42 45.82 84.7 42.77 84.2 42.36 82.92 45.41 83.42 45.82"/><polygon class="cls-1" points="84.38 46.63 85.69 43.59 85.19 43.17 83.88 46.21 84.38 46.63"/><polygon class="cls-1" points="85.3 47.42 86.63 44.4 86.14 43.98 84.81 47 85.3 47.42"/><polygon class="cls-1" points="86.25 48.25 87.61 45.24 87.12 44.81 85.76 47.83 86.25 48.25"/><polygon class="cls-1" points="87.16 49.07 88.55 46.08 88.06 45.65 86.67 48.64 87.16 49.07"/><polygon class="cls-1" points="88.08 49.92 89.5 46.93 89.02 46.49 87.6 49.48 88.08 49.92"/><polygon class="cls-1" points="88.98 50.75 90.43 47.79 89.95 47.34 88.5 50.31 88.98 50.75"/><polygon class="cls-1" points="89.89 51.61 91.37 48.65 90.9 48.21 89.42 51.17 89.89 51.61"/><polygon class="cls-1" points="90.78 52.46 92.27 49.52 91.81 49.07 90.31 52.01 90.78 52.46"/><polygon class="cls-1" points="91.67 53.34 93.19 50.4 92.72 49.95 91.2 52.88 91.67 53.34"/><polygon class="cls-1" points="92.56 54.22 94.1 51.29 93.64 50.83 92.09 53.76 92.56 54.22"/><polygon class="cls-1" points="93.43 55.1 95 52.2 94.55 51.74 92.97 54.64 93.43 55.1"/><polygon class="cls-1" points="94.29 55.99 95.89 53.1 95.44 52.64 93.84 55.53 94.29 55.99"/><polygon class="cls-1" points="95.15 56.89 96.77 54.01 96.32 53.54 94.7 56.42 95.15 56.89"/><polygon class="cls-1" points="96 57.79 97.64 54.92 97.19 54.45 95.55 57.31 96 57.79"/><polygon class="cls-1" points="96.85 58.71 98.51 55.85 98.07 55.38 96.41 58.23 96.85 58.71"/><polygon class="cls-1" points="97.69 59.63 99.38 56.78 98.94 56.31 97.25 59.15 97.69 59.63"/><polygon class="cls-1" points="98.51 60.54 100.22 57.71 99.78 57.23 98.07 60.06 98.51 60.54"/><polygon class="cls-1" points="99.34 61.48 101.07 58.67 100.64 58.18 98.91 61 99.34 61.48"/><polygon class="cls-1" points="101.9 59.61 101.47 59.12 99.72 61.92 100.15 62.41 101.9 59.61"/><polygon class="cls-1" points="102.31 60.08 100.53 62.86 100.96 63.36 102.73 60.57 102.31 60.08"/><polygon class="cls-1" points="101.76 64.33 103.56 61.56 103.15 61.06 101.34 63.83 101.76 64.33"/><polygon class="cls-1" points="104.38 62.52 103.96 62.02 102.13 64.77 102.55 65.28 104.38 62.52"/><polygon class="cls-1" points="104.77 62.99 102.92 65.73 103.33 66.24 105.18 63.49 104.77 62.99"/><polygon class="cls-1" points="104.1 67.2 105.97 64.47 105.56 63.96 103.69 66.69 104.1 67.2"/><polygon class="cls-1" points="104.87 68.17 106.76 65.46 106.36 64.95 104.47 67.66 104.87 68.17"/><polygon class="cls-1" points="105.64 69.17 107.55 66.46 107.15 65.95 105.24 68.65 105.64 69.17"/><polygon class="cls-1" points="106.38 70.15 108.32 67.48 107.93 66.96 105.99 69.63 106.38 70.15"/><polygon class="cls-1" points="107.13 71.15 109.09 68.49 108.7 67.97 106.74 70.63 107.13 71.15"/><polygon class="cls-1" points="107.86 72.14 109.84 69.5 109.45 68.97 107.47 71.62 107.86 72.14"/><polygon class="cls-1" points="108.59 73.16 110.6 70.54 110.22 70.02 108.21 72.64 108.59 73.16"/><polygon class="cls-1" points="109.3 74.18 111.33 71.57 110.96 71.04 108.93 73.64 109.3 74.18"/><polygon class="cls-1" points="110 75.2 112.06 72.61 111.7 72.08 109.63 74.66 110 75.2"/><polygon class="cls-1" points="110.7 76.22 112.78 73.65 112.42 73.12 110.33 75.68 110.7 76.22"/><polygon class="cls-1" points="111.38 77.25 113.48 74.71 113.13 74.17 111.02 76.71 111.38 77.25"/><polygon class="cls-1" points="112.04 78.29 114.18 75.77 113.83 75.22 111.69 77.74 112.04 78.29"/><polygon class="cls-1" points="112.69 79.34 114.86 76.85 114.51 76.3 112.35 78.79 112.69 79.34"/><polygon class="cls-1" points="113.33 80.41 115.54 77.95 115.2 77.4 113 79.85 113.33 80.41"/><polygon class="cls-1" points="113.97 81.49 116.21 79.06 115.88 78.5 113.64 80.93 113.97 81.49"/><polygon class="cls-1" points="114.56 82.55 116.84 80.15 116.52 79.59 114.24 81.98 114.56 82.55"/><polygon class="cls-1" points="115.16 83.64 117.48 81.28 117.17 80.71 114.85 83.07 115.16 83.64"/><polygon class="cls-1" points="115.73 84.73 118.09 82.42 117.79 81.84 115.42 84.15 115.73 84.73"/><polygon class="cls-1" points="116.27 85.82 118.67 83.55 118.38 82.97 115.97 85.24 116.27 85.82"/><polygon class="cls-1" points="116.77 86.93 119.23 84.73 118.96 84.14 116.5 86.34 116.77 86.93"/><polygon class="cls-1" points="117.26 88.07 119.79 85.93 119.53 85.34 117 87.47 117.26 88.07"/><polygon class="cls-1" points="117.69 89.18 120.29 87.13 120.05 86.53 117.45 88.58 117.69 89.18"/><polygon class="cls-1" points="118.07 90.33 120.75 88.4 120.54 87.79 117.86 89.71 118.07 90.33"/><polygon class="cls-1" points="118.38 91.48 121.17 89.7 121 89.08 118.21 90.85 118.38 91.48"/><polygon class="cls-1" points="118.59 92.61 121.51 91.06 121.39 90.42 118.46 91.97 118.59 92.61"/><polygon class="cls-1" points="118.64 93.74 121.74 92.59 121.7 91.94 118.6 93.09 118.64 93.74"/><polygon class="cls-1" points="118.61 94.19 118.58 94.84 121.78 94 121.8 93.35 118.61 94.19"/><polygon class="cls-1" points="118.35 95.93 121.64 95.55 121.75 94.91 118.47 95.29 118.35 95.93"/><polygon class="cls-1" points="117.96 96.91 121.27 97.05 121.48 96.44 118.18 96.3 117.96 96.91"/><polygon class="cls-1" points="117.42 97.81 120.66 98.5 120.97 97.93 117.73 97.24 117.42 97.81"/><polygon class="cls-1" points="116.71 98.6 119.78 99.84 120.18 99.33 117.12 98.1 116.71 98.6"/><polygon class="cls-1" points="115.89 99.27 118.71 101 119.19 100.57 116.38 98.84 115.89 99.27"/><polygon class="cls-1" points="114.94 99.83 117.46 101.97 118.01 101.63 115.49 99.48 114.94 99.83"/><polygon class="cls-1" points="113.94 100.28 116.17 102.72 116.75 102.44 114.52 100 113.94 100.28"/><polygon class="cls-1" points="112.87 100.61 114.81 103.29 115.42 103.08 113.48 100.4 112.87 100.61"/><polygon class="cls-1" points="111.76 100.85 113.43 103.71 114.06 103.56 112.39 100.7 111.76 100.85"/><polygon class="cls-1" points="110.61 101.01 112.04 104 112.68 103.9 111.25 100.91 110.61 101.01"/><polygon class="cls-1" points="109.45 101.09 110.66 104.16 111.3 104.11 110.1 101.03 109.45 101.09"/><polygon class="cls-1" points="108.27 101.08 109.27 104.24 109.92 104.23 108.92 101.08 108.27 101.08"/><polygon class="cls-1" points="107.1 101.01 107.9 104.22 108.55 104.25 107.75 101.04 107.1 101.01"/><polygon class="cls-1" points="105.91 100.87 106.53 104.12 107.17 104.19 106.56 100.94 105.91 100.87"/><polygon class="cls-1" points="104.74 100.67 105.19 103.95 105.83 104.06 105.39 100.78 104.74 100.67"/><polygon class="cls-1" points="103.58 100.41 103.85 103.71 104.48 103.85 104.21 100.55 103.58 100.41"/><polygon class="cls-1" points="102.45 100.09 102.56 103.4 103.18 103.56 103.08 100.27 102.45 100.09"/><polygon class="cls-1" points="101.25 103.02 101.87 103.22 101.93 99.92 101.31 99.72 101.25 103.02"/><polygon class="cls-1" points="99.96 102.57 100.56 102.8 100.81 99.51 100.2 99.27 99.96 102.57"/><polygon class="cls-1" points="98.7 102.06 99.29 102.32 99.71 99.04 99.12 98.77 98.7 102.06"/><polygon class="cls-1" points="97.47 101.46 98.04 101.77 98.66 98.52 98.08 98.22 97.47 101.46"/><polygon class="cls-1" points="97.08 97.59 96.25 100.8 96.81 101.13 97.63 97.93 97.08 97.59"/><polygon class="cls-1" points="96.14 96.91 95.1 100.05 95.63 100.42 96.67 97.29 96.14 96.91"/><polygon class="cls-1" points="95.19 96.17 94.03 99.26 94.54 99.65 95.71 96.56 95.19 96.17"/><polygon class="cls-1" points="94.22 95.39 93 98.47 93.51 98.87 94.73 95.8 94.22 95.39"/><polygon class="cls-1" points="93.27 94.61 92 97.66 92.5 98.08 93.77 95.02 93.27 94.61"/><polygon class="cls-1" points="92.34 93.81 91.02 96.84 91.51 97.26 92.84 94.23 92.34 93.81"/><polygon class="cls-1" points="91.41 92.99 90.04 96 90.53 96.43 91.9 93.42 91.41 92.99"/><polygon class="cls-1" points="90.5 92.16 89.08 95.15 89.56 95.58 90.98 92.6 90.5 92.16"/><polygon class="cls-1" points="89.61 91.32 88.15 94.28 88.62 94.72 90.08 91.76 89.61 91.32"/><polygon class="cls-1" points="88.72 90.46 87.22 93.4 87.68 93.85 89.19 90.92 88.72 90.46"/><polygon class="cls-1" points="87.84 89.58 86.28 92.5 86.74 92.95 88.3 90.03 87.84 89.58"/><polygon class="cls-1" points="86.98 88.69 85.38 91.59 85.83 92.05 87.44 89.16 86.98 88.69"/><polygon class="cls-1" points="86.16 87.81 84.51 90.67 84.95 91.14 86.61 88.28 86.16 87.81"/><polygon class="cls-1" points="85.33 86.88 83.62 89.71 84.05 90.19 85.76 87.36 85.33 86.88"/><polygon class="cls-1" points="84.51 85.93 82.74 88.72 83.17 89.21 84.94 86.42 84.51 85.93"/><polygon class="cls-1" points="82.79 85.08 82.17 84.89 82.14 88.2 82.76 88.39 82.79 85.08"/><polygon class="cls-1" points="80.89 87.81 81.51 88 81.56 84.69 80.94 84.5 80.89 87.81"/><polygon class="cls-1" points="79.72 87.42 80.33 87.62 80.39 84.32 79.78 84.12 79.72 87.42"/><polygon class="cls-1" points="78.51 87.03 79.13 87.23 79.21 83.93 78.59 83.72 78.51 87.03"/><polygon class="cls-1" points="77.31 86.63 77.93 86.84 78.02 83.53 77.41 83.33 77.31 86.63"/><polygon class="cls-1" points="76.12 86.22 76.73 86.44 76.84 83.13 76.22 82.92 76.12 86.22"/><polygon class="cls-1" points="74.93 85.82 75.54 86.03 75.67 82.73 75.05 82.52 74.93 85.82"/><polygon class="cls-1" points="73.72 85.41 74.33 85.62 74.48 82.32 73.86 82.1 73.72 85.41"/><polygon class="cls-1" points="72.56 84.99 73.17 85.21 73.32 81.91 72.7 81.69 72.56 84.99"/><polygon class="cls-1" points="71.36 84.57 71.97 84.79 72.14 81.49 71.53 81.27 71.36 84.57"/><polygon class="cls-1" points="70.16 84.13 70.77 84.35 70.95 81.06 70.34 80.84 70.16 84.13"/><polygon class="cls-1" points="68.98 83.7 69.59 83.93 69.79 80.63 69.18 80.41 68.98 83.7"/><polygon class="cls-1" points="67.81 83.27 68.41 83.5 68.63 80.2 68.02 79.97 67.81 83.27"/><polygon class="cls-1" points="66.64 82.83 67.25 83.06 67.47 79.77 66.86 79.54 66.64 82.83"/><polygon class="cls-1" points="65.45 82.38 66.05 82.61 66.3 79.32 65.69 79.08 65.45 82.38"/><polygon class="cls-1" points="64.27 81.92 64.87 82.16 65.13 78.86 64.53 78.63 64.27 81.92"/><polygon class="cls-1" points="63.08 81.46 63.68 81.7 63.96 78.4 63.35 78.16 63.08 81.46"/><polygon class="cls-1" points="61.94 81 62.54 81.25 62.83 77.95 62.23 77.71 61.94 81"/><polygon class="cls-1" points="60.76 80.53 61.36 80.77 61.67 77.48 61.06 77.23 60.76 80.53"/><polygon class="cls-1" points="59.6 80.06 60.2 80.31 60.52 77.01 59.92 76.76 59.6 80.06"/><polygon class="cls-1" points="58.43 79.57 59.03 79.82 59.38 76.53 58.78 76.28 58.43 79.57"/><polygon class="cls-1" points="57.27 79.07 57.87 79.33 58.23 76.05 57.63 75.79 57.27 79.07"/><polygon class="cls-1" points="56.1 78.57 56.7 78.83 57.08 75.55 56.48 75.29 56.1 78.57"/><polygon class="cls-1" points="54.93 78.06 55.52 78.32 55.93 75.04 55.33 74.78 54.93 78.06"/><polygon class="cls-1" points="53.79 77.55 54.38 77.81 54.81 74.54 54.22 74.27 53.79 77.55"/><polygon class="cls-1" points="52.63 77.02 53.22 77.29 53.67 74.02 53.08 73.74 52.63 77.02"/><polygon class="cls-1" points="51.48 76.49 52.07 76.76 52.55 73.49 51.96 73.21 51.48 76.49"/><polygon class="cls-1" points="50.34 75.95 50.93 76.23 51.44 72.96 50.85 72.68 50.34 75.95"/><polygon class="cls-1" points="49.2 75.39 49.78 75.67 50.32 72.42 49.73 72.13 49.2 75.39"/><polygon class="cls-1" points="48.63 71.57 48.06 74.83 48.64 75.12 49.21 71.86 48.63 71.57"/><polygon class="cls-1" points="47.51 70.99 46.91 74.23 47.48 74.53 48.09 71.29 47.51 70.99"/><polygon class="cls-1" points="46.43 70.42 45.8 73.66 46.37 73.97 47.01 70.72 46.43 70.42"/><polygon class="cls-1" points="45.35 69.82 44.67 73.06 45.24 73.37 45.92 70.13 45.35 69.82"/><polygon class="cls-1" points="44.25 69.2 43.54 72.44 44.1 72.75 44.82 69.52 44.25 69.2"/><polygon class="cls-1" points="43.19 68.57 42.42 71.79 42.98 72.12 43.75 68.9 43.19 68.57"/><polygon class="cls-1" points="42.14 67.95 41.33 71.16 41.89 71.49 42.7 68.28 42.14 67.95"/><polygon class="cls-1" points="41.11 67.29 40.25 70.49 40.8 70.83 41.66 67.64 41.11 67.29"/><polygon class="cls-1" points="40.08 66.61 39.15 69.79 39.7 70.14 40.62 66.97 40.08 66.61"/><polygon class="cls-1" points="39.06 65.92 38.07 69.07 38.61 69.44 39.6 66.28 39.06 65.92"/><polygon class="cls-1" points="38.06 65.2 37 68.33 37.53 68.7 38.59 65.58 38.06 65.2"/><polygon class="cls-1" points="37.1 64.45 35.95 67.55 36.46 67.94 37.62 64.84 37.1 64.45"/><polygon class="cls-1" points="36.16 63.68 34.91 66.75 35.41 67.15 36.67 64.09 36.16 63.68"/><polygon class="cls-1" points="35.28 62.89 33.91 65.9 34.39 66.33 35.77 63.32 35.28 62.89"/><polygon class="cls-1" points="34.4 62.04 32.91 64.99 33.37 65.44 34.87 62.49 34.4 62.04"/><polygon class="cls-1" points="33.57 61.15 31.95 64.04 32.4 64.5 34.02 61.63 33.57 61.15"/><polygon class="cls-1" points="32.74 60.27 31.09 63.13 31.53 63.6 33.18 60.75 32.74 60.27"/><polygon class="cls-1" points="31.91 59.35 30.21 62.19 30.65 62.67 32.35 59.83 31.91 59.35"/><polygon class="cls-1" points="31.1 58.42 29.36 61.23 29.79 61.72 31.53 58.91 31.1 58.42"/><polygon class="cls-1" points="30.3 57.48 28.52 60.26 28.94 60.75 30.73 57.98 30.3 57.48"/><polygon class="cls-1" points="29.5 56.51 27.68 59.27 28.09 59.77 29.92 57.01 29.5 56.51"/><polygon class="cls-1" points="28.74 55.56 26.88 58.3 27.29 58.8 29.15 56.07 28.74 55.56"/><polygon class="cls-1" points="27.98 54.58 26.08 57.29 26.48 57.8 28.38 55.09 27.98 54.58"/><polygon class="cls-1" points="27.23 53.6 25.3 56.29 25.69 56.8 27.62 54.12 27.23 53.6"/><polygon class="cls-1" points="26.48 52.6 24.52 55.26 24.91 55.78 26.87 53.13 26.48 52.6"/><polygon class="cls-1" points="25.76 51.6 23.77 54.23 24.14 54.76 26.15 52.13 25.76 51.6"/><polygon class="cls-1" points="25.06 50.6 23.03 53.21 23.4 53.74 25.44 51.13 25.06 50.6"/><polygon class="cls-1" points="24.35 49.57 22.29 52.15 22.66 52.68 24.72 50.1 24.35 49.57"/><polygon class="cls-1" points="23.67 48.54 21.57 51.09 21.93 51.63 24.03 49.08 23.67 48.54"/><polygon class="cls-1" points="23 47.5 20.87 50.03 21.22 50.57 23.35 48.04 23 47.5"/><polygon class="cls-1" points="22.35 46.47 20.19 48.98 20.53 49.52 22.7 47.02 22.35 46.47"/><polygon class="cls-1" points="21.7 45.4 19.5 47.87 19.84 48.42 22.04 45.95 21.7 45.4"/><polygon class="cls-1" points="21.07 44.34 18.84 46.79 19.18 47.35 21.4 44.9 21.07 44.34"/><polygon class="cls-1" points="20.45 43.27 18.19 45.69 18.52 46.24 20.78 43.83 20.45 43.27"/><polygon class="cls-1" points="19.86 42.19 17.56 44.56 17.87 45.13 20.17 42.76 19.86 42.19"/><polygon class="cls-1" points="19.27 41.09 16.94 43.44 17.24 44.01 19.58 41.67 19.27 41.09"/><polygon class="cls-1" points="18.72 40 16.34 42.3 16.64 42.88 19.02 40.58 18.72 40"/><polygon class="cls-1" points="18.18 38.89 15.76 41.14 16.04 41.72 18.46 39.47 18.18 38.89"/><polygon class="cls-1" points="17.67 37.79 15.21 39.99 15.48 40.58 17.95 38.38 17.67 37.79"/><polygon class="cls-1" points="17.19 36.66 14.66 38.8 14.92 39.39 17.45 37.26 17.19 36.66"/><polygon class="cls-1" points="16.75 35.52 14.16 37.58 14.39 38.18 16.99 36.13 16.75 35.52"/><polygon class="cls-1" points="16.36 34.38 13.69 36.33 13.9 36.94 16.57 35 16.36 34.38"/><polygon class="cls-1" points="16.05 33.23 13.26 35.02 13.44 35.64 16.22 33.86 16.05 33.23"/><polygon class="cls-1" points="15.88 32.13 12.92 33.61 13.03 34.25 15.98 32.77 15.88 32.13"/><polygon class="cls-1" points="15.98 31.23 16.2 31.34 16.64 30.85 13.65 29.44 13.21 29.92 15.85 31.17 12.77 31.89 12.73 32.53 15.95 31.79 15.98 31.23"/><polygon class="cls-1" points="17.47 30.35 14.81 28.38 14.29 28.77 16.94 30.74 17.47 30.35"/><polygon class="cls-1" points="18.45 29.78 15.98 27.58 15.43 27.92 17.89 30.12 18.45 29.78"/><polygon class="cls-1" points="19.49 29.25 17.18 26.89 16.61 27.19 18.92 29.55 19.49 29.25"/><polygon class="cls-1" points="20.58 28.77 18.39 26.28 17.8 26.55 19.99 29.04 20.58 28.77"/><polygon class="cls-1" points="21.7 28.34 19.64 25.75 19.04 25.99 21.09 28.58 21.7 28.34"/><polygon class="cls-1" points="22.84 27.96 20.89 25.28 20.28 25.49 22.22 28.17 22.84 27.96"/><polygon class="cls-1" points="23.99 27.62 22.16 24.87 21.54 25.06 23.36 27.81 23.99 27.62"/><polygon class="cls-1" points="25.18 27.32 23.45 24.5 22.83 24.66 24.54 27.49 25.18 27.32"/><polygon class="cls-1" points="26.36 27.08 24.74 24.19 24.11 24.32 25.72 27.21 26.36 27.08"/><polygon class="cls-1" points="27.53 26.87 26.02 23.93 25.39 24.05 26.89 26.98 27.53 26.87"/><polygon class="cls-1" points="28.76 26.69 27.34 23.71 26.7 23.8 28.12 26.78 28.76 26.69"/><polygon class="cls-1" points="29.97 26.55 28.64 23.52 28 23.6 29.32 26.62 29.97 26.55"/><polygon class="cls-1" points="31.17 26.45 29.93 23.38 29.28 23.44 30.52 26.5 31.17 26.45"/><polygon class="cls-1" points="32.39 26.37 31.24 23.27 30.59 23.32 31.74 26.41 32.39 26.37"/><polygon class="cls-1" points="33.59 26.34 32.52 23.21 31.88 23.23 32.94 26.36 33.59 26.34"/><polygon class="cls-1" points="34.82 26.33 33.82 23.17 33.17 23.18 34.17 26.33 34.82 26.33"/><polygon class="cls-1" points="36.06 26.35 35.13 23.17 34.49 23.16 35.41 26.34 36.06 26.35"/><polygon class="cls-1" points="37.28 26.4 36.44 23.2 35.79 23.18 36.63 26.37 37.28 26.4"/><polygon class="cls-1" points="38.52 26.47 37.73 23.25 37.09 23.22 37.87 26.43 38.52 26.47"/><polygon class="cls-1" points="39.73 26.57 39.03 23.34 38.38 23.29 39.08 26.52 39.73 26.57"/><polygon class="cls-1" points="40.95 26.7 40.31 23.45 39.66 23.38 40.3 26.63 40.95 26.7"/><polygon class="cls-1" points="42.17 26.84 41.59 23.59 40.95 23.52 41.52 26.77 42.17 26.84"/><polygon class="cls-1" points="43.39 27.02 42.87 23.75 42.23 23.66 42.75 26.93 43.39 27.02"/><polygon class="cls-1" points="44.61 27.2 44.14 23.93 43.5 23.83 43.97 27.11 44.61 27.2"/><polygon class="cls-1" points="45.82 27.42 45.41 24.15 44.77 24.03 45.17 27.31 45.82 27.42"/><polygon class="cls-1" points="47.02 27.65 46.67 24.37 46.03 24.25 46.38 27.53 47.02 27.65"/><polygon class="cls-1" points="48.23 27.91 47.93 24.62 47.3 24.48 47.6 27.77 48.23 27.91"/><polygon class="cls-1" points="49.44 28.18 49.19 24.88 48.56 24.74 48.8 28.04 49.44 28.18"/><polygon class="cls-1" points="50.64 28.47 50.44 25.17 49.81 25.02 50.01 28.32 50.64 28.47"/><polygon class="cls-1" points="51.83 28.78 51.68 25.48 51.06 25.31 51.2 28.62 51.83 28.78"/><polygon class="cls-1" points="53.03 29.09 52.92 25.79 52.29 25.62 52.4 28.93 53.03 29.09"/><polygon class="cls-1" points="54.21 29.43 54.14 26.13 53.52 25.95 53.58 29.25 54.21 29.43"/><polygon class="cls-1" points="55.4 29.79 55.38 26.49 54.76 26.31 54.78 29.6 55.4 29.79"/><polygon class="cls-1" points="56.59 26.85 55.98 26.66 55.96 29.96 56.58 30.16 56.59 26.85"/><polygon class="cls-1" points="57.92 27.33 57.3 27.13 57.28 30.44 57.91 30.63 57.92 27.33"/><path class="cls-2" d="M15.7,31.35c.51-.94,13-10.94,42.43-1.07S117.88,80.82,119,92.79c1,10.69-14.83,10.58-22.79,4.6A72.76,72.76,0,0,1,84,85.84S46,74.44,34.13,62.28,14.36,33.81,15.7,31.35Z"/><path class="cls-3" d="M18.38,33c.49-.9,12.31-10.38,40.26-1s56.69,48,57.71,59.32c.91,10.14-14.07,10-21.62,4.37a69,69,0,0,1-11.59-11S47.09,73.9,35.87,62.36,17.11,35.34,18.38,33Z"/><path class="cls-4" d="M84,85.84S70.48,70.18,65.16,66.31s-9.82-3.88-10.88-2,6.43,8.52,14.2,13.55S79,84.29,79,84.29"/><polygon class="cls-1" points="83.21 84.4 81.45 87.2 81.88 87.69 83.64 84.89 83.21 84.4"/><polygon class="cls-1" points="82.38 83.46 80.64 86.27 81.06 86.75 82.81 83.94 82.38 83.46"/><polygon class="cls-1" points="81.56 82.51 79.81 85.32 80.24 85.81 81.98 83 81.56 82.51"/><polygon class="cls-1" points="80.71 81.56 78.98 84.38 79.41 84.86 81.14 82.05 80.71 81.56"/><polygon class="cls-1" points="80.32 81.12 79.89 80.64 78.7 82.57 79.02 81.11 78.95 81.08 79.49 80.19 79.05 79.71 77.53 82.23 77.93 80.49 77.92 80.48 78.65 79.27 78.22 78.78 76.51 81.62 76.92 82.08 76.62 83.39 77.18 83.71 77.43 82.64 77.77 83.02 78.08 82.52 77.75 84.03 78.32 84.34 78.44 83.77 78.59 83.94 80.32 81.12"/><polygon class="cls-1" points="76.88 79.87 77.8 78.33 77.36 77.84 75.67 80.68 75.97 81.01 75.54 82.75 76.1 83.09 76.89 79.88 76.88 79.87"/><polygon class="cls-1" points="76.97 77.41 76.53 76.93 74.85 79.78 75.02 79.97 74.47 82.11 75.03 82.45 75.81 79.41 76.97 77.41"/><polygon class="cls-1" points="76.11 76.48 75.67 76 74.3 78.33 74.24 78.3 74.17 78.55 73.99 78.86 74.07 78.94 73.4 81.46 73.95 81.8 74.75 78.79 76.11 76.48"/><polygon class="cls-1" points="75.26 75.56 74.82 75.09 73.31 77.68 73.19 77.61 72.33 80.8 72.88 81.14 73.63 78.38 75.26 75.56"/><polygon class="cls-1" points="72.75 77.51 74.41 74.65 73.96 74.17 72.31 77.04 72.33 77.05 72.16 76.95 71.28 80.14 71.83 80.48 72.67 77.42 72.75 77.51"/><polygon class="cls-1" points="71.91 76.6 73.55 73.74 73.1 73.27 71.46 76.14 71.91 76.6"/><polygon class="cls-1" points="71.06 75.72 72.68 72.83 72.23 72.37 70.61 75.25 71.06 75.72"/><polygon class="cls-1" points="70.22 74.85 71.83 71.95 71.37 71.48 69.77 74.38 70.22 74.85"/><polygon class="cls-1" points="69.36 73.95 70.93 71.05 70.48 70.58 68.91 73.49 69.36 73.95"/><polygon class="cls-1" points="68.52 73.09 70.06 70.17 69.59 69.72 68.06 72.64 68.52 73.09"/><polygon class="cls-1" points="67.65 72.24 69.16 69.3 68.69 68.85 67.19 71.79 67.65 72.24"/><polygon class="cls-1" points="66.75 71.37 68.21 68.4 67.73 67.95 66.28 70.93 66.75 71.37"/><polygon class="cls-1" points="65.86 70.53 67.25 67.53 66.76 67.09 65.38 70.1 65.86 70.53"/><polygon class="cls-1" points="64.95 69.7 66.23 66.66 65.73 66.24 64.45 69.29 64.95 69.7"/><polygon class="cls-1" points="64.05 68.93 65.1 65.8 64.57 65.42 63.52 68.55 64.05 68.93"/><polygon class="cls-1" points="63.05 68.2 63.91 65.02 63.36 64.67 62.5 67.86 63.05 68.2"/><polygon class="cls-1" points="62.7 64.32 62.12 64.01 61.47 67.25 62.04 67.56 62.7 64.32"/><polygon class="cls-1" points="61.38 63.7 60.78 63.44 60.41 66.72 61 66.97 61.38 63.7"/><polygon class="cls-1" points="59.96 63.18 59.34 62.98 59.31 66.29 59.92 66.48 59.96 63.18"/><polygon class="cls-1" points="58.82 66.09 58.41 62.82 57.76 62.71 58.18 65.98 58.82 66.09"/><polygon class="cls-1" points="57.82 66.53 57.79 66.46 58.05 66.02 57.63 65.56 56.53 62.75 55.88 62.8 56.7 64.88 56.67 64.92 56.65 64.93 54.08 63.15 53.57 63.55 55.8 65.1 53.56 65.55 53.5 66.19 56.12 65.67 54.95 67.23 55.34 67.76 56.97 65.56 57.09 65.87 57.32 65.85 57.38 65.94 55.92 68.38 56.36 68.86 57.78 66.48 57.82 66.53"/><polygon class="cls-1" points="58.43 66.44 56.88 69.37 57.34 69.82 58.89 66.9 58.43 66.44"/><polygon class="cls-1" points="59.28 67.31 57.83 70.27 58.31 70.72 59.75 67.75 59.28 67.31"/><polygon class="cls-1" points="60.19 68.15 58.82 71.16 59.31 71.59 60.67 68.58 60.19 68.15"/><polygon class="cls-1" points="61.11 68.97 59.81 72.01 60.31 72.43 61.61 69.38 61.11 68.97"/><polygon class="cls-1" points="62.06 69.77 60.82 72.83 61.32 73.25 62.57 70.18 62.06 69.77"/><polygon class="cls-1" points="63.01 70.54 61.82 73.63 62.33 74.03 63.52 70.94 63.01 70.54"/><polygon class="cls-1" points="64 71.32 62.85 74.42 63.37 74.81 64.51 71.71 64 71.32"/><polygon class="cls-1" points="64.98 72.07 63.88 75.18 64.4 75.57 65.5 72.45 64.98 72.07"/><polygon class="cls-1" points="65.98 72.81 64.93 75.94 65.46 76.32 66.51 73.19 65.98 72.81"/><polygon class="cls-1" points="66.99 73.53 65.98 76.67 66.51 77.04 67.52 73.9 66.99 73.53"/><polygon class="cls-1" points="68.01 74.24 67.04 77.4 67.58 77.76 68.54 74.6 68.01 74.24"/><polygon class="cls-1" points="69.03 74.94 68.11 78.1 68.65 78.46 69.58 75.29 69.03 74.94"/><polygon class="cls-1" points="70.07 75.61 69.17 78.79 69.71 79.14 70.62 75.96 70.07 75.61"/><polygon class="cls-1" points="71.12 76.28 70.22 79.46 70.77 79.81 71.66 76.63 71.12 76.28"/><path class="cls-5" d="M77,59.54c1.13,1.81,1.92,3.66,3.88,4.42,3.8,1.47,8.52-8.19-8.31-15-6.29-2.55-14,1.56-12.63,6.29S67.35,58.41,70,57.58,75.89,57.73,77,59.54Z"/><circle class="cls-6" cx="67.52" cy="61.48" r="2.13" transform="translate(-23.26 51.57) rotate(-36.09)"/><circle class="cls-7" cx="63.72" cy="53.97" r="2.13" transform="translate(-19.56 47.89) rotate(-36.09)"/><circle class="cls-8" cx="108.42" cy="83.51" r="2.13" transform="translate(-28.39 79.89) rotate(-36.09)"/><circle class="cls-8" cx="56.44" cy="52.21" r="1.52" transform="translate(-19.92 43.26) rotate(-36.09)"/><ellipse class="cls-6" cx="43.99" cy="60.35" rx="2.91" ry="2.73" transform="translate(-27.11 37.49) rotate(-36.09)"/><ellipse class="cls-6" cx="39.39" cy="53.37" rx="2.61" ry="2.44" transform="translate(-23.88 33.45) rotate(-36.09)"/><circle class="cls-5" cx="51.69" cy="51.41" r="1.52" transform="translate(-20.36 40.31) rotate(-36.09)"/><ellipse class="cls-8" cx="58.54" cy="45.15" rx="3.94" ry="4.53" transform="translate(-15.36 43.15) rotate(-36.09)"/><ellipse class="cls-6" cx="53.53" cy="41.4" rx="3.34" ry="3.82" transform="translate(-14.12 39.48) rotate(-36.09)"/><ellipse class="cls-5" cx="53.64" cy="40.18" rx="1.29" ry="1.48" transform="translate(-13.37 39.31) rotate(-36.09)"/><ellipse class="cls-8" cx="47.71" cy="47.31" rx="1.54" ry="2.26" transform="translate(-18.71 37.18) rotate(-36.09)"/><ellipse class="cls-6" cx="24.98" cy="37.76" rx="2.43" ry="3.28" transform="translate(-18.83 49.21) rotate(-71.16)"/><ellipse class="cls-6" cx="48.59" cy="66.41" rx="1.54" ry="2.26" transform="translate(-33.24 75.1) rotate(-59.87)"/><circle class="cls-6" cx="109.57" cy="90.02" r="2.44" transform="translate(-32 81.82) rotate(-36.09)"/><circle class="cls-5" cx="105.31" cy="91.53" r="3.01" transform="translate(-33.71 79.6) rotate(-36.09)"/><circle class="cls-5" cx="88.67" cy="63" r="1.55" transform="translate(-20.09 64.32) rotate(-36.09)"/><circle class="cls-5" cx="49.34" cy="60.84" r="1.23" transform="translate(-26.37 40.74) rotate(-36.09)"/><circle class="cls-5" cx="37.22" cy="57.66" r="1.23" transform="translate(-26.82 32.99) rotate(-36.09)"/><circle class="cls-5" cx="26.36" cy="46.43" r="1.23" transform="translate(-22.29 24.43) rotate(-36.09)"/><circle class="cls-5" cx="66.45" cy="40.56" r="1.23" transform="translate(-11.14 46.92) rotate(-36.09)"/><circle class="cls-5" cx="100.65" cy="85.73" r="1.23" transform="translate(-31.18 75.74) rotate(-36.09)"/><ellipse class="cls-5" cx="73.61" cy="62.73" rx="1.6" ry="2.39" transform="translate(-23.1 63.34) rotate(-40.8)"/><ellipse class="cls-5" cx="35.85" cy="41.52" rx="2.12" ry="2.36" transform="translate(-17.58 29.09) rotate(-36.09)"/><path class="cls-5" d="M25.48,42.31s6.72-2.24,7-.5S25.48,42.31,25.48,42.31Z"/><path class="cls-5" d="M29.88,49.44s2.66-6.07,4-5.17S29.88,49.44,29.88,49.44Z"/><path class="cls-5" d="M36.52,53.28s-2-7.74-.17-7.82S36.52,53.28,36.52,53.28Z"/><path class="cls-5" d="M44.83,48.88s-7.35-3.18-6.26-4.68S44.83,48.88,44.83,48.88Z"/><path class="cls-5" d="M47.32,41.42s-8.07,2.35-8.23.37S47.32,41.42,47.32,41.42Z"/><path class="cls-5" d="M43.88,33.67s-3.94,7.42-5.48,6.16S43.88,33.67,43.88,33.67Z"/><path class="cls-5" d="M35.92,30.51s2.2,8.11.21,8.24S35.92,30.51,35.92,30.51Z"/><path class="cls-5" d="M26.79,34.05s7.69,3.38,6.55,5S26.79,34.05,26.79,34.05Z"/><ellipse class="cls-5" cx="93.92" cy="76.52" rx="2.12" ry="2.36" transform="translate(-27.05 70.01) rotate(-36.09)"/><path class="cls-5" d="M83.55,77.31s6.72-2.24,7-.5S83.55,77.31,83.55,77.31Z"/><path class="cls-5" d="M88,84.43s2.66-6.07,4-5.17S88,84.43,88,84.43Z"/><path class="cls-5" d="M94.59,88.28s-2-7.74-.17-7.82S94.59,88.28,94.59,88.28Z"/><path class="cls-5" d="M102.9,83.88s-7.35-3.18-6.26-4.68S102.9,83.88,102.9,83.88Z"/><path class="cls-5" d="M105.39,76.42s-8.07,2.35-8.23.37S105.39,76.42,105.39,76.42Z"/><path class="cls-5" d="M101.95,68.67S98,76.09,96.47,74.83,101.95,68.67,101.95,68.67Z"/><path class="cls-5" d="M94,65.51s2.2,8.11.21,8.24S94,65.51,94,65.51Z"/><path class="cls-5" d="M84.86,69.05s7.69,3.38,6.55,5S84.86,69.05,84.86,69.05Z"/><path class="cls-8" d="M30.32,58.07a2.19,2.19,0,0,0,1.3-2,1.12,1.12,0,0,1,2-.83,2.21,2.21,0,0,1-.24,2.64,2.24,2.24,0,0,0-.79,1.89c0,.71,0,1.06,0,1.06"/><circle class="cls-5" cx="32.65" cy="56.28" r="0.77" transform="translate(-26.89 30.03) rotate(-36.09)"/></svg>