<svg id="Microorganisms&#x5FAE;&#x751F;&#x7269;" xmlns="http://www.w3.org/2000/svg" viewbox="0 0 128 128" width="128" height="128"><defs><style>.cls-1{fill:#86c87d;stroke:#009370;stroke-linecap:round;stroke-linejoin:round;stroke-width:1.09px;}.cls-2{fill:#006837;stroke:none;}.cls-3{fill:#2e3192;stroke:none;}.cls-4{fill:#0071bc;stroke:none;}.cls-5{fill:#009245;stroke:none;}</style></defs><title>Microorganisms&#x5FAE;&#x751F;&#x7269;</title><polygon class="cls-1" points="95.43 27.27 65.31 9.89 35.2 27.27 35.2 62.04 53.27 72.47 53.27 112.32 77.36 112.32 77.36 72.47 95.43 62.04 95.43 27.27"/><path class="cls-2" d="M75.41,55.53c-.22-1.32-2.27-2.66-6.07-4C68,51,64.51,49.77,63.12,49.23c-2.08-.8-4.13-2.1-4.39-2.78-.42-1.06-1.16-.85-1.3-.79-1.06.4-.77,2.66-.39,3.73.43,1.22,2,2.35,4.84,3.46.65.25,1.54.56,2.56.92,1.46.51,3.12,1.1,4.67,1.71.48.19,1,.36,1.43.52A7.06,7.06,0,0,1,73,57.1c.28.43.83,1.27,1.54,1.27a1,1,0,0,0,.36-.07C75.73,58,75.6,56.69,75.41,55.53Z"/><path class="cls-2" d="M76.83,36.41c-.08-.49-.31-2-6.08-4-1.39-.49-4.82-1.75-6.22-2.3-2-.76-4.12-2.09-4.39-2.77-.4-1.07-1.15-.85-1.29-.8-1.07.4-.78,2.66-.4,3.74.44,1.22,2.07,2.38,4.83,3.43.66.26,1.58.58,2.61.94,1.45.51,3.09,1.09,4.63,1.7.49.19,1,.36,1.44.52a7,7,0,0,1,2.4,1.1h0c.29.43.84,1.27,1.55,1.27a1,1,0,0,0,.35-.07C77.15,38.82,77,37.61,76.83,36.41Z"/><path class="cls-3" d="M75.85,49.61c-.08-.49-.33-2-6.08-4-1.38-.48-4.78-1.74-6.22-2.3-2-.77-4.11-2.08-4.38-2.78-.43-1.05-1.17-.83-1.31-.78-1.06.41-.77,2.67-.39,3.72.43,1.24,2,2.37,4.84,3.44.66.26,1.57.58,2.6.94,1.45.51,3.09,1.09,4.64,1.71.47.18.94.34,1.39.5a7.33,7.33,0,0,1,2.45,1.13c.26.4.83,1.27,1.56,1.27a1,1,0,0,0,.35-.07C76.18,52,76,50.76,75.85,49.61Z"/><path class="cls-4" d="M75.48,49.35c-.86-.45-1.68.59-2.07,1.09h0a7.54,7.54,0,0,1-2.58,1.07c-.5.16-1,.32-1.57.5-1.58.54-3.27,1.06-4.76,1.52-1.15.35-2.17.67-2.91.92-3,1-4.67,2.08-5.25,3.27s-1.06,3.26,0,3.76a.91.91,0,0,0,.39.09c.29,0,.68-.14,1-.77.4-.78,2.88-2.06,4.85-2.73l2.11-.69c1.6-.53,3.51-1.15,4.49-1.46,4-1.23,6-2.48,6.58-3.78C76.2,51.09,76.33,49.79,75.48,49.35Z"/><path class="cls-3" d="M77.28,30.47c-.23-1.31-2.28-2.66-6.09-4-1.33-.47-4.45-1.64-5.95-2.2l-.25-.1c-2-.78-4.13-2.1-4.39-2.78-.41-1.06-1.15-.85-1.3-.79-1.07.39-.79,2.62-.41,3.74s2,2.32,4.83,3.43c.69.27,1.65.61,2.73,1,1.41.5,3,1.06,4.51,1.64.5.2,1,.37,1.47.54A6.88,6.88,0,0,1,74.82,32c.28.43.83,1.27,1.54,1.27a1,1,0,0,0,.36-.07C77.6,32.9,77.47,31.64,77.28,30.47Z"/><path class="cls-4" d="M76.91,30.22c-.86-.44-1.67.58-2.07,1.08h0a7.56,7.56,0,0,1-2.58,1.08c-.51.16-1,.32-1.58.51-1.57.53-3.24,1-4.7,1.5-1.18.36-2.22.69-3,.94-3,1-4.7,2.08-5.27,3.27s-1.05,3.25,0,3.76a.91.91,0,0,0,.4.09c.29,0,.68-.14,1-.77C59.51,40.91,62,39.63,64,39c1.46-.48,5.09-1.68,6.6-2.14,4-1.24,6.25-2.56,6.68-3.82S77.74,30.65,76.91,30.22Z"/><path class="cls-5" d="M75,55.29c-.86-.44-1.67.59-2.07,1.09a7.65,7.65,0,0,1-2.56,1.06c-.51.16-1.05.32-1.59.51-1.63.57-3.37,1.1-4.9,1.58-1.09.34-2.06.64-2.76.88-2.91,1-4.69,2.07-5.28,3.27-.46,1-1.09,3.23,0,3.76a.91.91,0,0,0,.39.09c.29,0,.68-.14,1-.77s2.62-2,4.84-2.71l.87-.29c1.72-.57,4.48-1.48,5.73-1.87,4-1.23,6-2.39,6.58-3.78C75.77,57,75.88,55.72,75,55.29Z"/><path class="cls-5" d="M76.47,36.16c-.85-.44-1.67.57-2.06,1.07a7.75,7.75,0,0,1-2.61,1.09c-.5.16-1,.32-1.56.5-1.49.51-3.09,1-4.5,1.44-1.26.39-2.38.74-3.16,1-3,1-4.69,2.06-5.26,3.26s-1.06,3.26,0,3.76a.9.9,0,0,0,.39.09c.29,0,.68-.14,1-.77.4-.78,2.88-2.06,4.85-2.73l2.14-.7c1.6-.52,3.48-1.14,4.46-1.45,4-1.24,6-2.37,6.58-3.78C77.18,37.84,77.31,36.59,76.47,36.16Z"/></svg>