<svg id="Microorganisms&#x5FAE;&#x751F;&#x7269;" xmlns="http://www.w3.org/2000/svg" viewbox="0 0 128 128" width="128" height="128"><defs><style>.cls-1{fill:#ffff32;stroke:none;}.cls-1,.cls-10,.cls-2,.cls-3,.cls-4,.cls-5,.cls-6,.cls-7,.cls-8,.cls-9{stroke:#ec1654;stroke-linecap:round;stroke-linejoin:round;}.cls-2{fill:#ee3430;stroke:none;}.cls-3{fill:#ffde32;stroke:none;}.cls-4{fill:#ff0;stroke:none;}.cls-5{fill:#ffa100;stroke:none;}.cls-6{fill:#f5e634;stroke:none;}.cls-7{fill:#ffff80;stroke:none;}.cls-8{fill:#f89d4d;stroke:none;}.cls-9{fill:#f2662c;stroke:none;}.cls-10{fill:#ffd100;stroke:none;}</style></defs><title>Microorganisms&#x5FAE;&#x751F;&#x7269;</title><polygon class="cls-1" points="21.86 37.63 21.86 88.27 65.71 113.59 109.56 88.27 109.56 37.63 65.71 12.32 21.86 37.63"/><polygon class="cls-2" points="45.53 79.01 21.86 88.27 65.71 113.59 109.56 88.27 85.89 79.01 45.53 79.01"/><polygon class="cls-3" points="21.86 37.63 21.86 38.45 109.56 38.45 109.56 37.63 65.71 12.32 21.86 37.63"/><polygon class="cls-4" points="109.56 38.45 109.56 37.63 65.71 12.32 65.71 38.45 109.56 38.45"/><polygon class="cls-5" points="109.56 38.45 65.71 113.59 21.86 38.45 109.56 38.45"/><polygon class="cls-6" points="85.89 79.01 65.71 38.45 45.53 79.01 85.89 79.01"/><polygon class="cls-7" points="85.89 79.01 85.89 79.01 109.56 38.45 65.71 38.45 85.89 79.01"/><polygon class="cls-8" points="45.53 79.01 45.53 79.01 65.71 38.45 21.86 38.45 45.53 79.01"/><polygon class="cls-9" points="21.86 88.27 45.53 79.01 21.86 38.45 21.86 88.27"/><polygon class="cls-10" points="65.71 113.59 85.89 79.01 109.56 88.27 65.71 113.59"/></svg>