<svg id="Microorganisms&#x5FAE;&#x751F;&#x7269;" xmlns="http://www.w3.org/2000/svg" viewbox="0 0 128 128" width="128" height="128"><defs><style>.cls-1{fill:#71d0f6;stroke:none;}.cls-2{fill:#00c1f2;stroke:none;}.cls-3{fill:#00a1e4;stroke:none;}.cls-4{fill:#4ec9f4;stroke:none;}.cls-10,.cls-5,.cls-6{fill:none;stroke:none;}.cls-5,.cls-6{stroke:#0075bf;stroke-miterlimit:10;}.cls-5{stroke-width:1.09px;stroke-dasharray:8.61 8.61;}.cls-6{stroke-width:1.24px;stroke-dasharray:9.55 9.55;}.cls-7{fill:#e28ebc;stroke:none;}.cls-8{fill:#5570a3;stroke:none;}.cls-9{fill:#eff9a1;stroke:none;}.cls-10{stroke:#fbd08d;stroke-linecap:round;stroke-linejoin:round;stroke-width:2.21px;}</style></defs><title>Microorganisms&#x5FAE;&#x751F;&#x7269;</title><path class="cls-1" d="M70.91,11.19c0,1.67-3.13,3.12-7,3.12s-7-1.45-7-3.12,3.13-1,7-1S70.91,9.51,70.91,11.19Z"/><rect class="cls-1" x="63.1" y="12.71" width="1.63" height="8.76" rx="0.43" ry="0.43"/><path class="cls-1" d="M70.91,113.45c0-1.67-3.13-3.12-7-3.12s-7,1.45-7,3.12,3.13,1,7,1S70.91,115.12,70.91,113.45Z"/><rect class="cls-1" x="63.1" y="103.17" width="1.63" height="8.76" rx="0.43" ry="0.43"/><path class="cls-1" d="M53,11.88c.57,1.57-1.88,4-5.51,5.33s-7.07,1-7.64-.54,2.61-2,6.24-3.3S52.43,10.31,53,11.88Z"/><rect class="cls-1" x="47.63" y="15.44" width="1.63" height="8.76" rx="0.43" ry="0.43" transform="translate(-3.86 17.77) rotate(-20)"/><path class="cls-1" d="M88,108c-.57-1.57-4-1.86-7.64-.54s-6.08,3.76-5.51,5.33,3.28-.16,6.91-1.48S88.55,109.55,88,108Z"/><rect class="cls-1" x="78.57" y="100.44" width="1.63" height="8.76" rx="0.43" ry="0.43" transform="translate(-31.06 33.47) rotate(-20)"/><path class="cls-1" d="M36.41,18.65c1.08,1.28-.39,4.41-3.35,6.89s-6.29,3.39-7.37,2.1,1.78-2.76,4.74-5.24S35.34,17.37,36.41,18.65Z"/><rect class="cls-1" x="34.03" y="23.29" width="1.63" height="8.76" rx="0.43" ry="0.43" transform="translate(-9.63 28.87) rotate(-40)"/><path class="cls-1" d="M102.14,97c-1.08-1.28-4.41-.38-7.37,2.1s-4.43,5.61-3.35,6.89,3-1.27,6-3.75S103.22,98.27,102.14,97Z"/><rect class="cls-1" x="92.18" y="92.59" width="1.63" height="8.76" rx="0.43" ry="0.43" transform="matrix(0.77, -0.64, 0.64, 0.77, -40.57, 82.46)"/><path class="cls-1" d="M23.14,30.69c1.45.84,1.14,4.27-.79,7.62s-4.75,5.33-6.2,4.5.73-3.2,2.66-6.54S21.69,29.86,23.14,30.69Z"/><rect class="cls-1" x="23.93" y="35.32" width="1.63" height="8.76" rx="0.43" ry="0.43" transform="translate(-22.01 41.28) rotate(-60)"/><path class="cls-1" d="M111.7,81.82c-1.45-.84-4.27,1.15-6.2,4.5s-2.24,6.78-.79,7.62,2.41-2.23,4.34-5.57S113.15,82.66,111.7,81.82Z"/><rect class="cls-1" x="102.28" y="80.55" width="1.63" height="8.76" rx="0.43" ry="0.43" transform="translate(-22.01 131.74) rotate(-60)"/><path class="cls-1" d="M14.78,46.55c1.65.29,2.53,3.63,1.86,7.43S14,60.62,12.35,60.33s-.41-3.25.26-7.06S13.13,46.26,14.78,46.55Z"/><rect class="cls-1" x="18.56" y="50.08" width="1.63" height="8.76" rx="0.43" ry="0.43" transform="translate(-37.63 64.09) rotate(-80)"/><path class="cls-1" d="M115.49,64.31c-1.65-.29-3.62,2.54-4.29,6.35s.21,7.14,1.86,7.43,1.5-2.92,2.17-6.72S117.13,64.6,115.49,64.31Z"/><rect class="cls-1" x="107.65" y="65.79" width="1.63" height="8.76" rx="0.43" ry="0.43" transform="translate(20.52 164.8) rotate(-80)"/><path class="cls-1" d="M12.35,64.31C14,64,16,66.85,16.64,70.65s-.21,7.14-1.86,7.43-1.5-2.92-2.17-6.72S10.7,64.6,12.35,64.31Z"/><rect class="cls-1" x="18.56" y="65.79" width="1.63" height="8.76" rx="0.43" ry="0.43" transform="translate(-46.37 101.44) rotate(-100)"/><path class="cls-1" d="M113.06,46.55c-1.65.29-2.53,3.63-1.86,7.43s2.64,6.64,4.29,6.35.41-3.25-.26-7.06S114.71,46.26,113.06,46.55Z"/><rect class="cls-1" x="107.65" y="50.08" width="1.63" height="8.76" rx="0.43" ry="0.43" transform="matrix(-0.17, -0.98, 0.98, -0.17, 73.66, 170.74)"/><path class="cls-1" d="M16.14,81.82c1.45-.84,4.27,1.15,6.2,4.5s2.24,6.78.79,7.62-2.41-2.23-4.34-5.57S14.69,82.66,16.14,81.82Z"/><rect class="cls-1" x="23.93" y="80.55" width="1.63" height="8.76" rx="0.43" ry="0.43" transform="translate(-36.43 148.83) rotate(-120)"/><path class="cls-1" d="M104.7,30.69c-1.45.84-1.14,4.27.79,7.62s4.75,5.33,6.2,4.5-.73-3.2-2.66-6.54S106.15,29.86,104.7,30.69Z"/><rect class="cls-1" x="102.28" y="35.32" width="1.63" height="8.76" rx="0.43" ry="0.43" transform="translate(120.25 148.83) rotate(-120)"/><path class="cls-1" d="M25.69,97c1.08-1.28,4.41-.38,7.37,2.1s4.43,5.61,3.35,6.89-3-1.27-6-3.75S24.62,98.27,25.69,97Z"/><rect class="cls-1" x="34.03" y="92.59" width="1.63" height="8.76" rx="0.43" ry="0.43" transform="translate(-0.79 193.65) rotate(-140)"/><path class="cls-1" d="M91.43,18.65c-1.08,1.28.39,4.41,3.35,6.89s6.29,3.39,7.37,2.1-1.78-2.76-4.74-5.24S92.5,17.37,91.43,18.65Z"/><rect class="cls-1" x="92.18" y="23.29" width="1.63" height="8.76" rx="0.43" ry="0.43" transform="translate(146.44 108.64) rotate(-140)"/><path class="cls-1" d="M39.86,108c.57-1.57,4-1.86,7.64-.54s6.08,3.76,5.51,5.33-3.28-.16-6.91-1.48S39.28,109.55,39.86,108Z"/><rect class="cls-1" x="47.63" y="100.44" width="1.63" height="8.76" rx="0.43" ry="0.43" transform="matrix(-0.94, -0.34, 0.34, -0.94, 58.12, 219.89)"/><path class="cls-1" d="M74.83,11.88c-.57,1.57,1.88,4,5.51,5.33s7.07,1,7.64-.54-2.61-2-6.24-3.3S75.4,10.31,74.83,11.88Z"/><rect class="cls-1" x="78.57" y="15.44" width="1.63" height="8.76" rx="0.43" ry="0.43" transform="translate(147.21 65.59) rotate(-160)"/><circle class="cls-2" cx="63.92" cy="62.32" r="44.22"/><circle class="cls-3" cx="63.92" cy="62.32" r="36.4"/><circle class="cls-4" cx="63.92" cy="62.32" r="29.01"/><circle class="cls-5" cx="63.92" cy="62.32" r="43.86"/><circle class="cls-6" cx="63.92" cy="62.32" r="36.47"/><path class="cls-7" d="M55.26,49.21a1.56,1.56,0,0,1-1.67-1.46,1.58,1.58,0,0,1,1.48-1.65,1.52,1.52,0,0,1,1.62,1.46A1.5,1.5,0,0,1,55.26,49.21Z"/><path class="cls-7" d="M58.08,49.19a1.55,1.55,0,0,1-1.51-1.62,1.58,1.58,0,0,1,1.64-1.49,1.52,1.52,0,0,1,1.46,1.61A1.5,1.5,0,0,1,58.08,49.19Z"/><path class="cls-7" d="M60.91,49.4a1.56,1.56,0,0,1-1.41-1.71,1.58,1.58,0,0,1,1.73-1.38A1.52,1.52,0,0,1,62.59,48,1.5,1.5,0,0,1,60.91,49.4Z"/><path class="cls-7" d="M63.76,49.77A1.55,1.55,0,0,1,62.43,48a1.58,1.58,0,0,1,1.79-1.3,1.52,1.52,0,0,1,1.28,1.76A1.5,1.5,0,0,1,63.76,49.77Z"/><path class="cls-7" d="M66.6,50.25a1.56,1.56,0,0,1-1.27-1.82,1.58,1.58,0,0,1,1.84-1.24A1.52,1.52,0,0,1,68.39,49,1.5,1.5,0,0,1,66.6,50.25Z"/><path class="cls-7" d="M69.4,50.81A1.55,1.55,0,0,1,68.18,49,1.58,1.58,0,0,1,70,47.78a1.51,1.51,0,0,1,1.17,1.83A1.5,1.5,0,0,1,69.4,50.81Z"/><path class="cls-7" d="M72.21,51.44A1.55,1.55,0,0,1,71,49.57a1.58,1.58,0,0,1,1.89-1.16,1.52,1.52,0,0,1,1.14,1.85A1.5,1.5,0,0,1,72.21,51.44Z"/><path class="cls-7" d="M75.05,52.1a1.55,1.55,0,0,1-1.17-1.88,1.58,1.58,0,0,1,1.9-1.14,1.52,1.52,0,0,1,1.13,1.86A1.5,1.5,0,0,1,75.05,52.1Z"/><path class="cls-7" d="M77.88,52.78A1.55,1.55,0,0,1,76.7,50.9a1.58,1.58,0,0,1,1.9-1.14,1.52,1.52,0,0,1,1.13,1.86A1.5,1.5,0,0,1,77.88,52.78Z"/><path class="cls-7" d="M80.62,53.45a1.56,1.56,0,0,1-1.06-1.95,1.58,1.58,0,0,1,2-1,1.52,1.52,0,0,1,1,1.93A1.5,1.5,0,0,1,80.62,53.45Z"/><path class="cls-7" d="M83.09,54.55a1.56,1.56,0,0,1-.57-2.15,1.58,1.58,0,0,1,2.16-.53A1.52,1.52,0,0,1,85.21,54,1.5,1.5,0,0,1,83.09,54.55Z"/><path class="cls-7" d="M85.23,56.2a1.55,1.55,0,0,1,0-2.22,1.58,1.58,0,0,1,2.22,0,1.52,1.52,0,0,1,0,2.18A1.5,1.5,0,0,1,85.23,56.2Z"/><path class="cls-7" d="M86.88,58.3a1.55,1.55,0,0,1,.54-2.14,1.58,1.58,0,0,1,2.14.58,1.52,1.52,0,0,1-.57,2.1A1.5,1.5,0,0,1,86.88,58.3Z"/><path class="cls-7" d="M87.72,60.71A1.55,1.55,0,0,1,89,58.88a1.58,1.58,0,0,1,1.81,1.28,1.52,1.52,0,0,1-1.26,1.78A1.5,1.5,0,0,1,87.72,60.71Z"/><path class="cls-7" d="M87.94,63.49a1.55,1.55,0,0,1,1.54-1.59A1.58,1.58,0,0,1,91,63.47,1.52,1.52,0,0,1,89.5,65,1.5,1.5,0,0,1,87.94,63.49Z"/><path class="cls-7" d="M87.72,66.15a1.56,1.56,0,0,1,1.79-1.31,1.58,1.58,0,0,1,1.28,1.81A1.52,1.52,0,0,1,89,67.91,1.5,1.5,0,0,1,87.72,66.15Z"/><path class="cls-7" d="M86.41,68.23a1.56,1.56,0,0,1,2.22-.08,1.58,1.58,0,0,1,0,2.22,1.52,1.52,0,0,1-2.18,0A1.5,1.5,0,0,1,86.41,68.23Z"/><path class="cls-7" d="M84.33,70a1.55,1.55,0,0,1,2.2.3,1.58,1.58,0,0,1-.33,2.19A1.52,1.52,0,0,1,84,72.2,1.5,1.5,0,0,1,84.33,70Z"/><path class="cls-7" d="M82,71.62a1.55,1.55,0,0,1,2.16.51,1.58,1.58,0,0,1-.54,2.15,1.52,1.52,0,0,1-2.11-.53A1.5,1.5,0,0,1,82,71.62Z"/><path class="cls-7" d="M79.5,73a1.56,1.56,0,0,1,2.11.69,1.58,1.58,0,0,1-.72,2.1,1.52,1.52,0,0,1-2.06-.71A1.5,1.5,0,0,1,79.5,73Z"/><path class="cls-7" d="M76.91,74.13a1.55,1.55,0,0,1,2,.87,1.58,1.58,0,0,1-.9,2,1.52,1.52,0,0,1-2-.88A1.5,1.5,0,0,1,76.91,74.13Z"/><path class="cls-7" d="M74.23,75a1.56,1.56,0,0,1,1.93,1.1A1.58,1.58,0,0,1,75,78a1.52,1.52,0,0,1-1.88-1.11A1.5,1.5,0,0,1,74.23,75Z"/><path class="cls-7" d="M71.49,75.54a1.55,1.55,0,0,1,1.79,1.31,1.58,1.58,0,0,1-1.34,1.76,1.51,1.51,0,0,1-1.74-1.31A1.5,1.5,0,0,1,71.49,75.54Z"/><path class="cls-7" d="M68.66,75.86a1.55,1.55,0,0,1,1.72,1.4A1.58,1.58,0,0,1,68.94,79a1.52,1.52,0,0,1-1.66-1.4A1.5,1.5,0,0,1,68.66,75.86Z"/><path class="cls-7" d="M65.78,76.08a1.56,1.56,0,0,1,1.67,1.46A1.58,1.58,0,0,1,66,79.19a1.52,1.52,0,0,1-1.62-1.46A1.5,1.5,0,0,1,65.78,76.08Z"/><path class="cls-7" d="M62.93,76.19a1.55,1.55,0,0,1,1.61,1.52A1.58,1.58,0,0,1,63,79.3a1.52,1.52,0,0,1-1.56-1.51A1.5,1.5,0,0,1,62.93,76.19Z"/><path class="cls-7" d="M60,76.21a1.55,1.55,0,0,1,1.56,1.57A1.58,1.58,0,0,1,60,79.31a1.52,1.52,0,0,1-1.51-1.57A1.5,1.5,0,0,1,60,76.21Z"/><path class="cls-7" d="M57.19,76.12a1.55,1.55,0,0,1,1.5,1.63A1.58,1.58,0,0,1,57,79.23a1.52,1.52,0,0,1-1.45-1.63A1.5,1.5,0,0,1,57.19,76.12Z"/><path class="cls-7" d="M54.33,75.92a1.55,1.55,0,0,1,1.42,1.7A1.58,1.58,0,0,1,54,79a1.52,1.52,0,0,1-1.37-1.69A1.5,1.5,0,0,1,54.33,75.92Z"/><path class="cls-7" d="M51.5,75.58a1.55,1.55,0,0,1,1.33,1.77A1.58,1.58,0,0,1,51,78.65a1.52,1.52,0,0,1-1.28-1.76A1.5,1.5,0,0,1,51.5,75.58Z"/><path class="cls-7" d="M48.71,75a1.55,1.55,0,0,1,1.18,1.87A1.58,1.58,0,0,1,48,78.07a1.52,1.52,0,0,1-1.13-1.86A1.5,1.5,0,0,1,48.71,75Z"/><path class="cls-7" d="M46,74.25a1.55,1.55,0,0,1,.91,2,1.58,1.58,0,0,1-2,.87,1.52,1.52,0,0,1-.86-2A1.5,1.5,0,0,1,46,74.25Z"/><path class="cls-7" d="M43.77,72.92a1.55,1.55,0,0,1,.21,2.2,1.58,1.58,0,0,1-2.21.18,1.52,1.52,0,0,1-.18-2.17A1.5,1.5,0,0,1,43.77,72.92Z"/><path class="cls-7" d="M42,70.92a1.56,1.56,0,0,1-.47,2.17,1.58,1.58,0,0,1-2.16-.51,1.52,1.52,0,0,1,.5-2.12A1.5,1.5,0,0,1,42,70.92Z"/><path class="cls-7" d="M40.9,68.48a1.56,1.56,0,0,1-1,2,1.58,1.58,0,0,1-2-1,1.52,1.52,0,0,1,1-1.94A1.5,1.5,0,0,1,40.9,68.48Z"/><path class="cls-7" d="M40.28,65.82A1.55,1.55,0,0,1,39,67.61a1.58,1.58,0,0,1-1.77-1.33,1.52,1.52,0,0,1,1.3-1.74A1.5,1.5,0,0,1,40.28,65.82Z"/><path class="cls-7" d="M40.06,63a1.55,1.55,0,0,1-1.53,1.6A1.58,1.58,0,0,1,37,63.08a1.52,1.52,0,0,1,1.53-1.55A1.5,1.5,0,0,1,40.06,63Z"/><path class="cls-7" d="M40.19,60.23a1.56,1.56,0,0,1-1.71,1.41,1.58,1.58,0,0,1-1.38-1.73,1.52,1.52,0,0,1,1.7-1.36A1.5,1.5,0,0,1,40.19,60.23Z"/><path class="cls-7" d="M40.67,57.53a1.55,1.55,0,0,1-1.94,1.07,1.58,1.58,0,0,1-1-2,1.52,1.52,0,0,1,1.92-1A1.5,1.5,0,0,1,40.67,57.53Z"/><path class="cls-7" d="M41.84,55.21a1.55,1.55,0,0,1-2.19.33,1.58,1.58,0,0,1-.3-2.2,1.52,1.52,0,0,1,2.16-.3A1.5,1.5,0,0,1,41.84,55.21Z"/><path class="cls-7" d="M43.74,53.3a1.55,1.55,0,0,1-2.2-.23,1.58,1.58,0,0,1,.27-2.2,1.52,1.52,0,0,1,2.16.26A1.5,1.5,0,0,1,43.74,53.3Z"/><path class="cls-7" d="M46,51.81a1.55,1.55,0,0,1-2.13-.62,1.58,1.58,0,0,1,.66-2.12,1.52,1.52,0,0,1,2.08.64A1.5,1.5,0,0,1,46,51.81Z"/><path class="cls-7" d="M48.6,50.67a1.55,1.55,0,0,1-2-.91,1.58,1.58,0,0,1,.94-2,1.52,1.52,0,0,1,2,.92A1.5,1.5,0,0,1,48.6,50.67Z"/><path class="cls-7" d="M51.36,49.67a1.55,1.55,0,0,1-2-.91,1.58,1.58,0,0,1,.94-2,1.52,1.52,0,0,1,2,.92A1.5,1.5,0,0,1,51.36,49.67Z"/><path class="cls-7" d="M53.39,49.34a1.55,1.55,0,0,1-2-.91,1.58,1.58,0,0,1,.94-2,1.52,1.52,0,0,1,2,.92A1.5,1.5,0,0,1,53.39,49.34Z"/><circle class="cls-8" cx="61.84" cy="54.28" r="2.62"/><circle class="cls-8" cx="70.96" cy="71.79" r="2.62"/><circle class="cls-9" cx="72.09" cy="63.67" r="2.62"/><circle class="cls-9" cx="59.14" cy="61.32" r="2.62"/><path class="cls-10" d="M50.71,67.05s-2-9.29.8-9.52,2.07,11,9.18,10.44,2-8.95,2-8.95"/><path class="cls-10" d="M80.15,58.46s2,9.29-.8,9.52-2.07-11-9.18-10.44-2,8.95-2,8.95"/></svg>