<svg id="BioArt&#x751F;&#x7269;&#x827A;&#x672F;" xmlns="http://www.w3.org/2000/svg" viewbox="0 0 128 128" width="128" height="128"><defs><style>.cls-1{fill:none;stroke:#000;stroke-linecap:round;stroke-linejoin:round;stroke-width:0.98px;}</style></defs><title>BioArt&#x751F;&#x7269;&#x827A;&#x672F;</title><path class="cls-1" d="M103.85,44.65c-.22-3.1-3.89-5.38-8.21-5.08v0l-9.31.65.79,11.25,8.78-.61.54,0C100.74,50.51,104.06,47.75,103.85,44.65Z"/><path class="cls-1" d="M81,48.08c1.16,2.89-1.16,6.53-5.18,8.14v0L67.11,59.7,62.93,49.24,71.1,46l.49-.21C75.61,44.15,79.8,45.19,81,48.08Z"/><path class="cls-1" d="M62.72,58.17c1.16,2.89-1.16,6.53-5.18,8.14v0l-8.67,3.46L44.69,59.32l8.17-3.27.49-.21C57.37,54.24,61.56,55.28,62.72,58.17Z"/><path class="cls-1" d="M125.24,52.88c1.48-2.74-.41-6.62-4.22-8.68v0l-8.21-4.43-5.36,9.92,7.74,4.18.47.27C119.48,56.17,123.76,55.62,125.24,52.88Z"/><line class="cls-1" x1="62.27" y1="57.34" x2="65.27" y2="55.09"/><line class="cls-1" x1="80.7" y1="47.56" x2="86.7" y2="45.5"/><line class="cls-1" x1="103.86" y1="44.33" x2="110.07" y2="44.85"/><path class="cls-1" d="M41.68,67.34c.42,3.08-2.71,6.06-7,6.65v0l-9.25,1.27L23.9,64.1l8.72-1.2.53-.09C37.44,62.23,41.25,64.25,41.68,67.34Z"/><line class="cls-1" x1="41.58" y1="66.86" x2="46.89" y2="64.82"/><path class="cls-1" d="M20.19,70.67c-1,2.94-5.17,4.17-9.25,2.74v0L2.12,70.36,5.83,59.71l8.31,2.9.51.16C18.73,64.2,21.21,67.74,20.19,70.67Z"/><line class="cls-1" x1="20.3" y1="70.27" x2="24.72" y2="70.03"/></svg>