<svg id="BioArt&#x751F;&#x7269;&#x827A;&#x672F;" xmlns="http://www.w3.org/2000/svg" viewbox="0 0 128 128" width="128" height="128"><defs><style>.cls-1,.cls-4{fill:#fff;stroke:none;}.cls-2{fill:none;stroke:none;}.cls-2,.cls-3,.cls-4{stroke:#000;stroke-miterlimit:10;}.cls-3{fill:#a7a7b5;stroke:none;}</style></defs><title>BioArt&#x751F;&#x7269;&#x827A;&#x672F;</title><ellipse class="cls-1" cx="63.8" cy="60.26" rx="29.87" ry="11.38"/><path d="M63.8,72.14c-17,0-30.37-5.22-30.37-11.87S46.77,48.39,63.8,48.39,94.18,53.6,94.18,60.26,80.84,72.14,63.8,72.14Zm0-22.75c-15.92,0-29.37,5-29.37,10.88S47.88,71.14,63.8,71.14s29.37-5,29.37-10.87S79.73,49.39,63.8,49.39Z"/><line class="cls-2" x1="8.38" y1="50.6" x2="8.38" y2="59.58"/><line class="cls-2" x1="12.5" y1="50.6" x2="12.5" y2="59.58"/><circle class="cls-3" cx="10.44" cy="45.12" r="7.32"/><line class="cls-2" x1="23.62" y1="50.6" x2="23.62" y2="59.58"/><line class="cls-2" x1="27.73" y1="50.6" x2="27.73" y2="59.58"/><circle class="cls-3" cx="25.67" cy="45.12" r="7.32"/><line class="cls-2" x1="38.85" y1="50.6" x2="38.85" y2="59.58"/><line class="cls-2" x1="42.97" y1="50.6" x2="42.97" y2="59.58"/><circle class="cls-3" cx="40.91" cy="45.12" r="7.32"/><line class="cls-2" x1="54.09" y1="50.6" x2="54.09" y2="59.58"/><line class="cls-2" x1="58.21" y1="50.6" x2="58.21" y2="59.58"/><circle class="cls-3" cx="56.15" cy="45.12" r="7.32"/><line class="cls-2" x1="69.33" y1="50.6" x2="69.33" y2="59.58"/><line class="cls-2" x1="73.44" y1="50.6" x2="73.44" y2="59.58"/><circle class="cls-3" cx="71.39" cy="45.12" r="7.32"/><line class="cls-2" x1="84.57" y1="50.6" x2="84.57" y2="59.58"/><line class="cls-2" x1="88.68" y1="50.6" x2="88.68" y2="59.58"/><circle class="cls-3" cx="86.62" cy="45.12" r="7.32"/><line class="cls-2" x1="99.8" y1="50.6" x2="99.8" y2="59.58"/><line class="cls-2" x1="103.92" y1="50.6" x2="103.92" y2="59.58"/><circle class="cls-3" cx="101.86" cy="45.12" r="7.32"/><line class="cls-2" x1="115.04" y1="50.6" x2="115.04" y2="59.58"/><line class="cls-2" x1="119.16" y1="50.6" x2="119.16" y2="59.58"/><circle class="cls-3" cx="117.1" cy="45.12" r="7.32"/><line class="cls-2" x1="8.38" y1="70.11" x2="8.38" y2="61.13"/><line class="cls-2" x1="12.5" y1="70.11" x2="12.5" y2="61.13"/><circle class="cls-3" cx="10.44" cy="75.6" r="7.32"/><line class="cls-2" x1="23.62" y1="70.11" x2="23.62" y2="61.13"/><line class="cls-2" x1="27.73" y1="70.11" x2="27.73" y2="61.13"/><circle class="cls-3" cx="25.67" cy="75.6" r="7.32"/><line class="cls-2" x1="38.85" y1="70.11" x2="38.85" y2="61.13"/><line class="cls-2" x1="42.97" y1="70.11" x2="42.97" y2="61.13"/><circle class="cls-3" cx="40.91" cy="75.6" r="7.32"/><line class="cls-2" x1="54.09" y1="70.11" x2="54.09" y2="61.13"/><line class="cls-2" x1="58.21" y1="70.11" x2="58.21" y2="61.13"/><circle class="cls-3" cx="56.15" cy="75.6" r="7.32"/><line class="cls-2" x1="69.33" y1="70.11" x2="69.33" y2="61.13"/><line class="cls-2" x1="73.44" y1="70.11" x2="73.44" y2="61.13"/><circle class="cls-3" cx="71.39" cy="75.6" r="7.32"/><line class="cls-2" x1="84.57" y1="70.11" x2="84.57" y2="61.13"/><line class="cls-2" x1="88.68" y1="70.11" x2="88.68" y2="61.13"/><circle class="cls-3" cx="86.62" cy="75.6" r="7.32"/><line class="cls-2" x1="99.8" y1="70.11" x2="99.8" y2="61.13"/><line class="cls-2" x1="103.92" y1="70.11" x2="103.92" y2="61.13"/><circle class="cls-3" cx="101.86" cy="75.6" r="7.32"/><line class="cls-2" x1="115.04" y1="70.11" x2="115.04" y2="61.13"/><line class="cls-2" x1="119.16" y1="70.11" x2="119.16" y2="61.13"/><circle class="cls-3" cx="117.1" cy="75.6" r="7.32"/><circle class="cls-4" cx="63.8" cy="60.26" r="3.78"/></svg>