<svg id="BioArt&#x751F;&#x7269;&#x827A;&#x672F;" xmlns="http://www.w3.org/2000/svg" viewbox="0 0 128 128" width="128" height="128"><defs><style>.cls-1{fill:#a7a7b5;stroke:none;}.cls-1,.cls-2{stroke:#000;stroke-miterlimit:10;}.cls-2{fill:none;stroke-width:3px;}</style></defs><title>BioArt&#x751F;&#x7269;&#x827A;&#x672F;</title><path class="cls-1" d="M60.67,80.58a13.84,13.84,0,0,0-2.55.25,9.18,9.18,0,0,0-17.59-2.77,9.18,9.18,0,0,0-17,2.45A13.79,13.79,0,1,0,34.21,105a13.78,13.78,0,0,0,17.51-.09,13.79,13.79,0,1,0,8.94-24.3Z"/><path class="cls-2" d="M83.28,22.79A32.58,32.58,0,0,1,100.51,83"/><polygon points="104.7 69.02 103.77 81.06 111.78 90.08 83.28 87.94 104.7 69.02"/></svg>