<svg id="BioArt&#x751F;&#x7269;&#x827A;&#x672F;" xmlns="http://www.w3.org/2000/svg" viewbox="0 0 128 128" width="128" height="128"><defs><style>.cls-1{fill:#a7a7b5;stroke:none;}.cls-1,.cls-2{stroke:#000;stroke-miterlimit:10;}.cls-2{fill:none;stroke:none;}</style></defs><title>BioArt&#x751F;&#x7269;&#x827A;&#x672F;</title><circle class="cls-1" cx="118.48" cy="52.44" r="4.55"/><circle class="cls-1" cx="118.48" cy="52.44" r="4.55"/><circle class="cls-1" cx="118.48" cy="52.44" r="4.55"/><circle class="cls-1" cx="115.2" cy="41.97" r="4.55"/><circle class="cls-1" cx="115.2" cy="41.97" r="4.55"/><circle class="cls-1" cx="115.2" cy="41.97" r="4.55"/><circle class="cls-1" cx="109.82" cy="32.28" r="4.55"/><circle class="cls-1" cx="109.82" cy="32.28" r="4.55"/><circle class="cls-1" cx="109.82" cy="32.28" r="4.55"/><circle class="cls-1" cx="102.63" cy="23.92" r="4.55"/><circle class="cls-1" cx="102.63" cy="23.92" r="4.55"/><circle class="cls-1" cx="102.63" cy="23.92" r="4.55"/><circle class="cls-1" cx="93.95" cy="17.21" r="4.55"/><circle class="cls-1" cx="93.95" cy="17.21" r="4.55"/><circle class="cls-1" cx="93.95" cy="17.21" r="4.55"/><circle class="cls-1" cx="84.11" cy="12.38" r="4.55"/><circle class="cls-1" cx="84.11" cy="12.38" r="4.55"/><circle class="cls-1" cx="84.11" cy="12.38" r="4.55"/><circle class="cls-1" cx="73.44" cy="9.61" r="4.55"/><circle class="cls-1" cx="73.44" cy="9.61" r="4.55"/><circle class="cls-1" cx="73.44" cy="9.61" r="4.55"/><circle class="cls-1" cx="62.37" cy="9.05" r="4.55"/><circle class="cls-1" cx="62.37" cy="9.05" r="4.55"/><circle class="cls-1" cx="62.37" cy="9.05" r="4.55"/><circle class="cls-1" cx="51.58" cy="10.7" r="4.55"/><circle class="cls-1" cx="51.58" cy="10.7" r="4.55"/><circle class="cls-1" cx="51.58" cy="10.7" r="4.55"/><circle class="cls-1" cx="41.28" cy="14.5" r="4.55"/><circle class="cls-1" cx="41.28" cy="14.5" r="4.55"/><circle class="cls-1" cx="41.28" cy="14.5" r="4.55"/><circle class="cls-1" cx="31.92" cy="20.31" r="4.55"/><circle class="cls-1" cx="31.92" cy="20.31" r="4.55"/><circle class="cls-1" cx="31.92" cy="20.31" r="4.55"/><circle class="cls-1" cx="23.84" cy="27.98" r="4.55"/><circle class="cls-1" cx="23.84" cy="27.98" r="4.55"/><circle class="cls-1" cx="23.84" cy="27.98" r="4.55"/><circle class="cls-1" cx="17.58" cy="36.98" r="4.55"/><circle class="cls-1" cx="17.58" cy="36.98" r="4.55"/><circle class="cls-1" cx="17.58" cy="36.98" r="4.55"/><circle class="cls-1" cx="13.21" cy="47.16" r="4.55"/><circle class="cls-1" cx="13.21" cy="47.16" r="4.55"/><circle class="cls-1" cx="13.21" cy="47.16" r="4.55"/><circle class="cls-1" cx="11.01" cy="57.86" r="4.55"/><circle class="cls-1" cx="11.01" cy="57.86" r="4.55"/><circle class="cls-1" cx="11.01" cy="57.86" r="4.55"/><circle class="cls-1" cx="11.01" cy="68.94" r="4.55"/><circle class="cls-1" cx="11.01" cy="68.94" r="4.55"/><circle class="cls-1" cx="11.01" cy="68.94" r="4.55"/><circle class="cls-1" cx="13.2" cy="79.64" r="4.55"/><circle class="cls-1" cx="13.2" cy="79.64" r="4.55"/><circle class="cls-1" cx="13.2" cy="79.64" r="4.55"/><circle class="cls-1" cx="17.53" cy="89.77" r="4.55"/><circle class="cls-1" cx="17.53" cy="89.77" r="4.55"/><circle class="cls-1" cx="17.53" cy="89.77" r="4.55"/><circle class="cls-1" cx="23.89" cy="98.91" r="4.55"/><circle class="cls-1" cx="23.89" cy="98.91" r="4.55"/><circle class="cls-1" cx="23.89" cy="98.91" r="4.55"/><circle class="cls-1" cx="31.85" cy="106.47" r="4.55"/><circle class="cls-1" cx="31.85" cy="106.47" r="4.55"/><circle class="cls-1" cx="31.85" cy="106.47" r="4.55"/><circle class="cls-1" cx="41.2" cy="112.3" r="4.55"/><circle class="cls-1" cx="41.2" cy="112.3" r="4.55"/><circle class="cls-1" cx="41.2" cy="112.3" r="4.55"/><circle class="cls-1" cx="51.49" cy="116.11" r="4.55"/><circle class="cls-1" cx="51.49" cy="116.11" r="4.55"/><circle class="cls-1" cx="51.49" cy="116.11" r="4.55"/><circle class="cls-1" cx="62.44" cy="117.79" r="4.55"/><circle class="cls-1" cx="62.44" cy="117.79" r="4.55"/><circle class="cls-1" cx="62.44" cy="117.79" r="4.55"/><circle class="cls-1" cx="73.41" cy="117.23" r="4.55"/><circle class="cls-1" cx="73.41" cy="117.23" r="4.55"/><circle class="cls-1" cx="73.41" cy="117.23" r="4.55"/><circle class="cls-1" cx="84.13" cy="114.44" r="4.55"/><circle class="cls-1" cx="84.13" cy="114.44" r="4.55"/><circle class="cls-1" cx="84.13" cy="114.44" r="4.55"/><circle class="cls-1" cx="93.92" cy="109.64" r="4.55"/><circle class="cls-1" cx="93.92" cy="109.64" r="4.55"/><circle class="cls-1" cx="93.92" cy="109.64" r="4.55"/><circle class="cls-1" cx="102.73" cy="102.82" r="4.55"/><circle class="cls-1" cx="102.73" cy="102.82" r="4.55"/><circle class="cls-1" cx="102.73" cy="102.82" r="4.55"/><circle class="cls-1" cx="109.86" cy="94.49" r="4.55"/><circle class="cls-1" cx="109.86" cy="94.49" r="4.55"/><circle class="cls-1" cx="109.86" cy="94.49" r="4.55"/><circle class="cls-1" cx="115.19" cy="84.89" r="4.55"/><circle class="cls-1" cx="115.19" cy="84.89" r="4.55"/><circle class="cls-1" cx="115.19" cy="84.89" r="4.55"/><circle class="cls-1" cx="118.5" cy="74.32" r="4.55"/><circle class="cls-1" cx="118.5" cy="74.32" r="4.55"/><circle class="cls-1" cx="118.5" cy="74.32" r="4.55"/><circle class="cls-1" cx="119.6" cy="63.55" r="4.55"/><circle class="cls-1" cx="119.6" cy="63.55" r="4.55"/><circle class="cls-1" cx="119.6" cy="63.55" r="4.55"/><path class="cls-2" d="M114,53.36a1.06,1.06,0,1,0-2.07.43,1.06,1.06,0,1,1-2.07.43,1.06,1.06,0,1,0-2.07.43,1.06,1.06,0,1,1-2.07.43,1.06,1.06,0,1,0-2.07.43,1.06,1.06,0,1,1-2.07.43"/><path class="cls-2" d="M111,43.76a1.06,1.06,0,1,0-1.95.83,1.06,1.06,0,1,1-1.95.83,1.06,1.06,0,1,0-1.95.83,1.06,1.06,0,1,1-1.95.83,1.06,1.06,0,1,0-1.95.83,1.06,1.06,0,1,1-1.95.83"/><path class="cls-2" d="M106.1,34.9a1.06,1.06,0,1,0-1.73,1.22,1.06,1.06,0,1,1-1.73,1.22,1.06,1.06,0,1,0-1.73,1.22,1.06,1.06,0,1,1-1.73,1.22A1.06,1.06,0,1,0,97.44,41a1.06,1.06,0,1,1-1.73,1.22"/><path class="cls-2" d="M99.52,27.24a1.06,1.06,0,1,0-1.45,1.54,1.06,1.06,0,1,1-1.45,1.54,1.06,1.06,0,1,0-1.45,1.54,1.06,1.06,0,1,1-1.45,1.54A1.06,1.06,0,1,0,92.27,35a1.06,1.06,0,1,1-1.45,1.54"/><path class="cls-2" d="M91.55,21.08a1.06,1.06,0,1,0-1.12,1.8,1.06,1.06,0,1,1-1.12,1.8,1.06,1.06,0,1,0-1.12,1.8,1.06,1.06,0,1,1-1.12,1.8A1.06,1.06,0,1,0,86,30.07a1.06,1.06,0,1,1-1.12,1.8"/><path class="cls-2" d="M82.51,16.64a1.06,1.06,0,1,0-.74,2,1.06,1.06,0,1,1-.74,2,1.06,1.06,0,1,0-.74,2,1.06,1.06,0,1,1-.74,2,1.06,1.06,0,1,0-.74,2,1.06,1.06,0,1,1-.74,2"/><path class="cls-2" d="M72.74,14.11a1.06,1.06,0,1,0-.33,2.09,1.06,1.06,0,1,1-.33,2.09,1.06,1.06,0,1,0-.33,2.09,1.06,1.06,0,1,1-.33,2.09,1.06,1.06,0,1,0-.33,2.09,1.06,1.06,0,1,1-.33,2.09"/><path class="cls-2" d="M62.62,13.6a1.06,1.06,0,1,0,.12,2.11,1.06,1.06,0,1,1,.12,2.11A1.06,1.06,0,1,0,63,19.94,1.06,1.06,0,1,1,63.09,22a1.06,1.06,0,1,0,.12,2.11,1.06,1.06,0,1,1,.12,2.11"/><path class="cls-2" d="M52.69,15.12a1.06,1.06,0,1,0,.52,2.05,1.06,1.06,0,1,1,.52,2.05,1.06,1.06,0,1,0,.52,2.05,1.06,1.06,0,1,1,.52,2.05,1.06,1.06,0,1,0,.52,2.05,1.06,1.06,0,1,1,.52,2.05"/><path class="cls-2" d="M43.24,18.61a1.06,1.06,0,1,0,.91,1.91,1.06,1.06,0,1,1,.91,1.91A1.06,1.06,0,1,0,46,24.34a1.06,1.06,0,1,1,.91,1.91,1.06,1.06,0,1,0,.91,1.91,1.06,1.06,0,1,1,.91,1.91"/><path class="cls-2" d="M34.67,23.94a1.06,1.06,0,1,0,1.28,1.69,1.06,1.06,0,1,1,1.28,1.69A1.06,1.06,0,1,0,38.5,29a1.06,1.06,0,1,1,1.28,1.69,1.06,1.06,0,1,0,1.28,1.69,1.06,1.06,0,1,1,1.28,1.69"/><path class="cls-2" d="M27.3,30.93a1.06,1.06,0,1,0,1.61,1.37,1.06,1.06,0,1,1,1.61,1.37,1.06,1.06,0,1,0,1.61,1.37,1.06,1.06,0,1,1,1.61,1.37,1.06,1.06,0,1,0,1.61,1.37A1.06,1.06,0,1,1,37,39.17"/><path class="cls-2" d="M21.55,39.2a1.06,1.06,0,1,0,1.85,1,1.06,1.06,0,1,1,1.85,1,1.06,1.06,0,1,0,1.85,1,1.06,1.06,0,1,1,1.85,1,1.06,1.06,0,1,0,1.85,1,1.06,1.06,0,1,1,1.85,1"/><path class="cls-2" d="M17.56,48.51a1.06,1.06,0,1,0,2,.62,1.06,1.06,0,1,1,2,.62,1.06,1.06,0,1,0,2,.62,1.06,1.06,0,1,1,2,.62,1.06,1.06,0,1,0,2,.62,1.06,1.06,0,1,1,2,.62"/><path class="cls-2" d="M15.54,58.35a1.06,1.06,0,1,0,2.1.23,1.06,1.06,0,1,1,2.1.23,1.06,1.06,0,1,0,2.1.23,1.06,1.06,0,1,1,2.1.23,1.06,1.06,0,1,0,2.1.23,1.06,1.06,0,1,1,2.1.23"/><path class="cls-2" d="M15.54,68.47a1.06,1.06,0,1,0,2.11-.22A1.06,1.06,0,1,1,19.75,68a1.06,1.06,0,1,0,2.11-.22A1.06,1.06,0,1,1,24,67.6a1.06,1.06,0,1,0,2.11-.22,1.06,1.06,0,1,1,2.11-.22"/><path class="cls-2" d="M17.56,78.31a1.06,1.06,0,1,0,2-.62,1.06,1.06,0,1,1,2-.62,1.06,1.06,0,1,0,2-.62,1.06,1.06,0,1,1,2-.62,1.06,1.06,0,1,0,2-.62,1.06,1.06,0,1,1,2-.62"/><path class="cls-2" d="M21.53,87.59a1.06,1.06,0,1,0,1.86-1,1.06,1.06,0,1,1,1.86-1,1.06,1.06,0,1,0,1.86-1,1.06,1.06,0,1,1,1.86-1,1.06,1.06,0,1,0,1.86-1,1.06,1.06,0,1,1,1.86-1"/><path class="cls-2" d="M27.33,95.93a1.06,1.06,0,1,0,1.6-1.39,1.06,1.06,0,1,1,1.6-1.39,1.06,1.06,0,1,0,1.6-1.39,1.06,1.06,0,1,1,1.6-1.39A1.06,1.06,0,1,0,35.32,89a1.06,1.06,0,1,1,1.6-1.39"/><path class="cls-2" d="M34.63,102.87a1.06,1.06,0,1,0,1.29-1.67,1.06,1.06,0,1,1,1.29-1.67,1.06,1.06,0,1,0,1.29-1.67,1.06,1.06,0,1,1,1.29-1.67,1.06,1.06,0,1,0,1.29-1.67,1.06,1.06,0,1,1,1.29-1.67"/><path class="cls-2" d="M43.2,108.21a1.06,1.06,0,1,0,.93-1.9,1.06,1.06,0,1,1,.93-1.9,1.06,1.06,0,1,0,.93-1.9,1.06,1.06,0,1,1,.93-1.9,1.06,1.06,0,1,0,.93-1.9,1.06,1.06,0,1,1,.93-1.9"/><path class="cls-2" d="M52.65,111.71a1.06,1.06,0,1,0,.54-2,1.06,1.06,0,1,1,.54-2,1.06,1.06,0,1,0,.54-2,1.06,1.06,0,1,1,.54-2,1.06,1.06,0,1,0,.54-2,1.06,1.06,0,1,1,.54-2"/><path class="cls-2" d="M62.66,113.24a1.06,1.06,0,1,0,.1-2.11,1.06,1.06,0,1,1,.1-2.11,1.06,1.06,0,1,0,.1-2.11,1.06,1.06,0,1,1,.1-2.11,1.06,1.06,0,1,0,.1-2.11,1.06,1.06,0,1,1,.1-2.11"/><path class="cls-2" d="M72.72,112.73a1.06,1.06,0,1,0-.32-2.09,1.06,1.06,0,1,1-.32-2.09,1.06,1.06,0,1,0-.32-2.09,1.06,1.06,0,1,1-.32-2.09,1.06,1.06,0,1,0-.32-2.09,1.06,1.06,0,1,1-.32-2.09"/><path class="cls-2" d="M82.52,110.19a1.06,1.06,0,1,0-.75-2,1.06,1.06,0,1,1-.75-2,1.06,1.06,0,1,0-.75-2,1.06,1.06,0,1,1-.75-2,1.06,1.06,0,1,0-.75-2,1.06,1.06,0,1,1-.75-2"/><path class="cls-2" d="M91.53,105.77a1.06,1.06,0,1,0-1.11-1.8,1.06,1.06,0,1,1-1.11-1.8,1.06,1.06,0,1,0-1.11-1.8,1.06,1.06,0,1,1-1.11-1.8A1.06,1.06,0,1,0,86,96.76,1.06,1.06,0,1,1,84.87,95"/><path class="cls-2" d="M99.56,99.55A1.06,1.06,0,1,0,98.09,98a1.06,1.06,0,1,1-1.47-1.52A1.06,1.06,0,1,0,95.15,95a1.06,1.06,0,1,1-1.47-1.52,1.06,1.06,0,1,0-1.47-1.52,1.06,1.06,0,1,1-1.47-1.52"/><path class="cls-2" d="M106.12,91.9a1.06,1.06,0,1,0-1.74-1.2,1.06,1.06,0,1,1-1.74-1.2,1.06,1.06,0,1,0-1.74-1.2,1.06,1.06,0,1,1-1.74-1.2,1.06,1.06,0,1,0-1.74-1.2,1.06,1.06,0,1,1-1.74-1.2"/><path class="cls-2" d="M111,83.1a1.06,1.06,0,1,0-1.94-.84,1.06,1.06,0,1,1-1.94-.84,1.06,1.06,0,1,0-1.94-.84,1.06,1.06,0,1,1-1.94-.84,1.06,1.06,0,1,0-1.94-.84,1.06,1.06,0,1,1-1.94-.84"/><path class="cls-2" d="M114,73.43A1.06,1.06,0,1,0,112,73a1.06,1.06,0,1,1-2.08-.41,1.06,1.06,0,1,0-2.08-.41,1.06,1.06,0,1,1-2.08-.41,1.06,1.06,0,1,0-2.08-.41,1.06,1.06,0,1,1-2.08-.41"/><path class="cls-2" d="M115.05,63.48a1.06,1.06,0,1,0-2.12,0,1.06,1.06,0,1,1-2.12,0,1.06,1.06,0,1,0-2.12,0,1.06,1.06,0,1,1-2.12,0,1.06,1.06,0,1,0-2.12,0,1.06,1.06,0,1,1-2.12,0"/></svg>