<svg id="BioArt&#x751F;&#x7269;&#x827A;&#x672F;" xmlns="http://www.w3.org/2000/svg" viewbox="0 0 128 128" width="128" height="128"><defs><style>.cls-1,.cls-4{fill:#a7a7b5;stroke:none;}.cls-2{fill:none;stroke:none;}.cls-2,.cls-3,.cls-4{stroke:#000;stroke-miterlimit:10;}.cls-3{fill:#8c99ae;stroke:none;}</style></defs><title>BioArt&#x751F;&#x7269;&#x827A;&#x672F;</title><path class="cls-1" d="M71.85,69.17H65.93a27.29,27.29,0,0,1,7.3-18.71,20.06,20.06,0,0,0-19.42,0,27.28,27.28,0,0,1,7.3,18.71H55.2a21.33,21.33,0,0,0-8-16.76L44.33,50.1l2.89-2.31a26,26,0,0,1,32.6,0l2.89,2.31-2.89,2.31A21.33,21.33,0,0,0,71.85,69.17Z"/><path class="cls-2" d="M71.85,69.17H65.93a27.29,27.29,0,0,1,7.3-18.71,20.06,20.06,0,0,0-19.42,0,27.28,27.28,0,0,1,7.3,18.71H55.2a21.33,21.33,0,0,0-8-16.76L44.33,50.1l2.89-2.31a26,26,0,0,1,32.6,0l2.89,2.31-2.89,2.31A21.33,21.33,0,0,0,71.85,69.17Z"/><path class="cls-3" d="M61.12,69.17H55.2C55.2,57.48,46,48,34.62,48S14,57.48,14,69.17H8.12C8.12,54.21,20,42,34.62,42S61.12,54.21,61.12,69.17Z"/><path class="cls-4" d="M20.53,90a7.25,7.25,0,0,1-5.37-2.39,27.56,27.56,0,0,1,3.56-40.12h3.61a27.14,27.14,0,0,1,10.6,21.71,27.41,27.41,0,0,1-7,18.41A7.25,7.25,0,0,1,20.53,90Zm0-36.27a21.68,21.68,0,0,0-1,29.91,1.3,1.3,0,0,0,1.95,0A21.5,21.5,0,0,0,27,69.17,21.32,21.32,0,0,0,20.53,53.71Z"/><path class="cls-2" d="M55.2,69.17C55.2,57.48,46,48,34.62,48a19.93,19.93,0,0,0-9.23,2.25,27.22,27.22,0,0,1,7.54,19"/><path class="cls-2" d="M27,69.17a21.27,21.27,0,0,0-8.29-17l-3.05-2.35,3.05-2.35A25.87,25.87,0,0,1,34.62,42c14.61,0,26.5,12.17,26.5,27.13"/><path class="cls-3" d="M118.92,69.17H113C113,57.48,103.77,48,92.43,48S71.85,57.48,71.85,69.17H65.93c0-15,11.89-27.13,26.5-27.13S118.92,54.21,118.92,69.17Z"/><path class="cls-4" d="M8.12,69.17C8.12,54.21,20,42,34.62,42a25.85,25.85,0,0,1,16.3,5.75v4.62a21.33,21.33,0,0,0-8,16.76H37a27.29,27.29,0,0,1,7.3-18.71A19.88,19.88,0,0,0,34.62,48C23.27,48,14,57.48,14,69.17"/><path class="cls-4" d="M49.05,90H49a5.93,5.93,0,0,1-4.28-1.75,27.54,27.54,0,0,1,2.51-40.48h3.7A27.55,27.55,0,0,1,53.71,88,6.4,6.4,0,0,1,49.05,90Zm0-35.95a21.38,21.38,0,0,0-6.13,15.1c0,8.57,3.55,11.51,5.25,14.35a1,1,0,0,0,1.76,0c1.69-2.83,5.25-6.69,5.25-14.35A21.38,21.38,0,0,0,49.07,54.08Z"/><path class="cls-4" d="M78,90h0a6.34,6.34,0,0,1-4.59-2,27.55,27.55,0,0,1,2.74-40.24L78,46.31l1.85,1.48A27.55,27.55,0,0,1,82.57,88,6.35,6.35,0,0,1,78,90Zm0-35.93a21.38,21.38,0,0,0-6.13,15.1,21.79,21.79,0,0,0,5.24,14.27,1.12,1.12,0,0,0,1.76,0A21.79,21.79,0,0,0,84.1,69.17,21.38,21.38,0,0,0,78,54.08Z"/><path class="cls-4" d="M100,69.17H94.12c0-15,11.89-27.13,26.5-27.13V48C109.27,48,100,57.48,100,69.17Z"/><path class="cls-4" d="M82.72,50.47a20.07,20.07,0,0,1,18.94-.26,27.22,27.22,0,0,0-7.54,19H100a21.27,21.27,0,0,1,8.29-17l3.05-2.35-3.05-2.35a26,26,0,0,0-30.26-1.09"/><path class="cls-4" d="M106.52,90a7.21,7.21,0,0,1-5.33-2.37,27.56,27.56,0,0,1,3.52-40.16h3.61a27.56,27.56,0,0,1,3.52,40.16A7.21,7.21,0,0,1,106.52,90Zm0-36.29a21.68,21.68,0,0,0-.94,29.94,1.26,1.26,0,0,0,1.89,0,21.68,21.68,0,0,0-.94-29.94Z"/><path class="cls-1" d="M32.93,69.17H27C27,57.48,17.78,48,6.43,48V42C21,42,32.93,54.21,32.93,69.17Z"/><path class="cls-2" d="M27,69.17C27,57.48,17.78,48,6.43,48V42C21,42,32.93,54.21,32.93,69.17"/><path class="cls-1" d="M61.1,69.17H55.18C55.18,57.48,45.95,48,34.6,48V42C49.21,42,61.1,54.21,61.1,69.17Z"/><path class="cls-2" d="M34.6,42c14.61,0,26.5,12.17,26.5,27.13"/><path class="cls-2" d="M55.18,69.17C55.18,57.48,45.95,48,34.6,48"/><path class="cls-1" d="M90,69.17H84.11C84.11,57.48,74.88,48,63.53,48V42C78.14,42,90,54.21,90,69.17Z"/><path class="cls-2" d="M63.53,42C78.14,42,90,54.21,90,69.17"/><path class="cls-2" d="M84.11,69.17C84.11,57.48,74.88,48,63.53,48"/><path class="cls-1" d="M118.95,69.17H113C113,57.48,103.8,48,92.45,48V42C107.06,42,118.95,54.21,118.95,69.17Z"/><path class="cls-2" d="M92.45,42c14.61,0,26.5,12.17,26.5,27.13"/><path class="cls-2" d="M113,69.17C113,57.48,103.8,48,92.45,48"/><path class="cls-2" d="M49.39,46.22a26,26,0,0,1,30.44,1.56l2.89,2.31"/></svg>