<svg id="BioArt&#x751F;&#x7269;&#x827A;&#x672F;" xmlns="http://www.w3.org/2000/svg" viewbox="0 0 128 128" width="128" height="128"><defs><style>.cls-1{fill:none;stroke:none;}.cls-1,.cls-2,.cls-3{stroke:#000;stroke-miterlimit:10;}.cls-2{fill:#a7a7b5;stroke:none;}.cls-3{fill:#fff;stroke:none;}</style></defs><title>BioArt&#x751F;&#x7269;&#x827A;&#x672F;</title><line class="cls-1" x1="8.11" y1="84.21" x2="8.11" y2="75.23"/><line class="cls-1" x1="12.22" y1="84.21" x2="12.22" y2="75.23"/><circle class="cls-2" cx="10.16" cy="89.69" r="7.32"/><line class="cls-1" x1="23.34" y1="84.21" x2="23.34" y2="75.23"/><line class="cls-1" x1="27.46" y1="84.21" x2="27.46" y2="75.23"/><circle class="cls-2" cx="25.4" cy="89.69" r="7.32"/><line class="cls-1" x1="38.58" y1="84.21" x2="38.58" y2="75.23"/><line class="cls-1" x1="42.7" y1="84.21" x2="42.7" y2="75.23"/><circle class="cls-2" cx="40.64" cy="89.69" r="7.32"/><line class="cls-1" x1="53.82" y1="84.21" x2="53.82" y2="75.23"/><line class="cls-1" x1="57.93" y1="84.21" x2="57.93" y2="75.23"/><circle class="cls-2" cx="55.88" cy="89.69" r="7.32"/><line class="cls-1" x1="69.06" y1="84.21" x2="69.06" y2="75.23"/><line class="cls-1" x1="73.17" y1="84.21" x2="73.17" y2="75.23"/><circle class="cls-2" cx="71.11" cy="89.69" r="7.32"/><line class="cls-1" x1="84.29" y1="84.21" x2="84.29" y2="75.23"/><line class="cls-1" x1="88.41" y1="84.21" x2="88.41" y2="75.23"/><circle class="cls-2" cx="86.35" cy="89.69" r="7.32"/><line class="cls-1" x1="99.53" y1="84.21" x2="99.53" y2="75.23"/><line class="cls-1" x1="103.65" y1="84.21" x2="103.65" y2="75.23"/><circle class="cls-2" cx="101.59" cy="89.69" r="7.32"/><line class="cls-1" x1="114.77" y1="84.21" x2="114.77" y2="75.23"/><line class="cls-1" x1="118.88" y1="84.21" x2="118.88" y2="75.23"/><circle class="cls-2" cx="116.83" cy="89.69" r="7.32"/><line class="cls-1" x1="8.11" y1="64.69" x2="8.11" y2="73.67"/><line class="cls-1" x1="12.22" y1="64.69" x2="12.22" y2="73.67"/><circle class="cls-2" cx="10.16" cy="59.21" r="7.32"/><line class="cls-1" x1="23.34" y1="64.69" x2="23.34" y2="73.67"/><line class="cls-1" x1="27.46" y1="64.69" x2="27.46" y2="73.67"/><circle class="cls-2" cx="25.4" cy="59.21" r="7.32"/><line class="cls-1" x1="38.58" y1="64.69" x2="38.58" y2="73.67"/><line class="cls-1" x1="42.7" y1="64.69" x2="42.7" y2="73.67"/><circle class="cls-2" cx="40.64" cy="59.21" r="7.32"/><line class="cls-1" x1="53.82" y1="64.69" x2="53.82" y2="73.67"/><line class="cls-1" x1="57.93" y1="64.69" x2="57.93" y2="73.67"/><circle class="cls-2" cx="55.88" cy="59.21" r="7.32"/><line class="cls-1" x1="69.06" y1="64.69" x2="69.06" y2="73.67"/><line class="cls-1" x1="73.17" y1="64.69" x2="73.17" y2="73.67"/><circle class="cls-2" cx="71.11" cy="59.21" r="7.32"/><line class="cls-1" x1="84.29" y1="64.69" x2="84.29" y2="73.67"/><line class="cls-1" x1="88.41" y1="64.69" x2="88.41" y2="73.67"/><circle class="cls-2" cx="86.35" cy="59.21" r="7.32"/><line class="cls-1" x1="99.53" y1="64.69" x2="99.53" y2="73.67"/><line class="cls-1" x1="103.65" y1="64.69" x2="103.65" y2="73.67"/><circle class="cls-2" cx="101.59" cy="59.21" r="7.32"/><line class="cls-1" x1="114.77" y1="64.69" x2="114.77" y2="73.67"/><line class="cls-1" x1="118.88" y1="64.69" x2="118.88" y2="73.67"/><circle class="cls-2" cx="116.83" cy="59.21" r="7.32"/><circle class="cls-3" cx="86.35" cy="28.69" r="7.32"/><path class="cls-2" d="M86.35,66.83c-11.85,0-21.46-7.42-21.46-16.56,0-5.17,3.08-9.77,7.88-12.81a4,4,0,0,1,4.58.19,16,16,0,0,0,18,0,4,4,0,0,1,4.58-.19c4.81,3,7.88,7.64,7.88,12.81C107.81,59.41,98.2,66.83,86.35,66.83Z"/></svg>