<svg id="BioArt&#x751F;&#x7269;&#x827A;&#x672F;" xmlns="http://www.w3.org/2000/svg" viewbox="0 0 128 128" width="128" height="128"><defs><style>.cls-1{fill:none;stroke:none;}.cls-1,.cls-2,.cls-3{stroke:#000;stroke-miterlimit:10;}.cls-2{fill:#a7a7b5;stroke:none;}.cls-3{fill:#fff;stroke:none;}</style></defs><title>BioArt&#x751F;&#x7269;&#x827A;&#x672F;</title><line class="cls-1" x1="8.58" y1="47.04" x2="8.58" y2="56.02"/><line class="cls-1" x1="12.7" y1="47.04" x2="12.7" y2="56.02"/><circle class="cls-2" cx="10.64" cy="41.56" r="7.32"/><line class="cls-1" x1="23.82" y1="47.04" x2="23.82" y2="56.02"/><line class="cls-1" x1="27.94" y1="47.04" x2="27.94" y2="56.02"/><circle class="cls-2" cx="25.88" cy="41.56" r="7.32"/><line class="cls-1" x1="39.06" y1="47.04" x2="39.06" y2="56.02"/><line class="cls-1" x1="43.17" y1="47.04" x2="43.17" y2="56.02"/><circle class="cls-2" cx="41.12" cy="41.56" r="7.32"/><line class="cls-1" x1="54.3" y1="47.04" x2="54.3" y2="56.02"/><line class="cls-1" x1="58.41" y1="47.04" x2="58.41" y2="56.02"/><circle class="cls-2" cx="56.35" cy="41.56" r="7.32"/><line class="cls-1" x1="69.53" y1="47.04" x2="69.53" y2="56.02"/><line class="cls-1" x1="73.65" y1="47.04" x2="73.65" y2="56.02"/><circle class="cls-2" cx="71.59" cy="41.56" r="7.32"/><line class="cls-1" x1="84.77" y1="47.04" x2="84.77" y2="56.02"/><line class="cls-1" x1="88.89" y1="47.04" x2="88.89" y2="56.02"/><circle class="cls-2" cx="86.83" cy="41.56" r="7.32"/><line class="cls-1" x1="100.01" y1="47.04" x2="100.01" y2="56.02"/><line class="cls-1" x1="104.12" y1="47.04" x2="104.12" y2="56.02"/><circle class="cls-2" cx="102.07" cy="41.56" r="7.32"/><line class="cls-1" x1="115.24" y1="47.04" x2="115.24" y2="56.02"/><line class="cls-1" x1="119.36" y1="47.04" x2="119.36" y2="56.02"/><circle class="cls-2" cx="117.3" cy="41.56" r="7.32"/><line class="cls-1" x1="8.58" y1="66.55" x2="8.58" y2="57.57"/><line class="cls-1" x1="12.7" y1="66.55" x2="12.7" y2="57.57"/><circle class="cls-2" cx="10.64" cy="72.04" r="7.32"/><line class="cls-1" x1="23.82" y1="66.55" x2="23.82" y2="57.57"/><line class="cls-1" x1="27.94" y1="66.55" x2="27.94" y2="57.57"/><circle class="cls-2" cx="25.88" cy="72.04" r="7.32"/><line class="cls-1" x1="39.06" y1="66.55" x2="39.06" y2="57.57"/><line class="cls-1" x1="43.17" y1="66.55" x2="43.17" y2="57.57"/><circle class="cls-2" cx="41.12" cy="72.04" r="7.32"/><line class="cls-1" x1="54.3" y1="66.55" x2="54.3" y2="57.57"/><line class="cls-1" x1="58.41" y1="66.55" x2="58.41" y2="57.57"/><circle class="cls-2" cx="56.35" cy="72.04" r="7.32"/><line class="cls-1" x1="69.53" y1="66.55" x2="69.53" y2="57.57"/><line class="cls-1" x1="73.65" y1="66.55" x2="73.65" y2="57.57"/><circle class="cls-2" cx="71.59" cy="72.04" r="7.32"/><line class="cls-1" x1="84.77" y1="66.55" x2="84.77" y2="57.57"/><line class="cls-1" x1="88.89" y1="66.55" x2="88.89" y2="57.57"/><circle class="cls-2" cx="86.83" cy="72.04" r="7.32"/><line class="cls-1" x1="100.01" y1="66.55" x2="100.01" y2="57.57"/><line class="cls-1" x1="104.12" y1="66.55" x2="104.12" y2="57.57"/><circle class="cls-2" cx="102.07" cy="72.04" r="7.32"/><line class="cls-1" x1="115.24" y1="66.55" x2="115.24" y2="57.57"/><line class="cls-1" x1="119.36" y1="66.55" x2="119.36" y2="57.57"/><circle class="cls-2" cx="117.3" cy="72.04" r="7.32"/><circle class="cls-3" cx="86.83" cy="102.56" r="7.32"/><path class="cls-2" d="M86.83,64.42C75,64.42,65.36,71.83,65.36,81c0,5.17,3.08,9.77,7.88,12.81a4,4,0,0,0,4.58-.19,16,16,0,0,1,18,0,4,4,0,0,0,4.58.19c4.81-3,7.88-7.64,7.88-12.81C108.29,71.83,98.68,64.42,86.83,64.42Z"/></svg>