<svg id="BioArt&#x751F;&#x7269;&#x827A;&#x672F;" xmlns="http://www.w3.org/2000/svg" viewbox="0 0 128 128" width="128" height="128"><defs><style>.cls-1{fill:#a7a7b5;stroke:none;}.cls-1,.cls-2{stroke:#000;stroke-miterlimit:10;}.cls-2{fill:none;stroke-width:3px;}</style></defs><title>BioArt&#x751F;&#x7269;&#x827A;&#x672F;</title><path class="cls-1" d="M64.06,24.85a13.84,13.84,0,0,0-2.55.25,9.18,9.18,0,0,0-17.59-2.77,9.18,9.18,0,0,0-17,2.45A13.79,13.79,0,1,0,37.61,49.23a13.78,13.78,0,0,0,17.51-.09,13.79,13.79,0,1,0,8.94-24.3Z"/><path class="cls-2" d="M84.22,41.08a32.58,32.58,0,0,1,17.23,60.23"/><polygon points="105.64 87.31 104.71 99.35 112.72 108.37 84.22 106.24 105.64 87.31"/></svg>