<svg id="BioArt&#x751F;&#x7269;&#x827A;&#x672F;" xmlns="http://www.w3.org/2000/svg" viewbox="0 0 128 128" width="128" height="128"><defs><style>.cls-1{fill:#a7a7b5;stroke-miterlimit:10;}.cls-1,.cls-3,.cls-4{stroke:#000;}.cls-2,.cls-3,.cls-5{fill:none;stroke-width:0.88px;}.cls-2{stroke:#b3b3b3;}.cls-2,.cls-3,.cls-4,.cls-5{stroke-linecap:round;stroke-linejoin:round;}.cls-4{fill:#fff;stroke:none;}.cls-5{stroke:#fff;}</style></defs><title>BioArt&#x751F;&#x7269;&#x827A;&#x672F;</title><path class="cls-1" d="M4.88,73.56h0c8.75,0,8.75-26.51,17.5-26.51H29c-8.75,0-8.75,26.51-17.5,26.51Z"/><path class="cls-2" d="M4.88,73.56h0c8.75,0,8.75-26.51,17.5-26.51H29c-8.75,0-8.75,26.51-17.5,26.51Z"/><path class="cls-3" d="M4.88,73.56h0c8.75,0,8.75-26.51,17.5-26.51H29c-8.75,0-8.75,26.51-17.5,26.51Z"/><path class="cls-1" d="M29,73.56h0c8.75,0,8.75-26.51,17.5-26.51h6.63c-8.75,0-8.75,26.51-17.5,26.51Z"/><path class="cls-2" d="M29,73.56h0c8.75,0,8.75-26.51,17.5-26.51h6.63c-8.75,0-8.75,26.51-17.5,26.51Z"/><path class="cls-3" d="M29,73.56h0c8.75,0,8.75-26.51,17.5-26.51h6.63c-8.75,0-8.75,26.51-17.5,26.51Z"/><path class="cls-1" d="M39.87,73.56h0c8.75,0,8.75-26.51,17.5-26.51H64c-8.75,0-8.75,26.51-17.5,26.51Z"/><path class="cls-2" d="M39.87,73.56h0c8.75,0,8.75-26.51,17.5-26.51H64c-8.75,0-8.75,26.51-17.5,26.51Z"/><path class="cls-3" d="M39.87,73.56h0c8.75,0,8.75-26.51,17.5-26.51H64c-8.75,0-8.75,26.51-17.5,26.51Z"/><path class="cls-1" d="M64,73.56h0c8.75,0,8.75-26.51,17.5-26.51h6.63c-8.75,0-8.75,26.51-17.5,26.51Z"/><path class="cls-2" d="M64,73.56h0c8.75,0,8.75-26.51,17.5-26.51h6.63c-8.75,0-8.75,26.51-17.5,26.51Z"/><path class="cls-3" d="M64,73.56h0c8.75,0,8.75-26.51,17.5-26.51h6.63c-8.75,0-8.75,26.51-17.5,26.51Z"/><path class="cls-1" d="M74.87,73.56h0c8.75,0,8.75-26.51,17.5-26.51H99c-8.75,0-8.75,26.51-17.5,26.51Z"/><path class="cls-2" d="M74.87,73.56h0c8.75,0,8.75-26.51,17.5-26.51H99c-8.75,0-8.75,26.51-17.5,26.51Z"/><path class="cls-3" d="M74.87,73.56h0c8.75,0,8.75-26.51,17.5-26.51H99c-8.75,0-8.75,26.51-17.5,26.51Z"/><path class="cls-1" d="M99,73.56h0c8.75,0,8.75-26.51,17.5-26.51h6.63c-8.75,0-8.75,26.51-17.5,26.51Z"/><path class="cls-2" d="M99,73.56h0c8.75,0,8.75-26.51,17.5-26.51h6.63c-8.75,0-8.75,26.51-17.5,26.51Z"/><path class="cls-3" d="M99,73.56h0c8.75,0,8.75-26.51,17.5-26.51h6.63c-8.75,0-8.75,26.51-17.5,26.51Z"/><path class="cls-4" d="M11.51,47.05h0c8.75,0,8.75,26.51,17.5,26.51h6.63c-8.75,0-8.75-26.51-17.5-26.51Z"/><path class="cls-5" d="M11.51,47.05h0c8.75,0,8.75,26.51,17.5,26.51h6.63c-8.75,0-8.75-26.51-17.5-26.51Z"/><path class="cls-3" d="M11.51,47.05h0c8.75,0,8.75,26.51,17.5,26.51h6.63c-8.75,0-8.75-26.51-17.5-26.51Z"/><path class="cls-4" d="M22.38,47.05h0c8.75,0,8.75,26.51,17.5,26.51H46.5c-8.75,0-8.75-26.51-17.5-26.51Z"/><path class="cls-5" d="M22.38,47.05h0c8.75,0,8.75,26.51,17.5,26.51H46.5c-8.75,0-8.75-26.51-17.5-26.51Z"/><path class="cls-3" d="M22.38,47.05h0c8.75,0,8.75,26.51,17.5,26.51H46.5c-8.75,0-8.75-26.51-17.5-26.51Z"/><path class="cls-4" d="M46.5,47.05h0c8.75,0,8.75,26.51,17.5,26.51h6.63c-8.75,0-8.75-26.51-17.5-26.51Z"/><path class="cls-5" d="M46.5,47.05h0c8.75,0,8.75,26.51,17.5,26.51h6.63c-8.75,0-8.75-26.51-17.5-26.51Z"/><path class="cls-3" d="M46.5,47.05h0c8.75,0,8.75,26.51,17.5,26.51h6.63c-8.75,0-8.75-26.51-17.5-26.51Z"/><path class="cls-4" d="M57.37,47.05h0c8.75,0,8.75,26.51,17.5,26.51h6.63c-8.75,0-8.75-26.51-17.5-26.51Z"/><path class="cls-5" d="M57.37,47.05h0c8.75,0,8.75,26.51,17.5,26.51h6.63c-8.75,0-8.75-26.51-17.5-26.51Z"/><path class="cls-3" d="M57.37,47.05h0c8.75,0,8.75,26.51,17.5,26.51h6.63c-8.75,0-8.75-26.51-17.5-26.51Z"/><path class="cls-4" d="M81.49,47.05h0c8.75,0,8.75,26.51,17.5,26.51h6.63c-8.75,0-8.75-26.51-17.5-26.51Z"/><path class="cls-5" d="M81.49,47.05h0c8.75,0,8.75,26.51,17.5,26.51h6.63c-8.75,0-8.75-26.51-17.5-26.51Z"/><path class="cls-3" d="M81.49,47.05h0c8.75,0,8.75,26.51,17.5,26.51h6.63c-8.75,0-8.75-26.51-17.5-26.51Z"/><path class="cls-4" d="M92.36,47.05h0c8.75,0,8.75,26.51,17.5,26.51h6.63c-8.75,0-8.75-26.51-17.5-26.51Z"/><path class="cls-5" d="M92.36,47.05h0c8.75,0,8.75,26.51,17.5,26.51h6.63c-8.75,0-8.75-26.51-17.5-26.51Z"/><path class="cls-3" d="M92.36,47.05h0c8.75,0,8.75,26.51,17.5,26.51h6.63c-8.75,0-8.75-26.51-17.5-26.51Z"/></svg>