<svg id="BioArt&#x751F;&#x7269;&#x827A;&#x672F;" xmlns="http://www.w3.org/2000/svg" viewbox="0 0 128 128" width="128" height="128"><defs><style>.cls-1{fill:none;stroke:none;}.cls-1,.cls-2{stroke:#000;stroke-miterlimit:10;}.cls-2{fill:#a7a7b5;stroke:none;}</style></defs><title>BioArt&#x751F;&#x7269;&#x827A;&#x672F;</title><line class="cls-1" x1="8.35" y1="50.6" x2="8.35" y2="59.58"/><line class="cls-1" x1="12.46" y1="50.6" x2="12.46" y2="59.58"/><circle class="cls-2" cx="10.4" cy="45.12" r="7.32"/><line class="cls-1" x1="23.58" y1="50.6" x2="23.58" y2="59.58"/><line class="cls-1" x1="27.7" y1="50.6" x2="27.7" y2="59.58"/><circle class="cls-2" cx="25.64" cy="45.12" r="7.32"/><line class="cls-1" x1="38.82" y1="50.6" x2="38.82" y2="59.58"/><line class="cls-1" x1="42.94" y1="50.6" x2="42.94" y2="59.58"/><circle class="cls-2" cx="40.88" cy="45.12" r="7.32"/><line class="cls-1" x1="54.06" y1="50.6" x2="54.06" y2="59.58"/><line class="cls-1" x1="58.17" y1="50.6" x2="58.17" y2="59.58"/><circle class="cls-2" cx="56.12" cy="45.12" r="7.32"/><line class="cls-1" x1="69.3" y1="50.6" x2="69.3" y2="59.58"/><line class="cls-1" x1="73.41" y1="50.6" x2="73.41" y2="59.58"/><circle class="cls-2" cx="71.35" cy="45.12" r="7.32"/><line class="cls-1" x1="84.53" y1="50.6" x2="84.53" y2="59.58"/><line class="cls-1" x1="88.65" y1="50.6" x2="88.65" y2="59.58"/><circle class="cls-2" cx="86.59" cy="45.12" r="7.32"/><line class="cls-1" x1="99.77" y1="50.6" x2="99.77" y2="59.58"/><line class="cls-1" x1="103.89" y1="50.6" x2="103.89" y2="59.58"/><circle class="cls-2" cx="101.83" cy="45.12" r="7.32"/><line class="cls-1" x1="115.01" y1="50.6" x2="115.01" y2="59.58"/><line class="cls-1" x1="119.12" y1="50.6" x2="119.12" y2="59.58"/><circle class="cls-2" cx="117.06" cy="45.12" r="7.32"/><line class="cls-1" x1="8.35" y1="70.11" x2="8.35" y2="61.13"/><line class="cls-1" x1="12.46" y1="70.11" x2="12.46" y2="61.13"/><circle class="cls-2" cx="10.4" cy="75.6" r="7.32"/><line class="cls-1" x1="23.58" y1="70.11" x2="23.58" y2="61.13"/><line class="cls-1" x1="27.7" y1="70.11" x2="27.7" y2="61.13"/><circle class="cls-2" cx="25.64" cy="75.6" r="7.32"/><line class="cls-1" x1="38.82" y1="70.11" x2="38.82" y2="61.13"/><line class="cls-1" x1="42.94" y1="70.11" x2="42.94" y2="61.13"/><circle class="cls-2" cx="40.88" cy="75.6" r="7.32"/><line class="cls-1" x1="54.06" y1="70.11" x2="54.06" y2="61.13"/><line class="cls-1" x1="58.17" y1="70.11" x2="58.17" y2="61.13"/><circle class="cls-2" cx="56.12" cy="75.6" r="7.32"/><line class="cls-1" x1="69.3" y1="70.11" x2="69.3" y2="61.13"/><line class="cls-1" x1="73.41" y1="70.11" x2="73.41" y2="61.13"/><circle class="cls-2" cx="71.35" cy="75.6" r="7.32"/><line class="cls-1" x1="84.53" y1="70.11" x2="84.53" y2="61.13"/><line class="cls-1" x1="88.65" y1="70.11" x2="88.65" y2="61.13"/><circle class="cls-2" cx="86.59" cy="75.6" r="7.32"/><line class="cls-1" x1="99.77" y1="70.11" x2="99.77" y2="61.13"/><line class="cls-1" x1="103.89" y1="70.11" x2="103.89" y2="61.13"/><circle class="cls-2" cx="101.83" cy="75.6" r="7.32"/><line class="cls-1" x1="115.01" y1="70.11" x2="115.01" y2="61.13"/><line class="cls-1" x1="119.12" y1="70.11" x2="119.12" y2="61.13"/><circle class="cls-2" cx="117.06" cy="75.6" r="7.32"/><path class="cls-2" d="M67.69,69.39S63.24,66.64,62,63.77s-3.5-8.07-5.38-8-6.21,6.38-9.15,22.34c-4.13,22.43,5.27,25.83,5.27,25.83Z"/></svg>