<svg id="BioArt&#x751F;&#x7269;&#x827A;&#x672F;" xmlns="http://www.w3.org/2000/svg" viewbox="0 0 128 128" width="128" height="128"><defs><style>.cls-1{fill:none;stroke:#000;stroke-miterlimit:10;}</style></defs><title>BioArt&#x751F;&#x7269;&#x827A;&#x672F;</title><path class="cls-1" d="M123,57.3l.47-5.09L121.37,52l-.47,5.05-1.46-.12.47-5-2.09-.19-.47,5.08-1.47-.07.47-5.11-2.09-.19-.49,5.24c-3.41-.07-7.57,0-12.46.35l-.57-5-2.08.24.56,5h-.09l-1.37.14-.56-4.91-2.08.24.56,4.92-1.45.21-.56-4.93-2.08.24.57,5c-3.67.66-7.53,1.57-11.49,2.65l-1.42-4.91-2,.58,1.41,4.88-1.41.41-1.4-4.84-2,.58,1.41,4.86-1.4.43L72.44,58l-2,.58,1.41,4.88c-4.35,1.38-8.74,2.87-13,4.38L57.19,63l-2,.67,1.61,4.79L55.43,69l-1.6-4.77-2,.67,1.61,4.8-1.38.49-1.61-4.78-2,.67,1.62,4.82c-3.17,1.13-6.27,2.22-9.22,3.24-1.26.43-2.54.81-3.83,1.16l-.91-5-2.06.38L35,75.78l-1.43.32L32.63,71l-2.06.38.94,5.11-1.45.25-.93-5-2.06.38.92,5a99.83,99.83,0,0,1-12.43.85l.22-5.08-2.09-.09-.22,5.17-1.47,0,.22-5.17-2.09-.09L9.9,77.81l-1.46-.07.22-5.13-2.09-.09-.22,5.08c-1-.08-1.62-.15-1.65-.16l-.36,3a93.73,93.73,0,0,0,10.42.53c7.39,0,17.63-.74,27.09-4,3.31-1.13,6.79-2.37,10.37-3.64C68,67.69,86,61.32,99.39,60.19c16.08-1.35,24.93.34,25,.36l.58-2.94C124.9,57.59,124.22,57.46,123,57.3Z"/></svg>