<svg id="BioArt&#x751F;&#x7269;&#x827A;&#x672F;" xmlns="http://www.w3.org/2000/svg" viewbox="0 0 128 128" width="128" height="128"><defs><style>.cls-1{fill:#a7a7b5;stroke:none;}.cls-1,.cls-2{stroke:#000;stroke-miterlimit:10;}.cls-2{fill:none;stroke:none;}</style></defs><title>BioArt&#x751F;&#x7269;&#x827A;&#x672F;</title><path class="cls-1" d="M81.77,51c4.62-10.57,12.62-17.47,20.37-16.35l1-6.93C91.64,26.06,80.59,35,74.86,49.22l-.09.08a53.21,53.21,0,0,0-9-.76h-.07a53.28,53.28,0,0,0-9,.79l-.12-.07A43.85,43.85,0,0,0,49,36.77c-6.07-6.84-13.42-10-20.7-8.94l1,6.92c4.86-.71,10,1.65,14.44,6.66a36.31,36.31,0,0,1,6,9.62C32.61,56.56,21,70.57,21,86.21a32,32,0,0,0,.22,3.68A16.6,16.6,0,0,0,27.5,101a15.75,15.75,0,0,0,11.9,3.2l.15,0c7.28-1.07,13.4-6.24,17.24-14.54,3.61-7.8,4.79-17.58,3.32-27.52-.11-.78-.25-1.55-.4-2.32l-.1-.5v0L59.53,59q-.18-.88-.39-1.74l0-.13c-.08-.33-.16-.66-.25-1v0a46.28,46.28,0,0,1,6.89-.53,47.34,47.34,0,0,1,6.88.51C72.39,57,72.17,58,72,59l-.05.26,0,.2-.06.3c-.15.8-.29,1.6-.41,2.41h0c-1.44,9.95-.23,19.71,3.39,27.51q.36.78.75,1.52c3.88,7.4,9.7,12,16.53,13h0l.14,0a15.75,15.75,0,0,0,11.89-3.23,16.6,16.6,0,0,0,6.27-11.16,32.09,32.09,0,0,0,.21-3.68C110.59,70.45,98.92,56.49,81.77,51ZM50.43,86.73c-2.81,6.08-7,9.83-11.9,10.55h-.1a8.82,8.82,0,0,1-6.65-1.81,9.57,9.57,0,0,1-3.63-6.42A25,25,0,0,1,28,86.2c0-12.61,9.72-24,24.05-28.55l0,.12c.08.29.15.59.22.88s.19.79.28,1.19c0,.19.09.38.13.58.18.91.36,1.82.49,2.75h0C54.45,71.79,53.47,80.15,50.43,86.73Zm53,2.24a9.57,9.57,0,0,1-3.61,6.43,8.81,8.81,0,0,1-6.63,1.83l-.11,0c-4.87-.7-9.1-4.44-11.93-10.52-3.06-6.57-4.06-14.94-2.81-23.55.12-.85.27-1.69.44-2.53v0c.05-.26.11-.52.17-.79q.19-.88.41-1.75l.12-.45c14.34,4.52,24.11,15.87,24.13,28.48A25,25,0,0,1,103.45,89Z"/><path class="cls-2" d="M110.4,89.77a32.09,32.09,0,0,0,.21-3.68c0-16.79-13.48-31.66-32.71-36.16h0a53.08,53.08,0,0,0-12.08-1.39h-.07A53.12,53.12,0,0,0,53.59,50h0C34.36,54.52,21,69.43,21,86.21"/><path class="cls-2" d="M28,86.2C28,72.68,39.15,60.58,55.2,56.77h0a46.12,46.12,0,0,1,10.55-1.24A44.76,44.76,0,0,1,76.3,56.75h0c16.06,3.76,27.29,15.83,27.31,29.35a25,25,0,0,1-.16,2.87"/></svg>