<svg id="BioArt&#x751F;&#x7269;&#x827A;&#x672F;" xmlns="http://www.w3.org/2000/svg" viewbox="0 0 128 128" width="128" height="128"><defs><style>.cls-1{fill:#a7a7b5;stroke:#000;stroke-miterlimit:10;}</style></defs><title>BioArt&#x751F;&#x7269;&#x827A;&#x672F;</title><path class="cls-1" d="M14.19,107.39l-.74,0a3,3,0,0,1,.35-6c.16,0,7.85.3,24.27-4.53,15.86-4.66,20.68-9.38,20.72-9.42A3,3,0,0,1,63,87.38a3,3,0,0,1,.12,4.2c-.55.59-5.92,5.91-23.38,11C24.8,107,16.59,107.39,14.19,107.39Z"/><circle class="cls-1" cx="18.24" cy="101.12" r="1.58" transform="translate(-30.54 10.69) rotate(-18.12)"/><circle class="cls-1" cx="25.95" cy="99.81" r="1.58" transform="translate(-29.75 13.02) rotate(-18.12)"/><circle class="cls-1" cx="33.37" cy="98.23" r="1.58" transform="translate(-28.89 15.25) rotate(-18.12)"/><circle class="cls-1" cx="40.81" cy="96.05" r="1.58" transform="translate(-27.85 17.45) rotate(-18.12)"/><circle class="cls-1" cx="48.12" cy="93.46" r="1.58" transform="translate(-26.68 19.6) rotate(-18.12)"/><circle class="cls-1" cx="54.84" cy="90.34" r="1.58" transform="translate(-25.37 21.53) rotate(-18.12)"/><path class="cls-1" d="M72.93,86.82c-.41.17-.64.25-.69.26a3,3,0,0,1-1.92-5.68c.15-.06,7.39-2.67,20.8-13.3,13-10.27,15.65-16.45,15.67-16.51a3,3,0,0,1,3.9-1.64,3,3,0,0,1,1.68,3.85c-.29.76-3.27,7.7-17.53,19C82.62,82.48,75.16,85.92,72.93,86.82Z"/><circle class="cls-1" cx="74.33" cy="79.48" r="1.58" transform="translate(-33.74 66.67) rotate(-40.16)"/><circle class="cls-1" cx="80.98" cy="75.38" r="1.58" transform="translate(-29.52 69.99) rotate(-40.16)"/><circle class="cls-1" cx="87.26" cy="71.13" r="1.58" transform="translate(-25.3 73.04) rotate(-40.16)"/><circle class="cls-1" cx="93.35" cy="66.32" r="1.58" transform="translate(-20.76 75.83) rotate(-40.16)"/><circle class="cls-1" cx="99.15" cy="61.17" r="1.58" transform="translate(-16.08 78.36) rotate(-40.16)"/><circle class="cls-1" cx="104.21" cy="55.75" r="1.58" transform="translate(-11.39 80.34) rotate(-40.16)"/><path class="cls-1" d="M25.27,93.08l-.74.06a3,3,0,0,1-.28-6c.16,0,7.84-.53,23.66-7C63.2,73.8,67.5,68.6,67.54,68.55a3,3,0,0,1,4.2-.5,3,3,0,0,1,.56,4.16c-.49.65-5.27,6.5-22.09,13.43C35.78,91.58,27.66,92.83,25.27,93.08Z"/><circle class="cls-1" cx="28.64" cy="86.41" r="1.58" transform="translate(-32.83 19.27) rotate(-24.14)"/><circle class="cls-1" cx="36.16" cy="84.3" r="1.58" transform="translate(-31.31 22.16) rotate(-24.14)"/><circle class="cls-1" cx="43.38" cy="81.95" r="1.58" transform="translate(-29.72 24.9) rotate(-24.14)"/><circle class="cls-1" cx="50.55" cy="79.01" r="1.58" transform="translate(-27.89 27.58) rotate(-24.14)"/><circle class="cls-1" cx="57.55" cy="75.67" r="1.58" transform="translate(-25.91 30.15) rotate(-24.14)"/><circle class="cls-1" cx="63.91" cy="71.85" r="1.58" transform="translate(-23.79 32.41) rotate(-24.14)"/><path class="cls-1" d="M81.53,66.45c-.39.21-.61.31-.66.33a3,3,0,0,1-2.51-5.45c.15-.07,7.07-3.43,19.29-15.41,11.8-11.57,13.84-18,13.86-18.06a3,3,0,0,1,3.7-2,3,3,0,0,1,2.08,3.65c-.21.78-2.44,8-15.44,20.74C90.71,61.13,83.65,65.33,81.53,66.45Z"/><circle class="cls-1" cx="82.15" cy="59.01" r="1.58" transform="translate(-17.31 77.42) rotate(-46.17)"/><circle class="cls-1" cx="88.33" cy="54.23" r="1.58" transform="translate(-11.96 80.41) rotate(-46.17)"/><circle class="cls-1" cx="94.14" cy="49.35" r="1.58" transform="translate(-6.65 83.09) rotate(-46.17)"/><circle class="cls-1" cx="99.68" cy="43.93" r="1.58" transform="translate(-1.03 85.43) rotate(-46.17)"/><circle class="cls-1" cx="104.92" cy="38.2" r="1.58" transform="translate(4.7 87.44) rotate(-46.17)"/><circle class="cls-1" cx="109.38" cy="32.28" r="1.58" transform="translate(10.35 88.84) rotate(-46.17)"/><path class="cls-1" d="M48.4,72.47c-.42.14-.66.2-.71.22a3,3,0,0,1-1.55-5.8c.16,0,7.54-2.19,21.62-11.93,13.59-9.41,16.68-15.4,16.71-15.46a3,3,0,0,1,4-1.38,3,3,0,0,1,1.43,3.95c-.34.73-3.76,7.47-18.72,17.84C58.35,68.77,50.68,71.72,48.4,72.47Z"/><circle class="cls-1" cx="50.27" cy="65.24" r="1.58" transform="translate(-28.93 42.63) rotate(-36.45)"/><circle class="cls-1" cx="57.17" cy="61.57" r="1.58" transform="translate(-25.4 46.01) rotate(-36.45)"/><circle class="cls-1" cx="63.71" cy="57.74" r="1.58" transform="translate(-21.84 49.15) rotate(-36.45)"/><circle class="cls-1" cx="70.1" cy="53.33" r="1.58" transform="translate(-17.97 52.08) rotate(-36.45)"/><circle class="cls-1" cx="76.22" cy="48.58" r="1.58" transform="translate(-13.95 54.79) rotate(-36.45)"/><circle class="cls-1" cx="81.62" cy="43.49" r="1.58" transform="translate(-9.87 57) rotate(-36.45)"/></svg>