<svg id="BioArt&#x751F;&#x7269;&#x827A;&#x672F;" xmlns="http://www.w3.org/2000/svg" viewbox="0 0 128 128" width="128" height="128"><defs><style>.cls-1{fill:none;stroke:#000;stroke-linecap:round;stroke-linejoin:round;}</style></defs><title>BioArt&#x751F;&#x7269;&#x827A;&#x672F;</title><path class="cls-1" d="M116.5,66.08c0,11.94-23,15.63-51.36,15.63S13.78,78,13.78,66.08s23-24,51.36-24S116.5,54.14,116.5,66.08Z"/><rect class="cls-1" x="29.57" y="62.3" width="11" height="3" rx="1.5" ry="1.5"/><rect class="cls-1" x="29.57" y="65.3" width="11" height="3" rx="1.5" ry="1.5"/><rect class="cls-1" x="29.57" y="68.3" width="11" height="3" rx="1.5" ry="1.5"/><rect class="cls-1" x="89.71" y="62.3" width="11" height="3" rx="1.5" ry="1.5"/><rect class="cls-1" x="89.71" y="65.3" width="11" height="3" rx="1.5" ry="1.5"/><rect class="cls-1" x="89.71" y="68.3" width="11" height="3" rx="1.5" ry="1.5"/><rect class="cls-1" x="59.64" y="55" width="11" height="3" rx="1.5" ry="1.5"/><rect class="cls-1" x="59.64" y="58" width="11" height="3" rx="1.5" ry="1.5"/><rect class="cls-1" x="59.64" y="61" width="11" height="3" rx="1.5" ry="1.5"/></svg>