<svg id="BioArt&#x751F;&#x7269;&#x827A;&#x672F;" xmlns="http://www.w3.org/2000/svg" viewbox="0 0 128 128" width="128" height="128"><defs><style>.cls-1{fill:none;stroke:#000;stroke-linecap:round;stroke-linejoin:round;}</style></defs><title>BioArt&#x751F;&#x7269;&#x827A;&#x672F;</title><path class="cls-1" d="M33.83,119.28a10.13,10.13,0,0,1-2.57-.34c-3.37-.88-6.13-3.66-8-8-4.75-11.17-3.95-33.71,9-56.79,3.37-6,6.58-11.24,9.72-15.81a62.5,62.5,0,0,0-19.11-2l-.39-5A65.25,65.25,0,0,1,45.09,34C56.85,18.41,68.12,12.08,84,10.77,97.43,9.67,105.6,16.64,107.72,24s-1.52,15-9.35,19C86.39,49.2,69.56,48.2,46.94,40A190.27,190.27,0,0,0,36.64,56.56c-11.6,20.65-13.2,42-8.78,52.39.86,2,2.37,4.57,4.66,5.16,5,1.3,10.2-5.88,16.26-14.19C56.07,89.92,64.33,78.59,76.4,76c7.52-1.61,13.93.22,18.06,5.14C98.94,86.48,100.1,95,97.29,102,92.8,113,85.8,116.07,85.5,116.2l-1.93-4.61c.2-.09,5.43-2.49,9.08-11.48,2.11-5.21,1.26-11.83-2-15.75-2.92-3.48-7.48-4.68-13.18-3.46-10.2,2.18-17.87,12.69-24.63,22C46.44,111.6,40.84,119.28,33.83,119.28ZM50.05,35.8C70.56,43,85.64,44,96.08,38.6c5.7-2.93,8.32-8,6.83-13.18C101.36,20,95,14.88,84.39,15.76,70.6,16.9,60.53,22.4,50.05,35.8Z"/><polygon points="24.81 24.45 24 24.29 24.88 33.04 25.7 33.2 24.81 24.45"/><polygon points="41.91 26.53 41.11 26.33 41.56 35.12 42.37 35.32 41.91 26.53"/><polygon points="59.26 32.03 58.46 31.8 58.58 40.51 58.58 40.6 59.38 40.84 59.26 32.03"/><polygon points="75.45 35.1 74.63 35.04 76.53 43.63 77.36 43.69 75.45 35.1"/><polygon points="90.93 33.62 90.87 33.55 90.11 33.87 95.64 40.59 95.7 40.66 96.47 40.34 90.93 33.62"/><polygon points="88.8 44.62 88.76 44.54 87.94 44.67 91.82 52.47 91.86 52.55 92.68 52.41 88.8 44.62"/><polygon points="68.41 44.34 68.4 44.25 67.6 44.05 68.1 52.74 68.1 52.84 68.92 53.03 68.41 44.34"/><polygon points="101.18 18.97 96.49 26.41 97.03 27.04 101.68 19.68 101.72 19.6 101.18 18.97"/><polygon points="113.14 35.33 104.37 34.66 104.07 35.43 112.75 36.11 112.84 36.11 113.14 35.33"/><polygon points="81.74 14.49 80.91 14.59 84.47 22.54 84.51 22.62 85.33 22.52 81.74 14.49"/><polygon points="90.34 4.78 89.5 4.72 91.5 13.2 91.52 13.29 92.34 13.34 90.34 4.78"/><polygon points="63.89 20.74 63.82 20.67 63.1 21.11 69.62 26.89 69.69 26.95 70.39 26.52 63.89 20.74"/><polygon points="66.27 8.23 66.21 8.16 65.46 8.53 71.38 14.91 71.45 14.97 72.19 14.61 66.27 8.23"/><polygon points="47.89 20.97 47.8 20.92 47.23 21.53 55.1 25.46 55.67 24.86 47.89 20.97"/><polygon points="39.1 47.72 38.68 48.44 47.24 50.48 47.66 49.77 39.1 47.72"/><polygon points="24.85 52.88 24.43 53.6 32.99 55.64 33.41 54.93 24.85 52.88"/><polygon points="30.13 63.41 30.04 63.4 29.71 64.17 38.47 65.11 38.79 64.36 30.13 63.41"/><polygon points="17.48 70.21 17.39 70.19 17.06 70.97 25.81 71.91 26.14 71.15 17.48 70.21"/><polygon points="24.62 80.94 24.44 81.75 33.21 81.01 33.38 80.2 24.62 80.94"/><polygon points="13.53 91.52 13.4 92.35 22.11 91.11 22.24 90.3 13.53 91.52"/><polygon points="32.7 98.54 24.44 101.6 24.5 102.43 32.75 99.36 32.7 98.54"/><polygon points="27.48 113.58 20.15 118.46 20.39 119.26 27.71 114.37 27.48 113.58"/><polygon points="36.21 106.09 35.39 106.22 39.23 114.14 40.05 114.01 36.21 106.09"/><polygon points="48.25 106.32 47.63 106.87 55.14 111.45 55.77 110.89 48.25 106.32"/><polygon points="59.43 91.52 58.82 92.06 66.33 96.65 66.95 96.09 59.43 91.52"/><polygon points="71.86 81.35 71.06 81.55 75.61 89.08 76.42 88.87 71.86 81.35"/><polygon points="90.59 82.54 90.13 81.85 84.58 88.68 85.05 89.38 90.59 82.54"/><polygon points="45.26 94.13 45.17 94.09 44.6 94.69 52.38 98.6 52.46 98.64 53.04 98.03 45.26 94.13"/><polygon points="58.46 78.27 58.4 78.19 57.63 78.51 63.12 85.26 63.18 85.33 63.95 85.01 58.46 78.27"/><polygon points="77.39 68.96 76.58 68.86 78.09 77.53 78.92 77.63 77.39 68.96"/><polygon points="99.86 76.55 93.63 82.63 93.56 82.7 93.95 83.44 100.24 77.28 99.86 76.55"/><polygon points="96.42 95.71 96.21 96.52 105.01 96.17 105.22 95.38 96.42 95.71"/><polygon points="84.88 100.02 84.47 100.75 93.06 102.7 93.46 101.99 84.88 100.02"/><path d="M89.53,109.1l7.86,3.34-.36.43-7.87-3.33Z"/><path d="M97.07,113,89,109.59l.54-.64,8.1,3.44Zm-7.7-3.53L97,112.72l.19-.23-7.62-3.24Z"/></svg>