<svg id="BioArt&#x751F;&#x7269;&#x827A;&#x672F;" xmlns="http://www.w3.org/2000/svg" viewbox="0 0 128 128" width="128" height="128"><defs><style>.cls-1{fill:#a7a7b5;stroke:#000;stroke-miterlimit:10;}</style></defs><title>BioArt&#x751F;&#x7269;&#x827A;&#x672F;</title><path class="cls-1" d="M35.33,66.11A3.7,3.7,0,0,1,32.51,60,91.48,91.48,0,0,1,62.33,38.49a73.56,73.56,0,0,1,34.1-5.87A3.7,3.7,0,1,1,95.68,40a67.13,67.13,0,0,0-30.32,5.26A85.53,85.53,0,0,0,38.14,64.82,3.7,3.7,0,0,1,35.33,66.11Z"/><path class="cls-1" d="M26.57,91.34a3.7,3.7,0,0,1-1.26-7.18h0c.09,0,9.36-3.48,15-11.06,6.9-9.2,21.23-18.61,34.08-22.37,26.26-7.69,39.33-1.53,39.88-1.26a3.7,3.7,0,0,1-3.25,6.65c-.08,0-11.37-5.07-34.54,1.72-11.29,3.31-24.3,11.78-30.24,19.71-7,9.39-18,13.41-18.45,13.58A3.71,3.71,0,0,1,26.57,91.34Z"/><path class="cls-1" d="M25.06,110.85a3.7,3.7,0,0,1-1-7.25c.19-.06,10.12-3.06,17.27-9.07,2-1.69,4.24-3.95,6.82-6.56,7.29-7.38,16.37-16.57,29-21.88,19.47-8.16,34.26-2.3,34.88-2a3.7,3.7,0,1,1-2.8,6.85c-.11,0-12.7-4.9-29.21,2C68.71,77.65,60.21,86.25,53.38,93.16c-2.6,2.63-5.05,5.11-7.32,7-8.39,7.06-19.48,10.37-19.95,10.51A3.7,3.7,0,0,1,25.06,110.85Z"/><path class="cls-1" d="M60.53,110.3A3.78,3.78,0,0,1,57,105.24,41.16,41.16,0,0,1,72.25,86.88c12.06-8.07,22.08-7.24,22.5-7.2A3.78,3.78,0,0,1,94,87.2s-7.91-.53-17.6,6A33.59,33.59,0,0,0,64.08,107.8,3.78,3.78,0,0,1,60.53,110.3Z"/><path class="cls-1" d="M25.86,56.63a3.7,3.7,0,0,1-1.74-7A14.63,14.63,0,0,0,30,43.13C36.82,26.74,50,25,50.57,24.91a3.7,3.7,0,0,1,.88,7.35c-.35,0-9.53,1.47-14.65,13.72a22,22,0,0,1-9.23,10.22A3.69,3.69,0,0,1,25.86,56.63Z"/><path class="cls-1" d="M63.33,28.31c-.5,0-.82,0-.94,0a3.7,3.7,0,0,1,.55-7.38,16.22,16.22,0,0,0,6.74-1.37c13.93-6.1,20.09-1.92,21.18-1,0,0,2.8,2.23.95,4.78-2.1,2.89-5.66.93-5.66.93S82.48,22,72.65,26.31A23.8,23.8,0,0,1,63.33,28.31Z"/></svg>