<svg id="BioArt&#x751F;&#x7269;&#x827A;&#x672F;" xmlns="http://www.w3.org/2000/svg" viewbox="0 0 128 128" width="128" height="128"><defs><style>.cls-1,.cls-2{fill:#a7a7b5;stroke:none;}.cls-2{stroke:#000;stroke-miterlimit:10;}</style></defs><title>BioArt&#x751F;&#x7269;&#x827A;&#x672F;</title><ellipse class="cls-1" cx="64.68" cy="65.41" rx="56.8" ry="13.54"/><path d="M64.68,79.45c-32.13,0-57.3-6.17-57.3-14s25.17-14,57.3-14,57.3,6.17,57.3,14S96.81,79.45,64.68,79.45Zm0-27.07c-30.52,0-56.3,6-56.3,13s25.78,13,56.3,13,56.3-6,56.3-13S95.2,52.37,64.68,52.37Z"/><path class="cls-2" d="M43.49,76.08c-5.49-.15-8-1.92-9.53-4.34-1.82-2.81-.52-6.62.27-8.92.19-.55.22-1.82-1.21-1.82-1,0-1.48.48-2.69,2.54-1.8,3.08-4.86,7.91-12.32,6.85-3.07-.44-4.59-2.54-4.22-4.4.86-4.34,5.62-6.48,6.87-6.39s.44,1.56-2.06,4.2c-1.06,1.12-1.21,3,1.06,3.22,3.22.29,4.83-3,6.19-5.3s2.9-5,6.65-5.1c2-.08,4.75.28,6.21,2.25s.7,4.15,0,6.24c-.51,1.48-2.51,6.24,4.47,5.49,6.16-.66-1.53-7.86.54-11.83,1.53-2.93,5.11-4.49,13.36-4.64,6.11-.1,9.65.88,11.33,3.32,5.25,7.63-2.06,13.07,4.94,12.71,7.39-.38-4.19-14,12.3-14.29,8.57-.16,8,8.35,8,10.62a2.32,2.32,0,1,0,4.57-.23c-.51-3.24.09-7.73,5.6-7.92,10.49-.38,10.2,10.19,9,11.35s-2.39,0-2.63-1.56c-1.18-7.8-8.27-6.88-7.85-2.72.37,3.64,1,7.11-5.83,7.75s-7.33-4.93-7.63-7.07c-.85-6.1-7-4.57-6.58-.42.27,2.59,2.74,9.67-8.28,10.39-5.72.38-9.22-.7-10.66-3.13-3.8-6.41,2.87-13.79-6.52-13.32-5.26.26-7.87,2.5-5,5.76C59.82,74.23,48.53,76.22,43.49,76.08ZM17.06,65.63Z"/></svg>