<svg id="BioArt&#x751F;&#x7269;&#x827A;&#x672F;" xmlns="http://www.w3.org/2000/svg" viewbox="0 0 128 128" width="128" height="128"><defs><style>.cls-1{fill:none;stroke:#000;stroke-linecap:round;stroke-linejoin:round;}</style></defs><title>BioArt&#x751F;&#x7269;&#x827A;&#x672F;</title><path class="cls-1" d="M63.14,19.29V55a3,3,0,0,1-2.95,2.95H18.14L18,57.53a5.59,5.59,0,0,0-4.49-3.38A5.42,5.42,0,0,0,7.71,61a5.31,5.31,0,0,0,3.1,3.54,5.42,5.42,0,0,0,7.07-2.81l.26-.59h42a3,3,0,0,1,3,3v42.05l-.41.18a5.59,5.59,0,0,0-3.39,4.49,5.42,5.42,0,0,0,6.83,5.75,5.31,5.31,0,0,0,3.53-3.1,5.42,5.42,0,0,0-2.81-7.06l-.59-.26V65.31l1.58,1.22c3.48,2.68,6.83,3.79,8,2.56,1-1,.13-3.55-2.1-6.38l-1.25-1.59h38.81l.18.41A5.6,5.6,0,0,0,116,64.91a5.42,5.42,0,0,0,5.75-6.82,5.31,5.31,0,0,0-3.1-3.54,5.42,5.42,0,0,0-7.07,2.81l-.26.59H69.26A3,3,0,0,1,66.32,55V12.28h2V54a2,2,0,0,0,2,2h39.82a7.37,7.37,0,1,1,0,7.1H76.44c2,3.1,2.33,5.72.86,7.33a3.74,3.74,0,0,1-2.85,1.15c-2.09,0-4.42-1.2-6.18-2.36v35.67a7.37,7.37,0,1,1-7.1,0V65.07a2,2,0,0,0-2-2H19.38a7.37,7.37,0,1,1,0-7.1H59.21a2,2,0,0,0,2-2V19.29Z"/></svg>