<svg id="BioArt&#x751F;&#x7269;&#x827A;&#x672F;" xmlns="http://www.w3.org/2000/svg" viewbox="0 0 128 128" width="128" height="128"><defs><style>.cls-1{fill:none;stroke:none;}.cls-1,.cls-2{stroke:#000;stroke-miterlimit:10;}.cls-2{fill:#a7a7b5;stroke:none;}</style></defs><title>BioArt&#x751F;&#x7269;&#x827A;&#x672F;</title><line class="cls-1" x1="8.31" y1="50.6" x2="8.31" y2="59.58"/><line class="cls-1" x1="12.43" y1="50.6" x2="12.43" y2="59.58"/><circle class="cls-2" cx="10.37" cy="45.12" r="7.32"/><line class="cls-1" x1="23.55" y1="50.6" x2="23.55" y2="59.58"/><line class="cls-1" x1="27.66" y1="50.6" x2="27.66" y2="59.58"/><circle class="cls-2" cx="25.61" cy="45.12" r="7.32"/><line class="cls-1" x1="38.79" y1="50.6" x2="38.79" y2="59.58"/><line class="cls-1" x1="42.9" y1="50.6" x2="42.9" y2="59.58"/><circle class="cls-2" cx="40.84" cy="45.12" r="7.32"/><line class="cls-1" x1="54.02" y1="50.6" x2="54.02" y2="59.58"/><line class="cls-1" x1="58.14" y1="50.6" x2="58.14" y2="59.58"/><circle class="cls-2" cx="56.08" cy="45.12" r="7.32"/><line class="cls-1" x1="69.26" y1="50.6" x2="69.26" y2="59.58"/><line class="cls-1" x1="73.38" y1="50.6" x2="73.38" y2="59.58"/><circle class="cls-2" cx="71.32" cy="45.12" r="7.32"/><line class="cls-1" x1="84.5" y1="50.6" x2="84.5" y2="59.58"/><line class="cls-1" x1="88.61" y1="50.6" x2="88.61" y2="59.58"/><circle class="cls-2" cx="86.56" cy="45.12" r="7.32"/><line class="cls-1" x1="99.74" y1="50.6" x2="99.74" y2="59.58"/><line class="cls-1" x1="103.85" y1="50.6" x2="103.85" y2="59.58"/><circle class="cls-2" cx="101.79" cy="45.12" r="7.32"/><line class="cls-1" x1="114.97" y1="50.6" x2="114.97" y2="59.58"/><line class="cls-1" x1="119.09" y1="50.6" x2="119.09" y2="59.58"/><circle class="cls-2" cx="117.03" cy="45.12" r="7.32"/><line class="cls-1" x1="8.31" y1="70.11" x2="8.31" y2="61.13"/><line class="cls-1" x1="12.43" y1="70.11" x2="12.43" y2="61.13"/><circle class="cls-2" cx="10.37" cy="75.6" r="7.32"/><line class="cls-1" x1="23.55" y1="70.11" x2="23.55" y2="61.13"/><line class="cls-1" x1="27.66" y1="70.11" x2="27.66" y2="61.13"/><circle class="cls-2" cx="25.61" cy="75.6" r="7.32"/><line class="cls-1" x1="38.79" y1="70.11" x2="38.79" y2="61.13"/><line class="cls-1" x1="42.9" y1="70.11" x2="42.9" y2="61.13"/><circle class="cls-2" cx="40.84" cy="75.6" r="7.32"/><line class="cls-1" x1="54.02" y1="70.11" x2="54.02" y2="61.13"/><line class="cls-1" x1="58.14" y1="70.11" x2="58.14" y2="61.13"/><circle class="cls-2" cx="56.08" cy="75.6" r="7.32"/><line class="cls-1" x1="69.26" y1="70.11" x2="69.26" y2="61.13"/><line class="cls-1" x1="73.38" y1="70.11" x2="73.38" y2="61.13"/><circle class="cls-2" cx="71.32" cy="75.6" r="7.32"/><line class="cls-1" x1="84.5" y1="70.11" x2="84.5" y2="61.13"/><line class="cls-1" x1="88.61" y1="70.11" x2="88.61" y2="61.13"/><circle class="cls-2" cx="86.56" cy="75.6" r="7.32"/><line class="cls-1" x1="99.74" y1="70.11" x2="99.74" y2="61.13"/><line class="cls-1" x1="103.85" y1="70.11" x2="103.85" y2="61.13"/><circle class="cls-2" cx="101.79" cy="75.6" r="7.32"/><line class="cls-1" x1="114.97" y1="70.11" x2="114.97" y2="61.13"/><line class="cls-1" x1="119.09" y1="70.11" x2="119.09" y2="61.13"/><circle class="cls-2" cx="117.03" cy="75.6" r="7.32"/></svg>