<svg id="BioArt&#x751F;&#x7269;&#x827A;&#x672F;" xmlns="http://www.w3.org/2000/svg" viewbox="0 0 128 128" width="128" height="128"><defs><style>.cls-1{fill:none;stroke:none;}.cls-1,.cls-2{stroke:#000;stroke-miterlimit:10;}.cls-2{fill:#a7a7b5;stroke:none;}</style></defs><title>BioArt&#x751F;&#x7269;&#x827A;&#x672F;</title><line class="cls-1" x1="8.66" y1="50.6" x2="8.66" y2="59.58"/><line class="cls-1" x1="12.77" y1="50.6" x2="12.77" y2="59.58"/><circle class="cls-2" cx="10.71" cy="45.12" r="7.32"/><line class="cls-1" x1="23.89" y1="50.6" x2="23.89" y2="59.58"/><line class="cls-1" x1="28.01" y1="50.6" x2="28.01" y2="59.58"/><circle class="cls-2" cx="25.95" cy="45.12" r="7.32"/><line class="cls-1" x1="39.13" y1="50.6" x2="39.13" y2="59.58"/><line class="cls-1" x1="43.25" y1="50.6" x2="43.25" y2="59.58"/><circle class="cls-2" cx="41.19" cy="45.12" r="7.32"/><line class="cls-1" x1="54.37" y1="50.6" x2="54.37" y2="59.58"/><line class="cls-1" x1="58.48" y1="50.6" x2="58.48" y2="59.58"/><circle class="cls-2" cx="56.43" cy="45.12" r="7.32"/><line class="cls-1" x1="69.61" y1="50.6" x2="69.61" y2="59.58"/><line class="cls-1" x1="73.72" y1="50.6" x2="73.72" y2="59.58"/><circle class="cls-2" cx="71.66" cy="45.12" r="7.32"/><line class="cls-1" x1="84.84" y1="50.6" x2="84.84" y2="59.58"/><line class="cls-1" x1="88.96" y1="50.6" x2="88.96" y2="59.58"/><circle class="cls-2" cx="86.9" cy="45.12" r="7.32"/><line class="cls-1" x1="100.08" y1="50.6" x2="100.08" y2="59.58"/><line class="cls-1" x1="104.2" y1="50.6" x2="104.2" y2="59.58"/><circle class="cls-2" cx="102.14" cy="45.12" r="7.32"/><line class="cls-1" x1="115.32" y1="50.6" x2="115.32" y2="59.58"/><line class="cls-1" x1="119.43" y1="50.6" x2="119.43" y2="59.58"/><circle class="cls-2" cx="117.38" cy="45.12" r="7.32"/><line class="cls-1" x1="8.66" y1="70.11" x2="8.66" y2="61.13"/><line class="cls-1" x1="12.77" y1="70.11" x2="12.77" y2="61.13"/><circle class="cls-2" cx="10.71" cy="75.6" r="7.32"/><line class="cls-1" x1="23.89" y1="70.11" x2="23.89" y2="61.13"/><line class="cls-1" x1="28.01" y1="70.11" x2="28.01" y2="61.13"/><circle class="cls-2" cx="25.95" cy="75.6" r="7.32"/><line class="cls-1" x1="39.13" y1="70.11" x2="39.13" y2="61.13"/><line class="cls-1" x1="43.25" y1="70.11" x2="43.25" y2="61.13"/><circle class="cls-2" cx="41.19" cy="75.6" r="7.32"/><line class="cls-1" x1="54.37" y1="70.11" x2="54.37" y2="61.13"/><line class="cls-1" x1="58.48" y1="70.11" x2="58.48" y2="61.13"/><circle class="cls-2" cx="56.43" cy="75.6" r="7.32"/><line class="cls-1" x1="69.61" y1="70.11" x2="69.61" y2="61.13"/><line class="cls-1" x1="73.72" y1="70.11" x2="73.72" y2="61.13"/><circle class="cls-2" cx="71.66" cy="75.6" r="7.32"/><line class="cls-1" x1="84.84" y1="70.11" x2="84.84" y2="61.13"/><line class="cls-1" x1="88.96" y1="70.11" x2="88.96" y2="61.13"/><circle class="cls-2" cx="86.9" cy="75.6" r="7.32"/><line class="cls-1" x1="100.08" y1="70.11" x2="100.08" y2="61.13"/><line class="cls-1" x1="104.2" y1="70.11" x2="104.2" y2="61.13"/><circle class="cls-2" cx="102.14" cy="75.6" r="7.32"/><line class="cls-1" x1="115.32" y1="70.11" x2="115.32" y2="61.13"/><line class="cls-1" x1="119.43" y1="70.11" x2="119.43" y2="61.13"/><circle class="cls-2" cx="117.38" cy="75.6" r="7.32"/><path class="cls-2" d="M66.67,102.06H61.42a2.84,2.84,0,0,1-2.83-2.83l-7-51.08,6-22.66c0-1.56,2.28-2.83,3.83-2.83h5.25c1.56,0,3.83,1.28,3.83,2.83l6,22.66-7,51.08A2.84,2.84,0,0,1,66.67,102.06Z"/></svg>