<svg id="bugs&#x6606;&#x866B;" xmlns="http://www.w3.org/2000/svg" viewbox="0 0 128 128" width="128" height="128"><defs><style>.cls-1{fill:#413a30;stroke:none;}.cls-2{fill:#b8762b;stroke:none;}.cls-3{fill:#67594a;stroke:none;}.cls-4{fill:#3f403a;stroke:none;}.cls-5{fill:#a77c3d;stroke:none;}.cls-6{fill:#503923;stroke:none;}.cls-7{fill:#725d55;stroke:none;}.cls-8{fill:#5a432e;stroke:none;}.cls-9{fill:#3f2d1a;stroke:none;}.cls-10{fill:#dbd9da;stroke:none;}.cls-10,.cls-11{opacity:0.6;stroke:none;}.cls-11{fill:#af895c;stroke:none;}.cls-12{fill:#b8752a;stroke:none;}.cls-13{fill:#d88b35;stroke:none;}.cls-14{fill:#ca2e20;stroke:none;}.cls-15{fill:#ef3920;stroke:none;}</style></defs><title>bugs&#x6606;&#x866B;</title><path class="cls-1" d="M69.19,21.38a.3.3,0,0,0-.34.26c0,.06-.82,6.22-2.08,12.15-.9,4.22-1.65,6.74-2,7.86V17.32a.3.3,0,0,0-.61,0V41.65c-.36-1.12-1.1-3.64-2-7.86-1.27-5.93-2.07-12.09-2.08-12.15a.3.3,0,0,0-.34-.26.3.3,0,0,0-.26.33c0,.06.82,6.25,2.09,12.2a69.91,69.91,0,0,0,2.26,8.63.3.3,0,0,0,.29.2h.06V43a.3.3,0,0,0,.61,0v-.3h.06a.3.3,0,0,0,.29-.2,69.91,69.91,0,0,0,2.26-8.63c1.27-6,2.08-12.14,2.09-12.2A.3.3,0,0,0,69.19,21.38Z"/><path class="cls-2" d="M37.39,5.14v-1l16,16.29s.78,1.62-.17,6.66S51,37.88,51,37.88s3.69,3.53,5.88,5.65S62,48.46,62,48.46l-.45.84S50.3,39.45,50.1,38.11c-.53-3.53,3.2-16.34,2.69-17.13C52.44,20.46,37.39,5.14,37.39,5.14Z"/><path class="cls-3" d="M53.18,27.14c-1,5-2.18,10.75-2.18,10.75s.16-2,1.29-8.64c1-5.61.66-7.62.54-8.12a.39.39,0,0,0,0-.11v0c-.34-.52-15.39-15.84-15.39-15.84v-1l16,16.29S54.13,22.1,53.18,27.14Z"/><path class="cls-2" d="M91.71,5.14v-1l-16,16.29s-.78,1.62.17,6.66,2.18,10.75,2.18,10.75-3.69,3.53-5.88,5.65-5.15,4.93-5.15,4.93l.45.84S78.8,39.45,79,38.11c.53-3.53-3.2-16.34-2.69-17.13C76.66,20.46,91.71,5.14,91.71,5.14Z"/><path class="cls-3" d="M75.93,27.14c1,5,2.18,10.75,2.18,10.75s-.16-2-1.29-8.64c-1-5.61-.66-7.62-.54-8.12a.39.39,0,0,1,0-.11v0c.34-.52,15.39-15.84,15.39-15.84v-1l-16,16.29S75,22.1,75.93,27.14Z"/><path class="cls-4" d="M51.3,85.67S38.66,91.93,38,92.5s-4.69,4.36-5.33,7.58c-1.07,5.34-.53,4.7-1.11,4.66s-.45-2.08,0-3.71,3.06-7.07,6.49-9.59,12.25-6.57,12.25-6.57Z"/><path class="cls-5" d="M61.44,54.16S48.88,64,48.88,65s.66,20.53,1.06,20.62,1.81.53,1.76-.31-2-19.61-1.5-20,11.85-10,11.85-10Z"/><path class="cls-6" d="M50,63.69c3.06-2.95,11.46-9.52,11.46-9.52l.62,1.1s-11.32,9.65-11.85,10,1.45,19.17,1.5,20-1.37.4-1.76.31Z"/><path class="cls-6" d="M62.1,56.8s-8.93,10.13-9,11.58,5.79,18.31,5.7,18.88-9.55,16.21-10.68,18.08a.67.67,0,0,0-.1.39,6.83,6.83,0,0,1,0,1.38c-.09.13-11.81,15-12.47,15.12s-1.15-.13-.27-1,9.89-11.86,11.34-13.64a.74.74,0,0,0,.17-.53,4,4,0,0,1,.16-1.92C47.33,104.64,57.5,88,57.5,88s.49-.27-.35-2.61-6.06-16-5.48-16.94,4.78-7.56,6.46-9.55a22.71,22.71,0,0,1,3.49-3.32Z"/><path class="cls-7" d="M35.3,121.27c.81-.77,9.89-11.86,11.34-13.64a.74.74,0,0,0,.17-.53,4,4,0,0,1,.16-1.92C47.33,104.64,57.5,88,57.5,88s.49-.27-.35-2.61c-.66-1.85-4-10.69-5.16-14.84,1.47,3.95,4.54,12.12,5.12,13.46.78,1.77,1.12,3.28.91,4-.1.35-.37,1.13-.62,1.86-2.71,4.66-8.38,14.06-9.24,15.48a.67.67,0,0,0-.1.39,6.83,6.83,0,0,1,0,1.38c-.09.13-11.81,15-12.47,15.12S34.42,122.11,35.3,121.27Z"/><path class="cls-4" d="M48,107.12c-.09.13-11.81,15-12.47,15.12s-1.15-.13-.27-1,9.89-11.86,11.34-13.64a.74.74,0,0,0,.11-.19l1.29-.32Z"/><path class="cls-4" d="M77.53,85.67s12.65,6.26,13.26,6.83,4.69,4.36,5.33,7.58c1.07,5.34.53,4.7,1.11,4.66s.45-2.08,0-3.71S94.14,94,90.7,91.44s-12.25-6.57-12.25-6.57Z"/><path class="cls-5" d="M67.39,54.16S79.95,64,79.95,65s-.66,20.53-1.06,20.62-1.81.53-1.76-.31,2-19.61,1.5-20-11.85-10-11.85-10Z"/><path class="cls-6" d="M78.85,63.69c-3.06-2.95-11.46-9.52-11.46-9.52l-.62,1.1s11.32,9.65,11.85,10-1.45,19.17-1.5,20,1.37.4,1.76.31Z"/><path class="cls-6" d="M66.73,56.8s8.93,10.13,9,11.58S69.91,86.69,70,87.27s9.55,16.21,10.68,18.08a.67.67,0,0,1,.1.39,6.83,6.83,0,0,0,0,1.38c.09.13,11.81,15,12.47,15.12s1.15-.13.27-1-9.89-11.86-11.34-13.64a.74.74,0,0,1-.17-.53,4,4,0,0,0-.16-1.92C81.5,104.64,71.33,88,71.33,88s-.49-.27.35-2.61,6.06-16,5.48-16.94-4.78-7.56-6.46-9.55a22.71,22.71,0,0,0-3.49-3.32Z"/><path class="cls-7" d="M93.53,121.27c-.81-.77-9.89-11.86-11.34-13.64a.74.74,0,0,1-.17-.53,4,4,0,0,0-.16-1.92C81.5,104.64,71.33,88,71.33,88s-.49-.27.35-2.61c.66-1.85,4-10.69,5.16-14.84C75.37,74.48,72.31,82.65,71.72,84c-.78,1.77-1.12,3.28-.91,4,.1.35.37,1.13.62,1.86,2.71,4.66,8.38,14.06,9.24,15.48a.67.67,0,0,1,.1.39,6.83,6.83,0,0,0,0,1.38c.09.13,11.81,15,12.47,15.12S94.41,122.11,93.53,121.27Z"/><path class="cls-4" d="M80.79,107.12c.09.13,11.81,15,12.47,15.12s1.15-.13.27-1-9.89-11.86-11.34-13.64a.74.74,0,0,1-.11-.19l-1.29-.32Z"/><path class="cls-8" d="M67.74,48.1c-.12-1.23-1.38-2.12-1.6-2.46s.06-1.75.06-1.75l-.46-2-.55-1.26-.06.16c-.12.2-.41.67-.68.74-.27-.08-.57-.54-.68-.74l-.06-.16-.55,1.26-.46,2s.28,1.41.06,1.75-1.47,1.23-1.6,2.46-.18,9.5.09,10a2.59,2.59,0,0,0,1.6,1.08c.61.09,1.08.18.55.52a4.52,4.52,0,0,0-1.54,3.29c0,1.6.58,15.86.86,16.38s1,1.38,1.66,1.38c0,0,0,0,.06,0s0,0,.06,0c.65,0,1.38-.86,1.66-1.38s.89-14.78.86-16.38a4.52,4.52,0,0,0-1.54-3.29c-.52-.34-.06-.43.55-.52a2.59,2.59,0,0,0,1.6-1.08C67.92,57.59,67.86,49.33,67.74,48.1Z"/><path class="cls-9" d="M65.93,42.72a4.11,4.11,0,0,0-.31,3c.52,1.57,1.58.85,1.65,3.86s.12,8-.44,8.61a3.49,3.49,0,0,1-1.38,1.06,3.74,3.74,0,0,1,.59-.12,2.59,2.59,0,0,0,1.6-1.08c.28-.46.22-8.73.09-10s-1.38-2.12-1.6-2.46.06-1.75.06-1.75Z"/><path class="cls-10" d="M40.46,48.31c-6.85-1.5-12-2.68-14.1-1.13S24.23,50.07,25,51s4.94,4.26,17.68,5.89,19.29.37,19.68-2C62.81,51.84,47.31,49.8,40.46,48.31Z"/><path class="cls-11" d="M55.54,51.35c1.48.86,3.78,2.49,3.56,3.12-.32.91-1.41,1.81-5.4,2.4-1.86.27-3.45.48-4.64.62,8.52.51,12.94-.68,13.26-2.61C62.54,53.52,59.54,52.35,55.54,51.35Z"/><path class="cls-10" d="M88.38,48.31c6.85-1.5,12-2.68,14.1-1.13s2.13,2.9,1.41,3.81-4.94,4.26-17.68,5.89-19.29.37-19.68-2C66,51.84,81.54,49.8,88.38,48.31Z"/><path class="cls-11" d="M73.3,51.35c-1.48.86-3.78,2.49-3.56,3.12.32.91,1.41,1.81,5.4,2.4,1.86.27,3.45.48,4.64.62-8.52.51-12.94-.68-13.26-2.61C66.3,53.52,69.31,52.35,73.3,51.35Z"/><path class="cls-12" d="M64.37,45.3c-.4,0-2.06,2.4-2.14,4.25s-.24,5,.44,6.4,1.29,2.23,1.69,2.23,2-1.6,2.14-3.2.44-5.22-.32-7S64.78,45.3,64.37,45.3Z"/><path class="cls-13" d="M64,46.36a4.27,4.27,0,0,0-1.21,2.47,12.65,12.65,0,0,0,0,3.84c.28.85.54,1.37.74,1.39a2.74,2.74,0,0,0,1.17-1.84A13.27,13.27,0,0,0,64.79,48C64.49,46.9,64.21,46.37,64,46.36Z"/><path class="cls-12" d="M64.33,59.93C64.05,59.87,63,64.38,63,67.3s.81,9.26,1.33,9.26,1.41-6.76,1.45-9.26S64.62,60,64.33,59.93Z"/><path class="cls-13" d="M64.31,61.1a16,16,0,0,0-.82,4.64c-.06,1.85.33,5.89.62,5.9s.86-4.25.91-5.83A16.57,16.57,0,0,0,64.31,61.1Z"/><path class="cls-14" d="M64.71,42.42a2.42,2.42,0,0,0,1.37,1.78,1,1,0,0,0,1.47-.49,1.82,1.82,0,0,0-.81-2.07,2,2,0,0,0-1.34-.14A.83.83,0,0,0,64.71,42.42Z"/><path class="cls-15" d="M66.1,42.46a1.26,1.26,0,0,0,.7.72c.23.08.44-.07.43-.37a1.1,1.1,0,0,0-.55-.91.5.5,0,0,0-.47.06A.41.41,0,0,0,66.1,42.46Z"/><path class="cls-14" d="M64.15,42.42a2.42,2.42,0,0,1-1.37,1.78,1,1,0,0,1-1.47-.49,1.82,1.82,0,0,1,.81-2.07,2,2,0,0,1,1.34-.14A.83.83,0,0,1,64.15,42.42Z"/><path class="cls-15" d="M62.76,42.46a1.26,1.26,0,0,1-.7.72c-.23.08-.44-.07-.43-.37a1.1,1.1,0,0,1,.55-.91.5.5,0,0,1,.47.06A.41.41,0,0,1,62.76,42.46Z"/><path class="cls-9" d="M66.17,79.32c.28-.52.89-14.78.86-16.38a4.52,4.52,0,0,0-1.54-3.29,11.48,11.48,0,0,1,1,5.44c0,3.57-.18,14-2,14.48a1.78,1.78,0,0,1-2-1.07,4.2,4.2,0,0,0,.12.83c.16.31.6,1.4,1.76,1.39S66.06,79.53,66.17,79.32Z"/></svg>