<svg xmlns="http://www.w3.org/2000/svg" viewbox="0 0 128 128" width="128" height="128"><defs><style>.cls-1{isolation:isolate;stroke:none;}.cls-2{fill:#050a11;stroke:none;}.cls-3{fill:#23222a;stroke:none;}.cls-4{fill:#038fc9;stroke:none;}.cls-5{fill:#2b2f33;stroke:none;}.cls-6{fill:#3d4145;stroke:none;}.cls-7{fill:#2d3236;stroke:none;}.cls-8{fill:#08718e;stroke:none;}.cls-9{fill:#0891a4;stroke:none;}.cls-10,.cls-14{fill:#a1957d;stroke:none;}.cls-11{fill:#9dba79;stroke:none;}.cls-12{fill:#dbd9da;stroke:none;}.cls-12,.cls-13{opacity:0.6;stroke:none;}.cls-13{fill:#af895c;stroke:none;}.cls-14{opacity:0.34;mix-blend-mode:multiply;stroke:none;}</style></defs><title>bugs&#x6606;&#x866B;</title><g class="cls-1"><g id="bugs&#x6606;&#x866B;"><path class="cls-2" d="M68.75,48.32c.09.06,3.16,9.89,3.54,10.54s3.07,4.83,3,5-.61-.15-.64.09a2.58,2.58,0,0,1-.59,1c-.12.06.47-1.49.12-2.14s-2.49-3.69-2.63-4.19-1.76-6.15-2.31-7.14-.82-1.4-.82-1.4Z"/><path class="cls-2" d="M61.39,48.32c-.09.06-3.16,9.89-3.54,10.54s-3.07,4.83-3,5,.61-.15.64.09a2.58,2.58,0,0,0,.59,1c.12.06-.47-1.49-.12-2.14s2.49-3.69,2.63-4.19S60.4,52.48,61,51.49s.82-1.4.82-1.4Z"/><path class="cls-3" d="M68,33.6c.13,0,4.28-1.45,4.45-1.92a3.56,3.56,0,0,0,0-2.16c-.27-.74-.64-1.45-.27-1.35s2.66-3.81,2.93-4.11.07.34.3.4.64-.3.64-.3a1.1,1.1,0,0,1-.54.67C75.16,25,73,27.7,73,28.34s.64,3,.17,3.77-2.19,1.28-3.34,1.72a9.66,9.66,0,0,0-1.35.57Z"/><path class="cls-3" d="M62.13,33.6c-.13,0-4.28-1.45-4.45-1.92a3.56,3.56,0,0,1,0-2.16c.27-.74.64-1.45.27-1.35S55.25,24.37,55,24.06s-.07.34-.3.4-.64-.3-.64-.3a1.1,1.1,0,0,0,.54.67c.4.17,2.56,2.86,2.6,3.51s-.64,3-.17,3.77,2.19,1.28,3.34,1.72a9.66,9.66,0,0,1,1.35.57Z"/><path class="cls-4" d="M69.21,34.13a29.75,29.75,0,0,0-2.46-2.46,6.66,6.66,0,0,0,2,.18c1.5,0,1.86-.24,1.8-2.16s-2.34-3.47-2.34-3.47.06-2.68-3.32-2.69h0c-3.38,0-3.32,2.69-3.32,2.69s-2.28,1.56-2.34,3.47.3,2.16,1.8,2.16a6.66,6.66,0,0,0,2-.18,29.75,29.75,0,0,0-2.46,2.46c-.72.9-.9,1.5-1,4.73s-.42,5.15,1,6.17a12.65,12.65,0,0,0,1.92,1.26,2.64,2.64,0,0,0-1.62,2.64c-.12,2.22,1.5,5,1.8,7.49A41.11,41.11,0,0,1,63,66.48c-.3,6.11-1.56,28.52-.6,33.13S64.27,106,64.69,106H65c.42,0,1.32-1.74,2.28-6.35s-.07-27-.37-33.13a45.8,45.8,0,0,1,.25-10.07c.3-2.52,1.92-5.27,1.8-7.49a2.64,2.64,0,0,0-1.62-2.64A12.65,12.65,0,0,0,69.27,45c1.38-1,1.08-2.94,1-6.17S69.93,35,69.21,34.13Z"/><path class="cls-2" d="M61,31.85a6.66,6.66,0,0,0,2-.18,29.75,29.75,0,0,0-2.46,2.46c-.72.9-.9,1.5-1,4.73s-.42,5.15,1,6.17a12.65,12.65,0,0,0,1.92,1.26,2.64,2.64,0,0,0-1.62,2.64c0,.11,0,.23,0,.35a17.14,17.14,0,0,1,1.67.52A18.79,18.79,0,0,1,65,51.72a18.78,18.78,0,0,1,2.6-1.92c.34-.14.83-.29,1.33-.43,0-.15,0-.3,0-.45a2.64,2.64,0,0,0-1.62-2.64A12.65,12.65,0,0,0,69.27,45c1.38-1,1.08-2.94,1-6.17s-.3-3.83-1-4.73a29.75,29.75,0,0,0-2.46-2.46,6.66,6.66,0,0,0,2,.18c1.5,0,1.86-.24,1.8-2.16s-2.34-3.47-2.34-3.47.06-2.68-3.32-2.69h0c-3.38,0-3.32,2.69-3.32,2.69s-2.28,1.56-2.34,3.47S59.48,31.85,61,31.85Z"/><path class="cls-5" d="M63,47a1.85,1.85,0,0,0-1.21,1.82c0,.08,0,.16,0,.24.46.12.94.25,1.25.36A14,14,0,0,1,65,50.73a14,14,0,0,1,1.94-1.33c.25-.09.62-.2,1-.3,0-.1,0-.21,0-.31A1.85,1.85,0,0,0,66.72,47"/><path class="cls-6" d="M63.43,47.57a1,1,0,0,0-.67,1s0,.09,0,.13c.26.06.52.14.69.2a7.76,7.76,0,0,1,1.07.73,7.76,7.76,0,0,1,1.07-.73c.14-.05.34-.11.55-.16,0-.06,0-.12,0-.17a1,1,0,0,0-.67-1"/><path class="cls-2" d="M66.35,91.37c-.28-3.11.64-5.29.21-6.21s-1.2-2.4-.85-3.6,1.2-3.74.85-4.38a6.26,6.26,0,0,1-.78-4.09c.42-1.55,1-3.46.56-4.8a11.21,11.21,0,0,1-.56-4.16,2.21,2.21,0,0,0,.07-1.76c-.28-.42-.85-2-.28-2.47s.92-.92.56-1.13a2.42,2.42,0,0,1-.21-2.61c.56-1.06,1.62-2.12.85-2.26s-1.27-.35-1.48-.85l-.21-.49L65,52.47l-.06.08-.21.49c-.21.49-.71.71-1.48.85s.28,1.2.85,2.26a2.42,2.42,0,0,1-.21,2.61c-.35.21,0,.71.56,1.13s0,2-.28,2.47a2.21,2.21,0,0,0,.07,1.76,11.21,11.21,0,0,1-.56,4.16c-.42,1.34.14,3.25.56,4.8a6.26,6.26,0,0,1-.78,4.09c-.35.64.49,3.18.85,4.38s-.42,2.68-.85,3.6.49,3.11.21,6.21C63.46,94,62.38,94.89,62,95.12a31.17,31.17,0,0,0,.37,4.5c1,4.61,1.86,6.35,2.28,6.35H65c.42,0,1.32-1.74,2.28-6.35a32.86,32.86,0,0,0,.38-4.77A5.4,5.4,0,0,1,66.35,91.37Z"/><path class="cls-7" d="M65.48,53.89a1.47,1.47,0,0,1-.93-.54,2.26,2.26,0,0,1-1.28.54c-.78.14.28,1.2.85,2.26a2.42,2.42,0,0,1-.21,2.61c-.35.21,0,.71.56,1.13a.49.49,0,0,1,.08.1.5.5,0,0,1,.06-.1c.41-.42.67-.92.41-1.13a3.17,3.17,0,0,1-.15-2.61C65.27,55.09,66,54,65.48,53.89Z"/><path class="cls-7" d="M64.41,105.77c.34-.56.88-2.41,1.45-6.16a45,45,0,0,0,.28-4.77,6.58,6.58,0,0,1-1-3.46c-.2-3.11.46-5.29.15-6.21a7.48,7.48,0,0,1-.61-3.6c.26-1.2.87-3.74.61-4.38a8.28,8.28,0,0,1-.56-4.09,13.1,13.1,0,0,0,.41-4.8,15.21,15.21,0,0,1-.41-4.16,3,3,0,0,0,.05-1.76,4.44,4.44,0,0,1-.26-.85,3.63,3.63,0,0,1-.36.85,2.21,2.21,0,0,0,.07,1.76,11.21,11.21,0,0,1-.56,4.16c-.42,1.34.14,3.25.56,4.8a6.26,6.26,0,0,1-.78,4.09c-.35.64.49,3.18.85,4.38s-.42,2.68-.85,3.6.49,3.11.21,6.21C63.46,94,62.38,94.89,62,95.12a31.17,31.17,0,0,0,.37,4.5C63.19,103.36,63.93,105.21,64.41,105.77Z"/><path class="cls-5" d="M64.7,32.85c-.71,0-3.6,2.25-3.74,4s-.42,4.69.78,6,2.26,2.09,3,2.09,3.46-1.5,3.74-3,.78-4.89-.57-6.58S65.41,32.85,64.7,32.85Z"/><path class="cls-6" d="M64.22,34.21A4.26,4.26,0,0,0,61.91,37c-.09,1.2-.26,3.24.48,4.14s1.39,1.44,1.83,1.44,2.13-1,2.31-2.07.48-3.38-.35-4.55S64.65,34.21,64.22,34.21Z"/><path class="cls-2" d="M69.91,40.78s1.49,2.2,2.2,2.36,3.47-.46,5.66.83,3.49,2.12,3.76,2.2,1-.32,1.33.12.34.55.34.55-.87-.53-1.15-.24.89.75.89.75-.26.28-1-.18-3.6-2.44-4.83-2.77A24.06,24.06,0,0,0,72.5,44a3.68,3.68,0,0,1-2.12-.89,3.25,3.25,0,0,1-.59-.73Z"/><path class="cls-2" d="M60.23,40.78S58.73,43,58,43.15s-3.47-.46-5.66.83-3.49,2.12-3.76,2.2-1-.32-1.33.12-.34.55-.34.55.87-.53,1.15-.24-.89.75-.89.75.26.28,1-.18,3.6-2.44,4.83-2.77A24.06,24.06,0,0,1,57.64,44a3.68,3.68,0,0,0,2.12-.89,3.25,3.25,0,0,0,.59-.73Z"/><path class="cls-8" d="M70.53,29.69a2.63,2.63,0,0,0-.09-.54,9.57,9.57,0,0,0-1.62-2.43,7.65,7.65,0,0,0-.62-.5s0,0,0,0a24,24,0,0,0-3.37-.35,22.88,22.88,0,0,0-3.31.35s0,0,0,0-2.24,1.54-2.33,3.43c0,.58.43,1.1,1.46,1.42A4.49,4.49,0,0,0,65,29.78s.78,1.85,4.28,1.39a1.49,1.49,0,0,0,1.22-.65A7.6,7.6,0,0,0,70.53,29.69Z"/><path class="cls-9" d="M69.52,28.6a1.17,1.17,0,0,0-.07-.32,6,6,0,0,0-1.34-1.44,8.06,8.06,0,0,0-3.28-.62,12,12,0,0,0-3.23.52s-1.33.71-1.41,1.83c0,.34.35.65,1.2.84a4.56,4.56,0,0,0,3.6-.77s.64,1.1,3.52.82a1.39,1.39,0,0,0,1-.38A3.24,3.24,0,0,0,69.52,28.6Z"/><path class="cls-10" d="M70.71,28.12a2.15,2.15,0,0,1-1.26,2.71c-1,.21-1.32-.81-1.6-2.09s-.38-2.35.59-2.56S70.43,26.83,70.71,28.12Z"/><path class="cls-11" d="M70.3,27.75a1.36,1.36,0,0,1-.8,1.71c-.62.13-.84-.51-1-1.32s-.24-1.49.38-1.62S70.13,26.93,70.3,27.75Z"/><path class="cls-12" d="M66.85,40.19a1.65,1.65,0,0,1,1.46-1.68c.94-.11,2.12-.24,2.93-.29,1.51-.1,5.38-.89,8.62-.37A142.19,142.19,0,0,0,98.5,39.46c7.1.05,13.58-.37,18.12,1.72s6.84,5.06,4.12,6.21-11,4.23-18.22,4.23-15.66-.57-18.38-1.46-13.84-5.38-14.57-5.85-2.56-1.93-2.66-3C66.88,40.95,66.86,40.56,66.85,40.19Z"/><path class="cls-12" d="M75.65,46.08c4.31,1.61,11.62,4.43,16.51,6s14.27,4,17.32,6.27,9.09,7.54,7,10-22.27,1.78-29.57-.12-17.3-7.28-18.07-11.45C65.59,39,71.34,44.47,75.65,46.08Z"/><path class="cls-12" d="M63.29,40.19a1.65,1.65,0,0,0-1.46-1.68c-.94-.11-2.12-.24-2.93-.29-1.51-.1-5.38-.89-8.62-.37a142.19,142.19,0,0,1-18.64,1.62c-7.1.05-13.58-.37-18.12,1.72S6.69,46.25,9.4,47.4s11,4.23,18.22,4.23S43.29,51.06,46,50.17s13.84-5.38,14.57-5.85,2.56-1.93,2.66-3C63.26,40.95,63.28,40.56,63.29,40.19Z"/><path class="cls-12" d="M54.49,46.08c-4.31,1.61-11.62,4.43-16.51,6s-14.27,4-17.32,6.27-9.09,7.54-7,10,22.27,1.78,29.57-.12,17.3-7.28,18.07-11.45C64.55,39,58.8,44.47,54.49,46.08Z"/><path class="cls-13" d="M80.54,38l-.68-.11c-3.24-.52-7.1.26-8.61.37-.8.06-2,.18-2.93.29a1.65,1.65,0,0,0-1.46,1.68c0,.37,0,.76.06,1.1.1,1.1,1.93,2.56,2.66,3,.36.23,3.17,1.41,6.28,2.66-1.48-1.51-3-3.41-2.95-4.65C73.06,40.43,78.52,38.57,80.54,38Z"/><path class="cls-13" d="M76.53,46.41l-.59-.22-.28-.11-.42-.17c-1.66-.67-3.71-1.74-5.36-1.88-1,.14-1.77,1-1.94,3.4,1.32.72,3.05,1.36,3.46,1.57.82.44.44-1.89,1-2.58s5.85.79,7.38,1.21Z"/><path class="cls-13" d="M49.61,38l.68-.11c3.24-.52,7.1.26,8.61.37.8.06,2,.18,2.93.29a1.65,1.65,0,0,1,1.46,1.68c0,.37,0,.76-.06,1.1-.1,1.1-1.93,2.56-2.66,3-.36.23-3.17,1.41-6.28,2.66,1.48-1.51,3-3.41,2.95-4.65C57.09,40.43,51.62,38.57,49.61,38Z"/><path class="cls-13" d="M50.36,47.63c1.54-.41,6.9-1.8,7.38-1.21s.19,3,1,2.58c.41-.22,2.14-.86,3.46-1.57-.16-2.37-.9-3.26-1.94-3.4-1.66.14-3.7,1.21-5.36,1.88l-.42.17-.89.33Z"/><path class="cls-14" d="M70.77,28.57c0,.45-.38,1.56-1.31,1.67-.67.07-1.25-.58-1.53-1.19.27,1.13.63,2,1.53,1.78A2,2,0,0,0,70.77,28.57Z"/><path class="cls-10" d="M59.11,28.12a2.15,2.15,0,0,0,1.26,2.71c1,.21,1.32-.81,1.6-2.09s.38-2.35-.59-2.56S59.38,26.83,59.11,28.12Z"/><path class="cls-11" d="M59.51,27.75a1.36,1.36,0,0,0,.8,1.71c.62.13.84-.51,1-1.32s.24-1.49-.38-1.62S59.68,26.93,59.51,27.75Z"/><path class="cls-14" d="M59,28.57c0,.45.38,1.56,1.31,1.67.67.07,1.25-.58,1.53-1.19-.27,1.13-.63,2-1.53,1.78A2,2,0,0,1,59,28.57Z"/></g></g></svg>