<svg id="bugs&#x6606;&#x866B;" xmlns="http://www.w3.org/2000/svg" viewbox="0 0 128 128" width="128" height="128"><defs><style>.cls-1{fill:#4b1206;stroke:none;}.cls-2{fill:#2d0a02;stroke:none;}.cls-3{fill:#310a02;stroke:none;}.cls-4{fill:maroon;stroke:none;}.cls-5{opacity:0.25;stroke:none;}.cls-6{fill:#231f20;stroke:none;}.cls-7{fill:#460a02;stroke:none;}.cls-8{opacity:0.26;stroke:none;}</style></defs><title>bugs&#x6606;&#x866B;</title><path class="cls-1" d="M70.8,54.6s.59.31,1.76-.43,6.72-5.63,9.5-5.63,2.38,2.14,4,5,5.88,10.28,9.47,13.65,5.91,5,6.69,5.2a5.82,5.82,0,0,1,1.33.5s-1.33-.06-1.39.43.62.93.62.93-1-.8-2-1.52a52,52,0,0,1-8-7.58C89.93,61.69,89,60.48,89,60.48a1.75,1.75,0,0,0-.12,1.08c.12.62.19.84.19.84s-.77-.28-1-2.38.25-2.23-.5-2.63-2-2.17-2.76-3.56-.65-3.25-1.7-3.16-4.12,2.29-7,3.9c-3.74,2.11-5.48,2-5.48,2Z"/><path class="cls-2" d="M86.06,53.55c-1.61-2.88-1.21-5-4-5s-8.33,4.89-9.5,5.63-1.76.43-1.76.43l-.12,1.92s1.74.16,5.48-2c2.85-1.61,5.91-3.81,7-3.9s.9,1.76,1.7,3.16,2,3.16,2.76,3.56a1.14,1.14,0,0,1,.28.2h0l.4-.25C87.34,55.81,86.57,54.45,86.06,53.55Z"/><path class="cls-1" d="M58.8,54.6s-.59.31-1.76-.43-6.72-5.63-9.5-5.63-2.38,2.14-4,5S37.65,63.83,34.06,67.2s-5.91,5-6.69,5.2a5.82,5.82,0,0,0-1.33.5s1.33-.06,1.39.43-.62.93-.62.93,1-.8,2-1.52a52,52,0,0,0,8-7.58c2.82-3.47,3.71-4.67,3.71-4.67a1.75,1.75,0,0,1,.12,1.08c-.12.62-.19.84-.19.84s.77-.28,1-2.38-.25-2.23.5-2.63,2-2.17,2.76-3.56.65-3.25,1.7-3.16,4.12,2.29,7,3.9c3.74,2.11,5.48,2,5.48,2Z"/><path class="cls-2" d="M43.54,53.55c1.61-2.88,1.21-5,4-5s8.33,4.89,9.5,5.63,1.76.43,1.76.43l.12,1.92s-1.74.16-5.48-2c-2.85-1.61-5.91-3.81-7-3.9s-.9,1.76-1.7,3.16S42.76,57,42,57.39a1.14,1.14,0,0,0-.28.2h0l-.4-.25C42.26,55.81,43,54.45,43.54,53.55Z"/><path class="cls-2" d="M69.4,46.48a2.28,2.28,0,0,0,2.74-1.07c.91-1.71,3-6.4,3.65-6.71s.79-.47,1.4-2.07c.33-.86,5-8.86,4.93-8.3S82,30.11,82,30.11s5.2-3.34,8.54-5.24,4.05-2.3,4.29-2.66,0,.4.64.44.56.08-.08.4S92,25.11,89.07,27,82,30.75,82,31a1.79,1.79,0,0,1-.6,1.59c-.64.68-4.86,5.84-4,5.64.62-.14.94.3.31.39-.84.12-2.08,1.4-2.88,4.1s0,5.84-1.95,7.11-3.73.6-3.69.4S69.4,46.48,69.4,46.48Z"/><path class="cls-1" d="M94.83,22.21c-.24.36-1,.75-4.29,2.66S82,30.11,82,30.11L82,31c-.08-.28,4.13-2.11,7-4s5.68-3.66,6.32-4,.68-.36.08-.4S95.07,21.85,94.83,22.21Z"/><path class="cls-2" d="M60.19,46.48a2.28,2.28,0,0,1-2.74-1.07c-.91-1.71-3-6.4-3.65-6.71s-.79-.47-1.4-2.07c-.33-.86-5-8.86-4.93-8.3s.12,1.79.12,1.79-5.2-3.34-8.54-5.24-4.05-2.3-4.29-2.66,0,.4-.64.44-.56.08.08.4,3.42,2.07,6.32,4,7.11,3.73,7,4a1.79,1.79,0,0,0,.6,1.59c.64.68,4.86,5.84,4,5.64-.62-.14-.94.3-.31.39.84.12,2.08,1.4,2.88,4.1s0,5.84,1.95,7.11,3.73.6,3.69.4S60.19,46.48,60.19,46.48Z"/><path class="cls-1" d="M34.77,22.21c.24.36,1,.75,4.29,2.66s8.54,5.24,8.54,5.24l0,.91c.08-.28-4.13-2.11-7-4s-5.68-3.66-6.32-4-.68-.36-.08-.4S34.53,21.85,34.77,22.21Z"/><path class="cls-1" d="M71.53,68a71.22,71.22,0,0,1,7.76,5.65c1.58,1.49,3.35,2.92,3,4.31s-2.2,6.8-2.83,9.87-2.54,8.14.1,17.25,5.41,13.8,5.65,13.89,1.1.57,1,.91-.77-.48-1-.24a.82.82,0,0,0-.19.62,43.07,43.07,0,0,1-6.32-16,51.89,51.89,0,0,1-1-13.94c-.24.34-1.2,1.72-1.2,1.1a6.17,6.17,0,0,1,1.34-2.92c.62-.62,1.39-.53,1.29-1.34s.1-4.93.77-6.32.62-1.77.43-1.82-.34-1.72-.81-1.92a34.23,34.23,0,0,1-5.27-4.41,44.88,44.88,0,0,1-4-4.46Z"/><path class="cls-2" d="M79.48,77.08c.48.19.62,1.87.81,1.92,0,0,.92.09,1.61.14.16-.51.29-.93.36-1.19.38-1.39-1.39-2.83-3-4.31A71.22,71.22,0,0,0,71.53,68l-1.29.24a44.88,44.88,0,0,0,4,4.46A34.23,34.23,0,0,0,79.48,77.08Z"/><path class="cls-1" d="M58.07,68a71.22,71.22,0,0,0-7.76,5.65c-1.58,1.49-3.35,2.92-3,4.31s2.2,6.8,2.83,9.87,2.54,8.14-.1,17.25-5.41,13.8-5.65,13.89-1.1.57-1,.91.77-.48,1-.24a.82.82,0,0,1,.19.62,43.07,43.07,0,0,0,6.32-16,51.89,51.89,0,0,0,1-13.94c.24.34,1.2,1.72,1.2,1.1a6.17,6.17,0,0,0-1.34-2.92c-.62-.62-1.39-.53-1.29-1.34s-.1-4.93-.77-6.32S49.12,79,49.31,79s.34-1.72.81-1.92a34.23,34.23,0,0,0,5.27-4.41,44.88,44.88,0,0,0,4-4.46Z"/><path class="cls-2" d="M50.12,77.08c-.48.19-.62,1.87-.81,1.92,0,0-.92.09-1.61.14-.16-.51-.29-.93-.36-1.19-.38-1.39,1.39-2.83,3-4.31A71.22,71.22,0,0,1,58.07,68l1.29.24a44.88,44.88,0,0,1-4,4.46A34.23,34.23,0,0,1,50.12,77.08Z"/><rect class="cls-2" x="63.26" y="67.67" width="3.12" height="2"/><rect class="cls-2" x="63.26" y="40.45" width="3.12" height="2"/><path class="cls-2" d="M66.47,23.69,65,22.78,66,24.14a1.73,1.73,0,0,1,.3.9.91.91,0,0,1-.34.76l-.36.25L67,27l.31-1.45A1.84,1.84,0,0,0,66.47,23.69Z"/><path class="cls-2" d="M63.06,25.22a1.72,1.72,0,0,1,.2-.92l1-1.52L62.78,23.9a1.82,1.82,0,0,0-.65,1.94l.47,1.41,1.27-1.09-.38-.21A.92.92,0,0,1,63.06,25.22Z"/><path class="cls-2" d="M69.81,29l-.44-.5a12.06,12.06,0,0,1,4.49-2.39,19.39,19.39,0,0,1,3.37-.47,5.32,5.32,0,0,0,1.23-.16h0a.71.71,0,0,1,.08-.2A38.64,38.64,0,0,1,88.81,12.6c7.61-6.28,9.69-5.82,9.9-5.75l-.21.63h-.07c-.41,0-2.69.27-9.19,5.64a38,38,0,0,0-10.1,12.44c-.08.16-.13.26-.15.3-.2.32-.7.36-1.71.43a18.8,18.8,0,0,0-3.26.46A11.56,11.56,0,0,0,69.81,29Z"/><path class="cls-3" d="M65.46,25.18a2.1,2.1,0,0,0-.6-.09h-.09a2.1,2.1,0,0,0-.6.09c-4.83.93-7.93,11.35-6.07,14,1.7,2.41,11.73,2.41,13.43,0C73.39,36.52,70.29,26.11,65.46,25.18Z"/><path class="cls-4" d="M65.36,30.76a2.27,2.27,0,0,0-.51-.06h-.07a2.27,2.27,0,0,0-.51.06c-4.07.6-6.69,7.34-5.12,9s9.89,1.56,11.32,0S69.43,31.36,65.36,30.76Z"/><path class="cls-4" d="M70.39,30.12a1.13,1.13,0,0,0-.61,1.34c.18,1.29,1,1.78,1.47,1.47a.84.84,0,0,0,.17-.16A18.31,18.31,0,0,0,70.39,30.12Z"/><path class="cls-4" d="M59.23,30.12a1.13,1.13,0,0,1,.61,1.34c-.18,1.29-1,1.78-1.47,1.47a.84.84,0,0,1-.17-.16A18.31,18.31,0,0,1,59.23,30.12Z"/><path class="cls-4" d="M68.28,58.88c-.3-.8.7-.7,1.66-1.26a2.19,2.19,0,0,0,1.26-2.72c-.35-1.46-1.36-1-1.81-1.31s0-1,.45-2.16a8.94,8.94,0,0,0-.91-7.24,4.7,4.7,0,0,0-8.22,0,8.94,8.94,0,0,0-.91,7.24c.45,1.16.91,1.86.45,2.16s-1.46-.15-1.81,1.31a2.19,2.19,0,0,0,1.26,2.72c1,.55,2,.45,1.66,1.26s-4.68,9.91-3.92,10.31,3.32-1.31,7.29-1.31l.09,0,.09,0c4,0,6.54,1.71,7.29,1.31S68.59,59.69,68.28,58.88Z"/><g class="cls-5"><path class="cls-6" d="M67.56,43.35a8.61,8.61,0,0,1,.94,7.22c-.47,1.15-.94,1.85-.47,2.15.28.18.78.09,1.2.31a14,14,0,0,1,.61-1.6,8.94,8.94,0,0,0-.91-7.24,5.4,5.4,0,0,0-2.59-2.13A6.06,6.06,0,0,1,67.56,43.35Z"/><path class="cls-6" d="M68.28,58.88c-.3-.8.7-.7,1.66-1.26a2.19,2.19,0,0,0,1.26-2.72,1.34,1.34,0,0,0-1.41-1.18,2.13,2.13,0,0,1,.11.3,2.16,2.16,0,0,1-1.3,2.71c-1,.55-2,.45-1.72,1.25s4.85,9.87,4.06,10.27S67.51,67,63.39,67l-.09,0-.09,0a18.44,18.44,0,0,0-5.64,1c-.21.69-.28,1.17-.12,1.25.75.4,3.32-1.31,7.29-1.31l.09,0,.09,0c4,0,6.54,1.71,7.29,1.31S68.59,59.69,68.28,58.88Z"/></g><ellipse class="cls-2" cx="64.83" cy="48.63" rx="2.85" ry="4.89"/><ellipse class="cls-2" cx="64.83" cy="55.51" rx="1.36" ry="1.27"/><ellipse class="cls-2" cx="64.83" cy="59.5" rx="1.85" ry="1.56"/><ellipse class="cls-2" cx="64.83" cy="64.87" rx="2.56" ry="2.4"/><ellipse class="cls-7" cx="64.83" cy="81.31" rx="8.8" ry="12.28"/><path class="cls-4" d="M72.71,86.76c0-.19,0-.37,0-.57a7.93,7.93,0,0,0-15.82,0c0,.19,0,.38,0,.57,1.44,4,4.42,6.82,7.88,6.82S71.26,90.8,72.71,86.76Z"/><path class="cls-2" d="M59.79,29l.44-.5a12.06,12.06,0,0,0-4.49-2.39,19.39,19.39,0,0,0-3.37-.47,5.32,5.32,0,0,1-1.23-.16h0a.71.71,0,0,0-.08-.2A38.64,38.64,0,0,0,40.79,12.6c-7.61-6.28-9.69-5.82-9.9-5.75l.21.63h.07c.41,0,2.69.27,9.19,5.64a38,38,0,0,1,10.1,12.44c.08.16.13.26.15.3.2.32.7.36,1.71.43a18.8,18.8,0,0,1,3.26.46A11.56,11.56,0,0,1,59.79,29Z"/><g class="cls-8"><path class="cls-6" d="M69.74,71.12A15.31,15.31,0,0,1,72,79.3c0,6.81-4,12.33-8.84,12.33a7.1,7.1,0,0,1-4.7-1.9,7.88,7.88,0,0,0,6.39,3.85c4.86,0,8.8-5.5,8.8-12.28A14.06,14.06,0,0,0,69.74,71.12Z"/></g></svg>