<svg id="bugs&#x6606;&#x866B;" xmlns="http://www.w3.org/2000/svg" viewbox="0 0 128 128" width="128" height="128"><defs><style>.cls-1{fill:#202020;stroke:none;}.cls-2{fill:#838383;stroke:none;}.cls-3{fill:#191717;stroke:none;}.cls-4{fill:#767676;stroke:none;}.cls-5{fill:#191919;stroke:none;}.cls-6{fill:#322c51;stroke:none;}.cls-7{fill:#2d2479;stroke:none;}.cls-8{fill:#343434;stroke:none;}.cls-9{fill:#130747;stroke:none;}.cls-10{fill:#7c0001;stroke:none;}.cls-11{fill:#a2191d;stroke:none;}.cls-12{fill:#3b4694;stroke:none;}.cls-13{fill:#6277b0;stroke:none;}.cls-14{fill:#545fa1;stroke:none;}.cls-15{fill:#dbd9da;stroke:none;}.cls-15,.cls-16{opacity:0.6;stroke:none;}.cls-16{fill:#af895c;stroke:none;}</style></defs><title>bugs&#x6606;&#x866B;</title><path class="cls-1" d="M50.55,54.22S40.39,65.56,40.47,66.43a10.6,10.6,0,0,0,.16,1.19S31.55,78.49,30.08,79.86s-4,3.9-3.48,4a2.22,2.22,0,0,0,1.9-.63c.42-.53,12.33-15.55,12.85-15.46s2.29-1.74,6.91-7.89c1.39-1.85,3-4.61,3-4.61Z"/><path class="cls-2" d="M40.76,68.28c-2.47,2.59-11.89,14.48-12.27,15a2.22,2.22,0,0,1-1.9.63c-.53-.11,2-2.64,3.48-4S40.63,67.62,40.63,67.62a10.6,10.6,0,0,1-.16-1.19Z"/><path class="cls-1" d="M49.48,46.85s-8.76,10.5-9,9.27.61-8.36,0-8.76S28,41.24,26.65,41.45s-10.7-1.73-9.38-.82,8.26,1.32,10,2.24,12,3.87,12,5.2-.71,11.82,0,12.23S49.52,49.93,49.52,49.93Z"/><path class="cls-2" d="M26.65,41.45a11.28,11.28,0,0,1,3.19,1l-2,.67c-.22-.09-.41-.17-.54-.24-1.73-.92-8.66-1.32-10-2.24S25.32,41.65,26.65,41.45Z"/><path class="cls-1" d="M81.14,46.85s8.76,10.5,9,9.27-.61-8.36,0-8.76,12.54-6.11,13.86-5.91,10.7-1.73,9.38-.82-8.26,1.32-10,2.24-12,3.87-12,5.2.71,11.82,0,12.23-10.79-9.73-10.79-9.73Z"/><path class="cls-2" d="M104,41.45a11.28,11.28,0,0,0-3.19,1l2,.67c.22-.09.41-.17.54-.24,1.73-.92,8.66-1.32,10-2.24S105.29,41.65,104,41.45Z"/><path class="cls-1" d="M80.07,54.22S90.23,65.56,90.15,66.43A10.6,10.6,0,0,1,90,67.62s9.07,10.87,10.55,12.24,4,3.9,3.48,4a2.22,2.22,0,0,1-1.9-.63c-.42-.53-12.33-15.55-12.85-15.46S87,66,82.37,59.89c-1.39-1.85-3-4.61-3-4.61Z"/><path class="cls-2" d="M89.85,68.28c2.47,2.59,11.89,14.48,12.27,15a2.22,2.22,0,0,0,1.9.63c.53-.11-2-2.64-3.48-4S90,67.62,90,67.62a10.6,10.6,0,0,0,.16-1.19Z"/><path class="cls-3" d="M78.29,34.72s3.26-7.44,3.87-7.95,3.36-6.73,4.08-8.05,5.5-9.58,5.2-8.56,1,.31,1,.31a22.63,22.63,0,0,0-3.26,5.2c-1.73,3.57-5.2,10.19-5.4,11.21a21.9,21.9,0,0,1-2,5.81,16.94,16.94,0,0,1-2.65,3.87Z"/><path class="cls-4" d="M92.45,10.47s-1.32.71-1-.31-4.48,7.24-5.2,8.56c-.15.27-.38.75-.66,1.34a5.3,5.3,0,0,1,1.25-.33h.35c.74-1.47,1.47-2.92,2-4.05A22.64,22.64,0,0,1,92.45,10.47Z"/><path class="cls-3" d="M52.33,34.72s-3.26-7.44-3.87-7.95S45.09,20,44.38,18.72s-5.5-9.58-5.2-8.56-1,.31-1,.31a22.63,22.63,0,0,1,3.26,5.2c1.73,3.57,5.2,10.19,5.4,11.21a21.9,21.9,0,0,0,2,5.81,16.94,16.94,0,0,0,2.65,3.87Z"/><path class="cls-4" d="M38.16,10.47s1.32.71,1-.31,4.48,7.24,5.2,8.56c.15.27.38.75.66,1.34a5.3,5.3,0,0,0-1.25-.33h-.35c-.74-1.47-1.47-2.92-2-4.05A22.64,22.64,0,0,0,38.16,10.47Z"/><path class="cls-5" d="M67.3,19.92s3.36-5.64,4.77-4.34-2.6,5.32-2.6,5.32Z"/><path class="cls-5" d="M63.32,19.92S60,14.27,58.54,15.58s2.6,5.32,2.6,5.32Z"/><path class="cls-6" d="M81.55,52.85c2-6.81-1.86-13.77-1.86-13.77a6.29,6.29,0,0,0-.45-4.54C78,32.43,75,32.13,75,32.13s-2-7.69-3.63-10.42c-1.56-2.55-5.5-3-6-3h-.05c-.5,0-4.44.47-6,3-1.66,2.72-3.63,10.42-3.63,10.42s-3,.3-4.24,2.42A6.29,6.29,0,0,0,51,39.09s-3.83,7-1.86,13.77S55.78,61,55.78,61s-10.69,3.63-7.06,16.64C50.54,84.17,57.94,100,65.34,100S80.14,84.17,82,77.67C85.58,64.66,74.89,61,74.89,61S79.58,59.66,81.55,52.85Z"/><path class="cls-7" d="M79.25,54.17c1.69-6-1.6-12.07-1.6-12.07a5.62,5.62,0,0,0-.39-4c-1-1.86-3.64-2.12-3.64-2.12s-1.69-10.61-3.12-13c-1.34-2.24-4.72-2.61-5.15-2.65h0c-.43,0-3.81.41-5.15,2.65C58.74,25.38,57,36,57,36s-2.6.27-3.64,2.12a5.62,5.62,0,0,0-.39,4s-3.29,6.1-1.6,12.07,5.71,7.16,5.71,7.16S48,64.52,51.07,75.93c1.56,5.7,7.91,19.59,14.26,19.59S78,81.64,79.6,75.93c3.12-11.41-6.06-14.59-6.06-14.59S77.56,60.14,79.25,54.17Z"/><path class="cls-8" d="M75,32.13s-2-7.69-3.63-10.42c-1.56-2.55-5.5-3-6-3h-.05c-.5,0-4.44.47-6,3-1.66,2.72-3.63,10.42-3.63,10.42a73.4,73.4,0,0,1,10-1.06A59.8,59.8,0,0,1,75,32.13Z"/><path class="cls-9" d="M82.67,71.68c0-.22,0-.43-.06-.64a48.23,48.23,0,0,1-34.51-.27c0,.26-.07.52-.09.79,0,.09,0,.17,0,.26s0,.36,0,.54a46,46,0,0,0,34.7.25c0-.22,0-.44,0-.65S82.68,71.77,82.67,71.68Z"/><path class="cls-9" d="M57.14,61.34a8.37,8.37,0,0,0-1.17.55A45.47,45.47,0,0,0,74.87,62a8.65,8.65,0,0,0-1.34-.65A6.8,6.8,0,0,0,75.71,60a47.44,47.44,0,0,1-21-.21A7.1,7.1,0,0,0,57.14,61.34Z"/><path class="cls-9" d="M65.69,88.08A61,61,0,0,1,52.32,86.6c.19.37.37.74.57,1.11a53.64,53.64,0,0,0,24.8.19c.2-.37.39-.75.57-1.12A61.22,61.22,0,0,1,65.69,88.08Z"/><path class="cls-10" d="M59.71,19.59s4.67.37,3.38,5.69-4.69,7.06-7.37,7.17-5-5.08-1.59-10.17A6.69,6.69,0,0,1,59.71,19.59Z"/><path class="cls-11" d="M58.17,21.09s2.38.19,1.72,2.89-2.38,3.59-3.75,3.65S53.6,25,55.33,22.45A3.4,3.4,0,0,1,58.17,21.09Z"/><path class="cls-10" d="M70.9,19.59s-4.67.37-3.38,5.69,4.69,7.06,7.37,7.17,5-5.08,1.59-10.17A6.69,6.69,0,0,0,70.9,19.59Z"/><path class="cls-11" d="M72.44,21.09s-2.38.19-1.72,2.89,2.38,3.59,3.75,3.65S77,25,75.28,22.45A3.4,3.4,0,0,0,72.44,21.09Z"/><ellipse class="cls-12" cx="65.34" cy="49.52" rx="10.93" ry="8.6"/><ellipse class="cls-12" cx="65.34" cy="40.22" rx="8.25" ry="4.34"/><ellipse class="cls-13" cx="58.62" cy="67.16" rx="6.27" ry="3.91"/><ellipse class="cls-14" cx="62.64" cy="38.8" rx="2.61" ry="1.37"/><ellipse class="cls-14" cx="61.87" cy="46.76" rx="4.17" ry="2.95"/><path class="cls-15" d="M53.77,47.49c.75,2.06-2.06,2.06-1.22,4.82s.72,5.64,4.32,11.27,4.32,17.51,2.76,20.27-22.07,32.26-31.67,33-8.76-13.07-4.56-22.19S38.2,63.25,42.36,57C50.89,44.14,53,45.34,53.77,47.49Z"/><path class="cls-16" d="M42.36,57C50.89,44.14,53,45.34,53.77,47.49s-2.06,2.06-1.22,4.82c.62,2,.72,4.11,2.14,7.3-1.78-3-4.32-6.51-6.33-6.51S43.49,56,41.56,58.26C41.85,57.79,42.11,57.36,42.36,57Z"/><path class="cls-9" d="M78.49,75.71S75.69,86.47,70.6,86.65s-12-.3-12-.3,9.55.12,13-2.43S78.49,75.71,78.49,75.71Z"/><path class="cls-9" d="M71.42,89.93s-3,4.34-5.24,4.38a11.54,11.54,0,0,1-4.56-1.08c.14,0,3.21.77,5.1,0A20.37,20.37,0,0,0,71.42,89.93Z"/><path class="cls-9" d="M75.22,63.59s5.8,7,2.26,8.12a44.69,44.69,0,0,1-8.89,1.38s6.24-1.33,7.29-3S75.22,63.59,75.22,63.59Z"/><path class="cls-15" d="M76.77,47.49C76,49.55,78.83,49.55,78,52.31s-.72,5.64-4.32,11.27S69.36,81.1,70.92,83.86s22.07,32.26,31.67,33,8.76-13.07,4.56-22.19S92.35,63.25,88.19,57C79.65,44.14,77.56,45.34,76.77,47.49Z"/><path class="cls-16" d="M88.19,57c-8.53-12.85-10.63-11.65-11.42-9.5s2.06,2.06,1.22,4.82c-.62,2-.72,4.11-2.14,7.3,1.78-3,4.32-6.51,6.33-6.51S87.05,56,89,58.26C88.7,57.79,88.43,57.36,88.19,57Z"/></svg>