<svg id="bugs&#x6606;&#x866B;" xmlns="http://www.w3.org/2000/svg" viewbox="0 0 128 128" width="128" height="128"><defs><style>.cls-1{fill:#241b11;stroke:none;}.cls-2{fill:#662f1a;stroke:none;}.cls-3{fill:#734f3f;stroke:none;}.cls-4{fill:#261b12;stroke:none;}.cls-5{fill:#b97851;stroke:none;}.cls-6{fill:#836355;stroke:none;}.cls-7{fill:#836357;stroke:none;}.cls-8{fill:#b58d72;stroke:none;}.cls-9{fill:#ba8f73;stroke:none;}.cls-10{fill:#231f20;opacity:0.28;stroke:none;}</style></defs><title>bugs&#x6606;&#x866B;</title><path class="cls-1" d="M63.59,49a2.89,2.89,0,0,0-1,.65c-.21.33-.7.49-.63-.07s.33-2.38.35-2.82.49-1.45,1-1.4a1.07,1.07,0,0,1,.93,1c0,.51.07,1.14-.23,1.38a.82.82,0,0,0-.4.7C63.59,48.58,63.59,49,63.59,49Z"/><path class="cls-1" d="M65,49a2.89,2.89,0,0,1,1,.65c.21.33.7.49.63-.07s-.33-2.38-.35-2.82-.49-1.45-1-1.4a1.07,1.07,0,0,0-.93,1c0,.51-.07,1.14.23,1.38a.82.82,0,0,1,.4.7C65,48.58,65,49,65,49Z"/><path class="cls-2" d="M61.17,51.79a2.85,2.85,0,0,1,3.17-3.05c3.41,0,2.78,3.05,2.78,3.05Z"/><ellipse class="cls-1" cx="64.17" cy="53.24" rx="5.02" ry="2.92"/><path class="cls-3" d="M110.87,42.12c-1.73-1-4.93,1.69-5.59,2.14a5.84,5.84,0,0,1-3.29,1,3,3,0,0,0-2.59,1.44,5.65,5.65,0,0,1-2.75,1.4,11.63,11.63,0,0,0-4,2.1c-.58.58-6.25,2.75-8.51,4.11s-4.36,4-5.92,5.51-5.55,2.71-5.55,2.71.45-.45,1.69-1.64a18.45,18.45,0,0,0,3.33-4.81c.9-1.81,2.22-9.54,2.34-12.54S86,32,87.43,29.45s2.38-2.63,3.82-3.58,1.19-2.14,1.48-3.13,6.5-7.2,2.3-8.72-5.67,5.3-5.67,5.63S88.29,20.61,87,22s-1.19,4.32-1.19,4.65-2.34,2.22-3,3.08-3,5.18-3.78,6.54-2.63,6.87-3.17,8-1.32,8.43-1.44,9.37S72.63,56,71.6,57.25s-1.4,1-1.52.86,1.27-1.69,1.77-4.19S70.7,47,70,45.65s-.53-4.4-.25-7.11S71,35.37,71.6,33.11s-.53-4.85-1.69-5.1-2.43,1-2.71,2.75a8.1,8.1,0,0,0,.41,3.62c.12.66-.74,3.5-1.07,5.76s.25,6.29,1.33,8a6.78,6.78,0,0,1,.67,4.17,5.84,5.84,0,0,0-.75-.75,39,39,0,0,0-7.61,0,5.84,5.84,0,0,0-.75.75,6.78,6.78,0,0,1,.67-4.17c1.08-1.67,1.66-5.7,1.33-8s-1.19-5.1-1.07-5.76a8.1,8.1,0,0,0,.41-3.62c-.29-1.73-1.56-3-2.71-2.75s-2.3,2.84-1.69,5.1,1.52,2.71,1.81,5.43.41,5.8-.25,7.11-2.3,5.76-1.81,8.26,1.89,4,1.77,4.19-.49.41-1.52-.86-2.71-2.63-2.84-3.58-.9-8.22-1.44-9.37-2.38-6.66-3.17-8-3.13-5.67-3.78-6.54-3-2.75-3-3.08S42.23,23.41,41,22s-2.34-2-2.34-2.34S37.13,12.51,32.94,14s2,7.73,2.3,8.72,0,2.18,1.48,3.13,2.34,1,3.82,3.58,7.28,11.06,7.4,14.06,1.44,10.73,2.34,12.54a18.45,18.45,0,0,0,3.33,4.81c1.23,1.19,1.69,1.64,1.69,1.64s-4-1.23-5.55-2.71-3.66-4.15-5.92-5.51-7.94-3.54-8.51-4.11a11.63,11.63,0,0,0-4-2.1,5.65,5.65,0,0,1-2.75-1.4A3,3,0,0,0,26,45.24a5.84,5.84,0,0,1-3.29-1c-.66-.45-3.87-3.13-5.59-2.14s-1.27,4.19,3.66,6.5,7.77,1.69,8.76,2,11.27,5.59,12.34,6.66,4,5.06,7.28,6.83,5.88,3,5.88,3,.7.21.74.7-.86.66-2,1a14.42,14.42,0,0,0-5.47,3c-2,1.81-7.11,6.37-8.06,6.74s-2.47.7-3,1.36a5.2,5.2,0,0,1-1.81,1.64c-.7.25-3.08,2.47-3.29,3.33s.16,2.51,1.15,2.88,3-1.77,3.82-2.75a4.38,4.38,0,0,1,2.1-1.48c.41-.08.74-.37,1.32-1.07a67.44,67.44,0,0,1,6.13-5.22c1.36-.95,4.85-3.66,6.58-4.32s3.62-.41,3.25-.16a7.05,7.05,0,0,0-3.08,4.32c-.66,2.8-2.59,17.35-3.58,20.39s-1.64,5-2.47,5.84-2.71,2.75-3,3.54a14,14,0,0,1-.82,2.55c-.45.86-2.06,4.15-1,5.22a2,2,0,0,0,3.37-.45,12.88,12.88,0,0,0,1.4-5.1,2.14,2.14,0,0,1,.49-2.06,15.37,15.37,0,0,0,3-4.36c.41-1.4,3.82-16.53,4.19-16.74s.62.29.58,1.15a10,10,0,0,0,1.93,6.09A9.33,9.33,0,0,0,64,96.6h0a9.33,9.33,0,0,0,6.5-3.45,10,10,0,0,0,1.93-6.09c0-.86.21-1.36.58-1.15s3.78,15.34,4.19,16.74a15.37,15.37,0,0,0,3,4.36,2.14,2.14,0,0,1,.49,2.06,12.88,12.88,0,0,0,1.4,5.1,2,2,0,0,0,3.37.45c1-1.07-.58-4.36-1-5.22a14,14,0,0,1-.82-2.55c-.25-.78-2.14-2.71-3-3.54s-1.48-2.8-2.47-5.84-2.92-17.6-3.58-20.39a7.05,7.05,0,0,0-3.08-4.32c-.37-.25,1.52-.49,3.25.16s5.22,3.37,6.58,4.32a67.43,67.43,0,0,1,6.13,5.22c.58.7.9,1,1.32,1.07A4.38,4.38,0,0,1,90.88,85c.86,1,2.84,3.13,3.82,2.75s1.36-2,1.15-2.88-2.59-3.08-3.29-3.33a5.2,5.2,0,0,1-1.81-1.64c-.58-.66-2.1-1-3-1.36s-6.09-4.93-8.06-6.74a14.42,14.42,0,0,0-5.47-3c-1.11-.33-2-.49-2-1s.74-.7.74-.7,2.63-1.27,5.88-3,6.21-5.76,7.28-6.83,11.35-6.37,12.34-6.66,3.82.33,8.76-2S112.6,43.1,110.87,42.12Z"/><path class="cls-4" d="M67.2,30.77a8.1,8.1,0,0,0,.41,3.62,22.14,22.14,0,0,1-.73,3.91c.51-.55,1.36-1.45,2-1.28.39.1.7.57.93,1.09.34-2.32,1.17-2.87,1.75-5s-.53-4.85-1.69-5.1S67.49,29,67.2,30.77Z"/><path class="cls-4" d="M91.25,25.87c1.44-.95,1.19-2.14,1.48-3.13s6.5-7.2,2.3-8.72c-3.31-1.2-4.92,2.78-5.46,4.68.5-.13,1.71-.24,1.52,1.86-.24,2.63-2.45,5.44-3.77,6.64s-2.51,1.67-2.63,3.11a3.65,3.65,0,0,0,.82,2.23c.81-1.3,1.51-2.41,1.9-3.09C88.91,26.86,89.82,26.82,91.25,25.87Z"/><path class="cls-4" d="M110.87,42.12c-1.73-1-4.93,1.69-5.59,2.14a5.18,5.18,0,0,1-.8.45,2.85,2.85,0,0,1-1,3.25,29.56,29.56,0,0,1-3.56,2.51,18.08,18.08,0,0,0,7.29-1.85C112.14,46.31,112.6,43.1,110.87,42.12Z"/><path class="cls-5" d="M87.75,22.43c-.24.06-1.2.72-1.26,1.43s0,2,.9,1.32S88,22.37,87.75,22.43Z"/><path class="cls-5" d="M99.71,48.14c-.3-.3.54-1.73,1.55-1.91s1.91.42,1.38,1A2.79,2.79,0,0,1,101,48.32C100.37,48.37,100,48.43,99.71,48.14Z"/><path class="cls-5" d="M85.84,53.94s1.79-.54,2.69-.78a2.53,2.53,0,0,1,1.91.66,6.05,6.05,0,0,1,.18-1.43c.18-.6,1.67-1,1.26-1-.2,0-.63-.13-1.05-.23-1.29.59-3,1.33-4.52,2Z"/><path class="cls-5" d="M78.55,45.33c1-.66.36-3,.36-5.32s2.15-4.54,2.15-4.54l-.9.42a6.13,6.13,0,0,0-1.52,1.22c-.89,2-2.31,6.21-2.77,7.19A1.72,1.72,0,0,0,78.55,45.33Z"/><path class="cls-5" d="M66.91,45.5a1.29,1.29,0,0,0,1.36.3c.6-.36.36-.84-.06-2s-.9-2.69-.9-2.69-.37,2.49-.58,3.46C66.78,44.91,66.84,45.21,66.91,45.5Z"/><path class="cls-4" d="M92.57,81.55a2.38,2.38,0,0,1-.8-.54c0,.47-.15,1.45-1,1.65a15.92,15.92,0,0,1-3.07.07,2.05,2.05,0,0,0,1.08.79A4.38,4.38,0,0,1,90.88,85c.86,1,2.84,3.13,3.82,2.75s1.36-2,1.15-2.88S93.27,81.8,92.57,81.55Z"/><path class="cls-4" d="M83.62,111.74c-1.12-.33-2.37-3.32-2.88-3.23,0,.18,0,.36-.06.54a12.88,12.88,0,0,0,1.4,5.1,2,2,0,0,0,3.37.45c.72-.75.15-2.58-.41-3.91C84.79,111.25,84.32,111.95,83.62,111.74Z"/><path class="cls-5" d="M78.31,71.6s.23.74-.23,1-.63,1.37.57.8S78.31,71.6,78.31,71.6Z"/><path class="cls-5" d="M88.25,79.49s-.57,1.37.06,1.6,1.94.51,2.23.11-.34-1.37-.8-1.49S88.25,79.49,88.25,79.49Z"/><path class="cls-5" d="M76.32,87.53c-.51-.43-1.07-.64-1.27-.49-.4.29-.8,1.6-.34,2a5.33,5.33,0,0,1,1.6,2.23c.11.74-.11,2,.34,2.23.19.09.36-.37.48-1C76.87,90.93,76.59,89.24,76.32,87.53Z"/><path class="cls-5" d="M83.16,106.07a22.22,22.22,0,0,0-1.68-1.92,2.1,2.1,0,0,0-.71.26s1,.8.74,1.2-.86.86-.11,1A1.91,1.91,0,0,0,83.16,106.07Z"/><path class="cls-4" d="M60.78,30.77a8.1,8.1,0,0,1-.41,3.62,22.14,22.14,0,0,0,.73,3.91c-.51-.55-1.36-1.45-2-1.28-.39.1-.7.57-.93,1.09-.34-2.32-1.17-2.87-1.75-5s.53-4.85,1.69-5.1S60.49,29,60.78,30.77Z"/><path class="cls-4" d="M36.72,25.87c-1.44-.95-1.19-2.14-1.48-3.13s-6.5-7.2-2.3-8.72c3.31-1.2,4.92,2.78,5.46,4.68-.5-.13-1.71-.24-1.52,1.86.24,2.63,2.45,5.44,3.77,6.64s2.51,1.67,2.63,3.11a3.65,3.65,0,0,1-.82,2.23c-.81-1.3-1.51-2.41-1.9-3.09C39.06,26.86,38.16,26.82,36.72,25.87Z"/><path class="cls-4" d="M17.11,42.12c1.73-1,4.93,1.69,5.59,2.14a5.18,5.18,0,0,0,.8.45,2.85,2.85,0,0,0,1,3.25,29.56,29.56,0,0,0,3.56,2.51,18.08,18.08,0,0,1-7.29-1.85C15.83,46.31,15.38,43.1,17.11,42.12Z"/><path class="cls-5" d="M40.22,22.43c.24.06,1.2.72,1.26,1.43s0,2-.9,1.32S40,22.37,40.22,22.43Z"/><path class="cls-5" d="M28.26,48.14c.3-.3-.54-1.73-1.55-1.91s-1.91.42-1.38,1A2.79,2.79,0,0,0,27,48.32C27.61,48.37,28,48.43,28.26,48.14Z"/><path class="cls-5" d="M42.13,53.94s-1.79-.54-2.69-.78a2.53,2.53,0,0,0-1.91.66,6.05,6.05,0,0,0-.18-1.43c-.18-.6-1.67-1-1.26-1,.2,0,.63-.13,1.05-.23,1.29.59,3,1.33,4.52,2Z"/><path class="cls-5" d="M49.43,45.33c-1-.66-.36-3-.36-5.32s-2.15-4.54-2.15-4.54l.9.42a6.13,6.13,0,0,1,1.52,1.22c.89,2,2.31,6.21,2.77,7.19A1.72,1.72,0,0,1,49.43,45.33Z"/><path class="cls-5" d="M61.07,45.5a1.29,1.29,0,0,1-1.36.3c-.6-.36-.36-.84.06-2s.9-2.69.9-2.69.37,2.49.58,3.46C61.19,44.91,61.14,45.21,61.07,45.5Z"/><path class="cls-1" d="M73.06,86l0,.11,0,0,.06.19v0l.08.26v0l.1.34h0l.12.43v.05l.26,1c.35-1.28.93-3.15,1.36-3.39s.63,0,.86.29l-.3-2-.07-.43-.07-.47-.16-1,0-.23-.16-1,0-.11L75,79.38l0-.16-.13-.78,0-.14-.12-.64,0-.09c0-.19-.08-.37-.11-.51a7.05,7.05,0,0,0-3.08-4.32c-.37-.25,1.52-.49,3.25.16a6.47,6.47,0,0,1,.64.3l.25.13.47.27q.46.27,1,.6c-1-1.11-2.23-2.59-1.88-3.12.51-.76,2.34-.57,2.89-.5h0l-.64-.39L77.15,70l-.39-.21-.28-.14-.44-.2-.25-.11-.48-.19-.21-.08L74.76,69l-.16-.05-.41-.13c-1.11-.33-2-.49-2-1s.74-.7.74-.7,2.63-1.27,5.88-3c.28-.15.56-.33.83-.51l.19-.13c.27-.19.54-.38.8-.59l0,0c.26-.21.52-.43.77-.65l.12-.11c.26-.24.52-.48.77-.72A12,12,0,0,1,78,62.48a1.87,1.87,0,0,1-1.94-1.32h0c-.76.37-1.55.69-2.18.92l-.06,0-.53.19L72.22,63l.06-.2.6-.49.48-.47.14-.14.21-.2.2-.19.46-.44a18.45,18.45,0,0,0,3.33-4.81c.05-.1.1-.23.16-.37l0-.13.12-.35.05-.16.14-.49,0-.09c.06-.2.11-.42.17-.64l.06-.24.11-.48.07-.3.11-.49.06-.3.15-.74.08-.41.08-.41.08-.47.06-.33c.11-.61.21-1.23.3-1.83l0-.19.08-.58,0-.18.08-.58c-.91.48-2.47,1.35-2.47,1.64s.12,7.77-2.09,8.37a1.55,1.55,0,0,1-2-.77h0l-.86.91c-.24.26-.48.52-.69.78s-.22.26-.32.37h0l-.13.13L71,57.9h0l-.1.08-.19.14h0l-.18.09h-.1a.34.34,0,0,1-.23,0h0l-.08-.08c-.12-.16,1.27-1.69,1.77-4.19a4.94,4.94,0,0,0,.08-.66q0-.09,0-.17c0-.23,0-.46,0-.7v0c0-.26,0-.53-.08-.8l0-.16c0-.26-.08-.53-.14-.8h0c-.3,1.47-.91,3.76-1.75,3.79-1.24,0-1.38-2.12-1.38-2.12a5.84,5.84,0,0,0-.75-.75,5.34,5.34,0,0,0-2.85-1.11h-.09l-.62,0h-.49l-.62,0H63a5.34,5.34,0,0,0-2.85,1.11,5.84,5.84,0,0,0-.75.75s-.14,2.16-1.38,2.12c-.84,0-1.45-2.32-1.75-3.79h0c-.05.27-.1.54-.14.8l0,.16c0,.27-.07.54-.08.8v0c0,.24,0,.48,0,.7q0,.09,0,.17a4.94,4.94,0,0,0,.08.66c.49,2.51,1.89,4,1.77,4.19l-.08.08h0a.34.34,0,0,1-.23,0h-.1l-.18-.09h0L57.08,58,57,57.9h0l-.15-.14-.13-.13h0c-.1-.11-.21-.23-.32-.37s-.45-.52-.69-.78l-.86-.91h0a1.55,1.55,0,0,1-2,.77c-2.21-.6-2.09-8-2.09-8.37s-1.56-1.16-2.47-1.64l.08.58,0,.18.08.58,0,.19c.09.6.19,1.21.3,1.83l.06.33.08.47.08.41.08.41.15.74.06.3.11.49.07.3.11.48.06.24c.06.22.11.44.17.64l0,.09.14.48.05.17.12.34,0,.13c.05.14.1.26.16.36h0a18.45,18.45,0,0,0,3.33,4.81l.46.44.2.19.21.2.14.14.48.47.6.49.06.2-1.09-.71-.53-.19-.06,0c-.63-.23-1.41-.55-2.18-.92h0A1.87,1.87,0,0,1,50,62.48a12,12,0,0,1-4.35-1.14c.25.24.51.48.77.72l.12.11c.25.22.51.44.77.65l0,0c.26.21.53.4.8.59l.19.13c.27.18.55.36.83.51l2.29,1.22C53.54,66.4,55,67.12,55,67.12a1.39,1.39,0,0,1,.61.38.58.58,0,0,1,.13.32c0,.49-.86.66-2,1l-.41.13-.16.05-.34.12-.21.08-.47.19-.26.11-.44.2-.28.14-.39.2-.29.16-.63.38h0c.54-.07,2.38-.26,2.89.5.35.53-.84,2-1.88,3.12.33-.22.65-.42,1-.6l.46-.27.25-.13a6.48,6.48,0,0,1,.64-.3,6,6,0,0,1,3.14-.34c.15,0,.2.11.11.17a7.24,7.24,0,0,0-1.92,1.79,6.89,6.89,0,0,0-1.17,2.53c0,.14-.07.31-.11.51l0,.09-.12.64,0,.14-.13.78,0,.16-.14.85,0,.11-.16,1,0,.23-.16,1-.07.47-.07.43-.3,2c.23-.26.53-.47.86-.29s1,2.1,1.36,3.39c.19-.75.36-1.37.49-1.83v0l.09-.29v0l.07-.19v0l.05-.12v0a.17.17,0,0,1,0-.06.35.35,0,0,1,.13,0c.29,0,.48.44.44,1.2a10,10,0,0,0,1.93,6.09c.2.24.41.47.64.69l.22.2.48.42.26.21.51.37.24.17c.23.15.47.28.7.41l.39.19.35.16.44.17.3.1.46.14h0a6,6,0,0,0,1.5.21h0a6,6,0,0,0,1.5-.21h0l.46-.14.3-.1.44-.17.36-.16.39-.19c.24-.13.47-.26.7-.41l.24-.17.51-.37.26-.21.48-.42.22-.2c.22-.22.44-.45.64-.69a10,10,0,0,0,1.93-6.09c0-.86.21-1.36.58-1.15A.17.17,0,0,1,73,86Z"/><path class="cls-4" d="M35.41,81.55a2.38,2.38,0,0,0,.8-.54c0,.47.15,1.45,1,1.65a15.92,15.92,0,0,0,3.07.07,2.05,2.05,0,0,1-1.08.79A4.38,4.38,0,0,0,37.09,85c-.86,1-2.84,3.13-3.82,2.75s-1.36-2-1.15-2.88S34.71,81.8,35.41,81.55Z"/><path class="cls-4" d="M44.35,111.74c1.12-.33,2.37-3.32,2.88-3.23,0,.18,0,.36.06.54a12.88,12.88,0,0,1-1.4,5.1,2,2,0,0,1-3.37.45c-.72-.75-.15-2.58.41-3.91C43.18,111.25,43.65,111.95,44.35,111.74Z"/><path class="cls-5" d="M49.67,71.6s-.23.74.23,1,.63,1.37-.57.8S49.67,71.6,49.67,71.6Z"/><path class="cls-5" d="M39.72,79.49s.57,1.37-.06,1.6-1.94.51-2.23.11.34-1.37.8-1.49S39.72,79.49,39.72,79.49Z"/><path class="cls-5" d="M51.65,87.53c.51-.43,1.07-.64,1.27-.49.4.29.8,1.6.34,2a5.33,5.33,0,0,0-1.6,2.23c-.11.74.11,2-.34,2.23-.19.09-.36-.37-.48-1C51.11,90.93,51.38,89.24,51.65,87.53Z"/><path class="cls-5" d="M44.82,106.07a22.22,22.22,0,0,1,1.68-1.92,2.1,2.1,0,0,1,.71.26s-1,.8-.74,1.2.86.86.11,1A1.91,1.91,0,0,1,44.82,106.07Z"/><path class="cls-6" d="M64.65,51.15a1.46,1.46,0,0,0-.27,0H64a1.46,1.46,0,0,0-.27,0,3.76,3.76,0,0,0-2.48.9v3c.05-.05,1.94,0,2.74,0h.36c.8,0,2.69,0,2.74,0V52A3.76,3.76,0,0,0,64.65,51.15Z"/><path class="cls-7" d="M68.62,56.69C68,56,65.26,56,64.23,56s-3.79,0-4.39.65c-.74.84-3.89,2.79-4,7.68s2.21,9.31,3.79,9.36c1.35,0,3.9,0,4.6,0s3.25,0,4.6,0c1.58-.05,3.89-4.47,3.79-9.36S69.35,57.53,68.62,56.69Z"/><path class="cls-7" d="M68.63,78.66A4.72,4.72,0,0,0,64.16,76h0a4.72,4.72,0,0,0-4.47,2.69c-1,2.32-2.32,9.77-.83,12.59s3.31,5,5.22,5a.16.16,0,0,1,.2,0c1.9,0,3.73-2.15,5.22-5S69.62,81,68.63,78.66Z"/><path class="cls-8" d="M64.14,76.39H64s-2.37,1.51-2.32,9.06,1.93,10.33,2.26,10.33h.24c.34,0,2.21-2.78,2.26-10.33S64.14,76.39,64.14,76.39Z"/><path class="cls-9" d="M64.14,59.28H64s-2.37.86-2.32,5.18,1.93,5.91,2.26,5.91h.24c.34,0,2.21-1.59,2.26-5.91S64.14,59.28,64.14,59.28Z"/><path class="cls-10" d="M76.07,61.16h0c-.76.37-1.55.69-2.18.92l-.06,0-.53.19L72.22,63l.06-.2.6-.49.48-.47.14-.14.21-.2.2-.19.46-.44a18.45,18.45,0,0,0,3.33-4.81c.05-.1.1-.23.16-.37l0-.13.12-.35.05-.16.14-.49,0-.09c.06-.2.11-.42.17-.64l.06-.24.11-.48.07-.3.11-.49.06-.3.15-.74.08-.41.08-.41.08-.47.06-.33c.11-.61.21-1.23.3-1.83l0-.19.08-.58,0-.18.08-.58c-.91.48-2.47,1.35-2.47,1.64s.12,7.77-2.09,8.37a1.55,1.55,0,0,1-2-.77h0l-.86.91c-.24.26-.48.52-.69.78s-.22.26-.32.37h0l-.13.13L71,57.9h0l-.1.08-.19.14h0l-.18.09h-.1a.34.34,0,0,1-.23,0h0l-.08-.08c-.12-.16,1.27-1.69,1.77-4.19a4.94,4.94,0,0,0,.08-.66q0-.09,0-.17c0-.23,0-.46,0-.7v0c0-.26,0-.53-.08-.8l0-.16c0-.26-.08-.53-.14-.8h0c-.3,1.47-.91,3.76-1.75,3.79-1.24,0-1.38-2.12-1.38-2.12a5.84,5.84,0,0,0-.75-.75,5.34,5.34,0,0,0-2.85-1.11h-.09l-.48,0V96.57a6.48,6.48,0,0,0,1.12-.19l.46-.14.3-.1.44-.17.36-.16.39-.19c.24-.13.47-.26.7-.41l.24-.17.51-.37.26-.21.48-.42.22-.2c.22-.22.44-.45.64-.69a10,10,0,0,0,1.93-6.09c0-.86.21-1.36.58-1.15A.17.17,0,0,1,73,86l0,0,0,.11,0,0,.06.19v0l.08.26v0l.1.34h0l.12.43v.05l.26,1c.35-1.28.93-3.15,1.36-3.39s.63,0,.86.29l-.3-2-.07-.43-.07-.47-.16-1,0-.23-.16-1,0-.11L75,79.38l0-.16-.13-.78,0-.14-.12-.64,0-.09c0-.19-.08-.37-.11-.51a7.05,7.05,0,0,0-3.08-4.32c-.37-.25,1.52-.49,3.25.16a6.47,6.47,0,0,1,.64.3l.25.13.47.27q.46.27,1,.6c-1-1.11-2.23-2.59-1.88-3.12.51-.76,2.34-.57,2.89-.5h0l-.64-.39L77.15,70l-.39-.21-.28-.14-.44-.2-.25-.11-.48-.19-.21-.08L74.76,69l-.16-.05-.41-.13c-1.11-.33-2-.49-2-1s.74-.7.74-.7,2.63-1.27,5.88-3c.28-.15.56-.33.83-.51l.19-.13c.27-.19.54-.38.8-.59l0,0c.26-.21.52-.43.77-.65l.12-.11c.26-.24.52-.48.77-.72A12,12,0,0,1,78,62.48,1.87,1.87,0,0,1,76.07,61.16Z"/></svg>