<svg id="bugs&#x6606;&#x866B;" xmlns="http://www.w3.org/2000/svg" viewbox="0 0 128 128" width="128" height="128"><defs><style>.cls-1{fill:#1e1d1a;stroke:none;}.cls-2{fill:#926134;stroke:none;}.cls-3{fill:#885721;stroke:none;}.cls-4{fill:#bea479;stroke:none;}.cls-5{fill:#ab927a;stroke:none;}.cls-6{fill:#a3896c;stroke:none;}.cls-7{fill:#916134;stroke:none;}.cls-8{fill:#b47f4b;stroke:none;}.cls-9{fill:#d4a67d;stroke:none;}.cls-10{fill:#303435;stroke:none;}.cls-11{fill:#342d48;stroke:none;}.cls-12{fill:#231f20;opacity:0.19;stroke:none;}</style></defs><title>bugs&#x6606;&#x866B;</title><path class="cls-1" d="M85.74,57.79a9.39,9.39,0,0,1-4.41-1.12.27.27,0,0,1,.28-.47,9,9,0,0,0,4.92,1c2.62-.27,3.28-1.79,3.3-1.86a.27.27,0,0,1,.51.2c0,.08-.79,1.89-3.76,2.2A8.29,8.29,0,0,1,85.74,57.79Z"/><path class="cls-1" d="M43.48,57.79a8.3,8.3,0,0,1-.85,0c-3-.3-3.72-2.12-3.76-2.2a.27.27,0,1,1,.51-.2c0,.06.69,1.59,3.3,1.85a8.93,8.93,0,0,0,4.92-1,.27.27,0,1,1,.28.47A9.39,9.39,0,0,1,43.48,57.79Z"/><path class="cls-2" d="M60.72,101.84s1.81,3.45,4.19,3.53,4.6-2.79,4.6-2.79-3.45-5.75-5.09-5.42S60.72,101.84,60.72,101.84Z"/><path class="cls-3" d="M64.41,97.16l-.07,0v8.1a2.64,2.64,0,0,0,.56.09c2.38.08,4.6-2.79,4.6-2.79S66.05,96.84,64.41,97.16Z"/><path class="cls-4" d="M64.51,98.85a37.76,37.76,0,0,1-25.41,18c-18.32,3.8-18.32-5-16.38-11.31s14.35-33.6,20.09-42.38,15.7-25.33,21.7-25.33,19.84,21.44,27.1,35.12S112,111.6,105.37,115.82s-18.57,1.35-27.86-4A33.78,33.78,0,0,1,64.51,98.85Z"/><path class="cls-5" d="M59.35,75.22c-.17-6.23-1-22.75-1-22.75a8.17,8.17,0,0,0-5.1-.17c-1.75.6-4.5,2.72-6,3.94-1,1.48-1.89,2.92-2.76,4.25-3.11,6.31-9.74,20.16-12.86,29.77-4.15,12.8-6.05,22.83-5.19,20.24S32,86,39.8,72.8,50,57.4,50,57.4s-10.47,45.15-10.9,48.52-.61,7.78-.26,7.87,7.7-41.69,9.95-48.52S52,55.07,52,55.07l2.39-2s.81-.25.56,2.17-7.87,44.63-8,46.27.35,4.41.52,2.59,9.17-49.39,9.08-49.91.69-1.47.86-.69.69,29.75.86,30.71-.09,13.49.26,12.11S59.52,81.45,59.35,75.22Z"/><path class="cls-6" d="M87.57,65.71c-2.24-3.83-4.74-7.84-7.28-11.58A5.6,5.6,0,0,0,77.95,53a24.58,24.58,0,0,0-7.52-.26s-1.21,28.37-1,31.57.87,14.1,1,12,.69-42.9,1.3-42.9,5.1,19.37,5.8,24,4,28.46,4.24,27.51-4.24-31.4-5.54-38.06-3.69-14.48-2.62-14,3.58,1.7,4.09,3.78S82,74.1,82.79,78.07s6.14,35.72,7,35.72-1.56-18.42-3.46-25.17-5.71-23.27-6.4-26.73a33.79,33.79,0,0,0-1.3-5,91.92,91.92,0,0,1,14.62,25c5.28,14.19,9.25,29.84,9.34,28.46S98.45,91.91,93.08,79C90.37,72.5,88.63,68.29,87.57,65.71Z"/><path class="cls-7" d="M82.38,57.26C75.76,47,68.45,37.81,64.51,37.81,59.8,37.81,52.64,48,47,56.67c2.45-1,6.94-2.82,10.89-2.08,5,.92,5.48,4.84,6.37,4.86s2.68-4.51,9.16-5.16A12.86,12.86,0,0,1,82.38,57.26Z"/><path class="cls-8" d="M73.59,52.84a12.77,12.77,0,0,1,8.24,3.59c-6.47-9.88-13.5-18.62-17.32-18.62-4.69,0-11.81,10.13-17.43,18.74,1.72-1.44,4.44-3.3,7.3-3.49,4.65-.3,9.9,3.23,9.9,3.23S70.22,52.84,73.59,52.84Z"/><path class="cls-1" d="M67.07,34l-.34-.43s9.3-7.4,11.87-9.43a59.43,59.43,0,0,0,8.63-8.75c1.56-2.21,5.05-6.9,5.09-7a.27.27,0,1,1,.44.33s-3.53,4.73-5.08,6.94a60.16,60.16,0,0,1-8.74,8.86C76.37,26.62,67.07,34,67.07,34Z"/><path class="cls-1" d="M62.1,34s-9.3-7.4-11.86-9.43a60.16,60.16,0,0,1-8.74-8.86c-1.55-2.2-5-6.89-5.08-6.94a.27.27,0,1,1,.44-.33s3.53,4.74,5.09,7a59.43,59.43,0,0,0,8.63,8.75c2.56,2,11.87,9.43,11.87,9.43Z"/><path class="cls-9" d="M61.32,39.85s-3.61-7,3.32-7,3.1,7,3.1,7Z"/><path class="cls-7" d="M77.11,49.59c-4.95-6.74-9.7-11.78-12.6-11.78-3.27,0-7.73,4.93-12,10.84,2.7-2.72,7.24-6.95,9.3-6.86,2.45.1,2.94,7.4,2.94,7.4s.38-7.49,2.49-7.66S75.16,47.35,77.11,49.59Z"/><ellipse class="cls-10" cx="62.35" cy="49.46" rx="0.98" ry="1.85"/><ellipse class="cls-10" cx="66.92" cy="49.46" rx="0.98" ry="1.85"/><circle class="cls-10" cx="58.98" cy="44.89" r="0.76"/><circle class="cls-10" cx="53.22" cy="51.42" r="0.76"/><circle class="cls-10" cx="76.16" cy="51.42" r="0.76"/><circle class="cls-10" cx="70.4" cy="44.89" r="0.76"/><ellipse class="cls-11" cx="61.36" cy="35.33" rx="1.71" ry="1.35" transform="translate(17.32 90.76) rotate(-81.46)"/><ellipse class="cls-11" cx="67.88" cy="35.33" rx="1.35" ry="1.71" transform="translate(-4.49 10.47) rotate(-8.54)"/><path class="cls-12" d="M81.83,56.43c-1.2-1.83-2.42-3.62-3.63-5.33l-.1-.13L77,49.45l-.1-.14c-.79-1.07-1.57-2.09-2.34-3.06l-.13-.17-1-1.18-.24-.28-.91-1.05-.18-.21c-.36-.4-.72-.79-1.07-1.16l0,0c-.32-.34-.64-.66-1-1l-.27-.26-.71-.65-.28-.25q-.38-.33-.76-.61L68,39.37c.72-1.57,2.49-6.49-3.33-6.49h-.1v66a33.89,33.89,0,0,0,13,12.94c9.29,5.32,21.19,8.19,27.86,4s-6.5-29.21-13.76-42.89C89,68,85.5,62,81.83,56.43Z"/></svg>