<svg id="bugs&#x6606;&#x866B;" xmlns="http://www.w3.org/2000/svg" viewbox="0 0 128 128" width="128" height="128"><defs><style>.cls-1{fill:#0c1725;stroke:none;}.cls-2{fill:#0a6aa8;stroke:none;}.cls-3{fill:#1d569b;stroke:none;}.cls-4{fill:#2e3a76;stroke:none;}</style></defs><title>bugs&#x6606;&#x866B;</title><path class="cls-1" d="M118.4,12.73c-3.84-2.51-12-3.2-24.3,3.84s-21,20.15-23.29,23.51-4.05,11-4.16,11.51-.32.32-.53.05A4.36,4.36,0,0,0,65.05,51c-.27-.16.21-.48.48-.64a25.16,25.16,0,0,0,1.07-2.29.76.76,0,0,0-.43-1.12c-.27-.11-.69-.59-.59-.8s-.48-.91-1.17-.91h0c-.69,0-1.28.69-1.17.91s-.32.69-.59.8a.76.76,0,0,0-.43,1.12,25.16,25.16,0,0,0,1.07,2.29c.27.16.75.48.48.64a4.36,4.36,0,0,0-1.07.64c-.21.27-.43.43-.53-.05S60.27,43.43,58,40.07s-11-16.47-23.29-23.51-20.47-6.34-24.3-3.84-.32,9.49.43,10.29l.75.8a21.79,21.79,0,0,0,.69,5.81c.75,2.19,3.78,7.14,3.68,7.73s-.59,3-.16,3.78,2.4.85,2.29,1.87-1,2.51-.43,3.84,1.76,1.55,1.76,2-.75,3.46,1.71,5.12,9.65,1.87,9.27,2.19-2.5,1.6-2.93,2.77A8.58,8.58,0,0,1,25,62.62c-1.28,1.07-3.68,3.46-3.94,5.76s1.87,5.38,1.81,6.18-3.52,4.37-2.19,6.18,2.88-.8,4.48,1.12-2.19,5.44-1,7.94,4.26,2.08,5.65,3.62.85,7-.91,9.91-4.74,5.76-5.17,8.31-.21,4.05,1.28,4.58a4.48,4.48,0,0,0,5.44-3.78c.59-3.46-.16-7.78,1.39-10s2.88-2,3.3-1.17,1.28,1.28,2.82,1.12,3.14-1.12,4.1-.05,1.28,2.82,2.61,3,2.51-1.33,3.09-3.3.91-3.25,2.08-3.25,3.2-.48,3.14-2.82-.16-4.26.48-5.6.27-2.66,1.49-4.16a30.07,30.07,0,0,0,4.1-7.25c.64-2,2.82-8.58,2.82-8.58s.05,7.73.69,10.07,1.17,3.2,1.71,3.2c0,0,0,0,0,0s0,0,0,0c.53,0,1.07-.85,1.71-3.2s.69-10.07.69-10.07S69,76.9,69.64,78.93a30.07,30.07,0,0,0,4.1,7.25c1.23,1.49.85,2.82,1.49,4.16s.53,3.25.48,5.6,2,2.82,3.14,2.82S80.35,100,80.94,102s1.76,3.46,3.09,3.3,1.65-1.92,2.61-3,2.56-.11,4.1.05,2.4-.27,2.82-1.12,1.76-1.07,3.3,1.17.8,6.56,1.39,10a4.48,4.48,0,0,0,5.44,3.78c1.49-.53,1.71-2,1.28-4.58s-3.41-5.38-5.17-8.31S97.51,95,98.9,93.42s4.42-1.12,5.65-3.62-2.56-6-1-7.94,3.14.69,4.48-1.12-2.13-5.38-2.19-6.18,2.08-3.89,1.81-6.18-2.66-4.69-3.94-5.76a8.58,8.58,0,0,1-2.4-3.73c-.43-1.17-2.56-2.45-2.93-2.77s6.82-.53,9.27-2.19,1.71-4.69,1.71-5.12,1.23-.64,1.76-2-.32-2.82-.43-3.84,1.87-1.12,2.29-1.87-.05-3.2-.16-3.78,2.93-5.54,3.68-7.73a21.79,21.79,0,0,0,.69-5.81L118,23C118.72,22.22,122.24,15.23,118.4,12.73Z"/><path class="cls-1" d="M81.45,24.7a.28.28,0,0,0-.22,0c-.18.07-4.52,1.91-10.89,11.18a42,42,0,0,0-5,10.58.29.29,0,0,0,.19.36h.08a.29.29,0,0,0,.28-.21,41.45,41.45,0,0,1,4.94-10.42c6.23-9.07,10.59-11,10.63-11a.29.29,0,0,0,.16-.16.29.29,0,0,0-.15-.38Z"/><path class="cls-1" d="M58.44,35.88C52.07,26.61,47.73,24.77,47.55,24.7a.28.28,0,0,0-.22,0,.28.28,0,0,0-.15.16.29.29,0,0,0,0,.22.29.29,0,0,0,.16.16s4.4,1.91,10.63,11a41.44,41.44,0,0,1,4.94,10.42.29.29,0,0,0,.28.21h.08a.29.29,0,0,0,.18-.14.28.28,0,0,0,0-.22A41.87,41.87,0,0,0,58.44,35.88Zm-10.95-11Z"/><path class="cls-2" d="M86,54.86c6.54.27,9.78,1.18,11.16,1.72a.92.92,0,0,1,.24-.25c1.43-1,2.93-1.5,2.55-2.1s-2.18-3.83-1.73-6.76,1.73-3.76,1.65-6.08S98.78,33,98.18,31.85s-4.21-2.7-5-4S92,24.56,90.22,24.48,82.18,30,78.5,35.08s-8.56,10.59-9,16.45c-.12,1.62-.27,3.1-.42,4.41A87.64,87.64,0,0,1,86,54.86Z"/><path class="cls-3" d="M75.5,59.39a16.54,16.54,0,0,1,2,1.17,27.47,27.47,0,0,1,11.39.11c4.12.86,8,2,10.35,2.7a4.61,4.61,0,0,0-.42-1,13.63,13.63,0,0,1-1.95-4.73,40.5,40.5,0,0,0-12.55-2,117.58,117.58,0,0,0-15.37,1c-.09.7-.17,1.34-.26,1.92C70.84,58.51,73.81,58.59,75.5,59.39Z"/><path class="cls-3" d="M74.82,83.21c-.21-2-2-6.54-3.6-10.56-.68-1.71-1.31-3.33-1.76-4.58a32.63,32.63,0,0,1-1.51-5.86c0,.11-.08.21-.11.29a7.7,7.7,0,0,0-.6,5.71c.68,3.08,3.83,12.54,5.18,14.5.86,1.24,1.9,2.48,2.66,3.57C75,85.31,74.93,84.24,74.82,83.21Z"/><path class="cls-3" d="M86.6,64.78c2.45.82,9.1,3.94,13.1,5.84-.5-.82-.92-1.31-.39-2.34a6.75,6.75,0,0,0,.2-3.91c-2.18-.68-6.37-1.92-10.77-2.84a28.09,28.09,0,0,0-10.23-.27,15,15,0,0,1,3.2,3.13C82.25,64.15,83.69,63.8,86.6,64.78Z"/><path class="cls-3" d="M75.11,60.18c-1.22-.58-3.53-.83-6.53-.73q-.07.43-.15.81l4.42,5.1c3,3.44,7,4.86,8.25,4.28s.92-2.55.25-4.09C80.6,63.81,77.43,61.28,75.11,60.18Z"/><path class="cls-3" d="M80.22,88.49c-.42-1.54-1.6-4.82-2.75-8-1.05-2.91-2.05-5.65-2.52-7.24-1-3.41-.81-5.1-.76-5.42a16.06,16.06,0,0,1-2-1.92l-3.36-3.87a32.28,32.28,0,0,0,1.47,5.73c.44,1.23,1.08,2.85,1.75,4.55,1.61,4.08,3.43,8.7,3.66,10.78.2,1.83.32,3.81.38,5,.4,1.48.44,4.94,1.52,5.37s3,.75,3.93,1.08C81.25,93.09,80.74,90.45,80.22,88.49Z"/><path class="cls-3" d="M97.5,78.75c-1.82-1.35-5.07-3.72-8-5.72a21.7,21.7,0,0,0-7.11-3.34,2.1,2.1,0,0,1-.41.44c1.61,1.92,6,8.69,6.89,10.19,1.27,2.24,3.59,7.8,4.53,10.06.52-1.12.36-2.69,1.66-3.55,1.58-1.05,3.46-2.48,3.15-4.06A21.86,21.86,0,0,1,97.5,78.75Z"/><path class="cls-3" d="M78.5,70.28A13.16,13.16,0,0,1,75,68.47,14.75,14.75,0,0,0,75.79,73c.47,1.56,1.5,4.43,2.51,7.2,1.15,3.18,2.35,6.48,2.77,8.06.68,2.55,1.34,6.2,1.5,7.14a2.18,2.18,0,0,0,1.94.88,4.71,4.71,0,0,0,3.38-2.48Z"/><path class="cls-3" d="M100.29,71.87c-3.77-1.8-11.39-5.4-14-6.27s-3.74-.6-4.16-.44l0,.05a5.8,5.8,0,0,1,.54,3.68A22.72,22.72,0,0,1,90,72.32c2.76,1.87,5.77,4.06,7.65,5.44a1.74,1.74,0,0,1,.33-.63c1.05-1.2,3-2.63,2.48-4.81C100.4,72.16,100.34,72,100.29,71.87Z"/><path class="cls-3" d="M88.07,80.74a122.33,122.33,0,0,0-6.91-10.22,2.91,2.91,0,0,1-.76.1,5.07,5.07,0,0,1-.84-.08l9,22.52a2.55,2.55,0,0,1,.25-.22c1.21-.86,2.82-.78,3.95-1.66C92,89.35,89.4,83.08,88.07,80.74Z"/><path class="cls-4" d="M104.11,26.58c-3.93.07-10.91,2.73-10.91,2.73L92.26,29c-.93-.27-3.26-.86-3.26-.86l.5-.15.7-.2,1-.29.09,0,.58-.17.24-.07.48-.14c3.28-.95,7.75-2.23,8.78-2.48,1.66-.4,10-.47,11.44-.67s-6.59-1.26-8.05-1.26-12.14,3.1-12.14,3.1A13.2,13.2,0,0,1,94.26,24a22.07,22.07,0,0,1,5.12-3.26,46.28,46.28,0,0,1,8.92-2.33c2.26-.4,4.26-.53,5.39-1.13s-1.4-.73-3.66-.6-7.52,1.8-10,2.73a32.72,32.72,0,0,0-5.79,3.19,10.55,10.55,0,0,1,2.13-3.39c1.33-1.26,9.51-4.32,11.78-5.12s7.52-.13,7.52-.13a18,18,0,0,0-6.25-1.2c-3.66-.07-12,4.72-13.31,5.46s-2.73,3.66-4.72,6c-.14.16-.28.3-.42.46h0a19.93,19.93,0,0,1-5.44,4,3,3,0,0,1-1.75.48c-.58.57-1.16,1.16-1.73,1.78.59,0,1.23,0,1.63,0l.35-.05a7.16,7.16,0,0,0,2.77-1.41c.27-.25.86-.21,1.55,0,1.15.27,2.59.88,3.38,1a.85.85,0,0,1,.76.63,1.91,1.91,0,0,1-.62,1.5,3,3,0,0,0-.24.28,9.34,9.34,0,0,0-.81,1.3,4.66,4.66,0,0,0-.61,1.68,1.34,1.34,0,0,1,0,.29,4.87,4.87,0,0,1-1.85,2.33l-.64.51c-.23.17-.46.33-.69.47a7.76,7.76,0,0,1-1.32.66,10.88,10.88,0,0,1-3.19.6,2.53,2.53,0,0,0-1.11.34A3.29,3.29,0,0,0,80,42.56a5.92,5.92,0,0,0-.28.79,2.69,2.69,0,0,1-.12.35,22.77,22.77,0,0,1-2.71,3.65l-1,1.2a11.57,11.57,0,0,1-6.54,3.83c-.06.74-.13,1.45-.19,2.12l1.21-.43h0l.53-.2c.55-.2,1.36-.49,2.35-.79a33.86,33.86,0,0,1,6.5-1.34c1.06-.1,2.2-.14,3.33-.15,3.12,0,6.23.26,7.84.38l.4,0a6.57,6.57,0,0,1,.67.08c1.46.25,2.27,1,4.25,1.72a7.73,7.73,0,0,0,.85.27l.55.12.36.07.81.11H99l1,.07h0a19.31,19.31,0,0,0,4.34-.25c2.06-.4-1.46-1.6-3.46-2.33a19.58,19.58,0,0,0-5.58-.81H93.6c-2,0-6.71-.23-7.53-.41l-.29,0c-.39,0-1.1,0-2,.1-1.45.11-3.37.3-5.11.48-2.44.26-4.54.5-4.54.5l.91-.78.42-.36.93-.76.46-.36a5,5,0,0,0,.87-.92,15.36,15.36,0,0,0,1.46-2.47s7.11.45,10.72.71l1.13.08.53,0,.32,0a3.07,3.07,0,0,1,.93.33l.58.31a23.12,23.12,0,0,0,4.67,2.09,27.94,27.94,0,0,0,9.38.93c1.13-.2-2.59-3.53-6.19-4.52a14.66,14.66,0,0,0-2.66-.5h0a19.71,19.71,0,0,0-4.35.22l-1.37.15h0c-.38,0-.87,0-1.43,0s-1.19,0-1.86-.05l-2.1-.12c-3.59-.25-7.39-.66-7.39-.66s.8-2.73,2.66-3.46a8.74,8.74,0,0,1,2.58-.26h.91c.63,0,1.3,0,2,.08l2,.13,1.86.15,2.47.21h.21a1.26,1.26,0,0,1,.28,0l.13,0,.27.09.2.08.32.13.26.11.38.16.31.13.43.2.89.42.2.09.77.36,1.54.74c3.06,1.46,7,.8,8,.67s-1.8-3-4.19-4.13a10.4,10.4,0,0,0-4.85-.53h0l-.88.08h-.07L98,40.8l-.58.06h-.08l-.44,0-2.62,0c-2,0-4.6-.06-6-.11-.54,0-.92,0-1-.07s-.12,0-.12-.08,0-.08.1-.14a9,9,0,0,1,1.37-.73c.4-.19.79-.37,1-.52.8-.47,1.6-2.59,3.19-2.73a4.18,4.18,0,0,1,.66,0l.27,0,.51.07.39.08.47.1.51.13L96,37l.62.19.3.09.74.25.17.06.81.3.06,0,.82.33.32.13c2.13.93,8.18,1.4,9.91,1.33s-2-1.66-4.26-2.79a9.84,9.84,0,0,0-6.19-.6h-.08A47.49,47.49,0,0,1,92.07,36H92l-.34,0h0a.25.25,0,0,1-.19-.1c-.28-.41.63-1.89,1.33-2.36a.69.69,0,0,1,.19-.06l.07,0,.32-.05h0l.5-.05H94l.57,0h.08l.77,0h.13l.81,0h.08l1,0h0l1.11,0h0c5.35-.19,12.59-.31,13.78-.56,1.86-.4-4.79-2.06-7.32-2.33-1.36-.14-4.58.52-7.28,1.17h0c-2.31.55-4.23,1.09-4.23,1.09l.06-.2.08-.27a3.34,3.34,0,0,0,0-1.07c0-.39-.12-.72-.12-.72h0c.18-.06,1-.32,1.67-.58h0l.48-.21c.67-.33,15.9,0,18.7-.4S108,26.52,104.11,26.58Z"/><path class="cls-2" d="M42.75,54.86C36.21,55.13,33,56,31.59,56.58a.92.92,0,0,0-.24-.25c-1.43-1-2.93-1.5-2.55-2.1S31,50.4,30.52,47.47s-1.73-3.76-1.65-6.08,1.05-8.41,1.65-9.54,4.21-2.7,5-4,1.13-3.31,2.93-3.38,8,5.56,11.72,10.59,8.56,10.59,9,16.45c.12,1.62.27,3.1.42,4.41A87.64,87.64,0,0,0,42.75,54.86Z"/><path class="cls-3" d="M53.2,59.39a16.54,16.54,0,0,0-2,1.17,27.47,27.47,0,0,0-11.39.11c-4.12.86-8,2-10.35,2.7a4.61,4.61,0,0,1,.42-1,13.63,13.63,0,0,0,1.95-4.73,40.5,40.5,0,0,1,12.55-2,117.58,117.58,0,0,1,15.37,1c.09.7.17,1.34.26,1.92C57.86,58.51,54.9,58.59,53.2,59.39Z"/><path class="cls-3" d="M53.89,83.21c.21-2,2-6.54,3.6-10.56.68-1.71,1.31-3.33,1.76-4.58a32.63,32.63,0,0,0,1.51-5.86c0,.11.08.21.11.29a7.7,7.7,0,0,1,.6,5.71c-.68,3.08-3.83,12.54-5.18,14.5-.86,1.24-1.9,2.48-2.66,3.57C53.69,85.31,53.77,84.24,53.89,83.21Z"/><path class="cls-3" d="M42.11,64.78c-2.45.82-9.1,3.94-13.1,5.84.5-.82.92-1.31.39-2.34a6.75,6.75,0,0,1-.2-3.91c2.18-.68,6.37-1.92,10.77-2.84a28.09,28.09,0,0,1,10.23-.27A15,15,0,0,0,47,64.39C46.46,64.15,45,63.8,42.11,64.78Z"/><path class="cls-3" d="M53.59,60.18c1.22-.58,3.53-.83,6.53-.73q.07.43.15.81l-4.42,5.1c-3,3.44-7,4.86-8.25,4.28s-.92-2.55-.25-4.09C48.11,63.81,51.27,61.28,53.59,60.18Z"/><path class="cls-3" d="M48.49,88.49c.42-1.54,1.6-4.82,2.75-8,1.05-2.91,2.05-5.65,2.52-7.24,1-3.41.81-5.1.76-5.42a16.06,16.06,0,0,0,2-1.92l3.36-3.87a32.28,32.28,0,0,1-1.47,5.73C58,69,57.33,70.63,56.66,72.33,55.05,76.41,53.23,81,53,83.12c-.2,1.83-.32,3.81-.38,5-.4,1.48-.44,4.94-1.52,5.37s-3,.75-3.93,1.08C47.45,93.09,48,90.45,48.49,88.49Z"/><path class="cls-3" d="M31.21,78.75C33,77.4,36.28,75,39.23,73a21.7,21.7,0,0,1,7.11-3.34,2.1,2.1,0,0,0,.41.44c-1.61,1.92-6,8.69-6.89,10.19-1.27,2.24-3.59,7.8-4.53,10.06-.52-1.12-.36-2.69-1.66-3.55-1.58-1.05-3.46-2.48-3.15-4.06A21.86,21.86,0,0,0,31.21,78.75Z"/><path class="cls-3" d="M50.2,70.28a13.16,13.16,0,0,0,3.48-1.81A14.75,14.75,0,0,1,52.91,73c-.47,1.56-1.5,4.43-2.51,7.2-1.15,3.18-2.35,6.48-2.77,8.06-.68,2.55-1.34,6.2-1.5,7.14a2.18,2.18,0,0,1-1.94.88,4.71,4.71,0,0,1-3.38-2.48Z"/><path class="cls-3" d="M28.42,71.87c3.77-1.8,11.39-5.4,14-6.27s3.74-.6,4.16-.44l0,.05A5.8,5.8,0,0,0,46,68.88a22.72,22.72,0,0,0-7.27,3.44C36,74.19,33,76.38,31.07,77.77a1.74,1.74,0,0,0-.33-.63c-1.05-1.2-3-2.63-2.48-4.81C28.31,72.16,28.36,72,28.42,71.87Z"/><path class="cls-3" d="M40.63,80.74a122.33,122.33,0,0,1,6.91-10.22,2.91,2.91,0,0,0,.76.1,5.07,5.07,0,0,0,.84-.08l-9,22.52a2.55,2.55,0,0,0-.25-.22C38.7,92,37.09,92.06,36,91.18,36.71,89.35,39.31,83.08,40.63,80.74Z"/><path class="cls-4" d="M24.6,26.58c3.93.07,10.91,2.73,10.91,2.73l.93-.27c.93-.27,3.26-.86,3.26-.86L39.2,28l-.7-.2-1-.29-.09,0-.58-.17-.24-.07-.48-.14c-3.28-.95-7.75-2.23-8.78-2.48-1.66-.4-10-.47-11.44-.67s6.59-1.26,8.05-1.26,12.14,3.1,12.14,3.1A13.2,13.2,0,0,0,34.44,24a22.07,22.07,0,0,0-5.12-3.26,46.28,46.28,0,0,0-8.92-2.33c-2.26-.4-4.26-.53-5.39-1.13s1.4-.73,3.66-.6,7.52,1.8,10,2.73a32.72,32.72,0,0,1,5.79,3.19,10.55,10.55,0,0,0-2.13-3.39c-1.33-1.26-9.51-4.32-11.78-5.12s-7.52-.13-7.52-.13a18,18,0,0,1,6.25-1.2c3.66-.07,12,4.72,13.31,5.46s2.73,3.66,4.72,6c.14.16.28.3.42.46h0a19.93,19.93,0,0,0,5.44,4,3,3,0,0,0,1.75.48c.58.57,1.16,1.16,1.73,1.78-.59,0-1.23,0-1.63,0l-.35-.05A7.16,7.16,0,0,1,42,29.45c-.27-.25-.86-.21-1.55,0-1.15.27-2.59.88-3.38,1a.85.85,0,0,0-.76.63,1.91,1.91,0,0,0,.62,1.5,3,3,0,0,1,.24.28,9.34,9.34,0,0,1,.81,1.3,4.66,4.66,0,0,1,.61,1.68,1.34,1.34,0,0,0,0,.29,4.87,4.87,0,0,0,1.85,2.33l.64.51c.23.17.46.33.69.47a7.76,7.76,0,0,0,1.32.66,10.88,10.88,0,0,0,3.19.6A2.53,2.53,0,0,1,47.4,41a3.29,3.29,0,0,1,1.27,1.53,5.92,5.92,0,0,1,.28.79,2.69,2.69,0,0,0,.12.35,22.77,22.77,0,0,0,2.71,3.65l1,1.2a11.57,11.57,0,0,0,6.54,3.83c.06.74.13,1.45.19,2.12l-1.21-.43h0l-.53-.2c-.55-.2-1.36-.49-2.35-.79a33.86,33.86,0,0,0-6.5-1.34c-1.06-.1-2.2-.14-3.33-.15-3.12,0-6.23.26-7.84.38l-.4,0a6.57,6.57,0,0,0-.67.08c-1.46.25-2.27,1-4.25,1.72a7.73,7.73,0,0,1-.85.27l-.55.12-.36.07-.81.11h-.12l-1,.07h0a19.31,19.31,0,0,1-4.34-.25c-2.06-.4,1.46-1.6,3.46-2.33a19.58,19.58,0,0,1,5.58-.81H35.1c2,0,6.71-.23,7.53-.41l.29,0c.39,0,1.1,0,2,.1,1.45.11,3.37.3,5.11.48,2.44.26,4.54.5,4.54.5L53.62,51l-.42-.36-.93-.76-.46-.36a5,5,0,0,1-.87-.92,15.36,15.36,0,0,1-1.46-2.47s-7.11.45-10.72.71l-1.13.08-.53,0-.32,0a3.07,3.07,0,0,0-.93.33l-.58.31a23.12,23.12,0,0,1-4.67,2.09,27.94,27.94,0,0,1-9.38.93c-1.13-.2,2.59-3.53,6.19-4.52a14.66,14.66,0,0,1,2.66-.5h0a19.71,19.71,0,0,1,4.35.22l1.37.15h0c.38,0,.87,0,1.43,0s1.19,0,1.86-.05l2.1-.12c3.59-.25,7.39-.66,7.39-.66s-.8-2.73-2.66-3.46a8.74,8.74,0,0,0-2.58-.26h-.91c-.63,0-1.3,0-2,.08l-2,.13-1.86.15L34.06,42h-.21a1.26,1.26,0,0,0-.28,0l-.13,0-.27.09-.2.08-.32.13-.26.11-.38.16-.31.13-.43.2-.89.42-.2.09-.77.36-1.54.74c-3.06,1.46-7,.8-8,.67s1.8-3,4.19-4.13a10.4,10.4,0,0,1,4.85-.53h0l.88.08h.07l.81.08.58.06h.08l.44,0,2.62,0c2,0,4.6-.06,6-.11.54,0,.92,0,1-.07s.12,0,.12-.08,0-.08-.1-.14a9,9,0,0,0-1.37-.73c-.4-.19-.79-.37-1-.52-.8-.47-1.6-2.59-3.19-2.73a4.18,4.18,0,0,0-.66,0l-.27,0-.51.07-.39.08-.47.1-.51.13-.4.11-.62.19-.3.09-.74.25-.17.06-.81.3L30,38l-.82.33-.32.13c-2.13.93-8.18,1.4-9.91,1.33s2-1.66,4.26-2.79a9.84,9.84,0,0,1,6.19-.6h.08A47.49,47.49,0,0,0,36.63,36h.1l.34,0h0a.25.25,0,0,0,.19-.1c.28-.41-.63-1.89-1.33-2.36a.69.69,0,0,0-.19-.06l-.07,0-.32-.05h0l-.5-.05h-.13l-.57,0h-.08l-.77,0h-.13l-.81,0h-.08l-1,0h0l-1.11,0h0c-5.35-.19-12.59-.31-13.78-.56-1.86-.4,4.79-2.06,7.32-2.33,1.36-.14,4.58.52,7.28,1.17h0c2.31.55,4.23,1.09,4.23,1.09l-.06-.2L35,32a3.34,3.34,0,0,1,0-1.07c0-.39.12-.72.12-.72h0c-.18-.06-1-.32-1.67-.58h0L33,29.38c-.67-.33-15.9,0-18.7-.4S20.67,26.52,24.6,26.58Z"/></svg>