<svg id="bugs&#x6606;&#x866B;" xmlns="http://www.w3.org/2000/svg" viewbox="0 0 128 128" width="128" height="128"><defs><style>.cls-1{fill:#ac9f61;stroke:none;}.cls-2{fill:#768648;stroke:none;}.cls-3{fill:#5d5c2c;stroke:none;}.cls-4{fill:#4a5f30;stroke:none;}.cls-5{fill:#5c6e32;stroke:none;}.cls-6{fill:#678a17;stroke:none;}.cls-7{fill:#32160d;stroke:none;}.cls-8{fill:#914e34;stroke:none;}.cls-9{fill:#90451e;stroke:none;}.cls-10{fill:#a47e1f;stroke:none;}.cls-11{fill:#6c814f;stroke:none;}.cls-12{fill:#99b64e;stroke:none;}.cls-13{fill:#535a2e;stroke:none;}.cls-14{fill:#739632;stroke:none;}.cls-15{fill:#82a745;stroke:none;}.cls-16{fill:#231f20;opacity:0.21;stroke:none;}</style></defs><title>bugs&#x6606;&#x866B;</title><path class="cls-1" d="M72.26,50.64s7.3,4.43,9.87,7.94,2.72,5.79,3.93,6,12.59,2.22,14,2.65,3.79,1.86,3.43,2.65-1.86.93-2.93.21a25.94,25.94,0,0,0-8.66-3.22c-4.08-.72-7.58-.29-8.15-.64a21.75,21.75,0,0,1-4.22-4.65c-1.07-1.79-1.72-3.86-3.29-4.51a12.3,12.3,0,0,0-3.86-.64Z"/><path class="cls-2" d="M95.33,67.73a4,4,0,0,0,.32-1.41c-3.84-.72-8.81-1.6-9.59-1.74-1.22-.21-1.36-2.5-3.93-6a15.29,15.29,0,0,0-1.86-2,19.22,19.22,0,0,0-3.08,1.16A9.1,9.1,0,0,1,78.72,60c1.12,0,3.32,0,4.05,1A9,9,0,0,1,84.2,65.8c0,.19,0,.37,0,.54a62,62,0,0,1,7.72.53A25.17,25.17,0,0,1,95.33,67.73Z"/><path class="cls-3" d="M82.86,59.64c-.22-.34-.46-.69-.73-1.06-2.58-3.5-9.87-7.94-9.87-7.94l.14,5.79a12.3,12.3,0,0,1,3.86.64A3.83,3.83,0,0,1,78,58.7a5.94,5.94,0,0,1,2.73.17C81.5,59.11,82.25,59.39,82.86,59.64Z"/><path class="cls-4" d="M103.52,69.88c.36-.79-2-2.22-3.43-2.65-.66-.2-3.41-.73-6.31-1.26a3.4,3.4,0,0,1,.8,1.19c0,.12.06.24.08.36a24.74,24.74,0,0,1,5.93,2.57C101.66,70.81,103.16,70.66,103.52,69.88Z"/><path class="cls-1" d="M56.27,50.64S49,55.07,46.4,58.58s-2.72,5.79-3.93,6-12.59,2.22-14,2.65S24.66,69.09,25,69.88s1.86.93,2.93.21a25.94,25.94,0,0,1,8.66-3.22c4.08-.72,7.58-.29,8.15-.64A21.75,21.75,0,0,0,49,61.58c1.07-1.79,1.72-3.86,3.29-4.51a12.3,12.3,0,0,1,3.86-.64Z"/><path class="cls-2" d="M33.2,67.73a4,4,0,0,1-.32-1.41c3.84-.72,8.81-1.6,9.59-1.74,1.22-.21,1.36-2.5,3.93-6a15.29,15.29,0,0,1,1.86-2,19.22,19.22,0,0,1,3.08,1.16A9.1,9.1,0,0,0,49.81,60c-1.12,0-3.32,0-4.05,1a9,9,0,0,0-1.43,4.79c0,.19,0,.37,0,.54a62,62,0,0,0-7.72.53A25.17,25.17,0,0,0,33.2,67.73Z"/><path class="cls-3" d="M45.67,59.64c.22-.34.46-.69.73-1.06,2.58-3.5,9.87-7.94,9.87-7.94l-.14,5.79a12.3,12.3,0,0,0-3.86.64,3.83,3.83,0,0,0-1.7,1.62,5.94,5.94,0,0,0-2.73.17C47,59.11,46.28,59.39,45.67,59.64Z"/><path class="cls-4" d="M25,69.88c-.36-.79,2-2.22,3.43-2.65.66-.2,3.41-.73,6.31-1.26a3.4,3.4,0,0,0-.8,1.19c0,.12-.06.24-.08.36a24.74,24.74,0,0,0-5.93,2.57C26.87,70.81,25.37,70.66,25,69.88Z"/><path class="cls-5" d="M78.17,88.12a2.68,2.68,0,0,0-2.46.08A38.47,38.47,0,0,0,80,81C82,76.76,79.7,68.12,78.6,67.27s-2,.42-2,.42a29.66,29.66,0,0,0-1.61-6,62.74,62.74,0,0,1-2.37-12,13.32,13.32,0,0,0-1.44-4.49c-.51-.93.25-7.12.17-9.16s-1-1.7-1-1.7a3.47,3.47,0,0,0,1-1.7c.42-1.27-3.48-7.88-3.81-9.32S66.08,20.85,64,20.82h-.08c-2.06,0-3.14,1-3.48,2.45s-4.24,8.05-3.81,9.32a3.47,3.47,0,0,0,1,1.7s-.93-.34-1,1.7.68,8.22.17,9.16a13.32,13.32,0,0,0-1.44,4.49,62.74,62.74,0,0,1-2.37,12,29.67,29.67,0,0,0-1.61,6s-.93-1.27-2-.42S46,76.76,47.91,81a38.47,38.47,0,0,0,4.32,7.21,2.68,2.68,0,0,0-2.46-.08c-1.1.68-2.54.76-2.12,2.37s1.78,3.39,1.53,6.27-1.7,9.41-1,10.09,2.12.42,2.29-1.61,0-6.36.59-8.31a10.48,10.48,0,0,1,1.27-2.88S55,98.8,56.38,100.5s2,2.37,2,2.37.25,10.68.68,11.36a3.09,3.09,0,0,0,1.44,1s.17-3.31.42-2.2.08,3.81,1.44,3.81,1.53-4,1.53-4H64s.17,4,1.53,4S66.73,114.15,67,113s.42,2.2.42,2.2a3.09,3.09,0,0,0,1.44-1c.42-.68.68-11.36.68-11.36s.68-.68,2-2.37,4.07-6.44,4.07-6.44a10.48,10.48,0,0,1,1.27,2.88c.59,1.95.42,6.27.59,8.31s1.61,2.29,2.29,1.61-.76-7.21-1-10.09,1.1-4.66,1.53-6.27S79.27,88.8,78.17,88.12Z"/><path class="cls-6" d="M68.52,29.75a7,7,0,0,1-1.78-4.15c-.26-2.16-1.24-4-2.8-4.08h0c-1.56,0-2.54,1.92-2.8,4.08a7,7,0,0,1-1.78,4.15c-.66.66-1.38,1.18-.79,2.3a3.39,3.39,0,0,0,1.25,1.45,18.83,18.83,0,0,1,8.26,0,3.39,3.39,0,0,0,1.25-1.45C69.9,30.94,69.17,30.41,68.52,29.75Z"/><path class="cls-7" d="M67.32,25.92c.28-.4.83-.88,2.15-.5a3.48,3.48,0,0,1,2.43,4.08c-.55,2.1-1.71,2.32-3.14.61S66.66,26.86,67.32,25.92Z"/><path class="cls-8" d="M69.47,25.43c-1.19-.35-1.74,0-2.05.37.86.23,2.18.72,2.51,1.55.46,1.19.46,2.63.83,2.94.13.11.37.28.59.47a3.56,3.56,0,0,0,.55-1.25A3.48,3.48,0,0,0,69.47,25.43Z"/><path class="cls-9" d="M67,23.43s3.29-3.57,3.91-4,15.14-6.75,15.88-7,7-2.67,7.32-2.89S95.22,8.35,95.5,9s-3.69,2.1-8.17,4-13.55,5-15.25,6.58a28.94,28.94,0,0,0-3.91,4.2l-.51.85Z"/><path class="cls-3" d="M94.08,9.48c-.34.23-6.58,2.61-7.32,2.89s-15.25,6.58-15.88,7l-.3.26c0,.5,0,1-.06,1.47.5-.5,1-1,1.56-1.51C73.78,18,82.85,15,87.33,13.06s8.45-3.35,8.17-4S94.42,9.26,94.08,9.48Z"/><path class="cls-10" d="M95.5,9c-.28-.68-1.08.23-1.42.45s-6.58,2.61-7.32,2.89l-.55.23a1.52,1.52,0,0,1,1.11.45C91.81,11.13,95.78,9.71,95.5,9Z"/><path class="cls-11" d="M70.89,38A28.94,28.94,0,0,0,79.11,36c3.57-1.59,4.82-2.1,3.8-3.12s-3.35-3.06-2.5-4,2.27-3.69,2.72-3.8,2.95-3.4,3.52-3.18,1,.51-.11,1.76-2.38,2.15-2.27,2.44-.06.79-.74,1.42-1.13,1.3-.68,2.1,3.63,4.71,3.46,5.73-6.86,4.37-10.15,5a11.13,11.13,0,0,1-5.33,0Z"/><path class="cls-3" d="M84,32.45a8.28,8.28,0,0,1-2.72-3.06c-.17-.74,2.27-3.46,2.15-3.91L83.3,25a.57.57,0,0,1-.17.1c-.45.11-1.87,2.89-2.72,3.8s1.47,2.95,2.5,4-.23,1.53-3.8,3.12A28.94,28.94,0,0,1,70.89,38v.41a14.29,14.29,0,0,0,6.36-.47c4.76-1.25,7.09-1.81,7.09-2.44S83.7,34,84,33.81,85.06,33.19,84,32.45Z"/><path class="cls-12" d="M75.63,94.06a10.48,10.48,0,0,1,1.27,2.88c.59,1.95.42,6.27.59,8.31s1.61,2.29,2.29,1.61-.76-7.21-1-10.09,1.1-4.66,1.53-6.27-1-1.7-2.12-2.37a2.68,2.68,0,0,0-2.46.08A38.47,38.47,0,0,0,80,81C82,76.76,79.7,68.12,78.6,67.27s-2,.42-2,.42a32.53,32.53,0,0,0-4.9,10.86c-1.51,6.34-2.81,12.1-3.67,13.69a24.54,24.54,0,0,0-1.8,6.41c-.22,1.51.65,3.67,1.8,4a6.31,6.31,0,0,0,1.54.27s.68-.68,2-2.37S75.63,94.06,75.63,94.06Z"/><path class="cls-13" d="M79.79,69.9a67.23,67.23,0,0,1-3.32,11.36c-2.72,7.09-6.35,13.84-6.52,15s1.25,3.86.45,3.46-1.81-2.33-2.78-1.64a5.46,5.46,0,0,0-1.36,2c.25,1.18.91,2.32,1.72,2.52a6.31,6.31,0,0,0,1.54.27s.68-.68,2-2.37,4.07-6.44,4.07-6.44a10.48,10.48,0,0,1,1.27,2.88c.59,1.95.42,6.27.59,8.31s1.61,2.29,2.29,1.61-.76-7.21-1-10.09,1.1-4.66,1.53-6.27-1-1.7-2.12-2.37a2.68,2.68,0,0,0-2.46.08A38.47,38.47,0,0,0,80,81C81.39,78.06,80.7,73,79.79,69.9Z"/><path class="cls-2" d="M75.63,94.06a10.48,10.48,0,0,1,1.27,2.88c.59,1.95.42,6.27.59,8.31s1.61,2.29,2.29,1.61-.76-7.21-1-10.09,1.1-4.66,1.53-6.27-1-1.7-2.12-2.37a2.68,2.68,0,0,0-2.46.08s-4.27,6-4.13,6.84.72,1.8.22,2.74a7,7,0,0,0-1.08,3.1,3.35,3.35,0,0,0,.1.52l.74-.9C72.92,98.8,75.63,94.06,75.63,94.06Z"/><path class="cls-4" d="M79.78,106.86c.68-.68-.76-7.21-1-10.09s1.1-4.66,1.53-6.27a1.43,1.43,0,0,0,0-1,31.36,31.36,0,0,0-3.09,2.86c-1,1.19-1.52,1.74-1.52,1.74a10.48,10.48,0,0,1,1.27,2.88c.59,1.95.42,6.27.59,8.31S79.11,107.54,79.78,106.86Z"/><path class="cls-12" d="M52.28,94.06A10.48,10.48,0,0,0,51,96.94c-.59,1.95-.42,6.27-.59,8.31s-1.61,2.29-2.29,1.61.76-7.21,1-10.09S48,92.11,47.62,90.5s1-1.7,2.12-2.37a2.68,2.68,0,0,1,2.46.08A38.47,38.47,0,0,1,47.87,81c-1.95-4.24.34-12.88,1.44-13.73s2,.42,2,.42a32.53,32.53,0,0,1,4.9,10.86c1.51,6.34,2.81,12.1,3.67,13.69a24.54,24.54,0,0,1,1.8,6.41c.22,1.51-.65,3.67-1.8,4a6.31,6.31,0,0,1-1.54.27s-.68-.68-2-2.37S52.28,94.06,52.28,94.06Z"/><path class="cls-13" d="M48.12,69.9a67.23,67.23,0,0,0,3.32,11.36c2.72,7.09,6.35,13.84,6.52,15s-1.25,3.86-.45,3.46,1.81-2.33,2.78-1.64a5.46,5.46,0,0,1,1.36,2c-.25,1.18-.91,2.32-1.72,2.52a6.31,6.31,0,0,1-1.54.27s-.68-.68-2-2.37-4.07-6.44-4.07-6.44A10.48,10.48,0,0,0,51,96.94c-.59,1.95-.42,6.27-.59,8.31s-1.61,2.29-2.29,1.61.76-7.21,1-10.09S48,92.11,47.62,90.5s1-1.7,2.12-2.37a2.68,2.68,0,0,1,2.46.08A38.47,38.47,0,0,1,47.87,81C46.52,78.06,47.21,73,48.12,69.9Z"/><path class="cls-2" d="M52.28,94.06A10.48,10.48,0,0,0,51,96.94c-.59,1.95-.42,6.27-.59,8.31s-1.61,2.29-2.29,1.61.76-7.21,1-10.09S48,92.11,47.62,90.5s1-1.7,2.12-2.37a2.68,2.68,0,0,1,2.46.08s4.27,6,4.13,6.84-.72,1.8-.22,2.74a7,7,0,0,1,1.08,3.1,3.35,3.35,0,0,1-.1.52l-.74-.9C55,98.8,52.28,94.06,52.28,94.06Z"/><path class="cls-4" d="M48.13,106.86c-.68-.68.76-7.21,1-10.09S48,92.11,47.62,90.5a1.43,1.43,0,0,1,0-1,31.36,31.36,0,0,1,3.09,2.86c1,1.19,1.52,1.74,1.52,1.74A10.48,10.48,0,0,0,51,96.94c-.59,1.95-.42,6.27-.59,8.31S48.81,107.54,48.13,106.86Z"/><path class="cls-7" d="M60.6,25.92c-.28-.4-.83-.88-2.15-.5A3.48,3.48,0,0,0,56,29.51c.55,2.1,1.71,2.32,3.14.61S61.27,26.86,60.6,25.92Z"/><path class="cls-8" d="M58.45,25.43c1.19-.35,1.74,0,2.05.37-.86.23-2.18.72-2.51,1.55-.46,1.19-.46,2.63-.83,2.94-.13.11-.37.28-.59.47A3.56,3.56,0,0,1,56,29.51,3.48,3.48,0,0,1,58.45,25.43Z"/><path class="cls-9" d="M61,23.43s-3.29-3.57-3.91-4-15.14-6.75-15.88-7-7-2.67-7.32-2.89S32.71,8.35,32.43,9s3.69,2.1,8.17,4,13.55,5,15.25,6.58a28.94,28.94,0,0,1,3.91,4.2l.51.85Z"/><path class="cls-3" d="M33.85,9.48c.34.23,6.58,2.61,7.32,2.89S56.42,19,57,19.41l.3.26c0,.5,0,1,.06,1.47-.5-.5-1-1-1.56-1.51C54.15,18,45.07,15,40.59,13.06s-8.45-3.35-8.17-4S33.51,9.26,33.85,9.48Z"/><path class="cls-10" d="M32.43,9c.28-.68,1.08.23,1.42.45s6.58,2.61,7.32,2.89l.55.23a1.52,1.52,0,0,0-1.11.45C36.11,11.13,32.14,9.71,32.43,9Z"/><path class="cls-11" d="M57,38A28.94,28.94,0,0,1,48.82,36C45.24,34.44,44,33.93,45,32.9s3.35-3.06,2.5-4-2.27-3.69-2.72-3.8-2.95-3.4-3.52-3.18-1,.51.11,1.76,2.38,2.15,2.27,2.44.06.79.74,1.42,1.13,1.3.68,2.1-3.63,4.71-3.46,5.73,6.86,4.37,10.15,5a11.13,11.13,0,0,0,5.33,0Z"/><path class="cls-3" d="M43.94,32.45a8.28,8.28,0,0,0,2.72-3.06c.17-.74-2.27-3.46-2.15-3.91l.12-.44a.57.57,0,0,0,.17.1c.45.11,1.87,2.89,2.72,3.8S46,31.88,45,32.9s.23,1.53,3.8,3.12A28.94,28.94,0,0,0,57,38v.41a14.29,14.29,0,0,1-6.36-.47c-4.76-1.25-7.09-1.81-7.09-2.44s.62-1.42.28-1.64S42.86,33.19,43.94,32.45Z"/><path class="cls-14" d="M64.18,50.64c-.46-.16-4.49-.11-5.29,2-.87,2.34-2.6,5.61-1.4,15.88s3.67,35.64,3.94,39a21.78,21.78,0,0,1,0,5.43c0,.17-.06,1.23-.06,2.52.17.72.47,4.42,1.09,4.42,1.36,0,1.53-7.11,1.53-7.11H64s.17,7.11,1.53,7.11S66.73,114.15,67,113a21.78,21.78,0,0,1,0-5.43c.27-3.4,2.74-28.77,3.94-39S70.34,55,69.47,52.68C68.67,50.53,64.64,50.48,64.18,50.64Z"/><path class="cls-15" d="M68.55,54.27c-1.11-1.85-4.24-1.79-4.43-1.78s-3.32-.07-4.43,1.78,2.16,56.59,3.43,56.71c.61.06.88-1,1-2.11.12,1.12.39,2.17,1,2.11C66.39,110.86,69.7,56.18,68.55,54.27Z"/><path class="cls-6" d="M67.33,44.63a7.51,7.51,0,0,0,2-.26c.66-.26.72-7.37-.26-8.75s-3-2-5-2H64c-2,0-4,.68-5,2s-.92,8.49-.26,8.75a7.51,7.51,0,0,0,2,.26A3.89,3.89,0,0,0,57.51,49c.26,4,5.07,5.59,6.58,5.59h0c1.51,0,6.32-1.58,6.58-5.59A3.89,3.89,0,0,0,67.33,44.63Z"/><path class="cls-16" d="M78.6,67.27c-1.1-.85-2,.42-2,.42a29.66,29.66,0,0,0-1.61-6,62.74,62.74,0,0,1-2.37-12,13.32,13.32,0,0,0-1.44-4.49c-.51-.93.25-7.12.17-9.16s-1-1.7-1-1.7a3.47,3.47,0,0,0,1-1.7c.42-1.27-3.48-7.88-3.81-9.32S66.08,20.85,64,20.82H64v92.06H64s.17,4,1.53,4S66.73,114.15,67,113s.42,2.2.42,2.2a3.09,3.09,0,0,0,1.44-1c.42-.68.68-11.36.68-11.36s.68-.68,2-2.37,4.07-6.44,4.07-6.44a10.48,10.48,0,0,1,1.27,2.88c.59,1.95.42,6.27.59,8.31s1.61,2.29,2.29,1.61-.76-7.21-1-10.09,1.1-4.66,1.53-6.27-1-1.7-2.12-2.37a2.68,2.68,0,0,0-2.46.08A38.47,38.47,0,0,0,80,81C82,76.76,79.7,68.12,78.6,67.27Z"/></svg>