<svg xmlns="http://www.w3.org/2000/svg" viewbox="0 0 128 128" width="128" height="128"><defs><style>.cls-1{isolation:isolate;stroke:none;}.cls-2{fill:#621304;stroke:none;}.cls-3{fill:#b65030;stroke:none;}.cls-4{fill:#cc6a47;stroke:none;}.cls-5{fill:#231f20;opacity:0.19;mix-blend-mode:multiply;stroke:none;}.cls-6{fill:#944023;stroke:none;}.cls-7{fill:#dc8c65;stroke:none;}.cls-8{fill:#a9492a;stroke:none;}.cls-9{fill:#83361f;stroke:none;}.cls-10{fill:#b97628;stroke:none;}</style></defs><title>bugs&#x6606;&#x866B;</title><g class="cls-1"><g id="bugs&#x6606;&#x866B;"><path class="cls-2" d="M13.68,61.6a9.22,9.22,0,0,1,3.25,3.9c1.15,2.62,1.4,3.75,1.92,3.67s.27-2.46-1.56-5.64c-1.64-2.84-1.63-2.66-1.63-2.66Z"/><path class="cls-2" d="M11.93,61.44a7.34,7.34,0,0,1,2.3,3.32c.73,2.16.85,3.07,1.26,3s.39-1.93-.84-4.58A11.56,11.56,0,0,0,13.55,61Z"/><path class="cls-2" d="M15.75,61.12a18,18,0,0,1,4.68,4.41c1.68,2.32,2,6,2.53,5.89s.4-3.57-1.62-6.63a16.84,16.84,0,0,0-4.14-4.31Z"/><path class="cls-2" d="M35.44,87.56a9.92,9.92,0,0,1,0,1.51,8.09,8.09,0,0,0,.22,2.72l.13.23a.12.12,0,0,0,0,0,21.17,21.17,0,0,1-.91,3.38.69.69,0,0,1-.52.23.1.1,0,0,0-.09.08.13.13,0,0,0,0,.13,1.83,1.83,0,0,0,.67.34.26.26,0,0,0,.18,0h0c.2-.13.3-.41.52-1l.11-.28a8.88,8.88,0,0,0,.5-2.3h0c.08,0,.15-.06.21-.17a4.14,4.14,0,0,0,.07-1.68,18.49,18.49,0,0,1,0-2.23c0-.44.05-.9.07-1.35"/><path class="cls-2" d="M50.49,96.31a16.71,16.71,0,0,1,.06,2.3,13.59,13.59,0,0,0,.3,4.16l.18.36a.19.19,0,0,0,0,.07,35,35,0,0,1-1.26,5.16.91.91,0,0,1-.72.36c-.05,0-.1,0-.12.12a.21.21,0,0,0,0,.2,2.46,2.46,0,0,0,.93.53.33.33,0,0,0,.25,0h0c.27-.2.42-.63.72-1.48l.15-.43a14.77,14.77,0,0,0,.69-3.51h0c.1,0,.2-.09.3-.26a7,7,0,0,0,.09-2.56,31.14,31.14,0,0,1,0-3.4c0-.67.07-1.38.09-2.06"/><path class="cls-2" d="M74.21,100.38a21.07,21.07,0,0,1,.7,2.82c.43,2,.92,4.35,1.5,5l.32.39a.24.24,0,0,0,0,.1,44.11,44.11,0,0,1-.15,6.7,1.15,1.15,0,0,1-.79.63c-.07,0-.11.09-.12.19a.26.26,0,0,0,.11.23,3.1,3.1,0,0,0,1.28.4.42.42,0,0,0,.3-.13h0c.28-.32.35-.89.49-2l.07-.57a18.63,18.63,0,0,0-.1-4.51h0c.13,0,.22-.16.29-.4.13-.44-.11-1.39-.58-3.17a39.28,39.28,0,0,1-1-4.19c-.12-.83-.29-1.72-.45-2.57"/><path class="cls-3" d="M37,89.91l-1.9-.56s-.61-9,.88-8.77S37,89.91,37,89.91Z"/><path class="cls-3" d="M52.65,99.89,50,99s-.84-13.72,1.22-13.38S52.65,99.89,52.65,99.89Z"/><path class="cls-3" d="M77.84,104.21l-3.47-.34s-4.77-16.68-2.13-16.81S77.84,104.21,77.84,104.21Z"/><path class="cls-3" d="M40.43,34.63a24.83,24.83,0,0,0-4.19,2.06,22.49,22.49,0,0,0-2.75,2.06l-1.17-1.38a63,63,0,0,0-7.56,4.47,22.46,22.46,0,0,0-3.51,3.37S18.84,51.89,19.18,55a34.87,34.87,0,0,1,.28,4.74,6.52,6.52,0,0,0,6.88,3.37c4.81-.83,15.06-4,15.06-4S48.19,64.74,52,65s4.88-.89,4.88-.89a33.43,33.43,0,0,0,4.54,3.44,9.29,9.29,0,0,0,3.23,1.17l1-1.51a13.88,13.88,0,0,0,3.78,2.68c1.79.69,3.3,1.31,3.3,1.31l.76-.89A34.91,34.91,0,0,0,78,72.58a31,31,0,0,0,3.16.89l1-1.79s3.23,1.1,4.81,1.51,4.4.83,4.4.83l.21-1s7.91-2.41,9.76-2.82a39.21,39.21,0,0,0,4.74-1.58l-.21-1.93s5-2.82,7.7-6.05,2.68-5.16,2.68-5.16l-1.38-2,2.68-1.93s-.83-5.43-2.89-8.32A15.31,15.31,0,0,0,110.08,39l.41-1.93A26.21,26.21,0,0,0,105.12,35a25.2,25.2,0,0,0-4.26-.83l.28-2.89a43.56,43.56,0,0,0-6.19-1c-3-.21-5.16-.28-5.16-.28l-.21-2.41s-3-.14-5.84,0a21.17,21.17,0,0,0-4.33.55l-.21-1.44a27.12,27.12,0,0,0-6.46.55,39.48,39.48,0,0,0-5.64,1.24l-.28-1.1a48.13,48.13,0,0,0-5.91,1,29.87,29.87,0,0,0-4.74,1.51l-.76-1.17a14.21,14.21,0,0,0-4.26,1.93,34.91,34.91,0,0,1-3.58,2.27l-.28-1.1a10.49,10.49,0,0,0-3.58,1.51c-1.51,1.1-2.89,2.06-2.89,2.06Z"/><path class="cls-4" d="M37.71,47.17c-.34,2.65-1.35,3.39-1.35,3.39s2.26,2.37,3.1,3.16a9.94,9.94,0,0,0,1.3,1.07s3.84-5.36,2.37-11.57-2.29-7.83-2.29-7.83l-.41-.76a24.83,24.83,0,0,0-4.19,2.06,22.49,22.49,0,0,0-2.75,2.06S38.05,44.51,37.71,47.17Z"/><path class="cls-4" d="M50.41,45.92a14.09,14.09,0,0,1,5.7-.62A12.46,12.46,0,0,1,61,46.77a39.71,39.71,0,0,0-2.14-10.61,61.48,61.48,0,0,0-2.65-6.28l-.76-1.17a14.21,14.21,0,0,0-4.26,1.93,34.9,34.9,0,0,1-3.58,2.27s1,5.17,1.59,7.37S50.41,45.92,50.41,45.92Z"/><path class="cls-4" d="M73.52,52.36s5.91-1,8.1-4.16-2.21-20-2.21-20l-.21-1.44a27.12,27.12,0,0,0-6.46.55,39.48,39.48,0,0,0-5.64,1.24s2,4.23,3.8,14.81S63,53.16,63,53.16s.29,1.82-1.24,6.27-4.86,4.69-4.86,4.69a33.43,33.43,0,0,0,4.54,3.44,9.29,9.29,0,0,0,3.23,1.17l1-1.51s1.89-2.68,3.86-6A61.2,61.2,0,0,0,73.52,52.36Z"/><path class="cls-4" d="M81.2,73.48l1-1.79s3.25-6.35,4.71-9.7.88-5.25.88-5.25,10.72,3,11.81-7,1.3-15.59,1.3-15.59l.28-2.89a43.57,43.57,0,0,0-6.19-1c-3-.21-5.16-.27-5.16-.27S93.07,50.9,88.4,53.09,81.33,55,81.33,55s.29,3.21-3,8.24-4.77,7.09-4.77,7.09A34.9,34.9,0,0,0,78,72.58,31,31,0,0,0,81.2,73.48Z"/><path class="cls-4" d="M110.08,39,107,50a18.5,18.5,0,0,1,5,1.31,15.68,15.68,0,0,1,2.86,2.2L118,52.25a20,20,0,0,0-3.34-9A16,16,0,0,0,110.08,39Z"/><path class="cls-4" d="M106.09,68.59l-.21-1.93s-.63-5.26-1.14-7.31a6.11,6.11,0,0,0-1.09-2.63A5.41,5.41,0,0,1,100,58.41a11.56,11.56,0,0,1-5-.88,53.8,53.8,0,0,1-1.39,8.68A69,69,0,0,1,91.58,73s7.91-2.41,9.76-2.82A39.22,39.22,0,0,0,106.09,68.59Z"/><path class="cls-5" d="M115.44,54.27l-4.35,4.67c-2,2.13-10.64,7.85-13.57,8.73s-7.78,2.57-10.86.66-8.88.37-11-.88-5-.15-7.12-2.27S63.25,63.78,61.27,62s-5-1.39-5.65-1.25S48.43,57.84,44,55.05,35.37,58.21,27.6,60c-5,1.13-7.12.06-8.14-1,0,.47,0,.72,0,.72a6.52,6.52,0,0,0,6.88,3.37c4.81-.83,15.06-4,15.06-4S48.19,64.74,52,65s4.88-.89,4.88-.89a33.43,33.43,0,0,0,4.54,3.44,9.29,9.29,0,0,0,3.23,1.17l1-1.51a13.88,13.88,0,0,0,3.78,2.68c1.79.69,3.3,1.31,3.3,1.31l.76-.89A34.9,34.9,0,0,0,78,72.58a31,31,0,0,0,3.16.89l1-1.79s3.23,1.1,4.81,1.51,4.4.83,4.4.83l.21-1s7.91-2.41,9.76-2.82a39.22,39.22,0,0,0,4.74-1.58l-.21-1.93s5-2.82,7.7-6.05,2.68-5.16,2.68-5.16Z"/><path class="cls-3" d="M28.68,71.81s-.44-3.07,0-4.2,1.07-3.12.24-4.1-2.24-2.78-4.49-2.24-2.59,4.15-.63,7,3.42,4.44,4,4.78S28.68,71.81,28.68,71.81Z"/><path class="cls-4" d="M26,61.26a3.26,3.26,0,0,0-1.54,0c-2.24.54-2.59,4.15-.63,7a22.29,22.29,0,0,0,3.8,4.61,3.61,3.61,0,0,0,.3-1.05s-.46-3.19,0-4.36,1.11-3.24.25-4.26A8.1,8.1,0,0,0,26,61.26Z"/><path class="cls-6" d="M36,74s-5.73-2.73-7.47-2.15-.95,2.29,1.1,2.63,5.73.68,5.73.68Z"/><path class="cls-3" d="M29.62,74.44c2,.34,5.73.68,5.73.68l.44-.8c-1.07-.48-5.86-2.57-7.45-2a1.57,1.57,0,0,0-.76.49C27.53,73.45,28.32,74.22,29.62,74.44Z"/><path class="cls-3" d="M37.46,82.05l-2.73-.49S33.85,73.76,36,74,37.46,82.05,37.46,82.05Z"/><path class="cls-4" d="M36,74c-2.15-.2-1.27,7.61-1.27,7.61l2.33.42c.09-1.22.37-6.39-.85-8A.82.82,0,0,0,36,74Z"/><path class="cls-3" d="M39.65,72.32a6.24,6.24,0,0,1-.45-4.51c.6-2.93,2.18-6.32.15-8.88s-4.82-3.61-7.3-2.48-3.54,5.64.6,11.51,6,6.92,6,6.92Z"/><path class="cls-4" d="M38.23,58.87a7.67,7.67,0,0,0-4-2.85,4.91,4.91,0,0,0-2.17.43c-2.48,1.13-3.54,5.64.6,11.51A37.08,37.08,0,0,0,38,74.33l.58-1.55a6.62,6.62,0,0,1-.46-4.69C38.69,65,40.29,61.52,38.23,58.87Z"/><path class="cls-6" d="M50.63,75.33s-7.7-3.24-10.36-3.16S36.76,75,40,76s9.91,1.13,9.91,1.13Z"/><path class="cls-3" d="M49.95,77.14l.51-1.35c-.86-.35-8-3.2-10.57-3.12a3,3,0,0,0-1.78.57c-.52.9,0,2.14,1.93,2.77C43.32,77.06,49.95,77.14,49.95,77.14Z"/><path class="cls-3" d="M54.18,72.32s-1.57-1.81-1.29-5.57,1.71-8.26-1.24-11.13S45,51.88,42.11,53.69,38.6,61.32,44.72,68s8.65,7.69,8.65,7.69Z"/><path class="cls-4" d="M51.87,67.17c.29-4,1.8-8.84-1.34-11.92a12,12,0,0,0-2.88-2.12,6.46,6.46,0,0,0-5.54.56C39.19,55.5,38.6,61.32,44.72,68c4.39,4.78,6.92,6.65,8,7.33l.52-2.18S51.58,71.2,51.87,67.17Z"/><path class="cls-6" d="M68.28,74.67s-10-3.05-13.25-2.61-4,3.95.22,4.84S67.67,77,67.67,77Z"/><path class="cls-3" d="M54.55,72.71a4,4,0,0,0-2,.78c-.7,1.22,0,2.85,2.67,3.42,4.2.89,12.42.12,12.42.12l.47-1.81C66.83,74.84,57.72,72.28,54.55,72.71Z"/><ellipse class="cls-7" cx="23.86" cy="64.96" rx="0.67" ry="1.9" transform="translate(-12.5 6.08) rotate(-11.53)"/><ellipse class="cls-7" cx="24.49" cy="67.61" rx="0.43" ry="0.63" transform="translate(-18.76 10.16) rotate(-17.07)"/><ellipse class="cls-7" cx="32.23" cy="64.62" rx="0.59" ry="0.87" transform="translate(-17.54 12.3) rotate(-17.07)"/><ellipse class="cls-7" cx="44.07" cy="64.16" rx="0.74" ry="1.41" transform="translate(-20.63 20.88) rotate(-21.74)"/><ellipse class="cls-7" cx="31.62" cy="61.55" rx="1.15" ry="2.55" transform="translate(-11.66 7.56) rotate(-11.53)"/><ellipse class="cls-7" cx="42.65" cy="59.21" rx="1.72" ry="3.08" transform="translate(-10.97 9.72) rotate(-11.53)"/><path class="cls-3" d="M52.35,87.74l-1.9-.39a1.6,1.6,0,0,1-1.28-1.46c-.22-3.09-.54-11,1.85-10.73,2.54.26,2.22,9.38,2.07,12A.61.61,0,0,1,52.35,87.74Z"/><path class="cls-4" d="M51,75.17C48.62,75,49,83,49.18,86a1.49,1.49,0,0,0,1.19,1.36l1.52.31a.53.53,0,0,0,.64-.49C52.67,84.31,52.86,76.81,51,75.17Z"/><path class="cls-3" d="M73.82,89.19l-2.93.06a1.36,1.36,0,0,1-1.33-1c-1-3.27-3.88-13.64-.73-14s5.23,10.72,5.76,14A.79.79,0,0,1,73.82,89.19Z"/><path class="cls-4" d="M70.73,89.25l2.6-.05a.55.55,0,0,0,.54-.64c-.54-3.3-2.34-12.8-5.11-14.26-3.06.55-.08,11.08.86,14.14A1.14,1.14,0,0,0,70.73,89.25Z"/><path class="cls-8" d="M21.49,43.21s-8.27,4.54-10.35,10-.22,9.83,2.68,9.08,7.89-1.56,9.9-7.45S21.49,43.21,21.49,43.21Z"/><path class="cls-4" d="M11.14,53.19c-1.37,3.57-1,6.68.19,8.19,3.19-.78,8.1-1.91,10.15-7.91a13.41,13.41,0,0,0-.85-9.75C18.47,45,12.81,48.82,11.14,53.19Z"/><circle class="cls-2" cx="14.67" cy="55.43" r="1.63"/><path class="cls-9" d="M14.67,53.79a1.63,1.63,0,0,0-1.18,2.76,1.71,1.71,0,0,0,.77.19A1.72,1.72,0,0,0,16,55a1.71,1.71,0,0,0-.19-.77A1.63,1.63,0,0,0,14.67,53.79Z"/><path class="cls-10" d="M14.46,54.3c-.19-.15-.54,0-.76.24a.85.85,0,0,0-.19.43.35.35,0,0,0,.12.19c.2.16.57,0,.8-.26a1,1,0,0,0,.15-.28A.39.39,0,0,0,14.46,54.3Z"/><path class="cls-7" d="M35.42,74.76a7,7,0,0,0-.58,2.76c-.06,1.76-.12,3.49.15,3.61a4.38,4.38,0,0,0,.73.21s-.58-.27-.55-2.24S35.42,74.76,35.42,74.76Z"/><path class="cls-7" d="M50.19,76.64a15.63,15.63,0,0,0-.58,4.23c-.06,2.69-.12,5.34.15,5.53a3.3,3.3,0,0,0,.73.33s-.58-.42-.55-3.44S50.19,76.64,50.19,76.64Z"/><path class="cls-7" d="M67.88,76.12a19.81,19.81,0,0,0,.48,5.58c.71,3.46,1.27,6.42,2,6.94a2.06,2.06,0,0,0,1.33.21s-1.29-.31-2.14-4.17S67.88,76.12,67.88,76.12Z"/></g></g></svg>