<svg id="bugs&#x6606;&#x866B;" xmlns="http://www.w3.org/2000/svg" viewbox="0 0 128 128" width="128" height="128"><defs><style>.cls-1{fill:#1a0c0e;stroke:none;}.cls-2{fill:#541f19;stroke:none;}.cls-3{fill:#3c2f2a;stroke:none;}.cls-4{fill:#72572a;stroke:none;}.cls-5{fill:#442c1b;stroke:none;}.cls-6{fill:#72552a;stroke:none;}.cls-7{fill:#c29e4b;stroke:none;}.cls-8{fill:#231f20;opacity:0.25;stroke:none;}.cls-9{fill:#dbd9da;stroke:none;}.cls-10,.cls-9{opacity:0.6;stroke:none;}.cls-10{fill:#af895c;stroke:none;}.cls-11{fill:#be202f;stroke:none;}.cls-12{fill:#d0332f;stroke:none;}</style></defs><title>bugs&#x6606;&#x866B;</title><path class="cls-1" d="M54.64,63.09s-2.88-.26-3.79-.39a7.39,7.39,0,0,0-4.71.07c-2.55.85-3.4,1.3-5.36,1.18-3.14-.2-7.13-7.91-10.27-9.22s-11.71-.59-14.52,0-3.4.65-4.05.26-.85-1.31.52-1.5a66.44,66.44,0,0,1,9.94-1c4.64-.07,8.18.39,8.76.78s8.24,8.24,8.89,8.24,7.85-1.83,10.27-2.09a29.61,29.61,0,0,1,4-.2Z"/><path class="cls-2" d="M42,62.7c-1.62-.12-4.16-2.44-5-3.83-1.38-1.31-2.95-2.86-4.12-4a16.27,16.27,0,0,0-8.08-1.38,121.87,121.87,0,0,0-13,1.41l.13.1c.65.39,1.24.33,4.05-.26s11.38-1.31,14.52,0,7.13,9,10.27,9.22a8.05,8.05,0,0,0,3.48-.54A4.22,4.22,0,0,0,42,62.7Z"/><path class="cls-1" d="M54.11,67.81s-4.66,2.06-7.27,3.31-5.1,1.84-5.15,2.39a5.22,5.22,0,0,0,.11,1.3s-3.31,2.77-4.07,4.88a13,13,0,0,0-.65,4.39,73.68,73.68,0,0,0-7.76,6.51c-3.85,3.74-7.16,7.21-7.59,7.38s-1.3.71-.71,1,1.3.92,1.3,1.25.71.76.76-.54,2.28-3.47,4.39-5.37,8.73-7.76,9.76-8.3,3-1.63,2.82-2.71-1-3.69-.05-4.61,2.82-2.87,2.82-2.87.6.87,2-.11A33.63,33.63,0,0,1,50.42,72l2.49-1.19Z"/><path class="cls-2" d="M44.41,72.15c-1.54.6-2.69,1-2.73,1.36a5.22,5.22,0,0,0,.11,1.3s-3.31,2.77-4.07,4.88a13,13,0,0,0-.65,4.39s.29.17.69-.16a3.55,3.55,0,0,0,1.06-2.19,9.47,9.47,0,0,1,.85-2.36,1.42,1.42,0,0,1,.33-.66c.92-.92,2.82-2.87,2.82-2.87a2.72,2.72,0,0,1,.58-.94A12.08,12.08,0,0,0,44.41,72.15Z"/><path class="cls-1" d="M74.19,63.09s2.88-.26,3.79-.39a7.39,7.39,0,0,1,4.71.07c2.55.85,3.4,1.3,5.36,1.18,3.14-.2,7.13-7.91,10.27-9.22s11.71-.59,14.52,0,3.4.65,4.05.26.85-1.31-.52-1.5a66.44,66.44,0,0,0-9.94-1c-4.64-.07-8.18.39-8.76.78s-8.24,8.24-8.89,8.24-7.85-1.83-10.27-2.09a29.61,29.61,0,0,0-4-.2Z"/><path class="cls-2" d="M86.81,62.7c1.62-.12,4.16-2.44,5-3.83,1.38-1.31,2.95-2.86,4.12-4A16.27,16.27,0,0,1,104,53.48a121.87,121.87,0,0,1,13,1.41l-.13.1c-.65.39-1.24.33-4.05-.26s-11.38-1.31-14.52,0-7.13,9-10.27,9.22a8.05,8.05,0,0,1-3.48-.54A4.22,4.22,0,0,1,86.81,62.7Z"/><path class="cls-1" d="M74.72,67.81s4.66,2.06,7.27,3.31,5.1,1.84,5.15,2.39a5.22,5.22,0,0,1-.11,1.3s3.31,2.77,4.07,4.88a13,13,0,0,1,.65,4.39,73.68,73.68,0,0,1,7.76,6.51c3.85,3.74,7.16,7.21,7.59,7.38s1.3.71.71,1-1.3.92-1.3,1.25-.71.76-.76-.54-2.28-3.47-4.39-5.37-8.73-7.76-9.76-8.3-3-1.63-2.82-2.71,1-3.69.05-4.61S86,75.84,86,75.84s-.6.87-2-.11A33.63,33.63,0,0,0,78.41,72L75.91,70.8Z"/><path class="cls-2" d="M84.41,72.15c1.54.6,2.69,1,2.73,1.36a5.22,5.22,0,0,1-.11,1.3s3.31,2.77,4.07,4.88a13,13,0,0,1,.65,4.39s-.29.17-.69-.16A3.55,3.55,0,0,1,90,81.73a9.47,9.47,0,0,0-.85-2.36,1.42,1.42,0,0,0-.33-.66C87.9,77.79,86,75.84,86,75.84a2.72,2.72,0,0,0-.58-.94A12.08,12.08,0,0,1,84.41,72.15Z"/><path class="cls-3" d="M55.14,65.13a27.63,27.63,0,0,0-4.43,9.68c-3,15.85,11.72,24.12,14.12,24.12s11.89-6.41,13.37-14.71a26.7,26.7,0,0,0-3-17.8C73.49,63.66,55.14,65.13,55.14,65.13Z"/><path class="cls-4" d="M74.6,71.5c.49-1.35.93-2.69,1.26-3.78-.25-.5-.49-.93-.71-1.3A3.43,3.43,0,0,0,73,65.35l-17.19-.27-.69.05a27.93,27.93,0,0,0-1.56,2.45,11.48,11.48,0,0,0,1.66,4.56A9,9,0,0,0,58,74.63s-4.8-.65-4.7,3.14,2.12,9.59,5.07,11.16S63,89.8,62,90.4c-3.17,1.82,1.6,8,2.43,8s4.3-5.1,4.3-6.11-2.49-2.21-1-2.4a7,7,0,0,0,5.53-3.5c1.29-2.58,3.6-9.68,1.66-10.7a6.25,6.25,0,0,0-4.06-.46A7,7,0,0,0,74.6,71.5Z"/><path class="cls-5" d="M64.3,31.65s-1.24-3.05-3.39-4.3a16.36,16.36,0,0,0-4.3-1.7s4.3,2,4.75,4.07S62,33,62,33a8.3,8.3,0,0,0-5.2,4.53A32.36,32.36,0,0,0,54.23,46a6.13,6.13,0,0,0-2.38,5.77c.34,4.07.91,11.88,3.62,15.61s5.54,5,6.56,5.09,4,.68,5.77-.11,8.71-8.83,9.28-17.2S74,45.11,74,45.11L70,34.81a10.17,10.17,0,0,0-2-1.36l-.68-.23s-.68-3.39,1.13-5a27.93,27.93,0,0,1,3.73-2.72s-4,1.36-5.77,3.51A21.5,21.5,0,0,0,64.3,31.65Z"/><path class="cls-6" d="M64.14,43.11s-7.78,3.47-8,4.82-1.74,7.14-.39,7.85,4.5-.19,4.5-.19-3.34,1.29-2.89,3.6a7.41,7.41,0,0,0,3,5.08A8.28,8.28,0,0,0,63,65.42s-2.51,1.41-2.44,2.12,1.35,1.22,3.67,1.16,4.05-.45,4.12-1.29-2.7-2-2.7-2,4.89-1.22,5.6-5.21-2.51-4.44-2.51-4.44,4.57.71,4.69-.39-.19-7.2-1.67-8.36S64.14,43.11,64.14,43.11Z"/><path class="cls-7" d="M64.2,55.2c.77,0,5.47-2,5.53-2.89s-1.41-6.37-5.4-6.43-6.3,5.27-5.14,6.37S63.43,55.2,64.2,55.2Z"/><path class="cls-7" d="M66.13,66.93c0,.55-.72,1-1.68,1s-1.8-.5-1.8-1,.78-1.11,1.74-1.11S66.13,66.39,66.13,66.93Z"/><path class="cls-6" d="M54.37,63.82s3.55,5,4.2,5.06,9.78.59,10.56.15a17.13,17.13,0,0,0,3.27-3.24,7.93,7.93,0,0,1,1.25-1.37S71,69,70.1,69.41s-2.35,1.18-6.23,1-5.21-.1-7-2.11A12.7,12.7,0,0,1,54.37,63.82Z"/><path class="cls-1" d="M54.33,46S47.78,29.58,47,26.69a35.26,35.26,0,0,0-3-8C42.49,16.11,40,11.3,38.57,9.24s-3.09-2.54-1.92-2.4a1.71,1.71,0,0,0,1.85-.89c.07-.27.76-.55.82.21A15.44,15.44,0,0,0,41,10.89c1,1.85,4.46,8.45,5.08,9.14a6,6,0,0,1,1.65,3.23,29.58,29.58,0,0,0,2.4,8.31A100,100,0,0,0,54.58,41C55.47,42.56,54.33,46,54.33,46Z"/><path class="cls-2" d="M54.81,43.91c-1-2.21-2.53-5.47-3.52-7.54-1.61-3.38-3.84-11.2-4.37-13A1.75,1.75,0,0,0,45.47,22c.56,1.5,1,3,1.49,4.68C47.78,29.58,54.33,46,54.33,46A14.72,14.72,0,0,0,54.81,43.91Z"/><path class="cls-1" d="M73.62,46S80.16,29.58,81,26.69a35.26,35.26,0,0,1,3-8c1.44-2.54,3.92-7.35,5.36-9.41s3.09-2.54,1.92-2.4a1.71,1.71,0,0,1-1.85-.89c-.07-.27-.76-.55-.82.21a15.44,15.44,0,0,1-1.72,4.74c-1,1.85-4.46,8.45-5.08,9.14a6,6,0,0,0-1.65,3.23,29.58,29.58,0,0,1-2.4,8.31A100,100,0,0,1,73.36,41C72.47,42.56,73.62,46,73.62,46Z"/><path class="cls-2" d="M73.13,43.91c1-2.21,2.53-5.47,3.52-7.54,1.61-3.38,3.84-11.2,4.37-13A1.75,1.75,0,0,1,82.48,22c-.56,1.5-1,3-1.49,4.68C80.16,29.58,73.62,46,73.62,46A14.72,14.72,0,0,1,73.13,43.91Z"/><path class="cls-8" d="M75.15,66.43a2.78,2.78,0,0,0-1.59-.92,24.2,24.2,0,0,0,3.53-10.33C77.65,46.81,74,45.11,74,45.11L70,34.81a10.17,10.17,0,0,0-2-1.36l-.68-.23s-.68-3.39,1.13-5a27.92,27.92,0,0,1,3.73-2.72s-4,1.36-5.77,3.51c-1.24,1.47-1.71,2.12-1.9,2.4V98.92h.38c2.4,0,11.89-6.41,13.37-14.71A26.7,26.7,0,0,0,75.15,66.43Z"/><path class="cls-9" d="M55.13,57.12s-1.12-2.38-2-1.93S48.33,59.7,46.15,68,37.33,102.21,37,106.5s.4,15.28,7,16.2S61,107.94,62.68,98.9s-.73-18.33-3.54-23-4.49-10.2-4.48-13.25A34.57,34.57,0,0,1,55.13,57.12Z"/><path class="cls-10" d="M54.66,62.66a34.57,34.57,0,0,1,.47-5.54s-1.12-2.38-2-1.93S48.33,59.7,46.15,68c-.83,3.16-2.32,8.91-3.86,15.05,1.75-4.77,6.79-18,8.28-17.3,1.81.91,2.26,2.27,5.06,9.75s6.63,14.84,6.84,19a27.6,27.6,0,0,1-1.23,9.12,27,27,0,0,0,1.45-4.71c1.73-9-.73-18.33-3.54-23S54.65,65.72,54.66,62.66Z"/><path class="cls-9" d="M73.81,57.1s1.13-2.38,2-1.92S80.6,59.71,82.75,68s8.71,34.28,9.05,38.58-.45,15.27-7,16.18-17-14.82-18.67-23.87.79-18.33,3.62-23,4.53-10.18,4.53-13.24A34.57,34.57,0,0,0,73.81,57.1Z"/><path class="cls-10" d="M74.26,62.65a34.57,34.57,0,0,0-.45-5.54s1.13-2.38,2-1.92S80.6,59.71,82.75,68C83.57,71.12,85,76.88,86.56,83,84.82,78.25,79.82,65,78.34,65.7c-1.81.91-2.26,2.26-5.09,9.73s-6.68,14.82-6.9,19a27.6,27.6,0,0,0,1.2,9.13,27,27,0,0,1-1.43-4.71c-1.7-9.05.79-18.33,3.62-23S74.26,65.7,74.26,62.65Z"/><path class="cls-11" d="M55.07,45.91A1.6,1.6,0,0,1,53.4,45c-.81-1.65-2.16-5.06-.23-7.36,2.9-3.47,5.15-2.46,6-1.65s4.25,5.66,2.44,7.18a10.58,10.58,0,0,1-5.16,2.5Z"/><path class="cls-12" d="M58.06,40.92a2.83,2.83,0,0,1-2.9,2.53,2.34,2.34,0,0,1-2.28-2.59,3,3,0,0,1,2.67-3C57,37.9,58.06,39.52,58.06,40.92Z"/><path class="cls-11" d="M73.78,45.91A1.6,1.6,0,0,0,75.44,45c.81-1.65,2.16-5.06.23-7.36-2.9-3.47-5.15-2.46-6-1.65s-4.25,5.66-2.44,7.18a10.58,10.58,0,0,0,5.16,2.5Z"/><path class="cls-12" d="M70.79,40.92a2.83,2.83,0,0,0,2.9,2.53A2.34,2.34,0,0,0,76,40.87a3,3,0,0,0-2.67-3C71.84,37.9,70.79,39.52,70.79,40.92Z"/></svg>