<svg id="bugs&#x6606;&#x866B;" xmlns="http://www.w3.org/2000/svg" viewbox="0 0 128 128" width="128" height="128"><defs><style>.cls-1{fill:#262615;stroke:none;}.cls-2{fill:#2d2c26;stroke:none;}.cls-3{fill:#1e1d1a;stroke:none;}.cls-4{fill:#be2d0d;stroke:none;}.cls-5{fill:#e4503b;stroke:none;}.cls-6{fill:#f16b3c;stroke:none;}.cls-7{fill:#5e1510;stroke:none;}.cls-8{fill:#492d2c;stroke:none;}.cls-9{fill:#752c32;stroke:none;}.cls-10{fill:#402021;stroke:none;}.cls-11{fill:#5f150f;stroke:none;}.cls-12{fill:#563126;stroke:none;}.cls-13{fill:#8b282b;stroke:none;}</style></defs><title>bugs&#x6606;&#x866B;</title><path class="cls-1" d="M67.22,19.36s-.41-1.62.69-2a19.3,19.3,0,0,0,4.25-1.84c5.15-3.36,6.23-5,7-4.52s-.42,1.08-1.43,1.64c-3.68,2-6.83,4.14-7.52,5s0,2.34,0,2.34Z"/><path class="cls-1" d="M63.39,19.36s.41-1.62-.69-2a19.3,19.3,0,0,1-4.25-1.84c-5.15-3.36-6.23-5-7-4.52s.42,1.08,1.43,1.64c3.68,2,6.83,4.14,7.52,5s0,2.34,0,2.34Z"/><path class="cls-2" d="M91.43,70.65a2.77,2.77,0,0,0,1.06,1.83c1,.81,2.56,2.27,2.82,3.55s.69,5.11,1,5.51.62.67.28.81-1.91,1.5-2.79,1.39-.61-.4-.07-.81,2.15-1.59,1.79-3.25-1.3-4.91-2.17-5.62-1.45-.89-2-1.87a6.55,6.55,0,0,1-.69-1.44Z"/><path class="cls-2" d="M88.23,100.25a3.59,3.59,0,0,0,1,2.25c1,1.19,2.57,3.27,2.71,4.66s.2,5.4.48,5.92.6.92.22.92-2.26.76-3.22.31-.62-.64,0-.84,2.53-.76,2.31-2.57-.9-5.45-1.78-6.49a9.8,9.8,0,0,1-2-2.67,8.3,8.3,0,0,1-.6-1.72Z"/><path class="cls-3" d="M85.1,76.75s6.45,5.61,6.21,6.89S88.9,100.25,89,100.82s-2.88.37-2.82-1.3c0-1.3,3.86-14.18,2.55-15.76S81.28,79,81.28,79Z"/><path class="cls-3" d="M83.28,51.53s6.42.06,6.63,1.4,2.24,17,2.49,17.5,1.49,1.24.77,1.67-3.23.73-3.45-.61S89,55.39,87.27,55s-8.21,2.11-8.21,2.11Z"/><path class="cls-2" d="M77.51,35.17c.12.07,4.65,1.11,5.1,1.65s.71.2.86-.11a13.52,13.52,0,0,1,1.38-1.66A3.2,3.2,0,0,0,85.49,33c0-1.21.12-1.91.12-1.91a4.59,4.59,0,0,0,.79,1.13A1.6,1.6,0,0,1,87,33.35a2.82,2.82,0,0,0,.3,1.2c.2.31.15.33-.17.25s-.59.22-1,1.27-1.23,2.78-1.67,3a2.29,2.29,0,0,0-.94.62c-.22.27-2.73-1-3.82-1a6.69,6.69,0,0,1-2.44-.86Z"/><path class="cls-3" d="M86.15,36.07c.42-1.05.69-1.35,1-1.27s.37.06.17-.25a2.82,2.82,0,0,1-.3-1.2c0-.06,0-.11,0-.16a3.05,3.05,0,0,1-.59.54c-.24.11-2.29,3.88-3,4.47s-3-.92-4-1.06c-.7-.1-1.06.67-1.24,1.09a4.78,4.78,0,0,0,1.49.4c1.08.06,3.6,1.31,3.82,1a2.29,2.29,0,0,1,.94-.62C84.92,38.85,85.74,37.13,86.15,36.07Z"/><path class="cls-2" d="M85.77,33.81s1.5-5.53,4.07-8.39,4-2.88,4.73-2.65a1.82,1.82,0,0,1,1.05,1s-1.27-1.15-1.41-.32a4.38,4.38,0,0,0,0,1.49,1.16,1.16,0,0,0-1.77-.28,12.41,12.41,0,0,0-4.68,5.56,32.56,32.56,0,0,0-1.29,4.15Z"/><path class="cls-2" d="M38.42,70.65a2.77,2.77,0,0,1-1.06,1.83c-1,.81-2.56,2.27-2.82,3.55s-.69,5.11-1,5.51-.62.67-.28.81,1.91,1.5,2.79,1.39.61-.4.07-.81S34,81.34,34.35,79.68s1.3-4.91,2.17-5.62,1.45-.89,2-1.87a6.55,6.55,0,0,0,.69-1.44Z"/><path class="cls-2" d="M41.61,100.25a3.59,3.59,0,0,1-1,2.25c-1,1.19-2.57,3.27-2.71,4.66s-.2,5.4-.48,5.92-.6.92-.22.92,2.26.76,3.22.31.62-.64,0-.84-2.53-.76-2.31-2.57.9-5.45,1.78-6.49a9.8,9.8,0,0,0,2-2.67,8.3,8.3,0,0,0,.6-1.72Z"/><path class="cls-3" d="M44.74,76.75s-6.45,5.61-6.21,6.89,2.41,16.62,2.34,17.18,2.88.37,2.82-1.3c0-1.3-3.86-14.18-2.55-15.76S48.56,79,48.56,79Z"/><path class="cls-3" d="M46.57,51.53s-6.42.06-6.63,1.4-2.24,17-2.49,17.5S36,71.67,36.68,72.1s3.23.73,3.45-.61.73-16.1,2.45-16.5,8.21,2.11,8.21,2.11Z"/><path class="cls-2" d="M52.33,35.17c-.12.07-4.65,1.11-5.1,1.65s-.71.2-.86-.11A13.52,13.52,0,0,0,45,35.05,3.2,3.2,0,0,1,44.35,33c0-1.21-.12-1.91-.12-1.91a4.59,4.59,0,0,1-.79,1.13,1.6,1.6,0,0,0-.64,1.15,2.82,2.82,0,0,1-.3,1.2c-.2.31-.15.33.17.25s.59.22,1,1.27,1.23,2.78,1.67,3a2.29,2.29,0,0,1,.94.62c.22.27,2.73-1,3.82-1a6.69,6.69,0,0,0,2.44-.86Z"/><path class="cls-3" d="M43.69,36.07c-.42-1.05-.69-1.35-1-1.27s-.37.06-.17-.25a2.82,2.82,0,0,0,.3-1.2c0-.06,0-.11,0-.16a3.05,3.05,0,0,0,.59.54c.24.11,2.29,3.88,3,4.47s3-.92,4-1.06c.7-.1,1.06.67,1.24,1.09a4.78,4.78,0,0,1-1.49.4c-1.08.06-3.6,1.31-3.82,1a2.29,2.29,0,0,0-.94-.62C44.92,38.85,44.11,37.13,43.69,36.07Z"/><path class="cls-2" d="M44.07,33.81s-1.5-5.53-4.07-8.39-4-2.88-4.73-2.65a1.82,1.82,0,0,0-1.05,1s1.27-1.15,1.41-.32a4.38,4.38,0,0,1,0,1.49,1.16,1.16,0,0,1,1.77-.28,12.41,12.41,0,0,1,4.68,5.56,32.56,32.56,0,0,1,1.29,4.15Z"/><path class="cls-4" d="M44.43,84.64V52.75a8.81,8.81,0,0,1,8.57-9H76.84a8.81,8.81,0,0,1,8.57,9V84.64c0,2.42.5,32.08-19.79,32.08S44.43,87.17,44.43,84.64Z"/><path class="cls-5" d="M55.85,51.78H54.77a6.07,6.07,0,0,0-6.06,6.06V88.69c0,7.61,5.47,22.08,13,23.23.07,0,.21-54.08.21-54.08A6.07,6.07,0,0,0,55.85,51.78Z"/><path class="cls-5" d="M81.13,89.67V57.84a6.07,6.07,0,0,0-6.06-6.06H74a6.07,6.07,0,0,0-6.06,6.06s.14,54.24.21,54.24C75.56,111.35,81.13,97.11,81.13,89.67Z"/><path class="cls-6" d="M57,54.18H56A5.6,5.6,0,0,0,50.69,60V89.62c0,7.3,4.8,21.21,11.4,22.31.06,0,.18-51.93.18-51.93A5.6,5.6,0,0,0,57,54.18Z"/><path class="cls-6" d="M79.16,90.56V60a5.6,5.6,0,0,0-5.32-5.82h-1A5.6,5.6,0,0,0,67.57,60s.12,52.09.18,52.08C74.26,111.38,79.16,97.71,79.16,90.56Z"/><path class="cls-7" d="M68.47,47.66a3,3,0,0,0-2.21-2.75V43.76H63.58v1.15a2.82,2.82,0,0,0,0,5.5v66.24c.66,0,1.33.07,2,.07l.64,0V50.41A3,3,0,0,0,68.47,47.66Z"/><path class="cls-8" d="M79.41,37.17l-1.18-6.83c-.57-3.3-2.38-5.57-4.44-5.57H56.16c-2.12,0-4,2.4-4.48,5.82l-1,6.51c-.62,4.08.84,8.22,3.28,9.32a28.24,28.24,0,0,0,11.59,2.08,27.69,27.69,0,0,0,10.6-1.76C78.67,45.69,80.12,41.31,79.41,37.17Z"/><path class="cls-9" d="M77,37.08l-1-5.67c-.47-2.74-2-4.62-3.69-4.62H57.68c-1.76,0-3.29,2-3.72,4.83L53.15,37c-.51,3.38.7,6.82,2.72,7.73a23.42,23.42,0,0,0,9.61,1.73A23,23,0,0,0,74.27,45C76.35,44.14,77.56,40.51,77,37.08Z"/><path class="cls-10" d="M73.61,22.74l-.7-3.08a2.93,2.93,0,0,0-2.65-2.51H59.77a3,3,0,0,0-2.67,2.62l-.59,2.93c-.37,1.84.5,3.71,2,4.2a21.64,21.64,0,0,0,6.9.94A21.3,21.3,0,0,0,71.68,27C73.17,26.58,74,24.61,73.61,22.74Z"/><path class="cls-11" d="M58.07,23.55c-.12,1.23-.82,2.14-1.57,2s-1.25-1.21-1.13-2.44.82-2.14,1.57-2S58.19,22.32,58.07,23.55Z"/><path class="cls-11" d="M72,23.55c.12,1.23.82,2.14,1.57,2s1.25-1.21,1.13-2.44-.82-2.14-1.57-2S71.86,22.32,72,23.55Z"/><path class="cls-12" d="M68.32,16.6A6,6,0,0,0,65.14,16a6,6,0,0,0-3.19.64c-1.84,0-3.32.51-3.32,1.12s1.51,1.13,3.36,1.13h6.3c1.86,0,3.36-.5,3.36-1.13S70.16,16.61,68.32,16.6Z"/><path class="cls-13" d="M74.6,34.45c1,6.63.12,10.09-9.12,10.16-6.32,0-9.23-1.13-9.16-1.78s8.72,2,13.6-2.65C73.65,36.66,73.39,26.13,74.6,34.45Z"/></svg>