<svg id="bugs&#x6606;&#x866B;" xmlns="http://www.w3.org/2000/svg" viewbox="0 0 128 128" width="128" height="128"><defs><style>.cls-1{fill:#4f2f2d;stroke:none;}.cls-2{fill:#662f1a;stroke:none;}.cls-3{fill:#200;stroke:none;}.cls-4{fill:#c3ad95;stroke:none;}.cls-5{fill:#d1b695;stroke:none;}.cls-6{fill:#e7c8a1;stroke:none;}.cls-7{fill:#fff;opacity:0.16;stroke:none;}</style></defs><title>bugs&#x6606;&#x866B;</title><path class="cls-1" d="M66,27.27a4,4,0,0,0-1.38.9c-.29.45-1,.67-.86-.1s.45-3.27.48-3.87.67-2,1.31-1.92a1.46,1.46,0,0,1,1.28,1.31c.06.7.1,1.57-.32,1.89a1.13,1.13,0,0,0-.54,1C66,26.73,66,27.27,66,27.27Z"/><path class="cls-1" d="M67.89,27.27a4,4,0,0,1,1.38.9c.29.45,1,.67.86-.1s-.45-3.27-.48-3.87-.67-2-1.31-1.92a1.46,1.46,0,0,0-1.28,1.31c-.06.7-.1,1.57.32,1.89a1.13,1.13,0,0,1,.54,1C67.89,26.73,67.89,27.27,67.89,27.27Z"/><path class="cls-2" d="M63,31s-.3-3.9,4.05-3.9S70.57,31,70.57,31Z"/><path class="cls-3" d="M54.85,33.08A8.29,8.29,0,0,1,54,31.65,1.93,1.93,0,0,0,52,30.49a3.72,3.72,0,0,1-.43,0c-.38-.08-.82.51-1,.75,0,.06-.07.12-.11.18a.54.54,0,0,0-.13-.22c-.91-.91-6.13-.6-6.75-.56a1,1,0,0,0-.79,1c-.08-.35-.24-.4-.35-.39A5,5,0,0,1,41,31.11a5.8,5.8,0,0,1-2.94-1.86,5.11,5.11,0,0,1-.62-1,1.93,1.93,0,0,0-.93-1c-.32-.12-.82.21-1.28.63a7.35,7.35,0,0,0,.47-1.38s.07-.06.07-.16h0l0-.18v-.28c-.09-1.21-.12-3-.12-4.26a1.33,1.33,0,0,0-.2-.84h.14c.56,0,.79-.11,1.38-1.35a9.84,9.84,0,0,1,3-3.71,20.68,20.68,0,0,0,1.66-1.65,7.9,7.9,0,0,1,2.35-2,6.55,6.55,0,0,0,1.39-.91c.56-.45.86-.69,1.45-.45a2.32,2.32,0,0,0,1.18.14c.4,0,.51,0,.59.47a2.15,2.15,0,0,1,0,.84c-.08.41,0,.57.63.8a3.56,3.56,0,0,0,.68.19h0l.05.1.11.22c.22.43.42.46.54.4s.22-.43,0-.9a2.55,2.55,0,0,1-.13-.52A3,3,0,0,0,50,11.22a3.67,3.67,0,0,0-3.81-1.45c-.45.06-.9.1-1.39.14A11,11,0,0,0,41,10.7c-1.43.68-3.27,3.16-4.26,4.49l-.38.51-.11.14c-.73.95-1.72,2.25-2.66,2.51a1.36,1.36,0,0,0-1.08,1.14.78.78,0,0,0,.12.5l-.27.17a2.51,2.51,0,0,1-.43.25c-.41.17-.19,1.11.52,3.75a20.88,20.88,0,0,1,.94,4.59,7,7,0,0,1-.17,1.44.19.19,0,0,0,.08.25l.06.05a.2.2,0,0,0,.13.05.83.83,0,0,0,.09.63c.41.61.85.42,1.28.25A2.21,2.21,0,0,1,36,31.17c.56.07.75.38,1,.81a3.44,3.44,0,0,0,1.37,1.34,3.77,3.77,0,0,0,1.78.4,7.29,7.29,0,0,0,2.1-.36l.05,0a.77.77,0,0,0,0,.18,1.57,1.57,0,0,0,.91.81,2.07,2.07,0,0,0,.88.22,2.23,2.23,0,0,0,1.37-.63,3.66,3.66,0,0,1,1.8-.87l.7-.11A6.24,6.24,0,0,0,50,32.53a1.63,1.63,0,0,0,0,1.18c.23.44.74.63,1.49.61,1.49-.07,2.05.24,2.26.51a.55.55,0,0,1,.1.48.16.16,0,0,0,.07.19l.09,0a.16.16,0,0,0,.12-.05c.28-.29,1.19-1.28,1.09-1.73A2,2,0,0,0,54.85,33.08Z"/><path class="cls-3" d="M50.65,40.25a5.74,5.74,0,0,0-1.11-.68l-.79-.43c-.64-.36-.82-.32-1.18-.2a3,3,0,0,1-.46.13.54.54,0,0,0-.43.43,1.53,1.53,0,0,0-1-.65l-.36-.09c-.84-.22-1-.27-3,.1a5,5,0,0,0-3.09,1.37l-.5.41h0a.22.22,0,0,0-.1-.2.34.34,0,0,0-.32,0,9.51,9.51,0,0,1-2,.79l-.39.12a9.31,9.31,0,0,1-1.56.28,6.51,6.51,0,0,0-2.23.53,8.12,8.12,0,0,0-1,.59,3,3,0,0,0-1-.51l-.4-.17A4,4,0,0,0,28,42l-.5,0-.54.06a4,4,0,0,1-2.66-.41,6.06,6.06,0,0,0-1.12-.42c-.29-.08-.29-.08-.8-.83a11.08,11.08,0,0,1-.93-2,9.16,9.16,0,0,0-1.58-2.9l-.64-.68c-.75-.81-1.26-1.36-1.87-1.36h-.08c-.83.07-1.73.47-1.74,1.18a13.32,13.32,0,0,0,0,1.34c0,.09,0,.31.2.35s.35-.14.6-.52a3.8,3.8,0,0,0,.33-.67,1.46,1.46,0,0,1,.18-.37,12.87,12.87,0,0,1,.9,3.21c.06.78,2.49,3.86,3.51,4.45.23.14.94.55,1,.77,0,0,0,.1-.11.16a.34.34,0,0,0-.13.33c0,.2.25.48,1.56.9a10.39,10.39,0,0,0,2.8.3c.49,0,1,0,1.57-.06a4.1,4.1,0,0,0,2.4-1.06,2.15,2.15,0,0,0-.06.7c0,.31,0,.56,0,.76,0,.4,0,.61.18.69l.1,0a.89.89,0,0,0,.46-.25,22.8,22.8,0,0,1,2.77-1.31c1-.45,2.09-.91,2.65-1.22a6.19,6.19,0,0,0,1.6-1.49,1.63,1.63,0,0,0,.25.41,1.87,1.87,0,0,1,.48,1.09c0,.44.09.67.26.75l.11,0a1,1,0,0,0,.48-.26A4,4,0,0,1,41.23,43a5,5,0,0,0,2.29-1.13,9.21,9.21,0,0,1,1-.71,2.4,2.4,0,0,1,1.68-.53,1.68,1.68,0,0,0,.31,0c.05,0,.08,0,.12-.07a1.46,1.46,0,0,1-.19,1,.56.56,0,0,0-.18.55c.12.4.8.56,1.4.7l.16,0a2.78,2.78,0,0,0,.67.08L49,43c.19,0,.38,0,.6,0h.17a.57.57,0,0,0,.41-.14,1,1,0,0,0,.18-.73,1.15,1.15,0,0,1,.14-.71l.06-.08C50.91,40.82,51.06,40.63,50.65,40.25Z"/><path class="cls-3" d="M47,48.52a.16.16,0,0,0-.13-.06s-.65,0-1.48.06c-.27,0-.56,0-.86,0-.67,0-1.19,0-1.4.24a2.5,2.5,0,0,0-.32.6.18.18,0,0,0-.09-.08.21.21,0,0,0-.19,0c-.08.06-.64.35-1.12.61l-1.12.6-.61.32a13.31,13.31,0,0,0-3.24,2,1.14,1.14,0,0,0-.36,1l0,0h0a.16.16,0,0,0-.13.06,39.39,39.39,0,0,0-2.71,3.85c-.1.25-.19.55-.28.86a8,8,0,0,1-.72,1.85,8.94,8.94,0,0,1-.58.84c-.23.3-.35.48-.35.63h-.06l0,0-2.25,1.77a6.87,6.87,0,0,1-1,.36c-.83.28-1.2.42-1.31.57s0,.46.11.79c0,.12.09.25.13.37-.2-.64-.6-1.58-1.21-1.84a3.61,3.61,0,0,0-1.75,0,4.26,4.26,0,0,1-2,0c-.63-.24-.78-.73-1-1.37a4.25,4.25,0,0,0-.53-1.21,35.56,35.56,0,0,1-2.61-4.25L17.73,57l-.08-.18h0c-.05-.1-.1-.12-.13-.11a2.39,2.39,0,0,0-2.11-.53h-.14c-.5,0-.89,1.23-1,1.6a.16.16,0,0,0,.06.18.17.17,0,0,0,.19,0,2.34,2.34,0,0,1,2.26.11c1.12.5.87,1.33.56,2.38-.08.28-.17.57-.23.86-.31,1.49.6,2.06,1.66,2.72a5.59,5.59,0,0,1,1.15,1.14,5.68,5.68,0,0,0,2.35,1.91,4,4,0,0,0,1.32.19,11.7,11.7,0,0,0,3.34-.62h0a1.16,1.16,0,0,0,.62.66,1.22,1.22,0,0,0,.46.08,6.4,6.4,0,0,0,2.19-.6c1-.43,2.08-2.22,2.39-3.33v.1a.16.16,0,0,0,.08.13l.08,0,.07,0c.1-.05,2.58-1.28,3.17-2.69A17.27,17.27,0,0,0,36.83,58c.11-.54.21-1,.3-1.32a1.52,1.52,0,0,0,0-.81,1.44,1.44,0,0,0,.72.17,4.32,4.32,0,0,1,.73.09l.21,0c.85,0,1.68-1.1,2.3-1.92.16-.21.3-.39.42-.54.63-.74,1.55-2.16,1.59-2.22s0,0,0,0a1.59,1.59,0,0,0,.34.27,4.41,4.41,0,0,0,1.73.65,1,1,0,0,0,.64-.24c.48-.37,1.08-2.93,1.2-3.44A.17.17,0,0,0,47,48.52Z"/><path class="cls-3" d="M42.12,61.08a.16.16,0,0,0-.19,0,13.51,13.51,0,0,0-2.23,1.64.73.73,0,0,0,.07.61c-.26.25-1.75,1.7-1.94,2a.46.46,0,0,0,0,.43.15.15,0,0,0-.1-.08.16.16,0,0,0-.15.06c-1.28,1.7-5.47,7.27-5.48,7.8a1.13,1.13,0,0,0,.41,1c-.06,0-.12.05-.16.12-.31.6-1.83,4.16-2.29,5.41S28.66,84,28.51,84.55c0,.12,0,.34.33.87.09.13.19.27.31.42,0,0-.06,0-.09,0a.16.16,0,0,0-.11.12c0,.15-.76,3.78-.82,5,0,.6-.28,1.93-.5,3.1a14.18,14.18,0,0,0-.39,2.62.56.56,0,0,0,.52.52l.13,0a.15.15,0,0,0,0,.07,18.62,18.62,0,0,0-.06,4.27,10.93,10.93,0,0,1,.06,2.23c0,1.59-.08,3.39.38,4l.26.37s0,0-.06.06c-.53,1.72-1.52,4.55-1.87,4.8a1.58,1.58,0,0,1-1,.24.16.16,0,0,0-.12.3,4.64,4.64,0,0,0,1.33.64.67.67,0,0,0,.37,0h0c.39-.15.61-.55,1.06-1.32l.23-.39a9.51,9.51,0,0,0,1-3.29h.06a.52.52,0,0,0,.43-.21c.26-.28.23-1,.16-2.45a20.15,20.15,0,0,1,0-3.29c.07-.64.12-1.32.16-2,.09-1.52.19-3.09.7-3.5.19-.15.19-.29.16-.38s-.22-.2-.47-.25l.45,0c.45,0,.72,0,.87-.15s.1-.62-.14-1.65l-.11-.49a17.64,17.64,0,0,1-.18-4.68c.07-1.25.09-1.91-.12-2.18l-.09-.11c.5,0,2-3.53,2.34-5.8a9.66,9.66,0,0,0,.1-2.31,2.57,2.57,0,0,1,.18-1.32A8.4,8.4,0,0,1,34.65,77c.27-.45.43-.72.37-.93,0,0,0,0,0,0h.13c.56-.07,1.36-2.29,2.64-6.37.2-.65.37-1.16.44-1.36a1.73,1.73,0,0,0,.09-.59.51.51,0,0,0,.26.23l.07,0c.42.08.89-.39.95-.45a.16.16,0,0,0,0-.07,12.86,12.86,0,0,1,.92-2.55.74.74,0,0,0,.12-.33.7.7,0,0,0,.29.19H41a.21.21,0,0,0,.17-.16l1-3.38A.16.16,0,0,0,42.12,61.08Z"/><path class="cls-3" d="M76.86,33.08a8.29,8.29,0,0,0,.86-1.43,1.93,1.93,0,0,1,1.94-1.16,3.72,3.72,0,0,0,.43,0c.38-.08.82.51,1,.75,0,.06.07.12.11.18a.54.54,0,0,1,.13-.22c.91-.91,6.13-.6,6.75-.56a1,1,0,0,1,.79,1c.08-.35.24-.4.35-.39a5,5,0,0,0,1.47-.14,5.8,5.8,0,0,0,2.94-1.86,5.11,5.11,0,0,0,.62-1,1.93,1.93,0,0,1,.93-1c.32-.12.82.21,1.28.63A7.35,7.35,0,0,1,96,26.5s-.07-.06-.07-.16h0l0-.18v-.28c.09-1.21.12-3,.12-4.26a1.33,1.33,0,0,1,.2-.84h-.14c-.56,0-.79-.11-1.38-1.35a9.84,9.84,0,0,0-3-3.71A20.68,20.68,0,0,1,90,14.08a7.9,7.9,0,0,0-2.35-2,6.55,6.55,0,0,1-1.39-.91c-.56-.45-.86-.69-1.45-.45a2.32,2.32,0,0,1-1.18.14c-.4,0-.51,0-.59.47a2.15,2.15,0,0,0,0,.84c.08.41,0,.57-.63.8a3.56,3.56,0,0,1-.68.19h0l-.05.1-.11.22c-.22.43-.42.46-.54.4s-.22-.43,0-.9a2.55,2.55,0,0,0,.13-.52,3,3,0,0,1,.54-1.27,3.67,3.67,0,0,1,3.81-1.45c.45.06.9.1,1.39.14a11,11,0,0,1,3.85.79c1.43.68,3.27,3.16,4.26,4.49l.38.51.11.14c.73.95,1.72,2.25,2.66,2.51a1.36,1.36,0,0,1,1.08,1.14.78.78,0,0,1-.12.5l.27.17a2.51,2.51,0,0,0,.43.25c.41.17.19,1.11-.52,3.75a20.88,20.88,0,0,0-.94,4.59,7,7,0,0,0,.17,1.44.19.19,0,0,1-.08.25l-.06.05a.2.2,0,0,1-.13.05.83.83,0,0,1-.09.63c-.41.61-.85.42-1.28.25a2.21,2.21,0,0,0-1.19-.22c-.56.07-.75.38-1,.81a3.44,3.44,0,0,1-1.37,1.34,3.77,3.77,0,0,1-1.78.4,7.29,7.29,0,0,1-2.1-.36l-.05,0a.77.77,0,0,1,0,.18,1.57,1.57,0,0,1-.91.81,2.07,2.07,0,0,1-.88.22,2.23,2.23,0,0,1-1.37-.63,3.66,3.66,0,0,0-1.8-.87l-.7-.11a6.24,6.24,0,0,1-1.93-.41,1.63,1.63,0,0,1,0,1.18c-.23.44-.74.63-1.49.61-1.49-.07-2.05.24-2.26.51a.55.55,0,0,0-.1.48.16.16,0,0,1-.07.19l-.09,0a.16.16,0,0,1-.12-.05c-.28-.29-1.19-1.28-1.09-1.73A2,2,0,0,1,76.86,33.08Z"/><path class="cls-3" d="M81.06,40.25a5.74,5.74,0,0,1,1.11-.68l.79-.43c.64-.36.82-.32,1.18-.2a3,3,0,0,0,.46.13.54.54,0,0,1,.43.43,1.53,1.53,0,0,1,1-.65l.36-.09c.84-.22,1-.27,3,.1a5,5,0,0,1,3.09,1.37l.5.41h0a.22.22,0,0,1,.1-.2.34.34,0,0,1,.32,0,9.51,9.51,0,0,0,2,.79l.39.12a9.31,9.31,0,0,0,1.56.28,6.51,6.51,0,0,1,2.23.53,8.12,8.12,0,0,1,1,.59,3,3,0,0,1,1-.51l.4-.17a4,4,0,0,1,1.8-.05l.5,0,.54.06a4,4,0,0,0,2.66-.41,6.06,6.06,0,0,1,1.12-.42c.29-.08.29-.08.8-.83a11.08,11.08,0,0,0,.93-2,9.16,9.16,0,0,1,1.58-2.9l.64-.68c.75-.81,1.26-1.36,1.87-1.36h.08c.83.07,1.73.47,1.74,1.18a13.32,13.32,0,0,1,0,1.34c0,.09,0,.31-.2.35s-.35-.14-.6-.52a3.8,3.8,0,0,1-.33-.67,1.46,1.46,0,0,0-.18-.37,12.87,12.87,0,0,0-.9,3.21c-.06.78-2.49,3.86-3.51,4.45-.23.14-.94.55-1,.77,0,0,0,.1.11.16a.34.34,0,0,1,.13.33c0,.2-.25.48-1.56.9a10.39,10.39,0,0,1-2.8.3c-.49,0-1,0-1.57-.06a4.1,4.1,0,0,1-2.4-1.06,2.15,2.15,0,0,1,.06.7c0,.31,0,.56,0,.76,0,.4,0,.61-.18.69l-.1,0a.89.89,0,0,1-.46-.25,22.8,22.8,0,0,0-2.77-1.31c-1-.45-2.09-.91-2.65-1.22a6.19,6.19,0,0,1-1.6-1.49,1.63,1.63,0,0,1-.25.41,1.87,1.87,0,0,0-.48,1.09c0,.44-.09.67-.26.75l-.11,0a1,1,0,0,1-.48-.26A4,4,0,0,0,90.49,43a5,5,0,0,1-2.29-1.13,9.21,9.21,0,0,0-1-.71,2.4,2.4,0,0,0-1.68-.53,1.68,1.68,0,0,1-.31,0c-.05,0-.08,0-.12-.07a1.46,1.46,0,0,0,.19,1,.56.56,0,0,1,.18.55c-.12.4-.8.56-1.4.7l-.16,0a2.78,2.78,0,0,1-.67.08l-.49,0c-.19,0-.38,0-.6,0H82a.57.57,0,0,1-.41-.14,1,1,0,0,1-.18-.73,1.15,1.15,0,0,0-.14-.71l-.06-.08C80.81,40.82,80.66,40.63,81.06,40.25Z"/><path class="cls-3" d="M84.76,48.52a.16.16,0,0,1,.13-.06s.65,0,1.48.06c.27,0,.56,0,.86,0,.67,0,1.19,0,1.4.24a2.5,2.5,0,0,1,.32.6A.18.18,0,0,1,89,49.3a.21.21,0,0,1,.19,0c.08.06.64.35,1.12.61l1.12.6.61.32a13.31,13.31,0,0,1,3.24,2,1.14,1.14,0,0,1,.36,1l0,0h0a.16.16,0,0,1,.13.06,39.39,39.39,0,0,1,2.71,3.85c.1.25.19.55.28.86a8,8,0,0,0,.72,1.85,8.94,8.94,0,0,0,.58.84c.23.3.35.48.35.63h.06l0,0,2.25,1.77a6.87,6.87,0,0,0,1,.36c.83.28,1.2.42,1.31.57s0,.46-.11.79c0,.12-.09.25-.13.37.2-.64.6-1.58,1.21-1.84a3.61,3.61,0,0,1,1.75,0,4.26,4.26,0,0,0,2,0c.63-.24.78-.73,1-1.37a4.25,4.25,0,0,1,.53-1.21,35.56,35.56,0,0,0,2.61-4.25L114,57l.08-.18h0c.05-.1.1-.12.13-.11a2.39,2.39,0,0,1,2.11-.53h.14c.5,0,.89,1.23,1,1.6a.16.16,0,0,1-.06.18.17.17,0,0,1-.19,0,2.34,2.34,0,0,0-2.26.11c-1.12.5-.87,1.33-.56,2.38.08.28.17.57.23.86.31,1.49-.6,2.06-1.66,2.72a5.59,5.59,0,0,0-1.15,1.14,5.68,5.68,0,0,1-2.35,1.91,4,4,0,0,1-1.32.19,11.7,11.7,0,0,1-3.34-.62h0a1.16,1.16,0,0,1-.62.66,1.22,1.22,0,0,1-.46.08,6.4,6.4,0,0,1-2.19-.6c-1-.43-2.08-2.22-2.39-3.33v.1a.16.16,0,0,1-.08.13l-.08,0-.07,0c-.1-.05-2.58-1.28-3.17-2.69A17.27,17.27,0,0,1,94.89,58c-.11-.54-.21-1-.3-1.32a1.52,1.52,0,0,1,0-.81,1.44,1.44,0,0,1-.72.17,4.32,4.32,0,0,0-.73.09l-.21,0c-.85,0-1.68-1.1-2.3-1.92-.16-.21-.3-.39-.42-.54-.63-.74-1.55-2.16-1.59-2.22s0,0,0,0a1.59,1.59,0,0,1-.34.27,4.41,4.41,0,0,1-1.73.65,1,1,0,0,1-.64-.24c-.48-.37-1.08-2.93-1.2-3.44A.17.17,0,0,1,84.76,48.52Z"/><path class="cls-3" d="M89.59,61.08a.16.16,0,0,1,.19,0A13.51,13.51,0,0,1,92,62.72a.73.73,0,0,1-.07.61c.26.25,1.75,1.7,1.94,2a.46.46,0,0,1,0,.43.15.15,0,0,1,.1-.08.16.16,0,0,1,.15.06c1.28,1.7,5.47,7.27,5.48,7.8a1.13,1.13,0,0,1-.41,1c.06,0,.12.05.16.12.31.6,1.83,4.16,2.29,5.41s1.39,3.93,1.55,4.51c0,.12,0,.34-.33.87-.09.13-.19.27-.31.42,0,0,.06,0,.09,0a.16.16,0,0,1,.11.12c0,.15.76,3.78.82,5,0,.6.28,1.93.5,3.1a14.18,14.18,0,0,1,.39,2.62.56.56,0,0,1-.52.52l-.13,0a.15.15,0,0,1,0,.07,18.62,18.62,0,0,1,.06,4.27,10.93,10.93,0,0,0-.06,2.23c0,1.59.08,3.39-.38,4l-.26.37s0,0,.06.06c.53,1.72,1.52,4.55,1.87,4.8a1.58,1.58,0,0,0,1,.24.16.16,0,0,1,.12.3,4.64,4.64,0,0,1-1.33.64.67.67,0,0,1-.37,0h0c-.39-.15-.61-.55-1.06-1.32l-.23-.39a9.51,9.51,0,0,1-1-3.29h-.06a.52.52,0,0,1-.43-.21c-.26-.28-.23-1-.16-2.45a20.15,20.15,0,0,0,0-3.29c-.07-.64-.12-1.32-.16-2-.09-1.52-.19-3.09-.7-3.5-.19-.15-.19-.29-.16-.38s.22-.2.47-.25l-.45,0c-.45,0-.72,0-.87-.15s-.1-.62.14-1.65l.11-.49a17.64,17.64,0,0,0,.18-4.68c-.07-1.25-.09-1.91.12-2.18l.09-.11c-.5,0-2-3.53-2.34-5.8a9.66,9.66,0,0,1-.1-2.31,2.57,2.57,0,0,0-.18-1.32A8.4,8.4,0,0,0,97.07,77c-.27-.45-.43-.72-.37-.93,0,0,0,0,0,0H96.6C96,76,95.24,73.78,94,69.69c-.2-.65-.37-1.16-.44-1.36a1.73,1.73,0,0,1-.09-.59.51.51,0,0,1-.26.23l-.07,0c-.42.08-.89-.39-.95-.45a.16.16,0,0,1,0-.07,12.86,12.86,0,0,0-.92-2.55.74.74,0,0,1-.12-.33.7.7,0,0,1-.29.19h-.07a.21.21,0,0,1-.17-.16l-1-3.38A.16.16,0,0,1,89.59,61.08Z"/><path class="cls-4" d="M66.56,30s-5.88-.86-8.91,1-5.88,4-7.31,7.92-5.88,15-7.48,17.91-6.95,17.91-6.77,27.38,5.7,30.83,29.93,30.83S94.17,88.37,94.17,85.78s-1.25-20.49-3.74-25.83-7.66-18.6-8-20.32-6.06-8.09-8.73-9A26.26,26.26,0,0,0,66.56,30Z"/><path class="cls-5" d="M94.15,84.87c-.18-4.47-1.42-20-3.72-24.92-2.49-5.34-7.66-18.6-8-20.32s-6.06-8.09-8.73-9A26.27,26.27,0,0,0,66.56,30a23.26,23.26,0,0,0-2.45-.19h-.87A11.37,11.37,0,0,0,57.65,31c-3,1.89-5.88,4-7.31,7.92s-5.88,15-7.48,17.91-6.95,17.91-6.77,27.38c0,.29,0,.6,0,.91,2.79,8.87,10.74,19.7,29.94,19.7C84.38,104.85,91.57,92.53,94.15,84.87Z"/><path class="cls-6" d="M66.09,30.49s-4-.42-6,.5-4,1.93-4.92,3.87a95.48,95.48,0,0,1-5,8.75C49.06,45,45.47,52.36,45.59,57S49.42,72,65.73,72s18.94-13,18.94-14.3-.84-10-2.52-12.62a99,99,0,0,1-5.4-9.93c-.24-.84-4.08-4-5.88-4.37A24.18,24.18,0,0,0,66.09,30.49Z"/><path class="cls-7" d="M70,63.44c2,.62,11-4.19,9.88-9.78S73.56,32.87,70.44,33,66.52,43,67.19,51,68,62.82,70,63.44Z"/><path class="cls-7" d="M62.05,63.44c-2,.62-11-4.19-9.88-9.78S58.53,32.87,61.65,33,65.57,43,64.9,51,64.08,62.82,62.05,63.44Z"/></svg>