<svg xmlns="http://www.w3.org/2000/svg" viewbox="0 0 128 128" width="128" height="128"><defs><style>.cls-1{isolation:isolate;stroke:none;}.cls-2{fill:#46240c;stroke:none;}.cls-3{fill:#603511;stroke:none;}.cls-4{fill:#784b22;stroke:none;}.cls-5{fill:#ffc43f;stroke:none;}.cls-6{fill:#483319;stroke:none;}.cls-7{fill:#483318;stroke:none;}.cls-8{fill:#353435;stroke:none;}.cls-9{fill:#754b24;stroke:none;}.cls-10,.cls-13{fill:#231f20;stroke:none;}.cls-10{opacity:0.28;stroke:none;}.cls-11{fill:#725031;stroke:none;}.cls-12{fill:#4f2b0c;stroke:none;}.cls-13{opacity:0.25;mix-blend-mode:multiply;stroke:none;}.cls-14{fill:#dbd9da;opacity:0.6;stroke:none;}</style></defs><title>bugs&#x6606;&#x866B;</title><g class="cls-1"><g id="bugs&#x6606;&#x866B;"><path class="cls-2" d="M80.48,40.48s6.37-5.75,6.14-6.67-2.84-8.13-2.07-9.43,2.45-5.6,4.07-4.83S90,21.38,89,22.68a3,3,0,0,0-.61,3.3c.38,1.23,3.14,9.51,2.53,10.43s-8.13,8.67-8.13,8.67Z"/><path class="cls-3" d="M88.38,26a3,3,0,0,1,.61-3.3c1-1.3,1.23-2.38-.38-3.14s-3.3,3.53-4.07,4.83,1.84,8.51,2.07,9.43a4.83,4.83,0,0,1,2.5-.07c1.51.31,1.79,2.67,1.79,2.67C91.52,35.49,88.76,27.21,88.38,26Z"/><path class="cls-2" d="M83.47,55.09s4.46-1.94,4.64-2.88,1.2-9,2.76-9.52,7.34-.94,7.46,1.06-4.76.7-4.93,1.64c-.11.59-1.53,10-2.82,11.22a64.75,64.75,0,0,1-8.22,5.58c-1.94,1.06-3.23,1.94-3.23,1.94Z"/><path class="cls-3" d="M98.33,43.75c-.12-2-5.93-1.59-7.46-1.06s-2.58,8.58-2.76,9.52a2.11,2.11,0,0,1,2.47,1.7,8,8,0,0,1,.17,2.48C92,54.56,93.29,46,93.4,45.4,93.57,44.46,98.45,45.75,98.33,43.75Z"/><path class="cls-2" d="M78.1,64.91S88.53,75.85,89.63,76.44s8.65,3.39,9.67,4.5,5.34,5,3.48,5.94-4.24-2.63-4.92-2.71S88.61,80,88.19,80.09s-1.61,0-4.41-2.63S73.35,67.11,73.35,67.11Z"/><path class="cls-3" d="M102.78,86.87c1.87-.93-2.46-4.83-3.48-5.94s-8.57-3.9-9.67-4.5c0,0,.69,1.65-.51,2.47a4.27,4.27,0,0,1-3,.42c1.19.78,1.81.81,2.09.75s9,4,9.67,4.07S100.91,87.81,102.78,86.87Z"/><path class="cls-4" d="M84.43,24.69a2.38,2.38,0,0,1,1.95-.7,2.73,2.73,0,0,1,1.79,1A3.07,3.07,0,0,1,89,22.68c1-1.3,1.23-2.38-.38-3.14s-3.3,3.53-4.07,4.83A1,1,0,0,0,84.43,24.69Z"/><path class="cls-4" d="M98.33,43.75c-.12-2-5.93-1.59-7.46-1.06A2.09,2.09,0,0,1,93,43.75a4,4,0,0,1,.5,1.46C94.36,44.65,98.44,45.59,98.33,43.75Z"/><path class="cls-4" d="M99,83.4a2,2,0,0,1-1,.78c.74.24,3,3.6,4.86,2.69S100.32,82,99.3,80.94A4.21,4.21,0,0,1,99,83.4Z"/><path class="cls-2" d="M50.12,40.48S43.76,34.72,44,33.8s2.84-8.13,2.07-9.43S43.6,18.77,42,19.54s-1.38,1.84-.38,3.14a3,3,0,0,1,.61,3.3c-.38,1.23-3.14,9.51-2.53,10.43s8.13,8.67,8.13,8.67Z"/><path class="cls-3" d="M42.22,26a3,3,0,0,0-.61-3.3c-1-1.3-1.23-2.38.38-3.14s3.3,3.53,4.07,4.83S44.22,32.88,44,33.8a4.83,4.83,0,0,0-2.5-.07c-1.51.31-1.79,2.67-1.79,2.67C39.08,35.49,41.84,27.21,42.22,26Z"/><path class="cls-2" d="M47.13,55.09s-4.46-1.94-4.64-2.88-1.2-9-2.76-9.52-7.34-.94-7.46,1.06,4.76.7,4.93,1.64c.11.59,1.53,10,2.82,11.22a64.75,64.75,0,0,0,8.22,5.58c1.94,1.06,3.23,1.94,3.23,1.94Z"/><path class="cls-3" d="M32.27,43.75c.12-2,5.93-1.59,7.46-1.06s2.58,8.58,2.76,9.52A2.11,2.11,0,0,0,40,53.92a8,8,0,0,0-.17,2.48c-1.24-1.83-2.54-10.43-2.65-11C37,44.46,32.15,45.75,32.27,43.75Z"/><path class="cls-2" d="M52.5,64.91S42.07,75.85,41,76.44s-8.65,3.39-9.67,4.5-5.34,5-3.48,5.94,4.24-2.63,4.92-2.71S42,80,42.41,80.09s1.61,0,4.41-2.63S57.25,67.11,57.25,67.11Z"/><path class="cls-3" d="M27.82,86.87C26,85.94,30.28,82,31.3,80.94S39.87,77,41,76.44c0,0-.69,1.65.51,2.47a4.27,4.27,0,0,0,3,.42c-1.19.78-1.81.81-2.09.75s-9,4-9.67,4.07S29.69,87.81,27.82,86.87Z"/><path class="cls-4" d="M46.16,24.69a2.38,2.38,0,0,0-1.95-.7,2.73,2.73,0,0,0-1.79,1,3.07,3.07,0,0,0-.82-2.32c-1-1.3-1.23-2.38.38-3.14s3.3,3.53,4.07,4.83A1,1,0,0,1,46.16,24.69Z"/><path class="cls-4" d="M32.27,43.75c.12-2,5.93-1.59,7.46-1.06a2.09,2.09,0,0,0-2.17,1.06,4,4,0,0,0-.5,1.46C36.24,44.65,32.16,45.59,32.27,43.75Z"/><path class="cls-4" d="M31.64,83.4a2,2,0,0,0,1,.78c-.74.24-3,3.6-4.86,2.69S30.28,82,31.3,80.94A4.21,4.21,0,0,0,31.64,83.4Z"/><ellipse class="cls-5" cx="64.83" cy="51.55" rx="19.8" ry="19.55"/><path class="cls-5" d="M81.27,88.83c0,13.78-5.5,30-16.43,30s-16.43-16.22-16.43-30,5.5-19.9,16.43-19.9S81.27,75.06,81.27,88.83Z"/><path class="cls-6" d="M74.12,113.86a39.81,39.81,0,0,1-18.57,0c2.46,3,5.55,5,9.29,5S71.65,116.9,74.12,113.86Z"/><path class="cls-6" d="M48.42,89.64a54.24,54.24,0,0,0,1.32,11.09,45.08,45.08,0,0,0,30.18,0,54.24,54.24,0,0,0,1.32-11.09,34.84,34.84,0,0,1-16.41,3.93A34.84,34.84,0,0,1,48.42,89.64Z"/><path class="cls-6" d="M56.34,70.71a12.57,12.57,0,0,0-5.63,5.8,39.64,39.64,0,0,0,28.26,0,12.57,12.57,0,0,0-5.63-5.8c-2.58.25-5.45.39-8.5.39S58.91,71,56.34,70.71Z"/><ellipse class="cls-7" cx="64.83" cy="51.06" rx="12.19" ry="13.48"/><ellipse class="cls-8" cx="56.32" cy="31.2" rx="8.67" ry="7.06"/><ellipse class="cls-8" cx="74.26" cy="31.2" rx="8.67" ry="7.06"/><ellipse class="cls-9" cx="64.83" cy="25.89" rx="13.32" ry="7.71"/><path class="cls-10" d="M81.6,34.9A18.07,18.07,0,0,0,49,34.9a9.2,9.2,0,0,0,7.34,3.35c3.75,0,6.91-1.95,8.12-4.66h.4c.44,0,.87,0,1.3,0,1.2,2.73,4.37,4.69,8.13,4.69A9.2,9.2,0,0,0,81.6,34.9Z"/><path class="cls-11" d="M71,24.28a.63.63,0,0,1-.43-1.09c3.16-2.93,8.32-7.75,8.68-8.2s2.46-6,3.8-9.39a.63.63,0,0,1,1.17.46c-1.08,2.74-3.62,9.18-3.94,9.65s-6.3,6-8.85,8.41A.63.63,0,0,1,71,24.28Z"/><path class="cls-12" d="M79.19,15.09c-.78.82-5.57,5.31-8.58,8.09a.63.63,0,0,0,.86.93C74,21.74,80,16.18,80.32,15.71l0,0A9.08,9.08,0,0,0,79.19,15.09Z"/><path class="cls-11" d="M59.33,24.28a.63.63,0,0,0,.43-1.09c-3.16-2.93-8.32-7.75-8.68-8.2s-2.46-6-3.8-9.39a.63.63,0,0,0-1.17.46c1.08,2.74,3.62,9.18,3.94,9.65s6.3,6,8.85,8.41A.63.63,0,0,0,59.33,24.28Z"/><path class="cls-12" d="M51.18,15.09c.78.82,5.57,5.31,8.58,8.09a.63.63,0,0,1-.86.93c-2.56-2.37-8.54-7.93-8.85-8.41l0,0A9.08,9.08,0,0,1,51.18,15.09Z"/><path class="cls-13" d="M84.63,51.55A19.58,19.58,0,0,0,70.56,32.85c4.48-1.24,7.59-3.88,7.59-7,0-4.24-5.91-7.68-13.21-7.71V118.82c10.87-.1,16.33-16.25,16.33-30,0-10.61-3.28-16.66-9.77-18.89A19.55,19.55,0,0,0,84.63,51.55Z"/><path class="cls-14" d="M76.81,47.85a17,17,0,0,1,5,7.85c1.57,5.13,16.26,39.8,17.69,47.78s.14,15.12-2.71,16.4-16.55-5.28-19.4-14.83-7-33.38-4.65-37.94S78,58,77.1,56a8.79,8.79,0,0,0-2.28-3.14Z"/><path class="cls-14" d="M53.31,47.85a17,17,0,0,0-5,7.85c-1.57,5.13-16.26,39.8-17.69,47.78s-.14,15.12,2.71,16.4,16.55-5.28,19.4-14.83,7-33.38,4.65-37.94S52.17,58,53,56a8.79,8.79,0,0,1,2.28-3.14Z"/></g></g></svg>