<svg id="bugs&#x6606;&#x866B;" xmlns="http://www.w3.org/2000/svg" viewbox="0 0 128 128" width="128" height="128"><defs><style>.cls-1{fill:#b4c09d;stroke:none;}.cls-2{fill:#8aa84a;stroke:none;}.cls-3{fill:#c5d847;stroke:none;}.cls-4{fill:#718766;stroke:none;}.cls-5{fill:#bbcb6f;stroke:none;}.cls-10,.cls-6{fill:#9ab82a;stroke:none;}.cls-7{fill:#95ab73;stroke:none;}.cls-8{fill:#678e3d;stroke:none;}.cls-9{fill:#9cbc55;opacity:0.43;stroke:none;}.cls-10{opacity:0.48;stroke:none;}</style></defs><title>bugs&#x6606;&#x866B;</title><path class="cls-1" d="M84.1,46.38s13.57-5.77,14.36-6.21,6.1-4.4,6.75-4.26,2.05-.22.47.86-6.93,4.26-7.8,4.69S85.11,47.1,85.11,47.1Z"/><path class="cls-2" d="M99,39.8l.42.78c2-1.14,5.08-3,6.23-3.81,1.59-1.08.18-.72-.47-.86S100.65,38.71,99,39.8Z"/><path class="cls-1" d="M48.1,46.38S34.53,40.6,33.73,40.17s-6.1-4.4-6.75-4.26-2.05-.22-.47.86,6.93,4.26,7.8,4.69S47.09,47.1,47.09,47.1Z"/><path class="cls-3" d="M33.6,40.09c-1.12-.7-6-4.31-6.61-4.17s-2.05-.22-.47.86c1.19.81,4.48,2.79,6.42,3.92Z"/><path class="cls-4" d="M62.1,63.48s-13.79-17.18-14-17.11-1.66-.29-1,.72S61.81,65.29,61.81,65.29Z"/><path class="cls-1" d="M95.32,68.24c.53.63,11.58,15.75,12.38,16.18a16.58,16.58,0,0,0,4.55,1.23c.36-.14.58.43.94.43s1.23-.22,1.59,0,2.24,1.15,1.3,1.3a5.76,5.76,0,0,1-2.38-.14c-.36-.14-1-.58-1-.36s-1.37-.79-1.8-.79A24,24,0,0,1,107.05,85c-.65-.29-12.41-16.46-12.41-16.46s-.52.08-.48-.08A.71.71,0,0,1,95.32,68.24Z"/><path class="cls-2" d="M107.05,85a24,24,0,0,0,3.83,1.08c.43,0,1.8,1,1.8.79s.65.22,1,.36a5.76,5.76,0,0,0,2.38.14c.94-.14-.94-1.08-1.3-1.3s-1.23,0-1.59,0-.58-.58-.94-.43a16.58,16.58,0,0,1-4.55-1.23,1.4,1.4,0,0,1-.24-.22l-.63.6A1.09,1.09,0,0,0,107.05,85Z"/><path class="cls-1" d="M36.69,68.4C36,69,25.29,84,24.5,84.42a16.58,16.58,0,0,1-4.55,1.23c-.36-.14-.58.43-.94.43s-1.23-.22-1.59,0-2.24,1.15-1.3,1.3a5.76,5.76,0,0,0,2.38-.14c.36-.14,1-.58,1-.36s1.37-.79,1.8-.79A24,24,0,0,0,25.15,85C25.8,84.7,37.7,68.51,37.7,68.51S37.62,67.57,36.69,68.4Z"/><path class="cls-3" d="M25.17,85l-.6-.62-.07.06a16.58,16.58,0,0,1-4.55,1.23c-.36-.14-.58.43-.94.43s-1.23-.22-1.59,0-2.24,1.15-1.3,1.3a5.76,5.76,0,0,0,2.38-.14c.36-.14,1-.58,1-.36s1.37-.79,1.8-.79A24,24,0,0,0,25.15,85Z"/><path class="cls-4" d="M61.23,72.72s-23-4.84-23.75-4.69-1.08.72.14,1S61,74.09,61,74.09Z"/><path class="cls-4" d="M71,72.72S94,67.89,94.71,68s1.08.72-.14,1-23.39,5.05-23.39,5.05Z"/><path class="cls-5" d="M92.25,19.59s2.92,1.82,3.67,1.86,3.5-4.56,3.19-4.74-2.61,4-3.36,4.07-4.25-2.3-4.25-2.3Z"/><path class="cls-5" d="M39.9,19.59S37,21.41,36.22,21.45s-3.5-4.56-3.19-4.74,2.61,4,3.36,4.07,4.25-2.3,4.25-2.3Z"/><path class="cls-6" d="M67.59,18.67a.15.15,0,0,1-.1,0,.16.16,0,0,1,0-.22A43.94,43.94,0,0,1,75.08,11a40.25,40.25,0,0,1,6.56-3.93.16.16,0,0,1,.21.08.16.16,0,0,1-.08.21,40,40,0,0,0-6.5,3.9,43.68,43.68,0,0,0-7.55,7.31A.15.15,0,0,1,67.59,18.67Z"/><path class="cls-6" d="M64.61,18.67a.15.15,0,0,1-.12-.06,43.68,43.68,0,0,0-7.55-7.31,40,40,0,0,0-6.5-3.9.16.16,0,0,1-.08-.21.16.16,0,0,1,.21-.08A40.25,40.25,0,0,1,57.12,11a43.94,43.94,0,0,1,7.62,7.37.16.16,0,0,1,0,.22A.15.15,0,0,1,64.61,18.67Z"/><path class="cls-6" d="M68.27,19.54s1.77-.81,2.35.39a1.3,1.3,0,0,1-.73,2c-.58.15-1.39-.77-1.39-.77Z"/><path class="cls-6" d="M64,19.54s-1.77-.81-2.35.39a1.3,1.3,0,0,0,.73,2c.58.15,1.39-.77,1.39-.77Z"/><path class="cls-7" d="M92.63,21.22a9.61,9.61,0,0,0-1.5-4.07,17.15,17.15,0,0,0-3.63-3.51c-.88-.75-1.88,0-2.63.88s-3,12.21-3.69,15.15a58.66,58.66,0,0,0-1.31,8.08c0,1-1.75.06-2.88-.38s-4-1.88-4.82-2.94a4.11,4.11,0,0,0-2-1.38,20,20,0,0,0-.25-5.51c-.45-2-2.44-3.07-2.69-3.57s.69-.06,2.07-1.06S67.52,17.4,66,17.4h-.08c-1.5,0-4.63,4.51-3.26,5.51S65,23.47,64.75,24s-2.24,1.62-2.69,3.57a20,20,0,0,0-.25,5.51,4.11,4.11,0,0,0-2,1.38c-.81,1.06-3.69,2.5-4.82,2.94s-2.88,1.38-2.88.38a58.65,58.65,0,0,0-1.31-8.08c-.69-2.94-2.94-14.28-3.69-15.15s-1.75-1.63-2.63-.88a17.15,17.15,0,0,0-3.63,3.51,9.61,9.61,0,0,0-1.5,4.07l-.06,1.13s2.25-4.51,3.32-5.2S45,15,45.47,16.21a15.28,15.28,0,0,1,.69,5.26,32.75,32.75,0,0,0,1.69,10.39c1.44,4.07,2.5,8.58,4.7,9.27s8.77-4.57,9.58-4.38.31,2.25.81,3.57.25,11.9.75,12.9a2.12,2.12,0,0,1,.13,2.19c-.31.38-.88.38-1.44,2.94A152.91,152.91,0,0,0,59.3,90.91c.06,17.85,4.26,30.93,6.39,30.93h.58c2.13,0,6.32-13.09,6.39-30.93a152.91,152.91,0,0,0-3.07-32.56c-.56-2.57-1.13-2.57-1.44-2.94a2.12,2.12,0,0,1,.13-2.19c.5-1,.25-11.58.75-12.9s0-3.38.81-3.57,7.39,5.07,9.58,4.38,3.26-5.2,4.7-9.27A32.75,32.75,0,0,0,85.8,21.47a15.28,15.28,0,0,1,.69-5.26c.5-1.25,1.82.25,2.88.94s3.32,5.2,3.32,5.2Z"/><path class="cls-8" d="M91.13,17.15a17.15,17.15,0,0,0-3.63-3.51c-.88-.75-1.88,0-2.63.88s-3,12.21-3.69,15.15a58.66,58.66,0,0,0-1.31,8.08c0,1-1.75.06-2.88-.38s-4-1.88-4.82-2.94a4.11,4.11,0,0,0-2-1.38,20,20,0,0,0-.25-5.51c-.45-2-2.44-3.07-2.69-3.57s.69-.06,2.07-1.06S67.52,17.4,66,17.4h0V121.84h.28c2.13,0,6.32-13.09,6.39-30.93a152.91,152.91,0,0,0-3.07-32.56c-.56-2.57-1.13-2.57-1.44-2.94a2.12,2.12,0,0,1,.13-2.19c.5-1,.25-11.58.75-12.9s0-3.38.81-3.57,7.39,5.07,9.58,4.38,3.26-5.2,4.7-9.27A32.75,32.75,0,0,0,85.8,21.47a15.28,15.28,0,0,1,.69-5.26c.5-1.25,1.82.25,2.88.94s3.32,5.2,3.32,5.2l-.06-1.13A9.61,9.61,0,0,0,91.13,17.15Z"/><path class="cls-9" d="M68.93,30.05c0,2.52-1.32,5.11-3,5.11s-3-2.59-3-5.11,1.32-5,3-5S68.93,27.53,68.93,30.05Z"/><path class="cls-10" d="M70.84,87.38c0,15.28-2.18,31-4.86,31s-4.86-15.73-4.86-31S63.3,56.85,66,56.85,70.84,72.1,70.84,87.38Z"/><polygon class="cls-8" points="85.45 19.68 86.77 19.79 85.51 20.26 85.45 19.68"/><path class="cls-8" d="M85.35,21.95c.16,0,1.53.11,1.53.11l-1.47.42Z"/><polygon class="cls-8" points="84.98 25 86.67 25.11 84.88 25.53 84.98 25"/><path class="cls-8" d="M84.61,28.11c.16,0,1.68.63,1.68.63l-1.84-.16Z"/><polygon class="cls-8" points="84.24 29.84 85.4 30.74 84.14 30.27 84.24 29.84"/><polygon class="cls-7" points="46.45 19.68 45.13 19.79 46.4 20.26 46.45 19.68"/><path class="cls-7" d="M46.55,21.95c-.16,0-1.53.11-1.53.11l1.47.42Z"/><polygon class="cls-7" points="46.92 25 45.24 25.11 47.03 25.53 46.92 25"/><path class="cls-7" d="M47.29,28.11c-.16,0-1.68.63-1.68.63l1.84-.16Z"/><polygon class="cls-7" points="47.66 29.84 46.5 30.74 47.77 30.27 47.66 29.84"/><path class="cls-4" d="M70.1,63.48s13.79-17.18,14-17.11,1.66-.29,1,.72S70.39,65.29,70.39,65.29Z"/><path class="cls-4" d="M51,31.43c0,.41.14,6.6.78,6.92s3.76-.23,5.68-1.79a4.5,4.5,0,0,0,.78-.84A22,22,0,0,1,55,37.37c-1.13.44-2.88,1.38-2.88.38a58.65,58.65,0,0,0-1.31-8.08c-.69-2.94-2.94-14.28-3.69-15.15,0,0,.7,3.85,1.39,7.06S50.91,31,51,31.43Z"/></svg>