<svg xmlns="http://www.w3.org/2000/svg" viewbox="0 0 128 128" width="128" height="128"><defs><style>.cls-1{isolation:isolate;stroke:none;}.cls-2{fill:#494922;stroke:none;}.cls-3{fill:#17170e;stroke:none;}.cls-4{fill:#0f0f08;stroke:none;}.cls-5{fill:#969677;stroke:none;}.cls-6{fill:#262615;stroke:none;}.cls-7{fill:#4d502d;stroke:none;}.cls-8{fill:#676b4e;stroke:none;}.cls-9{fill:#e7e181;stroke:none;}.cls-10{fill:#b52425;stroke:none;}.cls-11{fill:#d52728;stroke:none;}.cls-12{fill:#e52d25;stroke:none;}.cls-13{fill:#494724;stroke:none;}.cls-14{fill:#17120f;stroke:none;}.cls-15{fill:#2c2b26;stroke:none;}.cls-16{fill:#231f20;opacity:0.23;mix-blend-mode:multiply;stroke:none;}.cls-17{fill:#15140d;stroke:none;}.cls-18{fill:#282721;stroke:none;}</style></defs><title>bugs&#x6606;&#x866B;</title><g class="cls-1"><g id="bugs&#x6606;&#x866B;"><path class="cls-2" d="M89.17,53.78S93.52,57,95,60.93s.59,6.79,1.33,6.2,1.77-2.07,2.58-2.07a10.27,10.27,0,0,0,3-.66,2.57,2.57,0,0,1,2.51-.44c1.25.52,3.1,1.7,2.21,1.7s-3.25-.89-3.39-.59a1.89,1.89,0,0,1-1.33.81c-.52,0-1.62,0-1.92.66A3.87,3.87,0,0,1,97.8,68c-.81.3-1.84,1.4-3,1.4s-3-4-3-4Z"/><path class="cls-3" d="M104.36,64a2.57,2.57,0,0,0-2.51.44l-.33.13a10.17,10.17,0,0,1,2.71-.11c.48.06.91.1,1.3.12A10.77,10.77,0,0,0,104.36,64Z"/><path class="cls-3" d="M96.32,67.13c-.74.59.15-2.29-1.33-6.2s-5.83-7.15-5.83-7.15l2.41,10.9a32.67,32.67,0,0,0,4.08,3.71c.44,0,2.58-3.17,3.25-3.32C98.09,65.06,97.06,66.54,96.32,67.13Z"/><path class="cls-2" d="M42.44,53.78S38.09,57,36.62,60.93s-.59,6.79-1.33,6.2-1.77-2.07-2.58-2.07a10.27,10.27,0,0,1-3-.66A2.57,2.57,0,0,0,27.25,64c-1.25.52-3.1,1.7-2.21,1.7s3.25-.89,3.39-.59a1.89,1.89,0,0,0,1.33.81c.52,0,1.62,0,1.92.66A3.87,3.87,0,0,0,33.81,68c.81.3,1.84,1.4,3,1.4s3-4,3-4Z"/><path class="cls-3" d="M27.25,64a2.57,2.57,0,0,1,2.51.44l.33.13a10.17,10.17,0,0,0-2.71-.11c-.48.06-.91.1-1.3.12A10.77,10.77,0,0,1,27.25,64Z"/><path class="cls-3" d="M35.29,67.13c.74.59-.15-2.29,1.33-6.2s5.83-7.15,5.83-7.15L40,64.68A32.67,32.67,0,0,1,36,68.38c-.44,0-2.58-3.17-3.25-3.32C33.52,65.06,34.55,66.54,35.29,67.13Z"/><path class="cls-4" d="M82.84,39.75s2.05-3.23,2.76-3.29a2.61,2.61,0,0,0,2.29-2.23c.47-1.76,1.41-9.74,1.06-10s-1.29-1.76-.29-1.47a8.42,8.42,0,0,0,2.64.65c.53-.12,1.35-.65,1.88-.29s1.41,1.06,2.29.76A32.05,32.05,0,0,0,100.56,21c-.35,0-2.29-.41-2.7-.06s-1.29,1.76-1.76,1.35-.12-1.94-1.41-1.58a11.94,11.94,0,0,1-3.76.65c-1.64,0-3.34-.21-4.11.29-1.88,1.23,0,12.32-1.47,13.26-1,.61-4.34.23-4.34.23Z"/><path class="cls-5" d="M97.86,20.91c-.2.17-.5.58-.81.91l1.52,0c.19,0,.51,0,.88-.05.74-.44,1.25-.77,1.12-.77C100.21,21,98.27,20.56,97.86,20.91Z"/><path class="cls-5" d="M95.94,22c-.23-.58-.15-1.62-1.24-1.32a11.94,11.94,0,0,1-3.76.65c-1.64,0-3.34-.21-4.11.29-1.88,1.23,0,12.32-1.47,13.26-1,.61-4.34.23-4.34.23l.51,1.31c1,.15,2.76.31,3.65-.25,1.29-.82,1.94-3,1.94-4.64s-.65-9.62.18-9.8,5.69.65,6.81.65A5.24,5.24,0,0,0,95.94,22Z"/><path class="cls-4" d="M48.77,39.75S46.72,36.52,46,36.46a2.61,2.61,0,0,1-2.29-2.23c-.47-1.76-1.41-9.74-1.06-10S44,22.44,43,22.73a8.42,8.42,0,0,1-2.64.65c-.53-.12-1.35-.65-1.88-.29s-1.41,1.06-2.29.76A32.05,32.05,0,0,1,31.05,21c.35,0,2.29-.41,2.7-.06s1.29,1.76,1.76,1.35.12-1.94,1.41-1.58a11.94,11.94,0,0,0,3.76.65c1.64,0,3.34-.21,4.11.29,1.88,1.23,0,12.32,1.47,13.26,1,.61,4.34.23,4.34.23Z"/><path class="cls-5" d="M33.75,20.91c.2.17.5.58.81.91l-1.52,0c-.19,0-.51,0-.88-.05-.74-.44-1.25-.77-1.12-.77C31.4,21,33.34,20.56,33.75,20.91Z"/><path class="cls-5" d="M35.67,22c.23-.58.15-1.62,1.24-1.32a11.94,11.94,0,0,0,3.76.65c1.64,0,3.34-.21,4.11.29,1.88,1.23,0,12.32,1.47,13.26,1,.61,4.34.23,4.34.23l-.51,1.31c-1,.15-2.76.31-3.65-.25-1.29-.82-1.94-3-1.94-4.64s.65-9.62-.18-9.8-5.69.65-6.81.65A5.24,5.24,0,0,1,35.67,22Z"/><path class="cls-6" d="M69.53,26.34a1.18,1.18,0,0,0,0-.18c0-1.14-1.64-2.07-3.65-2.07s-3.65.93-3.65,2.07a1.18,1.18,0,0,0,0,.18,10.45,10.45,0,0,1,7.25,0Z"/><path class="cls-6" d="M71.06,27.35s-.49-2.27.49-2.7,2.83-1.11,3.75-2.27,2.33-3.13,3-2.58.25,1.29-.74,1.84-3.62,2.58-3.87,3.62a10.05,10.05,0,0,0,0,2.83Z"/><path class="cls-6" d="M60.55,27.35s.49-2.27-.49-2.7-2.83-1.11-3.75-2.27-2.33-3.13-3-2.58-.25,1.29.74,1.84,3.62,2.58,3.87,3.62a10.05,10.05,0,0,1,0,2.83Z"/><path class="cls-7" d="M70.67,27.13c-.65-.83-2.53-1.44-4.77-1.44s-4.12.61-4.77,1.44c-2.75,0-5,1.15-5,2.54s2.25,2.55,5,2.55h9.41c2.78,0,5-1.14,5-2.55S73.42,27.15,70.67,27.13Z"/><path class="cls-8" d="M74.6,31.45c-1.19-1.7-4.64-.77-8.75-.77s-7.56-.93-8.75.77c-5,0-9.12,6.2-9.12,9.06S52.12,46,57.21,46H74.49c5.1,0,9.23-2.64,9.23-5.52S79.65,31.48,74.6,31.45Z"/><path class="cls-8" d="M74.6,31.45c-1.19-1.7-4.64-.77-8.75-.77s-7.56-.93-8.75.77c-5,0-9.12,6.2-9.12,9.06S52.12,46,57.21,46H74.49c5.1,0,9.23-2.64,9.23-5.52S79.65,31.48,74.6,31.45Z"/><path class="cls-6" d="M83,42.15a12.32,12.32,0,0,1-5.28-1.94c-1.23-1.06-7.39-5.46-12.09-5.46S55.2,39.28,53.5,40.57c-1.2.91-3.72,1.27-5.1,1.4,1.1,2.25,4.65,4.06,8.87,4.06H74.55c4.08,0,7.53-1.69,8.75-3.84Z"/><path class="cls-9" d="M48.11,39.28s2.23-1.82,3.29-1.82,3.05.06,4.28-1.76,2-3.11.65-3.58-3.7-.41-5.57,2.29A22.69,22.69,0,0,0,48.11,39.28Z"/><path class="cls-10" d="M85.47,45.15c-1.82-1-19.2-.73-19.62-.72s-17.8-.23-19.62.72-8.26,13.71-7,27.41S47,95.94,55.45,100.83c7.53,4.33,13.27,4.33,20.8,0,8.5-4.89,14.91-14.56,16.19-28.27S87.31,46.11,85.47,45.15Z"/><path class="cls-11" d="M81.75,45.06c-1.57-.84-15.54-.64-15.9-.63s-14.33-.2-15.9.63-8.11,12.05-7,24.1S49.57,89.71,56.89,94c6.48,3.81,11.44,3.81,17.92,0,7.32-4.3,12.84-12.8,13.95-24.85S83.34,45.9,81.75,45.06Z"/><path class="cls-12" d="M72.85,45c-.84-.74-6.8-.56-7-.56s-6.16-.18-7,.56-5.79,10.6-5.2,21.21,3.53,18.09,7.43,21.87c3.45,3.35,6.09,3.35,9.54,0,3.9-3.78,6.84-11.27,7.43-21.87S73.7,45.72,72.85,45Z"/><path class="cls-13" d="M90.36,80.29a4.23,4.23,0,0,1,2,2.51c.23,1.52-.29,9-1.63,11.66s-3.62,4.72-3.15,4.84,4.26,1,6.3,2.92,2.92,3,3.09,3.73a16.41,16.41,0,0,1,.76,3.44c-.06.82-.35.12-.87-.7s-1.4-4-1.63-3.73a1.36,1.36,0,0,1-1.75-.17c-.52-.64-1.11-1.69-1.75-1.57s-4.43-1.81-4.78-2.27-1-1-1.22-1.34a7.28,7.28,0,0,1,1-4.78c1.22-2,4.26-9.39,4.2-10.26a3.81,3.81,0,0,0-1-1.87Z"/><path class="cls-14" d="M88,96.44c.52.06,1.17-.82,2.1-2.33s2.16-7.06,2.16-7.06h0a24.26,24.26,0,0,0,.11-4.25,4.23,4.23,0,0,0-2-2.51l-.52,2.39a3.81,3.81,0,0,1,1,1.87c.06.85-2.79,7.83-4.08,10.06C87.17,95.43,87.66,96.41,88,96.44Z"/><path class="cls-14" d="M88.49,100.64a4.42,4.42,0,0,0-2.08-.27,6,6,0,0,1,.51.57c.35.47,4.14,2.39,4.78,2.27s1.22.93,1.75,1.57a1.36,1.36,0,0,0,1.75.17s-.35-.52-.7-1.17S89.43,101.11,88.49,100.64Z"/><path class="cls-15" d="M68.21,48.22c-.69.77-2.84,6.71-1.72,8.34s3.35,2.49,6.19.34,3.87-5.59,1.81-7.31S68.89,47.45,68.21,48.22Z"/><path class="cls-15" d="M63.55,48.22c.69.77,2.84,6.71,1.72,8.34s-3.35,2.49-6.19.34-3.87-5.59-1.81-7.31S62.86,47.45,63.55,48.22Z"/><path class="cls-13" d="M41.25,80.29a4.23,4.23,0,0,0-2,2.51c-.23,1.52.29,9,1.63,11.66s3.62,4.72,3.15,4.84-4.26,1-6.3,2.92-2.92,3-3.09,3.73a16.41,16.41,0,0,0-.76,3.44c.06.82.35.12.87-.7s1.4-4,1.63-3.73a1.36,1.36,0,0,0,1.75-.17c.52-.64,1.11-1.69,1.75-1.57s4.43-1.81,4.78-2.27,1-1,1.22-1.34a7.28,7.28,0,0,0-1-4.78c-1.22-2-4.26-9.39-4.2-10.26a3.81,3.81,0,0,1,1-1.87Z"/><path class="cls-14" d="M43.64,96.44c-.52.06-1.17-.82-2.1-2.33s-2.16-7.06-2.16-7.06h0a24.26,24.26,0,0,1-.11-4.25,4.23,4.23,0,0,1,2-2.51l.52,2.39a3.81,3.81,0,0,0-1,1.87c-.06.85,2.79,7.83,4.08,10.06C44.44,95.43,43.95,96.41,43.64,96.44Z"/><path class="cls-14" d="M43.12,100.64a4.42,4.42,0,0,1,2.08-.27,6,6,0,0,0-.51.57c-.35.47-4.14,2.39-4.78,2.27s-1.22.93-1.75,1.57a1.36,1.36,0,0,1-1.75.17s.35-.52.7-1.17S42.18,101.11,43.12,100.64Z"/><path class="cls-16" d="M85.47,45.15a19,19,0,0,0-4.84-.57,6.65,6.65,0,0,0,2.67-2.39h-.05a3.39,3.39,0,0,0,.47-1.67c0-2.85-4.07-9-9.12-9.06a1.85,1.85,0,0,0-.13-.16,2,2,0,0,0,1.18-1.62c0-1.4-2.22-2.53-5-2.54a2.93,2.93,0,0,0-1.14-.79h0a1.18,1.18,0,0,0,0-.18c0-1.14-1.64-2.07-3.65-2.07h-.07v80c3.32,0,6.64-1.08,10.41-3.25,8.5-4.89,14.91-14.56,16.19-28.27S87.31,46.11,85.47,45.15Z"/><path class="cls-9" d="M83.61,39.28s-2.23-1.82-3.29-1.82-3.05.06-4.28-1.76-2-3.11-.65-3.58,3.7-.41,5.57,2.29A22.69,22.69,0,0,1,83.61,39.28Z"/><ellipse class="cls-17" cx="43.02" cy="63.2" rx="2.91" ry="4.16"/><ellipse class="cls-17" cx="88.45" cy="63.2" rx="2.91" ry="4.16"/><ellipse class="cls-18" cx="52.83" cy="73.66" rx="5.26" ry="5.88"/><path class="cls-17" d="M44.31,86.4a3.06,3.06,0,0,0-1,1.14,32.8,32.8,0,0,0,5.57,8.08,3.07,3.07,0,0,0,1.44-.52c1.79-1.24,1.89-4.19.22-6.59S46.09,85.17,44.31,86.4Z"/><path class="cls-17" d="M87.33,86.4c-1.79-1.24-4.59-.3-6.25,2.1s-1.57,5.35.22,6.59a3.08,3.08,0,0,0,1.5.53,32.77,32.77,0,0,0,5.55-8A3.08,3.08,0,0,0,87.33,86.4Z"/><ellipse class="cls-18" cx="77.5" cy="73.66" rx="5.26" ry="5.88"/></g></g></svg>