<svg id="bugs&#x6606;&#x866B;" xmlns="http://www.w3.org/2000/svg" viewbox="0 0 128 128" width="128" height="128"><defs><style>.cls-1{fill:#2d2c26;stroke:none;}.cls-2{fill:#1e1d1a;stroke:none;}.cls-3{fill:#4a2018;stroke:none;}.cls-4{fill:#231b19;stroke:none;}.cls-5{fill:#7b393c;stroke:none;}.cls-6{fill:#1b1413;stroke:none;}.cls-7{fill:#37352f;stroke:none;}.cls-8{fill:#181010;stroke:none;}.cls-9{fill:#2b1211;stroke:none;}.cls-10{fill:#6c403f;stroke:none;}.cls-11{fill:#4d4f4a;stroke:none;}.cls-12{fill:#585a54;stroke:none;}.cls-13{fill:#2f2e2b;stroke:none;}.cls-14{fill:#63645e;stroke:none;}</style></defs><title>bugs&#x6606;&#x866B;</title><path class="cls-1" d="M33.27,45s-3.8-5.53-3.63-9.63,1.83-5.1,2.94-5.43a4,4,0,0,1,2.22.06s-2.66-.06-2,.72a5.84,5.84,0,0,0,1.5,1.22s-1.83-.44-2.38,1-1.61,4.71.06,7.75A30.69,30.69,0,0,0,34.63,45Z"/><path class="cls-1" d="M97.77,45s3.8-5.53,3.63-9.63-1.83-5.1-2.94-5.43a4,4,0,0,0-2.22.06s2.66-.06,2,.72a5.84,5.84,0,0,1-1.5,1.22s1.83-.44,2.38,1,1.61,4.71-.06,7.75A30.69,30.69,0,0,1,96.42,45Z"/><path class="cls-2" d="M80,61.68s4.88,1.45,5.29,2.19S91.53,75.63,91.88,76s.37,0,.35.33a4.2,4.2,0,0,1-.55,1.22s-1.21-1.39-1.37-.85a5.62,5.62,0,0,1-.9,1.4s.76-2.44.28-3.22-4.87-8.39-5.36-8.48a17.13,17.13,0,0,1-4.17-1.42,5.15,5.15,0,0,1-1.33-1.52Z"/><path class="cls-1" d="M92.23,76.29A5.55,5.55,0,0,0,95,78.75c1.94.79,11.55,1.81,11.09,2.12s-1.15.3-1.17,1.12.59,1.91-.19,2.94a3.47,3.47,0,0,1-2,1.56c-.6.11,1.25-1.07,1.43-2s.31-2.76-1.53-3-7.88-1.5-9.17-2.49a22.26,22.26,0,0,1-1.76-1.45Z"/><path class="cls-2" d="M81,78.79s5.76,2.87,6.07,4.34,4.62,19,4.88,19.56,1.38,1.58.81,1.92-4.24,1.84-4.24,1.84,1.58-1.59,1.27-3.06-4.69-18.46-6.19-19.17-5.63-.16-5.63-.16Z"/><path class="cls-1" d="M91.64,104.61a4.53,4.53,0,0,0,2.23,2.45c1.75,1,4.68,2.79,5.49,4.61s2.71,7.32,3.29,7.85,1.17.86.7,1.12-2.47,2.57-3.86,2.59-1.06-.46-.38-1.17,2.8-2.75,1.71-5.11-3.6-6.91-5.16-7.76-2.53-1-3.72-2.33a10.64,10.64,0,0,1-1.53-2Z"/><path class="cls-2" d="M51.17,61.68s-4.88,1.45-5.29,2.19S39.67,75.63,39.32,76s-.37,0-.35.33a4.2,4.2,0,0,0,.55,1.22s1.21-1.39,1.37-.85a5.62,5.62,0,0,0,.9,1.4s-.76-2.44-.28-3.22,4.87-8.39,5.36-8.48A17.13,17.13,0,0,0,51,64.94a5.15,5.15,0,0,0,1.33-1.52Z"/><path class="cls-1" d="M39,76.29a5.55,5.55,0,0,1-2.74,2.46c-1.94.79-11.55,1.81-11.09,2.12s1.15.3,1.17,1.12-.59,1.91.19,2.94a3.47,3.47,0,0,0,2,1.56c.6.11-1.25-1.07-1.43-2s-.31-2.76,1.53-3,7.88-1.5,9.17-2.49a22.26,22.26,0,0,0,1.76-1.45Z"/><path class="cls-2" d="M50.22,78.79s-5.76,2.87-6.07,4.34-4.62,19-4.88,19.56-1.38,1.58-.81,1.92,4.24,1.84,4.24,1.84-1.58-1.59-1.27-3.06,4.69-18.46,6.19-19.17,5.63-.16,5.63-.16Z"/><path class="cls-1" d="M39.55,104.61a4.53,4.53,0,0,1-2.23,2.45c-1.75,1-4.68,2.79-5.49,4.61s-2.71,7.32-3.29,7.85-1.17.86-.7,1.12,2.47,2.57,3.86,2.59,1.06-.46.38-1.17-2.8-2.75-1.71-5.11,3.6-6.91,5.16-7.76,2.53-1,3.72-2.33a10.64,10.64,0,0,0,1.53-2Z"/><path class="cls-3" d="M69.74,29.38c.21.07,7.44-3.31,9-8.34s0-7.3-2.14-8.27a9.17,9.17,0,0,0-2.69-1s3.45,0,3.45-1.93-2.89-4.69-2.89-4.69A23.55,23.55,0,0,1,79,8c1,1.1,1.79,2.41,2.14,2.48s1.1-.21,1.52.62,2.07,7.79.21,12.2a15.93,15.93,0,0,1-5.17,6.61,49,49,0,0,1-6.41.28C69.74,30,69.74,29.38,69.74,29.38Z"/><path class="cls-4" d="M77.39,9.88c0,1.93-3.45,1.93-3.45,1.93a9.17,9.17,0,0,1,2.69,1c2.14,1,3.72,3.24,2.14,8.27s-8.82,8.41-9,8.34c0,0,0,.62,1.52.83a6.62,6.62,0,0,0,.69,0l.55-.39c3.65-2.62,6.27-4.62,7.72-10.27s-3-7.79-3-7.79.48-.21.9-1.93-3.58-4.69-3.58-4.69S77.39,7.95,77.39,9.88Z"/><path class="cls-5" d="M82.62,11.12c-.41-.83-1.17-.55-1.52-.62-.16,0-.42-.35-.75-.78a6.65,6.65,0,0,1-1.18,1.67c-.69.62-.83,1.1-.07,1.24a3,3,0,0,0,2.69-.41,11.71,11.71,0,0,0,.92-.87A2.17,2.17,0,0,0,82.62,11.12Z"/><path class="cls-6" d="M70.44,29.47a.49.49,0,0,1-.28-.1c-.11-.11-.52,0-.4-.08s2.68-2.77,2.94-4.38a1.59,1.59,0,0,0-1.23-1.81.29.29,0,0,1,.13-.56A2.14,2.14,0,0,1,73.26,25c-.29,1.8-2.32,4.21-2.42,4.31A1.1,1.1,0,0,1,70.44,29.47Z"/><path class="cls-7" d="M53.64,52.76c-.26,0-10-1.58-10.92-1.27a1.55,1.55,0,0,1-1.85-.63,35.71,35.71,0,0,0-3-2.59,3.75,3.75,0,0,1-1.37-2.59,20.06,20.06,0,0,0-.26-2.11,4.58,4.58,0,0,1-1.69.74c-1,.21-1.27.37-1.37.84s-.21.9-.63,1.11-.32.26.37.37,1.27.58,2.16,2,2.64,3.69,3.59,4.17a9,9,0,0,1,2,1.21c.47.42,5.86.58,8.18,1.16a23.72,23.72,0,0,0,5.22.53Z"/><path class="cls-2" d="M35.12,48.59c-.9-1.37-1.48-1.85-2.16-2s-.79-.16-.37-.37.53-.63.63-1.11a1.16,1.16,0,0,1,0-.16,10.07,10.07,0,0,0,1.26.93c.5.25,4.91,5.5,6.42,6.55s6.42.8,8.48,1.22a4.21,4.21,0,0,1,2.66,1.9,19.05,19.05,0,0,1-3.2-.46c-2.32-.58-7.7-.74-8.18-1.16a9,9,0,0,0-2-1.21C37.76,52.28,36,50,35.12,48.59Z"/><path class="cls-6" d="M24.84,24.92a.29.29,0,0,1,.38.13l.92,1.83h1.24l-.6-2a.28.28,0,1,1,.55-.16L28,26.88h.64l.09-2a.29.29,0,0,1,.29-.27h0a.29.29,0,0,1,.27.3l-.09,2a9.29,9.29,0,0,1,1.08.11l-.55-1.9a.29.29,0,0,1,.2-.35.28.28,0,0,1,.35.2l.63,2.18a33.63,33.63,0,0,1,6.05,2.1l.38.16a8.15,8.15,0,0,0,2.56-.21,26,26,0,0,1,4.59-.45c3,.07,6.74,2.36,6.9,2.46a.29.29,0,1,1-.3.48s-3.73-2.31-6.61-2.37a25.82,25.82,0,0,0-4.48.44,7.15,7.15,0,0,1-2.87.18l-.38-.17c-1.3-.57-5.27-2.3-7.82-2.3H26a.29.29,0,0,1-.26-.16l-1-2A.29.29,0,0,1,24.84,24.92Z"/><path class="cls-3" d="M61.31,29.38c-.21.07-7.44-3.31-9-8.34s0-7.3,2.14-8.27a9.17,9.17,0,0,1,2.69-1s-3.45,0-3.45-1.93,2.89-4.69,2.89-4.69A23.55,23.55,0,0,0,52.07,8c-1,1.1-1.79,2.41-2.14,2.48s-1.1-.21-1.52.62-2.07,7.79-.21,12.2a15.93,15.93,0,0,0,5.17,6.61,49,49,0,0,0,6.41.28C61.31,30,61.31,29.38,61.31,29.38Z"/><path class="cls-4" d="M53.66,9.88c0,1.93,3.45,1.93,3.45,1.93a9.17,9.17,0,0,0-2.69,1c-2.14,1-3.72,3.24-2.14,8.27s8.82,8.41,9,8.34c0,0,0,.62-1.52.83a6.62,6.62,0,0,1-.69,0l-.55-.39c-3.65-2.62-6.27-4.62-7.72-10.27s3-7.79,3-7.79-.48-.21-.9-1.93,3.58-4.69,3.58-4.69S53.66,7.95,53.66,9.88Z"/><path class="cls-5" d="M48.42,11.12c.41-.83,1.17-.55,1.52-.62.16,0,.42-.35.75-.78a6.65,6.65,0,0,0,1.18,1.67c.69.62.83,1.1.07,1.24a3,3,0,0,1-2.69-.41,11.71,11.71,0,0,1-.92-.87A2.17,2.17,0,0,1,48.42,11.12Z"/><path class="cls-6" d="M60.61,29.47a.49.49,0,0,0,.28-.1c.11-.11.52,0,.4-.08s-2.68-2.77-2.94-4.38a1.59,1.59,0,0,1,1.23-1.81.29.29,0,0,0-.13-.56A2.14,2.14,0,0,0,57.79,25c.29,1.8,2.32,4.21,2.42,4.31A1.1,1.1,0,0,0,60.61,29.47Z"/><path class="cls-8" d="M50.52,62.52a1.68,1.68,0,0,1,1.68-1.68l26.4-.55A1.68,1.68,0,0,1,80.28,62s2.06,11.31.59,21.8c-1.65,11.77-7.27,22.86-15.61,22.86s-13.6-11.3-15.2-22.86A78.8,78.8,0,0,1,50.52,62.52Z"/><path class="cls-9" d="M53.22,62.08a1.37,1.37,0,0,1,1.38-1.35l21.63-.44a1.37,1.37,0,0,1,1.38,1.35,62.73,62.73,0,0,1,.48,17.57c-1.35,9.49-6,18.43-12.79,18.43S54.15,88.54,52.84,79.22A62.53,62.53,0,0,1,53.22,62.08Z"/><path class="cls-10" d="M76.43,62.91a1.47,1.47,0,0,0-2.18.92,24.09,24.09,0,0,1-2.2,6.2c-1.34,2-4.62,6.88-5.29,12.34s0,9.49,1.43,9.74,5.54-1.26,6.88-9.07,3.11-19,1.6-20Z"/><path class="cls-10" d="M54.56,62.91a1.47,1.47,0,0,1,2.18.92,24.09,24.09,0,0,0,2.2,6.2c1.34,2,4.62,6.88,5.29,12.34s0,9.49-1.43,9.74S57.26,90.85,55.92,83s-3.11-19-1.6-20Z"/><path class="cls-7" d="M77.4,52.76c.26,0,10-1.58,10.92-1.27a1.55,1.55,0,0,0,1.85-.63,35.71,35.71,0,0,1,3-2.59,3.75,3.75,0,0,0,1.37-2.59,20.06,20.06,0,0,1,.26-2.11,4.58,4.58,0,0,0,1.69.74c1,.21,1.27.37,1.37.84s.21.9.63,1.11.32.26-.37.37-1.27.58-2.16,2-2.64,3.69-3.59,4.17a9,9,0,0,0-2,1.21c-.47.42-5.86.58-8.18,1.16a23.72,23.72,0,0,1-5.22.53Z"/><path class="cls-2" d="M95.92,48.59c.9-1.37,1.48-1.85,2.16-2s.79-.16.37-.37-.53-.63-.63-1.11a1.16,1.16,0,0,0,0-.16,10.07,10.07,0,0,1-1.26.93c-.5.25-4.91,5.5-6.42,6.55s-6.42.8-8.48,1.22a4.21,4.21,0,0,0-2.66,1.9,19.05,19.05,0,0,0,3.2-.46c2.32-.58,7.7-.74,8.18-1.16a9,9,0,0,1,2-1.21C93.28,52.28,95,50,95.92,48.59Z"/><path class="cls-6" d="M106.2,24.92a.29.29,0,0,0-.38.13l-.92,1.83h-1.24l.6-2a.28.28,0,1,0-.55-.16l-.65,2.19h-.64l-.09-2a.29.29,0,0,0-.29-.27h0a.29.29,0,0,0-.27.3l.09,2a9.29,9.29,0,0,0-1.08.11l.55-1.9a.29.29,0,0,0-.2-.35.28.28,0,0,0-.35.2l-.63,2.18a33.63,33.63,0,0,0-6.05,2.1l-.38.16a8.15,8.15,0,0,1-2.56-.21,26,26,0,0,0-4.59-.45c-3,.07-6.74,2.36-6.9,2.46a.29.29,0,1,0,.3.48s3.73-2.31,6.61-2.37a25.82,25.82,0,0,1,4.48.44,7.15,7.15,0,0,0,2.87.18l.38-.17c1.3-.57,5.27-2.3,7.82-2.3h2.91a.29.29,0,0,0,.26-.16l1-2A.29.29,0,0,0,106.2,24.92Z"/><path class="cls-2" d="M80.33,28.94c-.91-1.18-2.3-.07-4.8.42a27,27,0,0,1-6.54,0l-.07-1.75.08-.2a9.28,9.28,0,0,1-3.36,1.45h-.25A9.28,9.28,0,0,1,62,27.41l.08.2L62,29.36a27,27,0,0,1-6.54,0c-2.51-.49-3.9-1.6-4.8-.42s-1.32,6.61.77,9.61,3.13,4.25,2.78,4.87a8.44,8.44,0,0,0-.35,3.41,5.71,5.71,0,0,1-.77,2.92C52.7,50.6,48,60.83,65.37,60.83h.27C83,60.83,78.31,50.6,77.89,49.76a5.71,5.71,0,0,1-.77-2.92,8.44,8.44,0,0,0-.35-3.41c-.35-.63.7-1.88,2.78-4.87S81.23,30.13,80.33,28.94Z"/><path class="cls-1" d="M73.61,45.11A10.49,10.49,0,0,0,77,44a2.2,2.2,0,0,0-.18-.54c-.35-.63.7-1.88,2.78-4.87s1.67-8.42.77-9.61-2.3-.07-4.8.42a27,27,0,0,1-6.54,0l-.07-1.75.08-.2a9.28,9.28,0,0,1-3.36,1.45h-.25A9.28,9.28,0,0,1,62,27.41l.08.2L62,29.36a27,27,0,0,1-6.54,0c-2.51-.49-3.9-1.6-4.8-.42s-1.32,6.61.77,9.61,3.13,4.25,2.78,4.87a1.58,1.58,0,0,0-.09.21,5.12,5.12,0,0,0,3.25,1.47C59.51,45,63.12,44,65.62,44S71.73,45.26,73.61,45.11Z"/><path class="cls-11" d="M81.07,33a7.83,7.83,0,0,0-.74-4c-.91-1.18-2.3-.07-4.8.42a27,27,0,0,1-6.54,0l-.07-1.75.08-.2a9.28,9.28,0,0,1-3.36,1.45h-.25A9.28,9.28,0,0,1,62,27.41l.08.2L62,29.36a27,27,0,0,1-6.54,0c-2.51-.49-3.9-1.6-4.8-.42-.59.78-1,3.38-.58,5.92a9.14,9.14,0,0,0,3.46,4.29c3.05,1.72,6.42,0,8.22.24a20.91,20.91,0,0,1,3.45.78,7.21,7.21,0,0,1,3.68-.78c1.49.31,3.29,1.33,6.19.39s4.15-2.66,5.33-5.33C80.68,33.88,80.89,33.4,81.07,33Z"/><path class="cls-12" d="M79.63,32.08A4.44,4.44,0,0,0,79,29.26c-.82-.83-2.09,0-4.36.29a31.71,31.71,0,0,1-5.94,0l-.06-1.23.07-.14a9.79,9.79,0,0,1-3.05,1h-.23a9.78,9.78,0,0,1-3.05-1l.07.14-.06,1.23a31.71,31.71,0,0,1-5.94,0c-2.27-.34-3.54-1.12-4.36-.29-.54.54-.88,2.36-.52,4.14a7,7,0,0,0,3.14,3c2.77,1.21,5.83,0,7.46.16a23.79,23.79,0,0,1,3.13.55,8.15,8.15,0,0,1,3.34-.55c1.35.22,3,.93,5.62.27A6.84,6.84,0,0,0,79,33.12Z"/><path class="cls-13" d="M75.89,51c1.81,4.7.29,7.25-8.86,7.32-6.26,0-9.14-.81-9.07-1.28s8.64,1.43,13.48-2C75.14,52.53,73.68,45.31,75.89,51Z"/><path class="cls-14" d="M61.21,33c-.3-1.5-5.13-3.47-6.86-2.25s-1.11,3.55,1.58,4.37S61.51,34.46,61.21,33Z"/><path class="cls-14" d="M69.8,33c.3-1.5,5.13-3.47,6.86-2.25s1.11,3.55-1.58,4.37S69.5,34.46,69.8,33Z"/></svg>