<svg id="bugs&#x6606;&#x866B;" xmlns="http://www.w3.org/2000/svg" viewbox="0 0 128 128" width="128" height="128"><defs><style>.cls-1{fill:#b27128;stroke:none;}.cls-2{fill:#7b2916;stroke:none;}.cls-3{fill:#a84a23;stroke:none;}.cls-4{fill:#ceae1f;stroke:none;}.cls-5{fill:#c3742c;stroke:none;}.cls-6{fill:#813215;stroke:none;}.cls-7{fill:#c07a2e;stroke:none;}.cls-8{fill:#e4c025;stroke:none;}.cls-9{fill:#e2c227;stroke:none;}.cls-10{fill:#d1a535;stroke:none;}.cls-11{fill:#752c10;stroke:none;}.cls-12{fill:#bc5b25;stroke:none;}.cls-13{fill:#d5a12b;stroke:none;}.cls-14{fill:#e2c222;stroke:none;}.cls-15{fill:#e6d15a;stroke:none;}.cls-16{fill:#231f20;opacity:0.16;stroke:none;}</style></defs><title>bugs&#x6606;&#x866B;</title><path class="cls-1" d="M70.68,34.91a1.68,1.68,0,0,0,1.79-1.79c-.06-1.86.13-5.31-.45-6.4s.13-2.94.64-2.82,1.41,1.54,1.79,2.5,1,2.62,1.09,2.18a3.26,3.26,0,0,1,2.69-2.37c2-.38,2.75-1.15,4.67,0s9.79,10.43,10,11.2.06,2.24.9,2.37,2.82-3.91,4.35-4.48,5-2.18,5.76-2.18,1.34.13.7-1-2.37-3.26-2.43-4.48.45-5.89-2.18-10S92.45,8,93,8.35a77.15,77.15,0,0,1,5.89,6c1.34,1.6,4.16,4.67,4,4.1s-5.83-9-4.87-8.51a26.12,26.12,0,0,1,6.21,6.85c1.92,3.14,3.33,6.79,3.39,9.09s.45,6.59-3.46,10.56-7.3,5.76-9.15,5.63-8.45-6.34-10.63-8.64-3.71-4-4.23-3.91-1.79,1-1.79,1.47.58,3.14-.19,4.16A8.51,8.51,0,0,1,75.16,37Z"/><path class="cls-2" d="M95.71,40.93c-2-.06-4.1-2.11-5-2.5a41.07,41.07,0,0,1-6.53-6,18.61,18.61,0,0,1-2.69-5c-.06-.64-.83.38-1.22.83a7.65,7.65,0,0,1-2.88,1c-.7.13-1.34,2.3-1.66,3.26a25.2,25.2,0,0,1-2.32,3.66l1.74.82a8.51,8.51,0,0,0,3.07-1.86c.77-1,.19-3.71.19-4.16s1.28-1.41,1.79-1.47,2,1.6,4.23,3.91S93.22,42,95.07,42.08c1.17.08,3-.61,5.11-2.13A10.47,10.47,0,0,1,95.71,40.93Z"/><path class="cls-3" d="M95.07,42.08c1.86.13,5.25-1.66,9.15-5.63s3.52-8.26,3.46-10.56A18.43,18.43,0,0,0,105.53,19c.16,2.53.15,5.45.11,6.92a7.56,7.56,0,0,1-2.17,4.47c.44.67.88,1.3,1.14,1.74.64,1.09.06,1-.7,1a3.42,3.42,0,0,0-.83.2,21,21,0,0,1-.25,2.23c-.19.9-3.46,3.33-4.67,3.58a13.2,13.2,0,0,1-3.39-.1c-.39.46-.72.77-1,.74-.43-.07-.6-.49-.69-1-.75-.16-3.27-.86-4.27-1.14C91.31,39.88,94,42,95.07,42.08Z"/><path class="cls-4" d="M76.82,40.52s3.51-.78,4.93.65,7.85,7.79,8,8.31.39,2,1.1,1.88,6.36-3,7.53-2.79a10.37,10.37,0,0,0,3.83-.13c.65-.26,5.19-2.4,6.43-2.47s4.48-.39,4.93-.13,3.05,2.08,2.34,1.95-4.54-1.1-6.23-.65-15.5,6.56-19.26,6.18c-3.49-.35-8-8.39-8.58-8.78a10.75,10.75,0,0,0-3.57-1.75L77,42.6Z"/><path class="cls-4" d="M78.11,45.58a3,3,0,0,1,3,1.08c1.08,1.46,3,3.52,2.87,5S83.7,54,84,54.31a19,19,0,0,1,1.57,6.18c.16,2.39.05,4.23.27,4.23s3.52-.49,5.85.43,3.58,1.36,4.55,1.36,5.1.49,5.69.22a10.56,10.56,0,0,1,5.8-1.19c2.71.38,5.2,1.79,4,1.84s-3.52-.7-5.53-.38-3.25,1.41-5.91,1.46-6.34.87-10-.22-5.31-1.9-6-3.36A38.51,38.51,0,0,1,82,57c-.22-1.9-.27-2.6-.7-3.14s-1.19-2.28-2-2.33-1.08-.05-1.08-.05a12.28,12.28,0,0,1-.49-4A18.61,18.61,0,0,1,78.11,45.58Z"/><path class="cls-4" d="M78.55,53.06a25.47,25.47,0,0,1,2.17,5.1c.65,2.44.54,4.72.81,5.1a11.5,11.5,0,0,1,1.57,4.55c.11,1.9-.22,5.75.05,6.13A7.66,7.66,0,0,1,84.4,78.6c0,2.87.16,7.75.05,8.35s-1.08,1.84-.6,2.28,6.61,6.5,6.72,7a3.36,3.36,0,0,0,1,1.68c.49.38,4.34,4.23,6.67,5.91s5.31,3,4.93,3.47-7.37-2.93-10-5.2-4.82-3.52-5.91-4.66-5.37-5.69-5.53-7.59-1.46-14.47-1-15.5.49-4-.43-6.34a6.85,6.85,0,0,0-1.84-3s-2.82-1.14-2.17-5.2A20.18,20.18,0,0,1,78.55,53.06Z"/><path class="cls-2" d="M107.68,25.89c-.06-2.3-1.47-6-3.39-9.09a23.8,23.8,0,0,0-1.81-2.52c1.66,3.2,4,8.36,4.31,12.25.38,5.14-3.12,10.09-4.22,11.5.54-.48,1.09-1,1.66-1.57C108.13,32.48,107.75,28.19,107.68,25.89Z"/><path class="cls-5" d="M89,51.57a33.75,33.75,0,0,1-4.19-3c1.68,2.21,3.8,4.53,5.64,4.72,3.76.38,17.58-5.73,19.26-6.18s5.52.52,6.23.65-1.88-1.69-2.34-1.95-3.7.06-4.93.13-5.78,2.21-6.43,2.47a10.37,10.37,0,0,1-3.83.13c-1.17-.19-6.82,2.66-7.53,2.79S90,50,89.8,49.48C89.8,49.48,90.8,52.58,89,51.57Z"/><path class="cls-2" d="M116,47.79c.41.08-.29-.51-1-1.06a15.62,15.62,0,0,0-3.81-.26c-3.18.17-4.43,1.5-6.4,2a5.12,5.12,0,0,1-2.47,0,7.84,7.84,0,0,1-2.3.24c-.53.42-1,1-1.55,1.38A16.41,16.41,0,0,1,91.63,52a9.35,9.35,0,0,0-3.1.5,4.23,4.23,0,0,0,1.93.84c3.76.38,17.58-5.73,19.26-6.18S115.25,47.66,116,47.79Z"/><path class="cls-2" d="M82.53,57.29a9.37,9.37,0,0,1,.47-3.4l-.95-.95a7.35,7.35,0,0,0-2.7-1.45c.76.05,1.52,1.79,2,2.33s.49,1.25.7,3.14a23.21,23.21,0,0,0,.69,3.12C82.67,59.19,82.61,58.09,82.53,57.29Z"/><path class="cls-5" d="M107.76,65.53a10.56,10.56,0,0,0-5.8,1.19c-.6.27-4.72-.22-5.69-.22s-2.22-.43-4.55-1.36L91.26,65a7.82,7.82,0,0,1,.44.68c.4.71-3.4.63-4.27.55a13.34,13.34,0,0,1-3.09-1.34c.7,1.46,2.39,2.28,6,3.36s7.32.27,10,.22,3.9-1.14,5.91-1.46,4.34.43,5.53.38S110.47,65.91,107.76,65.53Z"/><path class="cls-2" d="M111.85,67.36a16.29,16.29,0,0,0-5.59-1.06c-2,.11-2.45,1-2.57,1.47a13.63,13.63,0,0,1,2.56-.78c2-.33,4.34.43,5.53.38Z"/><path class="cls-2" d="M90.36,68.24c3.63,1.08,7.32.27,10,.22h.09A35.12,35.12,0,0,0,94.95,68a51,51,0,0,1-8.56-1.28A23.35,23.35,0,0,0,90.36,68.24Z"/><path class="cls-5" d="M98.22,103.8c-2.33-1.68-6.18-5.53-6.67-5.91a3.36,3.36,0,0,1-1-1.68c-.11-.49-6.23-6.56-6.72-7,0,0,3.86,4.24,3,4.9a4.56,4.56,0,0,1-2.18.42c1.06,1.26,2.11,2.38,2.58,2.87,1.08,1.14,3.31,2.39,5.91,4.66s9.59,5.64,10,5.2S100.55,105.48,98.22,103.8Z"/><path class="cls-6" d="M98.22,103.8c-.55-.4-1.19-.92-1.86-1.49-.19.49-.81.49-1.45.19s-4.61-4.39-6.07-5.42S83,91.77,82.39,90.63s-1.08-8.56-1.14-11.22.65-4.72.54-7.53a25.52,25.52,0,0,0-2.28-8.73,14.12,14.12,0,0,0-3.14-3.71c0,.1,0,.19-.06.29-.65,4.07,2.17,5.2,2.17,5.2a6.85,6.85,0,0,1,1.84,3c.92,2.39.92,5.31.43,6.34s.81,13.61,1,15.5,4.44,6.45,5.53,7.59,3.31,2.39,5.91,4.66,9.59,5.64,10,5.2S100.55,105.48,98.22,103.8Z"/><path class="cls-7" d="M70.61,34.91a1.68,1.68,0,0,1-1.79-1.79c.06-1.86-.13-5.31.45-6.4s-.13-2.94-.64-2.82-1.41,1.54-1.79,2.5-1,2.62-1.09,2.18a3.26,3.26,0,0,0-2.69-2.37c-2-.38-2.75-1.15-4.67,0s-9.79,10.43-10,11.2-.06,2.24-.9,2.37-2.82-3.91-4.35-4.48-5-2.18-5.76-2.18-1.34.13-.7-1,2.37-3.26,2.43-4.48-.45-5.89,2.18-10,7.55-9.73,7-9.35a77.15,77.15,0,0,0-5.89,6c-1.34,1.6-4.16,4.67-4,4.1s5.83-9,4.87-8.51A26.12,26.12,0,0,0,37,16.8c-1.92,3.14-3.33,6.79-3.39,9.09s-.45,6.59,3.46,10.56,7.3,5.76,9.15,5.63,8.45-6.34,10.63-8.64,3.71-4,4.23-3.91,1.79,1,1.79,1.47-.58,3.14.19,4.16A8.51,8.51,0,0,0,66.13,37Z"/><path class="cls-2" d="M45.58,40.93c2-.06,4.1-2.11,5-2.5a41.07,41.07,0,0,0,6.53-6,18.61,18.61,0,0,0,2.69-5c.06-.64.83.38,1.22.83a7.65,7.65,0,0,0,2.88,1c.7.13,1.34,2.3,1.66,3.26a25.2,25.2,0,0,0,2.32,3.66L66.13,37a8.51,8.51,0,0,1-3.07-1.86c-.77-1-.19-3.71-.19-4.16s-1.28-1.41-1.79-1.47-2,1.6-4.23,3.91S48.08,42,46.22,42.08c-1.17.08-3-.61-5.11-2.13A10.47,10.47,0,0,0,45.58,40.93Z"/><path class="cls-3" d="M46.22,42.08c-1.86.13-5.25-1.66-9.15-5.63s-3.52-8.26-3.46-10.56A18.43,18.43,0,0,1,35.77,19c-.16,2.53-.15,5.45-.11,6.92a7.56,7.56,0,0,0,2.17,4.47c-.44.67-.88,1.3-1.14,1.74-.64,1.09-.06,1,.7,1a3.42,3.42,0,0,1,.83.2,21,21,0,0,0,.25,2.23c.19.9,3.46,3.33,4.67,3.58a13.2,13.2,0,0,0,3.39-.1c.39.46.72.77,1,.74.43-.07.6-.49.69-1,.75-.16,3.27-.86,4.27-1.14C50,39.88,47.3,42,46.22,42.08Z"/><path class="cls-8" d="M64.48,40.52s-3.51-.78-4.93.65-7.85,7.79-8,8.31-.39,2-1.1,1.88-6.36-3-7.53-2.79A10.37,10.37,0,0,1,39,48.44c-.65-.26-5.19-2.4-6.43-2.47s-4.48-.39-4.93-.13-3.05,2.08-2.34,1.95,4.54-1.1,6.23-.65,15.5,6.56,19.26,6.18c3.49-.35,8-8.39,8.58-8.78A10.75,10.75,0,0,1,63,42.8l1.3-.19Z"/><path class="cls-9" d="M63.18,45.58a3,3,0,0,0-3,1.08c-1.08,1.46-3,3.52-2.87,5s.33,2.39,0,2.66a19,19,0,0,0-1.57,6.18c-.16,2.39-.05,4.23-.27,4.23s-3.52-.49-5.85.43S46,66.51,45,66.51s-5.1.49-5.69.22a10.56,10.56,0,0,0-5.8-1.19c-2.71.38-5.2,1.79-4,1.84s3.52-.7,5.53-.38S38.3,68.4,41,68.46s6.34.87,10-.22,5.31-1.9,6-3.36A38.51,38.51,0,0,0,59.28,57c.22-1.9.27-2.6.7-3.14s1.19-2.28,2-2.33S63,51.44,63,51.44a12.28,12.28,0,0,0,.49-4A18.61,18.61,0,0,0,63.18,45.58Z"/><path class="cls-9" d="M62.75,53.06a25.47,25.47,0,0,0-2.17,5.1c-.65,2.44-.54,4.72-.81,5.1a11.5,11.5,0,0,0-1.57,4.55c-.11,1.9.22,5.75-.05,6.13A7.66,7.66,0,0,0,56.9,78.6c0,2.87-.16,7.75-.05,8.35s1.08,1.84.6,2.28-6.61,6.5-6.72,7a3.36,3.36,0,0,1-1,1.68c-.49.38-4.34,4.23-6.67,5.91s-5.31,3-4.93,3.47,7.37-2.93,10-5.2S52.94,98.54,54,97.4s5.37-5.69,5.53-7.59,1.46-14.47,1-15.5S60,70.36,61,68a6.85,6.85,0,0,1,1.84-3s2.82-1.14,2.17-5.2A20.18,20.18,0,0,0,62.75,53.06Z"/><path class="cls-2" d="M33.61,25.89c.06-2.3,1.47-6,3.39-9.09a23.8,23.8,0,0,1,1.81-2.52c-1.66,3.2-4,8.36-4.31,12.25-.38,5.14,3.12,10.09,4.22,11.5-.54-.48-1.09-1-1.66-1.57C33.16,32.48,33.55,28.19,33.61,25.89Z"/><path class="cls-5" d="M52.29,51.57a33.75,33.75,0,0,0,4.19-3c-1.68,2.21-3.8,4.53-5.64,4.72-3.76.38-17.58-5.73-19.26-6.18s-5.52.52-6.23.65,1.88-1.69,2.34-1.95,3.7.06,4.93.13,5.78,2.21,6.43,2.47a10.37,10.37,0,0,0,3.83.13c1.17-.19,6.82,2.66,7.53,2.79s.91-1.36,1.1-1.88C51.5,49.48,50.5,52.58,52.29,51.57Z"/><path class="cls-2" d="M25.34,47.79c-.41.08.29-.51,1-1.06a15.62,15.62,0,0,1,3.81-.26c3.18.17,4.43,1.5,6.4,2a5.12,5.12,0,0,0,2.47,0,7.84,7.84,0,0,0,2.3.24c.53.42,1,1,1.55,1.38A16.41,16.41,0,0,0,49.66,52a9.35,9.35,0,0,1,3.1.5,4.23,4.23,0,0,1-1.93.84c-3.76.38-17.58-5.73-19.26-6.18S26.05,47.66,25.34,47.79Z"/><path class="cls-2" d="M58.77,57.29a9.37,9.37,0,0,0-.47-3.4l.95-.95a7.35,7.35,0,0,1,2.7-1.45c-.76.05-1.52,1.79-2,2.33s-.49,1.25-.7,3.14a23.21,23.21,0,0,1-.69,3.12C58.63,59.19,58.69,58.09,58.77,57.29Z"/><path class="cls-5" d="M33.53,65.53a10.56,10.56,0,0,1,5.8,1.19c.6.27,4.72-.22,5.69-.22s2.22-.43,4.55-1.36L50,65a7.82,7.82,0,0,0-.44.68c-.4.71,3.4.63,4.27.55A13.34,13.34,0,0,0,57,64.88c-.7,1.46-2.39,2.28-6,3.36s-7.32.27-10,.22-3.9-1.14-5.91-1.46-4.34.43-5.53.38S30.82,65.91,33.53,65.53Z"/><path class="cls-2" d="M29.45,67.36A16.29,16.29,0,0,1,35,66.31c2,.11,2.45,1,2.57,1.47A13.63,13.63,0,0,0,35.05,67c-2-.33-4.34.43-5.53.38Z"/><path class="cls-2" d="M50.93,68.24c-3.63,1.08-7.32.27-10,.22h-.09A35.12,35.12,0,0,1,46.35,68a51,51,0,0,0,8.56-1.28A23.35,23.35,0,0,1,50.93,68.24Z"/><path class="cls-5" d="M43.07,103.8c2.33-1.68,6.18-5.53,6.67-5.91a3.36,3.36,0,0,0,1-1.68c.11-.49,6.23-6.56,6.72-7,0,0-3.86,4.24-3,4.9a4.56,4.56,0,0,0,2.18.42C55.54,95.8,54.49,96.92,54,97.4c-1.08,1.14-3.31,2.39-5.91,4.66s-9.59,5.64-10,5.2S40.74,105.48,43.07,103.8Z"/><path class="cls-6" d="M43.07,103.8c.55-.4,1.19-.92,1.86-1.49.19.49.81.49,1.45.19s4.61-4.39,6.07-5.42,5.85-5.31,6.45-6.45S60,82.06,60,79.41s-.65-4.72-.54-7.53a25.52,25.52,0,0,1,2.28-8.73,14.12,14.12,0,0,1,3.14-3.71c0,.1,0,.19.06.29.65,4.07-2.17,5.2-2.17,5.2A6.85,6.85,0,0,0,61,68c-.92,2.39-.92,5.31-.43,6.34s-.81,13.61-1,15.5S55.11,96.27,54,97.4s-3.31,2.39-5.91,4.66-9.59,5.64-10,5.2S40.74,105.48,43.07,103.8Z"/><path class="cls-2" d="M78.61,50.63c-.44-1.15-6.24-1.38-7.77-1.43h-.37c-1.53,0-7.33.28-7.77,1.43-.51,1.32-.51,6,.45,6.77s4.31,1.35,7.41,1.37h.18c3.1,0,6.48-.64,7.41-1.37S79.11,51.95,78.61,50.63Z"/><path class="cls-10" d="M77.82,50.37c-.4-.94-5.63-1.14-7-1.17h-.34c-1.38,0-6.61.23-7,1.17s-.46,5,.4,5.57,3.89,1.11,6.68,1.13h.16c2.79,0,5.84-.53,6.68-1.13S78.28,51.46,77.82,50.37Z"/><path class="cls-11" d="M75.17,35.75c-.9-1.2-7.85-1.2-8.75,0C65.36,37.17,61.26,48.29,63,49.54a11.79,11.79,0,0,0,7.36,2.38l.23,0h.51l.25,0a11.78,11.78,0,0,0,7.34-2.38C80.33,48.29,76.24,37.17,75.17,35.75Z"/><path class="cls-12" d="M75.17,35.71c-.9-1.14-7.85-1.14-8.75,0-1.07,1.36-5.16,12-3.47,13.16a12.16,12.16,0,0,0,7.36,2.27l.23,0h.51l.25,0a12.15,12.15,0,0,0,7.34-2.27C80.33,47.68,76.24,37.07,75.17,35.71Z"/><path class="cls-10" d="M74.16,35.64c-.69-1.05-6-1.05-6.73,0-.82,1.25-4,11-2.67,12.12a8.39,8.39,0,0,0,5.66,2.09l.18,0H71l.19,0a8.39,8.39,0,0,0,5.65-2.09C78.14,46.66,75,36.89,74.16,35.64Z"/><path class="cls-13" d="M70.65,57.08s7,.42,7.67,1.61-.38,4.17-.38,4.17a2,2,0,0,1,1.46,2.33c-.38,1.84-1.9,3.47-1.63,3.63a3.87,3.87,0,0,1,1.68,3.52,6.19,6.19,0,0,1-1.41,4s1.41-.11,1.25,3.31-.65,4.66-1.46,5l-.81.33a11.44,11.44,0,0,1-.38,6A22.8,22.8,0,0,1,74,96.41s1.84,18.38-21.89,21.32c-20.43,2.53-38.5-19.25-38.65-30.64C13.31,78.17,15,71.4,19,69.86s4.13-.05,3.67.21c-1.06.59.76,3,2.87-1.52,1.31-2.8.49-5.1.81-4.72s2.55,4.44-1.63,8.08-7.32,5.64-7.26,5.8a17.33,17.33,0,0,1,2.33,7.59,55.85,55.85,0,0,1-.81,11,31.4,31.4,0,0,1,8.4,4.82c3.63,3.09,6.5,8.51,6.5,8.51A22.21,22.21,0,0,1,42.22,111a62.77,62.77,0,0,1,7.53,3.79s-.6-2,2.6-3.31,9.81-3.74,9.81-3.74A57,57,0,0,1,65,100.48a19.72,19.72,0,0,1,2.49-3.74s-3-4.77-3.47-8,.43-3.79.43-3.79a5,5,0,0,1-2.66-4.72c.05-3.52,1.41-4.12,1.41-4.12S61.36,74,61.74,71.7a4.07,4.07,0,0,1,2-3s-2-3.09-1.63-4.44,1.36-.87,1.36-.87-1.14-2.44-.65-4.17S70.65,57.08,70.65,57.08Z"/><path class="cls-14" d="M74.4,83.81a8.46,8.46,0,0,0-3.88,1,7.27,7.27,0,0,0-3.4-1.18A3.13,3.13,0,0,0,64.45,85s-.92.6-.43,3.79,3.47,8,3.47,8A19.72,19.72,0,0,0,65,100.48a57,57,0,0,0-2.82,7.26s-6.61,2.39-9.81,3.74-2.6,3.31-2.6,3.31A62.76,62.76,0,0,0,42.22,111a22.21,22.21,0,0,0-8.29-1.36s-2.87-5.42-6.5-8.51A31.4,31.4,0,0,0,19,96.31a55.84,55.84,0,0,0,.81-11,17.33,17.33,0,0,0-2.33-7.59c-.05-.16,3.09-2.17,7.26-5.8s2-7.7,1.63-8.08.5,1.92-.81,4.72c-2.11,4.51-3.94,2.11-2.87,1.52.47-.26.35-1.73-3.67-.21s-5.72,8.31-5.6,17.23c.16,11.39,18.23,33.16,38.65,30.64C75.82,114.8,74,96.41,74,96.41a22.81,22.81,0,0,0,2.66-5.53,11.44,11.44,0,0,0,.38-6A3.2,3.2,0,0,0,74.4,83.81Z"/><path class="cls-15" d="M65.47,58a10,10,0,0,0,5.11,1.68c2.73,0,4.65-1.74,4.18-1.68s-2.73.17-4.53.17S65.47,58,65.47,58Z"/><path class="cls-15" d="M64.48,63.71a9.1,9.1,0,0,0,6,2.21,8.37,8.37,0,0,0,5.69-2,56.18,56.18,0,0,1-6,.52A33.79,33.79,0,0,1,64.48,63.71Z"/><path class="cls-15" d="M64.87,69.06a11.32,11.32,0,0,0,5.75,1.49,10.7,10.7,0,0,0,5.6-1.44s-3.67,0-6.09,0Z"/><path class="cls-15" d="M64.92,76.3a18.86,18.86,0,0,0,5.4.59,25.19,25.19,0,0,0,6-.64,21.42,21.42,0,0,0-5.8-.89A18.24,18.24,0,0,0,64.92,76.3Z"/><path class="cls-12" d="M77.78,68.82c-.27-.16,1.25-1.79,1.63-3.63a2,2,0,0,0-1.46-2.33s1-3,.38-4.17c-.28-.51-1.75-.88-3.32-1.14a4.14,4.14,0,0,1,2,2.09c.57,1.72-1,3.91-.52,4.38a3,3,0,0,1,1.25,2.71c-.26,1.36-1.88,1.51-1.3,2A6.46,6.46,0,0,1,78,72.89a4.84,4.84,0,0,1-1.51,2.87,6.57,6.57,0,0,1,1.15,4.38c-.42,2.19-3.24,3.67-3.24,3.67s.58,9.33-.25,10.74-1.62,1.57-1.62,1.57a7.22,7.22,0,0,1,0,5.58,42.22,42.22,0,0,1-3,5.11S65.9,111.87,61,114s-8,1.83-11.27,2.24-5.22.94-7.62.1-4.49-1-7.25-3.29-3.13-3-4.54-3.6-6.47-3.44-8.4-6.94-2-5.66-2.9-6.17S15.71,94.07,14.93,89s-1.15-6.63-.1-7.88A10.06,10.06,0,0,1,17.33,79c.17-.11.41-.25.66-.39-.27-.52-.46-.84-.48-.89a3.9,3.9,0,0,1-1.85-.54,6.11,6.11,0,0,1-.94-1.61,38.43,38.43,0,0,0-1.28,11.53c.16,11.39,18.23,33.16,38.65,30.64C75.82,114.8,74,96.41,74,96.41a22.81,22.81,0,0,0,2.66-5.53,11.44,11.44,0,0,0,.38-6l.81-.33c.81-.33,1.3-1.57,1.46-5s-1.25-3.31-1.25-3.31a6.19,6.19,0,0,0,1.41-4A3.87,3.87,0,0,0,77.78,68.82Z"/><path class="cls-16" d="M74,96.41a22.81,22.81,0,0,0,2.66-5.53,11.44,11.44,0,0,0,.38-6l.81-.33c.81-.33,1.3-1.57,1.46-5s-1.25-3.31-1.25-3.31a6.19,6.19,0,0,0,1.41-4,3.87,3.87,0,0,0-1.68-3.52c-.27-.16,1.25-1.79,1.63-3.63a2,2,0,0,0-1.46-2.33s1-3,.38-4.17a2.46,2.46,0,0,0-1.4-.73,4.15,4.15,0,0,0,1.24-.55c1-.75,1-5.45.45-6.77a1.24,1.24,0,0,0-.75-.55c.27-.18.53-.35.78-.54,1.69-1.25-2.4-12.37-3.47-13.79-.47-.63-2.6-.92-4.65-.89V96.53s-1.49.63-1.25,3.21,1.33,4.77-.78,6.81-3.37,4.46-5.09,4.7a100.78,100.78,0,0,0-10.72,2.82c-1,.47-2.11,2-4.62,1.33s-12.91-3.05-13.46-3.84-.31-1.8-1.25-2.19-6-2.43-8.77-5.56A76.65,76.65,0,0,1,19,96.31s-3.52-5.49-3.76-9.56A18.73,18.73,0,0,1,16.67,79s.7-4.93,1.57-6.65A24,24,0,0,1,20,69.54c-.29.09-.6.19-1,.33-4.07,1.54-5.72,8.31-5.6,17.23.16,11.39,18.23,33.16,38.65,30.64C75.82,114.8,74,96.41,74,96.41Z"/></svg>