<svg id="bugs&#x6606;&#x866B;" xmlns="http://www.w3.org/2000/svg" viewbox="0 0 128 128" width="128" height="128"><defs><style>.cls-1{fill:#010101;stroke:none;}.cls-2{fill:#53342a;stroke:none;}.cls-3{fill:#ac6b41;stroke:none;}.cls-4{fill:#3e1e17;stroke:none;}.cls-5{fill:#4a2c24;stroke:none;}.cls-6{fill:#633f34;stroke:none;}.cls-7{fill:#542b1f;stroke:none;}.cls-8{fill:#513228;stroke:none;}.cls-9{fill:#ba7447;stroke:none;}.cls-10{fill:#603813;stroke:none;}.cls-11,.cls-17{fill:#231f20;stroke:none;}.cls-11{opacity:0.26;stroke:none;}.cls-12{fill:#3a1d0b;stroke:none;}.cls-13{fill:#391716;stroke:none;}.cls-14{fill:#55332e;stroke:none;}.cls-15{fill:#7f4d21;stroke:none;}.cls-16{fill:#925929;stroke:none;}.cls-18{fill:#484243;stroke:none;}.cls-19{fill:#3d3839;stroke:none;}</style></defs><title>bugs&#x6606;&#x866B;</title><path class="cls-1" d="M94.34,69.71a29.34,29.34,0,0,1-4.55-1C90,68,91,67,90.72,66.83s-1.6,1.29-1.92,1.45a.54.54,0,0,1-.24,0l-1.62-.52c0-.38,1.69-1.72,1.55-1.86s-2.54,1.15-3.26,1.29L85,67.15c0-.32,1.33-1.47,1.15-1.65s-1.49,1-2.28,1.26l-.56-.2c0-.52.95-1.52.65-1.65s-1.31.79-2.13,1.12l-.8-.29-.21-.06c0-.39.28-.89.12-1s-.88.49-1.26.86A8.78,8.78,0,0,0,76,66.3l.43,2.85.37-.74A3.89,3.89,0,0,1,80,66.94a13.36,13.36,0,0,1,3,.6c.27.62.26,1.59.51,1.62s.42-.92.8-1.25l.72.21c.34.57.45,1.66.75,1.63s.4-1.09.87-1.15l.24.07c.47.36.57,2,1,1.94s-.33-1.59.85-1.35c.8.16.93,2.78,1.4,2.81s0-1.5-.2-2.5a30.36,30.36,0,0,0,4,1c3.19.34,9.21.74,9.15,0S101.4,70.46,94.34,69.71Z"/><path class="cls-1" d="M76.79,115.37h0a4,4,0,0,1-.84-.84,3,3,0,0,1,.36-.17c.23-.1.39-.16.42-.28a.16.16,0,0,0,0-.14c-.1-.15-.36-.12-.89,0a2.56,2.56,0,0,1-.33.05l0,0-.41-.49c.13,0,.35-.09.49-.12.35-.08.47-.1.52-.18l0-.06v-.05c0-.12-.13-.14-.84-.24-.25,0-.53-.07-.71-.11l.23-.07c.34-.1.54-.15.51-.33s-.22-.15-.62-.14a4.06,4.06,0,0,1-.67,0l-.08-.1a2,2,0,0,1,.29-.16c.19-.09.32-.16.35-.27a.17.17,0,0,0,0-.14c-.08-.11-.25-.12-.62-.12a4,4,0,0,1-.56,0l-.21-.28h0l.1-.09c.1-.09.21-.19.18-.32s-.27-.2-.82-.08a4.27,4.27,0,0,0-1.69-.6H70.8l-.75,1.69.67-.41a1.72,1.72,0,0,1,1.51.22,6.74,6.74,0,0,1,1,.93,2.56,2.56,0,0,1-.12.34c-.09.22-.16.4,0,.5s.28,0,.44-.11a1.42,1.42,0,0,1,.24-.14l.15.17a2.39,2.39,0,0,1-.08.36c-.07.25-.13.47,0,.55s.28,0,.41-.12a.76.76,0,0,1,.22-.12l0,0a1.42,1.42,0,0,1-.09.46c-.08.27-.15.53,0,.61s.27-.1.35-.23.11-.19.17-.2h0s.08,0,.13.08,0,.52-.11.78-.18.6,0,.71a.17.17,0,0,0,.15,0c.12,0,.25-.22.52-.94.6.68.32.39.58.6C77,116.42,78.23,116.51,76.79,115.37Z"/><path class="cls-1" d="M102.86,105c-2.09-2-7.77-4.92-10.85-8,.82-.2,2.44,0,2.35-.36s-3.39-.52-3.82-1.8c.84-.08,2.69.42,2.62,0S91,94,90,93.46q-.13-.41-.26-.85c.75-.24,2.71.17,2.58-.25s-2.19-.89-3-1.41l-.17-.67c.58-.28,2.23,0,2.2-.35s-1.67-.44-2.46-.74l-.15-.65c.6-.28,2.06-.19,2.06-.48s-1.54-.57-2.4-1l-.21-.85c.55-.16,1.57-.08,1.57-.47s-1.3-.65-1.88-.73c-.78-2.91-1.72-5.38-3.23-6.08a6.3,6.3,0,0,0-1-.36c-.21-.76.31-1.57-.06-1.69s-.93.87-1.27,1.48a7.53,7.53,0,0,0-4.68,1.53s-.48,4.77.21,3.58c.56-1,1.64-1,3-1.32.35.45.72,1,1,.93s-.06-.7-.15-1.15l.17-.05a6.44,6.44,0,0,0,.66-.26c.57.44,1.14,1.37,1.44,1.22s-.25-1.1-.6-1.68c.42-.25.61-.29,1.2.25.42.39,1.14,3.12,2.09,6.32-.34.83-1.54,1.07-1.13,1.34s1.21-.46,1.6-.08c.8,1-.66,3.1-.32,3.23s.69-.51,1.12-.6c1.64.2-.64,3.43-.12,3.75s.88-1.51,1.48-1.16c.84.52-.4,3.34-.08,3.39s.52-.48.85-.79c.63-.13.91.31.77,1.15-.19,1-.79,2.28-.38,2.28s.9-.88,1.18-1.45c3.2,3,8.46,5.57,10.14,6.53s3.07,4,3.51,3.76S105.05,107.07,102.86,105Z"/><path class="cls-1" d="M86.12,40.71c-.16-.08-.56.77-1,1.82,0-.48-.12-1-.22-.93a8.41,8.41,0,0,0-.25,2l-.31.74c0-.52-.06-1.23-.21-1.17A5.29,5.29,0,0,0,84.05,45c-.11.26-.11.28-.22.54-.06-.62-.22-1.23-.34-1.2a6.6,6.6,0,0,0,0,2l-.32.69c0-.39-.16-1.16-.24-1.1a6.84,6.84,0,0,0,0,1.67c-.09.18-.26.75-.35.92-.22,0-.45-2.15-.68-2.1s0,2-.14,3.19a2.73,2.73,0,0,1-.4.44l-.39.34c-.1-.72-.14-2.67-.36-2.67s-.27,2-.44,3.17c-.21.15-.81.69-1,.85,0-.5.1-1.6-.1-1.6s-.36,1.42-.81,2.23l-.89.65c-.06-.32.13-1.72-.12-1.79s-.49,1.47-.81,2.45l-.64.45a3.31,3.31,0,0,1-.51-.78C75.05,53,75,54,75,54.58l-1,.66.4.71s7.59-4.43,8.3-5.85S86.48,40.89,86.12,40.71Z"/><path class="cls-1" d="M37.88,69.71a29.34,29.34,0,0,0,4.55-1c-.17-.66-1.25-1.71-.93-1.85s1.6,1.29,1.92,1.45a.54.54,0,0,0,.24,0l1.62-.52c0-.38-1.69-1.72-1.55-1.86s2.54,1.15,3.26,1.29l.19-.07c0-.32-1.33-1.47-1.15-1.65s1.49,1,2.28,1.26l.56-.2c0-.52-.95-1.52-.65-1.65s1.31.79,2.13,1.12l.8-.29.21-.06c0-.39-.28-.89-.12-1s.88.49,1.26.86a8.78,8.78,0,0,1,3.68.81l-.43,2.85-.37-.74a3.89,3.89,0,0,0-3.15-1.47,13.36,13.36,0,0,0-3,.6c-.27.62-.26,1.59-.51,1.62s-.42-.92-.8-1.25l-.72.21c-.34.57-.45,1.66-.75,1.63s-.4-1.09-.87-1.15l-.24.07c-.47.36-.57,2-1,1.94s.33-1.59-.85-1.35c-.8.16-.93,2.78-1.4,2.81s0-1.5.2-2.5a30.36,30.36,0,0,1-4,1c-3.19.34-9.21.74-9.15,0S30.82,70.46,37.88,69.71Z"/><path class="cls-1" d="M55.43,115.37h0a4,4,0,0,0,.84-.84,3,3,0,0,0-.36-.17c-.23-.1-.39-.16-.42-.28a.16.16,0,0,1,0-.14c.1-.15.36-.12.89,0a2.56,2.56,0,0,0,.33.05l0,0,.41-.49c-.13,0-.35-.09-.49-.12-.35-.08-.47-.1-.52-.18l0-.06v-.05c0-.12.13-.14.84-.24.25,0,.53-.07.71-.11l-.23-.07c-.34-.1-.54-.15-.51-.33s.22-.15.62-.14a4.06,4.06,0,0,0,.67,0l.08-.1a2,2,0,0,0-.29-.16c-.19-.09-.32-.16-.35-.27a.17.17,0,0,1,0-.14c.08-.11.25-.12.62-.12a4,4,0,0,0,.56,0l.21-.28h0L59,111c-.1-.09-.21-.19-.18-.32s.27-.2.82-.08a4.27,4.27,0,0,1,1.69-.6h.09l.75,1.69-.67-.41a1.72,1.72,0,0,0-1.51.22,6.74,6.74,0,0,0-1,.93,2.56,2.56,0,0,0,.12.34c.09.22.16.4,0,.5s-.28,0-.44-.11a1.42,1.42,0,0,0-.24-.14l-.15.17a2.39,2.39,0,0,0,.08.36c.07.25.13.47,0,.55s-.28,0-.41-.12a.76.76,0,0,0-.22-.12l0,0a1.42,1.42,0,0,0,.09.46c.08.27.15.53,0,.61s-.27-.1-.35-.23-.11-.19-.17-.2h0s-.08,0-.13.08,0,.52.11.78.18.6,0,.71a.17.17,0,0,1-.15,0c-.12,0-.25-.22-.52-.94-.6.68-.32.39-.58.6C55.19,116.42,54,116.51,55.43,115.37Z"/><path class="cls-1" d="M29.36,105c2.09-2,7.77-4.92,10.85-8-.82-.2-2.44,0-2.35-.36s3.39-.52,3.82-1.8c-.84-.08-2.69.42-2.62,0s2.14-.86,3.16-1.38q.13-.41.26-.85c-.75-.24-2.71.17-2.58-.25s2.19-.89,3-1.41l.17-.67c-.58-.28-2.23,0-2.2-.35s1.67-.44,2.46-.74l.15-.65c-.6-.28-2.06-.19-2.06-.48s1.54-.57,2.4-1l.21-.85c-.55-.16-1.57-.08-1.57-.47s1.3-.65,1.88-.73c.78-2.91,1.72-5.38,3.23-6.08a6.3,6.3,0,0,1,1-.36c.21-.76-.31-1.57.06-1.69s.93.87,1.27,1.48a7.53,7.53,0,0,1,4.68,1.53s.48,4.77-.21,3.58c-.56-1-1.64-1-3-1.32-.35.45-.72,1-1,.93s.06-.7.15-1.15l-.17-.05a6.44,6.44,0,0,1-.66-.26c-.57.44-1.14,1.37-1.44,1.22s.25-1.1.6-1.68c-.42-.25-.61-.29-1.2.25-.42.39-1.14,3.12-2.09,6.32.34.83,1.54,1.07,1.13,1.34s-1.21-.46-1.6-.08c-.8,1,.66,3.1.32,3.23s-.69-.51-1.12-.6c-1.64.2.64,3.43.12,3.75s-.88-1.51-1.48-1.16c-.84.52.4,3.34.08,3.39s-.52-.48-.85-.79c-.63-.13-.91.31-.77,1.15.19,1,.79,2.28.38,2.28s-.9-.88-1.18-1.45c-3.2,3-8.46,5.57-10.14,6.53s-3.07,4-3.51,3.76S27.17,107.07,29.36,105Z"/><path class="cls-1" d="M46.1,40.71c.16-.08.56.77,1,1.82,0-.48.12-1,.22-.93a8.41,8.41,0,0,1,.25,2l.31.74c0-.52.06-1.23.21-1.17A5.29,5.29,0,0,1,48.17,45c.11.26.11.28.22.54.06-.62.22-1.23.34-1.2a6.6,6.6,0,0,1,0,2l.32.69c0-.39.16-1.16.24-1.1a6.84,6.84,0,0,1,0,1.67c.09.18.26.75.35.92.22,0,.45-2.15.68-2.1s0,2,.14,3.19a2.73,2.73,0,0,0,.4.44l.39.34c.1-.72.14-2.67.36-2.67s.27,2,.44,3.17c.21.15.81.69,1,.85,0-.5-.1-1.6.1-1.6s.36,1.42.81,2.23l.89.65c.06-.32-.13-1.72.12-1.79s.49,1.47.81,2.45l.64.45a3.31,3.31,0,0,0,.51-.78c.13-.27.17.68.19,1.27l1,.66-.4.71s-7.59-4.43-8.3-5.85S45.74,40.89,46.1,40.71Z"/><path class="cls-2" d="M78.15,81.4c0,20.06-5.45,36.87-12.16,36.87S53.83,101.46,53.83,81.4,59.27,56.7,66,56.7,78.15,61.34,78.15,81.4Z"/><path class="cls-3" d="M67.46,118c6-2.25,10.69-18,10.69-36.59,0-13.58-2.5-20.09-6.2-22.88-1,1.84-2.75,5.06-4.28,8.26C65.35,71.63,63.21,81,63.21,81S63.79,108,67.46,118Z"/><path class="cls-4" d="M63.21,81s.13,6,.65,13.43c3-3,5.64-5.84,6.79-7.25,2.08-2.56,5.15-10.88,6.89-15.93-1-6.92-3-10.79-5.59-12.77-1,1.84-2.75,5.06-4.28,8.26C65.35,71.63,63.21,81,63.21,81Z"/><path class="cls-5" d="M71.75,93.74A40.91,40.91,0,0,0,77.27,79a45.72,45.72,0,0,0,.6-4.75A43.53,43.53,0,0,0,76.6,66.5a40,40,0,0,1-2.43,8.14c-2,4.36-6.89,11.93-6.89,11.93Z"/><path class="cls-6" d="M72.33,92.57c-3.2-22.4-11.87-31.89-13.42-33.05-3.07,3.23-5.08,9.72-5.08,21.88,0,20.06,5.45,36.87,12.16,36.87a5.47,5.47,0,0,0,3.85-1.93C72.05,111.15,73.76,102.6,72.33,92.57Z"/><path class="cls-7" d="M70.92,84.87C67.1,68,60.26,60.54,58.9,59.52a14.72,14.72,0,0,0-3.11,5.6c1.6,6.17,5.4,18.82,10.13,21.14C68.65,87.61,70.12,86.53,70.92,84.87Z"/><path class="cls-8" d="M70.64,114.24a47.64,47.64,0,0,0,1.69-21.67c0-.2-.06-.38-.09-.58-1.1,3.9-3,5.75-5.94,5-5.84-1.44-10.11-20.46-11.52-27.85a67.32,67.32,0,0,0-.95,12.23,98.17,98.17,0,0,0,1.76,19,54.34,54.34,0,0,0,8.18,9.6C66.45,112.5,68.71,113.8,70.64,114.24Z"/><path class="cls-9" d="M72.55,94.37q.1.89.16,1.76c-2,4-6.35,7.35-11.44-.55-5-7.71-6.41-18.33-6.82-24.43a74.28,74.28,0,0,0-.62,10.25c0,20.06,5.45,36.87,12.16,36.87a5.47,5.47,0,0,0,3.85-1.93C71.92,111.47,73.55,103.62,72.55,94.37Z"/><path class="cls-10" d="M56.94,87.29a33.55,33.55,0,0,0-.17,10.09c.51,4.3,1.37,9.09,2,12.38,0,0-1.84-12.26-1.77-15.89S56.94,87.29,56.94,87.29Z"/><path class="cls-10" d="M60.24,94.21a34.12,34.12,0,0,0,.42,10.54c1.1,6.48,2.3,10.61,3.62,12.85A134.29,134.29,0,0,1,61,103.36C60.32,98.35,60.24,94.21,60.24,94.21Z"/><path class="cls-10" d="M64.08,99.16c.32,2.66,1.43,11.26,2.94,14.19A5.35,5.35,0,0,0,69.46,116l0,0s-2.45-2.7-3.56-8.55S64.08,99.16,64.08,99.16Z"/><path class="cls-10" d="M67.91,100.62h-.12A52,52,0,0,0,70,106.24a14.67,14.67,0,0,0,1.83,2.47s-.72-1.36-2-4.16A38.17,38.17,0,0,0,67.91,100.62Z"/><path class="cls-10" d="M75.36,87.33a47,47,0,0,1-.2,14.5c-1.21,6.86-2.57,8.72-2.57,8.72A66.12,66.12,0,0,0,74.9,98.23C75.45,91.81,75.36,87.33,75.36,87.33Z"/><path class="cls-11" d="M60.2,113.78c1.72,2.86,3.69,4.49,5.79,4.49,6.72,0,12.16-16.82,12.16-36.87,0-16.79-3.82-22.77-9-24.28a24,24,0,0,0,1.16,3.5,43.1,43.1,0,0,1,4.76,23.44C73.1,112,61.52,114,60.2,113.78Z"/><path class="cls-12" d="M68.57,48.28C69.79,39.08,78,32,83.85,25.45c4.92-5.54,10.06-10.81,13.36-17.54.21-.43-.43-.81-.65-.38-4.07,8.3-11,14.89-17.11,21.74-4.95,5.59-10.6,11.25-11.64,19-.06.48.69.47.75,0Z"/><path class="cls-12" d="M64.57,48.28c-1-7.76-6.7-13.42-11.64-19-6.06-6.86-13-13.44-17.11-21.74-.21-.43-.86-.05-.65.38,3.3,6.73,8.44,12,13.36,17.54C54.4,32,62.6,39.09,63.82,48.28c.06.47.81.48.75,0Z"/><ellipse class="cls-13" cx="66.09" cy="50.69" rx="4.4" ry="3.2"/><path class="cls-14" d="M61.69,50.69a2.37,2.37,0,0,0,.13.74,9.82,9.82,0,0,0,4.73-.59c1.7-.77.9-2.49.4-3.29a6,6,0,0,0-.86-.06C63.66,47.5,61.69,48.93,61.69,50.69Z"/><path class="cls-10" d="M75.12,57.32s-.19-5.6-9.14-5.6-9.16,5.54-9.16,5.54c-.39,2.67.53,4.24,2.09,5a17.55,17.55,0,0,0,7.38,1.37,17.2,17.2,0,0,0,6.75-1.15C74.65,61.75,75.58,60,75.12,57.32Z"/><path class="cls-15" d="M71.89,57.3s-.14-4.41-6.78-4.41-6.8,4.37-6.8,4.37c-.29,2.11.4,3.34,1.55,3.91a12.36,12.36,0,0,0,5.48,1.08,12.1,12.1,0,0,0,5-.91C71.54,60.8,72.23,59.44,71.89,57.3Z"/><path class="cls-16" d="M64.85,56.4a2.35,2.35,0,0,0-4.69,0c-.1,1.06.14,1.68.54,2a3.17,3.17,0,0,0,1.89.54,3.07,3.07,0,0,0,1.73-.46C64.73,58.15,65,57.47,64.85,56.4Z"/><path class="cls-17" d="M63,50.37c-.06.55-.38.95-.73.9s-.58-.54-.53-1.08.38-.95.73-.9S63,49.82,63,50.37Z"/><path class="cls-18" d="M62.49,50c0,.21-.17.35-.32.33a.36.36,0,0,1-.25-.41c0-.21.17-.35.32-.33A.36.36,0,0,1,62.49,50Z"/><path class="cls-17" d="M69.23,50.37c.06.55.38.95.73.9s.58-.54.53-1.08-.38-.95-.73-.9S69.17,49.82,69.23,50.37Z"/><path class="cls-19" d="M69.7,50c0,.21.17.35.32.33a.36.36,0,0,0,.25-.41c0-.21-.17-.35-.32-.33A.36.36,0,0,0,69.7,50Z"/><path class="cls-4" d="M58.06,69.47s4.62,13.94,7.68,15.4c2.46,1.17,3.59-.26,3.59-.26s-1.55,1-4-1C63.27,82,58.06,69.47,58.06,69.47Z"/><path class="cls-5" d="M57.93,80.42s4.62,13.94,7.68,15.4c2.46,1.17,3.59-.26,3.59-.26s-1.55,1-4-1C63.14,92.93,57.93,80.42,57.93,80.42Z"/><path class="cls-4" d="M63.51,79.33s1.34,3.41,2.87,4.22a3.36,3.36,0,0,0,2.62.38,9.61,9.61,0,0,1-2.74-1.31A15.72,15.72,0,0,1,63.51,79.33Z"/><path class="cls-5" d="M63.57,90.35s1.34,3.41,2.87,4.22a3.36,3.36,0,0,0,2.62.38,9.61,9.61,0,0,1-2.74-1.31A15.72,15.72,0,0,1,63.57,90.35Z"/></svg>