<svg id="Animals&#x52A8;&#x7269;" xmlns="http://www.w3.org/2000/svg" xmlns:xlink="http://www.w3.org/1999/xlink" viewbox="0 0 128 128" width="128" height="128"><defs><style>.cls-1{fill:none;stroke:none;}.cls-2{fill:#ee9a92;stroke:none;}.cls-3{fill:#e66c62;stroke:none;}.cls-4{clip-path:url(#clip-path);stroke:none;}.cls-5{fill:#ed8e86;stroke:none;}.cls-6{fill:#9b7352;stroke:none;}.cls-7{fill:#a77f5c;stroke:none;}.cls-8{fill:#70522e;stroke:none;}.cls-9{fill:#231f20;opacity:0.18;stroke:none;}.cls-10{fill:#eb8981;stroke:none;}.cls-11{fill:#a57c59;stroke:none;}.cls-12{fill:#d0cfcc;stroke:none;}.cls-13{fill:#0e3249;stroke:none;}.cls-14{fill:#081c27;stroke:none;}.cls-15{fill:#fff;stroke:none;}.cls-16{fill:#e4877f;stroke:none;}</style><clippath id="clip-path"><path class="cls-1" d="M111.1,75.23s5.47,2.8,5.21,7.36-6.58,16.35-23.57,18.23-31.19-1-39.27-2.87S42.07,94.7,41.74,95.8s-.07,1.89,18.23,6.12,37.17,5.36,49.3-2c11.66-7,14.87-15.19,12.11-23.12-1.63-4.69-9.31-8.07-9.31-8.07Z"/></clippath></defs><title>animals&#x52A8;&#x7269;</title><path class="cls-2" d="M111.1,75.23s5.47,2.8,5.21,7.36-6.58,16.35-23.57,18.23-31.19-1-39.27-2.87S42.07,94.7,41.74,95.8s-.07,1.89,18.23,6.12,37.17,5.36,49.3-2c11.66-7,14.87-15.19,12.11-23.12-1.63-4.69-9.31-8.07-9.31-8.07Z"/><path class="cls-3" d="M69.61,102.9a128,128,0,0,1-27.93-6.7c.07,1,2.25,2,18.29,5.72,18.3,4.23,37.17,5.36,49.3-2,6.74-4.07,10.64-8.51,12.21-13.07a48.49,48.49,0,0,1-13.06,12.55C100.87,104.53,86.41,105.05,69.61,102.9Z"/><g class="cls-4"><path class="cls-5" d="M111.88,76.79a.27.27,0,0,1-.21-.43l5-6.38a.27.27,0,1,1,.42.33l-5,6.38A.27.27,0,0,1,111.88,76.79Z"/><path class="cls-5" d="M114.35,79.59a.27.27,0,0,1-.16-.48l6.64-4.82a.27.27,0,1,1,.31.43l-6.64,4.82A.27.27,0,0,1,114.35,79.59Z"/><path class="cls-5" d="M115.52,81.87a.27.27,0,0,1,0-.53l7.88-1.11a.27.27,0,0,1,.07.53l-7.88,1.11Z"/><path class="cls-5" d="M113.11,78.36a.27.27,0,0,1-.18-.46l5.86-5.54a.27.27,0,0,1,.37.39l-5.86,5.54A.27.27,0,0,1,113.11,78.36Z"/><path class="cls-5" d="M122.36,87.28l-.09,0-7.49-2.73A.27.27,0,1,1,115,84l7.49,2.73a.27.27,0,0,1-.09.52Z"/><path class="cls-5" d="M123.14,84h0l-7.55-.59a.27.27,0,0,1,0-.53l7.55.59a.27.27,0,0,1,0,.53Z"/><path class="cls-5" d="M115.26,80.38a.27.27,0,0,1-.09-.52l7-2.47a.27.27,0,1,1,.18.5l-7,2.47Z"/><path class="cls-5" d="M119.63,92.1a.27.27,0,0,1-.16,0l-5.93-4.23a.27.27,0,1,1,.31-.43l5.93,4.23a.27.27,0,0,1-.16.48Z"/><path class="cls-5" d="M116.11,95.87a.27.27,0,0,1-.19-.08l-5.08-5.14a.27.27,0,1,1,.38-.38l5.08,5.14a.27.27,0,0,1-.19.45Z"/><path class="cls-5" d="M120.86,89.69l-.12,0-6.58-3.26a.27.27,0,0,1,.24-.48L121,89.18a.27.27,0,0,1-.12.51Z"/><path class="cls-5" d="M117.74,94.05a.27.27,0,0,1-.18-.07l-4.88-4.36a.27.27,0,1,1,.36-.4l4.88,4.36a.27.27,0,0,1-.18.47Z"/><path class="cls-5" d="M114.09,97.57a.27.27,0,0,1-.2-.09l-4.17-4.88a.27.27,0,0,1,.41-.35l4.17,4.88a.27.27,0,0,1,0,.38A.26.26,0,0,1,114.09,97.57Z"/><path class="cls-5" d="M112.27,99.52a.27.27,0,0,1-.22-.11l-3.65-5.14a.27.27,0,0,1,.44-.31l3.65,5.14a.27.27,0,0,1-.22.42Z"/><path class="cls-5" d="M110.18,100.76a.27.27,0,0,1-.23-.12l-3.19-5a.27.27,0,0,1,.45-.29l3.19,5a.27.27,0,0,1-.23.41Z"/><path class="cls-5" d="M107.9,102.26a.27.27,0,0,1-.24-.14l-2.8-5.4a.27.27,0,0,1,.47-.25l2.8,5.4a.27.27,0,0,1-.24.39Z"/><path class="cls-5" d="M105.49,103.3a.27.27,0,0,1-.25-.17l-2.08-5.4a.27.27,0,0,1,.5-.19l2.08,5.4a.27.27,0,0,1-.15.35Z"/><path class="cls-5" d="M103.08,104.14a.27.27,0,0,1-.25-.19l-1.69-5.47a.27.27,0,0,1,.51-.16l1.69,5.47a.27.27,0,0,1-.18.33Z"/><path class="cls-5" d="M100.94,105.19a.27.27,0,0,1-.26-.2l-1.5-6.06a.27.27,0,1,1,.52-.13l1.5,6.06a.27.27,0,0,1-.19.32Z"/><path class="cls-5" d="M98.27,105.84a.27.27,0,0,1-.26-.22l-1.11-5.8a.27.27,0,1,1,.52-.1l1.11,5.8a.27.27,0,0,1-.21.31Z"/><path class="cls-5" d="M95.79,105.84a.27.27,0,0,1-.26-.23l-.78-5.54a.27.27,0,0,1,.53-.08l.78,5.54a.27.27,0,0,1-.23.3Z"/><path class="cls-5" d="M93.38,106.16a.27.27,0,0,1-.27-.24l-.52-5.73a.27.27,0,0,1,.24-.29.28.28,0,0,1,.29.24l.52,5.73a.27.27,0,0,1-.24.29Z"/><path class="cls-5" d="M91.1,106.42a.27.27,0,0,1-.27-.25l-.39-5.8a.27.27,0,1,1,.53,0l.39,5.8a.27.27,0,0,1-.25.28Z"/><path class="cls-5" d="M88.71,106.67a.27.27,0,0,1-.27-.25l-.36-5.67a.27.27,0,0,1,.25-.28.26.26,0,0,1,.28.25l.36,5.67a.27.27,0,0,1-.25.28Z"/><path class="cls-5" d="M86,106.47a.27.27,0,0,1-.27-.27v-5.31a.27.27,0,1,1,.53,0v5.31A.27.27,0,0,1,86,106.47Z"/><path class="cls-5" d="M83.68,106.27h0a.27.27,0,0,1-.26-.28l.2-4.91a.26.26,0,0,1,.28-.26.27.27,0,0,1,.26.28l-.2,4.91A.27.27,0,0,1,83.68,106.27Z"/><path class="cls-5" d="M81.47,105.87h0a.27.27,0,0,1-.26-.27l.12-4.42a.25.25,0,0,1,.27-.26.27.27,0,0,1,.26.27l-.12,4.42A.27.27,0,0,1,81.47,105.87Z"/><path class="cls-5" d="M79.05,105.82h0a.27.27,0,0,1-.25-.29l.32-4.34a.26.26,0,0,1,.29-.25.27.27,0,0,1,.25.29l-.32,4.34A.27.27,0,0,1,79.05,105.82Z"/><path class="cls-5" d="M76.48,105.26h0a.27.27,0,0,1-.24-.29l.36-4a.28.28,0,0,1,.29-.24.27.27,0,0,1,.24.29l-.36,4A.27.27,0,0,1,76.48,105.26Z"/><path class="cls-5" d="M74.23,105.3h0A.27.27,0,0,1,74,105l.56-4.3a.27.27,0,0,1,.53.07l-.56,4.3A.27.27,0,0,1,74.23,105.3Z"/><path class="cls-5" d="M71.69,105.14h0a.27.27,0,0,1-.22-.31l.68-4.3a.27.27,0,0,1,.53.08l-.68,4.3A.27.27,0,0,1,71.69,105.14Z"/><path class="cls-5" d="M69.52,104.38h0a.27.27,0,0,1-.21-.31l.68-3.74a.27.27,0,1,1,.53.1l-.68,3.74A.27.27,0,0,1,69.52,104.38Z"/><path class="cls-5" d="M67.31,104h0a.27.27,0,0,1-.22-.31l.56-3.54a.27.27,0,0,1,.53.08l-.56,3.54A.27.27,0,0,1,67.31,104Z"/><path class="cls-5" d="M64.85,103.85h0a.27.27,0,0,1-.23-.3L65,99.77a.27.27,0,0,1,.3-.23.27.27,0,0,1,.23.3l-.44,3.78A.27.27,0,0,1,64.85,103.85Z"/><path class="cls-5" d="M62.48,103.29h-.06a.27.27,0,0,1-.2-.32l.8-3.58a.27.27,0,1,1,.52.12l-.8,3.58A.27.27,0,0,1,62.48,103.29Z"/><path class="cls-5" d="M60.23,102.89h-.06a.27.27,0,0,1-.2-.32L60.73,99a.27.27,0,1,1,.52.11l-.76,3.54A.27.27,0,0,1,60.23,102.89Z"/><path class="cls-5" d="M57.89,102.41h-.07a.27.27,0,0,1-.19-.33l1-3.5a.27.27,0,1,1,.51.14l-1,3.5A.27.27,0,0,1,57.89,102.41Z"/><path class="cls-5" d="M55.68,101.8h-.07a.27.27,0,0,1-.19-.33l.84-3.06a.27.27,0,1,1,.51.14l-.84,3.06A.27.27,0,0,1,55.68,101.8Z"/><path class="cls-5" d="M53.51,101.24h0a.27.27,0,0,1-.23-.3l.4-3.18a.26.26,0,0,1,.3-.23.27.27,0,0,1,.23.3l-.4,3.18A.27.27,0,0,1,53.51,101.24Z"/><path class="cls-5" d="M51.06,100.72H51a.27.27,0,0,1-.19-.33L51.72,97a.27.27,0,0,1,.51.14l-.93,3.38A.27.27,0,0,1,51.06,100.72Z"/><path class="cls-5" d="M48.84,100h-.07a.27.27,0,0,1-.19-.33l.8-3.1a.27.27,0,0,1,.52.13l-.8,3.1A.27.27,0,0,1,48.84,100Z"/><path class="cls-5" d="M46.87,98.91h-.08a.27.27,0,0,1-.18-.33l.84-2.7A.27.27,0,0,1,48,96l-.84,2.7A.27.27,0,0,1,46.87,98.91Z"/><path class="cls-5" d="M44.5,98.54h-.07a.27.27,0,0,1-.18-.33l.84-2.94a.26.26,0,0,1,.33-.18.27.27,0,0,1,.18.33l-.84,2.94A.27.27,0,0,1,44.5,98.54Z"/><path class="cls-5" d="M42.57,97.54h-.05a.27.27,0,0,1-.21-.32l.4-1.93a.26.26,0,0,1,.32-.21.27.27,0,0,1,.21.32l-.4,1.93A.27.27,0,0,1,42.57,97.54Z"/></g><path class="cls-6" d="M37.71,38.35s.15-2.94-1.22-4.62-3.91-3.35-5.73-2.79S27.1,36.83,26.7,38.1A26.75,26.75,0,0,0,26,41.45s-5.94,4.21-6.85,5a13.64,13.64,0,0,1-3.4,2.18,8,8,0,0,0-3.7,4,36.31,36.31,0,0,1-4.11,6.55c-.91,1-2.59,2.08-2.59,3S5.59,64.58,6.61,65a4.09,4.09,0,0,0,1.78.41,3.71,3.71,0,0,0,2.74,2.69,7.67,7.67,0,0,0,4.52,0,4.53,4.53,0,0,0,3.81.91c2.33-.46,3-1.93,5.63-2.28a15.91,15.91,0,0,0,6.29-2.28c1.17-.81,2.59-1.83,4.06-1.17s2,1.37,3.6,4.87,3.09,6.19,2.18,8.93S38.67,84,38.67,84a4.27,4.27,0,0,1-2.33,1.12c-1.22.05-2.08-.76-2.69-.71s-.91.66-2,1a11.64,11.64,0,0,0-2.44.76c-.51.36-1,1.12-.15.91s1-.66,1.52-.36a13.41,13.41,0,0,0,4.72.25,31.64,31.64,0,0,1,4.57.1c1.27.05,3.09-.05,3.3-.36s-.05-1.42-.05-1.42,2.69-3.45,6.14-4.16a38.24,38.24,0,0,0,8.07-2.69,27.54,27.54,0,0,1,3.45-1.27,28.56,28.56,0,0,0,6.7,3.7,51.39,51.39,0,0,0,7.2,1.67,3.48,3.48,0,0,1-2.08.41c-1.32-.1-2.38-.56-3.7-.15s-3.55.71-4.26,1.27-1.67,1.27-1.32,1.27a6.36,6.36,0,0,0,2.18-.05,1.86,1.86,0,0,1,1.73-.3,6,6,0,0,0,2.59.46A6.33,6.33,0,0,1,72,85.44a8.68,8.68,0,0,0,3.3.41,25.36,25.36,0,0,1,5.68-.56c3,0,15.17.25,17.66-.05s7.51-1.07,7.61-2.38-3.45-1.47-3.45-1.47a24.38,24.38,0,0,0,5.73-3.3,13.85,13.85,0,0,0,4.26-6c.46-1.73.3-3.2,0-3.5a19.3,19.3,0,0,1-3.3-5,67.3,67.3,0,0,0-3.4-6.24c-.51-1.07-3.15-12.13-13.65-17.5s-18.87-6.55-23.69-5-8.63,3.15-12.08,4.06S45,40.58,42.37,40.23A11.53,11.53,0,0,1,37.71,38.35Z"/><path class="cls-7" d="M103.58,53.71a7,7,0,0,0,1.44.72c-1.53-3.9-5-10.76-12.61-14.66-10.5-5.38-18.87-6.55-23.69-5s-8.63,3.15-12.08,4.06S45,40.58,42.37,40.23a11.53,11.53,0,0,1-4.67-1.88s.15-2.94-1.22-4.62-3.91-3.35-5.73-2.79S27.1,36.83,26.7,38.1A26.75,26.75,0,0,0,26,41.45s-5.94,4.21-6.85,5a13.64,13.64,0,0,1-3.4,2.18,8,8,0,0,0-3.7,4,44.31,44.31,0,0,1-2.65,4.57A12.21,12.21,0,0,0,12.1,54c.6-1.47,1-2.67,2.27-3.27s3.27-.33,4.67-2.34a14.23,14.23,0,0,1,3.6-3.94c1-.6,10.14-1.93,14.08-2.07s16.61.53,21.28.2,8.14-3.54,14.61-3.2S92.84,45.91,95,46.91,101.31,52.25,103.58,53.71Z"/><path class="cls-8" d="M17,67.61a3.43,3.43,0,0,0,.9-1.94c0-.79-.32.38-.91,1.1a13.46,13.46,0,0,1-1.38,1.36,3.68,3.68,0,0,0,.51.36C16.42,68.23,16.78,67.91,17,67.61Z"/><path class="cls-2" d="M9.36,64.58a2,2,0,0,0-.28-2.41c-.6-.87-2.84-.38-3.71-.15a.89.89,0,0,0,0,.13c0,.91.25,2.44,1.27,2.89a4.09,4.09,0,0,0,1.78.41A2,2,0,0,0,9.36,64.58Z"/><path class="cls-3" d="M7.31,64.32s.66.59,1-.12a1.46,1.46,0,0,0-.12-1.6A1.85,1.85,0,0,1,8,63.94,1.41,1.41,0,0,1,7.31,64.32Z"/><path class="cls-9" d="M27.92,47.75a1.94,1.94,0,0,0,2,1.7c1.27,0,2-1.45,2.5-2.36a4.49,4.49,0,0,1,2-2.39c1-.4,3.37-1.78,4.1-3.44a8.44,8.44,0,0,0,.58-2.11,10.68,10.68,0,0,1-1.35-.8s.15-2.94-1.22-4.62-3.91-3.35-5.73-2.79S27.1,36.83,26.7,38.1A26.75,26.75,0,0,0,26,41.45a2.81,2.81,0,0,0,.12,2.35C26.46,44.68,27.74,47,27.92,47.75Z"/><path class="cls-7" d="M36.49,33.74c-1.37-1.67-3.91-3.35-5.73-2.79S27.1,36.83,26.7,38.1A26.75,26.75,0,0,0,26,41.45a4.74,4.74,0,0,0,.23,1.82A22.87,22.87,0,0,1,28,47.81c.56,2.27,2.06,1.59,2.72,1.31.93-.4,1.7-2.53,2.12-3.63s1.2-.94,2-1.46a9.57,9.57,0,0,0,2.4-2.61,9.5,9.5,0,0,0,.52-3.06S37.86,35.41,36.49,33.74Z"/><path class="cls-2" d="M29.37,48.84c1.05.15,1.71-.14,2.16-1.49S32,44.49,33,44.13s2.86-1.27,3.55-2.9.87-4.89,0-6.2-3.34-3.77-4.82-3.52-4.21,4.64-4,6.09,1.92,4.24,1.52,5.11-.88,2-1.05,2.43C27.85,46,28.32,48.7,29.37,48.84Z"/><path class="cls-3" d="M30.57,41.19c-.45-.51-1.28-.22-1.61-.13a2.66,2.66,0,0,1,.26,1.66c-.4.87-.88,2-1.05,2.43a1.43,1.43,0,0,1,.94,1.23c0,.69.47,1.41,1.16,1.12s0-1.38-.18-1.92a2.65,2.65,0,0,1,.47-2A2.42,2.42,0,0,0,30.57,41.19Z"/><path class="cls-10" d="M28.54,36.08s1.67-3.77,3.3-3.73,2.94,1.56,3.77,2.72.76,1.6.22,1.6-2.83-1.38-4.06-1a21,21,0,0,1-3,.8C28.57,36.37,28.54,36.08,28.54,36.08Z"/><path class="cls-3" d="M28.86,37.42a5.41,5.41,0,0,1,3.59-.76A5.39,5.39,0,0,1,35.21,39a7.43,7.43,0,0,0-3.12-1.78A8.7,8.7,0,0,0,28.86,37.42Z"/><path class="cls-3" d="M28.86,38.92a4.51,4.51,0,0,1,3.22-.75,5,5,0,0,1,2.47,2.3,6.58,6.58,0,0,0-2.8-1.76A7.1,7.1,0,0,0,28.86,38.92Z"/><path class="cls-3" d="M29,40a4.1,4.1,0,0,1,2.58-.51,3.81,3.81,0,0,1,2,1.57,5.43,5.43,0,0,0-2.24-1.2A6.66,6.66,0,0,0,29,40Z"/><path class="cls-9" d="M52.53,45a.33.33,0,0,0-.21.61c2.31,1.54,7.18,5.34,8.76,9.66,2.8,7.67-.2,15.35,1.87,15.75,2.29.44,12.48-16.3,10.81-21.17S69,41.24,66.21,42.7a19.41,19.41,0,0,1-7.41,2.6A45.1,45.1,0,0,1,52.53,45Z"/><path class="cls-7" d="M35.45,51.85c-.86-.57-3.39.42-4.93.21s-3.29-2.34-4.43-1.53-.83,3.88-2.38,5.14c-4.31,3.51-6.23,5-6.09,6.65s5.83,3.63,12.68-2S35.85,52.12,35.45,51.85Z"/><path class="cls-9" d="M102.75,81.38a24.38,24.38,0,0,0,5.73-3.3,16.23,16.23,0,0,0,3.32-3.92c.38-.65.94-2.14-1-1.17-1.49.76-6,6.91-12.21,7.54-17.14,1.72-27-3-36.39-8.49-3.29-1.94-13.37-1.7-17.43-3.59C40,66.2,36.37,58,35.63,56.91s-1.48,3.43-2.42,5-5,2.82-6.52,3.36a11.58,11.58,0,0,0-3,1.87,6.47,6.47,0,0,1,1.38-.34,15.91,15.91,0,0,0,6.29-2.28c1.17-.81,2.59-1.83,4.06-1.17s2,1.37,3.6,4.87,3.09,6.19,2.18,8.93S38.67,84,38.67,84a4.27,4.27,0,0,1-2.33,1.12c-1.22.05-2.08-.76-2.69-.71s-.91.66-2,1a11.64,11.64,0,0,0-2.44.76c-.51.36-1,1.12-.15.91s1-.66,1.52-.36a13.41,13.41,0,0,0,4.72.25,31.64,31.64,0,0,1,4.57.1c1.27.05,3.09-.05,3.3-.36s-.05-1.42-.05-1.42,2.69-3.45,6.14-4.16a38.23,38.23,0,0,0,8.07-2.69,27.55,27.55,0,0,1,3.45-1.27,28.56,28.56,0,0,0,6.7,3.7,51.39,51.39,0,0,0,7.2,1.67,3.48,3.48,0,0,1-2.08.41c-1.32-.1-2.38-.56-3.7-.15s-3.55.71-4.26,1.27-1.67,1.27-1.32,1.27a6.36,6.36,0,0,0,2.18-.05,1.86,1.86,0,0,1,1.73-.3,6,6,0,0,0,2.59.46A6.33,6.33,0,0,1,72,85.44a8.68,8.68,0,0,0,3.3.41,25.36,25.36,0,0,1,5.68-.56c2.16,0,8.88.13,13.49.09l11.4-3.22A7.26,7.26,0,0,0,102.75,81.38Z"/><path class="cls-11" d="M20.88,53.56c0-.33-.81-2.72-2.89-2.8a4.06,4.06,0,0,0-3.47,1.46c-.89,1-1,1.75-.7,1.94s1.21,2.41,3.86,2.15S20.92,54.27,20.88,53.56Z"/><path class="cls-12" d="M20,53.78c0-.31-.42-2.59-2.2-2.59s-3,1.56-2.93,2.48a2.2,2.2,0,0,0,2.4,2.06A2.64,2.64,0,0,0,20,53.78Z"/><circle class="cls-13" cx="17.4" cy="53.42" r="2.12"/><path class="cls-14" d="M19.48,53.7a2.09,2.09,0,0,0,0-.28,2.12,2.12,0,0,0-4.23,0c0,.07,0,.13,0,.2a2.76,2.76,0,0,0,2,.64A5,5,0,0,0,19.48,53.7Z"/><circle class="cls-15" cx="18.05" cy="52.52" r="0.68"/><circle class="cls-15" cx="16.45" cy="52.63" r="0.36" transform="translate(-24.11 15.28) rotate(-30)"/><path class="cls-2" d="M40.93,85.34A4.26,4.26,0,0,1,38.67,84a4.27,4.27,0,0,1-2.33,1.12c-1.22.05-2.08-.76-2.69-.71s-.91.66-2,1a11.64,11.64,0,0,0-2.44.76c-.51.36-1,1.12-.15.91s1-.66,1.52-.36a13.41,13.41,0,0,0,4.72.25,31.64,31.64,0,0,1,4.57.1c1.27.05,3.09-.05,3.3-.36s-.05-1.42-.05-1.42A3.58,3.58,0,0,1,40.93,85.34Z"/><path class="cls-3" d="M38.5,85.84a9.59,9.59,0,0,0-2.78.06,3.69,3.69,0,0,0-2.12,1.18l1.14,0a5.65,5.65,0,0,1,.59-.49A6.92,6.92,0,0,1,38.5,85.84Z"/><path class="cls-2" d="M106.2,82.85c.1-1.32-3.45-1.47-3.45-1.47A40.08,40.08,0,0,1,91.3,83.14c-7.14.2-16.66-.54-16.66-.54a3.48,3.48,0,0,1-2.08.41c-1.32-.1-2.38-.56-3.7-.15s-3.55.71-4.26,1.27-1.67,1.27-1.32,1.27a6.36,6.36,0,0,0,2.18-.05,1.86,1.86,0,0,1,1.73-.3,6,6,0,0,0,2.59.46A6.33,6.33,0,0,1,72,85.44a8.68,8.68,0,0,0,3.3.41,25.36,25.36,0,0,1,5.68-.56c3,0,15.17.25,17.66-.05S106.1,84.17,106.2,82.85Z"/><path class="cls-3" d="M74.91,84.06c-.45.07-1.57-.07-2.39-.07a1.3,1.3,0,0,0-.8.35,3.38,3.38,0,0,0-.72,1,3.24,3.24,0,0,1,.44,0,3.67,3.67,0,0,1,.47-.7c.62-.76,1.63-.37,2.24-.35A2.06,2.06,0,0,0,75.36,84Z"/><path class="cls-3" d="M70.15,83.77a3.68,3.68,0,0,1-.76.18c-1.3.13-.93-.16-2,.14-.83.23-.86.65-.87.83A1.27,1.27,0,0,1,67,85a2.67,2.67,0,0,1,.2-.35c.22-.33.6-.43,1.44-.45A3.65,3.65,0,0,0,70.15,83.77Z"/><path class="cls-16" d="M98.59,85.23c2.49-.3,7.51-1.07,7.61-2.38.06-.77-1.11-1.14-2.11-1.32.49.4.91.9.79,1.35-.17.68-2.26,1-4.52,1.47s-15.26.62-18.26.4a20.82,20.82,0,0,0-6.73.68,8.88,8.88,0,0,1-1.92.28l0,.06a5.19,5.19,0,0,0,1.84.07,25.36,25.36,0,0,1,5.68-.56C84,85.28,96.11,85.54,98.59,85.23Z"/><path class="cls-9" d="M83.42,78c.1.16.38.06.32-.12-1.18-3.21-3.24-10.15-.85-14.47,4-7.23,15-8.76,5.5-8C72.25,56.83,80.34,72.84,83.42,78Z"/></svg>