<svg id="Animals&#x52A8;&#x7269;" xmlns="http://www.w3.org/2000/svg" viewbox="0 0 128 128" width="128" height="128"><defs><style>.cls-1{fill:#8c6239;stroke:none;}.cls-2{fill:#42210b;stroke:none;}.cls-3{fill:#c69c6d;stroke:none;}.cls-4{fill:#a67c52;stroke:none;}.cls-5{fill:#754c24;stroke:none;}</style></defs><title>animals&#x52A8;&#x7269;</title><path class="cls-1" d="M43.41,65.62C42.9,74.73,47.3,73.69,46,86.5c-1.4,4.35.52,6.11.85,6.52-1.08,7,.5,14.25-6.58,14.34-4.58,3-.54,2.54-1.21,2.67s-.65.82,2.46.46c5.63-1.21,5.42-.71,6.83-2s1.46-18.63,2.92-18.92c.29-5.89-.52-9.71.22-9.65s-1.79-3.9-1.34-8.59c.45-.72-.53-3,.14-4.2C50.24,66.84,48.22,69.88,43.41,65.62Z"/><path class="cls-2" d="M68,33.26l-.12.28c-2.2,3.93-5.88,2.1-8.34-2.36-2.37.91-2,2.07-2.5,2.16a5.38,5.38,0,0,0-2.07,1.77c-.2.28.78-4.12,1.68-4.6s1.74-2.18,2.11-2.37c2.1.17,1.08-1.28,2.34-1.11.41.51-.52,1.36,1.61,1.31.67.28.89,1.14,1.22,1.64a6.6,6.6,0,0,0,1.53.57c2.11.7-.36,1.36,2.08,1.5C68.24,32.61,66.57,32.53,68,33.26Z"/><path class="cls-2" d="M73.32,35.27l.1.34c1.9,4.75,5.08,2.53,7.21-2.86,2,1.1,1.74,2.5,2.16,2.61a5.42,5.42,0,0,1,1.79,2.13c.17.34-.67-5-1.45-5.56s-1.5-2.63-1.82-2.87c-1.81.2-.94-1.55-2-1.35-.35.61.45,1.64-1.4,1.58-.57.34-.77,1.37-1.05,2a4.84,4.84,0,0,1-1.32.69c-1.82.85.31,1.64-1.8,1.81C73.09,34.48,74.53,34.4,73.32,35.27Z"/><path class="cls-2" d="M26.5,32.62s.28-1.51.78-.38.86,2.6,1,3,.8,1.19.49,1.62-.68.5-.28.89.93.36.43,1-.62.36-.22,1,.9.76.56,1.26-.65.66-.25,1.16.93.6.59,1.16-.86.13-.28,1.06,1.33,1.49,1.08,2-.74.7.25,1.26,1.95,2,2.35,1.33.49-1.26,1.11-.86.68.66,1.27.17.4-1.06,1.3-1.29,1.91-.27,2.29-1.29.86-2.49,1.85-2.68.56.4,1.73-.76.86-1.66,1.57-2.15.31-.56,1-1.13.76-.86,1.36-1a4.84,4.84,0,0,1,1.64.23S37.93,51,33.42,50.15s-5.59-2-6.24-9S26.5,32.62,26.5,32.62Z"/><path class="cls-2" d="M9.89,30.92a3.48,3.48,0,0,0,1.18-.84c.71-.69.84-1,1.14-.54s.75-1.27,1-.84.92-.72,1.09-.51.9-1.24,1.22-.69.94.45,1.12.57,3.43-1.18,3.71-.54,1.72-.3,2.08.48,1.2.48,1.35.84.92-.27,1,.42,0,1.57,0,1.57-4.94-1.51-7.94-.69A30.89,30.89,0,0,1,9.89,30.92Z"/><path class="cls-3" d="M96.26,48.33c-6-7.88-2.17-5.38-8.45-9.38-1.44-.75-4.16-8.24-8.94-8.11S75.36,39,70.77,38.31c-5.6-.84-5.17-8.45-9.68-8.07s-6.82,5.41-6.82,5.41h0c-1.52.12-3.59.79-8.32,3.8-17.21,23.13-18.77,1-18.5-4.27-.19-1.13-1.23-1.34.84-2.26,1.68-.74,2.1-3.95-2.06-3.29-4.56,2.09-.84-.34-7.91-.53-5.41-.44-4.19,1.94-7.25,1.66-7.56-.16-3.72,1.38-6,1.88s-2.09,2-2.09,2C4.32,38,5.38,35.83,5.63,36.7c2.69,2.81,1.52,2.21,6.31,4.13,6.5,3.08,1,2.29,6.19,7.19,3.44,5.19.11,4.38,4,11.28,3.25,1.33,3.82,8.16,14.08,5.58,8.47-2.19,7.92,5.34,13.43,3.37-.19.51,0,1.37.51,3-.88,7.31,2.94,9.13,2.1,13.27-.92,3.67,1.41,8.29,1.41,8.29s-.29-.29-.29,7c.58,8.59-2.33,7-5.54,9.84-1.6,2.29.2,1.56,1.33.75-.64.63-1.38,1.48-.73,1.68,4,.13,3.19-.22,3.19-.22l3.25-.09c3.5-.56,1.09-2.66,2-3.13s.22-4.25-.16-4.88.12-13.44.94-13.82c-.19-.5,1.19-19.69,1.19-19.69a36.13,36.13,0,0,0,13.94,2.44c17.72-.11,16-12.91,17.94,1.25,1.31,1.5,3.38,12.06,2,16.5-.06,1.81-3.55,17.31-11.94,18.32-6.71,3-4.85,3.11-2.41,2.35-1,.93-.07,1.52-.07,1.52a24.65,24.65,0,0,1,6.92-.92c4.08,0,.67-1.17,2.17-2.33,2.67-2.33,2.17-1.75,2.58-4.67.87-1.61,5.56-6.56,8.42-13.19C98.07,65.26,114.3,62.62,96.26,48.33Z"/><path class="cls-1" d="M103.28,66.76c1.62,25.54,10.37,17.71,3.12,31.46-.46,10.29,1,5.42-1.42,9.08.13,3.5-1.92,3.42-6.13,3.17-4,.63-5,.54-1-2,.83.08-7.5,3.71-1.33-.46,7.11-.83,7.36-11.94,7.38-16.54-.4-3.95-3.64-6.27-4.44-8.89S103.16,67.15,103.28,66.76Z"/><path class="cls-1" d="M104.38,59.31c9.44,13.29,15.1-5,19,10,1.46,6.25-7.25,4.08-3.46,10.34-4.92-5.33,2.25-10.42-5-12,2.13,4.38-.38,2.67.58,6-1.54-1.33,1.67-4.67-2.33-6.21-4.79-.08-3.88-3.13-8.77-5Z"/><path class="cls-1" d="M8.35,32.8c-.92-1-1.58-.86-1.72-.41a1.61,1.61,0,0,1,1,.27C8.08,33,8.35,32.8,8.35,32.8Z"/><path class="cls-1" d="M2.94,34.47a1,1,0,0,0,0,.17l.08.19a10.16,10.16,0,0,1,1.55,0c.72.06,3.42,1.89,5,2.1a2.45,2.45,0,0,0,2.33-1C8.15,38.2,7.87,33.85,2.94,34.47Z"/><path class="cls-4" d="M56.31,50.73c-.25-.63,1.42-5.25-2.88-8.38A7,7,0,0,1,55,46c.25,2.28,0,5.26.65,6.06S56.31,50.73,56.31,50.73Z"/><path class="cls-4" d="M89.66,67.22c-.92-4.35.45-4.33-.13-7.11a23.24,23.24,0,0,1-1.34,4.4c-.55.77-.92,1.49-.47,2.26S89.66,67.22,89.66,67.22Z"/><path class="cls-4" d="M58.83,70.11c2.8-4.88-.38-7.32.49-9.69a3.9,3.9,0,0,0,1.27,2.7C62,64.66,62.72,67,61.88,68.28A5.88,5.88,0,0,1,58.83,70.11Z"/><path class="cls-4" d="M45.81,63.17c.31-1.94-3.44-4.31-2.56-6.75,0,0-2.81.94-1.08,3.08S45.3,63.17,45.35,64,45.81,63.17,45.81,63.17Z"/><path class="cls-5" d="M46.15,86.74c.63.21,2.54,5.44.9,5.5C44.92,92.2,46.07,87.18,46.15,86.74Z"/><path class="cls-4" d="M52.15,87.47C54.88,86,54.54,89.26,55,88.71s.08,3.69-1.4,3.84C52.63,89.11,52.13,88.31,52.15,87.47Z"/><path class="cls-4" d="M5.66,36.55C9.75,39.43,20.29,41,21.58,37.76c.21-1.88-3.93,24.64,12.09,24.67,12,0,10.92,1.62,16.61,4.74-8,1.75-5.23-6.43-17.61-1.81-8.94.5-14.13-10.06-13.38-14.19C19.54,50,16.87,46.1,15.5,45,15.1,39.48,9.1,42,5.66,36.55Z"/><path class="cls-1" d="M20.75,34.93a.37.37,0,0,0,.26-.62A9.06,9.06,0,0,1,20,33c-.28-.53-.76-2-2-1.93s-2.46.76-2.28,1.12,1.54-.31,2.25.11c1.24.73,1.69,2.43,2.34,2.6A1.68,1.68,0,0,0,20.75,34.93Z"/><path class="cls-4" d="M19.28,34.52s-1.19-.73-1.85-1.08-1.47-.77-1.57-.56.48,1.11,1.25,1.55a2.36,2.36,0,0,0,1.7.45A.7.7,0,0,0,19.28,34.52Z"/><path class="cls-2" d="M17.23,33.91a2.35,2.35,0,0,0,1.64.36c-.41-.25-1-.61-1.42-.83s-.69-.37-1-.49C16.45,33.1,16.53,33.47,17.23,33.91Z"/><path class="cls-4" d="M70.77,38.31c-5.6-.84-5.17-8.45-9.68-8.07a7.26,7.26,0,0,0-4.25,2c1.07-.49,2.34-1.35,3.51-1.3,3.81.15,1.44,3.51,3.7,7.44s5.57,2.71,7.22,0A3.59,3.59,0,0,1,70.77,38.31Z"/><path class="cls-4" d="M78.87,30.84a3.74,3.74,0,0,0-3.27,2.25s2.61-3,5.13-.93c2,1.71,2,6.76.32,7.75C79,41.11,77.2,42,79.84,41.26s2.87-1.71,6.08-.64,6.66,3.69,5.71,1.9c-.25-.48-.65-1.12-1.08-1.8-.61-.42-1.47-1-2.74-1.77C86.37,38.2,83.65,30.72,78.87,30.84Z"/><path class="cls-4" d="M26.24,32.72a4,4,0,0,0-.44-.85c-.11-.14-.63-.74-.63-.74a4,4,0,0,1,1.71-.66c.82,0,1.5.43,1.28.83A9.56,9.56,0,0,1,26.24,32.72Z"/><path class="cls-1" d="M11.18,40.47c0,1-.11,1.71.43,2.26s.83-1.42,1,1.63c-.25.83,3.75,0,1.58,5.46,1.13,5.29,4.81,4.68,5.84,6C19.37,53.37,20.05,42.2,11.18,40.47Z"/><path class="cls-4" d="M89.54,67.79c.42-.88-.39-1-.39-1s-9.72,3.63-14.42,4.12-15.57-1.41-15.57-1.41l-.33.86a36.13,36.13,0,0,0,13.94,2.44C86,72.69,88.36,65.59,89.54,67.79Z"/></svg>