<svg id="Animals&#x52A8;&#x7269;" xmlns="http://www.w3.org/2000/svg" viewbox="0 0 128 128" width="128" height="128"><defs><style>.cls-1{fill:#bfbfbe;stroke:none;}.cls-2{fill:#b87527;stroke:none;}.cls-3{fill:#e2e1df;stroke:none;}.cls-4{fill:#ededed;stroke:none;}.cls-5{fill:#fff;stroke:none;}.cls-6{fill:#878888;stroke:none;}.cls-7{fill:#885011;stroke:none;}.cls-8{fill:#080808;stroke:none;}.cls-9{fill:#c87f31;stroke:none;}.cls-10{fill:#a7671e;stroke:none;}.cls-11{fill:#875113;stroke:none;}.cls-12{fill:#ad6819;stroke:none;}.cls-13{fill:#eb9b3e;stroke:none;}.cls-14{fill:#eb9a3e;stroke:none;}.cls-15{fill:#686a6a;stroke:none;}.cls-16{fill:#222423;stroke:none;}</style></defs><title>animals&#x52A8;&#x7269;</title><path class="cls-1" d="M40.19,92.38s.49,5.54-4.07,6.19-8.31-.33-7.33-2.77S34,95.15,35,93.36,36.45,86,36.45,86Z"/><path class="cls-2" d="M64.58,41.89s-4.17-3.35-8.41-7.51S45.53,24.63,35.64,23,8.7,19.94,5.87,21.58s-3.2,6-3.2,7.59a18.88,18.88,0,0,0,.45,3.57,4.7,4.7,0,0,0-.6,3.42,2.73,2.73,0,0,0,1.71,1.93s-.6,3.65.89,5.28a37.22,37.22,0,0,1,4.46,6c1.19,2.08,2.46,4.39,2.53,5.36s.6.74.74,0L13,54a14,14,0,0,0,3.12,5.28c2,1.79,6.55,3.2,7.22,5.58s1.19,2,2,6.92,2,10.86,7.37,16.59,8.66,9.21,7.69,10.92-6.62,1.73-5.28,4.78,9.75,1.28,12.37-.43,1.57-4.52,1.53-6a.33.33,0,0,1,.53-.28c1.15.88,3.75,2.83,5.11,3.68a21,21,0,0,0,2.16,1.26s-5.31-1.31-5.27.62,2.1,3.25,7.38,4.38c5.86,1.25,12.27,2.77,16.46,2.89,3.25.1,3.08-1.05,3.08-1.05s29.89,7.9,38.39-5.43C122,95.66,126,81,121.8,68.38S104.31,50.15,93.15,48.29,71,44.34,68.75,43.67A22.22,22.22,0,0,1,64.58,41.89Z"/><path class="cls-3" d="M15.81,53.86c.33.2.4-1.13.47-2s1.13-.67,2-.53-.33-3.06-.33-4.66,3.6-.13,4.46.13-1.47-3.33-3.13-5.39-.53-2.53-.13-2.86.47-1.27-.2-2.33,1.13-2,1.8-2-2.4-2.6-3.2-3.46,1.59-2-.2-3.53c-.78-.65,1.24-2.26,2.42-2.54.41-.1,2.44-.66,9.5-.39,4.6.17,6.65-.56,7.53-1.09L35.64,23c-9.9-1.64-26.93-3.05-29.76-1.41s-3.2,6-3.2,7.59a18.88,18.88,0,0,0,.45,3.57,4.7,4.7,0,0,0-.6,3.42,2.73,2.73,0,0,0,1.71,1.93s-.6,3.65.89,5.28a37.22,37.22,0,0,1,4.46,6c1.19,2.08,2.46,4.39,2.53,5.36s.6.74.74,0L13,54s.46-.76.6-1S15.48,53.66,15.81,53.86Z"/><path class="cls-4" d="M31.86,23.2A153,153,0,0,0,16,21.55c-7.15-.25-9.47.51-10.11.89s-1.14,1.73-.34,2,4.48-1.06,6.64-1.4a68.16,68.16,0,0,1,12.18-.25C28.52,23.12,31.86,23.2,31.86,23.2Z"/><path class="cls-5" d="M14.52,24.77a22.4,22.4,0,0,0-4.82-.42c-1.78.17-2.37.76-2.37.93s1.27.21,2.2,0a16.1,16.1,0,0,1,3-.42A17.76,17.76,0,0,0,14.52,24.77Z"/><path class="cls-6" d="M4.16,29.44s0-3.68,1.1-3.3,1,1,.34,1.82A9.07,9.07,0,0,1,4.16,29.44Z"/><path class="cls-1" d="M5.9,30s-1.79,5.57,4.63,10.5a28.75,28.75,0,0,0,6.15,3.78s-3.35-2.91-5.7-5.19a7.57,7.57,0,0,1-2.17-3s1.66.9,3.9,1.89A36,36,0,0,0,17,39.49S11.09,36.9,7.88,33.8A5.7,5.7,0,0,1,5.9,30Z"/><path class="cls-6" d="M3.32,36.48a3.71,3.71,0,0,1-.8-2.27,3.59,3.59,0,0,0,0,2,2.73,2.73,0,0,0,1.71,1.93s-.6,3.65.89,5.28l.54.6a13.54,13.54,0,0,1-.93-3.17c-.14-1.26,0-2.25.78-1.74a8.93,8.93,0,0,1,1.84,2.2,3.73,3.73,0,0,0-.4-1.75C6.4,38.51,4.58,37.73,3.32,36.48Z"/><path class="cls-4" d="M8.3,45.57a5.38,5.38,0,0,1-2.51-2.7c-.51-1.69-.45-3.31-.19-3.09a4.14,4.14,0,0,1,1.34,2.48A11.8,11.8,0,0,0,8.3,45.57Z"/><path class="cls-1" d="M41.93,97.63a14.9,14.9,0,0,0-1.48.24,1.73,1.73,0,0,1,0,1.44c-1,1.71-6.62,1.73-5.28,4.78s9.75,1.28,12.37-.43c2.13-1.39,1.89-3.37,1.66-4.89a8.17,8.17,0,0,0-3-1C44.55,97.7,43,97.56,41.93,97.63Z"/><path class="cls-7" d="M21.77,27a13.37,13.37,0,0,0,2.36-.66A5,5,0,0,1,28,26c1.95.55,3.19,3.82,3.19,3.82a5.54,5.54,0,0,1-5.1,1.56C23.46,30.64,21.77,27,21.77,27Z"/><path class="cls-8" d="M56.17,34.37a40.74,40.74,0,0,0-14.58-9.82c-.76.22-1.77.63-1.87,1.31-.16,1.09-.1,2.13-.57,2.33S36,28,36.61,29.14c1.56,3-1.27,2.14-1.58,2.2s1.44,3.73,1.23,4.3-4.82-1.07-4.61.12,2.93,5,2.1,5.36A6.65,6.65,0,0,0,29.5,45c-.94,2.41-.62,6.62-.62,6.62s2-4.1,5.17-4.9a11.11,11.11,0,0,1,7,.8s-.31-5.33,3.48-4.19,7.93,2.89,7.68,2.21-3.86-5.14-1.16-5,2.87-.57,2.87-1.25-2.58-3,2-3a16.44,16.44,0,0,1,2.75.4C57.83,36,57,35.19,56.17,34.37Z"/><path class="cls-1" d="M78.16,106.63c-.43-1-7.35-3.68-9.74-5s-11.57.63-11.57.63-5.31-1.31-5.27.62,2.1,3.25,7.38,4.38c5.86,1.25,12.27,2.77,16.46,2.89,3.25.1,3.08-1.05,3.08-1.05A6.8,6.8,0,0,0,78.16,106.63Z"/><path class="cls-9" d="M18.26,54.24a.37.37,0,0,0-.45.56c1.27,1.67,4.7,3.95,12.22,3.61,10.67-.48,14.54-8.29,11.28-7.61s-6,4.46-11.76,4.9S20.13,55.16,18.26,54.24Z"/><path class="cls-10" d="M15.19,55.84s3.33,7.55,14.35,6.66S44,53.4,44,53.4s-6.39,6.73-15.3,6.32S15.19,55.84,15.19,55.84Z"/><path class="cls-11" d="M43.18,54.8c-2.6,2.46-7.64,6.32-14,6.65a18,18,0,0,1-13.69-5c1.08,1.79,4.94,6.77,14,6C37.68,61.85,41.66,57.19,43.18,54.8Z"/><path class="cls-8" d="M93.15,48.29C82,46.43,71,44.34,68.75,43.67a20.21,20.21,0,0,1-2.41-.91c-1.6.56-4.58,1.95-5.2,4.72-.85,3.83,6.56,8.35,3.49,8S58.16,53,56.54,54.39,58,59.75,57,59.5s-4.68-2.64-6.47-.85,4.43,8,2.64,7.75-7.07-.51-8.18.6.34,4.17-1,3.49-2.38-3.07-3.83-1.36-.77,10.48-1.7,10.65-6.56-5.37-8.52-3.92c-1.21.89-1.57,3.82-1.68,5.94a25.91,25.91,0,0,0,4.53,6.6c5.36,5.73,8.66,9.21,7.69,10.92a2.41,2.41,0,0,1-1,.85,7.71,7.71,0,0,1,1.9,0c.68.17,1.62,2,1.62,2s.34-3,1.19-2.21A14.46,14.46,0,0,1,46,102.25a8.29,8.29,0,0,0,.26-2.47,6.46,6.46,0,0,0-.43-1.19,5.42,5.42,0,0,0,2,1c.54.14,1,.26,1.46.34,0-.88-.25-1.7-.27-2.32a.33.33,0,0,1,.53-.28c1.15.88,3.75,2.83,5.11,3.68a21,21,0,0,0,2.16,1.26s5.71-.48,6.79.87c.89,1.11,4.49,3,7.9,2.91s12-1.36,15.67-2.81,6.13-2.47,3.83-2.47-8.18-1.36-8.18-3.75,10-8.6,9.11-9-8.09-3.41-7-5.37,10.9,1.11,10.39.51-6.73-3.83-6-5.2,8.09.26,7.41-.34-8.94-5.71-8-6.64,14.22,2.64,13.71,2.3-12.61-7.15-9.71-8.86,13.54,4.26,13,3.66-5.37-6.9-4-7.5,9.28,5.2,8.86,4.43-2.64-4.77.09-5.11c2-.25,7.11,3.26,9.59,5.08C115.14,54.77,103.26,50,93.15,48.29Z"/><path class="cls-11" d="M81,108.13s9.1,2.43,16.9,2.36,14.53-2.64,12-3.19-9.1,1.8-14.39,2S81,108.13,81,108.13Z"/><path class="cls-12" d="M106.63,106.6s9.65-10.22,9.65-21S115,73.07,113,70.41a7.13,7.13,0,0,0-3.76-2.61s2.3,4.9-.68,7.45-6.42,10.17-6.52,16.14A27.67,27.67,0,0,0,106.63,106.6Z"/><path class="cls-13" d="M112.74,104.17s12-15.27,9.44-29.16-8.71-11.94-6.34-5.83c2.28,5.87,4.55,9.19,2.38,19.92C116.87,95.85,112.74,104.17,112.74,104.17Z"/><path class="cls-10" d="M42,31.75s-.43-3.84,1.73-4.38c2-.49,4.91.21,6.17,4.93S48.65,40,47,40.3s-3.62-1.76-4.22-2.77,2.06-1.16,1.71-3.82S42,31.75,42,31.75Z"/><path class="cls-14" d="M47.14,38.94c.67.14,2.51-3.17,1.21-6.74s-4-5-4-3.57,2.11,1.67,3.07,4.43S46.46,38.8,47.14,38.94Z"/><path class="cls-15" d="M36.53,101.9s-2.25,0-2.5,1.21l-.24,1.21s.56-1.29,1.53-1.45A1.51,1.51,0,0,0,36.53,101.9Z"/><path class="cls-15" d="M37.2,103s-2.25,0-2.5,1.21l-.24,1.21S35,104.16,36,104A1.51,1.51,0,0,0,37.2,103Z"/><path class="cls-15" d="M38.71,104.16s-1.74,0-1.93,1.17l-.19,1.17s.44-1.25,1.18-1.4A1.31,1.31,0,0,0,38.71,104.16Z"/><path class="cls-15" d="M53.39,102.4s-1.64-.58-2.09.13l-.45.71a1.89,1.89,0,0,1,1.44-.53A1.12,1.12,0,0,0,53.39,102.4Z"/><path class="cls-15" d="M53.43,103.3s-1.64-.58-2.09.13l-.45.71a1.89,1.89,0,0,1,1.44-.53A1.12,1.12,0,0,0,53.43,103.3Z"/><path class="cls-15" d="M30.87,94.9a3,3,0,0,0-2-.17,1.55,1.55,0,0,0-.94.84s.7-.8,1.43-.56,1,.28,1.12.21A2.27,2.27,0,0,0,30.87,94.9Z"/><path class="cls-15" d="M30.59,95.64a3,3,0,0,0-2-.17,1.55,1.55,0,0,0-.94.84s.7-.8,1.43-.56,1,.28,1.12.21A2.27,2.27,0,0,0,30.59,95.64Z"/><path class="cls-15" d="M30.71,96.85a3,3,0,0,0-2,.33,1.55,1.55,0,0,0-.7,1s.48-1,1.25-.9,1,0,1.14-.08A2.27,2.27,0,0,0,30.71,96.85Z"/><path class="cls-16" d="M29.77,29.8a3.12,3.12,0,0,0-2.34-3A2.81,2.81,0,0,0,24,28.21a2.69,2.69,0,0,0,2.33,2.33C28.29,31,29.66,30.13,29.77,29.8Z"/><ellipse cx="26.8" cy="28.56" rx="1.72" ry="1.85" transform="translate(-7.47 47.51) rotate(-75.75)"/><ellipse class="cls-5" cx="27.59" cy="27.99" rx="0.52" ry="0.54" transform="translate(-6.33 47.84) rotate(-75.75)"/><ellipse class="cls-5" cx="26.15" cy="27.67" rx="0.26" ry="0.28" transform="translate(-7.11 46.21) rotate(-75.75)"/></svg>