<svg id="Animals&#x52A8;&#x7269;" xmlns="http://www.w3.org/2000/svg" viewbox="0 0 128 128" width="128" height="128"><defs><style>.cls-1{fill:#817d79;stroke:none;}.cls-2{fill:#d3935d;stroke:none;}.cls-3{fill:#231f20;opacity:0.26;stroke:none;}.cls-4{fill:#5d5b58;stroke:none;}.cls-5{fill:#dc2304;stroke:none;}.cls-6{fill:#d27101;stroke:none;}.cls-7{fill:#aa4905;stroke:none;}.cls-8{fill:#bf5b01;stroke:none;}.cls-9{fill:#e39e51;stroke:none;}.cls-10{fill:#be5d00;stroke:none;}.cls-11{fill:none;stroke:#178baf;stroke-miterlimit:10;stroke-width:0.2px;}.cls-12{fill:#d2730a;stroke:none;}.cls-13{fill:#b17c3d;stroke:none;}.cls-14{fill:#ad1704;stroke:none;}.cls-15{fill:#0e3249;stroke:none;}.cls-16{fill:#081c27;stroke:none;}.cls-17{fill:#fff;stroke:none;}</style></defs><title>animals&#x52A8;&#x7269;</title><path class="cls-1" d="M64.29,117.49a1.32,1.32,0,0,0-.44.76s.74-.51,1.21-.39l.47.13a.91.91,0,0,1,.38-.38l.51-.2-1.12-.26A1.88,1.88,0,0,0,64.29,117.49Z"/><path class="cls-1" d="M44.19,116.68a1.32,1.32,0,0,0-.63.61s.85-.29,1.27,0l.41.25a.91.91,0,0,1,.47-.26l.55,0-1-.56A1.88,1.88,0,0,0,44.19,116.68Z"/><path class="cls-2" d="M61.57,104.12a7.82,7.82,0,0,0,0-1.84l-4.11,1.11a16.39,16.39,0,0,1-3.54,6.8c-2.95,3.55-4.77,6.11-6,6.38s-3.39-.26-3,.46c.15.26,1,.25-1.58.78s-6.16,1.07-7,1.4c.3.54.42.6-.22.79l-.43.13a6.54,6.54,0,0,0,3.37.06c2.45-.38,6.64-1,7.43-.57l.79.43a5.35,5.35,0,0,0-.82,2.28l.05.88a1.7,1.7,0,0,1,1.1-.27c.54.1.64-.13,1.49-1s1.19-2.58,3.19-2.82,3.39,1.1,4.73,1.32,2.35-.14,2.25.25,1.26.13-1.22-1.09-3.69-2.47-3.56-3.34a10.31,10.31,0,0,1,1.34-4C56.66,111.34,61.45,104.91,61.57,104.12Z"/><path class="cls-2" d="M62.41,119.59c1,.36,1.43.46,3.17-.11s5.86-1.83,6.47-1.33.48,1.38-.26,2A1.92,1.92,0,0,0,71,122c.16.41.47-.46,1-.28s1.17.13,1.85-1,1.39-2.9,2.58-3.48,4.37,1.3,5.55,1.11,3.63-.49,1.06-1.55-5.72-1.44-6.48-2.75-4.47-14.08-5.19-14a24.87,24.87,0,0,0-4,1.75c.17.25,4.57,7.22,4.88,8.67s.72,4.34-.66,5.08a17.35,17.35,0,0,1-5.12,1.54c-2.67,0-.24.44-2.22,1.26-1.56.65-2.81.28-2.93,1"/><path class="cls-3" d="M58.12,119.62c-2.48-1.22-3.69-2.47-3.56-3.34a10.3,10.3,0,0,1,1.34-4c.76-.93,5.55-7.35,5.67-8.15a7.06,7.06,0,0,0,0-1.56l-1.29,1A11.25,11.25,0,0,1,59,106.88c-.88,1.41-4.29,4.87-4.86,6.65s-.75,3.25-.32,3.67.82,1.12,0,1.28-3.35.3-3.92,1.08a29.06,29.06,0,0,0-1.65,3.27,10.88,10.88,0,0,0,.89-.86c.85-.84,1.19-2.58,3.19-2.82s3.39,1.1,4.73,1.32,2.35-.14,2.25.25"/><path class="cls-3" d="M77.86,116.7c-1.4.35-2.19-.77-3.78,2.47a10.06,10.06,0,0,0-.85,2.35,2.94,2.94,0,0,0,.61-.73c.68-1.09,1.39-2.9,2.58-3.48s4.37,1.3,5.55,1.11,3.63-.49,1.06-1.55-5.72-1.44-6.48-2.75-4.47-14.08-5.19-14a6.52,6.52,0,0,0-1.52.55l-.29.69s6.11,13.19,7,13.83S79.26,116.35,77.86,116.7Z"/><path class="cls-1" d="M59.63,120.73a1.45,1.45,0,0,1,0,.86s-.16-.72-.71-.84c-.31-.07-.49-.2-.46-.37.07-.39-.3-.57-.2-.68A2.53,2.53,0,0,1,59.63,120.73Z"/><path class="cls-4" d="M84.74,118a1.71,1.71,0,0,1,.16,1s-.35-.79-1-.8c-.38,0-.62-.11-.62-.32,0-.47-.49-.58-.39-.74A3,3,0,0,1,84.74,118Z"/><path class="cls-1" d="M61.27,119.22a1.45,1.45,0,0,0-.3.8s.42-.6,1-.5c.32.06.53,0,.57-.17.09-.39.5-.41.44-.55A2.53,2.53,0,0,0,61.27,119.22Z"/><path class="cls-1" d="M70.84,121.79a1.54,1.54,0,0,0,.09.78,1.4,1.4,0,0,1,.74-.7.88.88,0,0,0,.48-.78c0-.4-.24-.46-.39-.45A1.93,1.93,0,0,0,70.84,121.79Z"/><path class="cls-1" d="M46.53,122.75a1.54,1.54,0,0,0,.09.78,1.4,1.4,0,0,1,.74-.7.88.88,0,0,0,.48-.78c0-.4-.24-.46-.39-.45A1.93,1.93,0,0,0,46.53,122.75Z"/><path class="cls-1" d="M35,119.82a1.93,1.93,0,0,0-.29,1.1s.48-.85,1.23-.79c.43,0,.7-.06.73-.29.06-.52.61-.6.52-.78A3.36,3.36,0,0,0,35,119.82Z"/><path class="cls-5" d="M20.54,18.58s-4.33-1.45-3.48-3.86c.93-2.67.16-4.18.76-5S20.24,6.82,21,6.82a5.73,5.73,0,0,0,2.23-.57,4,4,0,0,1,2.23-.57c.74.14,1-.28,2.23-.43s2.23-.57,3,.14,1,.57,1.79.71,1.93.14,2.23.57,1.49.28.6,2,.3,3-3.12,4a85,85,0,0,0-9.37,3.83Z"/><path class="cls-6" d="M20.54,18.58s-2.08-5.53,3.72-7.65,10.86.57,12.95,1.7,6.4,7.23,9.52,17,4.17,15.87,11.61,18.85a34.06,34.06,0,0,0,19.49,1.28,26.7,26.7,0,0,0,13.39-8.93c6.69-9.18,15.19-14.54,14.29-13.13s.46,1.52.46,1.52,3.27-3.12,3.42-1.7-1.19,4-1.19,4,2.68-3.12,2.68-1.13a12.48,12.48,0,0,1-.6,3.68s1.79-1.42,1.64.57a4.15,4.15,0,0,1-1.51,3s5.8-4,3.57-.71-5.8,7.37-3.87,5.81,4.61-5.1,4.32-3.26l-.3,1.84s1.34.28,1,1.42l-.3,1.13s1.64.28,1,1.42l-.6,1.13s1.64.14.45,2a10.56,10.56,0,0,1-3.12,3s2.83-.14.89,1.7l-1.93,1.84s5.36-3.26,4.17-1a21.15,21.15,0,0,1-3.12,4.25s1.93.28.89,1.42-4.32,2-4.32,2,5.8-1.56,4.61.57-4.61,3.68-4.61,3.68,3.72.57,2.38,1.28-5.06,3.26-5.21,4.11.6,3-.74,5.24a24.86,24.86,0,0,1-7.14,6.52c-1.34.57-2.38,5.53-5.21,8.93s-7.89,7.94-10.71,9.21-5.21,3.54-7.59,3.83-9.52-2.69-9.52-2.69a10.62,10.62,0,0,1-8.78,2C51.49,103,47.17,93.12,46.28,92.41S33,86.32,25.74,76.54s-7.29-22.82-5.8-29.62,5.51-15,5.51-15.73S25,24,24,22.55,20.54,18.58,20.54,18.58Z"/><path class="cls-7" d="M46.73,29.64c-3.12-9.78-7.44-15.87-9.52-17s-7.14-3.83-12.95-1.7-3.72,7.65-3.72,7.65,2.38,2.55,3.42,4,1.49,7.94,1.49,8.64-4,8.93-5.51,15.73c0,.17-.07.36-.1.54.47,1.95,1.19,4.38,1.74,3.86a4.87,4.87,0,0,1,2.53-1s.6,2.83,1.49,1.84,1.49-1.56,2.38-.71,2.08,1.7,2.38.85-.45-4,1-.85,2.68,8.36,3,6.09.74-7.65,1.19-6.66,1.79,1.56,1.79.85,4.46,3.83,4.32,2.69-1.49-6.52-.89-5.67,1.64,2.13,1.79.85.3-3,.89-1.84,1.49,3,1.93,1.42,1.64-3.26,2.23-2.41S49.7,48.91,50,48.06s.3-1.84,1.19-1.28,1.58-.56,1.65-2.19C50,41.17,48.84,36.25,46.73,29.64Z"/><path class="cls-8" d="M46.73,29.64c-3.12-9.78-7.44-15.87-9.52-17s-7.14-3.83-12.95-1.7-3.72,7.65-3.72,7.65,2.38,2.55,3.42,4,1.49,7.94,1.49,8.64c0,.54-2.37,5.52-4.14,10.89.71,2.78,1.82,6.78,2.21,6.12A34,34,0,0,0,25,45.08s1.49,4.25,1.93,3.54,1.49-1,1.93,0,1,2.41,1.34,1S31.7,46.5,32,47.77s2.23,2.83,2.38,1.13a38.65,38.65,0,0,1,.74-4.25s2.83,8.5,2.83,4.25V44.66s2.08,4,2.23,2.69,1.34-5.81,1.34-5.81.3,6.09,1,4.82,1.79-2.41,2.38-1.7,1.93,1.84,2.08.85.6-2.41,1.34-1.7,2.38,3.26,2.38,0c0-.78,0-1.65,0-2.51C49.27,38.23,48.24,34.37,46.73,29.64Z"/><path class="cls-7" d="M27.31,31.73a10.61,10.61,0,0,0-.9-6.46c-.82-1.47-1.49.48-1.52.45a49,49,0,0,1,.56,5.48c0,.71-4,8.93-5.51,15.73a41.35,41.35,0,0,0-.07,15.67,3.27,3.27,0,0,0,.69-2.37,42.63,42.63,0,0,1,.82-13.57C22.43,42.2,26.88,34.85,27.31,31.73Z"/><path class="cls-5" d="M20.83,13.48a8.93,8.93,0,0,0,2.68.28c1-.14,4.17-2.13,6.1.71s1,5.53-.89,6.8-1.19,5-2.23,5.24-3.87-3.26-4.17-4-.51-3-1-3.33A2.91,2.91,0,0,1,20,17.31,6.08,6.08,0,0,1,20.83,13.48Z"/><path class="cls-9" d="M20.6,18.51a6.56,6.56,0,0,0-2.43,2.55c-.64,1.52.05,2.23.05,2.23a6.53,6.53,0,0,1,3.28-.79c1.64.14,2.25-2.14,2-2.19A5.48,5.48,0,0,1,20.6,18.51Z"/><path class="cls-10" d="M44.2,55s-2.83-.43-1.64,7.37S49.85,75.27,53.27,77s16.67,2.41,19.49,2.55,6.1.43,9.82-2.13,8.33-9.07,8.93-13.89.45-12.33-1-11.05a15.78,15.78,0,0,1-8.93,3.12c-4.32.28-6.1,1.56-9.82,2.41s-13.84-4.39-19.2-4.11A41.41,41.41,0,0,0,44.2,55Z"/><path class="cls-7" d="M111.6,67c.17-.09.26-.18.28-.27l-.48.38Z"/><path class="cls-7" d="M98.51,82.92a24.86,24.86,0,0,0,7.14-6.52c1.31-2.22.63-4.31.74-5.19-1,.55-2.22,1.3-3.12,1.93-1.64,1.13-1.93,1.7-3.87,5.1s-1.64,2.55-3.42,3-3.12,5.38-6.25,8.64-9.67,7.65-16.07,7.65-14.88-5.24-19-7.79S41.52,86,31.55,78.52C23.42,72.4,20.14,58,19.21,52.88c-.31,7,1,16.27,6.54,23.66C33,86.32,45.39,91.7,46.28,92.41S51.49,103,56.7,104.17a10.62,10.62,0,0,0,8.78-2s7.14,3,9.52,2.69,4.76-2.55,7.59-3.83,7.89-5.81,10.71-9.21S97.17,83.48,98.51,82.92Z"/><path class="cls-11" d="M111.6,67c.17-.09.26-.18.28-.27l-.48.38Z"/><path class="cls-6" d="M56.1,96.66c-3.72-2.83-9.82-4.25-9.82-4.25.89.71,5.21,10.63,10.42,11.76a10.62,10.62,0,0,0,8.78-2A64.3,64.3,0,0,1,56.1,96.66Z"/><path class="cls-7" d="M56,84.88a8.51,8.51,0,0,0,6.28,3.69c4.14.25,4.41.25,5.75,1a8.22,8.22,0,0,0,4.68,1.15c1.74-.13,5.21-.76,5.21-.76h4.14l2.41-2,1.47-.64A9.38,9.38,0,0,0,87.53,86c.94-.89-.13.51.94-.89l1.07-1.4s.13-1.15.94-1.27,2.54-1,2.67-2-.4-.89.8-1.53,1.6-.38,1.6-1.27-1.34.25,0-.89,3.21-2.8,3.21-2.8-2.27-.64-2.27-.13.53.38-.8,1.27-1.2.13-1.34.89,1.74-.51-.13.76-1.34-.13-1.87,1.27,0,1.91-1.74,2.93-1.6,1.4-2.94,2.42-.67,4.71-7.08,4.58-10-1.4-10.56-.25-.53,1.65-1.34.64-1.2-2.93-2.54-2-1.74,1.78-2.14.89.27-1.65-1.34-1.15-2.14,1.15-3.07.38a3.48,3.48,0,0,0-1.74-1A11.57,11.57,0,0,0,56,84.88Z"/><path class="cls-12" d="M36.06,14c.49.14,4.36,4.58,5.9,11.79s3.81,12,5.48,13.54,1.54,2.47-.76,1.45-6.95-4.5-7.62-9.84-1.18-10.85-2.23-13.18A6.88,6.88,0,0,1,36.06,14Z"/><path class="cls-7" d="M90.47,52.45a15.78,15.78,0,0,1-8.93,3.12,19.77,19.77,0,0,0-4.21.72,38.19,38.19,0,0,0,4.05.47,22.39,22.39,0,0,0,7.08-1.27c1.47-.38.13,1-1.2,1.4s.27,1.4,1.74,1.53-1.34,6.24-1.87,7.26-3.88,1.15-5.21,1.15,2.41.64,3.88.64-2.27,3.69-3.47,4.2-3.88.25-5.75-.51-5.08-3.69-2.94-1.4,5.08,3.18,5.75,3.56-.4,1.15-.27,1.53-3.07-.38-2.94.64S72.83,76.23,71,75s-8.42-10.56-8.42-10.56l5.61,9s-1.74-.13-1.34.38-3.07-2.16-2.14-.76-2.14.76-4.41.64-2.81-6-2.81-6A50.21,50.21,0,0,1,57.59,73c-.13,1.78-1.2-5.35-1.2-6s-.8,4.2-1.47,5.73-1.74-.51-2.94-1.91-1.2-1.15-1.47-.38S49.58,65,49.58,65s-.4,3.44-.67,4.33-2.14-5.86-2.14-5.86-.4,3.05-.53,4.33-3.68-5.46-3.68-5.46c1.19,7.79,7.29,12.9,10.71,14.6s16.67,2.41,19.49,2.55,6.1.43,9.82-2.13,8.33-9.07,8.93-13.89S92,51.18,90.47,52.45Z"/><path class="cls-13" d="M21.5,22.49c1.58.14,2.21-2,2.06-2.17l-.67.42a16.55,16.55,0,0,1-3.11,1.11c-.94.22-1.55,1.44-1.55,1.44A6.53,6.53,0,0,1,21.5,22.49Z"/><path class="cls-10" d="M115.77,48.34c1.19-1.84-.45-2-.45-2l.6-1.13c.6-1.13-1-1.42-1-1.42l.3-1.13c.3-1.13-1-1.42-1-1.42l.3-1.84c.3-1.84-2.38,1.7-4.32,3.26s1.64-2.55,3.87-5.81-3.57.71-3.57.71a4.15,4.15,0,0,0,1.51-3c.15-2-1.64-.57-1.64-.57a12.48,12.48,0,0,0,.6-3.68c0-2-2.68,1.13-2.68,1.13s1.34-2.55,1.19-4-3.42,1.7-3.42,1.7-1.36-.11-.46-1.52c.64-1-3.5,1.43-8.36,6.24,4-.81,8.14-1.53,5.86-.72s-3.46,4.5-4.85,5.36l-1.38.87a46.2,46.2,0,0,0,6.75-3.81c2.25-1.73,3.29-3.63,2.25-1.73a13,13,0,0,1-4.85,4.85L98.86,40s-2.25,2.6,3.46,0,9.86-3.46,5.88-.87-6.75,4.5-4.33,4.33,4.33-2.25,2.42-.17-5.88,1.73-1.9,2.08,9.35-1.73,7.61-.87-2.6,2.77-6.23,3.12l-3.63.35s-1.21,2.08,4.15,1.38l5.36-.69s.52,2.42-3.46,4.33-9.35,2.25-8.65,2.25,6.58.52,8.83.17,2.6,1.56-.17,2.08-6.4,1.38-6.4,1.38l5.54,1.9s-12.46,3.63-6.4,3.81a37.09,37.09,0,0,1,8.66,1c.92-.47,3.29-1.8,4.24-3.5,1.15-2.06-4.24-.67-4.59-.57.26-.07,3.3-.89,4.3-2s-.89-1.42-.89-1.42a21.15,21.15,0,0,0,3.12-4.25c1.19-2.27-4.17,1-4.17,1L113.54,53c1.93-1.84-.89-1.7-.89-1.7A10.56,10.56,0,0,0,115.77,48.34Z"/><path class="cls-10" d="M109.22,65.77c-2.06,0-5.52,1-4.83,1.21s1,1.9,1,1.9.56,1,1.17,1.88a23.09,23.09,0,0,1,5-3.72C112.94,66.34,109.22,65.77,109.22,65.77Z"/><path class="cls-14" d="M28.36,16.94a2.39,2.39,0,0,0-2.28-2.11,2.16,2.16,0,0,0-2.37,1.91,2.12,2.12,0,0,0,2.13,1.69A2.65,2.65,0,0,0,28.36,16.94Z"/><ellipse class="cls-15" cx="25.8" cy="16.63" rx="1.63" ry="1.54"/><path class="cls-16" d="M27.41,16.83a1.44,1.44,0,0,0,0-.2,1.64,1.64,0,0,0-3.27,0,1.42,1.42,0,0,0,0,.14,2.21,2.21,0,0,0,1.55.46A4,4,0,0,0,27.41,16.83Z"/><ellipse class="cls-17" cx="26.23" cy="15.97" rx="0.45" ry="0.5"/><ellipse class="cls-17" cx="25" cy="16.02" rx="0.23" ry="0.25"/></svg>