<svg id="Animals&#x52A8;&#x7269;" xmlns="http://www.w3.org/2000/svg" viewbox="0 0 128 128" width="128" height="128"><defs><style>.cls-1{fill:#817d79;stroke:none;}.cls-2{fill:#fccd35;stroke:none;}.cls-3{fill:#dbdddf;stroke:none;}.cls-4{fill:#b4b3b1;stroke:none;}.cls-5{fill:#5e4c48;stroke:none;}.cls-6{fill:#422a1e;stroke:none;}.cls-7{fill:#3a231a;stroke:none;}.cls-8{fill:#331f17;stroke:none;}.cls-9{fill:#5a3a2c;stroke:none;}.cls-10{fill:#b19326;stroke:none;}.cls-11{fill:#0c0601;stroke:none;}.cls-12{fill:#ebebec;stroke:none;}.cls-13{fill:#e9e5e4;stroke:none;}.cls-14{fill:#bcbbb9;stroke:none;}.cls-15,.cls-18{fill:#fff;stroke:none;}.cls-15{stroke:#231f20;stroke-linecap:round;stroke-linejoin:round;stroke-width:0.13px;}.cls-16{fill:#fcee21;stroke:none;}.cls-17{fill:#231f20;stroke:none;}.cls-19{fill:#febd0f;stroke:none;}.cls-20{fill:#c44a68;stroke:none;}</style></defs><title>animals&#x52A8;&#x7269;</title><path class="cls-1" d="M54.36,117.15a1.12,1.12,0,0,1,.25,1.08,3.9,3.9,0,0,1-1,1.14s1.69.14,1.92-1.28a1.81,1.81,0,0,0-.56-1.92Z"/><path class="cls-1" d="M37.2,111.48s0,1.32-.61,1.64a1.91,1.91,0,0,1-1.36,0s1.55.91,2.34.09a2.35,2.35,0,0,0,.56-2Z"/><path class="cls-1" d="M26.76,108.24a1.94,1.94,0,0,0,1,3.1s-.84-1.32-.52-1.69.89-1.09.89-1.09a1.51,1.51,0,0,0,.09,1.09,1.81,1.81,0,0,0,1,.82s-.61-.82-.47-1.41a5.56,5.56,0,0,0,.14-1.14,5.46,5.46,0,0,0-1.17,0C27.46,108.06,26.76,108.24,26.76,108.24Z"/><path class="cls-2" d="M54.18,108.22A14.28,14.28,0,0,1,50,111.35c-2.22.94-5.83,2-5.95,2.22a4.13,4.13,0,0,1-.84.94c-.24.18-.9.53-1,.88s.6.87.6.87a3.08,3.08,0,0,0,0,1.55,3.3,3.3,0,0,0,.72,1.1,2.08,2.08,0,0,0,.84,1.17,3.07,3.07,0,0,0,1.44.41s-1.08-.82-1-1.4l.12-.59s1.14-.12,1.44-.88.18-1.4.72-1.46a1.65,1.65,0,0,0,1.44-.7c.36-.59.78-1.52,1.32-1.35s.9.53,1.2.35.36-.94.84-.41.3,1.76.78,2.17.9,1.29,1.62.94,1.44-.94.66-1.76a6.2,6.2,0,0,1-1.56-2.87c0-.59.3-1,1.14-1.4a8.05,8.05,0,0,1,1.61-.58,2.43,2.43,0,0,0-.41-2.23A1.14,1.14,0,0,0,54.18,108.22Z"/><path class="cls-2" d="M38,104.13a8.49,8.49,0,0,1-2.6,1.51,7.83,7.83,0,0,1-3-.27c-1.08-.32-1.87-1.09-2.34-.73a10.54,10.54,0,0,0-1.08,1,4.78,4.78,0,0,0-.75.46c-.28.23-1.08.41-1.08.73a.45.45,0,0,0,.33.41s-.84.46-.75,1,.28.78.89.68,1,0,1.36-.46l.37-.46a1.81,1.81,0,0,0,.89,0c.33-.14.75-.41,1.17-.18a1.43,1.43,0,0,0,1.36.09c.47-.23.61-.46,1-.27a2.19,2.19,0,0,0,1.26.41c.56,0,.52,0,.84.59a3.41,3.41,0,0,1,.37,1.51c.09.59.33,1.82.8,1.82s2,0,1.36-.87-1-1.64-.84-2a2.23,2.23,0,0,0-.09-1.32c-.14-.55-.19-1.28.52-1.55s1.31-.27,1.83-.55.89-.5.89-.5-.09-1.28-.84-1.6S38,104.13,38,104.13Z"/><path class="cls-3" d="M75.68,87.75s23.68.35,23,1.06A16.4,16.4,0,0,1,95,90.62s3.35.6,6.35.85,7,.85,3.87,1.36a28.57,28.57,0,0,1-6.91.25l-3.35-.25s5,1.51,6.24,2.51.83,2,.83,2,5.47,1.36,5.93,2.51.57,2-.62,1.51-3.46-1-3.46-1,3.25,2,2.37,2.21a24.15,24.15,0,0,1-3.87,0s5.88,3.52,5.06,3.47-5.26-.65-5.26-.65,6,3.12,4.44,3.22-7.79-2.86-10.52-4.42-5.16-2.71-5.16-2.71a1.29,1.29,0,0,1-1.14.45,4.77,4.77,0,0,1-1.14-.45,1.25,1.25,0,0,1-1.5.15c-.83-.5-2-1.11-2-1.11a2,2,0,0,1-1.44.1,5.38,5.38,0,0,1-1.44-.7s-.62-.65-1.19-.15-1,1.31-1.65,1.16a8,8,0,0,1-1.19-.4s-.46,1-1.29.6a4.73,4.73,0,0,1-1.14-.7s-.21.55-.52.5l-.67-.1s.26,1.76-.52,2a.88.88,0,0,1-1.08-.55s0,1.21-.88.7-5.06-1.86-1-7.19S75.68,87.75,75.68,87.75Z"/><path class="cls-4" d="M90.9,101.47s.95.45,2.33,1.17C92.76,101.73,90.9,101.47,90.9,101.47Z"/><path class="cls-4" d="M86.82,91.07a81.37,81.37,0,0,0,8.1,1.76S89.5,91.42,86,90.32a26.37,26.37,0,0,1-5.33-2.47l-5-.09s-.41,2.71-4.49,8,.1,6.68,1,7.19.88-.7.88-.7a.88.88,0,0,0,1.08.55c.77-.25.52-2,.52-2l.67.1c.31.05.52-.5.52-.5a4.73,4.73,0,0,0,1.14.7c.83.4,1.29-.6,1.29-.6a8,8,0,0,0,1.19.4c.62.15,1.08-.65,1.65-1.16s1.19.15,1.19.15a5.38,5.38,0,0,0,1.44.7,2,2,0,0,0,1.44-.1s1.14.6,2,1.11a1.25,1.25,0,0,0,1.5-.15,4.77,4.77,0,0,0,1.14.45,1.29,1.29,0,0,0,1.14-.45S83.83,97,83.67,96.85s-.36.55-1,1.21-.83-.2-.83-.2a2.39,2.39,0,0,1-1,.9c-.77.45-1.29-.55-1.29-.55a3.71,3.71,0,0,1-1.39,1.21c-.77.3-1-.55-1.19-1.06s-.72.3-1.39.05.31-.65,1-.9.83-.85,1.7,0,1.91-.3,1.91-.3L81,95.59a5.08,5.08,0,0,0,1.7-1.36c.41-.7,1.29-.45,3-.2s-.67-.25-2.27-1.06,1.14-.65,2.37-.55-2.32-1.61-3.2-2.51S83.88,90.17,86.82,91.07Z"/><path class="cls-5" d="M43.06,88.38s3.36,5.11,2.87,6.48A7.46,7.46,0,0,1,43.2,98.4a7.79,7.79,0,0,0-2.73,2.45c-.7,1.09-1.82,1.77-2.1,2.32a3.68,3.68,0,0,0-.35,1s.77-.68,1.4-.14.91,1.77,1.54,1.91,1.89-.41,2.66-.07,2.66,2.32,2.73,1.77a6,6,0,0,0-.63-2,5.62,5.62,0,0,0,2.24,0,3.24,3.24,0,0,0,1.26-.61,3.94,3.94,0,0,1-1.47-.34c-.35-.27-.91-.82-.91-.82a9.81,9.81,0,0,0,3.15.27,4.62,4.62,0,0,0,1.75-.55s-2.1-1.16-1.26-1a2.86,2.86,0,0,0,2-.14,10.19,10.19,0,0,0,1-.55,7.11,7.11,0,0,1-1.33-1.43c-.14-.41-.07-.34.63.14a6.66,6.66,0,0,0,2.24,1l1.61.41a4.53,4.53,0,0,1-.63,2.52c-.7.89-2.17,2.18-2,2.59a6,6,0,0,1,.21,1,1,1,0,0,1,1.26.61c.42,1,.77,1.7.77,1.7a9.82,9.82,0,0,0,1.33.48,5,5,0,0,1,2.73,1.36c.7.89,1,2.32,1.33,1.7a12.9,12.9,0,0,0,.56-1.84s.77,1.84,1,1.57a5.9,5.9,0,0,0,.63-1.57s.21,1.84.56,1.23a20,20,0,0,0,.84-1.84s.42,1.09.56.48a8.29,8.29,0,0,0,.14-2.66,6.59,6.59,0,0,0-.42-1.36,2.62,2.62,0,0,0,.94.75c.49.17,1.2.17.85-.13a5.34,5.34,0,0,1-.8-1.43s.76.52,1.16.78.67.74.85.56a2.09,2.09,0,0,0,0-1.69,6.16,6.16,0,0,0-.54-1s1.69,1,1.74.65a11.84,11.84,0,0,0-.13-1.74,6.64,6.64,0,0,0-.27-1s1.83,3.3,2,2.39a11.56,11.56,0,0,0-.54-3.35s1.92.52,1.65.22-1.25-1.91-1.25-1.91,2.27.56,1.83.26a12.12,12.12,0,0,1-1.47-1.65s2.14.65,1.87.26-.71-1.22-.71-1.22,1.69.26,1.74-.26a8.26,8.26,0,0,0-.22-1.69s1.83.74,1.87.22-.36-1.91.22-1.26a1.87,1.87,0,0,0,1.52.83c.54,0,1.47,1.26,1.52.61a7.76,7.76,0,0,0,0-1.13,9.19,9.19,0,0,0,.31-2.56,11,11,0,0,0-1.16-3s2.45.3,1.74,0-6.38-4.08-8.65-5.78a14.79,14.79,0,0,1-3.57-3.91,27.42,27.42,0,0,0,2.94.87,13.21,13.21,0,0,0,2.85.17l-1.56-.91s2,.26,2.81.43a6.75,6.75,0,0,0,1.87,0L75.39,79.9s1.74.3,2.1.43l.36.13s-.71-1.13-1-1.61a2.94,2.94,0,0,1-.4-1,30,30,0,0,0,3.35.91,13.47,13.47,0,0,0,1.87.17s-.89-1.09-1.25-1.65a3.62,3.62,0,0,1-.45-.91,11,11,0,0,0,2.05.39,3.82,3.82,0,0,0,1.16-.17,11.59,11.59,0,0,1-1.47-1.26c-.4-.48-.58-1.13-.62-1s2.77.39,3-.17-.31-1.26-.31-1.26a1.6,1.6,0,0,0,1.38-.74,1.84,1.84,0,0,0,.09-1.56,1.06,1.06,0,0,0,1.29-.52,1.83,1.83,0,0,0,.18-1.39,1,1,0,0,0,1.12-.65,1.7,1.7,0,0,0,0-1.56,2.4,2.4,0,0,0,2.1-.91,10,10,0,0,0,.94-1.78s6.6-2.74,5.93-3.65-2.1.26-3.57.61l-1.47.35a40.59,40.59,0,0,0,10.08-5.52c4.37-3.48,5-5.47,4.15-5.43s-2.81,1.52-5.93,3-7.36,2.91-7.36,2.91,7-5.08,10.62-10.78,3.48-8.6,2.68-8.6-1.69,2.26-3.84,4.61-5,4.82-5,4.82A83.62,83.62,0,0,0,103.48,37c1.92-3.56,2.36-6.91,1.65-6.26s-2.77,4.13-3.84,5.34-2.45,2.52-2.45,2.52,4.82-9,3.26-8.34-4.86,4.26-4.86,4.26,4.86-11.56,4-11.34-3.7,4.39-5,6.08a33.85,33.85,0,0,1-3.08,3.39S98.53,21.9,99.6,17.9s.8-7.78-.27-7.21-2.94,5.6-2.94,5.6,1.12-9.17-.13-9.6-2,5.3-2.68,7.39-.89,2.22-.89,2.22.22-6.17-.89-6.26-.89,0-1.65,3.26A76.45,76.45,0,0,1,84.48,28c-2,3.43-4.24,6.52-4.77,7.26a21.1,21.1,0,0,1-1.61,1.82s.09-1.65-.45-.78a17.61,17.61,0,0,1-2.77,3.91A16,16,0,0,1,72,42.36s1.74-6,.76-5-2.14,4.43-3.48,6.08-3.79,4.78-4.33,7.34-1.29,6.91-2.68,9.95a21.84,21.84,0,0,1-1.69,3.39s-2.1-1-1.52-1.22,1.16-.48,1.16-.48a12.83,12.83,0,0,0-1.74-1c-.49-.17-.76-.52,0-.48l.76,0a6.58,6.58,0,0,0-1.65-1.35c-.71-.3-1.69-.43-.8-.78A12.11,12.11,0,0,0,58.53,58a9.51,9.51,0,0,1-1.65-.13,3.49,3.49,0,0,1-.89-.39l1.12-1.13A8.9,8.9,0,0,0,55,56.09a4.34,4.34,0,0,1-1.16,0,6,6,0,0,0,1.29-1.3,1,1,0,0,0,0-1,1.35,1.35,0,0,1-.8.61,3.75,3.75,0,0,1-1.12.22s1.56-2.65.89-2.3-2.36,1.13-2.36,1.13a13.53,13.53,0,0,0,1-1.82l0-.3a33.12,33.12,0,0,0,3-2.48c.67-.74,1.2-1.39,1.2-1.39a10,10,0,0,0-2,.35c-.49.22-1.25.48-1.25.48s3.43-4,3.75-6.39,0-2.13-.18-1.87a8,8,0,0,1-1.52.83,12.05,12.05,0,0,0,.54-3.17A1.73,1.73,0,0,0,56,36.49a10.09,10.09,0,0,1-1,1.26c-.49.48-1.16.7-1.16.83a12.12,12.12,0,0,0,.31-3.48c-.18-1.3-.76-1.35-.76-1.35a7.62,7.62,0,0,1-.89,3.08c-.76,1.13-2.14,2.91-2.14,2.91s2.05-6.3,1.87-9.56S51,26.81,51,26.81a14,14,0,0,1-.54,3c-.4,1.09-.85,1.91-.89,2a101.42,101.42,0,0,0-.49-10.34c-.54-3.22-1.69-4.08-2-3.39s.36,3.65.18,5.87a11.29,11.29,0,0,1-.4,2.74s-.62-6.26-1.87-9.38-2.45-2.48-2.45-2.48-1.38-3-2.1-2.74S41,16.9,40.73,21a45,45,0,0,1-1.12,7.39s-.71-9-3.08-13.82-3.88-5.21-4.19-4.91.94,5.08,1.78,9.21a25.71,25.71,0,0,1,.67,6.43s-2-7.91-5.13-13.34S24.49,5.52,24,6.17s1.25,3.65,2.36,6.91,1.92,6.47,1.92,6.47-2.19-3.74-3.08-4.91a7.66,7.66,0,0,0-2.19-1.87,40.73,40.73,0,0,1,1.87,5.65,33.43,33.43,0,0,1,.76,5,9.7,9.7,0,0,0-1.61-1.61,5.86,5.86,0,0,0-1-.56,30.94,30.94,0,0,1,2.85,8.17C27,34.5,28,43.53,28,43.53S25.39,41,25,41.36s1.78,3.48,2.32,5.13,1,2.91,1,2.91-1-.83-.49.56.62,2.87,3.3,4.78A23.81,23.81,0,0,1,38,63.17c1.34,2.91,2.77,5.34,2.77,6.56a22.68,22.68,0,0,1-.22,2.74Z"/><path class="cls-6" d="M83.15,76.64a11.59,11.59,0,0,1-1.47-1.26,5,5,0,0,1-.56-1c.41.13,2.73.3,3-.21s-.31-1.26-.31-1.26a1.6,1.6,0,0,0,1.38-.74,1.84,1.84,0,0,0,.09-1.56c-.08-.17-1.41.57-3.48.47a25.28,25.28,0,0,1-5.93-1.71,11.07,11.07,0,0,0,1.75-.3c1.39-.3-1.14-1.26-1.34-1.26a10.87,10.87,0,0,1,2.32-1c1.19-.4-1.08-1.31-1.08-1.31A6.91,6.91,0,0,0,79.7,65c1.14-.5-2.37-1-2.37-1a10.66,10.66,0,0,0,2.42-.3c1.08-.3-.88-.35-.88-.35A11.32,11.32,0,0,0,81,62.17c1-.75-2.37-.9-2.63-.9a10.52,10.52,0,0,0,2.89-1.11c1.6-1,.05-1.21.05-1.21a6.74,6.74,0,0,0,1.24-1.46c.62-1-2.58-.55-2.58-.55a18.09,18.09,0,0,0,3.71-2.56c1.29-1.31-3.41-.15-3.41-.15A13.82,13.82,0,0,0,83.78,52c1.24-1.26-4.39.2-4.39.2a16.89,16.89,0,0,0,3.66-3.07c1.75-2-2.68-.4-2.68-.4a10.17,10.17,0,0,0,2.84-3.57c1.55-2.76-2.84.25-2.84.25a47.21,47.21,0,0,0,3.56-4.62c1.39-2.16-3.1.45-3.1.45a31.3,31.3,0,0,0,2.53-3.42c1.29-2-1.55-.45-1.55-.45l.72-1.71c.72-1.71-1.55.1-1.55.1a2.71,2.71,0,0,1,.46-.9,3.1,3.1,0,0,0,.1-1.91l-.08-.17C80.64,34,80,34.92,79.71,35.28a21.1,21.1,0,0,1-1.61,1.82s.09-1.65-.45-.78a17.61,17.61,0,0,1-2.77,3.91A16,16,0,0,1,72,42.36s1.74-6,.76-5-2.14,4.43-3.48,6.08S65.64,48,65,50.51A4.59,4.59,0,0,1,64.89,52c-.46,1.51-1.44,11-2.48,13.27S57,71.07,55.35,72.17s-7.17,1.66-8.46,1.61a3.94,3.94,0,0,0-2.37.85S43.23,83.38,43,84.74s1.6,5.09,2.83,7,.25,4.09-.26,5.14-4.35,4.06-5.38,5-.25,1.61.37,2.22a7.27,7.27,0,0,1,1.37,1.74,3.28,3.28,0,0,1,1.72,0c.77.34,2.66,2.32,2.73,1.77a6,6,0,0,0-.63-2,5.62,5.62,0,0,0,2.24,0,3.24,3.24,0,0,0,1.26-.61,3.94,3.94,0,0,1-1.47-.34c-.35-.27-.91-.82-.91-.82a9.81,9.81,0,0,0,3.15.27,4.62,4.62,0,0,0,1.75-.55s-2.1-1.16-1.26-1a2.86,2.86,0,0,0,2-.14,10.2,10.2,0,0,0,1-.55,7.11,7.11,0,0,1-1.33-1.43c-.14-.41-.07-.34.63.14a6.66,6.66,0,0,0,2.24,1l1.61.41a4.53,4.53,0,0,1-.63,2.52c-.7.89-2.17,2.18-2,2.59a6,6,0,0,1,.21,1,1,1,0,0,1,1.26.61c.42,1,.77,1.7.77,1.7a9.82,9.82,0,0,0,1.33.48,5,5,0,0,1,2.73,1.36c.7.89,1,2.32,1.33,1.7a12.9,12.9,0,0,0,.56-1.84s.77,1.84,1,1.57a5.9,5.9,0,0,0,.63-1.57s.21,1.84.56,1.23a20,20,0,0,0,.84-1.84s.42,1.09.56.48a8.29,8.29,0,0,0,.14-2.66,6.58,6.58,0,0,0-.42-1.36,2.62,2.62,0,0,0,.94.75c.49.17,1.2.17.85-.13a5.34,5.34,0,0,1-.8-1.43s.76.52,1.16.78.67.74.85.56a2.09,2.09,0,0,0,0-1.69,6.16,6.16,0,0,0-.54-1s1.69,1,1.74.65a11.85,11.85,0,0,0-.13-1.74,6.65,6.65,0,0,0-.27-1s1.83,3.3,2,2.39a11.57,11.57,0,0,0-.54-3.35s1.92.52,1.65.22-1.25-1.91-1.25-1.91,2.27.56,1.83.26a12.13,12.13,0,0,1-1.47-1.65s2.14.65,1.87.26-.71-1.22-.71-1.22,1.69.26,1.74-.26a8.26,8.26,0,0,0-.22-1.69s1.83.74,1.87.22-.36-1.91.22-1.26a1.87,1.87,0,0,0,1.52.83c.54,0,1.47,1.26,1.52.61a7.77,7.77,0,0,0,0-1.13,9.19,9.19,0,0,0,.31-2.56,11,11,0,0,0-1.16-3s2.45.3,1.74,0-6.38-4.08-8.65-5.78a14.79,14.79,0,0,1-3.57-3.91,27.43,27.43,0,0,0,2.94.87,13.21,13.21,0,0,0,2.85.17l-1.56-.91s2,.26,2.81.43a6.75,6.75,0,0,0,1.87,0L75.39,79.9s1.74.3,2.1.43l.36.13s-.71-1.13-1-1.61a2.94,2.94,0,0,1-.4-1,30,30,0,0,0,3.35.91,13.47,13.47,0,0,0,1.87.17s-.89-1.09-1.25-1.65a3.62,3.62,0,0,1-.45-.91,11,11,0,0,0,2.05.39A3.82,3.82,0,0,0,83.15,76.64Z"/><path class="cls-7" d="M83.15,76.64a11.59,11.59,0,0,1-1.47-1.26,5,5,0,0,1-.56-1c.41.13,2.73.3,3-.21s-.31-1.26-.31-1.26a1.6,1.6,0,0,0,1.38-.74,1.84,1.84,0,0,0,.09-1.56c-.08-.17-1.41.57-3.48.47a25.28,25.28,0,0,1-5.93-1.71,11.07,11.07,0,0,0,1.75-.3c1.39-.3-1.14-1.26-1.34-1.26a10.87,10.87,0,0,1,2.32-1c1.19-.4-1.08-1.31-1.08-1.31A6.91,6.91,0,0,0,79.7,65c1.14-.5-2.37-1-2.37-1a10.66,10.66,0,0,0,2.42-.3c1.08-.3-.88-.35-.88-.35A11.32,11.32,0,0,0,81,62.17c1-.75-2.37-.9-2.63-.9a10.52,10.52,0,0,0,2.89-1.11c1.6-1,.05-1.21.05-1.21a6.74,6.74,0,0,0,1.24-1.46c.62-1-2.58-.55-2.58-.55a18.09,18.09,0,0,0,3.71-2.56c1.29-1.31-3.41-.15-3.41-.15A13.82,13.82,0,0,0,83.78,52c1.24-1.26-4.39.2-4.39.2a16.89,16.89,0,0,0,3.66-3.07c1.75-2-2.68-.4-2.68-.4a10.17,10.17,0,0,0,2.84-3.57c1.55-2.76-2.84.25-2.84.25a47.21,47.21,0,0,0,3.56-4.62c1.39-2.16-3.1.45-3.1.45a31.3,31.3,0,0,0,2.53-3.42c1.29-2-1.55-.45-1.55-.45l.72-1.71c.72-1.71-1.55.1-1.55.1a2.71,2.71,0,0,1,.46-.9,3.1,3.1,0,0,0,.1-1.91l-.08-.17C80.64,34,80,34.92,79.71,35.28a21.1,21.1,0,0,1-1.61,1.82s.09-1.65-.45-.78a17.61,17.61,0,0,1-2.77,3.91A16,16,0,0,1,72,42.36,40.16,40.16,0,0,0,73,38a33.51,33.51,0,0,1-1.85,4.84c-1,1.82-4.44,8-4.38,9.79s.32,5.77-.84,8.47S60.63,70,61.47,74s5,8.78,7,10.6,4.89,4.83,4.7,6.46-.71,3.26-.06,4a19.77,19.77,0,0,1,1.24,2.18c0-.27-.09-.46-.09-.46s1.83.74,1.87.22-.36-1.91.22-1.26a1.87,1.87,0,0,0,1.52.83c.54,0,1.47,1.26,1.52.61a7.77,7.77,0,0,0,0-1.13,9.19,9.19,0,0,0,.31-2.56,11,11,0,0,0-1.16-3s2.45.3,1.74,0-6.38-4.08-8.65-5.78a14.79,14.79,0,0,1-3.57-3.91,27.43,27.43,0,0,0,2.94.87,13.21,13.21,0,0,0,2.85.17l-1.56-.91s2,.26,2.81.43a6.75,6.75,0,0,0,1.87,0L75.39,79.9s1.74.3,2.1.43l.36.13s-.71-1.13-1-1.61a2.94,2.94,0,0,1-.4-1,30,30,0,0,0,3.35.91,13.47,13.47,0,0,0,1.87.17s-.89-1.09-1.25-1.65a3.62,3.62,0,0,1-.45-.91,11,11,0,0,0,2.05.39A3.82,3.82,0,0,0,83.15,76.64Z"/><path class="cls-8" d="M58.7,91.44a4.57,4.57,0,0,0-1.22,1.38c-.84,1.19.32.69-1.74,1.38s-1.22.56-1.22.56l-2,1.19a18.94,18.94,0,0,1-3.48-.5c-1.74-.44.13,2.07.64,3.58s-1,.75-1,.75l-.26.63-1.22.5a1,1,0,0,1-1.48.31c-.9-.63,0,1.19-1.55,1.25s-.52,1.51.45,2c.71.37,1.38,2.12,1.69,3a6.73,6.73,0,0,0-.63-1.89,5.62,5.62,0,0,0,2.24,0,3.24,3.24,0,0,0,1.26-.61,3.94,3.94,0,0,1-1.47-.34c-.35-.27-.91-.82-.91-.82a9.81,9.81,0,0,0,3.15.27,4.62,4.62,0,0,0,1.75-.55s-2.1-1.16-1.26-1a2.86,2.86,0,0,0,2-.14,10.2,10.2,0,0,0,1-.55,7.11,7.11,0,0,1-1.33-1.43c-.14-.41-.07-.34.63.14a6.66,6.66,0,0,0,2.24,1l1.61.41s.32-1.23.58-2.61a28.69,28.69,0,0,1,2.13-5.77A1.63,1.63,0,0,0,58.7,91.44Z"/><path class="cls-9" d="M60.53,64.17s-2.1-1-1.52-1.22,1.16-.48,1.16-.48a12.83,12.83,0,0,0-1.74-1c-.49-.17-.76-.52,0-.48l.76,0a6.58,6.58,0,0,0-1.65-1.35c-.71-.3-1.69-.43-.8-.78A12.11,12.11,0,0,0,58.53,58a9.51,9.51,0,0,1-1.65-.13,3.49,3.49,0,0,1-.89-.39l1.12-1.13A8.9,8.9,0,0,0,55,56.09a4.34,4.34,0,0,1-1.16,0,6,6,0,0,0,1.29-1.3,1,1,0,0,0,0-1,1.35,1.35,0,0,1-.8.61,3.75,3.75,0,0,1-1.12.22s1.56-2.65.89-2.3-2.36,1.13-2.36,1.13a13.53,13.53,0,0,0,1-1.82l0-.3-2,.47a14.18,14.18,0,0,1,.71-2.38c.58-1.57-2.45,1.07-2.45,1.07a7.39,7.39,0,0,0,.77-1.76c.45-1.32-1.61.44-1.61.44s.06-1.07.06-2.32S46.85,48,46.85,48a12,12,0,0,0,0-2.38C46.72,44.2,45.17,47,45.17,47A7.46,7.46,0,0,0,45,44.39C44.72,43.2,43.82,46,43.82,46a22.66,22.66,0,0,1-.52-2.45c-.26-1.57-1.22,2-1.22,2a5.53,5.53,0,0,0-.58-1.88c-.58-1.32-1.16,1.51-1.16,1.51s-.26-.38-.9-1.57-1,1.94-1,1.94-.26-.75-1-2.38-1,2.7-1,2.7a10.91,10.91,0,0,1-1.35-2.51c-.77-1.82-.84,2.45-.84,2.45a30.81,30.81,0,0,0-1.74-4c-.84-1.44-.52,4.71-.52,4.71s-.64-1.25-1.48-2.82-.32,4.77-.32,4.77-.26-1.32-.58-2.32A11.56,11.56,0,0,0,28,43.53S25.39,41,25,41.36s1.78,3.48,2.32,5.13,1,2.91,1,2.91-1-.83-.49.56.62,2.87,3.3,4.78A23.81,23.81,0,0,1,38,63.17c1.34,2.91,2.77,5.34,2.77,6.56a20.84,20.84,0,0,1-.17,2.36c.62-.16,1.21-.3,1.52-.35.84-.13,6,0,6,0a35,35,0,0,0,6.79-2C58.7,68.23,60.53,64.17,60.53,64.17Z"/><path class="cls-6" d="M53.22,66c-.32-1.38-3.16-5.83-3.16-5.83a26.78,26.78,0,0,1-3.28-2.07c-2.13-1.51-8.89-2.7-10.11-2.2s-.45,2.63.84,3.45,3.09,4.89,4.19,6.78c.93,1.6,1.39,4.73,1.55,5.53,1.8,0,4.86,0,4.86,0a34.66,34.66,0,0,0,6.37-1.81C54.07,68.77,53.44,67,53.22,66Z"/><path class="cls-1" d="M44.39,120.07a3.07,3.07,0,0,0,1.44.41s-1.08-.82-1-1.4l.12-.59a1.75,1.75,0,0,1-.77-.4c-.23-.27-.47-.59-.47-.59l-.21,1.41A2.08,2.08,0,0,0,44.39,120.07Z"/><path class="cls-1" d="M43.55,118.9l.21-1.41c0-.05-.37-.25-.57-.45a2.45,2.45,0,0,1-.3-1,2.41,2.41,0,0,0-.23,1.81A2.12,2.12,0,0,0,43.55,118.9Z"/><path class="cls-10" d="M43.75,117.5a4.51,4.51,0,0,1,.61-1.14c.54-.84.86-1.58,1.5-1.71a2.37,2.37,0,0,0,1.31-.47,4,4,0,0,1,1.44-.75,1.6,1.6,0,0,0,1-.44l.16-.22s.15.48-.57.7a4.83,4.83,0,0,0-1.27.54c-.32.2-.6.64-1.19.75s-.85,0-1.37.77S44,117.79,44,117.79Z"/><path class="cls-10" d="M42.88,116.1a17.6,17.6,0,0,0,1.23-1.29c.15-.24-.07-.78.69-.81a3.18,3.18,0,0,0,1.69-.46A8,8,0,0,1,48,113a7.84,7.84,0,0,0,.75-.36s-.15.37-.92.64a12.25,12.25,0,0,1-2,.78c-.77.13-1.12.23-1.25.39a3.9,3.9,0,0,1-.74,1.09,7.62,7.62,0,0,1-1,.91Z"/><path class="cls-10" d="M27.51,107.28a.84.84,0,0,0,.62-.15c.23-.21.33-.42.85-.36s1.14-.37,1.79-.24,1.05.37,1.57.21l.52-.16a5.88,5.88,0,0,1-1.1,0,4.33,4.33,0,0,0-1.3-.28,5.57,5.57,0,0,0-1.86.16c-.32.21-.55.59-.8.6S27.51,107.28,27.51,107.28Z"/><path class="cls-10" d="M29,105.68s.13.26,1.15.29,2.51,0,2.51,0-2.49-.1-3-.2-.54-.26-.54-.26Z"/><path class="cls-11" d="M25.7,23.46s3.06,4.68,3.82,7.87a54.27,54.27,0,0,1,.86,8.78s-.4-7.21-2-10.74S25,22.89,25,22.89Z"/><path class="cls-11" d="M28.33,19.55a56.18,56.18,0,0,1,3.55,12.61,68.12,68.12,0,0,1,.86,9.27s-.6-9.17-2.06-13.78-3.27-9.27-3.27-9.27Z"/><path class="cls-11" d="M34.8,25.29a35.32,35.32,0,0,1,1.31,9.53c.05,5.59-.4,6-.4,6a48.87,48.87,0,0,0-.25-8.53c-.55-4.27-1.31-8.78-1.31-8.78Z"/><path class="cls-11" d="M39.61,28.37a46.61,46.61,0,0,1-.18,7.13,37.31,37.31,0,0,1-1.51,7s.81-4.81,1.16-8.49a65,65,0,0,0,.05-8.49Z"/><path class="cls-11" d="M42.6,14.86a34.16,34.16,0,0,1,1.87,13.33c-.65,6.57-4,15-4,15s3.32-10,3.47-15.5A68.1,68.1,0,0,0,42.6,14.86Z"/><path class="cls-11" d="M46.93,26.72a34.34,34.34,0,0,1-1,7A45.18,45.18,0,0,1,42.3,43s2.82-6.87,3.42-10.3S46.93,26.72,46.93,26.72Z"/><path class="cls-11" d="M49.53,31.76a22.7,22.7,0,0,1-1.34,6.11C47,40.92,46.1,43,46.05,43.1a27.24,27.24,0,0,0,3.05-7A12.09,12.09,0,0,0,49.53,31.76Z"/><path class="cls-11" d="M50.32,39.67a14.25,14.25,0,0,1-1.51,3.6c-1,1.59-1.21,1.55-1.21,1.55a4.53,4.53,0,0,0,2-2.55C50.45,40.25,50.4,39.71,50.32,39.67Z"/><path class="cls-11" d="M53.71,38.41a11.48,11.48,0,0,1-1.51,3.51A33,33,0,0,1,50,45a11.78,11.78,0,0,0,3-3.6A9.75,9.75,0,0,0,53.71,38.41Z"/><path class="cls-11" d="M55.88,40.79a19,19,0,0,1-2.55,3.76c-1.25,1.25-2,2.09-2,2.09a15.31,15.31,0,0,0,3.51-3.47A5.87,5.87,0,0,0,55.88,40.79Z"/><path class="cls-11" d="M46,90.53s.49.78,1,.48.27-.48.27-.48a1.13,1.13,0,0,0,1.16.09c.54-.35.36-1.13.36-1.13s1.21.87,1.7.35-.18-1.09-.18-1.09a1.11,1.11,0,0,0,1-.09c.54-.3-.22-1-.22-1s1.43,1.35,2,.65,0-1.83,0-1.83L52.7,86s.6,1.13,0,1.83-1.94-.65-1.94-.65.73.74.22,1a1,1,0,0,1-.95.09s.65.57.17,1.09S48.6,89,48.6,89s.17.78-.35,1.13a1.06,1.06,0,0,1-1.12-.09s.22.17-.26.48-.95-.48-.95-.48Z"/><path class="cls-11" d="M60.37,109.62s.77.52,1.09,0,.05-.55.05-.55a.95.95,0,0,0,1-1.57s1.46.31,1.69-.37-.61-.92-.61-.92a1.11,1.11,0,0,0,.86-.48c.37-.5-.63-.86-.63-.86s1.86.65,2.1-.22-.78-1.65-.78-1.65l-.49-.28s1,.79.78,1.65-2,.19-2,.19,1,.38.62.87a1,1,0,0,1-.83.47s.82.25.6.92-1.64.35-1.64.35a1.16,1.16,0,0,1,.14,1.17,1.06,1.06,0,0,1-1.06.38s.27.07,0,.54-1.06-.05-1.06-.05Z"/><path class="cls-11" d="M56.6,77.11s1.38.35,1.36,1-1.63.55-1.63.55a1.41,1.41,0,0,1,.44.92c0,.48-.3.55-.3.55a.91.91,0,0,1,.37.74c0,.5-.25.59-.25.59a.77.77,0,0,1,.34.7c0,.46-1.52.26-1.52.26a.78.78,0,0,1,.48.79c-.07.57-1.56.13-1.56.13s1.9.8,2.07.07a.6.6,0,0,0-.48-.81s1.47.2,1.52-.27a.79.79,0,0,0-.34-.72s.25-.09.25-.6A.94.94,0,0,0,57,80.2s.28-.07.3-.56a1.46,1.46,0,0,0-.44-.94s1.61.07,1.63-.56-1.36-1-1.36-1Z"/><path class="cls-11" d="M70.3,96.2c1,.4-1.18.67-1.18.67s0,.36.64.87-2.09.93-2.09.93a4.93,4.93,0,0,1,.68.61c.38.41-1.84.91-1.84.91a4.55,4.55,0,0,1,.9.76c.56.57-.83.66-.83.66l.53.15s1.42-.07.84-.68a4.85,4.85,0,0,0-.93-.8s2.27-.5,1.87-.93a5.27,5.27,0,0,0-.7-.65s2.84-.4,2.13-.94-.67-.92-.67-.92,2.28-.25,1.2-.68"/><path class="cls-11" d="M69.37,53.34l.91-1.21c.91-1.21-1.51.18-1.51.18l1.35-1.65c1.35-1.65-1.27-.09-1.27-.09L70,48.43c1.19-2.15-1.39,1-1.39,1s.24-.45,1.07-2.1,2.23-5,2.23-5a26.56,26.56,0,0,1-1.85,4.81c-1,1.67-1.25,2.12-1.25,2.12s3-3.16,1.62-1l-1.39,2.17s3.06-1.58,1.48.09L69,52.22s2.83-1.4,1.76-.18l-1.07,1.22Z"/><path class="cls-11" d="M62.92,70.32s.17-.1,1.27.55-.33-1.2-.33-1.2-.2-.75,1.17-.58-.27-.62-.27-.62,0-.62,1.37-1-.8-.62-.8-.62l1.6-.65-.47-1.14s.17-.45,1.27-.88-1-.58-1-.58l1.63-.94-1.23-.16s0-.23,1.53-1.07S68,60.19,68,60.19a17.68,17.68,0,0,0,1.83-1.43c1.17-1-1.53-.58-1.53-.58a7.85,7.85,0,0,0,1.27-.84c.9-.68-.3-.91-.3-.91l.77-.55c.77-.55-.33-1-.33-1l-.53.29s1.1.43.33,1l-.77.53s1.2.22.3.86a7.91,7.91,0,0,1-1.27.8s2.7-.4,1.53.56a17.62,17.62,0,0,1-1.83,1.36s2.23.4.73,1.2-1.53,1-1.53,1l1.23.15-1.63.9s2.07.15,1,.56-1.27.83-1.27.83L66.39,66l-1.6.62s2.13.25.8.59-1.37.93-1.37.93,1.63.74.27.59-1.17.56-1.17.56,1.43,1.76.33,1.14-1.27-.53-1.27-.53Z"/><path class="cls-11" d="M65.4,75.09c1.76.09.18-.9.18-.9s.92-.09,3.17-.21.18-1.54,0-1.67.26.17,1.85.21-1.36-1.89-1.36-1.89a5.64,5.64,0,0,0,3.21.26c2-.34-1.76-1.5-1.76-1.5a8.47,8.47,0,0,0,3.17-.77c2.29-.86-1.89-1.33-2.11-1.37a10.61,10.61,0,0,0,2.73-1c1.76-1-1.89-1.29-1.89-1.29a10.38,10.38,0,0,0,2.33-.51c1.76-.51-2.11-.94-2.11-.94A8.45,8.45,0,0,0,75.56,62c1.63-1.2-2.9-.3-2.9-.3l-1,.41s4.53-.83,2.9.28a8.72,8.72,0,0,1-2.73,1.35s3.87.4,2.11.87a11.09,11.09,0,0,1-2.33.48s3.65.28,1.89,1.19a11.17,11.17,0,0,1-2.73,1c.22,0,4.4.48,2.11,1.27a9,9,0,0,1-3.17.72s3.74,1.07,1.76,1.39a6,6,0,0,1-3.21-.24s2.95,1.79,1.36,1.75-2-.32-1.85-.2,2.2,1.43,0,1.55-3.17.2-3.17.2,1.58.91-.18.83a5.79,5.79,0,0,1-2.6-.6A9.06,9.06,0,0,0,65.4,75.09Z"/><path class="cls-11" d="M92.75,16.29s-.92,6.55-3.55,10.76A78,78,0,0,1,83,35.43S89,27.56,90,24.55,92.75,16.29,92.75,16.29Z"/><path class="cls-11" d="M96.52,16.29s-.67,4-5.1,11A73,73,0,0,1,84.1,37a77.89,77.89,0,0,0,8.4-12.84C96,17.42,96.52,16.29,96.52,16.29Z"/><path class="cls-11" d="M93.14,32.67A33.21,33.21,0,0,1,88.91,38a28.38,28.38,0,0,1-5.1,4.09A44.85,44.85,0,0,0,89,37.19Z"/><path class="cls-11" d="M97.24,34.54A29.33,29.33,0,0,1,92.49,41c-3,3-8.17,7.18-8.17,7.18a109.9,109.9,0,0,0,8.3-8.15C95.49,36.71,97.24,34.54,97.24,34.54Z"/><path class="cls-11" d="M98.85,38.62a32,32,0,0,1-6,6.59,77.71,77.71,0,0,1-8.67,6.27,114.29,114.29,0,0,0,9.53-7.66C97.15,40.57,98.85,38.62,98.85,38.62Z"/><path class="cls-11" d="M97.15,46.14A16.91,16.91,0,0,1,92,50.93a57.08,57.08,0,0,1-8.8,4.58,46.94,46.94,0,0,0,8.57-4.87C95.22,48,97.15,46.14,97.15,46.14Z"/><path class="cls-11" d="M92.65,56.09A20.68,20.68,0,0,1,87.35,58c-3.23.71-5.13,1-5.13,1A45.64,45.64,0,0,0,88,57.49C90.65,56.58,92.65,56.09,92.65,56.09Z"/><path class="cls-11" d="M91.71,61.13a16.91,16.91,0,0,1-5.72.81,26.88,26.88,0,0,1-4.57-.1s3,0,5.73-.26S91.71,61.13,91.71,61.13Z"/><path class="cls-11" d="M90.82,63.82A14.77,14.77,0,0,1,85.29,65a22.36,22.36,0,0,1-5-.26,40,40,0,0,0,5.47,0A42.77,42.77,0,0,0,90.82,63.82Z"/><path class="cls-11" d="M68.07,80.72a7.24,7.24,0,0,1-1.8-1,9.41,9.41,0,0,1-1.44-1.4A19.63,19.63,0,0,0,67,79.84,2.76,2.76,0,0,1,68.07,80.72Z"/><path class="cls-11" d="M72.31,80.86s-.21.25-1.51-.76-2.35-1.87-2.35-1.87,2,1.23,2.74,1.74S72.31,80.86,72.31,80.86Z"/><path class="cls-11" d="M75.39,79.9a13.79,13.79,0,0,1-3.33-1.34,6,6,0,0,1-2.13-1.82,16.08,16.08,0,0,0,3,1.82A17.12,17.12,0,0,1,75.39,79.9Z"/><path class="cls-11" d="M76.41,77.9s-.57.15-2.18-.61a9.34,9.34,0,0,1-2.35-1.48s1.61.81,2.66,1.23S76.41,77.9,76.41,77.9Z"/><path class="cls-11" d="M79.93,76.42A5.49,5.49,0,0,1,77.19,76a25.45,25.45,0,0,1-2.31-1.14,12.57,12.57,0,0,0,2.7,1C79,76.19,79.93,76.42,79.93,76.42Z"/><path class="cls-11" d="M81.11,74.42A10,10,0,0,1,77.86,74a25.74,25.74,0,0,1-2.59-1.37s2.08.91,3,1.16S81.11,74.42,81.11,74.42Z"/><path class="cls-11" d="M83.77,72.95s-2.47-.19-3.87-.48a18.69,18.69,0,0,1-3.27-1.16s2.59.74,4.21,1A23.49,23.49,0,0,1,83.77,72.95Z"/><path class="cls-12" d="M48.11,71.71s-7.34-.46-11.32.2a16.44,16.44,0,0,0-8.69,4.73c-1.82,1.77-2.09,3-2,3.87a6.84,6.84,0,0,0,1.28,2.23,1.88,1.88,0,0,0,1.35.53c.88,0,1.41.13,1.89-.13s1.41-.59,1.41.13S31.27,84.7,31,85.42s1.35-.07,1.35-.07,2.43-.72,3.71-.13,3.77,1.25,4.85,2.1,2.49,1.84,2.49,1.84a7.13,7.13,0,0,0-.51-1.68l-.2-.16a4.27,4.27,0,0,0,1.47,1.21,5.29,5.29,0,0,0,1.67.39,5.9,5.9,0,0,1-1.37-1.14l-.54-.65a7.37,7.37,0,0,0,1.61.62,1.21,1.21,0,0,0,.87-.1A7.62,7.62,0,0,1,45,86.7a5.31,5.31,0,0,1-.67-.94A5.65,5.65,0,0,0,46,86.6a2.17,2.17,0,0,0,1.17,0,7.33,7.33,0,0,1-1-1.08,1.63,1.63,0,0,1-.3-.81,5,5,0,0,0,1.81,1.14,2.53,2.53,0,0,0,1.64,0,11,11,0,0,1-1.64-.91,3.17,3.17,0,0,1-.7-.88,4.85,4.85,0,0,0,1.51.62l.54,0s-.47-.62-.8-1.11l-.33-.49a22.47,22.47,0,0,1,2,1c.47.33.9.59.9.59A5.92,5.92,0,0,0,49.54,83c-.7-.55-1.81-1.24-1.81-1.24a22.84,22.84,0,0,1,2.64,1,3.29,3.29,0,0,0,1.44.42,7.68,7.68,0,0,0-1.91-1.92,12.4,12.4,0,0,0-1.54-.72,17.72,17.72,0,0,1,2.61.13,13.8,13.8,0,0,1,1.67.46A9.28,9.28,0,0,0,50,79.3a3.1,3.1,0,0,1-1.24-.52,14.56,14.56,0,0,0,3.58.29,3.5,3.5,0,0,0,1.47-.52s-2.68-.42-3.55-.68a13.72,13.72,0,0,1-1.64-.62,12,12,0,0,1,2.11-.07l.87.13a11.06,11.06,0,0,0-2.17-1c-.94-.26-1.54-.39-1.54-.39a11.87,11.87,0,0,1,2.64,0,5,5,0,0,0,1.3.16,19.46,19.46,0,0,0-3.28-1.37c-1.37-.36-2-.55-2-.55l2.07-.62a3.91,3.91,0,0,0,1.51-.75s-1.44.07-2.31.07-1.74-.1-1.74-.1a5.64,5.64,0,0,0,1.57-.39A.81.81,0,0,0,48.11,71.71Z"/><path class="cls-13" d="M51.81,83.24a7.68,7.68,0,0,0-1.91-1.92,12.4,12.4,0,0,0-1.54-.72,17.72,17.72,0,0,1,2.61.13,13.8,13.8,0,0,1,1.67.46A9.28,9.28,0,0,0,50,79.3a3.1,3.1,0,0,1-1.24-.52,14.56,14.56,0,0,0,3.58.29,3.5,3.5,0,0,0,1.47-.52s-2.68-.42-3.55-.68a13.72,13.72,0,0,1-1.64-.62,12,12,0,0,1,2.11-.07l.87.13a11.06,11.06,0,0,0-2.17-1c-.94-.26-1.54-.39-1.54-.39a11.87,11.87,0,0,1,2.64,0c.28.06.52.1.71.13l-1.34-.34a40.44,40.44,0,0,0-7.1-1.1c-1.39-.08.74-.55,2.48-.64.78,0,1.81-.14,2.71-.23l.64-.19.35-.12c-1.2-.08-3.25-.19-4.86-.14-2.44.08-8.53.21-12.45,1.65a11.74,11.74,0,0,0-5.55,4.73,2.52,2.52,0,0,0,0,.8,8.33,8.33,0,0,0,1.2,2.36,1.61,1.61,0,0,0,1.3.63c.88,0,1.37.2,1.84-.06s1.4-.37,1.4.36-.62.92-.89,1.64,1.35-.07,1.35-.07,2.43-.72,3.71-.13,3.77,1.25,4.85,2.1,2.49,1.84,2.49,1.84a11.9,11.9,0,0,0-.4-1.49,3.77,3.77,0,0,0,1.16.85,5.29,5.29,0,0,0,1.67.39,5.9,5.9,0,0,1-1.37-1.14l-.54-.65a7.37,7.37,0,0,0,1.61.62,1.21,1.21,0,0,0,.87-.1A7.62,7.62,0,0,1,45,86.7a5.31,5.31,0,0,1-.67-.94A5.65,5.65,0,0,0,46,86.6a2.17,2.17,0,0,0,1.17,0,7.33,7.33,0,0,1-1-1.08,1.63,1.63,0,0,1-.3-.81,5,5,0,0,0,1.81,1.14,2.53,2.53,0,0,0,1.64,0,11,11,0,0,1-1.64-.91,3.17,3.17,0,0,1-.7-.88,4.85,4.85,0,0,0,1.51.62l.54,0s-.47-.62-.8-1.11l-.33-.49a22.47,22.47,0,0,1,2,1c.47.33.9.59.9.59A5.92,5.92,0,0,0,49.54,83c-.7-.55-1.81-1.24-1.81-1.24a22.84,22.84,0,0,1,2.64,1A3.29,3.29,0,0,0,51.81,83.24Z"/><path class="cls-14" d="M29.94,81.22A1.67,1.67,0,0,0,31.57,81a1.18,1.18,0,0,0,.33-1.34,1.37,1.37,0,0,1-.5,1.11A4,4,0,0,1,29.94,81.22Z"/><path class="cls-14" d="M30.74,78.13a6.66,6.66,0,0,1,1.87-.42c1-.07,2.27,0,1.57.13a7.66,7.66,0,0,0-2.11.49,11.27,11.27,0,0,1-1.28.67l-.52-.28Z"/><path class="cls-15" d="M31.24,79.77a1.06,1.06,0,0,1-2.07.26c0-.08.41-.35.53-.51s.13-.77.49-.77A1,1,0,0,1,31.24,79.77Z"/><path class="cls-14" d="M44,84.75a22.28,22.28,0,0,0-8.27-2.35,4.73,4.73,0,0,0-3.66,1c-.1.67-.82,1.34-1.07,2s1.35-.07,1.35-.07,2.43-.72,3.71-.13,3.77,1.25,4.85,2.1,2.49,1.84,2.49,1.84a11.9,11.9,0,0,0-.4-1.49,3.77,3.77,0,0,0,1.16.85l.41.15-.16-.11a6.44,6.44,0,0,1-1.26-1.16,16.93,16.93,0,0,0-2.48-2.63,5.42,5.42,0,0,0-3.56-1.09,9,9,0,0,1,3.06-.07c1.76.25,2.7,1.23,3.89,2.1a2.52,2.52,0,0,0,.41.25l-.13-.22s.25.19.61.39A2.15,2.15,0,0,0,46.34,86a3,3,0,0,1-.4-.14A13,13,0,0,1,44,84.75Z"/><path class="cls-14" d="M35.12,81.56a6.89,6.89,0,0,1,3.24-.91c1.76,0,3.45,1.23,3.17,1.23A12.55,12.55,0,0,0,38,81.1,12.88,12.88,0,0,0,35.12,81.56Z"/><path class="cls-14" d="M47,84.06a7.55,7.55,0,0,0,.8.41,17.6,17.6,0,0,0-1.7-1.23,8.86,8.86,0,0,0-2.77-.77c-.54-.11.65.49,1.3.74s1.28,1.51,1.28,1.51h0a5,5,0,0,0,1.8,1.13,2.53,2.53,0,0,0,1.64,0,11,11,0,0,1-1.64-.91A3.17,3.17,0,0,1,47,84.06Z"/><path class="cls-14" d="M44.36,81.52A16.34,16.34,0,0,0,46,82a5.43,5.43,0,0,1,1.92,1.1,22.47,22.47,0,0,1,2,1c.47.33.9.59.9.59a7.37,7.37,0,0,0-.73-1.16c-.9-.49-2.23-1.19-3-1.53A7.22,7.22,0,0,0,44.36,81.52Z"/><ellipse class="cls-16" cx="30.15" cy="79.75" rx="0.7" ry="0.72" transform="translate(-52.34 58.17) rotate(-54.63)"/><ellipse class="cls-17" cx="30.15" cy="79.75" rx="0.53" ry="0.54" transform="translate(-52.34 58.17) rotate(-54.63)"/><ellipse class="cls-18" cx="30.47" cy="79.45" rx="0.3" ry="0.3" transform="translate(-51.95 58.3) rotate(-54.63)"/><circle class="cls-18" cx="29.98" cy="79.95" r="0.14" transform="translate(-52.56 58.11) rotate(-54.63)"/><path class="cls-17" d="M28.56,81.13c-.17.06-.39-.51,0-.74a3.31,3.31,0,0,0,1-1.07,1.65,1.65,0,0,1,.94-1.09,6,6,0,0,1,1.1-.34,3.46,3.46,0,0,0-1.33.83c-.3.46-.1.87-.56,1.15C28.54,80.56,28.73,81.06,28.56,81.13Z"/><path class="cls-19" d="M32.26,83.34c-.33-1.32-2.06,0-3.6-.06a1.65,1.65,0,0,1-1.24-.54,6.84,6.84,0,0,1-1.28-2.23,2.65,2.65,0,0,1,.1-1.21h-.1a3.34,3.34,0,0,0-1.34,1.17,8,8,0,0,0-.43,1,3.74,3.74,0,0,0-2.48,2.87c-.47,2.31-.07,3.06.74,4s1.64,1.21,1.74,1-1.27-1.24-.5-2.31,3.68-1.89,3.68-1.89a6.44,6.44,0,0,1-.17,1.69,16.74,16.74,0,0,0-1,2.67,4.62,4.62,0,0,0,.3,1.11s.33.23.94-.78a11,11,0,0,1,2.27-2.4C30.8,86.65,32.67,84.95,32.26,83.34Z"/><path class="cls-20" d="M27.56,85.17S29.73,84.06,30,84s1.34-.72.94.23a9.89,9.89,0,0,1-1.51,2.48,13.67,13.67,0,0,1-1.71,1.82c0-.1,1.42-3,1.17-3.32S27.56,85.17,27.56,85.17Z"/><path class="cls-6" d="M24.5,82.28S24.57,82,25,82s.77.29.61.39-.56-.14-.76-.14A3,3,0,0,0,24.5,82.28Z"/><path class="cls-4" d="M102,97.35c-.38-.18-6.06-1.73-8.87-2.76s-5.83-1.85-5.83-1.85,4.65,1.73,7.77,2.76S102,97.35,102,97.35Z"/><path class="cls-4" d="M103.85,100.37A48.85,48.85,0,0,1,93.8,97c-4.27-2.15-6-2.84-6-2.84s6,3.37,9.29,4.64A27,27,0,0,0,103.85,100.37Z"/><path class="cls-4" d="M102.35,102.58s-7.14-3.46-8.67-4.11-4.46-2.4-4.46-2.4,4.89,3.05,7.26,4.24A48.05,48.05,0,0,0,102.35,102.58Z"/><path class="cls-4" d="M102.14,105.39s-5.94-3.72-8.09-5-3.58-2.18-3.58-2.18,4.83,3.58,7,4.83S102.14,105.39,102.14,105.39Z"/><path class="cls-4" d="M95,90.62a38.72,38.72,0,0,1-6.72-.67,28.29,28.29,0,0,1-3.75-.83s4.88.83,7,.95A15.93,15.93,0,0,1,95,90.62Z"/></svg>