<svg id="Animals&#x52A8;&#x7269;" xmlns="http://www.w3.org/2000/svg" viewbox="0 0 128 128" width="128" height="128"><defs><style>.cls-1{fill:#46383b;stroke:none;}.cls-2{fill:#6f5b5d;stroke:none;}.cls-3{fill:#a78a85;stroke:none;}.cls-4{fill:#5d4c4d;stroke:none;}.cls-5{fill:#6d5a5c;stroke:none;}.cls-6{fill:#46373a;stroke:none;}.cls-7{fill:#6f5c5e;stroke:none;}.cls-8{fill:#1f1214;stroke:none;}.cls-9{fill:#231f20;opacity:0.25;stroke:none;}</style></defs><title>animals&#x52A8;&#x7269;</title><path class="cls-1" d="M122.14,60.63a26.07,26.07,0,0,1,2.22,5.23c.26,1.63.1,3.07-.5,1.44s-1.53-3.69-1.53-3.69Z"/><path class="cls-2" d="M21.75,57a.7.7,0,0,1,.37,1.18.52.52,0,0,0-.11.12c-.32.52-.54,6.19-1.29,8.17a14.92,14.92,0,0,1-1.56,3.1,7,7,0,0,1-2.14.26c-1-.09-1.89-1.63-1.92-.6a4.28,4.28,0,0,0,.82,2.49c.37.52,1.18,1.12.7,1.81l-.48.69-.53,1.29a21.46,21.46,0,0,1-5.05.43c-1.48-.26-4.67-3.7-4.67-3.7s1.18,4.47,2.77,5.33,6.14,2.32,5.9,2.67-1.43,2.32-1.23,2.84,1.53,3,2.31,3.1,3.16,1.29,4,1S24.5,84.54,25,83.59s1.39-4.73,2.5-4.73,3.67-.52,4.32-1.29,2.11-2.32,2.58-1.72a2.31,2.31,0,0,0,2.11.86c.68-.17,1.77-.77,2.13,1.29s1.08,5.93,1.95,7.65,2,7.74.89,8.69-2.5,1.46-2.79,2.58L38.36,98l3.62.17s-.3,2.49.82,2.49,7.78.77,8.36.43,2.86-1.29,2.61-2.67-1.6-2.67-1.2-3.27a7.53,7.53,0,0,0,1-5.5c-.65-2.49-1.59-4.13-1-4.64a6.87,6.87,0,0,0,1.6-2.24,6.2,6.2,0,0,0,.37-1.2,2.6,2.6,0,0,1,2.71.86,7.62,7.62,0,0,0,2.34,1.89s16.27,2,21.71.77,13.57-6.88,14.25-7.05l1.78-.43A21.52,21.52,0,0,0,99.13,81c.93,1.29,2.63,2.58,2.52,3.87s-3,11-4,11.35S93,98,92.6,99.24s-.82,2.32.47,2.32,5,.6,8,.09,3.11-1.46,3.16-2.15,0-2.49,1.23-2.84,4.18-2.24,4.21-3.44-.32-4.39.41-5.33a4.4,4.4,0,0,1,1.48-1.29,32.44,32.44,0,0,0,.91,4.21c.39.95.67,2.92-.15,3.61s-5.33,3.35-4,4,6.06.86,8,.77a31.76,31.76,0,0,0,3.42-.34s.15-2,.11-2.84-.54-3.7.46-4.3a23.07,23.07,0,0,1,2.43-1.2,13.53,13.53,0,0,0-.44-3.44,14,14,0,0,1-1.87-4.47c-.17-1.63-.38-4-.38-4s3-6,3-7.48.13-8.94-.81-10.58-9.27-14.36-11.52-14.79-6.79,0-9.4-.52-6.69-3-9.93-2.49-8.22,3.87-19.06,3.78-18.89-4.39-23.69-4.13a16.2,16.2,0,0,0-10.2,3.87C35.6,48.5,28.75,54,27,54.52s-3.3,1.12-3.3,1.12a5.73,5.73,0,0,0-3.33-1.2c-1.54.17-5.89-.86-5.51-.17a5.66,5.66,0,0,0,3.81,2.24A16.83,16.83,0,0,1,21.75,57Z"/><path class="cls-3" d="M15.6,75.51a21.46,21.46,0,0,1-5.05.43c-1.48-.26-4.67-3.7-4.67-3.7s1,3.94,2.49,5.13a13.09,13.09,0,0,0,3.94.94,10.68,10.68,0,0,0,3-.27Z"/><path class="cls-3" d="M17,69.83c-1-.09-1.89-1.63-1.92-.6a4.06,4.06,0,0,0,.51,2c.61.36,1.76,1,2.13.68a10.23,10.23,0,0,0,1.42-2.34A7,7,0,0,1,17,69.83Z"/><path class="cls-3" d="M17.09,80.79a1.47,1.47,0,0,0-1.79,1,1.5,1.5,0,0,0,1,1.8,2.76,2.76,0,0,1-.18-1.65A1.57,1.57,0,0,1,17.09,80.79Z"/><path class="cls-4" d="M97.69,96.23c-.93.34-4.72,1.81-5.09,3s-.82,2.32.47,2.32,5,.6,8,.09,3.11-1.46,3.16-2.15,0-2.49,1.23-2.84,4.18-2.24,4.21-3.44-.32-4.39.41-5.33a4.4,4.4,0,0,1,1.48-1.29,32.44,32.44,0,0,0,.91,4.21c.39.95.67,2.92-.15,3.61s-5.33,3.35-4,4,6.06.86,8,.77a31.75,31.75,0,0,0,3.42-.34s.15-2,.11-2.84-.54-3.7.46-4.3a23.06,23.06,0,0,1,2.43-1.2,13.53,13.53,0,0,0-.44-3.44,14,14,0,0,1-1.87-4.47c-.17-1.63-.38-4-.38-4s3-6,3-7.48.13-8.94-.81-10.58c-.14-.24-.43-.7-.83-1.33a14.33,14.33,0,0,0-1.7,1.48c-1.23,1.29-4.26,11.66-12.59,10.13-5.57-1-8.36-.46-9.8-.2S83.72,73.5,79.9,74.64s-14.1-.72-18.28-1.55S55.88,71.23,54,69.63s.15,4.76-.5,5.27-1.81.05-4.13-.83-3.54.47-4.3.78-5-5.12-5.46-5.48,1.16-5.58,2.13-10.65-.56-5.84-1.79-5.53-.66,3.1-1.44,5.17-4.39,5.07-6.71,5.12S26.7,59,25.66,59s-.23,3.41-.34,4.34,1.76,2,3.46,2.79,4.54,3.77,4.92,6.05S31.83,76,30.63,76.81s-3.32.78-5.36,1.24-2.36,3.36-2.63,5.07-2.45,2.64-3.1,3-2.61-.41-3.4-.72-1.2-1.14-1.77-2.22A4,4,0,0,1,14,81.25c-.37.69-.74,1.51-.63,1.82.2.52,1.53,3,2.31,3.1s3.16,1.29,4,1S24.5,84.54,25,83.59s1.39-4.73,2.5-4.73,3.67-.52,4.32-1.29,2.11-2.32,2.58-1.72a2.31,2.31,0,0,0,2.11.86c.68-.17,1.77-.77,2.13,1.29s1.08,5.93,1.95,7.65,2,7.74.89,8.69-2.5,1.46-2.79,2.58L38.36,98l3.62.17s-.3,2.49.82,2.49,7.78.77,8.36.43,2.86-1.29,2.61-2.67-1.6-2.67-1.2-3.27a7.53,7.53,0,0,0,1-5.5c-.65-2.49-1.59-4.13-1-4.64a6.87,6.87,0,0,0,1.6-2.24,6.2,6.2,0,0,0,.37-1.2,2.6,2.6,0,0,1,2.71.86,7.62,7.62,0,0,0,2.34,1.89s16.27,2,21.71.77,13.57-6.88,14.25-7.05l1.78-.43A21.52,21.52,0,0,0,99.13,81c.93,1.29,2.63,2.58,2.52,3.87S98.62,95.89,97.69,96.23Z"/><path class="cls-1" d="M97.18,77.69c0-.18-.06-.34-.08-.46a5.28,5.28,0,0,1,.22-2.69c.35-1.14-3.26,1.86-6.24,3.36s-12.54,4.5-16.34,4.91c-3.58.39-16.9-.91-18.47-1.07a2.76,2.76,0,0,1,1,.73,7.62,7.62,0,0,0,2.34,1.89s16.27,2,21.71.77,13.57-6.88,14.25-7.05Z"/><path class="cls-5" d="M51.17,101.13c.58-.34,2.86-1.29,2.61-2.67s-1.6-2.67-1.2-3.27c0,0-1-8.08-1.14-9.14s1.12-4.17,1.12-4.17.73-1.95-4.95-4.23-8.65.39-8.65.39a9.24,9.24,0,0,1,1.87,1.78c1,1.22,3.27,9.4,3.56,10.56a42.41,42.41,0,0,1,.8,4.73A30.85,30.85,0,0,1,42,98.21s-.3,2.49.82,2.49S50.58,101.48,51.17,101.13Z"/><path class="cls-6" d="M119.78,96.06c0-.86-.54-3.7.46-4.3a23.06,23.06,0,0,1,2.43-1.2,13.53,13.53,0,0,0-.44-3.44,14,14,0,0,1-1.87-4.47c-.17-1.63-.38-4-.38-4s-3.22,4.42-5.26,5.76-3.18,2.15-3.18,2.15a32.44,32.44,0,0,0,.91,4.21c.39.95.67,2.92-.15,3.61s-5.33,3.35-4,4,6.06.86,8,.77a31.75,31.75,0,0,0,3.42-.34S119.83,96.92,119.78,96.06Z"/><path class="cls-4" d="M118.09,87c-2.94.17-3.8,3.78-3.88,4.56s.53,2.78-1,3.34-3.79,1.89-3.86,2.67a2.24,2.24,0,0,0,.42,1.31,37.08,37.08,0,0,0,6.47.36,31.75,31.75,0,0,0,3.42-.34s.15-2,.11-2.84-.54-3.7.46-4.3l.69-.38C120.92,90.62,120.73,86.85,118.09,87Z"/><path class="cls-7" d="M104.23,99.5c0-.62,0-2.13.88-2.68-.13-1.59-.61-4.92-2.22-5.4a3.39,3.39,0,0,0-3.36.85c-.73,2.09-1.45,3.83-1.83,4-.93.34-4.72,1.81-5.09,3s-.82,2.32.47,2.32,5,.6,8,.09S104.18,100.19,104.23,99.5Z"/><path class="cls-3" d="M51,98c-1.39-.68-5-.87-5.52-1.3a12,12,0,0,1-.89-.9c-.92.92-2.63,2.41-2.63,2.41S52.4,98.68,51,98Z"/><path class="cls-8" d="M24,69.67a.84.84,0,0,1-.84.89,1,1,0,0,1-.94-.89.84.84,0,0,1,.84-.89A1,1,0,0,1,24,69.67Z"/><path class="cls-3" d="M21.31,70.45s-.69-2.09,1.12-2.72a2.7,2.7,0,0,1,3,.87,5.09,5.09,0,0,0-2.55.34A4.75,4.75,0,0,0,21.31,70.45Z"/><path class="cls-3" d="M97.36,97.48a5.35,5.35,0,0,1-.79-.81,14,14,0,0,0-3.46,1.9,20.56,20.56,0,0,0,4.35.72,23.25,23.25,0,0,0,3.41-.45A11.75,11.75,0,0,1,97.36,97.48Z"/><path class="cls-1" d="M38.6,78h2.18l1.94-1.34S39.62,75,37.88,75a1.33,1.33,0,0,0-1.41,1.67C37.15,76.54,38.24,75.94,38.6,78Z"/><path class="cls-4" d="M14.83,54.27a5.66,5.66,0,0,0,3.81,2.24,16.83,16.83,0,0,1,3.1.51.7.7,0,0,1,.37,1.18,8.8,8.8,0,0,0,.94-1,5.86,5.86,0,0,0,.61-1.51,5.73,5.73,0,0,0-3.33-1.2C18.8,54.61,14.45,53.58,14.83,54.27Z"/><path class="cls-4" d="M90.39,43c-3.26.88-8.27,3.66-18.18,3.58-10.84-.09-18.89-4.39-23.69-4.13a16.2,16.2,0,0,0-10.2,3.87C35.6,48.5,28.75,54,27,54.52c-.88.25-1.69.53-2.29.74a6.69,6.69,0,0,0,5.38-.21C33.35,53.5,40,44,45.35,43.8s16.36,6.82,22.85,6.66C72.85,50.34,86.87,45.71,90.39,43Z"/><path class="cls-9" d="M99.3,55.26s.68,5.57-.19,8.16-2,6.9-.51,5.77,6-8.64,5.79-9.47.69-4.49-2-5.25S99.3,55.26,99.3,55.26Z"/></svg>