<svg id="Animals&#x52A8;&#x7269;" xmlns="http://www.w3.org/2000/svg" viewbox="0 0 128 128" width="128" height="128"><defs><style>.cls-1{fill:#ac4a4d;stroke:none;}.cls-2,.cls-8{fill:#cf5b5d;stroke:none;}.cls-3{fill:#f0988e;stroke:none;}.cls-4,.cls-7{fill:#bb4c4b;stroke:none;}.cls-5{fill:#f5a7a3;stroke:none;}.cls-6{fill:#f6c3c4;stroke:none;}.cls-6,.cls-7{fill-rule:evenodd;stroke:none;}.cls-8{opacity:0.19;stroke:none;}</style></defs><title>animals&#x52A8;&#x7269;</title><path class="cls-1" d="M113.56,60.9a40,40,0,0,1-6.69,16c-3.75,5-5.42,9-5.22,11.69.22,2.94.54,5.44-.38,5.5l-3.86.26s-3.66-6.47,2.16-13.79S113.56,60.9,113.56,60.9Z"/><path class="cls-2" d="M17.06,46.37s-4.31-4-3.85-4.71,4.67,0,7.93,1.53A41.32,41.32,0,0,1,27,46.55L23.53,50Z"/><path class="cls-2" d="M125.66,61.95c-1.36-.1-2.61.25-3.77-.15s-1.51-2-1.51-2,2.93,0,3.85-2.09c.66-1.5,1.92-5.55-2.47-6.79-3.76-1.06-5.05,3.79-5.05,3.79l-2.23-2.84-.38,4.66A7.32,7.32,0,0,0,116,59.13a5.8,5.8,0,0,0,2.25.78s1.51,3,3.67,3.44S127,62,125.66,61.95Zm-5.82-3.88c-1.67-.17-2.14-1.54-1.56-3.13.42-1.15,2.09-3.77,4.18-1.47C123.5,54.62,121.88,58.28,119.84,58.06Z"/><path class="cls-3" d="M98.62,93.29s1.27,3.39.64,3.92-1.06,2.44-2,2.44-7,.42-6-.64,2.75-2.86,2.86-5.3,1.06-4.66.11-5.51-3.6-2.86-3.07-5.72.32-3.92-1-5.4-1.91-2.65-1.91-2.33-9.74,5.61-17.05,5.82S56,76.66,56,76.66A8.84,8.84,0,0,0,53,82.27c-.42,3.6.21,11.86-1.16,12.5s-7.31.74-6.46-.11,2.65-2.33,2.54-4-1.16-7.84-1.16-7.84A3.3,3.3,0,0,0,45,84.71c-.32,1.27-2.44,9-3,10a4.81,4.81,0,0,0-.53,2.44c0,.53.64.64-.64,1.38s-7,1.59-7.62,1,2.27-2.5,2.73-3.15a31,31,0,0,0,2.46-9.67c0-3.07-.74-5.3-.64-6.67s.21-4.34-.42-5-1.48-2-3.18-1.27-8.79,3.6-11.33,3.6-8-3-9.64-2.33-3,1.27-3,1.27l-.42-.64S5,67.89,5.37,67.79c4.33-1.1,9.48-7.65,9.69-8.61s-1-4.77,3.6-8.79,10.11-10.22,14.4-12.18C42,34.14,58.8,36.1,60.49,35.36S77.8,30.92,94.06,35c8,2,15,6.46,17.58,10.27s3.92,4.24,3.39,9.21-1.27,10.27-2.65,12.07L99.85,77.48Z"/><path class="cls-4" d="M16.74,72c-.61.53-2.9.15-4,.53s-2.29,2.21-2.29,2.21l-.56.85h0l.42.64s.56-.26,1.38-.61a3.59,3.59,0,0,1,.58-1.26c.91-1.37,2.9-1.22,4.34-1.6a3.83,3.83,0,0,0,2.13-1.45l-.08-.69A22.39,22.39,0,0,0,16.74,72Z"/><path class="cls-2" d="M14.14,74.9c2.19.21,6.57,2.4,8.75,2.4,2.54,0,9.64-2.86,11.33-3.6s2.54.64,3.18,1.27h0c.19-.13.33-1.85-.14-6.18-.12-1.14-.3-2.22-.48-3.17a1.2,1.2,0,0,0-2.29-.24,33.66,33.66,0,0,1-2.44,4.72c-2.21,3.43-6.17,2.82-9.91,3.73a42.3,42.3,0,0,1-8,1Z"/><path class="cls-2" d="M71.19,80.58c7.31-.21,17.05-5.51,17.05-5.82,0,0-.42-.93-.9-2.23s.27-4.71.27-4.71a27.45,27.45,0,0,1-11,5,30.66,30.66,0,0,1-16.36-1.22c-6.09-2.45-8.89-12.47-8.82-11.1s3.47,8.89.41,11.32c-.83.66-2,3.75-2.93,6s-4.84,6.55-5.59,6.82-3,10.3-3.27,11.12a1.88,1.88,0,0,1-2.67.7c-.44-.24-.78-.41-.26.15.91,1,1.88.45,1.51,1.36a3.82,3.82,0,0,1-1.53,1.44,13.8,13.8,0,0,0,3.78-1c1.27-.74.64-.85.64-1.38a4.81,4.81,0,0,1,.53-2.44c.53-1,2.65-8.68,3-10a3.3,3.3,0,0,1,1.69-1.91,12.63,12.63,0,0,0,2.49-2.5c1-1.43,1.7-3.75,2.32-4.84s1.16-.61,1.77-.14A18.79,18.79,0,0,0,56,76.66S63.88,80.79,71.19,80.58Z"/><path class="cls-5" d="M18.66,55.78s-4.28-10.62-3.14-10.7a20.07,20.07,0,0,1,9.55,4.06c2.85,2.57,5,5.56,4.42,6.2a22.24,22.24,0,0,1-3.21,2.14Z"/><path class="cls-2" d="M26,57.43a10.2,10.2,0,0,0-1.85-5.5c-2.28-3.42-6.43-4.41-7-4.67s-.26,1,.62,3.16c.66,1.63,1.88,4.41,2.44,5.69Z"/><path class="cls-2" d="M111.92,67.22h0l.46-.62c1.38-1.8,2.12-7.1,2.65-12.07s-.85-5.4-3.39-9.21c-1.67-2.5-5.38-4.91-9.92-7.07,1.65,1.17,5.74,4.55,6.45,9.58.89,6.32,1.56,13.68-3.42,20.6S96,78,96.06,80.77s.45,12.64,0,13.76-.45,1.19.3,2.31a12.58,12.58,0,0,1,1.2,2.74c.74-.35,1.14-1.89,1.7-2.36s-.64-3.92-.64-3.92.27-2.45.78-6.11,4.24-10.45,6.94-13.22"/><path class="cls-4" d="M17.43,58.26a4.48,4.48,0,0,0,1.5,1c.84.29,1.62.53,1.16.82-.63.4-2,1.22-2,1.22s.56-.82.48-1.21A4.18,4.18,0,0,0,17.43,58.26Z"/><path class="cls-6" d="M5.31,67.87c-.62.81,1.85,7.08,3.94,8.33.32.19.79.51,1.14-.11C11.44,74.23,7,65.63,5.31,67.87Z"/><path class="cls-7" d="M6.38,69.56c.18-.15.8.73,1.39,2s.92,2.38.74,2.54-.8-.73-1.39-2-.92-2.38-.74-2.54Z"/><path class="cls-8" d="M60.49,35.36c-1.69.74-18.5-1.22-27.43,2.86C29.87,39.68,26,43.47,22.33,47a47.73,47.73,0,0,0,6.18-3.37c3.88-2.58,6.26-4.77,11.33-4.47A105.36,105.36,0,0,0,55,38.93C57.93,38.53,62.19,34.62,60.49,35.36Z"/></svg>