<svg id="Animals&#x52A8;&#x7269;" xmlns="http://www.w3.org/2000/svg" viewbox="0 0 128 128" width="128" height="128"><defs><style>.cls-1{fill:#d9efce;stroke:none;}.cls-2{fill:#159e5b;stroke:none;}.cls-3{fill:#abe19e;stroke:none;}.cls-4{fill:#137940;stroke:none;}.cls-5{fill:#6dcb69;stroke:none;}.cls-6{fill:#313927;stroke:none;}.cls-7{fill:#fff;stroke:none;}</style></defs><title>animals&#x52A8;&#x7269;</title><path class="cls-1" d="M12.15,35.75A32.84,32.84,0,0,0,22.7,49.6c3.94,2.93,14.86,6.6,15.38,6.82s-3-10.8-2.76-10.58S12.15,35.75,12.15,35.75Z"/><path class="cls-2" d="M120.36,42.72c-.79-.51-2,0-2.74,1.09a2.92,2.92,0,0,0-.49,1.75c-3,2.72-3.32,4.49-4.28,4.49s-2.18-.87-2.32-4-.35-5.56.74-7.23a3.81,3.81,0,0,0,2.08-1.65c1-1.5.88-3.27-.19-4s-2.71,0-3.67,1.47a3.25,3.25,0,0,0-.27,3.51c-1.63,2.16-1.08,11.26-2.53,11.33s-1.74-2.18-2.1-3.84a6.09,6.09,0,0,0-.82-1.77,2.9,2.9,0,0,0,.56-1.77c0-1.33-.77-2.4-1.71-2.4s-1.71,1.08-1.71,2.4a2.21,2.21,0,0,0,1.59,2.39c1.09,4.13,2.41,6.58,1.61,6.58-.21,0-.84-1-1.12-1.08a3,3,0,0,0-.75-1.43c-.9-1-2.19-1.25-2.88-.62s-.54,1.95.36,2.93a2.72,2.72,0,0,0,2,1c.34.92.59,1.84.22,2.21-.8.8-1.31.58-3.19-1.38S92.32,42.8,89.28,43a5.47,5.47,0,0,0-4.2,2s-9.36-5.35-16.39-7-11-2.51-12.71-4.18-5-6-9.2-6.52-7.36-.17-9.2-.84a17.67,17.67,0,0,1-3.34-1.67s.67-4.18-4.68-4-5.35,3.68-5.35,3.68S17.68,26.27,16,26.93s-4.21,2-4.52,5.52c-.51,5.77,8,12,13.38,13.71s7.86,1.51,7.86,1.51-.5,3-2.68,3.85-5.73,1.23-6.35.67c-1.67-1.5-3.07-2.3-2.74-1,.5,2-1.83,1.7-4.09,2.86s-4.61,3-3.71,3.62c1.18.87,1.8-1.24,3.87-2.09,2.6-1.06,4.32-1.42,5-.92s-.19,2.51-1,3.58c-.44.56-1.36,2.3-.14,2.61s1.5-1.67,1.67-2.51a3.57,3.57,0,0,1,2.68-2.68c1.67-.33,3.51-.86,2.84.48s-2.26,2.69-.93,3.49c1,.63,1.3-1.36,2.3-2.93,1.1-1.73,2.8-3.73,2.89-2.06s.77,9.82-.17,10.54c-2.13,1.66-7.56,2.63-8.65,2.56s-.77-1.48-.77-1.48.61-2.11-.7-1.89-.46,2-.66,2.72a2.82,2.82,0,0,1-2.75,1.39,2.06,2.06,0,0,1-1.21-2.3c.12-.64.08-2.41-1.08-2s-.86,1.76-.27,2.52c.41.53.76,1.55.33,2a3.78,3.78,0,0,1-2.85.86,37.44,37.44,0,0,1-4.19-.28c-.29-.15-2.25-.51-2.39.51s1.6.87,2.61.73a12.58,12.58,0,0,1,4.2.54,1.64,1.64,0,0,1,.63,2.49,7.71,7.71,0,0,1-2.89,2.06c-.58.15-2,.74-1.58,1.43s3.19-.52,4.27-1.46a6,6,0,0,1,3.85-1.8,48.91,48.91,0,0,0,10.09-1.56c3.55-1,10.15-2.94,10.94-4.75A18.23,18.23,0,0,0,40.18,63S57,74.27,58.82,75.14A6.18,6.18,0,0,1,61.28,77s-15.73-.55-19.58,4.71c-2.11,2.88-.83,5.32,2.22,8.88s10.26,7,13.59,8.75a63.41,63.41,0,0,1,6.82,4.28s-8,1.22-11.53.83c-11.87-1.28-14.31-3.2-15.4-4.08a15.38,15.38,0,0,1-1-1.17,2.28,2.28,0,0,0-.52-1.42,1.3,1.3,0,0,0-1.79-.36,1.21,1.21,0,0,0,.17,2L36,100.82c.49.57.81,1.1.36,1.37-.7.42-3.34-.51-5.56-1.06a3,3,0,0,1-.78-.3c-1-.58-2.29-1.12-2.75-.06-.57,1.34.89,1.24,2.33,1.52a3.11,3.11,0,0,1,.7.24c1.77.81,3.9,1.56,3.66,2.71-.3,1.43-6,.93-8.65,1.36a2.29,2.29,0,0,0-.67-.15c-.91-.05-2.56-.12-2.65,1.15s1,1.86,2.85,1.12a5.24,5.24,0,0,0,.57-.26c3.09-.19,6.55.29,7.18,1.43.73,1.31-1.16,2.54-2.39,2.76l-.27.07-.15,0c-.67-.07-1.86-.08-2,.64s.91,1,2.25.68a3.61,3.61,0,0,0,.47-.16,182.71,182.71,0,0,1,37.79-4.52c4.37,0,9.84-.1,10.42-3.94S76,101,73.25,99.73a53.31,53.31,0,0,1-10-6.31c-2-1.81-6.53-5.29-3.34-5.15s12,1.45,22.26.15,14.36-2.25,15.66-2.1,4,.22,5.22-.36,2.18-2.68,2.18-2.68,7.3,1.24,5.66-3.92a5.36,5.36,0,0,1,.87-5.29c1.16-1.45,2.18-6.09,2.32-10.15s1.09-7.83,1-9.43.87-5.37,2.25-6.38a5,5,0,0,0,1-1.14,2.51,2.51,0,0,0,2.16-1.29C121.22,44.55,121.16,43.23,120.36,42.72Z"/><path class="cls-3" d="M30.26,28.71a7.74,7.74,0,0,0-7.69,1.73c-1.76,1.67-.31,2.39.21,2.58.61-1.49,2.49-2.58,4.71-2.58A5.2,5.2,0,0,1,32,32.63a3.29,3.29,0,0,0,.87-.2C33.82,32,33.2,29.48,30.26,28.71Z"/><path class="cls-3" d="M33.84,24.6s.62-3.57-4.31-3.43-4.93,3.14-4.93,3.14a30.94,30.94,0,0,1,4.65-.5A10.93,10.93,0,0,1,33.84,24.6Z"/><path class="cls-3" d="M50.66,41.39s2.24-.71,2.12-2.24-.59-3.3-2.83-3.3a11.37,11.37,0,0,1-4.59-1.06c-.94-.35-3.65-1.65-4.83.12s-.47,2.59,1.41,3.65,2.95.94,4.83,1.65A36.57,36.57,0,0,0,50.66,41.39Z"/><path class="cls-3" d="M77.29,45.39c-.82,1.18.35,3.65,2.47,5.3s4.48,3.06,5.66,2.59a4.17,4.17,0,0,0,2.12-3.77c0-1.65-.57-4.21-2.46-4.52a22.49,22.49,0,0,0-5-.43A12.22,12.22,0,0,0,77.29,45.39Z"/><path class="cls-3" d="M52.19,33s.94-1.53-.94-2.83a13.7,13.7,0,0,0-5.42-2.36c-1.3-.12-3.06-1.06-3.06.24s.71,2.59,3.3,3.89A13.9,13.9,0,0,0,52.19,33Z"/><path class="cls-4" d="M87.39,48S96,61.15,99.22,67.74a134.54,134.54,0,0,1,6,15.52s-4.32-15-9.56-24.14S87.39,48,87.39,48Z"/><path class="cls-4" d="M99.47,53.8s5.75,7.36,7.47,13.45.92,11.15,2.3,12,.23.69,0-2.18-1.61-11.84-4.48-16.56A27.55,27.55,0,0,0,99.47,53.8Z"/><path class="cls-4" d="M52.87,40.22c.94,0,13.37,4.81,19.93,9.63s13.91,6.42,18.32,14.58,7,16.45,7,18.32a27.53,27.53,0,0,1-.25,3.55s-1.67-9.21-4-14.52c-6-13.51-12.17-15.51-20.6-21S52.87,40.22,52.87,40.22Z"/><path class="cls-4" d="M72.61,73s7.23-.25,9,.38c4.43,1.57,4.07,3.36,7.14,4.79,1.86.86,6.24,4.35,6.38,5.69s-4,2.94-4,2.94,2.54-2.41.67-4.41-5.62-2.94-7.49-4.15a18.08,18.08,0,0,0-5.08-2.14c-1.07-.27-3.48-.8-3.48-.8Z"/><path class="cls-1" d="M62.22,70.15C53.8,67.37,50.45,63,47,57.52s-5.07-9.28-6.6-9.57-.57,4.11-.29,7a76.4,76.4,0,0,1,.06,8.1S45.38,70,56.87,75.14C58.7,76,61.28,77,61.28,77s3-.28,6.11-.85,6.7-.57,10-1.34S70.65,72.92,62.22,70.15Z"/><path class="cls-4" d="M59.9,88.27a130.3,130.3,0,0,0,16.43.64c-3.25-.38-13.44-1.6-16.29-2.18-3.4-.7-13.3-5.3-9.4-1.1s13,11.3,17.2,13.2,7.9,2.3,9.8,4.1a7.23,7.23,0,0,1,1.1,1.35c-.17-2.86-3-3.44-5.5-4.54a53.31,53.31,0,0,1-10-6.31C61.21,91.6,56.71,88.12,59.9,88.27Z"/><path class="cls-4" d="M118.34,47a2.72,2.72,0,0,0,2.19-1.42c.72-1.12.62-2.31-.17-2.82s-2,0-2.74,1.09a2.92,2.92,0,0,0-.49,1.75c-3,2.72-3.19,4.47-4.16,4.47s-2.3-.86-2.45-4-.27-5.66.82-7.33a3.45,3.45,0,0,0,2-1.54c1-1.5.88-3.27-.19-4s-2.71,0-3.67,1.47c-.8,1.24-1,2.84-.44,3.69-3.2,5-.86,10.67-2.31,10.74s-1.7-4-2.91-5.26a2.72,2.72,0,0,0,.49-1.72c0-1.33-.77-2.4-1.71-2.4s-1.71,1.08-1.71,2.4a2.21,2.21,0,0,0,1.59,2.39c1.09,4.13,2.18,6.21,1.38,6.21-.21,0-.62-.62-.89-.7a3,3,0,0,0-.75-1.43c-.9-1-2.19-1.25-2.88-.62s-.54,1.95.36,2.93a2.72,2.72,0,0,0,2,1c.34.92.59,1.84.22,2.21s-.72.54-1.17.35c1.16,1.55,2.77,3.75,3.93,5.45,2,2.95,4.51,10.24,4.77,15.18s1.47,4.26,1.47,4.26a5.14,5.14,0,0,1,.87-5.29C115.92,68.26,113,53.36,118.34,47Z"/><path class="cls-5" d="M33.54,34.82c.06-1-1.49-4.6-5.89-4.67-4.56-.07-6.26,3.17-6.23,4s1.94,3.68,5.8,3.7C30.9,37.89,33.5,35.65,33.54,34.82Z"/><path class="cls-6" d="M31.4,34.09c0,1.28-2.08,2.23-4.12,2.23s-4.11-1-4.11-2.3,2.07-2.31,4.11-2.31S31.4,32.81,31.4,34.09Z"/><ellipse class="cls-7" cx="28.23" cy="32.99" rx="1.12" ry="0.99"/><ellipse class="cls-7" cx="24.96" cy="32.96" rx="0.7" ry="0.5"/></svg>