<svg xmlns="http://www.w3.org/2000/svg" viewbox="0 0 128 128" width="128" height="128"><defs><style>.cls-1{isolation:isolate;stroke:none;}.cls-2{fill:#e3782c;stroke:none;}.cls-14,.cls-17,.cls-3{fill:#231f20;stroke:none;}.cls-3{opacity:0.23;stroke:none;}.cls-4{fill:#fff1d2;stroke:none;}.cls-5{fill:#eecda2;stroke:none;}.cls-6{fill:#321403;stroke:none;}.cls-7{fill:#db8429;stroke:none;}.cls-8,.cls-9{fill:#fbb03b;stroke:none;}.cls-8{stroke:#42210b;stroke-miterlimit:10;stroke-width:0.3px;}.cls-10{fill:#fff;stroke:none;}.cls-11{fill:#a75d17;stroke:none;}.cls-12{fill:#f4785e;stroke:none;}.cls-13{fill:#3e3c35;stroke:none;}.cls-14{opacity:0.24;stroke:none;}.cls-15{mix-blend-mode:multiply;stroke:none;}.cls-16{fill:#b3b3b3;stroke:none;}.cls-17{opacity:0.2;stroke:none;}</style></defs><title>animals&#x52A8;&#x7269;</title><g class="cls-1"><g id="Animals&#x52A8;&#x7269;"><path class="cls-2" d="M36.31,44a10.86,10.86,0,0,1-4.2-4.2c-2.05-3.26-4.38-6.53-4.38-6.53a2.87,2.87,0,0,0,2.14-1.4,18.15,18.15,0,0,0,1.31-4,3.4,3.4,0,0,0-3.08.19c-1.59.93-3.64,2.05-3.64,2.05A21.5,21.5,0,0,0,17.94,29a12.42,12.42,0,0,0-5.13.84,25.09,25.09,0,0,0-4.2-2.05c-1-.19-2-.19-2,.84a6.13,6.13,0,0,0,1.59,3.73,14.13,14.13,0,0,0,1.49,1,11.46,11.46,0,0,0-2.42,7.27c.28,4,1.86,7,3.54,8a4.09,4.09,0,0,0,2.61.84l1.77.65a14.31,14.31,0,0,0,.37,4.29c.56,2.14,2.24,9.32,3.92,12.87a69.54,69.54,0,0,1,4.66,12.59c.65,3.26,1.77,13.24.93,14.55s-4,2.42-4,3.26S24,98.93,24,98.93s2.61,1.21,4,.75,3.45-4.2,4.29-7.93,2.14-8,2.14-9.7,2.14-5.59,3.26-5.69,12-.37,18.83-1.21,21.63-4,21.63-4,4.29,5.59,6.71,8,8.2,7.65,9.23,9a4.33,4.33,0,0,1,.19,5c-1.12,1.68-2.14,3.08-2.89,3.17a2.66,2.66,0,0,0-2.05,1.21c-.37.75-.56,1.49.75,1.49h1.31s0,.65,2.14.65,3.92.28,4.66-1.4S102,90.82,102,88.86s-1.68-6.15-2.61-6.9-1.77-1.59-2-4.2.19-15.29-.19-17.06a39,39,0,0,0-1.4-4.48s3.36,4.94,3.45,7a66.15,66.15,0,0,0,2.24,14.92c1.77,5.78,4.38,10.35,10.63,11.37s11.47-1.21,10.72-3.17-3.64,2.52-8.3,1.68-8.58-4.2-9.79-12-1-15.76-3.08-20-6.15-8.86-14.17-9.88a130.63,130.63,0,0,0-13.24-1,42.56,42.56,0,0,0-9.79-.09c-6.25.47-11.65,1.12-18.09.84A33.8,33.8,0,0,1,36.31,44Z"/><path class="cls-3" d="M58,61.86c-4.92,1.13-17.08.59-24-.39s-7.47-14.63-7.47-14.63-4.06.35-4.85.35-.88,14.57-1.44,19.69c0,.43-.13.94-.22,1.5a66,66,0,0,1,4.17,11.52c.65,3.26,1.77,13.24.93,14.55A7,7,0,0,1,23,96.14s8.46-.66,9.3-4.39,2.14-8,2.14-9.7,2.14-5.59,3.26-5.69,12-.37,18.83-1.21,21.63-4,21.63-4S98.34,52.59,58,61.86Z"/><path class="cls-4" d="M24.74,58.45c-.33-1.9-1.17-8.23-1.17-8.23L22,49l-6.93,1.14.13,0a14.31,14.31,0,0,0,.37,4.29c.56,2.14,2.24,9.32,3.92,12.87a69.55,69.55,0,0,1,4.66,12.59c.65,3.26,1.77,13.24.93,14.54s-4,2.42-4,3.26S24,98.93,24,98.93s-.21-.43-.54-1,1.24-1.39,1.24-1.39a4.27,4.27,0,0,0,1.72-2.16,26.79,26.79,0,0,0,1.32-5.3,25.36,25.36,0,0,0-.07-7.61c-.44-2.6.22-4.46.33-7a29.59,29.59,0,0,0-1.79-9A42.14,42.14,0,0,1,24.74,58.45Z"/><path class="cls-5" d="M27.83,82.56a20.67,20.67,0,0,0-1.36-5.18c-.67-1.49-4-5.41-5.8-7.55a60.46,60.46,0,0,1,3.53,10.08c.65,3.26,1.77,13.24.93,14.54s-4,2.42-4,3.26S24,98.93,24,98.93a1.91,1.91,0,0,0-.3-1c-.46-.69,1.2-1.35,1.73-1.77a5.74,5.74,0,0,0,1-1.8,26.79,26.79,0,0,0,1.32-5.3v0c.11-1,.19-2,.24-2.87A27.81,27.81,0,0,0,27.83,82.56Z"/><path class="cls-5" d="M30.63,37.52s-.82,5.65-4.39,7.52c-4.12,2.16-7-2.2-7-2.2s-4.54,3.33-7.85,2.2c-3.86-1.31-3.48-4-4.13-5.4a8.51,8.51,0,0,0,0,1c.28,4,1.86,7,3.54,8a4.08,4.08,0,0,0,2.61.84l1.77.65v0h0l4.58.16A12.29,12.29,0,0,0,29,47C32.1,44.31,30.63,37.52,30.63,37.52Z"/><path class="cls-6" d="M10,32.78a7.36,7.36,0,0,1,.72-1.14l.57-.57S8.86,28.7,8.14,29s.05,2.33.67,3A2.41,2.41,0,0,0,10,32.78Z"/><path class="cls-7" d="M12.54,45.74s0-6.15,6.17-6.15,6.45,6,6.45,6-3.29,1.67-5.86,1.38S12.54,45.74,12.54,45.74Z"/><path class="cls-4" d="M20.77,39.47a2.3,2.3,0,0,0,2.91.78,3.7,3.7,0,0,0,2.23-3.74c-.25-.38-.74-1.58-1.45-1.23s-.92-.71-1.49-.07-.57,1.28-1.42,1.42-1,.28-1.06.92A7.23,7.23,0,0,0,20.77,39.47Z"/><path class="cls-4" d="M16.83,39.47a2.3,2.3,0,0,1-2.91.78,3.7,3.7,0,0,1-2.23-3.74c.25-.38.74-1.58,1.45-1.23s.92-.71,1.49-.07.57,1.28,1.42,1.42,1,.28,1.06.92A7.23,7.23,0,0,1,16.83,39.47Z"/><path class="cls-6" d="M26.24,31s1.6-1.66,2.38-1.81,1.6-.52,1.45.1A5.59,5.59,0,0,1,29,32a2.56,2.56,0,0,1-1.4.72Z"/><path class="cls-4" d="M94.42,96.37c1.07-.86,2.68-4.55,2.89-6s-4.18-6.53-6.1-8a50.34,50.34,0,0,1-7.71-8.57,8,8,0,0,1-1.71-6.43c.11-1.45-1.55-5.57-3.11-6.59s-12.26,1.34-15.8,2.36-9.75,2.36-13.49,3.69-7.76-.16-10.23.7S36,71.63,35.89,73.13s-2.46,8.41-2.46,8.41l-1,9.69c.84-3.6,2-7.57,2-9.17s2.14-5.59,3.26-5.69,12-.37,18.83-1.21,21.63-4,21.63-4,4.29,5.59,6.71,8,8.2,7.65,9.23,9a4.33,4.33,0,0,1,.19,5c-1.12,1.68-2.14,3.08-2.89,3.17a2.66,2.66,0,0,0-2.05,1.21c-.37.75-.56,1.49.75,1.49h1.31A5.26,5.26,0,0,0,92.22,98C92.38,97.55,93.35,97.23,94.42,96.37Z"/><path class="cls-5" d="M112.94,88.77c-5.41-1-6.48-3.86-8.3-7.12s-2.62-9.42-3.27-13.71-1.29-8.94-3.05-12.1a8.78,8.78,0,0,0-4.77-4s.32.48.7,1a26.16,26.16,0,0,1,1.39,3.05l.55,1.23c-.18-.51-.31-.84-.31-.84s3.36,4.94,3.45,7a66.15,66.15,0,0,0,2.24,14.92c1.77,5.78,4.38,10.35,10.63,11.37s11.47-1.21,10.72-3.17C122.31,86.65,118.35,89.73,112.94,88.77Z"/><path class="cls-8" d="M21.58,39.39a2.63,2.63,0,0,1,1.48-2.12,2.25,2.25,0,0,1,2.19.22,2.42,2.42,0,0,1-1.08,1.94A3.2,3.2,0,0,1,21.58,39.39Z"/><circle class="cls-9" cx="23.52" cy="38.41" r="0.98"/><circle class="cls-6" cx="23.52" cy="38.41" r="0.83"/><ellipse class="cls-10" cx="24.05" cy="37.92" rx="0.31" ry="0.32"/><path class="cls-8" d="M16,39.39a2.63,2.63,0,0,0-1.48-2.12,2.25,2.25,0,0,0-2.19.22,2.42,2.42,0,0,0,1.08,1.94A3.2,3.2,0,0,0,16,39.39Z"/><circle class="cls-9" cx="14.11" cy="38.41" r="0.98"/><circle class="cls-6" cx="14.11" cy="38.41" r="0.83"/><ellipse class="cls-10" cx="13.58" cy="37.92" rx="0.31" ry="0.32"/><path class="cls-5" d="M91.2,82.39a50.34,50.34,0,0,1-7.71-8.57,8.57,8.57,0,0,1-1.77-4.19l-.94.27c-.6.18-2.61,1.23-2.61,1.23s4.29,5.59,6.71,8,8.2,7.65,9.23,9a4.33,4.33,0,0,1,.19,5c-1.12,1.68-2.14,3.08-2.89,3.17a2.66,2.66,0,0,0-2.05,1.21c-.37.75-.56,1.49.75,1.49h1.31A5.26,5.26,0,0,0,92.22,98c.16-.43,1.12-.75,2.2-1.61s2.68-4.55,2.89-6S93.13,83.84,91.2,82.39Z"/><path class="cls-6" d="M19.53,51.9A2.64,2.64,0,0,0,19,53.58a19.09,19.09,0,0,0,.17,3.31,12.34,12.34,0,0,1,2-3.82A12.41,12.41,0,0,0,23,50.85a6.81,6.81,0,0,1-1.71.85A10.2,10.2,0,0,1,19.53,51.9Z"/><path class="cls-6" d="M16.51,57.91a8.33,8.33,0,0,0,1.85.14c.85-.06,1.82-.14,1.45.06s-1.82.68-2.11,1.34a6.09,6.09,0,0,1-.63,1.11Z"/><path class="cls-6" d="M17.54,61.62a.69.69,0,0,0,.77.06c.46-.23.77-.17.34.28a3.29,3.29,0,0,1-.83.66Z"/><path class="cls-6" d="M24.41,49.74S25,52.87,24,54.29s-2.94,5.44-3.31,6.16-.83,2.65-.2,1.62,3.68-7.18,4.22-7.92a17.84,17.84,0,0,0,1.74-3.76,3.44,3.44,0,0,0,.2-1.88Z"/><path class="cls-6" d="M28.48,47.34s1.37,5,0,8.24a12.52,12.52,0,0,1-3.68,5.27,11.78,11.78,0,0,0-2.42,2.68c-.4.74-.94,1.82-.26,1a13.31,13.31,0,0,1,2.56-2.91,10.06,10.06,0,0,0,5.3-7,15.45,15.45,0,0,0-.26-8.52Z"/><path class="cls-6" d="M18.08,63.73a2.17,2.17,0,0,0,1.31.6c.8.06,1.34.31,1.11.31s-1.82.43-1.82.43Z"/><path class="cls-6" d="M19,65.78c0,.09.4.77,1.91.31s4.7-1.82,4.33-1.34A7.51,7.51,0,0,1,22,66.29c-.94.11-1.51.23-1.8.6a3.09,3.09,0,0,1-.68.63Z"/><path class="cls-6" d="M19.87,67.6a13.53,13.53,0,0,0,3.85-.54,27.08,27.08,0,0,0,4.73-2.42A3.16,3.16,0,0,1,30.22,64a18.79,18.79,0,0,1-3.9,3.36A12.53,12.53,0,0,1,22.1,69a5.23,5.23,0,0,1-1.85-.06A8.8,8.8,0,0,1,19.87,67.6Z"/><path class="cls-6" d="M21.58,72a3.82,3.82,0,0,1,1.6.6c.46.43.63.88.26.83s-1.4-.14-1.4-.14Z"/><path class="cls-6" d="M23.46,76.89a23.54,23.54,0,0,0,2.39,1.85c1,.6,1.82,1.23,1.31,1.14s-1.74-.63-2.17-.51a4.1,4.1,0,0,1-.91.11Z"/><path class="cls-6" d="M24.92,84.67s.31.26.94,0,1.62-.43,1.2-.09a12.88,12.88,0,0,1-2,1.11C24.95,85.67,24.92,84.67,24.92,84.67Z"/><path class="cls-6" d="M25.23,87.32a2.59,2.59,0,0,0,1.42-.88c.8-.83,1.37-1.51,1.37-1.51V86.3a4,4,0,0,1-1.14,1.48,8.68,8.68,0,0,1-1.62,1.14Z"/><path class="cls-6" d="M31.33,94.82a5,5,0,0,0-2.71.51c-1.51.71-3.51,1.94-2.59,1.85s2.68-.88,3.62-.88h.94Z"/><path class="cls-6" d="M32.73,88.63a3.43,3.43,0,0,1-1.85.8c-1.08.14-3.76,0-3.16.57s2.14.8,3.25,1a6.46,6.46,0,0,0,1.46.2Z"/><path class="cls-6" d="M34.21,83.36a4.06,4.06,0,0,1-1.11.6,2.52,2.52,0,0,1-1.28.23,1.87,1.87,0,0,0-1.62.43c-.71.57-1.82,1.6-.77,1.14s2.79-1.14,2.39-.46-1.54,2.28-.8,1.77,1.71-1.23,2.14-1.48L34,85.1Z"/><path class="cls-6" d="M35.12,79.6a26.21,26.21,0,0,1-3.56,1c-1,.11-3.36.23-2.74.34s2.88.88,3.76.74l2-.34Z"/><path class="cls-6" d="M36.83,76.78a3.31,3.31,0,0,0-1.71-2.31C33.55,73.56,32,72.9,30.79,72s-2.56-2.51-2.51-1.85a8.27,8.27,0,0,0,2.37,3.31c.94.74,3.13,1.74,3.93,3a8.23,8.23,0,0,1,1,2.17Z"/><path class="cls-6" d="M40.46,76.24s-.49-2.37.3-3.51A10.17,10.17,0,0,0,42.27,68c0-1.37-.2-4.84.17-4.13a12.89,12.89,0,0,1,.88,5.47c-.31,1.48-1.08,3.82-.88,4.7a20.12,20.12,0,0,1,.31,2S40.6,76.19,40.46,76.24Z"/><path class="cls-6" d="M50.25,75.72S48.6,74,48.91,73A25,25,0,0,0,50,66.78c-.14-1.48-1-5.59-.54-5s2,3.13,1.94,5-1.08,5.5-.71,6.33,1.2,2.56,1.2,2.56Z"/><path class="cls-6" d="M55.41,75.15a20.07,20.07,0,0,0,1.11-4.42c0-1.45.4-4.45.11-5.44s-.8-3.53-.37-2.94,2.17,4.27,2.22,6.16a29.56,29.56,0,0,1-.57,5.07c-.11.83-.17,1.42-.17,1.42Z"/><path class="cls-6" d="M60.85,74.38a3.27,3.27,0,0,1,.46-2.25,9.4,9.4,0,0,0,1.62-4.93c-.14-1.45-.31-4.3.09-3.45s1.25,4.3.83,5.78A15.19,15.19,0,0,0,63,73c.06.6.17,1.17.17,1.17Z"/><path class="cls-6" d="M64.79,73.79a3.57,3.57,0,0,1,.06-1.94c.34-.88.48-3,.57-2.59s.11,3,.26,3.45.31.94.31.94Z"/><path class="cls-6" d="M66.67,73.33a7.34,7.34,0,0,0,.71-3.76c-.26-1.85-2.51-9.75-2-9.32s1.71,4.64,2.25,6a29.27,29.27,0,0,1,1.34,5.13C69,72,69,73,69,73Z"/><path class="cls-6" d="M71,72.53a4.73,4.73,0,0,0-.26-2.11,15.58,15.58,0,0,1-1.14-3.82c-.09-1.05-.14-2.19.06-1.42s1,4.87,2.08,5.7,2.62,1,3,.51,2.22-3.7,2-2.68a25.9,25.9,0,0,1-.91,2.94Z"/><path class="cls-6" d="M33.07,41.19c-.17-.08,0,3.3-.42,5.5a21.18,21.18,0,0,0-.47,6c.25,1.23.42,3.64.51,3s-.17-6.51.47-8.08,1.55-4.63,1.55-4.63Z"/><path class="cls-6" d="M35.22,43.32s-.16,6.37.1,8.4,1.14,8.33,1.14,8.33,1.65,6.39,1.73,5.46a73.3,73.3,0,0,0-.85-8.46c-.3-1.44-1.31-7.4-1.44-8.29s-.35-5.2-.35-5.2Z"/><path class="cls-6" d="M36.31,44s2.56,8.43,2.22,10.12-.72,7-.72,7a10.31,10.31,0,0,0,.68-1.95c.21-1,1.44-4.36,1-6.43s-1.69-8-1.65-8.16S36.31,44,36.31,44Z"/><path class="cls-6" d="M40.16,45s2.14,7.69,2.09,8.37-.38,7.23-.17,6.39,1.27-5,.76-7.36-1.67-7.21-1.67-7.21Z"/><path class="cls-6" d="M43.14,45.51a10.64,10.64,0,0,0,.08,3.85c.47,1.35,1.61,5.5,1.61,5.5a51.94,51.94,0,0,1-.63-6.64c.17-1.18.38-2.58.38-2.58Z"/><path class="cls-6" d="M45.68,45.72s1.61,4.27,1.31,7-1.06,5.33-1.06,6.56.55,3.85.51,2.5A20.27,20.27,0,0,1,47,56.12c.55-1.95.51-6,.68-7.7a7,7,0,0,0-.13-2.62Z"/><path class="cls-6" d="M49.9,45.85a24,24,0,0,1,1.11,3A19.69,19.69,0,0,0,51.6,51l-.34-5.2Z"/><path class="cls-6" d="M51.89,45.84A8.9,8.9,0,0,1,53,50.33a29.44,29.44,0,0,0,.25,7.57c.47,1.78,2.62,4.57,1.78,2.92s-1.23-5.5-1.06-8,0-5.29.38-6a5.91,5.91,0,0,0,.45-1.13S51.93,45.8,51.89,45.84Z"/><path class="cls-6" d="M57.62,45.5A33.92,33.92,0,0,1,57.14,50a24.23,24.23,0,0,0-.34,4.44c0,1.1.13,2.92.34,1.78s.89-6,2-8.29l1.09-2.23v-.4Z"/><path class="cls-6" d="M60.86,45.24s.26,7.12,0,8.35-1.1,5.12-.76,4.48a38,38,0,0,0,2.28-8.93c.21-3,.34-4.06.34-4.06Z"/><path class="cls-6" d="M65.28,44.89a11.65,11.65,0,0,0-1,3.11c-.17,1.44.08,4.48.3,3.34a26.65,26.65,0,0,1,1.31-5.12,7.91,7.91,0,0,0,.67-1.41Z"/><path class="cls-6" d="M67.71,44.76a11.27,11.27,0,0,1,.18,4.43,13.86,13.86,0,0,0-.51,5.5c.21,2.45,1.31,7.74,1.14,5.58s-.76-7.78-.08-9.69a14.22,14.22,0,0,0,1.14-4.65,3.23,3.23,0,0,0-.22-1.21Z"/><path class="cls-6" d="M71,44.74a11.27,11.27,0,0,1,.89,4.44,58.93,58.93,0,0,0,0,7.23c.21,2.07.72,4.19.72,3.26a63.86,63.86,0,0,1,.25-8.21,34.13,34.13,0,0,0,.68-5.25,4.1,4.1,0,0,0-.14-1.28Z"/><path class="cls-6" d="M74.93,45.08a34.29,34.29,0,0,0-.15,4.79c.13,1.48.72,3,.68,1.48A9.14,9.14,0,0,1,76,47.49a5.48,5.48,0,0,0,.63-1.9,3,3,0,0,1,.1-.45Z"/><path class="cls-6" d="M77.83,45.19a3.61,3.61,0,0,1-.13,1.17c-.17.47-.38,4.06,0,3.43s.8-2.5,1.06-3.13a3.57,3.57,0,0,0,.19-1.41Z"/><path class="cls-6" d="M79.83,45.29a8.66,8.66,0,0,0-.4,4c.21,2.67.63,5.92.85,4.44s-.17-5.63.13-6.47a10.58,10.58,0,0,0,.42-1.88Z"/><path class="cls-6" d="M81.26,45.38a15.84,15.84,0,0,0,.34,3c.38,2.2,1.31,4.15.93,6.3s-1.27,3.85-1.44,5.12.08,1.73.51.63S83,58,83.41,56.29s-.3-7.78-.08-8.67.6-2,.6-2Z"/><path class="cls-6" d="M85.06,45.76l.51,2.75a25.1,25.1,0,0,1,1,4.82c0,1.35,0,6.18.21,5.37a9.39,9.39,0,0,0,.72-5.88A58.68,58.68,0,0,1,86.42,47c0-.72,0-1.12,0-1.12Z"/><path class="cls-6" d="M88.19,46.15a34,34,0,0,0,1.73,3.93c1.18,2.33,2.37,4.44,2.5,6.51s-.34,7.83,0,6.81,2.58-4.86,1.1-8.46-2.75-5.67-2.45-6.51A3.18,3.18,0,0,1,92,47.09s-1.12-.39-2-.65A9.94,9.94,0,0,0,88.19,46.15Z"/><path class="cls-6" d="M95.67,48.89c-.16.11.72,1.58.61,3.59a23,23,0,0,0,.38,4.94,1.85,1.85,0,0,0,.43.76,16.62,16.62,0,0,0,.65-2.71,6.55,6.55,0,0,1,.11-2.5,16.19,16.19,0,0,1,.81-1.58s-.88-.93-1.59-1.53A9,9,0,0,0,95.67,48.89Z"/><path class="cls-6" d="M101.19,54.83a11.55,11.55,0,0,1-.89,2.2c-.65.92-.92,1.68-1.3,2.12a4.4,4.4,0,0,0-.65,1.23l.49,1.05s1.36-1.85,1.85-2.33.71-.87,1.14-1a1.81,1.81,0,0,0,.65-.28A14,14,0,0,0,101.19,54.83Z"/><path class="cls-6" d="M103.27,61.77a8.38,8.38,0,0,1-1.78,2.16c-.87.6-2,1.29-2,1.29l.15,1.85s1-.75,2.22-1.57,1.76-1.2,1.76-1.2Z"/><path class="cls-6" d="M104.22,71a10.68,10.68,0,0,1-2.24.35,14.26,14.26,0,0,1-2-.43l.16,1a10.09,10.09,0,0,0,1.9.29,6.09,6.09,0,0,0,2.21-.43Z"/><path class="cls-6" d="M104.51,73.6a19.9,19.9,0,0,1-2.15.54,9.19,9.19,0,0,1-1.77,0l.25,1.18a8.54,8.54,0,0,1,2.06-.05,6,6,0,0,0,1.82-.06Z"/><path class="cls-6" d="M105.19,77.81a10.87,10.87,0,0,1-1.85.83c-.65.16-1.49.35-1.49.35l.88,2.37s.61-.11,1.59-.38a2.7,2.7,0,0,0,1.47-1.07Z"/><path class="cls-6" d="M108.53,84.72l-2.85,1.41s.39.4.94.89a9.18,9.18,0,0,0,1.24.9,11.27,11.27,0,0,1,1.25-1,2.85,2.85,0,0,0,.75-1Z"/><path class="cls-6" d="M112.13,87.22a4.57,4.57,0,0,1-.49,1.19,10.67,10.67,0,0,1-.92.71l1.48.39s.68-.23.74-.74.11-1.17.11-1.17Z"/><path class="cls-6" d="M117.35,88.14l-.16,1.41a13.86,13.86,0,0,0,1.85-.22l.22-.11s.43-1.14.54-1.47a1.78,1.78,0,0,0,.05-.71,8.11,8.11,0,0,1-1.3.76A6.73,6.73,0,0,1,117.35,88.14Z"/><path class="cls-6" d="M120.39,86.73c-.16,0,.76,1.63,1,1.57s1.09-.16.81-.6-.81-1.47-.81-1.47Z"/><path class="cls-6" d="M81.74,69.78a12.76,12.76,0,0,0,4-2.44c1.16-1.33,3.36-4.58,3.13-3.89a21.27,21.27,0,0,1-3.54,5c-1.86,2-2.9,3.31-2.9,3.31Z"/><path class="cls-6" d="M85,75.28s2.32-2.09,4.18-3.42,5.68-2.73,4.93-2.2a38.45,38.45,0,0,0-5.51,4.06c-1.74,1.74-2.84,2.9-2.84,2.9Z"/><path class="cls-6" d="M86.09,77.2a21.79,21.79,0,0,0,5-.64c1.68-.58,4.58-1.39,3.42-.75s-5,1.57-4.12,1.68,6.09,2.09,5.39,2.15a16.52,16.52,0,0,1-3.83-.41c-1.16-.29-1.91-1-2.9-1a11.79,11.79,0,0,0-1.91.17Z"/><path class="cls-6" d="M92.93,83.92A5.5,5.5,0,0,0,95.43,83c1.1-.81,2.67-2.2,2-1.22a29.7,29.7,0,0,1-3.36,3.36Z"/><path class="cls-6" d="M97.05,89a4.08,4.08,0,0,1,1.74-.35c.87.06,2.84.23,2,.46a11.34,11.34,0,0,0-2.67.58,2.62,2.62,0,0,0-.79.65Z"/><path class="cls-6" d="M79.54,72.85a12.72,12.72,0,0,1,1.8-.29,13.84,13.84,0,0,1,1.39.12l.29.41a5.39,5.39,0,0,0-1.57.64c-.41.35-.75.7-.75.7Z"/><path class="cls-6" d="M85.28,79.52s1.39-1.45,1.16-.64a8.79,8.79,0,0,0-.29,1.51Z"/><polygon class="cls-6" points="89.05 82.88 90.61 82.13 91.2 82.39 89.69 83.64 89.05 82.88"/><polygon class="cls-6" points="94.12 88.21 96.41 88.27 94.44 88.97 94.12 88.21"/><polygon class="cls-6" points="94.31 93.24 95.95 94.19 95.48 94.94 94.03 93.72 94.31 93.24"/><path class="cls-11" d="M21.17,46.38c.62-.41,1-.91,1.27-1l.75-.32a16.23,16.23,0,0,1-2.64-5,21.93,21.93,0,0,1-.62-8.22c.14-1.3.26-2.13.33-2.64A18.36,18.36,0,0,0,17.94,29l-.85,0a19.5,19.5,0,0,1,1.13,6,25.32,25.32,0,0,1-2.33,8,11.53,11.53,0,0,1-1.59,2.08s1.54-.84,1.49-.22a1.52,1.52,0,0,0,1,1.45c.52.1.78-.52,1.86-.47S20.55,46.8,21.17,46.38Z"/><path class="cls-5" d="M14.6,49.95a4.61,4.61,0,0,0,1.15,1.78c.4.34,1.15,1.15,1.49,1.09s.29.63.75.46.4.57.92.29.8-.06,1.15-.34.92.23,1.26-.34,1.32-.29,1.43-.69.46-.4.52-.75.34-.46.34-.8.29-.34,0-.75a9.62,9.62,0,0,0-1.84-1.26,2,2,0,0,0-2.47-.75A25.72,25.72,0,0,0,14.6,49.95Z"/><path class="cls-4" d="M16.84,45.15A3,3,0,0,0,14,44.63a2.76,2.76,0,0,0-1.78,3.25c.93,3.76,6.38,1.66,6.69,1.23s1,.16,1.54.48S26.06,51.2,26,47.17c0-2-1-2.38-2.77-2.28a3.91,3.91,0,0,0-2.1.46,4.62,4.62,0,0,1-2.34.32A5.3,5.3,0,0,1,16.84,45.15Z"/><path class="cls-6" d="M15.89,50a5.46,5.46,0,0,0,1.68-.36,2.74,2.74,0,0,0,1.29-1A8.79,8.79,0,0,0,18.92,47l.37,0s-.25,1.58,0,1.8a2.91,2.91,0,0,0,1.41.9,14.63,14.63,0,0,0,1.75.34,4.65,4.65,0,0,1-1.85-.13c-1-.27-1.23-.6-1.51-.6s-.65.37-1.45.66A3.71,3.71,0,0,1,15.89,50Z"/><path class="cls-12" d="M19.36,45.56a2.22,2.22,0,0,0-1.51-.67c-.84,0-1.26.08-1.3.34a1.74,1.74,0,0,0,1,1.81,3.34,3.34,0,0,0,3.19.13c.88-.55,1.56-1.6,1.18-1.93a1.67,1.67,0,0,0-1.35-.29A2.8,2.8,0,0,0,19.36,45.56Z"/><path class="cls-6" d="M17.22,46.06a.61.61,0,0,1,.88,0c.29.34.46.59.25.67a1.06,1.06,0,0,1-.84-.17C17.26,46.44,17.13,46.22,17.22,46.06Z"/><path class="cls-6" d="M21.12,46a.79.79,0,0,0-.84.1s-.35.13-.38.31,0,.5.31.47.85-.16.93-.38S21.25,46.16,21.12,46Z"/><path class="cls-13" d="M15.42,46a.55.55,0,0,0,.19.19c.12.08.23-.11.11-.19l-.11-.11c-.08-.12-.27,0-.19.11Z"/><path class="cls-13" d="M15.79,47.41h.15a.11.11,0,0,0,0-.22h-.15a.11.11,0,0,0,0,.22Z"/><path class="cls-13" d="M16.09,48.34l.05.1c.07.13.26,0,.19-.11l-.05-.1c-.07-.13-.26,0-.19.11Z"/><path class="cls-13" d="M14.32,46.34a.3.3,0,0,0,.16.18c.12.08.23-.11.11-.19l-.08-.1c-.06-.13-.25,0-.19.11Z"/><path class="cls-13" d="M14.67,47.4v0a.11.11,0,0,0,.22,0v0a.11.11,0,0,0-.22,0Z"/><path class="cls-13" d="M14.79,48.48v0a.11.11,0,0,0,.22,0v0a.11.11,0,0,0-.22,0Z"/><path class="cls-13" d="M13.82,47.18c-.12.05-.18.14-.14.27s.26.08.21-.06h0c.13-.05.07-.27-.06-.21Z"/><path class="cls-13" d="M13.81,48.31a.2.2,0,0,0,.07.19c.09.11.25,0,.16-.16v0c0-.14-.21-.14-.22,0Z"/><path class="cls-13" d="M22.49,46.64l0,.11c-.05.13.16.19.21.06l0-.11c.05-.13-.16-.19-.21-.06Z"/><path class="cls-13" d="M22.36,47.28l0,.08c-.06.13.13.24.19.11l0-.08c.06-.13-.13-.24-.19-.11Z"/><path class="cls-13" d="M21.79,48.42v.06a.11.11,0,0,0,.22,0v-.06a.11.11,0,0,0-.22,0Z"/><path class="cls-13" d="M23.36,46.81v.08a.11.11,0,0,0,.22,0v-.08a.11.11,0,0,0-.22,0Z"/><path class="cls-13" d="M23.26,47.6a.11.11,0,0,0,0-.22.11.11,0,0,0,0,.22Z"/><path class="cls-13" d="M22.95,48.19l0,0a.11.11,0,0,0,.16.16l0,0a.11.11,0,0,0-.16-.16Z"/><path class="cls-13" d="M24.18,47.33l0,.15c0,.14.19.2.21.06l0-.15c0-.14-.19-.2-.21-.06Z"/><path class="cls-13" d="M23.94,48.14l-.06,0c-.14,0-.08.26.06.21l.06,0c.14,0,.08-.26-.06-.21Z"/><path class="cls-6" d="M22.46,45.78a8.68,8.68,0,0,0,3.29.53,9.61,9.61,0,0,0,3.36-.62,19.32,19.32,0,0,1-3.36.32C24.46,46,22.46,45.78,22.46,45.78Z"/><path class="cls-6" d="M25.22,44.27s.17.46,1.12.34a3,3,0,0,0,1.66-1,10.93,10.93,0,0,1-1.53.46A12.2,12.2,0,0,1,25.22,44.27Z"/><path class="cls-6" d="M25.68,43.14a1.38,1.38,0,0,0,1.49.17,2.43,2.43,0,0,0,1-1.59,3.26,3.26,0,0,1-1.28,1.13A5.33,5.33,0,0,1,25.68,43.14Z"/><path class="cls-6" d="M25.34,41.54s.25.29,1,0a1.05,1.05,0,0,0,.7-1,2.2,2.2,0,0,1-.79.55A5.43,5.43,0,0,0,25.34,41.54Z"/><path class="cls-6" d="M29.49,38.27a7.09,7.09,0,0,1,.46,3.44,4.6,4.6,0,0,1-1.16,2.68,12.83,12.83,0,0,0,.75-3.19C29.57,39.91,29.49,38.27,29.49,38.27Z"/><path class="cls-6" d="M8.73,45.61a2.53,2.53,0,0,0,2,1.13,2.11,2.11,0,0,0,1.82-1,5.24,5.24,0,0,1-1.74.34A6.87,6.87,0,0,1,8.73,45.61Z"/><path class="cls-6" d="M9.81,43.56a2.14,2.14,0,0,0,1.33,1.09,1.53,1.53,0,0,0,1.41-.29,4.87,4.87,0,0,1-1.33-.13A12.21,12.21,0,0,1,9.81,43.56Z"/><path class="cls-6" d="M9.43,41.63a2.16,2.16,0,0,0,1,1.51,2,2,0,0,0,1.74.08,4.62,4.62,0,0,1-1.53-.55A4,4,0,0,1,9.43,41.63Z"/><path class="cls-6" d="M11.05,40.62a.81.81,0,0,0,.33.88,1.2,1.2,0,0,0,1,.13s-.5-.34-.83-.5A1.54,1.54,0,0,1,11.05,40.62Z"/><path class="cls-6" d="M11.63,39.91a1.05,1.05,0,0,1-.66-.59c-.25-.5,0-1.68.08-1.13a3.19,3.19,0,0,0,.41,1A1.56,1.56,0,0,1,11.63,39.91Z"/><path class="cls-6" d="M12.08,36.34a2.05,2.05,0,0,0-.51,2c.36,1.15.46,1.17,1.08,1.56s.93.21.93.21-1.37-.68-1.6-1.6A5.12,5.12,0,0,1,12.08,36.34Z"/><path class="cls-6" d="M14.67,34a5.58,5.58,0,0,1,2.67-1.32,4.62,4.62,0,0,1,2.85.06,14.43,14.43,0,0,0-2.69.28C16.54,33.25,14.67,34,14.67,34Z"/><path class="cls-6" d="M18.85,32.68a6.4,6.4,0,0,1,3.37.19c1.44.62,2.19,1.34,1.64,1.13a10.16,10.16,0,0,0-2.38-1C20.51,32.85,18.9,32.68,18.85,32.68Z"/><path class="cls-6" d="M13.88,32.94a1,1,0,0,0-.82.11c-.3.26-.78.9-.36.7a2.34,2.34,0,0,0,.61-.45Z"/><path class="cls-6" d="M13.41,34.14a2.92,2.92,0,0,0-2,1c-.82,1-.74,2.26-.44,1.62a5.05,5.05,0,0,1,1.33-2A11.6,11.6,0,0,1,13.41,34.14Z"/><path class="cls-6" d="M10.19,37.15l0,1.07A2.43,2.43,0,0,0,10,39.32c0,.75-.3,1.88-.38.75a4,4,0,0,1,.17-1.9C9.91,37.83,10.19,37.15,10.19,37.15Z"/><path class="cls-6" d="M8.42,38.21A5.84,5.84,0,0,0,8,41.33c.15,2,1.33,3.84,1.08,3a13.76,13.76,0,0,1-.61-3.44C8.37,39.49,8.42,38.21,8.42,38.21Z"/><path class="cls-6" d="M8.94,37.59a3.16,3.16,0,0,1,.3-1.88c.48-1,1-1.49.84-.92A7.73,7.73,0,0,1,9.62,36C9.37,36.72,8.94,37.59,8.94,37.59Z"/><path class="cls-6" d="M10.71,33.73a1,1,0,0,1,.4-1c.57-.47,1-.38.78-.13s-.51.06-.7.45A4,4,0,0,1,10.71,33.73Z"/><path class="cls-6" d="M10.44,35.23a3.43,3.43,0,0,1,1.12-2c.91-.66,1.81-.83,1.35-.47s-.82.21-1.31.85S10.44,35.23,10.44,35.23Z"/><path class="cls-6" d="M12,32s0-.66,1.43-1.43,2.59-.41,2-.26a5.24,5.24,0,0,0-1.88.58C12.89,31.3,12,32,12,32Z"/><path class="cls-6" d="M14.45,31.6a2.34,2.34,0,0,1,1.85-1.17c1.5-.28,2.93.13,2.36.23s-1.52-.19-2.26.11S14.45,31.6,14.45,31.6Z"/><path class="cls-6" d="M14.57,32.71a4.23,4.23,0,0,1,2.7-1.56c1.81-.28,2.3,0,1.63.11a8.75,8.75,0,0,0-2,.3A23.43,23.43,0,0,0,14.57,32.71Z"/><path class="cls-6" d="M19.29,30.62a5,5,0,0,1,2.34.47c1,.55,2.36,1.86,1.81,1.58S21.78,31.32,21,31.19A11.27,11.27,0,0,1,19.31,31C19.17,30.85,19.29,30.62,19.29,30.62Z"/><path class="cls-6" d="M19.8,30.45a2.64,2.64,0,0,1,1.77-.19c.84.28,2.57,1.49,1.9,1.24s-1.56-.94-2.17-.9-1,.26-1.29.17A.29.29,0,0,1,19.8,30.45Z"/><path class="cls-6" d="M22.2,30.32s1.64-.7,2.53,0S26.46,32,26,31.81s-1.2-1.13-1.85-1.24S22.22,30.3,22.2,30.32Z"/><path class="cls-6" d="M24.65,34.16s.67-.49,1.6.62,1.33,2.82.74,1.88a8.29,8.29,0,0,0-1.22-1.58A3.49,3.49,0,0,0,24.65,34.16Z"/><path class="cls-6" d="M25.91,36.51a2.29,2.29,0,0,1,.4,2.24,2.9,2.9,0,0,1-1.48,1.41s-.38.09.13-.34a2.17,2.17,0,0,0,.89-1.54A16.13,16.13,0,0,0,25.91,36.51Z"/><path class="cls-6" d="M26.9,38.13s.46.28.11,1-.86,1.09-.7.62.44-.49.46-.79S26.9,38.13,26.9,38.13Z"/><path class="cls-6" d="M27.73,37.27a2.77,2.77,0,0,1,.74,1.56c.08.94-.27,1.92-.38,1.37s.17-.9-.08-1.6A4.85,4.85,0,0,1,27.73,37.27Z"/><path class="cls-6" d="M24.06,32.88s.3-.28.78.11,1.35,1,.76.83-.59-.41-.93-.55A2.82,2.82,0,0,1,24.06,32.88Z"/><path class="cls-6" d="M24.9,32.58a2,2,0,0,1,1.67.79c.76.9,1.31,2.45,1,2a8.82,8.82,0,0,0-1.33-1.77Z"/><path class="cls-6" d="M27.92,34.65a3.62,3.62,0,0,1,1,1.56c.34,1,.08,1.81,0,1.43a7.74,7.74,0,0,0-.48-1.75A10.59,10.59,0,0,1,27.92,34.65Z"/><path class="cls-6" d="M26.21,32.56s.21-.38.65.13.82,1.54.48,1.11a6.63,6.63,0,0,0-.63-.85C26.48,32.75,26.21,32.56,26.21,32.56Z"/><path class="cls-6" d="M16.85,30.3c0-.09-.13-.75.63-.7s1.94.21,1.12.38-1,0-1.18.19a2,2,0,0,1-.44.3Z"/><path class="cls-6" d="M19.17,30.06s0-.38.46-.41.78-.28,1.1.09a.44.44,0,0,1-.53.66c-.34-.21-.32-.32-.53-.36A1.51,1.51,0,0,0,19.17,30.06Z"/><path class="cls-6" d="M22.73,47.54a4.41,4.41,0,0,0,2.1.08,3.81,3.81,0,0,0,1.7-.77,4.2,4.2,0,0,1-1.58.49Z"/><path class="cls-6" d="M22.85,48.43s-.53.08.77.24a5.31,5.31,0,0,0,1.74,0,6.56,6.56,0,0,0-1.25-.28A11.69,11.69,0,0,0,22.85,48.43Z"/><path class="cls-6" d="M13.91,46.2a1.62,1.62,0,0,1-1.42.81l-1.94.08a5.28,5.28,0,0,0,2.06.28C13.34,47.21,13.91,46.2,13.91,46.2Z"/><path class="cls-6" d="M14,47.66a11.61,11.61,0,0,1-2,.24,12.2,12.2,0,0,1-1.46-.08,3,3,0,0,0,1.82.53A2.25,2.25,0,0,0,14,47.66Z"/><path class="cls-6" d="M19.34,29.09a46.74,46.74,0,0,1,.34,5.47c-.14,1.16-.55,3.21-.55,3.21s-.07-2.46-.14-5A11.37,11.37,0,0,1,19.34,29.09Z"/><path class="cls-6" d="M14.67,34.84a3,3,0,0,1,1.63.28,2.1,2.1,0,0,0,2,.37,1.59,1.59,0,0,0,1.07-.79s-1.07.61-1.68.42a10.83,10.83,0,0,0-2.1-.61A.93.93,0,0,0,14.67,34.84Z"/><path class="cls-6" d="M19.68,34.56s.08.94.82.89,1.4-.89,2.05-.79,1.54.14,1.54.14a1.38,1.38,0,0,0-1.45-.51,18.55,18.55,0,0,1-2.05.65A1.7,1.7,0,0,1,19.68,34.56Z"/><path class="cls-14" d="M114.63,88c-4.66-.84-8.58-4.2-9.79-12s-1-15.76-3.08-20A16.94,16.94,0,0,0,90,46.52a15.39,15.39,0,0,1,3.51,5.3l2.09,4,.75,1.81c-.28-.82-.51-1.42-.51-1.42s3.36,4.94,3.45,7a66.15,66.15,0,0,0,2.24,14.92c1.77,5.78,4.38,10.35,10.63,11.37s11.47-1.21,10.72-3.17S119.29,88.86,114.63,88Z"/><g class="cls-15"><path class="cls-16" d="M95.89,56.23s.43.64,1,1.55A3.88,3.88,0,0,0,95.89,56.23Z"/><path class="cls-3" d="M102,88.86c0-2-1.68-6.15-2.61-6.9s-1.77-1.59-2-4.2.19-15.29-.19-17.06a39,39,0,0,0-1.4-4.48,5.66,5.66,0,0,0-3.07-1.51s2.08,5.62.91,9.24-2.63,6.25-.63,9.33,2.57,7.19,4.36,8.49,3.91,6,3.31,7.36-2.32,8.79-4.14,9.06a13.67,13.67,0,0,0-4,1.5,6.85,6.85,0,0,0,1,.06c2.14,0,3.92.28,4.66-1.4S102,90.82,102,88.86Z"/></g><path class="cls-17" d="M81.75,67.75l-1.43-.35c-2.56-.64-10,3.11-17.3,4s-19.13,1.74-24.26,1.74a5.93,5.93,0,0,0-3,.8c-.54,2.35-2.31,7.56-2.31,7.56l-1,9.69c.84-3.6,2-7.57,2-9.17s2.14-5.59,3.26-5.69,12-.37,18.83-1.21,21.63-4,21.63-4,1.1,1.43,2.5,3.16c.87-.45,1.63-.89,2.27-1.31A7.59,7.59,0,0,1,81.75,67.75Z"/></g></g></svg>