<svg id="Animals&#x52A8;&#x7269;" xmlns="http://www.w3.org/2000/svg" viewbox="0 0 128 128" width="128" height="128"><defs><style>.cls-1{fill:#a8a8a8;stroke:none;}.cls-2{fill:#909090;stroke:none;}.cls-3{fill:#ededed;stroke:none;}.cls-4{fill:#313131;stroke:none;}.cls-5{fill:#c77e40;stroke:none;}.cls-16,.cls-6,.cls-8{fill:#231f20;stroke:none;}.cls-6{opacity:0.25;stroke:none;}.cls-7{fill:#1a1c1d;stroke:none;}.cls-8{opacity:0.22;stroke:none;}.cls-9{fill:#2c2c2c;stroke:none;}.cls-10{fill:#c57f41;stroke:none;}.cls-11{fill:#282828;stroke:none;}.cls-12{fill:#8c5c2e;stroke:none;}.cls-13{fill:#7c522d;stroke:none;}.cls-14{fill:#fff;stroke:none;}.cls-15{fill:#ccccce;stroke:none;}.cls-16{opacity:0.16;stroke:none;}.cls-17{fill:#ccc;stroke:none;}</style></defs><title>animals&#x52A8;&#x7269;</title><path class="cls-1" d="M78.81,71.51s-2.39,3-.76,3.91,4.45-.22,4.88.22,3,5,6.29,6.94,7.59,3.8,7.92,5.53,3.25,11.93,2.6,12.48-2.6,1.63-2.71,2.6,0,2.28,2,2.28h5.1a3,3,0,0,0,2.71-3.69c-.43-3.47-2.82-18.44-2.82-18.44S90.21,69,85.65,69.78A32.81,32.81,0,0,0,78.81,71.51Z"/><path class="cls-1" d="M32.62,61.86s.71,10.63,1.06,14.65.77,12.48,0,16.06-1.94,5.1-3.39,5.86-3.73,2.06-3.75,3-.3,2.82,1.66,2.82h6.29s1.72-.22,2.47-2.82,3.73-8.25,3.8-9.87,1.06-11.39,1.69-14.21l.62-2.82s-3-7.81-5.52-9.76A24.48,24.48,0,0,0,32.62,61.86Z"/><path class="cls-2" d="M37.54,64.79a24.48,24.48,0,0,0-4.92-2.93s.2,3,.44,6.43a15.23,15.23,0,0,0,2.64,2.8,56.29,56.29,0,0,1,6.71,6.41l0-.12.62-2.82S40.1,66.74,37.54,64.79Z"/><path class="cls-3" d="M18.77,25c-.79,1.58-1.08,2.86-3.45,3.74s-6.89,1.18-7.48,2-1.28,3.94-.3,7.39S9.32,42.78,11.19,43s8.07.3,9.95.39a5,5,0,0,1,4.23,2c1,1.38,2.36,4.73,3.74,6.7s2.66,3.74,3,6.7.39,5.12,2.46,7.29,5.22,4,5.81,5.81,5,14.38,5.81,15.85.59,10.83-.79,11.62-3.54,1.18-4.63,2.76-.79,3.35.3,3.35h7.39a4.89,4.89,0,0,0,3.25-3.74c.79-3.15,2.56-9,2-12.8s-2.76-13.49-2.17-13.49,11.72-.59,15.76-1.08,19.6-3,19.89-2.56S93.41,79.31,99,82.46s11,5.32,11.72,6.7,4.14,10.14,3.35,11.23-3,1.48-2.76,2.86.79,2.26,2.17,2.26h5.71s3.15-.39,2.76-3.25S118,84.82,117,83.84a50.16,50.16,0,0,1-7.19-9.35c-2-3.74-3.15-16.74-3.84-18.71s-2.26-3.74-1.77-4.14A40.7,40.7,0,0,0,113.4,37c2.76-8.17,3.25-14.67,2-14.77s-2.07,6.79-7,14.57-8.17,10.54-9,10.54S88.58,45.63,84,45.53s-13-.39-16.54-1.38-15.76-3.94-19.1-6.7-5.22-5.51-5.81-7.58S39.76,19.2,33.06,19.16C20.89,19.07,19.56,23.38,18.77,25Z"/><path class="cls-4" d="M26.19,40.74s-2,.28-3.44.39c-1.1.08-1.94,1.5-2.3,2.2l.68,0a7.46,7.46,0,0,1,2.16.39l3.23,0Z"/><path class="cls-5" d="M23.16,41.42c1.46,0,18.49-3.66,20.05-4.18.93-.31,2.35-.92,3.34-1.36a14.79,14.79,0,0,1-4-6c-.59-2.07-2.74-10.68-9.44-10.72-7,0-10.41,1.36-12.2,2.86a7.23,7.23,0,0,0-.63,2.49c-.1,2.19-.31,3.34-1.57,4s-4.28,1.67-4.28,3.24.1,4.07-.42,5.12-.84,3,.1,3.86c.62.55,1.41,1.72,2.18,2.52,2,.06,4,.11,4.88.16C21.13,43.37,21.7,41.42,23.16,41.42Z"/><path class="cls-6" d="M41.68,34.91c-1.16-1.46,1.15-3.88.82-5-.59-2.07-2.74-10.68-9.44-10.72-.68,0-1.33,0-1.94,0,0,0-.51,7.4-2.17,9.41s-4.55,4.9-4.81,6.48-1.49,5-3.85,5.69S17.65,42.16,14,42a31.16,31.16,0,0,1-5.2-.67A2.92,2.92,0,0,0,11.19,43c1.87.2,8.07.3,9.95.39a5,5,0,0,1,4.23,2c1,1.38,2.36,4.73,3.74,6.7l.61.87a18.44,18.44,0,0,1,1.41-4c.61-.79,1.2-2.18,5.75-5.94C41.19,39.4,41.66,40.83,41.68,34.91Z"/><path class="cls-7" d="M7,31.21s1.85-.44,2.51.3a1.53,1.53,0,0,1-.15,2.22c-.59.52-1.26,1.11-1.33,1.48s-.22.89-.59.89-1.11-.22-1.11-2A6,6,0,0,1,7,31.21Z"/><path class="cls-8" d="M23.22,33.43c1.33-.37,1.37-2.8-.1-4.2a15.71,15.71,0,0,0-3.47-2.35c-.22.37-.54,1.37-1,1.58s-1,.43-1.56.72a9.08,9.08,0,0,1,2.42,1.59C20.93,32.1,21.89,33.8,23.22,33.43Z"/><path class="cls-9" d="M48.31,37.46C47.7,37,47,36.37,46.53,35.87c-.52.21-1.09.43-1.47.56-1.22.41-2.36,1-3,1.2s-2,3.59-2,3.59A20.43,20.43,0,0,0,46,40.27c2-.62,2.75-1.6,3-2.29A7.25,7.25,0,0,1,48.31,37.46Z"/><path class="cls-10" d="M109.85,74.48c-2-3.74-3.15-16.74-3.84-18.71s-2.26-3.74-1.77-4.14a40.59,40.59,0,0,0,7.22-10.1c.27-.53-1.17-1.09-1.12-2.82.08-3,1.14-6.84-2-1.94-4.92,7.78-8.17,10.54-9,10.54S88.58,45.63,84,45.53s-13-.39-16.54-1.38c-3-.83-12.14-3.06-16.94-5.39a4.91,4.91,0,0,1-1.55,1.92c-1.54,1.13-4.62,2.16-5.13,4.21s-.21,3-1.13,4.21-.72,1.85-1,2.36-.51,8.72.51,9.65A8.52,8.52,0,0,1,44.71,64c.51,1.23.82,6,3.39,6s7.49-3,9.65-3.18,5.54-.62,5.54-.62.82,3.18,3.39,3.28S75.4,65.11,77,65.52s3.18,2,4.52,2,2.46-2,3.39-1.64,2,3.08,4,3.18,4.72-2.26,6.47-.51S96.55,73.84,99,74s3.39-4.62,5.65-3.28,1.23,7,3.59,7.49a10,10,0,0,0,3.88-.23A29.1,29.1,0,0,1,109.85,74.48Z"/><path class="cls-9" d="M47.11,51.1A1,1,0,0,0,45.87,50c-2.59.81-7.74,2.53-7.95,3.48-.27,1.28-.82,8.21,1.82,8.21s2.92-3.92,3.56-4.56a25,25,0,0,0,3.19-4.2A7,7,0,0,0,47.11,51.1Z"/><path class="cls-11" d="M108.38,36.77c-4.92,7.78-8.17,10.54-9,10.54S88.58,45.63,84,45.53s-13-.39-16.54-1.38c-3-.83-12.14-3.06-16.94-5.39a4.91,4.91,0,0,1-1.55,1.92c-1.54,1.13-4.62,2.16-5.13,4.21-.11.44-.18.82-.24,1.17a5.18,5.18,0,0,0,2.22-.35c2.37-.91,5.47-4.29,7-2.83s-1.28,3.47-1.19,4.56.82,5.11-.27,6.57-4.84,4.38-2.19,6.11,7.75-11.68,9.21-11.4-.27,4.11.82,5.2,2.92.36,2.46,1.92-1.46,4.2-.46,5.38,1.37,2.46,1,3.1c-.25.43-.75,1.45-1,2.07l2.14-.25s.82,3.18,3.39,3.28S75.4,65.11,77,65.52s3.18,2,4.52,2,2.46-2,3.39-1.64c.47.16,1,1,1.62,1.71,1.44,0,4.13-.08,4.91-.94,1.09-1.19,2.37-9.12,4.56-10.4s3-.46,3.56-1.09-.55-3.47.73-4.11,2.55-1.09,3-2.19S106,46,106.08,45.07a4.54,4.54,0,0,1,1-2.74,25.42,25.42,0,0,0,4.11-7,26.92,26.92,0,0,0,.51-4.85A45.84,45.84,0,0,1,108.38,36.77Z"/><path class="cls-9" d="M106.67,59.3c-1.18.73-3.25,2.25-2.79,3.57.64,1.82,2.37,3.56,3.38,4.74a2.85,2.85,0,0,0,.85.68C107.53,65.25,107.06,61.83,106.67,59.3Z"/><path class="cls-12" d="M42.57,38.75a27.9,27.9,0,0,0-.88-11.5C40.5,24,38,19.19,33.06,19.16c-.68,0-1.33,0-1.94,0a63.73,63.73,0,0,1-2.27,10.21c-1.39,3.68-4.18,8-4.28,9.95S26.05,47.4,30.83,48,42.37,40.94,42.57,38.75Z"/><path class="cls-13" d="M30.83,48c4.78.6,11.54-7.06,11.74-9.25a27.9,27.9,0,0,0-.88-11.5,17.74,17.74,0,0,0-2.48-4.77c.88,2.55,2.61,8.1,1.6,9.84-1.33,2.29-1.55,6.06-2.88,6.79s-2.22.89-2.73,1.62-1.55,4.8-4.43,5.39c-1.76.36-3.71-1-5-2.09A6.73,6.73,0,0,0,30.83,48Z"/><path class="cls-7" d="M19.18,26.59a.62.62,0,0,0-.77.56c-.07.89-.06,2.4.82,2.66a6.06,6.06,0,0,0,3.69-.44,9.75,9.75,0,0,0-2.81-2.44A5.38,5.38,0,0,0,19.18,26.59Z"/><circle class="cls-14" cx="19.63" cy="27.86" r="0.37"/><path class="cls-15" d="M120.31,103.54c-1.86,1.13-6.19,1.2-8.19.73l-.57-.14a1.9,1.9,0,0,0,2,1.37h5.71s3.15-.39,2.76-3.25S118,84.82,117,83.84C117,83.84,122.17,102.41,120.31,103.54Z"/><path class="cls-15" d="M51.66,101.66c.79-3.15,2.56-9,2-12.8,0,0-1.15,13.57-5.62,15.16-2.6.92-6.45.7-7.69.08l-.25-.13c0,.82.33,1.43,1,1.43h7.39A4.89,4.89,0,0,0,51.66,101.66Z"/><path class="cls-16" d="M104.24,51.64A40.7,40.7,0,0,0,113.4,37c2.74-8.12,3.24-14.59,2-14.76a52.64,52.64,0,0,1-1.5,10.65C112,40.61,104.24,51.64,104.24,51.64Z"/><path class="cls-17" d="M89.23,82.58c3.25,2,7.59,3.8,7.92,5.53.19,1,1.28,5,2,8.17a15.19,15.19,0,0,0,.59-2.73c.36-3.13-.72-5.77-2.29-8.3-1.27-2-7.2-3.15-9.4-3.49A10.18,10.18,0,0,0,89.23,82.58Z"/></svg>