<svg id="Animals&#x52A8;&#x7269;" xmlns="http://www.w3.org/2000/svg" viewbox="0 0 128 128" width="128" height="128"><defs><style>.cls-1{fill:#bb5b20;stroke:none;}.cls-2{fill:#270514;stroke:none;}.cls-3{fill:#9c4101;stroke:none;}.cls-4{fill:#853919;stroke:none;}.cls-5{fill:#622400;stroke:none;}.cls-6{fill:#280616;stroke:none;}.cls-7{fill:#290811;stroke:none;}.cls-8{fill:#772f08;stroke:none;}.cls-9{fill:#5b2b15;stroke:none;}.cls-10{fill:#fff;stroke:none;}</style></defs><title>animals&#x52A8;&#x7269;</title><path class="cls-1" d="M23.29,19.71s-1.5-.88-1.2-1.73a4.85,4.85,0,0,0,.11-3.66c-.63-1.44-1.27-1.59-1.27-1.59s-2,1.91-1.9,3.49,1.47,3.1.75,3.38-2.66.62-3.23-.11-1-2.38-1.76-3.18-1.14-.8-1.14-.8-1.11,2.79-.05,4.88,2.18,3.75,1.39,4.18S12.68,26,12.31,27.05s-.1,2.8-1.2,4.43S6.8,39,6.58,39.25s-1.17,2-.32,2.94,1.4,2.74,2.26,3.11,3,1.11,4.66-.09,3.93-5.62,5.87-5.6a15.81,15.81,0,0,0,4.24-.46c.65-.21,1.88-1.56,2.65,0s1.88,4.83,3.94,7a13.85,13.85,0,0,1,3.59,6.64c.62,2.45,2,11.64,4.44,13.68s3,3.33,4.44,7.29,4,10.52,3.89,11.59S46,88.1,46.57,89a11.09,11.09,0,0,1,1.5,6.83c-.19,3.87-.5,6.81-1.23,7.73s-3.91,3-4.56,3.82-1,1.93-.38,1.93a11.18,11.18,0,0,1,2.79.32,7,7,0,0,0,3.51.25,2.69,2.69,0,0,0,1.53-2.35c.08-1.07-1.7-1.81-1-3.24s2.95-.76,3.33-2.4-1.53-4-1.23-5.54.2-11.76.2-11.76,4.06,15.9,3.54,17.4-3.42,4.27-3.79,5.34-.46,2.86.47,2.73,2-1.05,3.16-.75,1.79.67,2.66-.33,1.24-2.28.68-2.93-1.33-3.1-.6-4.38,2-2.27,1.26-3.86-5.19-23.65-4.53-25.66,1.54-2.92,3.4-2.76,8,1.81,15.7.46,13.92-6.66,15.27-6.14,2.87.32,5.89,12.76,4.19,17.12,2.57,20.9-7.5,10-6.86,10.76,3.8-.1,4.52.12,2.43.67,2.65,0a4.6,4.6,0,0,0-.11-3.09c-.49-.87-.62-2.66.32-3.22s2.45-1,2.41-3.78.4-10.75,1-12,.85-5.44.44-7.81-.65-6.32-.65-6.32a30.48,30.48,0,0,1,5.85,9.89c2,5.83,2.27,8.78,3,9.29s.94,6.25.9,9.62l0,3.37a24.07,24.07,0,0,0-1.76,3.85c-.23,1.07-.45,1.86,1.13,2s5-.16,5-.81.1-2.87-.75-3.52-.83-3,0-3.66,2.53-1.91,1.2-4.51a26.56,26.56,0,0,1-3.11-10.79c-.38-5,.9-9.82-.17-11s-4.18-5.14-4.12-9.94,3.85-11.08,1.32-15.69-5.39-6.55-5.32-7.25,1-.83,2,0,4.82,4.93,5,7.08.77,1.3.82,4.1-.05,11.4.44,12.63a19.43,19.43,0,0,1,1.31,5c.33,2.37,1.3,5.61,1.36,6.76s.72,6.61.93,6.47,1,.15,1.19,2.52a72.1,72.1,0,0,0,1.56,8.55c.14.22.83,3,1.06,1a39.72,39.72,0,0,1,.78-5.73c.37-.93,0-8.39.17-9.18a14.21,14.21,0,0,0,.63-5.44,25.69,25.69,0,0,0-1-5.89,4.82,4.82,0,0,1,0-3c.36-.5,1,.8.67-1.79s1-2-.14-6.6-2-11.21-9-16-17.58-6.07-22.17-5.69-6.7,2.8-13.23,3.15a103,103,0,0,1-14.05-.44s-.55-1.94-2.06-2.25S58,36.37,57.33,36.36a2.21,2.21,0,0,1-1.14-.3s.37-.71-.21-.72H54.61s1-.92.44-.86a11.24,11.24,0,0,1-3.15-.11c-.21-.22-.31-1-1-1s-.72-.6-1.5-.56l-.77,0a.57.57,0,0,0-.49-.87,11.77,11.77,0,0,1-1.68-.34s.37-.86-.54-1-1.41-.2-1.41-.2.41-.36-.27-.64-1.3-1.79-2-1.75-2,.07-1.68-.25,1-1,1-1a5.8,5.8,0,0,0-1.9-.89c-.86-.15-.95-.6-2-.61s-2-.39-1.54-.74.42-.63.42-.63-2.55.2-2.68-.21,1.15-1.08,1.33-1-.13-.37-1.45-.11-2.14.52-2,.21l.83-1.4a8.38,8.38,0,0,0-1.55.26c-.5.18-1,.44-1.09.26s.56-1.13.1-1-1.83,1-1.73.44,1.3-2.31.43-2.09-2,.75-2,.52.06-1.23-1.09-.56-1.65.76-1.87.71A1.31,1.31,0,0,1,23.29,19.71Z"/><path class="cls-2" d="M120.86,76.58a25.68,25.68,0,0,0-1-5.89,4.82,4.82,0,0,1,0-3c.36-.5,1,.8.67-1.79s1-2-.14-6.6-2-11.21-9-16a31.6,31.6,0,0,0-9-4.06,9.67,9.67,0,0,1,2.23,2,2.08,2.08,0,0,1,.23,1.14,3.39,3.39,0,0,1,.85.51c1.07.87,4.82,4.93,5,7.08s.77,1.3.82,4.1-.05,11.4.44,12.63a19.43,19.43,0,0,1,1.31,5c.33,2.37,1.3,5.61,1.36,6.76s.72,6.61.93,6.47,1,.15,1.19,2.52a72.1,72.1,0,0,0,1.56,8.55c.14.22.83,3,1.06,1a39.72,39.72,0,0,1,.78-5.73c.37-.93,0-8.39.17-9.18A14.21,14.21,0,0,0,120.86,76.58Z"/><path class="cls-3" d="M113.8,105.62c-.85-.65-.83-3,0-3.66s2.53-1.91,1.2-4.51a26.56,26.56,0,0,1-3.11-10.79c-.38-5,.9-9.82-.17-11s-4.18-5.14-4.12-9.94c0-4.19,2.94-9.5,2-13.86a14.47,14.47,0,0,0-1.15-2c-1.38-2-4.81-2.86-8.79-4.45s-9.33-.1-11.87,1.13S77.48,49.36,73.2,49.31s-7.12,2.8-9.73,4-3.79-.18-5.11-1.18-2.36-2.34-3.69-2.5S53.3,53,52.5,55.61,48.64,58,48.64,58c-2.06,0-6.06-18-6.9-19.57s-1.78,0-2.14.12-1.56-.73-2.75-2.45a45,45,0,0,0-4-4.88,5.43,5.43,0,0,1-1.31-3.86c0-1.35,1.59-2,1.59-2V22.71c-1,.21-1.55.36-1.39.09l.83-1.4a8.38,8.38,0,0,0-1.55.26c-.5.18-1,.44-1.09.26s.56-1.13.1-1-1.83,1-1.73.44,1.3-2.31.43-2.09-2,.75-2,.52.06-1.23-1.09-.56-1.65.76-1.87.71a1.31,1.31,0,0,1-.45-.23s-1.5-.88-1.2-1.73a4.85,4.85,0,0,0,.11-3.66c-.63-1.44-1.27-1.59-1.27-1.59-.53.8-.51,3.18-.66,4.17s1.17,3.57,1.44,4.57a32.08,32.08,0,0,1,.38,4.27c.06.78-1,1.13-2,1.61s-2.87,2-4,2.66a4.85,4.85,0,0,0-2,3.18,8.55,8.55,0,0,1-2.47,4.24c-1.58,1.55-.81,2.27-.67,3A3.28,3.28,0,0,1,9.6,42.89c-.6.32-3-.47-3.31-.67.83,1,1.39,2.71,2.23,3.07s3,1.11,4.66-.09,3.93-5.62,5.87-5.6a15.81,15.81,0,0,0,4.24-.46c.65-.21,1.88-1.56,2.65,0s1.88,4.83,3.94,7a13.85,13.85,0,0,1,3.59,6.64c.47,1.84,1.34,7.52,2.81,11.07h0l.18.41h0l.18.39v0l.18.35,0,.05.17.29,0,.07.16.24.08.1.14.18.11.13.11.12.23.21.33.28.06.05.3.26,0,0,.28.26h0l.27.27,0,0,.24.26,0,0,.23.27h0l.22.28,0,0,.2.28v0l.2.3h0l.19.31,0,0,.18.33h0l.18.36h0l.17.37v0c.12.26.23.54.35.83h0l.18.46c.21.55.43,1.16.67,1.86,1.39,4,4,10.52,3.89,11.59S46,88.1,46.57,89a11.09,11.09,0,0,1,1.5,6.83c-.19,3.87-.5,6.81-1.23,7.73s-3.91,3-4.56,3.82-1,1.93-.38,1.93a11.18,11.18,0,0,1,2.79.32,7,7,0,0,0,3.51.25,2.69,2.69,0,0,0,1.53-2.35c.08-1.07-1.7-1.81-1-3.24s2.95-.76,3.33-2.4-1.53-4-1.23-5.54.2-11.76.2-11.76,4.06,15.9,3.54,17.4-3.42,4.27-3.79,5.34-.46,2.86.47,2.73,2-1.05,3.16-.75,1.79.67,2.66-.33,1.24-2.28.68-2.93-1.33-3.1-.6-4.38,2-2.27,1.26-3.86-5.19-23.65-4.53-25.66,1.54-2.92,3.4-2.76,8,1.81,15.7.46,13.92-6.66,15.27-6.14,2.87.32,5.89,12.76,4.19,17.12,2.57,20.9-7.5,10-6.86,10.76,3.8-.1,4.52.12,2.43.67,2.65,0a4.6,4.6,0,0,0-.11-3.09c-.49-.87-.62-2.66.32-3.22s2.45-1,2.41-3.78.4-10.75,1-12,.85-5.44.44-7.81-.65-6.32-.65-6.32a30.48,30.48,0,0,1,5.85,9.89c2,5.83,2.27,8.78,3,9.29s.94,6.25.9,9.62l0,3.37a24.06,24.06,0,0,0-1.76,3.85c-.23,1.07-.45,1.86,1.13,2s5-.16,5-.81S114.66,106.28,113.8,105.62Z"/><path class="cls-4" d="M106.14,53.31a18.59,18.59,0,0,0-4.2-7c-.74-.28-1.52-.57-2.32-.89-4-1.59-9.33-.1-11.87,1.13S77.48,49.36,73.2,49.31s-7.12,2.8-9.73,4-3.79-.18-5.11-1.18-2.36-2.34-3.69-2.5S53.3,53,52.5,55.61,48.64,58,48.64,58c-1.43,0-3.78-8.61-5.37-14.44a3.5,3.5,0,0,0-3-2.55c-.79-.09-1.56-.19-2.06-.28-1.38-.25-4.68-2-3,.12a20.71,20.71,0,0,1,4,10.52c.41,4.55,0,10.17,2.47,13.43s3.9,10,4.19,11.83S48.6,87.35,49.37,87.2s1.61.33.11-3.39-1.07-15,.95-16.09,9.37-4,10.91-3.73a69.1,69.1,0,0,0,15.34-1c5.25-1.1,12.8-3.81,15.6-.76,5.42,5.9,11.69,6.69,11.25,4.45a7.87,7.87,0,0,0-.25-.95,4.27,4.27,0,0,1,1.24-4.51C106.15,59.78,107.62,57.29,106.14,53.31Z"/><path class="cls-5" d="M91.93,64.05a7.65,7.65,0,0,0-3.63-.38c1.36.52,2.87.32,5.89,12.76s4.19,17.12,2.57,20.9-7.5,10-6.86,10.76,3.8-.1,4.52.12,2.43.67,2.65,0a4.6,4.6,0,0,0-.11-3.09c-.49-.87-.62-2.66.32-3.22s2.45-1,2.41-3.78.4-10.75,1-12,.85-5.44.44-7.81-.65-6.32-.65-6.32-3.09-2-4.36-3S93.6,64.74,91.93,64.05Z"/><path class="cls-5" d="M56.8,69.25c-.2-.27-2.62,0-4.66,1.36s-1.08,14-1.08,14h0s1.43,5.6,2.48,10.47l.24,1.14.15.73.07.36.13.69c.11.56.2,1.09.28,1.57q0,.29.08.55l0,.25q0,.25.06.46a3.5,3.5,0,0,1,0,1.18c-.37,1.08-2,2.83-3,4.12l-.21.28a4.09,4.09,0,0,0-.58.94,4.86,4.86,0,0,0-.17.66c-.19,1-.11,2.18.65,2.07s1.38-.57,2.16-.75a2.09,2.09,0,0,1,1,0c1.07.28,1.7.62,2.5-.16l.16-.17.18-.22a3.09,3.09,0,0,0,.76-2.12,1.35,1.35,0,0,0,0-.17,1.06,1.06,0,0,0-.22-.43,5.44,5.44,0,0,1-.81-3.85,2.33,2.33,0,0,1,.09-.28,1.93,1.93,0,0,1,.12-.25c.73-1.28,2-2.27,1.26-3.86l-.06-.13c-.09-.24-.22-.68-.37-1.27l0-.15c-.95-3.75-2.82-13.09-3.68-19-.07-.46-.13-.9-.18-1.31a13.77,13.77,0,0,1-.2-3.77A8,8,0,0,1,54.4,71a2.61,2.61,0,0,1,2.46-1.62Z"/><path class="cls-6" d="M49.22,106.31h-.16a4.1,4.1,0,0,1-2.21-.83,6.94,6.94,0,0,0-1.62-.54l-1.06.82-.69.53a13.5,13.5,0,0,0-1.05.89l-.15.16a3.74,3.74,0,0,0-.23.31c-.07.11-.14.21-.2.32-.32.6-.42,1.19-.06,1.29h.78c.44,0,1,.06,1.39.12h0a2.57,2.57,0,0,1,.68.17l.24.09a7,7,0,0,0,.83.18,5.61,5.61,0,0,0,2.44,0h0a2.69,2.69,0,0,0,1.51-2.34A1.88,1.88,0,0,0,49.22,106.31Z"/><path class="cls-6" d="M50.89,109.94l.07,0,0,0,.09,0h.19l.22,0,.07,0,.17-.05.06,0,.22-.08.16-.06h0a7.52,7.52,0,0,1,1.22-.45h0l.23,0h.54l.24,0h0l.17,0,.13,0,.08,0,.17,0,.07,0,.11,0,.07,0,.1,0,.07,0,.09,0h.67l.08,0,.06,0,.08,0,.06,0,.09-.05.06,0,.1-.07.05,0,.15-.14.16-.17.18-.22.18-.25,0,0,.15-.25h0l.14-.27v0l.09-.22,0-.06c0-.08.05-.16.07-.23v0c0-.08,0-.16,0-.24v-.06q0-.09,0-.17s0,0,0-.07a1.6,1.6,0,0,0,0-.21h0v-.07c-.64-.36-1.65-.94-2.56-1.49a3.67,3.67,0,0,0-2.7-.39c-.41.5-.82,1-1.16,1.43h0l-.21.28-.19.26,0,0-.13.2L51,107l-.08.13a1.62,1.62,0,0,0-.09.21h0c0,.09-.06.18-.09.28l0,.07c0,.1,0,.2-.07.3h0l0,.22v.06l0,.15v.08s0,.1,0,.15v.07c0,.06,0,.11,0,.17s0,0,0,0,0,.14,0,.2v.05s0,.09,0,.14v.06l0,.11,0,.06,0,.11,0,0,.07.13,0,0,.07.08Z"/><path class="cls-6" d="M94.41,108.21l.22.07a7.94,7.94,0,0,0,1.13.25l.34,0h0c.46,0,.84-.07.94-.39a5.19,5.19,0,0,0,.19-1.06c0-.14,0-.28,0-.42s0-.29,0-.43a4,4,0,0,0-.05-.42,2.4,2.4,0,0,0-.26-.75,2.55,2.55,0,0,1-.19-.45c-1.25-.33-3.2-.8-4.1-1-1.67,2.23-3.1,4.1-2.77,4.47a1.06,1.06,0,0,0,.65.27C91.7,108.52,93.84,108,94.41,108.21Z"/><path class="cls-6" d="M110.19,110c.36,0,.77,0,1.18,0l.41,0,.61-.06.39-.05.59-.11.25-.06a3.48,3.48,0,0,0,.55-.18h0c.21-.1.34-.21.36-.33a7.84,7.84,0,0,0-.12-2.29,2.13,2.13,0,0,0-.63-1.23,1,1,0,0,1-.16-.15l-3.48-1.39s-.27.5-.61,1.15a15,15,0,0,0-1.16,2.71l-.08.39a3.91,3.91,0,0,0-.08.52q0,.08,0,.16a1.23,1.23,0,0,0,0,.15.92.92,0,0,0,0,.14.78.78,0,0,0,.42.46,2.33,2.33,0,0,0,.82.21Z"/><path class="cls-7" d="M19.07,19.77s.07-.82-1.17-.54-2.06.74-1.91,3a15.81,15.81,0,0,0,1.64,5.06s-.43-3.29,0-2.46a15.73,15.73,0,0,0,1.15,1.71s-.9-3.23-.21-2.29a5.15,5.15,0,0,1,.86,1.65S18.8,23.29,19.2,24s.69,1.24.69,1.24a43.61,43.61,0,0,1-.71-4.7C19.3,20.19,18.84,19.6,19.07,19.77Z"/><path class="cls-7" d="M59.82,38c-1.5-.3-1.77-1.67-2.49-1.68a2.21,2.21,0,0,1-1.14-.3s.37-.71-.21-.72H54.61s1-.92.44-.86a11.24,11.24,0,0,1-3.15-.11c-.21-.22-.31-1-1-1s-.72-.6-1.5-.56l-.77,0a.57.57,0,0,0-.49-.87,11.77,11.77,0,0,1-1.68-.34s.37-.86-.54-1-1.41-.2-1.41-.2.41-.36-.27-.64-1.3-1.79-2-1.75-2,.07-1.68-.25,1-1,1-1a5.8,5.8,0,0,0-1.9-.89c-.86-.15-.95-.6-2-.61s-2-.39-1.54-.74.42-.63.42-.63-2.55.2-2.68-.21,1.15-1.08,1.33-1-.13-.37-1.45-.11-2.14.52-2,.21l.83-1.4a8.38,8.38,0,0,0-1.55.26c-.5.18-1,.44-1.09.26s.56-1.13.1-1-1.83,1-1.73.44,1.3-2.31.43-2.09-2,.75-2,.52.06-1.23-1.09-.56-1.65.76-1.87.71a13.7,13.7,0,0,0,2.42,1.62c1,.45,12,6.31,14.2,8.07s10.58,7.84,13.37,8.88a50.6,50.6,0,0,0,8.14,1.78S61.32,38.35,59.82,38Z"/><path class="cls-6" d="M18.36,29.68a3,3,0,0,1,1.9-1.62,2.55,2.55,0,0,1,2.12.17,2.83,2.83,0,0,1-1.61,1.43A5.49,5.49,0,0,1,18.36,29.68Z"/><path class="cls-6" d="M11.39,40.37a2.61,2.61,0,0,1-.11,1.45,8.18,8.18,0,0,1-1,1.05s1.35.4,1.74-.51S11.39,40.37,11.39,40.37Z"/><path class="cls-8" d="M29.34,44.82A46.71,46.71,0,0,1,27,40.65c-.71-1.32-1.6-3.89-1.86-4.22s-1.46,1.36-2.58,1.88-3.22.16-4.87.74-4.06,4.36-4.92,5.27-2.37.83-3.36.69c-.82-.12-2.41-2-2.91-2.58.75,1,1.28,2.54,2.07,2.88s3,1.11,4.66-.09,3.93-5.62,5.87-5.6a15.81,15.81,0,0,0,4.24-.46c.65-.21,1.88-1.56,2.65,0s1.88,4.83,3.94,7c.3.32.58.64.83,1A19.57,19.57,0,0,0,29.34,44.82Z"/><path class="cls-9" d="M108.84,44.94s3.3,2.62,3.65,11.89c.2,5.19-.33,8.87.24,9.89s1.76,9,2.46,9,1.37,2.3,1.35,3.69.77,6.92,1.24,6.92-.56-5.27-.43-6.53,0-4.06-.88-4.83a7.26,7.26,0,0,1-1.92-4.46c-.21-1.9-1.18-8.5-1.15-11.55s.16-6.09-.84-9.36A8.35,8.35,0,0,0,108.84,44.94Z"/><path class="cls-6" d="M21.41,28.49a1.22,1.22,0,0,0-1.46-.29,1.21,1.21,0,0,0-.76,1.33,1.24,1.24,0,0,0,1.38.13A1.45,1.45,0,0,0,21.41,28.49Z"/><ellipse cx="20.18" cy="28.96" rx="0.78" ry="0.68" transform="translate(-10.98 12.38) rotate(-27.12)"/><ellipse class="cls-10" cx="20.23" cy="28.61" rx="0.21" ry="0.22" transform="translate(-10.82 12.37) rotate(-27.12)"/><circle class="cls-10" cx="19.72" cy="28.89" r="0.11" transform="translate(-11 12.17) rotate(-27.12)"/></svg>