<svg id="Animals&#x52A8;&#x7269;" xmlns="http://www.w3.org/2000/svg" viewbox="0 0 128 128" width="128" height="128"><defs><style>.cls-1{fill:#40403f;stroke:none;}.cls-2{fill:#848280;stroke:none;}.cls-3{fill:#b2adaa;stroke:none;}.cls-4{fill:none;stroke:#b2adaa;stroke-linecap:round;stroke-linejoin:round;stroke-width:0.34px;}.cls-5{fill:#231f20;opacity:0.14;stroke:none;}.cls-6{fill:#737270;stroke:none;}</style></defs><title>animals&#x52A8;&#x7269;</title><path class="cls-1" d="M5.33,67.72a21.58,21.58,0,0,1-2.45-.12.14.14,0,0,1-.12-.15.14.14,0,0,1,.15-.12,24.74,24.74,0,0,0,3.37.1,19.93,19.93,0,0,0,3.95-.7.13.13,0,0,1,.07.26,20.22,20.22,0,0,1-4,.71Z"/><path class="cls-1" d="M3.32,71.57H3a.13.13,0,0,1-.11-.16.13.13,0,0,1,.16-.11,12.84,12.84,0,0,0,3.6-.49,11.7,11.7,0,0,0,3.8-1.45,1.12,1.12,0,0,1,.4-.19.13.13,0,0,1,.14.13.13.13,0,0,1-.12.14,2,2,0,0,0-.28.15,12,12,0,0,1-3.88,1.48A17.55,17.55,0,0,1,3.32,71.57Z"/><path class="cls-1" d="M4,73.18c-.3,0-.47,0-.49,0A.13.13,0,0,1,3.34,73a.13.13,0,0,1,.15-.12,11.07,11.07,0,0,0,3.67-.46,9.61,9.61,0,0,0,4-2.2.13.13,0,1,1,.19.19,9.7,9.7,0,0,1-4.17,2.28A12.48,12.48,0,0,1,4,73.18Z"/><path class="cls-2" d="M24.19,83.67s2.28,6.25,4.1,5.64a3.82,3.82,0,0,0,2.65-3.23,7.89,7.89,0,0,0-.56-2.2Z"/><path class="cls-3" d="M78.31,67.47c-1.6-7.65-5.72-7.18-5.27-7.87s3.34-5.44,1.24-9.43a14.44,14.44,0,0,1-1.16-4.9c-.2-2.6.86-3.86.4-3.88-1.15-.07-1.3,2.33-1.3,2.33a2.31,2.31,0,0,1-.35-1.46c.19-1,.81-1.41.5-1.59s-.84,0-1.22,1A6,6,0,0,0,71,43.45c-1-.66.11-3-.4-3s-1.34,1.47-.91,3.71c.17.88,1.76,8.12.85,8.95S67,54.44,65.64,55.58s-5.06,4.1-6.4,5.86-10.88.82-11.55.73-2.91-2-3.28-2.68-.9-1.52-.41-2,.7-.4.91-.3,1,.43,1,.21.73-.36.64-.52.69-.33.65-.63-.2-1.09-1.76-1.33a2.91,2.91,0,0,0-2.29.38s-.12-1.12.52-1.33,2.43,0,2.08-.25.27-.61-.18-.67.11-.55-.4-.7.59-.75-.45-.89l-5.28,8.85s-2.3,1.63-3.25,1.65-4.43-1.16-5.69-.53-2.41,1.84-3,2.1A14.81,14.81,0,0,1,26,64a7.23,7.23,0,0,1-3.15-.34,13.89,13.89,0,0,0-5.38-1.38,17,17,0,0,0-5.44.25c-.45.27-2.16.2-2.57,1.46s.12,4.6,1.8,7.36A35.21,35.21,0,0,0,17,78.56c1.26,1,4.55,5.11,9.47,5.69s6.68-1,8.52-.66S40.64,89,52.14,88.41C69,87.58,75.25,76.34,77.5,76.64c0,0,2.48,3.62,9.67,3.42,8.22-.23,15.45-13.22,21.73-13.28,8.14-.08,10.67,6.22,10.82,4.36s-5.5-6.61-11.85-6c-7.49.69-15.78,11.62-20.69,11.67C79.52,76.86,78.75,69.61,78.31,67.47Z"/><path class="cls-1" d="M13.06,69.39s.07,1.89,1.34,1.9,2.18-.4,2.21-.64A2.17,2.17,0,0,0,15.07,69,2.48,2.48,0,0,0,13.06,69.39Z"/><path class="cls-2" d="M40.55,54.83a52.6,52.6,0,0,0-1.1,5.44,4.31,4.31,0,0,0,2.19-1.81c.41-.76.84-2,1-2.38l.48-.81s-.12-1.12.52-1.33,2.43,0,2.08-.25.27-.61-.18-.67.11-.55-.4-.7.59-.75-.45-.89S41.13,53,40.55,54.83Z"/><line class="cls-4" x1="15.28" y1="71.21" x2="13.96" y2="68.96"/><line class="cls-4" x1="13.4" y1="70.96" x2="16.01" y2="69.44"/><path class="cls-2" d="M17.49,62.33l.59.05.15,0,.49.06h.08l.53.09.11,0,.44.09h.07l.49.12h0l.44.12h0c.31.09.59.19.85.29h0a10.51,10.51,0,0,1,1.07.47A7.23,7.23,0,0,0,26,64a14.82,14.82,0,0,0,1.51-.56c.57-.27,1.71-1.48,3-2.1s4.74.56,5.69.53a3.17,3.17,0,0,0,1.13-.37,3.85,3.85,0,0,1-.36.37c-.82.74-1.78.58-4.35.68s-4.77,1.81-6.45,2.75a2.39,2.39,0,0,1-2.55-.24,9.09,9.09,0,0,1,.71,2.52c.26,2.18-.55,1.27-.55,1.27l-.32-1.67c-.32-1.67-1.49-2.22-4.2-3.55s-8.51-.73-8.51-.73c.39-.15,1-.21,1.31-.36A6.17,6.17,0,0,1,14,62.29l.79,0c.62,0,1.3,0,2,0Z"/><path class="cls-2" d="M69.88,46.38c-.63-1.18-.4-4.1-.8-3.65s-.25-.43-.55,0-.49-.8-.81.1a7.4,7.4,0,0,0-.28,4c.35,1.32,2.6,4.81-1.81,8.7-1.34,1.18-5.06,4.1-6.4,5.86s-10.88.82-11.55.73A4.91,4.91,0,0,1,46,61.11s.29,2.91,4.06,3.16,9.49.34,9.53.81A5.32,5.32,0,0,0,63,70.68c4,1.84,5.58.13,5.58.13s-5.4.31-6.95-3.2,1.12-6.63,2.7-8.3,4.46-2.92,5.62-4.63C71.41,52.53,71.35,49.15,69.88,46.38Z"/><path class="cls-1" d="M14.85,64.23h-.06a.14.14,0,0,1-.06-.18,16.3,16.3,0,0,1,2.42-3.45,14.46,14.46,0,0,1,2.71-2.28.13.13,0,1,1,.14.23,14.21,14.21,0,0,0-2.65,2.23A16,16,0,0,0,15,64.16.14.14,0,0,1,14.85,64.23Z"/><path class="cls-1" d="M14.11,64h0a.13.13,0,0,1-.09-.17,30.27,30.27,0,0,1,1.8-4.6,11.65,11.65,0,0,1,2.32-3.3.13.13,0,0,1,.18.2A11.6,11.6,0,0,0,16,59.33a30.28,30.28,0,0,0-1.79,4.55A.13.13,0,0,1,14.11,64Z"/><path class="cls-1" d="M13,64.37a.14.14,0,0,1-.12-.07,15,15,0,0,1-1.34-5.39,24.85,24.85,0,0,1,.35-5.16.13.13,0,1,1,.26,0,24.53,24.53,0,0,0-.34,5.09,14.72,14.72,0,0,0,1.31,5.29.14.14,0,0,1-.06.18Z"/><path class="cls-5" d="M74.33,78.8c-3.64,2.14-11.25,5.9-18.58,6.63A27,27,0,0,1,37.13,80.8c-2.61-1.64-10.09.94-16-.65-2.71-.73-5.15-3-6.8-4.44A21,21,0,0,0,17,78.56c1.26,1,4.55,5.11,9.47,5.69s6.68-1,8.52-.66S40.64,89,52.14,88.41C64.08,87.83,70.68,82,74.33,78.8Z"/><path class="cls-2" d="M23.92,73.3a8.91,8.91,0,0,0-.36,2A11.06,11.06,0,0,1,24.29,79c-.09,1.4-.58,5-1.08,5.61a4,4,0,0,1-3,1.39c-1.11-.2-2.79-2.07-2.6-3.51s1.55-6.3,2.35-7a6.5,6.5,0,0,0,1.66-1.81c.09-.32.68-1.56,1.65-1.43A.72.72,0,0,1,23.92,73.3Z"/><path class="cls-3" d="M22.82,73.06a1.28,1.28,0,0,1,.24,1,5.94,5.94,0,0,0-.17,2.34,25.1,25.1,0,0,1,.09,5c-.21.54-.48,4.32-2.38,4.07s-2.31-2.81-1.92-4.36a25.48,25.48,0,0,1,2.2-5.18c.4-.51,1.33-1.47,1.33-1.85S22.82,73.06,22.82,73.06Z"/><path class="cls-6" d="M21.71,76.42a1.64,1.64,0,0,0,1.19,0,5.94,5.94,0,0,1,.17-2.34,1.28,1.28,0,0,0-.24-1s-.6.63-.61,1S21.4,75.29,21,75.82A1.58,1.58,0,0,0,21.71,76.42Z"/><path class="cls-5" d="M87.23,78.9a14.83,14.83,0,0,1-9.73-2.26s2.48,3.62,9.67,3.42S101,69.62,106.73,67.27C101.75,68.3,93.59,78.13,87.23,78.9Z"/></svg>