<svg xmlns="http://www.w3.org/2000/svg" viewbox="0 0 128 128" width="128" height="128"><defs><style>.cls-1{isolation:isolate;stroke:none;}.cls-2{fill:#100c0d;stroke:none;}.cls-3{fill:#16110e;stroke:none;}.cls-4{fill:#30231d;stroke:none;}.cls-5{fill:#33241f;stroke:none;}.cls-6{fill:#191411;stroke:none;}.cls-7{fill:#281d1b;stroke:none;}.cls-8{fill:#957b6f;stroke:none;}.cls-9{fill:#957c6e;stroke:none;}.cls-10{fill:#3d2d29;stroke:none;}.cls-11{fill:#7b625c;stroke:none;}.cls-12{fill:#291e1a;stroke:none;}.cls-13{fill:#52413e;stroke:none;}.cls-14{fill:#b5978a;stroke:none;}.cls-15{fill:#836a65;stroke:none;}.cls-16{fill:#1a1613;stroke:none;}.cls-17{fill:#251e1b;stroke:none;}.cls-18{fill:#3e3027;stroke:none;}.cls-19{fill:#6b554d;stroke:none;}.cls-20{fill:#967b70;stroke:none;}.cls-21{fill:#d8beb0;stroke:none;}.cls-22{fill:#745e56;stroke:none;}.cls-23{fill:#d2b8aa;stroke:none;}.cls-24{fill:#bba095;stroke:none;}.cls-25{fill:#ecdad5;stroke:none;}.cls-26,.cls-37{fill:#231f20;stroke:none;}.cls-26{opacity:0.24;stroke:none;}.cls-27{fill:#6d5850;stroke:none;}.cls-28{fill:#ccc;stroke:none;}.cls-28,.cls-33{mix-blend-mode:multiply;stroke:none;}.cls-29{fill:#533d37;stroke:none;}.cls-30{fill:#34190a;stroke:none;}.cls-31{fill:#fff;stroke:none;}.cls-32{fill:#614841;stroke:none;}.cls-34{opacity:0.49;stroke:none;}.cls-35{fill:#baa195;stroke:none;}.cls-36{opacity:0.39;stroke:none;}</style></defs><title>animals&#x52A8;&#x7269;</title><g class="cls-1"><g id="Animals&#x52A8;&#x7269;"><path class="cls-2" d="M25.3,61.39s.1,10.21-.19,10.79S9.84,85.25,9.17,88.5s1.24,10.79,6.49,15,13.84,8.11,19.09,7.06,15.18-2.67,17.47-2.48,12.41.48,17.66-2.67S83.62,91.65,83.82,92.51s.29,4.49,2.39,7.73a21.28,21.28,0,0,0,3.34,4.3s-.57,2.58.86,3.91,6.4.67,7,1.24,2.39,2,3.44,1.72,1.53-1.91,1.53-1.91,10.4-.1,11.93.48,3.82,1.34,4.49.76-7.45-5.82-10.69-7.35-6.68-3.72-8.3-9.35-5.25-23.1-7.54-25.58-11-.3-13.53,2.09-3.36,3.73-4.12,3.64-2.86-3.91-2.39-7.83,1-10.6,1-11.93-1-15.85-18.71-16.13S31.13,43,28.36,51.17,25.3,61.39,25.3,61.39Z"/><path class="cls-3" d="M108.06,103.39c-3.25-1.53-6.68-3.72-8.3-9.35s-5.25-23.1-7.54-25.58-11-.3-13.53,2.09-3.36,3.73-4.12,3.64c0,0-1.42,3.14-3.13,6.15S64,93.54,57.05,94.49A39.33,39.33,0,0,1,33.79,89.7c-7-4-17.59-5.27-19-5.2a6,6,0,0,1-2.2-.61c-1.88,2-3.26,3.67-3.45,4.61-.67,3.25,1.24,10.79,6.49,15s13.84,8.11,19.09,7.06,15.18-2.67,17.47-2.48,12.41.48,17.66-2.67S83.62,91.65,83.82,92.51s.29,4.49,2.39,7.73a21.28,21.28,0,0,0,3.34,4.3s-.57,2.58.86,3.91,6.4.67,7,1.24,2.39,2,3.44,1.72,1.53-1.91,1.53-1.91,10.4-.1,11.93.48,3.82,1.34,4.49.76S111.31,104.91,108.06,103.39Z"/><path class="cls-4" d="M108.06,103.39c-3.25-1.53-6.68-3.72-8.3-9.35s-5.25-23.1-7.54-25.58-11-.3-13.53,2.09-3.36,3.73-4.12,3.64c0,0-1.42,3.14-3.13,6.15S64,93.54,57.05,94.49a28.6,28.6,0,0,1-3.06.24,8.7,8.7,0,0,0-1.51,4.14c-.06,3.08,2.38,4.88,7.27,4.48s9.83-3.43,14-8.14,11.86-19.89,12.85-20,1.92,1.1,2.91,7.09S90.62,105,90.62,105l-.14,3.52c1.52,1.25,6.33.61,6.89,1.18s2.39,2,3.44,1.72,1.53-1.91,1.53-1.91,10.4-.1,11.93.48,3.82,1.34,4.49.76S111.31,104.91,108.06,103.39Z"/><path class="cls-5" d="M35.85,29.68c-.08,0-7.28-.16-6.94-.08s1.67.5,1.33.56-3.88.43-3.48.32.4.74.11.82-4.92,2.58-4.57,2.37.19.37-.08.66-1.89,1.36-1.46,1.09,1.33.05,1,.32-4.73,7-6.22,9.33-5.08,8.48-4.78,8.05,1.46-.21,1.17.35-2.5,4.65-1.94,4,1.54-.35,1.06.58a30.69,30.69,0,0,1-2.87,3.48c.37-.43,1,.35.66,1a12.14,12.14,0,0,0-.8,3.27c.19-.29.19,1,.05,1.3s-.43,2.15-.24,2,.72.43.58.72a14.19,14.19,0,0,0,.19,5c.48,1.57.6,3.4.91,3.1s.52,2.69.7,2.52,1,2.65,1.3,2.35.43.65.13,1.13,7.7,8.67,7.7,10.44-2.75,13-2.4,14.47a3.35,3.35,0,0,0,1.6,2.13s.27,2.31,1.69,2.49a2.38,2.38,0,0,0,2.13-.71,3.63,3.63,0,0,0,2.75,1A4.11,4.11,0,0,0,28,112.13a4.48,4.48,0,0,0,2.66.71c1.33-.18,2.66-.44,2.57-2.4s-.18-9.14.09-6.92.44,3.11,1.42,3.11,1.6-.27,1.78-2.22.8-5.06.09-6.48a66.8,66.8,0,0,0-3.91-5.86c-.53-.71-9.23-19.7-9.23-23.7s9.94-13.85,11.63-17.31S39,38.28,39,38.28Z"/><path class="cls-5" d="M64,29.85s3.64-.44,7.63,2.75S85.7,41.92,85,42s-.71,0,.89,1.24,3.64,2.84,3.2,2.75,2.84,2.31,2.4,2.31,2.22,2.22,1.69,2.13,3,2.93,2.75,2.93,6.48,8.52,7.19,11.27,3,8,3.28,7.37.71,4.35,1.07,3.73,1.86,5,2.31,7.28.89,4.53,4.08,8.43,8.17,11.63,8.17,13.4a3.89,3.89,0,0,1-2,3.37,3,3,0,0,1-1.33.18s.62,1.86-1.78,2.4a10.41,10.41,0,0,1-5.33-.71s-4.62-.09-5.15-1-1.33-2.66-.09-2.66,3.11-.8,3.11-1.33.18-4.08-.53-4.7a8.3,8.3,0,0,0-2.75-1.6c-.44,0,0,5.15-1.69,5.24s-2.13-2.66-2.49-7.19-.62-8.17-1.07-9.14S91.82,76.54,88.54,71.83,77.45,59.67,75.76,59.14a15.65,15.65,0,0,1-8.25-7.81c-2.57-5.06-6.12-7.63-6.3-12.07S64,29.85,64,29.85Z"/><path class="cls-6" d="M39.24,40.74S33.62,46.2,32.37,51.2s-2,8-1.17,11.4,2,5,1.48,6.48S30.57,75,32.13,79.61s5.46,10.77,19.2,10.62S70.78,82,70.62,76.41,69,67.9,69.14,66.19s3-4.84,1.48-12.26-4-13.8-9.42-14.67S39.24,40.74,39.24,40.74Z"/><path class="cls-7" d="M39.63,43.55s-5.46,8.51-5.54,14,1.87,8.9,7.57,8.9,9.13-2.5,9.21-4.06,1.09-14-.7-15.69S39.63,43.55,39.63,43.55Z"/><path class="cls-7" d="M53.21,48.31S52,61.19,54.07,63.06s9,3.9,11.87,1.41,2.42-11.09.7-15.15-2-8.67-6.56-6.64A17.28,17.28,0,0,0,53.21,48.31Z"/><path class="cls-7" d="M52.74,66.89c-3.12,0-13.53,4.2-13.7,10.37s5,9.32,12.85,9.15c10.77-.23,14-5.23,13.42-9.68S56.59,66.84,52.74,66.89Z"/><path class="cls-8" d="M49.89,101.63s3.85-.72,3.55-2.83-2.83-1-4.64-.84-4.21-.48-5.9.78-3.31,2.11-3.43,2.71-1.08,1.93-1.2,2.65-1.2,2.17-1.2,3.43-1.14,3.91,1,4.7,4.39.72,5.06.24a1.46,1.46,0,0,0,.66-1.08s4.64.42,5.78-3.07A13,13,0,0,0,49.89,101.63Z"/><path class="cls-9" d="M114.54,107.19c-4.92-1.3-14.2-3.61-18.23-4.06-5.42-.6-6.77,1.4-6.77,1.4s-.57,2.58.86,3.91,6.4.67,7,1.24,2.39,2,3.44,1.72,1.53-1.91,1.53-1.91,10.4-.1,11.93.48,3.82,1.34,4.49.76C119.1,110.44,117,108.85,114.54,107.19Z"/><path class="cls-6" d="M75.76,59.14c1.69.53,9.5,8,12.78,12.69s11.89,14.91,12.34,15.89a26.3,26.3,0,0,1,.78,5.59l.65-1.37s.09-1.47,0-4,0-3.77-2.85-8a56.72,56.72,0,0,1-6.06-13c-1-3.12-2.94-6.16-8.54-9.1s-16.63-12-18.65-19.29c-1.43-5.14,1-7.14,2.48-7.88A9.72,9.72,0,0,0,64,29.85s-3,5-2.84,9.41,3.73,7,6.3,12.07A15.65,15.65,0,0,0,75.76,59.14Z"/><path class="cls-6" d="M35.85,29.68s-2,0-3.89-.06c1.33,1,3.07,2.65,3.18,4.63.18,3.22-1.38,10.84-6.62,17.92s-12.4,10.2-11.67,10.66a13.8,13.8,0,0,1,6.66,6,4.16,4.16,0,0,1,0-.48c0-4,9.94-13.85,11.63-17.31S39,38.28,39,38.28Z"/><ellipse class="cls-10" cx="39.69" cy="63.41" rx="1.19" ry="1.76" transform="translate(-31.18 87.34) rotate(-76.62)"/><path class="cls-11" d="M118.75,110.74c.14-.12-.12-.46-.65-.93a9.08,9.08,0,0,1-1.33.47,3.77,3.77,0,0,1-1.68,0C116.52,110.77,118.2,111.21,118.75,110.74Z"/><ellipse class="cls-10" cx="64.05" cy="62.78" rx="1.76" ry="1.19" transform="translate(-12.79 16.53) rotate(-13.38)"/><path class="cls-12" d="M18.6,99.81s2.69-6.45,3.1-8.74-3.27-6-7.35-11.6-3.43-11.19-3.51-13c-.06-1.33-2,.91-3,2.17,0,.28,0,.47,0,.4s.72.43.58.72a14.19,14.19,0,0,0,.19,5c.48,1.57.6,3.4.91,3.1s.52,2.69.7,2.52,1,2.65,1.3,2.35.43.65.13,1.13,7.7,8.67,7.7,10.44a50.68,50.68,0,0,1-1,5.5Z"/><path class="cls-13" d="M63.36,17.78s2.95-2.07,5.07-.88,3.36,3.46,2.17,7.39-3.52,4.7-4.7,4.86-2.22-1.71-2.27-2S63.36,17.78,63.36,17.78Z"/><path class="cls-14" d="M68.43,16.91a5,5,0,0,1,2.61,5c-.31-1-1.1-2.64-2.82-2.9a8.32,8.32,0,0,0-4.8,1.26c0-1.43-.06-2.5-.06-2.5S66.31,15.72,68.43,16.91Z"/><path class="cls-15" d="M64.34,21.66s2.79-1.19,3.46.62a4.58,4.58,0,0,1-2.07,5,9.39,9.39,0,0,1-1.75.57,2.72,2.72,0,0,1-.37-.73c0-.17-.1-3-.17-5.45Z"/><path class="cls-13" d="M37,17.78S34,15.72,31.9,16.91s-3.36,3.46-2.17,7.39,3.52,4.7,4.7,4.86,2.22-1.71,2.27-2S37,17.78,37,17.78Z"/><path class="cls-14" d="M31.9,16.91a5,5,0,0,0-2.61,5c.31-1,1.1-2.64,2.82-2.9a8.32,8.32,0,0,1,4.8,1.26c0-1.43.06-2.5.06-2.5S34,15.72,31.9,16.91Z"/><path class="cls-15" d="M36,21.66s-2.79-1.19-3.46.62a4.58,4.58,0,0,0,2.07,5,9.39,9.39,0,0,0,1.75.57,2.72,2.72,0,0,0,.37-.73c0-.17.1-3,.17-5.45Z"/><path class="cls-16" d="M47.47,9s-7.05,1.19-10,7.05-2.75,13.83-1.37,16.76,1.65,10.9,4.58,14.1,5.59,4.94,9.8,4.85,10.44-2.66,11-8.88,1.65-10.07,2.2-10.8,2-5.4,1.56-10.9-6.78-10.8-11-11.9A13.14,13.14,0,0,0,47.47,9Z"/><path class="cls-17" d="M47.47,8.94s-7.05,1.13-10,6.72-2.75,13.18-1.37,16S37.77,42,40.7,45.07s5.59,4.71,9.8,4.63,10.44-2.53,11-8.47,1.65-9.6,2.2-10.3,2-5.15,1.56-10.39-6.78-10.3-11-11.35A13.77,13.77,0,0,0,47.47,8.94Z"/><path class="cls-18" d="M37.38,16.24c2,2.05,5.94,4.95,12.77,5.08a19.67,19.67,0,0,0,13.42-4.81c-2.26-3.59-6.32-6.51-9.32-7.29A13.14,13.14,0,0,0,47.47,9s-7.05,1.19-10,7.05Z"/><path class="cls-19" d="M49.85,19s-3.94-2-7-.64S38.59,24.7,39.51,30s2.66,6.13,2.66,6.13A20.54,20.54,0,0,0,43,43.29c1.1,2.84,3.57,6.23,6.87,6.13a8.13,8.13,0,0,0,7.6-7.51,48.6,48.6,0,0,0,.18-5.4A11.52,11.52,0,0,0,61.21,28c-.09-5.4-1.83-8.79-5-9.52A11.73,11.73,0,0,0,49.85,19Z"/><path class="cls-20" d="M56.17,18.48a11.73,11.73,0,0,0-6.32.55s-3.94-2-7-.64-4.26,6.14-3.43,11.35a4,4,0,0,0,2.64,2.52c2.53.38,14.27.15,14.27.15S58.07,33,60.21,29a9.23,9.23,0,0,0,.9-2.66C60.71,21.88,59,19.13,56.17,18.48Z"/><path class="cls-21" d="M60.07,24.12a4.67,4.67,0,0,0-.29-2.77,5.45,5.45,0,0,0-3.61-2.87,11.73,11.73,0,0,0-6.32.55s-3.94-2-7-.64c-1.69.77-2.84,2.65-3.36,5.09.82-1,2.58-2.77,4.62-3.07,2.68-.39,4.87.94,6,.91.94,0,2.36-1.11,5.48-.56A6.52,6.52,0,0,1,60.07,24.12Z"/><ellipse class="cls-22" cx="45.33" cy="25.27" rx="2.02" ry="1.74"/><ellipse class="cls-22" cx="54.5" cy="25.27" rx="2.02" ry="1.74"/><path class="cls-22" d="M46.38,23.79s2.33,1,2.45,2.79L49,28.4l-1.62,0s.4-2-.39-3S46.38,23.79,46.38,23.79Z"/><path class="cls-22" d="M53.62,23.75s-2.33,1-2.45,2.82L51,28.41l1.48.24s-.25-2.21.54-3.26S53.62,23.75,53.62,23.75Z"/><path class="cls-23" d="M49.24,27.65c-5.91.25-7.08,8.5-7.08,8.5A20.54,20.54,0,0,0,43,43.29c1.1,2.84,3.57,6.23,6.87,6.13a8.13,8.13,0,0,0,7.6-7.51,48.6,48.6,0,0,0,.18-5.4S56.45,27.34,49.24,27.65Z"/><path class="cls-24" d="M56.76,33.32c-.42,1.38-2,3.71-7.75,3.76-5,0-5.58-3.18-5.47-5.2a15.49,15.49,0,0,0-1.38,4.26A20.54,20.54,0,0,0,43,43.29c1.1,2.84,3.57,6.23,6.87,6.13a8.13,8.13,0,0,0,7.6-7.51,48.6,48.6,0,0,0,.18-5.4A15,15,0,0,0,56.76,33.32Z"/><path class="cls-25" d="M49.84,33.29c.79-.07,2.8-.79,2.8-1.94s-2.08-1.44-3.38-1.44a2.63,2.63,0,0,0-2.51,1.29C46.54,31.85,49.05,33.36,49.84,33.29Z"/><path class="cls-26" d="M44.23,40.34S47.09,43,50,42.82s5.66-2.65,5.66-2.65-1.72,4.68-6.07,4.28A6,6,0,0,1,44.23,40.34Z"/><path class="cls-25" d="M43.67,39.64S47,42.47,50,42.3s6.39-2.83,6.39-2.83-2.3,4.55-6.82,4.21A6.79,6.79,0,0,1,43.67,39.64Z"/><path class="cls-27" d="M43.67,39.61S47,42,50,41.84s6.39-2.37,6.39-2.37A7.79,7.79,0,0,1,49.56,43C45,42.7,43.67,39.61,43.67,39.61Z"/><path class="cls-28" d="M51,32.1a7.06,7.06,0,0,1-1.25.11,2,2,0,0,1-1.08-.29s-.32.35-.63.66a4,4,0,0,0,1.81.7,4.93,4.93,0,0,0,1.82-.64C51.32,32.34,51,32.1,51,32.1Z"/><path class="cls-29" d="M48.64,31.84c-.33-.38-1.06-.05-1.42.15a6.81,6.81,0,0,0,1.65,1A1.52,1.52,0,0,0,48.64,31.84Z"/><path class="cls-29" d="M51,32c-.26.23-.17.71-.08,1a3.25,3.25,0,0,0,1.58-1.09v0S51.36,31.66,51,32Z"/><circle class="cls-30" cx="45.33" cy="25.27" r="1.45"/><circle class="cls-31" cx="45.88" cy="24.67" r="0.44"/><circle class="cls-30" cx="54.5" cy="25.27" r="1.45"/><circle class="cls-31" cx="55.07" cy="24.67" r="0.44"/><path class="cls-32" d="M49.59,108.31a13,13,0,0,0,.3-6.68,10.24,10.24,0,0,1-3,.15c-1.51-.18-2.14-.71-2.14-.09s0,2.32,1,2.4,2.37-.28,2.66,1.22c.17.89-1.85,1.1-1.85,1.1s1.57.07,1.3,1.32S46,109.26,46,109.26s1.07-.06.86.76c-.34,1.32-3.05,1.36-3.05,1.36S48.45,111.8,49.59,108.31Z"/><path class="cls-26" d="M111.24,109.3a28.86,28.86,0,0,0-7.38-.44,1.35,1.35,0,0,1-1.34-.89c-.11-.33-.22-.71-.35-1.12-.36-1.18-1.13-1.08-.62-.31s.84,4.3-1.39,4.46c-1.08.08-2.58-2.35-3.48-2.66-1.1-.38-2.88.58-5.49-.67-1.63-.79-1.67-3.14-1.67-3.14s-.57,2.58.86,3.91,6.4.67,7,1.24,2.39,2,3.44,1.72,1.53-1.91,1.53-1.91,7.46-.07,10.67.26Z"/><path class="cls-26" d="M46.54,106.41s-6-.31-6.31-1.12a17,17,0,0,1-.59-2.94s-.21,3.27.58,3.68a23.8,23.8,0,0,0,5.25.72C46.42,106.77,46.54,106.41,46.54,106.41Z"/><g class="cls-33"><path class="cls-26" d="M40.15,108.31c-.62-.15-1.09-2.37-1.46-2.58a26.53,26.53,0,0,0,.91,2.87c.31.42,5,.61,6.44.65a3.18,3.18,0,0,0,.66-.23C45.77,108.95,41,108.53,40.15,108.31Z"/></g><path class="cls-26" d="M39.81,110.62c-1.28-.23-1.91-2.34-1.91-2.34A9.25,9.25,0,0,0,39,110.77c.55.61,4.83.62,4.83.62h0l1.31-.1S41.11,110.85,39.81,110.62Z"/><path class="cls-26" d="M43.15,112.46a1.46,1.46,0,0,0,.66-1.08s-.19.82-1.45,1a9.85,9.85,0,0,1-4.2-.55,2.71,2.71,0,0,1-1.4-1.74,2,2,0,0,0,1.32,2.17C40.26,113,42.49,112.95,43.15,112.46Z"/><g class="cls-34"><path class="cls-28" d="M50.16,103.51a11,11,0,0,0-.27-1.89A11,11,0,0,1,50.16,103.51Z"/><polygon class="cls-28" points="50.16 103.51 50.16 103.51 50.16 103.51 50.16 103.51"/><path class="cls-26" d="M44.76,101.69c0-.62.62-.09,2.14.09a10.24,10.24,0,0,0,3-.15s3.85-.72,3.55-2.83a1.63,1.63,0,0,0-.27-.73,2.62,2.62,0,0,1-1.8,2.15,9.84,9.84,0,0,1-4,.55c-1.93-.16-2.64-.74-3.18-.42s0,3.38.68,3.63a5.92,5.92,0,0,0,1.87.13c-.35,0-.7,0-1,0C44.76,104,44.76,102.31,44.76,101.69Z"/></g><path class="cls-35" d="M112.38,97.59c-4.58-2.29-7-6.5-8.73-6.92a2.57,2.57,0,0,0-2.19.46c.16,1.57.31,3.55.48,5.73.36,4.53.8,7.28,2.49,7.19s1.24-5.24,1.69-5.24a8.3,8.3,0,0,1,2.75,1.6c.71.62.53,4.17.53,4.7s-1.86,1.33-3.11,1.33-.44,1.78.09,2.66,5.15,1,5.15,1a10.41,10.41,0,0,0,5.33.71c2.4-.53,1.78-2.4,1.78-2.4a3,3,0,0,0,1.33-.18,3.89,3.89,0,0,0,2-3.37c0-1-1.57-3.87-3.51-6.89C117.83,98.45,116,99.38,112.38,97.59Z"/><g class="cls-36"><path class="cls-37" d="M121.52,105.87a7.77,7.77,0,0,1-2.25,1.44c0-.28,0-.59,0-.92,0-1.12-1.64-4.25-2-5a.22.22,0,0,0-.4.19c.18.44.63,1.56,1.35,3.25a6,6,0,0,1,.53,3.35.22.22,0,0,0,0,.09l-.06.16a3,3,0,0,0,1.33-.18,3.89,3.89,0,0,0,2-3C121.81,105.45,121.65,105.68,121.52,105.87Z"/><path class="cls-37" d="M106.11,98.81a8.3,8.3,0,0,1,2.75,1.6c.71.62.53,4.17.53,4.7s-1.4,1.12-2.59,1.29a6.06,6.06,0,0,0,3-.67c.79-.75.38-3.82.31-4.76-.11-1.51-2.41-2.91-4.41-3.39-.19,0,.76,5.41-1.24,5.82-1.81.37-1.9-5.57-1.94-6.18s-1-6.09-1-6.09c.16,1.57.31,3.55.48,5.73.36,4.53.8,7.28,2.49,7.19S105.67,98.81,106.11,98.81Z"/><path class="cls-37" d="M115.29,110c-1.73.11-2.41-.47-2.65-.79a14.8,14.8,0,0,0,1.31-2.81c.64-2-.3-5.19-.6-5.19s.29,1.37.29,3.85a5.5,5.5,0,0,1-.24,1.53c-.35.18-.74.65-2.22,1.83s-3.81.67-4.23-.1a3.34,3.34,0,0,1-.14-2,3.82,3.82,0,0,1-.52,0c-1.24,0-.44,1.78.09,2.66s5.15,1,5.15,1h0l0,0h0l.07,0h0l.09,0h.05l.1,0,.05,0h0a9.73,9.73,0,0,0,4.86.54c2.4-.53,1.78-2.4,1.78-2.4A4.31,4.31,0,0,1,115.29,110Z"/></g><path class="cls-35" d="M33.61,93.32a1.33,1.33,0,0,0-1.66,1c-.42,1.69-.42,4.82-1.75,6.38s-6.26,2.35-8.55,1.63-2.47-2.59-2.59-4c0-.46-.06-1-.07-1.43-.75,3.95-2.27,10.66-2,11.8a3.35,3.35,0,0,0,1.6,2.13s.27,2.31,1.69,2.49a2.38,2.38,0,0,0,2.13-.71,3.63,3.63,0,0,0,2.75,1A4.11,4.11,0,0,0,28,112.13a4.48,4.48,0,0,0,2.66.71c1.33-.18,2.66-.44,2.57-2.4s-.18-9.14.09-6.92.44,3.11,1.42,3.11,1.6-.27,1.78-2.22.8-5.06.09-6.48A51.31,51.31,0,0,0,33.61,93.32Z"/><path class="cls-26" d="M22.42,112.66a3.63,3.63,0,0,0,2.75,1A4.11,4.11,0,0,0,28,112.13a4.48,4.48,0,0,0,2.66.71c1.33-.18,2.66-.44,2.57-2.4s-.18-9.14.09-6.92.44,3.11,1.42,3.11,1.6-.27,1.78-2.22c0-.3.07-.63.11-1a1.7,1.7,0,0,1-1.17.73c-.83,0-1.64-2.64-2.36-2.49-1,.22-.72,4.61-.67,6.27.15,4.73-3.51,4.33-3.72,2.83-.3-2.13.12-5.74-.45-5.74s-.44,6.76-1,7.11-3.27.52-3.79-.17.52-6.67,0-6.67-1,7.72-2.7,7.46-1.26-6.45-1.53-6.45-.57,3.93-1,3.36a10.8,10.8,0,0,1-1-2.5,5.83,5.83,0,0,0-.07,1.6,3.35,3.35,0,0,0,1.6,2.13s.27,2.31,1.69,2.49A2.38,2.38,0,0,0,22.42,112.66Z"/></g></g></svg>