<svg id="Animals&#x52A8;&#x7269;" xmlns="http://www.w3.org/2000/svg" viewbox="0 0 128 128" width="128" height="128"><defs><style>.cls-1{fill:#664019;stroke:none;}.cls-2{fill:#b2733d;stroke:none;}.cls-3{fill:#89582b;stroke:none;}.cls-4{fill:#3f4344;stroke:none;}.cls-5{fill:#2d3132;stroke:none;}.cls-6{fill:#0d5c34;stroke:none;}.cls-7{fill:#196d3f;stroke:none;}.cls-8{fill:#e6dfd7;stroke:none;}.cls-9{fill:#2e3233;stroke:none;}.cls-10{fill:#2f3435;stroke:none;}.cls-11{fill:#34393a;stroke:none;}.cls-12{fill:#f8b95c;stroke:none;}.cls-13{fill:#e0aa4e;stroke:none;}.cls-14{fill:#d0c2c2;stroke:none;}.cls-15{fill:#0e3249;stroke:none;}.cls-16{fill:#081c27;stroke:none;}.cls-17{fill:#fff;stroke:none;}</style></defs><title>animals&#x52A8;&#x7269;</title><path class="cls-1" d="M74.07,101.13a8.16,8.16,0,0,1-3.33.81c-1.78,0-4.43-1-4.3-.41s3.15,10.36,1.61,11.64-6.94,2.23-8.71,2.33-2.54-.88-4.35-.4-2.56,1.06-2.66,1.44,1.34.59.33,1.21-2.83,1.73-2.6,2.22,4.78-.55,4.22-.15-.24.87,1.66.64,11.34-1.83,11.34-1.83,3.91-.47,4.56-2.08.33-4.5,1-4,1.53,1.87,1.79,1.51a2.23,2.23,0,0,0-.06-2.19,11.14,11.14,0,0,1-1.58-6.1A15.35,15.35,0,0,1,74.07,101.13Z"/><path class="cls-2" d="M71.45,104.75a8.16,8.16,0,0,1-3.42.31c-1.76-.26-4.24-1.6-4.19-1s1.6,10.71-.1,11.75-7.19,1.19-9,1-2.38-1.24-4.24-1-2.69.67-2.85,1,1.24.78.16,1.24-3.05,1.29-2.9,1.81,4.81.16,4.19.47-.36.83,1.55.88,11.49-.16,11.49-.16,3.93.1,4.81-1.4,1-4.4,1.6-3.83,1.24,2.07,1.55,1.76a2.23,2.23,0,0,0,.26-2.17,11.14,11.14,0,0,1-.67-6.26A15.35,15.35,0,0,1,71.45,104.75Z"/><path class="cls-3" d="M68.61,115.83c.62.57,1.24,2.07,1.55,1.76a2.23,2.23,0,0,0,.26-2.17,11.14,11.14,0,0,1-.67-6.26,15.35,15.35,0,0,1,1.71-4.4,8.44,8.44,0,0,1-2.94.36,20,20,0,0,0-.45,4.71c.27,1.95.89,3.63.35,4.25a8,8,0,0,0-1.59,3c-.27,1.15.35,2.83-6.73,3.28a66.74,66.74,0,0,1-11,0c-.62.31-.36.83,1.55.88s11.49-.16,11.49-.16,3.93.1,4.81-1.4S68,115.26,68.61,115.83Z"/><path class="cls-4" d="M47,37.6s2.71-17-2.88-24.57S32.14,4.22,26,5.41s-9.07,8-9.07,8L21.64,21s5.08,2.2,6.95,4.07a8.76,8.76,0,0,1,2.63,7.2c-.42,2.46-3.47,4.32-4.83,5.51s-7.29,8.39-7.46,14.32,1.78,11.44,5.93,19.32,14,24.91,28.55,31.09,32.87,4.07,42-.08,13.13-8.13,16.86-13.13,3.64-6.52,3.64-6.52l-2.63.42s2-3,3.05-4.91a37.72,37.72,0,0,0,1.78-4.07h-1.95a17.12,17.12,0,0,0,2.46-2.88,7.77,7.77,0,0,0,.76-2.29l-2.2.42A10.92,10.92,0,0,0,119,66.33a15.76,15.76,0,0,0,.59-3.47,30.36,30.36,0,0,0-5.34,2.37c-1.61,1.1-3,2.12-3,2.12A7.85,7.85,0,0,0,110,63.62c-1.1-1.36-2-1.36-2-1.36s1.53,2.8,1.1,4.15-1.86,4.32-6.61,4.07-12.37-5-16.86-7.63-14.66-8.3-21.52-10.34-13.66-3-15-4.58C46.29,44.72,47,37.6,47,37.6Z"/><path class="cls-5" d="M48,52.75c.36.6,8.59,6,7.64,4.41s-3.7-5.61-2.27-4.77,8.23,3.7,7.28,2.62a37.29,37.29,0,0,1-2.86-4.16C53.48,49.8,50,49,49.09,47.94,46.29,44.72,47,37.6,47,37.6s2.71-17-2.88-24.57S32.14,4.22,26,5.41s-9.07,8-9.07,8L21.64,21s5.08,2.2,6.95,4.07a8.76,8.76,0,0,1,2.63,7.2c-.42,2.46-3.47,4.32-4.83,5.51s-7.29,8.39-7.46,14.32,1.78,11.44,5.93,19.32c1.13,2.14,2.68,5,4.63,8L27,71.24s6.8,8,6.44,6.44-2.39-7.76-2.39-7.76,4.53,6.09,4.41,3.58-.72-7.64.12-6.8,6.09,6,5.73,4.18-1.79-9.07-.48-8,5,4.18,4.89,3.34-2.51-8.47-1.55-7.76,4.53,1.07,4.06-.48S47.64,52.15,48,52.75Z"/><path class="cls-6" d="M42.15,45c1.07,1.19,1.91-1.67,2.39-.36s2,2.86,2.39,1.19a7.09,7.09,0,0,1,.51-1.42A23.46,23.46,0,0,1,47,37.6s2.71-17-2.88-24.57S32.14,4.22,26,5.41s-9.07,8-9.07,8L21.64,21s5.08,2.2,6.95,4.07a8.76,8.76,0,0,1,2.63,7.2c-.42,2.46-3.47,4.32-4.83,5.51a25,25,0,0,0-3.07,3.72c2.83,1.95,5.36,3.74,5.36,3.74L40,47.14S41.08,43.8,42.15,45Z"/><path class="cls-7" d="M44.09,13C38.5,5.49,32.14,4.22,26,5.41s-9.07,8-9.07,8l.9,1.46h.06l-.23-1.22s2.16-4.11,5.36-5.88a12.48,12.48,0,0,1,9.89-1c3.44,1.22,6.75,4.85,6.75,4.23s4,4.89,3.74,3.82,2.52,6.19,2.67,4.43a3.31,3.31,0,0,1,.35-1.08A15.79,15.79,0,0,0,44.09,13Z"/><path class="cls-8" d="M41.95,47.4c.77-1.15-3.93-2.21-3.93-3.26S40.89,42.5,41.56,41s-3.2-2.8-3.64-3.93c-.65-1.63,1.19-3.88.52-7.62S36,24.85,34.21,24.53a5.86,5.86,0,0,1-3.38-2.39c-.6-.9-1.16,1.19-2.12,1.38s-1.44-1.15-2-1.92-1.06-.67-2.11-.86-.29-1.34-.67-2.4-1.92-1-2.3-1.73-.19-4.51-.77-5.37c-.42-.63-1.8-.34-2.53-.14-1.61,2.24-1.55,3.16-1.55,3.16L21.64,21s5.08,2.2,6.95,4.07a8.76,8.76,0,0,1,2.63,7.2c-.42,2.46-3.47,4.32-4.83,5.51s-7.29,8.39-7.46,14.32A25.27,25.27,0,0,0,19.7,59a12.62,12.62,0,0,0,3-1.25c1.63-1.05,2.69-3.55,4.6-5.75s2.69-1.53,6.81-1.53S41.18,48.55,41.95,47.4Z"/><path class="cls-9" d="M100.18,70.09C96,69,90.78,65.91,87,63.66,84.69,67.29,74.9,73.5,67.84,72.9,57.71,72,48.72,62.27,48.72,62.27a19.25,19.25,0,0,0,1.21,3.31c.78,1.15,5.25,4.57,7.61,7.81,3.53,4.84,7.11,8,14,8.18,11,.33,20.77-6.79,24.24-8.65A32.62,32.62,0,0,0,100.18,70.09Z"/><path class="cls-10" d="M119.58,62.85a30.36,30.36,0,0,0-5.34,2.37c-1.61,1.1-3,2.12-3,2.12A7.85,7.85,0,0,0,110,63.62c-1.1-1.36-2-1.36-2-1.36s1.53,2.8,1.1,4.15a5.59,5.59,0,0,1-3,3.48c.69.72,1.52,1.78,1.44,2.68-.13,1.52-4,5.21-4.82,6.86s-2.57,4.09-1.19,4,7.92-4.35,11.15-6.2,3.52-3,3.52-3a17.13,17.13,0,0,0,2.46-2.88,7.77,7.77,0,0,0,.76-2.29l-2.2.42A10.92,10.92,0,0,0,119,66.33,15.76,15.76,0,0,0,119.58,62.85Z"/><path class="cls-11" d="M103.56,78.18a9.08,9.08,0,0,0-.85,1.25c-.86,1.65-2.57,4.09-1.19,4s7.92-4.35,11.15-6.2,3.52-3,3.52-3a17.13,17.13,0,0,0,2.46-2.88,7.77,7.77,0,0,0,.76-2.29l-2.2.42s-1.77.87-4.28,2.06C111,72.41,105.94,76.33,103.56,78.18Z"/><path class="cls-9" d="M114.53,86a44.56,44.56,0,0,1-7.72,7.18,44.13,44.13,0,0,1-23.23,8.74c-11.25,1.08-28.26-1-33.64-4-4-2.24-14-11.38-18.71-15.85,5.21,7.71,12.69,16.34,22.18,20.37,14.57,6.19,32.87,4.07,42-.08s13.13-8.13,16.86-13.13C113.28,88,114,86.88,114.53,86Z"/><path class="cls-12" d="M6.14,23.6c1.21-1.07,7-5.41,8.53-7.12a16.66,16.66,0,0,1,3.49-3.42c1-.57,1.42-.93,1.35.36s-.21,3.28.36,3.92,2.56.57,2.42,1.35,0,1.91-.66,2.31-2.68.54-4.32,1.54a25.07,25.07,0,0,1-6.88,2.18c-2.18.45-3.91.67-4.22.74C5.17,25.69,4.93,24.67,6.14,23.6Z"/><path class="cls-13" d="M21.64,21c.7-.38.52-1.52.66-2.31,0,0,0,0,0,0a41.18,41.18,0,0,1-5,2.92A92.29,92.29,0,0,1,6.22,25.46c.31-.07,2.08-.26,4.33-.71A54.8,54.8,0,0,0,21.64,21Z"/><path class="cls-5" d="M15.08,17.82c-.23-.06.2-1,.93-1.33s1.31.09,1,.34-.75.2-1.26.5S15.31,17.88,15.08,17.82Z"/><path class="cls-14" d="M29.18,10.27a2.24,2.24,0,0,0-2.11-2,2.3,2.3,0,0,0-2.41,1.84,2.29,2.29,0,0,0,2.19,1.57A2.45,2.45,0,0,0,29.18,10.27Z"/><ellipse class="cls-15" cx="26.84" cy="9.97" rx="1.53" ry="1.49"/><path class="cls-16" d="M28.34,10.17a1.44,1.44,0,0,0,0-.2,1.53,1.53,0,0,0-3.06,0s0,.09,0,.14a2,2,0,0,0,1.45.45A3.65,3.65,0,0,0,28.34,10.17Z"/><ellipse class="cls-17" cx="27.24" cy="9.34" rx="0.42" ry="0.48"/><ellipse class="cls-17" cx="26.09" cy="9.38" rx="0.22" ry="0.24"/></svg>