<svg id="Animals&#x52A8;&#x7269;" xmlns="http://www.w3.org/2000/svg" viewbox="0 0 128 128" width="128" height="128"><defs><style>.cls-1{fill:#ae7141;stroke:none;}.cls-2{fill:#734a23;stroke:none;}.cls-3{fill:#b87945;stroke:none;}.cls-4{fill:#ab7142;stroke:none;}.cls-5{fill:#bd7c45;stroke:none;}.cls-6{fill:#ffe5b4;stroke:none;}.cls-7{fill:#d48a4e;stroke:none;}.cls-8{fill:#d4884d;stroke:none;}.cls-9{fill:#e7c594;stroke:none;}.cls-10{fill:#f8a042;stroke:none;}.cls-11{fill:#b67643;stroke:none;}.cls-12{fill:#8e5d39;stroke:none;}.cls-13{fill:#020202;stroke:none;}.cls-14{fill:#89592e;stroke:none;}.cls-15{fill:#f9b4a4;stroke:none;}.cls-16{fill:#ae7433;stroke:none;}.cls-17{fill:#fdfdfd;stroke:none;}.cls-18{fill:#936240;stroke:none;}.cls-19{fill:#f37b71;stroke:none;}.cls-20{fill:#8c5a33;stroke:none;}.cls-21{fill:#b9c228;stroke:none;}</style></defs><title>animals&#x52A8;&#x7269;</title><path class="cls-1" d="M16.23,64.06a62,62,0,0,0,1.68,8.41c1.12,3.83,1.78,6,.93,9.16s-5.61,22.52-6.54,22.62-3.27-.09-4.86,1.31A8.78,8.78,0,0,0,5.2,109.2h9.25l9.44-9.25,4.67-31.78Z"/><path class="cls-2" d="M14.09,99.5c-.18.59-.34,1.15-.5,1.66a7,7,0,0,0,1.89.85,12.32,12.32,0,0,0,3.19.43c.22-.32.44-.64.68-1-.82-.2-2.66-.67-3.57-1A7.45,7.45,0,0,1,14.09,99.5Z"/><path class="cls-2" d="M19.95,95.16a19.15,19.15,0,0,1-3.84-2.93c-.26,1-.52,2-.78,2.91A7.17,7.17,0,0,0,19,97.66a13.17,13.17,0,0,0,4,0c.46-.55.95-1.19,1.46-1.89A7.66,7.66,0,0,1,19.95,95.16Z"/><path class="cls-2" d="M25.39,89.76a14.17,14.17,0,0,1-2.91-2,23.15,23.15,0,0,1-3.86-5.22l-1.16,4.55c1.06,1.79,2.56,3.72,4.36,4.47,1.33.55,2.36,1,3.13,1.29Z"/><path class="cls-3" d="M74.26,93.4s5.51,9.35,15.79,10.47,20.09-.28,24.39-4.21,6.54-12.15,8.41-11.78,1,5.7-.84,9.25-6.82,12.52-23,13-20.75-1.59-25.89-4.67L68,102.38Z"/><path class="cls-4" d="M44.73,104.53s-8.41-4.86-9.91-7.76a45.29,45.29,0,0,1-2.71-8.5s1.31-4.77,3.36-3.93,1.68,7.2,3.64,9.72,9,9,9,9l-1.87,2.34Z"/><path class="cls-4" d="M56.46,109.48H25.9a7.38,7.38,0,0,1,.37-3.46c.65-1.4,2-2.15,7-2.06s12.43,0,12.43,0Z"/><path class="cls-5" d="M58.75,109.48H28.19a7.38,7.38,0,0,1,.37-3.46c.65-1.4,2-2.15,7-2.06S48,104,48,104Z"/><path class="cls-6" d="M17.91,39.57s-2.9,17-2.71,20.65.93,6.54,3,8.88a60,60,0,0,0,5.89,5.42s-2.8-10.47-1.87-13.93,4.11-4.67,6-7.38S38.56,39.76,38.56,39.76Z"/><path class="cls-7" d="M39.12,39.11s.47,7.2,2.24,7.94,13.08,4.3,17.85,9.16,11.87,17.1,14.11,25.7,2.34,13.93-1.5,18.5-10,8.78-13.08,9.07-13.46-6.36-15.23-7.38-7.38-7-7.48-9.53.19-6.54-.28-6.73l-.47-.19s-6.82,13.64-9.35,15.89-4,7.48-5.7,7.57-9,.28-9-.37,1.59-3.46,3.36-3.83,3.93-1,4.3-2.71,4.67-17.29,5.14-19,1.31-3.18,1-4.3S22.3,70.6,22,69.76a18,18,0,0,1,4.86-19.53C35.94,41.63,39.12,39.11,39.12,39.11Z"/><path class="cls-7" d="M14.64,104.9c1.78-.37,3.93-1,4.3-2.71s4.67-17.29,5.14-19,1.31-3.18,1-4.3S22.3,70.6,22,69.76a18,18,0,0,1,4.86-19.53c9.07-8.6,12-12.6,12-12.6s.36,3.61.77,5.68C37.56,46.06,30.39,56,34.86,58.54c5.21,2.93,11.23-3.42,12-4.88a35.34,35.34,0,0,0,1.54-3.88c3.83,1.62,8.23,3.84,10.77,6.43,4.77,4.86,11.87,17.1,14.11,25.7s2.34,13.93-1.5,18.5-10,8.79-13.08,9.07-13.46-6.36-15.23-7.38-7.38-7-7.48-9.53.19-6.54-.28-6.73l-.47-.19s-6.82,13.64-9.35,15.89-4,7.48-5.7,7.57-9,.28-9-.37S12.86,105.27,14.64,104.9Z"/><path class="cls-8" d="M21.46,21.95c.18.06,13.91-.06,13.91-.06L41.22,29s0,7.47-.31,8.12S39.14,43,28.24,43s-12.44-6-12.5-6.43.06-8.78.06-8.78Z"/><path class="cls-9" d="M38.61,32a6.5,6.5,0,0,0-4.78-.93,3.18,3.18,0,0,0-2.48,4.59c.81,1.61,2.73,2.24,5.09.75A5.15,5.15,0,0,0,38.61,32Z"/><path class="cls-9" d="M18,32a6.5,6.5,0,0,1,4.78-.93,3.18,3.18,0,0,1,2.48,4.59c-.81,1.61-2.73,2.24-5.09.75A5.15,5.15,0,0,1,18,32Z"/><path class="cls-10" d="M34.08,39.77l-4-5.15-3.69.86-3.49,4.65a19.92,19.92,0,0,0,5.82.58A22.16,22.16,0,0,0,34.08,39.77Z"/><path class="cls-11" d="M30.7,39.87l-.11-5.48s-.2-1-2.14-1-2.2,1.26-2.2,1.26l.06,5.28Z"/><path class="cls-12" d="M77.56,107.76A29.5,29.5,0,0,1,74.1,106l3.61-8.38a24.74,24.74,0,0,0,3.15,2.64C79.92,102.37,78.32,106,77.56,107.76Z"/><path class="cls-12" d="M81.74,109.08c.11-.63.27-1.39.41-2.1A45.2,45.2,0,0,1,83.79,102a19.34,19.34,0,0,0,3.27,1.25c-.16.57-.44,1.55-.88,3.11a7.72,7.72,0,0,0-.29,3.37A38.19,38.19,0,0,1,81.74,109.08Z"/><path class="cls-12" d="M93.22,110.19c.06-.7.11-1.53.11-2.23a21.88,21.88,0,0,0-.6-3.86c1.57.11,3.12.15,4.63.13.19.69.43,1.65.58,2.41a19.25,19.25,0,0,1,.06,3.51C96.28,110.2,94.69,110.21,93.22,110.19Z"/><path class="cls-12" d="M107.68,103a11.4,11.4,0,0,1,1.11,1.94,21,21,0,0,1,.76,3.35,29.05,29.05,0,0,1-4.63,1.25,10.58,10.58,0,0,0-.5-2.38c-.32-.86-.89-2.36-1.25-3.29A34.71,34.71,0,0,0,107.68,103Z"/><path class="cls-12" d="M114.45,99.67a13.4,13.4,0,0,0,1.2-1.26,15.51,15.51,0,0,1,2,1.83,9.36,9.36,0,0,1,1.15,1.75,20.82,20.82,0,0,1-2.89,2.77,7.74,7.74,0,0,0-2.29-2.63l-1.53-.84A11.61,11.61,0,0,0,114.45,99.67Z"/><path class="cls-13" d="M44.7,56.31a15.93,15.93,0,0,0,5.62-5.71l.29.13.18.08.54.26.24.12.48.24.27.13.45.23.28.15.43.23.29.16.4.23.3.17.39.23.29.18.37.23.29.18.31.2a11.16,11.16,0,0,0-2.71,4c-1,3.09-8,8.79-11.23,8.46S43.07,57.12,44.7,56.31Z"/><path class="cls-14" d="M53.57,70.58c-5.86-.81-1.14-10.09-.16-12.85a13.87,13.87,0,0,1,2.64-4l.13.08.28.19.35.24.27.19.34.25.25.19.33.27.22.18.34.3.18.16.47.45,0,0,.27.28C59.17,61.37,58,71.19,53.57,70.58Z"/><path class="cls-14" d="M55.85,93.85c-8.3-.49-4.56-11.72-.65-14.81s5.86,1.63,11.55,2.44c3.06.44,4.57-1.57,5.31-3.51.51,1.37.94,2.69,1.26,3.94s.65,2.61.89,3.8q.22,1.08.36,2.08c-.41.83-.85,1.67-1.32,2.48C70.66,94.82,64.15,94.34,55.85,93.85Z"/><path class="cls-15" d="M23.33,23s-7.41-8.53-8.73-8-1.93,6-1.42,8.13A34.06,34.06,0,0,0,15.71,29a39,39,0,0,1,4-3.76A34.38,34.38,0,0,1,23.33,23Z"/><path class="cls-16" d="M21.89,23.85c-.74-1.21-2.67-4.11-4-5.79-.79-1-1.53-1.89-2.1-2.54C18.32,17.29,23.33,23,23.33,23S22.7,23.37,21.89,23.85Z"/><path class="cls-15" d="M33.6,23s7.41-8.53,8.73-8,1.93,6,1.42,8.13A34.06,34.06,0,0,1,41.22,29a39,39,0,0,0-4-3.76A34.38,34.38,0,0,0,33.6,23Z"/><path class="cls-13" d="M35,23.85c.74-1.21,2.67-4.11,4-5.79.79-1,1.53-1.89,2.1-2.54C38.61,17.29,33.6,23,33.6,23S34.23,23.37,35,23.85Z"/><path class="cls-17" d="M22.48,39.54h12s1.85,1.66,1,3.43a3,3,0,0,1-2.83,1.61s-.05,2.65-3.91,2.65S24,44.84,24,44.84a2.27,2.27,0,0,1-2.62-1.66A3.69,3.69,0,0,1,22.48,39.54Z"/><path class="cls-18" d="M28.84,41.61s-.24,1.66,0,1.76,2.8,1.28,2.63,1.51-2-.9-2.94-.94S25.8,45.25,25.76,45c-.1-.57,2.16-1.28,2.23-1.79a16.93,16.93,0,0,0,0-1.8Z"/><path class="cls-19" d="M30.52,40.3s.88-1.12-1.91-1.12-2.39,1-2.23,1,1.08,1.47,2,1.47S30.52,40.3,30.52,40.3Z"/><path class="cls-20" d="M29.1,41.5a1.58,1.58,0,0,1,.18-.8c.3-.64,1.25-.4,1.25-.4A5.53,5.53,0,0,1,29.1,41.5Z"/><path class="cls-20" d="M26.57,40.41a1.49,1.49,0,0,1,1,.29,1,1,0,0,1,.44.89A4.25,4.25,0,0,1,26.57,40.41Z"/><path class="cls-14" d="M46.46,108c-.67-1.18-.59-2.19-.75-4H43.3c-.17.53-.41,1.29-.72,2.31a3.11,3.11,0,0,0,1.08,3.16h3.79A14.94,14.94,0,0,1,46.46,108Z"/><path class="cls-14" d="M40,106.57A4,4,0,0,1,41,104h-2.6a19.06,19.06,0,0,0-.78,1.81,5.28,5.28,0,0,0,0,3.67h2.63A15.21,15.21,0,0,1,40,106.57Z"/><path class="cls-14" d="M34.72,107.16a7.48,7.48,0,0,1,.68-3.2c-.92,0-1.72,0-2.4,0a10.77,10.77,0,0,0-.81,1.72,9,9,0,0,0-.37,3.75h2.93C34.74,109,34.72,108.21,34.72,107.16Z"/><path class="cls-14" d="M21.12,102.77a8.21,8.21,0,0,1-2-1.47c-.11.41-.18.72-.22.89a2.22,2.22,0,0,1-.31.72,6.21,6.21,0,0,0,2.24,1.38,9,9,0,0,0,2.71.43c.19-.32.38-.64.58-1C23.46,103.56,21.9,103.09,21.12,102.77Z"/><path class="cls-14" d="M28.51,98a5.61,5.61,0,0,1-3.84-.59,18.18,18.18,0,0,1-3.59-3.3l-.74,2.72c.73,1.09,2.07,2.78,3.55,3.09a9.52,9.52,0,0,0,3.38,0C27.66,99.38,28.08,98.74,28.51,98Z"/><path class="cls-14" d="M27.29,90a27,27,0,0,1-3.37-6.23l-1.1,4c.78,2,2.18,5.05,4,6,1.61.88,2.63,1.45,3.23,1.7.45-.79.91-1.6,1.35-2.4A12,12,0,0,1,27.29,90Z"/><path class="cls-13" d="M64.91,63.78c1,2.8,2.33,7.4-.19,8-3.65.82-5.77.82-6.24,3.42s.59,7.54,6.13,7.19c3.09-.2,6.39-.47,8.41-1.55A74.53,74.53,0,0,0,64.91,63.78Z"/><circle class="cls-21" cx="34.54" cy="34.2" r="2.11"/><path class="cls-13" d="M34.63,32.35a2.28,2.28,0,0,1,.6,1.38,6.16,6.16,0,0,1-.56,2.13,6.59,6.59,0,0,1-.41-2.09A3,3,0,0,1,34.63,32.35Z"/><circle class="cls-21" cx="22.26" cy="34.2" r="2.11"/><path class="cls-13" d="M22.35,32.35a2.28,2.28,0,0,1,.6,1.38,6.16,6.16,0,0,1-.56,2.13A6.59,6.59,0,0,1,22,33.77,3,3,0,0,1,22.35,32.35Z"/></svg>