<svg id="Animals&#x52A8;&#x7269;" xmlns="http://www.w3.org/2000/svg" viewbox="0 0 128 128" width="128" height="128"><defs><style>.cls-1{fill:#a36b38;stroke:none;}.cls-2{fill:#c3945a;stroke:none;}.cls-3{fill:#be7c44;stroke:none;}.cls-4{fill:#d19e61;stroke:none;}.cls-5{fill:#e2b26d;stroke:none;}.cls-6{fill:#a26a37;stroke:none;}.cls-7{fill:#cb9a55;stroke:none;}.cls-8{fill:#7a3700;stroke:none;}.cls-9{fill:#894a1b;stroke:none;}.cls-10{fill:#a76925;stroke:none;}.cls-11{fill:#8b461c;stroke:none;}.cls-12{fill:#965424;stroke:none;}.cls-13{fill:#aa6124;stroke:none;}.cls-14{fill:#c57731;stroke:none;}.cls-15{fill:#c78d31;stroke:none;}.cls-16{fill:#d69c4a;stroke:none;}.cls-17{fill:#d4932d;stroke:none;}.cls-18{fill:#e0aa39;stroke:none;}.cls-19{fill:#f0be6a;stroke:none;}</style></defs><title>animals&#x52A8;&#x7269;</title><path class="cls-1" d="M11,46A14.53,14.53,0,0,1,9,47.08c-.54.18-1.33.42-1.08.9s.78-.21,1.45-.51,1.92-.9,1.92-.9Z"/><path class="cls-2" d="M10.93,46.13s-1.45.88-1.7,1a5.23,5.23,0,0,0-1.1.47c-.13.13-.09.28,0,.28s.13-.18.34-.3a9.23,9.23,0,0,1,.91-.42c.31-.13,1.83-.89,1.83-.89Z"/><path class="cls-3" d="M13.67,48a59,59,0,0,0,6.23,5.63c2,1.41,3.34,0,8.62,6.66,3.34,4.2-.37-7.65-5.55-9.5A90.24,90.24,0,0,0,13.67,48Z"/><path class="cls-4" d="M27.29,42.15c6.43,4.36,21.44,7.61,24.55,8.36S75.36,70.18,74.64,71s-16.92-1-18.44-1.13a24.93,24.93,0,0,0-7.66-.06c-3.39.66-12.45,1.56-14.77-1.14s-7.49-14-10.66-16.3C18.89,49.37,12,49,11,46.78c-1.79-4,.86-8,2.54-8.76S20.86,37.78,27.29,42.15Z"/><path class="cls-3" d="M30.22,62.92a24.53,24.53,0,0,0,10.22,3.8c5.66.53,18.26-.47,22-.39,3.22.07,4.29,2.37,9.42,3,1.85.94,2.91,1.57,2.78,1.71-.72.81-16.92-1-18.44-1.13a24.93,24.93,0,0,0-7.66-.06c-3.39.66-12.45,1.56-14.77-1.14A45.68,45.68,0,0,1,30.22,62.92Z"/><path class="cls-5" d="M51.84,50.51c2.16.17,3.38,11,14.13,15.95-8.12.91-13.83-2.24-21.88-4.17C34.4,60,25.88,47.65,23.84,44.88c-1.57-2.14-5.89-5.63-7.78-7.11a23.8,23.8,0,0,1,11.23,4.39C33.72,46.51,40.49,49.63,51.84,50.51Z"/><path class="cls-2" d="M12.13,47.41a.41.41,0,0,0-.51.19A24.2,24.2,0,0,1,10,50.29c-.33.3-1.16,1-.69,1.43s1-.4,1.08-.87a5.82,5.82,0,0,1,1.38-1.79,6.81,6.81,0,0,0,.74-.93.44.44,0,0,0-.19-.65Z"/><path class="cls-4" d="M19.4,42.22s.68-.41,0-4c-1-5.07-.67-15-2.13-15s-1,1.34-.69,2.08,1,1.42,1.14,6c.13,6.74-1.51,10.23-1,10.82C17.58,43,19.4,42.22,19.4,42.22Z"/><path class="cls-6" d="M19.43,42.19a2.79,2.79,0,0,1-.72.13,1.42,1.42,0,0,1-1.44-.92c-.34-.72.33-4,.54-8.56s-.56-7.35-1-7.82a3.79,3.79,0,0,1-.56-1.34,2.43,2.43,0,0,0,.29,1.61c.36.75,1,1.42,1.14,6,.13,6.74-1.51,10.23-1,10.82.85.93,2.66.15,2.66.15Z"/><path class="cls-5" d="M17.92,26.36S19.49,40.87,19,41.1s-1,.29-.93-3.56S17.92,26.36,17.92,26.36Z"/><path class="cls-4" d="M16.78,38.34s.56-.61-1.08-4.1C13.38,29.3,11,19.07,9.54,19.4s-.67,1.67-.11,2.34,1.42,1.16,2.73,5.81c1.95,6.89,1.27,10.95,1.95,11.4C15.19,39.65,16.78,38.34,16.78,38.34Z"/><path class="cls-6" d="M16.8,38.3a2.81,2.81,0,0,1-.67.33,1.41,1.41,0,0,1-1.67-.53c-.53-.65-.74-4.18-1.78-9s-2.54-7.4-3.06-7.76a4,4,0,0,1-.92-1.22,2.63,2.63,0,0,0,.71,1.57c.55.67,1.42,1.16,2.73,5.81,1.95,6.89,1.27,10.95,1.95,11.4,1.09.71,2.67-.6,2.67-.6Z"/><path class="cls-5" d="M11,22.45s5.46,14.48,5,14.86-1,.59-1.88-3.4S11,22.45,11,22.45Z"/><path class="cls-5" d="M11.86,47.6a18.24,18.24,0,0,0-1.57,2.53s1.3-1.74,1.53-2S12.21,47.39,11.86,47.6Z"/><path class="cls-7" d="M9.78,50.73a1.35,1.35,0,0,0-.43.54c-.1.2.05.41.12.36s-.06-.21.09-.43A2.35,2.35,0,0,0,9.78,50.73Z"/><path class="cls-1" d="M11.77,49.06a6.81,6.81,0,0,0,.74-.93.44.44,0,0,0-.08-.58,1,1,0,0,1-.19.75c-.29.39-1.83,2-1.93,2.26s-.29.95-.65,1.11a.59.59,0,0,1-.36,0h0c.42.39,1-.4,1.08-.87A5.82,5.82,0,0,1,11.77,49.06Z"/><path class="cls-8" d="M124.23,94.89c-.18.76-4.09,3.6-7.11,3.6a9,9,0,0,1-4.59-1,15.5,15.5,0,0,1-7.65,1.13,13.31,13.31,0,0,1-6.06-2.14,29,29,0,0,1-15.1,1c-7.74-1.8-9.27-3.89-9.27-3.89a29.5,29.5,0,0,1-23-.36C39,87.77,31.25,71,32,65.8s.53-12.92,10.34-14.52c15.19-2.47,20.05-.61,28,4.24s11.4,9.06,11.4,9.06a38,38,0,0,1,9.43,4.92c4.5,3.3,5.46,5.68,5.46,5.68a75.31,75.31,0,0,1,10.4,5.38c3.55,2.47,4.62,4.57,4.62,4.57a28,28,0,0,1,7.53,3.57C122.74,91.14,124.41,94.13,124.23,94.89Z"/><path class="cls-9" d="M74.42,93.58a29.55,29.55,0,0,1-23-.38C42,89.07,35.26,78.43,32.9,71.26c.61-2.6,1.91-5.84,4.68-7.52,5.07-3.08,13.61-5.64,27.82,3.51C74.8,73.3,75.21,85.81,74.42,93.58Z"/><path class="cls-10" d="M51.44,93.2c-6.87-3-12.31-9.46-15.67-15.52,1.07-2.64,3.33-6.33,7.71-7.13,7-1.28,17.19-.37,21.2,7.14s2.41,12.88,4.25,15.24c.5.64,1,1.32,1.47,2A29.9,29.9,0,0,1,51.44,93.2Z"/><path class="cls-11" d="M91.22,69.5c4.5,3.3,5.46,5.68,5.46,5.68a75.31,75.31,0,0,1,10.4,5.38c3.55,2.47,4.62,4.57,4.62,4.57a28,28,0,0,1,7.53,3.57c3.5,2.45,5.17,5.44,5,6.2s-4.09,3.6-7.11,3.6a9,9,0,0,1-4.59-1,15.5,15.5,0,0,1-7.65,1.13,13.31,13.31,0,0,1-6.06-2.14,29,29,0,0,1-15.1,1c-7.74-1.8-9.27-3.89-9.27-3.89S69.79,91,71.18,84s6.24-9.67,7.91-13.48,2.7-6,2.7-6A38,38,0,0,1,91.22,69.5Z"/><path class="cls-12" d="M98.83,96.45a29,29,0,0,1-15.1,1c-7.74-1.8-9.27-3.89-9.27-3.89A6.19,6.19,0,0,1,73,92.32a22.28,22.28,0,0,1,1.94-12.27c3.28-6.64,5.55-12.05,17.73-7.63a11.47,11.47,0,0,1,3.79,2.3,3.89,3.89,0,0,1,.24.45l.42.18c5.95,6.17,6.57,18.42,6.58,23A12.5,12.5,0,0,1,98.83,96.45Z"/><path class="cls-13" d="M99,92.58a8.72,8.72,0,0,1-.11,3.95l-.1-.08a29,29,0,0,1-15.1,1c-5.7-1.32-8-2.8-8.86-3.5a13.87,13.87,0,0,1-.13-9.08c2-5.53,3.88-9.07,11.51-7.28S98,87.45,99,92.58Z"/><path class="cls-14" d="M83.73,97.45A36.8,36.8,0,0,1,78,95.68c-1.21-1.49-3.23-4.4-2.74-6.75.69-3.31,2.43-7.44,9.28-6S93.33,91.83,94.18,95c.26,1,.44,1.82.55,2.47A27.33,27.33,0,0,1,83.73,97.45Z"/><path class="cls-13" d="M96.25,89.7c.61-4.76,1.89-7.74,1.53-10.59a9.73,9.73,0,0,0-1.1-3.93,75.31,75.31,0,0,1,10.4,5.38c3.55,2.47,4.62,4.57,4.62,4.57a28,28,0,0,1,7.53,3.57c3.5,2.45,5.17,5.44,5,6.2s-4.09,3.6-7.11,3.6a9,9,0,0,1-4.59-1,15.5,15.5,0,0,1-7.65,1.13,13.31,13.31,0,0,1-6.06-2.14S95.64,94.47,96.25,89.7Z"/><path class="cls-14" d="M119.24,88.7c3.5,2.45,5.17,5.44,5,6.2s-4.09,3.6-7.11,3.6a9,9,0,0,1-4.59-1,15.5,15.5,0,0,1-7.65,1.13,13.31,13.31,0,0,1-6.06-2.14,4.46,4.46,0,0,1-.68-.56c-.47-1.85-1-5.09-.06-7.74,1.44-4,3.57-6.85,7.65-6.14a20.4,20.4,0,0,1,4.7,1.43,8.81,8.81,0,0,1,1.27,1.69A28,28,0,0,1,119.24,88.7Z"/><path class="cls-15" d="M112.53,97.46a15.5,15.5,0,0,1-7.65,1.13,14.65,14.65,0,0,1-5.56-1.81c-.2-.85-.36-1.68-.49-2.33-.41-2,.71-7.56,4-8.45s6.78,1.52,8.11,2.67c1.1,1,2.19,7.13,2.53,9.23A5.29,5.29,0,0,1,112.53,97.46Z"/><path class="cls-16" d="M104.89,98.59a16.27,16.27,0,0,1-4-1,8.89,8.89,0,0,1,.62-5.63c1.47-2.65,3.86-3.35,6.26-1.14,1.67,1.53,3.32,5,4.17,6.94A15.34,15.34,0,0,1,104.89,98.59Z"/><path class="cls-17" d="M119.24,88.7c3.5,2.45,5.17,5.44,5,6.2s-4.09,3.6-7.11,3.6a9,9,0,0,1-4.59-1,8.76,8.76,0,0,1-1.72-5.94,42.48,42.48,0,0,1,.88-6.4A28,28,0,0,1,119.24,88.7Z"/><path class="cls-18" d="M124.23,94.89c-.18.76-4.09,3.6-7.11,3.6a9,9,0,0,1-4.59-1,8.24,8.24,0,0,1-1.5-3.27c.14-1.33.71-4.72,3-5.38,1.9-.54,4.56.15,6.68,1.08C123.21,92,124.38,94.25,124.23,94.89Z"/><path class="cls-19" d="M117.12,98.49a10.22,10.22,0,0,1-4-.74,5.21,5.21,0,0,1,.77-3.35c1.23-1.8,4.27-2.36,6.4-1.27a4.52,4.52,0,0,1,2.53,3.16A11,11,0,0,1,117.12,98.49Z"/></svg>