<svg id="Animals&#x52A8;&#x7269;" xmlns="http://www.w3.org/2000/svg" viewbox="0 0 128 128" width="128" height="128"><defs><style>.cls-1{fill:#62bf82;stroke:none;}.cls-2{fill:#17a458;stroke:none;}.cls-3{fill:#17883e;stroke:none;}.cls-4,.cls-5{fill:none;stroke:none;}.cls-4{stroke:#377040;stroke-miterlimit:10;stroke-width:0.35px;}.cls-5{stroke:#47a259;stroke-linecap:round;stroke-linejoin:round;stroke-width:0.5px;}.cls-6{fill:#7cc688;stroke:none;}.cls-7{fill:#231f20;opacity:0.26;stroke:none;}</style></defs><title>animals&#x52A8;&#x7269;</title><path class="cls-1" d="M9.72,58.44S3.8,57.84,4,55.25s5.92-3.69,5.92-3.69,2.39-5.89,5.72-8.78,4.14-2,5.13-2.82,1.46-4.89,2.13-4.79,1.84,2.42,2.91,4.61,3,6.49,7,8.48,8.37,4.89,22.27,4.89,24,.2,34,5.39S105.3,72,109,77.6s4.19,6.29,4.19,6.29-7.78,3-15-1.5S74.26,64.93,68.87,65a34.59,34.59,0,0,0-11.5,2.2c-2.66.9-14,8-29,2.4S9.72,58.44,9.72,58.44Z"/><path class="cls-2" d="M68.68,66.23a24.19,24.19,0,0,1,2,6.11c.65,3.54,2.52,10.39,4.07,12.59s4.23,4.4,5.62,7.7l1.38,3.3L87,92.26A21.9,21.9,0,0,0,83.25,87c-3.09-3.06-4.8-3.54-6.19-7.46s-2.2-7.33-3.91-9.9a33.47,33.47,0,0,1-2.28-3.79Z"/><path class="cls-3" d="M16.89,51.84C15.8,51,14.7,51,14.43,51.76l4,2.89A3.31,3.31,0,0,0,16.89,51.84Z"/><path class="cls-3" d="M22,48.37c-1-.6-1.6-1.65-1.4-2.35l3.47,2.25C23.84,48.9,22.95,49,22,48.37Z"/><path class="cls-1" d="M73.16,69.65c1.71,2.57,2.52,6,3.91,9.9S80.16,84,83.25,87A21.9,21.9,0,0,1,87,92.26l-2.62,1.84-.61-1.61c-1.31-3.47-4.62-6.24-6.33-8.27s-2.07-5.4-2.52-7.69c-.38-1.93-1.9-6.44-2.37-7.82Z"/><path class="cls-4" d="M14.43,51.76c.26-.78,1.36-.75,2.45.07s1.76,2.13,1.5,2.92-1.36.75-2.45-.07S14.17,52.55,14.43,51.76Z"/><path class="cls-4" d="M20.62,46c-.19.7.44,1.75,1.4,2.35s1.91.53,2.1-.17-.44-1.75-1.4-2.35S20.81,45.33,20.62,46Z"/><path class="cls-5" d="M23,54.74a44.06,44.06,0,0,0,17.48,5.88,66.43,66.43,0,0,0,13.7.11s4.66-5.37,21.35-1.39c18.76,4.48,29.15,19.82,29.15,19.82"/><path class="cls-5" d="M54.23,60.73s-1.67,2.92,2.56,3.34a22.88,22.88,0,0,0,5.61.14"/><path class="cls-5" d="M26.43,56.59a9.21,9.21,0,0,1-4,1.84,13.65,13.65,0,0,1-2.36.32"/><path class="cls-5" d="M23.47,58.26s-.15.44-1.2,1.1a4.31,4.31,0,0,1-1.51.71"/><path class="cls-5" d="M24.39,57.78a8,8,0,0,0-2.13-.46,7.38,7.38,0,0,0-1.84.16"/><path class="cls-5" d="M28.75,57.52a16.48,16.48,0,0,0,.69-3.3c.12-2.05.07-4.61.07-4.61"/><path class="cls-5" d="M32.11,58.69a12.06,12.06,0,0,0,.59-4.34,5.9,5.9,0,0,0-.45-2.73"/><path class="cls-5" d="M32.11,58.88a11.33,11.33,0,0,1-5.86,5.22,8.12,8.12,0,0,1-2.13.77"/><path class="cls-5" d="M29.85,58.11a18.12,18.12,0,0,1-5.69,3.16c-1.22.31-1.84.4-1.84.4"/><path class="cls-5" d="M35.51,59.72a7.54,7.54,0,0,0,2.13-3.24,14.12,14.12,0,0,0,.65-3.17"/><path class="cls-5" d="M35.73,60a8.05,8.05,0,0,1-3.64,4.67,8.15,8.15,0,0,1-3.21,1.05"/><path class="cls-5" d="M39.63,60.67a16.11,16.11,0,0,1-3.2,5.7,12.94,12.94,0,0,1-2.29,2"/><path class="cls-5" d="M41.1,60.62a15.36,15.36,0,0,0,.47-4.12c-.06-1-.18-2-.18-2"/><path class="cls-5" d="M44.3,61a37.18,37.18,0,0,1-1.65,4.89,16,16,0,0,1-1.88,3.19"/><path class="cls-5" d="M45,60.8a36,36,0,0,1,1.47-4.43l.7-1.5"/><path class="cls-5" d="M48.61,61.09a33.72,33.72,0,0,1-1.17,4.27A10.74,10.74,0,0,1,46,68.16"/><path class="cls-5" d="M49,61a17,17,0,0,1,2.3-3.55,7.23,7.23,0,0,1,1.85-1.61"/><path class="cls-5" d="M28.11,59.34s-1.37.41-2.48.69a7,7,0,0,1-1.25.23h-.72"/><path class="cls-5" d="M24.47,59.54c-.37-.18.53.22,1.25.22h.78"/><path class="cls-5" d="M26.51,60.54A4.74,4.74,0,0,1,25,62.65l-1,.59"/><path class="cls-5" d="M29.28,55.28c-.05-.15-.5-3.49-1.19-4.54s-.77-1-.77-1"/><path class="cls-5" d="M28.7,52.54a5.45,5.45,0,0,0-1.24-1.31,1,1,0,0,0-.92-.11"/><path class="cls-5" d="M29.5,54.08a4.22,4.22,0,0,0,1.39-1.89,2.85,2.85,0,0,0,.29-1.44"/><path class="cls-5" d="M32.64,55.24c-.05-.11-.05-1.38-.63-1.91l-.58-.52"/><path class="cls-5" d="M32.56,56.89s1.24-3.41,1.82-3.59l.58-.19"/><path class="cls-5" d="M33.41,55.16a3.16,3.16,0,0,1,1.16-.6l.45,0"/><path class="cls-5" d="M33.43,63.7a7.91,7.91,0,0,1-2.67.49L29.2,64"/><path class="cls-5" d="M34,63.29a14,14,0,0,1-1.43,3.14c-.61.67-.82.71-.82.71"/><path class="cls-5" d="M33.33,65.34a5.62,5.62,0,0,1-.11,1.76c-.21.75-.34.75-.34.75"/><path class="cls-5" d="M38,64a9.15,9.15,0,0,1-1.82,1.42,12.85,12.85,0,0,1-1.67.26"/><path class="cls-5" d="M38.69,63.32A15.4,15.4,0,0,1,38.06,67l-.45.9"/><path class="cls-5" d="M38.51,65.27a3.25,3.25,0,0,1,.5,1.87,11.72,11.72,0,0,1-.21,1.8"/><path class="cls-5" d="M43.28,64.54a9.1,9.1,0,0,1-2,2.18,2.55,2.55,0,0,1-.87.53"/><path class="cls-5" d="M43.7,63.07s-.48,2.52-.65,3.76a5.57,5.57,0,0,0,.15,1.81"/><path class="cls-5" d="M43.2,65.61a4,4,0,0,0,.42,1.64,3.72,3.72,0,0,0,.75.9"/><path class="cls-5" d="M47.68,64.6s-.79,1.65-1.45,1.8a8.92,8.92,0,0,1-1.11.19"/><path class="cls-5" d="M48.26,63.06a23.29,23.29,0,0,1,.08,4.12l-.21,1.12"/><path class="cls-5" d="M48.5,65.47a3.16,3.16,0,0,1,.73,1.62,1.85,1.85,0,0,1-.07,1.25"/><path class="cls-5" d="M50,58.87a13.19,13.19,0,0,1,.05-2.66l.19-.94"/><path class="cls-5" d="M50,57.45a2.15,2.15,0,0,1-.56-1.12c0-.56,0-.79,0-.79"/><path class="cls-5" d="M51.17,57.63a6.14,6.14,0,0,1,2.09,0l.45.22"/><path class="cls-5" d="M45.78,58.31s1.59-1.72,2.22-1.8.63.26.63.26"/><path class="cls-5" d="M45.43,59a12.57,12.57,0,0,1,0-3l.21-1.09"/><path class="cls-5" d="M45.22,57.07a3.41,3.41,0,0,1-.77-1.68l0-.6"/><path class="cls-5" d="M41.55,58c-.05-.11-.61-2.84-1-3.11l-.42-.26"/><path class="cls-5" d="M41.49,59.28a35.27,35.27,0,0,1,1.4-3.85l.29-.34"/><path class="cls-5" d="M37.58,57.15a4.41,4.41,0,0,0,1.19-1.68l.19-.79"/><path class="cls-5" d="M37,57.78a22.09,22.09,0,0,0,.29-3.67L37.16,53"/><path class="cls-5" d="M37.08,56.06a9.64,9.64,0,0,0-.45-1.91l-.24-.45"/><path class="cls-5" d="M54.85,63.6A3.12,3.12,0,0,0,57,65.5a3.82,3.82,0,0,0,2.24-.16"/><path class="cls-5" d="M55.4,64.66s-1,1.66-.46,2,1.5-.12,1.5-.12"/><path class="cls-5" d="M56.28,59.5s-.49,1.94.86,2.71a2.91,2.91,0,0,0,1.88.55"/><path class="cls-5" d="M56.28,60.53a1.85,1.85,0,0,0,1.44.8,2,2,0,0,0,1.11-.11"/><path class="cls-5" d="M57.59,58.82a9,9,0,0,1,5.31-2.88"/><path class="cls-5" d="M60.34,56.53A1,1,0,0,1,61,55.29l1-.24"/><path class="cls-5" d="M61.05,56.42s.13.53,1.93.42l1.8-.12"/><path class="cls-5" d="M66.21,57.84a8.33,8.33,0,0,1,3.9-1.78l2.31-.36"/><path class="cls-5" d="M68.43,56.53s-.25-1.07.67-1.19l.92-.12"/><path class="cls-5" d="M69.65,56.18s-.71.89,1.17.95,2.81.18,2.81.18"/><path class="cls-5" d="M72,57a3,3,0,0,1,1.89-1L75,55.88"/><path class="cls-5" d="M74.67,58.91s2.18-1.72,3.86-1.72h1.68"/><path class="cls-5" d="M77.19,57.42s-.38.83,1,.89a12.11,12.11,0,0,1,1.93.18"/><path class="cls-5" d="M76.35,57.84s-.5-1.19.54-1.36a6.4,6.4,0,0,0,1.3-.3"/><path class="cls-5" d="M81,60.81a2.73,2.73,0,0,1,3.14-2.14l2.64.36"/><path class="cls-5" d="M83.06,58.85a1.57,1.57,0,0,0,1.26,1.78c1.51.42,2,.53,2,.53"/><path class="cls-5" d="M83.52,60.15a2.35,2.35,0,0,1,1.8-.36l1,.24"/><path class="cls-5" d="M82.05,58.91s-.21-.95.5-1.07l.71-.12"/><path class="cls-5" d="M87,63.66a3.52,3.52,0,0,1,3.31-1.42l2.26.24"/><path class="cls-5" d="M89,62.41A3.63,3.63,0,0,0,91,63.77l1.47.42"/><path class="cls-5" d="M88.09,62.65a1,1,0,0,1,.84-1.54l1.51-.24"/><path class="cls-5" d="M92.4,67a5.64,5.64,0,0,1,5,.36l2.77,1.48"/><path class="cls-5" d="M94.29,66.8S94,67.16,95.67,68a30.23,30.23,0,0,0,3.19,1.42"/><path class="cls-5" d="M95.17,66.66a5.22,5.22,0,0,1,3.05.08l1.13.59"/><path class="cls-5" d="M99,72.63s.7-1.38,4,1.41l3.31,2.79"/><path class="cls-5" d="M102.29,73.57A6.21,6.21,0,0,0,104,76.3l1.42,1.48"/><path class="cls-5" d="M100.24,72.26s.84-1.19,2.77.06l1.93,1.25"/><path class="cls-3" d="M86.25,92a4,4,0,0,0-2.48.48,5.1,5.1,0,0,0-1.59,2.26s.12-2.06,1.45-2.77A3.27,3.27,0,0,1,86.25,92Z"/><path class="cls-6" d="M82,95.32s.72-2.17,1.81-2.82a4.94,4.94,0,0,1,3.47-.33,18.14,18.14,0,0,0,3,.33c.43,0-1.59,1-2.31.87s-.29.76-1.23.87-.14.76-1,1,0,1.85-1.37,1.85-2.17,2.61-2.53,2.5-.36-2-.14-2.93Z"/><path class="cls-2" d="M73.78,63.62c12.45.95,17.17,9,27,14.7a57.88,57.88,0,0,0,14.36,5.57s7.43.44,7,4.39-11.51,5.1-25.18-3-21-16.47-26.43-17.95a47.2,47.2,0,0,0-7.86-1.65h0C64.45,65.35,69.88,63.33,73.78,63.62Z"/><path class="cls-2" d="M9.72,58.44S13.24,64,28.33,69.62s26.39-1.5,29-2.4c.66-.22,1.36-.46,2.13-.7-1.78.45-4.17,1-6.72,1.61-5.26,1.19-14.92,2.74-24.68-.24a46.86,46.86,0,0,1-17.27-10A3.33,3.33,0,0,0,8.13,57,5,5,0,0,1,4,55.25C3.8,57.84,9.72,58.44,9.72,58.44Z"/><path class="cls-7" d="M109.94,88.63c-7.12-1.09-24.59-11.83-29.63-15a148.07,148.07,0,0,0,16.6,11.69c13.67,8.07,24.73,6.92,25.18,3C121,89.71,118.3,89.92,109.94,88.63Z"/><path class="cls-3" d="M90.28,92.5c-.22,0-.8,0-1.42-.09-.85.19-1.76.44-1.76.6s-.12.72-.37.76-.74,0-.78.4,0,.49-.29.54-1,.09-1,.4,0,1.21-.58,1.3a2.7,2.7,0,0,0-1.73,1.3c-.19.37-.47.86-.72,1.38,0,.26.12.43.22.46.36.11,1.16-2.5,2.53-2.5s.51-1.63,1.37-1.85.07-.87,1-1,.51-1,1.23-.87S90.71,92.5,90.28,92.5Z"/></svg>