<svg id="Animals&#x52A8;&#x7269;" xmlns="http://www.w3.org/2000/svg" viewbox="0 0 128 128" width="128" height="128"><defs><style>.cls-1{fill:#968e8b;stroke:none;}.cls-2,.cls-5{fill:#231f20;stroke:none;}.cls-3{fill:#ebe7e4;stroke:none;}.cls-4{fill:#fff;stroke:none;}.cls-5{opacity:0.13;stroke:none;}.cls-6{fill:#ebe4dc;stroke:none;}</style></defs><title>animals&#x52A8;&#x7269;</title><path class="cls-1" d="M31.74,69.06a84.71,84.71,0,0,1,4.87,17c1.56,9.2,1.69,11.1.34,13.87s-1.83,3.18-2.44,2.77-1.29-.41-1.56.07a1.44,1.44,0,0,0,0,1.56,13.73,13.73,0,0,0,1.26,1.5l2.74,0,4.26-4-2-29.37Z"/><ellipse class="cls-2" cx="36.44" cy="77.16" rx="1.18" ry="1.52"/><ellipse class="cls-2" cx="39.28" cy="88.06" rx="0.51" ry="1.35"/><path class="cls-1" d="M77.89,66.48s4.13,9.2,6.36,11.64S92,83.54,94.88,85.23s5.55,4.67,5.08,8.32-1.69,9.68-2.23,9.95-1.62-.68-2.17-.27a1.48,1.48,0,0,0-.61.88l.54,1.69h4.6a10.17,10.17,0,0,0,.95-2.44c.2-1.08,2.3-14.08,2.3-14.08L80.26,65.67Z"/><path class="cls-3" d="M17.82,25.75a.93.93,0,0,0-.52.49,3.52,3.52,0,0,1-2.74,2c-2.31.35-7.64,1-7.85,1.26a8.88,8.88,0,0,0,1.05,4.27c.63.63.14,1.33.91,1.82a15.32,15.32,0,0,0,4.55,1.68c1.12.07,1.89,1.05,2.94,1.19s2.66-.14,4.06,1.26a28.6,28.6,0,0,1,5.18,8.48c1.26,3.36,3.64,10.44,3.64,12s-.28,5.11.84,7.08a30.44,30.44,0,0,0,4.41,5.75,24.73,24.73,0,0,0,2.31,2.1A55.25,55.25,0,0,1,39.78,89.1c.56,7.29-.56,13.24-1.26,13.73s-1.82-.49-2.52-.07-1.68.91-1.47,1.4.63,1.61.63,1.61h4.55a2.29,2.29,0,0,0,1.75-.84c.56-.84,3.5-5.68,3.5-6.59s-.7-4-.63-6,1.12-17.1,1.12-17.1a44.53,44.53,0,0,0,9-1.26c3.43-1.05,15.62-6,18.78-6.52s6.87-.77,8.41.42,5.61,8,6.45,9.53,3.15,3.85,7.36,7.15,7.08,5.18,8.48,7.64,2.8,10.51,2.24,10.65-2.17.14-2.66.63.07,2.31.07,2.31h4.76a2.74,2.74,0,0,0,1-2c0-1.19-1.12-14.43-1.61-15.2s-6.24-6-7.64-9.39A44.63,44.63,0,0,1,97,67.31a22.42,22.42,0,0,1,.21-5.39,20.77,20.77,0,0,0,12.05,6.45,43.25,43.25,0,0,0,14.78-1s-.42-1.26-3.36-1-9.81,1.19-14-1.19-7.08-4.9-8.55-7.5-1.75-3.57-3-4.41-6.8-5.11-8.69-5.61A58.52,58.52,0,0,0,72.29,47c-6.52.35-14.15,1.33-20.25-.49s-10.23-2.94-13.31-7.08S32.15,27.3,31,26.46s-5.82-2-8.27-1.89A18.67,18.67,0,0,0,17.82,25.75Z"/><path class="cls-2" d="M20.91,29.67c.13-.12-.61-2-1.49-2s-1.49,1.08-1,1.49A3.88,3.88,0,0,0,20.91,29.67Z"/><path class="cls-2" d="M7.76,33.82l.12.14c.07-.19.13-.39.18-.56a4.29,4.29,0,0,1,.64-1.08s-.92-.81-.61-1.22.83.53.94.53a3.49,3.49,0,0,0,1-1.42c.09-.33-.72-.79-1.33-1.09a7.67,7.67,0,0,0-2,.43A8.88,8.88,0,0,0,7.76,33.82Z"/><path class="cls-2" d="M15.37,36.62c-.28-.19-2.31,0-3.86-.42A12.18,12.18,0,0,1,7.89,34a1.38,1.38,0,0,1,.24.6l2,1.26C12,37,14.29,36.84,15,37S15.65,36.81,15.37,36.62Z"/><ellipse class="cls-2" cx="13.82" cy="29.19" rx="1.09" ry="0.34"/><circle class="cls-2" cx="10.98" cy="32.73" r="0.64"/><ellipse class="cls-2" cx="10.87" cy="34.95" rx="0.62" ry="0.47"/><ellipse class="cls-2" cx="15.14" cy="34.72" rx="1.05" ry="0.66" transform="translate(-9.3 5.78) rotate(-16.62)"/><ellipse class="cls-2" cx="30.16" cy="38.92" rx="0.58" ry="0.9"/><ellipse class="cls-2" cx="32.92" cy="39.49" rx="0.85" ry="1.26"/><ellipse class="cls-2" cx="26.9" cy="42.25" rx="1.19" ry="1.11"/><ellipse class="cls-2" cx="35.97" cy="43.42" rx="0.92" ry="1.34"/><ellipse class="cls-2" cx="40.36" cy="45.87" rx="0.79" ry="1.41"/><ellipse class="cls-2" cx="34.6" cy="42.72" rx="0.49" ry="1.41"/><ellipse class="cls-2" cx="35.95" cy="51.59" rx="1.37" ry="0.77"/><ellipse class="cls-2" cx="39.66" cy="49.48" rx="0.94" ry="0.45" transform="translate(-4.42 3.89) rotate(-5.32)"/><ellipse class="cls-2" cx="40.3" cy="58.19" rx="1.37" ry="1.77"/><ellipse class="cls-2" cx="39.34" cy="60.47" rx="0.87" ry="1.28"/><ellipse class="cls-2" cx="37.57" cy="55.05" rx="0.9" ry="1.28"/><ellipse class="cls-2" cx="52.18" cy="50.95" rx="1.3" ry="1.07"/><ellipse class="cls-2" cx="39.74" cy="64.18" rx="0.77" ry="1.54"/><ellipse class="cls-2" cx="43.05" cy="75.19" rx="0.7" ry="0.68"/><ellipse class="cls-2" cx="41.24" cy="85.24" rx="0.6" ry="1.39"/><ellipse class="cls-2" cx="41.6" cy="89.74" rx="0.7" ry="1.37"/><ellipse class="cls-2" cx="44.16" cy="82.81" rx="0.36" ry="1.05"/><ellipse class="cls-2" cx="42.41" cy="86.82" rx="0.92" ry="0.49" transform="translate(-50.64 112.87) rotate(-79.6)"/><ellipse class="cls-2" cx="30.06" cy="59.25" rx="0.64" ry="0.83"/><ellipse class="cls-2" cx="30.59" cy="61.86" rx="0.53" ry="0.62"/><ellipse class="cls-2" cx="32.7" cy="59.85" rx="0.85" ry="1.17"/><ellipse class="cls-2" cx="47.83" cy="58.83" rx="1.05" ry="1.64"/><ellipse class="cls-2" cx="49.26" cy="59.89" rx="0.98" ry="1.51"/><ellipse class="cls-2" cx="52.4" cy="59.04" rx="1.47" ry="1.13" transform="translate(-15.2 99.81) rotate(-79.51)"/><ellipse class="cls-2" cx="50.45" cy="60" rx="0.85" ry="1.15"/><ellipse class="cls-2" cx="43.16" cy="64.78" rx="0.55" ry="1.19"/><ellipse class="cls-2" cx="64.09" cy="48.76" rx="1.3" ry="0.58"/><ellipse class="cls-2" cx="73.29" cy="48.07" rx="1.32" ry="0.58"/><ellipse class="cls-2" cx="75.95" cy="47.86" rx="0.41" ry="0.36"/><ellipse class="cls-2" cx="80.09" cy="52.38" rx="0.49" ry="0.45"/><ellipse class="cls-2" cx="76.25" cy="59.45" rx="1.34" ry="0.85"/><ellipse class="cls-2" cx="78.62" cy="59.7" rx="0.98" ry="1.66"/><circle class="cls-2" cx="92.3" cy="62.2" r="1.3"/><ellipse class="cls-2" cx="83.31" cy="61.9" rx="0.77" ry="1.51"/><ellipse class="cls-2" cx="85.58" cy="54.62" rx="1.84" ry="0.98"/><ellipse class="cls-2" cx="85.64" cy="56.46" rx="1.13" ry="1.62"/><ellipse class="cls-2" cx="84.94" cy="59.15" rx="1.07" ry="1.32"/><ellipse class="cls-2" cx="85.96" cy="60.75" rx="0.81" ry="0.92"/><ellipse class="cls-2" cx="84.04" cy="56.97" rx="0.98" ry="0.43"/><ellipse class="cls-2" cx="57.48" cy="54.6" rx="1.17" ry="1.6"/><circle class="cls-2" cx="60.97" cy="55.28" r="1.3"/><ellipse class="cls-2" cx="60.46" cy="60.77" rx="1.19" ry="1" transform="translate(-13.26 104.51) rotate(-75.83)"/><ellipse class="cls-2" cx="56.45" cy="61.71" rx="1.59" ry="0.98" transform="translate(-17.92 23.44) rotate(-20.32)"/><ellipse class="cls-2" cx="59.37" cy="66.38" rx="1.59" ry="0.98" transform="translate(-19.36 24.75) rotate(-20.32)"/><ellipse class="cls-2" cx="58.48" cy="67.82" rx="1.59" ry="0.61" transform="translate(-19.91 24.53) rotate(-20.32)"/><ellipse class="cls-2" cx="45.44" cy="46.79" rx="0.41" ry="0.53"/><ellipse class="cls-2" cx="46.4" cy="51.14" rx="0.3" ry="0.83"/><ellipse class="cls-2" cx="47" cy="53.04" rx="0.64" ry="0.26"/><ellipse class="cls-2" cx="44.69" cy="54.64" rx="0.38" ry="1.22" transform="matrix(0.84, -0.54, 0.54, 0.84, -22.38, 32.63)"/><ellipse class="cls-2" cx="25.94" cy="41.82" rx="0.7" ry="1.23" transform="translate(-18.89 21.51) rotate(-33.82)"/><ellipse class="cls-2" cx="28.54" cy="46.58" rx="1.86" ry="0.36" transform="translate(-25.75 52.63) rotate(-64.86)"/><ellipse class="cls-2" cx="36.59" cy="55.67" rx="1.54" ry="1.05"/><ellipse class="cls-2" cx="84.08" cy="49.48" rx="1" ry="1.79" transform="translate(6.68 108.87) rotate(-67.97)"/><ellipse class="cls-2" cx="85.75" cy="50.06" rx="0.55" ry="1.02" transform="translate(-9.79 23.02) rotate(-14.47)"/><ellipse class="cls-2" cx="100.67" cy="83.55" rx="0.73" ry="1.03" transform="translate(-29.92 75.7) rotate(-36.25)"/><ellipse class="cls-2" cx="95.84" cy="82.72" rx="0.74" ry="1.19" transform="translate(-30.42 91.99) rotate(-45)"/><circle class="cls-4" cx="19.83" cy="28.59" r="0.38"/><path class="cls-5" d="M92,53.32a8.11,8.11,0,0,1,4.14,6.63,6.81,6.81,0,0,1-3.6,6.36s3-4.26.86-7.91S92,53.32,92,53.32Z"/><path class="cls-5" d="M107.68,88.61c-.49-.77-6.24-6-7.64-9.39A44.63,44.63,0,0,1,97,67.31a24.18,24.18,0,0,1,.16-5.09,6.43,6.43,0,0,1-6.91,5.26c-6.36-.19-8-3.07-11.82-5.14s-24.65,6.52-30.64,7c-6.35.51-6.18-5-8.61-9.44s-4.11-5.14-7.2-4.63c-2.75.46-4.92-10.19-6.58-13.05s.49-4.24,1.21-6.58-3-.45-4.95,1.44a7.11,7.11,0,0,1-4.14,1.53,4.09,4.09,0,0,1,2.76,1.17,28.6,28.6,0,0,1,5.18,8.48c1.26,3.36,3.64,10.44,3.64,12s-.28,5.11.84,7.08a30.44,30.44,0,0,0,4.41,5.75,24.73,24.73,0,0,0,2.31,2.1A55.25,55.25,0,0,1,39.78,89.1c.56,7.29-.56,13.24-1.26,13.73s-1.82-.49-2.52-.07-1.68.91-1.47,1.4.63,1.61.63,1.61h4.55a2.29,2.29,0,0,0,1.75-.84c.56-.84,3.5-5.68,3.5-6.59s-.7-4-.63-6,1.12-17.1,1.12-17.1a44.53,44.53,0,0,0,9-1.26c3.43-1.05,15.62-6,18.78-6.52s6.87-.77,8.41.42a11.08,11.08,0,0,1,1.68,2C91.88,69.27,93,77.94,99,83.92c4.3,4.33,7.19,7.19,7.29,11,.06,2.38,0,4.82-.05,6.34.09.89.08,1.49-.07,1.53-.56.14-2.17.14-2.66.63s.07,2.31.07,2.31h4.76a2.74,2.74,0,0,0,1-2C109.29,102.62,108.17,89.38,107.68,88.61Z"/><path class="cls-6" d="M120.64,66.4c-2.94.28-9.81,1.19-14-1.19s-7.08-4.9-8.55-7.5c-.81-1.43-1.26-2.36-1.71-3.05a35.48,35.48,0,0,1,.8,7.26,20.77,20.77,0,0,0,12.05,6.45,43.25,43.25,0,0,0,14.78-1S123.58,66.12,120.64,66.4Z"/><path class="cls-5" d="M52,46.5c-6.1-1.82-10.23-2.94-13.31-7.08S32.15,27.3,31,26.46a6.78,6.78,0,0,0-1.71-.77c-.39.36.42,6.24.54,6.95a.45.45,0,0,0,.07.19c.74,1.09,7.78,16.09,16.08,16.69a103.81,103.81,0,0,0,17.37-1,.52.52,0,0,0-.1-1A35.65,35.65,0,0,1,52,46.5Z"/><path class="cls-2" d="M26.74,25.71a.84.84,0,0,0-.76.91c.08,1,.16,2.46-.16,2.78a6.66,6.66,0,0,0-1.56,3.16c-.34,1.58-.27,2.74-.61,3.84a7.31,7.31,0,0,1-.5,1.23.85.85,0,0,0,.07.93,1.56,1.56,0,0,0,1.92.51c1.56-.62,7.24-3.7,7.38-4.87s-.07-4.87-1-6.45-2-2.47-3-2.26A15.82,15.82,0,0,1,26.74,25.71Z"/><path class="cls-5" d="M123.48,66.82a53,53,0,0,1-7,.9,25.76,25.76,0,0,1-13.36-2.62C100.23,63.6,98,60.37,97,58.58c.15,1.78.17,3.34.17,3.34a20.77,20.77,0,0,0,12.05,6.45,43.25,43.25,0,0,0,14.78-1A1.25,1.25,0,0,0,123.48,66.82Z"/></svg>