<svg xmlns="http://www.w3.org/2000/svg" viewbox="0 0 128 128" width="128" height="128"><defs><style>.cls-1{isolation:isolate;stroke:none;}.cls-2{fill:#815a3e;stroke:none;}.cls-3{fill:#513721;stroke:none;}.cls-17,.cls-3{opacity:0.33;stroke:none;}.cls-4{fill:#6e4e29;stroke:none;}.cls-5{fill:#976c4c;stroke:none;}.cls-6,.cls-7,.cls-8{fill:#231f20;stroke:none;}.cls-6{opacity:0.12;stroke:none;}.cls-7,.cls-8{opacity:0.11;stroke:none;}.cls-8{mix-blend-mode:multiply;stroke:none;}.cls-9{fill:#f1bda9;stroke:none;}.cls-10{fill:#d78a79;stroke:none;}.cls-11{fill:#e68058;stroke:none;}.cls-12{fill:#f1a689;stroke:none;}.cls-13{fill:#f1a988;stroke:none;}.cls-14{fill:#423224;stroke:none;}.cls-15{fill:#4d2e24;stroke:none;}.cls-16{fill:#fff;stroke:none;}.cls-17{fill:#4b321d;stroke:none;}</style></defs><title>animals&#x52A8;&#x7269;</title><g class="cls-1"><g id="Animals&#x52A8;&#x7269;"><path class="cls-2" d="M91.47,60.12A2.4,2.4,0,0,1,89,58a2.35,2.35,0,0,1,2.27-2.46c3.34-.24,12.89-1.69,16.85-5.45,5.12-4.85,13.06-14.84,8.71-27.2-1.77-5-4.87-8.54-9.22-10.44A18.36,18.36,0,0,0,94.44,12C88.21,14.31,82.59,20,85,27c2.71,8,7.25,8,10.43,7.31,5.67-1.26,5.38-6.19,5.33-6.74a2.35,2.35,0,0,1,2.23-2.48,2.41,2.41,0,0,1,2.68,2c.35,3.25-1.09,9.86-9.09,11.64-4.43,1-12.45.95-16.28-10.4C77.09,19,84.09,10.9,92.63,7.76a23.47,23.47,0,0,1,17.09.55,21.57,21.57,0,0,1,11.81,13.16c5.16,14.66-4,26.24-9.88,31.83-6.07,5.75-19.42,6.77-20,6.81Z"/><path class="cls-3" d="M121.82,22.37a19,19,0,0,1,.49,2.43c.87,6.78-.35,13.59-8.45,24-5.57,7.15-19.79,9.26-24.86,9.68a2.76,2.76,0,0,0,2.47,1.65h.19c.57,0,13.92-1.05,20-6.81C117.44,47.83,126.31,36.61,121.82,22.37Z"/><path class="cls-4" d="M28,53.75s3,28.85,1.51,36-8.66,21.14-7.78,23.84,1.31,4.69,3.79,4.69,7.59.28,7.73-.57.44-5.26-.58-4.26-4.35,1.65-2.89-2.19S39.39,87.13,39.54,83s-.75-24.29-1-23.87S28,53.75,28,53.75Z"/><path class="cls-4" d="M83.59,63.13c0,.43-9.78,13.78-12.11,17.47s-4.82,7.53-2.63,11.22,12.55,11.19,15.32,13,3.36,5.71.88,7.13-6,2.7-6.13,3.83-.29,2.56,2.63,2.56,4.52.57,6.13-1.7,7.73-11.79,7.73-11.79L87.16,74.78Z"/><path class="cls-5" d="M104.41,53.21S93.2,44.15,86.18,42.86s-32.1-7.21-35.51-9.06-6.53-4.9-10.94-5.12c-5.1-.26-14.47-1-18.57-2.91C18.29,24.47,8,25.41,5.72,35.52c-.54,2.34,2.4,4.38,2.4,4.38s-4,4.07-3,5.36a2.83,2.83,0,0,0,2.09,1.29s-.57,2.77.19,3.33l.76.55a2.06,2.06,0,0,0,2.47,2.22c2.66-.18,8.17-1.11,10.64-.37s5.7.37,9.88,5.36S39.46,66.33,40.22,68s7,12.52,6.25,17.51-2.68,21-3.82,23.79S40,112.72,41,114.94s1.93,3.44,4.78,3.44,6.81.63,7-2-1.14-3-2.09-2-2.83-1.66-1.5-3.51,10.05-25.14,9.29-27.73-7-15.53-4.18-15.71,22-5,24.31-4.44,6.84,0,4.75,4.62-9.5,18.3-8,20.33,9.88,12,14.81,15.53,8.36,6.65,6.84,8.13-7,4.62-5.13,5.55,5.32,1.85,6.27.92,6.29-7.46,5.53-9.13-7.22-19.57-9.12-20.67-4.39-1.44-2.49-3.84,13.48-10.91,14.05-13.12S106.5,60,106.5,60Z"/><path class="cls-6" d="M90.16,103.48c4.94,3.51,8.36,6.65,6.84,8.13s-7,4.62-5.13,5.55,5.32,1.85,6.27.92,6.29-7.46,5.53-9.13-7.22-19.57-9.12-20.67-4.39-1.44-2.49-3.84,13.48-10.91,14.05-13.12S106.5,60,106.5,60s-4.67,5.79-11,5.39S89,60.89,84.43,58.91s-17.2-1.19-33,0S31.24,49.42,31,47.25s-2.77-3.56-3.36-1-8,5.78-8,5.78h0a7.19,7.19,0,0,1,1.5.24c2.47.74,5.7.37,9.88,5.36S39.46,66.33,40.22,68s7,12.52,6.25,17.51-2.68,21-3.82,23.79S40,112.72,41,114.94s1.93,3.44,4.78,3.44,6.81.63,7-2-1.14-3-2.09-2-2.83-1.66-1.5-3.51,10.05-25.14,9.29-27.73-7-15.53-4.18-15.71,22-5,24.31-4.44,6.84,0,4.75,4.62-9.5,18.3-8,20.33S85.23,100,90.16,103.48Z"/><path class="cls-7" d="M105,55.31c-1.31-4.07-9.37-7.62-10.91-8.34-8.64-4.05-43-10.13-46.31-12.92s-9.22.08-13.49-.11S22.61,25.42,13,31.34c-1.76,1.08-5.17,4.75-6.93,5.92a8.48,8.48,0,0,0,2,2.64s-4,4.07-3,5.36a2.83,2.83,0,0,0,2.09,1.29s-.57,2.77.19,3.33l.76.55a2.06,2.06,0,0,0,2.47,2.22c2.66-.18,8.17-1.11,10.64-.37s5.7.37,9.88,5.36S39.46,66.33,40.22,68s7,12.52,6.25,17.51-2.68,21-3.82,23.79S40,112.72,41,114.94s1.9,3.44,4.75,3.44,6.84.63,7-2-1.14-3-2.09-2-2.83-1.66-1.5-3.51,10.05-25.14,9.29-27.73-7-15.53-4.18-15.71,22-5,24.31-4.44,6.84,0,4.75,4.62-9.5,18.3-8,20.33,9.88,12,14.81,15.53,8.36,6.65,6.84,8.13-7,4.62-5.13,5.55,5.32,1.85,6.27.92,6.29-7.46,5.53-9.13-7.22-19.57-9.12-20.67-4.39-1.44-2.49-3.84,13.48-10.91,14.05-13.12S106.5,60,106.5,60l0,0,0,0S105.34,56.21,105,55.31Z"/><path class="cls-8" d="M87.6,56.76a7.63,7.63,0,0,0,.84,2.68c2.58,4.73,5,3.6,5.33,2.07C94,60.3,90.51,56,89.56,53.63s1.22-5,1.22-5a13.87,13.87,0,0,0-2.11,2.3C87.93,52,87.31,53.55,87.6,56.76Z"/><path class="cls-8" d="M51.44,57.62c0-.42,1.07-8-2.25-11.3s-9.13-5-11.14-2.61,2.53,1,6.36,3.35S51.44,57.62,51.44,57.62Z"/><path class="cls-9" d="M12.42,44.44c-3-1.46-3.29-1.4-.16-4.18,4.49-4-3.75-6.53-6.48-5C5,38.1,8.12,39.9,8.12,39.9s-4,4.07-3,5.36a2.83,2.83,0,0,0,2.09,1.29s-.57,2.77.19,3.33l.76.55a2.06,2.06,0,0,0,2.47,2.22c.9-.06,2.12-.21,3.44-.35C16,52.1,15,45.71,12.42,44.44Z"/><path class="cls-10" d="M10,49.9a2.93,2.93,0,0,1-1.83.53,2.32,2.32,0,0,0,0,.32,4.12,4.12,0,0,0,1.42-.25C10.85,50.07,11.57,49,10,49.9Z"/><path class="cls-11" d="M6.37,45.75c0,.15.66.59,1-.12.48-.9,0-1.41-.14-1.36s.22.63-.23,1.17C6.77,45.75,6.42,45.59,6.37,45.75Z"/><path class="cls-12" d="M10.27,40.6c.13.08,0,.47-.72.26-.9-.26-1-.9-.94-.92s.4.51,1,.66C9.91,40.69,10.14,40.52,10.27,40.6Z"/><path class="cls-13" d="M11.45,38.39a1.51,1.51,0,0,0-1.89-.56,1.38,1.38,0,0,0-.94,1.7,1.36,1.36,0,0,0,1.7.36A1.75,1.75,0,0,0,11.45,38.39Z"/><ellipse class="cls-14" cx="9.84" cy="38.91" rx="1.07" ry="0.94" transform="translate(-15.15 7.51) rotate(-24.32)"/><path class="cls-15" d="M10.86,38.58a.81.81,0,0,0,0-.12,1,1,0,0,0-1.36-.41,1,1,0,0,0-.59,1.3l0,.07a1.53,1.53,0,0,0,1-.16A2.8,2.8,0,0,0,10.86,38.58Z"/><ellipse class="cls-16" cx="9.94" cy="38.43" rx="0.29" ry="0.3" transform="translate(-14.94 7.5) rotate(-24.32)"/><circle class="cls-16" cx="9.21" cy="38.78" r="0.15" transform="translate(-15.15 7.24) rotate(-24.32)"/><path class="cls-17" d="M83.84,24.55c-.07,2.78,1.9,11.61,10.73,11.34,7.67-.24,6.63-7.29,6.22-9.14a2.13,2.13,0,0,0-.09.8c.05.56.34,5.48-5.33,6.74C92.2,35,87.66,35,85,27a9.61,9.61,0,0,1-.07-6.2A10.12,10.12,0,0,0,83.84,24.55Z"/><path class="cls-4" d="M17.23,35.49s-1.81-2.28-.24-3.66,4.12-2.23,6.94.22,1.92,5.56.67,6.55-3.65.6-4.52.24,1.26-1.74,0-3.3A1.86,1.86,0,0,0,17.23,35.49Z"/><path class="cls-5" d="M22.73,37.49a3,3,0,0,0-.3-4.73,4,4,0,0,0-5.28.06A1.72,1.72,0,0,0,17,35.14c.12.19.21.31.23.33a2.53,2.53,0,0,1,.28-.21,1.74,1.74,0,0,1,2.54.28,2,2,0,0,1,0,2.44A3.83,3.83,0,0,0,22.73,37.49Z"/></g></g></svg>