<svg id="Animals&#x52A8;&#x7269;" xmlns="http://www.w3.org/2000/svg" viewbox="0 0 128 128" width="128" height="128"><defs><style>.cls-1{fill:#e6e6e6;stroke:none;}.cls-2{fill:gray;stroke:none;}.cls-3{fill:#b3b3b3;stroke:none;}.cls-4{fill:#ccc;stroke:none;}.cls-5{fill:none;stroke:#000;stroke-width:0.26px;}.cls-6{fill:#fff;stroke:none;}</style></defs><title>animals&#x52A8;&#x7269;</title><path class="cls-1" d="M109,48c-5.53-2.86-13.15,0-24.95.81s-21.63-1.62-30.82-4S37.23,32,33.69,28.88s-8.13,1.62-11.21,1.4S19.1,35,15.24,38.55c-2.31,2.1-7.27,5-8.58,9.07l0,.27c.2,1.19.59,3.37,1.39,3.86a7.18,7.18,0,0,0,3.17.4c.69,0,2,.59,2.77-.4s1.88-3.07,4.66-4.06,6.54-2.48,6.54-2.48,10.21,15.06,10.4,17.24c.06.67.13,1.52.24,2.41,9.54,3.41,23.41,8.25,27.11,9,5.79,1.13,12.58,3.51,23.13.22s10.36.65,15,.87,8.6-6.05,11.77-10.59S116.39,51.76,109,48Z"/><path class="cls-2" d="M99.26,112.4c.79-.4,2.58-.89,3.17-2.87.51-1.69,2.52-10,3-12.23,0-.53.08-1,.08-1.48,0-2.71-3.35-9.51-4-10.67s-1.74-4.09-2-4.77a6.55,6.55,0,0,0-2-2.39,4.63,4.63,0,0,0-1.17-.49,2.46,2.46,0,0,0,.71.51s4.36,16.35,4,18-3.77,12.29-4.46,12.78S94.11,110,93.81,111a14.5,14.5,0,0,1-.89,3.07c-.4.5-1.09,1.59-.1,1.68s4.76.5,5.05-.3S98.47,112.79,99.26,112.4Z"/><path class="cls-3" d="M91.92,65.1c-2.17-3.43-6.51,3.66-11.54,5.48s-17.93,2.06-23,1.14-5.37-10.05-9.94-12.91-5.14,2.86-8.11,1.26-4.91-7.77-6.85-11.31-2-13.6-5.28-10.35c-3,3-11.7,11.17-11.7,11.17l.05.18a7.64,7.64,0,0,1,3.11-2.07c2.77-1,6.54-2.48,6.54-2.48s10.21,15.06,10.4,17.24.4,6.14,2.38,8c1.82,1.73,4.56,3.13,5.14,4.11a2.94,2.94,0,0,1,3.23,0C48.68,76,49.47,80.33,49,84.88a46.11,46.11,0,0,0-.3,8.8c.1,2,0,11.43-.78,12.17s-1.07,2.77-1,4.16a9.34,9.34,0,0,1-.76,3,3.14,3.14,0,0,0,1.51-.21,2.88,2.88,0,0,0,1.19-2.68c-.3-.89-.89-1.78,0-2.48a3.81,3.81,0,0,0,1.78-3.47c-.1-.84-.2-2.6-.24-4.35a27.46,27.46,0,0,1,.14-4.27,45.67,45.67,0,0,0,.4-5s2.77,5.75,3.27,8.52.3,6.44-.4,7.73-1.88,2-2.28,3.17-1.49,2.18-.1,2.58,4.46,1.29,5-.1a6.75,6.75,0,0,0,.3-3.27,1.63,1.63,0,0,1,.69-2c1-.69,2.58-1.88,1.68-4.06s-2.48-11.3-2.68-15.36,0-11.79,0-11.79,14.17,3.67,22.39,2.58,12.58-5.95,13.67-5.95h1.08A12.46,12.46,0,0,0,91.92,65.1Z"/><path class="cls-2" d="M56.35,87.82c-.18-3.74,0-10.57,0-11.63A4.16,4.16,0,0,0,55,75.86c-1.38-.11-2.53-.18-2.64.63s-1.11,10.26-1.2,14.61a44.71,44.71,0,0,1,3,8c.5,2.77.3,6.44-.4,7.73s-1.88,2-2.28,3.17-1.49,2.18-.1,2.58,4.46,1.29,5-.1a6.75,6.75,0,0,0,.3-3.27,1.63,1.63,0,0,1,.69-2c1-.69,2.58-1.88,1.68-4.06S56.55,91.88,56.35,87.82Z"/><path class="cls-4" d="M110,109.62c.1-2.87,1.09-14.37,1.78-16.84s1.49-3.77.89-4.36-5.45-6.14-4.16-10.31,4.36-5.75,5.05-8.52,1.88-6.94,1.88-6.94-.3,17,.2,18.33,2.18,4.36,1.19,8a43.67,43.67,0,0,0-1.09,10.4c.1,1,.4,3.07,1.29,2.48s1.68-.4,1.88-4A38.46,38.46,0,0,1,120.17,90c.3-.89.1-4.56-.1-7.13s-1.78-11.69-1.88-13.28.2-9.12-.4-10.7a30.81,30.81,0,0,0-4.84-9c.29,1.33,2.41,11.82-2.5,16.64-5.25,5.15-8.88,7.89-7.07,10.79s5.66,10.9,5.7,14.26.82,17.36-.19,17.77-2.06,2.73-1.89,3.84C107.68,112.5,109.86,112.5,110,109.62Z"/><path class="cls-2" d="M115.61,81c.5,1.29,2.18,4.36,1.19,8a43.67,43.67,0,0,0-1.09,10.4c.1,1,.4,3.07,1.29,2.48s1.68-.4,1.88-4A38.46,38.46,0,0,1,120.17,90c.3-.89.1-4.56-.1-7.13s-1.78-11.69-1.88-13.28.2-9.12-.4-10.7A35.55,35.55,0,0,0,115.67,54a22.76,22.76,0,0,1-.37,9l.12-.41S115.11,79.7,115.61,81Z"/><polygon class="cls-2" points="115.11 63.72 115.11 63.72 115.11 63.72 115.11 63.72"/><path class="cls-4" d="M97.56,50.73s-7.55,3.69-7,10.35,3.19,10.67,6,11.4-4.47-4.65-3.74-12.13S97.56,50.73,97.56,50.73Z"/><path class="cls-5" d="M27.42,18.46s-2.58.2-3.57.3a14.14,14.14,0,0,0-3.86.79l-1.46.66s-2.11-1.75-2.71-1.05.1,3.77,1.29,5.25a13.86,13.86,0,0,0,1.68,1.88A21.36,21.36,0,0,0,15.33,30c-.69,1.29-4.26,8.92-5,9.61A15.18,15.18,0,0,0,7.5,44c-1.29,2.68-1,2.68-.79,3.86s.59,3.37,1.39,3.86a7.18,7.18,0,0,0,3.17.4c.69,0,2,.59,2.77-.4s1.88-3.07,4.66-4.06,6.54-2.48,6.54-2.48,10.21,15.06,10.4,17.24.4,6.14,2.38,8,5.05,3.37,5.25,4.36,0,6.24,1.29,11.59,2.38,7.83,2.08,9a34.24,34.24,0,0,0-.2,5.55c0,1.29.1,2.77-.59,3.67s-2.38,1.68-2.48,2.77a21.93,21.93,0,0,1-.5,3.57c-.2.4-1.49,1.59-.5,1.68s4.56.59,5.25.1a2.88,2.88,0,0,0,1.19-2.68c-.3-.89-.89-1.78,0-2.48a3.81,3.81,0,0,0,1.78-3.47c-.1-.84-.2-2.6-.24-4.35a27.46,27.46,0,0,1,.14-4.27,45.67,45.67,0,0,0,.4-5s2.77,5.75,3.27,8.52.3,6.44-.4,7.73-1.88,2-2.28,3.17-1.49,2.18-.1,2.58,4.46,1.29,5-.1a6.76,6.76,0,0,0,.3-3.27,1.63,1.63,0,0,1,.69-2c1-.69,2.58-1.88,1.68-4.06s-2.48-11.3-2.68-15.36,0-11.79,0-11.79,14.17,3.67,22.39,2.58,12.58-5.95,13.67-5.95h1.09a19.83,19.83,0,0,0,2,3.86c1,1.29,1.59,1.49,1.59,1.49s4.36,16.35,4,18-3.77,12.29-4.46,12.78S94.11,110,93.81,111a14.5,14.5,0,0,1-.89,3.07c-.4.5-1.09,1.59-.1,1.68s4.76.5,5.05-.3.59-2.68,1.39-3.07,2.58-.89,3.17-2.87,3.27-13.08,3.17-12.78-.69,12.49-1.09,12.78a10.7,10.7,0,0,0-1.59,2.77c-.2.59-.5,2.08-1.19,2.58s-1.29,1.29-.4,1.19,5.15,0,5.15,0-.2-2.18.5-2.87,2.87-.69,3-3.57,1.09-14.37,1.78-16.85,1.49-3.77.89-4.36-5.45-6.14-4.16-10.31,4.36-5.75,5.05-8.52,1.88-6.94,1.88-6.94-.3,17,.2,18.33,2.18,4.36,1.19,8a43.67,43.67,0,0,0-1.09,10.4c.1,1,.4,3.07,1.29,2.48s1.68-.4,1.88-4A38.46,38.46,0,0,1,120.17,90c.3-.89.1-4.56-.1-7.13s-1.78-11.69-1.88-13.28.2-9.12-.4-10.7S113.33,45.41,103.22,44,90.54,45.31,83,45.61s-14.47.79-18.53-.1-12.09-3-12.58-3.77,1.09-3.27.79-3.67-1-1.19-.89-2-1-1.25-1.35-1.51-.22-2.11-1.08-2.33-1.68.13-2.5-1-1.12-1.94-2-2.33a5,5,0,0,1-2.15-1.77,3,3,0,0,0-2.15-1.46,4.75,4.75,0,0,1-3.36-1.08,40.39,40.39,0,0,0-3.58-3.36,34.6,34.6,0,0,1-3.1-1.55A9.67,9.67,0,0,0,27.42,18.46Z"/><path class="cls-5" d="M18.4,20.24s-2-1.78-2.58-1.09.1,3.77,1.29,5.25a13.86,13.86,0,0,0,1.68,1.88,9.06,9.06,0,0,1,1.62.39c.61.24,1.27,1.27,2.12,1.39s2.66-1.82,2.78-3.45S18.4,20.24,18.4,20.24Z"/><path d="M14,50a18.6,18.6,0,0,1-.51-2.1c-.17-.4.68-.51.23-1s-1.53,0-2.21-.11a2.72,2.72,0,0,1-1.59-1.47,4.58,4.58,0,0,1,.23-2.66c.23-.73-.6-1.12-1.16-1.29A25.1,25.1,0,0,0,7.5,44c-1.29,2.68-1,2.68-.79,3.86s.59,3.37,1.39,3.86a7.18,7.18,0,0,0,3.17.4c.69,0,2,.59,2.77-.4.16-.19.32-.43.51-.69C14.35,50.64,14.1,50.22,14,50Z"/><path d="M13.58,33.2a10.09,10.09,0,0,1-.73,3.06,21.29,21.29,0,0,1-1.59,2.87c-.37.31-2,1.28-1.28,1a11.81,11.81,0,0,0,3.3-3.42,6.22,6.22,0,0,0,1.22-3.06c0-.79-.24-1.28.49-1.65a14,14,0,0,0,2.69-2.69c.49-.61,1.28-1.16,1.59-1.59s.72-1.18.72-1.18-.47-.49-.72,0A18,18,0,0,1,17.13,29l-1.77,1.9-.73.24Z"/><path d="M12.79,38.33S14,36.56,15,36.93a5.56,5.56,0,0,1,2.69,2.45c.37.86.61,2.08.73,1.59a2.51,2.51,0,0,0-.12-2.45c-.73-.92-1.83-1.77-1.28-2.38s1-2.51.61-2-.61,1.47-1.28,1.47a2.27,2.27,0,0,0-1.9.49A6.62,6.62,0,0,0,12.79,38.33Z"/><path d="M12.3,39.62a7.49,7.49,0,0,1,2.87.55c1,.55,2.38,1.71,2.45,2.26a6.39,6.39,0,0,1-.06,1.35s-1.9-2.93-3.55-2.93a4.76,4.76,0,0,0-2.69.79c-.61.24-1.41.31-.55.55s2.32-.31,3.3-.06,2.38.49,2.81,1.65.61,2.63.86,2.14,1.28-1.83,1-2.81-1.77-3.91-3.12-4.28S12.3,39.62,12.3,39.62Z"/><path d="M9.42,45.18s2.45.43,3.55.55,2.32-.49,2.75.24a5,5,0,0,1,.67,2.08,3.58,3.58,0,0,1-.12.86l-.73.67-.67,1s-.43-.67-.24-1.1.43-1.1-.06-1.47A5.44,5.44,0,0,0,13,47.38s1.16-.67,1.59-.24.67,1.77,1,1.47.49-2.14-.43-2.14-2.08-.31-3-.31a17.65,17.65,0,0,0-2.14.18Z"/><path d="M14.8,44.57a19.84,19.84,0,0,1-2.2.31c-1,.06-2-.12-1.83-.79s.79-1.22,2-.92a8.43,8.43,0,0,1,3.18,1.16,4.21,4.21,0,0,1,1.35,1.9,5.61,5.61,0,0,1,.06,1.35,2,2,0,0,1,0,.61l-.61.37a4.76,4.76,0,0,0-.18-2.14A10.5,10.5,0,0,0,14.8,44.57Z"/><path d="M17.24,33.36a.33.33,0,0,0-.21-.47,4,4,0,0,0-1.44,0c-.39.09-.7.09-.66.6s.26,1.32.8,1.19A1.92,1.92,0,0,0,17,33.86C17.07,33.69,17.17,33.51,17.24,33.36Z"/><path d="M18.75,28s.67-.19.71.15a1.4,1.4,0,0,1-.54,1.21c-.5.52-.67,1-1,1.18a3.58,3.58,0,0,0-.95.6c0,.09-.32.56-.09.73s1.18-.24,1.51-.62a12.55,12.55,0,0,0,.86-1.36l.95-1.57.28-1.1s.2-.66.14-.63c-.26.15-1-.24-1-.24s-.6.82-.67.93A4.25,4.25,0,0,0,18.75,28Z"/><path d="M20.69,29a3.62,3.62,0,0,0-1,1.1c-.43.67-1.81,2.89-1.85,3.12s0,.67.17.45,1.18-2,1.49-2.5.88-1.44.88-1.44Z"/><path d="M21.62,27.55a7.39,7.39,0,0,0-.5.69S21,29,21,29.4a5.44,5.44,0,0,1-.56,1.36l-1.46,2s.06-.45-.26.28a10.66,10.66,0,0,0-.5,2.28s-.45,1.14-.13,1.64a5,5,0,0,1,1.06,2.56c.06,1.21-.11,3.55,0,3.47s.5,0,.47-.54.13-3.3-.5-4.61-.52-1.77-.37-1.92.69.71,1,1.79A10.9,10.9,0,0,1,20.35,41c0,1-.22,2.58.13,2.61s.6-3.17-.13-5.56-1.55-3-1.25-3.94A4.08,4.08,0,0,1,20.2,32c.54-.47.82-.6,1-1s-.3-1,.15-1.08.65.24.62,1.51-.15,4.16,0,4.55.41,1.31.43.9.28-6,.15-6.66-.41-1.29-.06-1.21.65.39,1.12-.19.73-1.51,1.23-1.92a8.23,8.23,0,0,0,1.08-1.21l.34-1.36A2.51,2.51,0,0,0,27.56,23a14.42,14.42,0,0,0,.52-2.15l.58-1.16.39-.8a16.4,16.4,0,0,0-1.63-.43c-.07,0-1.49.24-1.49.24a6.57,6.57,0,0,0,0,1.06,12.56,12.56,0,0,0,.37,1.87L26.12,23s-.13.5-.39.45-.43.19-.45-1.08-.22-2.52-.17-3a2.32,2.32,0,0,0,0-.71l-1.62.15a10.1,10.1,0,0,0-1.29.22,6.26,6.26,0,0,0,0,.88,12,12,0,0,1,.93,1.16c.32.5.6.8.56,1.27a16.79,16.79,0,0,0,0,1.7l-1.38,3.17Z"/><path d="M19.46,19.75a2.18,2.18,0,0,1,1.27.6c.71.6,1.72,1.59,1.68,1.29s-1.29-1.42-1.27-1.72,0-.88,0-.88a7.36,7.36,0,0,1-.71.34C20.41,19.38,19.46,19.75,19.46,19.75Z"/><path d="M29.85,19.36l-.95,1.83s-.71,1.66-.41,1.87.82-.75,1.25-1.55a18.21,18.21,0,0,1,1-1.62Z"/><path d="M31.44,20.18a5.73,5.73,0,0,1-.5,1.42,9.81,9.81,0,0,0-.6,1.53s-.58,1.4-.3,1.29.56-.67,1.06-1.42A12.83,12.83,0,0,0,32,21.37a5.31,5.31,0,0,0,.28-.73Z"/><path d="M33.27,21.11a6.2,6.2,0,0,1-.86,1.64c-.62.86-2.56,3.47-2.65,3.77s-.32,1.85-.32,1.85a12.07,12.07,0,0,0-2.58,3.34,5.52,5.52,0,0,0-.32,3.45,31.44,31.44,0,0,1,.19,4.63c0,.47-.37,2.2-.47,1.31s-.52-4.24-.47-5-.15-3.32.17-4.07a18.81,18.81,0,0,1,1.16-2s1.51-1.85,1.68-2.18.71-1.55.28-1.62-1.46.56-2,1.68a35.09,35.09,0,0,0-1.53,3.83c-.22.69-.22,1.29-.45,1.29s-.37-.54-.06-1.64a19.82,19.82,0,0,0,.71-2.71c0-.54-.06-.45.73-1.31S29,25,29.29,24.53s.52-.67.41-1,0-.41-.62.11a30.53,30.53,0,0,0-3.08,3,6.15,6.15,0,0,0-1.4,2.65c-.24,1.25,0,5.51-.09,6.05a16.8,16.8,0,0,0,.43,3.1,10.84,10.84,0,0,1,.19,3.14c-.22.24-.52-.34-.9-1.08a5.15,5.15,0,0,1-.54-2.61,62.3,62.3,0,0,0,.06-6.57c-.19-.17-.71-1-.78-.43s-.28,7.39-.09,7.71,1.29,3.4,1,4.18-.84,2-1,1.55a35.55,35.55,0,0,0-.71-3.79c-.41-1.18-1.79-6.1-1.53-6.76s1.21-1.64.88-1.74a.66.66,0,0,0-.9.22,3.83,3.83,0,0,0-.8,2.35c.11.84,1.66,6.07,1.77,6.68a14,14,0,0,1,.13,2.48c0,.54,0,1-.24,1.1s-.43.34-.86,0-.67-1.59-.86-1.38a9.14,9.14,0,0,0-1.16,2.18c-.15.6-.75,1.36-.69,1.64s.13.62.13.62,2.52-.8,3.12-1.12a26,26,0,0,1,3.06-1.21c.32-.06.93-.49,1-.34a2.49,2.49,0,0,0,.47.54,2.13,2.13,0,0,1,.37-1.06,7.05,7.05,0,0,0,1.53-2.86c.13-1,.09-5,.09-6.07a8.66,8.66,0,0,1,.52-3.53c.45-.73.11-1.59,1-2.33s1.42-1.12,1.62-1.85-.15-.88.62-1.87S34.5,22,34.5,22Z"/><path d="M36.56,24.11l-.67-.59s-5.33,6.47-5.59,7a13.16,13.16,0,0,0-1.66,3.33c-.22,1.18-.15,6.88-.48,7.92a25.68,25.68,0,0,1-1.7,4.22c-.26.15-.74.15-.48.44s1,1.55,1,1.55.37-1.7.52-2.15,2.29-6.55,2.29-7.25a4.23,4.23,0,0,1,.41-2.66A6.35,6.35,0,0,1,32,33.69c.78-.48,1.33-.59,1.85-1.92A12.43,12.43,0,0,1,35.34,29c.41-.55,3.48-3.44,3.48-3.44s-1-.48-1.07-.41a53.37,53.37,0,0,0-4.25,4.7A1.89,1.89,0,0,1,32.9,31c-.44.41-.63.41-.67.89a1.46,1.46,0,0,1-.85,1.22,11.34,11.34,0,0,1-1.41.63s-.52-1.22.22-1.7,2.29-1.81,2.48-2.66a4,4,0,0,1,.89-2.15C34.23,26.44,36.56,24.11,36.56,24.11Z"/><path d="M39.48,25.59a55.92,55.92,0,0,1-3.11,4.77,62.68,62.68,0,0,0-4.88,6.29,49.61,49.61,0,0,0-3.07,9.21c-.11,1.11-.18,3.85-.18,3.85l1.11,1.74a34.51,34.51,0,0,1,.78-4.7,41.34,41.34,0,0,1,4.77-7c1.74-1.92,3.51-4,3.59-4.77s-.11-.92.81-1.59,3.7-2.55,4.33-3.07a7.21,7.21,0,0,0,1.22-1.45l-1-.47-.44-.26s-3.37,2.92-4.11,3.62a14.21,14.21,0,0,1-1.89,1.41,25.23,25.23,0,0,1-1.59,2.4,24.12,24.12,0,0,0-3,3.4c-.52,1-1.81,3.26-1.78,2.44a4.59,4.59,0,0,1,.81-3c.92-1.52,3.81-5.77,5.4-7s5.66-4,5.55-3.92-1-1.44-1-1.44l-1.27-.44Z"/><path d="M45.77,29.73s-4.36,4.81-4.92,5-1.26.22-1.74,1S35,42.27,34.45,42.82a31,31,0,0,0-3.37,4.85c-.44,1-.63,5.36-.63,5.36l1.37,2.52a47.62,47.62,0,0,1,1-5.18A21.06,21.06,0,0,0,35.08,47c.52-1.18,6-9.17,6.21-9.65s-.18-1,1.07-1.92,4.5-4.16,4.5-4.16Z"/><path d="M47.77,31.95s-3.59,4.55-3.92,4.73-1.11,0-1.66.85-8,13.13-8.58,14.68a22.28,22.28,0,0,0-.85,4.51l1.74,2.92a20.81,20.81,0,0,1,2-4.85,56.4,56.4,0,0,0,3.88-7.47,47,47,0,0,1,2.37-5.59,18.92,18.92,0,0,0,1.7-2.85c.22-.78-.44-.92.48-1.85s4.41-4.79,4.41-4.79l-1-.06S47.84,31.91,47.77,31.95Z"/><path d="M50.65,34.83c-.15,0-4,3.92-4.44,4.29s-.81.07-1.92,2.18-8.25,17-8.51,17.38-1,1.48-.89,1.81a19.45,19.45,0,0,1,.75,2,4.56,4.56,0,0,0,0,.79l.11.78s1.33-4,1.55-4.55,2.37-4.92,3.62-7.06a61.16,61.16,0,0,0,3.4-6.55A15.78,15.78,0,0,1,46,42.64a6.61,6.61,0,0,0,1.07-2c.07-.44-.11-.89.67-1.48s4-3.55,4-3.55Z"/><path d="M52.1,37.53s-2.85,3.22-3.22,3.4-.85.15-1.29,1-.78,1.29-1.18,1.92-1.85,3.4-3.26,6.25S39.08,58.36,39.59,58a25.62,25.62,0,0,0,4.7-6.58c1.15-2.7,2.29-5.92,3.26-7.21s1.89-2,1.89-2.33v-.3l3.25-3.45Z"/><path d="M51.17,41.79c-.15,0-.63-.15-1.26.81s-2.4,4.22-3.7,6.88a38.26,38.26,0,0,1-3.48,6.07c-1,1.37-1.33,1.52-2.44,2.92s-2.18,2.44-2.7,4.07-.18,4.66-.44,4.85-.81-.07-.81-.07.3.89.52,1.37.63,1.22.63,1.22a7.08,7.08,0,0,1,.33-2A4.21,4.21,0,0,0,38.34,66,4.62,4.62,0,0,1,39,63.24a28.63,28.63,0,0,0,3-4.4,13.48,13.48,0,0,1,1.74-3.51c.63-.7,1.44-1.55,1.07-.26s-1.52,5.84-2,6.25a17.62,17.62,0,0,0-3.44,4.55c-.55,1.52-.44,5.4-.44,5.4l1.29,1s-.07-4,.67-5.55,3.62-6.58,4-7.88.85-5.81,1.29-6.73,2.74-6.47,3.4-7.43,1.44-1.55,1.55-2A2.22,2.22,0,0,0,51.17,41.79Z"/><path d="M52.5,42.16a29.57,29.57,0,0,0-3.81,6.33C47,52.4,46.55,57.58,46.36,58s-3.26,6.84-3.77,7.84a16.68,16.68,0,0,0-.81,4c-.15.85.07,2.52.18,2s.18-2.77,1.7-3.48a4.84,4.84,0,0,1,4.7-.11c2.22.89,5.4,3.18,5.36,2.92s.37-1.18-.15-1.48S48.4,66,46.81,66.13s-2.44.3-2.77-.18,0-1.59.7-2.37,2.18-2,2.29-3.33a19.17,19.17,0,0,1,.63-4.85,89.76,89.76,0,0,1,4.07-9.65,24.24,24.24,0,0,1,2.18-3.11Z"/><path d="M54.8,43s-1.89,1.52-4.14,7-2.92,9.65-2.48,10.84,5,7.66,5.18,7.4.26-.48-.41-1.33-3.88-5.1-3.14-9.32A22.64,22.64,0,0,1,54.24,47a35.43,35.43,0,0,1,2.81-3.33Z"/><path d="M53.09,68.53s-4.33-4.59-4.51-5-.18-1.74-.78-1.78-3.22,3.14-3.11,3.48,1.33-.41,2.63,0,3.74,2.37,4.11,2.55S53.09,68.53,53.09,68.53Z"/><path d="M53.46,72.71S50,69,47.21,69s-4.25.3-4.51,1.89,1.33.55,1.74.26A4.86,4.86,0,0,1,48,70.9a22.32,22.32,0,0,1,4.07,1.18C52.8,72.38,53.46,72.71,53.46,72.71Z"/><path d="M42.74,73.15a6.61,6.61,0,0,1,4.59-1.07c3.14.37,5.62,2,5.29,2.15s-3-.48-5.55-.59S42.74,73.08,42.74,73.15Z"/><path d="M43.7,75.15a4.4,4.4,0,0,1,2-.44,21,21,0,0,1,4.44.3c.85.33,2.4,1.11,1.85,1.15s-6.14.07-6.62-.07A12.11,12.11,0,0,1,43.7,75.15Z"/><path d="M43.81,77a12.13,12.13,0,0,0,2.74.48c1.29,0,2-.26,3-.26s2.85-.07,2.85-.07l0,.59a11,11,0,0,0-2.26,0c-.63.15-1.33.74-2,.7a16.86,16.86,0,0,1-3.4-.33A2.17,2.17,0,0,1,43.81,77Z"/><path d="M43.55,78.55a17.23,17.23,0,0,0,3.88,1.22,8.34,8.34,0,0,0,3.48-.63,12.15,12.15,0,0,0,1.29-.78l0,1a14.62,14.62,0,0,1-4.62,1.11,11.06,11.06,0,0,1-4.11-1.22Z"/><path d="M43.63,79.92s2.7,1.74,4,1.7a7.79,7.79,0,0,0,2.92-.33A7.07,7.07,0,0,1,52,80.81l0,.74a7.2,7.2,0,0,1-4.85.41,12.77,12.77,0,0,1-3.7-1.52Z"/><path d="M43.7,81.18a7.79,7.79,0,0,0,4.07,1.7,16.06,16.06,0,0,0,4.14.15l-.07,1a6.16,6.16,0,0,0-1.41.33,3.56,3.56,0,0,1-1.48.52c-.44,0-3-.37-3.55-.48A13.73,13.73,0,0,1,44,84l-.11-.59a22.6,22.6,0,0,0,3.85.81,2.83,2.83,0,0,0,1.89-.55,16.8,16.8,0,0,1-3.74-.7,9.74,9.74,0,0,1-2.22-1Z"/><path d="M44.22,85.36a9.36,9.36,0,0,1,2.22.18,6.19,6.19,0,0,0,2.85,0c.78-.22,1.52-.74,2-.81l.44-.07.11.63a7.26,7.26,0,0,0-1.66.78,13,13,0,0,1-1.92.78,2.3,2.3,0,0,1-1.63.52,10.19,10.19,0,0,1-1.81-.07c.11,0-.21-.81-.21-.81a17.92,17.92,0,0,0,2.5.18,2.12,2.12,0,0,0,1-.41S46.14,86,45.59,86a5.45,5.45,0,0,1-1.22-.18Z"/><path d="M45.07,88.76a25.39,25.39,0,0,1,3.26-1.41c.67-.11,1.48.15,2,0a5.09,5.09,0,0,0,1.18-.74l-.11,1a5,5,0,0,1-1.74.41,6.54,6.54,0,0,0-2.66.52,11.58,11.58,0,0,1-1.85.74Z"/><path d="M45.55,90.06a4.5,4.5,0,0,1,2.11-.59,2.32,2.32,0,0,0,1.7-.3c.3-.22.37-.44,1-.44s1,0,1,0l-.07.55s-.92-.18-1.22.15a1.94,1.94,0,0,1-1.7.63,3.24,3.24,0,0,0-1.7.26,7.87,7.87,0,0,1-.92.33Z"/><path d="M45.73,91.17a1.82,1.82,0,0,1,1-.41A11,11,0,0,0,48,90.61a11.58,11.58,0,0,0-1.18.85c-.26.26-.81.74-.81.74"/><path d="M46.14,92.61a6.38,6.38,0,0,0,1.41-.78c.41-.37.3-.7.89-.67a2.21,2.21,0,0,0,1.07-.22,2.24,2.24,0,0,1,.74-.37l.66,0-.07.87s-.11.15-.78.26a2.58,2.58,0,0,0-1.7.59A3.16,3.16,0,0,1,47,93a3.86,3.86,0,0,1-.63.18Z"/><path d="M46.51,93.9a3.8,3.8,0,0,0,1.18-.41A4.74,4.74,0,0,1,49,92.91a3.13,3.13,0,0,0,.89-.3c.33-.18,1-.48,1-.48l-.07.92a2,2,0,0,1-1,.55c-.52,0-.85-.18-1.07.07s-.37.55-.78.59-1.22.22-1.22.22Z"/><path d="M46.66,95.05a4.66,4.66,0,0,0,1.89-.26,14.75,14.75,0,0,0,1.52-.74,1.87,1.87,0,0,1,.67-.33l-.11.63s-.92.18-.92.48.82.72.82.72l-.08.54a7.62,7.62,0,0,0-1.7-.7c-.3,0-2.09.07-2.09.07Z"/><path d="M50.36,96.6a4.75,4.75,0,0,0-1.59-.15c-.85.07-1.29.22-1.15.22a12.37,12.37,0,0,1,1.92.33,3.89,3.89,0,0,0,.89.18Z"/><path d="M50.28,97.71s-1.52-.26-2-.26-1.44-.3-1.15.15a1.14,1.14,0,0,0,1.15.55c.41-.07.81-.18,1,0a.74.74,0,0,0,.63.3,2.5,2.5,0,0,1,.44,0Z"/><path d="M50.36,99a7.56,7.56,0,0,0-1.52-.3,4.82,4.82,0,0,0-1.26.26s1.22.11,1.74.22a3.66,3.66,0,0,1,1,.41Z"/><path d="M50.39,100.11,48.54,100l-1.29-.18a2.68,2.68,0,0,0,1.26.55A2.82,2.82,0,0,0,50.39,100.11Z"/><path d="M50.38,100.41a2.67,2.67,0,0,1-1,.45c-.44,0-1.41.22-1.41.22a9.3,9.3,0,0,0,1.89.07,2.67,2.67,0,0,0,.55-.22Z"/><path d="M50.38,101.5s-1.06.06-1.47.13-1.37-.3-1.22-.11a1.7,1.7,0,0,0,1.26.41c.67,0,.89-.07,1.07.07a3.3,3.3,0,0,0,.48.3Z"/><path d="M50.5,102.3s-1.18.3-1.63.37l-1.41.22a2.38,2.38,0,0,1,1.18.3,1.37,1.37,0,0,0,1,.37l.92.07-.15-.59s-.85.15-.92,0S50.5,102.3,50.5,102.3Z"/><path d="M50.61,104.17a.56.56,0,0,1-.77.27c-.55-.22-1.7-.7-1.74-.26s.37.18.26.78-.92.63-.48.89a3.35,3.35,0,0,0,1.11.33s-.37,1.76-.17,1.46,1.05-1,1.35-1.57a6,6,0,0,0,.48-1.22Z"/><path d="M47.63,112.79A3.44,3.44,0,0,0,48.82,111a6.79,6.79,0,0,0-2.42-1.41,12.92,12.92,0,0,0-3.17-.71,10.57,10.57,0,0,1-.35,2.1c-.2.4-1.49,1.59-.5,1.68S46.94,113.29,47.63,112.79Z"/><path d="M55.83,111.47a2.75,2.75,0,0,1-1.15-1.11c-.26-.44-.67-.55-1.41-.85a5.37,5.37,0,0,1-1.09-.65A3.62,3.62,0,0,0,51.5,110c-.4,1.19-1.49,2.18-.1,2.58s4.46,1.29,5-.1a6.34,6.34,0,0,0,.24-.85A3.64,3.64,0,0,1,55.83,111.47Z"/><path d="M57.34,107.24c.87-.61,2.21-1.61,1.9-3.33a2.79,2.79,0,0,1-.9-.14,11.58,11.58,0,0,0-2.52,0,10.43,10.43,0,0,1-1.42-.09,12.37,12.37,0,0,1-.33,2.29c.41.31.93.68,1.31.91.74.44.22,2.26.55,2.85a1,1,0,0,0,.79.46,6.41,6.41,0,0,0-.08-1A1.63,1.63,0,0,1,57.34,107.24Z"/><path d="M57.46,43.94a34.68,34.68,0,0,0-2.78,4.45c-.87,1.85-3.12,4.92-3.18,9.66s2.14,7.29,2.37,8.33.81,4,1.1,3.82,0-3.12-.87-6-.64-7.52-.4-9.37.93-5,1.5-4.74.35,1.56.17,4.57-.23,6.36.23,7.69,1,4.4,1.27,5.84A61.52,61.52,0,0,1,58,74.77a11.94,11.94,0,0,0,0,1.56l1.62.4s-.29-1.39-.69-2.89a103.94,103.94,0,0,1-1.39-17.24,105,105,0,0,1,1.62-12.44Z"/><path d="M55.43,65.8s.06,2.72.23,4.34a5,5,0,0,1-.4,3.35c-.52.93-1.2,2.2-1.2,2.2l2.29.34s.76.12.76-1.61a34.1,34.1,0,0,0-1-5.49C55.84,67.31,55.43,65.8,55.43,65.8Z"/><path d="M59.83,44.4s-1.16,11.45-.29,20.13,2.2,12.61,2.2,12.61l1.56.29a80,80,0,0,1-1.21-9.25c-.06-3.07,0-14.81.46-16.08s1.85-3.76,2.26-4.74.64-1.62.64-1.62l-2.54-.52s-.35,5.67-1.33,5.55.17-5.84.17-5.84Z"/><path d="M66.25,45.79a10.93,10.93,0,0,1-.52,3.41c-.52,1.16-1.21,1.74-1.21,5.32s.52,8.33-.06,10.12a12.78,12.78,0,0,0-.35,7.17c.75,2.54,1.56,4.45,1.56,5a4.77,4.77,0,0,0,.12,1l1.62.17a23.37,23.37,0,0,0-.93-4.8,11.77,11.77,0,0,1-.4-6.42,34.22,34.22,0,0,0,1.27-9.66c-.12-3.59.29-7.11,1-7.92s2-1.56,2.31-2.08A3.5,3.5,0,0,0,71,46L69.55,46s-.87,1.78-1.51,1.84.67-2,.67-2Z"/><path d="M71.69,46a16.58,16.58,0,0,0-1.85,5.15c-.35,2.78.17,6.71-.12,8.16S68,66,67.93,69s2.08,7.17,2,7.75a7.48,7.48,0,0,1-.64,1.74l2.53.16a4.6,4.6,0,0,0-.1-3.22,10.05,10.05,0,0,1-1-6.3c.35-2.95.58-7.52,2.49-9.49s8.27-6.54,11-9.77a19.42,19.42,0,0,0,3.26-4.71l-3.3.42a21.78,21.78,0,0,1-1.87,2.16c-1,1-2.08,2.95-3.35,4.45s-6.07,6-6.83,5.61-.75-5.15.12-7.17A34,34,0,0,1,74.87,46Z"/><path d="M75.73,46s-2.78,5.26-3,5.84-.58,3.53.23,3.93,5-4.57,6.07-6.42,2.07-3.71,2.07-3.71l-2.36.1a21.52,21.52,0,0,1-2,3.89c-.87,1.1-2.14,2.72-2.54,2.66S75,49.26,75.91,48a21.1,21.1,0,0,0,1.33-2.2Z"/><path d="M90.83,44.52S88,46.08,87.36,47.18s-1.1,4-2.14,5.49-5.67,4.4-7.46,6.48-5.32,6.25-5.09,11.28S75.1,76.27,75,76.91s-.87,1.1-.93,1.5l-.06.4,2.67.06a44.75,44.75,0,0,1-1-6.83c.06-2-.06-6.07,2.66-9a54.21,54.21,0,0,1,7.4-6.71,21.52,21.52,0,0,0,4.69-4c.87-1.27,2.66-3.59,5-4.22a23.37,23.37,0,0,1,8.68-.4,23.85,23.85,0,0,0,5.32.64,11.71,11.71,0,0,0,1.79-.23l-2-1.77s-12.31-1-14.73.32-5.21,3.53-5.73,2.95-.87-1.62,2.49-3.18,8.33-2.31,10.06-2a23.08,23.08,0,0,0,3.3.64,5.87,5.87,0,0,0,1.39-.29,26.74,26.74,0,0,0-11.09-1C90.44,44.42,90.83,44.52,90.83,44.52Z"/><path d="M113.2,50.37l-3.8-.58A39.39,39.39,0,0,0,99.35,50c-4.68.76-6,1.05-7,2.63S91,55.28,89.47,56.39a48.29,48.29,0,0,0-5.73,5c-1.64,1.69-5.79,5-5.67,9.12a16.76,16.76,0,0,0,2.51,7.71L82,78s-1.23-6.2-.47-8.12,3.57-6.66,10.11-11.34,7.31-5.49,10.93-5.84a61.37,61.37,0,0,1,7.07-.29,20.07,20.07,0,0,1,4.21.06l1.17.29Z"/><path d="M116.18,55.22s-6-.18-9.41.88-6.55,1.81-8,2.28-6.84,2.75-9.18,4.79S84.27,66.74,84,69.89a14.82,14.82,0,0,0,1.51,6.74l1.3-.59A1.68,1.68,0,0,1,86,74.16a27.2,27.2,0,0,0,.88-4c.18-1.05-.23-1.81,1.87-3.45s6-4.38,9.64-5,6-.64,7.77-1.52,4.15-2.1,5.79-2a12.48,12.48,0,0,0,3.92-.29,5.92,5.92,0,0,0,1.29-.47Z"/><path d="M115.41,62.65l.24-1.82a67.8,67.8,0,0,1-8.12,2.81,27.44,27.44,0,0,1-8.12,1.23,18,18,0,0,0-6.6,1.52c-1.05.53-3.33,1.87-4,4.27A10.62,10.62,0,0,0,88.42,75l2-1.29s-1.29-3.86,2-5a20.68,20.68,0,0,1,7.48-1.4,30.86,30.86,0,0,0,8.3-1.11c2.69-.82,4.56-1.29,5.49-2.1Z"/><path d="M91.84,72.76A8.17,8.17,0,0,1,92,70c.35-.82.35-1.23,1.81-1.81a9.31,9.31,0,0,1,2-.65s-.85,2-1.31,2.28-1.23.35-1.23,1.17a7.92,7.92,0,0,0,.24,1.72Z"/><path d="M94,73.93s.41-3.39,2.34-4.15a8.77,8.77,0,0,1,5.2-.35c2,.29,4.62.64,6.84-.35s4.09-3.86,4.91-3.57-.06,1.81-1.64,3.62-3.33,3.21-5.67,3.39-6.25-1.69-8.24-1-3.16,3.39-3.16,3.39Z"/><path d="M95.08,75.8s1.29-2.51,3.68-2.4,3.51,1.11,5.14.82,6.2-2.45,6.43-2.22-3.62,3.21-6,3.39-5.08-1-6.37-.47S96.13,77,96,77,95.08,75.8,95.08,75.8Z"/><path d="M96.61,77.71s2.15-1.51,3.09-1.33,2,1.69,3.68.94,2.86-2.1,4.09-2.22a19.72,19.72,0,0,1,2.45-.06L109,76.38s-.7-.35-1.93.53-1.81,1.75-3.51,1.81-3.39-.94-4.21-.58a2.08,2.08,0,0,0-1.05.82Z"/><polygon points="97.65 79.95 99.06 79.71 99.81 80.77 97.89 81.23 97.65 79.95"/><path d="M100.34,82.64a2.57,2.57,0,0,1,2.28-1.17c1.58.06,2.28.29,3.74-.18a7.36,7.36,0,0,0,1.93-.82l-.12-1.34a5.33,5.33,0,0,0-2.22.29,10.46,10.46,0,0,1-3.39,1.05c-1.17.06-2.75.29-2.75.29Z"/><path d="M98.59,83.28l1.75-.64.64,1a2.34,2.34,0,0,0-1.11.18,8.29,8.29,0,0,0-1.05.82Z"/><path d="M101.28,84.39A3.75,3.75,0,0,1,103.5,84c1.23.18,2.63-.41,3.62-.29a13.26,13.26,0,0,0,2.28,0l-.64-1.34a3.34,3.34,0,0,0-2.16.06,9,9,0,0,1-2.81.7l-2.81.53Z"/><path d="M102,85.79a17.68,17.68,0,0,0,4.68.06,13.13,13.13,0,0,0,3.21-1l.7,1.23a19.34,19.34,0,0,1-4.44.82l-3.74.12Z"/><path d="M103,88.07a16.73,16.73,0,0,1,2-.18c.82,0,3.45-.58,4.32-.7s1.34-1.28,1.34-1.28l.75,1.12a5.5,5.5,0,0,1-3.09,1.5c-1.81.18-5.14.18-5.14.18Z"/><path d="M101,88.66l1.4-1.64s-.12-.58-.76-.06a12.82,12.82,0,0,1-1.17.94c-.29.18-.35.35-.12.53A1.68,1.68,0,0,0,101,88.66Z"/><path d="M103.58,89.22a9.47,9.47,0,0,1-1.49.52c-.71.19-1.62.19-1.58,0s.36-.19,1.13-.48,1.56-.51,1.56-.51Z"/><path d="M104,90.58s-.29-.58-.19-.58a2.26,2.26,0,0,1,1.45-.45,4.67,4.67,0,0,0,2.52-.26,13.67,13.67,0,0,1,2.55-.81,4.91,4.91,0,0,0,1.49-.87l.48.48-1.71,1.32a3.09,3.09,0,0,1,1.2.13l.74.32-.19.73a6.68,6.68,0,0,0-2.49-.6c-.81.13-1.36.23-2.2.29s-2.1-.16-2.55,0Z"/><path d="M104.29,91.48c.16,0,2.16-.61,2.94-.26a3.42,3.42,0,0,0,1.84.36,20.58,20.58,0,0,1,2.39,0,.93.93,0,0,1,.48.36l-.23.48a9.33,9.33,0,0,0-2.16-.19,5.68,5.68,0,0,1-1.74,0,3.12,3.12,0,0,0-1.68-.23c-.78.13-1.62.36-1.62.36Z"/><path d="M104.91,93a2.24,2.24,0,0,1,1.84-.13,8.94,8.94,0,0,0,2.91.06c.81,0,2.09-.13,2.09-.13l-.24.87s-3.1-.45-3.13-.23.39.71,1.49.78a6.89,6.89,0,0,1,1.58.23l-.13.61a8.54,8.54,0,0,1-2.78-.26c-.61-.36-1.16-1-2-.9s-1.29.23-1.29.23Z"/><path d="M105.49,95.33s1.65-.81,2.36-.29.78.78,1.71.78a10.91,10.91,0,0,1,1.68.13l-.23.94a5.41,5.41,0,0,1-2-.19,5.62,5.62,0,0,0-2.1-1c-.55,0-1.31,1-1.31,1Z"/><path d="M105.81,99.14c.1,0,1-2,2-1.91s1.45.16,2.13.23a4.2,4.2,0,0,0,1,0l-.19,1.36a6.89,6.89,0,0,1-1.74-.23c-.36-.19-.94-.61-1.36-.16s-.87,1.23-1.13,1.39-.78.52-.78.52Z"/><path d="M106,102.08c.16-.1.65-1.91,1.52-2.16a12.7,12.7,0,0,1,3.2,0l-.23,1.29s-1.78,0-2-.06-.84-.26-1.07.32l-.23.58Z"/><path d="M105.75,104.37c.1,0,1.39-2,2.1-2a13.59,13.59,0,0,0,2.26-.16l.32-.06-.13,1.16a7.4,7.4,0,0,0-2.2.06c-.36.23-1.36,1.26-1.65,1.26A1.8,1.8,0,0,1,105.75,104.37Z"/><path d="M106.91,105.09a1.89,1.89,0,0,1,1.45-.84,10.59,10.59,0,0,0,1.94-.1l-.1.78s-1,.16-1.23.23a4,4,0,0,1-1.13.19A2.35,2.35,0,0,1,106.91,105.09Z"/><path d="M106.26,106.28a3,3,0,0,1,1.58-.42,13.51,13.51,0,0,1,2.23.26s.13.52,0,.52Z"/><path d="M106.2,107.57s-.16-.42.48-.48,1.16.55,1.55.55,1.81-.16,1.81-.16v.71a16.58,16.58,0,0,1-2.1-.19c-.45-.13-.87-.39-1.1-.32s-.68.26-.68.26Z"/><path d="M106.23,108.51a2.25,2.25,0,0,1,1.62.06c.68.39.55.71,1,.78a3.68,3.68,0,0,0,1.13-.1l-.13.94a6.31,6.31,0,0,1-1.32-.36c-.36-.19-1.2-1-1.55-1s-.9.13-.9.13Z"/><path d="M98.22,113.84c0-.1-2-.16-1.1-1.62s2.13-.94,2.42-1.49-.16-.61-.48-1.36a9.42,9.42,0,0,0-1.16-1.74l-.58-.36.36-.9A5.19,5.19,0,0,1,99,107.83c.58.94.94,1.52,1.32,1.42s1.16-.16,1.45.23a2.46,2.46,0,0,1,.39.74l-1.26,1.23a13.94,13.94,0,0,0-1.87,1.2A13,13,0,0,0,98.22,113.84Z"/><path d="M102.68,108.22a7.93,7.93,0,0,0-1.39-.61,7,7,0,0,1-1.45-.74s-1.42-.9-.65-.78,1.45.61,2,.65.26-.39.48-.87.65-2.29.94-2.26-.32,2.29-.32,2.65,0,.71.32.84l.29.13Z"/><path d="M99.12,102.31s.65.71,2,.1,2.23-1.39,2.65-1.45l.84-.13.1-.65a1,1,0,0,0-1.1.13c-.68.42-2.46,1.84-3.1,1.74s-1.29-.23-1.29-.23Z"/><path d="M99.9,100a5,5,0,0,0,2.42.1c.68-.36,1.62-1.71,2.16-1.81a5.77,5.77,0,0,1,.9-.1l0-.74s-.42-.23-1.23.45-1.81,1.74-2.46,1.68-1.68-.23-1.68-.23Z"/><path d="M100.38,98.27a2.57,2.57,0,0,0,1.94-.1c1-.48,1.32-1.2,2.16-1.13s1.07.1,1.07.1l-.06-.71a2.9,2.9,0,0,0-1.84.13,6.34,6.34,0,0,1-2.16,1.13c-.68.1-.81-.13-.94-.06S100.38,98.27,100.38,98.27Z"/><path d="M101,96.26a7.39,7.39,0,0,0,2.29-.55c.87-.39,1.1-.55,1.52-.52a2.22,2.22,0,0,1,.65.13l-.16-.81s-.9-.1-1.42-.19-1.91-.26-2.26-.29-.81-.13-.81-.13l.19.61a20.65,20.65,0,0,1,2.68.29c-.19.1-1.65.55-1.91.61s-.81.13-.81.13Z"/><path d="M100.9,93.29s2,.23,2.39.32,2,.25,2,.25l-.21-.55s-4-.38-4.07-.67-.58-.81.39-1.1,2.13-.52,2.1-.68-1.94.16-1.55-.06a5.58,5.58,0,0,1,1.42-.55.74.74,0,0,0,.48-.26s-.23-.23-1,0a13.48,13.48,0,0,0-1.87.87,7.25,7.25,0,0,1-.84.36Z"/><path d="M104.63,91.76a11.68,11.68,0,0,0-2.41,0c-.39.13-1.1.26-1,.42s1.29-.16,1.87-.06l1.63.26Z"/><path d="M118.88,97.93A38.46,38.46,0,0,1,120.17,90a28,28,0,0,0,0-6c-.24-.86-.46-1.68-.58-2.18-.35-1.46-2.91-5.36-3.79-6.76s.06-3.49.64-5.13a8.72,8.72,0,0,0-.06-4.66c-.23-.7-1-3.67-1-3.67s-.13,1-.26,2.13l.3-1.07s-.3,17,.2,18.33,2.18,4.36,1.19,8a43.67,43.67,0,0,0-1.09,10.4c.1,1,.4,3.07,1.29,2.48S118.68,101.5,118.88,97.93Z"/><path d="M97.29,114.57a3.89,3.89,0,0,1-1.93-1.3,3.38,3.38,0,0,0-1.92-.73,4.53,4.53,0,0,1-.53,1.53c-.4.5-1.09,1.59-.1,1.68s4.76.5,5.05-.3c.08-.21.16-.5.25-.81C97.84,114.64,97.53,114.61,97.29,114.57Z"/><path d="M106.34,114.55c-.49,0-1-.89-1.92-1.17a3.86,3.86,0,0,0-1.88,0,4.09,4.09,0,0,1-.81,1.46c-.69.5-1.29,1.29-.4,1.19s5.15,0,5.15,0a8.71,8.71,0,0,1,0-1.42C106.42,114.63,106.41,114.55,106.34,114.55Z"/><path d="M52.59,76c.17,0,1.33.68,2.08.68s1.69,0,1.69,0l-.12,1s-1-.83-1.16-.54.29.7.54.83a5,5,0,0,0,.7.25l-.08.45s-.87.08-1.12-.21-.7-1.07-1.28-1.24l-1.65-.5Z"/><path d="M52.35,77.15a7.26,7.26,0,0,1,1.78,1.32,1.58,1.58,0,0,0,1.36.74c.41,0,.79,0,.79,0v.58a2.52,2.52,0,0,1-1.61-.12c-.66-.37-1.41-1.2-1.78-1.32a1.16,1.16,0,0,1-.57-.57Z"/><path d="M52.24,79.4a14.17,14.17,0,0,0,2.18.84A10,10,0,0,0,56.2,80v.74a20.22,20.22,0,0,1-2.19.37,8.51,8.51,0,0,1-2-.31l0-.64a7.27,7.27,0,0,0,1.82.5c.17-.12-1.65-.87-1.65-.87Z"/><path d="M54.46,86.49s-2-1.07-2-1.78-.54-2.77.37-2.89,1.28-.45,1.45,1.32S54.46,86.49,54.46,86.49Z"/><path d="M56.28,81.17c0,.12-1.48.28-1.52,1.11s.58,2.19.58,2.85.08,1.69.21,1.32a9.42,9.42,0,0,0,0-2.85c-.17-.33-.5-1.12,0-1.32s.7-.29.7-.29Z"/><path d="M51.68,85c0,.21,1.09,1.9,1.88,2s1.74.17,1.32.29-2.07.83-2.31.91-1.28.58-1.28.58l.11-1.15s1.46,0,1.46-.26-1.41-.36-1.35-.78S51.68,85,51.68,85Z"/><path d="M50.9,90.6c.13-.26.79-1.75,1.57-1.83a3,3,0,0,0,1.65-.41c.45-.33,1.2-1.16,1-.58A2.69,2.69,0,0,1,54,89.09c-.41.25-1.24,0-1.74.7s-1,1.53-1,1.53Z"/><path d="M56.33,87.21a6.9,6.9,0,0,1-1.13,1.43c-.45.33-1.28,1.16-.5.83a10.31,10.31,0,0,0,1.65-1Z"/><path d="M51.57,91.78c0-.17.5-1.32,1.28-1.45s1.61,0,2.07-.21,1.24-.5,1,.08a1.52,1.52,0,0,1-1.45.83c-.54,0-1.74-.21-1.74.21s.17.79,1.16.7,2.89,0,2.56.33a3.06,3.06,0,0,1-2.11.45c-1,0-1.57-.21-1.74,0A1.72,1.72,0,0,1,52,93Z"/><path d="M52.56,94.26A1.93,1.93,0,0,1,54,93.52a14.24,14.24,0,0,0,2.36-.17,1.79,1.79,0,0,1,.62,0l.12,1a7.4,7.4,0,0,0-2.6-.21c-.66.25-1.69.5-1.69.5Z"/><path d="M53,95c.12,0,2,0,2.73,0a13.78,13.78,0,0,1,1.41.08l.12.66s-1.24-.37-1.74,0-.87,1.12-1.32,1.12a4.75,4.75,0,0,1-.7,0l-.17-.5s1.53-.45,1.32-.66a1.12,1.12,0,0,0-1-.08,1.86,1.86,0,0,1-.58.08Z"/><path d="M54.59,97.11A6.13,6.13,0,0,1,56,96.45a3.22,3.22,0,0,0,1.2-.79s.29.83.17.83a6.51,6.51,0,0,0-1.2.37A6.78,6.78,0,0,1,54.59,97.11Z"/><path d="M55.16,97.65a11.62,11.62,0,0,0,1.53-.29c.29-.12.7-.87.7-.87l.17.74a2.63,2.63,0,0,1-1.07.58A5.72,5.72,0,0,1,55.16,97.65Z"/><path d="M54.63,98.39a8.9,8.9,0,0,0,2.07,0,3.13,3.13,0,0,0,1-.66l.17.83a2.43,2.43,0,0,1-1.32.37A8.75,8.75,0,0,1,54.63,98.39Z"/><path d="M55.41,99.18a7.08,7.08,0,0,0,1.85,0c.74-.18.69,0,.69,0l.31,1.2a3.54,3.54,0,0,1-1.06.39c-.54.08-2-.08-1.9-.37s2.33-.28,1.76-.5Z"/><path d="M56.2,101.24c.12,0,1.24.41,1.61.12a1,1,0,0,0,.41-.54l.25.79a2.36,2.36,0,0,1-1.07.37c-.41,0-1,0-1.16-.21S56.2,101.24,56.2,101.24Z"/><path class="cls-5" d="M50.84,91.46s.75-5.19.85-6.84.51-6.79.65-8.14,4-.45,4-.45"/><path class="cls-5" d="M97.08,78c0,.23.55.09,1.28.94s1.15.87,1.46,1.81.53,1.87.53,1.87l.94,1.75L102.45,87s1.19,2.51,1.59,3.56a20.48,20.48,0,0,1,1.45,4.75,9.46,9.46,0,0,1-.1,2.91"/><circle class="cls-6" cx="15.51" cy="33.53" r="0.33"/></svg>