<svg id="Animals&#x52A8;&#x7269;" xmlns="http://www.w3.org/2000/svg" viewbox="0 0 128 128" width="128" height="128"><defs><style>.cls-1{fill:#242021;stroke:none;}.cls-2{fill:#ddd1c5;stroke:none;}.cls-3{fill:#404143;stroke:none;}.cls-4{fill:#231f20;stroke:none;}.cls-4,.cls-6{opacity:0.24;stroke:none;}.cls-5{fill:#9d7a5e;stroke:none;}.cls-6{fill:#4a2b25;stroke:none;}.cls-7{fill:#ddd0c4;stroke:none;}.cls-8{fill:#f0e9e1;stroke:none;}.cls-9{fill:#9f7c60;stroke:none;}.cls-10{fill:#3f4140;stroke:none;}.cls-11{fill:#fff;stroke:none;}.cls-12{fill:#222121;stroke:none;}.cls-13{fill:#997458;stroke:none;}.cls-14{fill:#e3b8b9;stroke:none;}</style></defs><title>animals&#x52A8;&#x7269;</title><path class="cls-1" d="M92.5,78c.22-3,2.26-7.16,2.48-9s-2.56.22-4.09,1.83-4.31,2.63-7.16,3.94A5.84,5.84,0,0,0,81.15,77a3.21,3.21,0,0,0-.26,2.9c.5,1.26.52,3.13.08,3.42-1.13.75-2.39-.57-4.84.19-3.74,1.15-3.83,2.74-2.48,4.1a5.2,5.2,0,0,0,2.92,1.3,3.85,3.85,0,0,1,1.26.2,4.66,4.66,0,0,0,3.15.19c1.82-.38,6.1-1.32,7.61-2.7.51-.46,2.2-2.35,4.22-4.7A12.78,12.78,0,0,1,92.5,78Z"/><path class="cls-2" d="M9.54,34.9a26.8,26.8,0,0,0,.82,13.78C12.81,56.1,16.78,59.5,17,62.83s-1,7.55-.13,10.69,2.26,5.41,1.57,8.87-.82,5.28-2.08,5.1-4.09-1.89-5.72-1.26S8.66,89.76,9.1,90s1.51.25,1.89.63a3,3,0,0,0,2.08,1h7.17s2,.06,2.26-1.57a64.93,64.93,0,0,1,3.4-9.25c1-2.08,2.14-4.47,2.45-4.28a6.65,6.65,0,0,0,2.7.88c1.2.06,2.58-.94,3-.57a14.17,14.17,0,0,1,3.46,7.74c.44,4.21-.38,7.49-2.83,7.74s-2.45-1.7-4-.75-4.09,2.33-3.9,3.52,1.51,1.38,2.33,1.38H40.24S45.9,95,47,91.58s2.2-13.78,2.2-13.78S60.94,76,69.24,76.42s15.22.57,16.61,2.14,2.26,4.09,4.65,5.85,5.79,4.21,4.65,5-2.39-.57-4.84.19S87,91.27,87,92.21a4.24,4.24,0,0,0,2.77,2.7,8.39,8.39,0,0,1,2.2.25,4.66,4.66,0,0,0,3.15.19c1.82-.38,6.1-1.32,7.61-2.7s13.52-15.41,13.71-16.73.31-9.12.63-8.56A22.39,22.39,0,0,1,117,80.45c-2.08,5.91-6,9.81-7.67,10.82s-4.4,2.14-5,3.15-1.2,2.52-1.2,2.52.38-2.45-.44-2a17.34,17.34,0,0,0-4.53,5.35,8.37,8.37,0,0,0-.06,4.47s11.07-2.45,17.49-9.25,9.81-14.41,3.27-32.65-17.88-25.4-32.08-26.55C69.68,35,61.19,41.32,53.51,43S39.8,44.4,38.67,44.15a4,4,0,0,1-2.83-3.46A46.62,46.62,0,0,1,36,34.15s-10.32-.94-13.71-.94S9.54,34.9,9.54,34.9Z"/><path class="cls-3" d="M89.81,94.91a8.39,8.39,0,0,1,2.2.25,4.66,4.66,0,0,0,3.15.19c1.82-.38,6.1-1.32,7.61-2.7,1-1,7.11-8,10.82-12.62a47.12,47.12,0,0,0,.63-4.68c.15-2.34-.22-5-2.34-5.7s-3.21,1.61-5.33,3.29-8.62,3.58-11.46,4.75c-2.4,1-2.57,6.51-2.56,8.24,1.86,1.44,3.46,2.9,2.63,3.46-1.13.75-2.39-.57-4.84.19S87,91.27,87,92.21A4.24,4.24,0,0,0,89.81,94.91Z"/><path class="cls-4" d="M84,75.29c-1.37-1.44-7.66-2.12-18.28-2a81,81,0,0,0-20.63,3.19l-.23,6.14,3.63.34c.38-2.8.63-5.11.63-5.11S60.94,76,69.24,76.42s15.22.57,16.61,2.14A8.08,8.08,0,0,0,84,75.29Z"/><path class="cls-5" d="M116.87,94.21l.47-.55a20.9,20.9,0,0,0,5.1-15.3v0q0-.55-.07-1.13,0-.29-.05-.59-.11-1.15-.31-2.39c-.21-1.32-.5-2.72-.88-4.21l-.19-.73c-.52-2-1.18-4.08-2-6.36l-.31-.84-.11-.29-.2-.52-.17-.42-.15-.38-.2-.49-.12-.3-.23-.53-.1-.24-.25-.56-.08-.19-.27-.58-.07-.15-.29-.61-.05-.11-.31-.62,0-.08-.33-.63,0-.05-.35-.64,0,0-.36-.64v0l-.38-.64h0q-.57-1-1.17-1.86c.52,1.24,1.15,2.84,1.79,4.68a52.47,52.47,0,0,1,2,11.23,11.59,11.59,0,0,1,.61,2.45c.08.49.16,1,.22,1.63s.1,1.23.12,1.9q0,.25,0,.51c0,.69,0,1.4-.09,2.13q0,.55-.13,1.1a17.59,17.59,0,0,1-.8,3.35c-.26.74-.55,1.45-.86,2.12a25.42,25.42,0,0,1-1.51,2.81,25.09,25.09,0,0,1-2.17,3c-.36.42-.71.8-1,1.14a12.11,12.11,0,0,1-2.09,1.76c-.82.5-1.92,1-2.89,1.57a5.79,5.79,0,0,0-2.08,1.57c-.29.52-.6,1.18-.84,1.69s-.36.82-.36.82h0a8.19,8.19,0,0,0,.09-1.16h0a3,3,0,0,0,0-.38,1.38,1.38,0,0,0,0-.2.66.66,0,0,0-.06-.14c-.08-.14-.21-.19-.4-.07a11.17,11.17,0,0,0-1.59,1.42,21.49,21.49,0,0,0-2,2.37c-.2.28-.38.55-.53.81a5.62,5.62,0,0,0-.38.75,4.49,4.49,0,0,0-.22.73,7.23,7.23,0,0,0-.12,1.87c0,.12,0,.23,0,.34a9.92,9.92,0,0,0,.25,1.53s11.07-2.45,17.49-9.25l.3-.32.29-.32.54-.61Z"/><path class="cls-5" d="M102.23,58.53c2.28-2.44,5.58-1.93,7-4.5a7.84,7.84,0,0,0-.22-8c-6.05-6.15-13.56-9-22.11-9.71C69.68,35,61.19,41.32,53.51,43S39.8,44.4,38.67,44.15a4,4,0,0,1-2.83-3.46v-.05c-4.69,2.64-6,10.88-6,10.88s-.19,14,2.51,15.35,12.84,6,15,6,5-2.88,6-3.91,4.44-4.9,17.1-6.85,21.16,4.48,27.15,3.11C101.26,64.32,99.22,61.75,102.23,58.53Z"/><path class="cls-1" d="M106.7,84.1c.22-3,2.26-7.16,2.48-9s-2.56.22-4.09,1.83-4.31,2.63-7.16,3.94c-2.24,1-3.39,4.81-3.78,6.38,1,.93,1.57,1.73,1,2.11-1.13.75-2.39-.57-4.84.19S87,91.27,87,92.21a4.24,4.24,0,0,0,2.77,2.7,8.39,8.39,0,0,1,2.2.25,4.66,4.66,0,0,0,3.15.19c1.82-.38,6.1-1.32,7.61-2.7.51-.46,2.2-2.35,4.22-4.7A12.78,12.78,0,0,1,106.7,84.1Z"/><path class="cls-3" d="M46.83,68.55c-.95-1.46-.07-5.26-6.21-6.35s-8,2.12-8,2.12L16.16,60.12A7.31,7.31,0,0,1,17,62.83c.25,3.33-1,7.55-.13,10.69s2.26,5.41,1.57,8.87-.82,5.28-2.08,5.1-4.09-1.89-5.72-1.26S8.66,89.76,9.1,90s1.51.25,1.89.63a3,3,0,0,0,2.08,1h7.17s2,.06,2.26-1.57a64.93,64.93,0,0,1,3.4-9.25c1-2.08,2.14-4.47,2.45-4.28a6.65,6.65,0,0,0,2.7.88c1.2.06,2.58-.94,3-.57a14.17,14.17,0,0,1,3.46,7.74c.44,4.21-.38,7.49-2.83,7.74s-2.45-1.7-4-.75-4.09,2.33-3.9,3.52,1.51,1.38,2.33,1.38H40.24S45.9,95,47,91.58s2.2-13.78,2.2-13.78-.23-3.12-.3-4.73S47.78,70,46.83,68.55Z"/><path class="cls-1" d="M28.35,76.55s-.65-.91-1.31-1.79A20.45,20.45,0,0,0,23.83,72c-1-.8-1.17-2-2.41-3.14-1-.92-3.7,1.13-4.83,2.06a10,10,0,0,0,.32,2.62c.88,3.15,2.26,5.41,1.57,8.87s-.82,5.28-2.08,5.1-4.09-1.89-5.72-1.26S8.66,89.76,9.1,90s1.51.25,1.89.63a3,3,0,0,0,2.08,1h7.17s2,.06,2.26-1.57a64.93,64.93,0,0,1,3.4-9.25C26.91,78.75,28,76.36,28.35,76.55Z"/><path class="cls-1" d="M48,79.5c-.22-2.77-1.24-3.29-1.75-3.8a9,9,0,0,1-1.46-3.5c-.44-1.68-.8-2.63-3.94-3.21s-4.31,2-4.82,3.8a21.15,21.15,0,0,1-1.94,4.07,14.17,14.17,0,0,1,3.46,7.74c.44,4.21-.38,7.49-2.83,7.74s-2.45-1.7-4-.75-4.09,2.33-3.9,3.52,1.51,1.38,2.33,1.38H40.24S45.9,95,47,91.58a60,60,0,0,0,1.4-7.44C48.23,82.47,48.09,80.68,48,79.5Z"/><path class="cls-6" d="M53.51,43c-7.67,1.64-13.71,1.45-14.85,1.2a4,4,0,0,1-2.83-3.46v-.05a10.24,10.24,0,0,0-3.76,4.21c2.31,2.6,6.63,5.41,14.19,4.26,11.58-1.76,21.49-11.5,36.62-12.93C68.34,36,60.57,41.45,53.51,43Z"/><path class="cls-7" d="M32.59,64.32c3.07-1.61,4.75-8.62,5-13.07a30,30,0,0,0-1.34-9.08,4.41,4.41,0,0,1-.45-1.47A46.62,46.62,0,0,1,36,34.15s-10.32-.94-13.71-.94S9.54,34.9,9.54,34.9a26.8,26.8,0,0,0,.82,13.78c1.95,5.89,4.84,9.25,6.08,12A8.49,8.49,0,0,1,20,62.2c3.21,2.12,2.77,4.45,5.18,5.33S29.52,65.92,32.59,64.32Z"/><path class="cls-4" d="M22.25,33.2c-3.4,0-12.71,1.7-12.71,1.7a20.71,20.71,0,0,0-.48,3.46,15,15,0,0,0,13.71,8.5C31,46.67,33.9,42.8,35.75,39c0-2.16.21-4.86.21-4.86S25.65,33.2,22.25,33.2Z"/><path class="cls-8" d="M14,21.71s-3-2.89-5.9-1.44-3.28,5.25-2,9.57,6.36,14.82,16.2,14.82S37.67,35.08,38.65,31s2.1-9.18-1.51-10.69S30.78,22,30.78,22s-2.49-2-9.11-2S14,21.71,14,21.71Z"/><path class="cls-9" d="M36.2,32.76s4.32-7,2.09-10.14-5.62-.89-6.41-.15a3.5,3.5,0,0,0-.94,1.19,20.37,20.37,0,0,1,3.38,3.93A20.92,20.92,0,0,1,36.2,32.76Z"/><path class="cls-9" d="M9.16,32.76s-4.32-7-2.09-10.14,5.62-.89,6.41-.15a3.5,3.5,0,0,1,.94,1.19,20.37,20.37,0,0,0-3.38,3.93A20.92,20.92,0,0,0,9.16,32.76Z"/><path class="cls-9" d="M30.42,21.74c-.9-.52-3.55-1.73-8.75-1.73C18,20,16,20.54,15,21c0,.36,0,.74-.06,1a10.7,10.7,0,0,1-.5,1.69s.75.1,2.09.25c1,.12,1.89,2,1.89,2H27s.85-1.87,1.89-2c1.34-.15,2.09-.25,2.09-.25a10.7,10.7,0,0,1-.5-1.69C30.43,21.91,30.42,21.83,30.42,21.74Z"/><path class="cls-10" d="M16.06,39.21s-.79-7.67,6.31-7.67S29,39,29,39s4-4.2,4-4.61-2.15-6.5-3.51-6.73-2,0-2,.38,1.1,1.63-.23,1.63S27.7,27,22.45,27s-3,2.57-4.38,2.57-.3-1.51-.94-2-1.78.11-2.42.83-2.95,4.72-2.53,5.82S16.06,39.21,16.06,39.21Z"/><ellipse class="cls-1" cx="15.61" cy="31.16" rx="1.25" ry="1.47"/><ellipse class="cls-1" cx="29.7" cy="31.16" rx="1.25" ry="1.47"/><ellipse class="cls-11" cx="29.48" cy="30.84" rx="0.4" ry="0.42"/><ellipse class="cls-11" cx="15.25" cy="30.84" rx="0.4" ry="0.42"/><path class="cls-12" d="M24.94,35.28A3.54,3.54,0,0,0,22.6,34a.23.23,0,0,0-.11,0,.24.24,0,0,0-.11,0A3.54,3.54,0,0,0,20,35.28c-.64.64-.38,2.19,0,2.15s.08-1.4,1.1-.79-.34,1.06-.38,1.51.82.91,1.7.94h.08c.88,0,1.73-.5,1.7-.94s-1.4-.91-.38-1.51.72.76,1.1.79S25.58,35.92,24.94,35.28Z"/><path class="cls-13" d="M24.94,35.28a3.33,3.33,0,0,0-2.43-1.36A3.45,3.45,0,0,0,20,35.28a1.14,1.14,0,0,0-.22.33,10.28,10.28,0,0,1,2.74-.33,7.69,7.69,0,0,1,2.67.45A1.21,1.21,0,0,0,24.94,35.28Z"/><path class="cls-14" d="M18.9,41.84c-.16-.11,1-1.42,3.51-1.42s3.78,1.25,3.66,1.34a11.94,11.94,0,0,0-3.7-.87A9.42,9.42,0,0,0,18.9,41.84Z"/><path class="cls-4" d="M110.26,97.81a63.54,63.54,0,0,1-12.34,5.46,9.93,9.93,0,0,0,.25,1.53s11.07-2.45,17.49-9.25l.3-.32.29-.32.54-.61.07-.09.47-.55a20.9,20.9,0,0,0,5.1-15.3v0q0-.55-.07-1.12,0-.29-.05-.59-.11-1.15-.31-2.39c-.21-1.32-.5-2.72-.88-4.21l-.19-.73c-.52-2-1.18-4.08-2-6.36l-.31-.84-.11-.29-.2-.52-.17-.42-.15-.38-.2-.49-.12-.3-.23-.53-.1-.24-.25-.56-.08-.19-.27-.58-.07-.15-.29-.61-.05-.11-.31-.62,0-.08-.33-.63,0-.05-.35-.64,0,0-.36-.64v0l-.37-.64h0q-.57-1-1.17-1.86s7.82,16,7.82,23.79S119.05,92.71,110.26,97.81Z"/></svg>