<svg id="Animals&#x52A8;&#x7269;" xmlns="http://www.w3.org/2000/svg" viewbox="0 0 128 128" width="128" height="128"><defs><style>.cls-1{fill:#9a8a7b;stroke:none;}.cls-2{fill:#231f20;opacity:0.24;stroke:none;}.cls-3,.cls-4{fill:#eff0f1;stroke:none;}.cls-3{stroke:#0071bc;stroke-linecap:round;stroke-linejoin:round;}.cls-10,.cls-3{stroke-width:0.31px;}.cls-5{fill:#a1a1a1;stroke:none;}.cls-6{fill:#38383a;stroke:none;}.cls-7{fill:#776c64;stroke:none;}.cls-8{fill:#7087d1;stroke:none;}.cls-9{fill:#4a5fa8;stroke:none;}.cls-10{fill:none;stroke:#196d3f;stroke-miterlimit:10;}.cls-11{fill:#6283d8;stroke:none;}.cls-12{fill:#a1a1a0;stroke:none;}.cls-13{fill:#767063;stroke:none;}.cls-14{fill:#4c5caa;stroke:none;}.cls-15{fill:#010306;stroke:none;}.cls-16{fill:#141f41;stroke:none;}.cls-17{fill:#565556;stroke:none;}.cls-18{fill:#2a3a4a;stroke:none;}.cls-19{fill:#0492f7;stroke:none;}.cls-20{fill:#a8aed5;stroke:none;}.cls-21{fill:#5a585a;stroke:none;}.cls-22{fill:#070708;stroke:none;}.cls-23{fill:#fff;stroke:none;}</style></defs><title>animals&#x52A8;&#x7269;</title><path class="cls-1" d="M77.72,72.12a42.71,42.71,0,0,1-5.09,10c-3.15,4.27-5.92,6.83-7.17,7.27s-3.83.78-3,.89-2,.84-3,1.26-1.65,1.32-1.53,1.8.08-.31.83-.2c1.14.16,3.87-1.94,6.44-1.78,2.26.14-.57,2.54-.91,3.43a2.55,2.55,0,0,0,0,2s0-.77.84-.48c.54.18.59-1.11,1.43-2.2,1.12-1.46,1.33-2.39,3.43-2.91s4.73,1.59,6.1,1.27,1.28.34,1.28.34S78.81,91.41,76,91c-7.73-1.18-3.31-6.25-2.5-7.37s7.26-8.68,7.4-9.57a16.28,16.28,0,0,0,0-2.73Z"/><path class="cls-2" d="M76.63,74.89c.52.46,1.16,1.46,0,3.15-1.68,2.46-6.78,9.14-6.56,10s1.67,1.75,1.52,2.06-2.77.05-3.68,1.09-3.06,3.79-3,4.73a3.2,3.2,0,0,1,0,.33,1.22,1.22,0,0,1,.26.06c.54.18.59-1.11,1.43-2.2,1.12-1.46,1.33-2.39,3.43-2.91s4.73,1.59,6.1,1.27,1.28.34,1.28.34S78.81,91.41,76,91c-7.73-1.18-3.31-6.25-2.5-7.37s7.26-8.68,7.4-9.57a16.28,16.28,0,0,0,0-2.73l-3.15.81S77.34,73.26,76.63,74.89Z"/><path class="cls-3" d="M48.88,19.36s3.27,8.86,7.95,13.33,9.48,9.17,12.16,12A25.68,25.68,0,0,0,75.8,50a26.63,26.63,0,0,1,9.42,8.68c3.21,4.83,9.82,13.88,12.29,17s4.34,4.83,3.67,4.59-6.95-2.85-6.95-2.85,1.4,2.54,2.34,3.84l.94,1.3S92.63,79,91,78s-3.81-2.11-3.81-2.11S91.56,84.44,94,89.28,98,98.7,100.17,102s10.22,18.72,8.62,20.21c-1,.93-3.27-2.29-3.27-2.29s-.07,1.43-.53,1.18-1.4-.93-1.4-.93-.53,1.3-3.47-.74a31.65,31.65,0,0,1-9.75-11.1c-2.54-5.08-9-19.77-9.22-19.77s-2.54-.06-6-3.6L71.66,81.4a54,54,0,0,1-27.05-5.33c-14-6.82-21.51-23.49-22.71-26.34l-1.2-2.85s-1-5.45,1.54-6.82S30.45,35,32.85,33.49,43.74,21.34,45.21,20.66A30.15,30.15,0,0,1,48.88,19.36Z"/><path class="cls-4" d="M5.93,18.43s.87-1.74,4.41-2.36,6-.93,7.08-1.74,3.87-4.65,6.41-5.39,7.48-2.36,12.56-1.55A31.08,31.08,0,0,1,48,11.79a13.16,13.16,0,0,1,2.6,2.36S46,11.48,47.28,12.41a21.59,21.59,0,0,1,3.54,3,1.73,1.73,0,0,1,.4,1.12,12.44,12.44,0,0,0-3.07-2.73c-1.4-.68-1.8-.68-.8.19a17.56,17.56,0,0,1,2.74,3.22,4.71,4.71,0,0,1,.4,1.92,5.76,5.76,0,0,0-1.87-2.79l-1.34-.93s1.54,2.67,1.6,4a2.56,2.56,0,0,1-.47,1.86s.67.81.53,1.3l-.13.5a6.25,6.25,0,0,0-2.2-1.18c-1-.19-2.47-.25-1.14.37a3.43,3.43,0,0,1,1.87,1.43c.53.68.67,1.05.13.81s-2.14-1.24-1.67-.74.67,1.36.2,1.12-1-.37-1.2.31A7.71,7.71,0,0,1,42.27,28,18.66,18.66,0,0,0,39,30.7a4.59,4.59,0,0,0-.67,1.49s-.4-.31-.27-1.3l.13-1s-.47.12-1.2,1.36a10.42,10.42,0,0,1-2.4,3c-.6.31-.33-.62-.33-.62a15.2,15.2,0,0,1-2.54,2.17,5.71,5.71,0,0,0-2.14,1.67l-.4.62a7.54,7.54,0,0,1,.67-2c.4-.62-.2-.25-.8.5a17.29,17.29,0,0,1-2.74,2.17c-.67.5-1.94.5-1.94.68s-.87.68-1.34,1.24-.73.93-.73.93.07-2-.07-1.61a14.48,14.48,0,0,0-1.14,3.78,25.19,25.19,0,0,0,0,5,19.91,19.91,0,0,0,.4,2,57.11,57.11,0,0,1-1.67-8.62c-.2-3.22-.13-4.9-.33-4.4s-1.14,2.6-1.14,2.6a5.94,5.94,0,0,1,.33-3.41,18.1,18.1,0,0,0,.8-4.77,14.11,14.11,0,0,1-1.34,2,4.31,4.31,0,0,1-.94.87s2-3.41,2.27-5.27l.27-1.86a4.55,4.55,0,0,1-.94,1.12l-.4.25s1.67-2.6.94-5.08-2.47-3.22-3.47-3.22a19.83,19.83,0,0,1-5.48-1.49A16.38,16.38,0,0,0,7,18.43,5.06,5.06,0,0,0,5.93,18.43Z"/><path class="cls-5" d="M21.23,34.23c-.07.43,1.67-4.22,1.94-4.65s-.27,3.1-.47,3.78.87-.56.94-.12,1.14-6.57,1.27-7.19,1,3.84,1.2,4.4,0-4.4-.13-4.83,2,4,2.4,4.77-.4-4-.53-4.59,2.6,2.79,3.07,3-2.47-4-3.14-4.4a21.86,21.86,0,0,1,2.47,1.24c.28.2-.72-1.23-1.56-2,.93.53,2.6,1.42,2.9,1.58.47.25-2.27-2.6-2.74-2.85s2.2.56,2,.37,1.8,1.3,1.8,1.3a5.24,5.24,0,0,0-.8-1.24c-.47-.5-1.87-1.49-2.34-1.92s.33-.62.73-.56-1.6-1.8-1.6-1.8-.2-1.74-.73-2.11,1.07-.56,1.74-.87.2-1.24-.8-.81-.53-.56-1.2.06-1.2.12-1.87-.31-.8-2.91-.6-3.41-.33,0-.94.37-.13-1.12.07-1.43-.94.93-1.4,1.3-.13-.81.2-1.24-.73.62-1.8,1.43a9.62,9.62,0,0,0-1.87,2s.19-.79.47-1.79c-1.07,1.09-2,2.15-2.47,2.54-1.07.81-3.54,1.12-7.08,1.74s-4.41,2.36-4.41,2.36a5.07,5.07,0,0,1,1.07,0,16.38,16.38,0,0,1,3.41,1.24,19.83,19.83,0,0,0,5.48,1.49c1,0,2.74.74,3.47,3.22s-.94,5.08-.94,5.08l.4-.25a4.55,4.55,0,0,0,.94-1.12L19.49,30c-.27,1.86-2.27,5.27-2.27,5.27a4.31,4.31,0,0,0,.94-.87,14.11,14.11,0,0,0,1.34-2,18.1,18.1,0,0,1-.8,4.77,5.94,5.94,0,0,0-.33,3.41s.94-2.11,1.14-2.6c0,0,1.2-3.84,1.27-4.46S21.3,33.8,21.23,34.23Z"/><path class="cls-6" d="M7,18.43a16.38,16.38,0,0,1,3.41,1.24,19.83,19.83,0,0,0,5.48,1.49,3,3,0,0,1,1.38.39h0a6.75,6.75,0,0,1,2.2-.06A11.69,11.69,0,0,1,23,23.57c.27.31-.2-1.3-.53-1.8s1.2.87,1.47,1.12.33-.93,1.27-1.24,2.47.5,3.07.81-.87-1.24-1.27-1.55,1-.06,1.34-.06S27.64,20,27,19.79s1-.31,2.27-.56A2.49,2.49,0,0,0,31,17.87a3.55,3.55,0,0,0-1.8-.62c-.8.06.13-.87.13-.87a3.68,3.68,0,0,1-1.94.56,3.24,3.24,0,0,1-2.07-1.05,9.34,9.34,0,0,1,1.47.25c.27.12-.4-1.36-.4-1.36a5.19,5.19,0,0,1,1.34,1.3c.27.56-.33-1.61-.6-2.48s.4-1.86.67-2.36-1.14.62-1.54.93.6-1.92,0-1.3A16,16,0,0,0,24.7,13c-.33.5-.33-.87-.47-1.49s-.73,1.3-1.14,2.23-1.07,1-1.34.74-.47,1.43-1,1.61-.94-.43-1.27-.31-1.4,0-1.14-.19S12.48,16.75,9.94,17a8.08,8.08,0,0,0-4,1.43A5.07,5.07,0,0,1,7,18.43Z"/><path class="cls-7" d="M42,16.13c.87,0,2.4.12,3.34-.5a2.19,2.19,0,0,0,.73-2.29C46,13,46,11.8,46,10.59l-.22-.11a6.1,6.1,0,0,1-.5,2.43c-.47.31-3.27-.74-3.27-.74s-4.21-1.8-4.81-1.86-2.14-.37-2.14-.37l-2.4-.06s-4.54,2-3.94,1.86,3.07-.5,2.67-.06-1.8,1.55-1.14,1.3,5.41-1.12,4.94-.68-2.2.74-1.6.81,4.88,0,4.14.12-2.07.62-1.6.56a15.83,15.83,0,0,1,3.41.74c-.67-.06-3.07-.25-2.47.06A23.86,23.86,0,0,0,42,16.13Z"/><path class="cls-5" d="M42,15.39a7.14,7.14,0,0,1-3.34,1.8,17.68,17.68,0,0,1-4.14.19s1.14,2.48,3.07,2S42,15.39,42,15.39Z"/><path class="cls-6" d="M21.47,50.81l0,.09Z"/><path class="cls-6" d="M34.25,33.67s-.27.93.33.62a10.42,10.42,0,0,0,2.4-3c.73-1.24,1.2-1.36,1.2-1.36l-.13,1c-.13,1,.27,1.3.27,1.3A4.59,4.59,0,0,1,39,30.7,18.66,18.66,0,0,1,42.27,28a7.71,7.71,0,0,0,2.54-2.85c.2-.68.73-.56,1.2-.31s.27-.62-.2-1.12,1.14.5,1.67.74.4-.12-.13-.81a3.43,3.43,0,0,0-1.87-1.43c-1.34-.62.13-.56,1.14-.37A6.25,6.25,0,0,1,48.81,23l.13-.5c.13-.5-.53-1.3-.53-1.3a2.56,2.56,0,0,0,.47-1.86c-.07-1.3-1.6-4-1.6-4l1.34.93a5.76,5.76,0,0,1,1.87,2.79,4.71,4.71,0,0,0-.4-1.92A17.56,17.56,0,0,0,47.34,14a2.7,2.7,0,0,1-.53-.54l-2.14,2.09a9.27,9.27,0,0,1-2.14,1.18,5.63,5.63,0,0,1-2,.31s3.67,1.3,2.54,1.3-3.94.06-3.07.06,2.4.62,1.87.62-3.41.56-2.67.68,2.2.87,1.67.81-.73-.43-.53-.06,1,1,.53.87-.8.19-.2.62,1.8.56,1.14,1.3-1.34.5-1.67,1.18a7.51,7.51,0,0,1-2.67,3.16c-1.34.68-1.87.56-1.8.93a2.48,2.48,0,0,1-.07,2c-.47,1.12-1.07,2-1,1.36s.47-2.54.13-1.86a36.3,36.3,0,0,1-1.87,3.53c.2-.62.67-2.85.2-2.17s-2,1.74-2.74,2.6a20,20,0,0,1-1.47,1.55s.4-2,0-1.43-.53,2.29-.8,1.55-.94-2.67-1.07-2,0,3.84-.27,3.22S26.3,33.24,26,34s0,2-.87,2.91a8.13,8.13,0,0,1-1.6,1.36,3.5,3.5,0,0,0,.67-2.54c-.33-1.18-.53-2-.53-2s-.8,1.92-1.54,3.22a14.37,14.37,0,0,0-1.8,4.28c-.1.57-.22,1.66-.34,2.78.42,2.82,1.29,6.14,1.45,6.73-.05-.2-.18-.75-.38-2a25.19,25.19,0,0,1,0-5,14.48,14.48,0,0,1,1.14-3.78c.13-.37.07,1.61.07,1.61s.27-.37.73-.93,1.34-1.05,1.34-1.24,1.27-.19,1.94-.68A17.28,17.28,0,0,0,29,36.65c.6-.74,1.2-1.12.8-.5a7.54,7.54,0,0,0-.67,2l.4-.62a5.71,5.71,0,0,1,2.14-1.67A15.2,15.2,0,0,0,34.25,33.67Z"/><path class="cls-6" d="M50.62,14.15A12.74,12.74,0,0,0,48.27,12l-.55.54C48.76,13.07,50.62,14.15,50.62,14.15Z"/><path class="cls-6" d="M48.15,13.78a12.44,12.44,0,0,1,3.07,2.73,1.73,1.73,0,0,0-.4-1.12,19.26,19.26,0,0,0-3.22-2.74l-.66.64A5.63,5.63,0,0,1,48.15,13.78Z"/><path class="cls-8" d="M105.52,119.9s2.27,3.22,3.27,2.29c1.6-1.49-6.48-16.92-8.62-20.21S96.37,94.11,94,89.28s-6.81-13.39-6.81-13.39S89.29,76.94,91,78s6.55,4.65,6.55,4.65l-.94-1.3c-.94-1.3-2.34-3.84-2.34-3.84s6.28,2.6,6.95,2.85-1.2-1.43-3.67-4.59-9.08-12.21-12.29-17A26.63,26.63,0,0,0,75.8,50,25.68,25.68,0,0,1,69,44.65c-2.67-2.79-7.48-7.5-12.16-12s-7.95-13.33-7.95-13.33a30.15,30.15,0,0,0-3.67,1.3c-1.47.68-10,11.34-12.36,12.83-1.19.73-3.17,2-5.18,3.28a14.74,14.74,0,0,0-.78,5.85c.44,2.85,3.8,8,3.8,8l4.39,2s-3.44-.47-2.12.07A15.42,15.42,0,0,1,37.05,55c1,.88,1.9,2.65,3.95,3.53l3.8,1.63S34.2,52.24,39,55.43s8.19,5,9.79,5.29,2.48.54,2.48.54-5.77-2.1-8.19-3.87l-2.41-1.76s3.73,1.22,5,1.56a15.51,15.51,0,0,1,3.19,1.53c-.9-.56-2.83-1.86,0-1.05l3.58,1s-2.41.41-1.75.68a25.08,25.08,0,0,0,4.24,2c2.41.81,6.94,1.49,8.77,2.17s6.65,2.78,7.67,4.07a18.73,18.73,0,0,1,3.14,6.17c.44,2-.15,2.58,1,3.66s1.61,2.37,2.41,2.85,2.34,2.51,1.46,2-1.46-.81-.37.68a31.42,31.42,0,0,1,2.63,5.09c1,2,5,10.85,6.65,14.11s3.51,6.72,4.46,7.33l1,.61a36.34,36.34,0,0,0,5.34,6.24l4.48,3.8s.94.68,1.4.93S105.52,119.9,105.52,119.9Z"/><path class="cls-9" d="M87.15,75.89l.14.07A.35.35,0,0,0,87.15,75.89Z"/><path class="cls-9" d="M92.82,109.49l1,.61a36.34,36.34,0,0,0,5.34,6.24l4.48,3.8s.94.68,1.4.93.53-1.18.53-1.18,2.27,3.22,3.27,2.29c1.6-1.49-6.48-16.92-8.62-20.21S96.37,94.11,94,89.28s-6.81-13.39-6.81-13.39c-.61.06-15.67-8.25-15.67-8.25a18.73,18.73,0,0,1,3.14,6.17c.44,2-.15,2.58,1,3.66s1.61,2.37,2.41,2.85,2.34,2.51,1.46,2-1.46-.81-.37.68a31.42,31.42,0,0,1,2.63,5.09c1,2,5,10.85,6.65,14.11S91.87,108.88,92.82,109.49Z"/><path class="cls-10" d="M87.15,75.89l.14.07A.35.35,0,0,0,87.15,75.89Z"/><path class="cls-10" d="M87.15,75.89l.14.07A.35.35,0,0,0,87.15,75.89Z"/><path class="cls-10" d="M87.15,75.89l.14.07A.35.35,0,0,0,87.15,75.89Z"/><path class="cls-11" d="M108.79,122.19c1.6-1.49-6.48-16.92-8.62-20.21S96.37,94.11,94,89.28l-1.49-3c-.73-.59-1.36-1.12-1.67-1.43-1-1-6-7.13-6.52-7.8s4,11.86,4,11.86-2.95-4.64-3.93-6.55-4.47-5.89-6.08-7.71.45,3.48-.45,1.66-1-.25-1.34-.91A20.06,20.06,0,0,0,74.39,73a8.15,8.15,0,0,1,.23.84c.44,2-.15,2.58,1,3.66s1.61,2.37,2.41,2.85,2.34,2.51,1.46,2-1.46-.81-.37.68a31.42,31.42,0,0,1,2.63,5.09c1,2,5,10.85,6.65,14.11s3.51,6.72,4.46,7.33l1,.61a36.34,36.34,0,0,0,5.34,6.24l4.48,3.8s.94.68,1.4.93.53-1.18.53-1.18S107.79,123.12,108.79,122.19Z"/><path class="cls-12" d="M67.83,77.48a23.7,23.7,0,0,1-2.32-5.81s-8,2.49-10.54,1.74-3.57-1.49-3.49-1.24S53,75,52.19,74.25A19.7,19.7,0,0,0,50,72.59s1.34,2.74.45,1.82-5-4.06-5-4.06,2.95,4,1.88,3.57-5.09-.91-8-2.74c-1.63-1-3.58-2-5-2.76a38,38,0,0,0,10.37,7.65A54,54,0,0,0,71.66,81.4S69.8,81.3,67.83,77.48Z"/><path class="cls-12" d="M38,69s-1.7-2-3.22-3.9a13,13,0,0,1-2.12-3.93,43.13,43.13,0,0,0,2.72,3.42C36.49,65.81,37,66.3,37,66.3v-.79a7.67,7.67,0,0,0,2.46,1.83,8.25,8.25,0,0,1,3.63,2.18,19.5,19.5,0,0,1,1.44,1.68s-3.42-2.87-2.83-2.28,1.71,2.33,1.12,1.78a45.9,45.9,0,0,0-4.32-3.12c.59.54,1.87,2.48,1.39,2s-3.79-3.37-3.2-2.68A13,13,0,0,1,38,69Z"/><path class="cls-12" d="M30.14,57.24a13.57,13.57,0,0,1,2.08,1.29c.53.5,1.12,1.44,1.28,1s-.32-.74.16-.4,1,2.08,1.07,1.59a8.4,8.4,0,0,0-.43-3.07c-.32-.79-1-1.78-1-1.14s0,1.49-.21,1-1.33-2.92-1.28-2.38.69,2.33.16,2.28Z"/><path class="cls-13" d="M26.83,43.46a35.35,35.35,0,0,0-.27,8,37.5,37.5,0,0,0,.64,5.1s-.05-5.5.21-7.18A10.37,10.37,0,0,1,28,47.08,52.6,52.6,0,0,0,31,52.53a18.12,18.12,0,0,0,3.74,3.57s-3-3.81-3.9-5.1S26.83,43.46,26.83,43.46Z"/><path class="cls-9" d="M72.82,48.41a1.94,1.94,0,0,0-.21-.33C72.53,48,72.62,48.13,72.82,48.41Z"/><path class="cls-9" d="M86.82,70c-.55-.73-9.71-13.41-9.24-12.9s4.82,4.32,4.34,3.81-7.69-10.48-9.11-12.5c.43.8.66,2.15.18,1.58s-5.13-6.16-4.66-5.28c.17.32-.31-.54-1.07-1.83-2.76-2.79-6.64-6.58-10.44-10.2-2.93-2.79-5.31-7.32-6.67-10.3a11,11,0,0,0,.1,2.84c.24.22.71,3.22.47,2.79s-1-1.17-.79-.51,1.11,2.79.55,2.2-1.58-1.69-1.42-1,0,1.76-.47.81-1.5-2.42-1.11-1.54.63,3,.16,2.35-1.5-2.57-1.18-1.76.08,1.25-.79.66-2.45-1.32-1.74-.66,2.69,2.57,2,2.2-4.42-.88-3.55-.59,1.34,1,.79,1-3.63.37-2.84.66.95,1.1.24,1-1.82,0-1.11.22,1.11.59.24.66a43.84,43.84,0,0,0-5.13,1.83s4.42-1.32,3.95-.88-2,1.91-1.26,1.47a18.73,18.73,0,0,1,3.71-2c1.11-.29,1.26.22,1.11-.29s-1.18-1.39-.16-1.17,2.61.66,2.05.29-.71-1.17,0-.73,1.5.59,1.18.07,0-.66,0-.66.24-.66.95,0,2.29,4.18,5.69,7.26,9.4,5.94,11,6.6,1.42,1.54,2.13,2.27-.55.22.55,1.32S87.37,70.73,86.82,70Z"/><path class="cls-14" d="M34.84,52s-3-6.53-3.24-10.82a12.58,12.58,0,0,1,2.21-7.49,19.27,19.27,0,0,0-4.23,3.82,44.75,44.75,0,0,0-2.72,4.82c0,.09,0,.18,0,.27.44,2.85,3.8,8,3.8,8l4.39,2s-3.44-.47-2.12.07a23.74,23.74,0,0,1,2.92,1.4C35.38,53,34.84,52,34.84,52Z"/><path class="cls-12" d="M63.74,64.12c-.07.33.92,1.44.21,1a12.21,12.21,0,0,0-2.9-.85,18.9,18.9,0,0,1,2.83,1.77s-3.68-1-3-.72A35.36,35.36,0,0,1,65.72,70c.78,1,2.26,5.38,1.84,3.94s-1.77-4.79-.78-3.67,3.11,4.66,2.76,3.54-1.56-3.35-.21-2S76.25,81.7,76,80.65s-4.31-9.32-3.75-8.59,2.26,2.3,1.84,1.77A7.82,7.82,0,0,1,73.21,72l1.41-.59S71.3,65.3,68,64.19,63.74,64.12,63.74,64.12Z"/><path class="cls-15" d="M82,73.34l-3.16-1.69c-.53.19-1.13.47-1.16.8A8.38,8.38,0,0,0,77.78,74s.75-1.44,1.77-1a4.11,4.11,0,0,0,2.36.45C82,73.43,82,73.4,82,73.34Z"/><path class="cls-15" d="M83.74,74.26a12.77,12.77,0,0,1,1,1.92c.27.85.37,1.64.8,1.44s1.18.4,1.34.25,1.12.89,1.29.5a1.44,1.44,0,0,0,0-.5l-1-2A24.81,24.81,0,0,1,83.74,74.26Z"/><path class="cls-15" d="M83.74,77.44S83.34,76,83.1,76s-.68-.3-.8-.22-.92-.22-1.08-.11-.68-.19-.8,0-.6-.07-.76.07-.92.11-.92.11-.64-.11-.68.15.36,2.75.56,2.45.4-.59.56-.82.36,0,.56-.22.76-.07.76-.07a3.57,3.57,0,0,0,1.2.07c.32-.11.56.15.92,0A3,3,0,0,1,83.74,77.44Z"/><path class="cls-15" d="M85.18,81.78s-.08-1.23-.68-1.63-.8-.48-1.12-.26-.64-.22-1,0-.72-.07-1,0a4.22,4.22,0,0,1-.92-.11s-.4-.48-.68-.19.2,1.6.24,2,0,1.63.28,1.41.68-.26.76-.48.08-.93.16-.71.4.45.6.3.56,0,.72-.15.6,0,.84-.11,1,.07,1.12,0S85.18,81.78,85.18,81.78Z"/><path class="cls-15" d="M87.38,87s-.64-2.34-.88-2.16-1,0-1.16.19-1,.15-1,.15-.6-.22-.8,0-.64-.52-.76-.15-.68-.71-.76-.33.84,4.76,1.2,4.5.2-.56.4-.89-.08-.74.24-.89.24-.26.72-.37.76.11,1.08,0,.6.63.88.41A3.48,3.48,0,0,1,87.38,87Z"/><path class="cls-15" d="M90,92.93s-1.24-2.42-1.36-2.27-.84.26-1,.41a3,3,0,0,1-.84.26s-.88-.67-1-.41-.28.63-.44.48-.32-.48-.6-.33.36,2.79.68,2.71.32-.56.64-.26.6.89.8.71.36-.78.56-.63.4,0,.56-.19.4-.15.8-.45S90,92.93,90,92.93Z"/><path class="cls-15" d="M92.54,98.58c0-.11-1.2-2.45-1.44-2.3s-.48.52-.76.41-.64-.33-.88-.07-.6,0-.84.15-.68-.67-.84-.41-.64.33-.68.48.8,2.27,1.08,2.12.88.15,1.08,0,.76,0,.76,0,1-.07,1.2-.3.12-.56.4-.33A2.34,2.34,0,0,0,92.54,98.58Z"/><path class="cls-15" d="M95.87,104.53s-.76-1.9-1-1.71-.72.07-.88.19a4,4,0,0,1-1.08.19c-.32,0-.08-.63-.52-.56s-1.12,0-1.2.19-1.28-.93-1.48-.82-.52,0-.28.63,1.28,2.27,1.64,2.27.88-.59.92-.48.52.48.8.37.88.22,1.24,0,.8.07,1.12,0Z"/><path class="cls-15" d="M100.51,112.37s-2.36-3.46-2.56-3.31c0,0,0,.74-.28.63a12.21,12.21,0,0,0-1.24-.3l-1.08-.07-1.28,0c-.2,0-.72-.22-.44.19s1.32,2.49,1.68,2.34.8-.11,1-.33.52.22.8.07.76-.48,1-.22.24.59.8.48.88.63,1.12.63A1.87,1.87,0,0,0,100.51,112.37Z"/><path class="cls-15" d="M97.35,105.9c-.12.19.52,2.45.84,2.42s1,.3,1.32.22.52.22,1.12.22a2.2,2.2,0,0,1,1.44.33c.24.26.88,1.41.88,1a3.58,3.58,0,0,0-1.6-2.19,13.25,13.25,0,0,1-2.08-.93,5,5,0,0,0-1.24-.52A2,2,0,0,1,97.35,105.9Z"/><path class="cls-15" d="M95,102.44s-1.84-2.9-1.44-3.08.64.71.92.74.84,0,1,.26.36-.22.72.07a6.88,6.88,0,0,0,1.68,1,4.64,4.64,0,0,1,2,1.11c.48.59,1.8,2.19,1.52,2.27s-1.44-1.6-3-2a7.58,7.58,0,0,0-2.56-.59A6.58,6.58,0,0,1,95,102.44Z"/><path class="cls-15" d="M91.14,92.86s1.12,2.53,1.32,2.86a1.65,1.65,0,0,0,1.12.71c.48.07.72-.07.88.11s.24.3.56.26.2.33.68.41.48.52,1,.41,1.12,1,1.16.85a2.45,2.45,0,0,0-1.2-1.52c-.84-.48-1.52-1.37-2.16-1.71s-1.48-.74-1.64-.82a7.53,7.53,0,0,1-.76-.74C91.78,93.42,91.14,92.86,91.14,92.86Z"/><path class="cls-15" d="M95.31,93.38A8.24,8.24,0,0,0,92.74,90c-1.92-1.52-2.28-2.42-2.64-2.27S89,86.47,88.86,86.62a8.74,8.74,0,0,0,1.2,2.79c.28.19,1,.93,1.24.89s.72.45,1.16.52A2.75,2.75,0,0,1,94.11,92C94.71,92.75,95.31,93.38,95.31,93.38Z"/><path class="cls-15" d="M92.86,87.4a11.48,11.48,0,0,0-2.07-2.53C89.54,83.75,87.66,82.68,88,83a13.68,13.68,0,0,0,1.68,2c.44.26,1.64,1.3,2,1.49A7.06,7.06,0,0,1,92.86,87.4Z"/><path class="cls-15" d="M88.34,80.71s.12,1.45-.4,1.45-.72-.22-1-.22-.52-.63-.72-1-1-1.78-.68-1.71,1.32,1.82,1.92,2S88.34,80.71,88.34,80.71Z"/><path class="cls-16" d="M35.94,42.58a2.45,2.45,0,0,1,1.63-.72,7.79,7.79,0,0,0,1.69.21c.29-.11.86-.69,1.63-.66s2,.21,2,.21l1.49-.53a18.63,18.63,0,0,0,2.4.45,3.45,3.45,0,0,1,1.86.16c.92.35,1.72,1.46,1,1.06A5,5,0,0,0,47.61,42c-.63,0-1.09.19-1.34.11a2.59,2.59,0,0,0-1.63-.45,4.42,4.42,0,0,0-1.69.61A5.11,5.11,0,0,0,40.86,42c-.77.16-.89.56-1.26.61s-1.43-.42-2.17-.32S35.94,42.58,35.94,42.58Z"/><path class="cls-16" d="M42.26,44.36a1.49,1.49,0,0,1,1.46-.11c.83.37,1.14.74,1.43.56a1.5,1.5,0,0,1,1.14-.48,8.1,8.1,0,0,1,1.43,0,.7.7,0,0,1,.54-.8,2.55,2.55,0,0,1,1.32,0A5.14,5.14,0,0,1,51,42.66a3.22,3.22,0,0,1,1.34,0,1.47,1.47,0,0,1,.92-.37,1,1,0,0,1,.86.37s.57-.4,1-.24a3.35,3.35,0,0,0,1.46.35c.49-.05,1.63-.05,1,.19a4.94,4.94,0,0,1-2.17.19,1.22,1.22,0,0,0-.92,0c-.23.13-1.14-.29-1.52-.11a3.38,3.38,0,0,0-.69.48A1.17,1.17,0,0,0,51,43.35a2.35,2.35,0,0,0-1.09.85,1.68,1.68,0,0,0-1.32-.11c-.51.29-.46.88-.54.88a3.73,3.73,0,0,0-1.66-.13c-.49.21-1.06.53-1.06.53a8.09,8.09,0,0,0-1.89-.88A7,7,0,0,0,42.26,44.36Z"/><path class="cls-16" d="M46.78,49.06a1.46,1.46,0,0,1,.92-2.36c2.09-.56,2,.74,2,.74a2.61,2.61,0,0,1,.8-.45,4.07,4.07,0,0,1,.83-.16,1,1,0,0,1,.8-.85,2.7,2.7,0,0,1,1.26-.13l.77-.69,1.46.32.72-.56,1.52,0s0-.58.72-.48,1.23.35,1.37.29,2.12-.85,1.74-.37-.69,1-1.32,1-1.37-.32-1.72-.19-.26.74-.83.74-1.12-.56-1.63-.05-.77.72-1.14.5-1-.4-1.17-.05-.8.4-.8.4a.57.57,0,0,0-.74.19c-.37.42-.31,1-.66.88s-.51-.42-.94-.05-.6,1-1.06.58-1-1.41-1.8-.93A3.26,3.26,0,0,0,46.78,49.06Z"/><path class="cls-16" d="M53.08,49.8a1.47,1.47,0,0,1,1.17-.8c.77,0,1.12.4,1.4.32s-.06-.77,1.17-.48,2.43,1.12,3.26.8,1-.93,1.72-.82,1.6,1.17,1.95.82.37-.66.8-.5,1.34.5,1.8.13.74-.72,1.23-.56,1.34.66.74.64a1.84,1.84,0,0,0-1.34.29,2,2,0,0,1-1.06.42,3.82,3.82,0,0,1-1.37-.32l-.92.48s-1.49-1-2-.72-.89.8-1.63.82a19.64,19.64,0,0,1-3.49-.93s-.49.8-1,.61-.92-.5-1.29-.4A9.31,9.31,0,0,1,53.08,49.8Z"/><path class="cls-16" d="M71.36,60,66,52.16a3.27,3.27,0,0,1,1.93.33,3.22,3.22,0,0,1,1.68,1.18,2.42,2.42,0,0,1,2.49.28A10.75,10.75,0,0,1,75,56.79a10.3,10.3,0,0,1,2.49,1c1.17.71,2,3.11,1.63,2.69S77.92,58.44,76.5,58a15.89,15.89,0,0,0-2-.57,6,6,0,0,0-2.29-2.78,3.48,3.48,0,0,0-2.64-.14,7.16,7.16,0,0,0-1.78-1.32l-.92-.42Z"/><path class="cls-16" d="M69.78,54.9a65.44,65.44,0,0,1,4,5.85c1.32,2.22,1.93,3.49,1.93,3.49a61.11,61.11,0,0,0-3.61-7C70.55,55,69.78,54.9,69.78,54.9Z"/><path class="cls-16" d="M74.77,57.78c.05.19,2.59,4.44,3.46,6.14s2.39,4,2.39,4S69.68,59,62.21,54.43s-10.93-5.1-10.53-4.72,8,3.59,11.49,6.09S82.24,69.91,82,69.43,74.77,57.78,74.77,57.78Z"/><path class="cls-16" d="M78.12,63.52c-.17-.08,5.47,6.29,6.35,6.18s1-1.17,1-1.17a.89.89,0,0,1-.84.6C83.94,69.17,78.2,63.56,78.12,63.52Z"/><path class="cls-8" d="M49.73,31.09c0,.26,0,1.78,0,1.78s-3.28-2.3-2.53-1,4.59,5.82,4.59,5.82Z"/><path class="cls-8" d="M50.9,30.88c0,.26,2.85,4.39,2.85,4.39a27.66,27.66,0,0,0-1.59-3.43A3.67,3.67,0,0,0,50.9,30.88Z"/><path class="cls-8" d="M54.83,32.7s3.42,4.52,4.59,5.34,3.84,2.52,3.46,2.08-2.76-2.39-4.73-4.34S54.83,32.7,54.83,32.7Z"/><path class="cls-16" d="M52.82,47.64a2,2,0,0,0,1.45.13l.66-.26A2.48,2.48,0,0,0,56.7,48c.84-.22,1.17-1.3,1.82-1.3s1.82,1,2.43.91,1.4-1,1.4-1,.75.61,1.36.39,1.45.39,2,.22.33-.17-.47-.48A10.48,10.48,0,0,1,63.81,46s.33.52-.23.56a2.62,2.62,0,0,1-1.31-.48,2.44,2.44,0,0,1-1.26,1c-.75.17-1.78-1.17-2.53-1s-1.22,1.48-1.87,1.52-1.5-.78-1.92-.65-.23.56-.84.48A1.85,1.85,0,0,0,52.82,47.64Z"/><path class="cls-17" d="M58.76,39.13a14.36,14.36,0,0,0,3.37,3.26c1.5.78,3.65,1.65,3.37,1.39a30.82,30.82,0,0,1-3.84-2.3C60.26,40.3,58.76,39.13,58.76,39.13Z"/><path class="cls-17" d="M64.79,44.43A8.72,8.72,0,0,1,67,45.73c.89.78,1.68,1.52,1.5,1.09S66.81,44.47,66,44.3A1.58,1.58,0,0,0,64.79,44.43Z"/><path class="cls-17" d="M66.76,48l1.5.83.66-.48s1.36,1.09,1.87,1.09,0-.22-.94-1l-.94-.78s-.23.61-.7.65A5,5,0,0,1,66.76,48Z"/><path class="cls-18" d="M39,18.05a4,4,0,0,1-2.4-.25c-1.14-.56-2.6-1.61-4-1.36a4.19,4.19,0,0,0-3.07,2.23c-.53,1.12.8,2.85,3,2.42S36,19,36.66,19a6.63,6.63,0,0,0,1.8-.31A1.1,1.1,0,0,0,39,18.05Z"/><path class="cls-19" d="M47.28,12.41c-1.27-.93,3.34,1.74,3.34,1.74A13.16,13.16,0,0,0,48,11.79a29.74,29.74,0,0,0-8.58-3.74c1.42.67,4.74,2.51,4.37,2.56s.47.68,1,1.12S41.73,11,41.73,11s0-.37.6-.81-3.27-.19-3.94-.12,1.27-.62,1.27-.62-3.61-.06-4.61-.06.07-.56.53-.74-1.6-.06-2.27.06-.07-.5.33-.68-2,.12-4.14.62a5.53,5.53,0,0,0-3.07,1.74,7.93,7.93,0,0,0,2.27-.93c1.47-.81,3.27-.62,3.74-.81s-.73.68-1.4.93,1.28,0,2.25-.09c-.58.13-1.43.35-1.79.46-.6.19,1.4.12,1.87,0s1.34.25,1.2.5,1-.06,1.74.31,1.54.25,1.27.56,1.2.19,1.2.19,2.47.56,2,1.05.73,1.05,1.6,1.24.94.68,1.34,1,2.14-.56,2.4-.74,1.14,1.3,1.14,1.3l1.34.93a5.76,5.76,0,0,1,1.87,2.79,4.71,4.71,0,0,0-.4-1.92A17.56,17.56,0,0,0,47.34,14c-1-.87-.6-.87.8-.19a12.44,12.44,0,0,1,3.07,2.73,1.73,1.73,0,0,0-.4-1.12A21.59,21.59,0,0,0,47.28,12.41Z"/><path class="cls-20" d="M58.88,60a17.9,17.9,0,0,1-2.33.26,17.07,17.07,0,0,1-3.91-.52s.84-.09,2.14-.26a8.17,8.17,0,0,0,2.89-1.3,6.62,6.62,0,0,1-2.7.17,58.38,58.38,0,0,1-6.33-1.47,9.84,9.84,0,0,0,2.24-1c.68-.47-2.9.35-3.53.5a4.75,4.75,0,0,0,1-.41,12,12,0,0,0,2-1.82,13.28,13.28,0,0,1-2.79,1,29.14,29.14,0,0,1-4.1.43s1.3-.43,2.42-1a12.6,12.6,0,0,0,2.52-1.82s-1.21-.17-2.79-.43a9.67,9.67,0,0,1-4.38-2.51c-.56-.69-.28,2.85-.28,2.85L40,52.24a27.51,27.51,0,0,0-4.47-1.9c-2-.69-4-1.12-4.75-1.56s-.05,1.84-.05,1.84l4.39,2s-3.44-.47-2.12.07A15.42,15.42,0,0,1,37.05,55c1,.88,1.9,2.65,3.95,3.53l3.8,1.63S34.2,52.24,39,55.43s8.19,5,9.79,5.29,2.48.54,2.48.54-5.77-2.1-8.19-3.87l-2.41-1.76s3.73,1.22,5,1.56a15.51,15.51,0,0,1,3.19,1.53c-.9-.56-2.83-1.86,0-1.05l3.58,1s-2.41.41-1.75.68a25.08,25.08,0,0,0,4.24,2,39.08,39.08,0,0,0,3.86,1l.83-.54a23.38,23.38,0,0,0-2.89-.69C55.62,61,58.88,60,58.88,60Z"/><path class="cls-21" d="M94.23,77.5l4,1.65c-1.67-1.47-3.73-3.28-4.87-4.3-2.14-1.92-6.82-9.31-7.2-9.81s-3.68-4.91-4.67-5.9-5.21-6-5.67-6.47,3.37,5.4,3.91,6.19,3.52,3.27,5.59,7.25S94.23,77.5,94.23,77.5Z"/><path class="cls-22" d="M94.23,77.5l5,2.05a73.55,73.55,0,0,1-7.84-6.14,26.6,26.6,0,0,1-4.54-5.07c-.4-.6.72,2.68,2.69,4.66S94.23,77.5,94.23,77.5Z"/><path class="cls-1" d="M57,71.53a45.29,45.29,0,0,1-7,10c-4.09,4.17-7.56,6.56-9,6.89s-4.44.39-3.5.6-2.4.65-3.55,1-2,1.21-2,1.73.13-.31,1-.12c1.27.3,4.63-1.61,7.51-1.15,2.55.41-1,2.63-1.45,3.53a2.56,2.56,0,0,0-.25,2.08s.07-.82,1-.41c.59.26.81-1.11,1.89-2.17,1.45-1.42,1.81-2.39,4.25-2.69s5.17,2.23,6.76,2,1.4.5,1.4.5,1.79-1.26-1.38-2c-8.62-2.14-3-7-1.93-8.1s9.3-8.37,9.57-9.3A16.3,16.3,0,0,0,60.7,71Z"/><path class="cls-2" d="M55.46,74.34c.53.55,1.14,1.69-.37,3.34-2.2,2.41-8.81,8.92-8.66,9.81s1.68,2,1.47,2.36-3.15-.26-4.3.73-3.93,3.67-4,4.67a3.22,3.22,0,0,1-.06.35,1.45,1.45,0,0,1,.29.1c.59.26.81-1.11,1.89-2.17,1.45-1.42,1.81-2.39,4.25-2.69s5.17,2.23,6.76,2,1.4.5,1.4.5,1.79-1.26-1.38-2c-8.62-2.14-3-7-1.93-8.1s9.3-8.37,9.57-9.3A16.3,16.3,0,0,0,60.7,71L57,71.53S56.46,72.68,55.46,74.34Z"/><path class="cls-12" d="M39.48,63.73s5.12,2.33,4.64,1.93S38.79,60.61,39.48,61a16.66,16.66,0,0,0,4.7,1.24c1.76.15,4-.1,2.62.3s-3.26.3-2.78.59,3.68,1.59,5.66,2.38,2.78,1.73,2.24,1.59-3-.64-2.24-.2,2.19,1.44,2.78,1.68l.59.25s-.91-2.48-.48-1.83a5.74,5.74,0,0,0,4.27,2.43c2.67.35-1.12-1.49.05-1.14S59.66,70.86,60.3,71s.91-1.09,1.07-.3.59,3.37.05,3-2.4-2.23-2-1.73a10.27,10.27,0,0,1,.85,1.68S56.46,71.41,57,71.9s1.93,2.25,1.34,1.9-2-1.11-1.71-.66a11.52,11.52,0,0,1,.63,2L55,73.42l.91,2.2s-3.58-3.12-3.2-2.68,1.55,4.81.8,3.62S52.13,72.4,48,69.42,39.48,63.73,39.48,63.73Z"/><ellipse cx="32.91" cy="18.6" rx="1.99" ry="1.85"/><path d="M34.88,18.84a1.7,1.7,0,0,0,0-.24,2,2,0,0,0-4,0,1.68,1.68,0,0,0,0,.17,2.72,2.72,0,0,0,1.89.56A5,5,0,0,0,34.88,18.84Z"/><ellipse class="cls-23" cx="33.43" cy="17.81" rx="0.55" ry="0.59"/><ellipse class="cls-23" cx="31.94" cy="17.87" rx="0.28" ry="0.3"/></svg>