<svg id="Animals&#x52A8;&#x7269;" xmlns="http://www.w3.org/2000/svg" viewbox="0 0 128 128" width="128" height="128"><defs><style>.cls-1{fill:#684927;stroke:none;}.cls-2{fill:#8c6239;stroke:none;}.cls-3{fill:#f2b92e;stroke:none;}.cls-4{fill:#fcee21;stroke:none;}.cls-5{fill:#060707;stroke:none;}.cls-6{fill:#616262;stroke:none;}.cls-7{fill:#383a3a;stroke:none;}.cls-8{fill:#e26a25;stroke:none;}.cls-9{fill:#b6551a;stroke:none;}.cls-10{fill:#f7f29a;stroke:none;}.cls-11{fill:#fccc21;stroke:none;}.cls-12{fill:#fff;stroke:none;}</style></defs><title>animals&#x52A8;&#x7269;</title><path class="cls-1" d="M63.91,88.18a1.83,1.83,0,0,1,0,1.25,34.44,34.44,0,0,1-1.85,4.7c-.41.41-.68,1.65-1.17,1.89a4,4,0,0,1-1.88.59c-.7,0-.77-.32-1.46-.19s-1.25.05-1.66.39l-.41.34s.56-.44,1-.25.19.41.86.42a9.09,9.09,0,0,1,1.47.18,20.45,20.45,0,0,1-2.21.5,4.81,4.81,0,0,0-1.88.44c-.54.31-.61.62-.61.62a1.92,1.92,0,0,1,.77-.37l.33,0s-.24.42.58.41a14.52,14.52,0,0,0,3.37-.76,8.78,8.78,0,0,1,1-.36s-.92,1.47-1.33,1.62a2.49,2.49,0,0,0-1.15,1.27l-.14.47s.55-1,.78-.84a1,1,0,0,0,1.37-.26c.61-.62,2.25-3,2.52-3a1.7,1.7,0,0,0,1.11-.77c.21-.44.28-.94.45-.78s.72.83,1,.77.57-.43.6-.15a2.09,2.09,0,0,1,0,.5.89.89,0,0,0,0-1.17c-.53-.54-1.68-1.38-1.64-1.85s.82-1.47,1-2.06A19.92,19.92,0,0,1,65.84,89c.41-.88-.66-3.22-.66-3.22l-2.08.28Z"/><path class="cls-2" d="M58.17,90.08a2.12,2.12,0,0,1-.44,1.29,39.22,39.22,0,0,1-3.54,4.22c-.55.28-1.28,1.47-1.83,1.54a3.94,3.94,0,0,1-2.05,0c-.66-.29-.63-.6-1.35-.71s-1.23-.38-1.76-.17l-.52.21s.71-.26,1.06.09,0,.49.68.73a8.88,8.88,0,0,1,1.36.69,20.15,20.15,0,0,1-2.34-.25,4.75,4.75,0,0,0-2-.19,1.25,1.25,0,0,0-.82.43,2,2,0,0,1,.89-.11l.34.09s-.39.35.41.62a14.31,14.31,0,0,0,3.56.38,8.76,8.76,0,0,1,1.08,0s-1.44,1.19-1.89,1.21a2.68,2.68,0,0,0-1.6.92l-.31.44s.89-.81,1.07-.6a1,1,0,0,0,1.44.2c.82-.43,3.31-2.34,3.58-2.28a1.76,1.76,0,0,0,1.37-.41c.36-.38.62-.87.72-.65s.4,1.11.71,1.15.72-.25.64.06a2.43,2.43,0,0,1-.19.52,1,1,0,0,0,.41-1.21c-.31-.74-1.13-2-.92-2.48s1.34-1.23,1.7-1.8a22.62,22.62,0,0,1,2.1-2.35c.73-.76.55-3.56.55-3.56l-2.13-.43Z"/><path class="cls-3" d="M72,79.53S67.12,87.76,65.1,88c-2.3.26-4.74-1.74-4.74-1.74s1.52-7.3,5.11-7.88A10.57,10.57,0,0,1,72,79.53Z"/><path class="cls-4" d="M58.76,89.14c-1.91-.57-3.37-6.2-4.33-7.21a67.57,67.57,0,0,1-17.35-5.18c-6.4-3.1-8.16-7.23-11.25-12.49s-2.89-10.84-3.1-11.67-.93-3.41-2.27-4.65A30,30,0,0,1,17,43.29s-3.41-5.16-2.37-5.89,1-2.79,2.68-3.92a17.57,17.57,0,0,1,10.53-3.2c10.58.42,14,11,16,12.8S54.62,48,67.22,53,95,66.63,100.37,68.9s23.44,5.78,23.44,5.78.62,1.24-.62,1.55-14-2.37-14-2.37,9.6,2.89,11.56,3.82,1.55,2.27,1.14,2.68-18.39-5.16-30.16-6.3c-10.84-1-18,6-25.44,7.89a24.53,24.53,0,0,1-2.78,4.24C61.72,88.05,60,89.51,58.76,89.14Z"/><path class="cls-5" d="M123.88,74.87a.34.34,0,0,0-.26-.22c-1.57-.31-13-2.57-19.74-4.55h0c-1.05-.31-2-.61-2.77-.9l-.07,0-.28-.11-.08,0-.32-.13-.51-.22-.15-.07-.41-.19-.2-.09-.41-.19L98.46,68,98,67.82l-.24-.12-.48-.24-.23-.11-.56-.28L96.33,67l-.72-.36-.06,0C88.46,63,77.06,56.87,67.22,53l-.87-.34a.34.34,0,0,0-.46.39,1,1,0,0,1-.32,1.07,3.24,3.24,0,0,1-1.28.31.34.34,0,0,0-.13.65c1,.5,1.9,1.22.69,1.86-2.17,1.16-11.88.67-15.92,2.66-12.44,6.13-15.43,2.81-16.62,2.15-.24-.13-.48.21-.38.46,1,2.48,6.88,12,40.16,10.21,14.52-.79,49.34,8.36,49.76,7.95s.83-1.76-1.14-2.68c-.84-.4-3.07-1.15-5.35-1.89a.34.34,0,0,1,.17-.66c3.41.64,7,1.26,7.66,1.1A1,1,0,0,0,123.88,74.87Z"/><path class="cls-5" d="M25.51,30.37a18.15,18.15,0,0,0-8.16,3.11c-1.58,1.08-1.66,2.91-2.49,3.8l1,2.85.86-.92s.8-1.84,1.47-2a6.2,6.2,0,0,0,2.88-2.2c.37-.8-.18-2.51,2-3.37A17.53,17.53,0,0,0,25.51,30.37Z"/><path class="cls-6" d="M66.25,55.71s1.66,1.37.58,1.66-1.94,2.38-2.88,2.38-1.87,1.15-3,1.15-2.88,1.51-4,1.44-2.59,1.3-3.17,1.08-2.52.65-3.17.43-.86,1.22-1.94.65,1.8,1.37,2.45.79,1.51,0,2.38-.58,1.66,0,2.59-.65,1.87.5,3.17-.5,1.94-.29,2.74-1.3,1.87.22,2.74-.94,1.94-.14,2.3-1.3,1.44-.58,1.44-1.58.79-1.22.5-1.87S66.25,55.71,66.25,55.71Z"/><path class="cls-7" d="M69.06,55.13c.86.58-.14,1.44-.14,1.44s.86-.14,1.08-.79-.22-.94-.65-1.37a.91.91,0,0,1-.19-.63L67.22,53l-1.51-.59a10.29,10.29,0,0,0,2,1.28C68.55,54,68.19,54.56,69.06,55.13Z"/><path class="cls-7" d="M76.47,61.47c.06.06.1,0,.13,0S76.42,61.42,76.47,61.47Z"/><path class="cls-7" d="M79.35,58.88a9.61,9.61,0,0,0-1.1-1l-2.8-1.32c1.49,1.15,3.45,2.73,3.17,2.83-.43.14.07.79-.29.79s-1,.72-1.37.65-.29.42-.37.6c.39,0,1.44.3,1.38,0s.5-.14.58-.5.65-.36.58-.79S80.14,59.81,79.35,58.88Z"/><path class="cls-7" d="M80.65,63.53a.39.39,0,0,0,.36.09C80.7,63.5,80.53,63.45,80.65,63.53Z"/><path class="cls-7" d="M89.17,64.12c-.5-.4-1.5-1.08-2.68-1.85L79.3,58.58C83,60.91,87.84,64,87.08,63.85c-1.21-.29,0,.71-1,.38s-2.93-.36-3.88-.75c-.69-.28-.91.06-1.18.14,1,.4,3.8,1.59,3.74,1.27s1.4.35,1.7.13,1.85.31,1.78-.11S91,65.62,89.17,64.12Z"/><path class="cls-7" d="M90.12,67.05a.29.29,0,0,0,.26.06C90.15,67,90,67,90.12,67.05Z"/><path class="cls-7" d="M96.16,67.51c-.36-.28-1.07-.76-1.91-1.29l-5.12-2.6c2.63,1.64,6.1,3.83,5.56,3.7-.86-.21,0,.49-.71.25s-2.08-.27-2.76-.55c-.49-.2-.65,0-.84.09.75.28,2.71,1.13,2.66.9s1,.25,1.21.1,1.32.23,1.26-.06S97.5,68.57,96.16,67.51Z"/><path class="cls-6" d="M76.6,61.42s5.13,2.2,4.41,2.28-.43.86-1,.79-.14.72-.72.58-.72.72-1.15.58.22.65-1.87-.22a13.32,13.32,0,0,0-4.82-1c-1.22-.07-1.37-.43,0-.5s1.44-.65,2.16-.58,0-.79.86-.79.43-.5,1.08-.5S76.51,61,76.6,61.42Z"/><path class="cls-8" d="M17.84,40.81c-.55-1.53-1.28-1.47-2-2.14-.57-.52-.48-1.74-.41-2.26a2.52,2.52,0,0,1-.75,1,30.05,30.05,0,0,0-4,2.68A8.58,8.58,0,0,0,9,42.16L17,43.29A2.22,2.22,0,0,0,17.84,40.81Z"/><path class="cls-3" d="M49.26,79.52c-2.61-.8-5.13-1.94-5.82-3.21C42.53,74.65,35.26,73.09,31,69c-2.95-2.84-5.22-8.53-5.92-11.24s-1.55-8.15.3-8.73a16.73,16.73,0,0,0,7.83-4.62c3.21-3.21-4.08,3.06-10.29,2.61-3.46-.25-5.86-3.69-5.87-3.7a30,30,0,0,0,3.41,4.65c1.34,1.24,2.07,3.82,2.27,4.65s0,6.4,3.1,11.67,4.85,9.4,11.25,12.49A67.44,67.44,0,0,0,54,81.86,18.19,18.19,0,0,0,49.26,79.52Z"/><path class="cls-9" d="M17.93,41.92,9,42.16,17,43.29A2.47,2.47,0,0,0,17.93,41.92Z"/><path class="cls-10" d="M43.89,43.09c-2-1.76-5.43-12.38-16-12.8h0a20.82,20.82,0,0,1,7.69,5.07c3.83,4,4.06,8.35,8.81,10.65,3.75,1.81,14.57,4.44,19,5.47C52.82,47.38,45.64,44.66,43.89,43.09Z"/><path class="cls-11" d="M26.46,38.1a3.2,3.2,0,0,0-3-2.54,2.59,2.59,0,0,0-2.92,2.19,2.55,2.55,0,0,0,2.63,1.93C25.06,39.7,26.44,38.49,26.46,38.1Z"/><ellipse class="cls-5" cx="23.1" cy="37.62" rx="2.01" ry="1.76"/><ellipse class="cls-12" cx="23.63" cy="36.87" rx="0.55" ry="0.57"/><circle class="cls-12" cx="22.12" cy="36.93" r="0.29"/></svg>