<svg id="Animals&#x52A8;&#x7269;" xmlns="http://www.w3.org/2000/svg" viewbox="0 0 128 128" width="128" height="128"><defs><style>.cls-1{fill:#7b5340;stroke:none;}.cls-2{fill:#d74d7b;stroke:none;}.cls-3{fill:#231f20;opacity:0.24;stroke:none;}.cls-4{fill:#e25991;stroke:none;}.cls-5{fill:#4b809f;stroke:none;}.cls-6{fill:#0f415a;stroke:none;}.cls-7{fill:#8d58b2;stroke:none;}.cls-8{fill:#49a590;stroke:none;}.cls-22,.cls-9{fill:#fff;stroke:none;}.cls-9{opacity:0.12;stroke:none;}.cls-10{fill:#5f9ab4;stroke:none;}.cls-11{fill:#49809e;stroke:none;}.cls-12{fill:#306882;stroke:none;}.cls-13{fill:#0d435a;stroke:none;}.cls-14{fill:#aad9e9;stroke:none;}.cls-15{fill:#0d4156;stroke:none;}.cls-16{fill:#c8edf6;stroke:none;}.cls-17{fill:#316983;stroke:none;}.cls-18{fill:#d0e5f7;stroke:none;}.cls-19{fill:#adceee;stroke:none;}.cls-20{fill:#ff9f5d;stroke:none;}.cls-21{fill:#0d060a;stroke:none;}.cls-23{fill:#155371;stroke:none;}</style></defs><title>animals&#x52A8;&#x7269;</title><path class="cls-1" d="M34.63,110.47a1.17,1.17,0,0,0-.5.57s.69-.27,1,0l.33.23a.72.72,0,0,1,.38-.25l.44,0-.81-.52A1.31,1.31,0,0,0,34.63,110.47Z"/><path class="cls-2" d="M48.58,98.75a8.47,8.47,0,0,0,0-1.71l-3.3,1a16.45,16.45,0,0,1-2.84,6.34c-2.37,3.31-3.83,5.7-4.78,5.95s-2.73-.25-2.4.43c.12.25.78.24-1.26.73s-4.95,1-5.6,1.3c.24.5.34.56-.18.74l-.34.12a4.55,4.55,0,0,0,2.71.06c2-.35,5.33-.93,6-.53l.64.4a5.5,5.5,0,0,0-.66,2.13l0,.82a1.23,1.23,0,0,1,.88-.26c.43.1.51-.12,1.19-.91s1-2.41,2.56-2.63,2.72,1,3.8,1.23,1.89-.13,1.8.24,1,.12-1-1-3-2.3-2.86-3.12A10.72,10.72,0,0,1,44,106.35C44.64,105.49,48.48,99.49,48.58,98.75Z"/><path class="cls-3" d="M45.81,113.22c-2-1.14-3-2.3-2.86-3.12A10.72,10.72,0,0,1,44,106.35c.61-.86,4.45-6.86,4.55-7.6a7.65,7.65,0,0,0,0-1.46l-1,.94a11.65,11.65,0,0,1-1,3.09c-.71,1.31-3.44,4.54-3.9,6.2s-.61,3-.26,3.43.66,1,0,1.2-2.69.28-3.15,1a29,29,0,0,0-1.32,3,9.49,9.49,0,0,0,.71-.81c.68-.79,1-2.41,2.56-2.63s2.72,1,3.8,1.23,1.89-.13,1.8.24"/><path class="cls-1" d="M47,114.25a1.56,1.56,0,0,1,0,.8s-.12-.67-.57-.78c-.25-.06-.4-.18-.37-.35.06-.36-.24-.53-.16-.63A2.07,2.07,0,0,1,47,114.25Z"/><path class="cls-1" d="M36.5,116.14a1.65,1.65,0,0,0,.07.73,1.24,1.24,0,0,1,.59-.65.85.85,0,0,0,.38-.73c0-.37-.19-.43-.32-.42A1.77,1.77,0,0,0,36.5,116.14Z"/><path class="cls-1" d="M27.23,113.4a2,2,0,0,0-.23,1s.38-.79,1-.73c.34,0,.57-.05.59-.27.05-.49.49-.56.41-.73A2.46,2.46,0,0,0,27.23,113.4Z"/><path class="cls-1" d="M45.24,114.36a1.17,1.17,0,0,0-.5.57s.69-.27,1,0l.33.23a.72.72,0,0,1,.38-.25l.44,0-.81-.52A1.31,1.31,0,0,0,45.24,114.36Z"/><path class="cls-4" d="M59.19,102.65a8.47,8.47,0,0,0,0-1.71l-3.3,1A16.45,16.45,0,0,1,53,108.31c-2.37,3.31-3.83,5.7-4.78,5.95s-2.73-.25-2.4.43c.12.25.78.24-1.26.73s-4.95,1-5.6,1.3c.24.5.34.56-.18.74l-.34.12a4.55,4.55,0,0,0,2.71.06c2-.35,5.33-.93,6-.53l.64.4a5.5,5.5,0,0,0-.66,2.13l0,.82a1.23,1.23,0,0,1,.88-.26c.43.1.51-.12,1.19-.91s1-2.41,2.56-2.63,2.72,1,3.8,1.23,1.89-.13,1.8.24,1,.12-1-1-3-2.3-2.86-3.12a10.72,10.72,0,0,1,1.08-3.75C55.25,109.38,59.09,103.39,59.19,102.65Z"/><path class="cls-3" d="M56.42,117.11c-2-1.14-3-2.3-2.86-3.12a10.72,10.72,0,0,1,1.08-3.75c.61-.86,4.45-6.86,4.55-7.6a7.65,7.65,0,0,0,0-1.46l-1,.94a11.65,11.65,0,0,1-1,3.09c-.71,1.31-3.44,4.54-3.9,6.2s-.61,3-.26,3.43.66,1,0,1.2-2.69.28-3.15,1a29,29,0,0,0-1.32,3,9.49,9.49,0,0,0,.71-.81c.68-.79,1-2.41,2.56-2.63s2.72,1,3.8,1.23,1.89-.13,1.8.24"/><path class="cls-1" d="M57.63,118.15a1.56,1.56,0,0,1,0,.8s-.12-.67-.57-.78c-.25-.06-.4-.18-.37-.35.06-.36-.24-.53-.16-.63A2.07,2.07,0,0,1,57.63,118.15Z"/><path class="cls-1" d="M47.11,120a1.65,1.65,0,0,0,.07.73,1.24,1.24,0,0,1,.59-.65.85.85,0,0,0,.38-.73c0-.37-.19-.43-.32-.42A1.77,1.77,0,0,0,47.11,120Z"/><path class="cls-1" d="M37.84,117.29a2,2,0,0,0-.23,1s.38-.79,1-.73c.34,0,.57-.05.59-.27.05-.49.49-.56.41-.73A2.46,2.46,0,0,0,37.84,117.29Z"/><path class="cls-5" d="M58.84,51.27s-7.35-12.49-9.07-21.1-3-22.1-12.42-24-15.86,2-15.27,6.95,3.17,5.7,4.89,7.58,3.88,4.92,1.78,11.75S18,51.46,18.06,60.36,20.28,78.91,29.62,87s14.14,11.89,13.32,13.73-2.5,4.53-2.69,5.28-.16,1.43.57,1.1a2.33,2.33,0,0,1,2.25.05c.47.43.4.58,1.41-.21a18.6,18.6,0,0,0,3.6-3.23c.7-1.08,1.09-2.44,2-1.81s3.9,1.93,3.44,3.3-1.84,4.2-2.25,5-.05.53,1,.63,1.56,1.5,2.21,1a27,27,0,0,0,3.35-3.81,3.1,3.1,0,0,1,2.79-1.17,7.46,7.46,0,0,0,5-1.34c1.45-1.19,1.72-3.59,2.31-3.69s1.43,1.81,2.61,1.61,1.52-3,2.29-2.42.72,2.81,2.71,2.13,2.13-2.79,3-2.53,2.82,1.23,2.92,0-2.83-4.74-2.24-5.07,15.83,4.26,21.37,5.89,14.85,4.08,16,3.2-2.87-2.42-1.15-2.35,3.58-.23,1.58-1.49-6.7-2.63-5.91-3.26,2.65-1,.39-3.09-10.12-9-16-11.59-7.26-3.36-7.26-3.36,1-1.76-1.53-4.28S74,64.84,71.66,62,66,54,63,52.51,58.84,51.27,58.84,51.27Z"/><path class="cls-6" d="M120.36,100.91c-2.18-1.25-7.3-2.61-6.43-3.24s2.89-1,.44-3.09-11-9-17.39-11.53-7.9-3.33-7.9-3.33,1.07-1.77-1.65-4.27c-1.3-1.2-4.52-3.62-7.8-6.14-1.86,4.75-5.46,13.82-6.11,14.39-.89.78-6.55,6-6.55,6s.2,4.54.79,4.84c.44.22,7.95,3.66,13.84,6.32.11-1.2-5.11-5.32-4.48-5.64s19.07,5.93,25.1,7.54,16.4,2.87,17.67,2-3.12-2.41-1.24-2.34S122.54,102.17,120.36,100.91Z"/><path class="cls-7" d="M49.77,30.17c-1.72-8.61-3-22.1-12.42-24s-15.86,2-15.27,6.95,3.17,5.7,4.89,7.58,3.88,4.92,1.78,11.75c-1.91,6.2-9.25,16.84-10.51,25.42,2.59-1.56,4.33-3.1,3.94-2.1s.55,4.22,1.57,2.6a5.47,5.47,0,0,1,1.85-2s.65,3.73,2.16,2.33,1.89-3.84,2.43-2.65,2.41,5.23,3.4,2.88,1.33-5.75,2-4.57,2.16,5.12,3.48,1.91.4-4.87,1.63-4.31,4.11,2.49,4.38.42.22-3.4.83-3.19,2.25,1.6,3.14-.26.71-3.18,1.45-2.85,2.26,1.84,3.15-.14c.35-.78.72-1.68,1.06-2.5A61.06,61.06,0,0,1,49.77,30.17Z"/><path class="cls-8" d="M49.77,30.17c-1.72-8.61-3-22.1-12.42-24s-15.86,2-15.27,6.95,3.17,5.7,4.89,7.58,3.88,4.92,1.78,11.75a28.17,28.17,0,0,1-1.18,3c.1,2.22.46,5.79,1.7,5.06,1.77-1,3-2.56,3.12-.62s.57,4.7,1.85,3.44,1.76-4.08,2.32-2.52S38,45.24,39,43.75s1.26-4.54,2.17-3.12,1.48,3.45,2.5,1.71.75-5.12,1.81-3.11S47.23,43.63,48,42s.17-4.49,1.45-2.85,1.86,3.68,2.84,1.21c.16-.4.3-.83.43-1.27A48.36,48.36,0,0,1,49.77,30.17Z"/><path class="cls-9" d="M28.79,23.28c.91,2,1.31,4.78,0,9.14-2.1,6.83-10.78,19-10.7,27.94.08,8.4,2,17.45,10,25.28,2.21-1.43,1.71-5.11,1.79-8.63C30,72.83,28.26,61.3,28.16,55.9S32.4,38.45,33,30.73C33.51,24.55,30.15,23.47,28.79,23.28Z"/><path class="cls-10" d="M45.59,13.61C43.87,9.88,41.34,7,37.36,6.15,28,4.23,21.49,8.11,22.08,13.1a11.11,11.11,0,0,0,.59,2.57h0s3.74.21,4.41.18,10,0,13-.11A9.21,9.21,0,0,0,45.59,13.61Z"/><path class="cls-11" d="M48.32,22.55c-1-4.87-2.49-9.86-5.35-13.09.54,1.33,1,2.94.27,3.44-1.29.9-3.75.16-5.59-.36s-7.36-1.7-8.6-1.12c-.89.42-2.91,4.9-3.91,7.63.46.39.92.75,1.34,1.14,1.55-1,3.78-2.41,5.69-2.57a32.24,32.24,0,0,1,7.79.75s3.26-.38,4.91,1.48C46.08,21.22,47.55,22.7,48.32,22.55Z"/><path class="cls-12" d="M54.49,111.87a27,27,0,0,0,3.35-3.81,3.1,3.1,0,0,1,2.79-1.17,7.46,7.46,0,0,0,5-1.34A6.35,6.35,0,0,0,67.21,103c-1.45.93-4.82.85-6.88.75-2.68-.13-17.14-11.18-20.74-12.85a16.68,16.68,0,0,0-6.79-1.09c7.23,6.26,10.86,9.36,10.14,11-.82,1.83-2.5,4.53-2.69,5.28s-.16,1.43.57,1.1a2.33,2.33,0,0,1,2.25.05c.47.43.4.58,1.41-.21a18.6,18.6,0,0,0,3.6-3.23c.7-1.08,1.09-2.44,2-1.81s3.9,1.93,3.44,3.3-1.84,4.2-2.25,5-.05.53,1,.63S53.84,112.42,54.49,111.87Z"/><path class="cls-12" d="M81.49,100.67c.1-1.2-2.83-4.74-2.24-5.07,0,0-2.88-.71-4.23-.9s-12.48-4.57-12.48-4.57A10.44,10.44,0,0,0,65.3,95a8.92,8.92,0,0,1,2.61,6.85c.59-.1,1.43,1.81,2.61,1.61s1.52-3,2.29-2.42.72,2.81,2.71,2.13,2.13-2.79,3-2.53S81.39,101.88,81.49,100.67Z"/><path class="cls-13" d="M37.63,94c4,3.53,5.85,5.56,5.31,6.76-.82,1.83-2.5,4.53-2.69,5.28s-.16,1.43.57,1.1a2.33,2.33,0,0,1,2.25.05c.47.43.4.58,1.41-.21a18.6,18.6,0,0,0,3.6-3.23c.7-1.08,1.09-2.44,2-1.81,0,0-2-1.62-5-4A35.59,35.59,0,0,0,37.63,94Z"/><path class="cls-14" d="M48.68,51.81c-5.19,3.25-8.51,7.88-7,16.79S46.55,83.9,48,84.44s1.8-.44,1.8-.44,2.62,7.28,4.58,7.8,2.55.13,2.55.13A1.67,1.67,0,0,0,59,94a5.34,5.34,0,0,0,3.68-1.73s.21,2.17,1.89,1.62a2.63,2.63,0,0,0,1.85-2s1.3,2,3.21,1.32a2.55,2.55,0,0,0,1.84-2.38s2.49,1.47,3.63,0,0-3.51,0-3.51,2.25,1.6,3.26-.26-.9-4.08-.9-4.08,2.48,1.35,3.38-.27-1.23-3.34-1.23-3.34,1.93-.33,2-1.9a4.26,4.26,0,0,0-1.34-2.85s1.58.17,1.77-1a9.31,9.31,0,0,0-.41-2.74c-3.83-3.2-8.42-7-9.9-8.76C69.29,59.2,66,54,63,52.51s-4.17-1.24-4.17-1.24A10.57,10.57,0,0,0,48.68,51.81Z"/><path class="cls-15" d="M52.69,87c1.6.25,2.27-1.59,2.27-1.59s.53,2.42,2.74,2,3.1-2,3.11-1.73,1.06,2.29,2.84,1.68,1.73-1.67,1.73-1.67S66.46,88.56,68,87a2.56,2.56,0,0,0,.72-3s2.61,1.48,3.5-.15a1.84,1.84,0,0,0-.53-2.53,3.41,3.41,0,0,0,3-1.51,1.68,1.68,0,0,0-.74-2.41s3.09.19,3.56-1.22-1.28-2.49-1.28-2.49,2-.19,2.38-1.48S77.56,70,77.56,70a3.63,3.63,0,0,0,1-1.74l-2-1.72c0,1.51-.16,3.08-.47,3.31-.62.45-2.69-.73-2.78-.41s2.36,3.09,1.45,4.08a2.93,2.93,0,0,1-2.63.54s1.75,3.54.3,4.45a3.44,3.44,0,0,1-3.08.13s1.59,2.48.14,3.29-4.27-.56-4.27-.56-.38,3.42-2,3.59-2.53-1.91-2.53-1.91-.64,2.47-2.44,2.44-2.15-3.09-2.15-3.09-.91,3.55-2.74,3A26.89,26.89,0,0,1,49.82,84S51.09,86.78,52.69,87Z"/><path class="cls-16" d="M46.95,55.32s4.36-3.7,8.72,4.39,7,14.25,5.12,17S54.05,83.24,50,80.15,43.21,70.41,43,64.65A12.36,12.36,0,0,1,46.95,55.32Z"/><path class="cls-17" d="M34.9,13.5c-2.1-.88-5.61-1.61-7.63-.68s-3.8.91-4.6,2.84c1,2.76,2.93,3.52,4.31,5A12,12,0,0,1,28.09,22l.07-1.83s2.06,2.7,2.74,1.82a1.94,1.94,0,0,0,.41-1.71s2.66,2.55,3.21,1.32a5.37,5.37,0,0,0,.51-2.2s1.93,2.58,2.35,1a3.35,3.35,0,0,0,0-2.3s2.37,1.47,2.56.25S37,14.38,34.9,13.5Z"/><path class="cls-18" d="M22.35,10.69a25.84,25.84,0,0,0-5.71,2.94c-1.37,1.18-2.38,2.2-2.55,3.33s.81,1.39,1.76.9S19.23,16.44,21,17s2.76,1.6,3,1.07-.4-2.38.19-2.55,2.53-2.06,1-3.49A3.91,3.91,0,0,0,22.35,10.69Z"/><path class="cls-19" d="M19.19,15.24A5.51,5.51,0,0,1,16,14.18,5.27,5.27,0,0,0,14.09,17c-.18,1.13.81,1.39,1.76.9S19.23,16.44,21,17s2.76,1.6,3,1.07-.28-2,0-2.45C22.75,15.39,20.62,15.31,19.19,15.24Z"/><path class="cls-20" d="M26.81,11.7a4.15,4.15,0,0,1,4-3.47,3.9,3.9,0,0,1,4.3,2.93s-.3,2.71-3.74,3A4.39,4.39,0,0,1,26.81,11.7Z"/><circle class="cls-21" cx="30.88" cy="11.33" r="2.15" transform="translate(-0.46 1.34) rotate(-2.47)"/><circle class="cls-22" cx="31.39" cy="10.49" r="0.78" transform="translate(-0.42 1.36) rotate(-2.47)"/><circle class="cls-22" cx="29.69" cy="10.67" r="0.38" transform="translate(-0.43 1.29) rotate(-2.47)"/><path class="cls-14" d="M83.4,72.5s5.27,4.43,4.26,5.53a2.68,2.68,0,0,1-2.73.44s3,1.88,2.44,2.54-2.41.53-2.41.53,2.58.95,1.66,1.62S82.69,83,82.69,83s1.48,0,1.46-.49a4,4,0,0,0-.7-1.45s2.34.32,2.2-.52-1.9-2.35-1.9-2.35S86.28,78,86.14,77,83.4,72.5,83.4,72.5Z"/><path class="cls-23" d="M87.82,83.41s1.56,1.31,1,2.71-3.72,2.07-3.72,2.07,12,4.67,13.06,2.93S87.82,83.41,87.82,83.41Z"/><path class="cls-23" d="M91.08,84.22s11.44,5.65,10.48,7.38-4.32,1.46-10,.54S84.06,90,84.06,90s17.88,7.59,20.14,3.9S91.08,84.22,91.08,84.22Z"/><path class="cls-23" d="M102.86,89.64s4.54,3.51,3.56,4.82-4.28,2.51-12.66,1S82.34,93,82.34,93s24.71,8.15,26.47,3.52S102.86,89.64,102.86,89.64Z"/><path class="cls-23" d="M109,92.34s2.64,2.32,2.13,3.83-1.69,3.67-9.57,3S87.38,97.3,87.38,97.3s23.46,5.87,25,1.36S109,92.34,109,92.34Z"/></svg>