<svg id="Animals&#x52A8;&#x7269;" xmlns="http://www.w3.org/2000/svg" viewbox="0 0 128 128" width="128" height="128"><defs><style>.cls-1{fill:#8e8989;stroke:none;}.cls-2{fill:#313332;stroke:none;}.cls-3{fill:#736f6f;stroke:none;}.cls-4{fill:#6b6868;stroke:none;}.cls-5{fill:#281808;stroke:none;}.cls-6{fill:#ada6a5;stroke:none;}.cls-7{fill:#585656;stroke:none;}.cls-8{fill:#232524;stroke:none;}.cls-9{fill:#fff;stroke:none;}.cls-10{fill:#363535;stroke:none;}</style></defs><title>animals&#x52A8;&#x7269;</title><path class="cls-1" d="M32.75,19.59s-.64-3.6-2.38-4.75-4.64-3.77-5.22-4.93-1.45-3-2.26-2.78-.35,2.9.17,4.35,1.39,3.19,1.39,3.19a11.43,11.43,0,0,1-1.74-1.86c-.52-.81-1.22-2.73-2-2.38s.17,4.52,1.33,6.49a45.68,45.68,0,0,0,2.67,3.94s-2.9,1.62-3.94,3.42a22.23,22.23,0,0,1-5.22,6c-1.91,1.33-5.74,4.12-7.19,6.44s-1.8,4.46-1.57,5,1,1.51,1.22,1.91.17,1.16.87,1.39l.7.23s1,1.39,1.8,1.28,1.8-1.39,2.38-2.15a3.11,3.11,0,0,1,2.73-1.28,33.86,33.86,0,0,0,6.15-.29c.75-.29,1.57-1.62,2.49-1.51a15.63,15.63,0,0,0,3.31-.12l.87-.12s2.67.81,4.87,7.31A47.12,47.12,0,0,1,37,61.4a30.08,30.08,0,0,0,3.13,10.26,17.34,17.34,0,0,0,4,4.58s.64,4.17,1.16,6.2,1.28,6.73.64,8.76a12.79,12.79,0,0,0-.64,6.15c.41,1.74,1.8,5.22,1,7.94a54.88,54.88,0,0,0-1.51,6.15,2.62,2.62,0,0,1-.46,2c-.52.46-1.45.75-1.45,1.28v.52a7.13,7.13,0,0,0-1,1.53c-.38.85-.58,1.6,0,2a5.52,5.52,0,0,0,4.23.24c2-.58,2.52-1,2.56-1.57a10.61,10.61,0,0,0,0-1.81,2.36,2.36,0,0,0-.17-.58s.65-.58.51-1-.48-1.4,0-1.81a5.12,5.12,0,0,0,1.43-4c-.14-2.18-1.16-5.53-1-6.69s1.6-4.2,1.64-7-.78-6.14,0-8.77,1.74-6.38,1.74-6.38.48-.1.48.17.75,4.57,1.19,6.38,1.3,6.28.85,8-1.5,3.75-1.13,5.6,2.25,6.86,1.3,9.21a19.63,19.63,0,0,0-1.54,5.53c-.07,1.19,0,1.84-.65,2.25s-1,.51-1.13.92a1.53,1.53,0,0,0,0,.68,13.41,13.41,0,0,0-1.54,3c0,.61,1.16,1.43,3.58,1.16s3.55-1.16,3.58-1.57a10.26,10.26,0,0,0,.07-2.08l-.1-.55s.58-.34.44-.89-.48-1.47,0-1.88,1.33-1.47,1.23-4.4-1.09-5.8-.61-7.47,1.81-3.68,1.47-6.76-.55-6.41.24-8.6a31.74,31.74,0,0,0,1.77-6.93V78.94a72.8,72.8,0,0,0,14.16.68,57.94,57.94,0,0,0,12-1.54s1.88,5.46,5,8.53,5.08,5.56,3.89,8-7.68,8.63-8.36,10.34-.55,3.65-1.09,4.06-1.4,1-1.5,1.3a1.43,1.43,0,0,0,.17.85,13.75,13.75,0,0,0-1.19,2.35c-.27.89-.07,1.19.34,1.36a7.36,7.36,0,0,0,3.75.34c1.84-.31,2.59-.78,2.59-1.19a17.29,17.29,0,0,0,.1-1.88c-.07-.41-.14-.72-.14-.72s.61-1,.48-1.36-.27-1.3.27-1.47a4.93,4.93,0,0,0,2.35-3.24,20.18,20.18,0,0,1,5.29-8.9c3.21-3.14,4.84-4.54,4.4-6s-4.26-4.16-5.39-7.51-.2-7.3-.07-6.89,1.64,6.52,3.14,9.11,3,4.47,3.41,8.12.78,8.05-.31,10.78-1.91,3-2,4.2,0,2.66-.78,3.21-1.36.44-1.54,1.23.41,1,.41,1a16,16,0,0,0-1.3,2.08c-.31.72-.14,1.36.07,1.47a7.29,7.29,0,0,0,3.51.68c1.91-.1,3-.55,3-.85a12,12,0,0,0,.31-1.84,7.9,7.9,0,0,0-.17-1.26,1.58,1.58,0,0,0,.85-1.16c0-.75-.51-2.15-.07-2.56a3.19,3.19,0,0,0,1.5-3c0-2.08-.58-7.37.58-11s2.87-6.14,1.91-7.61a16.64,16.64,0,0,1-2.12-13.85c2-7.27,4.67-14.4,4.81-18.08a26.85,26.85,0,0,0-.07-4.78s2,3.68,1,6.69a22.53,22.53,0,0,0-1.23,8c.17,2,.48,3.1.1,4.33a28.61,28.61,0,0,0-.89,6.32c0,2.18,2,6.75,2.46,6.71s3.13-5.52,2.55-10.23-2.62-6-2.18-10,2.35-4.57,1.13-10.58a19.29,19.29,0,0,0-5.36-9.69s-1.81-5-9.89-6.55c-9.73-1.85-15.73,5.49-24.5,7.2S60,46.4,52.89,39.68s-11.84-14.85-16-17.86C33.36,19.26,32.75,19.59,32.75,19.59Z"/><path class="cls-2" d="M32.75,19.59s.6-.32,4.15,2.24c4.15,3,8.93,11.13,16,17.86a19.42,19.42,0,0,0,8.65,4.82,7,7,0,0,1-1.46-2.62,3.58,3.58,0,0,0-1.63-1.72c-.38-.19-.53-1.44-.62-2s-1.29-.62-1.63-.91a24.5,24.5,0,0,1-1.68-4.17c-.43-1.25-1.44-1.15-2.25-1.39S51,29.91,50.68,28.85A3.5,3.5,0,0,0,48.58,27a7.65,7.65,0,0,1-2.64-3.16,7.33,7.33,0,0,0-2.83-2.87C42.3,20.42,41.53,18,41,17.26s-4.41-1.58-5.46-1.87-2.68-1.82-3.74-1.92C31,13.4,30.72,14.53,30.64,15,32.18,16.37,32.75,19.59,32.75,19.59Z"/><path class="cls-3" d="M28.58,20.77c-.3-3,.08-3.92-.89-4.93a20.8,20.8,0,0,1-3.54-4.55,13,13,0,0,1-1.44-4c-.55.57-.13,2.89.35,4.21s1.39,3.19,1.39,3.19,1.72,2.74,2,3A2.52,2.52,0,0,1,27,19.3c0,.63,0,2.78,1.1,3.67a4.84,4.84,0,0,0,2.53,1S28.88,23.72,28.58,20.77Z"/><path class="cls-4" d="M15.16,43.37a1.82,1.82,0,0,1-1-.38,4.12,4.12,0,0,1-.08-2.15c.08-.42-1-1.35-1.1-1.56s-.42-2.36-.84-2.74-1.69,0-2.57.51a3.28,3.28,0,0,1-1.51.3c-1.16,2.08-1.44,3.92-1.23,4.4s1,1.51,1.22,1.91.17,1.16.87,1.39l.7.23s1,1.39,1.8,1.28,1.8-1.39,2.38-2.15A3.24,3.24,0,0,1,15.16,43.37Z"/><path class="cls-5" d="M8.81,41c-.36.44-.77.57-.82.82s.39,1.12.74,1.09,1.58-1.2,1.17-2.24C9.27,39.08,9.08,40.64,8.81,41Z"/><path class="cls-5" d="M14,41.43a.81.81,0,0,1-.61-.19.92.92,0,0,0,.39.51,11,11,0,0,1-1.45,2.13,4.09,4.09,0,0,1-2.74,1.39,6.42,6.42,0,0,0,.52.59A5.14,5.14,0,0,0,12,45a9.26,9.26,0,0,0,2.06-3.24c.49-.09.63-.77.63-.77A1.76,1.76,0,0,1,14,41.43Z"/><path class="cls-6" d="M18.94,28.74c-.38.36-1.26,1.54-.74,2.13.74.84,3.57-.13,4.2-.08a6.9,6.9,0,0,0,2.66.15c.7-.28,2.86-2,2.67-2.87s-.73-2-3.43-2.63C19.46,24.34,19.56,28.16,18.94,28.74Z"/><path class="cls-1" d="M26.66,26.94s-3.31-1.55-4.9-.85-1.17,2.35-1.5,2.79S18.84,30.1,19,30.23a1.66,1.66,0,0,0,1.09,0c.12-.12,1-1.23,1.46-1.21a9.9,9.9,0,0,0,3.53,0C26.24,28.6,26.66,26.94,26.66,26.94Z"/><path class="cls-7" d="M25.55,27.31a4.41,4.41,0,0,0-3.19-.87,1.69,1.69,0,0,0-1.44,1.79,5.34,5.34,0,0,0,3.11.51C25.59,28.43,25.55,27.31,25.55,27.31Z"/><path class="cls-8" d="M22.36,26.44l-.12,0a1.38,1.38,0,0,0,.2,2.24,4.41,4.41,0,0,0,1.42,0,1.37,1.37,0,0,0,.38-2.14A3.35,3.35,0,0,0,22.36,26.44Z"/><circle class="cls-9" cx="23.34" cy="27" r="0.34"/><circle class="cls-9" cx="22.39" cy="27.08" r="0.23"/><path class="cls-3" d="M85.76,114.86a7.36,7.36,0,0,0,3.75.34c1.84-.31,2.59-.78,2.59-1.19a17.29,17.29,0,0,0,.1-1.88c-.07-.41-.14-.72-.14-.72s.61-1,.48-1.36-.27-1.3.27-1.47a4.93,4.93,0,0,0,2.35-3.24,20.18,20.18,0,0,1,5.29-8.9c3.21-3.14,4.84-4.54,4.4-6s-4.26-4.16-5.39-7.51-.2-7.3-.07-6.89,1.64,6.52,3.14,9.11,3,4.47,3.41,8.12.78,8.05-.31,10.78-1.91,3-2,4.2,0,2.66-.78,3.21-1.36.44-1.54,1.23.41,1,.41,1a16,16,0,0,0-1.3,2.08c-.31.72-.14,1.36.07,1.47a7.29,7.29,0,0,0,3.51.68c1.91-.1,3-.55,3-.85a12,12,0,0,0,.31-1.84,7.9,7.9,0,0,0-.17-1.26,1.58,1.58,0,0,0,.85-1.16c0-.75-.51-2.15-.07-2.56a3.19,3.19,0,0,0,1.5-3c0-2.08-.58-7.37.58-11s2.87-6.14,1.91-7.61a16.64,16.64,0,0,1-2.12-13.85c.86-3.1,1.84-6.18,2.69-9a56.84,56.84,0,0,0-3,7.67,23.57,23.57,0,0,0-.71,9.77c.33,1.79.83,3.62-.21,4.07s-3.57-3.08-5.11-6.11-1.66-6.48-2.54-10.31-2.45-5.07-4.12-5.45-3.24,1.45-3.78,2.12-4.32,3.87-11.47,3.95a28.66,28.66,0,0,1-15-4.57c-1-.91-2.62-4.57-3-4.53S62.8,64.6,62.59,67a20.16,20.16,0,0,1-1.87,6.57c-.62,1-.12,3.62-.33,8.27s-1.83,9.27-2.62,9.31-1.37-1.75-1.54-2.37-1-6.9-1.12-7.57.62-3.24.33-5-1.33-2.12-3.28-3.62a15.1,15.1,0,0,1-4.95-6.15,16.2,16.2,0,0,1-1-7.77c.21-2.12-1.62-4.12-2.79-6.28s-3-9.23-3.66-11.89a5.53,5.53,0,0,0-3.49-3.7c-.46-.25-1.12-3.37-1.87-7.11s-1.75-4.57-1-2.62.91,6.24.83,9.44-4.83,4.6-4.83,4.6,2.67.81,4.87,7.31A47.12,47.12,0,0,1,37,61.4a30.08,30.08,0,0,0,3.13,10.26,17.35,17.35,0,0,0,4,4.58s.64,4.17,1.16,6.2,1.28,6.73.64,8.76a12.79,12.79,0,0,0-.64,6.15c.41,1.74,1.8,5.22,1,7.94a54.89,54.89,0,0,0-1.51,6.15,2.62,2.62,0,0,1-.46,2c-.52.46-1.45.75-1.45,1.28v.52a7.13,7.13,0,0,0-1,1.53c-.38.85-.58,1.6,0,2a5.52,5.52,0,0,0,4.23.24c2-.58,2.52-1,2.56-1.57a10.61,10.61,0,0,0,0-1.81,2.36,2.36,0,0,0-.17-.58s.65-.58.51-1-.48-1.4,0-1.81a5.12,5.12,0,0,0,1.43-4c-.14-2.18-1.16-5.53-1-6.69s1.6-4.2,1.64-7-.78-6.14,0-8.77,1.74-6.38,1.74-6.38.48-.1.48.17.75,4.57,1.19,6.38,1.3,6.28.85,8-1.5,3.75-1.13,5.6,2.25,6.86,1.3,9.21a19.63,19.63,0,0,0-1.54,5.53c-.07,1.19,0,1.84-.65,2.25s-1,.51-1.13.92a1.53,1.53,0,0,0,0,.68,13.41,13.41,0,0,0-1.54,3c0,.61,1.16,1.43,3.58,1.16s3.55-1.16,3.58-1.57a10.26,10.26,0,0,0,.07-2.08l-.1-.55s.58-.34.44-.89-.48-1.47,0-1.88,1.33-1.47,1.23-4.4-1.09-5.8-.61-7.47,1.81-3.68,1.47-6.76-.55-6.41.24-8.6a31.74,31.74,0,0,0,1.77-6.93V78.94a72.8,72.8,0,0,0,14.16.68,57.94,57.94,0,0,0,12-1.54s1.88,5.46,5,8.53,5.08,5.56,3.89,8-7.68,8.63-8.36,10.34-.55,3.65-1.09,4.06-1.4,1-1.5,1.3a1.43,1.43,0,0,0,.17.85,13.75,13.75,0,0,0-1.19,2.35C85.14,114.39,85.35,114.69,85.76,114.86Z"/><path class="cls-2" d="M118.57,73.76c-.58-4.71-2.62-6-2.18-10s2.35-4.57,1.13-10.58a19.29,19.29,0,0,0-5.36-9.69,26.2,26.2,0,0,1,1.53,3.66,27.34,27.34,0,0,1,.85,4.76s2,3.68,1,6.69a22.53,22.53,0,0,0-1.23,8c.17,2,.48,3.1.1,4.33a28.61,28.61,0,0,0-.89,6.32c0,2.18,2,6.75,2.46,6.71S119.15,78.46,118.57,73.76Z"/><path class="cls-10" d="M42.9,115.21a7.13,7.13,0,0,0-1,1.53c-.38.85-.58,1.6,0,2a5.52,5.52,0,0,0,4.23.24c2-.58,2.52-1,2.56-1.57a10.61,10.61,0,0,0,0-1.81,2.36,2.36,0,0,0-.17-.58A6.57,6.57,0,0,1,45,116.25C43.32,116.14,42.9,115.21,42.9,115.21Z"/><path class="cls-10" d="M52.25,118.14a13.41,13.41,0,0,0-1.54,3c0,.61,1.16,1.43,3.58,1.16s3.55-1.16,3.58-1.57a10.26,10.26,0,0,0,.07-2.08l-.1-.55a6.3,6.3,0,0,1-3.47,1.08C52.6,119.08,52.25,118.14,52.25,118.14Z"/><path class="cls-10" d="M88.67,112.05a2.82,2.82,0,0,1-2.06-.91,13.75,13.75,0,0,0-1.19,2.35c-.27.89-.07,1.19.34,1.36a7.36,7.36,0,0,0,3.75.34c1.84-.31,2.59-.78,2.59-1.19a17.29,17.29,0,0,0,.1-1.88c-.07-.41-.14-.72-.14-.72A9.74,9.74,0,0,1,88.67,112.05Z"/><path class="cls-10" d="M104.08,114.31c-1.94-.1-2.33-.67-2.33-.67a16,16,0,0,0-1.3,2.08c-.31.72-.14,1.36.07,1.47a7.29,7.29,0,0,0,3.51.68c1.91-.1,3-.55,3-.85a12,12,0,0,0,.31-1.84,7.9,7.9,0,0,0-.17-1.26A7.13,7.13,0,0,1,104.08,114.31Z"/><path class="cls-3" d="M108,73.86s2.19-4.53,3-6.38,2.71-8.15,1.9-8.15-.26.75-1.52,1.62-3.59,1.55-4.37,2.44a3.88,3.88,0,0,0-.89,1.34,2.76,2.76,0,0,1,2.78,2.11C109.52,69.12,108,73.86,108,73.86Z"/></svg>