<svg id="Animals&#x52A8;&#x7269;" xmlns="http://www.w3.org/2000/svg" viewbox="0 0 128 128" width="128" height="128"><defs><style>.cls-1{fill:#231f20;stroke:none;}.cls-2{fill:#2f2b2c;stroke:none;}.cls-3{fill:#393536;stroke:none;}</style></defs><title>animals&#x52A8;&#x7269;</title><path class="cls-1" d="M52.07,37.24s-8.15-19.33-7.56-18.49,2.94,4.2,2.69,3.11-1.43-4.12-.42-2.52-.42-4.71.34-2.94,1.68,5.21,1.68,3.61-.84-5.8-.08-3.36,6.89,16.89,6.72,15.55-2.1-16.3-1.51-14.87,2.86,9.5,2.69,8.24S54.42,14.46,55,15.64s3.78,9.58,3.78,8.66,1-10.25,1.09-9.16.5,12.44.67,12.77.92,3.61,1,3.19-1.18-16-.67-15.21,2.52,8.91,2.6,8.49-.76-10.34-.42-9.66,1.76,1.09,1.76,2.1.84,5.71,1.18,5.13,4.29-9.75,4.2-9.08S67.53,31.6,68,30.93s2.18-13.78,2.27-13.28,0,4,.25,3.19,1-5.21,1.09-4.37,0,6.72.59,6,3.61-6.89,3.61-6.89S71.31,40.93,72,40s6.39-23.61,6.39-23.28-.17,7.23.17,6.47,1.51-5,1.51-4.62-.25,4.29.08,3.53,1.76-4.29,1.68-3.95-5,22.6-4.2,21.68,7.56-19.41,7.48-19-2.35,9.41-2.18,9.08,5.63-9.41,5.46-8.66-1.43,5-.67,4.37,3.53-4.2,3.36-3.7S87.11,32.7,88.2,31.6s5.38-6.64,5.13-6S88.45,34.88,89.46,34s5.21-7.73,5-6.89-2.94,5.21-2,4.37,3.61-4.37,3.45-4.12-7.31,11.34-5.8,10,9.66-9.5,9.24-8.91-5.63,8.32-4.79,8.07,8.32-4.87,7.81-4.2-2.86,3.95-2.35,3.78,2.94-1.93,1.18-.17-5.8,5.88-5,5.46,9.83-7.56,9.24-6.81S89.46,49.5,90.72,49s17.48-10,16.81-9.24-4.2,3.53-3.45,3.28,5-2.44,4.37-1.85S96.61,51,97.7,50.43s14.2-7.48,13.87-7.14S97.7,52.86,98.79,52.36s10.67-5,10.17-4.62-5.71,3.61-4.29,3.11,8.66-3.36,8.07-2.94-10.17,5.21-8.82,5,8.91-2.18,8.4-2-19,7.23-18.49,7.14,19.41-2.35,19.41-2.35S100.72,59.92,101,59.92s14.45-1.18,13.95-1S93.83,64,94.25,64.12a35.54,35.54,0,0,1,3.19,1.68s16.89.92,16.13,1.18-7.14,1.93-6.89,1.93,9.83.42,8.91.59-2.69.59-2.69.59,1.6.76,1.34.76h-8.07s7.65,4.2,7.39,4.2-16.13-4.62-16.39-4.62-3-.17-3-.17l4.54,2.86S112.4,76.9,112,76.9s-9.24-.42-9.24-.42,2.77,2.35,3.28,2.6,5.55,1.43,5,1.43h-4s5.13,6.47,4.45,6.39-8.82-3.11-8.82-3.11,5.38,5.55,5,5.46-11.26-7.48-12-7.81a39.09,39.09,0,0,0-3.95-1s8,10.67,8.32,11,4.79,2.86,4,2.77L101.56,94s1.93,3.87,1.6,3.61a9.41,9.41,0,0,0-1.51-.67l-.08,2.6A85.49,85.49,0,0,1,93.75,93c-3.19-3.11-6.39-6.72-6.39-6.72s10,14.71,9.41,15-6.22-6.05-6-5.55,3,6,3.28,6.22a2.34,2.34,0,0,1,.42.76l-2.44-2.1a60.6,60.6,0,0,1,.5,6.05c-.17.42-1.43-.92-1.85-1.18s-.25,2.77-.34,2.44S83.66,95,83.66,95,88.2,106.9,88,106.73s-5.8-6.13-5.8-6.13,1.43,9.5,1.09,8.91-2.86-7.56-2.86-7.56-.76,10.84-.84,10.25-2.6-11.76-2.35-11.34-.84,10.76-.92,10.5-4.54-17.73-4.54-17.73,1.76,19.5,1.51,18.82-2.35-5.38-2.18-5,.59,3.36.59,3.36L69,106.06s-4.37,9.75-4.54,9.24-1.76-6.47-1.76-6.22-1.18,4-1.18,4S59.3,98.24,59.13,98.66s-2.52,12.86-2.69,12.27-1.09-4.37-1.34-4.12-5,6.64-4.62,6.22,3.28-10.59,3.28-11.18-1-5.8-1-5.8-4.62,8.91-6.05,10.76a11,11,0,0,1-3.36,2.94,39.68,39.68,0,0,0,1.76-4.37l.42-7.48s-4.12,9.5-4,8.82.17-9.24.17-9.24-7.48,7.65-7.06,7.14,5.29-12.94,5.29-12.94-7.9,10.42-7.73,9.92S38.2,83.87,38.2,83.87s-12.94,8.4-13,8.15-1.76.25-1.43-.34,6.81-9.75,6.81-9.75-11.43,7.23-10.08,6.13,7.81-7.48,7.81-7.48-9.75,2.77-9,2.44,13.36-9.66,13.36-9.66S14.59,80.85,15.6,80.09s10.08-8.32,10.08-8.32S13.75,74.8,15,74A130.56,130.56,0,0,1,28,68.24c1.76-.5,10.5-4.12,11.51-4.71l1-.59s-28.91,1.51-27.23.76S25.68,61,25.68,61s-12.44-2.77-10.76-2.94S21.73,57,21.73,57s-10.08-2.6-9.08-2.6,14.87,2.44,14.87,2.44L39.13,56S15.43,49,17,49.08s11.76,1.68,11.76,1.68S16.94,42.44,18.29,43s11,5.21,11,5.21S16.78,40,18.12,40.43s13,6.39,13,6.39l-3-4.87s-8.07-3.36-7.73-3.36,4.37.67,4.37.67-4.62-6.64-3.7-6S35.77,43.62,35.77,43.62L24,31.1l4.45,3.36s-2.35-4.79-1.76-4.37,11.18,9.33,11.18,9.33L35.43,32.7l-3.61-4.2,2.35.76-2.52-3.53s1.51,1.34,1.43.5-1.43-4.54-1-4.2a34.18,34.18,0,0,1,2.27,3.7s-.25-2.69.17-2.18,8,11.76,8.57,12.35-5.71-16.3-4.62-15.29a11,11,0,0,1,1.85,2.35s.5-.59.92,0,1.34,1.85,1.34,1.85-.84-8.91-.5-8.32S52.07,37.24,52.07,37.24Z"/><path class="cls-2" d="M45.06,38.57s4.61,6,5.49,6.92l.87.87L48.71,38l2,1.51L50.94,37l5,9.78L54,38.41l.87-3.58,3.74,10.26-.8-10.34,1.67,4.69-.32-4.93,1.59,4.93.56-6.28.48,9.38.56-8.27,1.11,3.66.56-3.9,1,2.94,3.18-4.05L67,42.7s1.75-7,1.75-6.52a5,5,0,0,0,.72,1.59l1.59-3.42-2,13,5-11.13L72.48,46.76l4.21-7.08L76.86,42l2.62-4.37L78.61,41l1.91-2.15-2.39,6.2,7.23-6.76-4.53,8.51,4.61-4.29L82.9,46.36l6-2.23L84,49.78,89.66,46l-8.27,8L92,50.33,84.57,56s7.55-3.9,7.23-3.9S85,56.85,85,56.85l8-2.15-6.28,2.86,6.84-1L87,58.6l10.89,1-12.32.87,8.9.72L82.26,63.13,95.7,66.55,87.51,67l7.39,2.62-8.19-1.59L94,71.48s-8.51-2.86-8.19-2.78,7.31,3.74,7.31,3.74l-4.53-1,4.05,6.36-4.29-1.51,1.67,2.86s-7.31-5.8-7.63-5.64.56,2.7.8,2.86,6.52,10,5.64,9.22-3.18-.48-3.18-.48a7.7,7.7,0,0,0,.16,1c0-.24-6.6-8.19-6.6-8.19l5.09,8.9L81.39,83.8l1.11,6.28-2.15-.72-.32.87-2.86-5.33L78,90l-3.1-3.1.87,5.25-1.59-3.58-.4,4.53-1.59-4.93-.51,5.44-2.35-7.11s-.32,7.63-.24,7.08a7.26,7.26,0,0,0-.72-2.23l-.64,1.35-.64-2.62s-2.54,5.41-2.78,5.25a18.08,18.08,0,0,1-.4-3.42L62.71,94.3,60.8,85l-1.43,7.87s-.48-2.46-1-2L55.79,93.5l1.67-7.55-.32-2.07s-5.33,8.82-5.25,8.43.8-3.58.8-3.58l.4-3.26-3.18,5.09,1-5.25-4.61,3.5,3.34-8.75-4.85,6.6s3.34-11.61,3.34-11.05-7.55,6-7.55,6l4-7-6.6,4.05,5.41-4.53-6.76,1.83,6.92-3.26A25.41,25.41,0,0,1,39.65,72c-.24-.24,4.61-3,4.61-3l-8.9,3.58,8.11-5.72L34.88,68l8.19-1.75L38.38,65l3.9-1.75-6.68-2.07,7.71-.87L36.79,58l6-.32-2.31-1.67,3.34.87-7.39-5.17,6.47,2.47.2.08L37.58,51s-2.46-2.94-1-2.54,6.84,4,6.84,4L37.9,46.12l8.59,5.64s-6-6.28-5.41-6.12a35.23,35.23,0,0,1,4,2.54l-4.29-4.45,6.84,5.64s-6-8.67-5.17-8.35a48.14,48.14,0,0,1,4.77,4Z"/><path class="cls-3" d="M48.51,66.9s4.1-.46,4.75-.62l.65-.16L49.27,65l1.26-.5-1.12-.82,6,.4-4.42-1.45-1.42-1.41,5.82,1.13-5-2.52,2.65.53-2.38-1.23,2.74.64-2.77-2L55,60.2l-3.69-2.57,2,.5-1.66-1.35,1.66.34-1-2.61,4.2,3.33S53.8,55.07,54,55.2a2.73,2.73,0,0,0,.94.11l-1.15-1.7,5.51,4.57-3.78-5.44L60,56.42l-2.11-3.94,1.12.57-1.3-2.44L59,52l-.47-1.49,2.22,2.84-1.12-5.26,2.69,4.49-.71-3.35,1.06,2.25L63.37,48l1.25,3.87-.2-3.69,1.42,6.09,1.26-5.94.56,5s.3-4.6.21-4.46.33,4.48.33,4.48l1.25-4.34L69,52.78l1.47-3.45L69.55,53l3.53-4.78-3,6,2.82-3.94-2.51,6.2,5.35-5.3L73.63,55.1l3.29-2.71-3,3.37,3.64-2.45s-3.71,3.16-3.59,3S77.72,54,77.72,54L76,55.8l4.09-.11-1.9,1.58,1.8,0a51.49,51.49,0,0,0-4.76,2c0,.19,1.41.5,1.55.43s6.49-.23,5.87,0S81.52,61,81.52,61a4.18,4.18,0,0,0,.49.19c-.11-.07-5.66.78-5.66.78l5.57.12-2.19.55L83,63.88l-.93.8.32.39-3.28-.16,2.61,1-2.31.58,2.69,1.06-2.11-.26,2,1.45-2.74-.64,2.39,1.76-4-.9s3.46,2.28,3.23,2.09a3.94,3.94,0,0,0-1.24-.29l.45.67L78.67,71a22.42,22.42,0,0,1,1.66,2.76,9.82,9.82,0,0,1-1.7-.77l.75,1.26-4.86-1.71,3.26,2.87s-1.28-.47-1.19-.11l.49,2-3-2.89L73,73.95s2.62,4.95,2.45,4.8L74,77.37l-1.41-1.1,1.48,2.9-2.18-1.91.34,3.12-3.14-4,1.71,4.1s-4.47-4.8-4.21-4.65.66,5.18.66,5.18l-2.14-3.81,0,4.21-.6-3.78-1,3.66.42-4.13a13.8,13.8,0,0,1-1.36,1.6,16.69,16.69,0,0,1-.12-3l-.83,5.15-.4-5.38-1.88,4.31,1.48-4.3L59,77.41l.28-2.3-2.83,2.53,1.75-3.83-2.9,2.39,1.54-2.9-1.42.61,1.34-1.31-4.47,2,3-2.32.09-.07-3.07,1.68s-2.06.32-1.45-.27a26.73,26.73,0,0,1,3.76-2.07L50,72.34l5-2.42s-4.61,1.06-4.36.8A19.13,19.13,0,0,1,53,69.59l-3.27.75,4.54-1.6s-5.7.35-5.33.07A26.14,26.14,0,0,1,52.1,67.7Z"/></svg>