<svg id="Animals&#x52A8;&#x7269;" xmlns="http://www.w3.org/2000/svg" viewbox="0 0 128 128" width="128" height="128"><defs><style>.cls-1{fill:#703015;stroke:none;}.cls-2{fill:#b3672c;stroke:none;}.cls-3{fill:#ca803d;stroke:none;}.cls-4{fill:#5b2813;stroke:none;}.cls-5{fill:#964d23;stroke:none;}.cls-6{fill:#944b21;stroke:none;}.cls-7{fill:#964d21;stroke:none;}.cls-8{fill:#ecb56b;stroke:none;}.cls-9{fill:#ebb46c;stroke:none;}.cls-10{fill:#fed3af;stroke:none;}.cls-11{fill:#080909;stroke:none;}.cls-12{fill:#f7e1c4;stroke:none;}.cls-13{fill:#833a19;stroke:none;}</style></defs><title>animals&#x52A8;&#x7269;</title><path class="cls-1" d="M95.33,62.3c.8,2,2.47,6.26,3.81,7.94s6.53,6.73,8.36,7.83,4.2,2.25,4.78,2.89,1.05,2.57,4.33,3.66a13.13,13.13,0,0,0,6.87.15c.91-.1,1.3-.18,1.3-.18s-4.69-4.41-7.95-5.27-2.6.4-4.72-.33-6.49-3.94-9.46-8-4.72-9.7-5.48-12.27a29,29,0,0,0-3.62-8.6c-.3.81-.76,6.88-.76,6.88S94.53,60.28,95.33,62.3Z"/><path class="cls-1" d="M93.61,50.25A47.9,47.9,0,0,0,89,45.92a14.77,14.77,0,0,0-7.5-3.52C77.53,42,77,42,75,42.32s-14,2.09-17.2,1.91-8.91-1.86-11.44-3.58-2-3.32-4.88-4.29-4.72-.31-6.94-1.77-3-4-5.16-4.78-4.8-.93-5.39-1.59.41-1.28.41-1.28-4.47-.44-4.72-1,1.41-1,1.41-1-2.62-.93-3.75-.49a26.44,26.44,0,0,0-2.42,1.24c-.42.18-2,.66-1.59-.09a13.79,13.79,0,0,0,.74-1.5,15.21,15.21,0,0,0-2.85,2.12c-.44.66-.69,2.52-1.45,2.7S9,27.52,9,27.52,7.36,29,7.48,30.57a1.88,1.88,0,0,0,.81,1.78c1,.49,1.23.41,1,.62A6.41,6.41,0,0,0,7.41,35a6.48,6.48,0,0,1-1.23,2.74,20.48,20.48,0,0,0-2.33,3.1,11.18,11.18,0,0,1-1.91,2c-.33.31-.91.53-.67,1.11s1,1.06,1.2,1.72a8.49,8.49,0,0,0,2.06,3.45l1,.8s.46,2.34,1.5,2.57,1.91.57,2.53,0l.94-.88,1.39.49a2.33,2.33,0,0,0,.61,1.9,12.94,12.94,0,0,0,3.3,2.65,3.48,3.48,0,0,1,1.91,2.21c.27,1,.83,6.32,1.58,7.52s1.71,3.27,2.89,3.85A8.06,8.06,0,0,1,24,71.39s-.94,6-1.38,7.3-1.81,4-1.5,5.84a5.35,5.35,0,0,0,2.42,3.76,23.09,23.09,0,0,1,4.25,3.58c.87,1.11,2.16,2.83,3.48,2.87s5.13-.93,5.27-2.39S34.44,87,33.27,86.74s-4.16-.18-5.17-1.59S27.28,80.9,29.2,79l3.13-3.18a9.79,9.79,0,0,0,2.26.75,12.08,12.08,0,0,0,1.76.18s2.12,2.12,2.08,3.05,1,2.79,1.54,4.11,3,6,2.92,6.9.48,2.74.33,3.18a2.61,2.61,0,0,1-.78,1.59c-.77.84-1.53,1.11-1.6,2.21s-.48,2.43.94,2.57,6.87.35,7.53-.13,1.09-1.33.76-1.9-1.72-2.61-1.63-4.38A114.26,114.26,0,0,0,48,81.65a43.32,43.32,0,0,0-1.17-5.31,14.53,14.53,0,0,0,5.41-.53C54.5,75,64.9,69,66.38,68.65a28.25,28.25,0,0,1,3.91-.49,19.12,19.12,0,0,0,1.33,6c1.15,2.48,1.9,7.16,2.62,8.58A4.9,4.9,0,0,1,75,86a15.73,15.73,0,0,1-1,4.47c-.65,1.5-1.71,5.13-2.46,5.44s-2.8-.44-3.3,0-2,.93-1.77,2.26,2,2.65,3.27,2.79a26.08,26.08,0,0,0,4.39-.44c.55,0,1.66-.13,1.92-1.06s.7-3.89,1.46-5,2.85-4.51,3.54-5.22,1.92-1.81,1.76-3.18-.29-5.71,0-6.63.87-2.3.87-2.3,4.78,2.34,6,2.83a37.82,37.82,0,0,1,6.35,4.42c.64.75,5.07,9.64,4.36,10s-2.56.09-3.44.57-1.4,1-1.29,1.64.2,2.17,2.17,2.3,4.64.31,5.48,0,2.22-1,2.13-1.86-1.44-8.89-1.88-10.92a13.93,13.93,0,0,1-.58-3.8c.09-.66-.29-3.23-1.29-3.54a11.52,11.52,0,0,1-5.39-3.36c-1.73-2.12-2.37-3.63-2.85-7.34a27.86,27.86,0,0,1-.32-7.21,11.65,11.65,0,0,0,.17-2.52l0-1.33"/><path class="cls-2" d="M50.08,98.28c-.33-.57-1.72-2.61-1.63-4.38,0-.1,0-.22,0-.36a2.53,2.53,0,0,1-1.4.46c-1.81,0-3-7.5-3.76-10.42s-1.13-12.12-2.14-14.29-3.07-4.69-3.38-7.5-.43-5.21-.43-5.21-1.68-.64-2-.76-.7,2.87-.7,2.87A12.24,12.24,0,0,0,33,62c-.34,1.05-1.11,2.75-.89,3.75a5.77,5.77,0,0,1,0,2l.26,2.87A16.37,16.37,0,0,1,34,73.68c.32,1.11,0,2.4.63,2.84l.39.06c.14-.16,0-.62,0-.62s.33.31.73.7c.38,0,.6,0,.6,0s2.12,2.12,2.08,3.05,1,2.79,1.54,4.11,3,6,2.92,6.9.48,2.74.33,3.18a2.61,2.61,0,0,1-.78,1.59c-.77.84-1.53,1.11-1.6,2.21s-.48,2.43.94,2.57,6.87.35,7.53-.13S50.41,98.86,50.08,98.28Z"/><path class="cls-2" d="M80.84,44.64l0-.08S80.79,44.61,80.84,44.64Z"/><path class="cls-2" d="M88.71,53c1.63-5-2.52-3.17-3.9-5.45-1.21-2-3.57-2.69-4-2.93l-.07,2.83L78.5,49.21l-1.7,4.18-.49,6.23-2,6.46-1.65,3.72,0,3.42.44,3a54.21,54.21,0,0,1,1.22,6.56A4.87,4.87,0,0,1,75,86a15.73,15.73,0,0,1-1,4.47c-.65,1.5-1.71,5.13-2.46,5.44s-2.8-.44-3.3,0-2,.93-1.77,2.26,2,2.65,3.27,2.79a26.08,26.08,0,0,0,4.39-.44c.55,0,1.66-.13,1.92-1.06s.7-3.89,1.46-5,2.85-4.51,3.54-5.22,1.92-1.81,1.76-3.18c-.05-.47-.1-1.28-.13-2.18v0s-.86-2.93-1.08-4.23a3,3,0,0,0-1.44-2s2-3.42,2.76-4.64a19.14,19.14,0,0,0,2.77-7.57c.81-4.31-5.56,2.2-5.56,2.2l4.29-5.45A45.72,45.72,0,0,0,88.71,53Z"/><path class="cls-2" d="M80.6,44.64l0-.08S80.55,44.61,80.6,44.64Z"/><path class="cls-3" d="M40.81,53.32a8.33,8.33,0,0,0-1.36-2.55c-.89-1-2.38-2.67-2.54-2.55a14.77,14.77,0,0,0-1.25,4.17,30.63,30.63,0,0,0-.59,6.09c0,2.32-.41,3,.72,5.39s2.57,5.27,2.57,5.27l1.7,7,1.13,5.74,1.45,4.23,1,2.43,2,4.66.65.22L44.88,82.65l-1.09-9.39s-.64-1.56.22-2.2a8.26,8.26,0,0,0,1.64-1.85l-.1-2L44.1,64l-2.19-7.88A29.55,29.55,0,0,0,40.81,53.32Z"/><path class="cls-4" d="M29.2,79l3.13-3.18a12,12,0,0,1-2.06-1.35A14.21,14.21,0,0,0,28,72.95s-1,2.82-1.74,4.35S24.38,81,24.89,82.87C25.25,84.17,27,84.73,28,85,27.11,83.49,27.36,80.82,29.2,79Z"/><path class="cls-5" d="M32.94,60a7.56,7.56,0,0,1-2.39,2.32,16.26,16.26,0,0,1-2.9,1.23s1,4.78,1.95,5.64S31,69.82,31.4,71s1.16,3.35,2.1,4.27.95,1.23.95,1.23l1.41.2a18.51,18.51,0,0,1-1.89-3c-.28-.86-1.55-4.9-1.12-4.53a7.11,7.11,0,0,0,2.27,1.41c1,.31,2.22.61,1-.37s-2.83-4.29-2.77-5.51.78-2.21.8-2.94a6.18,6.18,0,0,0-.45-1.9Z"/><path class="cls-5" d="M90.24,51.69c-.47-2.27-1.38-5-3-6.06s-7.84-2.7-8.19-2.57-5.47,2.08-6.23,2.14a3.55,3.55,0,0,0-1.62.8,5.33,5.33,0,0,1-2.54.18C66.89,46,62,46.06,61,45.87s-12.58.45-14,.58c-5.35.5-2.47,13.46-1.74,15s3.24,8.51,5.79,9.67,7,.08,7.76-.48,7.21-3.57,8.06-4.43,3.3-3.92,3.3-3.92S70.11,65,70,66a8,8,0,0,0,.26,2.2,19.12,19.12,0,0,0,1.33,6c1.15,2.48,1.9,7.16,2.62,8.58,0,0-1.49-8.78-1.44-10.07s.77-3.43-.2-5.08-2-4.1-1.5-6.19,2.75-4.29,3.43-7.11.82-3.74.33-5.27-1.4-1.84-.21-2.88,3.82-3,5-2.27A12.89,12.89,0,0,1,83,46.48c1,1.16,5,6.25,3.89,7.78s-6,8.21-6.82,9.37S78.22,66,78,67a13.63,13.63,0,0,1-2.53,3.92,2.07,2.07,0,0,0-.81,1.65c0,.8-.06,1.23,1.19.12s3.67-2.45,5.31-3.92a22.5,22.5,0,0,0,2.59-2.7s.92,3-.09,4-2.46,2.94-2.46,2.94-2.93,5.39-3.5,6.92-1.26,4.47-.14,5.51,1.58.86,1.58.86a8.08,8.08,0,0,1,.12-4.59c.84-2.08,1.33-3.06,1.33-3.06S80,81.59,80.8,83s1.23,3.19.45,4.17-2.66,2.45-3,3.68c-.19.8-.46,2.42-.63,3.46.84-1.26,2.76-4.36,3.42-5s1.92-1.81,1.76-3.18-.29-5.71,0-6.63a4.46,4.46,0,0,1-.35-4.1c1-2.27,5.52-8,6.28-11.76S90.71,54,90.24,51.69Z"/><path class="cls-3" d="M73.17,70.5a35.82,35.82,0,0,0,3.37-7.11c.75-2.82.48-9.19,1.81-11.09s4.36-5.27,3.89-6.25-2-2.51-3.14-2.27-4,1.53-4.72,2.7S75,48.69,75,50a15.2,15.2,0,0,1-.84,5.57c-.75,1.65-2.89,3.68-3.11,5.15a8.52,8.52,0,0,0,.49,4.63c.7,2,1.09,2.17,1.25,3S73.17,70.5,73.17,70.5Z"/><path class="cls-4" d="M93.7,55.61a14.8,14.8,0,0,1-.09-1.84,4.87,4.87,0,0,0-.89-2.39,24.8,24.8,0,0,1,.44,2.88A8.89,8.89,0,0,1,92,58.61,21.25,21.25,0,0,0,90.33,64a34.07,34.07,0,0,1-3.85,8.33,37.67,37.67,0,0,0-2.72,4.8s4.78,2.34,6,2.83a37.82,37.82,0,0,1,6.35,4.42c.62.74,4.88,9.26,4.4,10a2.69,2.69,0,0,0,1.69-.55c.67-.74-3.13-5.57-3.88-6.43a63.22,63.22,0,0,1-5.88-9.5c-1.6-3.43-1.29-6.74-.61-7.29s3.29,4.1,4.59,6.43,3.09,2.45,4.34,3.68,1.81,4.17,2.25,5.82a37.68,37.68,0,0,0,1.43,3.93c-.32-1.83-.63-3.53-.8-4.31a13.93,13.93,0,0,1-.58-3.8c.09-.66-.29-3.23-1.29-3.54a11.52,11.52,0,0,1-5.39-3.36c-1.73-2.12-2.37-3.63-2.85-7.34a27.86,27.86,0,0,1-.32-7.21,11.65,11.65,0,0,0,.17-2.52l0-1.33"/><path class="cls-4" d="M41.5,36.36c-2.87-1-4.72-.31-6.94-1.77s-3-4-5.16-4.78-4.8-.93-5.39-1.59.41-1.28.41-1.28-4.47-.44-4.72-1,1.41-1,1.41-1-2.62-.93-3.75-.49a26.44,26.44,0,0,0-2.42,1.24c-.42.18-2,.66-1.59-.09a13.81,13.81,0,0,0,.74-1.5,15.21,15.21,0,0,0-2.85,2.12c-.44.66-.69,2.52-1.45,2.7S9,27.52,9,27.52,7.36,29,7.48,30.57a1.88,1.88,0,0,0,.81,1.78c1,.49,1.23.41,1,.62h0s6.53,4.45,7.74,4.85a4.53,4.53,0,0,1,1.66.84s-.55-1.5.19-.44,2.84,3.92,2.55,5.69a37.42,37.42,0,0,1-1.93,5.6s4.32-2.2,5.44-4.67S26.48,40.47,27,40l.49-.48s3.29,4.23,1.78,7.36-6.42,7.05-7,9.92-1.38,9-1.38,9a9,9,0,0,1-1.5-5.2c.15-2.91-.17-4.94,2-7.67s3.21-4.05,3.21-4.05S18.94,54,16.32,53.6,14,49.37,14,49.37s-1.38,1.69-2.21,2.74l.11,0a2.33,2.33,0,0,0,.61,1.9,12.94,12.94,0,0,0,3.3,2.65,3.48,3.48,0,0,1,1.91,2.21c.27,1,.83,6.32,1.58,7.52s1.71,3.27,2.89,3.85A8.06,8.06,0,0,1,24,71.39a4.52,4.52,0,0,0,2.59.1c.87-.44,1.36-2.64.21-5.07s-3.15-5.82-2.46-7.36a26.71,26.71,0,0,1,3.18-5.38l1.78-1.94a3.61,3.61,0,0,1,.18,2.64,6.84,6.84,0,0,0-.79,3.7,9.21,9.21,0,0,0,.52,2.69A18.86,18.86,0,0,1,30.51,56c.82-1.41,2.41-3,2.13-5S31.53,42.32,32,40.64s.85-3.44,2.69-2.42,3.06,2.34,2.35,3.39-2.32,2.16-2.48,4.85-.61,7.23-.68,8.55.15,3.79-.9,5a18.94,18.94,0,0,1-3.44,2.73,6.41,6.41,0,0,0,5.13-3c2.1-3.13,2.59-8.59,3.1-10.45s1.08-4.85,3-5.47,5.14.44,6.53,0c1.21-.35,2.92-.56,2.31-1.61a16.68,16.68,0,0,1-3.23-1.6C43.86,38.93,44.38,37.34,41.5,36.36Z"/><path class="cls-3" d="M18.06,35S15.5,33.3,16,32.36s2.94-2.51,4-1.57,2.13,4.55,1.43,6-1.33,1.64-1.92,1,.49-2.11.23-2.33-.38-.62-.77-.58S18.06,35,18.06,35Z"/><path class="cls-2" d="M17.91,30.78a4.21,4.21,0,0,0-2,1.58C15.5,33.3,18.06,35,18.06,35s.46,0,.84,0,.51.36.77.58-.25.85-.38,1.5a.74.74,0,0,0,.24-.07c.65-.36.79-.36,1-1.93a5,5,0,0,0-.74-3.42A2.49,2.49,0,0,0,17.91,30.78Z"/><path class="cls-3" d="M14.86,35.93a6.26,6.26,0,0,0-2.6-2.66,14.23,14.23,0,0,1-2-.58,1.88,1.88,0,0,0-1,0l-.11,0c.18.08.2.11.06.22A6.4,6.4,0,0,0,7.41,35a6.48,6.48,0,0,1-1.23,2.74,20.48,20.48,0,0,0-2.33,3.1,11.18,11.18,0,0,1-1.91,2c-.33.31-.91.53-.67,1.11s1,1.06,1.2,1.72a8.49,8.49,0,0,0,2.06,3.45l1,.8s.46,2.34,1.5,2.57,1.91.58,2.53,0l.94-.88,1.39.49s2.19-2.64,3-3.95a3.25,3.25,0,0,0,0-3.46c-.5-.91.26-1.78.86-3.9A6,6,0,0,0,14.86,35.93Z"/><path class="cls-2" d="M11.91,52.15s2.19-2.64,3-3.95a3.25,3.25,0,0,0,0-3.46c-.5-.91.26-1.78.86-3.9a5.28,5.28,0,0,0,.19-2,13,13,0,0,0-2,2c-.62.95-.36,4.12-.7,5s-1,.44-1.27,0a20.75,20.75,0,0,0-4-2.7c-.72-.22.35-.07.6-.07a7.75,7.75,0,0,0,3.19-.36c.86-.51.47-2.48.47-3.21s.5-1.2.93-1.86.11-1.24-.61-1.64-3.86-1.64-4.4-1.35-1,2.51-1.32,3.17a29.27,29.27,0,0,1-1.15,3c-.42.69-.37-.4-.4-.84A3.87,3.87,0,0,0,5,39.21c-.43.59-.85,1.22-1.14,1.67a11.18,11.18,0,0,1-1.91,2c-.33.31-.91.53-.67,1.11s1,1.06,1.2,1.72a8.49,8.49,0,0,0,2.06,3.45l1,.8s.46,2.34,1.5,2.57,1.91.58,2.53,0l.94-.88Z"/><path class="cls-6" d="M7.91,43.17l.63,0a10.94,10.94,0,0,0,2.62-.15l-1.64-.65c-.86-.33-.57-1.57-.62-1.71S10,40.26,10.49,40a2,2,0,0,0,.9-1.78c-.1-.58-2.89-2-3.21-2.08S8,37.71,8.09,38,7,39.86,6.87,40.26s.79,1.06.82,1.64A7.58,7.58,0,0,0,7.91,43.17Z"/><path class="cls-7" d="M11.91,52.15s2.19-2.64,3-3.95a3.08,3.08,0,0,0,.25-2.85c-.18.42-.39.88-.55,1.18a11.08,11.08,0,0,1-1.46,1.82c-.3.33-.41-.47-.67-1.35a6.94,6.94,0,0,0-1.76-2l-.43-.3a6,6,0,0,1,.59,1.94c.09,1.06-1.2,2.15-1.2,2.15a7.15,7.15,0,0,1,1.08,1.89,1.53,1.53,0,0,1-.26,1Z"/><path class="cls-8" d="M10.45,50a4.51,4.51,0,0,0-1.34-.34,5.07,5.07,0,0,0-1,.34,6.37,6.37,0,0,1-1.13.22s1.07.69,1,1.16a3.73,3.73,0,0,1-.25,1.18c-.11.06-.06.15.45.21a1.63,1.63,0,0,0,1.63-.43,2.61,2.61,0,0,0,1-1.66A1.33,1.33,0,0,0,10.45,50Z"/><path class="cls-9" d="M3.7,42.76c-.23-.18-.62-.48-.88-.66-.37.37-.72.66-.88.82-.33.31-.91.53-.67,1.11a3.57,3.57,0,0,0,.64.86l.8.05,1.58-1a3.86,3.86,0,0,1,.39-.6C4.9,43.08,4.06,43,3.7,42.76Z"/><path class="cls-10" d="M7.48,40.17s.86-.25,1.59-.38,1.36-.16,1.54-.52.38-.63-.06-.79-2.07-1.24-2.14-1a4.2,4.2,0,0,1-.24.81,10,10,0,0,0-.9,1.67A.2.2,0,0,0,7.48,40.17Z"/><path class="cls-11" d="M7.27,39.94s1.37-1.26,1.4-1.53-.58-1.22,0-1.08,2,.54,2,1S10.4,39,9.9,39s-.6-.18-1.14.23A6.08,6.08,0,0,1,7.27,39.94Z"/><path class="cls-11" d="M10.67,49.81c.6-.07.5-.47.23-.95s-1.23-.55-1.61-.55-1.26.8-1.77,1.17a3.7,3.7,0,0,1-2.5,0c-.58-.22-1-1.42-1.19-2a1.64,1.64,0,0,1,0-1.13S4,45.14,4,44.74s.35-.76.3-1.13-.41.18-.73.29a1.7,1.7,0,0,1-1.22-.36c-.4-.25-.42.11-.63.15a2.29,2.29,0,0,1-.5,0,.59.59,0,0,0,0,.35c.24.57,1,1.06,1.2,1.72a8.49,8.49,0,0,0,2.06,3.45l1,.8,0,.09a8,8,0,0,0,1.13.13,6.57,6.57,0,0,0,2-.51C9.1,49.51,10.07,49.88,10.67,49.81Z"/><path class="cls-12" d="M4.53,49.19s-1.71-2.55-1.12-3.43,1.8-1.27,3.44-.36S9.21,47.51,9,48.06s-.16.36-.16.36a6.14,6.14,0,0,1-1.36,1.06,4,4,0,0,1-2,0Z"/><path class="cls-8" d="M9,48.06c.18-.55-.55-1.75-2.18-2.66A4.48,4.48,0,0,0,6,45c-.32.15-.67.36-.73.64a3.37,3.37,0,0,0,.54,3c.89.91,1,.87,1.74.87a6.14,6.14,0,0,0,1.36-1.06S8.84,48.6,9,48.06Z"/><path class="cls-13" d="M19.2,32.43c-.49-.62-.8.15-1.32.4s-.51,1.13-.55,1.61c.4.32.73.54.73.54s.46,0,.84,0,.51.36.77.58a.14.14,0,0,1,0,.1,1.75,1.75,0,0,0,.33-.5A4.49,4.49,0,0,0,19.2,32.43Z"/><path class="cls-10" d="M9.39,38.76s1,.08.88-.4-.8-.59-.79-.45.29.28.3.45S9.39,38.76,9.39,38.76Z"/><path class="cls-2" d="M70.11,48.06s-7.92-.4-9.88-.4-8.8.81-9.84,1.86-4,5.17-3.47,7.11S49.74,67.54,52.43,68s7.44-2.91,8.81-3.72,7.31-4,7.49-5.09,2.61-4,.88-5.82-.79-3.15-.26-3.56S70.11,48.06,70.11,48.06Z"/><path class="cls-5" d="M43.26,93.4h0a1.47,1.47,0,0,1,0,.55,2.61,2.61,0,0,1-.78,1.59c-.62.68-1.23,1-1.49,1.66,1.15.16,3.2.33,4-.3C46.22,96,43.26,93.4,43.26,93.4Z"/><path class="cls-3" d="M74.11,100.54c.55,0,1.66-.13,1.92-1.06s.7-3.89,1.46-5l0,0c-1.34,1-3.05,2.07-3.83,1.79s-.84-1.51-.81-2.76c-.46,1.21-.94,2.29-1.34,2.45-.75.31-2.8-.44-3.3,0s-2,.93-1.77,2.26,2,2.65,3.27,2.79A26.08,26.08,0,0,0,74.11,100.54Z"/><path class="cls-5" d="M72.1,98.05c1.51-.16.72-2.13.25-3.31a2.55,2.55,0,0,1-.82,1.19c-.57.23-1.87-.14-2.69-.14-.1.23-.21.46-.33.7C67.78,97.9,70,98.27,72.1,98.05Z"/><path class="cls-4" d="M124.79,84.6s-4.69-4.41-7.95-5.27-2.63.35-4.61-.3c.2.45.42.91.53,1.13.25.49-3.06-1.55-4.94-3a45.57,45.57,0,0,1-7.59-7.81c-2.38-3.18-4-8.3-4.86-10.49a9.55,9.55,0,0,0-2-3.26s-.46,1.29-.54,1.44,1.72,3.22,2.52,5.24,2.47,6.26,3.81,7.94,6.53,6.73,8.36,7.83,4.2,2.25,4.78,2.89,1.05,2.57,4.33,3.66a13.13,13.13,0,0,0,6.87.15C124.39,84.68,124.79,84.6,124.79,84.6Z"/></svg>