<svg id="Animals&#x52A8;&#x7269;" xmlns="http://www.w3.org/2000/svg" viewbox="0 0 128 128" width="128" height="128"><defs><style>.cls-1{fill:#817d79;stroke:none;}.cls-2{fill:#b69a3c;stroke:none;}.cls-16,.cls-3,.cls-6,.cls-9{fill:#231f20;stroke:none;}.cls-3{opacity:0.25;stroke:none;}.cls-4{fill:#004156;stroke:none;}.cls-5{fill:#1c7191;stroke:none;}.cls-6{opacity:0.27;stroke:none;}.cls-7{fill:#178baf;stroke:none;}.cls-8{fill:#dc2304;stroke:none;}.cls-9{opacity:0.22;stroke:none;}.cls-10{fill:#cd7603;stroke:none;}.cls-11{fill:#3989a4;stroke:none;}.cls-12{fill:#802f0a;stroke:none;}.cls-13{fill:#eab419;stroke:none;}.cls-14{fill:#e39e51;stroke:none;}.cls-15{fill:#a7753a;stroke:none;}.cls-16{opacity:0.26;stroke:none;}.cls-17{fill:#0e3249;stroke:none;}.cls-18{fill:#081c27;stroke:none;}.cls-19{fill:#fff;stroke:none;}.cls-20{fill:#5d5b58;stroke:none;}</style></defs><title>animals&#x52A8;&#x7269;</title><path class="cls-1" d="M52.44,116a1.32,1.32,0,0,0-.4.77s.72-.54,1.19-.44l.47.11a.91.91,0,0,1,.37-.4l.51-.22-1.13-.21A1.88,1.88,0,0,0,52.44,116Z"/><path class="cls-1" d="M33.54,116a1.32,1.32,0,0,0-.6.63s.84-.33,1.26-.09l.42.23a.91.91,0,0,1,.46-.28l.55-.07-1-.52A1.88,1.88,0,0,0,33.54,116Z"/><path class="cls-2" d="M50.38,102.74a7.82,7.82,0,0,0-.09-1.83l-4.06,1.28A16.39,16.39,0,0,1,43,109.12c-2.8,3.67-4.51,6.3-5.69,6.62s-3.4-.12-3,.59c.16.26,1,.21-1.54.85s-6.11,1.33-6.91,1.69c.32.52.44.59-.19.8l-.42.15a6.54,6.54,0,0,0,3.37-.08c2.44-.48,6.59-1.28,7.4-.88l.81.4a5.35,5.35,0,0,0-.72,2.31l.09.88a1.7,1.7,0,0,1,1.08-.32c.54.08.63-.16,1.44-1s1.08-2.63,3.07-3,3.43,1,4.78,1.12,2.35-.24,2.26.16,1.26.08-1.26-1-3.79-2.31-3.7-3.19a10.31,10.31,0,0,1,1.17-4.07C45.78,110.16,50.29,103.54,50.38,102.74Z"/><path class="cls-2" d="M50.65,118.22c1,.32,1.44.4,3.16-.24s5.78-2.07,6.41-1.6.54,1.36-.18,2a1.92,1.92,0,0,0-.72,1.91c.18.4.45-.48,1-.32s1.17.08,1.8-1,1.26-3,2.44-3.59,4.42,1.12,5.59.88,3.61-.64,1-1.6-5.78-1.2-6.59-2.47-5.05-13.88-5.78-13.8a24.87,24.87,0,0,0-3.88,1.91c.18.24,4.87,7,5.23,8.46s.9,4.31-.45,5.11a17.35,17.35,0,0,1-5.05,1.75c-2.67.1-.22.45-2.17,1.36-1.53.72-2.8.4-2.89,1.12"/><path class="cls-3" d="M47.58,118.38c-2.53-1.12-3.79-2.31-3.7-3.19a10.3,10.3,0,0,1,1.17-4.07c.72-1,5.23-7.58,5.32-8.38a7.06,7.06,0,0,0-.05-1.56l-1.25,1.07A11.25,11.25,0,0,1,48,105.61c-.82,1.44-4.08,5-4.57,6.84s-.62,3.28-.16,3.68.87,1.08,0,1.28-3.34.44-3.87,1.24A29.06,29.06,0,0,0,37.89,122a10.88,10.88,0,0,0,.85-.9c.81-.88,1.08-2.63,3.07-3s3.43,1,4.78,1.12,2.35-.24,2.26.16"/><path class="cls-3" d="M66,114.68c-1.39.4-2.22-.67-3.67,2.63a10.06,10.06,0,0,0-.75,2.38,2.94,2.94,0,0,0,.58-.76c.63-1.12,1.26-3,2.44-3.59s4.42,1.12,5.59.88,3.61-.64,1-1.6-5.78-1.2-6.59-2.47-5.05-13.88-5.78-13.8a6.52,6.52,0,0,0-1.49.61l-.26.7s6.65,12.92,7.55,13.53S67.35,114.28,66,114.68Z"/><path class="cls-4" d="M66.31,92.1c1.48-1,5.22-2.09,5.83-2.73s1.82-2.13,2.6-2.93,1.7-.55,2.4-.71-.29,6-.29,6a17.23,17.23,0,0,0,1.8-4,15,15,0,0,0,.06-4,6.27,6.27,0,0,1,.87,1.69,23.75,23.75,0,0,1,.09,3.37A13.91,13.91,0,0,0,81.5,86c.7-1.44,0-4.82,0-4.82A8.43,8.43,0,0,1,82.81,84c.52,1.77,1.35,8.86,1.35,8.86s2-.52,2.43-4.8a17.51,17.51,0,0,0-1.34-8s1,1,1.74,1.93a51.67,51.67,0,0,1,3,4.74,11.77,11.77,0,0,0-.09-6.1c-1-3.13-4.19-8.11-4.19-8.11a9.52,9.52,0,0,1,4,3.53C91.44,78.66,94,85.49,94,85.49a27,27,0,0,0-.61-8.83C92.23,73,88.22,67,88.22,67a16.86,16.86,0,0,1,4,4.82,80.76,80.76,0,0,1,4.45,10A18.1,18.1,0,0,0,97,73.36c-1-4.34-4.88-10-4.88-10s1.57.72,4.45,3.85,8.2,10.6,8.2,10.6,1-5.46-3.58-13.33S88.39,55.22,88.39,54.9s2.79.56,6,1.93,7.33,5.38,7.33,5.38.54-2.08-1.55-5.13A20.88,20.88,0,0,0,94,51.77a26.38,26.38,0,0,1,9.94,6.1c4.36,4.42,10.81,14.21,10.81,14.21s.82-2.54-2.58-8.24A68.77,68.77,0,0,0,103.74,53l1.92,1.12a29.8,29.8,0,0,1,3.23,2.49s1-.81-2.38-5.39-10.87-9.39-10.87-9.39a37.19,37.19,0,0,1,10.29,5.54c4.62,3.69,10.46,12.36,10.46,12.36s.85-4.55-5.34-12.09S92.23,35.71,92.23,35.71a27.71,27.71,0,0,1,15.44,5.22c7.67,5.46,15.7,16.54,15.7,16.54s1-3.54-6.15-11.49-19-15-21.15-15.25-12-1-19.53,3.13S67.72,44.54,66.76,48.4s-4.27,9.55-11.6,10.11c-4.27.33-6.65-.79-8.51-2.6a20.34,20.34,0,0,1-4.48,3.57c-1.69.78-8.58,2.33-8.74,1.55s-4.6-7.44-5.36-9,0,5.27-1.84,6.2S21,57.78,21,57.78a3.25,3.25,0,0,0-1.16-1.08c-.68-.31-1.8-.87-1.8-.87l-2.85,1.75-.78-1.5-.61-1-2.76,1.5L9.74,57.66"/><path class="cls-5" d="M107.25,40.38c7.67,5.24,15.7,15.88,15.7,15.88a42.2,42.2,0,0,0-9.42-16.19,30.61,30.61,0,0,0-17.88-9.48c-2.18-.23-12-.93-19.53,3s-8.81,10.25-9.77,14a12.75,12.75,0,0,1-11.6,9.71c-4.27.31-6.65-.76-8.51-2.49a20.24,20.24,0,0,1-4.48,3.43c-1.69.74-8.58,2.23-8.74,1.49s-4.6-7.15-5.36-8.63,0,5.06-1.84,6-5.21-.45-5.21-.45a3.19,3.19,0,0,0-1.16-1c-.68-.3-1.59-2.5-1.59-2.5l-3.06,3.34L14,54.92l-.61-1-2.76,1.44-.94,1c-1.51,7.1,1.51,12.4,4.22,16.1a53.25,53.25,0,0,0,9.59,9.25c1.48,1.08,6.19,7.09,7.41,8.4a26.31,26.31,0,0,0,5.67,4.32c2.18,1.23,5.32,5.86,7,7.4s3.84,1.54,6.28,1.23,2.7-1.85,3.31-2.08,4,1,5.93,0,2.44-3.47,3.31-5.16S67.49,91.95,69,91a11.21,11.21,0,0,0,2.62-2.54c.61-.62,2-2.62,2.79-3.39a6.25,6.25,0,0,1,2.35-1.7c.7-.15.35,6.4.35,6.4a4.12,4.12,0,0,0,1.22-2.24,34.23,34.23,0,0,0,0-6.09,6,6,0,0,1,.87,1.62c.17.69.41,4.65.41,4.65a4.72,4.72,0,0,0,1.6-1.91c.7-1.39-.09-6.75-.09-6.75A8,8,0,0,1,82.4,81.7c.52,1.7,2.44,9.4,2.44,9.4s1.66-1.39,1.57-5.47a24.3,24.3,0,0,0-1.57-7.71s1,1,1.74,1.85a49.34,49.34,0,0,1,3,4.55,10.87,10.87,0,0,0-.09-5.86c-1-3-4.19-7.79-4.19-7.79a9.45,9.45,0,0,1,4,3.39c1.74,2.54,4.27,9.1,4.27,9.1A24.9,24.9,0,0,0,93,74.68c-1.13-3.55-5.15-9.25-5.15-9.25a16.42,16.42,0,0,1,4,4.63,76,76,0,0,1,4.45,9.56,16.72,16.72,0,0,0,.35-8.09c-1-4.16-4.88-9.56-4.88-9.56s1.57.69,4.45,3.7,8.2,10.18,8.2,10.18,1-5.24-3.58-12.8S88,54.1,88,53.79s2.79.54,6,1.85,7.33,5.16,7.33,5.16a9.84,9.84,0,0,0-2.09-5.16,19.08,19.08,0,0,0-5.67-4.86,26.66,26.66,0,0,1,9.94,5.86c4.36,4.24,10.81,13.64,10.81,13.64s0-3.16-3.4-8.63a62.51,62.51,0,0,0-7.59-9.71L105.25,53a29.66,29.66,0,0,1,3.23,2.39,32.89,32.89,0,0,0-4.71-8,20.54,20.54,0,0,0-8.55-6.17,37.77,37.77,0,0,1,10.29,5.32C110.13,50.09,116,58.42,116,58.42s-.7-6.78-6.89-14-17.27-9-17.27-9A28.54,28.54,0,0,1,107.25,40.38Z"/><path class="cls-6" d="M72.28,49.75c.91-2.66-1.69-15.44,12.77-18,8.32-1.46,16.34.69,21.65,2.78a29.05,29.05,0,0,0-11-4c-2.18-.23-12-.93-19.53,3s-8.81,10.25-9.77,14a12.75,12.75,0,0,1-11.6,9.71c-4.27.31-6.65-.76-8.51-2.49-.46.42-.9.82-1.32,1.18A15.37,15.37,0,0,0,56,61.77C66.67,62.53,71.36,52.41,72.28,49.75Z"/><path class="cls-7" d="M11.58,61.31a15.77,15.77,0,0,0,4.1,11.19A35.61,35.61,0,0,0,24,79.62s-6.25-8.75-7.19-13A60.31,60.31,0,0,1,15.9,56s-4.41,0-4.83.5S11.58,61.31,11.58,61.31Z"/><path class="cls-3" d="M67.49,88.36c-2.71,1.81-11.44,7.32-17.71,7.41S35.55,89.67,28.94,84.82c-4.69-3.44-9.2-6.72-11.43-8.33a61.15,61.15,0,0,0,6,5.21c1.48,1.08,6.19,7.09,7.41,8.4a26.31,26.31,0,0,0,5.67,4.32c2.18,1.23,5.32,5.86,7,7.4s3.84,1.54,6.28,1.23,2.7-1.85,3.31-2.08,4,1,5.93,0,2.44-3.47,3.31-5.16S67.49,91.95,69,91a11.21,11.21,0,0,0,2.62-2.54c.61-.62,2-2.62,2.79-3.39a6.58,6.58,0,0,1,2.28-1.67C76.49,83,70.2,86.55,67.49,88.36Z"/><path class="cls-8" d="M16.27,24.14s-8-.15-8.2-3.08,4.36-2.62,4.1-2.93S9.12,16,9.91,14.81s4.19-.69,4.27-1.16-2.18-1.16-1.48-2,2.11-.38,2.72-1.31S16.44,8,17.83,8s.52,2.49,3.14,2.41S23.68,7.58,26.12,8s1.48,3.42,2.09,3.42S29.61,9,30.66,9.26s-.14,5.2.82,5.43,1.71-3.35,3.46-2.81,4.53,4,3.75,5.63-1.48,4.55-3,4.7-6.1.54-6.1.54Z"/><path class="cls-9" d="M34.51,17.49c-1.27-.51-2.16,1.67-3,1.52s-1.27-2.46-2.46-3-2.24.51-2.83.43-1-.87-2.91-1.23-3.16,1.14-3.76,1.36-4.15,0-4.52.38.48,1.6-.27,2.25.24,1.39-.28,2.63-4.69.79-5.72.54c2,1.7,7.49,1.81,7.49,1.81l13.34-1.39,4.84-.42a10.75,10.75,0,0,0,1.62-1.65C36.67,19.81,35.77,18,34.51,17.49Z"/><path class="cls-10" d="M25.58,69.51s4.56,9.67,20.07,14S66,87.59,66,87.59,61.72,86.16,59.06,85A28.55,28.55,0,0,1,55.25,83a66.07,66.07,0,0,0,8.94,2.61,20.92,20.92,0,0,0,6.28.42,48.55,48.55,0,0,1-8.08-2.61A36.29,36.29,0,0,1,59,81.7s7.42,2.86,9.32,2.94l1.9.08S65.14,83.55,63,82l-2.19-1.51a64.85,64.85,0,0,0,7,2.77,6.2,6.2,0,0,0,2.19.08s-5.71-4.12-6.75-5S51.83,67.83,49.07,66a24.92,24.92,0,0,0-3.42-2.1"/><path class="cls-11" d="M49.65,84.54c2-.5,3.88-1.26,2.08-1.76-2.86-.79,2.45-1.19,1-1.59s3-.26,2.32-.93,5.18,1.19,2-1.59,3.41-.26,2-1.32,2.32.66,1.23-1.46l-.19-.4c-3.59-3.25-8-9.06-9.78-10.48-5.22-4.13-12.41-8.86-12.41-8.86L22,49.61l-.27,18.92s-1,7.62,20.5,14.67C43.62,83.67,48.4,84.22,49.65,84.54Z"/><path class="cls-12" d="M43,50.19c-3.14-3.93-2.62-12.56-4.53-18s-6.8-10.79-8.2-12.1-5.41-2.7-9.51-2-4.19,5-4.19,5,.78,1.62,1.22,2.77,1.4,11.87.52,14.8S12.35,47.18,10.08,55a16.47,16.47,0,0,0,1.07,12.2c.16-.93.45-2.69.65-4.21.29-2.19.86-6.64,1-5.55s1.52,10.68,1.81,9.5.57-10.68.57-10.68,1,7.06,1.24,6.3,1.62-8,1.62-8,3.33,15.55,3.8,14,.1-7.4.57-6.47,1.62,3.19,1.71,2.35.38-5,.38-5,2.19,2.44,2.38,1.85,1.9,1.26,1.81-.17-1.14-5.3-.48-6.89l.67-1.6s5.23,13.53,5.52,11.85a12.77,12.77,0,0,0,0-3.53,33.76,33.76,0,0,1,3.23,5c.48,1.35,2,3,1-1.34s3.71,1.09,3.71,1.09S40.13,59.85,41,60.52s4,2.69,3.52,1.26-1-4.79,1.33-2.69S53,62.28,50,59.43l-2.95-2.86,3.8,1.85-1.55-2C46.49,55.18,45,52.78,43,50.19Z"/><path class="cls-13" d="M20.72,18c-4.1.69-4.19,5-4.19,5l.13.27L17,24c.15.32.32.7.47,1.07s.21.51.3.75a61.65,61.65,0,0,1,.88,10.87c0,.56,0,1.09,0,1.58,0,.16,0,.32,0,.48a9.38,9.38,0,0,1-.28,1.88,4.49,4.49,0,0,1-.21.56c-.66,1.46-2.19,3.13-3.8,5.4-.14,1.26-.31,2.94-.31,3.92,0,1.7-.13,3.3-.13,3.3S17,46.53,17,47.55s-.13,5.8-.13,5.8,2.83-7.5,2.7-5.34.26,7.39.26,7.39,1.54-8.86,1.54-7.61.51,7.73.9,5.91,2.57-11.59,2.44-9.89,1.54,12,1.54,12,.64-17.5.77-14.55,5.4,18.18,5.4,16.71c0-1.09-.83-10.41-1.28-14.27,1.26,4.69,6.56,17.1,5.65,13.59-1-4-3.47-16.82-3.47-16.82S43.91,60.85,41.46,55s-3.86-8.3-4.11-11.59c-.14-1.82-.32-3.39-.46-4.38.49,2.48,1.92,8.56,3.67,10.75a7.06,7.06,0,0,0,4,2.39l-.89-1.15L43,50.19c-.12-.15-.23-.32-.34-.49a9.39,9.39,0,0,1-.82-1.54,14.52,14.52,0,0,1-.5-1.37Q41,46,40.85,45.14c-.14-.63-.27-1.29-.39-2-.15-.88-.29-1.78-.41-2.69s-.23-1.69-.36-2.52c-.19-1.25-.39-2.48-.65-3.63a20.32,20.32,0,0,0-.62-2.19c-1.92-5.47-6.8-10.79-8.2-12.1a5.72,5.72,0,0,0-1.31-.87L28.48,19A14,14,0,0,0,23,17.86,13.47,13.47,0,0,0,20.72,18Z"/><path class="cls-8" d="M17.16,27.49a1.19,1.19,0,0,1-.35,1.67c-1,.82-5,1.59-5.65,3.62s.12,3.51,1.18,5A5.23,5.23,0,0,1,13,42.22c-.37.82-1.3,2.31.12,2.52s1.74-1.21,3-1,.5,1.21,3,.88,3.48-1,4-2.2,1.06-8.18.19-9.71-1.68-3.35-.87-3.46,4.78-.33,4.28-3-2.17-2-2.36-2.69,1.55-2.63-1.18-3a6.48,6.48,0,0,0-4.59,1,3.8,3.8,0,0,1-1.8.16L16.12,23l.15,1.1Z"/><path class="cls-14" d="M10.39,27.5a4.67,4.67,0,0,1,3.44-3,6.15,6.15,0,0,1,2.46-.4,5.56,5.56,0,0,1,.86,2.09c0,.77,0,1.27,0,1.27a8.08,8.08,0,0,0-3.86-.43A27.37,27.37,0,0,0,10.39,27.5Z"/><path class="cls-15" d="M17.16,27.49h0s0-.5,0-1.26c-.42,0-1.86,0-3.21.2a14.45,14.45,0,0,0-3.55,1.07h0A18.75,18.75,0,0,1,15,27.33c1.66.29,2.32.39,2.32.39Z"/><path class="cls-16" d="M26.62,26.3c0-.14-.06-.28-.09-.4l0-.12a3.82,3.82,0,0,0-.15-.43,2.94,2.94,0,0,0-.15-.3l-.07-.11c-.69-1.07-1.72-.83-1.86-1.33s.4-1.16.37-1.83c0,0,0-.07,0-.11a1,1,0,0,0-.05-.21c-.14-.38-.55-.69-1.49-.8a7.34,7.34,0,0,0-2.41.07l-.13,0a5.5,5.5,0,0,0-.79.25l-.24.1c-.38.17-.67.35-.91.48l-.13.06a2.6,2.6,0,0,1-1,.2h0a5.12,5.12,0,0,1-.58,0h-.2a2.47,2.47,0,0,0,1.9.23c1.1-.3,4.44-1.81,4.68-.6s0,2.44.38,2.74,1.82,1.07,1.72,2.44-1.17,1.47-2.13,1.64-2.69.17-2.41,1.64,1.72,3.41,1.72,6.05.31,6.62-1.2,7.22a5.79,5.79,0,0,1-4,.3c.91-.12.86-.74,1.08-1.38s-1.43-1-1-3.54,1.43-.54,2.1-4.07a7.14,7.14,0,0,0-1.32-5.79s-.11,1.07-.22,2.36-.55,1.18-2.43,2,0,3.64.55,4.71,0,2.68-.33,4.07A1.38,1.38,0,0,0,15.87,43c-.24,0-.17.32.16.72h0c1.24.22.5,1.21,3,.88,2.33-.31,3.35-1,3.87-2l.1-.21a27.94,27.94,0,0,0,.59-7.74,5.34,5.34,0,0,0-.41-2c-.76-1.34-1.47-2.9-1.1-3.34l0,0,.05,0,.13,0a9.65,9.65,0,0,0,3-.7l.18-.09a2.9,2.9,0,0,0,.49-.34l.14-.13A1.82,1.82,0,0,0,26.62,26.3Z"/><path class="cls-7" d="M35.1,86.24s7.18,7,13.26,7.42,12.95-2.88,12.95-2.88S46.8,89.12,43.68,88.36,35.1,86.24,35.1,86.24Z"/><path class="cls-5" d="M29.4,75.67C33.77,78.91,41,80.32,41,80.32S33,75.2,30.19,69.85c-1.4-2.68-3.08-6.06-4.48-5.46S22.37,70.46,29.4,75.67Z"/><path class="cls-7" d="M83.09,33.8s6.23-3.81,18.35-.11S119.2,50.16,119.2,50.16,108.59,36.94,99.13,35.48A150.42,150.42,0,0,0,83.09,33.8Z"/><path class="cls-7" d="M76.17,40a8.31,8.31,0,0,0,4.15-1.23,16.51,16.51,0,0,1,11.54-1.91c5.54,1.12,8.65,2.35,12.11,4.93s8.31,9.53,8.31,9.53-7.61-8.41-14.77-10.53S76.17,40,76.17,40Z"/><path class="cls-7" d="M80.67,40.86s8.88-1.68,15.92,2.58,9,8.18,9,8.18-5.54-5-10.15-6.28l-4.62-1.23s7,2.69,9.23,5.38,8,9.3,8,9.3S102.13,52,97.17,50.5s-13.15-2-10.38-1,5.65,1.46,8,3.7a20.64,20.64,0,0,1,3.12,3.59S93.93,53.3,89.44,53s-5.31-.45-5.31-.45,7,2.47,10,5.27,7.15,10.76,7.15,10.76S96,61.37,92.09,60.25,74,61.26,78,60.13,84.47,57,80.9,57.22s-10.15-.78-6.58-2.47,11-5.94,8.54-5.83-11.08-1-7-2.35S87.24,42.76,83.44,43s-7.5.11-6.23-.22A15.5,15.5,0,0,0,80.67,40.86Z"/><path class="cls-7" d="M79.27,63.92c.65.13,2.35-1.14,5.75,1.65s7.06,9.65,7.06,9.65a12.45,12.45,0,0,0-6.27-5.84c-4.44-1.78-2.48,1-1.18,2.79A24.83,24.83,0,0,1,88,78l.52,1.65a57.63,57.63,0,0,0-5.1-3.94c-2.48-1.65-1-1.27,0,1.78s.91.89-1.44-.63S75,71.29,77,71.67s6.54-.76,4.57-2.16S75.74,66.08,78.09,66s5.1-.38,3.14-.63S79.27,63.92,79.27,63.92Z"/><path class="cls-16" d="M21.43,23.73a1.64,1.64,0,0,0-1.56-1.45,1.48,1.48,0,0,0-1.62,1.31,1.45,1.45,0,0,0,1.46,1.15A1.81,1.81,0,0,0,21.43,23.73Z"/><ellipse class="cls-17" cx="19.68" cy="23.52" rx="1.12" ry="1.05"/><path class="cls-18" d="M20.78,23.66a1,1,0,0,0,0-.14,1.12,1.12,0,0,0-2.23,0,1,1,0,0,0,0,.1,1.51,1.51,0,0,0,1.06.32A2.74,2.74,0,0,0,20.78,23.66Z"/><ellipse class="cls-19" cx="19.98" cy="23.07" rx="0.31" ry="0.34"/><ellipse class="cls-19" cx="19.14" cy="23.1" rx="0.16" ry="0.17"/><path class="cls-1" d="M49.14,119.43a1.45,1.45,0,0,1,0,.86s-.19-.71-.74-.81c-.32-.06-.5-.18-.48-.35.05-.39-.33-.55-.23-.67A2.53,2.53,0,0,1,49.14,119.43Z"/><path class="cls-20" d="M72.89,115.68a1.71,1.71,0,0,1,.2,1s-.38-.77-1-.75c-.38,0-.62-.08-.63-.3,0-.46-.51-.56-.42-.72A3,3,0,0,1,72.89,115.68Z"/><path class="cls-1" d="M49.5,117.9a1.45,1.45,0,0,0-.26.82s.39-.62,1-.54c.32,0,.53,0,.56-.19.07-.39.48-.43.42-.57A2.53,2.53,0,0,0,49.5,117.9Z"/><path class="cls-1" d="M59.16,120.06a1.54,1.54,0,0,0,.12.78,1.4,1.4,0,0,1,.71-.73.88.88,0,0,0,.44-.8c0-.4-.26-.45-.41-.44A1.93,1.93,0,0,0,59.16,120.06Z"/><path class="cls-1" d="M36.13,122a1.54,1.54,0,0,0,.12.78A1.4,1.4,0,0,1,37,122a.88.88,0,0,0,.44-.8c0-.4-.26-.45-.41-.44A1.93,1.93,0,0,0,36.13,122Z"/><path class="cls-1" d="M24.47,119.54a1.93,1.93,0,0,0-.24,1.11s.44-.87,1.19-.84c.43,0,.7-.09.72-.33,0-.52.58-.63.48-.81A3.36,3.36,0,0,0,24.47,119.54Z"/></svg>