<svg id="Animals&#x52A8;&#x7269;" xmlns="http://www.w3.org/2000/svg" viewbox="0 0 128 128" width="128" height="128"><defs><style>.cls-1{fill:#ac7139;stroke:none;}.cls-2{fill:#4d3423;stroke:none;}.cls-3,.cls-4{fill:#95582a;stroke:none;}.cls-3{opacity:0.58;stroke:none;}.cls-5{fill:#965a2b;stroke:none;}.cls-6{fill:#ac7a53;stroke:none;}.cls-7{fill:#6a3d15;fill-rule:evenodd;stroke:none;}</style></defs><title>animals&#x52A8;&#x7269;</title><path class="cls-1" d="M106.81,69.13c-1.22-.94-15.42-13.6-17.59-13.71s-18.86,2.14-25.29,1.53-8.45-2.25-9.18-2.21-8.06.44-8.83.08-3.44-3-6.86-8.67a105.23,105.23,0,0,0-7.25-10.25,1.8,1.8,0,0,1,.24-.19c.7-.44,1.17-1,2-.92s.27-2.22,1.18-2.94S33.6,31,32.8,30.94s-1.35,2.25-2.36,3.14A1.42,1.42,0,0,1,28.32,34c-.37-.29.46-2.67.94-3.86s2.51-4.11,4.11-4.76,4.14-.25,7.85-.91A94.52,94.52,0,0,1,52,22.76c2.9-.1,6.87,2.5,10.45,5.09s6.43,3.4,6.82,2.61-3-2.18-5.45-3.89S58.38,21.19,57,20s-1.23-1.8-1.29-3.23.48-1.76,1.26-3.4a19.39,19.39,0,0,0,1.2-6.25c0-1.54-.13-3-1-2.93s-.52,1.3-.49,2.33-.38,3-3,6.73S48.54,20.68,46.11,21s-4.41-1.7-5-2.23-.12-4.29-.18-7.09-.36-3.72-1.1-3.74-.48,2.5-.51,5-.71,8-3.73,8.08-6.5-3.58-8.26-4.81-3.44-3.73-3.72-3.68,0,1.54.67,2.64a19.23,19.23,0,0,0,4.09,4,4,4,0,0,1,2,2.62c.27,1.21.13,2.23-1.16,2.49a3.26,3.26,0,0,1-3-1c-.57-.64-3.18-1.9-5-3.48s-2.61-3.31-2.89-3.26-.08,1.77.57,2.81a15.11,15.11,0,0,0,3.36,3.45,3.44,3.44,0,0,1,1.1,3,9.55,9.55,0,0,1-3.49-.14c-1.73-.27-4.74-3.65-5.18-3.43s2.68,4.23,3.83,5.06,5,1.09,6.31,1.17,1,1.34.93,2.31c-.07.7-.2,2.79-.26,3.91-2.46.76-7.15,3.91-7.31,4.49a2.83,2.83,0,0,1-1.57,2.36c-1.47.82-5.41,2.79-5.55,3.18a2.06,2.06,0,0,0,.44,1.84A14.25,14.25,0,0,1,13.11,48c.26.35.73,1.27,1.31,1.34s4.91.17,5.4.52,1.73.9,1.86,1.87.36,1.61-.39,2.16-2.16,1.49-2,2.64,1.35,6.77,1.87,7.58,3.85,6.71,4.59,7.36,4.56,4.16,6,6.93,3.58,6.82,4.92,7.94,3.35,2,3.39,2.42,1.46,11.63,2.34,13.3,1.75,3.24,1.8,4.61.48,11.43,0,12-1.66,1.28-1.63,1.68a2.33,2.33,0,0,1-.6,1.76c-.49.33-1.94.7-1.84,1.16s.3.86,1.21.88,3.6.14,3.81-.14.28-2.16.83-2.44,1.59-.08,1.45-1.05-.71-5.84-.35-7.77a23.83,23.83,0,0,0,.72-5.12l-.23-2.8s1.48-.77,1.69-1.62.35-2.73.71-1.75,3.5,15.56,3.24,15.95-3.12,3.7-2.56,4.22,3.73.37,4.07.26,1.59-.71,1.54-1.34.06-2.05.49-2.39,1.35-.94.82-1.87a18.38,18.38,0,0,1-1.71-5.64c-.23-2.06-.55-12.35-1.14-16s-1.2-6.31-1.2-6.31,4.23.84,5.91.54S71,86.69,74.69,86.78,81.6,87,82,88.54a14.85,14.85,0,0,0,4.66,8.22c3.56,3.17,7.7,6.4,7.93,8.46S92.57,119.28,92,120s-3,1.93-3.05,2.39-.36,1.88,1.06,1.85,3.75-.09,4.07-.42a1.91,1.91,0,0,0,.76-1.87c-.15-1.15.21-1.65.54-1.76a1.67,1.67,0,0,0,.91-2.09,5.74,5.74,0,0,1,.2-3.82c.4-.68,5.2-10.9,5.2-10.9s2.49,1.14,2.69,2.17,1.23,10.19.86,10.47-1.39.48-1.4,1.05,0,1.94-.68,2.1-2,.75-2,1.32.21,1.2.73,1.22,5.7.07,5.77-.5a10,10,0,0,1,.86-2.78,2.4,2.4,0,0,0,.9-2.21c-.22-1.26-1.69-12.26-1.58-13s1-2.26,0-3.48-4.76-5.93-4.77-6.79-1-6.88-.67-7.5,2.59-5.94,2.43-7.94l-.35-4.23a8.84,8.84,0,0,0,3.6-.55,10.23,10.23,0,0,0,2.52-2.57S108,70.07,106.81,69.13Z"/><path class="cls-2" d="M11.06,44.6a2.06,2.06,0,0,0,.44,1.84l.52.47A12.15,12.15,0,0,0,12.79,45c.19-.52-.41-.8-1-.95A2.24,2.24,0,0,0,11.06,44.6Z"/><path class="cls-2" d="M19.39,39.21a6.25,6.25,0,0,0,.11,1.31c.12.44.81.32,1.55.3s1.29-.23.69-.68a5.87,5.87,0,0,0-1.61-1A.8.8,0,0,0,19.39,39.21Z"/><path class="cls-3" d="M89.22,55.42c-2.17-.11-18.86,2.14-25.29,1.53s-8.45-2.25-9.18-2.21-8.06.44-8.83.08-3.44-3-6.86-8.67a105.23,105.23,0,0,0-7.25-10.25,1.8,1.8,0,0,1,.24-.19c.7-.44,1.17-1,2-.92s.27-2.22,1.18-2.94S33.6,31,32.8,30.94s-1.35,2.25-2.36,3.14A1.42,1.42,0,0,1,28.32,34c-.37-.29.46-2.67.94-3.86s2.51-4.11,4.11-4.76,4.14-.25,7.85-.91A94.52,94.52,0,0,1,52,22.76c2.9-.1,6.87,2.5,10.45,5.09s6.43,3.4,6.82,2.61-3-2.18-5.45-3.89S58.38,21.19,57,20s-1.23-1.8-1.29-3.23.48-1.76,1.26-3.4a19.39,19.39,0,0,0,1.2-6.25c0-1.54-.13-3-1-2.93s-.52,1.3-.49,2.33-.38,3-3,6.73S48.54,20.68,46.11,21s-4.41-1.7-5-2.23-.12-4.29-.18-7.09-.36-3.72-1.1-3.74-.48,2.5-.51,5-.71,8-3.73,8.08-6.5-3.58-8.26-4.81-3.44-3.73-3.72-3.68,0,1.54.67,2.64a19.23,19.23,0,0,0,4.09,4,4,4,0,0,1,2,2.62c.27,1.21.13,2.23-1.16,2.49a3.26,3.26,0,0,1-3-1c-.57-.64-3.18-1.9-5-3.48s-2.61-3.31-2.89-3.26-.08,1.77.57,2.81a15.11,15.11,0,0,0,3.36,3.45,3.44,3.44,0,0,1,1.1,3,9.55,9.55,0,0,1-3.49-.14c-1.73-.27-4.74-3.65-5.18-3.43s2.68,4.23,3.83,5.06,5,1.09,6.31,1.17,1,1.34.93,2.31c-.07.7-.2,2.79-.26,3.91a21.29,21.29,0,0,0-4.27,2.15,19.29,19.29,0,0,1,4.17-.41c2.32.12,4.66-.44,6.08,1.23s9,13.29,8.12,16.13-2.07,7.11-.93,7.75,1.75-.23,3.34-1.56,5.82-2.87,7.87-2.68,5.53-.62,6.68.22,3.37,3,7.24,2.82S90.69,55.49,89.22,55.42Z"/><path class="cls-1" d="M33.37,25.36c1.6-.65,4.14-.25,7.85-.91A94.52,94.52,0,0,1,52,22.76c2.9-.1,6.87,2.5,10.45,5.09s6.4,3.39,6.82,2.62L68,30.09a28.73,28.73,0,0,1-6.16-3.61c-1.43-1.09-5.68-3.81-7.7-5.13s-2.74.22-4,.62-7,1.19-10.39,1.67A29,29,0,0,0,33.37,25.36Z"/><path class="cls-1" d="M56.67,6.53c0,1-.38,3-3,6.73-1.84,2.67-3.67,5.29-5.44,6.69h.07c1.39-.32,2-.88,4.22-3.66a37.73,37.73,0,0,0,4.51-7.9c.6-1.33.11-4.18.11-4.18C56.31,4.24,56.64,5.5,56.67,6.53Z"/><path class="cls-1" d="M36,21.85c3.34-.76,3.34-7.26,3.25-9.26,0,.09,0,.19,0,.28,0,2.45-.71,8-3.73,8.08s-6.5-3.58-8.26-4.81A14.49,14.49,0,0,1,25,13.93l-.06,0S32.09,22.75,36,21.85Z"/><path class="cls-1" d="M18.53,27.19c1.15.83,5,1.09,6.31,1.17a1.26,1.26,0,0,1,.48.12c-.51-.52-1.45-1.46-1.88-1.82-.61-.51-1.68.17-3.93-.51s-4.81-4-4.81-4C14.26,22.35,17.38,26.36,18.53,27.19Z"/><path class="cls-1" d="M30.8,36.95s4.64-.91,4.78-5.37c0-1.35-2-.56-2.78-.63,0,0-.36,1.24-.77,2.22A2.71,2.71,0,0,1,29.92,35a4,4,0,0,0-1.86,1.3A5.12,5.12,0,0,1,30.8,36.95Z"/><path class="cls-1" d="M28.32,34c-.37-.29.46-2.67.94-3.86s2.51-4.11,4.11-4.76c0,0-3.16.33-4.82,4.18s-1.53,4.64-.89,4.65a7.31,7.31,0,0,1,1.18.16A3.44,3.44,0,0,1,28.32,34Z"/><path class="cls-4" d="M27.38,44.54c.61-2-.5-.92-.85-.09a7,7,0,0,1-2.28,3c-1.13.75-11.14.6-11.14.6.26.35.73,1.27,1.31,1.34s4.91.17,5.4.52a33.19,33.19,0,0,0,4.83-1.05C26.62,48.18,26.77,46.57,27.38,44.54Z"/><path class="cls-4" d="M38.59,86.46c.83-.19-3.63-5-7-11.54S26,59,25.54,56.37s2.78-7.94,3.28-9.62-2.08,2.9-2.38,3.53-5.06.66-5.06.66h-.12a1.53,1.53,0,0,1,.41.81c.14,1,.36,1.61-.39,2.16s-2.16,1.49-2,2.64,1.35,6.77,1.87,7.58,3.85,6.71,4.59,7.36,4.56,4.16,6,6.93A56.39,56.39,0,0,0,36,85.66,7.17,7.17,0,0,0,38.59,86.46Z"/><path class="cls-5" d="M104.82,77.47l-.35-4.23a8.84,8.84,0,0,0,3.6-.55,4.32,4.32,0,0,0,.73-.53l0,0s-1.52.25-4-1.43-4.85-5.31-4.6-4,.32,13.28-1.87,16.61S93.7,90,93.84,91.73s.76,6.76-.47,7.15c-.95.3-3.54-.22-4.71-.39,3,2.57,5.76,5,5.94,6.73.23,2.06-2,14.06-2.61,14.73s-3,1.93-3.05,2.39-.36,1.88,1.06,1.85,3.75-.09,4.07-.42a1.91,1.91,0,0,0,.76-1.87c-.15-1.15.21-1.65.54-1.76a1.67,1.67,0,0,0,.91-2.09,5.74,5.74,0,0,1,.2-3.82c.4-.68,5.2-10.9,5.2-10.9s2.49,1.14,2.69,2.17,1.23,10.19.86,10.47-1.39.48-1.4,1.05,0,1.94-.68,2.1-2,.75-2,1.32.21,1.2.73,1.22,5.7.07,5.77-.5a10,10,0,0,1,.86-2.78,2.4,2.4,0,0,0,.9-2.21c-.22-1.26-1.69-12.26-1.58-13s1-2.26,0-3.48-4.76-5.93-4.77-6.79-1-6.88-.67-7.5S105,79.48,104.82,77.47Z"/><path class="cls-6" d="M104.82,77.47l-.35-4.23a6.05,6.05,0,0,1-1.31-.41l-.66-.3s.94,5.43-.74,9.75-4,7.35-3.67,9.12,1.08,7.19,1.62,7.83,1.85,1.24,2,2.5a6.15,6.15,0,0,1,0,1.59s2.49,1.14,2.69,2.17,1.23,10.19.86,10.47-1.39.48-1.4,1.05,0,1.94-.68,2.1-2,.75-2,1.32.21,1.2.73,1.22,5.7.07,5.77-.5a10,10,0,0,1,.86-2.78,2.4,2.4,0,0,0,.9-2.21c-.22-1.26-1.69-12.26-1.58-13s1-2.26,0-3.48-4.76-5.93-4.77-6.79-1-6.88-.67-7.5S105,79.48,104.82,77.47Z"/><path class="cls-4" d="M82.94,82.89a33.73,33.73,0,0,0-5.82,1c-2.56.63-11.07.64-14.65.49s-5.83.07-8-1.35-3.28-4.82-4.07-4.43-.53,1.91,0,2.82,1.58,3.34,1,4.63S47.74,89,47.66,89.72s-1.12,13.18-1.43,14.42-.81,1.84-.32,2.81-.14,10,.33,10.74a23.68,23.68,0,0,1,1.23,2.75c-.15-1.15-.68-5.8-.34-7.69a23.83,23.83,0,0,0,.72-5.12l-.23-2.8s1.48-.77,1.69-1.62.35-2.73.71-1.75,3.5,15.56,3.24,15.95-3.12,3.7-2.56,4.22,3.73.37,4.07.26,1.59-.71,1.54-1.34.06-2.05.49-2.39,1.35-.94.82-1.87a18.38,18.38,0,0,1-1.71-5.64c-.23-2.06-.55-12.35-1.14-16s-1.2-6.31-1.2-6.31,4.23.84,5.91.54S71,86.69,74.69,86.78,81.6,87,82,88.54C82,88.54,84.1,82.85,82.94,82.89Z"/><path class="cls-6" d="M55.91,110.67c-.23-2.06-.55-12.35-1.14-16s-1.2-6.31-1.2-6.31a4.35,4.35,0,0,1-1.36,0l-.36-.15s-.42,6.6-.88,8.58-1,4.71-1,4.71c.37,1,3.5,15.56,3.24,15.95s-3.12,3.7-2.56,4.22,3.73.37,4.07.26,1.59-.71,1.54-1.34.06-2.05.49-2.39,1.35-.94.82-1.87A18.38,18.38,0,0,1,55.91,110.67Z"/><path class="cls-4" d="M82.35,79.69s.4-5.59,1.76-8,3.26-6.39,1.61-5.57-7.57,7.32-7.5,8.19-1.54,4.27,1,5.54S82.35,79.69,82.35,79.69Z"/><path class="cls-7" d="M43.71,121.17c-1-.17-1.21.19-1.21.19a1.41,1.41,0,0,1-.47.76c-.49.33-1.94.7-1.84,1.16s.3.86,1.21.88,3.6.14,3.81-.14a12.31,12.31,0,0,0,.37-1.57A2.45,2.45,0,0,0,43.71,121.17Z"/><path class="cls-7" d="M54.51,118.85c-1.37-.57-2-.29-2.24-.17-.87,1.12-1.92,2.61-1.57,2.95.56.53,3.73.37,4.07.26s1.59-.71,1.54-1.34a5.9,5.9,0,0,1,0-1C55.8,119.34,55.16,119.12,54.51,118.85Z"/><path class="cls-7" d="M93.49,121.18a3.35,3.35,0,0,0-2.08-.73c-.93.68-2.45,1.53-2.47,1.89s-.36,1.88,1.06,1.85,3.75-.09,4.07-.42a1.94,1.94,0,0,0,.78-1.49C94.47,121.95,94,121.57,93.49,121.18Z"/><path class="cls-7" d="M107.65,121.17a11.91,11.91,0,0,1,.38-1.61,6.87,6.87,0,0,0-2.42-1,4.46,4.46,0,0,0-1.91-.07.8.8,0,0,1-.55.64c-.73.15-2,.75-2,1.32s.21,1.2.73,1.22S107.58,121.74,107.65,121.17Z"/></svg>