<svg id="Animals&#x52A8;&#x7269;" xmlns="http://www.w3.org/2000/svg" viewbox="0 0 128 128" width="128" height="128"><defs><style>.cls-1{fill:#d28e51;stroke:none;}.cls-2{fill:#f9b7ae;stroke:none;}.cls-3{fill:#ae5c20;stroke:none;}.cls-3,.cls-8{opacity:0.47;stroke:none;}.cls-4,.cls-7,.cls-8{fill:#ffd4ac;stroke:none;}.cls-4{opacity:0.31;stroke:none;}.cls-5{fill:#f1b986;opacity:0.49;stroke:none;}.cls-6{fill:#9c5931;stroke:none;}.cls-9{fill:#fcee21;stroke:none;}.cls-10{fill:#f8f8a9;stroke:none;}.cls-11{fill:#1a1a1a;stroke:none;}</style></defs><title>animals&#x52A8;&#x7269;</title><path class="cls-1" d="M23.91,48.12s-.9-1.66-1.28-2.27-2.09-5.12-3.08-4.93S18,43.71,18,45.46a6.75,6.75,0,0,0,.14,2,10,10,0,0,0-2.37-2.23c-.9-.38-2.42-1.61-2.89-1.33s-.43,2.56.28,4.83,1.09,2.46,1.09,2.46L12,53.8a3.41,3.41,0,0,0-1.61,2.89c0,1.9.43,3.36-.09,4.36S8.89,63.9,9,64.23a4.31,4.31,0,0,0,1,.95,3.28,3.28,0,0,0,1.18,1.37,5.75,5.75,0,0,1,1.85,1.28,2.13,2.13,0,0,0,2.8.52c1.56-.76,3.74-1.94,4.22-2s2.65-.71,2.84-.52a11.49,11.49,0,0,0,2.75,2,11.82,11.82,0,0,1,2.7,1.37c.28.38.81,4,1.23,5.07s.76,2.56.19,3.32-11.52,8.63-12.7,10.66-5.26,6.3-3.74,8.48,5.12-.81,5.36-1.94,1.18-2.94,1.94-3.22,1.94-.9,2-1.23,1-.81,1.9-1,6.54-1.85,9.1-3.65,3.6-2.94,4.12-3.08A4.8,4.8,0,0,0,40,81.1a6.57,6.57,0,0,1,2-1.9,3.28,3.28,0,0,1,.71-.09s3,1,3.7,1.8a17.35,17.35,0,0,1,2.7,5.88A38.5,38.5,0,0,0,49.79,92a16.52,16.52,0,0,1,.62,4.27c-.09.62-.28,1.66-.62,1.66s-1.42-.43-2,0S46,99.21,46,99.49s.47,2.37.85,2.42,4.36.28,4.79.24,1.9,0,2.32-1.37.57-3.27.81-3.41A3.41,3.41,0,0,0,56,94.8a28.41,28.41,0,0,1,0-5,78.09,78.09,0,0,0,1-8,18.43,18.43,0,0,0-.24-3s4.45-.43,6.07-.38,7.2-.47,9.38-.76a33.36,33.36,0,0,0,3.93-.76,64,64,0,0,0,4.55,5.26c1.18,1,6,5,4.88,6.63s-4.64,6-6,6.4-2.32-.24-3.27.33-1.8,1.42-1.8,2.23,1.75,2.37,2.46,2.32a30.62,30.62,0,0,0,5-.52c.81-.33,2.51-2.27,3.46-2.84a44.49,44.49,0,0,0,4.88-4.08,32.51,32.51,0,0,1,2.65-3c.52-.28,1.9-1.33,1-2.8s-2-4.69-1.85-6,.47-2.56.47-2.56,7.63,5.17,10.81,5.92,5.73.9,6.49,1.71,8,8.81,6.78,10.14-2.09,2.18-2.09,3.08.14,1.56.66,1.71,3.46.71,4,.47,2.32-1.37,2.32-1.9a12.48,12.48,0,0,1,.33-2.18A3.2,3.2,0,0,0,122,94c-.9-1.75-3.41-7.2-3.93-8.67s-1.33-4.93-1.61-5.12-2.42-.52-3.7-1.9-3.18-5.88-3.84-8.44a41.72,41.72,0,0,0-4.22-9.86,21.66,21.66,0,0,0-3.22-4s-.28-3.84.52-4.64,10.09-8.48,11.66-18.25-4.79-21.8-14.31-22.23c-5.09-.23-3.36,5.12-.14,5.45,2.24.23,8.63,7,8.63,11.66s-1.33,11-7.2,15A43.24,43.24,0,0,1,89.5,48.59a19.45,19.45,0,0,0-8.81-.09c-5.12,1-17.49,3.08-21,3.08S51.83,50.16,47.28,50s-6.11-.33-8.39,0A14.57,14.57,0,0,1,33,49.87a12.23,12.23,0,0,0-4.22-.52c-1.42.09-1.94.09-1.94.09a3.32,3.32,0,0,0-1.23-.95C25,48.31,23.91,48.12,23.91,48.12Z"/><path class="cls-2" d="M15.48,47.6A9.84,9.84,0,0,0,12.85,44c-.44.36-.39,2.57.31,4.8s1.09,2.46,1.09,2.46S16.41,49.69,15.48,47.6Z"/><path class="cls-2" d="M20.23,51.51c2.43-.54,2.42-3.64.33-7.43a12.21,12.21,0,0,1-.84-3.15.38.38,0,0,0-.17,0c-1,.19-1.56,2.8-1.56,4.55a7.86,7.86,0,0,0,.14,2v0s.75,2.24.8,2.61S18.71,51.85,20.23,51.51Z"/><path class="cls-3" d="M27.67,53.58c1.59.18,2.95-.18,4.36.53s2.59,1.47,4.07,1,6.25-2.89,5.13-1.36S37,58.3,37,61.36s.88,8.14,2.89,9a40.59,40.59,0,0,1,5.42,2.89c1.24.77,2.42,1.12,3.3.77s1.71-.65,1.71.41a49.33,49.33,0,0,0,.41,7.37c.41,1.89.94,5.25,2.36,4.83s.71-5.31,1.59-6.13,2.06-2.06,1.95-3.36a3.55,3.55,0,0,0-.83-2.42c-.53-.59-1.77-1.18-1.89-3.36S52.9,64.14,53.44,64s1.3,4.48,5.84,4.83,5.42-1.71,6.9-1.06,5.48,4.72,10.08,3.3,7.25-4.24,5.54-7.61-4.89-4.3-6.25-5-6.54-2.71-8-3.12S62,53.23,64.34,53.17s7.49-.24,9.2-.77,3.66-2.42,4.89-.53,1.36,4.48,4.07,6.31,8,3.48,8.9,7.31,0,7.9.88,8.78,4.72,3.83,6,5,3.54,3.48,4.6,3.6a48,48,0,0,1,6.6,1.95c1.3.53,2.65,2,4,.94s1.24-4.19,1.53-4.66a7.48,7.48,0,0,1,.88-1,7,7,0,0,1-3.14-1.7c-1.28-1.37-3.18-5.88-3.84-8.44a41.72,41.72,0,0,0-4.22-9.86,21.66,21.66,0,0,0-3.22-4s-.28-3.84.52-4.64,10.09-8.48,11.66-18.25-4.79-21.8-14.31-22.23c-5.09-.23-3.36,5.12-.14,5.45,2.24.23,8.63,7,8.63,11.66s-1.33,11-7.2,15A43.24,43.24,0,0,1,89.5,48.59a19.45,19.45,0,0,0-8.82-.09c-5.12,1-17.49,3.08-21,3.08S51.83,50.16,47.28,50s-6.11-.33-8.39,0A14.57,14.57,0,0,1,33,49.87a12.23,12.23,0,0,0-4.22-.52c-1.42.09-1.94.09-1.94.09a3.32,3.32,0,0,0-1.23-.95c-.62-.19-1.66-.38-1.66-.38S26.08,53.41,27.67,53.58Z"/><path class="cls-4" d="M51.43,59.54A35.58,35.58,0,0,0,55.68,62c1.53.65,2.24.83,3.3,1.3s3.89.41,6.49.29,3.07,0,4.54.53,3.36,1.59,3.54-.12.12-5.54-3.89-6-7.55-.83-8.84-1.41-3.36-3.24-6.37-1.77S49,57.83,47.24,57.65s-2.89-1.53-5.31.65-.59,7.43.88,9.85,5.19,3.24,6.84,2.12,2.54-4.6,2.18-6.6A32.57,32.57,0,0,1,51.43,59.54Z"/><path class="cls-5" d="M85.27,49.28s-2.59.12-2.65,2.48,1,3.89,5.37,5.54,6.66,2.18,7.72,6,.71,7.78,1.89,10.08,3.66,6,5.84,6.66,6.78,2.3,7.13,1.06-3.18-5.6-5-7.72-4.83-7.19-5.19-9.37.35-10-3.83-12S85.27,49.28,85.27,49.28Z"/><path class="cls-6" d="M101.45,56a27.12,27.12,0,0,0,1,7.69c1.12,3.71,6.46,6.2,6.46,6.2a41.72,41.72,0,0,0-4.22-9.86A21.66,21.66,0,0,0,101.45,56Z"/><path class="cls-6" d="M101.35,55.37h.07c0-1.13,0-3.39.55-4,.81-.81,10.09-8.48,11.66-18.25s-4.79-21.8-14.31-22.23c-3.19-.14-3.7,1.9-2.85,3.52,5.17-.78,9.48,2.48,12.4,7.44,3.11,5.29.9,15.62-3.05,20.12C99.39,49.29,94,48.85,93.23,48.91s.25.62,3.3,1.68C99.74,51.71,101.35,55.37,101.35,55.37Z"/><path class="cls-6" d="M55.85,74.69a6.14,6.14,0,0,1-1.51-1.77,1.82,1.82,0,0,0-2,1.84,4.46,4.46,0,0,0,.7,3,4.89,4.89,0,0,1,1.7-2.46,10.69,10.69,0,0,1,1.17-.61Z"/><path class="cls-7" d="M36.8,74.41l-2.11-1.87c-1.58-1.41-2.69-3.57-5.39-5a20.53,20.53,0,0,0-6.39-1.76,11.49,11.49,0,0,0,2.75,2,11.82,11.82,0,0,1,2.7,1.37c.28.38.81,4,1.23,5.07s.76,2.56.19,3.32-11.52,8.63-12.7,10.66-5.26,6.3-3.74,8.48c1.1,1.59,3.31.44,4.52-.75-1.55.19-3.25-.11-3.2-1.57s3.63-3.51,5.09-4.51,2.28-3.1,5.68-6.32,7-4,8-4.8-1-2.75-2.11-3.57-1.93-5.33-1.93-5.33,1.35,1.35,2.75,2.58S36.8,74.41,36.8,74.41Z"/><path class="cls-8" d="M13,67.2a4.64,4.64,0,0,0,3.64-1.07c.47-.67-.16-1.66-1.54-2.22s-3,0-3.72-.4-.16-1.39.08-2.26A6.79,6.79,0,0,0,11,58a4.63,4.63,0,0,1,.2-2.69c.1-.36-.16-.39-.44-.32a2.94,2.94,0,0,0-.44,1.69c0,1.9.43,3.36-.09,4.36a16.16,16.16,0,0,0-1.21,2.83,1.69,1.69,0,0,1,1.06.18c.2.08.63-.12.63-.12a9.87,9.87,0,0,0,.08,1A3.11,3.11,0,0,0,13,67.2Z"/><path class="cls-3" d="M16,58s.85,2.09-.59,2.71-3.11.51-3.11.14.14-1,.76-.85S14.17,60.5,15,60A3,3,0,0,0,16,58Z"/><path class="cls-3" d="M17.16,50.95a6.38,6.38,0,0,0-2.57,1.44c-1,1-1.44,1.89-1.27,2.21s2.21.45,1.36.74-2.8,1-2.8,1.47,1-.34,1.92-.14,2.12.62,2.88.14,1.78-1.87,2.77-2,2.46-.45,2.26-1.27-1.5-1.13-2.54-1-1.7.28-2.15-.2S17.16,50.95,17.16,50.95Z"/><path class="cls-7" d="M49.79,97.93c-.33,0-1.42-.43-2,0S46,99.21,46,99.49s.47,2.37.85,2.42,4.36.28,4.79.24,1.9,0,2.32-1.37a11.19,11.19,0,0,0,.29-1.19,1.86,1.86,0,0,1-1.64.57c-1.16-.32-.42-4.16-.51-6.94a22.9,22.9,0,0,0-3.33-10.41,13.29,13.29,0,0,0-6.89-5.5c-1.34-.56-.51.19.32.65a1.74,1.74,0,0,1,.87,1.3,10.43,10.43,0,0,1,3.3,1.66,17.35,17.35,0,0,1,2.7,5.88A38.49,38.49,0,0,0,49.79,92a16.52,16.52,0,0,1,.62,4.27C50.31,96.88,50.12,97.93,49.79,97.93Z"/><path class="cls-7" d="M81.34,96.36c1.53-.14,6-4.58,6.15-7.91.13-3-5.27-5.49-6.23-5.9,1.64,1.4,5.38,4.74,4.4,6.23-1.09,1.66-4.64,6-6,6.4s-2.32-.24-3.27.33-1.8,1.42-1.8,2.23,1.75,2.37,2.46,2.32a2,2,0,0,1-.42-2.82C77.18,96.27,79.81,96.5,81.34,96.36Z"/><path class="cls-6" d="M89.48,89.93C88.37,91,88.32,93,86.94,95.16c-.24.37-.49.72-.73,1a49.76,49.76,0,0,0,4.19-3.59,32.52,32.52,0,0,1,2.65-3S90.59,88.87,89.48,89.93Z"/><path class="cls-9" d="M15.43,57.82a1.81,1.81,0,0,0-1.79-.18c-.68.4-.44,2.23.64,2.13S15.53,58,15.43,57.82Z"/><path class="cls-6" d="M76.23,76.88s7.72-2.81,10-2.71,2.88.21,2.78-.26-.41-2.73-2.37-2.37S76.23,76.88,76.23,76.88Z"/><path class="cls-10" d="M14.18,59.49c-.09,0-.46-.27-.59-.83s.14-.85.38-.85.57,0,.57.19-.29.4-.3.73S14.27,59.45,14.18,59.49Z"/><path class="cls-11" d="M13.89,57.87a.94.94,0,0,0-.14.88c.14.44.43.68.57.64s-.16-.11-.34-.69S14,57.87,13.89,57.87Z"/><path class="cls-7" d="M11.24,63.39c-.46-.45,0-1.34.23-2.13A6.79,6.79,0,0,0,11,58a4.63,4.63,0,0,1,.2-2.69c.1-.36-.16-.39-.44-.32a2.94,2.94,0,0,0-.44,1.69c0,1.9.43,3.36-.09,4.36a16.16,16.16,0,0,0-1.21,2.83,1.69,1.69,0,0,1,1.06.18c.2.08.63-.12.63-.12A4.11,4.11,0,0,0,11.24,63.39Z"/></svg>