<svg id="Animals&#x52A8;&#x7269;" xmlns="http://www.w3.org/2000/svg" viewbox="0 0 128 128" width="128" height="128"><defs><style>.cls-1{fill:#d2d3d5;stroke:none;}.cls-2{fill:#f3f4f4;stroke:none;}.cls-3{fill:#d0d1d3;stroke:none;}.cls-4{fill:#e6e7e9;stroke:none;}.cls-5{fill:#151110;stroke:none;}.cls-6{fill:#e0e1e3;stroke:none;}.cls-7{fill:#e6e7e8;stroke:none;}.cls-8{fill:#dcdddf;stroke:none;}.cls-9{fill:#d3d3d5;stroke:none;}</style></defs><title>animals&#x52A8;&#x7269;</title><path class="cls-1" d="M86.91,84.57s-.69,6.51-1.59,8.62-1.38,3.12-2.54,3.28-2.91-.37-3.86.32-1.69,2-.11,2.17a87.77,87.77,0,0,0,11,.85c5.77.11,6.19.26,6-1.59s2-5.87,2.49-7.2,1.06-2.75,1.06-2.75A34,34,0,0,0,93.08,85,14.75,14.75,0,0,0,86.91,84.57Z"/><path class="cls-2" d="M12.06,54.93a4,4,0,0,1-2.35,2.5c-1.69.48-4.55,1.43-5.13,2.12a3.78,3.78,0,0,0-.05,3.12,7.49,7.49,0,0,0,1.06,1s-.37.79,2.06,1.32,14.65,2.12,17.41,3.07,4.55,3.39,9.1,4.92,7.94,1.9,8.52,2.59.79,2.75-1.9,10.42-4.07,9.31-5.18,9.68-2.12.05-3.12.79-1.75,1.59-.85,1.85,4.18.63,10.05.58,7.62-.26,7.46-1.16a4.44,4.44,0,0,1,.32-3.49c.85-1.64,2.75-5.56,2.75-5.56l3.92,7s1,1.9-.58,2.49-3.28.48-4.23,1.38-1,1.9.85,2.12,10.58.53,12.8-.26,5.5-5.5,5.18-7.51a39.91,39.91,0,0,0-2.43-8.46c-1.22-2.8-2.27-4.71-2.27-4.71a54.42,54.42,0,0,0,10.74,3.23,95,95,0,0,0,10.74.63s-.69,6.51-1.59,8.62-1.38,3.12-2.54,3.28-2.91-.37-3.86.32-1.69,2-.11,2.17a87.78,87.78,0,0,0,11,.85c5.77.11,6.19.26,6-1.59s2-5.87,2.49-7.2,1.06-2.75,1.06-2.75,5.13,4,7.25,5.56,4.39,2.65,4.29,3.7-1.06,1-2,1.48-2.27,1.27-1.22,1.85a12.46,12.46,0,0,0,6.19,1.11c2.8-.16,4-.53,6.67-4.81s4.44-6.51,3.17-6.72a11.11,11.11,0,0,1-5.45-3.86,6.86,6.86,0,0,1-1.27-7c1-3.23,3.28-14.23-2.27-23.54S99.18,43.94,92.62,43.89,80.88,46.16,74.47,46.8s-13.86,0-16.19-.85-6.56-2.38-10-1.22-5.13,2.38-9.63,3.65-13.23,2.23-16.35,3C12.68,53.83,12.06,54.93,12.06,54.93Z"/><path class="cls-3" d="M52.2,88.7S50.6,86,49.49,84.3s-6.81-8.73-6.81-8.73c.58.69.79,2.75-1.9,10.42s-4.07,9.31-5.18,9.68-2.12.05-3.12.79-1.75,1.59-.85,1.85,4.18.63,10.05.58,7.62-.26,7.46-1.16a4.43,4.43,0,0,1,.32-3.49C50.3,92.61,52.2,88.7,52.2,88.7Z"/><path class="cls-4" d="M49.69,93.78a35.22,35.22,0,0,1-3.37-3.41,69,69,0,0,1-4.73-6.81c-.24.75-.51,1.56-.82,2.45-2.7,7.67-4.07,9.31-5.18,9.68s-2.12.05-3.12.79-1.75,1.59-.85,1.85,4.18.63,10.05.58,7.62-.26,7.46-1.16a4.43,4.43,0,0,1,.32-3.49Z"/><path class="cls-5" d="M14,57.41s.54-.91,1.22-.81a1.15,1.15,0,0,1,.91.63s-.09.54-.86.54A2.31,2.31,0,0,1,14,57.41Z"/><path class="cls-6" d="M85,81.64c-6.68-2-19.29-4.51-21.46-6.18s1.84,5.25,1.84,5.25a54.41,54.41,0,0,0,10.74,3.23,95,95,0,0,0,10.74.63s-.69,6.51-1.59,8.62-1.38,3.12-2.54,3.28-2.91-.37-3.86.32-1.69,2-.11,2.17a87.77,87.77,0,0,0,11,.85c5.77.11,6.19.26,6-1.59s2-5.87,2.49-7.2,1.06-2.75,1.06-2.75a28.77,28.77,0,0,0-3.47-2.43C93.46,84.3,91.72,83.62,85,81.64Z"/><path class="cls-6" d="M66.59,48c.39-.33.75-.65,1.06-.95a42,42,0,0,1-8.85-.93c1.15,1.32,2.67,3.26,2.86,4.19.31,1.46.46,4.85,1.54,2.69S65,49.3,66.59,48Z"/><path class="cls-6" d="M46.66,52.61c-.31-.46-4.31,2.62-5.23,8.08s1.08,10.69,1.31,8.62.15-7,1.69-10.77S47,53.07,46.66,52.61Z"/><path class="cls-6" d="M27.12,52.22l.54.85a2.6,2.6,0,0,1,2.77.69c1.15,1.31-.85,4.15-.85,4.15a5.23,5.23,0,0,1,.77,2.46c-.08,1.08-.08,2.77.62,1.31s2.62-4.62,1.54-8.85c-.33-1.31-.62-2.3-.85-3-2.46.4-4.95.77-6.89,1.11A5.77,5.77,0,0,1,27.12,52.22Z"/><path class="cls-5" d="M28.71,57s-1.34-2.06-.54-2.77,2.24-.63,1.61,1.16S28.71,57,28.71,57Z"/><path class="cls-6" d="M93.3,77.88c-.43.51-2.13-2.48-1.62-8.71s2.82-6.4,3.41-5.72-1.62,4.61-1.88,8.28S93.73,77.37,93.3,77.88Z"/><path class="cls-7" d="M123.73,90.44a5.66,5.66,0,0,1-1.58-.61A24.29,24.29,0,0,1,117,96.5a6,6,0,0,1-6,1c-.11,1.06-1.06,1-2,1.48s-2.27,1.27-1.22,1.85a12.46,12.46,0,0,0,6.19,1.11c2.8-.16,4-.53,6.67-4.81S125,90.65,123.73,90.44Z"/><path class="cls-7" d="M62.48,99.63a22.75,22.75,0,0,1-6.95-1.46c-1.53.58-3.28.48-4.23,1.38s-1,1.9.85,2.12,10.58.53,12.8-.26a6.69,6.69,0,0,0,2.38-1.83C66.18,99.63,64.47,99.69,62.48,99.63Z"/><path class="cls-8" d="M49.13,97.74a8.17,8.17,0,0,1-.22-1.49,49,49,0,0,1-5.31.19,26.72,26.72,0,0,1-7.22-1.25,2.2,2.2,0,0,1-.79.49c-1.11.37-2.12.05-3.12.79s-1.75,1.59-.85,1.85,4.18.63,10.05.58S49.29,98.64,49.13,97.74Z"/><path class="cls-9" d="M99.39,88.27A17.61,17.61,0,0,0,93.08,85a21.07,21.07,0,0,0-6.18-.47s-.69,6.51-1.59,8.62-1.38,3.12-2.54,3.28-2.91-.37-3.86.32-1.69,2-.11,2.17a87.77,87.77,0,0,0,11,.85c5.77.11,6.19.26,6-1.59s2-5.87,2.49-7.2S99.39,88.27,99.39,88.27Z"/><path class="cls-4" d="M92.34,91.1a15.29,15.29,0,0,0-5.83-3.42,28.47,28.47,0,0,1-1.19,5.51c-.9,2.12-1.38,3.12-2.54,3.28s-2.91-.37-3.86.32-1.69,2-.11,2.17a87.77,87.77,0,0,0,11,.85c5.77.11,6.19.26,6-1.59a6.39,6.39,0,0,1,.43-2.3A22.34,22.34,0,0,0,92.34,91.1Z"/><path class="cls-8" d="M78.92,96.79c-1,.69-1.69,2-.11,2.17a87.77,87.77,0,0,0,11,.85c5.77.11,6.19.26,6-1.59,0,0,0-.05,0-.08a32.46,32.46,0,0,1-5.75-.19,70.36,70.36,0,0,1-7.31-1.47C81.62,96.63,79.87,96.1,78.92,96.79Z"/><path class="cls-5" d="M6.27,63.67c-.53,0-.85-.34-1.36-.89a1.62,1.62,0,0,1-.4-.84l.15-.05c.54-.18.72-.59.91-1.22.12-.42-.45-.93-.85-1.24l-.12.12a3.29,3.29,0,0,0-.31,2.23h0V62h0a1.79,1.79,0,0,0,.22.66,7.48,7.48,0,0,0,1.06,1h0v0h0a.43.43,0,0,0,0,.3h0l.06.11h.18c1.22,0,2-.62,1.94-.71A14.55,14.55,0,0,0,6.27,63.67Z"/></svg>