<svg xmlns="http://www.w3.org/2000/svg" viewbox="0 0 128 128" width="128" height="128"><defs><style>.cls-1{isolation:isolate;stroke:none;}.cls-2{fill:#716a67;stroke:none;}.cls-3{fill:#8e8681;stroke:none;}.cls-4{fill:#716966;stroke:none;}.cls-5{fill:#7d7875;stroke:none;}.cls-6{fill:#f8c1b6;stroke:none;}.cls-7{fill:#f3a99c;stroke:none;}.cls-8{fill:#918a82;stroke:none;}.cls-9{fill:#504c4a;stroke:none;}.cls-10{fill:#a19993;stroke:none;}.cls-11{fill:#74706d;opacity:0.4;mix-blend-mode:multiply;stroke:none;}.cls-12{fill:#272623;stroke:none;}.cls-13{fill:#756d6a;stroke:none;}.cls-14{fill:#8e8680;stroke:none;}.cls-15{fill:#6f6b68;stroke:none;}.cls-16{fill:#d3cecb;stroke:none;}.cls-17{fill:#0e3249;stroke:none;}.cls-18{fill:#081c27;stroke:none;}.cls-19{fill:#fff;stroke:none;}</style></defs><title>animals&#x52A8;&#x7269;</title><g class="cls-1"><g id="Animals&#x52A8;&#x7269;"><path class="cls-2" d="M99.85,111.34a11.24,11.24,0,0,0,8.44-.15c4.38-1.95,11.19-6.69,8.52-12-1.12-2.23-5.88-2.12-9.12.85C103.14,104.15,99.85,111.34,99.85,111.34Z"/><path class="cls-3" d="M55.15,11.86c-.62-.37-5.21.12-8.93,4.7a37.53,37.53,0,0,0-4.91,7.27s-.5-11.76-3.47-11.51-6.56,7.43-7.55,14.85a77.78,77.78,0,0,0-.62,13.49S22,43,20.52,44.62,13.59,54,12.84,55.14,9.25,58,9.25,60.84s.5,7.05,2.48,8.17,7.8,3.59,7.8,3.59.12,7.92,3.84,13.61S34,97,34,97s0,5.07-.87,5.69S31.29,105,29.55,105s-3.22-.12-4.08,1.36-2.85,3.09-1,3.59l1.86.5,1.24.74s-.5,1.73.62,2,3,.37,4.08.62,10,1.24,12.62-.62,9.16-10.64,9.16-10.64,6.81.74,8.42,1.86a20.84,20.84,0,0,0,5,2.52A6.6,6.6,0,0,1,70,108.74s-2,2.23,0,3a9.64,9.64,0,0,0,3,.74s.25,1.61,3.84,1.86,16,.5,19.18-.25,3.84-2.72,3.84-2.72,3.36-2.94,4.84-4.17,8.77-5.23,7.78-12.41-3.09-15.6-8.54-22S91.07,58.36,79.56,56.51,65.2,54.4,59,55s-10.15,1.61-11.26,1-2.23-4.58-2.85-6.93a10.43,10.43,0,0,1-.35-2.26,2.88,2.88,0,0,1,.83-2.15,34.42,34.42,0,0,0,8.81-15.77C56.53,18.76,55.77,12.23,55.15,11.86Z"/><path class="cls-4" d="M37.85,11.46c-3,.25-6.56,8.29-7.55,15.72a77.78,77.78,0,0,0-.62,13.49A8.12,8.12,0,0,0,34,39.05c1.73-1.49,2.72-5,4.08-8.66a36.17,36.17,0,0,1,3.22-6.56S40.82,11.21,37.85,11.46Z"/><path class="cls-5" d="M96,114.06c3.22-.74,3.84-2.72,3.84-2.72s13.3-1.05,12.62-16.59a40.78,40.78,0,0,0-2.56-11.19,16.25,16.25,0,0,0-8-2.18c-6.17.33-12.67,11.17-15.84,15.34s-8,2.83-11-1-1.27-10.35-1.27-10.35a10.74,10.74,0,0,0-1.89,5.54A16.19,16.19,0,0,0,73,96.15a24.05,24.05,0,0,1-5.26.57A25.38,25.38,0,0,1,59.1,95s0-.83.17-6.34a17,17,0,0,0-2-8.94,15.08,15.08,0,0,1-.12,6.68c-.87,4.08-2,8.25-6.17,12.43s-11.63,3.27-12.8,3.15c-.86-.09-1-10.55-4.68-11.87A20.14,20.14,0,0,1,27,84.23c-3.22-4.33-3.16-10.12-3.28-10.49s-4.14-1.14-4.14-1.14h0s.12,7.92,3.84,13.61S34,97,34,97s0,5.07-.87,5.69S31.29,105,29.55,105s-3.22-.12-4.08,1.36-2.85,3.09-1,3.59l1.86.5,1.24.74s-.5,1.73.62,2,3,.37,4.08.62,10,1.24,12.62-.62,9.16-10.64,9.16-10.64,6.81.74,8.42,1.86a22.44,22.44,0,0,0,4.87,2.84A9.33,9.33,0,0,1,70,108.74s-2,2.23,0,3a9.64,9.64,0,0,0,3,.74s.25,1.61,3.84,1.86S92.8,114.8,96,114.06Z"/><path class="cls-6" d="M42.37,45.26a30.28,30.28,0,0,0,9.85-13.75c2.92-8.76,2.64-17.06,1.66-17.18S45.53,20.69,43.71,27.5,42.37,45.26,42.37,45.26Z"/><path class="cls-7" d="M46.07,22.3a19.43,19.43,0,0,0-2.36,5.2c-1.82,6.81-1.34,17.76-1.34,17.76A45.79,45.79,0,0,0,47.6,32.61C49.73,23.88,46.82,22.51,46.07,22.3Z"/><path class="cls-8" d="M27.57,111.21c.26-.14.54-3.17,4.2-4.14s7.26-.86,7.77.51.69,4.29-3.09,4.63a44.06,44.06,0,0,1-8.86-.46Z"/><path class="cls-9" d="M33.36,109A5.22,5.22,0,0,0,31,110.57c-1.53,1.58-.92,2.72-.92,2.72l.38.25.47.06a3.5,3.5,0,0,1,.64-2.41C32.55,109.92,33.36,109,33.36,109Z"/><path class="cls-10" d="M96.6,66.3a81.73,81.73,0,0,1,7.34,6.42c-5.45-6.44-12.87-14.36-24.38-16.21S65.2,54.4,59,55s-10.15,1.61-11.26,1c0,0,1.09,1.8,6.51,1.21s18-.59,25.71,1.42S92.59,63.24,96.6,66.3Z"/><path class="cls-11" d="M31.65,74.07A30.16,30.16,0,0,1,19.53,72.6l-1.23-.53,1.23.53a31.89,31.89,0,0,0,.61,5.09,51.39,51.39,0,0,0,10.66-1c7.66-1.44,10.4-10.06,10.4-10.06S38.83,73.57,31.65,74.07Z"/><path class="cls-5" d="M19.53,72.6h0Z"/><path class="cls-5" d="M19.45,72.57h0Z"/><path class="cls-5" d="M19,72.37l-.34-.15-.35-.15Z"/><path class="cls-5" d="M41.19,66.66a15.69,15.69,0,0,1-.87,2A8.74,8.74,0,0,0,41.19,66.66Z"/><path class="cls-5" d="M19.42,72.55h-.06Z"/><path class="cls-5" d="M19,72.38l.29.12Z"/><path class="cls-5" d="M19.54,72.95h0Z"/><path class="cls-5" d="M19.58,73.56v0Z"/><path class="cls-5" d="M19.65,74.37v0Z"/><path class="cls-5" d="M19.61,73.95v0Z"/><path class="cls-5" d="M19.53,72.65h0Z"/><path class="cls-5" d="M19.53,72.76v0Z"/><path class="cls-5" d="M19.69,74.83v0h0Z"/><path class="cls-10" d="M73.74,102.24a23.34,23.34,0,0,1-7.32.7,19.6,19.6,0,0,1-8.57-3s-1.73,2-2.51,2.77a23,23,0,0,1,6.79,2c3.68,2.19,6.3,3.93,8.3,4.09,1,.08,1.88-.71,2.67-.86a9.15,9.15,0,0,0,3.36-1.25A17.61,17.61,0,0,0,75,104.4,11.72,11.72,0,0,1,73.74,102.24Z"/><path class="cls-10" d="M97.71,73.32s-10.4-2.85-17.29,2.74-6.78,15.43-3.72,16.2,5.58-9.19,10.4-12.48S97.71,73.32,97.71,73.32Z"/><path class="cls-10" d="M50.43,70.91c.11.56,3.11,10.46,0,15.68S41,95.71,38.08,93s1.33-8.68,5.23-12.9A78.14,78.14,0,0,0,50.43,70.91Z"/><ellipse class="cls-10" cx="32.2" cy="61.92" rx="8.15" ry="4.75" transform="translate(-8.67 5.35) rotate(-8.37)"/><path class="cls-10" d="M29.61,37.58q0-.41,0-.87Q29.61,37.16,29.61,37.58Z"/><path class="cls-10" d="M29.68,40.66h0s-.07-1.16-.07-3.09C29.61,39.5,29.68,40.66,29.68,40.66Z"/><path class="cls-10" d="M30.57,25.46q-.06.33-.12.67Q30.51,25.8,30.57,25.46Z"/><path class="cls-10" d="M30.05,29.22c.07-.67.15-1.35.24-2,0-.28.08-.55.12-.83,0,.28-.09.55-.12.83C30.2,27.87,30.12,28.55,30.05,29.22Z"/><path class="cls-10" d="M29.66,34.7c0-.72.06-1.48.12-2.29C29.73,33.22,29.69,34,29.66,34.7Z"/><path class="cls-10" d="M30.45,26.13l0,.21Z"/><path class="cls-10" d="M41.31,23.83h0a36.17,36.17,0,0,0-3.22,6.56c-1.36,3.71-2.35,7.18-4.08,8.66a8.12,8.12,0,0,1-4.33,1.61h0S22,43,20.52,44.62,13.59,54,12.84,55.14c-.41.61-1.46,1.42-2.32,2.49a24.76,24.76,0,0,0,3.21-1.07c1.51-.81,6.64-9.66,8.26-11.41S31.67,42.25,34.23,41s4.54-7.45,4.54-8.73,2.54-8.41,2.54-8.41Z"/><path class="cls-10" d="M30.6,25.3l0,.17Z"/><path class="cls-10" d="M41.19,66.66s-7,3.52-12.3,3.85a16.4,16.4,0,0,1-9.28-2.32s-6.19-2.87-7.79-3.43c-.84-.29-1.39.83-1.72,2A4.13,4.13,0,0,0,11.73,69c2,1.11,7.8,3.59,7.8,3.59s5.25,1.73,8.34,1.81C39.46,74.7,41.19,66.66,41.19,66.66Z"/><path class="cls-5" d="M22.81,64.38c-.09,2.46-2.63,4.52-5.69,4.41s-5.65-2.46-5.56-4.92,2.81-4.26,5.87-4.15S22.9,61.92,22.81,64.38Z"/><path class="cls-5" d="M11.07,68.48a2.22,2.22,0,0,0,1-1.14,4.76,4.76,0,0,0-.23-2.59,9,9,0,0,0-2.56-3.91C9.25,63.35,9.62,66.9,11.07,68.48Z"/><path class="cls-12" d="M9.25,60.84a2.38,2.38,0,0,0,2,.49,21.65,21.65,0,0,0,3.45-1.18s0,1.27-1,1.56c-1.75.52-1.86.93-2,1.44a9.48,9.48,0,0,0,.31,2.7A7.77,7.77,0,0,1,11,63.77a3.32,3.32,0,0,0-1.36-2.16A.81.81,0,0,1,9.25,60.84Z"/><path class="cls-13" d="M71.55,108.13a8.47,8.47,0,0,1,8.18-3.39c5.57.75,7,2.56,6.92,4s.46-2-7.19-2.66A13.94,13.94,0,0,0,71.55,108.13Z"/><path class="cls-14" d="M70,108.74s2.91-3.65,9-3,7,2.23,6.94,3.49-4.43,2.46-9.14,2S70,108.74,70,108.74Z"/><path class="cls-9" d="M73.69,113.38a6.82,6.82,0,0,1,.89-3.14A9.21,9.21,0,0,1,78,107.37a5.62,5.62,0,0,0-3.3,1.28,6.09,6.09,0,0,0-1.68,3.8l.23.47A2.23,2.23,0,0,0,73.69,113.38Z"/><path class="cls-15" d="M58.79,98.86A16.39,16.39,0,0,0,59.1,95a18.13,18.13,0,0,1-2.27,4.44c-1.25,1.53-2.78,3.06-2.78,3.06s1.36.15,3,.41A16.61,16.61,0,0,0,58.79,98.86Z"/><path class="cls-9" d="M28.84,106.44a2.88,2.88,0,0,0-2.07,1.34,6.78,6.78,0,0,0-1,2.54l.57.15a6.13,6.13,0,0,1,1.17-2.89A14.36,14.36,0,0,1,28.84,106.44Z"/><path class="cls-16" d="M34.6,52.12a5.15,5.15,0,0,0-5.08-4.38c-4.26-.07-5.33,3.13-5.29,4A4.63,4.63,0,0,0,29,55.2C32.42,55.22,34.57,52.82,34.6,52.12Z"/><ellipse class="cls-17" cx="28.89" cy="51.47" rx="3.65" ry="3.19"/><path class="cls-18" d="M32.48,51.89a2.77,2.77,0,0,0,0-.42,3.44,3.44,0,0,0-3.65-3.19,3.44,3.44,0,0,0-3.65,3.19,2.74,2.74,0,0,0,0,.3,5.19,5.19,0,0,0,3.47,1A9.54,9.54,0,0,0,32.48,51.89Z"/><ellipse class="cls-19" cx="29.84" cy="50.1" rx="1" ry="1.03"/><circle class="cls-19" cx="27.11" cy="50.2" r="0.52"/></g></g></svg>