<svg id="Animals&#x52A8;&#x7269;" xmlns="http://www.w3.org/2000/svg" viewbox="0 0 128 128" width="128" height="128"><defs><style>.cls-1{fill:#402f18;stroke:none;}.cls-2{fill:#32220e;stroke:none;}.cls-3{fill:#ae692e;stroke:none;}.cls-4{fill:#412515;stroke:none;}.cls-5{fill:#35220f;stroke:none;}.cls-6{fill:#231605;stroke:none;}.cls-7{fill:#b16a2d;stroke:none;}.cls-8{fill:#201205;stroke:none;}.cls-11,.cls-9{fill:#231f20;stroke:none;}.cls-10{fill:#fff;stroke:none;}.cls-11{opacity:0.26;stroke:none;}</style></defs><title>animals&#x52A8;&#x7269;</title><path class="cls-1" d="M81.13,103.42a7.2,7.2,0,0,1-.51.63A7.19,7.19,0,0,0,81.13,103.42Z"/><path class="cls-1" d="M80.6,104.07l-.29.3Z"/><path class="cls-1" d="M81.93,101.7c0,.1,0,.21-.08.31C81.89,101.91,81.91,101.8,81.93,101.7Z"/><path class="cls-1" d="M81.34,103.11l-.18.27Z"/><path class="cls-1" d="M81.71,102.42a4.84,4.84,0,0,1-.33.63A4.84,4.84,0,0,0,81.71,102.42Z"/><path class="cls-1" d="M81.83,102.1l-.09.24Z"/><path class="cls-1" d="M116.66,106.22c-.22-2.32-3.64-3.09-5.18-3.31a6.23,6.23,0,0,1-4.3-3.31c-1-1.87-2.21-4.41-2.21-4.41s10-4.63,9.37-12.57S107.62,69.4,107,66.2,105.64,49.11,92.3,35.55s-23.7-10-25-11.58S65,13.83,60.88,10.52,54.26,6,47.65,6s-13,0-14.33,2.32A6.72,6.72,0,0,0,33,13.39s-5.29,5.18-5.4,6.62,2.65,2.76,1.43,3.53-7.17,3.09-7.28,4.52,1.21,2.43,1.1,2.87a5.63,5.63,0,0,0,.22,3.75c.77,1.54,5.4,7.72,9.15,8.16s13.56-.77,13,.44S41.14,49.66,40,53.63,39.6,67.52,38.6,67.52s-8.71,3-14.33,8.93S12.92,92.66,12,94.2A28.35,28.35,0,0,0,8.95,105c-.33,4.85,2.31,6.21,3.63,6.1s.45-6.87,1.44-7,1.65,4.63,4.19,4.63,6.28-.44,6.84-1.65-1.43-1.21-1.32-2.65a9.85,9.85,0,0,0,.09-2.47s1-5.89,2.23-8.45a17.93,17.93,0,0,1,9.26-8.49c5.07-2,12.24-5.4,14.11-7.17s6.5-8,6.62-5.84.77,6.5.33,6.84-3.53,1.32-3.53,4.19,1,5.51,1.21,9a34.85,34.85,0,0,0,2.54,11.36c1.43,3,4.74,7.61,3.86,8s-8.16,1.87-9,2.21a15.65,15.65,0,0,1-3.64,1.21c-1.21.11-2.87.44-2.87,1.43S47,118,48.31,118h1.32a59,59,0,0,0,8.38.77c3.86,0,8.49.44,9.59.44s2.76-1.87,2.76-3.86-1.76-5.62-1.76-6.95a19.7,19.7,0,0,1,.88-4.08s2.09,2.87,4.85,2.87a7,7,0,0,0,2.64-.62c-.25.1-.49.2-.73.28.24-.08.49-.17.73-.28l.45-.2c.25-.12.5-.25.75-.4-.25.14-.5.28-.75.4a10.93,10.93,0,0,0,2.89-2c-.2.2-.42.39-.64.58.23-.19.44-.38.64-.58h0a120.86,120.86,0,0,1-7.49-10.19,8.78,8.78,0,0,1-1.31-3.88l11.2,5.88s12.79,8.82,15.1,9.48,4.08.66,4.08,1.87.22,5.4-1,6.28-3.75.88-5,1.87-2.09.88-2.09,1.87S95.39,119,98.36,119c2,0,5.19.05,7,.08a3.23,3.23,0,0,0,3-1.81,5,5,0,0,0,.24-.59c.55-1.65,2.65-3.75,4.19-4.85S116.88,108.54,116.66,106.22ZM71,90.06l.39.2ZM68.86,75.77c-1.21-1.11,2-8.56,2.92-8.56s10,6.45,9.77,7.46S70.07,76.88,68.86,75.77Z"/><path class="cls-1" d="M81.13,103.42a7.2,7.2,0,0,1-.51.63A7.19,7.19,0,0,0,81.13,103.42Z"/><path class="cls-1" d="M80.6,104.07l-.29.3Z"/><path class="cls-1" d="M81.93,101.7c0,.1,0,.21-.08.31C81.89,101.91,81.91,101.8,81.93,101.7Z"/><path class="cls-1" d="M81.34,103.11l-.18.27Z"/><path class="cls-1" d="M81.71,102.42a4.84,4.84,0,0,1-.33.63A4.84,4.84,0,0,0,81.71,102.42Z"/><path class="cls-1" d="M81.83,102.1l-.09.24Z"/><path class="cls-2" d="M22.84,30.92a5.63,5.63,0,0,0,.22,3.75c.77,1.54,5.4,7.72,9.15,8.16s13.56-.77,13,.44c0,0,10.25-7.06,11.69-8.6s-6.62.55-8.82.55-8-6-7.94-6.95,4.19-1.65,6.84-3.75,1.32-6.73-.88-9.59-6.17-2.76-9.37-3A4.55,4.55,0,0,1,33,9.11a7.09,7.09,0,0,0,0,4.28s-5.29,5.18-5.4,6.62,2.65,2.76,1.43,3.53-7.17,3.09-7.28,4.52S22.95,30.48,22.84,30.92Z"/><path class="cls-3" d="M29,23.53c-1.21.77-7,2-7.28,4.52-.13,1.43,1.21,2.43,1.1,2.87a5.63,5.63,0,0,0,.22,3.75c.77,1.54,5.4,7.72,9.15,8.16a72.62,72.62,0,0,0,8.25-.07,5.94,5.94,0,0,0,.13-.92,38.66,38.66,0,0,0-.33-6.06c-.22-2.09-6.73-6.17-6.73-8s9.59-2,11.91-5.73-1.76-6.73-4-8.16S33,13.39,33,13.39s-5.29,5.18-5.4,6.62S30.23,22.76,29,23.53Z"/><path class="cls-2" d="M44.51,31.84a3.56,3.56,0,0,1,.93-4.49c2.37-1.92,4.81-3.69,6.76-3.61s4.73,1.84,4.31,4.89-3,4.65-6.67,4.73S44.51,31.84,44.51,31.84Z"/><path class="cls-3" d="M45.63,31.48a3.54,3.54,0,0,1,.84-4.29c2.15-1.84,4.37-3.52,6.13-3.45a4.2,4.2,0,0,1,3.91,4.67c-.38,2.91-2.76,4.44-6.05,4.52A6.77,6.77,0,0,1,45.63,31.48Z"/><path class="cls-2" d="M37.66,23.33s-1.11-2.79-3.82-2.79a1.89,1.89,0,0,0-2,2.55s.56.56,2.55.56A14.79,14.79,0,0,0,37.66,23.33Z"/><path class="cls-2" d="M77.91,106.13l-.11.06Z"/><path class="cls-2" d="M77,106.59l-.36.14Z"/><path class="cls-2" d="M78.17,106l-.25.14h0Z"/><path class="cls-2" d="M77.42,106.39l.39-.2h0Z"/><path class="cls-2" d="M76.52,106.77l-.28.1Z"/><path class="cls-2" d="M76.23,106.87h0Z"/><path class="cls-2" d="M76.53,106.76h0l.08,0h0Z"/><path class="cls-2" d="M111.24,102.87a6.33,6.33,0,0,1-4.06-3.26c-1-1.87-2.21-4.41-2.21-4.41s-12.16,3-18.11,1S65,84.34,63,85.51,62.3,88,63.73,91a30.14,30.14,0,0,1,3,10.9,14.19,14.19,0,0,1-.5,4.95s-1.26,1.93-1.43,1.26-1.43-1.76-1.68-1-.84,1.93-1.09,1.43-1.68-1.43-1.84-1a3.77,3.77,0,0,1-.87.9c.92,1.62,1.55,2.92,1.1,3.14a9.2,9.2,0,0,1-1.34.4,5.68,5.68,0,0,0,4.64,2.85,58.54,58.54,0,0,0,6.61.2c-.2-2-1.74-5.3-1.74-6.54a19.7,19.7,0,0,1,.88-4.08s2.09,2.87,4.85,2.87a6.24,6.24,0,0,0,1.92-.35l.28-.1.08,0,.36-.14.45-.2.39-.19.11-.06a10.79,10.79,0,0,0,2.39-1.76c-.2.2-.42.39-.64.58.23-.19.44-.38.64-.58h0a121,121,0,0,1-7.49-10.19,8.78,8.78,0,0,1-1.31-3.88l11.2,5.88s12.79,8.82,15.1,9.48,4.08.66,4.08,1.87c0,.6.05,1.92,0,3.22C104.76,108.36,108.63,105.12,111.24,102.87ZM71,90.06l.39.2Z"/><path class="cls-2" d="M23.68,29c-.21.11-.45-.16-.34-.39.41-.85,1.19-2.12,2.06-1.64S24.66,28.51,23.68,29Z"/><path class="cls-2" d="M25.94,30.66a8.56,8.56,0,0,0-3.64-.78c.3.47.59.82.54,1l0,.17,1.63.16c2.44.25,4.29,2.27,5,2.1S28.38,31.66,25.94,30.66Z"/><path class="cls-4" d="M54.79,28c.31-.27-.29-2.56-2.86-1.85-2.74.76-3.52,3.08-2.84,3.67s-.23-1.69,3.06-2.81C53.73,26.52,54.49,28.31,54.79,28Z"/><path class="cls-5" d="M116.66,106.22c-.22-2.32-3.64-3.09-5.18-3.31a6.23,6.23,0,0,1-4.3-3.31c-1-1.87-2.21-4.41-2.21-4.41s-3.93,3.06-11,2.69a49,49,0,0,1-11.26-1.7s12.79,8.82,15.1,9.48,4.08.66,4.08,1.87.22,5.4-1,6.28-3.75.88-5,1.87-2.09.88-2.09,1.87S95.39,119,98.36,119c1.94,0,5,0,6.82.08a3.54,3.54,0,0,0,3.42-2.35l0,0c.55-1.65,2.65-3.75,4.19-4.85S116.88,108.54,116.66,106.22Z"/><path class="cls-6" d="M63,86.75c.37,1.1,4.05,5,5,9.94a22.51,22.51,0,0,1,1,4.73,9.25,9.25,0,0,0,.5,2.93s2.09,2.87,4.85,2.87a9.7,9.7,0,0,0,6-2.84,120.85,120.85,0,0,1-7.49-10.19,8.78,8.78,0,0,1-1.31-3.88L71,90.06C68.93,89,62.67,85.64,63,86.75Z"/><path class="cls-2" d="M97,70.63C96.16,64,87.7,59,84.78,56.93s-8.26,1-10.28,1-7.25-2.32-9.87-2.42S56.06,64.28,54,67.31,40.45,79,35.81,80.5,26.75,89,26.24,89.57s-1.31-.5-1.41-.91-2.22,2.12-2.22,2.12a4.21,4.21,0,0,1-.71-1.51c0-.5-2.22-.4-2.92-.3s-.71-2.12-.71-2.12l-2.15.51C14,90.69,12.46,93.46,12,94.2A28.35,28.35,0,0,0,8.95,105c-.33,4.85,2.31,6.21,3.63,6.1s.45-6.87,1.44-7,1.65,4.63,4.19,4.63,6.28-.44,6.84-1.65-1.43-1.21-1.32-2.65.55-8.93,2.32-10.92,4.19-6.5,9.26-8.49,12.24-5.4,14.11-7.17,6.5-8,6.62-5.84.77,6.5.33,6.84a24.74,24.74,0,0,1,6.66-2c4.43-.81,28.31.3,30.53.4S97.78,77.28,97,70.63ZM68.86,75.77c-1.21-1.11,2-8.56,2.92-8.56s10,6.45,9.77,7.46S70.07,76.88,68.86,75.77Z"/><path class="cls-6" d="M85.49,69.2a20.68,20.68,0,0,0-11.75-6.26c-2.79-.58-6.26-4.91-7.51-6.16S55.16,71.32,55.16,71.32l0,.52c.53-.37.88-.38.91.2.11,2.11.72,6.14.38,6.77.81-.27,1.76-.61,2.6-.95,1.93-.77,4.81-1,7.61-1.35s21.86.58,24.17.48S89.63,73.72,85.49,69.2ZM68.86,75.77c-1.21-1.11,2-8.56,2.92-8.56s10,6.45,9.77,7.46S70.07,76.88,68.86,75.77Z"/><path class="cls-7" d="M25,107.1c.55-1.21-1.43-1.21-1.32-2.65s1-5.18,1.2-7.49c-.57-.15-1.07-1.5-1-2.76.11-1.43-1.76.33-3.09,1.21S20,94,19.64,93.32s-1.65.22-2.09.55-2-1.21-2.09-2c-.06-.4-1.32.13-2.48.68L12,94.2A28.35,28.35,0,0,0,8.95,105c-.33,4.85,2.44,6.72,3.82,6.11,1.22-.53.25-6.88,1.25-7s1.65,4.63,4.19,4.63S24.49,108.32,25,107.1Z"/><path class="cls-8" d="M105,95.2s-3.93,3.06-11,2.69a49,49,0,0,1-11.26-1.7s5.64,3.89,10.11,6.7a21.76,21.76,0,0,0,6.3-2,17.67,17.67,0,0,0,6.15-5.13Z"/><path class="cls-7" d="M81.11,96.2l-.44.35s-.79-1.49-1.4-1.14-.44,5-2.28,5.35-2.54.44-2.54-1.49-.35-3.42-1.84-3.07-1.05,4.12-1.32,4.74a5.71,5.71,0,0,0-1,2.54,8.85,8.85,0,0,0,.45,2.22,5.68,5.68,0,0,0,3.55,1.51c2.76,0,7.06-2.76,7.61-5.51a54.09,54.09,0,0,0,.77-5.51S81.55,95.85,81.11,96.2Z"/><ellipse class="cls-9" cx="33.43" cy="22.06" rx="1.13" ry="1.27"/><ellipse class="cls-10" cx="33.1" cy="21.69" rx="0.35" ry="0.4"/><path class="cls-7" d="M67.71,109.53c-.44.44-1.32-.66-1.43-1.32s-1,.88-1.21,1.21-1.1-.77-1.21-1.32-1.1,1.54-1.21,2-1.21-.66-1.43-1.32c-.14-.42-1-.08-1.53.22.72,1.33,1.15,2.34.76,2.53-.88.44-8.16,1.87-9,2.21a15.65,15.65,0,0,1-3.64,1.21c-1.21.11-2.87.44-2.87,1.43S47,118,48.31,118h1.32a59,59,0,0,0,8.38.77c3.86,0,8.49.44,9.59.44s2.76-1.87,2.76-3.86-1.57-5.22-1.75-6.7C68.25,109,67.89,109.35,67.71,109.53Z"/><path class="cls-7" d="M111.48,102.91a6,6,0,0,1-3.74-2.43,9.09,9.09,0,0,1-1.33-.11c-1-.22,0,1.65.11,2.09s-1.43.22-2.43-.33.11,1.76.22,2.21-1.65-.22-2.21-.55-.55,1.43-.11,1.76c.23.18-.43.57-1.11.9.63.23,1,.53,1,1.08,0,1.21.22,5.4-1,6.28s-3.75.88-5,1.87-2.09.88-2.09,1.87S95.39,119,98.36,119c2,0,5.2.05,7,.08a3.23,3.23,0,0,0,3-1.81,5,5,0,0,0,.24-.59c.55-1.65,2.65-3.75,4.19-4.85s4.08-3.31,3.86-5.62S113,103.13,111.48,102.91Z"/><path class="cls-11" d="M116.64,106.08a8.76,8.76,0,0,1-1.4,2.49c-1.24,2-4.62,3.93-5.71,4.69s-1.71,3.67-3.13,4.62-5.49.73-9.05.51c-3.29-.2-3.51-.72-3.52-.8,0,1,1.55,1.42,4.52,1.42,2,0,5.2.05,7,.08a3.23,3.23,0,0,0,3-1.81,5,5,0,0,0,.24-.59c.55-1.65,2.65-3.75,4.19-4.85s4.08-3.31,3.86-5.62C116.66,106.17,116.65,106.12,116.64,106.08Z"/><path class="cls-11" d="M15.41,105.16c-1.37-2.74-.78-3.92-1-4.31s-.78-.2-.2,2.48a7.7,7.7,0,0,0,.36,1.15c.36.5.72,1.44,1.22,2.32.27.42.53.79.76,1.1a2.26,2.26,0,0,0,1.69.86A8.94,8.94,0,0,1,15.41,105.16Z"/><path class="cls-11" d="M19.54,107c-1.72-2.3-1.84-4.25-2.56-4.77s.81,2.86,1.71,4.34a7.13,7.13,0,0,0,1.92,2.08l.84-.1A8,8,0,0,1,19.54,107Z"/><path class="cls-11" d="M25,107.1s-1.85.4-2.33-.65-1.25-3.27-1.59-3.42.77,3.8,1.59,4.24a3.17,3.17,0,0,0,1.85.35A1.31,1.31,0,0,0,25,107.1Z"/></svg>