<svg id="Animals&#x52A8;&#x7269;" xmlns="http://www.w3.org/2000/svg" viewbox="0 0 128 128" width="128" height="128"><defs><style>.cls-1{fill:#9f8175;stroke:none;}.cls-2{fill:#bbaa9f;stroke:none;}.cls-3{fill:#c3937f;stroke:none;}.cls-4{fill:#756457;stroke:none;}.cls-5{fill:#736356;stroke:none;}.cls-6{fill:#53463f;stroke:none;}.cls-7{fill:#dfcbb2;stroke:none;}.cls-8{fill:#231f20;opacity:0.25;stroke:none;}.cls-9{fill:#907b6a;stroke:none;}.cls-10{fill:#61524b;stroke:none;}.cls-11{fill:#9b826d;stroke:none;}.cls-12{fill:#2b3037;stroke:none;}.cls-13{fill:#9f8169;stroke:none;}.cls-14{fill:#ae8c73;stroke:none;}.cls-15{fill:#c4957f;stroke:none;}.cls-16{fill:#a77a6b;stroke:none;}.cls-17{fill:#fff;stroke:none;}.cls-18{fill:#daa98c;stroke:none;}.cls-19{fill:#c3947e;stroke:none;}.cls-20{fill:#a7796c;stroke:none;}</style></defs><title>animals&#x52A8;&#x7269;</title><path class="cls-1" d="M82,66.81s18.23,0,26,1.83,15.54,4.73,15.49,9.8-5.32,6.93-12.95,8.17-8.32.59-8.26.13,4.26-.38,8.24-1.11,11.76-2.54,11.89-6.86-10-8-22.37-8.08S80.88,71,80.74,71a5.19,5.19,0,0,1,0-2.49A6,6,0,0,1,82,66.81Z"/><path class="cls-2" d="M122.18,76.46a.3.3,0,0,1-.23-.12,15.84,15.84,0,0,0-5.75-3.93c-5.7-2.44-14.42-3.48-20.74-3.92C88.6,68,83,68.11,83,68.11h0a.37.37,0,0,1-.32-.4A.38.38,0,0,1,83,67.3c.06,0,5.65-.11,12.53.37,6.36.44,15.16,1.49,20.93,4a16.15,16.15,0,0,1,6,4.13.47.47,0,0,1,0,.57A.31.31,0,0,1,122.18,76.46Z"/><path class="cls-3" d="M22.38,47.55s.25-3.22-.25-3.31-1.7.77-2.48,2.27A6.27,6.27,0,0,0,18.84,49Z"/><path class="cls-4" d="M19.57,48.71l2.81-1.16s.25-3.22-.25-3.31H22a5.45,5.45,0,0,1-.76,2.58A11.17,11.17,0,0,1,19.57,48.71Z"/><path class="cls-5" d="M23.12,47.14A37.47,37.47,0,0,0,17.3,49.5c-1.43.94-10.86,8.12-11.6,9.92s-.62,2.63.95,3.46S9.58,64,13.11,64s7.36-.13,9.15,1.1,2.69,2.47,2.06,2.9-3,0-4.6,1-3.17,2.28-3,3.07.94-.78,1.57-1.25,1.06-.73,1.15-.64-.78.53-1.21,1-1.39,1.85-.81,2.13.62-.69,1.54-1.5,1.19-.9,1.3-.79-.64.51-1.24,1.24S17.61,73.83,18,74.22s1.05-.72,1.4-1,.51-.46.59-.37-.46.51-.69.89-.44.67-.19.76,1.37-1.08,2.06-1.45,1-.68,1.16-.52,0,.56-.61,1a14.67,14.67,0,0,1-3.4,1.92c-1.18.41-4.89,1.17-5.79,2.06s-1.8,1.91-1.42,2.25,1-1,1.92-1.45,1.37-.79,1.55-.65-.42.76-1.41,1.64-1.14,1.6-1,1.76.91-.5,1.67-1.25,1.54-1.28,1.71-1.14-.05.47-.79,1-1.34,1.85-1.14,2.05.84-.37,1.51-1.23,1.54-1.44,1.81-1.32-.06.72-.54,1.16-1.08,1.29-.86,1.52,1.14-.56,1.62-1a11.3,11.3,0,0,1,3.2-2.33,52.83,52.83,0,0,0,8-3.82c3.38-2,10.18-5.24,14.21-5.89a24,24,0,0,1,10.89.3c4.22,1,5.79,1.67,6.87,2s2.6.64,1.25.72a17.22,17.22,0,0,0-5.49.6c-2.23.77-3.65,1.89-3.34,2.58s1.18-.59,1.93-.91,1.4-.33.95-.09a10.32,10.32,0,0,0-2.1,1.31c-.62.57-.88,1.11-.61,1.3s1.25-.63,2.25-1.11,1.53-.76,1.64-.58S56.11,75.41,55,76s-1.9,1.34-1.63,1.73,1.63-.56,2.36-1a6.58,6.58,0,0,1,1.89-.87c.11.09-.3.54-1.35,1.06S54.91,78.08,55,78.26s.67.26,2-.57,4.27-2.58,6.91-2.67,6.35.5,7.64.19,1.58-1.08,1.54-1.71,1.29-1.67,2-1.92A16.49,16.49,0,0,1,79.28,71h1.23a.66.66,0,0,0,.46-.19,4.18,4.18,0,0,0,1.24-2,13.14,13.14,0,0,0,.13-1.66.39.39,0,0,0-.35-.4c-.27,0-.6-.11-.59-.3S85,62.88,82.94,54.72s-7.7-15.1-18.66-15.17-17,1.88-22.42,4.75S34,49,33,49.07a3.74,3.74,0,0,1-1.89-.48s1.62-1.56,1.41-2.92-2.5-3.53-4.95-3.21S23.12,47.14,23.12,47.14Z"/><path class="cls-6" d="M5.7,59.41a5.51,5.51,0,0,0-.42,1.44,14.3,14.3,0,0,1,1.1-1.69C7,58.38,15.92,51.62,17,51s6.14-3.87,6.14-3.87A37.47,37.47,0,0,0,17.3,49.5C15.88,50.44,6.44,57.62,5.7,59.41Z"/><path class="cls-7" d="M71.57,75.21c1.29-.31,1.58-1.08,1.54-1.71s1.17-1.56,1.91-1.88l-2.56.11c-2.8.13-8.1-.12-10.76-1.22S57.25,64,50.22,63.7,38.48,66,33.7,68.82,26.41,72.73,26,72.39s.95-3,1.87-4.66,1.87-3.22-1.08-4.53-7.44-1.12-10.46-.57S12.55,64,12.55,64h.56c3.53,0,7.36-.13,9.15,1.1s2.69,2.47,2.06,2.9-3,0-4.6,1-3.17,2.28-3,3.07.94-.78,1.57-1.25,1.06-.73,1.15-.64-.78.53-1.21,1-1.39,1.85-.81,2.13.62-.69,1.54-1.5,1.19-.9,1.3-.79-.64.51-1.24,1.24S17.61,73.83,18,74.22s1.05-.72,1.4-1,.51-.46.59-.37-.46.51-.69.89-.44.67-.19.76,1.37-1.08,2.06-1.45,1-.68,1.16-.52,0,.56-.61,1a14.67,14.67,0,0,1-3.4,1.92c-1.18.41-4.89,1.17-5.79,2.06s-1.8,1.91-1.42,2.25,1-1,1.92-1.45,1.37-.79,1.55-.65-.42.76-1.41,1.64-1.14,1.6-1,1.76.91-.5,1.67-1.25,1.54-1.28,1.71-1.14-.05.47-.79,1-1.34,1.85-1.14,2.05.84-.37,1.51-1.23,1.54-1.44,1.81-1.32-.06.72-.54,1.16-1.08,1.29-.86,1.52,1.14-.56,1.62-1a11.3,11.3,0,0,1,3.2-2.33,52.82,52.82,0,0,0,8-3.82c3.38-2,10.18-5.24,14.21-5.89a24,24,0,0,1,10.89.3c4.22,1,5.79,1.67,6.87,2s2.6.64,1.25.72a17.22,17.22,0,0,0-5.49.6c-2.23.77-3.65,1.89-3.34,2.58s1.18-.59,1.93-.91,1.4-.33.95-.09a10.32,10.32,0,0,0-2.1,1.31c-.62.57-.88,1.11-.61,1.3s1.25-.63,2.25-1.11,1.53-.76,1.64-.58S56.11,75.41,55,76s-1.9,1.34-1.63,1.73,1.63-.56,2.36-1a6.58,6.58,0,0,1,1.89-.87c.11.09-.3.54-1.35,1.06S54.91,78.08,55,78.26s.67.26,2-.57,4.27-2.58,6.91-2.67S70.27,75.52,71.57,75.21Z"/><path class="cls-8" d="M61.94,71.54s-4.65-6.47-3.46-12.18,4.76-10.42,4.41-10.6-6.37-.15-8.64,8.87C51.44,68.82,61.94,71.54,61.94,71.54Z"/><path class="cls-9" d="M51.88,45.37a.36.36,0,0,1-.21-.66c2.24-1.21,8.41-3.39,17.61-.35,12.87,4.26,10.8,24.49,5.12,23.07-3.2-.8.67-7.65-3.34-16.26C67.34,43.19,55.88,44.87,51.88,45.37Z"/><path class="cls-10" d="M64.28,39.54c-11-.07-17,1.88-22.42,4.75S34,49,33,49.07a3.74,3.74,0,0,1-1.89-.48,3.1,3.1,0,0,0,2.4,1c1.51-.08,9-2.85,10.93-3.9s10.9-5,19.48-4.33a21,21,0,0,1,16.35,9.6A17.5,17.5,0,0,1,82.79,62.7l-.42,2.21c.9-1.73,1.91-5,.58-10.2C80.86,46.56,75.24,39.61,64.28,39.54Z"/><path class="cls-11" d="M15.4,56a2.39,2.39,0,0,1,1-2.47,2.61,2.61,0,0,1,2.84.58c0,.08.11,2.14-1.27,2.56A2.93,2.93,0,0,1,15.4,56Z"/><path class="cls-12" d="M15.76,55.79a1.79,1.79,0,0,1,.84-1.87,2,2,0,0,1,2.25.43c0,.05,0,1.48-1,1.88A2.52,2.52,0,0,1,15.76,55.79Z"/><path class="cls-13" d="M12.55,64a4.43,4.43,0,0,0,1.13-.8c.6-.65.34-2.22-.59-3.58S10.44,58.31,9,58.74a2.78,2.78,0,0,0-1.8,1.71l-.28.4s.78,1.4,1.6,2.76A16.27,16.27,0,0,0,12.55,64Z"/><path class="cls-14" d="M8.3,60.56a.52.52,0,0,1-.14-.72,1.21,1.21,0,0,1,.95-.52c1.07-.12,2.7.37,2.38,1.39s-1.48.43-2.3.23A2.74,2.74,0,0,1,8.3,60.56Z"/><path class="cls-15" d="M9,63A17.15,17.15,0,0,1,7,59.88c-.19-.26-.95-.17-1.42-.1-.57,1.55-.37,2.33,1.09,3.09a8.86,8.86,0,0,0,3.6,1A8.43,8.43,0,0,1,9,63Z"/><path class="cls-16" d="M6.7,60.26c0-.27-.3.29-.52.81a4,4,0,0,1-.63.94,2.15,2.15,0,0,0,.44.44l.32-.59A2.82,2.82,0,0,0,6.7,60.26Z"/><circle cx="17.34" cy="55.01" r="1.23" transform="translate(-37.98 71.3) rotate(-88.92)"/><circle class="cls-17" cx="17.4" cy="54.5" r="0.4" transform="translate(-37.42 70.86) rotate(-88.92)"/><circle class="cls-17" cx="18.18" cy="54.66" r="0.21" transform="translate(-36.82 71.8) rotate(-88.92)"/><path class="cls-18" d="M25.34,75.66c-.39-.22-2.63,1-3.28,1.23s-.48-.56-.79-.6-1.4,1.17-2,1.28-.7-.35-1-.85-.59.17-1.17,0c-.35-.08-.47-.5-.51-.83-1.54.42-3.5,1-4.12,1.58-.9.89-1.8,1.91-1.42,2.25s1-1,1.92-1.45,1.37-.79,1.55-.65-.42.76-1.41,1.64-1.14,1.6-1,1.76.91-.5,1.67-1.25,1.54-1.28,1.71-1.14-.05.47-.79,1-1.34,1.85-1.14,2.05.84-.37,1.51-1.23,1.54-1.44,1.81-1.32-.06.72-.54,1.16-1.08,1.29-.86,1.52,1.14-.56,1.62-1a11.3,11.3,0,0,1,3.2-2.33,46,46,0,0,0,5.29-2.36A.73.73,0,0,0,25.34,75.66Z"/><path class="cls-18" d="M72.4,74.65c-.09-.31-.36-.31-.61-.29a1.11,1.11,0,0,1-.88-.42c-.27-.31-1,0-2.06.18a3.73,3.73,0,0,1-2.6-.63c-.82-.41-1.32.19-2.07.42a8,8,0,0,1-2.82-.11c-.77-.11-1.46.92-2.13.57s0-.92.49-1.31-.6-.56-1.16-.61a.58.58,0,0,1-.5-.51,10,10,0,0,0-2,.47c-2.23.77-3.65,1.89-3.34,2.58s1.18-.59,1.93-.91,1.4-.33.95-.09a10.32,10.32,0,0,0-2.1,1.31c-.62.57-.88,1.11-.61,1.3s1.25-.63,2.25-1.11,1.53-.76,1.64-.58S56.11,75.41,55,76s-1.9,1.34-1.63,1.73,1.63-.56,2.36-1a6.58,6.58,0,0,1,1.89-.87c.11.09-.3.54-1.35,1.06S54.91,78.08,55,78.26s.67.26,2-.57,4.27-2.58,6.91-2.67,6.35.5,7.64.19a2.65,2.65,0,0,0,.89-.38Z"/><path class="cls-8" d="M39.69,51a15.66,15.66,0,0,0-6.07-2.11h0a1.87,1.87,0,0,1-.58.15,3.74,3.74,0,0,1-1.89-.48s1.62-1.56,1.41-2.92-2.5-3.53-4.95-3.21c-2.2.29-4.08,3.86-4.43,4.55l.82.24,3.93,3.51a9.39,9.39,0,0,1,.42,3.69c-.16,2.15-4.07,5.6-6.85,6.63A41,41,0,0,1,9.8,62.69a12.34,12.34,0,0,1-4.37-.88,2.66,2.66,0,0,0,1.22,1.06C8.22,63.69,9.58,64,13.11,64s7.36-.13,9.15,1.1,2.69,2.47,2.06,2.9-3,0-4.6,1-3.17,2.28-3,3.07.94-.78,1.57-1.25,1.06-.73,1.15-.64-.78.53-1.21,1-1.39,1.85-.81,2.13.62-.69,1.54-1.5,1.19-.9,1.3-.79-.64.51-1.24,1.24S17.61,73.83,18,74.22s1.05-.72,1.4-1,.51-.46.59-.37-.46.51-.69.89-.44.67-.19.76,1.37-1.08,2.06-1.45,1-.68,1.16-.52a.27.27,0,0,1,0,.3,3.48,3.48,0,0,0,.76-.77,11.91,11.91,0,0,0,1.29-3.32c.3-1.5.64-3.06,3.22-7.92S34.65,54.16,38,55.3s3.37,5.32,2.14,8.73a26.65,26.65,0,0,1-4.21,6.89l-.07.09a36,36,0,0,1,5.93-2,15.37,15.37,0,0,0,1.15-1.53c.7-1.09,2.56-5.42,1.8-9.24S42,52.67,39.69,51Z"/><path class="cls-18" d="M16.74,72.1c.21.8.94-.78,1.57-1.25s1.06-.73,1.15-.64-.78.53-1.21,1-1.39,1.85-.81,2.13.62-.69,1.54-1.5,1.19-.9,1.3-.79-.64.51-1.24,1.24S17.61,73.83,18,74.22s1.05-.72,1.4-1,.51-.46.59-.37-.46.51-.69.89-.44.67-.19.76,1.37-1.08,2.06-1.45,1-.68,1.16-.52c0,0,.21-.26.52-.72A2.11,2.11,0,0,0,23,70.4c0-.28.54-.82.73-1.15s-.07-.68-.23-1a8.94,8.94,0,0,0-3.8.81C18.11,70,16.54,71.3,16.74,72.1Z"/><path class="cls-19" d="M30.56,48.7s1.35-1.63,1.32-2.45-.26-2.12-2.41-2.54-3.52.18-4.22,1.06-1.7,2.26-1,3.64,2.75,3.28,3.89,3.14S30.56,48.7,30.56,48.7Z"/><path class="cls-20" d="M27.28,50.3a.34.34,0,0,0,.48-.37,4.37,4.37,0,0,0-.29-1c-.46-1.1-.67-2,0-2.86s1.23-1.39.94-1.66-1.13-.16-1.73.33-1.81,1-1.94,1.87a3.72,3.72,0,0,0,1.38,2.93A5.88,5.88,0,0,0,27.28,50.3Z"/></svg>