<svg xmlns="http://www.w3.org/2000/svg" viewbox="0 0 128 128" width="128" height="128"><defs><style>.cls-1{isolation:isolate;stroke:none;}.cls-2{fill:#babe84;stroke:none;}.cls-3{fill:#2e6d72;stroke:none;}.cls-4{fill:#6c6240;stroke:none;}.cls-5{fill:#a0a67f;stroke:none;}.cls-6{fill:#3d3d35;stroke:none;}.cls-7{fill:#231f20;opacity:0.26;stroke:none;}.cls-8{mix-blend-mode:multiply;stroke:none;}.cls-9{fill:#fff;stroke:none;}.cls-10{fill:none;stroke:#a0a67f;stroke-linecap:round;stroke-linejoin:round;stroke-width:0.49px;}.cls-11{fill:#959a6b;stroke:none;}</style></defs><title>animals&#x52A8;&#x7269;</title><g class="cls-1"><g id="Animals&#x52A8;&#x7269;"><path class="cls-2" d="M122.89,84.86a3.77,3.77,0,0,1,0-2.74c.23-.36-1.14-1.55-1.14-2.39s1.94-2.5.34-2.62-11.21-3.22-15-6.8-5.83-5.37-5.83-5.37l3.38-4.07s-5.5-2.42-8.32-3.83S85.81,49.57,76.51,46.2s-22.11-6-33.15-3.83c-10.09,2-9.94,7.11-10.11,7.93a5.06,5.06,0,0,1-2.31-.2,15.37,15.37,0,0,1-2-1.17S26.6,45.11,23,44.29,12.24,42,9.12,44.29,5.76,52.8,5.76,52.8l1.65-.12s3,4.11,5,5.34a28,28,0,0,0,7.9,3.38,9.55,9.55,0,0,0-6.67,2.34C9.87,67.44,7.24,75.32,9.42,80.8s8.24,11.45,12.12,8.83,0-12.16.69-15,1.72-6.32,3.2-5.37A52.22,52.22,0,0,0,39.27,75c5.95,1.31,8.69,1.19,9,1.07s8.81,8.83,16.36,12.64S84.22,98,86.28,95.11,71.18,81.87,69.47,79.73l-1.72-2.15s15.33.48,17.27-.48,4.23-3,6.75-3.58,6.52-1.19,13.38,4.41,12,11,14.64,9.9S123.34,85.45,122.89,84.86Z"/><path class="cls-3" d="M23,44.29c-3.61-.82-10.76-2.29-13.88,0a4.87,4.87,0,0,0-.43.36c0,.09.57,1.22,1.34.9S11.72,43.73,12,44,11,46,10.38,46.6s-1.74,2.62-.5,4.29,4,1.43,4.92.76,0-1.91.79-1.81a4.17,4.17,0,0,0,3.87-2.72c.6-2.1-1.14-3.05-.25-2.91s1.39,0,1.34.76-.25,2.19.79,2.1-.35-2.57.35-2.34S22.24,46,23.34,46s3.82,1.1,3.63,1.72a2,2,0,0,0,.5,2.15c.7.52,1.24,1.38,1.54.76a2.74,2.74,0,0,0-.07-1.67S26.6,45.11,23,44.29Z"/><path class="cls-4" d="M17.68,55.09a47,47,0,0,1-6.91-2.17,7.27,7.27,0,0,0-3.3-.3,4.16,4.16,0,0,0,.52.83,7.21,7.21,0,0,1,1.25-.24c.79-.06,3.2,1,6.07,1.93a11.09,11.09,0,0,0,5.37.37Z"/><path class="cls-5" d="M16.88,43.78a5.37,5.37,0,0,0-3.92.86c-1.54,1.29-1.94,2.81-1,3.86s3.53,1,4.72.33,2.19-2.57,1.74-3.43A5.69,5.69,0,0,0,16.88,43.78Z"/><path class="cls-6" d="M12.85,48.2a5.24,5.24,0,0,1,2.66-2.32,7,7,0,0,1,3.07-.17s.32,1.46-1.88,2.11-2.56-.21-2.84,0A7.58,7.58,0,0,1,12.85,48.2Z"/><path class="cls-3" d="M17.47,44a11.33,11.33,0,0,0-3.24,1.12,7,7,0,0,0-1.69,2.32,9.32,9.32,0,0,1,2.86-2.41,21.07,21.07,0,0,1,2.53-.76Z"/><path class="cls-3" d="M16.25,49.92a4.5,4.5,0,0,0,1.16,2.18c.69.61.9,1.17,1.37.66s1-1.27.42-1.67a5.15,5.15,0,0,0-1.59-1C17.2,50.07,16.25,49.92,16.25,49.92Z"/><path class="cls-3" d="M19.79,48a1.79,1.79,0,0,0-1.53.51c-.53.66.11,1,.53,1.37s1.27,1.17,1.69.76,1-1.47.48-1.57S19.79,48,19.79,48Z"/><path class="cls-3" d="M22.06,47.64c-.37.1-.42,1.37-.26,2s1.8,1.32,2,.56a2.55,2.55,0,0,0-.58-2.23A2.35,2.35,0,0,0,22.06,47.64Z"/><path class="cls-3" d="M23.59,46.72c-.16.25.9,3.09,1.27,3.09s1.69-1.47,1.32-2a2.94,2.94,0,0,0-1.48-1.12A3.16,3.16,0,0,0,23.59,46.72Z"/><path class="cls-3" d="M25.34,50.68c-.37.1-1.9-.15-2,.2S23.07,52,23.91,52a2.05,2.05,0,0,0,1.43-.71Z"/><path class="cls-3" d="M29,50.6a11.45,11.45,0,0,0-2.81.64s-.16,1.62.69,1.57,1.27.05,1.9-.61.79-1.12.74-1.37S29,50.6,29,50.6Z"/><path class="cls-3" d="M101.22,64.86c-.12-.19,3.43-4,3.43-4s-5.5-2.42-8.32-3.83S85.81,49.57,76.51,46.2s-22.11-6-33.15-3.83c-10.09,2-9.94,7.11-10.11,7.93,0,0,1.35-.28,2.43,1.69s2.34,5.25,4.76,5.25,7.55-3.19,12.22,0,10.87,9.09,16.8,10.12,22.82.47,26.51-.94A54.48,54.48,0,0,1,101.22,64.86Z"/><path class="cls-7" d="M32,66.3s-.92-.32-2.16-.8S26.23,62.37,24,60.84,13.83,58,12.82,57.31s-4.37-3.38-4.37-3.38l0,.16A19.78,19.78,0,0,0,12.42,58a28,28,0,0,0,7.9,3.38,9.55,9.55,0,0,0-6.67,2.34,16.27,16.27,0,0,0-3.29,4.92c1.13-1.14,2.55-2.57,3.39-3.41a11.6,11.6,0,0,1,6.47-3.13c2.62-.4,3.08-.48,6.78,2.09S32,66.3,32,66.3Z"/><path class="cls-7" d="M37.82,69.45c-6.5-2-10.92-.82-12.24-.12A52.42,52.42,0,0,0,39.27,75a41.83,41.83,0,0,0,7.93,1.14,1,1,0,0,0,.37-.12C48.14,75.52,45.64,71.8,37.82,69.45Z"/><path class="cls-7" d="M37.75,63s2.22,1.63,4,1.48,4.27-2.68,4.27-2.68-2.53,1.85-4.17,2A13.81,13.81,0,0,1,37.75,63Z"/><path class="cls-7" d="M44.52,61.25s.83-1.63,4-1.63S52.68,61,52.68,61a11,11,0,0,0-4.27-.87A12,12,0,0,0,44.52,61.25Z"/><path class="cls-7" d="M86.28,95.11c.37-.51.12-1.26-.53-2.15l-.12-.08s1.73,2.36-4.86.21S62.91,86.42,56.45,81.14,45.06,67.39,44.92,66.55a3.27,3.27,0,0,1,2.46-3.19,39.13,39.13,0,0,1,4.46-1.18s-4.93-.28-6.4,1.11-3.13,3.19-1.8,5,3.33,4,4,5.28A5.68,5.68,0,0,1,48.31,76c.34-.12,8.81,8.83,16.36,12.64S84.22,98,86.28,95.11Z"/><path class="cls-7" d="M69.47,79.73l-1.72-2.15s-5.44-9.08-6.84-9.71-3.46-.9-4.46-1.46a28.07,28.07,0,0,1-2.33-1.6,5.41,5.41,0,0,0,3.13,2.92c2.13.69,2.46.28,3.8,2.29s5.46,8.75,7.66,10.84,13.52,9.86,14.52,10.56,2.4,1.46,2.4,1.46l-.06-.17C82.26,88.53,70.85,81.46,69.47,79.73Z"/><path class="cls-7" d="M97.89,67.55s-17.06,3.11-24.32,2.33a32.54,32.54,0,0,1-12.72-4.25s4.06,5.7,5.92,7.93c1.34,1.6,2.72,3.28,3.38,4.09,4.39.09,13.41.18,14.87-.54s3.42-2.28,5.41-3.13c1-1,3.31-3.45,4.05-4C95.42,69.28,97.89,67.55,97.89,67.55Z"/><path class="cls-7" d="M119.8,87.84c2.63-1.07,3.55-2.39,3.09-3a3.77,3.77,0,0,1,0-2.74c.23-.36-1.14-1.55-1.14-2.39s1.94-2.5.34-2.62-11.21-3.22-15-6.8c-1.95-1.84-3.43-3.21-4.42-4.1.7,1,1.63,2.29,2.06,2.78a23.7,23.7,0,0,0,4.06,3.4c1.27.76,6.86,4.45,9.53,5.35s3,2.85,3.13,4.38-.73,3.75-2.26,4-8.79-5.49-10.26-6.67-9.79-6.53-12.39-7.08a6.26,6.26,0,0,0-4.78,1.21c2.52-.6,6.52-1.19,13.38,4.41S117.17,88.91,119.8,87.84Z"/><g class="cls-8"><path class="cls-7" d="M20.61,79.82c-.31.33.06,2,.25,2.22s.88,1,1.06.59a2.65,2.65,0,0,0-.5-2A8.76,8.76,0,0,0,20.61,79.82Z"/><path class="cls-7" d="M20,82.56s-.69.39-.63.72.13,1,.56.78.44-.72.44-1S20,82.56,20,82.56Z"/><path class="cls-7" d="M21.54,83.73c0,.11-.73.11-.66.62s.56,1.41,1,1.3.56-1,.31-1.38A1.72,1.72,0,0,0,21.54,83.73Z"/><path class="cls-7" d="M18.79,84.6c-.35.22-.38,1.12,0,1.59s.9.69,1.22.33A1.11,1.11,0,0,0,19.76,85,2.4,2.4,0,0,0,18.79,84.6Z"/><path class="cls-7" d="M18.76,87.64s-.52-.25-.73,0a.53.53,0,0,0,0,.76c.21.14.45.07.66-.22A.48.48,0,0,0,18.76,87.64Z"/><path class="cls-7" d="M50.56,64s-1.27-.07-1.27.26.25.79.57.53A5.39,5.39,0,0,0,50.56,64Z"/><path class="cls-7" d="M46.31,65.5a1.33,1.33,0,0,0,.83,2.12,2.68,2.68,0,0,0,2.09-1.12c.32-.53-.51-1.59-1.27-1.59A3.65,3.65,0,0,0,46.31,65.5Z"/><path class="cls-7" d="M51.13,65.63a3.66,3.66,0,0,0-1,.93c-.19.4.13,1.39.38,1.39a2.25,2.25,0,0,0,1.33-1.59A.69.69,0,0,0,51.13,65.63Z"/><path class="cls-7" d="M48.53,69c-.32.4.32,1.65.63,2s1.21,1.26,1.65.93.51-1.92-.51-2.71A1.43,1.43,0,0,0,48.53,69Z"/><path class="cls-7" d="M52.53,68.67c-.44.07-.57.79-.51,1.19s.76.79,1.08.46a1.65,1.65,0,0,0,.13-1.52C53,68.61,52.53,68.67,52.53,68.67Z"/><path class="cls-7" d="M54.18,70.59s1.27.79,1.52.46a.79.79,0,0,0-.63-1.12C54.5,69.93,54.18,70.59,54.18,70.59Z"/><path class="cls-7" d="M52.4,71.05s-.51,1.26-.13,1.19S52.4,71.05,52.4,71.05Z"/><path class="cls-7" d="M54.43,72.31s-1.14.6-1.14,1,1,.93,1.21.26A1.64,1.64,0,0,0,54.43,72.31Z"/><path class="cls-7" d="M55.64,73.57c-.13.33.51,1.46.89,1.39s2.16-2.12,1-2.05A3.69,3.69,0,0,0,55.64,73.57Z"/><path class="cls-7" d="M51.51,74.1c-.44.4.32,1.79,1,2.12s1.52.26,1.65-.13a2.2,2.2,0,0,0-1.27-1.85A2.62,2.62,0,0,0,51.51,74.1Z"/><path class="cls-7" d="M55.13,76.15c-.44.33.19,1.92.38,2.12s1.14.6,1.4.2a1.92,1.92,0,0,0-.76-2.25C55.26,75.82,55.13,76.15,55.13,76.15Z"/><path class="cls-7" d="M58.3,77.21s-.32.93-.06,1.26,1.33.33,1-.53S58.3,77.21,58.3,77.21Z"/><path class="cls-7" d="M57.67,80.05c-.06.4.51.93.7.6s.06-.93-.25-.93A.52.52,0,0,0,57.67,80.05Z"/><path class="cls-7" d="M59.51,80.91c.13.79.13,1.12.7,1.06s1.59-.33,1-.79-.83-.79-1.21-.66A.89.89,0,0,0,59.51,80.91Z"/></g><path class="cls-7" d="M31.41,50.22A11.73,11.73,0,0,1,33,54.56a23.22,23.22,0,0,1,0,6l-.13.72s-.09-5.51-.82-8a23.55,23.55,0,0,0-1.07-3.15Z"/><path class="cls-7" d="M29.37,49.18s1.21.36,1.17,3.8a13.7,13.7,0,0,1-1.08,5.51s.82-5.47.48-6.91S29.37,49.18,29.37,49.18Z"/><path class="cls-7" d="M29.07,51.85a25.76,25.76,0,0,1-.3,4.66,3.73,3.73,0,0,1-1.08,1.72,9.79,9.79,0,0,0,.78-3.93l-.22-1.54Z"/><ellipse class="cls-9" cx="15.43" cy="47.06" rx="0.47" ry="0.45"/><path class="cls-10" d="M36.83,50.55l-2.17-1.44s.68-2.06,3.77-3.79S50.83,41.82,58,42.8s16.28,4.11,21.51,6.13c9.35,3.62,11,7,14.47,8.68,3.73,1.8,9.28,3.59,8.91,4A17.4,17.4,0,0,1,97,65.33c-2.89,1-19.59,1.89-24.37,1C59.85,63.89,57.51,54.91,50,54.22c-7.28-.67-7.62,1.45-9.38,1.43S36.83,50.55,36.83,50.55Z"/><path class="cls-10" d="M36.42,47.11s4.25,3.16,5.88,3.19S47,48.52,47,48.52l16.86,6.4s7.83,5.47,10.59,6.19a84.87,84.87,0,0,0,16.86,1.46,66.37,66.37,0,0,0,9.61-1.95"/><polyline class="cls-10" points="40.6 55.65 41.12 49.9 39.11 45.09"/><line class="cls-10" x1="58.21" y1="52.73" x2="58.31" y2="58.72"/><polyline class="cls-10" points="63.68 62.84 63.81 54.92 71.3 51.82"/><polyline class="cls-10" points="69.33 45.63 70.38 48.55 74.4 61.11 74.81 66.51"/><path class="cls-10" d="M52.48,42.71s2.54,4.87,7.78,6.12a30.67,30.67,0,0,0,10.19.54"/><polyline class="cls-10" points="48.66 42.95 46.95 48.52 47.81 54.09"/><path class="cls-10" d="M72.49,55.28s6.54.85,9.33.34A28,28,0,0,0,88,53.45s1.48,4.08,1.84,5.53.68,3.54.68,3.54"/><line class="cls-10" x1="86.29" y1="62.57" x2="86.06" y2="66.51"/><path class="cls-10" d="M94.25,62.17a6.32,6.32,0,0,1,2.84,1,5.28,5.28,0,0,1,1.47,1.49"/><path class="cls-11" d="M22.23,74.6c-.69,2.86,3.2,12.4-.69,15a5.18,5.18,0,0,1-2.24.65c.55.15,4.28.56,5.69-2.37,1.24-2.57-.54-6.18-1.39-11.08s.92-7.55.92-7.55l-.07,0C23.48,69.87,22.75,72.41,22.23,74.6Z"/></g></g></svg>