<svg id="Animals&#x52A8;&#x7269;" xmlns="http://www.w3.org/2000/svg" viewbox="0 0 128 128" width="128" height="128"><defs><style>.cls-1{fill:#c6af76;stroke:none;}.cls-11,.cls-18,.cls-2,.cls-26,.cls-30,.cls-31,.cls-9{fill:#231f20;stroke:none;}.cls-2{opacity:0.23;stroke:none;}.cls-3{fill:#aa6b6a;stroke:none;}.cls-4{fill:#a16c6b;stroke:none;}.cls-5{fill:#c48082;stroke:none;}.cls-6{fill:#a29c95;stroke:none;}.cls-7{fill:#5e4436;stroke:none;}.cls-8{fill:#7e7671;stroke:none;}.cls-9{opacity:0.22;stroke:none;}.cls-10{fill:#9d938c;stroke:none;}.cls-11{opacity:0.24;stroke:none;}.cls-12{fill:#e5ddd2;stroke:none;}.cls-13{fill:#cbc4ba;stroke:none;}.cls-14{fill:#fff3e7;stroke:none;}.cls-15{fill:#333132;stroke:none;}.cls-16{fill:#141414;stroke:none;}.cls-17{fill:#756d6a;stroke:none;}.cls-19{fill:#fff;stroke:none;}.cls-20{fill:#afa79d;stroke:none;}.cls-21{fill:#1c1c1c;stroke:none;}.cls-22{fill:#837c76;stroke:none;}.cls-23{fill:#705440;stroke:none;}.cls-24{fill:#d88d8b;stroke:none;}.cls-25{fill:#e9a3a2;stroke:none;}.cls-26,.cls-33{opacity:0.19;stroke:none;}.cls-27{fill:#e3a1a1;stroke:none;}.cls-28{fill:#885858;stroke:none;}.cls-29{fill:#39261a;stroke:none;}.cls-30{opacity:0.28;stroke:none;}.cls-31{opacity:0.2;stroke:none;}.cls-32{fill:#f8c7ca;stroke:none;}.cls-34{fill:#4f403a;stroke:none;}</style></defs><title>animals&#x52A8;&#x7269;</title><path class="cls-1" d="M14.78,20.35a4.82,4.82,0,0,1-2.87-1.28c-1.17-1.19-1.64-2.65-1.92-2.63s-.65,2.42.9,4.16a6.19,6.19,0,0,0,2.69,2Z"/><path class="cls-2" d="M14.78,20.35h-.05A6.8,6.8,0,0,0,14,21a3.56,3.56,0,0,0-.67.86,7.13,7.13,0,0,1-3-3A5.07,5.07,0,0,1,9.77,17a4.72,4.72,0,0,0,1.12,3.59,8.38,8.38,0,0,0,1.95,1.68h0a3.12,3.12,0,0,0,.74.34Z"/><path class="cls-3" d="M87.38,80.75h0a.74.74,0,0,1-.59-.73l-.05-3.28c0-.32.32-.11.64-.1h0c.32,0,.81.25.81.57L88,80.06C88,80.39,87.7,80.76,87.38,80.75Z"/><path class="cls-4" d="M91.41,82.55h0c-.32,0-.59-.45-.59-.77l-.16-3.19c0-.32.43-.5.75-.49h0c.32,0,.73.27.73.59L92,81.82C92,82.14,91.73,82.56,91.41,82.55Z"/><path class="cls-5" d="M92.86,83.44h0a.71.71,0,0,1-.59-.71L92,79.6c0-.32.53-.57.85-.56h0c.32,0,.85.29.85.62l-.27,3.1A.65.65,0,0,1,92.86,83.44Z"/><path class="cls-6" d="M95.67,79.93a38.78,38.78,0,0,0,1.23,4.25,8.25,8.25,0,0,1,.83,3.63c0,1.67.26,8-.18,9a11.55,11.55,0,0,1-2.46,3.55c-1.05.93-2,1.9-1,2s4.3.11,4.3.11,1.4,0,1.49-1.18.13-2.32.75-2.74,1.14-.62.92-1.42a19.21,19.21,0,0,1-.35-4.92,75.21,75.21,0,0,1,.35-8.28c.31-1.7.66-3,.66-3s1.75-5.82-.39-4.22A33.75,33.75,0,0,1,95.67,79.93Z"/><path class="cls-7" d="M98.08,100.14a5.94,5.94,0,0,0-2.27-.54,6.85,6.85,0,0,1-.71.74c-1.05.93-2,1.9-1,2s4.3.11,4.3.11,1.4,0,1.49-1.18l0-.36A17.24,17.24,0,0,1,98.08,100.14Z"/><path class="cls-8" d="M101.86,76.77a33.76,33.76,0,0,1-6.18,3.16,38.78,38.78,0,0,0,1.23,4.25l.06.14a5.67,5.67,0,0,1,2.8,2.33c.5.94,1.07,2.15,1.52,3.15a46.56,46.56,0,0,1,.32-5.84c.31-1.7.66-3,.66-3S104,75.17,101.86,76.77Z"/><path class="cls-9" d="M101.59,84c.31-1.7.66-3,.66-3s1.75-5.82-.39-4.22a33.76,33.76,0,0,1-6.18,3.16,38.78,38.78,0,0,0,1.23,4.25,8.25,8.25,0,0,1,.83,3.63c0,.32,0,.82,0,1.42a7.3,7.3,0,0,1,1.46,5.39c-.33,4.2-1.12,6.41-2.12,7.87h1.33s1.4,0,1.49-1.18.13-2.32.75-2.74,1.14-.62.92-1.42a19.21,19.21,0,0,1-.35-4.92A75.21,75.21,0,0,1,101.59,84Z"/><path class="cls-10" d="M37.76,76.87s-.3,8,.3,8.66A8.43,8.43,0,0,1,39.18,90c0,1.72-.3,7.08-1.49,8.82s-4.92,4.75-3.88,5.16,5.67.5,5.67.5A8,8,0,0,0,43.21,98c0-4.33-.07-22.23-.07-22.23Z"/><path class="cls-7" d="M39.48,104.46a7.14,7.14,0,0,0,1-.73c-1.31-.79-2.59-1.52-3.27-1.93a3.53,3.53,0,0,0-1.67-.55c-1.24,1.29-2.33,2.47-1.71,2.72C34.85,104.37,39.48,104.46,39.48,104.46Z"/><path class="cls-11" d="M39.48,104.46A8,8,0,0,0,43.21,98c0-4.33-.07-22.23-.07-22.23l-5.37,1.16s0,.93-.06,2.18c.89.83,2.29,2.74,2.59,6.64.45,5.83.07,15-1.94,16.57l-2.6,2C37.43,104.42,39.48,104.46,39.48,104.46Z"/><path class="cls-12" d="M24.8,21.65a6.13,6.13,0,0,0-5.16-2.53c-3.48.09-4.74.67-5.53,2.11S12.22,25.94,11.59,26,9.83,23.43,8,23.16s-4.44.43-4.74,1.43,1.89,4.26,4.11,4.84,2.85.14,2.85.14a2.66,2.66,0,0,0,.29,1.23,8.64,8.64,0,0,1,.55,4c-.17,1.5-.25,2.09-.25,2.09a16.32,16.32,0,0,0-1.55,4.05c-.08,1.25,0,1.76.34,2l.29.22a5.14,5.14,0,0,0,3.48,1.8l2.35.25s1,2,1.89,2.29,1.43.09,1.84.78,2.05,3.3,2.47,4.2,2.18,5,2.39,7-.17,6.91.92,9.34,3.44,6.41,7.42,7.89,9.18.53,9.18.53a30.56,30.56,0,0,1,0,4.4c-.21.58-1.13,3-.71,4.55a40.17,40.17,0,0,1,.71,7.7,23.2,23.2,0,0,1-.75,6,18.4,18.4,0,0,1-2.64,4.1c-.34.37-1.76,2.29-1.68,2.79s1,.45,1,.45.17.34.92.49a12.79,12.79,0,0,0,3.9-.28c.92-.26,1.84-.65,1.89-1.9s0-2.81.34-3a1.18,1.18,0,0,0,.88-1.48,17.34,17.34,0,0,1-.88-4.64c0-1.47.08-5.45.71-6.94s2.05-4.25,2.1-5.42a26,26,0,0,1,1.26-6.2c.67-1.7,1.17-3,1.17-3a17.09,17.09,0,0,1,5.87-.3c2.35.5,12.7,4.22,17.36,4.13s12.41-4.05,15.22-6,4.49-3.32,7-3.24,5.24,6.43,5.74,9.8a32.13,32.13,0,0,0,1.68,7.4,22.9,22.9,0,0,1,1.22,7.09c.08,2.56.38,6-.25,7.2s-2.6,3.31-2.47,3.9,1,.58,1,.58.08.67,1.43.72,3.82.09,3.9-1.37-.59-2.37-.08-3.11,1.34-1.17.92-1.81-1-4-1.09-7.84a29.78,29.78,0,0,1,.84-8.06c.29-.83,1.09-2.69.71-3.87a11.41,11.41,0,0,1-.34-5.67c.46-2.67,3.69-18.66,4.07-20.53s.8-4.88.8-4.88,1.34,2.27,1.51,7.18.21,16.57.88,19a13.07,13.07,0,0,0,3.19,6.23,31,31,0,0,1,4,5.42c.42.85.88,1.92.88,1.92s-.08-5-1.47-7.89-5.07-8-5.37-9.87a46.54,46.54,0,0,1-.38-6.34c-.08-3.15.25-9.89-.71-14a15.75,15.75,0,0,0-2.43-5.91A11.74,11.74,0,0,0,110,41.22c-2.56-1.64-8.3-6-14.38-6.37s-13.5,1.62-16.77,1.72a57.37,57.37,0,0,1-12-1.09c-4.74-.88-17.65-3.38-21.68-3.78s-13-1-13-1a16.85,16.85,0,0,0,2.22-3.15c.63-1.36,1-2.48.67-3s-3.14-1.16-4.7-.37a14.29,14.29,0,0,0-3.14,2.45s-1.13-2.76-1.51-3.53A9.26,9.26,0,0,0,24.8,21.65Z"/><path class="cls-13" d="M17.36,34.93s2.79-8,4.18-9.15c1.11-.95,3.52-1.08,4.72-1.41-.23-.54-.45-1-.58-1.31a9.26,9.26,0,0,0-.88-1.41A6.13,6.13,0,0,0,21,19.22a6.56,6.56,0,0,1,2.36,1.68c.54.61,1,2.11.08,2.46a11.47,11.47,0,0,1-5.85.43,10.55,10.55,0,0,1-4-1.42c-.42.95-.87,2.06-1.27,2.8a22.12,22.12,0,0,0-.37,4.58c.24.94.75,4.06.75,4.06a3.07,3.07,0,0,1,2.22-1.16C16.12,32.74,17.36,34.93,17.36,34.93Z"/><path class="cls-14" d="M95.61,34.85c-6.08-.42-13.5,1.62-16.77,1.72a57.36,57.36,0,0,1-12-1.09c-4.74-.88-17.65-3.38-21.68-3.78s-13-1-13-1a16.85,16.85,0,0,0,2.22-3.15c.63-1.36,1-2.48.67-3a4.41,4.41,0,0,0-2.76-.74c-4,2-6.31,6.66-6.31,6.66l-1,3.1S45.8,42.32,55,43.58s23.49.48,28.07-.8S93,37.86,95.67,38c1.91.13,9.63,1.93,14,3C107,39.26,101.47,35.26,95.61,34.85Z"/><path class="cls-15" d="M11.59,26C11,26.07,9.83,23.43,8,23.16s-4.44.43-4.74,1.43,1.89,4.26,4.11,4.84,2.85.14,2.85.14a2.66,2.66,0,0,0,.29,1.23,8.64,8.64,0,0,1,.55,4c-.17,1.5-.25,2.09-.25,2.09a14.31,14.31,0,0,0,2-2.43c.42-.86.38-2.67.1-5.09A30.66,30.66,0,0,1,13,23.6C12.49,24.83,12,26,11.59,26Z"/><path class="cls-16" d="M28.23,31.09a5.44,5.44,0,0,0,2.11.18,4.66,4.66,0,0,0,1.79-.6,16.85,16.85,0,0,0,2.22-3.15c.63-1.36,1-2.48.67-3s-3.14-1.16-4.7-.37a14.29,14.29,0,0,0-3.14,2.45A10.85,10.85,0,0,0,27.54,28C27.79,28.85,28.23,31.09,28.23,31.09Z"/><path class="cls-15" d="M27.19,26.59s-1.13-2.76-1.51-3.53l-.2-.37a9.1,9.1,0,0,0-3.62,1.74C20,26,17.68,27.81,17.32,31.18s-.62,4.34.11,5.5a14.7,14.7,0,0,1,1.45,3.69c.18.73.11,2.4,2.11,2.69s4.29-.5,5.53-3.81a39.31,39.31,0,0,0,1.71-8.16l-.67-4.86Z"/><path class="cls-17" d="M27,33.88S24,42.21,23.58,42.64a8.9,8.9,0,0,1-3.93,1c-1.35,0-.55,1-1.38,1.19a15.85,15.85,0,0,1-2.52.29s1,2,1.89,2.29,1.43.09,1.84.78,1.7,2.74,2.29,3.83c.25-.92.61-2.17,1-3.25a19,19,0,0,1,2.91-4.7,16.48,16.48,0,0,0,2.58-7,24.43,24.43,0,0,0,0-6Z"/><path class="cls-18" d="M23.68,30.68A1.33,1.33,0,0,1,22.29,32a1.45,1.45,0,0,1-1.39-1.44,1.33,1.33,0,0,1,1.39-1.34A1.45,1.45,0,0,1,23.68,30.68Z"/><path class="cls-19" d="M23.12,30.27a.41.41,0,0,1-.43.42.45.45,0,0,1-.43-.45.41.41,0,0,1,.43-.42A.45.45,0,0,1,23.12,30.27Z"/><path class="cls-18" d="M12,29.8c0,.7-.39,1.25-.87,1.24s-.87-.6-.87-1.3.39-1.25.87-1.24S12,29.1,12,29.8Z"/><path class="cls-19" d="M11.67,29.43c0,.23-.13.42-.29.41s-.29-.2-.29-.43.13-.42.29-.41S11.67,29.19,11.67,29.43Z"/><path class="cls-20" d="M98.42,71.9v0l-.11-.14Z"/><path class="cls-20" d="M96.6,69.85a10.7,10.7,0,0,0-3.31-2.52c-2-.68-15.49,2.6-17.95,2.75S64.84,69,62.15,67.85a49.46,49.46,0,0,0-8.28-2.13l-2.8,7-1,2.09a17.09,17.09,0,0,1,5.87-.3c2.35.5,12.7,4.22,17.36,4.13s12.41-4.05,15.22-6,4.49-3.32,7-3.24A2.13,2.13,0,0,1,96.6,69.85Z"/><path class="cls-7" d="M37.75,107.21s.17.34.92.49a12.79,12.79,0,0,0,3.9-.28c.92-.26,1.84-.65,1.89-1.9,0,0,0-.08,0-.13-1-.42-2.19-.82-3-1.17a3.76,3.76,0,0,0-3-.26c-.34.37-1.76,2.29-1.68,2.79S37.75,107.21,37.75,107.21Z"/><path class="cls-3" d="M96,83h0c-.32,0-.57-.42-.57-.74l-.27-3.12c0-.32.53-.57.85-.56h0c.32,0,.85.29.85.62l-.27,3.1C96.65,82.62,96.37,83,96,83Z"/><path class="cls-21" d="M42.88,31.5a5.35,5.35,0,0,0-.09.74c-.06,1.1,1.34,2.18,2,3.18s-.24,3.16-.43,4.25.67,2.16,1.1,3-.06,3-.91,3-.67-2.4-.61-2.95-1-1.74-1.58-2.37-.18-3.05-2-3.36S38,38.77,36.75,38.24s.3-3.46-.73-5.57a4.19,4.19,0,0,0-2.33-1.89l-1.55-.11.24-.28a7.53,7.53,0,0,0-.81-.13s-3.11-.11-4.63,1.48-.79,8.14-.67,9.85-1.1,6.36-2.07,8.34,0,7,.61,7.95a32.57,32.57,0,0,1,2.56,6.61c.61,2.34,1.4,2.24,1.77,1.83s1,.4,1.34,2.55S31.5,72,33,71.4s1.28-4.28,1.46-5.8,1.65-1.28,2.56-1.5,2.26-2.3,3.17-4.1S42,59.34,43,58.88s1.71-3.42,4.15-2.48-.3,4.74-.37,6.63,1.83,4.09,2.38,4.66A5.4,5.4,0,0,1,50.34,71a1.94,1.94,0,0,0,.73,1.73s3-5.5,3.29-9.15S52.29,51.28,52,48.9s1.4-3.55,2.07-4.2,1-3.93.61-7.29A6.67,6.67,0,0,0,51,32.57c-2.45-.42-4.56-.74-5.81-.86Z"/><path class="cls-21" d="M113.64,44.75s-.08-.13-.24-.36a6.68,6.68,0,0,0-3.2.2c-.91.58-2.56.83-2.5,5s.67,5.94.49,7a7,7,0,0,0,.49,4.83,6.34,6.34,0,0,0,2.13,2.07c.89-4.47,1.76-8.77,1.95-9.69.38-1.87.8-4.88.8-4.88l.45-3.69A5.69,5.69,0,0,0,113.64,44.75Z"/><path class="cls-21" d="M98.93,40.47c-.12-1.59-.43-3.86-2.8-4.91l-1.76-.76A64.24,64.24,0,0,0,83.12,36a4.39,4.39,0,0,0-.22,2.8c.55,1.12,1.52,2.74-.06,3.35s-3.54-1.65-3.54-2.26a3.71,3.71,0,0,0-1.93-3.32,60.56,60.56,0,0,1-10.51-1.1l-1.93-.36c-1.76.63-4.67,2-4.71,3.82a25.68,25.68,0,0,1-1,7.46,6.79,6.79,0,0,0-.06,5.24c.73,1.67,2.32,4.47,1.1,6.62s-2.56,4.79-1.65,6.89,2,2.08,2.26,2.58A3.21,3.21,0,0,0,65,69.1c2.68-.88.85-5,2.26-5.9s5.12-2.2,5.3-5.85-2.26-5.5-2.19-6.42a2.81,2.81,0,0,1,3.54-1.71c1.52.72,1.16,3.64,1.71,4.63s2.5,4.29.73,5.27-5,2.26-4.76,5.44,2.19,1.48,4.76,3.09,3.41,6,5.85,5.08-.12-4.09.37-6.08,2.74-1.86,2.74-3.5-2.8-3.88-2.62-4.91,2,.31,2-1.58-2-4.27-1-5,2.13.5,3.23.36.67-1.62,2-1.21.67,2.83,2.8,3.09,2.5-.64,2.56-1.68a5.1,5.1,0,0,1,1.1-2.83c.73-1.07.49-3.34,1.52-3.54s3.41-.8,3.41-2.56S99,42.06,98.93,40.47Z"/><path class="cls-22" d="M117.17,71a46.53,46.53,0,0,1-.38-6.34c-.08-3.15.25-9.89-.71-14a18.46,18.46,0,0,0-2-5.31L113.56,49h0s1.34,2.27,1.51,7.18.21,16.57.88,19a13.07,13.07,0,0,0,3.19,6.23,31,31,0,0,1,4,5.42c.42.85.88,1.92.88,1.92s-.08-5-1.47-7.89S117.46,72.89,117.17,71Z"/><path class="cls-23" d="M117.17,71l0-.11a1.64,1.64,0,0,1-.73.32,2.34,2.34,0,0,1-.92-.2,25.93,25.93,0,0,0,.45,4.18,13.07,13.07,0,0,0,3.19,6.23,31,31,0,0,1,4,5.42c.42.85.88,1.92.88,1.92s-.08-5-1.47-7.89S117.46,72.89,117.17,71Z"/><path class="cls-9" d="M53.87,65.72A12.56,12.56,0,0,0,48.73,72c-1.27,4-2.61,12-4.1,13.66S43,87.05,42,86.65a4,4,0,0,0-.82-.33,41,41,0,0,1,.67,6.58h0c.37.09,1.57,1.92,1.34,5s-.22,5.21-1.27,7a19.37,19.37,0,0,1-2.43,2.84,14.06,14.06,0,0,0,3.07-.34c.92-.26,1.84-.65,1.89-1.9s0-2.81.34-3a1.18,1.18,0,0,0,.88-1.48,17.34,17.34,0,0,1-.88-4.64c0-1.47.08-5.45.71-6.94s2.05-4.25,2.1-5.42a26,26,0,0,1,1.26-6.2c.67-1.7,1.17-3,1.17-3s.91-.21,2.11-.34Z"/><path class="cls-24" d="M95.49,69.44c-2.52-.09-4.19,1.28-7,3.24A36.42,36.42,0,0,1,84.56,75a10,10,0,0,0,4.29,3.84c3.33,1.46,7.45,1.95,10,1.14a5.29,5.29,0,0,0,2.28-1.36C100.4,75.12,97.85,69.52,95.49,69.44Z"/><path class="cls-25" d="M95.49,69.44c-2.52-.09-4.19,1.28-7,3.24a31.43,31.43,0,0,1-2.74,1.66,10.74,10.74,0,0,0,7,3.69,21,21,0,0,0,8.09-.74C99.8,73.87,97.57,69.51,95.49,69.44Z"/><path class="cls-26" d="M95.49,69.44h-.11a9.08,9.08,0,0,1,3,4.69,30.89,30.89,0,0,1,1.23,5.54,5,5,0,0,0,1.55-1.08C100.4,75.12,97.85,69.52,95.49,69.44Z"/><path class="cls-27" d="M11,42.77S9.19,39.9,9.75,38.1s6.84-.95,7.54-.05.42,2-.14,3.21-.8,1.79-.8,1.79-2.55-.07-3.74-.22A6.06,6.06,0,0,0,11,42.77Z"/><path class="cls-7" d="M105.36,103.07a5.62,5.62,0,0,0-2.72-.34c-.67.89-1.32,1.75-1.24,2.09.13.59,1,.58,1,.58s.08.67,1.43.72,3.82.09,3.9-1.37c0,0,0-.09,0-.14A11.24,11.24,0,0,0,105.36,103.07Z"/><path class="cls-28" d="M15,40.66a.93.93,0,0,1,.12-.92c.35-.37,1.24-1.08,1.54-.87s.31.4-.27.84S15,40.66,15,40.66Z"/><path class="cls-28" d="M11.06,40.18a1.34,1.34,0,0,0-.07-.91c-.22-.39-.79-1.12-1-.94s-.2.37.17.84S11.06,40.18,11.06,40.18Z"/><path class="cls-29" d="M104.48,102.86a6.1,6.1,0,0,0-1.87,1.58c-.26.39-.45.69-.58.92a1.71,1.71,0,0,0,.38,0,11.07,11.07,0,0,1,1.25-1.66A7.57,7.57,0,0,0,104.48,102.86Z"/><path class="cls-21" d="M44,69.77c.42,0,1.69.34,1.41-1.5s-1.48-2.66-1.48-3.15,1.27-4.12-.28-4.17-4.51.34-3.31,3,2,1.76,2.4,3S43.53,69.75,44,69.77Z"/><path class="cls-18" d="M27.19,26.59s-1.13-2.76-1.51-3.53l-.2-.37a9.45,9.45,0,0,0-1,.29c.5,1.86,1.76,7.2.1,8.62-2,1.72-4.1,2.21-5,3.41a23.18,23.18,0,0,0-1.65,2.55,17.16,17.16,0,0,1,1,2.8c.18.73.11,2.4,2.11,2.69s4.29-.5,5.53-3.81a39.31,39.31,0,0,0,1.71-8.16l-.67-4.86Z"/><path class="cls-9" d="M15.74,45.14s1,2,1.89,2.29,1.43.09,1.84.78,2.05,3.3,2.47,4.2,2.18,5,2.39,7-.17,6.91.92,9.34,3.44,6.41,7.42,7.89,9.18.53,9.18.53l-.26-6.93a29.61,29.61,0,0,1-7.44,1.27c-2.91-.1-5.37-2.95-6-4.27s-2.91-16.44-3.91-19.16-4.28-4.94-7-5.72c-2.07-.59-6.82-.93-7.89,0a.81.81,0,0,0,.28.47l.29.22a5.14,5.14,0,0,0,3.48,1.8Z"/><path class="cls-30" d="M55.91,74.56c2.35.5,12.7,4.22,17.36,4.13s12.41-4.05,15.22-6c.82-.57,1.54-1.09,2.21-1.54-.53,0-1.15,0-1.78,0-1.69.09-13,5.84-15.49,6s-16.41-3.49-18.25-4a14.12,14.12,0,0,0-4.1-.37l-1,2.09A17.09,17.09,0,0,1,55.91,74.56Z"/><path class="cls-31" d="M112,42.82a8.8,8.8,0,0,1,.2,3.7c-.46,1.67-4.45,16.18-5.37,21.52s-1.3,15.29-2.45,16.1a3.67,3.67,0,0,1-2.14.63,11.07,11.07,0,0,0,.63,1.88,21.41,21.41,0,0,1,1.18,6.3,4.41,4.41,0,0,1,1.7,3.13c.23,2.69.54,6.84-.08,7.9-.33.57-.89,1.47-1.33,2.17,1.37,0,3.27-.11,3.35-1.39.08-1.46-.59-2.37-.08-3.11s1.34-1.17.92-1.81-1-4-1.09-7.84a29.78,29.78,0,0,1,.84-8.06c.29-.83,1.09-2.69.71-3.87a11.41,11.41,0,0,1-.34-5.67c.46-2.67,3.69-18.66,4.07-20.53s.8-4.88.8-4.88a6.23,6.23,0,0,1,.38.82l.11-4.45-.28-.43-.13-.17A9.87,9.87,0,0,0,112,42.82Z"/><path class="cls-29" d="M39.17,105.19c.24-.31.45-1,0-.42l-1.91,2.39a1.85,1.85,0,0,0,.51.05S39,105.41,39.17,105.19Z"/><path class="cls-32" d="M17.29,38.05c-.68-.87-6.65-1.7-7.48-.08A8.5,8.5,0,0,0,13,38.5a10.93,10.93,0,0,0,4.35-.41Z"/><g class="cls-33"><path class="cls-18" d="M15.75,45.16h0Z"/><path class="cls-18" d="M18.85,44l-.94-.23a12.7,12.7,0,0,1-3.66.32,8.11,8.11,0,0,1-3.54-1l-.8.07a5.14,5.14,0,0,0,3.48,1.8l2.35.25a15.85,15.85,0,0,0,2.52-.29C18.8,44.71,18.67,44.27,18.85,44Z"/></g><path class="cls-34" d="M9.91,43.1s-.4-.43,1-.41a46.88,46.88,0,0,1,5.63.41c1,.21,1.63.64,2.4.74.07,0,.14.3-.1.24a27.91,27.91,0,0,0-5.39-.91,13.08,13.08,0,0,0-3.33.12Z"/><path class="cls-1" d="M24.4,21.53a1.63,1.63,0,0,0,.1,2.12c1,1,3.29-.55,3.39-1.75s.07-3.13-.33-3.15-.33,2.37-1.38,2.7A3.17,3.17,0,0,1,24.4,21.53Z"/><path class="cls-2" d="M27.65,19.38c0,.51,0,2.34-.69,2.85a4.78,4.78,0,0,1-2.79.91,1.74,1.74,0,0,0,.33.5c1,1,3.29-.55,3.39-1.75a7.71,7.71,0,0,0-.2-3.06A2.9,2.9,0,0,0,27.65,19.38Z"/><path class="cls-16" d="M11.59,26C11,26.07,9.83,23.43,8,23.16s-4.44.43-4.74,1.43,1.89,4.26,4.11,4.84,2.85.14,2.85.14.06-.41.31-1.38A9.13,9.13,0,0,1,11.59,26Z"/><path class="cls-29" d="M95.42,100.65a14.2,14.2,0,0,0-1.29,1.73l.6,0a3.07,3.07,0,0,1,.32-.75,12.22,12.22,0,0,1,1-1.45C96.3,99.91,96,100.13,95.42,100.65Z"/><path class="cls-29" d="M34.25,103.39a15.26,15.26,0,0,1,1-1.36c.17-.24,0-.16-.58.41a8.54,8.54,0,0,0-1,1.45.31.31,0,0,0,.11.07l.1,0C34,103.89,34.09,103.65,34.25,103.39Z"/><path class="cls-9" d="M32.68,76.68c4,1.48,9.18.53,9.18.53l-.11-2.83a8.1,8.1,0,0,1-6.69,1.8c-3.43-.52-6.79-3.22-8.22-4.51A12.49,12.49,0,0,0,32.68,76.68Z"/></svg>