<svg id="Animals&#x52A8;&#x7269;" xmlns="http://www.w3.org/2000/svg" viewbox="0 0 128 128" width="128" height="128"><defs><style>.cls-1{fill:#736660;stroke:none;}.cls-2{fill:#fed9c5;stroke:none;}.cls-3{fill:#fabfa2;stroke:none;}.cls-4{fill:#e37e50;opacity:0.27;stroke:none;}.cls-5{fill:#fbc7ad;stroke:none;}.cls-6{fill:#786a63;stroke:none;}.cls-7{fill:#ffd4ca;stroke:none;}.cls-8{fill:#feb8a4;stroke:none;}.cls-9{fill:#ddc0a4;stroke:none;}.cls-10{fill:#e2ccb4;stroke:none;}.cls-11{fill:#ceaa8a;stroke:none;}.cls-12{fill:#fedbc7;stroke:none;}.cls-13{fill:#fcd2ba;stroke:none;}.cls-14{fill:#fed4bc;stroke:none;}.cls-15{fill:#e6d2bd;stroke:none;}.cls-16{fill:#c69f81;stroke:none;}.cls-17,.cls-19,.cls-20{fill:#d4b294;stroke:none;}.cls-18{fill:#c8a88c;stroke:none;}.cls-19{opacity:0.58;stroke:none;}.cls-20{opacity:0.65;stroke:none;}.cls-21{fill:#cfaa90;stroke:none;}.cls-22{fill:#cead90;stroke:none;}.cls-23{fill:#ceac8b;stroke:none;}.cls-24{fill:#ceb59b;stroke:none;}.cls-25{fill:#a38872;stroke:none;}.cls-26{fill:#c4ab90;stroke:none;}.cls-27{fill:#e6d3c0;stroke:none;}.cls-28{fill:#f7a78b;stroke:none;}.cls-29{fill:#f5977b;stroke:none;}.cls-30{fill:#fee3d5;stroke:none;}.cls-31{fill:#ffc2ab;stroke:none;}.cls-32{fill:#5e534e;stroke:none;}.cls-33{fill:#fff;stroke:none;}.cls-34{fill:#756863;stroke:none;}.cls-35{fill:#756862;stroke:none;}.cls-36{fill:#5e534f;stroke:none;}.cls-37{fill:#756861;stroke:none;}.cls-38{fill:#746761;stroke:none;}.cls-39{fill:#5d524d;stroke:none;}</style></defs><title>animals&#x52A8;&#x7269;</title><path class="cls-1" d="M93.81,112.82s.42,1.42.79,1.37.42-1.42.29-1.92l-.12-.5Z"/><path class="cls-2" d="M92.76,86.95a36,36,0,0,1,.94,13c-.94,6.29-4.58,13.05-6.29,14.87s-3.69,3.38-2.91,3.38,4.42.36,5.2.26,3-.78,3.17-1.4.36-3.17.94-3.59,1.82-.57,1.87-2.65.88-8.63,2.18-11.65,2.91-5.2,2.6-6.71-1.09-3.07-1-4.73.21-2.65.21-2.65-1.87.26-3.54.62A16.21,16.21,0,0,0,92.76,86.95Z"/><path class="cls-3" d="M96.15,85.7a16.21,16.21,0,0,0-3.38,1.25s.16.58.36,1.55a3.64,3.64,0,0,0,1.14.32,3.79,3.79,0,0,0,2-.78s-.57,6.55.52,6.81a2.12,2.12,0,0,0,2.5-2.5c-.42-1.77-.88-4-.26-4.58l.5-.5c.09-1.39.18-2.21.18-2.21S97.81,85.34,96.15,85.7Z"/><path class="cls-4" d="M95.73,101.72c-1.61,5.1-1.4,7.49-2.44,9.31a6.4,6.4,0,0,1-2.08,2.5c-.26.16-.94.05-1.09,1.14a3.41,3.41,0,0,1-2.34,2.55,15.34,15.34,0,0,1-3,.26c-.42.45-.58.73-.25.73.78,0,4.42.36,5.2.26s3-.78,3.17-1.4.36-3.17.94-3.59,1.82-.57,1.87-2.65.88-8.63,2.18-11.65c.83-1.94,1.79-3.53,2.29-4.82A17.46,17.46,0,0,0,95.73,101.72Z"/><path class="cls-1" d="M110.24,115.2s.43,1.61.85,1.47.57-1.56.28-2.37l-.28-.81Z"/><path class="cls-2" d="M102.95,89.34s3,5.49,3.32,9.71.57,11.37-.85,14.92a13.53,13.53,0,0,1-3.88,5.54c-.66.66-1.7,1.61-1.14,1.66s2.13-.09,2.13.38,0,.85.76.81,4.31-.66,5.11-2,.76-3.41,1.61-4.17a5.53,5.53,0,0,0,1.75-4.55c-.09-2.37-1.18-7.39-.85-10.66s1.37-7.86.24-9.52-2.42-3.55-2.89-4.4l-.47-.85Z"/><path class="cls-5" d="M109,88.22c-.3-.47-.55-.87-.71-1.15l-.47-.85-4.83,3.13s.36.65.83,1.69a1.73,1.73,0,0,0,.63-.17l.43-.24s.38-.24,1.85,1.75,1.94,3.13,3.22,2.23S109.49,89.54,109,88.22Z"/><path class="cls-4" d="M111.75,111.64c-.09-2.37-1.18-7.39-.85-10.66.12-1.23.35-2.64.52-4a8,8,0,0,0-1.28,4.21c-.33,3.79.38,10.23-.43,12.17s-2.94,2.6-3.13,3.32-1.61,3.55-1.8,4.17c-.12.38-.34.91-.46,1.37,1.36-.26,3.46-.85,4.06-1.84.81-1.33.76-3.41,1.61-4.17A5.53,5.53,0,0,0,111.75,111.64Z"/><path class="cls-6" d="M44.24,117.13s0,1.32.55,1.21.66-1.21.55-1.69l-.11-.48Z"/><path class="cls-2" d="M40.08,87.1a10.36,10.36,0,0,0,.23,3.8,10.08,10.08,0,0,1,.29,4.37c-.17.86-.63,2.19,0,3.28s1.61,4.14,1.21,8.8-.92,7.71-2.65,9.32a39.72,39.72,0,0,0-3.11,3.28s2,0,1.84.46-.46,1.38.69,1.15,4.08-.75,4.31-1.21.46-2,.92-2.36,1.78-1,1.78-2.3-.29-5.81-.23-7a28,28,0,0,0-.12-4,8.38,8.38,0,0,1,.17-4.08c.58-1.9,1.38-4.08.92-5.18a9.51,9.51,0,0,1-1-4.72A29.18,29.18,0,0,0,45,86.23Z"/><path class="cls-4" d="M46.35,95.38a9.51,9.51,0,0,1-1-4.72A29.18,29.18,0,0,0,45,86.23l-4.95.86a10.59,10.59,0,0,0,0,2.21,7.22,7.22,0,0,1,1.88,0c.69.17.8.17,1.21,1.55a25,25,0,0,1,1.09,5.81c-.12,1.15-1.27,3.91-1.15,5.92s1.38,11.79.29,13.63S41.06,118,41,118.49a3.21,3.21,0,0,1-.92,1.9c-.33.3-.94.77-1.44,1.14,1.18-.24,4-.74,4.26-1.2s.46-2,.92-2.36,1.78-1,1.78-2.3-.29-5.81-.23-7a28,28,0,0,0-.11-4,8.38,8.38,0,0,1,.17-4.08C46,98.65,46.81,96.47,46.35,95.38Z"/><path class="cls-6" d="M57.54,112.54s.85,2,1.07,1.92.49-.89,0-2.1l-.45-1.21Z"/><path class="cls-2" d="M50.35,86.69a30.55,30.55,0,0,1,1.29,4.82c.18,1.65-.13,3.75.58,5.09a20.05,20.05,0,0,1,1.92,8.8,17.71,17.71,0,0,1-2.81,9.51c-1,1.38-2.14,2.46-1.83,2.63s1.34.63,3.88.31,3.17-.58,3.21-1.21a6.6,6.6,0,0,1,.63-2.77c.45-.54,2-1.29,1.34-3s-1.92-3.66-1.83-6.3a42.22,42.22,0,0,1,.54-6.34,9.07,9.07,0,0,0,.09-5.09c-.67-2-1.52-2.77-2.19-6.38l-.67-3.62Z"/><path class="cls-4" d="M58.56,110.89c-.63-1.7-1.92-3.66-1.83-6.3a42.22,42.22,0,0,1,.54-6.34,9.07,9.07,0,0,0,.09-5.09c-.67-2-1.52-2.77-2.19-6.38l-.67-3.62-4.15,3.53s.2.56.44,1.34a4,4,0,0,1,2.37.67c.85.76,2.19,4.33,2,5.67s-1,2.41-.63,4.64,2.63,12.72,2.19,13.66A2.17,2.17,0,0,1,55,114.15c-.8.18-1.83.4-2.19,1a4.41,4.41,0,0,1-1.38,1.79c-.49.28-1.07.58-1.44.84a8.47,8.47,0,0,0,3.36.1c2.54-.31,3.17-.58,3.21-1.21a6.6,6.6,0,0,1,.63-2.77C57.67,113.35,59.19,112.59,58.56,110.89Z"/><path class="cls-7" d="M17.65,20.9s-3.21,1.65-5,1.65-3.64-1-3.8-.79a3.4,3.4,0,0,0,2,3.57,7.13,7.13,0,0,0,4.33.43A40.83,40.83,0,0,0,18,22.19,2.87,2.87,0,0,0,17.65,20.9Z"/><path class="cls-8" d="M15.63,25.23c.45-.53,1.16-1.37,1.68-2a10.38,10.38,0,0,1-3.66.65c-1.62-.17-3.7-1.16-3.64-.79s.1,1.29,2,1.75A21,21,0,0,0,15.63,25.23Z"/><path class="cls-9" d="M17.22,22.49s-4.08,4.45-5.79,6-4.68,4.22-6.26,5.86-1.91,2.47-1.78,3,.4,1.09.23,1.45a2.17,2.17,0,0,0,.13,2c.49,1.09,1.09,1,1.25,1.15s0,1.45,1.09,1.94a6.66,6.66,0,0,0,4.81-.23c2.08-.72,3.25-1.27,4.11-1.27a10.94,10.94,0,0,1,1.6.12s-1.48.7-1.56,1.48,1.48,2,1.27,2.34A7.93,7.93,0,0,0,15.14,49c0,.78,1.11,1.23,1,1.44a2.92,2.92,0,0,0-.58,2.3c.33,1.15,2.1,1.77,2.18,2.43s-.37,2.51.7,4.36,2.14,1.23,2.59,2.92.53,7.69,1.93,9,3.12,1.85,3.33,2.34,0,1.73.66,2.18,1.11.12,1.6,1.27.49,2.51,2.1,3.21,7.36,1.93,7.89,3.17-.37,3,.16,3.62,1.44.45,1.56.66.21.82.86.58,1.48-1.52,2.26-1.23,1.15,1.36,2.18,1.07,1.19-.78,1.52-1.44a13.59,13.59,0,0,1,.74-1.27.88.88,0,0,0,1,.37,4,4,0,0,0,1-.25s-.49,1.23.62,1.56a1.58,1.58,0,0,0,1.73-.58,1.3,1.3,0,0,0,1.69.53c1.23-.41,1.19-1.32,1.19-1.32a1.44,1.44,0,0,0,1.52-.29c.7-.66.53-1.19.53-1.19s3-.45,3.49,0,.62,1.27,1.52,1.15,2.06-.74,3.17-.21a7.14,7.14,0,0,0,4.4,1c2-.25,4-.82,5.55-.37a13.16,13.16,0,0,0,5.26.66c1.44-.29,2.67-2.3,4-2.18s1.73.82,3.17.49a7.56,7.56,0,0,0,3-1.93,1.73,1.73,0,0,0,.45.82l.37.37a1.37,1.37,0,0,0-.62,1.4,2.62,2.62,0,0,0,2.84,2.18c1.85-.08,2.18-1.32,2.18-1.32a1.91,1.91,0,0,0,1.48.45A2.58,2.58,0,0,0,98.57,86a1.21,1.21,0,0,0,.53.53.79.79,0,0,0,.53,0,3.7,3.7,0,0,0,.29,2.22,3.42,3.42,0,0,0,3.58,1.15,2.11,2.11,0,0,0,1.85-1.48s2,1,3.17.08.62-2.59.78-3.08a9.93,9.93,0,0,1,1-2.8,5.76,5.76,0,0,0,1.11-2.43,7.77,7.77,0,0,1,2.18-3.87A11.14,11.14,0,0,0,117,71.89c.62-1.77,1.69-3.82,1.64-4.85s-.25-3.25,0-2.75,1.11,3.08,1.85,3.54a2.53,2.53,0,0,0,1.15.45s-.53,1.6.37,1.93,2.84,0,2.63-1.77a16.92,16.92,0,0,1,.16-4.61c.16-.7.37-2.67-.37-3.58a10.81,10.81,0,0,1-2.71-4c-1.07-2.63-2.38-4.65-3.21-5.18A6.43,6.43,0,0,1,116.41,49c-.21-.58-1-1.52-1.56-1.6a1.9,1.9,0,0,1-1.44-.66c-.37-.49-1.93-1.19-2.75-1.93s-2.71-2.71-3-3-1.77-2.06-2.67-2.14-2.43,0-3-.53a3.5,3.5,0,0,0-2.18-1.15c-1-.08-3,1.19-3.82,1.11s-1.89-1.6-2.75-1.77-4.85-1.32-5.43-1S85,38.66,84.22,38.62,82,37.55,80.85,37.39s-2.59-.74-3.95-.12S72,40.35,67,40.31,61.11,38.62,59.18,39s-2.22.7-2.55.62-.45-.25-.9-.12-.58.33-1.07.25a6.08,6.08,0,0,0-2.34-.12,4.67,4.67,0,0,1-3.7.21c-2-.7-3.17-4.32-4.52-4.77s-1.89.58-3.45-1.36S38.5,30,38.7,29.29a6.46,6.46,0,0,0-1.52-5.18c-1.64-1.6-2.18-.86-3.54-2s-.78-2.34-2.34-2.88-2.55.29-3.74,0S24.39,17,22.83,17.32,20.94,18.6,20,19s-1.64-.16-2.43.9A3.5,3.5,0,0,0,17.22,22.49Z"/><path class="cls-10" d="M87.93,36c-.58.29-2.88,2.43-3.62,2.38s-2.18-1.07-3.37-1.23S78.35,36.37,77,37s-4.93,3.08-9.91,3-5.88-1.69-7.81-1.32-2.22.7-2.55.62-.45-.25-.9-.12-.58.33-1.07.25a6.08,6.08,0,0,0-2.34-.12,4.67,4.67,0,0,1-3.7.21c-2-.7-3.17-4.32-4.52-4.77s-1.89.58-3.45-1.36-2.14-3.7-1.93-4.4a6.46,6.46,0,0,0-1.52-5.18c-1.64-1.6-2.18-.86-3.54-2s-.78-2.34-2.34-2.88-2.55.29-3.74,0S24.49,16.68,22.92,17s-1.89,1.27-2.8,1.64-1.64-.16-2.43.9a4,4,0,0,0-.29,2.89s-.86.84-2,2.08c1.39,1.69,5,6,7.71,7.61a16.52,16.52,0,0,0,7.27,2,5.66,5.66,0,0,1,2.05,3.53c.11,2-1.5,5.28-1.72,6.39s-.11,2.06.78,2.17,1.78-.89,1.78-.89-1,2.17.5,3.28a5.88,5.88,0,0,0,3.44,1S34.09,52.53,35.59,55s3.28,2.11,3.67,2.89-1.72,3.11-1.5,3.89,1.94,1.11,1.94,1.11-1.44.44-1.11,1.61,1.89,1.61,1.89,1.61-2.11,2.11-1.83,4.28a4.47,4.47,0,0,0,2.28,3.17s-.17,3.72,1.78,3.72S45,75.91,45,75.91s.67,1,1.83-.17.22-3.05.22-3.05,1.22,1,1.67-.94A11.07,11.07,0,0,0,49,68.36a2.23,2.23,0,0,0,1.83.17,3.19,3.19,0,0,0,1.67-1.22S51.7,68.8,53.7,69a7,7,0,0,0,3.78-.78s-1.11,2.17,1.72,2.28,5.17-2.94,5.17-2.94.94,2.44,3.11,2.67a4.94,4.94,0,0,0,3.78-1.61A2.19,2.19,0,0,0,73,70.41a4.06,4.06,0,0,0,3.28-1s.06,1.22,1.89,1.28a2.78,2.78,0,0,0,2.55-1.5A2.73,2.73,0,0,0,84,70.41c2.11-.72,2.33-4.05,2.33-4.05a2,2,0,0,0,2.44.94c1.56-.67,2.11-3.5,2.11-3.5s.17,1.56,2.06.11a10.86,10.86,0,0,0,2.28-2.06A2.41,2.41,0,0,0,97,63.58a13.49,13.49,0,0,0,2.61.67s-.22,3.89,1.22,4.5,2-.28,2-.28-1,3.55,2.22,3.61S108,67.52,108,67.52a8.7,8.7,0,0,0,.67-5.33c-.67-2.67-2.5-2.28-2.5-2.28s1.22-2.78-.28-5a5.78,5.78,0,0,0-4.33-2.28s1.94-2.39,1.44-4.78a5.53,5.53,0,0,0-1.83-3.33s2.22.22.83-1.94-5.86-3.83-5.86-3.83c-.82-.08-1.89-1.6-2.75-1.77S88.5,35.67,87.93,36Z"/><path class="cls-11" d="M27.68,25.36c-.66-.29-.37-1.49-.37-1.49a2.81,2.81,0,0,1-2.15-.08c-1.13-.52-.31-2.15-.31-2.15S22.7,22.95,22,22.87s-.13-1-.13-1-.37.21-1.15-.16A1.27,1.27,0,0,1,20,20.46a4.55,4.55,0,0,1-1.94.71,1.28,1.28,0,0,1-.87-.42,4.06,4.06,0,0,0,0,1.74l-.88.95,2,2.29,10,1.81a4.6,4.6,0,0,0,.05-1.28C28.38,25.62,28.33,25.65,27.68,25.36Z"/><path class="cls-12" d="M28.74,26.92A5.17,5.17,0,0,1,27,25.78a1.39,1.39,0,0,1-.27-.57s-1.51.91-2.3.27-.72-2.54-.72-2.54-1.15,1.75-2.33,1.57a1.81,1.81,0,0,1-1.6-1.66,2.78,2.78,0,0,1-.09-1,12.37,12.37,0,0,1-1.21.6,5.42,5.42,0,0,1-1.5.3c-.9,1-4.08,4.4-5.55,5.7C9.72,30,6.76,32.66,5.17,34.31s-1.91,2.47-1.78,3,.4,1.09.23,1.45a2.17,2.17,0,0,0,.13,2c.49,1.09,1.09,1,1.25,1.15s0,1.45,1.09,1.94a6.66,6.66,0,0,0,4.81-.23c2.08-.72,3.25-1.27,4.11-1.27a10.94,10.94,0,0,1,1.6.12,3.23,3.23,0,0,1,2.4-.43c1.18.36,2.66,1.33,4,.76s7.19-3.29,7.25-8.37S29.41,27.2,28.74,26.92Z"/><path class="cls-13" d="M28.74,26.92A5.17,5.17,0,0,1,27,25.78a1.39,1.39,0,0,1-.27-.57s-1.51.91-2.3.27-.72-2.54-.72-2.54-1.15,1.75-2.33,1.57a1.81,1.81,0,0,1-1.6-1.66,2.78,2.78,0,0,1-.09-1,12.37,12.37,0,0,1-1.21.6,5.42,5.42,0,0,1-1.5.3l-.29.32a2.69,2.69,0,0,0,1.05.23c.79,0,.94-.27.94-.27a3.3,3.3,0,0,0,1.67,1.67,4.66,4.66,0,0,0,2.24.09,8.27,8.27,0,0,0,1.55,1.55,2,2,0,0,0,2.09.06c.27-.15.55.21.88.52a13.11,13.11,0,0,0,1.27.82c.39.27,1.12,2,1.12,5.79a6.88,6.88,0,0,1-3.88,6.12,9.35,9.35,0,0,1-4.52,1.27c-2.09-.12-4.3-3.21-4.67-3.73s-.06.55,0,1.91c.07,1-3.41,3.34-5.1,4.38A14.24,14.24,0,0,1,15,42.36a10.94,10.94,0,0,1,1.6.12,3.23,3.23,0,0,1,2.4-.43c1.18.36,2.66,1.33,4,.76s7.19-3.29,7.25-8.37S29.41,27.2,28.74,26.92Z"/><path class="cls-14" d="M17.56,32.7a21.66,21.66,0,0,0,2-2.27c.21-.45,1.33-3.21,2.61-3.46a3.39,3.39,0,0,1,3.49,1.61c.85,1.3.67,1.82.67,1.82a1.06,1.06,0,0,0-.85.61c-.27.58-.73,1.24-2.42,1.45s-2.33-.48-3.43-.3A11.63,11.63,0,0,0,17.56,32.7Z"/><path class="cls-15" d="M37.18,24.11c-1.64-1.6-2.18-.86-3.54-2s-.78-2.34-2.34-2.88-2.55.29-3.74,0S24.39,17,22.83,17.32a3.77,3.77,0,0,0-1.27.54,2,2,0,0,1,1.57.46c.61.79.82,2,1,1.88s1.33-1,2-.76,1.67,1.49,2,1.3a1.62,1.62,0,0,1,2.06,0,2.45,2.45,0,0,1,1.06,2c0,.45-.18,1.27.33,1s1.09-.7,1.64-.39.48,2,1,2.06a2.14,2.14,0,0,1,1.91,1c.52.88.42,1.91,1.18,1.82.42-.05,1-.07,1.46-.08A6.25,6.25,0,0,0,37.18,24.11Z"/><path class="cls-16" d="M29.56,26.38s.58,2.28.68,3.26a11.31,11.31,0,0,0,.82,3.87,7.63,7.63,0,0,0,4.62,3.67c2.34.68,4.08.48,4.18,0s-.71-1.22-1.5-1.56-6.8-6.93-7.07-7.68a10.11,10.11,0,0,0-.75-1.53Z"/><path class="cls-17" d="M37.09,77.3a3.44,3.44,0,0,1,.37-2.13s-1.4-.37-1.77-2.65a4.42,4.42,0,0,1,1-3.68,3.88,3.88,0,0,0-2.65,2.28c-1,2.06,1,4.71,1,4.71s-.88-.07-1.69,1.1S33,80.32,33,80.32a9.12,9.12,0,0,0-1.62-.74,1.46,1.46,0,0,0-1.49.37,2.89,2.89,0,0,0,.82.53C32,81,36,82,37.77,82.94a10.7,10.7,0,0,1-.24-2.26,2.36,2.36,0,0,1,.88-1.62A3.06,3.06,0,0,1,37.09,77.3Z"/><path class="cls-18" d="M34.07,62.13s-2.12,2-3.1,1a1.81,1.81,0,0,1-.49-2,1.85,1.85,0,0,1-2-.71,2.09,2.09,0,0,1-.22-1.85,2.21,2.21,0,0,1-1.85-2.23c0-2,1.63-1.9,1.63-1.9s-1-.82-.65-1.74A1,1,0,0,1,28.69,52a1.88,1.88,0,0,1-.76-1.8A1.58,1.58,0,0,1,29.07,49,1.27,1.27,0,0,1,28,47.61a2.94,2.94,0,0,1,.76-1.85s-2.12.33-2.23,2,.54,2,.54,2-.76.11-.92.65.44,1.14.44,1.14a2.34,2.34,0,0,0-1.25,1.8c-.22,1.36.65,1.58.65,1.58s-2.12,1.31-1,4.3S28.47,62,28.47,62s-.71,1.74.54,2.45,3.75-.54,4.52-1.09A1.17,1.17,0,0,0,34.07,62.13Z"/><path class="cls-19" d="M42.4,62.73s-1-2.88.22-3.1a1.93,1.93,0,0,1,1.9,1,2.57,2.57,0,0,1,2.83-2.12,2.53,2.53,0,0,1,2.45,2.34s.54-1,1.31-.49A1.87,1.87,0,0,1,52,61.53a1.72,1.72,0,0,1,2.23-.22,2.53,2.53,0,0,1,1,3.16l-.44.71s-.16-1.8-1.31-2.28a2,2,0,0,0-2.12.6s.22-1.41-.76-1.58a1.72,1.72,0,0,0-1.58.65s-.49-2.18-1.74-2A1,1,0,0,0,46.48,62s-.76-.38-1-.11a1.17,1.17,0,0,0-.22.82s-.71-1.58-1.74-1.2A1.54,1.54,0,0,0,42.4,62.73Z"/><path class="cls-20" d="M55.18,57.23s.6-.82,1.25-.82h.65s.05-2.12,1-2.23a2.24,2.24,0,0,1,1.69.6s.65-1.58,2-1.58a3.87,3.87,0,0,1,2.12.54,4.69,4.69,0,0,1,4.46-3.26c3.7-.22,5.06,2.07,5.06,2.07s1.14-2.56,3-2.23a3,3,0,0,1,2.23,2.45,2,2,0,0,1,2.45.54c1,1.31,1.31,3.37.71,4.41a4.11,4.11,0,0,1-2.18,1.47,1.85,1.85,0,0,1,.54,1.58c-.11,1-1.8,1.85-1.8,1.85a2.67,2.67,0,0,0,.44-1.69,1.43,1.43,0,0,0-1.09-1.14s2.77-1.9,1.41-3.7A2.31,2.31,0,0,0,76,55.71s-.44-.92-1.2-1a.66.66,0,0,0-.82.6s-3.32-2.83-5.33-2-2.23,3.54-2.23,3.54a4.62,4.62,0,0,0-1.8-.22c-.54.16-.76,1.09-.76,1.09a3,3,0,0,0-2.18-1.31,3.6,3.6,0,0,0-2.12.49s-.82-.76-1.25-.71S57,57.29,57,57.29s-.27-.54-.76-.38Z"/><path class="cls-21" d="M104.3,49.73s-.22-1.47.76-1.58a1.3,1.3,0,0,1,1.31.92s.38-2.5,1.63-2.28a2.17,2.17,0,0,1,1.63,1.36s.54-1.2,1.63-.22a2.74,2.74,0,0,1,.54,2.67,2.84,2.84,0,0,1,3.16,1.2,2,2,0,0,1-.27,2.77,2.88,2.88,0,0,1,2,2.56A1.86,1.86,0,0,1,115,59.19a3.51,3.51,0,0,1,.6,2.77c-.27,1.8-1.52,1.8-1.52,1.8s1.2,1,.11,2.88a4,4,0,0,1-3.37,1.85,2.76,2.76,0,0,0,1.52-2.12c.11-1.47-.82-1.85-.82-1.85s1-.05,1-1.41a2,2,0,0,0-.76-1.85s2-.44,2-1.74a1.15,1.15,0,0,0-1.2-1.25s1.47-.54,1.25-1.74a.84.84,0,0,0-1.25-.71s.65-1.69-.16-2.5-2.28.16-2.28.16,1-2.28.33-2.88a1.29,1.29,0,0,0-1.25-.38s.6-1.2-.65-1.25a2.39,2.39,0,0,0-2,1.2,2.24,2.24,0,0,0-1.31-.87A.89.89,0,0,0,104.3,49.73Z"/><path class="cls-21" d="M120.53,67.82a2.53,2.53,0,0,0,1.15.45,9.64,9.64,0,0,1,.14-1.46l.11-.38a2.8,2.8,0,0,1-1.31-1.85,2.63,2.63,0,0,1,.49-1.85,4.9,4.9,0,0,1-2-2.94c-.27-1.8,1.09-2.23.6-2.77A12.11,12.11,0,0,1,118,54.9a9.31,9.31,0,0,1-.76-1.9s-.65,2.56-.22,3.32,1.14.44.87,1.47-.92,1-.22,2.45a16.93,16.93,0,0,1,1,4.05C119,64.77,119.79,67.36,120.53,67.82Z"/><path class="cls-22" d="M98.57,86a1.21,1.21,0,0,0,.53.53.79.79,0,0,0,.53,0,3.7,3.7,0,0,0,.29,2.22,3.42,3.42,0,0,0,3.58,1.15,2.11,2.11,0,0,0,1.85-1.48s2,1,3.17.08.62-2.59.78-3.08A17.87,17.87,0,0,1,110,83l-.52,0A3.58,3.58,0,0,1,107.19,82s-.49,3.43-3.48,2.12,0-4.35,0-4.35a3.38,3.38,0,0,1-3.26-1.69C99,76,100.66,73,100.66,73s-1.63.38-2.94-1.63,1-6,1-6a4.39,4.39,0,0,1-2.56.27c-1.47-.27-1.58-1.2-1.58-1.2a7.79,7.79,0,0,1-.92,4C92.61,69.91,90,70,90,70s.87,1.69-1,4.52a6,6,0,0,1-4.9,2.72s.6,1.09-.76,2.12a3.39,3.39,0,0,1-3,.38,5.4,5.4,0,0,1-1,4,8.12,8.12,0,0,1-3.12,2.51,11.3,11.3,0,0,0,4.36.41c1.44-.29,2.67-2.3,4-2.18s1.73.82,3.17.49a7.56,7.56,0,0,0,3-1.93,1.73,1.73,0,0,0,.45.82l.37.37a1.37,1.37,0,0,0-.62,1.4,2.62,2.62,0,0,0,2.84,2.18c1.85-.08,2.18-1.32,2.18-1.32a1.91,1.91,0,0,0,1.48.45A2.58,2.58,0,0,0,98.57,86Z"/><path class="cls-23" d="M53.34,77.06a5.51,5.51,0,0,0,1.08-1.64A3.51,3.51,0,0,0,53,71.86a4.86,4.86,0,0,0-3-.94,5.55,5.55,0,0,1,1.41,1c.7.7,0,1.55-.47,2.25s.89.56.89,2.53a3.17,3.17,0,0,1-2.11,2.72,1.33,1.33,0,0,1,1.08,1.12c.14,1-1.9,3-1.9,3L48.82,86h0a4,4,0,0,0,1-.25s-.49,1.23.62,1.56a1.58,1.58,0,0,0,1.73-.58,1.3,1.3,0,0,0,1.69.53,2,2,0,0,0,.86-.52,19.92,19.92,0,0,0,.2-3.16c-.14-.56-1.22-1.45-.89-2.16s1.36-.33,1.5-2S53.34,77.06,53.34,77.06Z"/><path class="cls-24" d="M96.14,80.84c-.71-.71-.22-2.56-1.31-2.88s-1.09,1.69-1.36,2.56S90.67,83,90.67,83a1.73,1.73,0,0,0,.45.82l.37.37a1.37,1.37,0,0,0-.62,1.4,2.62,2.62,0,0,0,2.84,2.18c1.85-.08,2.18-1.32,2.18-1.32a1.91,1.91,0,0,0,1.48.45A2.58,2.58,0,0,0,98.57,86,13.78,13.78,0,0,1,98,83.67C97.72,81.82,96.85,81.55,96.14,80.84Z"/><path class="cls-25" d="M98,83.67c-.33-1.85-1.2-2.12-1.9-2.83s-.22-2.56-1.31-2.88-1.09,1.69-1.36,2.56a3,3,0,0,1-.86,1,2.73,2.73,0,0,0,.69.91c.6.44,1.8,0,1.8,0s-1.36,1.31-.16,2.18,1.52-.16,1.52-.16a1.79,1.79,0,0,0,1.36,1,2.15,2.15,0,0,0,.59-.05C98.33,85.12,98.2,84.55,98,83.67Z"/><path class="cls-26" d="M48.86,86a4,4,0,0,0,1-.25s-.49,1.23.62,1.56a1.58,1.58,0,0,0,1.73-.58,1.3,1.3,0,0,0,1.69.53c1.23-.41,1.19-1.32,1.19-1.32a1.44,1.44,0,0,0,1.52-.29c.7-.66.53-1.19.53-1.19a8.86,8.86,0,0,1-2.13,0c-1.23-.13-1.81-1.36-2.55-1.85s-2.16.57-3,.7-.66.7-.7,1.23-.87,1.05-.87,1.05A.88.88,0,0,0,48.86,86Z"/><path class="cls-27" d="M85.35,38.09a2.47,2.47,0,0,1-1.13.53c-.74,0-2.18-1.07-3.37-1.23s-2.59-.74-3.95-.12S72,40.35,67,40.31,61.11,38.62,59.18,39s-2.22.7-2.55.62-.45-.25-.9-.12-.58.33-1.07.25a6.08,6.08,0,0,0-2.34-.12,4.67,4.67,0,0,1-3.7.21c-2-.7-3.17-4.32-4.52-4.77-1.15-.38-1.71.29-2.8-.66a3.78,3.78,0,0,0-.09,2.22c.41.66,2,.25,1.95.79s-.91,2.53.46,3.35,3.11.17,3.11.79-.46,4.14,3.15,4.68,4.26-2.15,4.26-2.15,0,.62.75.5,1.28-1.12,1.28-1.12.25,1.08,1.66.83,1.32-1,1.32-1,.87,1.12,3.56,1.2,3.64-1,5.26-1.08,2,.75,3.81.62,1.53-1.12,2.32-1,3,.29,4-.83.17-2.53.75-2.32,1.16.87,1.95,0-.21-1.7.17-1.57,1.61,1.2,3.06.87A2,2,0,0,0,85.35,38.09Z"/><path class="cls-28" d="M4.21,38.41a4.64,4.64,0,0,1-.77-.95c.14.48.34,1,.19,1.29a2,2,0,0,0-.14.4,5,5,0,0,0,1.05.06C4.84,39.27,4.62,38.75,4.21,38.41Z"/><path class="cls-28" d="M6,39.57a.15.15,0,0,1,0-.29c.48-.19,1.25-.5,1.64-.7.58-.31,1.14-.92,1.45-.53s.56.89-.14,1.2A3.6,3.6,0,0,1,7,39.69,5.16,5.16,0,0,1,6,39.57Z"/><path class="cls-29" d="M9.29,42.58a4.6,4.6,0,0,0,2.89-2.17c.06-.33-1.67,1.53-3.39,1.81a4.68,4.68,0,0,1-3.31-1c-.33-.17-.72.53-.72.53v0a.77.77,0,0,1,.26.12,1.47,1.47,0,0,1,.12.51l.8.27A8.82,8.82,0,0,0,9.29,42.58Z"/><path class="cls-30" d="M29.56,26.38a3.49,3.49,0,0,1,4,.48c2.11,1.7,2.48,5.51,4.45,7.14s3,2.17,2.38,2.55A7.85,7.85,0,0,1,35.31,36c-1.29-.85-3.7-2.51-4.11-3.7s-.54-4.45-.82-5A3.73,3.73,0,0,0,29.56,26.38Z"/><path class="cls-31" d="M37,35c.25-.38-2.92-2.62-3.52-3.16a7.38,7.38,0,0,1-1.89-2.54,4.8,4.8,0,0,0-1-1.39c.14.81.26,2.27.44,3.38a22.67,22.67,0,0,0,1.8,1.65C34.92,34.43,36.68,35.43,37,35Z"/><path class="cls-25" d="M55.07,85.95a1.44,1.44,0,0,0,1.52-.29c.7-.66.53-1.19.53-1.19a8.86,8.86,0,0,1-2.13,0c-1.23-.13-1.81-1.36-2.55-1.85s-2.16.57-3,.7a.82.82,0,0,0-.54.26,6.85,6.85,0,0,0,1.6.36,12.18,12.18,0,0,0,1.67,0s-1.19,1,0,1.63a1.65,1.65,0,0,0,1.81.09,1.4,1.4,0,0,0,.18,1,3.66,3.66,0,0,0,.3.37A1.3,1.3,0,0,0,55.07,85.95Z"/><path class="cls-32" d="M25,29.72a2.53,2.53,0,0,0-2.44-1.29,2.68,2.68,0,0,0-2.06,2.7,3.47,3.47,0,0,0,3.09.24A2.12,2.12,0,0,0,25,29.72Z"/><circle cx="22.66" cy="29.98" r="1.39"/><ellipse class="cls-33" cx="22.76" cy="29.34" rx="0.42" ry="0.42" transform="translate(-8.99 10.08) rotate(-20.95)"/><circle class="cls-33" cx="21.71" cy="29.78" r="0.22" transform="translate(-9.21 9.73) rotate(-20.95)"/><path class="cls-34" d="M89.68,115.91a10.8,10.8,0,0,0-2.48-.88c-1.66,1.73-3.46,3.17-2.71,3.17s4.42.36,5.2.26a8.26,8.26,0,0,0,2.86-1Z"/><path class="cls-35" d="M108.9,119.14a4.78,4.78,0,0,0-1-.06c-.81,0-2.27,1.09-3.5.95-.87-.1-1.51-1-1.8-1.57-.46.48-.85.81-1.09,1-.66.66-1.7,1.61-1.14,1.66s2.13-.09,2.13.38,0,.85.76.81,4.31-.66,5.11-2A5.19,5.19,0,0,0,108.9,119.14Z"/><path class="cls-36" d="M102.61,118.46c-.46.48-.85.81-1.09,1-.66.66-1.7,1.61-1.14,1.66a7.21,7.21,0,0,1,2,.17,6.06,6.06,0,0,0,.86-.74,3.4,3.4,0,0,0,.52-.82A3.74,3.74,0,0,1,102.61,118.46Z"/><path class="cls-37" d="M54.06,115.4a8,8,0,0,0-2.83-.35c-1,1.31-2,2.32-1.72,2.49s1.34.63,3.88.31,3.17-.58,3.21-1.21l0-.21C56,116.15,55,115.74,54.06,115.4Z"/><path class="cls-38" d="M36.05,119.93s2,0,1.84.46-.46,1.38.69,1.15,4.08-.75,4.31-1.21A13.63,13.63,0,0,0,43.3,119l-.47-.22a12.4,12.4,0,0,0-2.73-.44,5.11,5.11,0,0,1-1.9-.77C37,118.84,36.05,119.93,36.05,119.93Z"/><path class="cls-39" d="M38.67,119.59a7.11,7.11,0,0,0,.62-1.46,6.1,6.1,0,0,1-1.09-.55c-1.25,1.27-2.15,2.35-2.15,2.35s2,0,1.84.46v0A3.81,3.81,0,0,0,38.67,119.59Z"/></svg>