<svg id="Animals&#x52A8;&#x7269;" xmlns="http://www.w3.org/2000/svg" viewbox="0 0 128 128" width="128" height="128"><defs><style>.cls-1{fill:#7c7c7c;stroke:none;}.cls-2{fill:#686868;stroke:none;}.cls-3{fill:#595959;stroke:none;}.cls-4{fill:#343434;stroke:none;}.cls-5{fill:#3a3a3a;stroke:none;}.cls-6{fill:#515151;stroke:none;}.cls-7{fill:#424242;stroke:none;}.cls-8{fill:#4c4c4c;stroke:none;}.cls-9{fill:#333;stroke:none;}.cls-10{fill:none;stroke:#63bc46;stroke-width:0.23px;}.cls-11{fill:#3f3f3f;stroke:none;}.cls-12{fill:#231f20;stroke:none;}.cls-13{fill:#fff;stroke:none;}.cls-14{fill:#282828;stroke:none;}.cls-15{fill:#e0e0e0;stroke:none;}.cls-16{fill:#c6c6c6;stroke:none;}.cls-17{fill:#777;stroke:none;}.cls-18{fill:#919191;stroke:none;}.cls-19{fill:#414141;stroke:none;}.cls-20{fill:#595758;stroke:none;}</style></defs><title>animals&#x52A8;&#x7269;</title><path class="cls-1" d="M40.26,23a5.34,5.34,0,0,0-3.66,2.3c-1.28,2-4.09,5.45-4.43,7.41a9.64,9.64,0,0,0-.26,2.47s-2.72,2-3.15,3.75.17,5.28-.85,7.32-2,3.32-2.3,4-1.19,1.45-1.28,2-1.45,1.87-1.53,2.3-1.28.94-1.53,1.53l-.26.6s-3,1.11-5.11.17-5-3.75-4.77-10.47.26-9.7-1.62-11.75-3.4-3.11-3.62-2.76.15,1-.15,1.44-1.29.87-1.29,1.36,0,1.1.57,1.17a7.94,7.94,0,0,0,.95.08s1.36,1.14.68,4.28S4.2,49.29,5.72,54.37s4.51,9.93,12.54,11.22c0,0-3,.3-3.11.76s3,2,8.75,1.44,10.69-4.7,10.69-4.7-.23,2.24.49,2.43,1.71-.27,2.65-1.52a27.56,27.56,0,0,1,3.52-3.3,19.88,19.88,0,0,0,3.3.15c1.21-.11,2.16-.11,2.16-.11S48,62.41,48,63.26a115,115,0,0,0,1.36,13.19C50,79.57,53.83,88.33,54,89.81s.45,6.25.8,7.22.74,2,.74,2-1.59,3.41-1.48,3.87.85.68.85.68a4.56,4.56,0,0,0,1.71,1,3,3,0,0,0,1.65-.06,2.91,2.91,0,0,0,2.16.74,7.76,7.76,0,0,0,2-.8s3.41-.85,3.47-1.59-1.93-9.61-2-10.4-1.08-14.1-1.19-16a21.41,21.41,0,0,0-.4-3.13,10.39,10.39,0,0,1,4.43,2.5,25.62,25.62,0,0,0,4.43,4l1.93,1s1.71,7,2.73,10.91,2.27,8.81,2.27,8.81-.8,1.65-1.14,2.67-1.19,2.79-.91,2.9a7.26,7.26,0,0,0,.74.23,3.5,3.5,0,0,0,1.48,1.08,4.62,4.62,0,0,0,1.93-.23,3.59,3.59,0,0,0,2,.4,11,11,0,0,0,2.1-.63s2.33,0,3.24-.68S89,105,89,104.3s-3.18-9.38-3.41-12.22,0-9.32,0-9.32,1,.11,1.53.11a11.26,11.26,0,0,0,1.59-.23s1.65,4.49,3.35,8,3,7.5,2.79,8-1,2.22-.63,2.56a1.88,1.88,0,0,0,.91.4s.28.63.68.68a7.07,7.07,0,0,0,1.14,0s-.78,1-.51,1.38a1.3,1.3,0,0,0,.8.45,3.21,3.21,0,0,0,1.33.8,4.31,4.31,0,0,0,2.2,0,5.56,5.56,0,0,0,2.46.34,3.88,3.88,0,0,0,1.48-.72s2.65-.83,2.58-1.4a28.65,28.65,0,0,1-.49-6.06c.23-2,1-10.23,2.39-12.85s4.51-8.38,5.27-11.07,1.17-4.47,1.17-4.47a24.16,24.16,0,0,0,1.67,5.12,31.71,31.71,0,0,0,2.61,3.75,4.52,4.52,0,0,0,.72,2.5,6,6,0,0,0,1.33,1.14s-.68-1,0-.38a6.48,6.48,0,0,0,1.71,1.14l.38.15s-.27-1.1-.42-1.86a5.58,5.58,0,0,0-1.36-2.65,2.7,2.7,0,0,0-1.52-.64,14.3,14.3,0,0,1-2.84-5.46,49.15,49.15,0,0,1-1.29-7.84s1.63-7.39-.49-14.21-8.53-12.54-17.85-16.26A87.23,87.23,0,0,0,80,28.22s-6.73-8-14.25-9.1c-5.23-.76-7.5.45-7.5.45a6.28,6.28,0,0,0-3.94-1.36c-2.27.08-4.85-.83-8.41.53A13.27,13.27,0,0,0,40.26,23Z"/><path class="cls-2" d="M122.22,77.57a2.7,2.7,0,0,0-1.52-.64,14.3,14.3,0,0,1-2.84-5.46,49.15,49.15,0,0,1-1.29-7.84s1.63-7.39-.49-14.21a19,19,0,0,0-2.72-5.4,95.59,95.59,0,0,0-8-5.83c-7-4.5-23.47-7.26-23.47-7.26s-6.67,6.45-7.48,7.72S65.36,54.93,63.28,56a29.42,29.42,0,0,1-14.09,2.19c-3.81-.26-4.59,1.14-4.67,2.69h0c1.21-.11,2.16-.11,2.16-.11S48,62.41,48,63.26a115,115,0,0,0,1.36,13.19C50,79.57,53.83,88.33,54,89.81s.45,6.25.8,7.22.74,2,.74,2-1.59,3.41-1.48,3.87.85.68.85.68a4.56,4.56,0,0,0,1.71,1,3,3,0,0,0,1.65-.06,2.91,2.91,0,0,0,2.16.74,7.76,7.76,0,0,0,2-.8s3.41-.85,3.47-1.59-1.93-9.61-2-10.4-1.08-14.1-1.19-16a21.41,21.41,0,0,0-.4-3.13,10.39,10.39,0,0,1,4.43,2.5,25.62,25.62,0,0,0,4.43,4l1.93,1s1.71,7,2.73,10.91,2.27,8.81,2.27,8.81-.8,1.65-1.14,2.67-1.19,2.79-.91,2.9a7.26,7.26,0,0,0,.74.23,3.5,3.5,0,0,0,1.48,1.08,4.62,4.62,0,0,0,1.93-.23,3.59,3.59,0,0,0,2,.4,11,11,0,0,0,2.1-.63s2.33,0,3.24-.68S89,105,89,104.3s-3.18-9.38-3.41-12.22,0-9.32,0-9.32,1,.11,1.53.11a11.26,11.26,0,0,0,1.59-.23s1.65,4.49,3.35,8,3,7.5,2.79,8-1,2.22-.63,2.56a1.88,1.88,0,0,0,.91.4s.28.63.68.68a7.08,7.08,0,0,0,1.14,0s-.78,1-.51,1.38a1.3,1.3,0,0,0,.8.45,3.21,3.21,0,0,0,1.33.8,4.31,4.31,0,0,0,2.2,0,5.56,5.56,0,0,0,2.46.34,3.88,3.88,0,0,0,1.48-.72s2.65-.83,2.58-1.4a28.65,28.65,0,0,1-.49-6.06c.23-2,1-10.23,2.39-12.85s4.51-8.38,5.27-11.07,1.17-4.47,1.17-4.47a24.15,24.15,0,0,0,1.67,5.12,31.71,31.71,0,0,0,2.61,3.75,4.52,4.52,0,0,0,.72,2.5,6,6,0,0,0,1.33,1.14s-.68-1,0-.38a6.48,6.48,0,0,0,1.71,1.14l.38.15s-.27-1.1-.42-1.86A5.58,5.58,0,0,0,122.22,77.57Z"/><path class="cls-3" d="M79,43.93s-3.47,4.76-5.68,7.29-5.91,4.22-11,6.12c-4.09,1.53-12.46,1.14-15.52.93a3.41,3.41,0,0,0-1.25.5l-.33,2c.89-.06,1.52-.06,1.52-.06S48,62.41,48,63.26c0,.46.17,3.29.46,6.31l14.32,7.74c0-.36,0-.64-.05-.81a21.41,21.41,0,0,0-.4-3.13,10.39,10.39,0,0,1,4.43,2.5,25.62,25.62,0,0,0,4.43,4l1,.55a1.56,1.56,0,0,0,.12-.38c.11-.74-1.16-4.12-1.79-6s-2.11-4.54-2.43-5.91-.32-4.22,4.54-9.5S79,43.93,79,43.93Z"/><path class="cls-2" d="M81.84,30.92a44,44,0,0,0-6.31-5.37c-3.75-2.62-5.74-4.06-10.05-3.5s-8.8,7.3-8.8,7.3-3.06-1.12-8.12,1.56-3.43,8.8-4.18,9.49-2.81.87-5.49,2.25-4.81,5.06-8.62,9.05-7.93,6.06-10.74,6.18a7.1,7.1,0,0,1-4.59-1.63c-1.93-1.31-4-4.19-3.79-9.93.26-6.72.26-9.7-1.62-11.75s-3.4-3.11-3.62-2.76.15,1-.15,1.44-1.29.87-1.29,1.36,0,1.1.57,1.17a7.93,7.93,0,0,0,.95.08s1.36,1.14.68,4.28S4.2,49.29,5.72,54.37s4.51,9.93,12.54,11.22c0,0-3,.3-3.11.76s3,2,8.75,1.44,10.69-4.7,10.69-4.7-.23,2.24.49,2.43,1.71-.27,2.65-1.52a27.56,27.56,0,0,1,3.52-3.3,19.88,19.88,0,0,0,3.3.15c1.21-.11,2.16-.11,2.16-.11a7.6,7.6,0,0,1,1.22,2.19,19.87,19.87,0,0,0,2.25-.6,9,9,0,0,0,2.68-1.94,13.8,13.8,0,0,1,.5,2.93,15.28,15.28,0,0,0,1.56,4.75,38.46,38.46,0,0,0,11.49-5.31c6.06-4.06,10.18-12.42,11.8-16.61a34.87,34.87,0,0,0,1.94-10.55A10.13,10.13,0,0,1,81.84,30.92Z"/><path class="cls-4" d="M5.53,34.1c.66-.31,1.05.18,1.53-.31s-.82-1.27-1.23-1.54a1.56,1.56,0,0,1-.08,1c-.28.42-1.13.8-1.27,1.25A10.6,10.6,0,0,0,5.53,34.1Z"/><path class="cls-3" d="M25.24,64.06c4.12-1.23,8.67-5.47,8.67-5.47l.35-1.05a19.43,19.43,0,0,1-5.21,3.42c-3.9,2-7.2,3-13.09,1.28s-8.33-7.2-9-10.74.61-8.85,1-11.69S7.5,35.94,7,35.41s-.88,0-1.4,0-1.13-.9-1.13-.9h0a.4.4,0,0,0,0,.12c0,.49,0,1.1.57,1.17a7.93,7.93,0,0,0,.95.08s1.36,1.14.68,4.28S4.2,49.29,5.72,54.37s4.51,9.93,12.54,11.22A43.31,43.31,0,0,0,25.24,64.06Z"/><path class="cls-3" d="M50.94,48.86c-3.09,3.7-9.1,4.14-9.1,4.14l-1,1.67s-1.26,2.17-2.17,4.06-3.92,2.94-5.53,4.62a2.69,2.69,0,0,0-.69,1.24,21.53,21.53,0,0,0,2.13-1.49s-.23,2.24.49,2.43,1.71-.27,2.65-1.52a27.56,27.56,0,0,1,3.52-3.3,19.88,19.88,0,0,0,3.3.15c1.21-.11,2.16-.11,2.16-.11a7.6,7.6,0,0,1,1.22,2.19,19.87,19.87,0,0,0,2.25-.6,9,9,0,0,0,2.68-1.94,13.8,13.8,0,0,1,.5,2.93,15.28,15.28,0,0,0,1.56,4.75,38.46,38.46,0,0,0,11.49-5.31c6.06-4.06,10.18-12.42,11.8-16.61a34.87,34.87,0,0,0,1.94-10.55,10.13,10.13,0,0,1,1.69-4.68,6.29,6.29,0,0,0-1.34,1.13c-.61.7-1.57,2.39-2.92,7.49A19.17,19.17,0,0,1,68,51.61c-5.14,2.92-13.76,2.7-13.76,2.7L56,48.82C57.21,45.29,58.64,40,58.56,37s-1.87-7.66-1.87-7.66-.39,3.22-.78,7.31A22.28,22.28,0,0,1,50.94,48.86Z"/><path class="cls-5" d="M79,43.93a77.81,77.81,0,0,1-8.85,12.74c-5.36,6-15.17,8.84-15.17,8.84s-.38-1-.75-2.47a23.8,23.8,0,0,1-.54-5.68A28.69,28.69,0,0,1,55,50.83C55.8,47.93,57.46,41,57.79,39s-.91.91-1.34,3.11-1.39,6.27-2.36,9.38a40.39,40.39,0,0,0-1.29,7.4s-1,.54-2.3,1.07a16.63,16.63,0,0,1-3.77.75,7.6,7.6,0,0,1,1.22,2.19,19.87,19.87,0,0,0,2.25-.6,9,9,0,0,0,2.68-1.94,13.8,13.8,0,0,1,.5,2.93,15.28,15.28,0,0,0,1.56,4.75,38.46,38.46,0,0,0,11.49-5.31c6.06-4.06,10.18-12.42,11.8-16.61C78.52,45.4,78.76,44.65,79,43.93Z"/><path class="cls-6" d="M42.22,37.62a3.81,3.81,0,0,1,2.87,2,11.52,11.52,0,0,1,1.26,3.85s.57-3-.75-4.54A4,4,0,0,0,42.22,37.62Z"/><path class="cls-1" d="M34.4,56.17a10.23,10.23,0,0,1,1.78-4.31c1.44-1.84,2.87-3.62,3.73-3s1.09,3.5.17,5.4-1,2-2,1.9A7.77,7.77,0,0,0,35.84,56,6.81,6.81,0,0,1,34.4,56.17Z"/><path class="cls-6" d="M25.43,50.62a4.8,4.8,0,0,1,2.88,1,13.4,13.4,0,0,1,2.5,2.2s-2.69-2.46-3.87-2.65A7.63,7.63,0,0,0,25.09,51Z"/><path class="cls-6" d="M24.14,52.63A4.87,4.87,0,0,1,26.75,54a19.25,19.25,0,0,1,2.46,3s-2.35-2.84-3.68-3.37-1.67-.68-1.67-.68Z"/><path class="cls-6" d="M22.81,54.5A6.67,6.67,0,0,1,24.48,56a12.44,12.44,0,0,1,1.36,2.54,12.23,12.23,0,0,0-2.27-3,11.24,11.24,0,0,1-1.1-.72Z"/><path class="cls-2" d="M54.27,18.22c-2.27.08-4.85-.83-8.41.53A13.27,13.27,0,0,0,40.26,23a8.54,8.54,0,0,1,3.17-.28c1.24.26,3.83-.21,4.71-.16s4.56-1.81,7-2.33l3.07-.67A6.28,6.28,0,0,0,54.27,18.22Z"/><path class="cls-7" d="M54.8,97c.34,1,.74,2,.74,2s-1.59,3.41-1.48,3.87.85.68.85.68a4.56,4.56,0,0,0,1.71,1,3,3,0,0,0,1.65-.06,2.91,2.91,0,0,0,2.16.74,7.76,7.76,0,0,0,2-.8s3.41-.85,3.47-1.59-1.93-9.61-2-10.4-1.08-14.1-1.19-16a21.41,21.41,0,0,0-.4-3.13,22.65,22.65,0,0,1-3.52-1.19,26.32,26.32,0,0,1-6.87-4.73c-1-1.14-3.94-4.19-3.94-4.19a115,115,0,0,0,1.36,13.19C50,79.57,53.83,88.33,54,89.81S54.46,96.06,54.8,97Z"/><path class="cls-8" d="M58.25,79.05c-.23-1.76-1.53-3-4-5s-6.18-8.47-6.18-8.7h0a111.17,111.17,0,0,0,1.26,11.12C50,79.57,53.83,88.33,54,89.81c.07.59.16,1.72.26,2.92.76.94,1.68,1.93,2.24,2.05,1.07.23,2.14-.31,3-1.6s.31-6.56-.53-7.78S58.48,80.81,58.25,79.05Z"/><path class="cls-8" d="M60.16,99.66a4.71,4.71,0,0,0-4.62-.59s-1.59,3.41-1.48,3.87.85.68.85.68a4.56,4.56,0,0,0,1.71,1,3,3,0,0,0,1.65-.06,2.91,2.91,0,0,0,2.16.74,7.76,7.76,0,0,0,2-.8l.51-.14A7.47,7.47,0,0,0,60.16,99.66Z"/><path class="cls-7" d="M62.86,103.74c-.18-.86-.95-1.27-2.16-1.54a2.38,2.38,0,0,0-2.1.71,2.26,2.26,0,0,0-1.3-1.16,2.39,2.39,0,0,0-1.72.41,1.22,1.22,0,0,0-.3-.71,1.44,1.44,0,0,0-.62-.38,6.35,6.35,0,0,0-.6,1.87c.11.45.85.68.85.68a4.56,4.56,0,0,0,1.71,1,3,3,0,0,0,1.65-.06,2.91,2.91,0,0,0,2.16.74,7.76,7.76,0,0,0,2-.8l.5-.14C62.94,104.15,62.9,103.95,62.86,103.74Z"/><path class="cls-9" d="M62.62,75.51a19.33,19.33,0,0,0-.32-2.13,22.65,22.65,0,0,1-3.52-1.19,27,27,0,0,1-5.4-3.41,15.65,15.65,0,0,0,3.94,3.9A40.81,40.81,0,0,0,62.62,75.51Z"/><path class="cls-7" d="M68.33,68.78a66.54,66.54,0,0,1,2.59,7.64c.26,1.44.56,2.86.71,3.67l1.48.78s-1.31-6-2.44-8.13A45.32,45.32,0,0,0,68.33,68.78Z"/><path class="cls-10" d="M96.92,102.26h0Z"/><path class="cls-10" d="M96.92,102.26h0Z"/><path class="cls-3" d="M109.14,84.2c1.36-2.61,4.51-8.38,5.27-11.07s1.17-4.47,1.17-4.47a24.16,24.16,0,0,0,1.67,5.12,31.71,31.71,0,0,0,2.61,3.75,4.52,4.52,0,0,0,.72,2.5,6,6,0,0,0,1.33,1.14s-.68-1,0-.38a6.48,6.48,0,0,0,1.71,1.14l.38.15s-.27-1.1-.42-1.86a5.58,5.58,0,0,0-1.36-2.65,2.7,2.7,0,0,0-1.52-.64,14.3,14.3,0,0,1-2.84-5.46,49.15,49.15,0,0,1-1.29-7.84s1.63-7.39-.49-14.21l-.09-.28a51.44,51.44,0,0,1,.42,5.67c.08,4.54-.38,6.19-1.65,12.08s-6.93,14.43-8.31,16.31-1.73,7.31-2.12,9.27-1.69,3.42-3.42,3.5a2.37,2.37,0,0,1-2.27-1.65S96.17,100,95.37,102a.72.72,0,0,0,.41.26,7.07,7.07,0,0,0,1.14,0s-.78,1-.51,1.38a1.3,1.3,0,0,0,.8.45,3.21,3.21,0,0,0,1.33.8,4.31,4.31,0,0,0,2.2,0,5.56,5.56,0,0,0,2.46.34,3.88,3.88,0,0,0,1.48-.72s2.65-.83,2.58-1.4a28.65,28.65,0,0,1-.49-6.06C107,95,107.78,86.81,109.14,84.2Z"/><path class="cls-8" d="M119.87,77.53a4.52,4.52,0,0,0,.72,2.5,6,6,0,0,0,1.33,1.14s-.68-1,0-.38a6.48,6.48,0,0,0,1.71,1.14l.38.15s-.27-1.1-.42-1.86a5.58,5.58,0,0,0-1.36-2.65,2.7,2.7,0,0,0-1.52-.64,14.3,14.3,0,0,1-2.84-5.46,49.15,49.15,0,0,1-1.29-7.84l-1,5a24.16,24.16,0,0,0,1.67,5.12A31.71,31.71,0,0,0,119.87,77.53Z"/><path class="cls-11" d="M119.87,77.53a4.46,4.46,0,0,0-.32-.41Z"/><path class="cls-11" d="M120.56,77.39c-.19.19-.69.14-.69.14a4.52,4.52,0,0,0,.72,2.5,6,6,0,0,0,1.33,1.14s-.68-1,0-.38a6.48,6.48,0,0,0,1.71,1.14l.38.15s-.27-1.1-.42-1.86a5.58,5.58,0,0,0-1.36-2.65,2.7,2.7,0,0,0-1.52-.64A.56.56,0,0,1,120.56,77.39Z"/><path class="cls-3" d="M98.89,71.44a20.08,20.08,0,0,1-9.64-.51C88.8,70.67,86,56.53,86,56.53s.26,8.29.19,11.05-1.61,6-3,9.57S81.74,87.25,82,91s-1.41,4.5-3,4.95a2.31,2.31,0,0,1-2.25-.53c.71,2.76,1.32,5.15,1.32,5.15s-.8,1.65-1.14,2.67-1.19,2.79-.91,2.9a7.26,7.26,0,0,0,.74.23,3.5,3.5,0,0,0,1.48,1.08,4.62,4.62,0,0,0,1.93-.23,3.59,3.59,0,0,0,2,.4,11,11,0,0,0,2.1-.63s2.33,0,3.24-.68S89,105,89,104.3s-3.18-9.38-3.41-12.22,0-9.32,0-9.32,1,.11,1.53.11a11.26,11.26,0,0,0,1.59-.23s.24.64.62,1.64a31.1,31.1,0,0,1,3.49-1,20.73,20.73,0,0,0,9.25-5c2.44-2.31,5.53-11,5.59-11.18S103.78,70.54,98.89,71.44Z"/><path class="cls-2" d="M84.61,104.91a4.94,4.94,0,0,0-2.67-4.11,4.68,4.68,0,0,0-3.84-.19s-.8,1.65-1.14,2.67-1.19,2.79-.91,2.9a7.26,7.26,0,0,0,.74.23,3.5,3.5,0,0,0,1.48,1.08,4.62,4.62,0,0,0,1.93-.23,3.59,3.59,0,0,0,2,.4,11,11,0,0,0,2.1-.63l.61,0C84.89,106.56,84.76,105.84,84.61,104.91Z"/><path class="cls-7" d="M80.54,105.44a2.06,2.06,0,0,0-1.45-1,1.42,1.42,0,0,0-1.64.47,1.72,1.72,0,0,0-.28-.53,1,1,0,0,0-.5-.31c-.37.95-.82,2-.6,2.08a7.26,7.26,0,0,0,.74.23,3.5,3.5,0,0,0,1.48,1.08,4.62,4.62,0,0,0,1.93-.23,3.59,3.59,0,0,0,2,.4,11,11,0,0,0,2.1-.63l.61,0c-.07-.34-.16-.83-.26-1.45a6.23,6.23,0,0,0-2.09-1A2.43,2.43,0,0,0,80.54,105.44Z"/><circle class="cls-4" cx="42.28" cy="44.82" r="2.2"/><circle class="cls-12" cx="42.28" cy="44.82" r="1.74"/><circle class="cls-13" cx="42.56" cy="44.11" r="0.67" transform="translate(-18.73 43.01) rotate(-45)"/><path class="cls-14" d="M34.83,62.17c0,.18-.39,2.15.53,2.32s1.53-.88,1.75-1.49A8.54,8.54,0,0,1,39,60.46a14.84,14.84,0,0,0,2.1-2.85c.48-.79.39-1.36-.31-.31a2.51,2.51,0,0,1-1.45,1.18s-2.5,2.19-3.11,2.67S34.83,62.17,34.83,62.17Z"/><path class="cls-15" d="M34.6,63.09a27.05,27.05,0,0,0,2.56-2,11.25,11.25,0,0,0,2.19-2.58,4.58,4.58,0,0,0-1.53-1.4,2.9,2.9,0,0,0-2.5-.09c-.39.09-2.41,2.8-6.7,5.52s-10.35,3.07-10.35,3.07h0s-3,.3-3.11.76,3,2,8.75,1.44S34.6,63.09,34.6,63.09Z"/><path class="cls-16" d="M38.31,57.43a24.18,24.18,0,0,1-3.87,4.39c-2.72,2.45-6.75,4.12-11.52,4.86a20.11,20.11,0,0,1-7.75-.26c.22.53,3.27,1.94,8.74,1.36,5.76-.61,10.69-4.7,10.69-4.7a27.05,27.05,0,0,0,2.56-2,11.25,11.25,0,0,0,2.19-2.58A4.19,4.19,0,0,0,38.31,57.43Z"/><path class="cls-17" d="M60.33,102.93a2.13,2.13,0,0,0-2,1.28s-.41-1.52-1.48-1.81a1.76,1.76,0,0,0-1.77.82,1.54,1.54,0,0,0,.08-1,1,1,0,0,0-.72-.67,4.25,4.25,0,0,0-.4,1.38c.11.45.85.68.85.68a4.56,4.56,0,0,0,1.71,1,3,3,0,0,0,1.65-.06,2.91,2.91,0,0,0,2.16.74,7.73,7.73,0,0,0,2-.78A2.43,2.43,0,0,0,60.33,102.93Z"/><path class="cls-18" d="M84.48,107a3.18,3.18,0,0,0-2.19-1.47A1.91,1.91,0,0,0,80.34,107a5,5,0,0,0-1.58-1.66c-.77-.32-1.58.65-1.58.65a3.14,3.14,0,0,0-.24-1.05.7.7,0,0,0-.49-.29c-.31.77-.57,1.48-.39,1.55a7.26,7.26,0,0,0,.74.23,3.5,3.5,0,0,0,1.48,1.08,4.62,4.62,0,0,0,1.93-.23,3.59,3.59,0,0,0,2,.4,11,11,0,0,0,2.1-.63Z"/><path class="cls-19" d="M85.55,82.76A33.17,33.17,0,0,1,87,76.43c.75-1.9,1.9-5,1.4-7.13s-1.55-7.48-1.9-9.13A35.59,35.59,0,0,1,86,56s2.15,9.43,2.79,11a12.67,12.67,0,0,1,.5,6.89c-.6,2-1.3,3.79-1.6,5.39s-.58,3.64-.58,3.64Z"/><path class="cls-7" d="M96.92,102.26h0Z"/><path class="cls-7" d="M97.81,80.67c-.6-.11-1.75.49-3.94,1.26a17.9,17.9,0,0,1-5.19.72s1.65,4.49,3.35,8,3,7.5,2.79,8-1,2.22-.63,2.56a1.88,1.88,0,0,0,.91.4s.28.63.68.68a7.07,7.07,0,0,0,1.14,0S98.79,94.9,99.12,92s-.66-9.58-.66-9.58.77-.16,4-3.28S109,62.34,109,62.34a113.65,113.65,0,0,1-4.38,11.05C101.69,80,98.41,80.78,97.81,80.67Z"/><path class="cls-8" d="M97.11,94.86c.87-3,.23-6.56-1.5-8.24-1.43-1.39-4.32-.24-5.28.21.52,1.24,1.11,2.59,1.7,3.83a37.84,37.84,0,0,1,2.76,7.46A5.4,5.4,0,0,0,97.11,94.86Z"/><path class="cls-2" d="M105.18,103.65a7.9,7.9,0,0,0-4.92-3.12c-2.81-.74-3,.74-3,.74s-.68.56-1.25,1a8.71,8.71,0,0,0,.93,0s-.78,1-.51,1.38a1.3,1.3,0,0,0,.8.45,3.21,3.21,0,0,0,1.33.8,4.31,4.31,0,0,0,2.2,0,5.56,5.56,0,0,0,2.46.34,3.88,3.88,0,0,0,1.48-.72s.5-.16,1.07-.38A1.72,1.72,0,0,1,105.18,103.65Z"/><path class="cls-20" d="M96.63,100.15c-.75,0-1.35,1-1.35,1s.05-1.06-.36-1.4a.44.44,0,0,0-.57.06c-.22.6-.38,1.22-.16,1.41a1.88,1.88,0,0,0,.91.4s.28.63.68.68a7.07,7.07,0,0,0,1.14,0s.21-.81.49-2A4.74,4.74,0,0,0,96.63,100.15Z"/><path class="cls-18" d="M102.58,103a2,2,0,0,0-1.87,1.64,3.48,3.48,0,0,0-1.49-1.85c-1.1-.6-1.72.88-1.72.88s0-.47,0-1.05a.48.48,0,0,0-.57-.5l-.21.12h.17s-.78,1-.51,1.38a1.3,1.3,0,0,0,.8.45,3.21,3.21,0,0,0,1.33.8,4.31,4.31,0,0,0,2.2,0,5.56,5.56,0,0,0,2.46.34,3.88,3.88,0,0,0,1.48-.72l.15,0A2.83,2.83,0,0,0,102.58,103Z"/></svg>