<svg xmlns="http://www.w3.org/2000/svg" xmlns:xlink="http://www.w3.org/1999/xlink" viewbox="0 0 128 128" width="128" height="128"><defs><style>.cls-1,.cls-37{fill:none;stroke:none;}.cls-2{isolation:isolate;stroke:none;}.cls-3{fill:#ac6941;stroke:none;}.cls-4{fill:#6e462d;stroke:none;}.cls-5{fill:#a16740;stroke:none;}.cls-30,.cls-6{fill:#231f20;stroke:none;}.cls-6{opacity:0.21;mix-blend-mode:multiply;stroke:none;}.cls-7{fill:#4e4331;stroke:none;}.cls-8{fill:#a2643e;stroke:none;}.cls-9{fill:#cb9356;stroke:none;}.cls-10{fill:#bf8850;stroke:none;}.cls-11{fill:#a36037;stroke:none;}.cls-12{fill:#8c6142;stroke:none;}.cls-13{fill:#683e2c;stroke:none;}.cls-14{fill:#522d1e;stroke:none;}.cls-15{fill:#b47446;stroke:none;}.cls-16{fill:#727148;stroke:none;}.cls-17{fill:#945637;stroke:none;}.cls-18{fill:#74442f;stroke:none;}.cls-19{fill:#ca9554;stroke:none;}.cls-20{fill:#a8644c;stroke:none;}.cls-21{fill:#855139;stroke:none;}.cls-22{fill:#695d4d;stroke:none;}.cls-23{fill:#a88253;stroke:none;}.cls-24{fill:#504444;stroke:none;}.cls-25{fill:#fff;stroke:none;}.cls-26{fill:#824a34;stroke:none;}.cls-27{fill:#b96c48;stroke:none;}.cls-28{fill:#93553d;stroke:none;}.cls-29{fill:#7c9194;stroke:none;}.cls-31{fill:#674a2f;stroke:none;}.cls-32{fill:#697c7e;stroke:none;}.cls-33{fill:#a8bab2;stroke:none;}.cls-34{fill:#84513a;stroke:none;}.cls-35{fill:#7c4c36;stroke:none;}.cls-36{clip-path:url(#clip-path);stroke:none;}.cls-37{stroke:#5c6d70;stroke-linecap:round;stroke-linejoin:round;stroke-width:0.26px;}</style><clippath id="clip-path"><path class="cls-1" d="M19.22,40.31a3.71,3.71,0,0,0-1.06,3.28c.46,1.83,1.19,3.27.74,4.58s-1.7,1.28-2,2.74c-.23,1.06.13,3.49,2.06,3.49a3.75,3.75,0,0,0,3.67-4.63c-.55-3-2.44-4.57-3-6.36A8.35,8.35,0,0,1,19.22,40.31Z"/></clippath></defs><title>animals&#x52A8;&#x7269;</title><g class="cls-2"><g id="Animals&#x52A8;&#x7269;"><path class="cls-3" d="M107.73,41.16s5.31,2.85,7,7.54,1.54,7.16,1.77,11.08.38,5.92.92,7.69a27.68,27.68,0,0,0,1.85,4.16,5.76,5.76,0,0,1-5.62-3.54c-1.54-3.85-.31-9.23.08-10.46s.92-5.39-.31-7.46a16.69,16.69,0,0,0-3-3.62Z"/><path class="cls-4" d="M119.27,71.63a27.68,27.68,0,0,1-1.85-4.16c-.54-1.77-.69-3.77-.92-7.69-.09-1.5-.12-2.78-.22-4.06a2.6,2.6,0,0,1-.78.45,2.55,2.55,0,0,1-1.45-.19,10.47,10.47,0,0,1-.32,1.65c-.38,1.23-1.62,6.62-.08,10.46A5.76,5.76,0,0,0,119.27,71.63Z"/><path class="cls-5" d="M110.81,62.32a15.16,15.16,0,0,0,1.46,10.16c2.62,5.08,5,6.93,5.62,7.31s.77.38,1.31,2.08,3.08,12.7,2.69,14.62-.31,1.54-.85,2a3,3,0,0,0-.92,1.92c-.08.69.23,1.77-.54,2.23l-.77.46H114s3.54-3.23,3.62-4S118,93.48,117,91s-2.54-5.92-4-7.46-2.77-2.77-2.77-2.77-3.08-6.23-1.85-11.16A37.21,37.21,0,0,1,110.81,62.32Z"/><path class="cls-6" d="M114.39,81.77a11.31,11.31,0,0,1,1.26-4.1,27.54,27.54,0,0,1-3.37-5.2,15.16,15.16,0,0,1-1.46-10.16,37.21,37.21,0,0,0-2.46,7.31c-1.23,4.92,1.85,11.16,1.85,11.16S111.5,82,113,83.55a12.64,12.64,0,0,1,1.72,2.52A16,16,0,0,1,114.39,81.77Z"/><path class="cls-7" d="M119.68,101.18a4.46,4.46,0,0,0-2.46-1.43A36.28,36.28,0,0,1,114,103.1h4.85l.77-.46a1.18,1.18,0,0,0,.53-1A3.61,3.61,0,0,1,119.68,101.18Z"/><path class="cls-8" d="M17.24,39.77s5.62-9.62,7.93-11.31,12.93-6.77,24.24-7S82.8,31.54,82.8,31.54s17.08,4.92,18.31,5.69,7.46,3.69,9.08,6.39a22.94,22.94,0,0,1,2.54,10.62c-.15,2.85-2.54,11-2.92,13.31s-1.15,5.08-.23,7.31,2.85,5.54,2.15,6.39-2,5.23-2.62,9-.15,7.54-1,7.93a3.66,3.66,0,0,0-2.23,1.77c-.38,1,.23,2.54-.77,2.92l-1,.38H99.35s3.15-3,3.54-3.92A13,13,0,0,0,104.73,93c.15-3.77.69-7.23-1.08-9.39a35.84,35.84,0,0,1-4.08-5.92,51.89,51.89,0,0,0-4-6.54,17.5,17.5,0,0,1-2.46-3.85l-.77-1.54S87.27,72.4,85,74.09s-6,4.16-6.69,5a20,20,0,0,0-1.69,4.08A7.91,7.91,0,0,1,76,79.55a24,24,0,0,0,.23-2.92,45,45,0,0,1-11.54.23,84.2,84.2,0,0,0-11.31-.54C53.18,76.24,17.24,39.77,17.24,39.77Z"/><path class="cls-9" d="M101.12,37.23c-1.23-.77-18.31-5.69-18.31-5.69s-15.65-7.3-27.34-9.48l-1.51,12.4,1.85,6.93S50,50.77,55.2,55.23s20,4.19,27,1.85c6.37-2.12,6-5.38,6-5.38s1.39,14.47,12.93,13c7.69-1,10.56-6.83,11.62-10.63a23,23,0,0,0-2.54-10.46C108.58,40.93,102.35,38,101.12,37.23Z"/><path class="cls-10" d="M101.12,37.23c-1.23-.77-18.31-5.69-18.31-5.69s-15.65-7.3-27.34-9.48L55,25.93c8.29,2.24,41.11,11,45.24,12.64,1.94.77,5.8,2.9,7,4.25S104,36.43,93.64,41C87.1,43.9,88.19,51.7,88.19,51.7s1.39,14.47,12.93,13c7.69-1,10.56-6.83,11.62-10.63a23,23,0,0,0-2.54-10.46C108.58,40.93,102.35,38,101.12,37.23Z"/><path class="cls-11" d="M78.07,31.27l4.73.27S60.72,21.23,49.41,21.46s-21.93,5.31-24.24,7-7.93,11.31-7.93,11.31l1,1.06a17.76,17.76,0,0,0,8.8-2c6.06-3.17,16.4-10.16,23.11-9.6s14.91.65,16.5.75S78.07,31.27,78.07,31.27Z"/><path class="cls-12" d="M47.48,84.63s.62,9.16-.92,12.7a30.67,30.67,0,0,1-3.23,5.77h4s1.54-.46,1.46-1.62-.23-3.54.38-3.62,1.54.15,1.54-.85a27.78,27.78,0,0,1,1.23-5c.38-1.23,2.31-5.54,2.31-5.54Z"/><path class="cls-13" d="M15.41,73.1a11.71,11.71,0,0,1,.37,4.76,14,14,0,0,1-1.39,3.39s2.62,0,3.85-1a11.22,11.22,0,0,0,2.23-2.83,3.59,3.59,0,0,1-.15,1.69c-.31.62-.62,1.15-.62,1.15a9.66,9.66,0,0,0,4.69-4.31c1.85-3.31,2.54-4.77,3.15-4.46a48.48,48.48,0,0,0,7.23,4A33.5,33.5,0,0,0,41,77.32s2.69,5.23,6.46,7.31,8.46,4.54,10,6.16A40.09,40.09,0,0,1,60.8,95s.77-2.62.23-4a8.93,8.93,0,0,0-1.08-2.08,3.6,3.6,0,0,1,1.85,1l.46.69a32.15,32.15,0,0,0,.46-8.39c-.46-3.62-2.31-11.85-4.54-14.77s-3.62-3.62-3.62-3.62S53.49,50,58.95,43.62s12.08-8.46,11.77-9,.08-.92,1-.92,2.39-.23,2.15-.77-1.46-1.31-.15-1.08,9.93.31,9.08-.31S61.1,26,53.26,25.46s-10.93-.38-10.77.38-.54.92-2,.92-8.31,1.69-11.08,4S25.17,36.34,23,37.42a36.69,36.69,0,0,1-4.39,1.81s-5,17.39-4.54,21.24S15.41,73.1,15.41,73.1Z"/><path class="cls-14" d="M36,52.56c-.76-1.85-3.21-5.34-5.45-6s-6.43-4.3-6.43-4.3-2.07,18.84-2.23,19.38a30.33,30.33,0,0,0,1.26,4.58l-.45.14a3.21,3.21,0,0,0-1.9,2.4L16,72a16.37,16.37,0,0,1,.93,4,9.35,9.35,0,0,1-.55,3.21.46.46,0,0,0,.66.55,7.35,7.35,0,0,0,2-1.58,8.24,8.24,0,0,0,1.25-1.62.33.33,0,0,1,.63.07c.17,1.06-.12,3.44,3.68-2a20.73,20.73,0,0,0,1.64-3.59,2.68,2.68,0,0,1,1-.88c1.09-.44,1.91.22,6,2.67a23.49,23.49,0,0,0,7.84,3l2-2.18S36.81,54.41,36,52.56Z"/><path class="cls-15" d="M50.56,85.78s3.15,4.39,3.31,7.77-.46,5.62-1.39,7.16A12.94,12.94,0,0,1,50.79,103H54.1s1.46.38,1.62-1.62S56,98,56.33,98s1.39.69,1.39-1,.15-7,.15-7Z"/><path class="cls-16" d="M55.72,101.4v0a5.4,5.4,0,0,1-1.54-.72,2.62,2.62,0,0,0-1.42-.41c-.09.17-.18.33-.27.49A12.94,12.94,0,0,1,50.79,103H54.1S55.56,103.41,55.72,101.4Z"/><path class="cls-17" d="M58.18,67.47c-2.23-2.92-3.62-3.62-3.62-3.62s-.95-12.22,3.46-19c.1-3.24,0-8.4-2.53-9.88-3.72-2.19-5.72-4.58-11.35-3.43S34,34.6,33.55,42.9,33.93,66,36.22,69.61,41,77.32,41,77.32s2.69,5.23,6.46,7.31,8.46,4.54,10,6.16A40.09,40.09,0,0,1,60.8,95s.77-2.62.23-4a8.93,8.93,0,0,0-1.08-2.08,3.6,3.6,0,0,1,1.85,1l.46.69a32.15,32.15,0,0,0,.46-8.39C62.26,78.63,60.41,70.4,58.18,67.47Z"/><path class="cls-18" d="M62.72,82.25c-.46-3.62-2.31-11.85-4.54-14.77s-3.62-3.62-3.62-3.62h0V62c0-.71,0-1.59,0-2.59v-1l0-.29v0l0-.3v0l0-.3v0l0-.31v0l0-.32v0a40.77,40.77,0,0,1,.59-4.39h0l.07-.35v0l.07-.34v0l.07-.33v-.05l.08-.32v-.05l.08-.32,0-.06.08-.32,0-.06.09-.32,0-.06.1-.32,0,0,.1-.32v0l.11-.33v0a18.7,18.7,0,0,1,1.18-2.74h0C57,44,55.74,40.14,52.06,39.08c-5-1.43-7.63-2-11.45.38-3.2,2-6.09,5-7.16,10.91.17,7.76,1.08,16.55,2.77,19.23,2.29,3.62,4.8,7.71,4.8,7.71s2.69,5.23,6.46,7.31,8.46,4.54,10,6.16A40.09,40.09,0,0,1,60.8,95a6.65,6.65,0,0,0-.42-5.84,1.63,1.63,0,0,1,1.14.57,8.67,8.67,0,0,1,.74.94A32.71,32.71,0,0,0,62.72,82.25Z"/><path class="cls-19" d="M8,45.6S5.06,53.29,6,57.93,10.63,68.8,10.63,68.8s-.13,3,1.46,3.58S15,73.44,15,73.44s4.64,0,5.7-.93,1.72-3.45,1.72-3.45-1.06,3.18,1.19,2,8-5.17,8-8.09-3.31-19-7.69-21.74S13.15,37.11,9.17,39.63a7,7,0,0,0-3.45,6.5Z"/><path class="cls-20" d="M22.34,69.36c-.2.76-.55,2.66,1.28,1.7,2.25-1.19,8-5.17,8-8.09s-3.31-19-7.69-21.74a19.51,19.51,0,0,0-4.59-2.12l-3.2,4.08-.73.73a61,61,0,0,0-4.59,10.65c-.64,2.85-1.29,4.41.37,8.91s3.86,10,3.86,10h0s4.64,0,5.7-.93A7.88,7.88,0,0,0,22.34,69.36Z"/><path class="cls-21" d="M23.62,71.05c2.25-1.19,8-5.17,8-8.09,0-2.72-2.89-16.9-6.84-21l-2,2.17-3,2.57s-4.41,3.4-6.15,7.71-2.2,6.89-.73,10.93S15,71.37,15,73.44c0,0,4.64,0,5.7-.93C21.55,71.78,21.8,72,23.62,71.05Z"/><path class="cls-22" d="M18.13,55.1a3.76,3.76,0,0,0-3.83,1c-1.22,1.42-.48,3.66-.48,3.66a15.42,15.42,0,0,0,2.55-2.45C17.53,55.91,18.13,55.1,18.13,55.1Z"/><path class="cls-23" d="M14,59.67s2.27,1.19,3.64-.41A3.91,3.91,0,0,0,18,55.2a26.53,26.53,0,0,1-2.18,2.5C14.79,58.74,14,59.67,14,59.67Z"/><circle class="cls-24" cx="15.83" cy="57.83" r="0.94"/><circle class="cls-25" cx="15.51" cy="57.51" r="0.31"/><path class="cls-26" d="M23.92,52.75c1.36-.28,3.73-.53,5.32-.67-1.37-4.74-3.23-9.35-5.35-10.75-4.38-2.89-10.74-4.26-14.72-1.65a7.36,7.36,0,0,0-3.45,6.74L8,45.87s-.62,1.92.6,1.73c1.06-.16,1.33-.73,1.38-.87-.08.26-.41,2,4.11,2.95C18.95,50.67,21.74,53.21,23.92,52.75Z"/><path class="cls-27" d="M23.92,52.24c1.36-.27,3.73-.51,5.32-.65-1.37-4.57-3.23-9-5.35-10.37-4.38-2.78-10.74-4.11-14.72-1.59a7,7,0,0,0-3.45,6.5L8,45.6s-.62,1.85.6,1.67c1.06-.15,1.33-.7,1.38-.84-.08.25-.41,2,4.11,2.84C18.95,50.23,21.74,52.68,23.92,52.24Z"/><path class="cls-28" d="M24,41.33a29.37,29.37,0,0,0-9,.24c-5,1.17-5.1,4.86-5.1,4.86-.08.25-.41,2,4.11,2.84,4.88,1,7.67,3.4,9.85,3,1.36-.27,3.73-.51,5.32-.65C27.91,47.14,26.1,42.8,24,41.33Z"/><path class="cls-24" d="M22.19,54.91s-.2-3.79,2.45-4.37a10.2,10.2,0,0,1,5.11.32s.68,3-1.63,4.63-3.68,1.09-4.43.64A8.9,8.9,0,0,1,22.19,54.91Z"/><path class="cls-29" d="M19.22,40.31a3.71,3.71,0,0,0-1.06,3.28c.46,1.83,1.19,3.27.74,4.58s-1.7,1.28-2,2.74c-.23,1.06.13,3.49,2.06,3.49a3.75,3.75,0,0,0,3.67-4.63c-.55-3-2.44-4.57-3-6.36A8.35,8.35,0,0,1,19.22,40.31Z"/><path class="cls-24" d="M10.63,69.52c0,.7.17,2.58,1.46,3,1.59.48,2.91,1,2.91,1h0a7.53,7.53,0,0,0-1.14-3.55C13.19,69.09,11.61,69.29,10.63,69.52Z"/><path class="cls-7" d="M48.79,101.56c-.34-.08-.82-.21-1.4-.39a4.79,4.79,0,0,1-2-1.47,27.32,27.32,0,0,1-2.09,3.4h4S48.79,102.66,48.79,101.56Z"/><path class="cls-30" d="M14.25,72a1,1,0,0,0,.29-.74,5.53,5.53,0,0,0-.26-.64c-.48-.07-1.42-.19-1.39.54C12.92,72,13.78,72.36,14.25,72Z"/><path class="cls-31" d="M25,51.78a16.4,16.4,0,0,1,4.74-.93,10.2,10.2,0,0,0-5.11-.32c-2.66.58-2.45,4.37-2.45,4.37A4.16,4.16,0,0,1,25,51.78Z"/><path class="cls-16" d="M105.12,102.87c.55-.21.61-.76.62-1.38a9.33,9.33,0,0,0-3.28-1.5,42.93,42.93,0,0,1-3.11,3.27h4.77Z"/><path class="cls-13" d="M85,74.09c2.35-1.52,7.31-8.31,7.31-8.31a40.85,40.85,0,0,0-4.8,3.9c-2.68,2.5-4.92,4.74-7.42,5.72a23.29,23.29,0,0,1-3.87,1.23,7.12,7.12,0,0,0-.51,2.88,8.79,8.79,0,0,0,.9,3.66S77.48,79,85,74.09Z"/><path class="cls-14" d="M22.76,66.37s-.28.34-.41.38A7.48,7.48,0,0,0,22,69.1,17.45,17.45,0,0,1,21.46,72l.4-.16c.08-.37.19-.91.35-1.68a17.47,17.47,0,0,1,.74-3.32C23.13,66.7,22.76,66.37,22.76,66.37Z"/><path class="cls-32" d="M19.32,43.86c.74,1.9,2.44,4.44,2.37,6.56a11,11,0,0,1-.84,3.44,3.71,3.71,0,0,0,1.76-4.1c-.55-3-2.44-4.57-3-6.36a8.35,8.35,0,0,1-.37-3.08A5.26,5.26,0,0,0,19.32,43.86Z"/><path class="cls-33" d="M18.16,43.59c.46,1.83,1.19,3.27.74,4.58-.28.83-.86,1.12-1.34,1.57.59-.22,1.7-.75,1.93-1.69.31-1.29-.56-2.52-1.08-4.4a3.74,3.74,0,0,1,.8-3.32A3.71,3.71,0,0,0,18.16,43.59Z"/><path class="cls-34" d="M60.08,92.11s-1.33-9.66-6.54-10.4c-4-.57-4,2.75-.85,4C56.42,87.14,60.08,92.11,60.08,92.11Z"/><path class="cls-35" d="M61.64,88.19S61.75,77,56,75.5c-6.18-1.59-7.42,3.1-4.74,4.28s4.94,1,6.63,2.52C60,84.24,61.64,88.19,61.64,88.19Z"/><g class="cls-36"><path class="cls-37" d="M17.9,49s-.37,2.38,1.5,3.13a6.1,6.1,0,0,0,3.35.25"/><path class="cls-37" d="M18.39,47.58a3.14,3.14,0,0,0,2.3,1.72,4.43,4.43,0,0,0,2.74-.88"/><path class="cls-37" d="M18.1,45.48a2.74,2.74,0,0,0,2.16,1c1.23-.15,1.32-1,1.32-1"/></g></g></g></svg>