<svg id="Animals&#x52A8;&#x7269;" xmlns="http://www.w3.org/2000/svg" viewbox="0 0 128 128" width="128" height="128"><defs><style>.cls-1{fill:#6a6055;stroke:none;}.cls-2{fill:#60584e;stroke:none;}.cls-3{fill:#7f7367;stroke:none;}.cls-4{fill:#766c61;stroke:none;}.cls-5,.cls-8{fill:#231f20;stroke:none;}.cls-5{opacity:0.25;stroke:none;}.cls-6{fill:#1d1810;stroke:none;}.cls-7{fill:#6d6258;stroke:none;}.cls-8{opacity:0.2;stroke:none;}.cls-9{fill:#6e645a;stroke:none;}</style></defs><title>animals&#x52A8;&#x7269;</title><path class="cls-1" d="M29.88,19.52s.89-3.12,1.29-2.8,3,2.49,3.69,4.36a4.17,4.17,0,0,1-.27,3.38s-3.4.83-3.82-.57S29.88,19.52,29.88,19.52Z"/><path class="cls-2" d="M37,72.58S44.1,84,45,86.05s3.72,16.88,3.42,17.78-.78,1.8-1.14,1.89-1.5,1.8-.43,1.89,4.4,0,4.4,0,.63-2.69,1-3,.34-8.38,0-10.36-1.84-18.11-1.84-18.11Z"/><path class="cls-2" d="M74.4,67.65c.61.63,7.54,15.62,9.49,16.34s4.73.72,5.38,2.87,3.8,17.24,3,18-2,1.35-2,1.8,0,1.17,1.93,1.17,3.35-.81,3.48-1.89-1.45-15-1.39-16.79S94,81.56,94,81.56,89.9,66.12,85,66.12A50,50,0,0,0,74.4,67.65Z"/><path class="cls-3" d="M46.65,41.87s-5.76-12.57-8.28-15S34.53,24,33.45,23.82l-1.07-.18S31.6,20.23,29.94,19s-5-2-5.07-1.44a8.5,8.5,0,0,0,.66,4.22,6.87,6.87,0,0,1,.89,2.78s-6.27,2.24-6.86,3.59.6,3.5-1.68,4.4-8.85,4-9,4.4.72,2.42,2,3.05a9.7,9.7,0,0,0,2,.81s0,1.26,2.11,1.35,11.34-.81,11.69-.36,1.2,1.62,1.65,6.73-.22,11.4,1.23,13.74S40.63,78,43,78.42s7.9,0,8.67,1.08,4.39,5.48,4.57,8A73.54,73.54,0,0,0,57.1,95c.38,2,1.75,8.89,1.19,9.61s-2,1.44-2,2,.77,1.08.77,1.08h4s.28-2.78.83-3.23,2.27-5.93,2-7.27-4.12-21-3.38-21.46S72.19,69.26,73.72,69s4.59-.27,5.94-.45,3.81-1.17,4.59-.27,4.57,7.9,6.1,10.51,2.77,5.48,4.29,5.84,5.53,1.17,5.91,3.05,3.31,15.71,2.83,16.61-2,2-2,2.42.59,1.08.59,1.08h4.13s1.41-2.08,1.26-2.78c-1.93-9.36-1.51-19.17-2.36-22.45-.53-2-4.62-5.41-5.42-7.37-.4-1,2-9.32.21-17.85-.48-2.24-1.75-4.32-1.12-4.5s3.28,6.29,7.44,8,10.15,2.51,13.55.18,3.81-8.89,2.82-8.71-7.69,1.71-13.36-.54S92,43.31,88.54,43.22,73.43,46.54,67,46.63s-15.27-5-16.7-5.21A11.46,11.46,0,0,0,46.65,41.87Z"/><path class="cls-4" d="M23.3,41.65a56.57,56.57,0,0,1-5.57-4.27,16.57,16.57,0,0,0-4.93-2.58,21.83,21.83,0,0,0-4,2.13c-.2.45.72,2.42,2,3.05a9.69,9.69,0,0,0,2,.81s0,1.26,2.11,1.35c1.3.06,5.47-.28,8.46-.42Z"/><path class="cls-5" d="M20.5,31.31S19.77,29,21,29.43s2.88,1.4,2.11,1.52S20.5,31.31,20.5,31.31Z"/><path class="cls-6" d="M20.59,31.15s-.45-2,.32-1.61,1.78,1.19,1.3,1.3S20.59,31.15,20.59,31.15Z"/><path class="cls-7" d="M122.53,52.29c-1,.18-7.69,1.71-13.36-.54-2.27-.9-5.46-2.43-8.7-3.95.59,2,3.83,12.09,10.38,13.64A14.1,14.1,0,0,0,120,60.8C123.13,58.32,123.49,52.11,122.53,52.29Z"/><path class="cls-6" d="M8.84,36.93a3,3,0,0,0,.74,1.93,5.43,5.43,0,0,0,.49-1.21,1.45,1.45,0,0,0-.16-1.41A4,4,0,0,0,8.84,36.93Z"/><path class="cls-8" d="M44.4,74.84c-3.94-1.38-11.5-11-13.21-13.8s-.66-13.87-1.64-16.56-2.91-2.69-2.91-2.69c.34.45,1.2,1.62,1.65,6.73s-.22,11.4,1.23,13.74S40.63,78,43,78.42s7.32,0,8.51.92A22.06,22.06,0,0,0,44.4,74.84Z"/><path class="cls-5" d="M87.45,63.63S84.27,59,83.84,56.3s-1.45-7-2.22-5.35S80.29,61.4,80.88,62s1.47,4.3,4.22,3.72S87.45,63.63,87.45,63.63Z"/><path class="cls-5" d="M51.27,45.3c2.7.73,15.34,3.32,17.1,3.11,1.16-.14,13.29-3.09,17.7-5-4.88.76-13.75,3.1-19.11,3.18-6.47.09-15.27-5-16.7-5.21a11.46,11.46,0,0,0-3.61.45A9.74,9.74,0,0,0,51.27,45.3Z"/><path class="cls-9" d="M17.72,37.38a13,13,0,0,0-1.5-1l-.29.13a45.4,45.4,0,0,1-6.39,2.3A3.68,3.68,0,0,0,10.8,40a9.7,9.7,0,0,0,2,.81s0,1.26,2.11,1.35c1.3.06,5.47-.28,8.46-.42l-.11-.07A56.58,56.58,0,0,1,17.72,37.38Z"/><path class="cls-6" d="M16.32,40.36l-1.09.23a13.33,13.33,0,0,1-2.39.21,1.12,1.12,0,0,0,.16.46h0a11.36,11.36,0,0,0,3-.54Z"/><path class="cls-5" d="M105,82.55c-.53-2-4.62-5.41-5.42-7.37-.4-1,2-9.32.21-17.85a14,14,0,0,0-.47-1.63c-.28,1.47-1.38,5-5.81,8.49-3.62,2.84-8,2.82-10.74,2.41a5.77,5.77,0,0,0-1.27-.81C79.74,65,75,64.13,68.09,65s-7.3,3.11-12.66,4.45c-6,1.49-7-2.57-8.25-1.34s1.25,4.94-2.91,3.69-6.42-6.94-9.47-10.13-2.08-12.2-3.05-15.53.55-5.13,1.39-8.74-1.8-.14-2.91,1.39c-.76,1-4.54,2.29-6.83,3a10.67,10.67,0,0,1,3.23.06c.34.45,1.2,1.62,1.65,6.73s-.22,11.4,1.23,13.74S40.63,78,43,78.42s7.9,0,8.67,1.08,4.39,5.48,4.57,8A73.53,73.53,0,0,0,57.1,95c.38,2,1.75,8.89,1.19,9.61s-2,1.44-2,2,.77,1.08.77,1.08h4s.28-2.78.83-3.23,2.27-5.93,2-7.27-4.12-21-3.38-21.46S72.19,69.26,73.72,69s4.27-.27,5.71-.43l.23,0c1.35-.18,3.81-1.17,4.59-.27A52.91,52.91,0,0,1,87,72.85c.63-1.95,2-3.69,4.73-1.44,4.93,4,3.64,6.11,6.58,9.28s4.82,2.47,5.64,12.21,1.41,10.81.47,11.63a8.67,8.67,0,0,1-2.21,1.13c-.43.43-.8.81-.8,1,0,.45.59,1.08.59,1.08h4.13s1.41-2.08,1.26-2.78C105.46,95.64,105.88,85.83,105,82.55Z"/></svg>