<svg id="Animals&#x52A8;&#x7269;" xmlns="http://www.w3.org/2000/svg" viewbox="0 0 128 128" width="128" height="128"><defs><style>.cls-1{fill:#a37b35;stroke:none;}.cls-2{fill:#92662b;stroke:none;}.cls-3{fill:#946c2e;stroke:none;}.cls-4{fill:#855e27;stroke:none;}.cls-5{fill:#795021;stroke:none;}.cls-6{fill:#a47d3a;stroke:none;}.cls-7{fill:#231f20;opacity:0.25;stroke:none;}.cls-8{fill:#cb9a55;stroke:none;}.cls-9{fill:#be8e4b;stroke:none;}.cls-10{fill:#a37d36;stroke:none;}.cls-11{fill:#916832;stroke:none;}.cls-12{fill:#7a3700;stroke:none;}.cls-13{fill:#5f2b00;stroke:none;}.cls-14{fill:#ae5701;stroke:none;}.cls-15{fill:#481c03;stroke:none;}.cls-16{fill:#331203;stroke:none;}</style></defs><title>animals&#x52A8;&#x7269;</title><path class="cls-1" d="M39.52,67.75s-3.84,4.05-8.73,4.57a51.9,51.9,0,0,1-11.32-.52,47.93,47.93,0,0,1-6.54-15.06C10.54,47.39,9.5,42.41,7.73,43.13s1.77,6.34,3.53,12.15S15,69.21,15.11,71.39a13.48,13.48,0,0,1-.31,3.74s-3.43,4.57-3.53,8.31.62,7.27,3.12,8.52,8.41,1.87,10.28,1.66S32,92.38,35.57,93s11.53.93,15.58.21,9.87-1.56,13.92-.83a66.24,66.24,0,0,0,17.56,1.35c7.79-.52,12.36-2,16-1.66s16.83-.52,18.91-.62,7.27-.31,3.74-1.56-13.09-3.53-16.83-4.78-10.08-2.7-10.08-2.7Z"/><path class="cls-2" d="M7.73,43.13C6,43.86,9.5,49.47,11.26,55.29S15,69.21,15.11,71.39a13.48,13.48,0,0,1-.31,3.74,7.52,7.52,0,0,1,1.56-1.65,10.84,10.84,0,0,1,3.12-1.67,47.93,47.93,0,0,1-6.54-15.06C10.54,47.39,9.5,42.41,7.73,43.13Z"/><path class="cls-2" d="M11.67,85.49s-4.75,0-5.69.7-.7,1.87.16,1.71,1.48-1.32,3.19-1.32a17.77,17.77,0,0,0,3-.23Z"/><path class="cls-3" d="M121.28,89.88c-3.53-1.25-13.09-3.53-16.83-4.78s-10.08-2.7-10.08-2.7l-27.1-7.24C60.73,77.41,54.78,79.48,53.8,80c-2.34,1.12-11,3.09-14.51,2.9s-10.49.84-13.39,1.5-7.4,2.43-11.24.66a6,6,0,0,1-3.14-3.3,8.23,8.23,0,0,0-.25,1.72c-.1,3.74.62,7.27,3.12,8.52s8.41,1.87,10.28,1.66S32,92.38,35.57,93s11.53.94,15.58.21,9.87-1.56,13.92-.83a66.25,66.25,0,0,0,17.56,1.35c7.79-.52,12.36-2,16-1.66s16.83-.52,18.91-.62S124.81,91.13,121.28,89.88Z"/><path class="cls-4" d="M65.08,92.38a66.25,66.25,0,0,0,17.56,1.35c7.79-.52,12.36-2,16-1.66s16.83-.52,18.91-.62,7.27-.31,3.74-1.56-13.09-3.53-16.83-4.78c-3.05-1-7.84-2.17-9.49-2.56-9.18,2.81-23.62,7.18-27.31,6.13-5.24-1.5-16.39,1.12-19.29,1.69s-7.4.19-10.21-.09a54.27,54.27,0,0,0-9.83.19c-1.4.28-7.77,1.31-11.7.56a8,8,0,0,1-5.11-3.75c.39,2.15,1.26,3.9,2.87,4.71,2.49,1.25,8.41,1.87,10.28,1.66S32,92.38,35.57,93s11.53.94,15.58.21S61,91.65,65.08,92.38Z"/><path class="cls-5" d="M22,89.39a1.14,1.14,0,0,0-2-.46c-1,.94-2.18,3.79-2.9,4.56s-1.85,2.64-1.19,3,2-.39,2.39-1.91c.32-1.25,2.46-2.75,2.9-3.26S22.29,90,22,89.39Z"/><path class="cls-6" d="M21.49,88.92c-.31-.47-.86-.55-1.71.31s-1.95,3.51-2.57,4.21S15.41,95.86,16,96.25s1.87-.62,2.18-1.79,2.88-3.51,3.27-4A1.29,1.29,0,0,0,21.49,88.92Z"/><path class="cls-7" d="M94.37,82.4,39.52,67.75s-.25.26-.7.66a23.06,23.06,0,0,1,8.89,5C52.2,77.62,64.47,89.32,72,91.1S88.91,93,95.27,90.26A36.94,36.94,0,0,0,104.05,85C100.28,83.76,94.37,82.4,94.37,82.4Z"/><path class="cls-8" d="M20.87,89.5c-.16-.39-.5-.48-1.09.15s-1.46,2.65-1.9,3.17-1.29,1.8-1,2.14,1.21-.39,1.49-1.29,2-2.6,2.32-2.95A1.24,1.24,0,0,0,20.87,89.5Z"/><path class="cls-9" d="M37.21,69.69a14,14,0,0,1-6.41,2.63,47.07,47.07,0,0,1-9.73-.3,23.55,23.55,0,0,0-2.29.83c-2,.88-4.1,4.27-4.1,4.27a18.09,18.09,0,0,1,4.43-2.52c2.3-.82,13.24.44,17.84.16s4.52-3.21,3.5-4.27S38.35,69.68,37.21,69.69Z"/><path class="cls-10" d="M23.43,76.61s1-.67-.39-6c-2-7.55-2.49-22.44-4.75-22.44s-1.48,2.1-.86,3.19,1.76,2,2.34,8.88c.86,10.13-1.35,15.53-.47,16.36C20.71,77.94,23.43,76.61,23.43,76.61Z"/><path class="cls-11" d="M23.48,76.56a4.4,4.4,0,0,1-1.1.25,2.22,2.22,0,0,1-2.31-1.25c-.59-1.06.13-6,0-12.93s-1.58-11-2.24-11.68a5.68,5.68,0,0,1-1-2,3.6,3.6,0,0,0,.6,2.39c.62,1.09,1.76,2,2.34,8.88.86,10.13-1.35,15.53-.47,16.36,1.4,1.32,4.13,0,4.13,0Z"/><path class="cls-8" d="M19.62,52.86s3.83,21.71,3.1,22.1-1.58.53-1.78-5.28S19.62,52.86,19.62,52.86Z"/><path class="cls-8" d="M19.47,51s-.6-2.27-1.16-2.35-.73.21-.47.43a3,3,0,0,1,.9.9A6.7,6.7,0,0,0,19.47,51Z"/><path class="cls-10" d="M10.29,85.69c0-.15-.37-.15-.37-.15-1.46.07-3.38.24-3.94.66a1.41,1.41,0,0,0-.59,1c.05.35.45.52.85.3.67-.37,1.21-1,2-1.06S10.29,86.12,10.29,85.69Z"/><path class="cls-8" d="M6.87,86.06a1.77,1.77,0,0,0-1,.42c-.24.24-.43.57-.28.68s.35-.34.61-.64A2.74,2.74,0,0,1,6.87,86.06Z"/><path class="cls-12" d="M36.77,70s-2.16-1.5-1.22-2.44A41.46,41.46,0,0,0,43.6,55.66c2.62-6.18,7.5-18.47,20.69-22.47,11.36-3.45,20.41-1.5,32.11,5.9S108,62.41,106.61,69.9s-5.54,19.24-19.76,21.63c-11.14,1.87-16.67-3.84-21.91-6.83s-14.7-11-17.13-12.83a22.15,22.15,0,0,0-6.74-3.65l-1.5-.37Z"/><path class="cls-13" d="M106.61,69.9a41.39,41.39,0,0,0,.2-13.31c.11,1.22.17,2.51.17,3.86,0,8.61-6.38,27.75-23,27.15C68.31,87,65.88,75.14,66.07,66.24c.19-9.09,5.62-15,15.54-15.64,8.52-.56,14.33,7,14.51,13.48s-4.49,11.7-9.74,12a8,8,0,0,1-8.8-8.33c.09-4.87,3.28-7.4,7.58-7.68s5.71,3,5.71,6.09S88,71.3,84.79,70.46A2.78,2.78,0,0,1,84.6,65c2.62-.66,2.34,2.15,1.69,2.15s-1.5,0-1.4.84,3.65,1.31,4.12-.84S87.88,63,85.07,62.12s-5.24,2-5.62,4.4a6.38,6.38,0,0,0,5.9,7.12c4.87.66,7.3-3.65,7.68-6.46s.56-7.49-6.27-9.83S76,58.66,74.31,62.59,72.43,79.07,86,79.45s14-13.58,13.86-17.13-2.43-15.92-16.1-17.79S64,48.64,59,55.48c-4.07,5.6-4.23,17.81-4.16,22a98.07,98.07,0,0,0,10.06,7.18c5.24,3,10.77,8.71,21.91,6.83C101.07,89.14,105.2,77.39,106.61,69.9Z"/><path class="cls-14" d="M97.62,42.93s-7.58-10.67-25-9.27-23.78,13.76-22,15.73,5.24-1.31,9.27-5.15,12.92-7.77,21.07-7S97.62,42.93,97.62,42.93Z"/><path class="cls-14" d="M92,56.6s-3.46-4.87-11.41-4.23-10.86,6.28-10,7.18,2.39-.6,4.23-2.35A13.67,13.67,0,0,1,84.44,54,21.86,21.86,0,0,1,92,56.6Z"/><path class="cls-15" d="M65.84,56.81c3.39-5.37,9-7.78,15.26-7.71s11.79,3,14.63,8.66c2.45,4.93,2.29,11.5-.95,16.08-3.49,4.94-11.1,5.09-15.6,1.39-4-3.28-4.54-10.11-.73-13.81,3.41-3.31,11.45-3,12.87,2.24a9.76,9.76,0,0,1-.28,5.23c-1,3-4.66,4-7.4,2.66a4.77,4.77,0,0,1-2.35-5.07c.34-1.86,2.58-2.69,4.22-2.1a3.69,3.69,0,0,1,1.39.84,1.36,1.36,0,0,1-.33,2.27,7.88,7.88,0,0,1-1.66.14.67.67,0,0,0,0,.15v0a1,1,0,0,0,0,.19.33.33,0,0,0,0,.09v0l0,.06,0,0,.06.06,0,0,.1.07c1.1-.13,2.28.06,2.82-1.15a2.42,2.42,0,0,0-1.13-3c-2.2-1.45-5.85-.67-6.31,2.25a5.72,5.72,0,0,0,1.9,5.27,6.67,6.67,0,0,0,7.55.07c3-2.25,3.15-8.12.73-10.82-2-2.25-5.46-2.7-8.3-2.24a8.18,8.18,0,0,0-6.32,4.85A10.35,10.35,0,0,0,82,77.69a12.69,12.69,0,0,0,9.79-.2A11.27,11.27,0,0,0,97,71.26a17.29,17.29,0,0,0-4.51-19c-5.16-4.52-13.87-5.38-20-2.72-6.32,2.74-10.44,9.59-11.37,16.15a31.42,31.42,0,0,0,3.18,18.66l.63.37c.93.53,1.88,1.15,2.86,1.8h0C62.3,77.76,60.07,66,65.84,56.81Z"/><path class="cls-16" d="M36.77,70s.75-.48,1.4-1l1.41-1.15a10.3,10.3,0,0,0-2.45-.38c-.68,0-1.58.1-1.58.1C34.61,68.49,36.77,70,36.77,70Z"/></svg>