<svg id="Animals&#x52A8;&#x7269;" xmlns="http://www.w3.org/2000/svg" viewbox="0 0 128 128" width="128" height="128"><defs><style>.cls-1,.cls-6{fill:#482215;stroke:none;}.cls-1{fill-rule:evenodd;stroke:none;}.cls-2{fill:#6c3321;stroke:none;}.cls-3{fill:#462215;stroke:none;}.cls-4{fill:#562f22;stroke:none;}.cls-5,.cls-7{fill:#5b2b15;stroke:none;}.cls-7{stroke:#462215;stroke-linecap:round;stroke-linejoin:round;stroke-width:0.57px;}.cls-8{fill:#783d27;stroke:none;}.cls-9{fill:#231f20;stroke:none;}</style></defs><title>animals&#x52A8;&#x7269;</title><path class="cls-1" d="M120.1,55.73s3.62,4.39,3,7.78S120,66.17,120,66.17Z"/><path class="cls-2" d="M52.77,32.87a11,11,0,0,0-6.94,1.27c-3.22,2-7.62,4.5-11.34,5.18s-7.82-1.47-12.31,1.17S13.1,46.84,11.93,49s-1.07,3.81-2.25,5-6.35,4.59-5.86,5.57,1.66,2.93,2.35,3a3.69,3.69,0,0,1,2.25.78c.49.59.39,1,1.17,1.07s9.38-.78,10.16-.2,2.44,2.74,5.57,3.62,6.45,1.47,7.13.78S34,65.21,34.79,66s1,8,1.66,9.19,1.27,2.44,1,6.16-1.17,12.9-2.25,14-4.59,2.15-5,3.32,0,2.44,3.22,2.44,8.31-.39,8.7-.88,1.37-2.74,1.76-2.83a1.66,1.66,0,0,0,1.27-1.17c.2-.78,1.47-1.37,1.66-2.15s-.1-3.32.49-4.5,1.56-3.62,1.66-2.83,2,8.4,1.56,9.19-.49,2-1,2.15-3.62.88-4.2,1.56-.68,2.54-.2,2.74a18.71,18.71,0,0,0,4.2.68c1.27,0,6.35.2,8.11-.29s2.44-1.66,2.64-3.62-.2-3.62.1-4.3-.1-2.15.39-2.25.78-3.13,1.56-3.52,1.17-1.07,1.37-2.93.78-5.67.78-7.13-1-4.3-.2-3.71,4.69,3.32,6.64,3.13,12.41-1.86,13.09-1.47,2,2.05,3.22,1.86,2.74.49,3.91,3S96.26,91,96.16,91.6s-.1,2.83-.49,2.93S88,98.73,90.1,99.41a15.39,15.39,0,0,0,4.59,1c1.07,0,2.05.1,2.05.1s-1.73,2.62-.68,2.93c5,1.48,12.41.68,13.09.59s1.07-.68,1.47-.88a3.37,3.37,0,0,0,2-1.86c.88-1.56,2-2.64,2-3.42s.2-5.57,2.35-9.09a24.16,24.16,0,0,0,3.22-8.89c.29-2,2-21.89,0-24.14S104.32,37.57,97.87,37.47a247.53,247.53,0,0,1-28-1.87C60.2,34.24,52.77,32.87,52.77,32.87Z"/><path class="cls-3" d="M16.66,44.44s-1-2.35,1-3.54a3.45,3.45,0,0,1,3.54.25Z"/><path class="cls-4" d="M18.19,40.64a2.82,2.82,0,0,0-.8,3.27l3.78-2.76A3.65,3.65,0,0,0,18.19,40.64Z"/><path class="cls-5" d="M99.76,84.77c.76-2.28-1.21-13.51-1.82-14.8s.61-8.12-.3-8.57-10.7,6.75-20.79,6.9-14.49-7-16-7.28-1.14,1.75-1.29,4.78-6.3,6.07-8.19,7.44-2.66,8.12-3.41,9.41-1-4-1.37-5.77-3.41-5.16-3.41-5.16-1.69-5.77-1.76-8.66,1.69-7.43-1.88-7.2-6,4.17-6.67,4.54c-1.76.91-3.91-1.22-5.43-2.49S24.86,54.72,23,55.78s.41,7.42-7.79,2.28c-2-1.24-3.73-4-4.65-5.58l-.13.31A12.66,12.66,0,0,0,12.36,56a33.27,33.27,0,0,0,5,4.78,3.82,3.82,0,0,1,1.57,3.27,1.89,1.89,0,0,1,.81.17c.78.59,2.44,2.74,5.57,3.62s6.45,1.47,7.13.78S34,65.21,34.79,66s1,8,1.66,9.19,1.27,2.44,1,6.16-1.17,12.9-2.25,14-4.59,2.15-5,3.32,0,2.44,3.22,2.44,8.31-.39,8.7-.88,1.37-2.74,1.76-2.83a1.66,1.66,0,0,0,1.27-1.17c.2-.78,1.47-1.37,1.66-2.15s-.1-3.32.49-4.5,1.56-3.62,1.66-2.83,2,8.4,1.56,9.19-.49,2-1,2.15-3.62.88-4.2,1.56-1.67,2.65-.17,3a31.08,31.08,0,0,0,4.18.47c1.27,0,6.35.2,8.11-.29s2.44-1.66,2.64-3.62-.2-3.62.1-4.3-.1-2.15.39-2.25.78-3.13,1.56-3.52,1.17-1.07,1.37-2.93.78-5.67.78-7.13-1-4.3-.2-3.71,4.69,3.32,6.64,3.13,12.41-1.86,13.09-1.47,2,2.05,3.22,1.86,2.74.49,3.91,3S96.26,91,96.16,91.6s-.1,2.83-.49,2.93S88,98.73,90.1,99.41a15.39,15.39,0,0,0,4.59,1c1.07,0,2.05.1,2.05.1s2.79-.93,3.7-1.38,1.14-2.73,1.37-4.25-1.44-4.17-2-5.16S99,87,99.76,84.77Z"/><path class="cls-6" d="M34.79,66c.78.78,1,8,1.66,9.19s1.27,2.44,1,6.16c-.12,1.47-.32,3.79-.6,6.12.74-1.15,2.79-4.3,3.22-5,.53-.91,2.66-.08,4.1.83s3.15,6.3,3.15,6.3c.55-1.1,1.45-3.34,1.64-2.94l-1-4c-.76,1.29-1-4-1.37-5.77s-3.41-5.16-3.41-5.16-2.43-3.95-3.49-5.31S34.79,66,34.79,66Z"/><path class="cls-6" d="M99.76,89.7s-2.28-3.79-3.64-6S93,73.46,92.63,72.47,84.29,73.76,79,74.14,65.77,73,64.56,72.4s-1.59-.3-2.28.68-.3,2.73,0,4.93-.76,8.27-.91,9.64a10.21,10.21,0,0,1-2,4.78c-1.06,1.21-.38,2.73.23,3.72s-.3,3.11-.91,4.63a5.27,5.27,0,0,1-1.72,2.07,5.19,5.19,0,0,0,.54-.11c1.76-.49,2.44-1.66,2.64-3.62s-.2-3.62.1-4.3-.1-2.15.39-2.25,2.74-4.59,2.93-6.45.78-5.67.78-7.13-1-4.3-.2-3.71,4.69,3.32,6.64,3.13,12.41-1.86,13.09-1.47,2,2.05,3.22,1.86,2.74.49,3.91,3S96.26,91,96.16,91.6s-.1,2.83-.49,2.93S88,98.73,90.1,99.41a15.39,15.39,0,0,0,4.59,1c1.07,0,2.05.1,2.05.1s2.79-.93,3.7-1.38,1.14-2.73,1.37-4.25S100.37,90.68,99.76,89.7Z"/><path class="cls-5" d="M98,36.79c-7.83-.86-18.48.18-28.15-1.19s-17.1-2.74-17.1-2.74a11,11,0,0,0-6.94,1.27c-3.22,2-7.62,4.5-11.34,5.18s-7.82-1.47-12.31,1.17a42.72,42.72,0,0,0-9.17,7c-.24.7-.34,1.45.1,1.85.95.87,1.74.24,3.16,1.11s1.9,2.29,2.53,1.58-.71-5.46.32-5,3.56-2.21,4.59-1.66,3.32.55,5.54,0,10-2.45,10.84-3.08.87-1.74,2.61-1.58,3.8,2.53,4.19,2,2.69-4.51,4.11-5.22,3.56-1.9,4-1.27,4.43,2.06,9.1,2.77S81.29,40.69,82,41.24s4.59,5,6.72,4.82,11.94-3.8,14.24-2.37,5.77,2.45,8.23,7.67,3.72,15.11,2.45,17.4-2.06,7.83-1.11,10.36,2.85,5.7.79,13.05c-1.77,6.35-2.14,9.16-2,10.62a4.09,4.09,0,0,0,1.3-1.53c.88-1.56,2-2.64,2-3.42s.2-5.57,2.35-9.09a24.16,24.16,0,0,0,3.22-8.89c.29-2,2-21.89,0-24.14S108.89,38,98,36.79Z"/><path class="cls-7" d="M17.83,46.31s1.52-2.86,3.8-2.12,1.6,4.16,1.6,4.16"/><path class="cls-8" d="M18.95,46.49s.8-1.8,2-1.33.7,2.26.7,2.26"/><path class="cls-9" d="M12.65,51.07A4,4,0,0,0,14,52c.75.26,1.37.46,1,.72l-1.73,1.1s.5-.73.43-1.08A3.75,3.75,0,0,0,12.65,51.07Z"/><path class="cls-9" d="M4.48,58.37l0,0c-.49.51-.76.94-.63,1.2s.23.45.38.71c.49.33,1.46-.55,1.46-1.37S4.61,58.32,4.48,58.37Z"/><path class="cls-9" d="M12.43,62.12a5.28,5.28,0,0,0-2.2.78,6.91,6.91,0,0,1-1.83.46l.17.23c.28,0,1.41-.22,1.52-.23.37,0,1.1-.64,2.06-.87a3.06,3.06,0,0,1,1.83.18l.55-.09A5,5,0,0,0,12.43,62.12Z"/></svg>