<svg id="Animals&#x52A8;&#x7269;" xmlns="http://www.w3.org/2000/svg" viewbox="0 0 128 128" width="128" height="128"><defs><style>.cls-1{fill:#8b6e4a;stroke:none;}.cls-2{fill:#ccae87;stroke:none;}.cls-3{fill:#b79b76;stroke:none;}.cls-4{fill:#7f644f;stroke:none;}.cls-5{fill:#ccb08d;stroke:none;}.cls-6{fill:#aa8a60;stroke:none;}.cls-7{fill:#bb9f78;stroke:none;}.cls-8{fill:#dfc1a3;stroke:none;}.cls-9{fill:#ae9076;stroke:none;}.cls-10{fill:#997e61;stroke:none;}.cls-11{fill:#826245;stroke:none;}.cls-12{fill:#6c5039;stroke:none;}.cls-13{fill:#9f7d57;stroke:none;}.cls-14{fill:#997d67;stroke:none;}.cls-15{fill:#a3886e;stroke:none;}.cls-16{fill:#6e5738;stroke:none;}.cls-17{fill:#4a2f1d;stroke:none;}.cls-18{fill:#a38971;stroke:none;}.cls-19{fill:#714f34;stroke:none;}.cls-20{fill:#fff;stroke:none;}.cls-21{fill:#c3aa90;stroke:none;}.cls-22{fill:#846b4f;stroke:none;}.cls-23{fill:#d5ba9a;stroke:none;}.cls-24{fill:#aa8e77;stroke:none;}.cls-25{fill:#231f20;opacity:0.25;stroke:none;}.cls-26{fill:#603813;stroke:none;}.cls-27{fill:#6c5037;stroke:none;}</style></defs><title>animals&#x52A8;&#x7269;</title><path class="cls-1" d="M114.41,100.39a106.89,106.89,0,0,0-15.94-1.07c-5.88.19-12,1.11-15.38-4.31S77.8,83.53,76.69,76.85,75.43,62.3,69.83,57.07,56.44,48.31,46.66,46.41a78.6,78.6,0,0,0-11.4-1.07c-2.65-.19-3.75-.32-4.1-.64a24.54,24.54,0,0,0-3.46-2A3.85,3.85,0,0,1,25.44,39c.11-1.91.64-4.45-.11-7.42a44.81,44.81,0,0,0-1.48-4.88A9.81,9.81,0,0,0,27.35,21c.53-3.5,0-7.74-1.48-7.95s-4.56,2.76-5.19,4.66S20.35,22,19.61,23l-.74,1s-.85.05-1.31.15-.93.14-.93.14a22.12,22.12,0,0,1-1.07-2.13c-.19-.56-.65-3.29-2.18-4.91S9.87,14,9,14.53s-.19,6.35.93,8.9,2.83,3.24,2.59,3.61-1.3,1.3-1.44,2.18a3,3,0,0,0,.14,1.53,4.05,4.05,0,0,0,0,.93,3.78,3.78,0,0,0,.32.93A3.19,3.19,0,0,0,11,35.1a11.81,11.81,0,0,0,1.16,3.34,4.28,4.28,0,0,0,.56,1.71c.42.51.83.42,1,.7L14.22,42l.32,2.87a7.49,7.49,0,0,0-1.48,5.24c.28,3.2,2.41,10.15,2.36,10.7a19.33,19.33,0,0,0,0,4,20.6,20.6,0,0,1,.7,5.56c-.09,2.46-.46,7.83-.46,9s0,4,.6,5.1,1.53,1.44,1.9.93-.51-1.53-.51-1.53,1.58,1.34,1.85.46-1.3-2-.7-1.85,1.39.14,1.39-.32-.88-1-1-1.48.46-.56-.23-1.81-1.34-1.67-1.11-3.48A65.13,65.13,0,0,1,19,68.51a15.32,15.32,0,0,0,1.71-3.75c.32-1.53.51-2.78.51-2.78a44.13,44.13,0,0,0,3.57,4.31c1.44,1.39,2.83,2.92,2.83,2.92s-1.34,4.22-2.32,6.53-1.95,4.77-2,5.14-.23,1.25-.23,1.25-.88,1.67-.74,2.27,0,.79.28.83l.28,0s0,2.92.79,3.1a.76.76,0,0,0,1-.51s.42.7.88.37.7-2.41.7-2.41.23,1,.74.83.65-2.18.37-3a8.43,8.43,0,0,1-.32-3.1,28.16,28.16,0,0,1,1.71-6.39c.74-1.39,1.48-2.64,1.48-2.64A27.15,27.15,0,0,0,34,74.17c1.81,1,4.17,2.09,4.17,2.09a14.79,14.79,0,0,0,2,5.88c1.76,2.78,2.83,7.92,3.66,13.07s1.44,8.67,1.16,8.94a5.58,5.58,0,0,1-1.11.7,9.07,9.07,0,0,1-2.27.32c-1.25.14-6.26-.14-10.89.74s-8,1.67-9,1.71-1.81.14-2.32.93,0,1.48,1.3,1.58a73.79,73.79,0,0,0,9.92-.46,74.75,74.75,0,0,1,9-.23s-8.06,2.13-10.15,2.46-4.82.7-5.33,1.3-1.11,1.39-.7,1.67.74.46.74.46a.77.77,0,0,0,.51.7,8.79,8.79,0,0,0,2.55.19,5,5,0,0,0,1.53-.42,4.77,4.77,0,0,0,3,.83,45,45,0,0,0,5.61-1.2,117.57,117.57,0,0,1,11.63-2.22c3.66-.42,7.14-.65,8-2.46s-.14-8.53,0-10.89,0-12.56,1.11-13.9,1.58-1.81,3.66-1.71,3.48.14,4.68.14a9.54,9.54,0,0,0,2.5-.42s.6,4.17,4.87,10.52,7.65,9.59,14.09,11,13.95-1.71,20.85-1.9,12.56.42,13.35-.6S118.16,100.86,114.41,100.39ZM50.51,98.46s-1.9-8.38-2-10.39a21.6,21.6,0,0,1,1.13-5.71,38.28,38.28,0,0,1,1.49,8.79A48.3,48.3,0,0,1,50.51,98.46Z"/><path class="cls-2" d="M37.67,70.1A20.16,20.16,0,0,1,28,63.38C27,62,25.69,59.57,23,52.55s-1.37-10.87-1.37-10.87l-6,1.8-1.27.07.15,1.29a7.49,7.49,0,0,0-1.48,5.24c.28,3.2,2.41,10.15,2.36,10.7a19.34,19.34,0,0,0,0,4,20.59,20.59,0,0,1,.7,5.56c-.09,2.46-.46,7.83-.46,9s0,4,.6,5.1,1.53,1.44,1.9.93-.51-1.53-.51-1.53,1.58,1.34,1.85.46-1.3-2-.7-1.85,1.39.14,1.39-.32-.88-1-1-1.48.46-.56-.23-1.81-1.34-1.67-1.11-3.48A65.12,65.12,0,0,1,19,68.51a15.32,15.32,0,0,0,1.71-3.75c.32-1.53.51-2.78.51-2.78a44.13,44.13,0,0,0,3.57,4.31c1.44,1.39,2.83,2.92,2.83,2.92s-1.34,4.22-2.32,6.53-1.95,4.77-2,5.14-.23,1.25-.23,1.25-.88,1.67-.74,2.27,0,.79.28.83l.28,0s0,2.92.79,3.1a.76.76,0,0,0,1-.51s.42.7.88.37.7-2.41.7-2.41.23,1,.74.83.65-2.18.37-3a8.44,8.44,0,0,1-.32-3.1,28.15,28.15,0,0,1,1.71-6.39c.74-1.39,1.48-2.64,1.48-2.64A27.16,27.16,0,0,0,34,74.17c1.81,1,4.17,2.09,4.17,2.09a14.79,14.79,0,0,0,2,5.89l0,.08,8.15-1-1.28-9.67A42.1,42.1,0,0,1,37.67,70.1Z"/><path class="cls-3" d="M14.55,44.83a7.49,7.49,0,0,0-1.48,5.24c.28,3.2,2.41,10.15,2.36,10.7a19.34,19.34,0,0,0,0,4,20.59,20.59,0,0,1,.7,5.56c-.09,2.46-.46,7.83-.46,9s0,4,.6,5.1,1.53,1.44,1.9.93-.51-1.53-.51-1.53,1.58,1.34,1.85.46-1.3-2-.7-1.85,1.39.14,1.39-.32-.88-1-1-1.48.46-.56-.23-1.81-1.34-1.67-1.11-3.48A65.12,65.12,0,0,1,19,68.51a15.32,15.32,0,0,0,1.71-3.75c.32-1.53.51-2.78.51-2.78a44.13,44.13,0,0,0,3.57,4.31c1.44,1.39,2.83,2.92,2.83,2.92s-1.34,4.22-2.32,6.53-1.95,4.77-2,5.14-.23,1.25-.23,1.25-.88,1.67-.74,2.27,0,.79.28.83l.28,0s0,2.92.79,3.1a.76.76,0,0,0,1-.51s.42.7.88.37.7-2.41.7-2.41.23,1,.74.83.65-2.18.37-3a8.44,8.44,0,0,1-.32-3.1,28.15,28.15,0,0,1,1.71-6.39c.74-1.39,1.48-2.64,1.48-2.64A27.16,27.16,0,0,0,34,74.17c1.81,1,4.17,2.09,4.17,2.09a26.06,26.06,0,0,0,4,1.7c1.78.51,6.76,1.71,6.76,1.71a16.89,16.89,0,0,0-.51-2,37.46,37.46,0,0,1-.74-4.27,1.89,1.89,0,0,0,2.47,1.43c1.32-.35,7.18-10,10.41-13.52s8.84-1.45,8.84-1.45a22.07,22.07,0,0,0-5.05-2.25C62.09,57,59.26,57,54.28,59.91S46.64,71.37,45.69,72.5,40.79,75.44,38,74.57s-6.69-4-10.51-7.42-5.78-7.38-8.29-12.87A14.81,14.81,0,0,1,19,42.71"/><path class="cls-4" d="M23.54,26.21A7.59,7.59,0,0,0,25.2,22c0-2.22-.6-4.36-1.25-4.4A3.84,3.84,0,0,0,20.85,19c-.18.29-.39.66-.61,1a6.4,6.4,0,0,1-.63,2.9l-.74,1a10.22,10.22,0,0,1,2.72.89A12.64,12.64,0,0,1,23.54,26.21Z"/><path class="cls-4" d="M15.28,21c-1-1.1-2.38-2.53-3-2.36-.93.28-1.11,1.2-1,3A14.51,14.51,0,0,0,13,26.21s1.2-.83,1.9-1.44a2.83,2.83,0,0,1,1.76-.56,22.08,22.08,0,0,1-1.07-2.13C15.51,21.91,15.42,21.51,15.28,21Z"/><path class="cls-5" d="M22.52,25.56a5.52,5.52,0,0,0,.6-1.71c.37-1.44-.83-3.29-1.48-4.49-.55-1-.14-2.83,0-3.37a6.22,6.22,0,0,0-1,1.69C20,19.58,20.35,22,19.61,23l-.74,1h-.1c.44.12,1,.26,1.38.32A8.3,8.3,0,0,1,22.52,25.56Z"/><path class="cls-5" d="M16.63,24.21h0a22.08,22.08,0,0,1-1.07-2.13c-.19-.56-.65-3.29-2.18-4.91l-.47-.48,0,0a9.76,9.76,0,0,1,.46,3.48,9.24,9.24,0,0,0-.09,3.89c.32,1.11.51,1.58.51,1.58a13.07,13.07,0,0,1,1.71-1.2c.32-.09,1.16-.23,1.16-.23Z"/><path class="cls-6" d="M20,30.24c.65-1.25,3.89-.78,3.94-1.34.07-.82-3.08-2.32-7-2.05-4.72.33-5.49,1.7-5.62,1.73a2,2,0,0,0-.24.65,3.19,3.19,0,0,0,0,1.08,1.31,1.31,0,0,1,1.77-.19c1.37.86,1,4.31,1,4.31s4.42,2.12,4.65,2.12S19.36,31.49,20,30.24Z"/><path class="cls-7" d="M12.69,40.15c.42.51.83.42,1,.7L14.22,42s.65.9,2.6.66,4.12-1.59,3.06-4.7-2.64-7.55-3.94-7.23c-.59.15-2.13,3.48-2.73,5.05s-1.07,2.69-1.07,2.69,0,.28.13.69A2.75,2.75,0,0,0,12.69,40.15Z"/><path class="cls-8" d="M15,31.84c-.18.31-.54.84-.72,1.21L12.5,37.11a4.22,4.22,0,0,0-.37,1.33s0,.28.13.69a2.75,2.75,0,0,0,.43,1c.42.51.83.42,1,.7l0,.09a5.13,5.13,0,0,0,1.53.23c2.73,0,3.71-1.2,3.71-2.32a14.32,14.32,0,0,0-1.85-5.19C16.2,31.92,16.16,30.57,15,31.84Z"/><path class="cls-9" d="M48.51,88.07a22.31,22.31,0,0,1,1.13-5.71c-.91-3.54-.56-5.22-4-5.59s-7.5-.52-7.5-.52a14.79,14.79,0,0,0,2,5.88c1.76,2.78,2.83,7.92,3.66,13.07s1.44,8.67,1.16,8.94a5.58,5.58,0,0,1-1.11.7,9.07,9.07,0,0,1-2.27.32c-1.25.14-6.26-.14-10.89.74s-8,1.67-9,1.71-1.81.14-2.32.93,0,1.48,1.3,1.58a73.79,73.79,0,0,0,9.92-.46,74.75,74.75,0,0,1,9-.23s9.26-.8,10.19-5.65A40.86,40.86,0,0,0,50.41,98C50,96.21,48.6,89.79,48.51,88.07Z"/><path class="cls-10" d="M24.18,40.56A3.64,3.64,0,0,0,25.44,39s0,0,0,0c0-.29,0-.59.07-.91a16.34,16.34,0,0,1-1.15,1.35,8.54,8.54,0,0,1-2.46,1.45c-.57.22-2.67,1.05-4.43,1.71a4.59,4.59,0,0,1-3.21-.26l.28,2.52a6.23,6.23,0,0,0-.83,1.4c.58-.49,1.43-1.21,2.05-1.76a9.2,9.2,0,0,1,3.42-1.53A27.16,27.16,0,0,0,24.18,40.56Z"/><path class="cls-11" d="M18.72,58.53a25.43,25.43,0,0,1-3.48-6.85c-.87-2.34-.69-6.85-.69-6.85a7.49,7.49,0,0,0-1.48,5.24c.28,3.2,2.41,10.15,2.36,10.7a21,21,0,0,0,0,3.82,4.29,4.29,0,0,0,2.41.21c1.28-.28,2.07-2.87,2.4-4.22C19.85,60,19.34,59.32,18.72,58.53Z"/><path class="cls-12" d="M21.22,62s-.93-1.44-2.5-3.45a25.43,25.43,0,0,1-3.48-6.85,14.58,14.58,0,0,1-.65-3.87c-.13.63-.48,3.28,1.63,7.86a84,84,0,0,0,4.59,8.61C21.07,63,21.22,62,21.22,62Z"/><path class="cls-13" d="M54.28,59.91a13.86,13.86,0,0,0-3.77,3.59c-6,8.39-2.57,12.17.08,11.58,2.09-.47,6.74-10.25,10-13.82s8.84-1.45,8.84-1.45a22.07,22.07,0,0,0-5.05-2.25C62.09,57,59.26,57,54.28,59.91Z"/><path class="cls-14" d="M38.13,76.25l-.32-.15Z"/><path class="cls-14" d="M37.78,76.08l0,0,0,0Z"/><path class="cls-15" d="M38.13,76.25l-.32-.15Z"/><path class="cls-15" d="M37.78,76.08l0,0,0,0Z"/><path class="cls-15" d="M45,104.15s.57-.16,1.35.53,1.21,1.13,1.21,1.13-.71-1.57-1.61-2a4.39,4.39,0,0,0-.9-.33Z"/><path class="cls-14" d="M50.57,98c0,.32-.06.5-.06.5s-1.9-8.38-2-10.39a23.61,23.61,0,0,1,1.13-5.71A18,18,0,0,0,49,79.67s-5.08-1.21-6.86-1.72a26,26,0,0,1-4-1.7,14.8,14.8,0,0,0,2,5.89,18.44,18.44,0,0,1,1.9,4.63,3.31,3.31,0,0,1,3.76.91c1.42,1.33,2.57,6.87,3.09,8.21S50.31,101,50,102s-1,3.56-1.19,3.86-1.07.82-1.64,1.33-2.73.87-3.29,1.13-4.22,1.15-4.22,1.15,6.48-1,8-2.13a6.84,6.84,0,0,0,1.9-1.8,17.1,17.1,0,0,0,1.08-5.86C50.64,99.25,50.61,98.66,50.57,98Z"/><path class="cls-16" d="M29.62,109.79a40.13,40.13,0,0,1-4.68-.45,4,4,0,0,1-2.86-1.74l-.35,0c-1,0-1.81.14-2.32.93s0,1.48,1.3,1.58A77.78,77.78,0,0,0,29.62,109.79Z"/><path class="cls-17" d="M15.24,38.53a12.73,12.73,0,0,1,1.53-.7c.28,0,1.53-.93.56-1.48a4,4,0,0,0-3-.37c-.83.23-1.48,1-1,1.44a13.07,13.07,0,0,0,1.16.79A2.08,2.08,0,0,0,15.24,38.53Z"/><path class="cls-18" d="M20,65a8.69,8.69,0,0,1-1.59,2.67c-.7.89-.89,6.65-.94,8.15s.7,2.9.84,3.75-.66,1.36-1.31,1.69c-.47.24-1-.21-1.28-.47a10.8,10.8,0,0,0,.58,3.64c.56,1.07,1.53,1.44,1.9.93s-.51-1.53-.51-1.53,1.58,1.34,1.85.46-1.3-2-.7-1.85,1.39.14,1.39-.32-.88-1-1-1.48.46-.56-.23-1.81-1.34-1.67-1.11-3.48A65.12,65.12,0,0,1,19,68.51a15.32,15.32,0,0,0,1.71-3.75c.32-1.53.51-2.78.51-2.78s-.24-.37-.68-1C20.4,62.18,20.15,64.44,20,65Z"/><path class="cls-16" d="M19.55,84.27a1.31,1.31,0,0,0-.3-1.07,8.78,8.78,0,0,1-.53-.74c0-.05,0-.07.14,0,.6.14,1.39.14,1.39-.32s-.4-.67-.69-1a2.11,2.11,0,0,0-.1.39c0,.33-.23.66-.61.56s-.61.61-.47.89-.23.52-.66.56-.52-.09-.61.19-.84.33-.84.33l-.08.11a2.4,2.4,0,0,0,.13.3,1.8,1.8,0,0,0,1.51,1.15h.05a.53.53,0,0,0,.33-.21.56.56,0,0,0,.08-.43l0-.09,0-.1a3.24,3.24,0,0,0-.54-.91h0a4.85,4.85,0,0,0,1,.64,1.23,1.23,0,0,0,.46.12h.13A.38.38,0,0,0,19.55,84.27Z"/><path class="cls-19" d="M21.43,30A2.64,2.64,0,0,0,19.72,32c-.43,1.61-.28,1.52.24,1.23s.76-.57,1.33-.52,1.14-.24,1.19-.57A9.48,9.48,0,0,0,21.43,30Z"/><circle class="cls-17" cx="21.73" cy="31.35" r="1.39"/><circle class="cls-20" cx="22.26" cy="30.82" r="0.41"/><path class="cls-19" d="M12.54,30.56a1.53,1.53,0,0,1,1,1.1c.23.89.35,1.75.16,1.59a1.13,1.13,0,0,0-.84-.42c-.47,0-.72.14-.91-.16a4.16,4.16,0,0,1-.1-1.87C11.93,30.78,12.54,30.56,12.54,30.56Z"/><ellipse class="cls-17" cx="12.25" cy="31.7" rx="1.04" ry="1.23"/><ellipse class="cls-20" cx="12.53" cy="31.11" rx="0.28" ry="0.34"/><path class="cls-21" d="M18.59,38.82a2.39,2.39,0,0,1-2.22,1.34c-1.07,0-1.22-.75-1.22-.75a1.84,1.84,0,0,1-1.84.52c-.69-.2-1.17-1.49-1.17-1.49s0,.28.13.69a2.75,2.75,0,0,0,.43,1c.42.51.83.42,1,.7l0,.09a5.13,5.13,0,0,0,1.53.23c2.73,0,3.71-1.2,3.71-2.32a4.69,4.69,0,0,0-.17-1.13A6.14,6.14,0,0,1,18.59,38.82Z"/><path class="cls-17" d="M13.67,40.85c0-.14.83.17,1.2,0s.23-1.05.24-1.37c0-1.37.13-.93.13-.93s-.14,2.25.47,2.4a2.88,2.88,0,0,0,1.93-.32c.56-.32,1.62-1.11,1.3-.74a5.86,5.86,0,0,1-3.49,1.64A2.42,2.42,0,0,1,13.67,40.85Z"/><path class="cls-22" d="M45.51,78.82c-1.27-.32-2.59-.65-3.34-.87a26.06,26.06,0,0,1-4-1.7,14.79,14.79,0,0,0,2,5.89c.16.25.31.53.46.82a9.79,9.79,0,0,0,1.06.18C44.06,83.39,45.16,80.13,45.51,78.82Z"/><path class="cls-14" d="M38.13,76.25l-.32-.15Z"/><path class="cls-23" d="M69.65,82.42c-4.2.42-7.17-4.85-10.87-4.06s-3.66,2.73-3.84,3.52-.18,4.23-2,4.49c-1.56.22-2.89-3.15-3.27-4A43.23,43.23,0,0,1,51,91.26a56.66,56.66,0,0,1-.42,6.85s0,.3-.07.23a37.92,37.92,0,0,1-1.16,7.33c-.48,1.75-9.67,3.75-9.67,3.75s-8.06,2.13-10.15,2.46-4.82.7-5.33,1.3-1.11,1.39-.7,1.67.74.46.74.46a.77.77,0,0,0,.51.7,8.79,8.79,0,0,0,2.55.19,5,5,0,0,0,1.53-.42,4.77,4.77,0,0,0,3,.83,45,45,0,0,0,5.61-1.2,117.58,117.58,0,0,1,11.63-2.22c3.66-.42,7.14-.65,8-2.46s-.14-8.53,0-10.89,0-12.56,1.11-13.9,1.58-1.81,3.66-1.71,3.48.14,4.68.14a9.54,9.54,0,0,0,2.5-.42,17,17,0,0,0,1,3.4l.29-1.85s3.52-1.78,3.7-2.7,1.58-4.31,1.58-4.31A7.2,7.2,0,0,1,69.65,82.42Z"/><path class="cls-24" d="M73.63,81.66a8,8,0,0,1-6.21,1.83c-2.73-.41-5.82-1.62-7.22-1.47s-2.91,1.46-3.41,4.27,0,21.28-.35,22.88-3.21,1.91-4,2.26-15.51,2.71-20.88,2.66c-3.68,0-5.45-.9-6.2-1.43a2.59,2.59,0,0,0-1.16.54c-.51.6-1.11,1.39-.7,1.67s.74.46.74.46a.77.77,0,0,0,.51.7,8.79,8.79,0,0,0,2.55.19,5,5,0,0,0,1.53-.42,4.77,4.77,0,0,0,3,.83,45,45,0,0,0,5.61-1.2,117.59,117.59,0,0,1,11.63-2.22c3.66-.42,7.14-.65,8-2.46s-.14-8.53,0-10.89,0-12.56,1.11-13.9,1.58-1.81,3.66-1.71,3.48.14,4.68.14a13.23,13.23,0,0,0,5.49-1c2.38-.85,3.27-3.88,3.62-4.87C75.21,79,74.66,80.74,73.63,81.66Z"/><path class="cls-16" d="M38.62,114.28a52.68,52.68,0,0,1-12.09-.1,2.43,2.43,0,0,1-1.86-1.3,1.33,1.33,0,0,0-.48.31c-.51.6-1.11,1.39-.7,1.67s.74.46.74.46a.77.77,0,0,0,.51.7,8.79,8.79,0,0,0,2.55.19,5,5,0,0,0,1.53-.42,4.77,4.77,0,0,0,3,.83,45,45,0,0,0,5.61-1.2c.79-.23,4.48-1,7.86-1.65C42.79,113.91,40.18,114.09,38.62,114.28Z"/><path class="cls-14" d="M48,106.76a2.69,2.69,0,0,1,1.89.3,5.07,5.07,0,0,1,1.28,1.34s-.3-1.76-1.28-1.89a6.16,6.16,0,0,1-1.28-.24Z"/><path class="cls-25" d="M30.21,71.57s.49.4,1.2.93c.52-.68,4.59-3.61,4.87-9.43a9.5,9.5,0,0,0-2-6.13,53,53,0,0,1-2.92-4.54s2.41,5.75,2.41,8.94S30.21,71.57,30.21,71.57Z"/><path class="cls-2" d="M27.61,69.21h0s-1.34,4.22-2.32,6.53-1.95,4.77-2,5.14-.23,1.25-.23,1.25-.88,1.67-.74,2.27,0,.79.28.83l.28,0s0,2.92.79,3.1a.76.76,0,0,0,1-.51s.42.7.88.37.7-2.41.7-2.41.23,1,.74.83.65-2.18.37-3a8.44,8.44,0,0,1-.32-3.1,28.15,28.15,0,0,1,1.71-6.39c.74-1.39,1.48-2.64,1.48-2.64h0A56.68,56.68,0,0,0,33.6,65.1c.75-2.07,1.78-4,.4-6.66s-2.64-6-2.64-6S33.14,62.06,30.9,63s-2.93.34-2.93.34a17.34,17.34,0,0,1,0,4A16.22,16.22,0,0,0,27.61,69.21Z"/><path class="cls-3" d="M34,58.44c-1.38-2.7-2.64-6-2.64-6s.16.87.32,2.12A34.81,34.81,0,0,1,33.48,59a8.4,8.4,0,0,1-.63,5.69c-.8,1.72-3,5.52-3.73,6.84a42.5,42.5,0,0,0-2.59,7.24c-.17,1.09-.57,2.36-1.67,2.59-.77.16-1.22-.53-1.42-1a3.29,3.29,0,0,0-.14.48c0,.37-.23,1.25-.23,1.25s-.88,1.67-.74,2.27,0,.79.28.83l.28,0s0,2.92.79,3.1a.76.76,0,0,0,1-.51s.42.7.88.37.7-2.41.7-2.41.23,1,.74.83.65-2.18.37-3a8.44,8.44,0,0,1-.32-3.1,28.15,28.15,0,0,1,1.71-6.39c.74-1.39,1.48-2.64,1.48-2.64A56.68,56.68,0,0,0,33.6,65.1C34.35,63,35.38,61.14,34,58.44Z"/><path class="cls-16" d="M22.61,85.24l.28,0s0,2.92.79,3.1a.76.76,0,0,0,1-.51s.42.7.88.37.7-2.41.7-2.41.23,1,.74.83.6-1.63.47-2.55a3.2,3.2,0,0,1-.69.94c-.41.28-.69-.32-.69-.32s-.18.92-.69,1.19-.78-.46-.78-.46-.32.73-1,.46-.32-1.65-.32-1.65,0,.28-.41.14a1.64,1.64,0,0,1-.52-.54,1.25,1.25,0,0,0,0,.52C22.47,85,22.33,85.2,22.61,85.24Z"/><path class="cls-26" d="M24.23,115.32c.22-.3.2-1.5,1.83-2a16.08,16.08,0,0,1,3.06-.63,15.5,15.5,0,0,0-3.57,1.2,3.61,3.61,0,0,0-1.17,1.8Z"/><path class="cls-26" d="M28.82,115.78a1.49,1.49,0,0,1,.74-1.94,7.91,7.91,0,0,1,2.31-.93s-2.31.95-2.64,1.62a2.16,2.16,0,0,0-.11,1.43Z"/><path class="cls-26" d="M19.29,109.42a4.29,4.29,0,0,1,2.7-1.33c1.93-.31,3.39-.44,3.39-.44a28.5,28.5,0,0,0-4.42,1,8.33,8.33,0,0,0-1.5,1.06Z"/><path class="cls-27" d="M122.1,102.94c.74-1-3.39-2-7-2.46-.05.67-3.37,1.42-4.67,1.38-1.63-.06-9.7,1.18-16,1.68s-9.25-.73-14.69-6.17a29.72,29.72,0,0,1-7.12-13,6.35,6.35,0,0,0,1.45-1.47,7.27,7.27,0,0,0,1.47-4.43,10.72,10.72,0,0,1-2.31,3.58,14,14,0,0,1-4.3,1.88s.6,4.17,4.87,10.52,7.65,9.59,14.09,11,13.95-1.71,20.85-1.9S121.31,104,122.1,102.94Z"/></svg>