<svg id="Animals&#x52A8;&#x7269;" xmlns="http://www.w3.org/2000/svg" viewbox="0 0 128 128" width="128" height="128"><defs><style>.cls-1{fill:#7b5340;stroke:none;}.cls-2{fill:#c98a8b;stroke:none;}.cls-3{fill:#231f20;opacity:0.21;stroke:none;}.cls-4{fill:#a1a1a1;stroke:none;}.cls-5{fill:#b5b3b4;stroke:none;}.cls-6{fill:#202020;stroke:none;}.cls-7{fill:#b5b1b2;stroke:none;}.cls-8{fill:#a0a0a0;stroke:none;}.cls-9{fill:#614e46;stroke:none;}.cls-10{fill:#fff;stroke:none;}.cls-11{fill:#cfcfcf;stroke:none;}.cls-12{fill:#212121;stroke:none;}.cls-13{fill:#363636;stroke:none;}.cls-14{fill:#303032;stroke:none;}.cls-15{fill:#373737;stroke:none;}.cls-16{fill:#2c2c2c;stroke:none;}.cls-17{fill:#404040;stroke:none;}.cls-18{fill:#c33e60;stroke:none;}.cls-19{fill:#b2c8e7;stroke:none;}.cls-20{fill:#edc5a0;stroke:none;}.cls-21{fill:#4c3b38;stroke:none;}.cls-22{fill:#eff1f3;stroke:none;}.cls-23{fill:#d07883;stroke:none;}.cls-24{fill:#981645;stroke:none;}.cls-25{fill:#b5576c;stroke:none;}</style></defs><title>animals&#x52A8;&#x7269;</title><path class="cls-1" d="M32.11,104.87a1.32,1.32,0,0,0-.63.61s.85-.29,1.27,0l.41.25a.91.91,0,0,1,.47-.26l.55,0-1-.56A1.88,1.88,0,0,0,32.11,104.87Z"/><path class="cls-2" d="M49.48,92.31a7.82,7.82,0,0,0,0-1.84l-4.11,1.11a16.39,16.39,0,0,1-3.54,6.8c-2.95,3.55-4.77,6.11-6,6.38s-3.39-.26-3,.46c.15.26,1,.25-1.58.78s-6.16,1.07-7,1.4c.3.54.42.6-.22.79l-.43.13a6.54,6.54,0,0,0,3.37.06c2.45-.38,6.64-1,7.43-.57l.79.43a5.35,5.35,0,0,0-.82,2.28l.05.88a1.7,1.7,0,0,1,1.1-.27c.54.1.64-.13,1.49-1s1.19-2.58,3.19-2.82,3.39,1.1,4.73,1.32,2.35-.14,2.25.25,1.26.13-1.22-1.09-3.69-2.47-3.56-3.34a10.31,10.31,0,0,1,1.34-4C44.58,99.53,49.36,93.11,49.48,92.31Z"/><path class="cls-3" d="M46,107.82c-2.48-1.22-3.69-2.47-3.56-3.34a10.3,10.3,0,0,1,1.34-4c.76-.93,5.55-7.35,5.67-8.15a7.06,7.06,0,0,0,0-1.56l-1.29,1A11.25,11.25,0,0,1,47,95.08c-.88,1.41-4.29,4.87-4.86,6.65s-.75,3.25-.32,3.67.82,1.12,0,1.28-3.35.3-3.92,1.08A29.06,29.06,0,0,0,36.2,111a10.88,10.88,0,0,0,.89-.86c.85-.84,1.19-2.58,3.19-2.82s3.39,1.1,4.73,1.32,2.35-.14,2.25.25"/><path class="cls-1" d="M47.55,108.93a1.45,1.45,0,0,1,0,.86s-.16-.72-.71-.84c-.31-.07-.49-.2-.46-.37.07-.39-.3-.57-.2-.68A2.53,2.53,0,0,1,47.55,108.93Z"/><path class="cls-1" d="M34.44,110.95a1.54,1.54,0,0,0,.09.78,1.4,1.4,0,0,1,.74-.7.88.88,0,0,0,.48-.78c0-.4-.24-.46-.39-.45A1.93,1.93,0,0,0,34.44,110.95Z"/><path class="cls-1" d="M22.9,108a1.93,1.93,0,0,0-.29,1.1s.48-.85,1.23-.79c.43,0,.7-.06.73-.29.06-.52.61-.6.52-.78A3.36,3.36,0,0,0,22.9,108Z"/><path class="cls-1" d="M41,114.2a1.32,1.32,0,0,0-.44.76s.74-.51,1.21-.39l.47.13a.91.91,0,0,1,.38-.38l.51-.2L42,113.85A1.88,1.88,0,0,0,41,114.2Z"/><path class="cls-2" d="M39.12,116.3c1,.36,1.43.46,3.17-.11s5.86-1.83,6.47-1.33.48,1.38-.26,2a1.92,1.92,0,0,0-.8,1.88c.16.41.47-.46,1-.28s1.17.13,1.85-1,1.39-2.9,2.58-3.48,4.37,1.3,5.55,1.11,3.63-.49,1.06-1.55-5.72-1.44-6.48-2.75-4.47-14.08-5.19-14a24.87,24.87,0,0,0-4,1.75c.17.25,4.57,7.22,4.88,8.67s.72,4.34-.66,5.08a17.35,17.35,0,0,1-5.12,1.54c-2.67,0-.24.44-2.22,1.26-1.56.65-2.81.28-2.93,1"/><path class="cls-3" d="M54.57,113.41c-1.4.35-2.19-.77-3.78,2.47a10.06,10.06,0,0,0-.85,2.35,2.94,2.94,0,0,0,.61-.73c.68-1.09,1.39-2.9,2.58-3.48s4.37,1.3,5.55,1.11,3.63-.49,1.06-1.55-5.72-1.44-6.48-2.75-4.47-14.08-5.19-14a6.52,6.52,0,0,0-1.52.55l-.29.69s6.11,13.19,7,13.83S56,113.06,54.57,113.41Z"/><path class="cls-1" d="M61.45,114.69a1.71,1.71,0,0,1,.16,1s-.35-.79-1-.8c-.38,0-.62-.11-.62-.32,0-.47-.49-.58-.39-.74A3,3,0,0,1,61.45,114.69Z"/><path class="cls-1" d="M38,115.93a1.45,1.45,0,0,0-.3.8s.42-.6,1-.5c.32.06.53,0,.57-.17.09-.39.5-.41.44-.55A2.53,2.53,0,0,0,38,115.93Z"/><path class="cls-1" d="M47.55,118.5a1.54,1.54,0,0,0,.09.78,1.4,1.4,0,0,1,.74-.7.88.88,0,0,0,.48-.78c0-.4-.24-.46-.39-.45A1.93,1.93,0,0,0,47.55,118.5Z"/><path class="cls-4" d="M95.77,95.25c-.1-1-1.42-1.9-1.42-1.9a4.74,4.74,0,0,0,.38-2.09c-.19-.66-1.33-.66-1.33-.66s.57-1.9,0-2.75a2.93,2.93,0,0,0-2-.95s.38-1.8-.19-2.47A4.61,4.61,0,0,0,89,83.51l-.18,0L78.4,86.33l-1.3,1-3.29,4s-9.74,7-10.54,7.4-13.69,4.61-13.69,4.61-2.1-.36-2.95.91c4.36,1.29,8.44,2.3,11.65,3,9.78,2.09,13.67,2.66,14.91,1.9A5.09,5.09,0,0,0,75,107s7,2,8.93.47.95-2.94.95-2.94,10.63-.95,10.63-3.42a4.06,4.06,0,0,0-2.09-3.51S95.87,96.3,95.77,95.25Z"/><path class="cls-5" d="M93.4,90.6s.57-1.9,0-2.75a2.93,2.93,0,0,0-2-.95,29,29,0,0,1-7.73,1.76,68.22,68.22,0,0,1-7.33-.41l-1.6,1.92c2.57,1,3.53,2.11,8.43,2.47,5.42.4,7.41-.1,10-.95a8.54,8.54,0,0,0,1.42-.6C94.33,90.6,93.4,90.6,93.4,90.6Z"/><path class="cls-4" d="M83,95.68c6.92,0,10.75,0,12.19-1l.27-.2a4.27,4.27,0,0,0-1.14-1.13,4.74,4.74,0,0,0,.38-2.09c-.19-.66-1.33-.66-1.33-.66a91.54,91.54,0,0,1-11.52.3,51.54,51.54,0,0,1-6.77-1.18L73.8,91.3l-3.67,2.64A54.07,54.07,0,0,0,83,95.68Z"/><path class="cls-5" d="M93.4,97.63s2.47-1.33,2.37-2.37-1.42-1.9-1.42-1.9a39.07,39.07,0,0,1-10.43.58A91.7,91.7,0,0,1,73.67,91.4c-.77.56-4.85,3.5-7.69,5.48C70.1,99,75.75,101,77.46,101.2c2.89.35,11.54.45,13.88-.65,1.24-.58,2.5-1,3.58-1.47A4.24,4.24,0,0,0,93.4,97.63Z"/><path class="cls-6" d="M88.84,83.48s2.75.19,3.89-.57,1.61-3.13,1.61-3.13,3.8,0,5.89-2a6.29,6.29,0,0,0,2.09-4.18,4.48,4.48,0,0,0,4.37-2.18,9.46,9.46,0,0,0,.76-5.51A4.38,4.38,0,0,0,111,64a8.11,8.11,0,0,0,.95-4.27s2.94-.28,3.23-2.94a11.17,11.17,0,0,0-.66-4.94s3.7-2.75,3.51-6.27-2-4.75-2-4.75,1.42-4.46.09-8.26a5.39,5.39,0,0,0-5-3.7,6.66,6.66,0,0,0,.19-6.55c-1.9-3.32-4.37-2.66-4.37-2.66a6.87,6.87,0,0,0-2.47-6c-2.94-2.18-5.22-1.14-5.22-1.14s-.85-3.23-3.13-3.8a4.32,4.32,0,0,0-3.61.47s-2.18-1.9-3.89-1.8a5.48,5.48,0,0,0-2.94,1.14S82.86,7.61,81,8.18a3.54,3.54,0,0,0-2.37,2.18s-2.37-.66-3.8.09A11.81,11.81,0,0,0,72,12.74a7.35,7.35,0,0,0-3.61.85A7.17,7.17,0,0,0,66,16.82s-2.37-.47-3.7.85-1.14,3.8-1.14,3.8a3.15,3.15,0,0,0-2.75.76,2.81,2.81,0,0,0-.76,2.56s-.78,4.3-9.87,5.16c-7.27.68-12,7.76-12,7.76L15.25,60.78A14.18,14.18,0,0,0,10,71.61c-.09,7.12,1,15.29,10.92,21.84"/><path class="cls-5" d="M93.4,97.63s2.47-1.33,2.37-2.37-1.42-1.9-1.42-1.9-8.12.78-11.77.42a64.29,64.29,0,0,1-9.07-2.26c-1,.74-4.58,3.3-7.24,5.16a42,42,0,0,0,13.11,3.21A46.47,46.47,0,0,0,94.86,99,4.22,4.22,0,0,0,93.4,97.63Z"/><path class="cls-4" d="M73.18,109.12A5.09,5.09,0,0,0,75,107s7,2,8.93.47.95-2.94.95-2.94,10.63-.95,10.63-3.42a4.06,4.06,0,0,0-2.09-3.51,36.59,36.59,0,0,1-11.58.57,22,22,0,0,1-9.23-3.45c-3.16,2.28-10.29,7-13.28,8.11S51.78,104,51,105.47c2.67.71,5.14,1.3,7.24,1.75C68,109.31,71.94,109.88,73.18,109.12Z"/><path class="cls-7" d="M69.58,96.83c-3.47,2.34-8,5.2-10.27,6C56.18,104,51.78,104,51,105.47c2.67.71,5.14,1.3,7.24,1.75,9.78,2.09,13.67,2.66,14.91,1.9A5.09,5.09,0,0,0,75,107s7,2,8.93.47.95-2.94.95-2.94a38.71,38.71,0,0,1-7-2C74.79,101.41,71.14,98.26,69.58,96.83Z"/><path class="cls-8" d="M64.38,100.17a34.42,34.42,0,0,1-5.07,2.67C56.18,104,51.78,104,51,105.47c2.67.71,5.14,1.3,7.24,1.75,9.78,2.09,13.67,2.66,14.91,1.9A5.09,5.09,0,0,0,75,107a18.15,18.15,0,0,1-5.51-2.47A61.19,61.19,0,0,1,64.38,100.17Z"/><path class="cls-9" d="M90.2,80.4s2.89-1.38,3-2.34a5.38,5.38,0,0,0,0-1.65s3,1.38,5.09-.28,1.24-6.05,1.65-5.92a5.09,5.09,0,0,0,4-1.51c1.51-1.51,1.1-4.4,1.1-4.4a4.65,4.65,0,0,0,3.58-6.05s2.89-1,3.44-2.89a5.6,5.6,0,0,0-.55-3.85s3.71-2.2,3.44-5.78-2.06-4.68-2.06-4.68,1.93-4.54,1.1-7.43S108.5,30,108.5,30s1.38-3.85-.14-6.33a4.36,4.36,0,0,0-4-2.2s.14-4-2.06-5.5a7.25,7.25,0,0,0-4.54-1.24s-1.1-2.75-2.89-3.3a8.45,8.45,0,0,0-4.27.28A3.8,3.8,0,0,0,87.86,10a6.18,6.18,0,0,0-3.3,1.38s-2.2-.83-3.58-.28a4.49,4.49,0,0,0-2.06,1.79A6.74,6.74,0,0,0,75.2,13a4.39,4.39,0,0,0-2.06,2.48,3.55,3.55,0,0,0-3.44.14,4.41,4.41,0,0,0-1.93,2.61s-2.48.14-3.58,1.24a7.25,7.25,0,0,0-1.51,3.16,6.25,6.25,0,0,0-2.34,1.51,6.92,6.92,0,0,0-.41,3l4.68-.83s-1-1.93,0-1.93h2.06s.41-2.48,1.93-2.48h2.2s1.24-2.61,2.61-2.48l1.38.14a4.4,4.4,0,0,1,3.58-1.24c1.93.41,2.2,1.65,2.2,1.65s1.79-1.51,3.3-.55a4.78,4.78,0,0,1,1.93,2.61s2.34-1.51,3.85-.55S91,25,91,25s4.54-.41,5.09,1.24a24.55,24.55,0,0,1,.69,5s3.44.83,3.58,2.75a12,12,0,0,1-.55,4s2.48,2.06,2.34,3.3-1.93,2.34-1.93,2.34,2.61,1.24,2.2,2.61a4,4,0,0,1-1.51,2.06,5,5,0,0,1,1,3.3c-.28,1.65-2.34,2.34-2.34,2.34s1.79,1.38,1,3.16a3.34,3.34,0,0,1-2.89,1.79s.28,3-.83,4S92.54,64,92.54,64s1,2.06-1,2.89-8.67-1-8.67-1-1.38,7-.14,8.81S90.2,80.4,90.2,80.4Z"/><path class="cls-10" d="M79.88,62.52a27.36,27.36,0,0,0,9.22-7.7c3.71-5.09,3.3-13.07.83-18.3s-8.67-7.43-11.56-7.84a24.56,24.56,0,0,0-6.6.28L69.7,31s-.69-2.75-.14-3.58,2.75-.14,2.75-.14a2.46,2.46,0,0,1,1.1-2.06c1.1-.55,2.34.69,2.34.69s.14-1.1,1.93-1.24a2.83,2.83,0,0,1,2.61,1.38s.83-1.24,1.93-1a5.27,5.27,0,0,1,2.2,1.79A4.27,4.27,0,0,1,87,27c1.1.55,1.24,2.89,1.24,2.89a4.07,4.07,0,0,1,2.61.41c.83.69.83,3.3.83,3.3s2.61,0,3.44,2.06-.69,4.68-.69,4.68,2.2.69,2.34,2.34-2.06,4-2.06,4,1.93.69,1.24,3.44a3.51,3.51,0,0,1-3.3,2.75A4.21,4.21,0,0,1,93.09,57c-1,2.48-4.4,2.48-4.4,2.48a5,5,0,0,1-1.1,4c-1.51,1.51-5,.83-5,.83Z"/><path class="cls-11" d="M79,62.14s4.47,1.2,5,2.4-.87,2.4-.87,2.4,3.05.11,3.71,1.64-2,2.84-2,2.84,3.93-.65,4.8,1.64-2.51,3.82-2.51,3.82,3.05.33,3.82,2,1,2.94-.33,3.82-1.84.83-1.84.83S81,88,78.79,88s-5.78.33-5.78.33,3.93-8.07,4.58-9.49a17,17,0,0,0,2.29-8.51A38.55,38.55,0,0,0,79,62.14Z"/><path class="cls-12" d="M78.51,49c1.38-6.74-1.65-13.62-5.92-18.85s-36.83,7.53-36.83,7.53l-7.89,8.88c4,3.26,11.61,7.9,14,9.74C45.35,58.94,70,58.8,70,58.8S77.13,55.78,78.51,49Z"/><path class="cls-13" d="M71.49,56.69S77,57.56,79,60.4s2.84,11.67,1.64,16.36-6,10.8-6.76,11.23-7.31,2.07-9.6,2a18,18,0,0,1-5.56-1.75s4.8-6.65,7.85-11.78,6.22-6.11,5.67-11.13S71.49,56.69,71.49,56.69Z"/><path class="cls-14" d="M64.29,53.42c.55,0,5.34-.55,7.31,1.64s4.58,11,.22,20.18A40.35,40.35,0,0,1,59.6,89.74s-14.83.76-17.34-2.51-1.53-8.29-1.53-8.29,12.43,1.09,17.89-11S64.29,53.42,64.29,53.42Z"/><path class="cls-15" d="M59.93,45.35c-4.91-2.51-8.29-.76-8.29-.76a204.47,204.47,0,0,0-24.3,2.61L15.25,60.78A14.18,14.18,0,0,0,10,71.61a28.32,28.32,0,0,0,1.72,11.13c9.31.37,29.92,1,35.52-.42,7.31-1.85,10.14-5.67,15.49-14.94S64.83,47.85,59.93,45.35Z"/><path class="cls-16" d="M50,96.58a12.76,12.76,0,0,0,2.85-9.21,66.63,66.63,0,0,1-11-4.37C35.19,79.78,27,73.71,26.69,72.33c-.62-2.67,6.32-4,17.05-11.26s11.2-16.24,6.46-20-14.43-1.52-14.43-1.52l-.5-1.24-20,22.51A14.18,14.18,0,0,0,10,71.61c-.09,7.12,1,15.29,10.92,21.84,5.26,3.49,12.72,6.57,20,9C43.57,101.5,47.67,99.6,50,96.58Z"/><path class="cls-17" d="M52.72,105.91c17.72,2.4,25.1-17,25.56-19a.38.38,0,0,0-.46-.46A63.87,63.87,0,0,1,67.1,88a111.06,111.06,0,0,1-14.24-.66,46.68,46.68,0,0,1-4,6.36c-1.65,2.1-6.69,6.64-8.72,8.44C44.53,103.67,48.89,104.93,52.72,105.91Z"/><path class="cls-18" d="M22.19,39.14c.28-.28,1.9-4.27,4.94-4.65s6.08-1,8.36,1.42a9.21,9.21,0,0,1,1.33,9.5c-1.33,2.56-5.22,5.51-5.7,8.17s1.52,7.22.09,8.17-4.65,1.33-6.08,2.85S21.24,68.86,18.58,69s-4.46-4.46-3-9.5S22.19,39.14,22.19,39.14Z"/><path class="cls-10" d="M76.38,58s10.68-6,10.17-15.52-12.09-11-12.09-11S85,35.1,84.83,43,76.38,58,76.38,58Z"/><path class="cls-10" d="M73.16,56.81s6.6-3.17,7.1-10.63S76.54,38,76.54,38a11.82,11.82,0,0,1,2.15,9.81C77.82,52.46,73.16,56.81,73.16,56.81Z"/><path class="cls-19" d="M20.57,40.78s1.23-1.93,1.61-1.64a2.33,2.33,0,0,0,2.66.09c1.14-.76,2.37-2.75,4.65-2.56A4.22,4.22,0,0,1,33,41.22c-.28,1.8-2.28,3.7-4.37,4.84s-3.42,1.71-4.27,2.66a9.82,9.82,0,0,1-2.28,1.71Z"/><circle class="cls-16" cx="26.74" cy="40.46" r="1.23"/><circle class="cls-10" cx="27.14" cy="40.07" r="0.4"/><path class="cls-20" d="M23.28,43.1a3.88,3.88,0,0,0,1.58,1.29c1,.36,1.68.47,1.55.61a3.91,3.91,0,0,1-2.74,1.34c-.94.12-.79-1.82-.79-1.82Z"/><path class="cls-21" d="M64.2,19.45a7.25,7.25,0,0,0-1.51,3.16l4,1.79s.41-2.48,1.93-2.48h2.2l-3-3.71S65.3,18.35,64.2,19.45Z"/><path class="cls-21" d="M75.2,13a4.39,4.39,0,0,0-2.06,2.48s1.58,3.6,1.65,4.13a4.4,4.4,0,0,1,3.58-1.24c1.93.41,2.2,1.65,2.2,1.65l-1.65-7.15A6.74,6.74,0,0,0,75.2,13Z"/><path class="cls-21" d="M85.8,22.07a6.56,6.56,0,0,1,1.74-.75l3.07-9.57A3.8,3.8,0,0,0,87.86,10a6.18,6.18,0,0,0-3.3,1.38l-.69,8.12A4.78,4.78,0,0,1,85.8,22.07Z"/><path class="cls-21" d="M96.12,26.2a24.56,24.56,0,0,1,.69,5l7.57-9.63s.14-4-2.06-5.5a7.25,7.25,0,0,0-4.54-1.24L91,25S95.57,24.54,96.12,26.2Z"/><path class="cls-21" d="M114,33.63c-.83-2.89-5.5-3.58-5.5-3.58L100.38,35a12.9,12.9,0,0,1-.55,2.92,11.13,11.13,0,0,1,2,2.15l11.11,1S114.83,36.51,114,33.63Z"/><path class="cls-21" d="M115,45.73v-.12l-14.71-2.08s2.61,1.24,2.2,2.61a4,4,0,0,1-1.51,2.06l10.59,3.3S115.24,49.31,115,45.73Z"/><path class="cls-21" d="M100.52,57a3.34,3.34,0,0,1-2.89,1.79l7.43,5.5a4.65,4.65,0,0,0,3.58-6.05l-9.08-4.4S101.34,55.23,100.52,57Z"/><path class="cls-21" d="M92.54,64s1,2.06-1,2.89a4.52,4.52,0,0,1-1.75.21l3.4,9.28s3,1.38,5.09-.28,1.24-6.05,1.65-5.92C100,70.22,93.36,65,92.54,64Z"/><path class="cls-22" d="M23,45.61c.09.42.3.78.72.73A3.91,3.91,0,0,0,26.41,45a0,0,0,0,0,0-.06,8.76,8.76,0,0,1-1.86.58A11.7,11.7,0,0,1,23,45.61Z"/><path class="cls-23" d="M23,51.09c.3-.71.91-8.29.61-8.69s-1.52-2.53-3-1.62a4.42,4.42,0,0,0-2.22,3.94c.1,1.41,1,4.24.1,5.46S16.33,53,16.33,54.32s-.1,4.45,1.11,3.23,2.32-3.74,3.44-4.35A4.72,4.72,0,0,0,23,51.09Z"/><path class="cls-24" d="M36.81,45.4a6.29,6.29,0,0,0,.46-1.23c-.94,1.87-2.78,3.61-5.7,5.74-4.23,3.1-2,7.26-1.58,9.16s-3.35,3-5.56,3.66S21.59,67.29,19,67.48a4.75,4.75,0,0,1-3.63-1.88c.55,2.05,1.75,3.4,3.21,3.35,2.66-.09,5.13-2.85,6.55-4.37s4.65-1.9,6.08-2.85-.57-5.51-.09-8.17S35.48,48,36.81,45.4Z"/><path class="cls-25" d="M23.68,43.73c-.17,1.56-.52,4.57-.71,6.16-.27,2.2-2.25,2.64-2.8,3a15.75,15.75,0,0,0-2.64,3.74c-.29.53-.72.35-1.14,0,.1,1,.37,1.7,1.05,1,1.21-1.21,2.32-3.74,3.44-4.35A4.72,4.72,0,0,0,23,51.09,51,51,0,0,0,23.68,43.73Z"/></svg>