<svg id="Animals&#x52A8;&#x7269;" xmlns="http://www.w3.org/2000/svg" viewbox="0 0 128 128" width="128" height="128"><defs><style>.cls-1{fill:#935b01;stroke:none;}.cls-2{fill:#1d1d1b;stroke:none;}.cls-3{fill:#955a02;stroke:none;}.cls-4{fill:#3c3c3c;stroke:none;}.cls-5{fill:#333330;stroke:none;}.cls-6{fill:#c47804;stroke:none;}.cls-10,.cls-11,.cls-18,.cls-7{fill:#231f20;stroke:none;}.cls-7{opacity:0.25;stroke:none;}.cls-8{fill:#cb7a03;stroke:none;}.cls-9{fill:#c97901;stroke:none;}.cls-11{opacity:0.3;stroke:none;}.cls-12{fill:#c77700;stroke:none;}.cls-13{fill:#575757;stroke:none;}.cls-14{fill:#37383d;stroke:none;}.cls-15{fill:#e6450c;stroke:none;}.cls-16{fill:#c87802;stroke:none;}.cls-17{fill:#fff;stroke:none;}.cls-18{opacity:0.21;stroke:none;}.cls-19{fill:#4b4c4c;stroke:none;}.cls-20{fill:#30302e;stroke:none;}</style></defs><title>animals&#x52A8;&#x7269;</title><path class="cls-1" d="M42.15,68.17,31,84.61s-2.93,2.72-.49,5.36,9.51,11.36,11,11.29,2.37-2.72,1.62-5.57S41.61,93,40.57,92.9a4.67,4.67,0,0,1-3-2.09c-.84-1.18-2.85-2.86-2-3.83S46.54,76,47.38,74.72l.84-1.32Z"/><path class="cls-2" d="M48.21,73.4l-6.07-5.23L37,75.75c.32.78.72,1.64.88,1.48s2.3-2.65,2.12-1.81-.72,3.07.06,2.93,1.93-.91,1.82-.21c-.05.36-.11,1.52-.13,2.55,2.64-2.68,5.2-5.32,5.6-6Z"/><path class="cls-2" d="M82.58,67.61s6.28,13,8.9,16.3,7.55,7.52,8.8,10.31,1.47,6.48.13,8.08-3,2.37-3.11,3.48a1.4,1.4,0,0,0,1.31,1.6h3.69s2-.21,2.39-3.07,1.52-11.7,1.29-12.61-1.31-4.18-1.31-4.18-8.35-16.23-13.34-18A30,30,0,0,0,82.58,67.61Z"/><path class="cls-3" d="M104.69,104.33c.43-2.86,1.52-11.7,1.29-12.61,0-.12-.08-.29-.14-.49l-.47.07c-.7.07-1.87-1.6-3-2.58s-1.26.21-1.56.56-4.25-2.58-5.52-3.76-1.16-.42-1.25-.07c0,.19-1.63-1-3.07-2.21.18.26.35.49.5.68,2.62,3.27,7.55,7.52,8.8,10.31s1.47,6.48.13,8.08-3,2.37-3.11,3.48a1.4,1.4,0,0,0,1.31,1.6h3.69S104.26,107.19,104.69,104.33Z"/><path class="cls-4" d="M39.57,63.21a31.15,31.15,0,0,1-.33-9,10.51,10.51,0,0,0-.57-3.57,1.12,1.12,0,0,0-.32-.51c-1.4-1.28-9-8.14-11-8.2-2.26-.07-6.93,6.14-7.49,6.74s-2.63.53-3.76.47-.86-1.4-.86-1.4S12,50.47,13.92,47.2s6.61-5.27,7.81-6.47-.74-2.4-2.95-2.34-7,4.74-9.87,4.94-6.08-3.6-5.63-4.67,9.51-5.8,11-6.74,1.31-2.07,2.18-3.34,6.65-4.67,6.65-4.67.55-2.8.75-4.2a23.56,23.56,0,0,0-.23-4.54,3.14,3.14,0,0,1,1.11.53,14.38,14.38,0,0,1,1.63,2.07s.19-2.34.3-3.2,1.74,1.2,3,3.67a11.81,11.81,0,0,1,1,5.67,53.91,53.91,0,0,0,5.19,4c2.13,1.33,15.95,8.87,18,9.94s3,.47,7.53,1.53,8.38,4.4,11.95,6.27,10.58,1.87,19.8,4.2a36.69,36.69,0,0,1,15.06,7.94,5.09,5.09,0,0,1,3.53-1.58c1.61-.08,2.56,1.33,2,3-.38,1.24-3.09,2.17-3.36,2.23s.47,1.2.73,2.6-.33,10.07.32,14.34,6.33,12.81,7.1,13.41.8,2.54.76,3.34,1.27,10.14,1.06,12.81a2.92,2.92,0,0,1-2.36,2.94h-3.54c-1.13,0-1.48-1.13-1.35-2.2s1.71-2.07,2.42-2.94-1.66-9.07-2.51-10.67S103.89,88.63,99.54,85s-7-10.94-9.58-13.28-7.3-3.2-9.58-3.07-7.44,1.93-12.84,3.2A53.38,53.38,0,0,1,56.8,73.16s3.56,21.22,3.82,22.68S58.4,105,57.52,107.78,55,110.72,55,110.72s-1.54.13-3.41.13-2.76-.73-2.22-2.2,4.21-2.6,4.21-2.6,1.67-7.74,1.8-8.87-8.64-24.26-8.64-24.26S41.77,73.32,39.57,63.21Z"/><path class="cls-5" d="M35.58,43.38c-.62-2.93-3.5-3.93-5.23-4.76s-5.23-4.76-5.23-4.76l1.62,5a24.88,24.88,0,0,0,.52,3h.09c1.57,0,6.37,4.07,9.16,6.54C36.29,47.15,35.95,45.14,35.58,43.38Z"/><path class="cls-6" d="M29.11,41a3.57,3.57,0,0,0-1.94-3.27,5.18,5.18,0,0,1-1.66-3.4,2.38,2.38,0,0,0-2.32-2.52c-1.56-.07-.71,1.84-.46,2.24s-2.66.14-5.45.14-5.34,2-5.63,2.24-.06-1.43.24-2S7,37.27,6.3,37.61s-.55,1.5-.6,2.45a1.87,1.87,0,0,1-.91,1.34,5.86,5.86,0,0,0,4.14,1.93c2.88-.2,7.66-4.87,9.87-4.94s4.14,1.13,2.95,2.34-5.84,3.2-7.81,6.47,1.31.53,1.31.53-.27,1.33.86,1.4,3.2.13,3.76-.47,5.23-6.81,7.49-6.74a4.07,4.07,0,0,1,1.62.65A10.7,10.7,0,0,0,29.11,41Z"/><path class="cls-7" d="M11.81,40.13c-1.44.14-2.18,1.36-3.35,1.56A5.54,5.54,0,0,1,5.25,41a2.72,2.72,0,0,1-.46.39,5.86,5.86,0,0,0,4.14,1.93c1.41-.1,3.27-1.27,5.07-2.44A3.09,3.09,0,0,0,11.81,40.13Z"/><path class="cls-8" d="M99.54,85c4.35,3.6,12.63,8.47,13.48,10.07s3.22,9.81,2.51,10.67-2.3,1.87-2.42,2.94.22,2.2,1.35,2.2H118a2.92,2.92,0,0,0,2.36-2.94,45.33,45.33,0,0,0-.36-6.06,23.68,23.68,0,0,1-2.43-2.45c-1.32-1.64-1.77-5-1.63-6.25s-1-.39-1.4-.08-1.68-.78-4.32-2.5a87.47,87.47,0,0,1-10.14-7.73c-1.93-2-6.09-9.06-7.85-11.09a4,4,0,0,0-3.83-1.19A8.68,8.68,0,0,1,90,71.75C92.51,74.09,95.19,81.43,99.54,85Z"/><path class="cls-7" d="M19.85,48.67c.57-.6,5.23-6.81,7.49-6.74a4.07,4.07,0,0,1,1.62.65A10.7,10.7,0,0,0,29.11,41a3.57,3.57,0,0,0-1.94-3.27,5.18,5.18,0,0,1-1.66-3.4A3,3,0,0,0,25,32.72a5.82,5.82,0,0,0-.21,2.71c.34,1.22,1.65,3.47,1.37,5a3.69,3.69,0,0,1-2.39,2.72c-1.19.61-3.63,1.7-4.22,2.72s-.26,2.38-1.3,2.65c-.55.14-1.34.42-2,.65C17.45,49.21,19.32,49.24,19.85,48.67Z"/><path class="cls-9" d="M27.35,16.25s2.35,4.42,1.74,7.07-2,2.52-2.89,2-1-1.09-.08-3.67A25.1,25.1,0,0,0,27.35,16.25Z"/><path class="cls-10" d="M21.25,31.42S19,29.11,17.67,29.58a5.23,5.23,0,0,0-2.23,2.31,6.66,6.66,0,0,0,2.44.14A21.32,21.32,0,0,0,21.25,31.42Z"/><path class="cls-11" d="M66.18,43.75c.42-.48,3.82,3,4,5.57s.08,4.46-.38,4.3-1.54-4.06-2.2-3.66-1.85,1.91-1.71.8A24.61,24.61,0,0,0,66.38,46C66.2,44.94,65.76,44.22,66.18,43.75Z"/><path class="cls-11" d="M93,73.23c-.24-1.41-1.5-4.14-9.65-6.56s-14.7.31-17.34,0-1.08-3.28-.16-5.86-1.17-4.53-1.53-5.08-1.36,2.11-3,4.37-5.23,3-5.78,3,0,1.33.44,3.59.87,6.41.87,6.41a53.38,53.38,0,0,0,10.74-1.27c5.4-1.27,10.57-3.07,12.84-3.2s7,.73,9.58,3.07a22.06,22.06,0,0,1,3.22,4.64A22.8,22.8,0,0,0,93,73.23Z"/><path class="cls-11" d="M109.94,79.48s-1.87-4.53-1.46-6.48,1.15-8.51.36-8.36-.12.78-1.19,1.87-3.24,2.19-3.84,3.2a3.88,3.88,0,0,0-.62,1.48,2.76,2.76,0,0,1,3.12,1.56C107.37,74.87,109.94,79.48,109.94,79.48Z"/><path class="cls-12" d="M60.61,95.84c-.1-.55-.66-3.92-1.33-7.89-.27,1.26-.74,3.48-.77,4,0,.78-1,.7-1.42.23s-.37,2.5-.5,3.59c-.08.65-.78.69-1.34.62a3.06,3.06,0,0,1,.15.75c-.13,1.13-1.8,8.87-1.8,8.87s-3.66,1.13-4.21,2.6.35,2.2,2.22,2.2,3.41-.13,3.41-.13,1.61-.13,2.49-2.94S60.87,97.31,60.61,95.84Z"/><path class="cls-11" d="M57.1,86.28s-1.17-14.84-2.26-18-3.23-3.91-3.11-3.2S53.18,76,53.29,75.34s.6-2.42.83-1S57.1,86.28,57.1,86.28Z"/><path class="cls-13" d="M55.95,38.81a.47.47,0,0,0,0-.55,2.05,2.05,0,0,0-.79-.81,1.42,1.42,0,0,1-.49-.32.47.47,0,0,0-.69.07,50,50,0,0,1-7,7c-4.24,3.43-7.57,6.39-8.52,6.82l-.58.29a.47.47,0,0,0-.06.83l.07,0c.31.08.36.55.36.55s-.19.62.91.55,6.86-4.3,10.65-7.89A72.76,72.76,0,0,0,55.95,38.81Z"/><path class="cls-14" d="M18.22,37.63c-1.79.1-9.3,5.7-9.3,5.7,2.88-.2,7.66-4.87,9.87-4.94s4.14,1.13,2.95,2.34-5.84,3.2-7.81,6.47,1.31.53,1.31.53,3.36-2.66,5.22-4,2.94-2.6,2.11-4.33S20,37.53,18.22,37.63Z"/><path class="cls-15" d="M13.92,47.2c-2,3.27,1.31.53,1.31.53l.92-.73,0,0a2.47,2.47,0,0,0,.43-1.32c0-.12.47-.68.79-.68s.5-.36.6-.72.34-.32.82-.4.5-.32.52-.72.46-.48,1-.8a1.84,1.84,0,0,0,.56-.93C19,42.65,15.56,44.49,13.92,47.2Z"/><path class="cls-16" d="M41.42,63.43c-.63-1.91-1.73-5.42-2.33-7.35a30.46,30.46,0,0,0,.48,7.13c2.2,10.11,7.19,9.7,7.19,9.7a27.17,27.17,0,0,0-1.52-4C44.54,67.61,42.32,66.15,41.42,63.43Z"/><path class="cls-4" d="M19.11,30.84a1.09,1.09,0,0,1-1.07,1,1,1,0,0,1-1-1,1.09,1.09,0,0,1,1.07-1A1,1,0,0,1,19.11,30.84Z"/><path class="cls-17" d="M18,30.48a.28.28,0,0,1-.28.26.25.25,0,0,1-.25-.26.28.28,0,0,1,.28-.26A.25.25,0,0,1,18,30.48Z"/><path class="cls-17" d="M15.42,46c-.14-.14-.3.14,0,.67a.82.82,0,0,0,.56.41.54.54,0,0,0,.36-.1c.11-.08.32-.29.33-.42A1.5,1.5,0,0,1,15.42,46Z"/><path class="cls-18" d="M28.48,22.2c-.27,2-.7,2.44-1.61,2.56a2.28,2.28,0,0,1-1.37-.33,1.31,1.31,0,0,0,.69.87c.86.54,2.28.68,2.89-2s-1.74-7.07-1.74-7.07S28.76,20.21,28.48,22.2Z"/><path class="cls-19" d="M48.27,45.67A47.36,47.36,0,0,1,40,50a9.6,9.6,0,0,1-1.48,1l-.58.29a.47.47,0,0,0-.06.83l.08,0c.31.08.36.55.36.55s-.19.62.91.55,6.86-4.3,10.65-7.89c.79-.75,1.52-1.48,2.19-2.17C51.08,43.83,49.84,44.65,48.27,45.67Z"/><path class="cls-20" d="M109.6,60.13a4.19,4.19,0,0,1,.79,1.35c.27-.07,3-1,3.36-2.23a3.18,3.18,0,0,0,.13-.68l-.08.14a3.77,3.77,0,0,1-2.32,1.52C110.3,60.56,109.16,59.73,109.6,60.13Z"/></svg>