<svg id="Animals&#x52A8;&#x7269;" xmlns="http://www.w3.org/2000/svg" viewbox="0 0 128 128" width="128" height="128"><defs><style>.cls-1{fill:#2f2b2c;stroke:none;}.cls-1,.cls-2,.cls-3,.cls-4,.cls-5{fill-rule:evenodd;stroke:none;}.cls-2{fill:#504a4b;stroke:none;}.cls-3{fill:#665e60;stroke:none;}.cls-4{fill:#231f20;stroke:none;}.cls-5{fill:#fff;stroke:none;}</style></defs><title>animals&#x52A8;&#x7269;</title><path class="cls-1" d="M11.19,15.61a5.91,5.91,0,0,1,.3-3.24,4.85,4.85,0,0,0,.46,2.8c.83.38.68,2.17.55,2.86.23,3.81,1.27,7.53,1.67,11.38,1.73,4.67,7.26,10.09,13.06,14,.62-.09.91.1,1,.69,9.74,7.22,11.35,20.19,12,24.43a3.89,3.89,0,0,1,1,2.74L52.73,82.87A30.58,30.58,0,0,0,59.05,76a14.22,14.22,0,0,1,1.38-2.49c.43-.84.17-1.42-.47-1.6,1.22-.65,1.52.25,1.73.46C69.32,68.15,77,60,82.93,58.7c1.54-.57,2.12-.22,2.45.13a2.21,2.21,0,0,0-1.9.7c-.07,2.4,2.86,1,4.32.39,10.46-5.37,20.52-8.24,30-7.07A4.09,4.09,0,0,1,121,54.67c-1.84-1.23-2.13-.65-2.65-.93a3.46,3.46,0,0,1-2,.92c-7.27,8.85-6.31,20.06-4.46,23.71a3.69,3.69,0,0,1,.85,2.58c-.86-1.29-1.25-1.7-2.07-1.22-6.87,1.47-9.85-.5-19.61,13.07a3.31,3.31,0,0,1-.94,1.79,2.91,2.91,0,0,1-.53,2.28,5.45,5.45,0,0,0-.5-2.24,17.91,17.91,0,0,0-10.14-5c-7.42-.81-10.73,4.63-10.85,5.15,2.23,1.44,6.56,1.59,10.49-.77C77,96.28,73.89,97.59,73,99.7a2,2,0,0,0,1.09.7c.67.23,1.21-.25,1.72,1.11.24.72.82.88,1.08,1.36a3.35,3.35,0,0,1,.43,1.38,10.8,10.8,0,0,1,.07,1.33,2,2,0,0,1-1.16,1.58c.19-.56.29-1.43-.24-1.61a2.17,2.17,0,0,1-1.31,1c1.12-2.06,1.26-3.84-2.92-4.74a9.71,9.71,0,0,0-4.87.52c-3.4,1.27-5.09,1.24-7.22-.89-5.3,3.1-12.92,4.27-16.61-1.06a4.79,4.79,0,0,0-2-1.51c-2.3-.51-5.25-.34-6.24.43a2.79,2.79,0,0,1-1.79.39,1.94,1.94,0,0,1,.39-1.93,13.2,13.2,0,0,1-2,.58c-.1.36.14.57.3.91a4,4,0,0,1-1.71-.5,10.13,10.13,0,0,0-1.24-.05c-1.73-.38-2.66-1.18-2.07-2.19A1.67,1.67,0,0,0,27,94.7c-.83-1-.9-1.67-.13-3.29.53-3.42-6.9-5.7-6-11.66,3.77,5.79,4.69,3.71,6.75,6-.47-1.12-1.22-2.17-.83-3.48,2.51,3.83,4,3,5.58,4.32a7.15,7.15,0,0,1,6.24.31,2.16,2.16,0,0,0,.95.34c-.08-1.79-1.14-4.51-4-7.77-4.36-5-9.07-10.06-13-15.2a4.09,4.09,0,0,0-2.06-1.09,2,2,0,0,0-2,.36,1.89,1.89,0,0,1,1.1-2.19C14.81,56.57,10.83,48,9.24,38.45,9,38,8.63,37.27,8.83,36.81a2.06,2.06,0,0,1,.47-1.53,2.08,2.08,0,0,0,1.14,1.54,2.06,2.06,0,0,0,.86-1.25C9.33,29.9,8.29,23.58,11.19,15.61Z"/><path class="cls-2" d="M27,94.7l.34.48a.91.91,0,0,0,.25.6c.22.24.41.11.59-.2a6,6,0,0,1,7.61-2.7,7.45,7.45,0,0,0,2.88,2.32.92.92,0,0,0,.37.4,6.36,6.36,0,0,0-2.22,0c-1.86.44-1.11,1.12.11,1.7a2.07,2.07,0,0,0-2.44,1.61c-.07.16,0,.27-.15.46a1.08,1.08,0,0,1-.24.24,2,2,0,0,1-1.06.08,1.94,1.94,0,0,1,.39-1.93,13.2,13.2,0,0,1-2,.58c-.1.36.14.57.3.91a4,4,0,0,1-1.71-.5,10.13,10.13,0,0,0-1.24-.05c-1.73-.38-2.66-1.18-2.07-2.19A1.67,1.67,0,0,0,27,94.7Z"/><path class="cls-3" d="M120,53.62c-.62-.17-1.27-.31-1.95-.43-3.23.23-6.24.13-9.69.68a98.78,98.78,0,0,0-9.83,2.36,53.59,53.59,0,0,0-9.28,4.18c-7.6,3.89-14.45,9.24-22.91,12.95-1.68.68-.56,1.24.38,1.26,12.66-1.29,23.71-1.34,34.5.84A30.77,30.77,0,0,1,108,77.4c.75.26,2.86.66,4.19,2l.43.69a8.56,8.56,0,0,0-1.06-.87c-3.24-1.49-6.71-2.7-13.6-3.49C88.3,74,78.42,74.45,68,75.55c-2.85-.21-3.5.29-2,1C77.36,81.07,85.2,87.64,89.42,93.82a3,3,0,0,1,.33,1.8l-.39-1.09c-5.13-7-15-14.22-24.72-17.23-2.52-.81-4.25-.25-5.31,1.24-2,4-4,8.24-6.14,12.32a2.71,2.71,0,0,1-3,1.78,19.06,19.06,0,0,0-5.67.68,2.63,2.63,0,0,1-3.41-1.89l-.76-3.24a23,23,0,0,0,6.42,1.61,5.16,5.16,0,0,0,4.93-2.54C54,83.59,56.16,80,58.61,76.72v-.05l.44-.66a14.22,14.22,0,0,1,1.38-2.49c.43-.84.17-1.42-.47-1.6,1.22-.65,1.52.25,1.73.46C69.32,68.15,77,60,82.93,58.7a3.33,3.33,0,0,1,1.72-.27l-1.75.69-4.83,2.7L73.92,65l-.65.75L71.8,67a54.74,54.74,0,0,0-7.39,5q-1,.92.09,1L74,68.1l14.26-8.36,0-.07c10.27-5.2,20.16-8,29.43-6.8A5.24,5.24,0,0,1,120,53.62Z"/><path class="cls-2" d="M111.72,78h0c-1.88-2.59-5.16-4.06-3.83-10.26.67-1.31,1.49-2.18,1.59-3.9a14.51,14.51,0,0,1,6.85-9.22C109.26,63.26,110,74.09,111.72,78Z"/><path class="cls-2" d="M82.12,90.36a15.27,15.27,0,0,0-3.2-.7c-7.42-.81-10.73,4.63-10.85,5.15-.82,1.61-1.6,4.61,5.44,5.34a8.65,8.65,0,0,1-7.64-1.65c-1.14-.69-1.37-1.91-1-3.33,1.32-2.71,2.69-5,6.19-5,.24-.09.8,0,.91-.52C74.63,86.85,80.25,89.41,82.12,90.36Z"/><path class="cls-2" d="M110.46,79.76c-6.74,1.39-9.75-.41-19.42,13a3.31,3.31,0,0,1-.94,1.79,2.88,2.88,0,0,0-.2-1.42C91.06,89.79,95.87,77,110.46,79.76Z"/><path class="cls-2" d="M76.92,102.86a3.35,3.35,0,0,1,.43,1.38,10.8,10.8,0,0,1,.07,1.33A2.09,2.09,0,0,1,76.5,107a3.18,3.18,0,0,0,.57-2.3,3.9,3.9,0,0,0-.48-2.26A1.51,1.51,0,0,1,76.92,102.86Z"/><path class="cls-2" d="M43.22,98.68c2.85,3.78,7.45,5.43,13.32,4.24-4.84,1.81-10.45,1.78-13.45-2.56l-.25-.29C43.49,100.35,43.84,100.32,43.22,98.68Z"/><path class="cls-2" d="M14.17,29.41c1.56,4.22,6.23,9,11.38,12.82a15.67,15.67,0,0,1-5.5-2.89c-.6-.47-1.79-1.06-.57.18,1,1,1.89,1.85,3.06,2.8,1.64,1.36,0,.67-1.32-.32l-1.88-1.32c-.55-.49-1-.25-.67.19.52.59.16.38.74.89.17.18.43.67.23.43a11.58,11.58,0,0,1-4.45-4.8A71,71,0,0,1,14.17,29.41Z"/><path class="cls-2" d="M30.26,45.74c7.25,6.72,9.1,16.78,9.82,21.51-2-4.32-4.45-8.43-11.42-13.36-1-.71-.35-.72.46-.55a14.42,14.42,0,0,1,5.82,3.35c-1-2.13-1.65-3.78-6.53-7.62q-1.63-1.52.19-.69l3.45,1.74c1.75,1.1,2.12.91.51-1A20.08,20.08,0,0,1,30.26,45.74Z"/><path class="cls-2" d="M52.71,82.85l0,0a37.79,37.79,0,0,0,4.48-4.37l-.06.22c-1.88,2.7-3.63,5.61-5.45,8.52a5.16,5.16,0,0,1-4.93,2.54,23,23,0,0,1-6.42-1.61l-1.3-1.1h0a2,2,0,0,0,.44.11c2.08.52,4.51,1,7-.47a26,26,0,0,0,6.19-3.87Z"/><path class="cls-3" d="M14.17,29.41a91.68,91.68,0,0,0,1.65,11.41A129.36,129.36,0,0,0,20.76,57.9c.18.54.43.64.47.28.39-4.76,1.62-11.55,6-14.77h0c.62-.09.91.1,1,.69C25,45.43,22.38,51.19,22.1,58c0,.89-.2,1.71,1.54,2.23,7.7,1.46,14.92,5.85,16.63,8.29a3.89,3.89,0,0,1,1,2.74c-1.61-3.83-8.77-8.46-18-10.17-1.49-.16-1.06.87-.21,1.76,3.2,3.69,6.47,7.43,10.28,11.2,4.15,4.1,7.76,8.53,9.79,13.66a13.12,13.12,0,0,1-3.56-.51h0c-.08-1.79-1.14-4.51-4-7.77-4.36-5-9.07-10.06-13-15.2a4.09,4.09,0,0,0-2.06-1.09,2,2,0,0,0-2,.36,1.89,1.89,0,0,1,1.1-2.19C14.81,56.57,10.83,48,9.24,38.45,9,38,8.63,37.27,8.83,36.81a2.06,2.06,0,0,1,.47-1.53,1.7,1.7,0,0,0,.22.65l.07.46a5.15,5.15,0,0,0,.19,1.77c.53,2.5,1.28,4.88,2,7.4a67.1,67.1,0,0,0,4,9.35,38.85,38.85,0,0,0,2.91,4c.62.57,1.43.38,1.31-.42a130.56,130.56,0,0,1-4.28-13.93A128.41,128.41,0,0,1,13.46,30L11.31,15.52l-.21-1.13a5.64,5.64,0,0,1,.39-2,4.85,4.85,0,0,0,.46,2.8c.83.38.68,2.17.55,2.86C12.73,21.84,13.77,25.57,14.17,29.41Z"/><path class="cls-2" d="M29.72,67.3a32.48,32.48,0,0,1,13.58,6l9.43,9.54,0,0h0a17.6,17.6,0,0,1-1.55,1.23c-1.92-1.9-1.44-2.15-9.37-8.15a23,23,0,0,0-8.49-4.22c.69-.06.26-.71,6.58,1.93.83.27,1.1.17-.18-.9A23.79,23.79,0,0,0,33.22,69C31.27,68.09,29,67.35,29.72,67.3Z"/><path class="cls-2" d="M38,89.7c-.39.19-1,.28-1.47.53a1.72,1.72,0,0,0-.75,2.65,6,6,0,0,0-7.61,2.7c-.17.31-.37.44-.59.2s-.4-1,.31-1.75a17.74,17.74,0,0,1,1.8-1.82,14.18,14.18,0,0,1,1.6-1.43c-.2.68-.16.9.58.76l1.28-.76c-.05-.67-.41-1-1.42-.69.56-.93.41-1.28-.06-1.36.14-.58-.64-1.31-1.28-2a4.18,4.18,0,0,1-.86-.86A7,7,0,0,1,26.67,83a2.52,2.52,0,0,1,.11-.76c2.51,3.83,4,3,5.58,4.32C33.84,88.6,35.65,89.86,38,89.7Z"/><path class="cls-4" d="M31.51,98.33c-.1.36.14.57.3.91a4,4,0,0,1-1.71-.5A5.27,5.27,0,0,0,31.51,98.33Z"/><path class="cls-2" d="M27.27,85.36a15.21,15.21,0,0,1-2.42-.89l0,.35a21.26,21.26,0,0,0-2.07-1.38,7.4,7.4,0,0,1-2-2.59,5.32,5.32,0,0,1,0-1.1C24.41,85.22,25.43,83.68,27.27,85.36Z"/><path class="cls-4" d="M28.84,95.8s-.28-.26.82-1.35,1.47-.87,1.16-.59l-.38.32a1,1,0,0,1,.16,1.43,1.15,1.15,0,0,1-1.55.12Z"/><path class="cls-5" d="M30.18,94.37a.37.37,0,0,1,.05.58c-.18.17-.4.05-.57-.07A2.33,2.33,0,0,1,30.18,94.37Z"/><path class="cls-4" d="M29.16,98.07a1.5,1.5,0,0,0-.93-.73c-.59-.09-1.33-.22-1,0s.68.45.64.58-.08.37.46.24A2.79,2.79,0,0,1,29.16,98.07Z"/></svg>