<svg id="Animals&#x52A8;&#x7269;" xmlns="http://www.w3.org/2000/svg" viewbox="0 0 128 128" width="128" height="128"><defs><style>.cls-1{fill:#524b40;stroke:none;}.cls-2{fill:#8b7d6a;stroke:none;}.cls-3{fill:#b6ab98;stroke:none;}.cls-4{fill:#7d6f5c;stroke:none;}.cls-5{fill:#413a34;stroke:none;}.cls-6{fill:#aea392;stroke:none;}.cls-7,.cls-8{fill:#231f20;stroke:none;}.cls-7{opacity:0.22;stroke:none;}.cls-8{opacity:0.23;stroke:none;}.cls-9{fill:#6a5e50;stroke:none;}.cls-10{fill:#332f26;stroke:none;}</style></defs><title>animals&#x52A8;&#x7269;</title><path class="cls-1" d="M18.83,41s-.19-2.93.81-2.31A10.91,10.91,0,0,1,23,41.34a21.63,21.63,0,0,1,1.6,3Z"/><path class="cls-1" d="M40.6,72.35l4.93,11S45.28,84,45,84s-1.31.5-1.37,1A2.19,2.19,0,0,0,44,86.2H47.9s1-11.79.19-14-1.68-5.74-1.68-5.74l-6.61.69Z"/><path class="cls-1" d="M62.81,69.92a4,4,0,0,0,2.5,2.93c2.25.94,8.55,3.12,8.11,3.87s-3.49,6.3-4.49,6.61-1.43.44-1.93,1.19-1,1.62.06,1.62,3.77.22,4.18-.19,7.55-9.79,7.49-10.54-.25-1.68-.25-1.68-4.74-5.3-7.61-5.05S62.81,69.92,62.81,69.92Z"/><path class="cls-2" d="M22.57,42.48s-5.05-3-6.18-2.12,1.68,2.62,1.43,3.37S15.4,45.22,14.47,46a13.94,13.94,0,0,0-2.68,2.93c-.31.62.12,1.12-2.25,2.37s-4,1.81-4.05,2.37a2.06,2.06,0,0,0,1.37,2.18L8,56.14s-.87.87,2.31,1.12,8.11.12,8.11.12a7.66,7.66,0,0,0,2.87,1.19,8,8,0,0,1,3.81,1.12c1.06.75,5.61,4.49,6.55,7.42S31.31,72.23,31,74s.19,8-.81,8.92-2.25,1.31-2.43,1.87-.5,1.37.44,1.37h4.05a8.9,8.9,0,0,0,1.87-2c1.19-1.56,6.55-10.67,6.49-11.79s-.81-5.18-.81-5.18,6.92-.44,10.73.37S60.69,70,64.06,70.23a65.14,65.14,0,0,0,7.42,0,5.63,5.63,0,0,0,4.05,3.93C79,75.22,86.26,76.1,86.26,77.1s0,6.24-1.12,6.3-3.18.37-3.43,1.19a2.54,2.54,0,0,0,.12,1.62h4.93s5.61-9.92,5.05-11.85-4.18-2.18-4.18-2.87a93,93,0,0,0,.19-10.23c-.31-3.37-1.5-7.36-.56-6.55s6.55,7.24,11,11,7.61,6.92,14.78,7.36,11-3.24,11-3.24-3.06-1.25-3.87-2.68-7.3-11-17-14.22a81.11,81.11,0,0,0-17.78-3.62c-.75-.25-3.68-4.3-5.8-5.3s-11.45-3.55-13.51-3.55-18.74,3.18-19.92,3.18-5.3-1.81-8-.75-5.74,3-8.48,2.68S22.57,42.48,22.57,42.48Z"/><path class="cls-3" d="M28.71,62.85c.26.27.52.54.76.83a10.62,10.62,0,0,1,2.2,3.44A6.86,6.86,0,0,1,32,69.18a7.39,7.39,0,0,1-.06.94,11,11,0,0,1-.36,1.7c-.23.79-.48,1.51-.6,2.17l0,.17v.06l0,.14v1.08c0,.08,0,.16,0,.24v0c0,2.4.06,6.06-.57,7h0a10.07,10.07,0,0,0,2.54-.47A21,21,0,0,1,35.5,82c2-3.25,5.15-8.81,5.1-9.67-.06-1.12-.81-5.18-.81-5.18s6.92-.44,10.73.37S60.69,70,64.06,70.23a65.15,65.15,0,0,0,7.42,0,5.63,5.63,0,0,0,4.05,3.93C79,75.22,86.26,76.1,86.26,77.1c0,.08,0,.19,0,.32,2.13-.57,3.43-1.2,3.58-1.9C90.35,73,74.91,59,59.68,56.62,45.88,54.5,32.22,64,31.56,63.68c-1.39-.62.36-2,0-4.32s-7.14-3.8-8.68-4.57-.36-4.47-.92-6-2.28-.69-4.39-1c-1.66-.24-1.59-2-1.62-2.74l-.09,0-.19.1-.08,0-.19.11,0,0-.23.13-.05,0-.16.1-.07,0-.14.09-.06,0-.17.13h0l0,0-.15.13-.15.13,0,0-.38.35a6.37,6.37,0,0,0,1.14,2A41.49,41.49,0,0,1,18.46,55a13.73,13.73,0,0,1,.82,2.82h0l.21.11,0,0,.19.09.06,0,.18.08.08,0,.17.07.09,0,.16.06.1,0,.16,0,.1,0,.17,0,.09,0,.26,0,.5.05a11.34,11.34,0,0,1,1.5.27,6.74,6.74,0,0,1,1,.32,4.7,4.7,0,0,1,.86.47l.24.17.31.24c.4.31.92.75,1.5,1.27.33.29.67.62,1,1Z"/><path class="cls-4" d="M11.61,49c-.17.54.3,1-2.07,2.25s-4,1.81-4.05,2.37a2.06,2.06,0,0,0,1.37,2.18L8,56.14s-.87.87,2.31,1.12,8.11.12,8.11.12a7.66,7.66,0,0,0,2.87,1.19,11.75,11.75,0,0,1,2.29.42c-.73-.74-1.93-2-2.67-2.79-1.12-1.25-1.12-3.93-1.25-5S17.52,49.84,16,48.9A3.88,3.88,0,0,1,14.47,46,12.32,12.32,0,0,0,11.61,49Z"/><path class="cls-3" d="M89.29,49.8a6.55,6.55,0,0,1-.1,1.54c-.19.57-1.92,3.37-1.92,3.37s.37.35.67.67c.35-.51,1-1.49,1.69-2.65a7.44,7.44,0,0,0,1-2.75Z"/><path class="cls-3" d="M96.84,51.16c-1.07-.25-2.09-.47-3-.65a15.06,15.06,0,0,1-1,3A14.59,14.59,0,0,1,89.47,57c.71.76,1.54,1.65,2.44,2.59a24.8,24.8,0,0,0,3.41-4A8.9,8.9,0,0,0,96.84,51.16Z"/><path class="cls-3" d="M104.13,53.3l-1-.35q-1.41-.47-2.75-.86A28.73,28.73,0,0,1,98.67,57,16.65,16.65,0,0,1,94.22,62c1.05,1.05,2.13,2.09,3.16,3a25.69,25.69,0,0,0,4.33-5.3A20.18,20.18,0,0,0,104.13,53.3Z"/><path class="cls-3" d="M107,54.66a22.56,22.56,0,0,1-2.11,6.86,14.14,14.14,0,0,1-5.3,5.43c1,.89,2,1.72,3.05,2.48A14.61,14.61,0,0,0,108,64.11,16,16,0,0,0,110,56.48,29.54,29.54,0,0,0,107,54.66Z"/><path class="cls-3" d="M115.59,61.38c-.83-.88-1.76-1.78-2.78-2.68a24,24,0,0,1-1.8,6.86,10.49,10.49,0,0,1-5.26,5.73,17.21,17.21,0,0,0,4.43,1.46,19.72,19.72,0,0,0,3.73-5.17A16.85,16.85,0,0,0,115.59,61.38Z"/><path class="cls-3" d="M120.13,67.18a28,28,0,0,0-2.19-3.08,24.17,24.17,0,0,1-.55,4.5,9.89,9.89,0,0,1-3.14,4.54c6.38,0,9.75-3.28,9.75-3.28S120.94,68.61,120.13,67.18Z"/><path class="cls-5" d="M47.9,86.2s.27-3.16.41-6.51l-2.78,3.64S45.28,84,45,84s-1.31.5-1.37,1A2.19,2.19,0,0,0,44,86.2Z"/><path class="cls-5" d="M75.33,78.47a6.35,6.35,0,0,1-2.91,0c-1.11,1.91-2.81,4.67-3.5,4.89-1,.31-1.43.44-1.93,1.19s-1,1.62.06,1.62,3.77.22,4.18-.19,3.83-4.92,5.94-8A15.68,15.68,0,0,1,75.33,78.47Z"/><path class="cls-6" d="M5.48,53.64a2.06,2.06,0,0,0,1.37,2.18L8,56.14s-.87.87,2.31,1.12,8.11.12,8.11.12l.25.16c-.79-1.34-2.72-4.4-4.49-5.65a5.13,5.13,0,0,0-4.68-.62C7.17,52.52,5.55,53.08,5.48,53.64Z"/><path class="cls-7" d="M51.46,46.34c-1.93.87-7,.19-9.86.06S32.74,50,30.68,50.09s-7.61-3.81-10.11-3.93-7.42,6.49-9.23,7.3a37.26,37.26,0,0,1-5.47,1.69,1.69,1.69,0,0,0,1,.68L8,56.14s-.87.87,2.31,1.12,8.11.12,8.11.12a7.66,7.66,0,0,0,2.87,1.19,8,8,0,0,1,3.81,1.12c1.06.75,5.61,4.49,6.55,7.42S31.31,72.23,31,74s.19,8-.81,8.92-2.25,1.31-2.43,1.87-.5,1.37.44,1.37h4.05a8.9,8.9,0,0,0,1.87-2c1.19-1.56,6.55-10.67,6.49-11.79s-.81-5.18-.81-5.18,6.92-.44,10.73.37S60.69,70,64.06,70.23a65.15,65.15,0,0,0,7.42,0,5.63,5.63,0,0,0,4.05,3.93C79,75.22,86.26,76.1,86.26,77.1s0,6.24-1.12,6.3-3.18.37-3.43,1.19a2.54,2.54,0,0,0,.12,1.62h4.93s5.61-9.92,5.05-11.85-4.18-2.18-4.18-2.87a93,93,0,0,0,.19-10.23c-.31-3.37-1.5-7.36-.56-6.55l-1.87-5.36A108.45,108.45,0,0,0,68,43.91,26.3,26.3,0,0,0,51.46,46.34Z"/><path class="cls-8" d="M124,69.86h0a49.61,49.61,0,0,1-11.72-2c-5.38-1.74-8-5.07-12.8-9.39s-14.09-9.17-14.09-9.17h0l1.87,5.36c.94.81,6.55,7.24,11,11s7.61,6.92,14.78,7.36S124,69.86,124,69.86Z"/><path class="cls-9" d="M87.63,71.48a93,93,0,0,0,.19-10.23c-.31-3.37-1.5-7.36-.56-6.55l-1.87-5.36A26,26,0,0,0,69.21,40c-8.29-1.29-16.06,2.28-18,3.16s-7.71.69-10.58.57-7.8,3.11-9.85,3.23-8.32-5.45-11.3-3.57c-1.65,1-.83,3.45-2,4.44,1.09.08,3.53.36,4,1.28.56,1.19-.5,5.49,1.5,6.49s8,3,8,4.93-1.06,2.93.75,4.05A7.23,7.23,0,0,1,35,70a22,22,0,0,1-.75,7.61c-.5,1.06-2,4.43-2,4.43l3.46-.49c2-3.29,4.88-8.41,4.84-9.24-.06-1.12-.81-5.18-.81-5.18s-1.06-2.56.19-3.31,10.23-.25,13-.25a45.91,45.91,0,0,1,10.29,1.25c3,.81,6.67,2.62,6.18,1.81s-4.05-7.17-2.25-5.8,7.11,7.92,9.23,9.23,7.8,4,8.8,4.93a3.07,3.07,0,0,1,1,2.06c0,.37,0,1.34-.06,2.41a65.09,65.09,0,0,0,5.51-3.88,2.73,2.73,0,0,0,.1-1.27C91.25,72.42,87.63,72.17,87.63,71.48Z"/><path class="cls-5" d="M30.18,82.9c-1,.87-2.25,1.31-2.43,1.87s-.5,1.37.44,1.37h4.05a8.9,8.9,0,0,0,1.87-2c.31-.41.93-1.36,1.65-2.55l-5.24.61A1.44,1.44,0,0,1,30.18,82.9Z"/><path class="cls-5" d="M86.25,78.15c0,1.86-.22,5.19-1.11,5.24-1.12.06-3.18.37-3.43,1.19a2.54,2.54,0,0,0,.12,1.62h4.93s4.46-7.88,5-11Z"/><path class="cls-10" d="M12.59,49.85s-.16-1.39,1-.79l1.13.61Z"/><path class="cls-10" d="M5.48,53.64a2.33,2.33,0,0,0,.12.92,2.84,2.84,0,0,0,.78-.88c.16-.32-.31-.4-.64-.42A.63.63,0,0,0,5.48,53.64Z"/><path class="cls-10" d="M7.93,56.38l1.13-.15c1.89-.25,1.84-.58,1.84-.58l-1.12.27a13.82,13.82,0,0,1-1.73.2A.41.41,0,0,0,7.93,56.38Z"/><path class="cls-8" d="M87.11,64s-1.57-2.81-1.45-4.11.09-5.64-.42-5.48,0,.52-.63,1.32-1.94,1.68-2.25,2.39a2.55,2.55,0,0,0-.29,1,1.81,1.81,0,0,1,2.16.78C85.07,61.18,87.11,64,87.11,64Z"/><path class="cls-8" d="M75.54,67a15,15,0,0,1-3.3-4.24c2.69-.49,2.36-2,2.36-2s-3-4.74-3.33-7.46-1.17-7.08-2-5.43c-.5,1-1,4.43-1.23,7.22-3.84-.47-12.59,6.75-16.54,6.55-4.48-.22-10.4-2.91-13.76-3.92s-3.69,1-5,1-8.06-4.14-8.39-6-2.85-3.6-2.85-3.6c.56,1.19-.5,5.49,1.5,6.49s8,3,8,4.93-1.06,2.93.75,4.05A7.23,7.23,0,0,1,35,70a22,22,0,0,1-.75,7.61c-.5,1.06-2,4.43-2,4.43l3.46-.49c2-3.29,4.88-8.41,4.84-9.24-.06-1.12-.81-5.18-.81-5.18s-1.06-2.56.19-3.31,10.23-.25,13-.25a45.92,45.92,0,0,1,10.29,1.25c3,.81,6.67,2.62,6.18,1.81s-4.05-7.17-2.25-5.8,7.11,7.92,9.23,9.23c1.81,1.12,6.19,3.23,8.06,4.4A98,98,0,0,1,75.54,67Z"/></svg>